<?xml version="1.0" encoding="utf-8" standalone="no"?>
<!DOCTYPE svg PUBLIC "-//W3C//DTD SVG 1.1//EN"
  "http://www.w3.org/Graphics/SVG/1.1/DTD/svg11.dtd">
<!-- Created with matplotlib (http://matplotlib.org/) -->
<svg height="360pt" version="1.1" viewBox="0 0 864 360" width="864pt" xmlns="http://www.w3.org/2000/svg" xmlns:xlink="http://www.w3.org/1999/xlink">
 <defs>
  <style type="text/css">
*{stroke-linecap:butt;stroke-linejoin:round;}
  </style>
 </defs>
 <g id="figure_1">
  <g id="patch_1">
   <path d="M 0 360 
L 864 360 
L 864 0 
L 0 0 
z
" style="fill:#ffffff;"/>
  </g>
  <g id="axes_1">
   <g id="patch_2">
    <path d="M 108 320.4 
L 777.6 320.4 
L 777.6 43.2 
L 108 43.2 
z
" style="fill:#ffffff;"/>
   </g>
   <g id="matplotlib.axis_1">
    <g id="xtick_1">
     <g id="line2d_1">
      <path clip-path="url(#p263c5c2c50)" d="M 108 320.4 
L 108 43.2 
" style="fill:none;stroke:#b0b0b0;stroke-linecap:square;stroke-width:0.8;"/>
     </g>
     <g id="line2d_2">
      <defs>
       <path d="M 0 0 
L 0 3.5 
" id="mccdcd45ada" style="stroke:#000000;stroke-width:0.8;"/>
      </defs>
      <g>
       <use style="stroke:#000000;stroke-width:0.8;" x="108" xlink:href="#mccdcd45ada" y="320.4"/>
      </g>
     </g>
     <g id="text_1">
      <!-- 2008-12-24 -->
      <defs>
       <path d="M 51.171875 0 
L 5.171875 0 
L 5.171875 8.296875 
L 27.15625 30.21875 
Q 36.234375 39.3125 39.3125 44.609375 
Q 42.390625 49.90625 42.390625 55.5625 
Q 42.390625 62.015625 38.765625 65.453125 
Q 35.15625 68.890625 28.328125 68.890625 
Q 18.21875 68.890625 9.03125 60.296875 
L 9.03125 70.015625 
Q 17.96875 76.90625 29.828125 76.90625 
Q 40.046875 76.90625 45.953125 71.390625 
Q 51.859375 65.875 51.859375 56.546875 
Q 51.859375 49.515625 48.0625 42.75 
Q 44.28125 35.984375 33.734375 25.53125 
L 16.5 8.6875 
L 16.5 8.5 
L 51.171875 8.5 
z
" id="MicrosoftYaHei-32"/>
       <path d="M 4.4375 36.328125 
Q 4.4375 56.34375 11.078125 66.625 
Q 17.71875 76.90625 30.328125 76.90625 
Q 54.34375 76.90625 54.34375 38.140625 
Q 54.34375 19 47.578125 8.859375 
Q 40.828125 -1.265625 28.609375 -1.265625 
Q 17.09375 -1.265625 10.765625 8.34375 
Q 4.4375 17.96875 4.4375 36.328125 
z
M 14.203125 36.765625 
Q 14.203125 6.640625 29.5 6.640625 
Q 44.53125 6.640625 44.53125 37.25 
Q 44.53125 68.953125 29.78125 68.953125 
Q 14.203125 68.953125 14.203125 36.765625 
z
" id="MicrosoftYaHei-30"/>
       <path d="M 21.390625 39.796875 
Q 7.859375 46.09375 7.859375 58.0625 
Q 7.859375 66.40625 14.203125 71.65625 
Q 20.5625 76.90625 30.421875 76.90625 
Q 39.453125 76.90625 45.3125 71.96875 
Q 51.171875 67.046875 51.171875 59.234375 
Q 51.171875 46.625 37.0625 39.84375 
L 37.0625 39.65625 
Q 53.609375 33.6875 53.609375 19.34375 
Q 53.609375 9.90625 46.796875 4.3125 
Q 39.984375 -1.265625 27.78125 -1.265625 
Q 17.78125 -1.265625 11.46875 4.25 
Q 5.171875 9.765625 5.171875 18.5625 
Q 5.171875 33.015625 21.390625 39.59375 
z
M 41.5 58.109375 
Q 41.5 63.1875 38.328125 66.109375 
Q 35.15625 69.046875 29.734375 69.046875 
Q 24.65625 69.046875 21.09375 65.984375 
Q 17.53125 62.9375 17.53125 58.203125 
Q 17.53125 48.734375 29.390625 43.796875 
Q 41.5 48.828125 41.5 58.109375 
z
M 28.8125 35.25 
Q 14.796875 29.59375 14.796875 19.046875 
Q 14.796875 13.578125 18.890625 10.0625 
Q 23 6.546875 29.59375 6.546875 
Q 35.984375 6.546875 39.984375 10.03125 
Q 44 13.53125 44 18.75 
Q 44 29.734375 28.8125 35.25 
z
" id="MicrosoftYaHei-38"/>
       <path d="M 36.375 26.265625 
L 7.625 26.265625 
L 7.625 33.640625 
L 36.375 33.640625 
z
" id="MicrosoftYaHei-2d"/>
       <path d="M 52.59375 0 
L 9.234375 0 
L 9.234375 8.25 
L 26.171875 8.25 
L 26.171875 65.671875 
L 8.796875 60.640625 
L 8.796875 69.4375 
L 35.6875 77.25 
L 35.6875 8.25 
L 52.59375 8.25 
z
" id="MicrosoftYaHei-31"/>
       <path d="M 55.078125 19.625 
L 45.40625 19.625 
L 45.40625 0 
L 36.140625 0 
L 36.140625 19.625 
L 0.875 19.625 
L 0.875 25.828125 
L 34.328125 75.640625 
L 45.40625 75.640625 
L 45.40625 27.203125 
L 55.078125 27.203125 
z
M 36.140625 27.203125 
L 36.140625 58.890625 
Q 36.140625 62.25 36.328125 66.65625 
L 36.140625 66.65625 
Q 35.453125 64.796875 33.25 60.84375 
L 10.75 27.203125 
z
" id="MicrosoftYaHei-34"/>
      </defs>
      <g transform="translate(80.217187 335.39375)scale(0.1 -0.1)">
       <use xlink:href="#MicrosoftYaHei-32"/>
       <use x="58.642578" xlink:href="#MicrosoftYaHei-30"/>
       <use x="117.285156" xlink:href="#MicrosoftYaHei-30"/>
       <use x="175.927734" xlink:href="#MicrosoftYaHei-38"/>
       <use x="234.570312" xlink:href="#MicrosoftYaHei-2d"/>
       <use x="277.832031" xlink:href="#MicrosoftYaHei-31"/>
       <use x="336.474609" xlink:href="#MicrosoftYaHei-32"/>
       <use x="395.117188" xlink:href="#MicrosoftYaHei-2d"/>
       <use x="438.378906" xlink:href="#MicrosoftYaHei-32"/>
       <use x="497.021484" xlink:href="#MicrosoftYaHei-34"/>
      </g>
     </g>
    </g>
    <g id="xtick_2">
     <g id="line2d_3">
      <path clip-path="url(#p263c5c2c50)" d="M 199.751165 320.4 
L 199.751165 43.2 
" style="fill:none;stroke:#b0b0b0;stroke-linecap:square;stroke-width:0.8;"/>
     </g>
     <g id="line2d_4">
      <g>
       <use style="stroke:#000000;stroke-width:0.8;" x="199.751165" xlink:href="#mccdcd45ada" y="320.4"/>
      </g>
     </g>
     <g id="text_2">
      <!-- 2010-05-08 -->
      <defs>
       <path d="M 8.640625 11.625 
Q 16.265625 6.640625 24.515625 6.640625 
Q 32.328125 6.640625 37.109375 11 
Q 41.890625 15.375 41.890625 22.609375 
Q 41.890625 29.890625 37.03125 33.890625 
Q 32.171875 37.890625 22.953125 37.890625 
Q 18.5 37.890625 10.984375 37.203125 
L 10.984375 75.640625 
L 48.1875 75.640625 
L 48.1875 67.1875 
L 19.875 67.1875 
L 19.875 45.796875 
Q 24.125 46.046875 26.265625 46.046875 
Q 38.234375 46.046875 44.921875 39.984375 
Q 51.609375 33.9375 51.609375 23.296875 
Q 51.609375 12.3125 44.421875 5.515625 
Q 37.25 -1.265625 24.609375 -1.265625 
Q 14.015625 -1.265625 8.640625 1.859375 
z
" id="MicrosoftYaHei-35"/>
      </defs>
      <g transform="translate(171.968352 335.39375)scale(0.1 -0.1)">
       <use xlink:href="#MicrosoftYaHei-32"/>
       <use x="58.642578" xlink:href="#MicrosoftYaHei-30"/>
       <use x="117.285156" xlink:href="#MicrosoftYaHei-31"/>
       <use x="175.927734" xlink:href="#MicrosoftYaHei-30"/>
       <use x="234.570312" xlink:href="#MicrosoftYaHei-2d"/>
       <use x="277.832031" xlink:href="#MicrosoftYaHei-30"/>
       <use x="336.474609" xlink:href="#MicrosoftYaHei-35"/>
       <use x="395.117188" xlink:href="#MicrosoftYaHei-2d"/>
       <use x="438.378906" xlink:href="#MicrosoftYaHei-30"/>
       <use x="497.021484" xlink:href="#MicrosoftYaHei-38"/>
      </g>
     </g>
    </g>
    <g id="xtick_3">
     <g id="line2d_5">
      <path clip-path="url(#p263c5c2c50)" d="M 291.502329 320.4 
L 291.502329 43.2 
" style="fill:none;stroke:#b0b0b0;stroke-linecap:square;stroke-width:0.8;"/>
     </g>
     <g id="line2d_6">
      <g>
       <use style="stroke:#000000;stroke-width:0.8;" x="291.502329" xlink:href="#mccdcd45ada" y="320.4"/>
      </g>
     </g>
     <g id="text_3">
      <!-- 2011-09-20 -->
      <defs>
       <path d="M 9.03125 10.25 
Q 15.28125 6.640625 22.515625 6.640625 
Q 32.671875 6.640625 38.25 14.640625 
Q 43.84375 22.65625 43.84375 37.40625 
Q 43.75 37.3125 43.65625 37.40625 
Q 38.671875 27.9375 26.90625 27.9375 
Q 17.390625 27.9375 11.140625 34.46875 
Q 4.890625 41.015625 4.890625 51.46875 
Q 4.890625 62.59375 11.71875 69.75 
Q 18.5625 76.90625 29.4375 76.90625 
Q 40.71875 76.90625 47.0625 68.046875 
Q 53.421875 59.1875 53.421875 42.234375 
Q 53.421875 21.296875 45.21875 10.015625 
Q 37.015625 -1.265625 22.515625 -1.265625 
Q 14.546875 -1.265625 9.03125 1.3125 
z
M 14.546875 52.6875 
Q 14.546875 45.0625 18.453125 40.59375 
Q 22.359375 36.140625 29.25 36.140625 
Q 35.203125 36.140625 39.25 40.203125 
Q 43.3125 44.28125 43.3125 50.09375 
Q 43.3125 58.25 39.28125 63.59375 
Q 35.25 68.953125 28.65625 68.953125 
Q 22.5625 68.953125 18.546875 64.3125 
Q 14.546875 59.671875 14.546875 52.6875 
z
" id="MicrosoftYaHei-39"/>
      </defs>
      <g transform="translate(263.719517 335.39375)scale(0.1 -0.1)">
       <use xlink:href="#MicrosoftYaHei-32"/>
       <use x="58.642578" xlink:href="#MicrosoftYaHei-30"/>
       <use x="117.285156" xlink:href="#MicrosoftYaHei-31"/>
       <use x="175.927734" xlink:href="#MicrosoftYaHei-31"/>
       <use x="234.570312" xlink:href="#MicrosoftYaHei-2d"/>
       <use x="277.832031" xlink:href="#MicrosoftYaHei-30"/>
       <use x="336.474609" xlink:href="#MicrosoftYaHei-39"/>
       <use x="395.117188" xlink:href="#MicrosoftYaHei-2d"/>
       <use x="438.378906" xlink:href="#MicrosoftYaHei-32"/>
       <use x="497.021484" xlink:href="#MicrosoftYaHei-30"/>
      </g>
     </g>
    </g>
    <g id="xtick_4">
     <g id="line2d_7">
      <path clip-path="url(#p263c5c2c50)" d="M 383.253494 320.4 
L 383.253494 43.2 
" style="fill:none;stroke:#b0b0b0;stroke-linecap:square;stroke-width:0.8;"/>
     </g>
     <g id="line2d_8">
      <g>
       <use style="stroke:#000000;stroke-width:0.8;" x="383.253494" xlink:href="#mccdcd45ada" y="320.4"/>
      </g>
     </g>
     <g id="text_4">
      <!-- 2013-02-01 -->
      <defs>
       <path d="M 6.984375 12.640625 
Q 14.75 6.640625 24.515625 6.640625 
Q 32.328125 6.640625 36.890625 10.46875 
Q 41.453125 14.3125 41.453125 20.75 
Q 41.453125 35.109375 20.90625 35.109375 
L 14.59375 35.109375 
L 14.59375 43.015625 
L 20.609375 43.015625 
Q 38.8125 43.015625 38.8125 56.5 
Q 38.8125 68.953125 24.90625 68.953125 
Q 16.9375 68.953125 9.90625 63.578125 
L 9.90625 72.609375 
Q 17.328125 76.90625 27.25 76.90625 
Q 36.921875 76.90625 42.78125 71.84375 
Q 48.640625 66.796875 48.640625 58.734375 
Q 48.640625 43.890625 33.5 39.65625 
L 33.5 39.453125 
Q 41.703125 38.578125 46.453125 33.671875 
Q 51.21875 28.765625 51.21875 21.4375 
Q 51.21875 11.234375 43.875 4.984375 
Q 36.53125 -1.265625 24.3125 -1.265625 
Q 13.578125 -1.265625 6.984375 2.734375 
z
" id="MicrosoftYaHei-33"/>
      </defs>
      <g transform="translate(355.470682 335.39375)scale(0.1 -0.1)">
       <use xlink:href="#MicrosoftYaHei-32"/>
       <use x="58.642578" xlink:href="#MicrosoftYaHei-30"/>
       <use x="117.285156" xlink:href="#MicrosoftYaHei-31"/>
       <use x="175.927734" xlink:href="#MicrosoftYaHei-33"/>
       <use x="234.570312" xlink:href="#MicrosoftYaHei-2d"/>
       <use x="277.832031" xlink:href="#MicrosoftYaHei-30"/>
       <use x="336.474609" xlink:href="#MicrosoftYaHei-32"/>
       <use x="395.117188" xlink:href="#MicrosoftYaHei-2d"/>
       <use x="438.378906" xlink:href="#MicrosoftYaHei-30"/>
       <use x="497.021484" xlink:href="#MicrosoftYaHei-31"/>
      </g>
     </g>
    </g>
    <g id="xtick_5">
     <g id="line2d_9">
      <path clip-path="url(#p263c5c2c50)" d="M 475.004659 320.4 
L 475.004659 43.2 
" style="fill:none;stroke:#b0b0b0;stroke-linecap:square;stroke-width:0.8;"/>
     </g>
     <g id="line2d_10">
      <g>
       <use style="stroke:#000000;stroke-width:0.8;" x="475.004659" xlink:href="#mccdcd45ada" y="320.4"/>
      </g>
     </g>
     <g id="text_5">
      <!-- 2014-06-16 -->
      <defs>
       <path d="M 49.703125 65.921875 
Q 43.796875 68.953125 37.359375 68.953125 
Q 27.546875 68.953125 21.578125 60.40625 
Q 15.625 51.859375 15.53125 37.0625 
L 15.765625 37.0625 
Q 21.140625 47.46875 32.90625 47.46875 
Q 42.71875 47.46875 48.578125 41.0625 
Q 54.4375 34.671875 54.4375 24.078125 
Q 54.4375 12.984375 47.671875 5.859375 
Q 40.921875 -1.265625 30.421875 -1.265625 
Q 18.890625 -1.265625 12.328125 7.734375 
Q 5.765625 16.75 5.765625 33.296875 
Q 5.765625 53.328125 14.375 65.109375 
Q 23 76.90625 37.0625 76.90625 
Q 45.125 76.90625 49.703125 74.703125 
z
M 16.109375 24.75 
Q 16.109375 17.28125 20.09375 11.953125 
Q 24.078125 6.640625 30.671875 6.640625 
Q 36.921875 6.640625 40.828125 11.234375 
Q 44.734375 15.828125 44.734375 23.046875 
Q 44.734375 30.859375 41.046875 35.203125 
Q 37.359375 39.546875 30.5625 39.546875 
Q 24.125 39.546875 20.109375 35.15625 
Q 16.109375 30.765625 16.109375 24.75 
z
" id="MicrosoftYaHei-36"/>
      </defs>
      <g transform="translate(447.221846 335.39375)scale(0.1 -0.1)">
       <use xlink:href="#MicrosoftYaHei-32"/>
       <use x="58.642578" xlink:href="#MicrosoftYaHei-30"/>
       <use x="117.285156" xlink:href="#MicrosoftYaHei-31"/>
       <use x="175.927734" xlink:href="#MicrosoftYaHei-34"/>
       <use x="234.570312" xlink:href="#MicrosoftYaHei-2d"/>
       <use x="277.832031" xlink:href="#MicrosoftYaHei-30"/>
       <use x="336.474609" xlink:href="#MicrosoftYaHei-36"/>
       <use x="395.117188" xlink:href="#MicrosoftYaHei-2d"/>
       <use x="438.378906" xlink:href="#MicrosoftYaHei-31"/>
       <use x="497.021484" xlink:href="#MicrosoftYaHei-36"/>
      </g>
     </g>
    </g>
    <g id="xtick_6">
     <g id="line2d_11">
      <path clip-path="url(#p263c5c2c50)" d="M 566.755824 320.4 
L 566.755824 43.2 
" style="fill:none;stroke:#b0b0b0;stroke-linecap:square;stroke-width:0.8;"/>
     </g>
     <g id="line2d_12">
      <g>
       <use style="stroke:#000000;stroke-width:0.8;" x="566.755824" xlink:href="#mccdcd45ada" y="320.4"/>
      </g>
     </g>
     <g id="text_6">
      <!-- 2015-10-29 -->
      <g transform="translate(538.973011 335.39375)scale(0.1 -0.1)">
       <use xlink:href="#MicrosoftYaHei-32"/>
       <use x="58.642578" xlink:href="#MicrosoftYaHei-30"/>
       <use x="117.285156" xlink:href="#MicrosoftYaHei-31"/>
       <use x="175.927734" xlink:href="#MicrosoftYaHei-35"/>
       <use x="234.570312" xlink:href="#MicrosoftYaHei-2d"/>
       <use x="277.832031" xlink:href="#MicrosoftYaHei-31"/>
       <use x="336.474609" xlink:href="#MicrosoftYaHei-30"/>
       <use x="395.117188" xlink:href="#MicrosoftYaHei-2d"/>
       <use x="438.378906" xlink:href="#MicrosoftYaHei-32"/>
       <use x="497.021484" xlink:href="#MicrosoftYaHei-39"/>
      </g>
     </g>
    </g>
    <g id="xtick_7">
     <g id="line2d_13">
      <path clip-path="url(#p263c5c2c50)" d="M 658.506988 320.4 
L 658.506988 43.2 
" style="fill:none;stroke:#b0b0b0;stroke-linecap:square;stroke-width:0.8;"/>
     </g>
     <g id="line2d_14">
      <g>
       <use style="stroke:#000000;stroke-width:0.8;" x="658.506988" xlink:href="#mccdcd45ada" y="320.4"/>
      </g>
     </g>
     <g id="text_7">
      <!-- 2017-03-12 -->
      <defs>
       <path d="M 53.765625 72.3125 
L 24.171875 0 
L 14.265625 0 
L 42.390625 67.1875 
L 4.59375 67.1875 
L 4.59375 75.640625 
L 53.765625 75.640625 
z
" id="MicrosoftYaHei-37"/>
      </defs>
      <g transform="translate(630.724176 335.39375)scale(0.1 -0.1)">
       <use xlink:href="#MicrosoftYaHei-32"/>
       <use x="58.642578" xlink:href="#MicrosoftYaHei-30"/>
       <use x="117.285156" xlink:href="#MicrosoftYaHei-31"/>
       <use x="175.927734" xlink:href="#MicrosoftYaHei-37"/>
       <use x="234.570312" xlink:href="#MicrosoftYaHei-2d"/>
       <use x="277.832031" xlink:href="#MicrosoftYaHei-30"/>
       <use x="336.474609" xlink:href="#MicrosoftYaHei-33"/>
       <use x="395.117188" xlink:href="#MicrosoftYaHei-2d"/>
       <use x="438.378906" xlink:href="#MicrosoftYaHei-31"/>
       <use x="497.021484" xlink:href="#MicrosoftYaHei-32"/>
      </g>
     </g>
    </g>
    <g id="xtick_8">
     <g id="line2d_15">
      <path clip-path="url(#p263c5c2c50)" d="M 750.258153 320.4 
L 750.258153 43.2 
" style="fill:none;stroke:#b0b0b0;stroke-linecap:square;stroke-width:0.8;"/>
     </g>
     <g id="line2d_16">
      <g>
       <use style="stroke:#000000;stroke-width:0.8;" x="750.258153" xlink:href="#mccdcd45ada" y="320.4"/>
      </g>
     </g>
     <g id="text_8">
      <!-- 2018-08-21 -->
      <g transform="translate(722.47534 335.39375)scale(0.1 -0.1)">
       <use xlink:href="#MicrosoftYaHei-32"/>
       <use x="58.642578" xlink:href="#MicrosoftYaHei-30"/>
       <use x="117.285156" xlink:href="#MicrosoftYaHei-31"/>
       <use x="175.927734" xlink:href="#MicrosoftYaHei-38"/>
       <use x="234.570312" xlink:href="#MicrosoftYaHei-2d"/>
       <use x="277.832031" xlink:href="#MicrosoftYaHei-30"/>
       <use x="336.474609" xlink:href="#MicrosoftYaHei-38"/>
       <use x="395.117188" xlink:href="#MicrosoftYaHei-2d"/>
       <use x="438.378906" xlink:href="#MicrosoftYaHei-32"/>
       <use x="497.021484" xlink:href="#MicrosoftYaHei-31"/>
      </g>
     </g>
    </g>
    <g id="text_9">
     <!-- date -->
     <defs>
      <path d="M 55.421875 0 
L 45.84375 0 
L 45.84375 8.984375 
L 45.65625 8.984375 
Q 39.75 -1.265625 27.296875 -1.265625 
Q 17.046875 -1.265625 10.984375 6.03125 
Q 4.9375 13.328125 4.9375 25.734375 
Q 4.9375 39.109375 11.765625 47.1875 
Q 18.609375 55.28125 29.640625 55.28125 
Q 40.671875 55.28125 45.65625 46.6875 
L 45.84375 46.6875 
L 45.84375 79.9375 
L 55.421875 79.9375 
z
M 45.90625 32.125 
Q 45.90625 38.625 41.625 42.984375 
Q 37.359375 47.359375 31.109375 47.359375 
Q 23.484375 47.359375 19.09375 41.671875 
Q 14.703125 35.984375 14.703125 26.171875 
Q 14.703125 17.140625 18.921875 11.890625 
Q 23.140625 6.640625 30.171875 6.640625 
Q 37.109375 6.640625 41.5 11.78125 
Q 45.90625 16.9375 45.90625 24.609375 
z
" id="MicrosoftYaHei-64"/>
      <path d="M 9.8125 50.25 
Q 17.875 55.28125 28.421875 55.28125 
Q 47.953125 55.28125 47.953125 34.765625 
L 47.953125 0 
L 38.484375 0 
L 38.484375 8.34375 
L 38.234375 8.34375 
Q 32.625 -1.265625 21.6875 -1.265625 
Q 13.8125 -1.265625 9.171875 2.984375 
Q 4.546875 7.234375 4.546875 14.453125 
Q 4.546875 29.59375 22.46875 32.078125 
L 38.484375 34.328125 
Q 38.484375 47.5625 27.546875 47.5625 
Q 17.828125 47.5625 9.8125 41.015625 
z
M 25.828125 25.390625 
Q 19.1875 24.515625 16.671875 22.0625 
Q 14.15625 19.625 14.15625 15.234375 
Q 14.15625 11.375 16.890625 8.9375 
Q 19.625 6.5 24.125 6.5 
Q 30.375 6.5 34.421875 10.890625 
Q 38.484375 15.28125 38.484375 21.921875 
L 38.484375 27.09375 
z
" id="MicrosoftYaHei-61"/>
      <path d="M 34.46875 0.53125 
Q 31.34375 -1.171875 26.03125 -1.171875 
Q 11.53125 -1.171875 11.53125 14.890625 
L 11.53125 46.09375 
L 2.25 46.09375 
L 2.25 54 
L 11.53125 54 
L 11.53125 67 
L 21.046875 70.015625 
L 21.046875 54 
L 34.46875 54 
L 34.46875 46.09375 
L 21.046875 46.09375 
L 21.046875 16.609375 
Q 21.046875 11.28125 22.84375 8.984375 
Q 24.65625 6.6875 28.859375 6.6875 
Q 32.078125 6.6875 34.46875 8.5 
z
" id="MicrosoftYaHei-74"/>
      <path d="M 52.546875 24.5625 
L 14.75 24.5625 
Q 14.984375 15.921875 19.46875 11.203125 
Q 23.96875 6.5 32.03125 6.5 
Q 41.109375 6.5 48.6875 12.3125 
L 48.6875 3.765625 
Q 41.546875 -1.265625 29.78125 -1.265625 
Q 18.0625 -1.265625 11.5 6.15625 
Q 4.9375 13.578125 4.9375 26.765625 
Q 4.9375 39.15625 12.140625 47.21875 
Q 19.34375 55.28125 30.03125 55.28125 
Q 40.625 55.28125 46.578125 48.46875 
Q 52.546875 41.65625 52.546875 29.390625 
z
M 42.96875 32.234375 
Q 42.921875 39.546875 39.5 43.546875 
Q 36.078125 47.5625 29.890625 47.5625 
Q 24.171875 47.5625 20 43.3125 
Q 15.828125 39.0625 14.75 32.234375 
z
" id="MicrosoftYaHei-65"/>
     </defs>
     <g transform="translate(432.138281 349.873438)scale(0.1 -0.1)">
      <use xlink:href="#MicrosoftYaHei-64"/>
      <use x="63.964844" xlink:href="#MicrosoftYaHei-61"/>
      <use x="119.238281" xlink:href="#MicrosoftYaHei-74"/>
      <use x="156.494141" xlink:href="#MicrosoftYaHei-65"/>
     </g>
    </g>
   </g>
   <g id="matplotlib.axis_2">
    <g id="ytick_1">
     <g id="line2d_17">
      <path clip-path="url(#p263c5c2c50)" d="M 108 312.053165 
L 777.6 312.053165 
" style="fill:none;stroke:#b0b0b0;stroke-linecap:square;stroke-width:0.8;"/>
     </g>
     <g id="line2d_18">
      <defs>
       <path d="M 0 0 
L -3.5 0 
" id="m15b0e9728b" style="stroke:#000000;stroke-width:0.8;"/>
      </defs>
      <g>
       <use style="stroke:#000000;stroke-width:0.8;" x="108" xlink:href="#m15b0e9728b" y="312.053165"/>
      </g>
     </g>
     <g id="text_10">
      <!-- 0.0 -->
      <defs>
       <path d="M 5.8125 5.03125 
Q 5.8125 7.671875 7.609375 9.46875 
Q 9.421875 11.28125 12.109375 11.28125 
Q 14.84375 11.28125 16.640625 9.453125 
Q 18.453125 7.625 18.453125 5.03125 
Q 18.453125 2.484375 16.640625 0.65625 
Q 14.84375 -1.171875 12.0625 -1.171875 
Q 9.375 -1.171875 7.59375 0.65625 
Q 5.8125 2.484375 5.8125 5.03125 
z
" id="MicrosoftYaHei-2e"/>
      </defs>
      <g transform="translate(86.864063 316.05004)scale(0.1 -0.1)">
       <use xlink:href="#MicrosoftYaHei-30"/>
       <use x="58.642578" xlink:href="#MicrosoftYaHei-2e"/>
       <use x="82.714844" xlink:href="#MicrosoftYaHei-30"/>
      </g>
     </g>
    </g>
    <g id="ytick_2">
     <g id="line2d_19">
      <path clip-path="url(#p263c5c2c50)" d="M 108 258.888608 
L 777.6 258.888608 
" style="fill:none;stroke:#b0b0b0;stroke-linecap:square;stroke-width:0.8;"/>
     </g>
     <g id="line2d_20">
      <g>
       <use style="stroke:#000000;stroke-width:0.8;" x="108" xlink:href="#m15b0e9728b" y="258.888608"/>
      </g>
     </g>
     <g id="text_11">
      <!-- 0.5 -->
      <g transform="translate(86.864063 262.885483)scale(0.1 -0.1)">
       <use xlink:href="#MicrosoftYaHei-30"/>
       <use x="58.642578" xlink:href="#MicrosoftYaHei-2e"/>
       <use x="82.714844" xlink:href="#MicrosoftYaHei-35"/>
      </g>
     </g>
    </g>
    <g id="ytick_3">
     <g id="line2d_21">
      <path clip-path="url(#p263c5c2c50)" d="M 108 205.724051 
L 777.6 205.724051 
" style="fill:none;stroke:#b0b0b0;stroke-linecap:square;stroke-width:0.8;"/>
     </g>
     <g id="line2d_22">
      <g>
       <use style="stroke:#000000;stroke-width:0.8;" x="108" xlink:href="#m15b0e9728b" y="205.724051"/>
      </g>
     </g>
     <g id="text_12">
      <!-- 1.0 -->
      <g transform="translate(86.864063 209.720926)scale(0.1 -0.1)">
       <use xlink:href="#MicrosoftYaHei-31"/>
       <use x="58.642578" xlink:href="#MicrosoftYaHei-2e"/>
       <use x="82.714844" xlink:href="#MicrosoftYaHei-30"/>
      </g>
     </g>
    </g>
    <g id="ytick_4">
     <g id="line2d_23">
      <path clip-path="url(#p263c5c2c50)" d="M 108 152.559494 
L 777.6 152.559494 
" style="fill:none;stroke:#b0b0b0;stroke-linecap:square;stroke-width:0.8;"/>
     </g>
     <g id="line2d_24">
      <g>
       <use style="stroke:#000000;stroke-width:0.8;" x="108" xlink:href="#m15b0e9728b" y="152.559494"/>
      </g>
     </g>
     <g id="text_13">
      <!-- 1.5 -->
      <g transform="translate(86.864063 156.556369)scale(0.1 -0.1)">
       <use xlink:href="#MicrosoftYaHei-31"/>
       <use x="58.642578" xlink:href="#MicrosoftYaHei-2e"/>
       <use x="82.714844" xlink:href="#MicrosoftYaHei-35"/>
      </g>
     </g>
    </g>
    <g id="ytick_5">
     <g id="line2d_25">
      <path clip-path="url(#p263c5c2c50)" d="M 108 99.394937 
L 777.6 99.394937 
" style="fill:none;stroke:#b0b0b0;stroke-linecap:square;stroke-width:0.8;"/>
     </g>
     <g id="line2d_26">
      <g>
       <use style="stroke:#000000;stroke-width:0.8;" x="108" xlink:href="#m15b0e9728b" y="99.394937"/>
      </g>
     </g>
     <g id="text_14">
      <!-- 2.0 -->
      <g transform="translate(86.864063 103.391812)scale(0.1 -0.1)">
       <use xlink:href="#MicrosoftYaHei-32"/>
       <use x="58.642578" xlink:href="#MicrosoftYaHei-2e"/>
       <use x="82.714844" xlink:href="#MicrosoftYaHei-30"/>
      </g>
     </g>
    </g>
    <g id="ytick_6">
     <g id="line2d_27">
      <path clip-path="url(#p263c5c2c50)" d="M 108 46.23038 
L 777.6 46.23038 
" style="fill:none;stroke:#b0b0b0;stroke-linecap:square;stroke-width:0.8;"/>
     </g>
     <g id="line2d_28">
      <g>
       <use style="stroke:#000000;stroke-width:0.8;" x="108" xlink:href="#m15b0e9728b" y="46.23038"/>
      </g>
     </g>
     <g id="text_15">
      <!-- 2.5 -->
      <g transform="translate(86.864063 50.227255)scale(0.1 -0.1)">
       <use xlink:href="#MicrosoftYaHei-32"/>
       <use x="58.642578" xlink:href="#MicrosoftYaHei-2e"/>
       <use x="82.714844" xlink:href="#MicrosoftYaHei-35"/>
      </g>
     </g>
    </g>
   </g>
   <g id="line2d_29">
    <path clip-path="url(#p263c5c2c50)" d="M 108 300.356962 
L 108.183502 300.356962 
L 108.367005 302.483544 
L 108.734009 302.483544 
L 108.917512 301.420253 
L 109.101014 302.483544 
L 109.284516 297.167089 
L 109.468019 297.167089 
L 109.651521 303.546835 
L 110.018526 303.546835 
L 110.202028 300.356962 
L 110.38553 302.483544 
L 110.569033 300.356962 
L 110.936037 302.483544 
L 111.303042 302.483544 
L 111.486544 301.420253 
L 111.670047 301.420253 
L 112.037051 292.913924 
L 112.220554 291.850633 
L 112.771061 291.850633 
L 112.954563 290.787342 
L 113.138065 287.597468 
L 113.688572 292.913924 
L 113.872075 292.913924 
L 114.055577 291.850633 
L 114.239079 292.913924 
L 114.422582 291.850633 
L 114.606084 287.597468 
L 115.156591 287.597468 
L 115.340093 286.534177 
L 115.707098 286.534177 
L 115.8906 287.597468 
L 116.441107 287.597468 
L 116.624609 288.660759 
L 116.808112 286.534177 
L 116.991614 288.660759 
L 117.175116 287.597468 
L 117.358619 288.660759 
L 117.909126 288.660759 
L 118.092628 285.470886 
L 118.643135 290.787342 
L 119.01014 290.787342 
L 119.193642 291.850633 
L 119.377144 289.724051 
L 119.560647 289.724051 
L 119.744149 288.660759 
L 120.478158 288.660759 
L 120.661661 290.787342 
L 120.845163 289.724051 
L 121.028665 290.787342 
L 121.946177 290.787342 
L 122.313182 292.913924 
L 122.496684 296.103797 
L 122.863689 296.103797 
L 123.047191 290.787342 
L 123.230693 290.787342 
L 123.597698 293.977215 
L 123.7812 292.913924 
L 124.148205 292.913924 
L 124.331707 293.977215 
L 124.698712 293.977215 
L 125.065717 296.103797 
L 125.432721 296.103797 
L 125.616224 295.040506 
L 126.166731 295.040506 
L 126.350233 298.23038 
L 126.717238 298.23038 
L 126.90074 297.167089 
L 127.451247 297.167089 
L 127.634749 296.103797 
L 128.001754 296.103797 
L 128.185256 298.23038 
L 128.368759 295.040506 
L 128.552261 295.040506 
L 128.735763 296.103797 
L 128.919266 298.23038 
L 129.28627 298.23038 
L 129.653275 296.103797 
L 129.836777 296.103797 
L 130.02028 293.977215 
L 130.203782 295.040506 
L 130.570787 295.040506 
L 130.754289 293.977215 
L 130.937791 295.040506 
L 131.488298 288.660759 
L 132.038805 288.660759 
L 132.40581 292.913924 
L 132.589312 292.913924 
L 132.772814 293.977215 
L 133.323321 293.977215 
L 133.506824 295.040506 
L 133.873828 295.040506 
L 134.057331 293.977215 
L 134.424335 293.977215 
L 134.974842 297.167089 
L 135.158345 293.977215 
L 135.892354 293.977215 
L 136.075856 292.913924 
L 136.259359 293.977215 
L 136.442861 293.977215 
L 136.626363 291.850633 
L 136.993368 291.850633 
L 137.17687 289.724051 
L 137.360373 290.787342 
L 137.543875 289.724051 
L 137.727377 290.787342 
L 137.91088 289.724051 
L 138.461387 289.724051 
L 138.644889 292.913924 
L 138.828391 292.913924 
L 139.011894 293.977215 
L 139.562401 293.977215 
L 139.745903 288.660759 
L 139.929405 288.660759 
L 140.29641 285.470886 
L 140.846917 285.470886 
L 141.030419 286.534177 
L 141.213922 286.534177 
L 141.580926 291.850633 
L 141.764429 292.913924 
L 142.131433 292.913924 
L 142.314936 293.977215 
L 142.498438 288.660759 
L 143.048945 295.040506 
L 143.41595 295.040506 
L 143.599452 292.913924 
L 143.782954 292.913924 
L 144.149959 296.103797 
L 144.700466 296.103797 
L 144.883968 298.23038 
L 145.067471 298.23038 
L 145.434475 296.103797 
L 146.168485 296.103797 
L 146.351987 297.167089 
L 146.535489 297.167089 
L 146.718992 296.103797 
L 147.269498 296.103797 
L 147.453001 295.040506 
L 147.636503 296.103797 
L 147.820005 293.977215 
L 148.003508 293.977215 
L 148.18701 292.913924 
L 148.737517 292.913924 
L 148.921019 293.977215 
L 150.022033 293.977215 
L 150.389038 296.103797 
L 151.123047 296.103797 
L 151.30655 293.977215 
L 151.857057 293.977215 
L 152.040559 295.040506 
L 152.591066 295.040506 
L 152.774568 296.103797 
L 152.958071 296.103797 
L 153.141573 297.167089 
L 153.69208 297.167089 
L 153.875582 296.103797 
L 154.059085 296.103797 
L 154.242587 295.040506 
L 154.426089 296.103797 
L 155.527103 296.103797 
L 155.710606 295.040506 
L 155.894108 296.103797 
L 156.261113 296.103797 
L 156.628117 293.977215 
L 156.81162 293.977215 
L 156.995122 295.040506 
L 157.545629 295.040506 
L 157.729131 296.103797 
L 158.096136 296.103797 
L 158.463141 298.23038 
L 159.013648 298.23038 
L 159.19715 300.356962 
L 159.380652 304.610127 
L 159.747657 298.23038 
L 160.298164 298.23038 
L 160.481666 299.293671 
L 160.665169 298.23038 
L 160.848671 299.293671 
L 161.949685 299.293671 
L 162.133187 298.23038 
L 162.31669 299.293671 
L 163.050699 299.293671 
L 163.234201 300.356962 
L 165.252727 300.356962 
L 165.436229 299.293671 
L 165.619731 299.293671 
L 165.803234 298.23038 
L 165.986736 298.23038 
L 166.170238 299.293671 
L 166.720745 299.293671 
L 166.904248 298.23038 
L 167.08775 298.23038 
L 167.271252 299.293671 
L 168.188764 299.293671 
L 168.372266 300.356962 
L 169.106276 300.356962 
L 169.289778 299.293671 
L 169.47328 299.293671 
L 169.656783 300.356962 
L 169.840285 300.356962 
L 170.023787 299.293671 
L 170.390792 299.293671 
L 170.574294 298.23038 
L 171.124801 298.23038 
L 171.308304 299.293671 
L 173.143327 299.293671 
L 173.510332 297.167089 
L 173.877336 299.293671 
L 174.611346 299.293671 
L 174.794848 300.356962 
L 175.528857 300.356962 
L 175.71236 299.293671 
L 175.895862 299.293671 
L 176.079364 300.356962 
L 176.262867 306.736709 
L 176.813374 306.736709 
L 176.996876 299.293671 
L 177.363881 299.293671 
L 177.547383 301.420253 
L 177.730885 300.356962 
L 178.831899 300.356962 
L 179.015401 299.293671 
L 179.565908 299.293671 
L 179.749411 298.23038 
L 179.932913 298.23038 
L 180.299918 300.356962 
L 180.666922 300.356962 
L 180.850425 299.293671 
L 181.951439 299.293671 
L 182.134941 297.167089 
L 182.318443 297.167089 
L 182.501946 298.23038 
L 182.685448 297.167089 
L 182.86895 298.23038 
L 183.60296 298.23038 
L 183.786462 299.293671 
L 184.703974 299.293671 
L 184.887476 298.23038 
L 185.070978 299.293671 
L 185.254481 299.293671 
L 185.437983 298.23038 
L 185.804988 298.23038 
L 185.98849 299.293671 
L 186.171992 299.293671 
L 186.355495 300.356962 
L 186.722499 298.23038 
L 187.089504 298.23038 
L 187.273006 297.167089 
L 187.456509 297.167089 
L 188.007016 293.977215 
L 188.37402 293.977215 
L 188.741025 297.167089 
L 188.924527 297.167089 
L 189.10803 296.103797 
L 189.291532 293.977215 
L 189.658537 293.977215 
L 189.842039 290.787342 
L 190.025541 290.787342 
L 190.209044 292.913924 
L 191.126555 292.913924 
L 191.310058 293.977215 
L 192.227569 293.977215 
L 192.411072 295.040506 
L 192.594574 295.040506 
L 192.778076 302.483544 
L 192.961579 293.977215 
L 193.145081 290.787342 
L 193.87909 290.787342 
L 194.062592 291.850633 
L 194.980104 291.850633 
L 195.163606 290.787342 
L 195.347109 290.787342 
L 195.530611 288.660759 
L 195.714113 289.724051 
L 196.081118 289.724051 
L 196.26462 290.787342 
L 197.916141 290.787342 
L 198.099644 291.850633 
L 198.283146 290.787342 
L 198.833653 290.787342 
L 199.017155 289.724051 
L 199.200658 289.724051 
L 199.38416 290.787342 
L 201.219183 290.787342 
L 201.402686 289.724051 
L 201.586188 289.724051 
L 201.76969 290.787342 
L 202.5037 290.787342 
L 202.687202 289.724051 
L 202.870704 289.724051 
L 203.054207 290.787342 
L 203.237709 290.787342 
L 203.421211 291.850633 
L 203.971718 291.850633 
L 204.155221 290.787342 
L 204.338723 290.787342 
L 204.522225 291.850633 
L 205.439737 291.850633 
L 205.623239 292.913924 
L 206.540751 292.913924 
L 206.724253 291.850633 
L 207.091258 291.850633 
L 207.27476 292.913924 
L 207.641765 292.913924 
L 207.825267 293.977215 
L 208.00877 292.913924 
L 208.375774 295.040506 
L 208.926281 295.040506 
L 209.109784 293.977215 
L 209.293286 296.103797 
L 209.476788 302.483544 
L 209.66029 293.977215 
L 209.843793 292.913924 
L 210.761304 292.913924 
L 210.944807 293.977215 
L 211.128309 292.913924 
L 211.495314 292.913924 
L 211.678816 293.977215 
L 212.045821 293.977215 
L 212.229323 291.850633 
L 212.963332 291.850633 
L 213.146835 292.913924 
L 213.513839 292.913924 
L 213.697342 291.850633 
L 214.431351 291.850633 
L 214.614853 290.787342 
L 214.981858 292.913924 
L 215.348863 292.913924 
L 215.532365 291.850633 
L 216.082872 291.850633 
L 216.266374 292.913924 
L 217.000384 292.913924 
L 217.183886 293.977215 
L 217.550891 291.850633 
L 217.917895 291.850633 
L 218.101398 290.787342 
L 218.2849 290.787342 
L 218.468402 291.850633 
L 218.651905 291.850633 
L 218.835407 290.787342 
L 219.202412 290.787342 
L 219.385914 291.850633 
L 220.67043 291.850633 
L 220.853933 289.724051 
L 221.037435 291.850633 
L 221.954947 291.850633 
L 222.138449 290.787342 
L 222.505454 292.913924 
L 223.239463 292.913924 
L 223.422965 291.850633 
L 223.606468 289.724051 
L 224.523979 289.724051 
L 224.707482 290.787342 
L 224.890984 289.724051 
L 225.074486 290.787342 
L 225.257988 289.724051 
L 225.624993 289.724051 
L 225.808495 291.850633 
L 226.1755 291.850633 
L 226.359002 296.103797 
L 226.542505 290.787342 
L 227.276514 290.787342 
L 227.643519 292.913924 
L 228.744533 292.913924 
L 229.111537 290.787342 
L 229.478542 290.787342 
L 229.662044 291.850633 
L 231.497068 291.850633 
L 231.68057 290.787342 
L 232.598082 290.787342 
L 232.965086 292.913924 
L 233.515593 292.913924 
L 233.699096 293.977215 
L 234.0661 293.977215 
L 234.249603 291.850633 
L 234.616607 291.850633 
L 234.80011 289.724051 
L 234.983612 289.724051 
L 235.167114 290.787342 
L 235.350617 290.787342 
L 235.534119 289.724051 
L 235.901124 289.724051 
L 236.084626 291.850633 
L 236.268128 290.787342 
L 237.736147 290.787342 
L 238.103152 292.913924 
L 238.653659 292.913924 
L 238.837161 293.977215 
L 239.020663 293.977215 
L 239.204166 295.040506 
L 239.754673 295.040506 
L 239.938175 293.977215 
L 240.30518 290.787342 
L 241.039189 290.787342 
L 241.222691 289.724051 
L 241.589696 291.850633 
L 242.507207 291.850633 
L 242.69071 292.913924 
L 242.874212 292.913924 
L 243.057714 291.850633 
L 243.241217 298.23038 
L 243.608221 298.23038 
L 243.791724 291.850633 
L 243.975226 292.913924 
L 244.158728 292.913924 
L 244.342231 293.977215 
L 245.259742 293.977215 
L 245.443245 295.040506 
L 246.360756 295.040506 
L 246.544259 291.850633 
L 246.727761 292.913924 
L 246.911263 292.913924 
L 247.094766 293.977215 
L 247.46177 293.977215 
L 247.645273 292.913924 
L 247.828775 293.977215 
L 248.929789 293.977215 
L 249.113291 292.913924 
L 249.296794 292.913924 
L 249.480296 293.977215 
L 250.214305 293.977215 
L 250.58131 296.103797 
L 251.498822 296.103797 
L 251.682324 295.040506 
L 251.865826 296.103797 
L 253.884352 296.103797 
L 254.067854 295.040506 
L 254.251357 296.103797 
L 254.434859 295.040506 
L 254.618361 296.103797 
L 255.168868 296.103797 
L 255.352371 297.167089 
L 255.902878 297.167089 
L 256.08638 298.23038 
L 256.453384 298.23038 
L 256.636887 297.167089 
L 257.187394 297.167089 
L 257.370896 296.103797 
L 257.737901 296.103797 
L 257.921403 297.167089 
L 258.288408 297.167089 
L 258.47191 298.23038 
L 259.572924 298.23038 
L 259.756426 301.420253 
L 259.939929 300.356962 
L 260.306933 300.356962 
L 260.490436 302.483544 
L 260.673938 302.483544 
L 260.85744 301.420253 
L 261.040943 301.420253 
L 261.224445 302.483544 
L 261.774952 302.483544 
L 261.958454 303.546835 
L 262.141957 303.546835 
L 262.325459 302.483544 
L 262.508961 299.293671 
L 262.875966 299.293671 
L 263.059468 301.420253 
L 263.242971 300.356962 
L 263.426473 301.420253 
L 264.343985 301.420253 
L 264.527487 302.483544 
L 268.014031 302.483544 
L 268.197534 301.420253 
L 268.381036 302.483544 
L 268.564538 301.420253 
L 268.748041 302.483544 
L 268.931543 301.420253 
L 269.665552 301.420253 
L 269.849055 302.483544 
L 270.032557 302.483544 
L 270.216059 301.420253 
L 271.317073 301.420253 
L 271.500576 300.356962 
L 271.86758 300.356962 
L 272.234585 302.483544 
L 273.152096 302.483544 
L 273.335599 301.420253 
L 274.436613 301.420253 
L 274.620115 302.483544 
L 274.98712 302.483544 
L 275.170622 303.546835 
L 276.088134 303.546835 
L 276.271636 304.610127 
L 276.455138 304.610127 
L 276.638641 303.546835 
L 277.37265 303.546835 
L 277.556152 304.610127 
L 278.473664 304.610127 
L 278.657166 305.673418 
L 281.226199 305.673418 
L 281.593204 303.546835 
L 281.776706 300.356962 
L 282.143711 300.356962 
L 282.327213 293.977215 
L 282.510715 295.040506 
L 282.87772 302.483544 
L 283.061222 303.546835 
L 283.428227 303.546835 
L 283.611729 300.356962 
L 283.795232 301.420253 
L 283.978734 301.420253 
L 284.162236 302.483544 
L 284.345739 301.420253 
L 284.896246 301.420253 
L 285.079748 302.483544 
L 286.180762 302.483544 
L 286.364264 303.546835 
L 286.731269 303.546835 
L 286.914771 302.483544 
L 287.465278 302.483544 
L 287.64878 303.546835 
L 288.749794 303.546835 
L 288.933297 302.483544 
L 290.217813 302.483544 
L 290.401315 303.546835 
L 290.584818 302.483544 
L 291.502329 302.483544 
L 291.685832 303.546835 
L 293.15385 303.546835 
L 293.337353 305.673418 
L 293.704357 305.673418 
L 293.88786 303.546835 
L 294.071362 304.610127 
L 297.924911 304.610127 
L 298.108413 303.546835 
L 298.291916 304.610127 
L 298.842423 304.610127 
L 299.025925 302.483544 
L 299.209427 303.546835 
L 299.39293 303.546835 
L 299.576432 302.483544 
L 299.759934 303.546835 
L 301.594958 303.546835 
L 301.77846 302.483544 
L 301.961962 303.546835 
L 303.062976 303.546835 
L 303.246478 302.483544 
L 303.429981 302.483544 
L 303.613483 304.610127 
L 303.980488 304.610127 
L 304.16399 303.546835 
L 304.347492 303.546835 
L 304.530995 301.420253 
L 304.714497 303.546835 
L 305.815511 303.546835 
L 305.999013 304.610127 
L 308.568046 304.610127 
L 308.751548 303.546835 
L 309.302055 303.546835 
L 309.485558 304.610127 
L 309.852562 304.610127 
L 310.036065 307.8 
L 310.586572 307.8 
L 310.770074 304.610127 
L 311.687586 304.610127 
L 311.871088 303.546835 
L 312.421595 303.546835 
L 312.605097 302.483544 
L 313.522609 302.483544 
L 313.706111 301.420253 
L 313.889614 302.483544 
L 314.623623 302.483544 
L 314.807125 303.546835 
L 314.990628 303.546835 
L 315.17413 302.483544 
L 315.724637 302.483544 
L 315.908139 300.356962 
L 317.55966 300.356962 
L 317.743163 299.293671 
L 318.660674 299.293671 
L 318.844176 300.356962 
L 319.027679 302.483544 
L 319.578186 302.483544 
L 319.761688 301.420253 
L 319.94519 303.546835 
L 320.128693 303.546835 
L 320.312195 302.483544 
L 320.6792 302.483544 
L 320.862702 301.420253 
L 321.229707 301.420253 
L 321.413209 300.356962 
L 322.697725 300.356962 
L 322.881228 299.293671 
L 323.615237 299.293671 
L 324.165744 296.103797 
L 325.083256 296.103797 
L 325.266758 297.167089 
L 326.18427 297.167089 
L 326.367772 298.23038 
L 326.551274 298.23038 
L 326.734777 302.483544 
L 327.101781 302.483544 
L 327.285284 296.103797 
L 327.835791 296.103797 
L 328.019293 299.293671 
L 328.386298 299.293671 
L 328.5698 295.040506 
L 328.753302 296.103797 
L 328.936805 295.040506 
L 329.120307 296.103797 
L 329.854316 296.103797 
L 330.037819 295.040506 
L 330.221321 296.103797 
L 330.588326 299.293671 
L 330.95533 299.293671 
L 331.505837 296.103797 
L 331.872842 298.23038 
L 332.239847 298.23038 
L 332.423349 295.040506 
L 332.606851 295.040506 
L 332.790354 296.103797 
L 332.973856 296.103797 
L 333.157358 295.040506 
L 333.891367 295.040506 
L 334.07487 296.103797 
L 334.808879 296.103797 
L 334.992381 295.040506 
L 336.4604 295.040506 
L 336.643902 296.103797 
L 337.561414 296.103797 
L 337.744916 295.040506 
L 338.662428 295.040506 
L 338.84593 293.977215 
L 339.029433 293.977215 
L 339.212935 295.040506 
L 339.396437 295.040506 
L 339.57994 293.977215 
L 340.130447 293.977215 
L 340.313949 295.040506 
L 340.497451 293.977215 
L 340.680954 293.977215 
L 340.864456 292.913924 
L 341.231461 292.913924 
L 341.414963 293.977215 
L 341.598465 293.977215 
L 341.781968 295.040506 
L 341.96547 293.977215 
L 342.699479 293.977215 
L 343.066484 296.103797 
L 343.249986 296.103797 
L 343.433489 302.483544 
L 343.800493 302.483544 
L 343.983996 292.913924 
L 344.167498 293.977215 
L 345.635517 293.977215 
L 346.002521 291.850633 
L 346.369526 291.850633 
L 346.920033 295.040506 
L 347.103535 298.23038 
L 347.654042 298.23038 
L 348.021047 296.103797 
L 348.204549 296.103797 
L 348.388052 297.167089 
L 349.122061 297.167089 
L 349.305563 298.23038 
L 349.489065 297.167089 
L 350.406577 297.167089 
L 350.590079 298.23038 
L 354.627131 298.23038 
L 354.810633 297.167089 
L 354.994135 298.23038 
L 355.544642 298.23038 
L 355.728145 297.167089 
L 355.911647 295.040506 
L 356.095149 295.040506 
L 356.278652 296.103797 
L 357.379666 296.103797 
L 357.563168 295.040506 
L 358.297177 295.040506 
L 358.48068 296.103797 
L 358.664182 295.040506 
L 358.847684 296.103797 
L 359.214689 296.103797 
L 359.398191 295.040506 
L 359.581694 296.103797 
L 359.765196 296.103797 
L 359.948698 297.167089 
L 360.132201 302.483544 
L 360.499205 302.483544 
L 360.682708 296.103797 
L 360.86621 295.040506 
L 361.049712 295.040506 
L 361.233215 296.103797 
L 361.967224 296.103797 
L 362.150726 295.040506 
L 363.435243 295.040506 
L 363.618745 296.103797 
L 363.802247 296.103797 
L 363.98575 295.040506 
L 364.352754 295.040506 
L 364.536257 296.103797 
L 364.719759 296.103797 
L 364.903261 293.977215 
L 365.086763 295.040506 
L 365.63727 295.040506 
L 365.820773 293.977215 
L 366.004275 293.977215 
L 366.187777 292.913924 
L 366.554782 295.040506 
L 366.921787 295.040506 
L 367.105289 293.977215 
L 367.288791 295.040506 
L 372.243354 295.040506 
L 372.426857 293.977215 
L 372.610359 295.040506 
L 373.527871 295.040506 
L 373.711373 293.977215 
L 373.894875 293.977215 
L 374.078378 295.040506 
L 374.26188 293.977215 
L 374.628885 293.977215 
L 374.812387 295.040506 
L 374.995889 293.977215 
L 375.913401 293.977215 
L 376.096903 292.913924 
L 376.280406 292.913924 
L 376.463908 293.977215 
L 377.197917 293.977215 
L 377.38142 302.483544 
L 377.564922 302.483544 
L 377.748424 293.977215 
L 377.931927 293.977215 
L 378.115429 295.040506 
L 378.665936 295.040506 
L 379.032941 297.167089 
L 379.950452 297.167089 
L 380.133955 296.103797 
L 380.317457 297.167089 
L 381.418471 297.167089 
L 381.601973 298.23038 
L 381.785475 296.103797 
L 381.968978 297.167089 
L 382.519485 297.167089 
L 382.702987 299.293671 
L 382.886489 299.293671 
L 383.069992 296.103797 
L 383.253494 297.167089 
L 383.620499 297.167089 
L 383.804001 298.23038 
L 384.354508 298.23038 
L 384.53801 297.167089 
L 385.088517 297.167089 
L 385.27202 298.23038 
L 385.455522 297.167089 
L 385.639024 297.167089 
L 385.822527 295.040506 
L 386.373034 295.040506 
L 386.556536 296.103797 
L 386.740038 296.103797 
L 386.923541 295.040506 
L 387.474048 295.040506 
L 387.841052 297.167089 
L 388.758564 297.167089 
L 388.942066 295.040506 
L 389.125569 296.103797 
L 389.309071 296.103797 
L 389.492573 295.040506 
L 389.676076 296.103797 
L 390.04308 296.103797 
L 390.226583 295.040506 
L 390.593587 297.167089 
L 390.960592 295.040506 
L 391.511099 295.040506 
L 391.694601 296.103797 
L 391.878104 296.103797 
L 392.061606 295.040506 
L 392.245108 296.103797 
L 392.795615 296.103797 
L 392.979118 297.167089 
L 393.16262 299.293671 
L 393.346122 298.23038 
L 393.529625 302.483544 
L 393.896629 302.483544 
L 394.080132 295.040506 
L 394.447136 297.167089 
L 394.630639 297.167089 
L 394.814141 296.103797 
L 397.93368 296.103797 
L 398.300685 298.23038 
L 399.218197 298.23038 
L 399.401699 297.167089 
L 399.585201 297.167089 
L 399.768704 296.103797 
L 399.952206 297.167089 
L 400.502713 297.167089 
L 400.686215 299.293671 
L 401.787229 299.293671 
L 401.970732 300.356962 
L 402.154234 299.293671 
L 402.521239 301.420253 
L 403.071746 301.420253 
L 403.43875 303.546835 
L 403.622253 303.546835 
L 403.805755 302.483544 
L 404.539764 302.483544 
L 404.723267 303.546835 
L 404.906769 303.546835 
L 405.090271 302.483544 
L 405.457276 302.483544 
L 405.824281 300.356962 
L 406.007783 302.483544 
L 406.191285 301.420253 
L 406.374788 302.483544 
L 407.108797 302.483544 
L 407.292299 303.546835 
L 407.659304 301.420253 
L 408.026309 301.420253 
L 408.393313 299.293671 
L 408.576816 301.420253 
L 409.494327 301.420253 
L 409.67783 302.483544 
L 410.044834 302.483544 
L 410.228337 304.610127 
L 410.595341 304.610127 
L 410.778844 301.420253 
L 412.246862 301.420253 
L 412.430364 302.483544 
L 415.733406 302.483544 
L 415.916909 303.546835 
L 416.100411 302.483544 
L 416.283913 302.483544 
L 416.467416 303.546835 
L 416.650918 302.483544 
L 417.017923 302.483544 
L 417.201425 303.546835 
L 417.384927 302.483544 
L 417.751932 302.483544 
L 417.935434 303.546835 
L 418.669444 303.546835 
L 418.852946 302.483544 
L 419.036448 303.546835 
L 419.219951 302.483544 
L 419.95396 302.483544 
L 420.137462 303.546835 
L 420.320965 302.483544 
L 420.504467 303.546835 
L 421.054974 303.546835 
L 421.238476 304.610127 
L 421.421979 304.610127 
L 421.605481 303.546835 
L 421.788983 304.610127 
L 422.33949 304.610127 
L 422.522993 302.483544 
L 422.706495 303.546835 
L 425.275528 303.546835 
L 425.45903 302.483544 
L 425.642532 303.546835 
L 426.009537 303.546835 
L 426.193039 302.483544 
L 426.376542 302.483544 
L 426.560044 303.546835 
L 427.294053 303.546835 
L 427.477555 305.673418 
L 427.661058 303.546835 
L 427.84456 304.610127 
L 428.028062 303.546835 
L 428.945574 303.546835 
L 429.129076 302.483544 
L 429.312579 302.483544 
L 429.496081 301.420253 
L 430.23009 301.420253 
L 430.413593 300.356962 
L 430.597095 301.420253 
L 431.147602 301.420253 
L 431.514607 303.546835 
L 432.982625 303.546835 
L 433.166128 304.610127 
L 433.34963 303.546835 
L 435.551658 303.546835 
L 435.73516 302.483544 
L 438.304193 302.483544 
L 438.487695 304.610127 
L 438.8547 304.610127 
L 439.038202 302.483544 
L 440.506221 302.483544 
L 440.689723 303.546835 
L 440.873226 302.483544 
L 441.056728 303.546835 
L 441.423733 303.546835 
L 441.607235 302.483544 
L 442.891751 302.483544 
L 443.075253 303.546835 
L 444.176267 303.546835 
L 444.35977 304.610127 
L 444.543272 304.610127 
L 444.726774 303.546835 
L 445.460784 303.546835 
L 445.644286 304.610127 
L 451.149356 304.610127 
L 451.332858 305.673418 
L 451.699863 305.673418 
L 451.883365 304.610127 
L 452.066868 305.673418 
L 452.25037 304.610127 
L 452.433872 305.673418 
L 453.167882 305.673418 
L 453.351384 304.610127 
L 455.002905 304.610127 
L 455.186407 305.673418 
L 455.553412 305.673418 
L 455.736914 304.610127 
L 455.920417 304.610127 
L 456.103919 303.546835 
L 459.406961 303.546835 
L 459.590463 302.483544 
L 459.773965 302.483544 
L 459.957468 303.546835 
L 460.691477 303.546835 
L 460.874979 305.673418 
L 461.241984 302.483544 
L 461.425486 303.546835 
L 461.975993 303.546835 
L 462.159496 302.483544 
L 462.342998 303.546835 
L 462.710003 303.546835 
L 462.893505 302.483544 
L 463.444012 302.483544 
L 463.627514 301.420253 
L 463.811017 302.483544 
L 463.994519 302.483544 
L 464.178021 301.420253 
L 465.279035 301.420253 
L 465.462538 302.483544 
L 466.013045 302.483544 
L 466.196547 301.420253 
L 466.380049 302.483544 
L 467.481063 302.483544 
L 467.664566 303.546835 
L 468.582077 303.546835 
L 468.76558 302.483544 
L 468.949082 303.546835 
L 469.132584 302.483544 
L 471.701617 302.483544 
L 471.885119 303.546835 
L 472.252124 303.546835 
L 472.619129 301.420253 
L 472.802631 302.483544 
L 474.270649 302.483544 
L 474.454152 301.420253 
L 477.390189 301.420253 
L 477.573691 302.483544 
L 477.757194 301.420253 
L 477.940696 301.420253 
L 478.124198 302.483544 
L 478.674705 302.483544 
L 478.858208 301.420253 
L 479.04171 302.483544 
L 481.243738 302.483544 
L 481.42724 301.420253 
L 481.610743 302.483544 
L 483.078761 302.483544 
L 483.262264 303.546835 
L 483.445766 302.483544 
L 488.400329 302.483544 
L 488.583831 304.610127 
L 489.134338 304.610127 
L 489.317841 302.483544 
L 494.088901 302.483544 
L 494.455906 304.610127 
L 494.639408 302.483544 
L 495.923924 302.483544 
L 496.107427 303.546835 
L 496.290929 302.483544 
L 499.960976 302.483544 
L 500.144478 304.610127 
L 500.511483 304.610127 
L 500.878487 301.420253 
L 501.06199 302.483544 
L 503.080515 302.483544 
L 503.44752 300.356962 
L 503.631022 301.420253 
L 505.099041 301.420253 
L 505.282543 303.546835 
L 505.649548 303.546835 
L 505.83305 298.23038 
L 506.016552 299.293671 
L 508.21858 299.293671 
L 508.402083 300.356962 
L 508.769087 298.23038 
L 511.154618 298.23038 
L 511.33812 305.673418 
L 511.521622 305.673418 
L 511.705125 299.293671 
L 514.090655 299.293671 
L 514.274157 298.23038 
L 514.824664 298.23038 
L 515.008167 299.293671 
L 516.109181 299.293671 
L 516.292683 300.356962 
L 516.476185 299.293671 
L 516.659688 300.356962 
L 516.84319 305.673418 
L 517.210195 305.673418 
L 517.393697 299.293671 
L 517.577199 299.293671 
L 517.760702 300.356962 
L 517.944204 299.293671 
L 518.127706 300.356962 
L 518.494711 300.356962 
L 518.678213 299.293671 
L 521.063743 299.293671 
L 521.247246 300.356962 
L 521.797753 300.356962 
L 521.981255 305.673418 
L 522.34826 305.673418 
L 522.531762 299.293671 
L 522.715264 299.293671 
L 522.898767 300.356962 
L 523.082269 300.356962 
L 523.265771 299.293671 
L 523.999781 299.293671 
L 524.183283 300.356962 
L 524.917292 300.356962 
L 525.100795 299.293671 
L 525.284297 299.293671 
L 525.467799 300.356962 
L 525.651302 299.293671 
L 526.385311 299.293671 
L 526.568813 300.356962 
L 526.752316 299.293671 
L 526.935818 300.356962 
L 527.11932 299.293671 
L 527.669827 299.293671 
L 527.85333 305.673418 
L 528.036832 299.293671 
L 528.770841 299.293671 
L 528.954344 298.23038 
L 529.137846 299.293671 
L 530.055358 299.293671 
L 530.23886 298.23038 
L 533.174897 298.23038 
L 533.3584 303.546835 
L 533.541902 298.23038 
L 536.661441 298.23038 
L 536.844944 299.293671 
L 537.211948 299.293671 
L 537.395451 298.23038 
L 537.945958 298.23038 
L 538.12946 299.293671 
L 538.496465 299.293671 
L 538.679967 303.546835 
L 539.046972 303.546835 
L 539.230474 299.293671 
L 539.413976 299.293671 
L 539.597479 298.23038 
L 541.799507 298.23038 
L 541.983009 297.167089 
L 542.350014 297.167089 
L 542.533516 298.23038 
L 544.185037 298.23038 
L 544.368539 297.167089 
L 544.552042 303.546835 
L 544.735544 298.23038 
L 547.304577 298.23038 
L 547.488079 297.167089 
L 547.671581 298.23038 
L 548.038586 298.23038 
L 548.222088 297.167089 
L 548.405591 298.23038 
L 549.323102 298.23038 
L 549.506605 297.167089 
L 550.057112 297.167089 
L 550.240614 303.546835 
L 550.607619 303.546835 
L 550.791121 297.167089 
L 552.075637 297.167089 
L 552.259139 296.103797 
L 552.626144 296.103797 
L 552.809646 297.167089 
L 553.176651 297.167089 
L 553.360153 296.103797 
L 554.828172 296.103797 
L 555.011674 297.167089 
L 555.745684 297.167089 
L 555.929186 303.546835 
L 556.112688 297.167089 
L 560.333242 297.167089 
L 560.516744 298.23038 
L 561.250754 298.23038 
L 561.434256 304.610127 
L 561.617758 298.23038 
L 565.287805 298.23038 
L 565.471307 299.293671 
L 566.755824 299.293671 
L 566.939326 304.610127 
L 567.306331 304.610127 
L 567.489833 299.293671 
L 569.875363 299.293671 
L 570.058865 298.23038 
L 570.242368 298.23038 
L 570.42587 299.293671 
L 572.444396 299.293671 
L 572.627898 303.546835 
L 572.8114 298.23038 
L 574.095917 298.23038 
L 574.279419 297.167089 
L 575.013428 297.167089 
L 575.196931 296.103797 
L 575.563935 296.103797 
L 575.747438 272.711392 
L 576.297945 272.711392 
L 576.481447 273.774684 
L 577.949466 273.774684 
L 578.132968 274.837975 
L 578.31647 290.787342 
L 578.866977 290.787342 
L 579.05048 273.774684 
L 581.803015 273.774684 
L 581.986517 272.711392 
L 582.170019 272.711392 
L 582.353522 271.648101 
L 583.454535 271.648101 
L 583.638038 281.217722 
L 584.005042 281.217722 
L 584.188545 271.648101 
L 586.94108 271.648101 
L 587.124582 272.711392 
L 587.308084 271.648101 
L 588.409098 271.648101 
L 588.592601 272.711392 
L 589.143108 272.711392 
L 589.32661 281.217722 
L 589.510112 273.774684 
L 589.693615 272.711392 
L 589.877117 272.711392 
L 590.060619 273.774684 
L 591.895643 273.774684 
L 592.079145 272.711392 
L 594.83168 272.711392 
L 595.015182 285.470886 
L 595.198685 272.711392 
L 600.153247 272.711392 
L 600.33675 280.15443 
L 600.703754 280.15443 
L 600.887257 272.711392 
L 606.025322 272.711392 
L 606.208824 281.217722 
L 606.392327 272.711392 
L 608.961359 272.711392 
L 609.144862 271.648101 
L 610.245876 271.648101 
L 610.61288 269.521519 
L 610.979885 269.521519 
L 611.163387 268.458228 
L 611.530392 268.458228 
L 611.713894 280.15443 
L 611.897397 268.458228 
L 612.447904 268.458228 
L 612.631406 269.521519 
L 616.851959 269.521519 
L 617.035462 280.15443 
L 617.402466 280.15443 
L 617.585969 269.521519 
L 622.907536 269.521519 
L 623.091039 280.15443 
L 623.274541 269.521519 
L 628.412606 269.521519 
L 628.596109 281.217722 
L 628.963113 281.217722 
L 629.146616 269.521519 
L 630.431132 269.521519 
L 630.614634 268.458228 
L 634.101178 268.458228 
L 634.284681 279.091139 
L 634.468183 268.458228 
L 639.606248 268.458228 
L 639.789751 279.091139 
L 639.973253 268.458228 
L 642.358783 268.458228 
L 642.542286 241.875949 
L 645.111318 241.875949 
L 645.29482 253.572152 
L 645.845327 253.572152 
L 646.02883 241.875949 
L 650.983393 241.875949 
L 651.166895 252.508861 
L 651.350397 241.875949 
L 656.121458 241.875949 
L 656.30496 251.44557 
L 656.488463 241.875949 
L 659.057495 241.875949 
L 659.240998 215.293671 
L 661.81003 215.293671 
L 661.993532 224.863291 
L 662.360537 224.863291 
L 662.544039 215.293671 
L 666.948095 215.293671 
L 667.131598 223.8 
L 667.498602 223.8 
L 667.682105 215.293671 
L 673.003672 215.293671 
L 673.187175 223.8 
L 673.370677 215.293671 
L 675.756207 215.293671 
L 675.93971 188.711392 
L 678.508742 188.711392 
L 678.692244 199.344304 
L 679.059249 199.344304 
L 679.242751 188.711392 
L 684.197314 188.711392 
L 684.380817 198.281013 
L 684.564319 188.711392 
L 689.885887 188.711392 
L 690.069389 198.281013 
L 690.252891 188.711392 
L 695.207454 188.711392 
L 695.390956 199.344304 
L 695.757961 199.344304 
L 695.941463 188.711392 
L 701.079529 188.711392 
L 701.263031 198.281013 
L 701.446533 188.711392 
L 706.401096 188.711392 
L 706.584599 198.281013 
L 706.768101 188.711392 
L 708.603124 188.711392 
L 708.786626 187.648101 
L 708.970129 187.648101 
L 709.153631 162.129114 
L 709.704138 162.129114 
L 709.88764 161.065823 
L 711.539161 161.065823 
L 711.722664 170.635443 
L 712.089668 170.635443 
L 712.273171 161.065823 
L 717.227734 161.065823 
L 717.411236 169.572152 
L 717.594738 161.065823 
L 722.182297 161.065823 
L 722.365799 168.508861 
L 722.549301 161.065823 
L 724.934831 161.065823 
L 725.118334 160.002532 
L 725.852343 160.002532 
L 726.035845 158.939241 
L 726.219348 158.939241 
L 726.40285 133.420253 
L 727.687366 133.420253 
L 727.870869 134.483544 
L 728.237873 134.483544 
L 728.604878 132.356962 
L 731.540915 132.356962 
L 731.724418 131.293671 
L 733.375939 131.293671 
L 733.559441 132.356962 
L 733.742943 131.293671 
L 741.450041 131.293671 
L 741.633543 110.027848 
L 742.000548 110.027848 
L 742.367553 107.901266 
L 743.101562 107.901266 
L 743.285064 108.964557 
L 749.524144 108.964557 
L 749.707646 107.901266 
L 751.542669 107.901266 
L 751.726172 108.964557 
L 751.909674 107.901266 
L 754.295204 107.901266 
L 754.478706 106.837975 
L 754.845711 106.837975 
L 755.029213 80.255696 
L 757.231241 80.255696 
L 757.414744 79.192405 
L 757.965251 79.192405 
L 758.148753 78.129114 
L 759.433269 78.129114 
L 759.616772 79.192405 
L 759.800274 78.129114 
L 760.350781 78.129114 
L 760.534283 79.192405 
L 760.717786 78.129114 
L 762.919814 78.129114 
L 763.103316 79.192405 
L 763.286818 78.129114 
L 763.653823 78.129114 
L 763.837325 79.192405 
L 764.020828 78.129114 
L 764.20433 79.192405 
L 764.754837 79.192405 
L 764.938339 78.129114 
L 765.305344 78.129114 
L 765.488846 56.863291 
L 776.315484 56.863291 
L 776.498986 55.8 
L 776.865991 55.8 
L 777.049493 56.863291 
L 777.232995 56.863291 
L 777.416498 55.8 
L 777.6 55.8 
L 777.6 55.8 
" style="fill:none;stroke:#1f77b4;stroke-linecap:square;stroke-width:1.5;"/>
   </g>
   <g id="patch_3">
    <path d="M 108 320.4 
L 108 43.2 
" style="fill:none;stroke:#000000;stroke-linecap:square;stroke-linejoin:miter;stroke-width:0.8;"/>
   </g>
   <g id="patch_4">
    <path d="M 777.6 320.4 
L 777.6 43.2 
" style="fill:none;stroke:#000000;stroke-linecap:square;stroke-linejoin:miter;stroke-width:0.8;"/>
   </g>
   <g id="patch_5">
    <path d="M 108 320.4 
L 777.6 320.4 
" style="fill:none;stroke:#000000;stroke-linecap:square;stroke-linejoin:miter;stroke-width:0.8;"/>
   </g>
   <g id="patch_6">
    <path d="M 108 43.2 
L 777.6 43.2 
" style="fill:none;stroke:#000000;stroke-linecap:square;stroke-linejoin:miter;stroke-width:0.8;"/>
   </g>
   <g id="text_16">
    <!--  -->
    <defs>
     <path d="M 1.265625 8.640625 
Q 4.984375 9.234375 8.6875 9.859375 
L 8.6875 69.1875 
L 2.34375 69.1875 
L 2.34375 76.03125 
L 44.53125 76.03125 
L 44.53125 69.1875 
L 37.203125 69.1875 
L 37.203125 14.890625 
Q 41.65625 15.71875 46.09375 16.546875 
Q 46.296875 12.546875 46.78125 9.71875 
Q 42.140625 8.796875 37.203125 7.8125 
L 37.203125 -12.84375 
L 30.078125 -12.84375 
L 30.078125 6.34375 
Q 17.53125 3.8125 3.125 0.828125 
z
M 40.625 37.453125 
L 63.1875 37.453125 
Q 63.578125 44.578125 63.53125 55.125 
L 43.359375 55.125 
L 43.359375 62.359375 
L 69.734375 62.359375 
Q 74.125 69.390625 81.25 82.953125 
L 88.875 79.34375 
Q 82.8125 69.921875 77.59375 62.359375 
L 93.953125 62.359375 
L 93.953125 55.125 
L 71.09375 55.125 
Q 71.09375 44.53125 70.75 37.453125 
L 97.265625 37.453125 
L 97.265625 30.21875 
L 71.734375 30.21875 
Q 79.203125 6.890625 98.640625 -4.4375 
Q 95.125 -7.953125 92.390625 -11.765625 
Q 75.046875 1.375 67.96875 21.140625 
Q 62.59375 0.203125 44.234375 -12.75 
Q 41.21875 -8.9375 38.765625 -6.390625 
Q 59.125 6.453125 62.59375 30.21875 
L 40.625 30.21875 
z
M 30.078125 13.578125 
L 30.078125 27.390625 
L 15.828125 27.390625 
L 15.828125 11.078125 
Q 23 12.3125 30.078125 13.578125 
z
M 15.828125 34.03125 
L 30.078125 34.03125 
L 30.078125 48.296875 
L 15.828125 48.296875 
z
M 15.828125 54.9375 
L 30.078125 54.9375 
L 30.078125 69.1875 
L 15.828125 69.1875 
z
M 47.078125 78.953125 
L 52.734375 82.953125 
Q 58.59375 76.3125 63.765625 68.40625 
L 57.421875 64.015625 
Q 53.328125 70.75 47.078125 78.953125 
z
" id="MicrosoftYaHei-8054"/>
     <path d="M 97.265625 20.0625 
Q 97.21875 2.4375 81.9375 1.609375 
Q 76.03125 1.46875 70.515625 2.6875 
Q 70.0625 6.640625 69.046875 11.375 
Q 75.484375 9.8125 80.03125 9.8125 
Q 89.0625 9.8125 88.96875 21.234375 
Q 88.484375 31.890625 74.8125 42.828125 
Q 82.234375 58.640625 86.8125 71.140625 
L 65.828125 71.140625 
L 65.828125 -12.75 
L 58.015625 -12.75 
L 58.015625 78.171875 
L 95.21875 78.171875 
L 95.21875 70.171875 
Q 88.1875 53.171875 83.796875 44.578125 
Q 97.265625 32.765625 97.265625 20.0625 
z
M 2.9375 24.265625 
L 23.640625 24.265625 
Q 24.46875 31.84375 24.65625 40.484375 
L 7.125 40.484375 
L 7.125 47.515625 
L 24.703125 47.515625 
L 24.703125 63.140625 
L 4.6875 63.140625 
L 4.6875 70.171875 
L 24.703125 70.171875 
L 24.703125 81.984375 
L 32.515625 81.984375 
L 32.515625 70.171875 
L 52.546875 70.171875 
L 52.546875 63.140625 
L 32.515625 63.140625 
L 32.515625 47.515625 
L 50.6875 47.515625 
L 50.6875 40.484375 
L 32.46875 40.484375 
Q 32.28125 31.546875 31.5 24.265625 
L 53.328125 24.265625 
L 53.328125 17.234375 
L 30.46875 17.234375 
Q 26.421875 -3.421875 10.0625 -13.53125 
Q 7.515625 -10.59375 3.90625 -7.375 
Q 18.796875 1.171875 22.515625 17.234375 
L 2.9375 17.234375 
z
" id="MicrosoftYaHei-90a6"/>
     <path d="M 98.734375 10.890625 
Q 95.515625 6.890625 93.453125 3.859375 
Q 84.46875 8.109375 76.953125 14.015625 
L 76.953125 8.640625 
L 53.609375 8.640625 
L 53.609375 -1.515625 
L 91.796875 -1.515625 
L 91.796875 -7.859375 
L 8.109375 -7.859375 
L 8.109375 -1.515625 
L 46.296875 -1.515625 
L 46.296875 8.640625 
L 22.65625 8.640625 
L 22.65625 13.96875 
Q 14.890625 7.46875 6.453125 2.6875 
Q 4.59375 5.328125 1.375 8.84375 
Q 16.40625 16.15625 27.390625 27.390625 
L 2.4375 27.390625 
L 2.4375 33.734375 
L 21.875 33.734375 
L 21.875 66.453125 
L 5.46875 66.453125 
L 5.46875 72.796875 
L 21.875 72.796875 
L 21.875 83.34375 
L 29.203125 83.34375 
L 29.203125 72.796875 
L 71.09375 72.796875 
L 71.09375 83.34375 
L 78.421875 83.34375 
L 78.421875 72.796875 
L 94.828125 72.796875 
L 94.828125 66.453125 
L 78.421875 66.453125 
L 78.421875 33.734375 
L 97.5625 33.734375 
L 97.5625 27.390625 
L 71.875 27.390625 
Q 82.859375 16.453125 98.734375 10.890625 
z
M 46.296875 24.265625 
L 53.609375 24.265625 
L 53.609375 14.796875 
L 75.984375 14.796875 
Q 69 20.40625 63.234375 27.390625 
L 36.328125 27.390625 
Q 30.21875 20.453125 23.640625 14.796875 
L 46.296875 14.796875 
z
M 29.203125 33.734375 
L 71.09375 33.734375 
L 71.09375 40.671875 
L 29.203125 40.671875 
z
M 29.203125 46.734375 
L 71.09375 46.734375 
L 71.09375 53.5625 
L 29.203125 53.5625 
z
M 29.203125 59.625 
L 71.09375 59.625 
L 71.09375 66.453125 
L 29.203125 66.453125 
z
" id="MicrosoftYaHei-57fa"/>
     <path d="M 22.078125 43.21875 
Q 36.140625 60.40625 44.828125 83.34375 
L 52.046875 80.8125 
Q 48.875 73.34375 45.40625 66.453125 
L 96.78125 66.453125 
L 96.78125 59.71875 
L 73.046875 59.71875 
L 73.046875 45.171875 
L 94.140625 45.171875 
L 94.140625 38.421875 
L 73.046875 38.421875 
L 73.046875 23.875 
L 94.34375 23.875 
L 94.34375 17.140625 
L 73.046875 17.140625 
L 73.046875 1.21875 
L 98.046875 1.21875 
L 98.046875 -5.328125 
L 43.265625 -5.328125 
L 43.265625 -13.140625 
L 35.640625 -13.140625 
L 35.640625 48.921875 
Q 31.78125 42.78125 27.640625 37.25 
Q 25.484375 40.28125 22.078125 43.21875 
z
M 43.265625 1.21875 
L 65.4375 1.21875 
L 65.4375 17.140625 
L 43.265625 17.140625 
z
M 16.890625 37.84375 
Q 20.703125 35.796875 24.3125 34.515625 
Q 17.390625 14.3125 10.640625 -5.8125 
L 2.640625 -2.203125 
Q 10.15625 15.671875 16.890625 37.84375 
z
M 43.265625 23.875 
L 65.4375 23.875 
L 65.4375 38.421875 
L 43.265625 38.421875 
z
M 43.265625 45.171875 
L 65.4375 45.171875 
L 65.4375 59.71875 
L 43.265625 59.71875 
z
M 8.296875 77.984375 
Q 16.40625 68.5 24.703125 57.953125 
Q 24.03125 57.46875 17.96875 52.203125 
Q 10.640625 62.453125 2.15625 73 
z
M 61.234375 79.9375 
L 67.578125 83.9375 
Q 71.390625 79.25 76.265625 72.21875 
L 69.53125 67.71875 
Q 64.9375 74.75 61.234375 79.9375 
z
" id="MicrosoftYaHei-51c6"/>
     <path d="M 1.171875 11.578125 
Q 14.265625 25.828125 23.25 46.828125 
L 1.65625 46.828125 
L 1.65625 53.953125 
L 25.09375 53.953125 
L 25.09375 68.609375 
Q 15.046875 67.625 5.171875 66.75 
Q 4.5 70.359375 3.21875 74.171875 
Q 26.65625 76.03125 51.078125 79.15625 
L 53.03125 71.734375 
Q 42.671875 70.453125 32.515625 69.390625 
L 32.515625 53.953125 
L 54.6875 53.953125 
L 54.6875 46.828125 
L 32.515625 46.828125 
L 32.515625 33.734375 
L 36.8125 37.84375 
Q 46 30.03125 55.078125 21.046875 
L 49.125 14.984375 
Q 43.171875 21.921875 32.515625 32.078125 
L 32.515625 -12.9375 
L 25.09375 -12.9375 
L 25.09375 35.890625 
Q 16.703125 16.9375 5.078125 2.78125 
Q 2.4375 9.125 1.171875 11.578125 
z
M 85.0625 81.203125 
L 92.78125 81.203125 
L 92.78125 -0.140625 
Q 92.78125 -12.546875 80.28125 -12.453125 
Q 76.265625 -12.453125 67.28125 -12.359375 
Q 66.703125 -8.34375 65.828125 -3.5625 
Q 73.734375 -4.4375 77.828125 -4.4375 
Q 85.0625 -4.546875 85.0625 2.875 
z
M 61.921875 71.4375 
L 69.34375 71.4375 
L 69.34375 9.71875 
L 61.921875 9.71875 
z
" id="MicrosoftYaHei-5229"/>
     <path d="M 39.453125 31.390625 
Q 40.96875 31.5 61.375 32.515625 
Q 58.9375 35.9375 56.640625 38.921875 
L 61.921875 42.234375 
Q 68.953125 34.421875 74.90625 25.828125 
L 68.65625 21.921875 
Q 66.9375 24.515625 65.28125 26.953125 
Q 46.734375 25.921875 34.578125 24.953125 
Q 32.421875 24.75 29.390625 24.078125 
L 26.953125 30.71875 
Q 29.890625 31.6875 31.34375 32.5625 
Q 39.59375 38.140625 47.65625 45.515625 
Q 40.578125 45.21875 35.546875 44.78125 
Q 33.5 44.484375 31.0625 43.890625 
L 28.125 49.859375 
Q 30.5625 50.734375 32.625 52.59375 
Q 39.203125 58.15625 44.921875 66.0625 
L 3.609375 66.0625 
L 3.609375 72.90625 
L 47.359375 72.90625 
Q 44.96875 77.25 42.875 80.515625 
L 49.90625 83.9375 
Q 53.71875 78.125 56.5 72.90625 
L 96.484375 72.90625 
L 96.484375 66.0625 
L 47.703125 66.0625 
L 52.34375 63.625 
Q 44.4375 55.515625 38.96875 50.734375 
Q 44.53125 50.875 53.515625 51.078125 
Q 57.421875 54.984375 61.328125 59.328125 
L 68.0625 55.421875 
Q 52.546875 40.671875 39.453125 31.390625 
z
M 2.25 15.484375 
L 46.78125 15.484375 
L 46.78125 24.078125 
L 54.5 24.078125 
L 54.5 15.484375 
L 98.046875 15.484375 
L 98.046875 8.640625 
L 54.5 8.640625 
L 54.5 -13.328125 
L 46.78125 -13.328125 
L 46.78125 8.640625 
L 2.25 8.640625 
z
M 26.859375 41.75 
L 30.375 35.984375 
Q 18.75 29.15625 6.640625 22.015625 
L 2.546875 28.5625 
Q 12.703125 33.34375 26.859375 41.75 
z
M 75.875 41.84375 
Q 89.84375 33.9375 97.65625 28.375 
L 93.359375 22.015625 
Q 83.296875 29.828125 71.875 36.578125 
z
M 93.65625 56.109375 
Q 86.234375 49.65625 77.546875 43.890625 
L 72.5625 49.078125 
Q 81.9375 55.21875 88.09375 61.375 
z
M 5.671875 56.78125 
L 10.640625 61.578125 
Q 18.75 55.125 24.8125 49.359375 
L 19.34375 44 
Q 13.671875 49.953125 5.671875 56.78125 
z
" id="MicrosoftYaHei-7387"/>
    </defs>
    <g transform="translate(406.8 37.2)scale(0.12 -0.12)">
     <use xlink:href="#MicrosoftYaHei-8054"/>
     <use x="100" xlink:href="#MicrosoftYaHei-90a6"/>
     <use x="200" xlink:href="#MicrosoftYaHei-57fa"/>
     <use x="300" xlink:href="#MicrosoftYaHei-51c6"/>
     <use x="400" xlink:href="#MicrosoftYaHei-5229"/>
     <use x="500" xlink:href="#MicrosoftYaHei-7387"/>
    </g>
   </g>
   <g id="legend_1">
    <g id="patch_7">
     <path d="M 115 66.679688 
L 175.229688 66.679688 
Q 177.229688 66.679688 177.229688 64.679688 
L 177.229688 50.2 
Q 177.229688 48.2 175.229688 48.2 
L 115 48.2 
Q 113 48.2 113 50.2 
L 113 64.679688 
Q 113 66.679688 115 66.679688 
z
" style="fill:#ffffff;opacity:0.8;stroke:#cccccc;stroke-linejoin:miter;"/>
    </g>
    <g id="line2d_30">
     <path d="M 117 56.69375 
L 137 56.69375 
" style="fill:none;stroke:#1f77b4;stroke-linecap:square;stroke-width:1.5;"/>
    </g>
    <g id="line2d_31"/>
    <g id="text_17">
     <!--  value -->
     <defs>
      <path id="MicrosoftYaHei-20"/>
      <path d="M 52.046875 54 
L 30.671875 0 
L 21 0 
L 0.6875 54 
L 11.140625 54 
L 24.3125 15.4375 
Q 25.921875 10.796875 26.21875 7.671875 
L 26.46875 7.671875 
Q 26.953125 11.765625 28.171875 15.234375 
L 42 54 
z
" id="MicrosoftYaHei-76"/>
      <path d="M 8.5 0 
L 8.5 79.9375 
L 18.0625 79.9375 
L 18.0625 0 
z
" id="MicrosoftYaHei-6c"/>
      <path d="M 53.125 0 
L 43.5 0 
L 43.5 8.5 
L 43.3125 8.5 
Q 37.890625 -1.265625 26.65625 -1.265625 
Q 7.46875 -1.265625 7.46875 21.6875 
L 7.46875 54 
L 16.9375 54 
L 16.9375 23.09375 
Q 16.9375 6.640625 29.546875 6.640625 
Q 35.796875 6.640625 39.640625 11.25 
Q 43.5 15.875 43.5 22.90625 
L 43.5 54 
L 53.125 54 
z
" id="MicrosoftYaHei-75"/>
     </defs>
     <g transform="translate(145 60.19375)scale(0.1 -0.1)">
      <use xlink:href="#MicrosoftYaHei-20"/>
      <use x="29.589844" xlink:href="#MicrosoftYaHei-76"/>
      <use x="82.048828" xlink:href="#MicrosoftYaHei-61"/>
      <use x="137.322266" xlink:href="#MicrosoftYaHei-6c"/>
      <use x="163.933594" xlink:href="#MicrosoftYaHei-75"/>
      <use x="225.554688" xlink:href="#MicrosoftYaHei-65"/>
     </g>
    </g>
   </g>
  </g>
 </g>
 <defs>
  <clipPath id="p263c5c2c50">
   <rect height="277.2" width="669.6" x="108" y="43.2"/>
  </clipPath>
 </defs>
</svg>
