<?xml version="1.0" encoding="utf-8" standalone="no"?>
<!DOCTYPE svg PUBLIC "-//W3C//DTD SVG 1.1//EN"
  "http://www.w3.org/Graphics/SVG/1.1/DTD/svg11.dtd">
<!-- Created with matplotlib (http://matplotlib.org/) -->
<svg height="360pt" version="1.1" viewBox="0 0 864 360" width="864pt" xmlns="http://www.w3.org/2000/svg" xmlns:xlink="http://www.w3.org/1999/xlink">
 <defs>
  <style type="text/css">
*{stroke-linecap:butt;stroke-linejoin:round;}
  </style>
 </defs>
 <g id="figure_1">
  <g id="patch_1">
   <path d="M 0 360 
L 864 360 
L 864 0 
L 0 0 
z
" style="fill:#ffffff;"/>
  </g>
  <g id="axes_1">
   <g id="patch_2">
    <path d="M 108 320.4 
L 777.6 320.4 
L 777.6 43.2 
L 108 43.2 
z
" style="fill:#ffffff;"/>
   </g>
   <g id="matplotlib.axis_1">
    <g id="xtick_1">
     <g id="line2d_1">
      <path clip-path="url(#pd20786794a)" d="M 108 320.4 
L 108 43.2 
" style="fill:none;stroke:#b0b0b0;stroke-linecap:square;stroke-width:0.8;"/>
     </g>
     <g id="line2d_2">
      <defs>
       <path d="M 0 0 
L 0 3.5 
" id="mfd5fe9eb69" style="stroke:#000000;stroke-width:0.8;"/>
      </defs>
      <g>
       <use style="stroke:#000000;stroke-width:0.8;" x="108" xlink:href="#mfd5fe9eb69" y="320.4"/>
      </g>
     </g>
     <g id="text_1">
      <!-- 2008-12-04 -->
      <defs>
       <path d="M 51.171875 0 
L 5.171875 0 
L 5.171875 8.296875 
L 27.15625 30.21875 
Q 36.234375 39.3125 39.3125 44.609375 
Q 42.390625 49.90625 42.390625 55.5625 
Q 42.390625 62.015625 38.765625 65.453125 
Q 35.15625 68.890625 28.328125 68.890625 
Q 18.21875 68.890625 9.03125 60.296875 
L 9.03125 70.015625 
Q 17.96875 76.90625 29.828125 76.90625 
Q 40.046875 76.90625 45.953125 71.390625 
Q 51.859375 65.875 51.859375 56.546875 
Q 51.859375 49.515625 48.0625 42.75 
Q 44.28125 35.984375 33.734375 25.53125 
L 16.5 8.6875 
L 16.5 8.5 
L 51.171875 8.5 
z
" id="MicrosoftYaHei-32"/>
       <path d="M 4.4375 36.328125 
Q 4.4375 56.34375 11.078125 66.625 
Q 17.71875 76.90625 30.328125 76.90625 
Q 54.34375 76.90625 54.34375 38.140625 
Q 54.34375 19 47.578125 8.859375 
Q 40.828125 -1.265625 28.609375 -1.265625 
Q 17.09375 -1.265625 10.765625 8.34375 
Q 4.4375 17.96875 4.4375 36.328125 
z
M 14.203125 36.765625 
Q 14.203125 6.640625 29.5 6.640625 
Q 44.53125 6.640625 44.53125 37.25 
Q 44.53125 68.953125 29.78125 68.953125 
Q 14.203125 68.953125 14.203125 36.765625 
z
" id="MicrosoftYaHei-30"/>
       <path d="M 21.390625 39.796875 
Q 7.859375 46.09375 7.859375 58.0625 
Q 7.859375 66.40625 14.203125 71.65625 
Q 20.5625 76.90625 30.421875 76.90625 
Q 39.453125 76.90625 45.3125 71.96875 
Q 51.171875 67.046875 51.171875 59.234375 
Q 51.171875 46.625 37.0625 39.84375 
L 37.0625 39.65625 
Q 53.609375 33.6875 53.609375 19.34375 
Q 53.609375 9.90625 46.796875 4.3125 
Q 39.984375 -1.265625 27.78125 -1.265625 
Q 17.78125 -1.265625 11.46875 4.25 
Q 5.171875 9.765625 5.171875 18.5625 
Q 5.171875 33.015625 21.390625 39.59375 
z
M 41.5 58.109375 
Q 41.5 63.1875 38.328125 66.109375 
Q 35.15625 69.046875 29.734375 69.046875 
Q 24.65625 69.046875 21.09375 65.984375 
Q 17.53125 62.9375 17.53125 58.203125 
Q 17.53125 48.734375 29.390625 43.796875 
Q 41.5 48.828125 41.5 58.109375 
z
M 28.8125 35.25 
Q 14.796875 29.59375 14.796875 19.046875 
Q 14.796875 13.578125 18.890625 10.0625 
Q 23 6.546875 29.59375 6.546875 
Q 35.984375 6.546875 39.984375 10.03125 
Q 44 13.53125 44 18.75 
Q 44 29.734375 28.8125 35.25 
z
" id="MicrosoftYaHei-38"/>
       <path d="M 36.375 26.265625 
L 7.625 26.265625 
L 7.625 33.640625 
L 36.375 33.640625 
z
" id="MicrosoftYaHei-2d"/>
       <path d="M 52.59375 0 
L 9.234375 0 
L 9.234375 8.25 
L 26.171875 8.25 
L 26.171875 65.671875 
L 8.796875 60.640625 
L 8.796875 69.4375 
L 35.6875 77.25 
L 35.6875 8.25 
L 52.59375 8.25 
z
" id="MicrosoftYaHei-31"/>
       <path d="M 55.078125 19.625 
L 45.40625 19.625 
L 45.40625 0 
L 36.140625 0 
L 36.140625 19.625 
L 0.875 19.625 
L 0.875 25.828125 
L 34.328125 75.640625 
L 45.40625 75.640625 
L 45.40625 27.203125 
L 55.078125 27.203125 
z
M 36.140625 27.203125 
L 36.140625 58.890625 
Q 36.140625 62.25 36.328125 66.65625 
L 36.140625 66.65625 
Q 35.453125 64.796875 33.25 60.84375 
L 10.75 27.203125 
z
" id="MicrosoftYaHei-34"/>
      </defs>
      <g transform="translate(80.217187 335.39375)scale(0.1 -0.1)">
       <use xlink:href="#MicrosoftYaHei-32"/>
       <use x="58.642578" xlink:href="#MicrosoftYaHei-30"/>
       <use x="117.285156" xlink:href="#MicrosoftYaHei-30"/>
       <use x="175.927734" xlink:href="#MicrosoftYaHei-38"/>
       <use x="234.570312" xlink:href="#MicrosoftYaHei-2d"/>
       <use x="277.832031" xlink:href="#MicrosoftYaHei-31"/>
       <use x="336.474609" xlink:href="#MicrosoftYaHei-32"/>
       <use x="395.117188" xlink:href="#MicrosoftYaHei-2d"/>
       <use x="438.378906" xlink:href="#MicrosoftYaHei-30"/>
       <use x="497.021484" xlink:href="#MicrosoftYaHei-34"/>
      </g>
     </g>
    </g>
    <g id="xtick_2">
     <g id="line2d_3">
      <path clip-path="url(#pd20786794a)" d="M 199.751165 320.4 
L 199.751165 43.2 
" style="fill:none;stroke:#b0b0b0;stroke-linecap:square;stroke-width:0.8;"/>
     </g>
     <g id="line2d_4">
      <g>
       <use style="stroke:#000000;stroke-width:0.8;" x="199.751165" xlink:href="#mfd5fe9eb69" y="320.4"/>
      </g>
     </g>
     <g id="text_2">
      <!-- 2010-04-18 -->
      <g transform="translate(171.968352 335.39375)scale(0.1 -0.1)">
       <use xlink:href="#MicrosoftYaHei-32"/>
       <use x="58.642578" xlink:href="#MicrosoftYaHei-30"/>
       <use x="117.285156" xlink:href="#MicrosoftYaHei-31"/>
       <use x="175.927734" xlink:href="#MicrosoftYaHei-30"/>
       <use x="234.570312" xlink:href="#MicrosoftYaHei-2d"/>
       <use x="277.832031" xlink:href="#MicrosoftYaHei-30"/>
       <use x="336.474609" xlink:href="#MicrosoftYaHei-34"/>
       <use x="395.117188" xlink:href="#MicrosoftYaHei-2d"/>
       <use x="438.378906" xlink:href="#MicrosoftYaHei-31"/>
       <use x="497.021484" xlink:href="#MicrosoftYaHei-38"/>
      </g>
     </g>
    </g>
    <g id="xtick_3">
     <g id="line2d_5">
      <path clip-path="url(#pd20786794a)" d="M 291.502329 320.4 
L 291.502329 43.2 
" style="fill:none;stroke:#b0b0b0;stroke-linecap:square;stroke-width:0.8;"/>
     </g>
     <g id="line2d_6">
      <g>
       <use style="stroke:#000000;stroke-width:0.8;" x="291.502329" xlink:href="#mfd5fe9eb69" y="320.4"/>
      </g>
     </g>
     <g id="text_3">
      <!-- 2011-08-31 -->
      <defs>
       <path d="M 6.984375 12.640625 
Q 14.75 6.640625 24.515625 6.640625 
Q 32.328125 6.640625 36.890625 10.46875 
Q 41.453125 14.3125 41.453125 20.75 
Q 41.453125 35.109375 20.90625 35.109375 
L 14.59375 35.109375 
L 14.59375 43.015625 
L 20.609375 43.015625 
Q 38.8125 43.015625 38.8125 56.5 
Q 38.8125 68.953125 24.90625 68.953125 
Q 16.9375 68.953125 9.90625 63.578125 
L 9.90625 72.609375 
Q 17.328125 76.90625 27.25 76.90625 
Q 36.921875 76.90625 42.78125 71.84375 
Q 48.640625 66.796875 48.640625 58.734375 
Q 48.640625 43.890625 33.5 39.65625 
L 33.5 39.453125 
Q 41.703125 38.578125 46.453125 33.671875 
Q 51.21875 28.765625 51.21875 21.4375 
Q 51.21875 11.234375 43.875 4.984375 
Q 36.53125 -1.265625 24.3125 -1.265625 
Q 13.578125 -1.265625 6.984375 2.734375 
z
" id="MicrosoftYaHei-33"/>
      </defs>
      <g transform="translate(263.719517 335.39375)scale(0.1 -0.1)">
       <use xlink:href="#MicrosoftYaHei-32"/>
       <use x="58.642578" xlink:href="#MicrosoftYaHei-30"/>
       <use x="117.285156" xlink:href="#MicrosoftYaHei-31"/>
       <use x="175.927734" xlink:href="#MicrosoftYaHei-31"/>
       <use x="234.570312" xlink:href="#MicrosoftYaHei-2d"/>
       <use x="277.832031" xlink:href="#MicrosoftYaHei-30"/>
       <use x="336.474609" xlink:href="#MicrosoftYaHei-38"/>
       <use x="395.117188" xlink:href="#MicrosoftYaHei-2d"/>
       <use x="438.378906" xlink:href="#MicrosoftYaHei-33"/>
       <use x="497.021484" xlink:href="#MicrosoftYaHei-31"/>
      </g>
     </g>
    </g>
    <g id="xtick_4">
     <g id="line2d_7">
      <path clip-path="url(#pd20786794a)" d="M 383.253494 320.4 
L 383.253494 43.2 
" style="fill:none;stroke:#b0b0b0;stroke-linecap:square;stroke-width:0.8;"/>
     </g>
     <g id="line2d_8">
      <g>
       <use style="stroke:#000000;stroke-width:0.8;" x="383.253494" xlink:href="#mfd5fe9eb69" y="320.4"/>
      </g>
     </g>
     <g id="text_4">
      <!-- 2013-01-12 -->
      <g transform="translate(355.470682 335.39375)scale(0.1 -0.1)">
       <use xlink:href="#MicrosoftYaHei-32"/>
       <use x="58.642578" xlink:href="#MicrosoftYaHei-30"/>
       <use x="117.285156" xlink:href="#MicrosoftYaHei-31"/>
       <use x="175.927734" xlink:href="#MicrosoftYaHei-33"/>
       <use x="234.570312" xlink:href="#MicrosoftYaHei-2d"/>
       <use x="277.832031" xlink:href="#MicrosoftYaHei-30"/>
       <use x="336.474609" xlink:href="#MicrosoftYaHei-31"/>
       <use x="395.117188" xlink:href="#MicrosoftYaHei-2d"/>
       <use x="438.378906" xlink:href="#MicrosoftYaHei-31"/>
       <use x="497.021484" xlink:href="#MicrosoftYaHei-32"/>
      </g>
     </g>
    </g>
    <g id="xtick_5">
     <g id="line2d_9">
      <path clip-path="url(#pd20786794a)" d="M 475.004659 320.4 
L 475.004659 43.2 
" style="fill:none;stroke:#b0b0b0;stroke-linecap:square;stroke-width:0.8;"/>
     </g>
     <g id="line2d_10">
      <g>
       <use style="stroke:#000000;stroke-width:0.8;" x="475.004659" xlink:href="#mfd5fe9eb69" y="320.4"/>
      </g>
     </g>
     <g id="text_5">
      <!-- 2014-05-27 -->
      <defs>
       <path d="M 8.640625 11.625 
Q 16.265625 6.640625 24.515625 6.640625 
Q 32.328125 6.640625 37.109375 11 
Q 41.890625 15.375 41.890625 22.609375 
Q 41.890625 29.890625 37.03125 33.890625 
Q 32.171875 37.890625 22.953125 37.890625 
Q 18.5 37.890625 10.984375 37.203125 
L 10.984375 75.640625 
L 48.1875 75.640625 
L 48.1875 67.1875 
L 19.875 67.1875 
L 19.875 45.796875 
Q 24.125 46.046875 26.265625 46.046875 
Q 38.234375 46.046875 44.921875 39.984375 
Q 51.609375 33.9375 51.609375 23.296875 
Q 51.609375 12.3125 44.421875 5.515625 
Q 37.25 -1.265625 24.609375 -1.265625 
Q 14.015625 -1.265625 8.640625 1.859375 
z
" id="MicrosoftYaHei-35"/>
       <path d="M 53.765625 72.3125 
L 24.171875 0 
L 14.265625 0 
L 42.390625 67.1875 
L 4.59375 67.1875 
L 4.59375 75.640625 
L 53.765625 75.640625 
z
" id="MicrosoftYaHei-37"/>
      </defs>
      <g transform="translate(447.221846 335.39375)scale(0.1 -0.1)">
       <use xlink:href="#MicrosoftYaHei-32"/>
       <use x="58.642578" xlink:href="#MicrosoftYaHei-30"/>
       <use x="117.285156" xlink:href="#MicrosoftYaHei-31"/>
       <use x="175.927734" xlink:href="#MicrosoftYaHei-34"/>
       <use x="234.570312" xlink:href="#MicrosoftYaHei-2d"/>
       <use x="277.832031" xlink:href="#MicrosoftYaHei-30"/>
       <use x="336.474609" xlink:href="#MicrosoftYaHei-35"/>
       <use x="395.117188" xlink:href="#MicrosoftYaHei-2d"/>
       <use x="438.378906" xlink:href="#MicrosoftYaHei-32"/>
       <use x="497.021484" xlink:href="#MicrosoftYaHei-37"/>
      </g>
     </g>
    </g>
    <g id="xtick_6">
     <g id="line2d_11">
      <path clip-path="url(#pd20786794a)" d="M 566.755824 320.4 
L 566.755824 43.2 
" style="fill:none;stroke:#b0b0b0;stroke-linecap:square;stroke-width:0.8;"/>
     </g>
     <g id="line2d_12">
      <g>
       <use style="stroke:#000000;stroke-width:0.8;" x="566.755824" xlink:href="#mfd5fe9eb69" y="320.4"/>
      </g>
     </g>
     <g id="text_6">
      <!-- 2015-10-09 -->
      <defs>
       <path d="M 9.03125 10.25 
Q 15.28125 6.640625 22.515625 6.640625 
Q 32.671875 6.640625 38.25 14.640625 
Q 43.84375 22.65625 43.84375 37.40625 
Q 43.75 37.3125 43.65625 37.40625 
Q 38.671875 27.9375 26.90625 27.9375 
Q 17.390625 27.9375 11.140625 34.46875 
Q 4.890625 41.015625 4.890625 51.46875 
Q 4.890625 62.59375 11.71875 69.75 
Q 18.5625 76.90625 29.4375 76.90625 
Q 40.71875 76.90625 47.0625 68.046875 
Q 53.421875 59.1875 53.421875 42.234375 
Q 53.421875 21.296875 45.21875 10.015625 
Q 37.015625 -1.265625 22.515625 -1.265625 
Q 14.546875 -1.265625 9.03125 1.3125 
z
M 14.546875 52.6875 
Q 14.546875 45.0625 18.453125 40.59375 
Q 22.359375 36.140625 29.25 36.140625 
Q 35.203125 36.140625 39.25 40.203125 
Q 43.3125 44.28125 43.3125 50.09375 
Q 43.3125 58.25 39.28125 63.59375 
Q 35.25 68.953125 28.65625 68.953125 
Q 22.5625 68.953125 18.546875 64.3125 
Q 14.546875 59.671875 14.546875 52.6875 
z
" id="MicrosoftYaHei-39"/>
      </defs>
      <g transform="translate(538.973011 335.39375)scale(0.1 -0.1)">
       <use xlink:href="#MicrosoftYaHei-32"/>
       <use x="58.642578" xlink:href="#MicrosoftYaHei-30"/>
       <use x="117.285156" xlink:href="#MicrosoftYaHei-31"/>
       <use x="175.927734" xlink:href="#MicrosoftYaHei-35"/>
       <use x="234.570312" xlink:href="#MicrosoftYaHei-2d"/>
       <use x="277.832031" xlink:href="#MicrosoftYaHei-31"/>
       <use x="336.474609" xlink:href="#MicrosoftYaHei-30"/>
       <use x="395.117188" xlink:href="#MicrosoftYaHei-2d"/>
       <use x="438.378906" xlink:href="#MicrosoftYaHei-30"/>
       <use x="497.021484" xlink:href="#MicrosoftYaHei-39"/>
      </g>
     </g>
    </g>
    <g id="xtick_7">
     <g id="line2d_13">
      <path clip-path="url(#pd20786794a)" d="M 658.506988 320.4 
L 658.506988 43.2 
" style="fill:none;stroke:#b0b0b0;stroke-linecap:square;stroke-width:0.8;"/>
     </g>
     <g id="line2d_14">
      <g>
       <use style="stroke:#000000;stroke-width:0.8;" x="658.506988" xlink:href="#mfd5fe9eb69" y="320.4"/>
      </g>
     </g>
     <g id="text_7">
      <!-- 2017-02-20 -->
      <g transform="translate(630.724176 335.39375)scale(0.1 -0.1)">
       <use xlink:href="#MicrosoftYaHei-32"/>
       <use x="58.642578" xlink:href="#MicrosoftYaHei-30"/>
       <use x="117.285156" xlink:href="#MicrosoftYaHei-31"/>
       <use x="175.927734" xlink:href="#MicrosoftYaHei-37"/>
       <use x="234.570312" xlink:href="#MicrosoftYaHei-2d"/>
       <use x="277.832031" xlink:href="#MicrosoftYaHei-30"/>
       <use x="336.474609" xlink:href="#MicrosoftYaHei-32"/>
       <use x="395.117188" xlink:href="#MicrosoftYaHei-2d"/>
       <use x="438.378906" xlink:href="#MicrosoftYaHei-32"/>
       <use x="497.021484" xlink:href="#MicrosoftYaHei-30"/>
      </g>
     </g>
    </g>
    <g id="xtick_8">
     <g id="line2d_15">
      <path clip-path="url(#pd20786794a)" d="M 750.258153 320.4 
L 750.258153 43.2 
" style="fill:none;stroke:#b0b0b0;stroke-linecap:square;stroke-width:0.8;"/>
     </g>
     <g id="line2d_16">
      <g>
       <use style="stroke:#000000;stroke-width:0.8;" x="750.258153" xlink:href="#mfd5fe9eb69" y="320.4"/>
      </g>
     </g>
     <g id="text_8">
      <!-- 2018-07-24 -->
      <g transform="translate(722.47534 335.39375)scale(0.1 -0.1)">
       <use xlink:href="#MicrosoftYaHei-32"/>
       <use x="58.642578" xlink:href="#MicrosoftYaHei-30"/>
       <use x="117.285156" xlink:href="#MicrosoftYaHei-31"/>
       <use x="175.927734" xlink:href="#MicrosoftYaHei-38"/>
       <use x="234.570312" xlink:href="#MicrosoftYaHei-2d"/>
       <use x="277.832031" xlink:href="#MicrosoftYaHei-30"/>
       <use x="336.474609" xlink:href="#MicrosoftYaHei-37"/>
       <use x="395.117188" xlink:href="#MicrosoftYaHei-2d"/>
       <use x="438.378906" xlink:href="#MicrosoftYaHei-32"/>
       <use x="497.021484" xlink:href="#MicrosoftYaHei-34"/>
      </g>
     </g>
    </g>
    <g id="text_9">
     <!-- date -->
     <defs>
      <path d="M 55.421875 0 
L 45.84375 0 
L 45.84375 8.984375 
L 45.65625 8.984375 
Q 39.75 -1.265625 27.296875 -1.265625 
Q 17.046875 -1.265625 10.984375 6.03125 
Q 4.9375 13.328125 4.9375 25.734375 
Q 4.9375 39.109375 11.765625 47.1875 
Q 18.609375 55.28125 29.640625 55.28125 
Q 40.671875 55.28125 45.65625 46.6875 
L 45.84375 46.6875 
L 45.84375 79.9375 
L 55.421875 79.9375 
z
M 45.90625 32.125 
Q 45.90625 38.625 41.625 42.984375 
Q 37.359375 47.359375 31.109375 47.359375 
Q 23.484375 47.359375 19.09375 41.671875 
Q 14.703125 35.984375 14.703125 26.171875 
Q 14.703125 17.140625 18.921875 11.890625 
Q 23.140625 6.640625 30.171875 6.640625 
Q 37.109375 6.640625 41.5 11.78125 
Q 45.90625 16.9375 45.90625 24.609375 
z
" id="MicrosoftYaHei-64"/>
      <path d="M 9.8125 50.25 
Q 17.875 55.28125 28.421875 55.28125 
Q 47.953125 55.28125 47.953125 34.765625 
L 47.953125 0 
L 38.484375 0 
L 38.484375 8.34375 
L 38.234375 8.34375 
Q 32.625 -1.265625 21.6875 -1.265625 
Q 13.8125 -1.265625 9.171875 2.984375 
Q 4.546875 7.234375 4.546875 14.453125 
Q 4.546875 29.59375 22.46875 32.078125 
L 38.484375 34.328125 
Q 38.484375 47.5625 27.546875 47.5625 
Q 17.828125 47.5625 9.8125 41.015625 
z
M 25.828125 25.390625 
Q 19.1875 24.515625 16.671875 22.0625 
Q 14.15625 19.625 14.15625 15.234375 
Q 14.15625 11.375 16.890625 8.9375 
Q 19.625 6.5 24.125 6.5 
Q 30.375 6.5 34.421875 10.890625 
Q 38.484375 15.28125 38.484375 21.921875 
L 38.484375 27.09375 
z
" id="MicrosoftYaHei-61"/>
      <path d="M 34.46875 0.53125 
Q 31.34375 -1.171875 26.03125 -1.171875 
Q 11.53125 -1.171875 11.53125 14.890625 
L 11.53125 46.09375 
L 2.25 46.09375 
L 2.25 54 
L 11.53125 54 
L 11.53125 67 
L 21.046875 70.015625 
L 21.046875 54 
L 34.46875 54 
L 34.46875 46.09375 
L 21.046875 46.09375 
L 21.046875 16.609375 
Q 21.046875 11.28125 22.84375 8.984375 
Q 24.65625 6.6875 28.859375 6.6875 
Q 32.078125 6.6875 34.46875 8.5 
z
" id="MicrosoftYaHei-74"/>
      <path d="M 52.546875 24.5625 
L 14.75 24.5625 
Q 14.984375 15.921875 19.46875 11.203125 
Q 23.96875 6.5 32.03125 6.5 
Q 41.109375 6.5 48.6875 12.3125 
L 48.6875 3.765625 
Q 41.546875 -1.265625 29.78125 -1.265625 
Q 18.0625 -1.265625 11.5 6.15625 
Q 4.9375 13.578125 4.9375 26.765625 
Q 4.9375 39.15625 12.140625 47.21875 
Q 19.34375 55.28125 30.03125 55.28125 
Q 40.625 55.28125 46.578125 48.46875 
Q 52.546875 41.65625 52.546875 29.390625 
z
M 42.96875 32.234375 
Q 42.921875 39.546875 39.5 43.546875 
Q 36.078125 47.5625 29.890625 47.5625 
Q 24.171875 47.5625 20 43.3125 
Q 15.828125 39.0625 14.75 32.234375 
z
" id="MicrosoftYaHei-65"/>
     </defs>
     <g transform="translate(432.138281 349.873438)scale(0.1 -0.1)">
      <use xlink:href="#MicrosoftYaHei-64"/>
      <use x="63.964844" xlink:href="#MicrosoftYaHei-61"/>
      <use x="119.238281" xlink:href="#MicrosoftYaHei-74"/>
      <use x="156.494141" xlink:href="#MicrosoftYaHei-65"/>
     </g>
    </g>
   </g>
   <g id="matplotlib.axis_2">
    <g id="ytick_1">
     <g id="line2d_17">
      <path clip-path="url(#pd20786794a)" d="M 108 312.071186 
L 777.6 312.071186 
" style="fill:none;stroke:#b0b0b0;stroke-linecap:square;stroke-width:0.8;"/>
     </g>
     <g id="line2d_18">
      <defs>
       <path d="M 0 0 
L -3.5 0 
" id="m996f6bafae" style="stroke:#000000;stroke-width:0.8;"/>
      </defs>
      <g>
       <use style="stroke:#000000;stroke-width:0.8;" x="108" xlink:href="#m996f6bafae" y="312.071186"/>
      </g>
     </g>
     <g id="text_10">
      <!-- 0.0 -->
      <defs>
       <path d="M 5.8125 5.03125 
Q 5.8125 7.671875 7.609375 9.46875 
Q 9.421875 11.28125 12.109375 11.28125 
Q 14.84375 11.28125 16.640625 9.453125 
Q 18.453125 7.625 18.453125 5.03125 
Q 18.453125 2.484375 16.640625 0.65625 
Q 14.84375 -1.171875 12.0625 -1.171875 
Q 9.375 -1.171875 7.59375 0.65625 
Q 5.8125 2.484375 5.8125 5.03125 
z
" id="MicrosoftYaHei-2e"/>
      </defs>
      <g transform="translate(86.864063 316.068061)scale(0.1 -0.1)">
       <use xlink:href="#MicrosoftYaHei-30"/>
       <use x="58.642578" xlink:href="#MicrosoftYaHei-2e"/>
       <use x="82.714844" xlink:href="#MicrosoftYaHei-30"/>
      </g>
     </g>
    </g>
    <g id="ytick_2">
     <g id="line2d_19">
      <path clip-path="url(#pd20786794a)" d="M 108 258.681356 
L 777.6 258.681356 
" style="fill:none;stroke:#b0b0b0;stroke-linecap:square;stroke-width:0.8;"/>
     </g>
     <g id="line2d_20">
      <g>
       <use style="stroke:#000000;stroke-width:0.8;" x="108" xlink:href="#m996f6bafae" y="258.681356"/>
      </g>
     </g>
     <g id="text_11">
      <!-- 0.5 -->
      <g transform="translate(86.864063 262.678231)scale(0.1 -0.1)">
       <use xlink:href="#MicrosoftYaHei-30"/>
       <use x="58.642578" xlink:href="#MicrosoftYaHei-2e"/>
       <use x="82.714844" xlink:href="#MicrosoftYaHei-35"/>
      </g>
     </g>
    </g>
    <g id="ytick_3">
     <g id="line2d_21">
      <path clip-path="url(#pd20786794a)" d="M 108 205.291525 
L 777.6 205.291525 
" style="fill:none;stroke:#b0b0b0;stroke-linecap:square;stroke-width:0.8;"/>
     </g>
     <g id="line2d_22">
      <g>
       <use style="stroke:#000000;stroke-width:0.8;" x="108" xlink:href="#m996f6bafae" y="205.291525"/>
      </g>
     </g>
     <g id="text_12">
      <!-- 1.0 -->
      <g transform="translate(86.864063 209.2884)scale(0.1 -0.1)">
       <use xlink:href="#MicrosoftYaHei-31"/>
       <use x="58.642578" xlink:href="#MicrosoftYaHei-2e"/>
       <use x="82.714844" xlink:href="#MicrosoftYaHei-30"/>
      </g>
     </g>
    </g>
    <g id="ytick_4">
     <g id="line2d_23">
      <path clip-path="url(#pd20786794a)" d="M 108 151.901695 
L 777.6 151.901695 
" style="fill:none;stroke:#b0b0b0;stroke-linecap:square;stroke-width:0.8;"/>
     </g>
     <g id="line2d_24">
      <g>
       <use style="stroke:#000000;stroke-width:0.8;" x="108" xlink:href="#m996f6bafae" y="151.901695"/>
      </g>
     </g>
     <g id="text_13">
      <!-- 1.5 -->
      <g transform="translate(86.864063 155.89857)scale(0.1 -0.1)">
       <use xlink:href="#MicrosoftYaHei-31"/>
       <use x="58.642578" xlink:href="#MicrosoftYaHei-2e"/>
       <use x="82.714844" xlink:href="#MicrosoftYaHei-35"/>
      </g>
     </g>
    </g>
    <g id="ytick_5">
     <g id="line2d_25">
      <path clip-path="url(#pd20786794a)" d="M 108 98.511864 
L 777.6 98.511864 
" style="fill:none;stroke:#b0b0b0;stroke-linecap:square;stroke-width:0.8;"/>
     </g>
     <g id="line2d_26">
      <g>
       <use style="stroke:#000000;stroke-width:0.8;" x="108" xlink:href="#m996f6bafae" y="98.511864"/>
      </g>
     </g>
     <g id="text_14">
      <!-- 2.0 -->
      <g transform="translate(86.864063 102.508739)scale(0.1 -0.1)">
       <use xlink:href="#MicrosoftYaHei-32"/>
       <use x="58.642578" xlink:href="#MicrosoftYaHei-2e"/>
       <use x="82.714844" xlink:href="#MicrosoftYaHei-30"/>
      </g>
     </g>
    </g>
    <g id="ytick_6">
     <g id="line2d_27">
      <path clip-path="url(#pd20786794a)" d="M 108 45.122034 
L 777.6 45.122034 
" style="fill:none;stroke:#b0b0b0;stroke-linecap:square;stroke-width:0.8;"/>
     </g>
     <g id="line2d_28">
      <g>
       <use style="stroke:#000000;stroke-width:0.8;" x="108" xlink:href="#m996f6bafae" y="45.122034"/>
      </g>
     </g>
     <g id="text_15">
      <!-- 2.5 -->
      <g transform="translate(86.864063 49.118909)scale(0.1 -0.1)">
       <use xlink:href="#MicrosoftYaHei-32"/>
       <use x="58.642578" xlink:href="#MicrosoftYaHei-2e"/>
       <use x="82.714844" xlink:href="#MicrosoftYaHei-35"/>
      </g>
     </g>
    </g>
   </g>
   <g id="line2d_29">
    <path clip-path="url(#pd20786794a)" d="M 108 290.715254 
L 108.183502 299.257627 
L 108.734009 299.257627 
L 108.917512 298.189831 
L 109.101014 300.325424 
L 109.284516 297.122034 
L 109.468019 296.054237 
L 109.835023 296.054237 
L 110.018526 292.850847 
L 110.202028 293.918644 
L 110.38553 299.257627 
L 110.569033 300.325424 
L 111.853549 300.325424 
L 112.037051 302.461017 
L 112.404056 302.461017 
L 112.587558 301.39322 
L 112.771061 302.461017 
L 112.954563 297.122034 
L 113.138065 297.122034 
L 113.321568 303.528814 
L 113.688572 303.528814 
L 113.872075 300.325424 
L 114.055577 302.461017 
L 114.239079 300.325424 
L 114.606084 302.461017 
L 114.973089 302.461017 
L 115.156591 301.39322 
L 115.340093 301.39322 
L 115.707098 292.850847 
L 115.8906 291.783051 
L 116.441107 291.783051 
L 116.624609 290.715254 
L 116.808112 287.511864 
L 117.358619 292.850847 
L 117.542121 292.850847 
L 117.725623 291.783051 
L 117.909126 292.850847 
L 118.092628 291.783051 
L 118.27613 287.511864 
L 118.826637 287.511864 
L 119.01014 286.444068 
L 119.377144 286.444068 
L 119.560647 287.511864 
L 120.111154 287.511864 
L 120.294656 288.579661 
L 120.478158 286.444068 
L 120.661661 288.579661 
L 120.845163 287.511864 
L 121.028665 288.579661 
L 121.579172 288.579661 
L 121.762675 285.376271 
L 122.313182 290.715254 
L 122.680186 290.715254 
L 122.863689 291.783051 
L 123.047191 289.647458 
L 123.230693 289.647458 
L 123.414196 288.579661 
L 124.148205 288.579661 
L 124.331707 290.715254 
L 124.51521 289.647458 
L 124.698712 290.715254 
L 125.616224 290.715254 
L 125.983228 292.850847 
L 126.166731 296.054237 
L 126.533735 296.054237 
L 126.717238 290.715254 
L 126.90074 290.715254 
L 127.267745 293.918644 
L 127.451247 292.850847 
L 127.818252 292.850847 
L 128.001754 293.918644 
L 128.368759 293.918644 
L 128.735763 296.054237 
L 129.102768 296.054237 
L 129.28627 294.986441 
L 129.836777 294.986441 
L 130.02028 298.189831 
L 130.387284 298.189831 
L 130.570787 297.122034 
L 131.121294 297.122034 
L 131.304796 296.054237 
L 131.6718 296.054237 
L 131.855303 298.189831 
L 132.038805 294.986441 
L 132.222307 294.986441 
L 132.40581 296.054237 
L 132.589312 298.189831 
L 132.956317 298.189831 
L 133.323321 296.054237 
L 133.506824 296.054237 
L 133.690326 293.918644 
L 133.873828 294.986441 
L 134.240833 294.986441 
L 134.424335 293.918644 
L 134.607838 294.986441 
L 135.158345 288.579661 
L 135.708852 288.579661 
L 136.075856 292.850847 
L 136.259359 292.850847 
L 136.442861 293.918644 
L 136.993368 293.918644 
L 137.17687 294.986441 
L 137.543875 294.986441 
L 137.727377 293.918644 
L 138.094382 293.918644 
L 138.644889 297.122034 
L 138.828391 293.918644 
L 139.562401 293.918644 
L 139.745903 292.850847 
L 139.929405 293.918644 
L 140.112908 293.918644 
L 140.29641 291.783051 
L 140.663415 291.783051 
L 140.846917 289.647458 
L 141.030419 290.715254 
L 141.213922 289.647458 
L 141.397424 290.715254 
L 141.580926 289.647458 
L 142.131433 289.647458 
L 142.314936 292.850847 
L 142.498438 292.850847 
L 142.68194 293.918644 
L 143.232447 293.918644 
L 143.41595 288.579661 
L 143.599452 288.579661 
L 143.966457 285.376271 
L 144.516964 285.376271 
L 144.700466 286.444068 
L 144.883968 286.444068 
L 145.250973 291.783051 
L 145.434475 292.850847 
L 145.80148 292.850847 
L 145.984982 293.918644 
L 146.168485 288.579661 
L 146.718992 294.986441 
L 147.085996 294.986441 
L 147.269498 292.850847 
L 147.453001 292.850847 
L 147.820005 296.054237 
L 148.370512 296.054237 
L 148.554015 298.189831 
L 148.737517 298.189831 
L 149.104522 296.054237 
L 149.838531 296.054237 
L 150.022033 297.122034 
L 150.205536 297.122034 
L 150.389038 296.054237 
L 150.939545 296.054237 
L 151.123047 294.986441 
L 151.30655 296.054237 
L 151.490052 293.918644 
L 151.673554 293.918644 
L 151.857057 292.850847 
L 152.407564 292.850847 
L 152.591066 293.918644 
L 153.69208 293.918644 
L 154.059085 296.054237 
L 154.793094 296.054237 
L 154.976596 293.918644 
L 155.527103 293.918644 
L 155.710606 294.986441 
L 156.261113 294.986441 
L 156.444615 296.054237 
L 156.628117 296.054237 
L 156.81162 297.122034 
L 157.362127 297.122034 
L 157.545629 296.054237 
L 157.729131 296.054237 
L 157.912634 294.986441 
L 158.096136 296.054237 
L 159.19715 296.054237 
L 159.380652 294.986441 
L 159.564155 296.054237 
L 159.931159 296.054237 
L 160.298164 293.918644 
L 160.481666 293.918644 
L 160.665169 294.986441 
L 161.215676 294.986441 
L 161.399178 296.054237 
L 161.766183 296.054237 
L 162.133187 298.189831 
L 162.683694 298.189831 
L 162.867196 300.325424 
L 163.050699 304.59661 
L 163.417703 298.189831 
L 163.96821 298.189831 
L 164.151713 299.257627 
L 164.335215 298.189831 
L 164.518717 299.257627 
L 165.619731 299.257627 
L 165.803234 298.189831 
L 165.986736 299.257627 
L 166.720745 299.257627 
L 166.904248 300.325424 
L 168.922773 300.325424 
L 169.106276 299.257627 
L 169.289778 299.257627 
L 169.47328 298.189831 
L 169.656783 298.189831 
L 169.840285 299.257627 
L 170.390792 299.257627 
L 170.574294 298.189831 
L 170.757797 298.189831 
L 170.941299 299.257627 
L 171.858811 299.257627 
L 172.042313 300.325424 
L 172.776322 300.325424 
L 172.959825 299.257627 
L 173.143327 299.257627 
L 173.326829 300.325424 
L 173.510332 300.325424 
L 173.693834 299.257627 
L 174.060839 299.257627 
L 174.244341 298.189831 
L 174.794848 298.189831 
L 174.97835 299.257627 
L 176.813374 299.257627 
L 177.180378 297.122034 
L 177.547383 299.257627 
L 178.281392 299.257627 
L 178.464894 300.325424 
L 179.198904 300.325424 
L 179.382406 299.257627 
L 179.565908 299.257627 
L 179.749411 300.325424 
L 179.932913 306.732203 
L 180.48342 306.732203 
L 180.666922 299.257627 
L 181.033927 299.257627 
L 181.217429 301.39322 
L 181.400932 300.325424 
L 182.501946 300.325424 
L 182.685448 299.257627 
L 183.235955 299.257627 
L 183.419457 298.189831 
L 183.60296 298.189831 
L 183.969964 300.325424 
L 184.336969 300.325424 
L 184.520471 299.257627 
L 185.621485 299.257627 
L 185.804988 297.122034 
L 185.98849 297.122034 
L 186.171992 298.189831 
L 186.355495 297.122034 
L 186.538997 298.189831 
L 187.273006 298.189831 
L 187.456509 299.257627 
L 188.37402 299.257627 
L 188.557523 298.189831 
L 188.741025 299.257627 
L 188.924527 299.257627 
L 189.10803 298.189831 
L 189.475034 298.189831 
L 189.658537 299.257627 
L 189.842039 299.257627 
L 190.025541 300.325424 
L 190.392546 298.189831 
L 190.759551 298.189831 
L 190.943053 297.122034 
L 191.126555 297.122034 
L 191.677062 293.918644 
L 192.044067 293.918644 
L 192.411072 297.122034 
L 192.594574 297.122034 
L 192.778076 296.054237 
L 192.961579 293.918644 
L 193.328583 293.918644 
L 193.512086 290.715254 
L 193.695588 290.715254 
L 193.87909 292.850847 
L 194.796602 292.850847 
L 194.980104 293.918644 
L 195.897616 293.918644 
L 196.081118 294.986441 
L 196.26462 294.986441 
L 196.448123 302.461017 
L 196.631625 293.918644 
L 196.815127 290.715254 
L 197.549137 290.715254 
L 197.732639 291.783051 
L 198.650151 291.783051 
L 198.833653 290.715254 
L 199.017155 290.715254 
L 199.200658 288.579661 
L 199.38416 289.647458 
L 199.751165 289.647458 
L 199.934667 290.715254 
L 201.586188 290.715254 
L 201.76969 291.783051 
L 201.953193 290.715254 
L 202.5037 290.715254 
L 202.687202 289.647458 
L 202.870704 289.647458 
L 203.054207 290.715254 
L 204.88923 290.715254 
L 205.072732 289.647458 
L 205.256235 289.647458 
L 205.439737 290.715254 
L 206.173746 290.715254 
L 206.357249 289.647458 
L 206.540751 289.647458 
L 206.724253 290.715254 
L 206.907756 290.715254 
L 207.091258 291.783051 
L 207.641765 291.783051 
L 207.825267 290.715254 
L 208.00877 290.715254 
L 208.192272 291.783051 
L 209.109784 291.783051 
L 209.293286 292.850847 
L 210.210797 292.850847 
L 210.3943 291.783051 
L 210.761304 291.783051 
L 210.944807 292.850847 
L 211.311811 292.850847 
L 211.495314 293.918644 
L 211.678816 292.850847 
L 212.045821 294.986441 
L 212.596328 294.986441 
L 212.77983 293.918644 
L 212.963332 296.054237 
L 213.146835 302.461017 
L 213.330337 293.918644 
L 213.513839 292.850847 
L 214.431351 292.850847 
L 214.614853 293.918644 
L 214.798356 292.850847 
L 215.16536 292.850847 
L 215.348863 293.918644 
L 215.715867 293.918644 
L 215.89937 291.783051 
L 216.633379 291.783051 
L 216.816881 292.850847 
L 217.183886 292.850847 
L 217.367388 291.783051 
L 218.101398 291.783051 
L 218.2849 290.715254 
L 218.651905 292.850847 
L 219.018909 292.850847 
L 219.202412 291.783051 
L 219.752919 291.783051 
L 219.936421 292.850847 
L 220.67043 292.850847 
L 220.853933 293.918644 
L 221.220937 291.783051 
L 221.587942 291.783051 
L 221.771444 290.715254 
L 221.954947 290.715254 
L 222.138449 291.783051 
L 222.321951 291.783051 
L 222.505454 290.715254 
L 222.872458 290.715254 
L 223.055961 291.783051 
L 224.340477 291.783051 
L 224.523979 289.647458 
L 224.707482 291.783051 
L 225.624993 291.783051 
L 225.808495 290.715254 
L 226.1755 292.850847 
L 226.909509 292.850847 
L 227.093012 291.783051 
L 227.276514 289.647458 
L 228.194026 289.647458 
L 228.377528 290.715254 
L 228.56103 289.647458 
L 228.744533 290.715254 
L 228.928035 289.647458 
L 229.29504 289.647458 
L 229.478542 291.783051 
L 229.845547 291.783051 
L 230.029049 296.054237 
L 230.212551 290.715254 
L 230.946561 290.715254 
L 231.313565 292.850847 
L 232.414579 292.850847 
L 232.781584 290.715254 
L 233.148589 290.715254 
L 233.332091 291.783051 
L 235.167114 291.783051 
L 235.350617 290.715254 
L 236.268128 290.715254 
L 236.635133 292.850847 
L 237.18564 292.850847 
L 237.369142 293.918644 
L 237.736147 293.918644 
L 237.919649 291.783051 
L 238.286654 291.783051 
L 238.470156 289.647458 
L 238.653659 289.647458 
L 238.837161 290.715254 
L 239.020663 290.715254 
L 239.204166 289.647458 
L 239.57117 289.647458 
L 239.754673 291.783051 
L 239.938175 290.715254 
L 241.406193 290.715254 
L 241.773198 292.850847 
L 242.323705 292.850847 
L 242.507207 293.918644 
L 242.69071 293.918644 
L 242.874212 294.986441 
L 243.424719 294.986441 
L 243.608221 293.918644 
L 243.975226 290.715254 
L 244.709235 290.715254 
L 244.892738 289.647458 
L 245.259742 291.783051 
L 246.177254 291.783051 
L 246.360756 292.850847 
L 246.544259 292.850847 
L 246.727761 291.783051 
L 246.911263 298.189831 
L 247.278268 298.189831 
L 247.46177 291.783051 
L 247.645273 292.850847 
L 247.828775 292.850847 
L 248.012277 293.918644 
L 248.929789 293.918644 
L 249.113291 294.986441 
L 250.030803 294.986441 
L 250.214305 291.783051 
L 250.397808 292.850847 
L 250.58131 292.850847 
L 250.764812 293.918644 
L 251.131817 293.918644 
L 251.315319 292.850847 
L 251.498822 293.918644 
L 252.599836 293.918644 
L 252.783338 292.850847 
L 252.96684 292.850847 
L 253.150343 293.918644 
L 253.884352 293.918644 
L 254.251357 296.054237 
L 255.168868 296.054237 
L 255.352371 294.986441 
L 255.535873 296.054237 
L 257.554398 296.054237 
L 257.737901 294.986441 
L 257.921403 296.054237 
L 258.104905 294.986441 
L 258.288408 296.054237 
L 258.838915 296.054237 
L 259.022417 297.122034 
L 259.572924 297.122034 
L 259.756426 298.189831 
L 260.123431 298.189831 
L 260.306933 297.122034 
L 260.85744 297.122034 
L 261.040943 296.054237 
L 261.407947 296.054237 
L 261.59145 297.122034 
L 261.958454 297.122034 
L 262.141957 298.189831 
L 263.242971 298.189831 
L 263.426473 301.39322 
L 263.609975 300.325424 
L 263.97698 300.325424 
L 264.160482 302.461017 
L 264.343985 302.461017 
L 264.527487 301.39322 
L 264.710989 301.39322 
L 264.894492 302.461017 
L 265.444999 302.461017 
L 265.628501 303.528814 
L 265.812003 303.528814 
L 265.995506 302.461017 
L 266.179008 299.257627 
L 266.546013 299.257627 
L 266.729515 301.39322 
L 266.913017 300.325424 
L 267.09652 301.39322 
L 268.014031 301.39322 
L 268.197534 302.461017 
L 271.684078 302.461017 
L 271.86758 301.39322 
L 272.051082 302.461017 
L 272.234585 301.39322 
L 272.418087 302.461017 
L 272.601589 301.39322 
L 273.335599 301.39322 
L 273.519101 302.461017 
L 273.702603 302.461017 
L 273.886106 301.39322 
L 274.98712 301.39322 
L 275.170622 300.325424 
L 275.537627 300.325424 
L 275.904631 302.461017 
L 276.822143 302.461017 
L 277.005645 301.39322 
L 278.106659 301.39322 
L 278.290162 302.461017 
L 278.657166 302.461017 
L 278.840669 303.528814 
L 279.75818 303.528814 
L 279.941683 304.59661 
L 280.125185 304.59661 
L 280.308687 303.528814 
L 281.042697 303.528814 
L 281.226199 304.59661 
L 282.143711 304.59661 
L 282.327213 305.664407 
L 284.896246 305.664407 
L 285.26325 303.528814 
L 285.446753 300.325424 
L 285.813757 300.325424 
L 285.99726 293.918644 
L 286.180762 294.986441 
L 286.547767 302.461017 
L 286.731269 303.528814 
L 287.098273 303.528814 
L 287.281776 300.325424 
L 287.465278 301.39322 
L 287.64878 301.39322 
L 287.832283 302.461017 
L 288.015785 301.39322 
L 288.566292 301.39322 
L 288.749794 302.461017 
L 289.850808 302.461017 
L 290.034311 303.528814 
L 290.401315 303.528814 
L 290.584818 302.461017 
L 291.135325 302.461017 
L 291.318827 303.528814 
L 292.419841 303.528814 
L 292.603343 302.461017 
L 293.88786 302.461017 
L 294.071362 303.528814 
L 294.254864 302.461017 
L 295.172376 302.461017 
L 295.355878 303.528814 
L 296.823897 303.528814 
L 297.007399 305.664407 
L 297.374404 305.664407 
L 297.557906 303.528814 
L 297.741409 304.59661 
L 301.594958 304.59661 
L 301.77846 303.528814 
L 301.961962 304.59661 
L 302.512469 304.59661 
L 302.695971 302.461017 
L 302.879474 303.528814 
L 303.062976 303.528814 
L 303.246478 302.461017 
L 303.429981 303.528814 
L 305.265004 303.528814 
L 305.448506 302.461017 
L 305.632009 303.528814 
L 306.733023 303.528814 
L 306.916525 302.461017 
L 307.100027 302.461017 
L 307.28353 304.59661 
L 307.650534 304.59661 
L 307.834037 303.528814 
L 308.017539 303.528814 
L 308.201041 301.39322 
L 308.384544 303.528814 
L 309.485558 303.528814 
L 309.66906 304.59661 
L 312.238093 304.59661 
L 312.421595 303.528814 
L 312.972102 303.528814 
L 313.155604 304.59661 
L 313.522609 304.59661 
L 313.706111 307.8 
L 314.256618 307.8 
L 314.440121 304.59661 
L 315.357632 304.59661 
L 315.541135 303.528814 
L 316.091642 303.528814 
L 316.275144 302.461017 
L 317.192656 302.461017 
L 317.376158 301.39322 
L 317.55966 302.461017 
L 318.293669 302.461017 
L 318.477172 303.528814 
L 318.660674 303.528814 
L 318.844176 302.461017 
L 319.394683 302.461017 
L 319.578186 300.325424 
L 321.229707 300.325424 
L 321.413209 299.257627 
L 322.330721 299.257627 
L 322.514223 300.325424 
L 322.697725 302.461017 
L 323.248232 302.461017 
L 323.431735 301.39322 
L 323.615237 303.528814 
L 323.798739 303.528814 
L 323.982242 302.461017 
L 324.349246 302.461017 
L 324.532749 301.39322 
L 324.899753 301.39322 
L 325.083256 300.325424 
L 326.367772 300.325424 
L 326.551274 299.257627 
L 327.285284 299.257627 
L 327.835791 296.054237 
L 328.753302 296.054237 
L 328.936805 297.122034 
L 329.854316 297.122034 
L 330.037819 298.189831 
L 330.221321 298.189831 
L 330.404823 302.461017 
L 330.771828 302.461017 
L 330.95533 296.054237 
L 331.505837 296.054237 
L 331.68934 299.257627 
L 332.056344 299.257627 
L 332.239847 294.986441 
L 332.423349 296.054237 
L 332.606851 294.986441 
L 332.790354 296.054237 
L 333.524363 296.054237 
L 333.707865 294.986441 
L 333.891367 296.054237 
L 334.258372 299.257627 
L 334.625377 299.257627 
L 335.175884 296.054237 
L 335.542888 298.189831 
L 335.909893 298.189831 
L 336.093395 294.986441 
L 336.276898 294.986441 
L 336.4604 296.054237 
L 336.643902 296.054237 
L 336.827405 294.986441 
L 337.561414 294.986441 
L 337.744916 296.054237 
L 338.478926 296.054237 
L 338.662428 294.986441 
L 340.130447 294.986441 
L 340.313949 296.054237 
L 341.231461 296.054237 
L 341.414963 294.986441 
L 342.332475 294.986441 
L 342.515977 293.918644 
L 342.699479 293.918644 
L 342.882982 294.986441 
L 343.066484 294.986441 
L 343.249986 293.918644 
L 343.800493 293.918644 
L 343.983996 294.986441 
L 344.167498 293.918644 
L 344.351 293.918644 
L 344.534503 292.850847 
L 344.901507 292.850847 
L 345.08501 293.918644 
L 345.268512 293.918644 
L 345.452014 294.986441 
L 345.635517 293.918644 
L 346.369526 293.918644 
L 346.736531 296.054237 
L 346.920033 296.054237 
L 347.103535 302.461017 
L 347.47054 302.461017 
L 347.654042 292.850847 
L 347.837545 293.918644 
L 349.305563 293.918644 
L 349.672568 291.783051 
L 350.039572 291.783051 
L 350.590079 294.986441 
L 350.773582 298.189831 
L 351.324089 298.189831 
L 351.691093 296.054237 
L 351.874596 296.054237 
L 352.058098 297.122034 
L 352.792107 297.122034 
L 352.97561 298.189831 
L 353.159112 297.122034 
L 354.076624 297.122034 
L 354.260126 298.189831 
L 358.297177 298.189831 
L 358.48068 297.122034 
L 358.664182 298.189831 
L 359.214689 298.189831 
L 359.398191 297.122034 
L 359.581694 294.986441 
L 359.765196 294.986441 
L 359.948698 296.054237 
L 361.049712 296.054237 
L 361.233215 294.986441 
L 361.967224 294.986441 
L 362.150726 296.054237 
L 362.334229 294.986441 
L 362.517731 296.054237 
L 362.884736 296.054237 
L 363.068238 294.986441 
L 363.25174 296.054237 
L 363.435243 296.054237 
L 363.618745 297.122034 
L 363.802247 302.461017 
L 364.169252 302.461017 
L 364.352754 296.054237 
L 364.536257 294.986441 
L 364.719759 294.986441 
L 364.903261 296.054237 
L 365.63727 296.054237 
L 365.820773 294.986441 
L 367.105289 294.986441 
L 367.288791 296.054237 
L 367.472294 296.054237 
L 367.655796 294.986441 
L 368.022801 294.986441 
L 368.206303 296.054237 
L 368.389805 296.054237 
L 368.573308 293.918644 
L 368.75681 294.986441 
L 369.307317 294.986441 
L 369.490819 293.918644 
L 369.674322 293.918644 
L 369.857824 292.850847 
L 370.224829 294.986441 
L 370.591833 294.986441 
L 370.775336 293.918644 
L 370.958838 294.986441 
L 375.913401 294.986441 
L 376.096903 293.918644 
L 376.280406 294.986441 
L 377.197917 294.986441 
L 377.38142 293.918644 
L 377.564922 293.918644 
L 377.748424 294.986441 
L 377.931927 293.918644 
L 378.298931 293.918644 
L 378.482434 294.986441 
L 378.665936 293.918644 
L 379.583448 293.918644 
L 379.76695 292.850847 
L 379.950452 292.850847 
L 380.133955 293.918644 
L 380.867964 293.918644 
L 381.051466 302.461017 
L 381.234968 302.461017 
L 381.418471 293.918644 
L 381.601973 293.918644 
L 381.785475 294.986441 
L 382.335982 294.986441 
L 382.702987 297.122034 
L 383.620499 297.122034 
L 383.804001 296.054237 
L 383.987503 297.122034 
L 385.088517 297.122034 
L 385.27202 298.189831 
L 385.455522 296.054237 
L 385.639024 297.122034 
L 386.189531 297.122034 
L 386.373034 299.257627 
L 386.556536 299.257627 
L 386.740038 296.054237 
L 386.923541 297.122034 
L 387.290545 297.122034 
L 387.474048 298.189831 
L 388.024555 298.189831 
L 388.208057 297.122034 
L 388.758564 297.122034 
L 388.942066 298.189831 
L 389.125569 297.122034 
L 389.309071 297.122034 
L 389.492573 294.986441 
L 390.04308 294.986441 
L 390.226583 296.054237 
L 390.410085 296.054237 
L 390.593587 294.986441 
L 391.144094 294.986441 
L 391.511099 297.122034 
L 392.428611 297.122034 
L 392.612113 294.986441 
L 392.795615 296.054237 
L 392.979118 296.054237 
L 393.16262 294.986441 
L 393.346122 296.054237 
L 393.713127 296.054237 
L 393.896629 294.986441 
L 394.263634 297.122034 
L 394.630639 294.986441 
L 395.181146 294.986441 
L 395.364648 296.054237 
L 395.54815 296.054237 
L 395.731653 294.986441 
L 395.915155 296.054237 
L 396.465662 296.054237 
L 396.649164 297.122034 
L 396.832666 299.257627 
L 397.016169 298.189831 
L 397.199671 302.461017 
L 397.566676 302.461017 
L 397.750178 294.986441 
L 398.117183 297.122034 
L 398.300685 297.122034 
L 398.484187 296.054237 
L 401.603727 296.054237 
L 401.970732 298.189831 
L 402.888243 298.189831 
L 403.071746 297.122034 
L 403.255248 297.122034 
L 403.43875 296.054237 
L 403.622253 297.122034 
L 404.17276 297.122034 
L 404.356262 299.257627 
L 405.457276 299.257627 
L 405.640778 300.325424 
L 405.824281 299.257627 
L 406.191285 301.39322 
L 406.741792 301.39322 
L 407.108797 303.528814 
L 407.292299 303.528814 
L 407.475802 302.461017 
L 408.209811 302.461017 
L 408.393313 303.528814 
L 408.576816 303.528814 
L 408.760318 302.461017 
L 409.127323 302.461017 
L 409.494327 300.325424 
L 409.67783 302.461017 
L 409.861332 301.39322 
L 410.044834 302.461017 
L 410.778844 302.461017 
L 410.962346 303.528814 
L 411.329351 301.39322 
L 411.696355 301.39322 
L 412.06336 299.257627 
L 412.246862 301.39322 
L 413.164374 301.39322 
L 413.347876 302.461017 
L 413.714881 302.461017 
L 413.898383 304.59661 
L 414.265388 304.59661 
L 414.44889 301.39322 
L 415.916909 301.39322 
L 416.100411 302.461017 
L 419.403453 302.461017 
L 419.586955 303.528814 
L 419.770458 302.461017 
L 419.95396 302.461017 
L 420.137462 303.528814 
L 420.320965 302.461017 
L 420.687969 302.461017 
L 420.871472 303.528814 
L 421.054974 302.461017 
L 421.421979 302.461017 
L 421.605481 303.528814 
L 422.33949 303.528814 
L 422.522993 302.461017 
L 422.706495 303.528814 
L 422.889997 302.461017 
L 423.624007 302.461017 
L 423.807509 303.528814 
L 423.991011 302.461017 
L 424.174514 303.528814 
L 424.725021 303.528814 
L 424.908523 304.59661 
L 425.092025 304.59661 
L 425.275528 303.528814 
L 425.45903 304.59661 
L 426.009537 304.59661 
L 426.193039 302.461017 
L 426.376542 303.528814 
L 428.945574 303.528814 
L 429.129076 302.461017 
L 429.312579 303.528814 
L 429.679583 303.528814 
L 429.863086 302.461017 
L 430.046588 302.461017 
L 430.23009 303.528814 
L 430.9641 303.528814 
L 431.147602 305.664407 
L 431.331104 303.528814 
L 431.514607 304.59661 
L 431.698109 303.528814 
L 432.615621 303.528814 
L 432.799123 302.461017 
L 432.982625 302.461017 
L 433.166128 301.39322 
L 433.900137 301.39322 
L 434.083639 300.325424 
L 434.267142 301.39322 
L 434.817649 301.39322 
L 435.184653 303.528814 
L 436.652672 303.528814 
L 436.836174 304.59661 
L 437.019677 303.528814 
L 439.221705 303.528814 
L 439.405207 302.461017 
L 441.97424 302.461017 
L 442.157742 304.59661 
L 442.524747 304.59661 
L 442.708249 302.461017 
L 444.176267 302.461017 
L 444.35977 303.528814 
L 444.543272 302.461017 
L 444.726774 303.528814 
L 445.093779 303.528814 
L 445.277281 302.461017 
L 446.561798 302.461017 
L 446.7453 303.528814 
L 447.846314 303.528814 
L 448.029816 304.59661 
L 448.213319 304.59661 
L 448.396821 303.528814 
L 449.13083 303.528814 
L 449.314333 304.59661 
L 454.819403 304.59661 
L 455.002905 305.664407 
L 455.36991 305.664407 
L 455.553412 304.59661 
L 455.736914 305.664407 
L 455.920417 304.59661 
L 456.103919 305.664407 
L 456.837928 305.664407 
L 457.021431 304.59661 
L 458.672951 304.59661 
L 458.856454 305.664407 
L 459.223458 305.664407 
L 459.406961 304.59661 
L 459.590463 304.59661 
L 459.773965 303.528814 
L 463.077007 303.528814 
L 463.26051 302.461017 
L 463.444012 302.461017 
L 463.627514 303.528814 
L 464.361524 303.528814 
L 464.545026 305.664407 
L 464.912031 302.461017 
L 465.095533 303.528814 
L 465.64604 303.528814 
L 465.829542 302.461017 
L 466.013045 303.528814 
L 466.380049 303.528814 
L 466.563552 302.461017 
L 467.114059 302.461017 
L 467.297561 301.39322 
L 467.481063 302.461017 
L 467.664566 302.461017 
L 467.848068 301.39322 
L 468.949082 301.39322 
L 469.132584 302.461017 
L 469.683091 302.461017 
L 469.866594 301.39322 
L 470.050096 302.461017 
L 471.15111 302.461017 
L 471.334612 303.528814 
L 472.252124 303.528814 
L 472.435626 302.461017 
L 472.619129 303.528814 
L 472.802631 302.461017 
L 475.371663 302.461017 
L 475.555166 303.528814 
L 475.92217 303.528814 
L 476.289175 301.39322 
L 476.472677 302.461017 
L 477.940696 302.461017 
L 478.124198 301.39322 
L 481.060236 301.39322 
L 481.243738 302.461017 
L 481.42724 301.39322 
L 481.610743 301.39322 
L 481.794245 302.461017 
L 482.344752 302.461017 
L 482.528254 301.39322 
L 482.711757 302.461017 
L 484.913785 302.461017 
L 485.097287 301.39322 
L 485.280789 302.461017 
L 486.748808 302.461017 
L 486.93231 303.528814 
L 487.115813 302.461017 
L 492.070375 302.461017 
L 492.253878 304.59661 
L 492.804385 304.59661 
L 492.987887 302.461017 
L 497.758948 302.461017 
L 498.125952 304.59661 
L 498.309455 302.461017 
L 499.593971 302.461017 
L 499.777473 303.528814 
L 499.960976 302.461017 
L 503.631022 302.461017 
L 503.814525 304.59661 
L 504.181529 304.59661 
L 504.548534 301.39322 
L 504.732036 302.461017 
L 506.750562 302.461017 
L 507.117566 300.325424 
L 507.301069 301.39322 
L 508.769087 301.39322 
L 508.95259 303.528814 
L 509.319594 303.528814 
L 509.503097 298.189831 
L 509.686599 299.257627 
L 511.888627 299.257627 
L 512.072129 300.325424 
L 512.439134 298.189831 
L 514.824664 298.189831 
L 515.008167 305.664407 
L 515.191669 305.664407 
L 515.375171 299.257627 
L 517.760702 299.257627 
L 517.944204 298.189831 
L 518.494711 298.189831 
L 518.678213 299.257627 
L 519.779227 299.257627 
L 519.96273 300.325424 
L 520.146232 299.257627 
L 520.329734 300.325424 
L 520.513237 305.664407 
L 520.880241 305.664407 
L 521.063743 299.257627 
L 521.247246 299.257627 
L 521.430748 300.325424 
L 521.61425 299.257627 
L 521.797753 300.325424 
L 522.164757 300.325424 
L 522.34826 299.257627 
L 524.73379 299.257627 
L 524.917292 300.325424 
L 525.467799 300.325424 
L 525.651302 305.664407 
L 526.018306 305.664407 
L 526.201809 299.257627 
L 526.385311 299.257627 
L 526.568813 300.325424 
L 526.752316 300.325424 
L 526.935818 299.257627 
L 527.669827 299.257627 
L 527.85333 300.325424 
L 528.587339 300.325424 
L 528.770841 299.257627 
L 528.954344 299.257627 
L 529.137846 300.325424 
L 529.321348 299.257627 
L 530.055358 299.257627 
L 530.23886 300.325424 
L 530.422362 299.257627 
L 530.605865 300.325424 
L 530.789367 299.257627 
L 531.339874 299.257627 
L 531.523376 305.664407 
L 531.706879 299.257627 
L 532.440888 299.257627 
L 532.62439 298.189831 
L 532.807893 299.257627 
L 533.725404 299.257627 
L 533.908907 298.189831 
L 536.844944 298.189831 
L 537.028446 303.528814 
L 537.211948 298.189831 
L 540.331488 298.189831 
L 540.51499 299.257627 
L 540.881995 299.257627 
L 541.065497 298.189831 
L 541.616004 298.189831 
L 541.799507 299.257627 
L 542.166511 299.257627 
L 542.350014 303.528814 
L 542.717018 303.528814 
L 542.900521 299.257627 
L 543.084023 299.257627 
L 543.267525 298.189831 
L 545.469553 298.189831 
L 545.653056 297.122034 
L 546.02006 297.122034 
L 546.203563 298.189831 
L 547.855084 298.189831 
L 548.038586 297.122034 
L 548.222088 303.528814 
L 548.405591 298.189831 
L 550.974623 298.189831 
L 551.158126 297.122034 
L 551.341628 298.189831 
L 551.708633 298.189831 
L 551.892135 297.122034 
L 552.075637 298.189831 
L 552.993149 298.189831 
L 553.176651 297.122034 
L 553.727158 297.122034 
L 553.91066 303.528814 
L 554.277665 303.528814 
L 554.461167 297.122034 
L 555.745684 297.122034 
L 555.929186 296.054237 
L 556.296191 296.054237 
L 556.479693 297.122034 
L 556.846698 297.122034 
L 557.0302 296.054237 
L 558.498219 296.054237 
L 558.681721 297.122034 
L 559.41573 297.122034 
L 559.599233 303.528814 
L 559.782735 297.122034 
L 564.003289 297.122034 
L 564.186791 298.189831 
L 564.9208 298.189831 
L 565.104303 304.59661 
L 565.287805 298.189831 
L 568.957851 298.189831 
L 569.141354 299.257627 
L 570.42587 299.257627 
L 570.609372 304.59661 
L 570.976377 304.59661 
L 571.159879 299.257627 
L 573.54541 299.257627 
L 573.728912 298.189831 
L 573.912414 298.189831 
L 574.095917 299.257627 
L 576.114442 299.257627 
L 576.297945 303.528814 
L 576.481447 298.189831 
L 577.765963 298.189831 
L 577.949466 297.122034 
L 578.683475 297.122034 
L 578.866977 296.054237 
L 579.233982 296.054237 
L 579.417484 272.562712 
L 579.967991 272.562712 
L 580.151494 273.630508 
L 581.619512 273.630508 
L 581.803015 274.698305 
L 581.986517 290.715254 
L 582.537024 290.715254 
L 582.720526 273.630508 
L 585.473061 273.630508 
L 585.656563 272.562712 
L 585.840066 272.562712 
L 586.023568 271.494915 
L 587.124582 271.494915 
L 587.308084 281.105085 
L 587.675089 281.105085 
L 587.858591 271.494915 
L 590.611126 271.494915 
L 590.794629 272.562712 
L 590.978131 271.494915 
L 592.079145 271.494915 
L 592.262647 272.562712 
L 592.813154 272.562712 
L 592.996657 281.105085 
L 593.180159 273.630508 
L 593.363661 272.562712 
L 593.547164 272.562712 
L 593.730666 273.630508 
L 595.565689 273.630508 
L 595.749192 272.562712 
L 598.501727 272.562712 
L 598.685229 285.376271 
L 598.868731 272.562712 
L 603.823294 272.562712 
L 604.006796 280.037288 
L 604.373801 280.037288 
L 604.557303 272.562712 
L 609.695369 272.562712 
L 609.878871 281.105085 
L 610.062373 272.562712 
L 612.631406 272.562712 
L 612.814908 271.494915 
L 613.915922 271.494915 
L 614.282927 269.359322 
L 614.649931 269.359322 
L 614.833434 268.291525 
L 615.200438 268.291525 
L 615.383941 280.037288 
L 615.567443 268.291525 
L 616.11795 268.291525 
L 616.301452 269.359322 
L 620.522006 269.359322 
L 620.705508 280.037288 
L 621.072513 280.037288 
L 621.256015 269.359322 
L 626.577583 269.359322 
L 626.761085 280.037288 
L 626.944588 269.359322 
L 632.082653 269.359322 
L 632.266155 281.105085 
L 632.63316 281.105085 
L 632.816662 269.359322 
L 634.101178 269.359322 
L 634.284681 268.291525 
L 637.771225 268.291525 
L 637.954727 278.969492 
L 638.13823 268.291525 
L 643.276295 268.291525 
L 643.459797 278.969492 
L 643.6433 268.291525 
L 646.02883 268.291525 
L 646.212332 241.59661 
L 648.781365 241.59661 
L 648.964867 253.342373 
L 649.515374 253.342373 
L 649.698876 241.59661 
L 654.653439 241.59661 
L 654.836942 252.274576 
L 655.020444 241.59661 
L 659.791505 241.59661 
L 659.975007 251.20678 
L 660.158509 241.59661 
L 662.727542 241.59661 
L 662.911044 214.901695 
L 665.480077 214.901695 
L 665.663579 224.511864 
L 666.030584 224.511864 
L 666.214086 214.901695 
L 670.618142 214.901695 
L 670.801644 223.444068 
L 671.168649 223.444068 
L 671.352151 214.901695 
L 676.673719 214.901695 
L 676.857221 223.444068 
L 677.040723 214.901695 
L 679.426254 214.901695 
L 679.609756 188.20678 
L 682.178789 188.20678 
L 682.362291 198.884746 
L 682.729296 198.884746 
L 682.912798 188.20678 
L 687.867361 188.20678 
L 688.050863 197.816949 
L 688.234366 188.20678 
L 693.555933 188.20678 
L 693.739435 197.816949 
L 693.922938 188.20678 
L 698.877501 188.20678 
L 699.061003 198.884746 
L 699.428008 198.884746 
L 699.61151 188.20678 
L 704.749575 188.20678 
L 704.933078 197.816949 
L 705.11658 188.20678 
L 710.071143 188.20678 
L 710.254645 197.816949 
L 710.438147 188.20678 
L 712.273171 188.20678 
L 712.456673 187.138983 
L 712.640175 187.138983 
L 712.823678 161.511864 
L 713.374185 161.511864 
L 713.557687 160.444068 
L 715.209208 160.444068 
L 715.39271 170.054237 
L 715.759715 170.054237 
L 715.943217 160.444068 
L 720.89778 160.444068 
L 721.081283 168.986441 
L 721.264785 160.444068 
L 725.852343 160.444068 
L 726.035845 167.918644 
L 726.219348 160.444068 
L 728.604878 160.444068 
L 728.78838 159.376271 
L 729.52239 159.376271 
L 729.705892 158.308475 
L 729.889394 158.308475 
L 730.072897 132.681356 
L 731.357413 132.681356 
L 731.540915 133.749153 
L 731.90792 133.749153 
L 732.274925 131.613559 
L 735.210962 131.613559 
L 735.394464 130.545763 
L 737.045985 130.545763 
L 737.229488 131.613559 
L 737.41299 130.545763 
L 745.120088 130.545763 
L 745.30359 109.189831 
L 745.670595 109.189831 
L 746.037599 107.054237 
L 746.771609 107.054237 
L 746.955111 108.122034 
L 753.19419 108.122034 
L 753.377693 107.054237 
L 755.212716 107.054237 
L 755.396218 108.122034 
L 755.57972 107.054237 
L 757.965251 107.054237 
L 758.148753 105.986441 
L 758.515758 105.986441 
L 758.69926 79.291525 
L 760.901288 79.291525 
L 761.08479 78.223729 
L 761.635297 78.223729 
L 761.8188 77.155932 
L 763.103316 77.155932 
L 763.286818 78.223729 
L 763.470321 77.155932 
L 764.020828 77.155932 
L 764.20433 78.223729 
L 764.387832 77.155932 
L 766.58986 77.155932 
L 766.773363 78.223729 
L 766.956865 77.155932 
L 767.32387 77.155932 
L 767.507372 78.223729 
L 767.690874 77.155932 
L 767.874377 78.223729 
L 768.424884 78.223729 
L 768.608386 77.155932 
L 768.975391 77.155932 
L 769.158893 55.8 
L 777.6 55.8 
L 777.6 55.8 
" style="fill:none;stroke:#1f77b4;stroke-linecap:square;stroke-width:1.5;"/>
   </g>
   <g id="patch_3">
    <path d="M 108 320.4 
L 108 43.2 
" style="fill:none;stroke:#000000;stroke-linecap:square;stroke-linejoin:miter;stroke-width:0.8;"/>
   </g>
   <g id="patch_4">
    <path d="M 777.6 320.4 
L 777.6 43.2 
" style="fill:none;stroke:#000000;stroke-linecap:square;stroke-linejoin:miter;stroke-width:0.8;"/>
   </g>
   <g id="patch_5">
    <path d="M 108 320.4 
L 777.6 320.4 
" style="fill:none;stroke:#000000;stroke-linecap:square;stroke-linejoin:miter;stroke-width:0.8;"/>
   </g>
   <g id="patch_6">
    <path d="M 108 43.2 
L 777.6 43.2 
" style="fill:none;stroke:#000000;stroke-linecap:square;stroke-linejoin:miter;stroke-width:0.8;"/>
   </g>
   <g id="text_16">
    <!--  -->
    <defs>
     <path d="M 1.265625 8.640625 
Q 4.984375 9.234375 8.6875 9.859375 
L 8.6875 69.1875 
L 2.34375 69.1875 
L 2.34375 76.03125 
L 44.53125 76.03125 
L 44.53125 69.1875 
L 37.203125 69.1875 
L 37.203125 14.890625 
Q 41.65625 15.71875 46.09375 16.546875 
Q 46.296875 12.546875 46.78125 9.71875 
Q 42.140625 8.796875 37.203125 7.8125 
L 37.203125 -12.84375 
L 30.078125 -12.84375 
L 30.078125 6.34375 
Q 17.53125 3.8125 3.125 0.828125 
z
M 40.625 37.453125 
L 63.1875 37.453125 
Q 63.578125 44.578125 63.53125 55.125 
L 43.359375 55.125 
L 43.359375 62.359375 
L 69.734375 62.359375 
Q 74.125 69.390625 81.25 82.953125 
L 88.875 79.34375 
Q 82.8125 69.921875 77.59375 62.359375 
L 93.953125 62.359375 
L 93.953125 55.125 
L 71.09375 55.125 
Q 71.09375 44.53125 70.75 37.453125 
L 97.265625 37.453125 
L 97.265625 30.21875 
L 71.734375 30.21875 
Q 79.203125 6.890625 98.640625 -4.4375 
Q 95.125 -7.953125 92.390625 -11.765625 
Q 75.046875 1.375 67.96875 21.140625 
Q 62.59375 0.203125 44.234375 -12.75 
Q 41.21875 -8.9375 38.765625 -6.390625 
Q 59.125 6.453125 62.59375 30.21875 
L 40.625 30.21875 
z
M 30.078125 13.578125 
L 30.078125 27.390625 
L 15.828125 27.390625 
L 15.828125 11.078125 
Q 23 12.3125 30.078125 13.578125 
z
M 15.828125 34.03125 
L 30.078125 34.03125 
L 30.078125 48.296875 
L 15.828125 48.296875 
z
M 15.828125 54.9375 
L 30.078125 54.9375 
L 30.078125 69.1875 
L 15.828125 69.1875 
z
M 47.078125 78.953125 
L 52.734375 82.953125 
Q 58.59375 76.3125 63.765625 68.40625 
L 57.421875 64.015625 
Q 53.328125 70.75 47.078125 78.953125 
z
" id="MicrosoftYaHei-8054"/>
     <path d="M 97.265625 20.0625 
Q 97.21875 2.4375 81.9375 1.609375 
Q 76.03125 1.46875 70.515625 2.6875 
Q 70.0625 6.640625 69.046875 11.375 
Q 75.484375 9.8125 80.03125 9.8125 
Q 89.0625 9.8125 88.96875 21.234375 
Q 88.484375 31.890625 74.8125 42.828125 
Q 82.234375 58.640625 86.8125 71.140625 
L 65.828125 71.140625 
L 65.828125 -12.75 
L 58.015625 -12.75 
L 58.015625 78.171875 
L 95.21875 78.171875 
L 95.21875 70.171875 
Q 88.1875 53.171875 83.796875 44.578125 
Q 97.265625 32.765625 97.265625 20.0625 
z
M 2.9375 24.265625 
L 23.640625 24.265625 
Q 24.46875 31.84375 24.65625 40.484375 
L 7.125 40.484375 
L 7.125 47.515625 
L 24.703125 47.515625 
L 24.703125 63.140625 
L 4.6875 63.140625 
L 4.6875 70.171875 
L 24.703125 70.171875 
L 24.703125 81.984375 
L 32.515625 81.984375 
L 32.515625 70.171875 
L 52.546875 70.171875 
L 52.546875 63.140625 
L 32.515625 63.140625 
L 32.515625 47.515625 
L 50.6875 47.515625 
L 50.6875 40.484375 
L 32.46875 40.484375 
Q 32.28125 31.546875 31.5 24.265625 
L 53.328125 24.265625 
L 53.328125 17.234375 
L 30.46875 17.234375 
Q 26.421875 -3.421875 10.0625 -13.53125 
Q 7.515625 -10.59375 3.90625 -7.375 
Q 18.796875 1.171875 22.515625 17.234375 
L 2.9375 17.234375 
z
" id="MicrosoftYaHei-90a6"/>
     <path d="M 98.734375 10.890625 
Q 95.515625 6.890625 93.453125 3.859375 
Q 84.46875 8.109375 76.953125 14.015625 
L 76.953125 8.640625 
L 53.609375 8.640625 
L 53.609375 -1.515625 
L 91.796875 -1.515625 
L 91.796875 -7.859375 
L 8.109375 -7.859375 
L 8.109375 -1.515625 
L 46.296875 -1.515625 
L 46.296875 8.640625 
L 22.65625 8.640625 
L 22.65625 13.96875 
Q 14.890625 7.46875 6.453125 2.6875 
Q 4.59375 5.328125 1.375 8.84375 
Q 16.40625 16.15625 27.390625 27.390625 
L 2.4375 27.390625 
L 2.4375 33.734375 
L 21.875 33.734375 
L 21.875 66.453125 
L 5.46875 66.453125 
L 5.46875 72.796875 
L 21.875 72.796875 
L 21.875 83.34375 
L 29.203125 83.34375 
L 29.203125 72.796875 
L 71.09375 72.796875 
L 71.09375 83.34375 
L 78.421875 83.34375 
L 78.421875 72.796875 
L 94.828125 72.796875 
L 94.828125 66.453125 
L 78.421875 66.453125 
L 78.421875 33.734375 
L 97.5625 33.734375 
L 97.5625 27.390625 
L 71.875 27.390625 
Q 82.859375 16.453125 98.734375 10.890625 
z
M 46.296875 24.265625 
L 53.609375 24.265625 
L 53.609375 14.796875 
L 75.984375 14.796875 
Q 69 20.40625 63.234375 27.390625 
L 36.328125 27.390625 
Q 30.21875 20.453125 23.640625 14.796875 
L 46.296875 14.796875 
z
M 29.203125 33.734375 
L 71.09375 33.734375 
L 71.09375 40.671875 
L 29.203125 40.671875 
z
M 29.203125 46.734375 
L 71.09375 46.734375 
L 71.09375 53.5625 
L 29.203125 53.5625 
z
M 29.203125 59.625 
L 71.09375 59.625 
L 71.09375 66.453125 
L 29.203125 66.453125 
z
" id="MicrosoftYaHei-57fa"/>
     <path d="M 22.078125 43.21875 
Q 36.140625 60.40625 44.828125 83.34375 
L 52.046875 80.8125 
Q 48.875 73.34375 45.40625 66.453125 
L 96.78125 66.453125 
L 96.78125 59.71875 
L 73.046875 59.71875 
L 73.046875 45.171875 
L 94.140625 45.171875 
L 94.140625 38.421875 
L 73.046875 38.421875 
L 73.046875 23.875 
L 94.34375 23.875 
L 94.34375 17.140625 
L 73.046875 17.140625 
L 73.046875 1.21875 
L 98.046875 1.21875 
L 98.046875 -5.328125 
L 43.265625 -5.328125 
L 43.265625 -13.140625 
L 35.640625 -13.140625 
L 35.640625 48.921875 
Q 31.78125 42.78125 27.640625 37.25 
Q 25.484375 40.28125 22.078125 43.21875 
z
M 43.265625 1.21875 
L 65.4375 1.21875 
L 65.4375 17.140625 
L 43.265625 17.140625 
z
M 16.890625 37.84375 
Q 20.703125 35.796875 24.3125 34.515625 
Q 17.390625 14.3125 10.640625 -5.8125 
L 2.640625 -2.203125 
Q 10.15625 15.671875 16.890625 37.84375 
z
M 43.265625 23.875 
L 65.4375 23.875 
L 65.4375 38.421875 
L 43.265625 38.421875 
z
M 43.265625 45.171875 
L 65.4375 45.171875 
L 65.4375 59.71875 
L 43.265625 59.71875 
z
M 8.296875 77.984375 
Q 16.40625 68.5 24.703125 57.953125 
Q 24.03125 57.46875 17.96875 52.203125 
Q 10.640625 62.453125 2.15625 73 
z
M 61.234375 79.9375 
L 67.578125 83.9375 
Q 71.390625 79.25 76.265625 72.21875 
L 69.53125 67.71875 
Q 64.9375 74.75 61.234375 79.9375 
z
" id="MicrosoftYaHei-51c6"/>
     <path d="M 1.171875 11.578125 
Q 14.265625 25.828125 23.25 46.828125 
L 1.65625 46.828125 
L 1.65625 53.953125 
L 25.09375 53.953125 
L 25.09375 68.609375 
Q 15.046875 67.625 5.171875 66.75 
Q 4.5 70.359375 3.21875 74.171875 
Q 26.65625 76.03125 51.078125 79.15625 
L 53.03125 71.734375 
Q 42.671875 70.453125 32.515625 69.390625 
L 32.515625 53.953125 
L 54.6875 53.953125 
L 54.6875 46.828125 
L 32.515625 46.828125 
L 32.515625 33.734375 
L 36.8125 37.84375 
Q 46 30.03125 55.078125 21.046875 
L 49.125 14.984375 
Q 43.171875 21.921875 32.515625 32.078125 
L 32.515625 -12.9375 
L 25.09375 -12.9375 
L 25.09375 35.890625 
Q 16.703125 16.9375 5.078125 2.78125 
Q 2.4375 9.125 1.171875 11.578125 
z
M 85.0625 81.203125 
L 92.78125 81.203125 
L 92.78125 -0.140625 
Q 92.78125 -12.546875 80.28125 -12.453125 
Q 76.265625 -12.453125 67.28125 -12.359375 
Q 66.703125 -8.34375 65.828125 -3.5625 
Q 73.734375 -4.4375 77.828125 -4.4375 
Q 85.0625 -4.546875 85.0625 2.875 
z
M 61.921875 71.4375 
L 69.34375 71.4375 
L 69.34375 9.71875 
L 61.921875 9.71875 
z
" id="MicrosoftYaHei-5229"/>
     <path d="M 39.453125 31.390625 
Q 40.96875 31.5 61.375 32.515625 
Q 58.9375 35.9375 56.640625 38.921875 
L 61.921875 42.234375 
Q 68.953125 34.421875 74.90625 25.828125 
L 68.65625 21.921875 
Q 66.9375 24.515625 65.28125 26.953125 
Q 46.734375 25.921875 34.578125 24.953125 
Q 32.421875 24.75 29.390625 24.078125 
L 26.953125 30.71875 
Q 29.890625 31.6875 31.34375 32.5625 
Q 39.59375 38.140625 47.65625 45.515625 
Q 40.578125 45.21875 35.546875 44.78125 
Q 33.5 44.484375 31.0625 43.890625 
L 28.125 49.859375 
Q 30.5625 50.734375 32.625 52.59375 
Q 39.203125 58.15625 44.921875 66.0625 
L 3.609375 66.0625 
L 3.609375 72.90625 
L 47.359375 72.90625 
Q 44.96875 77.25 42.875 80.515625 
L 49.90625 83.9375 
Q 53.71875 78.125 56.5 72.90625 
L 96.484375 72.90625 
L 96.484375 66.0625 
L 47.703125 66.0625 
L 52.34375 63.625 
Q 44.4375 55.515625 38.96875 50.734375 
Q 44.53125 50.875 53.515625 51.078125 
Q 57.421875 54.984375 61.328125 59.328125 
L 68.0625 55.421875 
Q 52.546875 40.671875 39.453125 31.390625 
z
M 2.25 15.484375 
L 46.78125 15.484375 
L 46.78125 24.078125 
L 54.5 24.078125 
L 54.5 15.484375 
L 98.046875 15.484375 
L 98.046875 8.640625 
L 54.5 8.640625 
L 54.5 -13.328125 
L 46.78125 -13.328125 
L 46.78125 8.640625 
L 2.25 8.640625 
z
M 26.859375 41.75 
L 30.375 35.984375 
Q 18.75 29.15625 6.640625 22.015625 
L 2.546875 28.5625 
Q 12.703125 33.34375 26.859375 41.75 
z
M 75.875 41.84375 
Q 89.84375 33.9375 97.65625 28.375 
L 93.359375 22.015625 
Q 83.296875 29.828125 71.875 36.578125 
z
M 93.65625 56.109375 
Q 86.234375 49.65625 77.546875 43.890625 
L 72.5625 49.078125 
Q 81.9375 55.21875 88.09375 61.375 
z
M 5.671875 56.78125 
L 10.640625 61.578125 
Q 18.75 55.125 24.8125 49.359375 
L 19.34375 44 
Q 13.671875 49.953125 5.671875 56.78125 
z
" id="MicrosoftYaHei-7387"/>
    </defs>
    <g transform="translate(406.8 37.2)scale(0.12 -0.12)">
     <use xlink:href="#MicrosoftYaHei-8054"/>
     <use x="100" xlink:href="#MicrosoftYaHei-90a6"/>
     <use x="200" xlink:href="#MicrosoftYaHei-57fa"/>
     <use x="300" xlink:href="#MicrosoftYaHei-51c6"/>
     <use x="400" xlink:href="#MicrosoftYaHei-5229"/>
     <use x="500" xlink:href="#MicrosoftYaHei-7387"/>
    </g>
   </g>
   <g id="legend_1">
    <g id="patch_7">
     <path d="M 115 66.679688 
L 175.229688 66.679688 
Q 177.229688 66.679688 177.229688 64.679688 
L 177.229688 50.2 
Q 177.229688 48.2 175.229688 48.2 
L 115 48.2 
Q 113 48.2 113 50.2 
L 113 64.679688 
Q 113 66.679688 115 66.679688 
z
" style="fill:#ffffff;opacity:0.8;stroke:#cccccc;stroke-linejoin:miter;"/>
    </g>
    <g id="line2d_30">
     <path d="M 117 56.69375 
L 137 56.69375 
" style="fill:none;stroke:#1f77b4;stroke-linecap:square;stroke-width:1.5;"/>
    </g>
    <g id="line2d_31"/>
    <g id="text_17">
     <!--  value -->
     <defs>
      <path id="MicrosoftYaHei-20"/>
      <path d="M 52.046875 54 
L 30.671875 0 
L 21 0 
L 0.6875 54 
L 11.140625 54 
L 24.3125 15.4375 
Q 25.921875 10.796875 26.21875 7.671875 
L 26.46875 7.671875 
Q 26.953125 11.765625 28.171875 15.234375 
L 42 54 
z
" id="MicrosoftYaHei-76"/>
      <path d="M 8.5 0 
L 8.5 79.9375 
L 18.0625 79.9375 
L 18.0625 0 
z
" id="MicrosoftYaHei-6c"/>
      <path d="M 53.125 0 
L 43.5 0 
L 43.5 8.5 
L 43.3125 8.5 
Q 37.890625 -1.265625 26.65625 -1.265625 
Q 7.46875 -1.265625 7.46875 21.6875 
L 7.46875 54 
L 16.9375 54 
L 16.9375 23.09375 
Q 16.9375 6.640625 29.546875 6.640625 
Q 35.796875 6.640625 39.640625 11.25 
Q 43.5 15.875 43.5 22.90625 
L 43.5 54 
L 53.125 54 
z
" id="MicrosoftYaHei-75"/>
     </defs>
     <g transform="translate(145 60.19375)scale(0.1 -0.1)">
      <use xlink:href="#MicrosoftYaHei-20"/>
      <use x="29.589844" xlink:href="#MicrosoftYaHei-76"/>
      <use x="82.048828" xlink:href="#MicrosoftYaHei-61"/>
      <use x="137.322266" xlink:href="#MicrosoftYaHei-6c"/>
      <use x="163.933594" xlink:href="#MicrosoftYaHei-75"/>
      <use x="225.554688" xlink:href="#MicrosoftYaHei-65"/>
     </g>
    </g>
   </g>
  </g>
 </g>
 <defs>
  <clipPath id="pd20786794a">
   <rect height="277.2" width="669.6" x="108" y="43.2"/>
  </clipPath>
 </defs>
</svg>
