<?xml version="1.0" encoding="utf-8" standalone="no"?>
<!DOCTYPE svg PUBLIC "-//W3C//DTD SVG 1.1//EN"
  "http://www.w3.org/Graphics/SVG/1.1/DTD/svg11.dtd">
<!-- Created with matplotlib (http://matplotlib.org/) -->
<svg height="432pt" version="1.1" viewBox="0 0 864 432" width="864pt" xmlns="http://www.w3.org/2000/svg" xmlns:xlink="http://www.w3.org/1999/xlink">
 <defs>
  <style type="text/css">
*{stroke-linecap:butt;stroke-linejoin:round;}
  </style>
 </defs>
 <g id="figure_1">
  <g id="patch_1">
   <path d="M 0 432 
L 864 432 
L 864 0 
L 0 0 
z
" style="fill:#ffffff;"/>
  </g>
  <g id="axes_1">
   <g id="patch_2">
    <path d="M 108 384.48 
L 777.6 384.48 
L 777.6 51.84 
L 108 51.84 
z
" style="fill:#ffffff;"/>
   </g>
   <g id="patch_3">
    <path clip-path="url(#pd0b7a7aee1)" d="M 102.227586 384.48 
L 113.772414 384.48 
L 113.772414 278.066485 
L 102.227586 278.066485 
z
" style="fill:#1f77b4;"/>
   </g>
   <g id="patch_4">
    <path clip-path="url(#pd0b7a7aee1)" d="M 125.317241 384.48 
L 136.862069 384.48 
L 136.862069 293.62324 
L 125.317241 293.62324 
z
" style="fill:#1f77b4;"/>
   </g>
   <g id="patch_5">
    <path clip-path="url(#pd0b7a7aee1)" d="M 148.406897 384.48 
L 159.951724 384.48 
L 159.951724 296.758305 
L 148.406897 296.758305 
z
" style="fill:#1f77b4;"/>
   </g>
   <g id="patch_6">
    <path clip-path="url(#pd0b7a7aee1)" d="M 171.496552 384.48 
L 183.041379 384.48 
L 183.041379 296.694256 
L 171.496552 296.694256 
z
" style="fill:#1f77b4;"/>
   </g>
   <g id="patch_7">
    <path clip-path="url(#pd0b7a7aee1)" d="M 194.586207 384.48 
L 206.131034 384.48 
L 206.131034 297.044485 
L 194.586207 297.044485 
z
" style="fill:#1f77b4;"/>
   </g>
   <g id="patch_8">
    <path clip-path="url(#pd0b7a7aee1)" d="M 217.675862 384.48 
L 229.22069 384.48 
L 229.22069 298.47052 
L 217.675862 298.47052 
z
" style="fill:#1f77b4;"/>
   </g>
   <g id="patch_9">
    <path clip-path="url(#pd0b7a7aee1)" d="M 240.765517 384.48 
L 252.310345 384.48 
L 252.310345 298.943417 
L 240.765517 298.943417 
z
" style="fill:#1f77b4;"/>
   </g>
   <g id="patch_10">
    <path clip-path="url(#pd0b7a7aee1)" d="M 263.855172 384.48 
L 275.4 384.48 
L 275.4 300.212414 
L 263.855172 300.212414 
z
" style="fill:#1f77b4;"/>
   </g>
   <g id="patch_11">
    <path clip-path="url(#pd0b7a7aee1)" d="M 286.944828 384.48 
L 298.489655 384.48 
L 298.489655 300.844735 
L 286.944828 300.844735 
z
" style="fill:#1f77b4;"/>
   </g>
   <g id="patch_12">
    <path clip-path="url(#pd0b7a7aee1)" d="M 310.034483 384.48 
L 321.57931 384.48 
L 321.57931 302.240223 
L 310.034483 302.240223 
z
" style="fill:#1f77b4;"/>
   </g>
   <g id="patch_13">
    <path clip-path="url(#pd0b7a7aee1)" d="M 333.124138 384.48 
L 344.668966 384.48 
L 344.668966 303.062029 
L 333.124138 303.062029 
z
" style="fill:#1f77b4;"/>
   </g>
   <g id="patch_14">
    <path clip-path="url(#pd0b7a7aee1)" d="M 356.213793 384.48 
L 367.758621 384.48 
L 367.758621 304.012598 
L 356.213793 304.012598 
z
" style="fill:#1f77b4;"/>
   </g>
   <g id="patch_15">
    <path clip-path="url(#pd0b7a7aee1)" d="M 379.303448 384.48 
L 390.848276 384.48 
L 390.848276 311.963788 
L 379.303448 311.963788 
z
" style="fill:#1f77b4;"/>
   </g>
   <g id="patch_16">
    <path clip-path="url(#pd0b7a7aee1)" d="M 402.393103 384.48 
L 413.937931 384.48 
L 413.937931 313.200802 
L 402.393103 313.200802 
z
" style="fill:#1f77b4;"/>
   </g>
   <g id="patch_17">
    <path clip-path="url(#pd0b7a7aee1)" d="M 425.482759 384.48 
L 437.027586 384.48 
L 437.027586 313.516111 
L 425.482759 313.516111 
z
" style="fill:#1f77b4;"/>
   </g>
   <g id="patch_18">
    <path clip-path="url(#pd0b7a7aee1)" d="M 448.572414 384.48 
L 460.117241 384.48 
L 460.117241 314.468214 
L 448.572414 314.468214 
z
" style="fill:#1f77b4;"/>
   </g>
   <g id="patch_19">
    <path clip-path="url(#pd0b7a7aee1)" d="M 471.662069 384.48 
L 483.206897 384.48 
L 483.206897 316.369612 
L 471.662069 316.369612 
z
" style="fill:#1f77b4;"/>
   </g>
   <g id="patch_20">
    <path clip-path="url(#pd0b7a7aee1)" d="M 494.751724 384.48 
L 506.296552 384.48 
L 506.296552 320.265779 
L 494.751724 320.265779 
z
" style="fill:#1f77b4;"/>
   </g>
   <g id="patch_21">
    <path clip-path="url(#pd0b7a7aee1)" d="M 517.841379 384.48 
L 529.386207 384.48 
L 529.386207 321.912492 
L 517.841379 321.912492 
z
" style="fill:#1f77b4;"/>
   </g>
   <g id="patch_22">
    <path clip-path="url(#pd0b7a7aee1)" d="M 540.931034 384.48 
L 552.475862 384.48 
L 552.475862 322.956657 
L 540.931034 322.956657 
z
" style="fill:#1f77b4;"/>
   </g>
   <g id="patch_23">
    <path clip-path="url(#pd0b7a7aee1)" d="M 564.02069 384.48 
L 575.565517 384.48 
L 575.565517 324.446868 
L 564.02069 324.446868 
z
" style="fill:#1f77b4;"/>
   </g>
   <g id="patch_24">
    <path clip-path="url(#pd0b7a7aee1)" d="M 587.110345 384.48 
L 598.655172 384.48 
L 598.655172 325.941943 
L 587.110345 325.941943 
z
" style="fill:#1f77b4;"/>
   </g>
   <g id="patch_25">
    <path clip-path="url(#pd0b7a7aee1)" d="M 610.2 384.48 
L 621.744828 384.48 
L 621.744828 331.891904 
L 610.2 331.891904 
z
" style="fill:#1f77b4;"/>
   </g>
   <g id="patch_26">
    <path clip-path="url(#pd0b7a7aee1)" d="M 633.289655 384.48 
L 644.834483 384.48 
L 644.834483 332.366632 
L 633.289655 332.366632 
z
" style="fill:#1f77b4;"/>
   </g>
   <g id="patch_27">
    <path clip-path="url(#pd0b7a7aee1)" d="M 656.37931 384.48 
L 667.924138 384.48 
L 667.924138 332.336336 
L 656.37931 332.336336 
z
" style="fill:#1f77b4;"/>
   </g>
   <g id="patch_28">
    <path clip-path="url(#pd0b7a7aee1)" d="M 679.468966 384.48 
L 691.013793 384.48 
L 691.013793 332.494535 
L 679.468966 332.494535 
z
" style="fill:#1f77b4;"/>
   </g>
   <g id="patch_29">
    <path clip-path="url(#pd0b7a7aee1)" d="M 702.558621 384.48 
L 714.103448 384.48 
L 714.103448 332.233998 
L 702.558621 332.233998 
z
" style="fill:#1f77b4;"/>
   </g>
   <g id="patch_30">
    <path clip-path="url(#pd0b7a7aee1)" d="M 725.648276 384.48 
L 737.193103 384.48 
L 737.193103 332.130624 
L 725.648276 332.130624 
z
" style="fill:#1f77b4;"/>
   </g>
   <g id="patch_31">
    <path clip-path="url(#pd0b7a7aee1)" d="M 748.737931 384.48 
L 760.282759 384.48 
L 760.282759 331.76561 
L 748.737931 331.76561 
z
" style="fill:#1f77b4;"/>
   </g>
   <g id="patch_32">
    <path clip-path="url(#pd0b7a7aee1)" d="M 771.827586 384.48 
L 783.372414 384.48 
L 783.372414 331.270238 
L 771.827586 331.270238 
z
" style="fill:#1f77b4;"/>
   </g>
   <g id="patch_33">
    <path clip-path="url(#pd0b7a7aee1)" d="M 102.227586 278.066485 
L 113.772414 278.066485 
L 113.772414 83.236822 
L 102.227586 83.236822 
z
" style="fill:#ff7f0e;"/>
   </g>
   <g id="patch_34">
    <path clip-path="url(#pd0b7a7aee1)" d="M 125.317241 293.62324 
L 136.862069 293.62324 
L 136.862069 84.980503 
L 125.317241 84.980503 
z
" style="fill:#ff7f0e;"/>
   </g>
   <g id="patch_35">
    <path clip-path="url(#pd0b7a7aee1)" d="M 148.406897 296.758305 
L 159.951724 296.758305 
L 159.951724 85.327378 
L 148.406897 85.327378 
z
" style="fill:#ff7f0e;"/>
   </g>
   <g id="patch_36">
    <path clip-path="url(#pd0b7a7aee1)" d="M 171.496552 296.694256 
L 183.041379 296.694256 
L 183.041379 86.656709 
L 171.496552 86.656709 
z
" style="fill:#ff7f0e;"/>
   </g>
   <g id="patch_37">
    <path clip-path="url(#pd0b7a7aee1)" d="M 194.586207 297.044485 
L 206.131034 297.044485 
L 206.131034 87.198167 
L 194.586207 87.198167 
z
" style="fill:#ff7f0e;"/>
   </g>
   <g id="patch_38">
    <path clip-path="url(#pd0b7a7aee1)" d="M 217.675862 298.47052 
L 229.22069 298.47052 
L 229.22069 87.166314 
L 217.675862 87.166314 
z
" style="fill:#ff7f0e;"/>
   </g>
   <g id="patch_39">
    <path clip-path="url(#pd0b7a7aee1)" d="M 240.765517 298.943417 
L 252.310345 298.943417 
L 252.310345 87.829825 
L 240.765517 87.829825 
z
" style="fill:#ff7f0e;"/>
   </g>
   <g id="patch_40">
    <path clip-path="url(#pd0b7a7aee1)" d="M 263.855172 300.212414 
L 275.4 300.212414 
L 275.4 87.325468 
L 263.855172 87.325468 
z
" style="fill:#ff7f0e;"/>
   </g>
   <g id="patch_41">
    <path clip-path="url(#pd0b7a7aee1)" d="M 286.944828 300.844735 
L 298.489655 300.844735 
L 298.489655 87.958029 
L 286.944828 87.958029 
z
" style="fill:#ff7f0e;"/>
   </g>
   <g id="patch_42">
    <path clip-path="url(#pd0b7a7aee1)" d="M 310.034483 302.240223 
L 321.57931 302.240223 
L 321.57931 88.400917 
L 310.034483 88.400917 
z
" style="fill:#ff7f0e;"/>
   </g>
   <g id="patch_43">
    <path clip-path="url(#pd0b7a7aee1)" d="M 333.124138 303.062029 
L 344.668966 303.062029 
L 344.668966 88.908185 
L 333.124138 88.908185 
z
" style="fill:#ff7f0e;"/>
   </g>
   <g id="patch_44">
    <path clip-path="url(#pd0b7a7aee1)" d="M 356.213793 304.012598 
L 367.758621 304.012598 
L 367.758621 89.541157 
L 356.213793 89.541157 
z
" style="fill:#ff7f0e;"/>
   </g>
   <g id="patch_45">
    <path clip-path="url(#pd0b7a7aee1)" d="M 379.303448 311.963788 
L 390.848276 311.963788 
L 390.848276 89.731043 
L 379.303448 89.731043 
z
" style="fill:#ff7f0e;"/>
   </g>
   <g id="patch_46">
    <path clip-path="url(#pd0b7a7aee1)" d="M 402.393103 313.200802 
L 413.937931 313.200802 
L 413.937931 90.17654 
L 402.393103 90.17654 
z
" style="fill:#ff7f0e;"/>
   </g>
   <g id="patch_47">
    <path clip-path="url(#pd0b7a7aee1)" d="M 425.482759 313.516111 
L 437.027586 313.516111 
L 437.027586 90.808765 
L 425.482759 90.808765 
z
" style="fill:#ff7f0e;"/>
   </g>
   <g id="patch_48">
    <path clip-path="url(#pd0b7a7aee1)" d="M 448.572414 314.468214 
L 460.117241 314.468214 
L 460.117241 91.442469 
L 448.572414 91.442469 
z
" style="fill:#ff7f0e;"/>
   </g>
   <g id="patch_49">
    <path clip-path="url(#pd0b7a7aee1)" d="M 471.662069 316.369612 
L 483.206897 316.369612 
L 483.206897 91.705496 
L 471.662069 91.705496 
z
" style="fill:#ff7f0e;"/>
   </g>
   <g id="patch_50">
    <path clip-path="url(#pd0b7a7aee1)" d="M 494.751724 320.265779 
L 506.296552 320.265779 
L 506.296552 92.044114 
L 494.751724 92.044114 
z
" style="fill:#ff7f0e;"/>
   </g>
   <g id="patch_51">
    <path clip-path="url(#pd0b7a7aee1)" d="M 517.841379 321.912492 
L 529.386207 321.912492 
L 529.386207 92.793126 
L 517.841379 92.793126 
z
" style="fill:#ff7f0e;"/>
   </g>
   <g id="patch_52">
    <path clip-path="url(#pd0b7a7aee1)" d="M 540.931034 322.956657 
L 552.475862 322.956657 
L 552.475862 93.183993 
L 540.931034 93.183993 
z
" style="fill:#ff7f0e;"/>
   </g>
   <g id="patch_53">
    <path clip-path="url(#pd0b7a7aee1)" d="M 564.02069 324.446868 
L 575.565517 324.446868 
L 575.565517 93.818116 
L 564.02069 93.818116 
z
" style="fill:#ff7f0e;"/>
   </g>
   <g id="patch_54">
    <path clip-path="url(#pd0b7a7aee1)" d="M 587.110345 325.941943 
L 598.655172 325.941943 
L 598.655172 94.524449 
L 587.110345 94.524449 
z
" style="fill:#ff7f0e;"/>
   </g>
   <g id="patch_55">
    <path clip-path="url(#pd0b7a7aee1)" d="M 610.2 331.891904 
L 621.744828 331.891904 
L 621.744828 95.782956 
L 610.2 95.782956 
z
" style="fill:#ff7f0e;"/>
   </g>
   <g id="patch_56">
    <path clip-path="url(#pd0b7a7aee1)" d="M 633.289655 332.366632 
L 644.834483 332.366632 
L 644.834483 96.575041 
L 633.289655 96.575041 
z
" style="fill:#ff7f0e;"/>
   </g>
   <g id="patch_57">
    <path clip-path="url(#pd0b7a7aee1)" d="M 656.37931 332.336336 
L 667.924138 332.336336 
L 667.924138 97.428979 
L 656.37931 97.428979 
z
" style="fill:#ff7f0e;"/>
   </g>
   <g id="patch_58">
    <path clip-path="url(#pd0b7a7aee1)" d="M 679.468966 332.494535 
L 691.013793 332.494535 
L 691.013793 98.323637 
L 679.468966 98.323637 
z
" style="fill:#ff7f0e;"/>
   </g>
   <g id="patch_59">
    <path clip-path="url(#pd0b7a7aee1)" d="M 702.558621 332.233998 
L 714.103448 332.233998 
L 714.103448 99.540336 
L 702.558621 99.540336 
z
" style="fill:#ff7f0e;"/>
   </g>
   <g id="patch_60">
    <path clip-path="url(#pd0b7a7aee1)" d="M 725.648276 332.130624 
L 737.193103 332.130624 
L 737.193103 100.836956 
L 725.648276 100.836956 
z
" style="fill:#ff7f0e;"/>
   </g>
   <g id="patch_61">
    <path clip-path="url(#pd0b7a7aee1)" d="M 748.737931 331.76561 
L 760.282759 331.76561 
L 760.282759 102.056605 
L 748.737931 102.056605 
z
" style="fill:#ff7f0e;"/>
   </g>
   <g id="patch_62">
    <path clip-path="url(#pd0b7a7aee1)" d="M 771.827586 331.270238 
L 783.372414 331.270238 
L 783.372414 103.76136 
L 771.827586 103.76136 
z
" style="fill:#ff7f0e;"/>
   </g>
   <g id="patch_63">
    <path clip-path="url(#pd0b7a7aee1)" d="M 102.227586 83.236822 
L 113.772414 83.236822 
L 113.772414 67.682735 
L 102.227586 67.682735 
z
" style="fill:#2ca02c;"/>
   </g>
   <g id="patch_64">
    <path clip-path="url(#pd0b7a7aee1)" d="M 125.317241 84.980503 
L 136.862069 84.980503 
L 136.862069 67.682735 
L 125.317241 67.682735 
z
" style="fill:#2ca02c;"/>
   </g>
   <g id="patch_65">
    <path clip-path="url(#pd0b7a7aee1)" d="M 148.406897 85.327378 
L 159.951724 85.327378 
L 159.951724 67.682735 
L 148.406897 67.682735 
z
" style="fill:#2ca02c;"/>
   </g>
   <g id="patch_66">
    <path clip-path="url(#pd0b7a7aee1)" d="M 171.496552 86.656709 
L 183.041379 86.656709 
L 183.041379 67.68 
L 171.496552 67.68 
z
" style="fill:#2ca02c;"/>
   </g>
   <g id="patch_67">
    <path clip-path="url(#pd0b7a7aee1)" d="M 194.586207 87.198167 
L 206.131034 87.198167 
L 206.131034 67.682735 
L 194.586207 67.682735 
z
" style="fill:#2ca02c;"/>
   </g>
   <g id="patch_68">
    <path clip-path="url(#pd0b7a7aee1)" d="M 217.675862 87.166314 
L 229.22069 87.166314 
L 229.22069 67.682735 
L 217.675862 67.682735 
z
" style="fill:#2ca02c;"/>
   </g>
   <g id="patch_69">
    <path clip-path="url(#pd0b7a7aee1)" d="M 240.765517 87.829825 
L 252.310345 87.829825 
L 252.310345 67.682735 
L 240.765517 67.682735 
z
" style="fill:#2ca02c;"/>
   </g>
   <g id="patch_70">
    <path clip-path="url(#pd0b7a7aee1)" d="M 263.855172 87.325468 
L 275.4 87.325468 
L 275.4 67.682735 
L 263.855172 67.682735 
z
" style="fill:#2ca02c;"/>
   </g>
   <g id="patch_71">
    <path clip-path="url(#pd0b7a7aee1)" d="M 286.944828 87.958029 
L 298.489655 87.958029 
L 298.489655 67.682735 
L 286.944828 67.682735 
z
" style="fill:#2ca02c;"/>
   </g>
   <g id="patch_72">
    <path clip-path="url(#pd0b7a7aee1)" d="M 310.034483 88.400917 
L 321.57931 88.400917 
L 321.57931 67.682735 
L 310.034483 67.682735 
z
" style="fill:#2ca02c;"/>
   </g>
   <g id="patch_73">
    <path clip-path="url(#pd0b7a7aee1)" d="M 333.124138 88.908185 
L 344.668966 88.908185 
L 344.668966 67.682735 
L 333.124138 67.682735 
z
" style="fill:#2ca02c;"/>
   </g>
   <g id="patch_74">
    <path clip-path="url(#pd0b7a7aee1)" d="M 356.213793 89.541157 
L 367.758621 89.541157 
L 367.758621 67.682735 
L 356.213793 67.682735 
z
" style="fill:#2ca02c;"/>
   </g>
   <g id="patch_75">
    <path clip-path="url(#pd0b7a7aee1)" d="M 379.303448 89.731043 
L 390.848276 89.731043 
L 390.848276 67.682735 
L 379.303448 67.682735 
z
" style="fill:#2ca02c;"/>
   </g>
   <g id="patch_76">
    <path clip-path="url(#pd0b7a7aee1)" d="M 402.393103 90.17654 
L 413.937931 90.17654 
L 413.937931 67.682735 
L 402.393103 67.682735 
z
" style="fill:#2ca02c;"/>
   </g>
   <g id="patch_77">
    <path clip-path="url(#pd0b7a7aee1)" d="M 425.482759 90.808765 
L 437.027586 90.808765 
L 437.027586 67.682735 
L 425.482759 67.682735 
z
" style="fill:#2ca02c;"/>
   </g>
   <g id="patch_78">
    <path clip-path="url(#pd0b7a7aee1)" d="M 448.572414 91.442469 
L 460.117241 91.442469 
L 460.117241 67.682735 
L 448.572414 67.682735 
z
" style="fill:#2ca02c;"/>
   </g>
   <g id="patch_79">
    <path clip-path="url(#pd0b7a7aee1)" d="M 471.662069 91.705496 
L 483.206897 91.705496 
L 483.206897 67.682735 
L 471.662069 67.682735 
z
" style="fill:#2ca02c;"/>
   </g>
   <g id="patch_80">
    <path clip-path="url(#pd0b7a7aee1)" d="M 494.751724 92.044114 
L 506.296552 92.044114 
L 506.296552 67.682735 
L 494.751724 67.682735 
z
" style="fill:#2ca02c;"/>
   </g>
   <g id="patch_81">
    <path clip-path="url(#pd0b7a7aee1)" d="M 517.841379 92.793126 
L 529.386207 92.793126 
L 529.386207 67.682735 
L 517.841379 67.682735 
z
" style="fill:#2ca02c;"/>
   </g>
   <g id="patch_82">
    <path clip-path="url(#pd0b7a7aee1)" d="M 540.931034 93.183993 
L 552.475862 93.183993 
L 552.475862 67.682735 
L 540.931034 67.682735 
z
" style="fill:#2ca02c;"/>
   </g>
   <g id="patch_83">
    <path clip-path="url(#pd0b7a7aee1)" d="M 564.02069 93.818116 
L 575.565517 93.818116 
L 575.565517 67.682735 
L 564.02069 67.682735 
z
" style="fill:#2ca02c;"/>
   </g>
   <g id="patch_84">
    <path clip-path="url(#pd0b7a7aee1)" d="M 587.110345 94.524449 
L 598.655172 94.524449 
L 598.655172 67.682735 
L 587.110345 67.682735 
z
" style="fill:#2ca02c;"/>
   </g>
   <g id="patch_85">
    <path clip-path="url(#pd0b7a7aee1)" d="M 610.2 95.782956 
L 621.744828 95.782956 
L 621.744828 67.682735 
L 610.2 67.682735 
z
" style="fill:#2ca02c;"/>
   </g>
   <g id="patch_86">
    <path clip-path="url(#pd0b7a7aee1)" d="M 633.289655 96.575041 
L 644.834483 96.575041 
L 644.834483 67.682735 
L 633.289655 67.682735 
z
" style="fill:#2ca02c;"/>
   </g>
   <g id="patch_87">
    <path clip-path="url(#pd0b7a7aee1)" d="M 656.37931 97.428979 
L 667.924138 97.428979 
L 667.924138 67.682735 
L 656.37931 67.682735 
z
" style="fill:#2ca02c;"/>
   </g>
   <g id="patch_88">
    <path clip-path="url(#pd0b7a7aee1)" d="M 679.468966 98.323637 
L 691.013793 98.323637 
L 691.013793 67.682735 
L 679.468966 67.682735 
z
" style="fill:#2ca02c;"/>
   </g>
   <g id="patch_89">
    <path clip-path="url(#pd0b7a7aee1)" d="M 702.558621 99.540336 
L 714.103448 99.540336 
L 714.103448 67.682735 
L 702.558621 67.682735 
z
" style="fill:#2ca02c;"/>
   </g>
   <g id="patch_90">
    <path clip-path="url(#pd0b7a7aee1)" d="M 725.648276 100.836956 
L 737.193103 100.836956 
L 737.193103 67.682735 
L 725.648276 67.682735 
z
" style="fill:#2ca02c;"/>
   </g>
   <g id="patch_91">
    <path clip-path="url(#pd0b7a7aee1)" d="M 748.737931 102.056605 
L 760.282759 102.056605 
L 760.282759 67.682735 
L 748.737931 67.682735 
z
" style="fill:#2ca02c;"/>
   </g>
   <g id="patch_92">
    <path clip-path="url(#pd0b7a7aee1)" d="M 771.827586 103.76136 
L 783.372414 103.76136 
L 783.372414 67.682735 
L 771.827586 67.682735 
z
" style="fill:#2ca02c;"/>
   </g>
   <g id="matplotlib.axis_1">
    <g id="xtick_1">
     <g id="line2d_1">
      <path clip-path="url(#pd0b7a7aee1)" d="M 108 384.48 
L 108 51.84 
" style="fill:none;stroke:#b0b0b0;stroke-linecap:square;stroke-width:0.8;"/>
     </g>
     <g id="line2d_2">
      <defs>
       <path d="M 0 0 
L 0 3.5 
" id="m2942e70cf3" style="stroke:#000000;stroke-width:0.8;"/>
      </defs>
      <g>
       <use style="stroke:#000000;stroke-width:0.8;" x="108" xlink:href="#m2942e70cf3" y="384.48"/>
      </g>
     </g>
     <g id="text_1">
      <!-- 1982年 -->
      <defs>
       <path d="M 52.59375 0 
L 9.234375 0 
L 9.234375 8.25 
L 26.171875 8.25 
L 26.171875 65.671875 
L 8.796875 60.640625 
L 8.796875 69.4375 
L 35.6875 77.25 
L 35.6875 8.25 
L 52.59375 8.25 
z
" id="MicrosoftYaHei-31"/>
       <path d="M 9.03125 10.25 
Q 15.28125 6.640625 22.515625 6.640625 
Q 32.671875 6.640625 38.25 14.640625 
Q 43.84375 22.65625 43.84375 37.40625 
Q 43.75 37.3125 43.65625 37.40625 
Q 38.671875 27.9375 26.90625 27.9375 
Q 17.390625 27.9375 11.140625 34.46875 
Q 4.890625 41.015625 4.890625 51.46875 
Q 4.890625 62.59375 11.71875 69.75 
Q 18.5625 76.90625 29.4375 76.90625 
Q 40.71875 76.90625 47.0625 68.046875 
Q 53.421875 59.1875 53.421875 42.234375 
Q 53.421875 21.296875 45.21875 10.015625 
Q 37.015625 -1.265625 22.515625 -1.265625 
Q 14.546875 -1.265625 9.03125 1.3125 
z
M 14.546875 52.6875 
Q 14.546875 45.0625 18.453125 40.59375 
Q 22.359375 36.140625 29.25 36.140625 
Q 35.203125 36.140625 39.25 40.203125 
Q 43.3125 44.28125 43.3125 50.09375 
Q 43.3125 58.25 39.28125 63.59375 
Q 35.25 68.953125 28.65625 68.953125 
Q 22.5625 68.953125 18.546875 64.3125 
Q 14.546875 59.671875 14.546875 52.6875 
z
" id="MicrosoftYaHei-39"/>
       <path d="M 21.390625 39.796875 
Q 7.859375 46.09375 7.859375 58.0625 
Q 7.859375 66.40625 14.203125 71.65625 
Q 20.5625 76.90625 30.421875 76.90625 
Q 39.453125 76.90625 45.3125 71.96875 
Q 51.171875 67.046875 51.171875 59.234375 
Q 51.171875 46.625 37.0625 39.84375 
L 37.0625 39.65625 
Q 53.609375 33.6875 53.609375 19.34375 
Q 53.609375 9.90625 46.796875 4.3125 
Q 39.984375 -1.265625 27.78125 -1.265625 
Q 17.78125 -1.265625 11.46875 4.25 
Q 5.171875 9.765625 5.171875 18.5625 
Q 5.171875 33.015625 21.390625 39.59375 
z
M 41.5 58.109375 
Q 41.5 63.1875 38.328125 66.109375 
Q 35.15625 69.046875 29.734375 69.046875 
Q 24.65625 69.046875 21.09375 65.984375 
Q 17.53125 62.9375 17.53125 58.203125 
Q 17.53125 48.734375 29.390625 43.796875 
Q 41.5 48.828125 41.5 58.109375 
z
M 28.8125 35.25 
Q 14.796875 29.59375 14.796875 19.046875 
Q 14.796875 13.578125 18.890625 10.0625 
Q 23 6.546875 29.59375 6.546875 
Q 35.984375 6.546875 39.984375 10.03125 
Q 44 13.53125 44 18.75 
Q 44 29.734375 28.8125 35.25 
z
" id="MicrosoftYaHei-38"/>
       <path d="M 51.171875 0 
L 5.171875 0 
L 5.171875 8.296875 
L 27.15625 30.21875 
Q 36.234375 39.3125 39.3125 44.609375 
Q 42.390625 49.90625 42.390625 55.5625 
Q 42.390625 62.015625 38.765625 65.453125 
Q 35.15625 68.890625 28.328125 68.890625 
Q 18.21875 68.890625 9.03125 60.296875 
L 9.03125 70.015625 
Q 17.96875 76.90625 29.828125 76.90625 
Q 40.046875 76.90625 45.953125 71.390625 
Q 51.859375 65.875 51.859375 56.546875 
Q 51.859375 49.515625 48.0625 42.75 
Q 44.28125 35.984375 33.734375 25.53125 
L 16.5 8.6875 
L 16.5 8.5 
L 51.171875 8.5 
z
" id="MicrosoftYaHei-32"/>
       <path d="M 1.859375 19.96875 
L 17.578125 19.96875 
L 17.578125 47.90625 
L 52.15625 47.90625 
L 52.15625 65.28125 
L 23.4375 65.28125 
Q 16.84375 53.421875 8.6875 43.40625 
Q 6.15625 46.140625 2.640625 48.875 
Q 16.5 64.5 23.4375 83.9375 
L 31.453125 81.6875 
Q 29.390625 76.859375 27.15625 72.3125 
L 94.34375 72.3125 
L 94.34375 65.28125 
L 60.0625 65.28125 
L 60.0625 47.90625 
L 92.671875 47.90625 
L 92.671875 41.0625 
L 60.0625 41.0625 
L 60.0625 19.96875 
L 98.734375 19.96875 
L 98.734375 12.9375 
L 60.0625 12.9375 
L 60.0625 -13.421875 
L 52.15625 -13.421875 
L 52.15625 12.9375 
L 1.859375 12.9375 
z
M 25.296875 19.96875 
L 52.15625 19.96875 
L 52.15625 41.0625 
L 25.296875 41.0625 
z
" id="MicrosoftYaHei-5e74"/>
      </defs>
      <g transform="translate(110.753906 424.93625)rotate(-90)scale(0.1 -0.1)">
       <use xlink:href="#MicrosoftYaHei-31"/>
       <use x="58.642578" xlink:href="#MicrosoftYaHei-39"/>
       <use x="117.285156" xlink:href="#MicrosoftYaHei-38"/>
       <use x="175.927734" xlink:href="#MicrosoftYaHei-32"/>
       <use x="234.570312" xlink:href="#MicrosoftYaHei-5e74"/>
      </g>
     </g>
    </g>
    <g id="xtick_2">
     <g id="line2d_3">
      <path clip-path="url(#pd0b7a7aee1)" d="M 131.089655 384.48 
L 131.089655 51.84 
" style="fill:none;stroke:#b0b0b0;stroke-linecap:square;stroke-width:0.8;"/>
     </g>
     <g id="line2d_4">
      <g>
       <use style="stroke:#000000;stroke-width:0.8;" x="131.089655" xlink:href="#m2942e70cf3" y="384.48"/>
      </g>
     </g>
     <g id="text_2">
      <!-- 1987年 -->
      <defs>
       <path d="M 53.765625 72.3125 
L 24.171875 0 
L 14.265625 0 
L 42.390625 67.1875 
L 4.59375 67.1875 
L 4.59375 75.640625 
L 53.765625 75.640625 
z
" id="MicrosoftYaHei-37"/>
      </defs>
      <g transform="translate(133.843561 424.93625)rotate(-90)scale(0.1 -0.1)">
       <use xlink:href="#MicrosoftYaHei-31"/>
       <use x="58.642578" xlink:href="#MicrosoftYaHei-39"/>
       <use x="117.285156" xlink:href="#MicrosoftYaHei-38"/>
       <use x="175.927734" xlink:href="#MicrosoftYaHei-37"/>
       <use x="234.570312" xlink:href="#MicrosoftYaHei-5e74"/>
      </g>
     </g>
    </g>
    <g id="xtick_3">
     <g id="line2d_5">
      <path clip-path="url(#pd0b7a7aee1)" d="M 154.17931 384.48 
L 154.17931 51.84 
" style="fill:none;stroke:#b0b0b0;stroke-linecap:square;stroke-width:0.8;"/>
     </g>
     <g id="line2d_6">
      <g>
       <use style="stroke:#000000;stroke-width:0.8;" x="154.17931" xlink:href="#m2942e70cf3" y="384.48"/>
      </g>
     </g>
     <g id="text_3">
      <!-- 1990年 -->
      <defs>
       <path d="M 4.4375 36.328125 
Q 4.4375 56.34375 11.078125 66.625 
Q 17.71875 76.90625 30.328125 76.90625 
Q 54.34375 76.90625 54.34375 38.140625 
Q 54.34375 19 47.578125 8.859375 
Q 40.828125 -1.265625 28.609375 -1.265625 
Q 17.09375 -1.265625 10.765625 8.34375 
Q 4.4375 17.96875 4.4375 36.328125 
z
M 14.203125 36.765625 
Q 14.203125 6.640625 29.5 6.640625 
Q 44.53125 6.640625 44.53125 37.25 
Q 44.53125 68.953125 29.78125 68.953125 
Q 14.203125 68.953125 14.203125 36.765625 
z
" id="MicrosoftYaHei-30"/>
      </defs>
      <g transform="translate(156.933217 424.93625)rotate(-90)scale(0.1 -0.1)">
       <use xlink:href="#MicrosoftYaHei-31"/>
       <use x="58.642578" xlink:href="#MicrosoftYaHei-39"/>
       <use x="117.285156" xlink:href="#MicrosoftYaHei-39"/>
       <use x="175.927734" xlink:href="#MicrosoftYaHei-30"/>
       <use x="234.570312" xlink:href="#MicrosoftYaHei-5e74"/>
      </g>
     </g>
    </g>
    <g id="xtick_4">
     <g id="line2d_7">
      <path clip-path="url(#pd0b7a7aee1)" d="M 177.268966 384.48 
L 177.268966 51.84 
" style="fill:none;stroke:#b0b0b0;stroke-linecap:square;stroke-width:0.8;"/>
     </g>
     <g id="line2d_8">
      <g>
       <use style="stroke:#000000;stroke-width:0.8;" x="177.268966" xlink:href="#m2942e70cf3" y="384.48"/>
      </g>
     </g>
     <g id="text_4">
      <!-- 1991年 -->
      <g transform="translate(180.022872 424.93625)rotate(-90)scale(0.1 -0.1)">
       <use xlink:href="#MicrosoftYaHei-31"/>
       <use x="58.642578" xlink:href="#MicrosoftYaHei-39"/>
       <use x="117.285156" xlink:href="#MicrosoftYaHei-39"/>
       <use x="175.927734" xlink:href="#MicrosoftYaHei-31"/>
       <use x="234.570312" xlink:href="#MicrosoftYaHei-5e74"/>
      </g>
     </g>
    </g>
    <g id="xtick_5">
     <g id="line2d_9">
      <path clip-path="url(#pd0b7a7aee1)" d="M 200.358621 384.48 
L 200.358621 51.84 
" style="fill:none;stroke:#b0b0b0;stroke-linecap:square;stroke-width:0.8;"/>
     </g>
     <g id="line2d_10">
      <g>
       <use style="stroke:#000000;stroke-width:0.8;" x="200.358621" xlink:href="#m2942e70cf3" y="384.48"/>
      </g>
     </g>
     <g id="text_5">
      <!-- 1992年 -->
      <g transform="translate(203.112527 424.93625)rotate(-90)scale(0.1 -0.1)">
       <use xlink:href="#MicrosoftYaHei-31"/>
       <use x="58.642578" xlink:href="#MicrosoftYaHei-39"/>
       <use x="117.285156" xlink:href="#MicrosoftYaHei-39"/>
       <use x="175.927734" xlink:href="#MicrosoftYaHei-32"/>
       <use x="234.570312" xlink:href="#MicrosoftYaHei-5e74"/>
      </g>
     </g>
    </g>
    <g id="xtick_6">
     <g id="line2d_11">
      <path clip-path="url(#pd0b7a7aee1)" d="M 223.448276 384.48 
L 223.448276 51.84 
" style="fill:none;stroke:#b0b0b0;stroke-linecap:square;stroke-width:0.8;"/>
     </g>
     <g id="line2d_12">
      <g>
       <use style="stroke:#000000;stroke-width:0.8;" x="223.448276" xlink:href="#m2942e70cf3" y="384.48"/>
      </g>
     </g>
     <g id="text_6">
      <!-- 1993年 -->
      <defs>
       <path d="M 6.984375 12.640625 
Q 14.75 6.640625 24.515625 6.640625 
Q 32.328125 6.640625 36.890625 10.46875 
Q 41.453125 14.3125 41.453125 20.75 
Q 41.453125 35.109375 20.90625 35.109375 
L 14.59375 35.109375 
L 14.59375 43.015625 
L 20.609375 43.015625 
Q 38.8125 43.015625 38.8125 56.5 
Q 38.8125 68.953125 24.90625 68.953125 
Q 16.9375 68.953125 9.90625 63.578125 
L 9.90625 72.609375 
Q 17.328125 76.90625 27.25 76.90625 
Q 36.921875 76.90625 42.78125 71.84375 
Q 48.640625 66.796875 48.640625 58.734375 
Q 48.640625 43.890625 33.5 39.65625 
L 33.5 39.453125 
Q 41.703125 38.578125 46.453125 33.671875 
Q 51.21875 28.765625 51.21875 21.4375 
Q 51.21875 11.234375 43.875 4.984375 
Q 36.53125 -1.265625 24.3125 -1.265625 
Q 13.578125 -1.265625 6.984375 2.734375 
z
" id="MicrosoftYaHei-33"/>
      </defs>
      <g transform="translate(226.202182 424.93625)rotate(-90)scale(0.1 -0.1)">
       <use xlink:href="#MicrosoftYaHei-31"/>
       <use x="58.642578" xlink:href="#MicrosoftYaHei-39"/>
       <use x="117.285156" xlink:href="#MicrosoftYaHei-39"/>
       <use x="175.927734" xlink:href="#MicrosoftYaHei-33"/>
       <use x="234.570312" xlink:href="#MicrosoftYaHei-5e74"/>
      </g>
     </g>
    </g>
    <g id="xtick_7">
     <g id="line2d_13">
      <path clip-path="url(#pd0b7a7aee1)" d="M 246.537931 384.48 
L 246.537931 51.84 
" style="fill:none;stroke:#b0b0b0;stroke-linecap:square;stroke-width:0.8;"/>
     </g>
     <g id="line2d_14">
      <g>
       <use style="stroke:#000000;stroke-width:0.8;" x="246.537931" xlink:href="#m2942e70cf3" y="384.48"/>
      </g>
     </g>
     <g id="text_7">
      <!-- 1994年 -->
      <defs>
       <path d="M 55.078125 19.625 
L 45.40625 19.625 
L 45.40625 0 
L 36.140625 0 
L 36.140625 19.625 
L 0.875 19.625 
L 0.875 25.828125 
L 34.328125 75.640625 
L 45.40625 75.640625 
L 45.40625 27.203125 
L 55.078125 27.203125 
z
M 36.140625 27.203125 
L 36.140625 58.890625 
Q 36.140625 62.25 36.328125 66.65625 
L 36.140625 66.65625 
Q 35.453125 64.796875 33.25 60.84375 
L 10.75 27.203125 
z
" id="MicrosoftYaHei-34"/>
      </defs>
      <g transform="translate(249.291837 424.93625)rotate(-90)scale(0.1 -0.1)">
       <use xlink:href="#MicrosoftYaHei-31"/>
       <use x="58.642578" xlink:href="#MicrosoftYaHei-39"/>
       <use x="117.285156" xlink:href="#MicrosoftYaHei-39"/>
       <use x="175.927734" xlink:href="#MicrosoftYaHei-34"/>
       <use x="234.570312" xlink:href="#MicrosoftYaHei-5e74"/>
      </g>
     </g>
    </g>
    <g id="xtick_8">
     <g id="line2d_15">
      <path clip-path="url(#pd0b7a7aee1)" d="M 269.627586 384.48 
L 269.627586 51.84 
" style="fill:none;stroke:#b0b0b0;stroke-linecap:square;stroke-width:0.8;"/>
     </g>
     <g id="line2d_16">
      <g>
       <use style="stroke:#000000;stroke-width:0.8;" x="269.627586" xlink:href="#m2942e70cf3" y="384.48"/>
      </g>
     </g>
     <g id="text_8">
      <!-- 1995年 -->
      <defs>
       <path d="M 8.640625 11.625 
Q 16.265625 6.640625 24.515625 6.640625 
Q 32.328125 6.640625 37.109375 11 
Q 41.890625 15.375 41.890625 22.609375 
Q 41.890625 29.890625 37.03125 33.890625 
Q 32.171875 37.890625 22.953125 37.890625 
Q 18.5 37.890625 10.984375 37.203125 
L 10.984375 75.640625 
L 48.1875 75.640625 
L 48.1875 67.1875 
L 19.875 67.1875 
L 19.875 45.796875 
Q 24.125 46.046875 26.265625 46.046875 
Q 38.234375 46.046875 44.921875 39.984375 
Q 51.609375 33.9375 51.609375 23.296875 
Q 51.609375 12.3125 44.421875 5.515625 
Q 37.25 -1.265625 24.609375 -1.265625 
Q 14.015625 -1.265625 8.640625 1.859375 
z
" id="MicrosoftYaHei-35"/>
      </defs>
      <g transform="translate(272.381492 424.93625)rotate(-90)scale(0.1 -0.1)">
       <use xlink:href="#MicrosoftYaHei-31"/>
       <use x="58.642578" xlink:href="#MicrosoftYaHei-39"/>
       <use x="117.285156" xlink:href="#MicrosoftYaHei-39"/>
       <use x="175.927734" xlink:href="#MicrosoftYaHei-35"/>
       <use x="234.570312" xlink:href="#MicrosoftYaHei-5e74"/>
      </g>
     </g>
    </g>
    <g id="xtick_9">
     <g id="line2d_17">
      <path clip-path="url(#pd0b7a7aee1)" d="M 292.717241 384.48 
L 292.717241 51.84 
" style="fill:none;stroke:#b0b0b0;stroke-linecap:square;stroke-width:0.8;"/>
     </g>
     <g id="line2d_18">
      <g>
       <use style="stroke:#000000;stroke-width:0.8;" x="292.717241" xlink:href="#m2942e70cf3" y="384.48"/>
      </g>
     </g>
     <g id="text_9">
      <!-- 1996年 -->
      <defs>
       <path d="M 49.703125 65.921875 
Q 43.796875 68.953125 37.359375 68.953125 
Q 27.546875 68.953125 21.578125 60.40625 
Q 15.625 51.859375 15.53125 37.0625 
L 15.765625 37.0625 
Q 21.140625 47.46875 32.90625 47.46875 
Q 42.71875 47.46875 48.578125 41.0625 
Q 54.4375 34.671875 54.4375 24.078125 
Q 54.4375 12.984375 47.671875 5.859375 
Q 40.921875 -1.265625 30.421875 -1.265625 
Q 18.890625 -1.265625 12.328125 7.734375 
Q 5.765625 16.75 5.765625 33.296875 
Q 5.765625 53.328125 14.375 65.109375 
Q 23 76.90625 37.0625 76.90625 
Q 45.125 76.90625 49.703125 74.703125 
z
M 16.109375 24.75 
Q 16.109375 17.28125 20.09375 11.953125 
Q 24.078125 6.640625 30.671875 6.640625 
Q 36.921875 6.640625 40.828125 11.234375 
Q 44.734375 15.828125 44.734375 23.046875 
Q 44.734375 30.859375 41.046875 35.203125 
Q 37.359375 39.546875 30.5625 39.546875 
Q 24.125 39.546875 20.109375 35.15625 
Q 16.109375 30.765625 16.109375 24.75 
z
" id="MicrosoftYaHei-36"/>
      </defs>
      <g transform="translate(295.471148 424.93625)rotate(-90)scale(0.1 -0.1)">
       <use xlink:href="#MicrosoftYaHei-31"/>
       <use x="58.642578" xlink:href="#MicrosoftYaHei-39"/>
       <use x="117.285156" xlink:href="#MicrosoftYaHei-39"/>
       <use x="175.927734" xlink:href="#MicrosoftYaHei-36"/>
       <use x="234.570312" xlink:href="#MicrosoftYaHei-5e74"/>
      </g>
     </g>
    </g>
    <g id="xtick_10">
     <g id="line2d_19">
      <path clip-path="url(#pd0b7a7aee1)" d="M 315.806897 384.48 
L 315.806897 51.84 
" style="fill:none;stroke:#b0b0b0;stroke-linecap:square;stroke-width:0.8;"/>
     </g>
     <g id="line2d_20">
      <g>
       <use style="stroke:#000000;stroke-width:0.8;" x="315.806897" xlink:href="#m2942e70cf3" y="384.48"/>
      </g>
     </g>
     <g id="text_10">
      <!-- 1997年 -->
      <g transform="translate(318.560803 424.93625)rotate(-90)scale(0.1 -0.1)">
       <use xlink:href="#MicrosoftYaHei-31"/>
       <use x="58.642578" xlink:href="#MicrosoftYaHei-39"/>
       <use x="117.285156" xlink:href="#MicrosoftYaHei-39"/>
       <use x="175.927734" xlink:href="#MicrosoftYaHei-37"/>
       <use x="234.570312" xlink:href="#MicrosoftYaHei-5e74"/>
      </g>
     </g>
    </g>
    <g id="xtick_11">
     <g id="line2d_21">
      <path clip-path="url(#pd0b7a7aee1)" d="M 338.896552 384.48 
L 338.896552 51.84 
" style="fill:none;stroke:#b0b0b0;stroke-linecap:square;stroke-width:0.8;"/>
     </g>
     <g id="line2d_22">
      <g>
       <use style="stroke:#000000;stroke-width:0.8;" x="338.896552" xlink:href="#m2942e70cf3" y="384.48"/>
      </g>
     </g>
     <g id="text_11">
      <!-- 1998年 -->
      <g transform="translate(341.650458 424.93625)rotate(-90)scale(0.1 -0.1)">
       <use xlink:href="#MicrosoftYaHei-31"/>
       <use x="58.642578" xlink:href="#MicrosoftYaHei-39"/>
       <use x="117.285156" xlink:href="#MicrosoftYaHei-39"/>
       <use x="175.927734" xlink:href="#MicrosoftYaHei-38"/>
       <use x="234.570312" xlink:href="#MicrosoftYaHei-5e74"/>
      </g>
     </g>
    </g>
    <g id="xtick_12">
     <g id="line2d_23">
      <path clip-path="url(#pd0b7a7aee1)" d="M 361.986207 384.48 
L 361.986207 51.84 
" style="fill:none;stroke:#b0b0b0;stroke-linecap:square;stroke-width:0.8;"/>
     </g>
     <g id="line2d_24">
      <g>
       <use style="stroke:#000000;stroke-width:0.8;" x="361.986207" xlink:href="#m2942e70cf3" y="384.48"/>
      </g>
     </g>
     <g id="text_12">
      <!-- 1999年 -->
      <g transform="translate(364.740113 424.93625)rotate(-90)scale(0.1 -0.1)">
       <use xlink:href="#MicrosoftYaHei-31"/>
       <use x="58.642578" xlink:href="#MicrosoftYaHei-39"/>
       <use x="117.285156" xlink:href="#MicrosoftYaHei-39"/>
       <use x="175.927734" xlink:href="#MicrosoftYaHei-39"/>
       <use x="234.570312" xlink:href="#MicrosoftYaHei-5e74"/>
      </g>
     </g>
    </g>
    <g id="xtick_13">
     <g id="line2d_25">
      <path clip-path="url(#pd0b7a7aee1)" d="M 385.075862 384.48 
L 385.075862 51.84 
" style="fill:none;stroke:#b0b0b0;stroke-linecap:square;stroke-width:0.8;"/>
     </g>
     <g id="line2d_26">
      <g>
       <use style="stroke:#000000;stroke-width:0.8;" x="385.075862" xlink:href="#m2942e70cf3" y="384.48"/>
      </g>
     </g>
     <g id="text_13">
      <!-- 2000年 -->
      <g transform="translate(387.829768 424.93625)rotate(-90)scale(0.1 -0.1)">
       <use xlink:href="#MicrosoftYaHei-32"/>
       <use x="58.642578" xlink:href="#MicrosoftYaHei-30"/>
       <use x="117.285156" xlink:href="#MicrosoftYaHei-30"/>
       <use x="175.927734" xlink:href="#MicrosoftYaHei-30"/>
       <use x="234.570312" xlink:href="#MicrosoftYaHei-5e74"/>
      </g>
     </g>
    </g>
    <g id="xtick_14">
     <g id="line2d_27">
      <path clip-path="url(#pd0b7a7aee1)" d="M 408.165517 384.48 
L 408.165517 51.84 
" style="fill:none;stroke:#b0b0b0;stroke-linecap:square;stroke-width:0.8;"/>
     </g>
     <g id="line2d_28">
      <g>
       <use style="stroke:#000000;stroke-width:0.8;" x="408.165517" xlink:href="#m2942e70cf3" y="384.48"/>
      </g>
     </g>
     <g id="text_14">
      <!-- 2001年 -->
      <g transform="translate(410.919423 424.93625)rotate(-90)scale(0.1 -0.1)">
       <use xlink:href="#MicrosoftYaHei-32"/>
       <use x="58.642578" xlink:href="#MicrosoftYaHei-30"/>
       <use x="117.285156" xlink:href="#MicrosoftYaHei-30"/>
       <use x="175.927734" xlink:href="#MicrosoftYaHei-31"/>
       <use x="234.570312" xlink:href="#MicrosoftYaHei-5e74"/>
      </g>
     </g>
    </g>
    <g id="xtick_15">
     <g id="line2d_29">
      <path clip-path="url(#pd0b7a7aee1)" d="M 431.255172 384.48 
L 431.255172 51.84 
" style="fill:none;stroke:#b0b0b0;stroke-linecap:square;stroke-width:0.8;"/>
     </g>
     <g id="line2d_30">
      <g>
       <use style="stroke:#000000;stroke-width:0.8;" x="431.255172" xlink:href="#m2942e70cf3" y="384.48"/>
      </g>
     </g>
     <g id="text_15">
      <!-- 2002年 -->
      <g transform="translate(434.009079 424.93625)rotate(-90)scale(0.1 -0.1)">
       <use xlink:href="#MicrosoftYaHei-32"/>
       <use x="58.642578" xlink:href="#MicrosoftYaHei-30"/>
       <use x="117.285156" xlink:href="#MicrosoftYaHei-30"/>
       <use x="175.927734" xlink:href="#MicrosoftYaHei-32"/>
       <use x="234.570312" xlink:href="#MicrosoftYaHei-5e74"/>
      </g>
     </g>
    </g>
    <g id="xtick_16">
     <g id="line2d_31">
      <path clip-path="url(#pd0b7a7aee1)" d="M 454.344828 384.48 
L 454.344828 51.84 
" style="fill:none;stroke:#b0b0b0;stroke-linecap:square;stroke-width:0.8;"/>
     </g>
     <g id="line2d_32">
      <g>
       <use style="stroke:#000000;stroke-width:0.8;" x="454.344828" xlink:href="#m2942e70cf3" y="384.48"/>
      </g>
     </g>
     <g id="text_16">
      <!-- 2003年 -->
      <g transform="translate(457.098734 424.93625)rotate(-90)scale(0.1 -0.1)">
       <use xlink:href="#MicrosoftYaHei-32"/>
       <use x="58.642578" xlink:href="#MicrosoftYaHei-30"/>
       <use x="117.285156" xlink:href="#MicrosoftYaHei-30"/>
       <use x="175.927734" xlink:href="#MicrosoftYaHei-33"/>
       <use x="234.570312" xlink:href="#MicrosoftYaHei-5e74"/>
      </g>
     </g>
    </g>
    <g id="xtick_17">
     <g id="line2d_33">
      <path clip-path="url(#pd0b7a7aee1)" d="M 477.434483 384.48 
L 477.434483 51.84 
" style="fill:none;stroke:#b0b0b0;stroke-linecap:square;stroke-width:0.8;"/>
     </g>
     <g id="line2d_34">
      <g>
       <use style="stroke:#000000;stroke-width:0.8;" x="477.434483" xlink:href="#m2942e70cf3" y="384.48"/>
      </g>
     </g>
     <g id="text_17">
      <!-- 2004年 -->
      <g transform="translate(480.188389 424.93625)rotate(-90)scale(0.1 -0.1)">
       <use xlink:href="#MicrosoftYaHei-32"/>
       <use x="58.642578" xlink:href="#MicrosoftYaHei-30"/>
       <use x="117.285156" xlink:href="#MicrosoftYaHei-30"/>
       <use x="175.927734" xlink:href="#MicrosoftYaHei-34"/>
       <use x="234.570312" xlink:href="#MicrosoftYaHei-5e74"/>
      </g>
     </g>
    </g>
    <g id="xtick_18">
     <g id="line2d_35">
      <path clip-path="url(#pd0b7a7aee1)" d="M 500.524138 384.48 
L 500.524138 51.84 
" style="fill:none;stroke:#b0b0b0;stroke-linecap:square;stroke-width:0.8;"/>
     </g>
     <g id="line2d_36">
      <g>
       <use style="stroke:#000000;stroke-width:0.8;" x="500.524138" xlink:href="#m2942e70cf3" y="384.48"/>
      </g>
     </g>
     <g id="text_18">
      <!-- 2005年 -->
      <g transform="translate(503.278044 424.93625)rotate(-90)scale(0.1 -0.1)">
       <use xlink:href="#MicrosoftYaHei-32"/>
       <use x="58.642578" xlink:href="#MicrosoftYaHei-30"/>
       <use x="117.285156" xlink:href="#MicrosoftYaHei-30"/>
       <use x="175.927734" xlink:href="#MicrosoftYaHei-35"/>
       <use x="234.570312" xlink:href="#MicrosoftYaHei-5e74"/>
      </g>
     </g>
    </g>
    <g id="xtick_19">
     <g id="line2d_37">
      <path clip-path="url(#pd0b7a7aee1)" d="M 523.613793 384.48 
L 523.613793 51.84 
" style="fill:none;stroke:#b0b0b0;stroke-linecap:square;stroke-width:0.8;"/>
     </g>
     <g id="line2d_38">
      <g>
       <use style="stroke:#000000;stroke-width:0.8;" x="523.613793" xlink:href="#m2942e70cf3" y="384.48"/>
      </g>
     </g>
     <g id="text_19">
      <!-- 2006年 -->
      <g transform="translate(526.367699 424.93625)rotate(-90)scale(0.1 -0.1)">
       <use xlink:href="#MicrosoftYaHei-32"/>
       <use x="58.642578" xlink:href="#MicrosoftYaHei-30"/>
       <use x="117.285156" xlink:href="#MicrosoftYaHei-30"/>
       <use x="175.927734" xlink:href="#MicrosoftYaHei-36"/>
       <use x="234.570312" xlink:href="#MicrosoftYaHei-5e74"/>
      </g>
     </g>
    </g>
    <g id="xtick_20">
     <g id="line2d_39">
      <path clip-path="url(#pd0b7a7aee1)" d="M 546.703448 384.48 
L 546.703448 51.84 
" style="fill:none;stroke:#b0b0b0;stroke-linecap:square;stroke-width:0.8;"/>
     </g>
     <g id="line2d_40">
      <g>
       <use style="stroke:#000000;stroke-width:0.8;" x="546.703448" xlink:href="#m2942e70cf3" y="384.48"/>
      </g>
     </g>
     <g id="text_20">
      <!-- 2007年 -->
      <g transform="translate(549.457355 424.93625)rotate(-90)scale(0.1 -0.1)">
       <use xlink:href="#MicrosoftYaHei-32"/>
       <use x="58.642578" xlink:href="#MicrosoftYaHei-30"/>
       <use x="117.285156" xlink:href="#MicrosoftYaHei-30"/>
       <use x="175.927734" xlink:href="#MicrosoftYaHei-37"/>
       <use x="234.570312" xlink:href="#MicrosoftYaHei-5e74"/>
      </g>
     </g>
    </g>
    <g id="xtick_21">
     <g id="line2d_41">
      <path clip-path="url(#pd0b7a7aee1)" d="M 569.793103 384.48 
L 569.793103 51.84 
" style="fill:none;stroke:#b0b0b0;stroke-linecap:square;stroke-width:0.8;"/>
     </g>
     <g id="line2d_42">
      <g>
       <use style="stroke:#000000;stroke-width:0.8;" x="569.793103" xlink:href="#m2942e70cf3" y="384.48"/>
      </g>
     </g>
     <g id="text_21">
      <!-- 2008年 -->
      <g transform="translate(572.54701 424.93625)rotate(-90)scale(0.1 -0.1)">
       <use xlink:href="#MicrosoftYaHei-32"/>
       <use x="58.642578" xlink:href="#MicrosoftYaHei-30"/>
       <use x="117.285156" xlink:href="#MicrosoftYaHei-30"/>
       <use x="175.927734" xlink:href="#MicrosoftYaHei-38"/>
       <use x="234.570312" xlink:href="#MicrosoftYaHei-5e74"/>
      </g>
     </g>
    </g>
    <g id="xtick_22">
     <g id="line2d_43">
      <path clip-path="url(#pd0b7a7aee1)" d="M 592.882759 384.48 
L 592.882759 51.84 
" style="fill:none;stroke:#b0b0b0;stroke-linecap:square;stroke-width:0.8;"/>
     </g>
     <g id="line2d_44">
      <g>
       <use style="stroke:#000000;stroke-width:0.8;" x="592.882759" xlink:href="#m2942e70cf3" y="384.48"/>
      </g>
     </g>
     <g id="text_22">
      <!-- 2009年 -->
      <g transform="translate(595.636665 424.93625)rotate(-90)scale(0.1 -0.1)">
       <use xlink:href="#MicrosoftYaHei-32"/>
       <use x="58.642578" xlink:href="#MicrosoftYaHei-30"/>
       <use x="117.285156" xlink:href="#MicrosoftYaHei-30"/>
       <use x="175.927734" xlink:href="#MicrosoftYaHei-39"/>
       <use x="234.570312" xlink:href="#MicrosoftYaHei-5e74"/>
      </g>
     </g>
    </g>
    <g id="xtick_23">
     <g id="line2d_45">
      <path clip-path="url(#pd0b7a7aee1)" d="M 615.972414 384.48 
L 615.972414 51.84 
" style="fill:none;stroke:#b0b0b0;stroke-linecap:square;stroke-width:0.8;"/>
     </g>
     <g id="line2d_46">
      <g>
       <use style="stroke:#000000;stroke-width:0.8;" x="615.972414" xlink:href="#m2942e70cf3" y="384.48"/>
      </g>
     </g>
     <g id="text_23">
      <!-- 2010年 -->
      <g transform="translate(618.72632 424.93625)rotate(-90)scale(0.1 -0.1)">
       <use xlink:href="#MicrosoftYaHei-32"/>
       <use x="58.642578" xlink:href="#MicrosoftYaHei-30"/>
       <use x="117.285156" xlink:href="#MicrosoftYaHei-31"/>
       <use x="175.927734" xlink:href="#MicrosoftYaHei-30"/>
       <use x="234.570312" xlink:href="#MicrosoftYaHei-5e74"/>
      </g>
     </g>
    </g>
    <g id="xtick_24">
     <g id="line2d_47">
      <path clip-path="url(#pd0b7a7aee1)" d="M 639.062069 384.48 
L 639.062069 51.84 
" style="fill:none;stroke:#b0b0b0;stroke-linecap:square;stroke-width:0.8;"/>
     </g>
     <g id="line2d_48">
      <g>
       <use style="stroke:#000000;stroke-width:0.8;" x="639.062069" xlink:href="#m2942e70cf3" y="384.48"/>
      </g>
     </g>
     <g id="text_24">
      <!-- 2011年 -->
      <g transform="translate(641.815975 424.93625)rotate(-90)scale(0.1 -0.1)">
       <use xlink:href="#MicrosoftYaHei-32"/>
       <use x="58.642578" xlink:href="#MicrosoftYaHei-30"/>
       <use x="117.285156" xlink:href="#MicrosoftYaHei-31"/>
       <use x="175.927734" xlink:href="#MicrosoftYaHei-31"/>
       <use x="234.570312" xlink:href="#MicrosoftYaHei-5e74"/>
      </g>
     </g>
    </g>
    <g id="xtick_25">
     <g id="line2d_49">
      <path clip-path="url(#pd0b7a7aee1)" d="M 662.151724 384.48 
L 662.151724 51.84 
" style="fill:none;stroke:#b0b0b0;stroke-linecap:square;stroke-width:0.8;"/>
     </g>
     <g id="line2d_50">
      <g>
       <use style="stroke:#000000;stroke-width:0.8;" x="662.151724" xlink:href="#m2942e70cf3" y="384.48"/>
      </g>
     </g>
     <g id="text_25">
      <!-- 2012年 -->
      <g transform="translate(664.90563 424.93625)rotate(-90)scale(0.1 -0.1)">
       <use xlink:href="#MicrosoftYaHei-32"/>
       <use x="58.642578" xlink:href="#MicrosoftYaHei-30"/>
       <use x="117.285156" xlink:href="#MicrosoftYaHei-31"/>
       <use x="175.927734" xlink:href="#MicrosoftYaHei-32"/>
       <use x="234.570312" xlink:href="#MicrosoftYaHei-5e74"/>
      </g>
     </g>
    </g>
    <g id="xtick_26">
     <g id="line2d_51">
      <path clip-path="url(#pd0b7a7aee1)" d="M 685.241379 384.48 
L 685.241379 51.84 
" style="fill:none;stroke:#b0b0b0;stroke-linecap:square;stroke-width:0.8;"/>
     </g>
     <g id="line2d_52">
      <g>
       <use style="stroke:#000000;stroke-width:0.8;" x="685.241379" xlink:href="#m2942e70cf3" y="384.48"/>
      </g>
     </g>
     <g id="text_26">
      <!-- 2013年 -->
      <g transform="translate(687.995286 424.93625)rotate(-90)scale(0.1 -0.1)">
       <use xlink:href="#MicrosoftYaHei-32"/>
       <use x="58.642578" xlink:href="#MicrosoftYaHei-30"/>
       <use x="117.285156" xlink:href="#MicrosoftYaHei-31"/>
       <use x="175.927734" xlink:href="#MicrosoftYaHei-33"/>
       <use x="234.570312" xlink:href="#MicrosoftYaHei-5e74"/>
      </g>
     </g>
    </g>
    <g id="xtick_27">
     <g id="line2d_53">
      <path clip-path="url(#pd0b7a7aee1)" d="M 708.331034 384.48 
L 708.331034 51.84 
" style="fill:none;stroke:#b0b0b0;stroke-linecap:square;stroke-width:0.8;"/>
     </g>
     <g id="line2d_54">
      <g>
       <use style="stroke:#000000;stroke-width:0.8;" x="708.331034" xlink:href="#m2942e70cf3" y="384.48"/>
      </g>
     </g>
     <g id="text_27">
      <!-- 2014年 -->
      <g transform="translate(711.084941 424.93625)rotate(-90)scale(0.1 -0.1)">
       <use xlink:href="#MicrosoftYaHei-32"/>
       <use x="58.642578" xlink:href="#MicrosoftYaHei-30"/>
       <use x="117.285156" xlink:href="#MicrosoftYaHei-31"/>
       <use x="175.927734" xlink:href="#MicrosoftYaHei-34"/>
       <use x="234.570312" xlink:href="#MicrosoftYaHei-5e74"/>
      </g>
     </g>
    </g>
    <g id="xtick_28">
     <g id="line2d_55">
      <path clip-path="url(#pd0b7a7aee1)" d="M 731.42069 384.48 
L 731.42069 51.84 
" style="fill:none;stroke:#b0b0b0;stroke-linecap:square;stroke-width:0.8;"/>
     </g>
     <g id="line2d_56">
      <g>
       <use style="stroke:#000000;stroke-width:0.8;" x="731.42069" xlink:href="#m2942e70cf3" y="384.48"/>
      </g>
     </g>
     <g id="text_28">
      <!-- 2015年 -->
      <g transform="translate(734.174596 424.93625)rotate(-90)scale(0.1 -0.1)">
       <use xlink:href="#MicrosoftYaHei-32"/>
       <use x="58.642578" xlink:href="#MicrosoftYaHei-30"/>
       <use x="117.285156" xlink:href="#MicrosoftYaHei-31"/>
       <use x="175.927734" xlink:href="#MicrosoftYaHei-35"/>
       <use x="234.570312" xlink:href="#MicrosoftYaHei-5e74"/>
      </g>
     </g>
    </g>
    <g id="xtick_29">
     <g id="line2d_57">
      <path clip-path="url(#pd0b7a7aee1)" d="M 754.510345 384.48 
L 754.510345 51.84 
" style="fill:none;stroke:#b0b0b0;stroke-linecap:square;stroke-width:0.8;"/>
     </g>
     <g id="line2d_58">
      <g>
       <use style="stroke:#000000;stroke-width:0.8;" x="754.510345" xlink:href="#m2942e70cf3" y="384.48"/>
      </g>
     </g>
     <g id="text_29">
      <!-- 2016年 -->
      <g transform="translate(757.264251 424.93625)rotate(-90)scale(0.1 -0.1)">
       <use xlink:href="#MicrosoftYaHei-32"/>
       <use x="58.642578" xlink:href="#MicrosoftYaHei-30"/>
       <use x="117.285156" xlink:href="#MicrosoftYaHei-31"/>
       <use x="175.927734" xlink:href="#MicrosoftYaHei-36"/>
       <use x="234.570312" xlink:href="#MicrosoftYaHei-5e74"/>
      </g>
     </g>
    </g>
    <g id="xtick_30">
     <g id="line2d_59">
      <path clip-path="url(#pd0b7a7aee1)" d="M 777.6 384.48 
L 777.6 51.84 
" style="fill:none;stroke:#b0b0b0;stroke-linecap:square;stroke-width:0.8;"/>
     </g>
     <g id="line2d_60">
      <g>
       <use style="stroke:#000000;stroke-width:0.8;" x="777.6" xlink:href="#m2942e70cf3" y="384.48"/>
      </g>
     </g>
     <g id="text_30">
      <!-- 2017年 -->
      <g transform="translate(780.353906 424.93625)rotate(-90)scale(0.1 -0.1)">
       <use xlink:href="#MicrosoftYaHei-32"/>
       <use x="58.642578" xlink:href="#MicrosoftYaHei-30"/>
       <use x="117.285156" xlink:href="#MicrosoftYaHei-31"/>
       <use x="175.927734" xlink:href="#MicrosoftYaHei-37"/>
       <use x="234.570312" xlink:href="#MicrosoftYaHei-5e74"/>
      </g>
     </g>
    </g>
    <g id="text_31">
     <!-- 时间 -->
     <defs>
      <path d="M 5.375 73.875 
L 39.0625 73.875 
L 39.0625 -5.71875 
L 31.34375 -5.71875 
L 31.34375 2.390625 
L 13.09375 2.390625 
L 13.09375 -6.890625 
L 5.375 -6.890625 
z
M 42.28125 61.578125 
L 76.953125 61.578125 
L 76.953125 83.15625 
L 84.765625 83.15625 
L 84.765625 61.578125 
L 98.640625 61.578125 
L 98.640625 54.34375 
L 84.765625 54.34375 
L 84.765625 1.8125 
Q 84.765625 -11.28125 72.265625 -11.28125 
Q 66.609375 -11.28125 55.671875 -10.984375 
Q 55.171875 -7.46875 54.109375 -2.78125 
Q 64.359375 -3.5625 70.125 -3.5625 
Q 76.953125 -3.5625 76.953125 3.375 
L 76.953125 54.34375 
L 42.28125 54.34375 
z
M 13.09375 9.625 
L 31.34375 9.625 
L 31.34375 34.90625 
L 13.09375 34.90625 
z
M 31.34375 66.65625 
L 13.09375 66.65625 
L 13.09375 41.9375 
L 31.34375 41.9375 
z
M 53.21875 44.96875 
Q 61.03125 30.71875 65.046875 22.21875 
Q 62.5 21.046875 57.234375 18.3125 
Q 53.421875 27.59375 46.296875 41.453125 
z
" id="MicrosoftYaHei-65f6"/>
      <path d="M 29.109375 56.984375 
L 70.515625 56.984375 
L 70.515625 8.640625 
L 36.140625 8.640625 
L 36.140625 2.59375 
L 29.109375 2.59375 
z
M 37.3125 69.578125 
L 37.3125 76.90625 
L 93.953125 76.90625 
L 93.953125 -0.4375 
Q 93.953125 -12.75 79.984375 -12.75 
Q 74.3125 -12.75 65.140625 -12.546875 
Q 64.75 -9.625 63.578125 -4.640625 
Q 71.6875 -5.21875 79 -5.21875 
Q 86.328125 -5.21875 86.328125 1.90625 
L 86.328125 69.578125 
z
M 6.546875 63.8125 
L 14.15625 63.8125 
L 14.15625 -12.75 
L 6.546875 -12.75 
z
M 36.140625 15.578125 
L 63.484375 15.578125 
L 63.484375 29.4375 
L 36.140625 29.4375 
z
M 63.484375 50.046875 
L 36.140625 50.046875 
L 36.140625 36.375 
L 63.484375 36.375 
z
M 11.625 78.171875 
L 17.1875 83.15625 
Q 24.609375 76.125 30.953125 69.484375 
L 24.609375 63.921875 
Q 18.65625 70.953125 11.625 78.171875 
z
" id="MicrosoftYaHei-95f4"/>
     </defs>
     <g transform="translate(432.8 436.93)scale(0.1 -0.1)">
      <use xlink:href="#MicrosoftYaHei-65f6"/>
      <use x="100" xlink:href="#MicrosoftYaHei-95f4"/>
     </g>
    </g>
   </g>
   <g id="matplotlib.axis_2">
    <g id="ytick_1">
     <g id="line2d_61">
      <path clip-path="url(#pd0b7a7aee1)" d="M 108 384.48 
L 777.6 384.48 
" style="fill:none;stroke:#b0b0b0;stroke-linecap:square;stroke-width:0.8;"/>
     </g>
     <g id="line2d_62">
      <defs>
       <path d="M 0 0 
L -3.5 0 
" id="m7c322c82e8" style="stroke:#000000;stroke-width:0.8;"/>
      </defs>
      <g>
       <use style="stroke:#000000;stroke-width:0.8;" x="108" xlink:href="#m7c322c82e8" y="384.48"/>
      </g>
     </g>
     <g id="text_32">
      <!-- 0 -->
      <g transform="translate(95.135937 388.476875)scale(0.1 -0.1)">
       <use xlink:href="#MicrosoftYaHei-30"/>
      </g>
     </g>
    </g>
    <g id="ytick_2">
     <g id="line2d_63">
      <path clip-path="url(#pd0b7a7aee1)" d="M 108 321.120547 
L 777.6 321.120547 
" style="fill:none;stroke:#b0b0b0;stroke-linecap:square;stroke-width:0.8;"/>
     </g>
     <g id="line2d_64">
      <g>
       <use style="stroke:#000000;stroke-width:0.8;" x="108" xlink:href="#m7c322c82e8" y="321.120547"/>
      </g>
     </g>
     <g id="text_33">
      <!-- 20 -->
      <g transform="translate(89.271875 325.117422)scale(0.1 -0.1)">
       <use xlink:href="#MicrosoftYaHei-32"/>
       <use x="58.642578" xlink:href="#MicrosoftYaHei-30"/>
      </g>
     </g>
    </g>
    <g id="ytick_3">
     <g id="line2d_65">
      <path clip-path="url(#pd0b7a7aee1)" d="M 108 257.761094 
L 777.6 257.761094 
" style="fill:none;stroke:#b0b0b0;stroke-linecap:square;stroke-width:0.8;"/>
     </g>
     <g id="line2d_66">
      <g>
       <use style="stroke:#000000;stroke-width:0.8;" x="108" xlink:href="#m7c322c82e8" y="257.761094"/>
      </g>
     </g>
     <g id="text_34">
      <!-- 40 -->
      <g transform="translate(89.271875 261.757969)scale(0.1 -0.1)">
       <use xlink:href="#MicrosoftYaHei-34"/>
       <use x="58.642578" xlink:href="#MicrosoftYaHei-30"/>
      </g>
     </g>
    </g>
    <g id="ytick_4">
     <g id="line2d_67">
      <path clip-path="url(#pd0b7a7aee1)" d="M 108 194.401641 
L 777.6 194.401641 
" style="fill:none;stroke:#b0b0b0;stroke-linecap:square;stroke-width:0.8;"/>
     </g>
     <g id="line2d_68">
      <g>
       <use style="stroke:#000000;stroke-width:0.8;" x="108" xlink:href="#m7c322c82e8" y="194.401641"/>
      </g>
     </g>
     <g id="text_35">
      <!-- 60 -->
      <g transform="translate(89.271875 198.398516)scale(0.1 -0.1)">
       <use xlink:href="#MicrosoftYaHei-36"/>
       <use x="58.642578" xlink:href="#MicrosoftYaHei-30"/>
      </g>
     </g>
    </g>
    <g id="ytick_5">
     <g id="line2d_69">
      <path clip-path="url(#pd0b7a7aee1)" d="M 108 131.042188 
L 777.6 131.042188 
" style="fill:none;stroke:#b0b0b0;stroke-linecap:square;stroke-width:0.8;"/>
     </g>
     <g id="line2d_70">
      <g>
       <use style="stroke:#000000;stroke-width:0.8;" x="108" xlink:href="#m7c322c82e8" y="131.042188"/>
      </g>
     </g>
     <g id="text_36">
      <!-- 80 -->
      <g transform="translate(89.271875 135.039063)scale(0.1 -0.1)">
       <use xlink:href="#MicrosoftYaHei-38"/>
       <use x="58.642578" xlink:href="#MicrosoftYaHei-30"/>
      </g>
     </g>
    </g>
    <g id="ytick_6">
     <g id="line2d_71">
      <path clip-path="url(#pd0b7a7aee1)" d="M 108 67.682735 
L 777.6 67.682735 
" style="fill:none;stroke:#b0b0b0;stroke-linecap:square;stroke-width:0.8;"/>
     </g>
     <g id="line2d_72">
      <g>
       <use style="stroke:#000000;stroke-width:0.8;" x="108" xlink:href="#m7c322c82e8" y="67.682735"/>
      </g>
     </g>
     <g id="text_37">
      <!-- 100 -->
      <g transform="translate(83.407813 71.67961)scale(0.1 -0.1)">
       <use xlink:href="#MicrosoftYaHei-31"/>
       <use x="58.642578" xlink:href="#MicrosoftYaHei-30"/>
       <use x="117.285156" xlink:href="#MicrosoftYaHei-30"/>
      </g>
     </g>
    </g>
   </g>
   <g id="patch_93">
    <path d="M 108 384.48 
L 108 51.84 
" style="fill:none;stroke:#000000;stroke-linecap:square;stroke-linejoin:miter;stroke-width:0.8;"/>
   </g>
   <g id="patch_94">
    <path d="M 777.6 384.48 
L 777.6 51.84 
" style="fill:none;stroke:#000000;stroke-linecap:square;stroke-linejoin:miter;stroke-width:0.8;"/>
   </g>
   <g id="patch_95">
    <path d="M 108 384.48 
L 777.6 384.48 
" style="fill:none;stroke:#000000;stroke-linecap:square;stroke-linejoin:miter;stroke-width:0.8;"/>
   </g>
   <g id="patch_96">
    <path d="M 108 51.84 
L 777.6 51.84 
" style="fill:none;stroke:#000000;stroke-linecap:square;stroke-linejoin:miter;stroke-width:0.8;"/>
   </g>
   <g id="legend_1">
    <g id="patch_97">
     <path d="M 116.696 251.424 
L 200.424125 251.424 
Q 202.424125 251.424 202.424125 249.424 
L 202.424125 203.984937 
Q 202.424125 201.984937 200.424125 201.984937 
L 116.696 201.984937 
Q 114.696 201.984937 114.696 203.984937 
L 114.696 249.424 
Q 114.696 251.424 116.696 251.424 
z
" style="fill:#ffffff;opacity:0.8;stroke:#cccccc;stroke-linejoin:miter;"/>
    </g>
    <g id="patch_98">
     <path d="M 118.696 213.978687 
L 138.696 213.978687 
L 138.696 206.978687 
L 118.696 206.978687 
z
" style="fill:#1f77b4;"/>
    </g>
    <g id="text_38">
     <!-- 0-14岁 -->
     <defs>
      <path d="M 36.375 26.265625 
L 7.625 26.265625 
L 7.625 33.640625 
L 36.375 33.640625 
z
" id="MicrosoftYaHei-2d"/>
      <path d="M 1.765625 18.109375 
Q 23.640625 32.765625 36.03125 52.296875 
L 43.65625 49.859375 
Q 40.625 45.265625 37.40625 40.96875 
L 88.375 40.96875 
L 88.375 34.234375 
Q 73.046875 12.15625 54 1.3125 
Q 34.96875 -9.515625 7.421875 -13.921875 
Q 5.859375 -10.6875 3.125 -6.296875 
Q 27.734375 -2.78125 44.828125 5.421875 
Q 37.3125 12.15625 27.734375 19.484375 
L 32.71875 24.65625 
Q 43.953125 15.96875 51.5625 9.125 
Q 67.484375 18.3125 78.71875 33.9375 
L 31.546875 33.9375 
Q 22.359375 23 7.328125 12.25 
Q 5.078125 15.09375 1.765625 18.109375 
z
M 81.546875 50.140625 
L 81.546875 53.46875 
L 10.84375 53.46875 
L 10.84375 77.09375 
L 18.453125 77.09375 
L 18.453125 60.5 
L 46.1875 60.5 
L 46.1875 81.984375 
L 53.8125 81.984375 
L 53.8125 60.5 
L 81.546875 60.5 
L 81.546875 77.09375 
L 89.15625 77.09375 
L 89.15625 50.140625 
z
" id="MicrosoftYaHei-5c81"/>
     </defs>
     <g transform="translate(146.696 213.978687)scale(0.1 -0.1)">
      <use xlink:href="#MicrosoftYaHei-30"/>
      <use x="58.642578" xlink:href="#MicrosoftYaHei-2d"/>
      <use x="101.904297" xlink:href="#MicrosoftYaHei-31"/>
      <use x="160.546875" xlink:href="#MicrosoftYaHei-34"/>
      <use x="219.189453" xlink:href="#MicrosoftYaHei-5c81"/>
     </g>
    </g>
    <g id="patch_99">
     <path d="M 118.696 229.458375 
L 138.696 229.458375 
L 138.696 222.458375 
L 118.696 222.458375 
z
" style="fill:#ff7f0e;"/>
    </g>
    <g id="text_39">
     <!-- 15-64岁 -->
     <g transform="translate(146.696 229.458375)scale(0.1 -0.1)">
      <use xlink:href="#MicrosoftYaHei-31"/>
      <use x="58.642578" xlink:href="#MicrosoftYaHei-35"/>
      <use x="117.285156" xlink:href="#MicrosoftYaHei-2d"/>
      <use x="160.546875" xlink:href="#MicrosoftYaHei-36"/>
      <use x="219.189453" xlink:href="#MicrosoftYaHei-34"/>
      <use x="277.832031" xlink:href="#MicrosoftYaHei-5c81"/>
     </g>
    </g>
    <g id="patch_100">
     <path d="M 118.696 244.938062 
L 138.696 244.938062 
L 138.696 237.938062 
L 118.696 237.938062 
z
" style="fill:#2ca02c;"/>
    </g>
    <g id="text_40">
     <!-- 65岁及以上 -->
     <defs>
      <path d="M 28.421875 21.828125 
Q 23.4375 4.828125 7.421875 -12.359375 
Q 5.078125 -9.234375 1.5625 -5.515625 
Q 16.21875 9.8125 20.703125 25.34375 
Q 25.09375 38.671875 25.875 69 
L 6.0625 69 
L 6.0625 76.3125 
L 77.828125 76.3125 
L 77.828125 68.890625 
L 68.359375 49.859375 
L 86.421875 49.859375 
L 86.421875 42.921875 
Q 78.71875 23.4375 65.765625 10.203125 
Q 80.28125 -0.140625 98.53125 -3.65625 
Q 95.125 -8.453125 93.453125 -12.0625 
Q 72.21875 -5.328125 59.625 4.59375 
Q 46.390625 -6.203125 26.859375 -13.53125 
Q 25.296875 -10.6875 21.96875 -6.390625 
Q 40.921875 -0.09375 53.5625 10.0625 
Q 40.234375 23.53125 32.5625 43.5 
Q 31.109375 30.515625 28.421875 21.828125 
z
M 58.890625 48.875 
L 68.953125 69 
L 34.078125 69 
Q 33.984375 63.578125 33.734375 58.59375 
Q 43.453125 30.5625 59.515625 15.328125 
Q 71.734375 27.203125 77.546875 42.53125 
L 58.890625 42.53125 
z
" id="MicrosoftYaHei-53ca"/>
      <path d="M 75.296875 80.8125 
L 83.296875 80.8125 
L 83.296875 63.234375 
Q 83.296875 36.234375 76.375 20.359375 
Q 88.484375 7.859375 99.21875 -4.25 
L 92.484375 -10.40625 
Q 82.46875 2 72.515625 13.1875 
Q 61.234375 -3.953125 38.578125 -13.625 
Q 36.328125 -10.59375 33.296875 -6.890625 
Q 57.90625 4.4375 66.40625 19.390625 
Q 75.484375 34.03125 75.296875 63.421875 
z
M 45.015625 26.703125 
Q 45.3125 20.359375 45.796875 17.4375 
Q 22.359375 2.6875 16.609375 -1.125 
Q 13.375 -3.375 10.453125 -6 
L 4.890625 1.703125 
Q 9.46875 5.8125 9.375 11.578125 
L 9.375 79.4375 
L 17.390625 79.4375 
L 17.390625 9.625 
Q 28.125 16.0625 45.015625 26.703125 
z
M 41.015625 83.0625 
Q 47.5625 72.703125 55.5625 58.25 
L 47.953125 53.953125 
Q 40.328125 69 34.078125 79.34375 
z
" id="MicrosoftYaHei-4ee5"/>
      <path d="M 2.546875 0.734375 
L 40.828125 0.734375 
L 40.828125 81.390625 
L 49.703125 81.390625 
L 49.703125 52 
L 89.84375 52 
L 89.84375 44.1875 
L 49.703125 44.1875 
L 49.703125 0.734375 
L 97.5625 0.734375 
L 97.5625 -7.078125 
L 2.546875 -7.078125 
z
" id="MicrosoftYaHei-4e0a"/>
     </defs>
     <g transform="translate(146.696 244.938062)scale(0.1 -0.1)">
      <use xlink:href="#MicrosoftYaHei-36"/>
      <use x="58.642578" xlink:href="#MicrosoftYaHei-35"/>
      <use x="117.285156" xlink:href="#MicrosoftYaHei-5c81"/>
      <use x="217.285156" xlink:href="#MicrosoftYaHei-53ca"/>
      <use x="317.285156" xlink:href="#MicrosoftYaHei-4ee5"/>
      <use x="417.285156" xlink:href="#MicrosoftYaHei-4e0a"/>
     </g>
    </g>
   </g>
  </g>
  <g id="axes_2">
   <g id="matplotlib.axis_3">
    <g id="ytick_7">
     <g id="line2d_73">
      <defs>
       <path d="M 0 0 
L 3.5 0 
" id="m16f20504c2" style="stroke:#000000;stroke-width:0.8;"/>
      </defs>
      <g>
       <use style="stroke:#000000;stroke-width:0.8;" x="777.6" xlink:href="#m16f20504c2" y="358.283077"/>
      </g>
     </g>
     <g id="text_41">
      <!-- 10 -->
      <g transform="translate(784.6 362.279952)scale(0.1 -0.1)">
       <use xlink:href="#MicrosoftYaHei-31"/>
       <use x="58.642578" xlink:href="#MicrosoftYaHei-30"/>
      </g>
     </g>
    </g>
    <g id="ytick_8">
     <g id="line2d_74">
      <g>
       <use style="stroke:#000000;stroke-width:0.8;" x="777.6" xlink:href="#m16f20504c2" y="302.898462"/>
      </g>
     </g>
     <g id="text_42">
      <!-- 20 -->
      <g transform="translate(784.6 306.895337)scale(0.1 -0.1)">
       <use xlink:href="#MicrosoftYaHei-32"/>
       <use x="58.642578" xlink:href="#MicrosoftYaHei-30"/>
      </g>
     </g>
    </g>
    <g id="ytick_9">
     <g id="line2d_75">
      <g>
       <use style="stroke:#000000;stroke-width:0.8;" x="777.6" xlink:href="#m16f20504c2" y="247.513846"/>
      </g>
     </g>
     <g id="text_43">
      <!-- 30 -->
      <g transform="translate(784.6 251.510721)scale(0.1 -0.1)">
       <use xlink:href="#MicrosoftYaHei-33"/>
       <use x="58.642578" xlink:href="#MicrosoftYaHei-30"/>
      </g>
     </g>
    </g>
    <g id="ytick_10">
     <g id="line2d_76">
      <g>
       <use style="stroke:#000000;stroke-width:0.8;" x="777.6" xlink:href="#m16f20504c2" y="192.129231"/>
      </g>
     </g>
     <g id="text_44">
      <!-- 40 -->
      <g transform="translate(784.6 196.126106)scale(0.1 -0.1)">
       <use xlink:href="#MicrosoftYaHei-34"/>
       <use x="58.642578" xlink:href="#MicrosoftYaHei-30"/>
      </g>
     </g>
    </g>
    <g id="ytick_11">
     <g id="line2d_77">
      <g>
       <use style="stroke:#000000;stroke-width:0.8;" x="777.6" xlink:href="#m16f20504c2" y="136.744615"/>
      </g>
     </g>
     <g id="text_45">
      <!-- 50 -->
      <g transform="translate(784.6 140.74149)scale(0.1 -0.1)">
       <use xlink:href="#MicrosoftYaHei-35"/>
       <use x="58.642578" xlink:href="#MicrosoftYaHei-30"/>
      </g>
     </g>
    </g>
    <g id="ytick_12">
     <g id="line2d_78">
      <g>
       <use style="stroke:#000000;stroke-width:0.8;" x="777.6" xlink:href="#m16f20504c2" y="81.36"/>
      </g>
     </g>
     <g id="text_46">
      <!-- 60 -->
      <g transform="translate(784.6 85.356875)scale(0.1 -0.1)">
       <use xlink:href="#MicrosoftYaHei-36"/>
       <use x="58.642578" xlink:href="#MicrosoftYaHei-30"/>
      </g>
     </g>
    </g>
   </g>
   <g id="line2d_79">
    <path clip-path="url(#pd0b7a7aee1)" d="M 108 66.96 
L 131.089655 126.775385 
L 154.17931 137.852308 
L 177.268966 132.313846 
L 200.358621 131.206154 
L 223.448276 137.298462 
L 246.537931 136.190769 
L 269.627586 143.390769 
L 292.717241 143.390769 
L 315.806897 147.267692 
L 338.896552 148.375385 
L 361.986207 149.483077 
L 385.075862 177.729231 
L 408.165517 181.052308 
L 431.255172 179.944615 
L 454.344828 181.052308 
L 477.434483 186.590769 
L 500.524138 198.775385 
L 523.613793 201.544615 
L 546.703448 203.76 
L 569.793103 206.529231 
L 592.882759 209.298462 
L 615.972414 224.252308 
L 639.062069 223.144615 
L 662.151724 220.375385 
L 685.241379 218.16 
L 708.331034 213.175385 
L 731.42069 208.744615 
L 754.510345 203.76 
L 777.6 196.56 
" style="fill:none;stroke:#000000;stroke-linecap:square;stroke-width:1.5;"/>
    <defs>
     <path d="M 0 1.5 
C 0.397805 1.5 0.77937 1.341951 1.06066 1.06066 
C 1.341951 0.77937 1.5 0.397805 1.5 0 
C 1.5 -0.397805 1.341951 -0.77937 1.06066 -1.06066 
C 0.77937 -1.341951 0.397805 -1.5 0 -1.5 
C -0.397805 -1.5 -0.77937 -1.341951 -1.06066 -1.06066 
C -1.341951 -0.77937 -1.5 -0.397805 -1.5 0 
C -1.5 0.397805 -1.341951 0.77937 -1.06066 1.06066 
C -0.77937 1.341951 -0.397805 1.5 0 1.5 
z
" id="me3506ca66e" style="stroke:#000000;"/>
    </defs>
    <g clip-path="url(#pd0b7a7aee1)">
     <use style="stroke:#000000;" x="108" xlink:href="#me3506ca66e" y="66.96"/>
     <use style="stroke:#000000;" x="131.089655" xlink:href="#me3506ca66e" y="126.775385"/>
     <use style="stroke:#000000;" x="154.17931" xlink:href="#me3506ca66e" y="137.852308"/>
     <use style="stroke:#000000;" x="177.268966" xlink:href="#me3506ca66e" y="132.313846"/>
     <use style="stroke:#000000;" x="200.358621" xlink:href="#me3506ca66e" y="131.206154"/>
     <use style="stroke:#000000;" x="223.448276" xlink:href="#me3506ca66e" y="137.298462"/>
     <use style="stroke:#000000;" x="246.537931" xlink:href="#me3506ca66e" y="136.190769"/>
     <use style="stroke:#000000;" x="269.627586" xlink:href="#me3506ca66e" y="143.390769"/>
     <use style="stroke:#000000;" x="292.717241" xlink:href="#me3506ca66e" y="143.390769"/>
     <use style="stroke:#000000;" x="315.806897" xlink:href="#me3506ca66e" y="147.267692"/>
     <use style="stroke:#000000;" x="338.896552" xlink:href="#me3506ca66e" y="148.375385"/>
     <use style="stroke:#000000;" x="361.986207" xlink:href="#me3506ca66e" y="149.483077"/>
     <use style="stroke:#000000;" x="385.075862" xlink:href="#me3506ca66e" y="177.729231"/>
     <use style="stroke:#000000;" x="408.165517" xlink:href="#me3506ca66e" y="181.052308"/>
     <use style="stroke:#000000;" x="431.255172" xlink:href="#me3506ca66e" y="179.944615"/>
     <use style="stroke:#000000;" x="454.344828" xlink:href="#me3506ca66e" y="181.052308"/>
     <use style="stroke:#000000;" x="477.434483" xlink:href="#me3506ca66e" y="186.590769"/>
     <use style="stroke:#000000;" x="500.524138" xlink:href="#me3506ca66e" y="198.775385"/>
     <use style="stroke:#000000;" x="523.613793" xlink:href="#me3506ca66e" y="201.544615"/>
     <use style="stroke:#000000;" x="546.703448" xlink:href="#me3506ca66e" y="203.76"/>
     <use style="stroke:#000000;" x="569.793103" xlink:href="#me3506ca66e" y="206.529231"/>
     <use style="stroke:#000000;" x="592.882759" xlink:href="#me3506ca66e" y="209.298462"/>
     <use style="stroke:#000000;" x="615.972414" xlink:href="#me3506ca66e" y="224.252308"/>
     <use style="stroke:#000000;" x="639.062069" xlink:href="#me3506ca66e" y="223.144615"/>
     <use style="stroke:#000000;" x="662.151724" xlink:href="#me3506ca66e" y="220.375385"/>
     <use style="stroke:#000000;" x="685.241379" xlink:href="#me3506ca66e" y="218.16"/>
     <use style="stroke:#000000;" x="708.331034" xlink:href="#me3506ca66e" y="213.175385"/>
     <use style="stroke:#000000;" x="731.42069" xlink:href="#me3506ca66e" y="208.744615"/>
     <use style="stroke:#000000;" x="754.510345" xlink:href="#me3506ca66e" y="203.76"/>
     <use style="stroke:#000000;" x="777.6" xlink:href="#me3506ca66e" y="196.56"/>
    </g>
   </g>
   <g id="line2d_80">
    <path clip-path="url(#pd0b7a7aee1)" d="M 108 111.267692 
L 131.089655 172.744615 
L 154.17931 183.821538 
L 177.268966 182.16 
L 200.358621 182.713846 
L 223.448276 188.252308 
L 246.537931 189.36 
L 269.627586 194.344615 
L 292.717241 196.006154 
L 315.806897 200.436923 
L 338.896552 203.206154 
L 361.986207 205.975385 
L 385.075862 233.113846 
L 408.165517 236.436923 
L 431.255172 236.990769 
L 454.344828 239.76 
L 477.434483 245.852308 
L 500.524138 258.036923 
L 523.613793 262.467692 
L 546.703448 265.236923 
L 569.793103 269.667692 
L 592.882759 273.544615 
L 615.972414 290.16 
L 639.062069 291.267692 
L 662.151724 290.713846 
L 685.241379 290.713846 
L 708.331034 289.052308 
L 731.42069 288.498462 
L 754.510345 286.836923 
L 777.6 284.067692 
" style="fill:none;stroke:#3333ff;stroke-linecap:square;stroke-width:1.5;"/>
    <defs>
     <path d="M 0 1.5 
C 0.397805 1.5 0.77937 1.341951 1.06066 1.06066 
C 1.341951 0.77937 1.5 0.397805 1.5 0 
C 1.5 -0.397805 1.341951 -0.77937 1.06066 -1.06066 
C 0.77937 -1.341951 0.397805 -1.5 0 -1.5 
C -0.397805 -1.5 -0.77937 -1.341951 -1.06066 -1.06066 
C -1.341951 -0.77937 -1.5 -0.397805 -1.5 0 
C -1.5 0.397805 -1.341951 0.77937 -1.06066 1.06066 
C -0.77937 1.341951 -0.397805 1.5 0 1.5 
z
" id="m38236e8985" style="stroke:#3333ff;"/>
    </defs>
    <g clip-path="url(#pd0b7a7aee1)">
     <use style="fill:#3333ff;stroke:#3333ff;" x="108" xlink:href="#m38236e8985" y="111.267692"/>
     <use style="fill:#3333ff;stroke:#3333ff;" x="131.089655" xlink:href="#m38236e8985" y="172.744615"/>
     <use style="fill:#3333ff;stroke:#3333ff;" x="154.17931" xlink:href="#m38236e8985" y="183.821538"/>
     <use style="fill:#3333ff;stroke:#3333ff;" x="177.268966" xlink:href="#m38236e8985" y="182.16"/>
     <use style="fill:#3333ff;stroke:#3333ff;" x="200.358621" xlink:href="#m38236e8985" y="182.713846"/>
     <use style="fill:#3333ff;stroke:#3333ff;" x="223.448276" xlink:href="#m38236e8985" y="188.252308"/>
     <use style="fill:#3333ff;stroke:#3333ff;" x="246.537931" xlink:href="#m38236e8985" y="189.36"/>
     <use style="fill:#3333ff;stroke:#3333ff;" x="269.627586" xlink:href="#m38236e8985" y="194.344615"/>
     <use style="fill:#3333ff;stroke:#3333ff;" x="292.717241" xlink:href="#m38236e8985" y="196.006154"/>
     <use style="fill:#3333ff;stroke:#3333ff;" x="315.806897" xlink:href="#m38236e8985" y="200.436923"/>
     <use style="fill:#3333ff;stroke:#3333ff;" x="338.896552" xlink:href="#m38236e8985" y="203.206154"/>
     <use style="fill:#3333ff;stroke:#3333ff;" x="361.986207" xlink:href="#m38236e8985" y="205.975385"/>
     <use style="fill:#3333ff;stroke:#3333ff;" x="385.075862" xlink:href="#m38236e8985" y="233.113846"/>
     <use style="fill:#3333ff;stroke:#3333ff;" x="408.165517" xlink:href="#m38236e8985" y="236.436923"/>
     <use style="fill:#3333ff;stroke:#3333ff;" x="431.255172" xlink:href="#m38236e8985" y="236.990769"/>
     <use style="fill:#3333ff;stroke:#3333ff;" x="454.344828" xlink:href="#m38236e8985" y="239.76"/>
     <use style="fill:#3333ff;stroke:#3333ff;" x="477.434483" xlink:href="#m38236e8985" y="245.852308"/>
     <use style="fill:#3333ff;stroke:#3333ff;" x="500.524138" xlink:href="#m38236e8985" y="258.036923"/>
     <use style="fill:#3333ff;stroke:#3333ff;" x="523.613793" xlink:href="#m38236e8985" y="262.467692"/>
     <use style="fill:#3333ff;stroke:#3333ff;" x="546.703448" xlink:href="#m38236e8985" y="265.236923"/>
     <use style="fill:#3333ff;stroke:#3333ff;" x="569.793103" xlink:href="#m38236e8985" y="269.667692"/>
     <use style="fill:#3333ff;stroke:#3333ff;" x="592.882759" xlink:href="#m38236e8985" y="273.544615"/>
     <use style="fill:#3333ff;stroke:#3333ff;" x="615.972414" xlink:href="#m38236e8985" y="290.16"/>
     <use style="fill:#3333ff;stroke:#3333ff;" x="639.062069" xlink:href="#m38236e8985" y="291.267692"/>
     <use style="fill:#3333ff;stroke:#3333ff;" x="662.151724" xlink:href="#m38236e8985" y="290.713846"/>
     <use style="fill:#3333ff;stroke:#3333ff;" x="685.241379" xlink:href="#m38236e8985" y="290.713846"/>
     <use style="fill:#3333ff;stroke:#3333ff;" x="708.331034" xlink:href="#m38236e8985" y="289.052308"/>
     <use style="fill:#3333ff;stroke:#3333ff;" x="731.42069" xlink:href="#m38236e8985" y="288.498462"/>
     <use style="fill:#3333ff;stroke:#3333ff;" x="754.510345" xlink:href="#m38236e8985" y="286.836923"/>
     <use style="fill:#3333ff;stroke:#3333ff;" x="777.6" xlink:href="#m38236e8985" y="284.067692"/>
    </g>
   </g>
   <g id="line2d_81">
    <path clip-path="url(#pd0b7a7aee1)" d="M 108 369.36 
L 131.089655 367.698462 
L 154.17931 367.698462 
L 177.268966 363.821538 
L 200.358621 362.16 
L 223.448276 362.713846 
L 246.537931 361.052308 
L 269.627586 362.713846 
L 292.717241 361.052308 
L 315.806897 359.944615 
L 338.896552 358.836923 
L 361.986207 357.175385 
L 385.075862 358.836923 
L 408.165517 357.729231 
L 431.255172 356.067692 
L 454.344828 354.406154 
L 477.434483 354.406154 
L 500.524138 354.406154 
L 523.613793 352.744615 
L 546.703448 352.190769 
L 569.793103 351.083077 
L 592.882759 349.421538 
L 615.972414 347.76 
L 639.062069 345.544615 
L 662.151724 343.329231 
L 685.241379 341.113846 
L 708.331034 337.790769 
L 731.42069 334.467692 
L 754.510345 330.590769 
L 777.6 325.606154 
" style="fill:none;stroke:#aaffaa;stroke-linecap:square;stroke-width:1.5;"/>
    <defs>
     <path d="M 0 1.5 
C 0.397805 1.5 0.77937 1.341951 1.06066 1.06066 
C 1.341951 0.77937 1.5 0.397805 1.5 0 
C 1.5 -0.397805 1.341951 -0.77937 1.06066 -1.06066 
C 0.77937 -1.341951 0.397805 -1.5 0 -1.5 
C -0.397805 -1.5 -0.77937 -1.341951 -1.06066 -1.06066 
C -1.341951 -0.77937 -1.5 -0.397805 -1.5 0 
C -1.5 0.397805 -1.341951 0.77937 -1.06066 1.06066 
C -0.77937 1.341951 -0.397805 1.5 0 1.5 
z
" id="m53e0d31178" style="stroke:#aaffaa;"/>
    </defs>
    <g clip-path="url(#pd0b7a7aee1)">
     <use style="fill:#aaffaa;stroke:#aaffaa;" x="108" xlink:href="#m53e0d31178" y="369.36"/>
     <use style="fill:#aaffaa;stroke:#aaffaa;" x="131.089655" xlink:href="#m53e0d31178" y="367.698462"/>
     <use style="fill:#aaffaa;stroke:#aaffaa;" x="154.17931" xlink:href="#m53e0d31178" y="367.698462"/>
     <use style="fill:#aaffaa;stroke:#aaffaa;" x="177.268966" xlink:href="#m53e0d31178" y="363.821538"/>
     <use style="fill:#aaffaa;stroke:#aaffaa;" x="200.358621" xlink:href="#m53e0d31178" y="362.16"/>
     <use style="fill:#aaffaa;stroke:#aaffaa;" x="223.448276" xlink:href="#m53e0d31178" y="362.713846"/>
     <use style="fill:#aaffaa;stroke:#aaffaa;" x="246.537931" xlink:href="#m53e0d31178" y="361.052308"/>
     <use style="fill:#aaffaa;stroke:#aaffaa;" x="269.627586" xlink:href="#m53e0d31178" y="362.713846"/>
     <use style="fill:#aaffaa;stroke:#aaffaa;" x="292.717241" xlink:href="#m53e0d31178" y="361.052308"/>
     <use style="fill:#aaffaa;stroke:#aaffaa;" x="315.806897" xlink:href="#m53e0d31178" y="359.944615"/>
     <use style="fill:#aaffaa;stroke:#aaffaa;" x="338.896552" xlink:href="#m53e0d31178" y="358.836923"/>
     <use style="fill:#aaffaa;stroke:#aaffaa;" x="361.986207" xlink:href="#m53e0d31178" y="357.175385"/>
     <use style="fill:#aaffaa;stroke:#aaffaa;" x="385.075862" xlink:href="#m53e0d31178" y="358.836923"/>
     <use style="fill:#aaffaa;stroke:#aaffaa;" x="408.165517" xlink:href="#m53e0d31178" y="357.729231"/>
     <use style="fill:#aaffaa;stroke:#aaffaa;" x="431.255172" xlink:href="#m53e0d31178" y="356.067692"/>
     <use style="fill:#aaffaa;stroke:#aaffaa;" x="454.344828" xlink:href="#m53e0d31178" y="354.406154"/>
     <use style="fill:#aaffaa;stroke:#aaffaa;" x="477.434483" xlink:href="#m53e0d31178" y="354.406154"/>
     <use style="fill:#aaffaa;stroke:#aaffaa;" x="500.524138" xlink:href="#m53e0d31178" y="354.406154"/>
     <use style="fill:#aaffaa;stroke:#aaffaa;" x="523.613793" xlink:href="#m53e0d31178" y="352.744615"/>
     <use style="fill:#aaffaa;stroke:#aaffaa;" x="546.703448" xlink:href="#m53e0d31178" y="352.190769"/>
     <use style="fill:#aaffaa;stroke:#aaffaa;" x="569.793103" xlink:href="#m53e0d31178" y="351.083077"/>
     <use style="fill:#aaffaa;stroke:#aaffaa;" x="592.882759" xlink:href="#m53e0d31178" y="349.421538"/>
     <use style="fill:#aaffaa;stroke:#aaffaa;" x="615.972414" xlink:href="#m53e0d31178" y="347.76"/>
     <use style="fill:#aaffaa;stroke:#aaffaa;" x="639.062069" xlink:href="#m53e0d31178" y="345.544615"/>
     <use style="fill:#aaffaa;stroke:#aaffaa;" x="662.151724" xlink:href="#m53e0d31178" y="343.329231"/>
     <use style="fill:#aaffaa;stroke:#aaffaa;" x="685.241379" xlink:href="#m53e0d31178" y="341.113846"/>
     <use style="fill:#aaffaa;stroke:#aaffaa;" x="708.331034" xlink:href="#m53e0d31178" y="337.790769"/>
     <use style="fill:#aaffaa;stroke:#aaffaa;" x="731.42069" xlink:href="#m53e0d31178" y="334.467692"/>
     <use style="fill:#aaffaa;stroke:#aaffaa;" x="754.510345" xlink:href="#m53e0d31178" y="330.590769"/>
     <use style="fill:#aaffaa;stroke:#aaffaa;" x="777.6" xlink:href="#m53e0d31178" y="325.606154"/>
    </g>
   </g>
   <g id="patch_101">
    <path d="M 108 384.48 
L 108 51.84 
" style="fill:none;stroke:#000000;stroke-linecap:square;stroke-linejoin:miter;stroke-width:0.8;"/>
   </g>
   <g id="patch_102">
    <path d="M 777.6 384.48 
L 777.6 51.84 
" style="fill:none;stroke:#000000;stroke-linecap:square;stroke-linejoin:miter;stroke-width:0.8;"/>
   </g>
   <g id="patch_103">
    <path d="M 108 384.48 
L 777.6 384.48 
" style="fill:none;stroke:#000000;stroke-linecap:square;stroke-linejoin:miter;stroke-width:0.8;"/>
   </g>
   <g id="patch_104">
    <path d="M 108 51.84 
L 777.6 51.84 
" style="fill:none;stroke:#000000;stroke-linecap:square;stroke-linejoin:miter;stroke-width:0.8;"/>
   </g>
   <g id="text_47">
    <!-- 年龄结构 -->
    <defs>
     <path d="M 74.609375 81.984375 
L 73.140625 78.375 
Q 83.984375 55.609375 98.734375 45.453125 
Q 97.265625 43.40625 94.234375 38.71875 
Q 79.78125 50.734375 70.125 70.453125 
Q 62.890625 51.90625 49.421875 38.234375 
Q 46.875 41.75 44.625 44.1875 
Q 45.40625 44.875 46.1875 45.75 
L 1.765625 45.75 
L 1.765625 52.203125 
L 8.6875 52.203125 
L 8.6875 75.828125 
L 15.328125 75.828125 
L 15.328125 52.203125 
L 24.609375 52.203125 
L 24.609375 82.859375 
L 31.453125 82.859375 
L 31.453125 70.359375 
L 46.875 70.359375 
L 46.875 64.109375 
L 31.453125 64.109375 
L 31.453125 52.203125 
L 48.046875 52.203125 
L 48.046875 47.609375 
Q 61.421875 61.765625 66.890625 81.984375 
z
M 29 43.015625 
Q 29 35.984375 28.328125 30.71875 
Q 33.796875 22.3125 39.453125 11.859375 
L 39.453125 38.921875 
L 46.09375 38.921875 
L 46.09375 -12.546875 
L 39.453125 -12.546875 
L 39.453125 -6.390625 
L 5.28125 -6.984375 
L 5.28125 38.921875 
L 11.921875 38.921875 
L 11.921875 -0.4375 
L 39.453125 -0.140625 
L 39.453125 11.078125 
L 34.28125 7.171875 
Q 30.46875 15.28125 26.5625 22.3125 
Q 23.53125 13.625 16.3125 5.609375 
Q 14.453125 8.734375 12.015625 11.765625 
Q 18.171875 17.53125 20.40625 24.265625 
Q 22.46875 30.21875 22.46875 43.015625 
z
M 57.234375 13.921875 
Q 62.796875 9.71875 68.84375 5.125 
L 84.28125 25.4375 
L 49.421875 25.4375 
L 49.421875 32.078125 
L 92.96875 32.078125 
L 92.96875 25.4375 
L 74.515625 0.734375 
Q 79.59375 -3.171875 84.96875 -7.46875 
L 79.78125 -13.625 
Q 68.171875 -3.265625 52.546875 8.546875 
z
M 63.28125 50.734375 
L 69.140625 53.765625 
Q 75.59375 42.71875 77.34375 38.328125 
L 70.90625 35.015625 
Q 68.171875 41.65625 63.28125 50.734375 
z
" id="MicrosoftYaHei-9f84"/>
     <path d="M 41.015625 26.703125 
L 92.578125 26.703125 
L 92.578125 -12.9375 
L 84.96875 -12.9375 
L 84.96875 -6.890625 
L 48.640625 -6.890625 
L 48.640625 -12.9375 
L 41.015625 -12.9375 
z
M 39.0625 45.265625 
L 62.890625 45.265625 
L 62.890625 60.5 
L 35.84375 60.5 
L 35.84375 67.53125 
L 62.890625 67.53125 
L 62.890625 83.15625 
L 70.703125 83.15625 
L 70.703125 67.53125 
L 98.046875 67.53125 
L 98.046875 60.5 
L 70.703125 60.5 
L 70.703125 45.265625 
L 94.625 45.265625 
L 94.625 38.234375 
L 39.0625 38.234375 
z
M 13.96875 24.46875 
Q 26.953125 26.3125 35.453125 27.78125 
Q 34.859375 23.96875 34.578125 20.359375 
Q 23.734375 18.796875 4.984375 15.765625 
L 3.421875 23 
Q 9.671875 29.5 18.3125 43.609375 
Q 10.109375 43.0625 3.421875 42.53125 
L 1.5625 49.171875 
Q 10.546875 61.1875 20.21875 83.84375 
L 27.640625 80.90625 
Q 17.09375 60.203125 10.359375 49.75 
Q 16.015625 49.90625 22.171875 50.09375 
Q 25.484375 55.765625 29.109375 62.453125 
L 36.328125 58.84375 
Q 25.203125 40.28125 13.96875 24.46875 
z
M 84.96875 19.875 
L 48.640625 19.875 
L 48.640625 -0.046875 
L 84.96875 -0.046875 
z
M 1.171875 1.421875 
Q 19.234375 4.9375 36.421875 9.125 
Q 36.140625 5.21875 36.140625 1.703125 
Q 20.3125 -1.609375 3.328125 -6.109375 
z
" id="MicrosoftYaHei-7ed3"/>
     <path d="M 33.40625 47.796875 
Q 44.34375 63.234375 50.875 82.953125 
L 58.40625 80.515625 
Q 55.5625 73.78125 52.9375 67.921875 
L 95.015625 67.921875 
Q 93.65625 18.015625 93.0625 6.203125 
Q 92.578125 -4.046875 88.375 -7.859375 
Q 84.375 -11.671875 73.921875 -11.671875 
Q 66.21875 -11.671875 57.8125 -11.1875 
Q 57.234375 -7.28125 56.15625 -2.59375 
Q 65.828125 -3.65625 73.640625 -3.859375 
Q 80.375 -3.953125 82.71875 -1.515625 
Q 85.15625 0.53125 85.453125 7.375 
Q 86.140625 20.5625 87.109375 60.796875 
L 49.515625 60.796875 
Q 44.34375 50.640625 39.453125 43.703125 
Q 37.015625 45.5625 33.40625 47.796875 
z
M 1.265625 21.234375 
Q 11.421875 37.0625 15.625 55.90625 
L 1.953125 55.90625 
L 1.953125 62.453125 
L 15.71875 62.453125 
L 15.71875 81.78125 
L 22.46875 81.78125 
L 22.46875 62.453125 
L 35.15625 62.453125 
L 35.15625 55.90625 
L 22.46875 55.90625 
L 22.46875 42.71875 
L 25.203125 45.5625 
Q 31.84375 39.5 38.96875 32.671875 
L 33.796875 27.296875 
Q 27.734375 34.234375 22.46875 39.3125 
L 22.46875 -13.03125 
L 15.71875 -13.03125 
L 15.71875 37.25 
Q 10.9375 22.015625 4.390625 12.640625 
Q 3.125 16.84375 1.265625 21.234375 
z
M 61.328125 35.203125 
L 67.28125 38.328125 
Q 74.421875 26.03125 82.03125 11.46875 
L 75.09375 7.765625 
Q 73.921875 10.40625 72.65625 13.03125 
Q 59.96875 12.25 47.65625 11.28125 
Q 44.625 10.984375 39.0625 9.8125 
L 35.75 16.84375 
Q 38.875 19 41.015625 22.125 
Q 49.03125 34.71875 56.84375 53.078125 
L 64.15625 50.046875 
Q 58.40625 37.359375 46.578125 18.3125 
Q 60.640625 18.703125 69.734375 19.09375 
Q 65.828125 27.203125 61.328125 35.203125 
z
" id="MicrosoftYaHei-6784"/>
    </defs>
    <g transform="translate(418.8 45.84)scale(0.12 -0.12)">
     <use xlink:href="#MicrosoftYaHei-5e74"/>
     <use x="100" xlink:href="#MicrosoftYaHei-9f84"/>
     <use x="200" xlink:href="#MicrosoftYaHei-7ed3"/>
     <use x="300" xlink:href="#MicrosoftYaHei-6784"/>
    </g>
   </g>
   <g id="legend_2">
    <g id="patch_105">
     <path d="M 444.8 151.632 
L 542.378125 151.632 
Q 544.378125 151.632 544.378125 149.632 
L 544.378125 104.192937 
Q 544.378125 102.192937 542.378125 102.192937 
L 444.8 102.192937 
Q 442.8 102.192937 442.8 104.192937 
L 442.8 149.632 
Q 442.8 151.632 444.8 151.632 
z
" style="fill:#ffffff;opacity:0.8;stroke:#cccccc;stroke-linejoin:miter;"/>
    </g>
    <g id="line2d_82">
     <path d="M 446.8 110.686688 
L 466.8 110.686688 
" style="fill:none;stroke:#000000;stroke-linecap:square;stroke-width:1.5;"/>
    </g>
    <g id="line2d_83">
     <g>
      <use style="stroke:#000000;" x="456.8" xlink:href="#me3506ca66e" y="110.686688"/>
     </g>
    </g>
    <g id="text_48">
     <!-- 总抚养比(%) -->
     <defs>
      <path d="M 14.0625 66.453125 
L 56.734375 66.453125 
Q 62.84375 75.34375 67.671875 83.640625 
L 75.203125 79.734375 
Q 70.3125 73.046875 65.234375 66.453125 
L 85.9375 66.453125 
L 85.9375 26.609375 
L 78.125 26.609375 
L 78.125 30.90625 
L 21.875 30.90625 
L 21.875 26.609375 
L 14.0625 26.609375 
z
M 78.125 59.421875 
L 21.875 59.421875 
L 21.875 37.9375 
L 78.125 37.9375 
z
M 26.46875 21.53125 
L 34.078125 21.53125 
L 34.078125 4.4375 
Q 34.078125 -3.171875 40.921875 -3.171875 
L 60.546875 -3.171875 
Q 66.3125 -3.171875 67.78125 2.6875 
Q 68.65625 5.71875 69.53125 13.625 
Q 72.359375 12.359375 77.046875 10.6875 
Q 75.78125 3.265625 74.21875 -1.515625 
Q 71.1875 -10.015625 60.9375 -10.015625 
L 39.359375 -10.015625 
Q 26.46875 -10.015625 26.46875 3.078125 
z
M 11.234375 22.21875 
L 18.5625 19.875 
Q 14.546875 7.671875 8.40625 -5.21875 
Q 5.28125 -3.859375 1.265625 -2.09375 
Q 6.9375 9.328125 11.234375 22.21875 
z
M 76.265625 18.796875 
L 81.84375 23.09375 
Q 90.828125 13.140625 98.734375 3.078125 
L 92.1875 -2.09375 
Q 85.25 7.671875 76.265625 18.796875 
z
M 41.609375 24.859375 
L 47.5625 28.765625 
Q 54.5 21.4375 60.359375 13.140625 
L 53.8125 8.546875 
Q 47.953125 17.328125 41.609375 24.859375 
z
M 24.90625 79.828125 
L 30.859375 83.640625 
Q 36.71875 77.484375 41.40625 70.953125 
L 34.765625 66.65625 
Q 30.5625 72.703125 24.90625 79.828125 
z
" id="MicrosoftYaHei-603b"/>
      <path d="M 35.546875 44.28125 
L 54.109375 44.28125 
Q 55.28125 53.953125 55.375 68.5 
L 38.578125 68.5 
L 38.578125 75.734375 
L 93.359375 75.734375 
L 93.359375 68.5 
L 62.984375 68.5 
Q 62.890625 54.25 61.8125 44.28125 
L 96.875 44.28125 
L 96.875 37.0625 
L 60.84375 37.0625 
Q 55.859375 4.9375 31.84375 -12.453125 
Q 29.6875 -8.734375 26.65625 -5.421875 
Q 48.34375 9.421875 53.03125 37.0625 
L 35.546875 37.0625 
z
M 1.375 29.046875 
Q 8.296875 30.90625 15.4375 33.0625 
L 15.4375 56.296875 
L 2.4375 56.296875 
L 2.4375 63.03125 
L 15.4375 63.03125 
L 15.4375 81.984375 
L 22.953125 81.984375 
L 22.953125 63.03125 
L 34.375 63.03125 
L 34.375 56.296875 
L 22.953125 56.296875 
L 22.953125 35.5 
Q 28.125 37.15625 33.5 39.015625 
Q 33.5 34.328125 33.6875 31.390625 
Q 28.609375 29.828125 22.953125 27.984375 
L 22.953125 -1.21875 
Q 22.953125 -11.96875 13.484375 -11.96875 
Q 9.765625 -11.96875 3.71875 -11.859375 
Q 3.21875 -7.953125 2.4375 -3.953125 
Q 7.71875 -4.546875 11.625 -4.546875 
Q 15.4375 -4.546875 15.4375 0.140625 
L 15.4375 25.4375 
Q 9.1875 23.390625 2.34375 20.953125 
z
M 64.75 31.890625 
L 72.265625 31.890625 
L 72.265625 2.09375 
Q 72.265625 -2.984375 76.859375 -2.984375 
L 84.578125 -2.984375 
Q 89.0625 -2.984375 89.84375 2.390625 
Q 90.53125 7.078125 91.015625 14.015625 
Q 94.53125 12.453125 98.53125 11.1875 
Q 97.859375 5.03125 96.96875 -0.046875 
Q 95.21875 -10.40625 86.234375 -10.40625 
L 75.203125 -10.40625 
Q 64.75 -10.40625 64.75 1.125 
z
" id="MicrosoftYaHei-629a"/>
      <path d="M 61.71875 21.046875 
L 69.234375 21.046875 
Q 62.40625 25.640625 57.328125 31.984375 
L 43.84375 31.984375 
Q 39.84375 26.3125 31.0625 20.953125 
L 37.5 20.953125 
Q 37.5 6.203125 32.8125 -0.4375 
Q 28.328125 -7.28125 13.578125 -14.015625 
Q 11.625 -10.890625 8.6875 -7.375 
Q 22.75 -1.515625 26.078125 3.46875 
Q 29.78125 7.765625 29.890625 20.171875 
Q 20.609375 14.796875 6.453125 9.71875 
Q 4.5 13.140625 1.65625 16.65625 
Q 24.8125 23.296875 33.890625 31.984375 
L 3.71875 31.984375 
L 3.71875 38.71875 
L 39.0625 38.71875 
Q 41.3125 42.53125 42.671875 47.796875 
L 11.8125 47.796875 
L 11.8125 54.546875 
L 43.953125 54.546875 
Q 44.4375 58.640625 44.53125 63.421875 
L 8.296875 63.421875 
L 8.296875 70.171875 
L 33.40625 70.171875 
Q 29.6875 74.75 25.59375 78.859375 
L 30.671875 83.34375 
Q 35.9375 78.953125 40.625 73.6875 
L 36.71875 70.171875 
L 57.8125 70.171875 
Q 62.203125 75.4375 68.0625 83.453125 
L 74.90625 79.15625 
Q 71 74.5625 66.703125 70.171875 
L 91.703125 70.171875 
L 91.703125 63.421875 
L 52.15625 63.421875 
Q 51.953125 58.640625 51.46875 54.546875 
L 87.015625 54.546875 
L 87.015625 47.796875 
L 50.390625 47.796875 
Q 49.3125 42.625 47.65625 38.71875 
L 96.296875 38.71875 
L 96.296875 31.984375 
L 66.796875 31.984375 
Q 78.03125 21.828125 98.4375 18.796875 
Q 96.09375 14.796875 93.953125 10.6875 
Q 79.59375 14.015625 69.34375 20.953125 
L 69.34375 -13.421875 
L 61.71875 -13.421875 
z
" id="MicrosoftYaHei-517b"/>
      <path d="M 50.390625 83.0625 
L 58.5 83.0625 
L 58.5 41.75 
Q 77.484375 55.46875 89.75 70.453125 
L 96.6875 65.28125 
Q 80.859375 47.859375 58.5 32.125 
L 58.5 3.859375 
Q 58.5 -2.59375 64.15625 -2.59375 
L 80.859375 -2.59375 
Q 87.3125 -2.59375 88.28125 3.171875 
Q 89.453125 10.59375 90.046875 19.484375 
Q 94.140625 17.921875 98.4375 16.65625 
Q 97.5625 7.5625 96.09375 0.34375 
Q 94.046875 -9.71875 83.109375 -9.71875 
L 61.625 -9.71875 
Q 50.390625 -9.71875 50.390625 2.484375 
z
M 16.609375 80.515625 
L 16.609375 51.21875 
L 44.140625 51.21875 
L 44.140625 43.890625 
L 16.609375 43.890625 
L 16.609375 2.390625 
Q 26.765625 6.6875 43.171875 14.5 
Q 43.171875 9.90625 43.5625 5.71875 
Q 29.203125 -0.046875 19.234375 -5.125 
Q 14.9375 -7.375 11.328125 -10.5 
L 5.375 -2.875 
Q 8.5 -0.53125 8.5 4.25 
L 8.5 80.515625 
z
" id="MicrosoftYaHei-6bd4"/>
      <path d="M 23.921875 -17.1875 
Q 7.46875 1.5625 7.46875 28.859375 
Q 7.46875 56.15625 23.921875 75.640625 
L 32.375 75.640625 
Q 15.875 55.375 15.875 28.953125 
Q 15.875 2.59375 32.28125 -17.1875 
z
" id="MicrosoftYaHei-28"/>
      <path d="M 4.25 56.546875 
Q 4.25 65.828125 9.203125 71.296875 
Q 14.15625 76.765625 22.5625 76.765625 
Q 30.609375 76.765625 35.125 71.734375 
Q 39.65625 66.703125 39.65625 57.71875 
Q 39.65625 48.78125 34.671875 43.203125 
Q 29.6875 37.640625 21.4375 37.640625 
Q 13.625 37.640625 8.9375 42.8125 
Q 4.25 48 4.25 56.546875 
z
M 11.765625 57.03125 
Q 11.765625 50.734375 14.5 47.3125 
Q 17.234375 43.890625 21.96875 43.890625 
Q 26.859375 43.890625 29.515625 47.4375 
Q 32.171875 50.984375 32.171875 57.421875 
Q 32.171875 63.71875 29.5625 67.15625 
Q 26.953125 70.609375 22.21875 70.609375 
Q 17.390625 70.609375 14.578125 67.015625 
Q 11.765625 63.421875 11.765625 57.03125 
z
M 72.609375 75.640625 
L 24.03125 -0.484375 
L 15.875 -0.484375 
L 64.453125 75.640625 
z
M 49.5625 17.71875 
Q 49.5625 27 54.515625 32.546875 
Q 59.46875 38.09375 67.828125 38.09375 
Q 75.828125 38.09375 80.359375 33.03125 
Q 84.90625 27.984375 84.90625 18.796875 
Q 84.90625 9.90625 79.875 4.359375 
Q 74.859375 -1.171875 66.75 -1.171875 
Q 58.890625 -1.171875 54.21875 4.078125 
Q 49.5625 9.328125 49.5625 17.71875 
z
M 57.03125 18.171875 
Q 57.03125 12.015625 59.765625 8.5625 
Q 62.5 5.125 67.234375 5.125 
Q 72.125 5.125 74.78125 8.6875 
Q 77.4375 12.25 77.4375 18.65625 
Q 77.4375 25 74.78125 28.359375 
Q 72.125 31.734375 67.484375 31.734375 
Q 62.5 31.734375 59.765625 28.140625 
Q 57.03125 24.5625 57.03125 18.171875 
z
" id="MicrosoftYaHei-25"/>
      <path d="M 1.21875 -17.1875 
Q 17.671875 2.546875 17.671875 28.953125 
Q 17.671875 55.421875 1.125 75.640625 
L 9.625 75.640625 
Q 26.125 56.296875 26.125 28.859375 
Q 26.125 1.421875 9.625 -17.1875 
z
" id="MicrosoftYaHei-29"/>
     </defs>
     <g transform="translate(474.8 114.186688)scale(0.1 -0.1)">
      <use xlink:href="#MicrosoftYaHei-603b"/>
      <use x="100" xlink:href="#MicrosoftYaHei-629a"/>
      <use x="200" xlink:href="#MicrosoftYaHei-517b"/>
      <use x="300" xlink:href="#MicrosoftYaHei-6bd4"/>
      <use x="400" xlink:href="#MicrosoftYaHei-28"/>
      <use x="433.398438" xlink:href="#MicrosoftYaHei-25"/>
      <use x="522.363281" xlink:href="#MicrosoftYaHei-29"/>
     </g>
    </g>
    <g id="line2d_84">
     <path d="M 446.8 126.166375 
L 466.8 126.166375 
" style="fill:none;stroke:#3333ff;stroke-linecap:square;stroke-width:1.5;"/>
    </g>
    <g id="line2d_85">
     <g>
      <use style="fill:#3333ff;stroke:#3333ff;" x="456.8" xlink:href="#m38236e8985" y="126.166375"/>
     </g>
    </g>
    <g id="text_49">
     <!-- 少儿抚养比(%) -->
     <defs>
      <path d="M 25.484375 69.1875 
L 33.5 66.0625 
Q 22.859375 42.53125 10.453125 23.1875 
Q 7.421875 25.140625 3.125 27.59375 
Q 15.53125 45.5625 25.484375 69.1875 
z
M 64.65625 66.65625 
L 70.796875 71.34375 
Q 86.421875 54.546875 98.921875 39.5 
L 91.890625 33.84375 
Q 78.21875 51.21875 64.65625 66.65625 
z
M 45.703125 82.5625 
L 54.109375 82.5625 
L 54.109375 21.234375 
L 45.703125 21.234375 
z
M 77.9375 37.75 
L 85.0625 33.0625 
Q 56.734375 -3.375 6.453125 -13.421875 
Q 4.296875 -9.515625 1.5625 -5.609375 
Q 52.34375 4.25 77.9375 37.75 
z
" id="MicrosoftYaHei-5c11"/>
      <path d="M 26.46875 80.609375 
L 34.859375 80.609375 
L 34.859375 48.09375 
Q 34.859375 24.078125 29.5 13.234375 
Q 24.03125 0.828125 7.234375 -12.25 
Q 4.984375 -9.234375 1.375 -5.03125 
Q 16.796875 6.5 21.6875 17.4375 
Q 26.46875 26.703125 26.46875 48.09375 
z
M 56.84375 81.296875 
L 65.234375 81.296875 
L 65.234375 6 
Q 65.046875 -1.90625 73.828125 -1.703125 
L 79.5 -1.703125 
Q 87.40625 -1.703125 88.375 5.515625 
Q 89.453125 12.75 89.9375 24.65625 
Q 94.046875 23 98.640625 21.4375 
Q 97.65625 9.328125 96.484375 2.78125 
Q 94.734375 -9.421875 81.0625 -9.421875 
L 71.96875 -9.421875 
Q 56.34375 -9.90625 56.84375 5.21875 
z
" id="MicrosoftYaHei-513f"/>
     </defs>
     <g transform="translate(474.8 129.666375)scale(0.1 -0.1)">
      <use xlink:href="#MicrosoftYaHei-5c11"/>
      <use x="100" xlink:href="#MicrosoftYaHei-513f"/>
      <use x="200" xlink:href="#MicrosoftYaHei-629a"/>
      <use x="300" xlink:href="#MicrosoftYaHei-517b"/>
      <use x="400" xlink:href="#MicrosoftYaHei-6bd4"/>
      <use x="500" xlink:href="#MicrosoftYaHei-28"/>
      <use x="533.398438" xlink:href="#MicrosoftYaHei-25"/>
      <use x="622.363281" xlink:href="#MicrosoftYaHei-29"/>
     </g>
    </g>
    <g id="line2d_86">
     <path d="M 446.8 141.646063 
L 466.8 141.646063 
" style="fill:none;stroke:#aaffaa;stroke-linecap:square;stroke-width:1.5;"/>
    </g>
    <g id="line2d_87">
     <g>
      <use style="fill:#aaffaa;stroke:#aaffaa;" x="456.8" xlink:href="#m53e0d31178" y="141.646063"/>
     </g>
    </g>
    <g id="text_50">
     <!-- 老年抚养比(%) -->
     <defs>
      <path d="M 3.328125 49.078125 
L 38.671875 49.078125 
L 38.671875 63.328125 
L 13.875 63.328125 
L 13.875 70.359375 
L 38.671875 70.359375 
L 38.671875 83.0625 
L 46.296875 83.0625 
L 46.296875 70.359375 
L 70.703125 70.359375 
L 70.703125 63.328125 
L 46.296875 63.328125 
L 46.296875 49.078125 
L 59.90625 49.078125 
Q 73.046875 58.546875 85.453125 72.796875 
L 91.40625 67.53125 
Q 81.84375 56.78125 72.75 49.078125 
L 97.078125 49.078125 
L 97.078125 42.046875 
L 63.671875 42.046875 
Q 51.609375 33.546875 34.375 25.53125 
L 34.375 16.40625 
Q 58.296875 21.96875 77.546875 29.734375 
L 80.671875 22.40625 
Q 59.234375 15.046875 34.375 9.078125 
L 34.375 3.078125 
Q 34.375 -1.90625 39.0625 -2 
L 71.1875 -2 
Q 78.71875 -2 79.890625 5.03125 
Q 80.671875 9.625 81.453125 19.484375 
Q 85.359375 17.921875 89.65625 16.359375 
Q 88.375 6.296875 87.5 1.703125 
Q 85.359375 -9.234375 72.65625 -9.234375 
L 37.796875 -9.234375 
Q 26.765625 -9.234375 26.765625 2.78125 
L 26.765625 22.125 
Q 16.796875 17.875 5.28125 13.71875 
Q 3.328125 17.71875 1.265625 21.234375 
Q 29.984375 30.515625 49.21875 42.046875 
L 3.328125 42.046875 
z
" id="MicrosoftYaHei-8001"/>
     </defs>
     <g transform="translate(474.8 145.146063)scale(0.1 -0.1)">
      <use xlink:href="#MicrosoftYaHei-8001"/>
      <use x="100" xlink:href="#MicrosoftYaHei-5e74"/>
      <use x="200" xlink:href="#MicrosoftYaHei-629a"/>
      <use x="300" xlink:href="#MicrosoftYaHei-517b"/>
      <use x="400" xlink:href="#MicrosoftYaHei-6bd4"/>
      <use x="500" xlink:href="#MicrosoftYaHei-28"/>
      <use x="533.398438" xlink:href="#MicrosoftYaHei-25"/>
      <use x="622.363281" xlink:href="#MicrosoftYaHei-29"/>
     </g>
    </g>
   </g>
  </g>
 </g>
 <defs>
  <clipPath id="pd0b7a7aee1">
   <rect height="332.64" width="669.6" x="108" y="51.84"/>
  </clipPath>
 </defs>
</svg>
