<?xml version="1.0" encoding="utf-8" standalone="no"?>
<!DOCTYPE svg PUBLIC "-//W3C//DTD SVG 1.1//EN"
  "http://www.w3.org/Graphics/SVG/1.1/DTD/svg11.dtd">
<!-- Created with matplotlib (http://matplotlib.org/) -->
<svg height="432pt" version="1.1" viewBox="0 0 864 432" width="864pt" xmlns="http://www.w3.org/2000/svg" xmlns:xlink="http://www.w3.org/1999/xlink">
 <defs>
  <style type="text/css">
*{stroke-linecap:butt;stroke-linejoin:round;}
  </style>
 </defs>
 <g id="figure_1">
  <g id="patch_1">
   <path d="M 0 432 
L 864 432 
L 864 0 
L 0 0 
z
" style="fill:#ffffff;"/>
  </g>
  <g id="axes_1">
   <g id="patch_2">
    <path d="M 108 384.48 
L 777.6 384.48 
L 777.6 51.84 
L 108 51.84 
z
" style="fill:#ffffff;"/>
   </g>
   <g id="matplotlib.axis_1">
    <g id="xtick_1">
     <g id="line2d_1">
      <path clip-path="url(#pd8bc8c2e0d)" d="M 108 384.48 
L 108 51.84 
" style="fill:none;stroke:#b0b0b0;stroke-linecap:square;stroke-width:0.8;"/>
     </g>
     <g id="line2d_2">
      <defs>
       <path d="M 0 0 
L 0 3.5 
" id="m92b69bf2de" style="stroke:#000000;stroke-width:0.8;"/>
      </defs>
      <g>
       <use style="stroke:#000000;stroke-width:0.8;" x="108" xlink:href="#m92b69bf2de" y="384.48"/>
      </g>
     </g>
     <g id="text_1">
      <!-- 1979年 -->
      <defs>
       <path d="M 52.59375 0 
L 9.234375 0 
L 9.234375 8.25 
L 26.171875 8.25 
L 26.171875 65.671875 
L 8.796875 60.640625 
L 8.796875 69.4375 
L 35.6875 77.25 
L 35.6875 8.25 
L 52.59375 8.25 
z
" id="MicrosoftYaHei-31"/>
       <path d="M 9.03125 10.25 
Q 15.28125 6.640625 22.515625 6.640625 
Q 32.671875 6.640625 38.25 14.640625 
Q 43.84375 22.65625 43.84375 37.40625 
Q 43.75 37.3125 43.65625 37.40625 
Q 38.671875 27.9375 26.90625 27.9375 
Q 17.390625 27.9375 11.140625 34.46875 
Q 4.890625 41.015625 4.890625 51.46875 
Q 4.890625 62.59375 11.71875 69.75 
Q 18.5625 76.90625 29.4375 76.90625 
Q 40.71875 76.90625 47.0625 68.046875 
Q 53.421875 59.1875 53.421875 42.234375 
Q 53.421875 21.296875 45.21875 10.015625 
Q 37.015625 -1.265625 22.515625 -1.265625 
Q 14.546875 -1.265625 9.03125 1.3125 
z
M 14.546875 52.6875 
Q 14.546875 45.0625 18.453125 40.59375 
Q 22.359375 36.140625 29.25 36.140625 
Q 35.203125 36.140625 39.25 40.203125 
Q 43.3125 44.28125 43.3125 50.09375 
Q 43.3125 58.25 39.28125 63.59375 
Q 35.25 68.953125 28.65625 68.953125 
Q 22.5625 68.953125 18.546875 64.3125 
Q 14.546875 59.671875 14.546875 52.6875 
z
" id="MicrosoftYaHei-39"/>
       <path d="M 53.765625 72.3125 
L 24.171875 0 
L 14.265625 0 
L 42.390625 67.1875 
L 4.59375 67.1875 
L 4.59375 75.640625 
L 53.765625 75.640625 
z
" id="MicrosoftYaHei-37"/>
       <path d="M 1.859375 19.96875 
L 17.578125 19.96875 
L 17.578125 47.90625 
L 52.15625 47.90625 
L 52.15625 65.28125 
L 23.4375 65.28125 
Q 16.84375 53.421875 8.6875 43.40625 
Q 6.15625 46.140625 2.640625 48.875 
Q 16.5 64.5 23.4375 83.9375 
L 31.453125 81.6875 
Q 29.390625 76.859375 27.15625 72.3125 
L 94.34375 72.3125 
L 94.34375 65.28125 
L 60.0625 65.28125 
L 60.0625 47.90625 
L 92.671875 47.90625 
L 92.671875 41.0625 
L 60.0625 41.0625 
L 60.0625 19.96875 
L 98.734375 19.96875 
L 98.734375 12.9375 
L 60.0625 12.9375 
L 60.0625 -13.421875 
L 52.15625 -13.421875 
L 52.15625 12.9375 
L 1.859375 12.9375 
z
M 25.296875 19.96875 
L 52.15625 19.96875 
L 52.15625 41.0625 
L 25.296875 41.0625 
z
" id="MicrosoftYaHei-5e74"/>
      </defs>
      <g transform="translate(91.271875 399.47375)scale(0.1 -0.1)">
       <use xlink:href="#MicrosoftYaHei-31"/>
       <use x="58.642578" xlink:href="#MicrosoftYaHei-39"/>
       <use x="117.285156" xlink:href="#MicrosoftYaHei-37"/>
       <use x="175.927734" xlink:href="#MicrosoftYaHei-39"/>
       <use x="234.570312" xlink:href="#MicrosoftYaHei-5e74"/>
      </g>
     </g>
    </g>
    <g id="xtick_2">
     <g id="line2d_3">
      <path clip-path="url(#pd8bc8c2e0d)" d="M 193.846154 384.48 
L 193.846154 51.84 
" style="fill:none;stroke:#b0b0b0;stroke-linecap:square;stroke-width:0.8;"/>
     </g>
     <g id="line2d_4">
      <g>
       <use style="stroke:#000000;stroke-width:0.8;" x="193.846154" xlink:href="#m92b69bf2de" y="384.48"/>
      </g>
     </g>
     <g id="text_2">
      <!-- 1984年 -->
      <defs>
       <path d="M 21.390625 39.796875 
Q 7.859375 46.09375 7.859375 58.0625 
Q 7.859375 66.40625 14.203125 71.65625 
Q 20.5625 76.90625 30.421875 76.90625 
Q 39.453125 76.90625 45.3125 71.96875 
Q 51.171875 67.046875 51.171875 59.234375 
Q 51.171875 46.625 37.0625 39.84375 
L 37.0625 39.65625 
Q 53.609375 33.6875 53.609375 19.34375 
Q 53.609375 9.90625 46.796875 4.3125 
Q 39.984375 -1.265625 27.78125 -1.265625 
Q 17.78125 -1.265625 11.46875 4.25 
Q 5.171875 9.765625 5.171875 18.5625 
Q 5.171875 33.015625 21.390625 39.59375 
z
M 41.5 58.109375 
Q 41.5 63.1875 38.328125 66.109375 
Q 35.15625 69.046875 29.734375 69.046875 
Q 24.65625 69.046875 21.09375 65.984375 
Q 17.53125 62.9375 17.53125 58.203125 
Q 17.53125 48.734375 29.390625 43.796875 
Q 41.5 48.828125 41.5 58.109375 
z
M 28.8125 35.25 
Q 14.796875 29.59375 14.796875 19.046875 
Q 14.796875 13.578125 18.890625 10.0625 
Q 23 6.546875 29.59375 6.546875 
Q 35.984375 6.546875 39.984375 10.03125 
Q 44 13.53125 44 18.75 
Q 44 29.734375 28.8125 35.25 
z
" id="MicrosoftYaHei-38"/>
       <path d="M 55.078125 19.625 
L 45.40625 19.625 
L 45.40625 0 
L 36.140625 0 
L 36.140625 19.625 
L 0.875 19.625 
L 0.875 25.828125 
L 34.328125 75.640625 
L 45.40625 75.640625 
L 45.40625 27.203125 
L 55.078125 27.203125 
z
M 36.140625 27.203125 
L 36.140625 58.890625 
Q 36.140625 62.25 36.328125 66.65625 
L 36.140625 66.65625 
Q 35.453125 64.796875 33.25 60.84375 
L 10.75 27.203125 
z
" id="MicrosoftYaHei-34"/>
      </defs>
      <g transform="translate(177.118029 399.47375)scale(0.1 -0.1)">
       <use xlink:href="#MicrosoftYaHei-31"/>
       <use x="58.642578" xlink:href="#MicrosoftYaHei-39"/>
       <use x="117.285156" xlink:href="#MicrosoftYaHei-38"/>
       <use x="175.927734" xlink:href="#MicrosoftYaHei-34"/>
       <use x="234.570312" xlink:href="#MicrosoftYaHei-5e74"/>
      </g>
     </g>
    </g>
    <g id="xtick_3">
     <g id="line2d_5">
      <path clip-path="url(#pd8bc8c2e0d)" d="M 279.692308 384.48 
L 279.692308 51.84 
" style="fill:none;stroke:#b0b0b0;stroke-linecap:square;stroke-width:0.8;"/>
     </g>
     <g id="line2d_6">
      <g>
       <use style="stroke:#000000;stroke-width:0.8;" x="279.692308" xlink:href="#m92b69bf2de" y="384.48"/>
      </g>
     </g>
     <g id="text_3">
      <!-- 1989年 -->
      <g transform="translate(262.964183 399.47375)scale(0.1 -0.1)">
       <use xlink:href="#MicrosoftYaHei-31"/>
       <use x="58.642578" xlink:href="#MicrosoftYaHei-39"/>
       <use x="117.285156" xlink:href="#MicrosoftYaHei-38"/>
       <use x="175.927734" xlink:href="#MicrosoftYaHei-39"/>
       <use x="234.570312" xlink:href="#MicrosoftYaHei-5e74"/>
      </g>
     </g>
    </g>
    <g id="xtick_4">
     <g id="line2d_7">
      <path clip-path="url(#pd8bc8c2e0d)" d="M 365.538462 384.48 
L 365.538462 51.84 
" style="fill:none;stroke:#b0b0b0;stroke-linecap:square;stroke-width:0.8;"/>
     </g>
     <g id="line2d_8">
      <g>
       <use style="stroke:#000000;stroke-width:0.8;" x="365.538462" xlink:href="#m92b69bf2de" y="384.48"/>
      </g>
     </g>
     <g id="text_4">
      <!-- 1994年 -->
      <g transform="translate(348.810337 399.47375)scale(0.1 -0.1)">
       <use xlink:href="#MicrosoftYaHei-31"/>
       <use x="58.642578" xlink:href="#MicrosoftYaHei-39"/>
       <use x="117.285156" xlink:href="#MicrosoftYaHei-39"/>
       <use x="175.927734" xlink:href="#MicrosoftYaHei-34"/>
       <use x="234.570312" xlink:href="#MicrosoftYaHei-5e74"/>
      </g>
     </g>
    </g>
    <g id="xtick_5">
     <g id="line2d_9">
      <path clip-path="url(#pd8bc8c2e0d)" d="M 451.384615 384.48 
L 451.384615 51.84 
" style="fill:none;stroke:#b0b0b0;stroke-linecap:square;stroke-width:0.8;"/>
     </g>
     <g id="line2d_10">
      <g>
       <use style="stroke:#000000;stroke-width:0.8;" x="451.384615" xlink:href="#m92b69bf2de" y="384.48"/>
      </g>
     </g>
     <g id="text_5">
      <!-- 1999年 -->
      <g transform="translate(434.65649 399.47375)scale(0.1 -0.1)">
       <use xlink:href="#MicrosoftYaHei-31"/>
       <use x="58.642578" xlink:href="#MicrosoftYaHei-39"/>
       <use x="117.285156" xlink:href="#MicrosoftYaHei-39"/>
       <use x="175.927734" xlink:href="#MicrosoftYaHei-39"/>
       <use x="234.570312" xlink:href="#MicrosoftYaHei-5e74"/>
      </g>
     </g>
    </g>
    <g id="xtick_6">
     <g id="line2d_11">
      <path clip-path="url(#pd8bc8c2e0d)" d="M 537.230769 384.48 
L 537.230769 51.84 
" style="fill:none;stroke:#b0b0b0;stroke-linecap:square;stroke-width:0.8;"/>
     </g>
     <g id="line2d_12">
      <g>
       <use style="stroke:#000000;stroke-width:0.8;" x="537.230769" xlink:href="#m92b69bf2de" y="384.48"/>
      </g>
     </g>
     <g id="text_6">
      <!-- 2004年 -->
      <defs>
       <path d="M 51.171875 0 
L 5.171875 0 
L 5.171875 8.296875 
L 27.15625 30.21875 
Q 36.234375 39.3125 39.3125 44.609375 
Q 42.390625 49.90625 42.390625 55.5625 
Q 42.390625 62.015625 38.765625 65.453125 
Q 35.15625 68.890625 28.328125 68.890625 
Q 18.21875 68.890625 9.03125 60.296875 
L 9.03125 70.015625 
Q 17.96875 76.90625 29.828125 76.90625 
Q 40.046875 76.90625 45.953125 71.390625 
Q 51.859375 65.875 51.859375 56.546875 
Q 51.859375 49.515625 48.0625 42.75 
Q 44.28125 35.984375 33.734375 25.53125 
L 16.5 8.6875 
L 16.5 8.5 
L 51.171875 8.5 
z
" id="MicrosoftYaHei-32"/>
       <path d="M 4.4375 36.328125 
Q 4.4375 56.34375 11.078125 66.625 
Q 17.71875 76.90625 30.328125 76.90625 
Q 54.34375 76.90625 54.34375 38.140625 
Q 54.34375 19 47.578125 8.859375 
Q 40.828125 -1.265625 28.609375 -1.265625 
Q 17.09375 -1.265625 10.765625 8.34375 
Q 4.4375 17.96875 4.4375 36.328125 
z
M 14.203125 36.765625 
Q 14.203125 6.640625 29.5 6.640625 
Q 44.53125 6.640625 44.53125 37.25 
Q 44.53125 68.953125 29.78125 68.953125 
Q 14.203125 68.953125 14.203125 36.765625 
z
" id="MicrosoftYaHei-30"/>
      </defs>
      <g transform="translate(520.502644 399.47375)scale(0.1 -0.1)">
       <use xlink:href="#MicrosoftYaHei-32"/>
       <use x="58.642578" xlink:href="#MicrosoftYaHei-30"/>
       <use x="117.285156" xlink:href="#MicrosoftYaHei-30"/>
       <use x="175.927734" xlink:href="#MicrosoftYaHei-34"/>
       <use x="234.570312" xlink:href="#MicrosoftYaHei-5e74"/>
      </g>
     </g>
    </g>
    <g id="xtick_7">
     <g id="line2d_13">
      <path clip-path="url(#pd8bc8c2e0d)" d="M 623.076923 384.48 
L 623.076923 51.84 
" style="fill:none;stroke:#b0b0b0;stroke-linecap:square;stroke-width:0.8;"/>
     </g>
     <g id="line2d_14">
      <g>
       <use style="stroke:#000000;stroke-width:0.8;" x="623.076923" xlink:href="#m92b69bf2de" y="384.48"/>
      </g>
     </g>
     <g id="text_7">
      <!-- 2009年 -->
      <g transform="translate(606.348798 399.47375)scale(0.1 -0.1)">
       <use xlink:href="#MicrosoftYaHei-32"/>
       <use x="58.642578" xlink:href="#MicrosoftYaHei-30"/>
       <use x="117.285156" xlink:href="#MicrosoftYaHei-30"/>
       <use x="175.927734" xlink:href="#MicrosoftYaHei-39"/>
       <use x="234.570312" xlink:href="#MicrosoftYaHei-5e74"/>
      </g>
     </g>
    </g>
    <g id="xtick_8">
     <g id="line2d_15">
      <path clip-path="url(#pd8bc8c2e0d)" d="M 708.923077 384.48 
L 708.923077 51.84 
" style="fill:none;stroke:#b0b0b0;stroke-linecap:square;stroke-width:0.8;"/>
     </g>
     <g id="line2d_16">
      <g>
       <use style="stroke:#000000;stroke-width:0.8;" x="708.923077" xlink:href="#m92b69bf2de" y="384.48"/>
      </g>
     </g>
     <g id="text_8">
      <!-- 2014年 -->
      <g transform="translate(692.194952 399.47375)scale(0.1 -0.1)">
       <use xlink:href="#MicrosoftYaHei-32"/>
       <use x="58.642578" xlink:href="#MicrosoftYaHei-30"/>
       <use x="117.285156" xlink:href="#MicrosoftYaHei-31"/>
       <use x="175.927734" xlink:href="#MicrosoftYaHei-34"/>
       <use x="234.570312" xlink:href="#MicrosoftYaHei-5e74"/>
      </g>
     </g>
    </g>
    <g id="text_9">
     <!-- 时间 -->
     <defs>
      <path d="M 5.375 73.875 
L 39.0625 73.875 
L 39.0625 -5.71875 
L 31.34375 -5.71875 
L 31.34375 2.390625 
L 13.09375 2.390625 
L 13.09375 -6.890625 
L 5.375 -6.890625 
z
M 42.28125 61.578125 
L 76.953125 61.578125 
L 76.953125 83.15625 
L 84.765625 83.15625 
L 84.765625 61.578125 
L 98.640625 61.578125 
L 98.640625 54.34375 
L 84.765625 54.34375 
L 84.765625 1.8125 
Q 84.765625 -11.28125 72.265625 -11.28125 
Q 66.609375 -11.28125 55.671875 -10.984375 
Q 55.171875 -7.46875 54.109375 -2.78125 
Q 64.359375 -3.5625 70.125 -3.5625 
Q 76.953125 -3.5625 76.953125 3.375 
L 76.953125 54.34375 
L 42.28125 54.34375 
z
M 13.09375 9.625 
L 31.34375 9.625 
L 31.34375 34.90625 
L 13.09375 34.90625 
z
M 31.34375 66.65625 
L 13.09375 66.65625 
L 13.09375 41.9375 
L 31.34375 41.9375 
z
M 53.21875 44.96875 
Q 61.03125 30.71875 65.046875 22.21875 
Q 62.5 21.046875 57.234375 18.3125 
Q 53.421875 27.59375 46.296875 41.453125 
z
" id="MicrosoftYaHei-65f6"/>
      <path d="M 29.109375 56.984375 
L 70.515625 56.984375 
L 70.515625 8.640625 
L 36.140625 8.640625 
L 36.140625 2.59375 
L 29.109375 2.59375 
z
M 37.3125 69.578125 
L 37.3125 76.90625 
L 93.953125 76.90625 
L 93.953125 -0.4375 
Q 93.953125 -12.75 79.984375 -12.75 
Q 74.3125 -12.75 65.140625 -12.546875 
Q 64.75 -9.625 63.578125 -4.640625 
Q 71.6875 -5.21875 79 -5.21875 
Q 86.328125 -5.21875 86.328125 1.90625 
L 86.328125 69.578125 
z
M 6.546875 63.8125 
L 14.15625 63.8125 
L 14.15625 -12.75 
L 6.546875 -12.75 
z
M 36.140625 15.578125 
L 63.484375 15.578125 
L 63.484375 29.4375 
L 36.140625 29.4375 
z
M 63.484375 50.046875 
L 36.140625 50.046875 
L 36.140625 36.375 
L 63.484375 36.375 
z
M 11.625 78.171875 
L 17.1875 83.15625 
Q 24.609375 76.125 30.953125 69.484375 
L 24.609375 63.921875 
Q 18.65625 70.953125 11.625 78.171875 
z
" id="MicrosoftYaHei-95f4"/>
     </defs>
     <g transform="translate(432.8 413.953438)scale(0.1 -0.1)">
      <use xlink:href="#MicrosoftYaHei-65f6"/>
      <use x="100" xlink:href="#MicrosoftYaHei-95f4"/>
     </g>
    </g>
   </g>
   <g id="matplotlib.axis_2">
    <g id="ytick_1">
     <g id="line2d_17">
      <path clip-path="url(#pd8bc8c2e0d)" d="M 108 369.509971 
L 777.6 369.509971 
" style="fill:none;stroke:#b0b0b0;stroke-linecap:square;stroke-width:0.8;"/>
     </g>
     <g id="line2d_18">
      <defs>
       <path d="M 0 0 
L -3.5 0 
" id="mf2608a0c07" style="stroke:#000000;stroke-width:0.8;"/>
      </defs>
      <g>
       <use style="stroke:#000000;stroke-width:0.8;" x="108" xlink:href="#mf2608a0c07" y="369.509971"/>
      </g>
     </g>
     <g id="text_10">
      <!-- 0 -->
      <g transform="translate(95.135937 373.506846)scale(0.1 -0.1)">
       <use xlink:href="#MicrosoftYaHei-30"/>
      </g>
     </g>
    </g>
    <g id="ytick_2">
     <g id="line2d_19">
      <path clip-path="url(#pd8bc8c2e0d)" d="M 108 307.943495 
L 777.6 307.943495 
" style="fill:none;stroke:#b0b0b0;stroke-linecap:square;stroke-width:0.8;"/>
     </g>
     <g id="line2d_20">
      <g>
       <use style="stroke:#000000;stroke-width:0.8;" x="108" xlink:href="#mf2608a0c07" y="307.943495"/>
      </g>
     </g>
     <g id="text_11">
      <!-- 5 -->
      <defs>
       <path d="M 8.640625 11.625 
Q 16.265625 6.640625 24.515625 6.640625 
Q 32.328125 6.640625 37.109375 11 
Q 41.890625 15.375 41.890625 22.609375 
Q 41.890625 29.890625 37.03125 33.890625 
Q 32.171875 37.890625 22.953125 37.890625 
Q 18.5 37.890625 10.984375 37.203125 
L 10.984375 75.640625 
L 48.1875 75.640625 
L 48.1875 67.1875 
L 19.875 67.1875 
L 19.875 45.796875 
Q 24.125 46.046875 26.265625 46.046875 
Q 38.234375 46.046875 44.921875 39.984375 
Q 51.609375 33.9375 51.609375 23.296875 
Q 51.609375 12.3125 44.421875 5.515625 
Q 37.25 -1.265625 24.609375 -1.265625 
Q 14.015625 -1.265625 8.640625 1.859375 
z
" id="MicrosoftYaHei-35"/>
      </defs>
      <g transform="translate(95.135937 311.94037)scale(0.1 -0.1)">
       <use xlink:href="#MicrosoftYaHei-35"/>
      </g>
     </g>
    </g>
    <g id="ytick_3">
     <g id="line2d_21">
      <path clip-path="url(#pd8bc8c2e0d)" d="M 108 246.377019 
L 777.6 246.377019 
" style="fill:none;stroke:#b0b0b0;stroke-linecap:square;stroke-width:0.8;"/>
     </g>
     <g id="line2d_22">
      <g>
       <use style="stroke:#000000;stroke-width:0.8;" x="108" xlink:href="#mf2608a0c07" y="246.377019"/>
      </g>
     </g>
     <g id="text_12">
      <!-- 10 -->
      <g transform="translate(89.271875 250.373894)scale(0.1 -0.1)">
       <use xlink:href="#MicrosoftYaHei-31"/>
       <use x="58.642578" xlink:href="#MicrosoftYaHei-30"/>
      </g>
     </g>
    </g>
    <g id="ytick_4">
     <g id="line2d_23">
      <path clip-path="url(#pd8bc8c2e0d)" d="M 108 184.810543 
L 777.6 184.810543 
" style="fill:none;stroke:#b0b0b0;stroke-linecap:square;stroke-width:0.8;"/>
     </g>
     <g id="line2d_24">
      <g>
       <use style="stroke:#000000;stroke-width:0.8;" x="108" xlink:href="#mf2608a0c07" y="184.810543"/>
      </g>
     </g>
     <g id="text_13">
      <!-- 15 -->
      <g transform="translate(89.271875 188.807418)scale(0.1 -0.1)">
       <use xlink:href="#MicrosoftYaHei-31"/>
       <use x="58.642578" xlink:href="#MicrosoftYaHei-35"/>
      </g>
     </g>
    </g>
    <g id="ytick_5">
     <g id="line2d_25">
      <path clip-path="url(#pd8bc8c2e0d)" d="M 108 123.244067 
L 777.6 123.244067 
" style="fill:none;stroke:#b0b0b0;stroke-linecap:square;stroke-width:0.8;"/>
     </g>
     <g id="line2d_26">
      <g>
       <use style="stroke:#000000;stroke-width:0.8;" x="108" xlink:href="#mf2608a0c07" y="123.244067"/>
      </g>
     </g>
     <g id="text_14">
      <!-- 20 -->
      <g transform="translate(89.271875 127.240942)scale(0.1 -0.1)">
       <use xlink:href="#MicrosoftYaHei-32"/>
       <use x="58.642578" xlink:href="#MicrosoftYaHei-30"/>
      </g>
     </g>
    </g>
    <g id="ytick_6">
     <g id="line2d_27">
      <path clip-path="url(#pd8bc8c2e0d)" d="M 108 61.677591 
L 777.6 61.677591 
" style="fill:none;stroke:#b0b0b0;stroke-linecap:square;stroke-width:0.8;"/>
     </g>
     <g id="line2d_28">
      <g>
       <use style="stroke:#000000;stroke-width:0.8;" x="108" xlink:href="#mf2608a0c07" y="61.677591"/>
      </g>
     </g>
     <g id="text_15">
      <!-- 25 -->
      <g transform="translate(89.271875 65.674466)scale(0.1 -0.1)">
       <use xlink:href="#MicrosoftYaHei-32"/>
       <use x="58.642578" xlink:href="#MicrosoftYaHei-35"/>
      </g>
     </g>
    </g>
   </g>
   <g id="line2d_29">
    <path clip-path="url(#pd8bc8c2e0d)" d="M 434.215385 333.896929 
L 451.384615 314.445015 
L 468.553846 302.228339 
L 485.723077 290.42735 
L 502.892308 274.777599 
L 520.061538 261.078668 
L 537.230769 251.117401 
L 554.4 245.845218 
L 571.569231 246.676907 
L 588.738462 232.313318 
L 605.907692 224.627273 
L 623.076923 206.415202 
L 640.246154 173.036861 
L 657.415385 153.133808 
L 674.584615 132.886329 
L 691.753846 127.935115 
L 708.923077 127.74919 
L 726.092308 107.40088 
L 743.261538 83.773366 
L 760.430769 66.96 
" style="fill:none;stroke:#1f77b4;stroke-linecap:square;stroke-width:1.5;"/>
    <defs>
     <path d="M 0 1.5 
C 0.397805 1.5 0.77937 1.341951 1.06066 1.06066 
C 1.341951 0.77937 1.5 0.397805 1.5 0 
C 1.5 -0.397805 1.341951 -0.77937 1.06066 -1.06066 
C 0.77937 -1.341951 0.397805 -1.5 0 -1.5 
C -0.397805 -1.5 -0.77937 -1.341951 -1.06066 -1.06066 
C -1.341951 -0.77937 -1.5 -0.397805 -1.5 0 
C -1.5 0.397805 -1.341951 0.77937 -1.06066 1.06066 
C -0.77937 1.341951 -0.397805 1.5 0 1.5 
z
" id="mfb574c942f" style="stroke:#1f77b4;"/>
    </defs>
    <g clip-path="url(#pd8bc8c2e0d)">
     <use style="fill:#1f77b4;stroke:#1f77b4;" x="434.215385" xlink:href="#mfb574c942f" y="333.896929"/>
     <use style="fill:#1f77b4;stroke:#1f77b4;" x="451.384615" xlink:href="#mfb574c942f" y="314.445015"/>
     <use style="fill:#1f77b4;stroke:#1f77b4;" x="468.553846" xlink:href="#mfb574c942f" y="302.228339"/>
     <use style="fill:#1f77b4;stroke:#1f77b4;" x="485.723077" xlink:href="#mfb574c942f" y="290.42735"/>
     <use style="fill:#1f77b4;stroke:#1f77b4;" x="502.892308" xlink:href="#mfb574c942f" y="274.777599"/>
     <use style="fill:#1f77b4;stroke:#1f77b4;" x="520.061538" xlink:href="#mfb574c942f" y="261.078668"/>
     <use style="fill:#1f77b4;stroke:#1f77b4;" x="537.230769" xlink:href="#mfb574c942f" y="251.117401"/>
     <use style="fill:#1f77b4;stroke:#1f77b4;" x="554.4" xlink:href="#mfb574c942f" y="245.845218"/>
     <use style="fill:#1f77b4;stroke:#1f77b4;" x="571.569231" xlink:href="#mfb574c942f" y="246.676907"/>
     <use style="fill:#1f77b4;stroke:#1f77b4;" x="588.738462" xlink:href="#mfb574c942f" y="232.313318"/>
     <use style="fill:#1f77b4;stroke:#1f77b4;" x="605.907692" xlink:href="#mfb574c942f" y="224.627273"/>
     <use style="fill:#1f77b4;stroke:#1f77b4;" x="623.076923" xlink:href="#mfb574c942f" y="206.415202"/>
     <use style="fill:#1f77b4;stroke:#1f77b4;" x="640.246154" xlink:href="#mfb574c942f" y="173.036861"/>
     <use style="fill:#1f77b4;stroke:#1f77b4;" x="657.415385" xlink:href="#mfb574c942f" y="153.133808"/>
     <use style="fill:#1f77b4;stroke:#1f77b4;" x="674.584615" xlink:href="#mfb574c942f" y="132.886329"/>
     <use style="fill:#1f77b4;stroke:#1f77b4;" x="691.753846" xlink:href="#mfb574c942f" y="127.935115"/>
     <use style="fill:#1f77b4;stroke:#1f77b4;" x="708.923077" xlink:href="#mfb574c942f" y="127.74919"/>
     <use style="fill:#1f77b4;stroke:#1f77b4;" x="726.092308" xlink:href="#mfb574c942f" y="107.40088"/>
     <use style="fill:#1f77b4;stroke:#1f77b4;" x="743.261538" xlink:href="#mfb574c942f" y="83.773366"/>
     <use style="fill:#1f77b4;stroke:#1f77b4;" x="760.430769" xlink:href="#mfb574c942f" y="66.96"/>
    </g>
   </g>
   <g id="line2d_30">
    <path clip-path="url(#pd8bc8c2e0d)" d="M 108 368.921932 
L 125.169231 369.36 
L 142.338462 369.160185 
L 159.507692 368.783964 
L 176.676923 368.136676 
L 193.846154 367.881894 
L 211.015385 366.893403 
L 228.184615 367.71372 
L 245.353846 368.091734 
L 262.523077 368.292002 
L 279.692308 368.465901 
L 296.861538 368.386485 
L 314.030769 368.41977 
L 331.2 368.207436 
L 348.369231 367.842146 
L 365.538462 367.620897 
L 382.707692 367.483242 
L 399.876923 367.024211 
L 417.046154 366.654739 
L 434.215385 366.168232 
L 451.384615 365.046159 
L 468.553846 363.112453 
L 485.723077 360.659047 
L 502.892308 358.46234 
L 520.061538 353.700746 
L 537.230769 350.58804 
L 554.4 348.630639 
L 571.569231 345.770785 
L 588.738462 344.641955 
L 605.907692 344.331674 
L 623.076923 342.777182 
L 640.246154 343.389962 
L 657.415385 342.266453 
L 674.584615 340.750331 
L 691.753846 338.933287 
L 708.923077 334.756641 
L 726.092308 330.374121 
L 743.261538 327.312406 
L 760.430769 318.456663 
L 777.6 315.409155 
" style="fill:none;stroke:#ff7f0e;stroke-linecap:square;stroke-width:1.5;"/>
    <defs>
     <path d="M 0 1.5 
C 0.397805 1.5 0.77937 1.341951 1.06066 1.06066 
C 1.341951 0.77937 1.5 0.397805 1.5 0 
C 1.5 -0.397805 1.341951 -0.77937 1.06066 -1.06066 
C 0.77937 -1.341951 0.397805 -1.5 0 -1.5 
C -0.397805 -1.5 -0.77937 -1.341951 -1.06066 -1.06066 
C -1.341951 -0.77937 -1.5 -0.397805 -1.5 0 
C -1.5 0.397805 -1.341951 0.77937 -1.06066 1.06066 
C -0.77937 1.341951 -0.397805 1.5 0 1.5 
z
" id="md933b5a482" style="stroke:#ff7f0e;"/>
    </defs>
    <g clip-path="url(#pd8bc8c2e0d)">
     <use style="fill:#ff7f0e;stroke:#ff7f0e;" x="108" xlink:href="#md933b5a482" y="368.921932"/>
     <use style="fill:#ff7f0e;stroke:#ff7f0e;" x="125.169231" xlink:href="#md933b5a482" y="369.36"/>
     <use style="fill:#ff7f0e;stroke:#ff7f0e;" x="142.338462" xlink:href="#md933b5a482" y="369.160185"/>
     <use style="fill:#ff7f0e;stroke:#ff7f0e;" x="159.507692" xlink:href="#md933b5a482" y="368.783964"/>
     <use style="fill:#ff7f0e;stroke:#ff7f0e;" x="176.676923" xlink:href="#md933b5a482" y="368.136676"/>
     <use style="fill:#ff7f0e;stroke:#ff7f0e;" x="193.846154" xlink:href="#md933b5a482" y="367.881894"/>
     <use style="fill:#ff7f0e;stroke:#ff7f0e;" x="211.015385" xlink:href="#md933b5a482" y="366.893403"/>
     <use style="fill:#ff7f0e;stroke:#ff7f0e;" x="228.184615" xlink:href="#md933b5a482" y="367.71372"/>
     <use style="fill:#ff7f0e;stroke:#ff7f0e;" x="245.353846" xlink:href="#md933b5a482" y="368.091734"/>
     <use style="fill:#ff7f0e;stroke:#ff7f0e;" x="262.523077" xlink:href="#md933b5a482" y="368.292002"/>
     <use style="fill:#ff7f0e;stroke:#ff7f0e;" x="279.692308" xlink:href="#md933b5a482" y="368.465901"/>
     <use style="fill:#ff7f0e;stroke:#ff7f0e;" x="296.861538" xlink:href="#md933b5a482" y="368.386485"/>
     <use style="fill:#ff7f0e;stroke:#ff7f0e;" x="314.030769" xlink:href="#md933b5a482" y="368.41977"/>
     <use style="fill:#ff7f0e;stroke:#ff7f0e;" x="331.2" xlink:href="#md933b5a482" y="368.207436"/>
     <use style="fill:#ff7f0e;stroke:#ff7f0e;" x="348.369231" xlink:href="#md933b5a482" y="367.842146"/>
     <use style="fill:#ff7f0e;stroke:#ff7f0e;" x="365.538462" xlink:href="#md933b5a482" y="367.620897"/>
     <use style="fill:#ff7f0e;stroke:#ff7f0e;" x="382.707692" xlink:href="#md933b5a482" y="367.483242"/>
     <use style="fill:#ff7f0e;stroke:#ff7f0e;" x="399.876923" xlink:href="#md933b5a482" y="367.024211"/>
     <use style="fill:#ff7f0e;stroke:#ff7f0e;" x="417.046154" xlink:href="#md933b5a482" y="366.654739"/>
     <use style="fill:#ff7f0e;stroke:#ff7f0e;" x="434.215385" xlink:href="#md933b5a482" y="366.168232"/>
     <use style="fill:#ff7f0e;stroke:#ff7f0e;" x="451.384615" xlink:href="#md933b5a482" y="365.046159"/>
     <use style="fill:#ff7f0e;stroke:#ff7f0e;" x="468.553846" xlink:href="#md933b5a482" y="363.112453"/>
     <use style="fill:#ff7f0e;stroke:#ff7f0e;" x="485.723077" xlink:href="#md933b5a482" y="360.659047"/>
     <use style="fill:#ff7f0e;stroke:#ff7f0e;" x="502.892308" xlink:href="#md933b5a482" y="358.46234"/>
     <use style="fill:#ff7f0e;stroke:#ff7f0e;" x="520.061538" xlink:href="#md933b5a482" y="353.700746"/>
     <use style="fill:#ff7f0e;stroke:#ff7f0e;" x="537.230769" xlink:href="#md933b5a482" y="350.58804"/>
     <use style="fill:#ff7f0e;stroke:#ff7f0e;" x="554.4" xlink:href="#md933b5a482" y="348.630639"/>
     <use style="fill:#ff7f0e;stroke:#ff7f0e;" x="571.569231" xlink:href="#md933b5a482" y="345.770785"/>
     <use style="fill:#ff7f0e;stroke:#ff7f0e;" x="588.738462" xlink:href="#md933b5a482" y="344.641955"/>
     <use style="fill:#ff7f0e;stroke:#ff7f0e;" x="605.907692" xlink:href="#md933b5a482" y="344.331674"/>
     <use style="fill:#ff7f0e;stroke:#ff7f0e;" x="623.076923" xlink:href="#md933b5a482" y="342.777182"/>
     <use style="fill:#ff7f0e;stroke:#ff7f0e;" x="640.246154" xlink:href="#md933b5a482" y="343.389962"/>
     <use style="fill:#ff7f0e;stroke:#ff7f0e;" x="657.415385" xlink:href="#md933b5a482" y="342.266453"/>
     <use style="fill:#ff7f0e;stroke:#ff7f0e;" x="674.584615" xlink:href="#md933b5a482" y="340.750331"/>
     <use style="fill:#ff7f0e;stroke:#ff7f0e;" x="691.753846" xlink:href="#md933b5a482" y="338.933287"/>
     <use style="fill:#ff7f0e;stroke:#ff7f0e;" x="708.923077" xlink:href="#md933b5a482" y="334.756641"/>
     <use style="fill:#ff7f0e;stroke:#ff7f0e;" x="726.092308" xlink:href="#md933b5a482" y="330.374121"/>
     <use style="fill:#ff7f0e;stroke:#ff7f0e;" x="743.261538" xlink:href="#md933b5a482" y="327.312406"/>
     <use style="fill:#ff7f0e;stroke:#ff7f0e;" x="760.430769" xlink:href="#md933b5a482" y="318.456663"/>
     <use style="fill:#ff7f0e;stroke:#ff7f0e;" x="777.6" xlink:href="#md933b5a482" y="315.409155"/>
    </g>
   </g>
   <g id="line2d_31">
    <path clip-path="url(#pd8bc8c2e0d)" d="M 537.230769 366.655121 
L 554.4 366.522256 
L 571.569231 366.220559 
L 588.738462 366.145167 
L 605.907692 366.089668 
L 623.076923 365.816519 
L 640.246154 365.722133 
L 657.415385 365.812429 
L 674.584615 365.932889 
L 691.753846 366.090152 
L 708.923077 365.977449 
L 726.092308 365.88054 
L 743.261538 365.646406 
L 760.430769 364.818305 
" style="fill:none;stroke:#2ca02c;stroke-linecap:square;stroke-width:1.5;"/>
    <defs>
     <path d="M 0 1.5 
C 0.397805 1.5 0.77937 1.341951 1.06066 1.06066 
C 1.341951 0.77937 1.5 0.397805 1.5 0 
C 1.5 -0.397805 1.341951 -0.77937 1.06066 -1.06066 
C 0.77937 -1.341951 0.397805 -1.5 0 -1.5 
C -0.397805 -1.5 -0.77937 -1.341951 -1.06066 -1.06066 
C -1.341951 -0.77937 -1.5 -0.397805 -1.5 0 
C -1.5 0.397805 -1.341951 0.77937 -1.06066 1.06066 
C -0.77937 1.341951 -0.397805 1.5 0 1.5 
z
" id="mc9b94ffe38" style="stroke:#2ca02c;"/>
    </defs>
    <g clip-path="url(#pd8bc8c2e0d)">
     <use style="fill:#2ca02c;stroke:#2ca02c;" x="537.230769" xlink:href="#mc9b94ffe38" y="366.655121"/>
     <use style="fill:#2ca02c;stroke:#2ca02c;" x="554.4" xlink:href="#mc9b94ffe38" y="366.522256"/>
     <use style="fill:#2ca02c;stroke:#2ca02c;" x="571.569231" xlink:href="#mc9b94ffe38" y="366.220559"/>
     <use style="fill:#2ca02c;stroke:#2ca02c;" x="588.738462" xlink:href="#mc9b94ffe38" y="366.145167"/>
     <use style="fill:#2ca02c;stroke:#2ca02c;" x="605.907692" xlink:href="#mc9b94ffe38" y="366.089668"/>
     <use style="fill:#2ca02c;stroke:#2ca02c;" x="623.076923" xlink:href="#mc9b94ffe38" y="365.816519"/>
     <use style="fill:#2ca02c;stroke:#2ca02c;" x="640.246154" xlink:href="#mc9b94ffe38" y="365.722133"/>
     <use style="fill:#2ca02c;stroke:#2ca02c;" x="657.415385" xlink:href="#mc9b94ffe38" y="365.812429"/>
     <use style="fill:#2ca02c;stroke:#2ca02c;" x="674.584615" xlink:href="#mc9b94ffe38" y="365.932889"/>
     <use style="fill:#2ca02c;stroke:#2ca02c;" x="691.753846" xlink:href="#mc9b94ffe38" y="366.090152"/>
     <use style="fill:#2ca02c;stroke:#2ca02c;" x="708.923077" xlink:href="#mc9b94ffe38" y="365.977449"/>
     <use style="fill:#2ca02c;stroke:#2ca02c;" x="726.092308" xlink:href="#mc9b94ffe38" y="365.88054"/>
     <use style="fill:#2ca02c;stroke:#2ca02c;" x="743.261538" xlink:href="#mc9b94ffe38" y="365.646406"/>
     <use style="fill:#2ca02c;stroke:#2ca02c;" x="760.430769" xlink:href="#mc9b94ffe38" y="364.818305"/>
    </g>
   </g>
   <g id="patch_3">
    <path d="M 108 384.48 
L 108 51.84 
" style="fill:none;stroke:#000000;stroke-linecap:square;stroke-linejoin:miter;stroke-width:0.8;"/>
   </g>
   <g id="patch_4">
    <path d="M 777.6 384.48 
L 777.6 51.84 
" style="fill:none;stroke:#000000;stroke-linecap:square;stroke-linejoin:miter;stroke-width:0.8;"/>
   </g>
   <g id="patch_5">
    <path d="M 108 384.48 
L 777.6 384.48 
" style="fill:none;stroke:#000000;stroke-linecap:square;stroke-linejoin:miter;stroke-width:0.8;"/>
   </g>
   <g id="patch_6">
    <path d="M 108 51.84 
L 777.6 51.84 
" style="fill:none;stroke:#000000;stroke-linecap:square;stroke-linejoin:miter;stroke-width:0.8;"/>
   </g>
   <g id="text_16">
    <!-- 教育结构-增量 -->
    <defs>
     <path d="M 46.484375 33.640625 
Q 57.515625 53.953125 64.15625 81.5 
L 71.296875 79.734375 
Q 69.34375 71.734375 66.796875 63.8125 
L 97.265625 63.8125 
L 97.265625 56.78125 
L 87.703125 56.78125 
Q 87.015625 31.59375 75.390625 13.421875 
Q 84.28125 1.21875 98.734375 -5.609375 
Q 96 -9.625 94.140625 -12.84375 
Q 79.890625 -4.640625 70.90625 7.171875 
Q 61.03125 -5.125 45.3125 -13.8125 
Q 43.5625 -11.28125 40.53125 -7.375 
Q 56.84375 0.921875 66.609375 13.625 
Q 59.765625 25.046875 57.328125 39.40625 
Q 55.078125 34.625 52.734375 29.9375 
Q 49.609375 31.984375 46.484375 33.640625 
z
M 49.421875 73.09375 
L 55.28125 69.28125 
Q 49.3125 60.40625 42 51.703125 
L 49.21875 51.703125 
L 49.21875 45.265625 
L 36.421875 45.265625 
Q 32.515625 40.875 28.421875 36.765625 
L 44.4375 36.765625 
L 44.4375 30.90625 
L 31.84375 18.5 
L 31.84375 16.75 
Q 39.75 18.109375 49.3125 19.875 
Q 49.03125 16.15625 48.921875 13.140625 
Q 40.921875 11.765625 31.84375 10.109375 
L 31.84375 -0.53125 
Q 32.515625 -12.640625 20.515625 -12.15625 
Q 16.3125 -12.15625 9.671875 -11.96875 
Q 9.28125 -8.84375 8.6875 -4.640625 
Q 13.28125 -5.125 19.140625 -5.21875 
Q 25.296875 -5.8125 24.8125 0.25 
L 24.8125 8.84375 
Q 15.328125 7.078125 4.890625 5.03125 
L 3.71875 12.15625 
Q 11.8125 13.328125 24.8125 15.484375 
L 24.8125 20.359375 
L 35.0625 30.515625 
L 21.96875 30.515625 
Q 13.875 23.09375 5.765625 16.84375 
Q 3.8125 19.578125 1.171875 22.40625 
Q 6.84375 26.421875 11.71875 30.515625 
L 3.609375 30.515625 
L 3.609375 36.765625 
L 18.75 36.765625 
Q 23.34375 40.875 27.640625 45.265625 
L 2.34375 45.265625 
L 2.34375 51.703125 
L 21.578125 51.703125 
L 21.578125 61.671875 
L 6.25 61.671875 
L 6.25 68.109375 
L 21.578125 68.109375 
L 21.578125 81.390625 
L 28.609375 81.390625 
L 28.609375 68.109375 
L 40.625 68.109375 
L 40.625 61.671875 
L 28.609375 61.671875 
L 28.609375 51.703125 
L 33.40625 51.703125 
Q 42.1875 61.578125 49.421875 73.09375 
z
M 62.203125 51.125 
Q 64.15625 33.34375 71.09375 20.359375 
Q 79.984375 35.796875 80.5625 56.78125 
L 64.359375 56.78125 
Q 63.375 53.953125 62.203125 51.125 
z
" id="MicrosoftYaHei-6559"/>
     <path d="M 15.4375 40.28125 
L 84.96875 40.28125 
L 84.96875 -0.046875 
Q 84.96875 -11.578125 71.296875 -11.578125 
Q 66.703125 -11.578125 60.0625 -11.46875 
Q 59.859375 -10.5 58.5 -3.46875 
Q 65.234375 -4.4375 70.796875 -4.4375 
Q 77.34375 -4.4375 77.546875 1.125 
L 77.546875 4.15625 
L 22.859375 4.15625 
L 22.859375 -12.453125 
L 15.4375 -12.453125 
z
M 70.609375 64.5 
Q 83.109375 55.90625 95.3125 46.625 
L 89.75 41.0625 
Q 85.6875 44.578125 81.296875 48.09375 
Q 43.015625 47.953125 22.859375 47.015625 
Q 16.703125 46.734375 12.3125 45.953125 
L 9.578125 54.15625 
Q 16.3125 55.421875 20.40625 57.859375 
Q 26.265625 61.328125 32.03125 66.0625 
L 2.640625 66.0625 
L 2.640625 72.90625 
L 48.4375 72.90625 
Q 46.390625 76.46875 43.953125 80.421875 
L 50.6875 83.734375 
Q 55.125 76.8125 57.28125 72.90625 
L 97.46875 72.90625 
L 97.46875 66.0625 
L 43.5625 66.0625 
Q 33.890625 59.234375 25.875 54.15625 
Q 48.78125 54.15625 72.65625 54.640625 
Q 69.4375 57.03125 66.015625 59.421875 
z
M 22.859375 10.59375 
L 77.546875 10.59375 
L 77.546875 18.890625 
L 22.859375 18.890625 
z
M 77.546875 33.640625 
L 22.859375 33.640625 
L 22.859375 25.34375 
L 77.546875 25.34375 
z
" id="MicrosoftYaHei-80b2"/>
     <path d="M 41.015625 26.703125 
L 92.578125 26.703125 
L 92.578125 -12.9375 
L 84.96875 -12.9375 
L 84.96875 -6.890625 
L 48.640625 -6.890625 
L 48.640625 -12.9375 
L 41.015625 -12.9375 
z
M 39.0625 45.265625 
L 62.890625 45.265625 
L 62.890625 60.5 
L 35.84375 60.5 
L 35.84375 67.53125 
L 62.890625 67.53125 
L 62.890625 83.15625 
L 70.703125 83.15625 
L 70.703125 67.53125 
L 98.046875 67.53125 
L 98.046875 60.5 
L 70.703125 60.5 
L 70.703125 45.265625 
L 94.625 45.265625 
L 94.625 38.234375 
L 39.0625 38.234375 
z
M 13.96875 24.46875 
Q 26.953125 26.3125 35.453125 27.78125 
Q 34.859375 23.96875 34.578125 20.359375 
Q 23.734375 18.796875 4.984375 15.765625 
L 3.421875 23 
Q 9.671875 29.5 18.3125 43.609375 
Q 10.109375 43.0625 3.421875 42.53125 
L 1.5625 49.171875 
Q 10.546875 61.1875 20.21875 83.84375 
L 27.640625 80.90625 
Q 17.09375 60.203125 10.359375 49.75 
Q 16.015625 49.90625 22.171875 50.09375 
Q 25.484375 55.765625 29.109375 62.453125 
L 36.328125 58.84375 
Q 25.203125 40.28125 13.96875 24.46875 
z
M 84.96875 19.875 
L 48.640625 19.875 
L 48.640625 -0.046875 
L 84.96875 -0.046875 
z
M 1.171875 1.421875 
Q 19.234375 4.9375 36.421875 9.125 
Q 36.140625 5.21875 36.140625 1.703125 
Q 20.3125 -1.609375 3.328125 -6.109375 
z
" id="MicrosoftYaHei-7ed3"/>
     <path d="M 33.40625 47.796875 
Q 44.34375 63.234375 50.875 82.953125 
L 58.40625 80.515625 
Q 55.5625 73.78125 52.9375 67.921875 
L 95.015625 67.921875 
Q 93.65625 18.015625 93.0625 6.203125 
Q 92.578125 -4.046875 88.375 -7.859375 
Q 84.375 -11.671875 73.921875 -11.671875 
Q 66.21875 -11.671875 57.8125 -11.1875 
Q 57.234375 -7.28125 56.15625 -2.59375 
Q 65.828125 -3.65625 73.640625 -3.859375 
Q 80.375 -3.953125 82.71875 -1.515625 
Q 85.15625 0.53125 85.453125 7.375 
Q 86.140625 20.5625 87.109375 60.796875 
L 49.515625 60.796875 
Q 44.34375 50.640625 39.453125 43.703125 
Q 37.015625 45.5625 33.40625 47.796875 
z
M 1.265625 21.234375 
Q 11.421875 37.0625 15.625 55.90625 
L 1.953125 55.90625 
L 1.953125 62.453125 
L 15.71875 62.453125 
L 15.71875 81.78125 
L 22.46875 81.78125 
L 22.46875 62.453125 
L 35.15625 62.453125 
L 35.15625 55.90625 
L 22.46875 55.90625 
L 22.46875 42.71875 
L 25.203125 45.5625 
Q 31.84375 39.5 38.96875 32.671875 
L 33.796875 27.296875 
Q 27.734375 34.234375 22.46875 39.3125 
L 22.46875 -13.03125 
L 15.71875 -13.03125 
L 15.71875 37.25 
Q 10.9375 22.015625 4.390625 12.640625 
Q 3.125 16.84375 1.265625 21.234375 
z
M 61.328125 35.203125 
L 67.28125 38.328125 
Q 74.421875 26.03125 82.03125 11.46875 
L 75.09375 7.765625 
Q 73.921875 10.40625 72.65625 13.03125 
Q 59.96875 12.25 47.65625 11.28125 
Q 44.625 10.984375 39.0625 9.8125 
L 35.75 16.84375 
Q 38.875 19 41.015625 22.125 
Q 49.03125 34.71875 56.84375 53.078125 
L 64.15625 50.046875 
Q 58.40625 37.359375 46.578125 18.3125 
Q 60.640625 18.703125 69.734375 19.09375 
Q 65.828125 27.203125 61.328125 35.203125 
z
" id="MicrosoftYaHei-6784"/>
     <path d="M 36.375 26.265625 
L 7.625 26.265625 
L 7.625 33.640625 
L 36.375 33.640625 
z
" id="MicrosoftYaHei-2d"/>
     <path d="M 34.1875 69.671875 
L 50.921875 69.671875 
Q 47.515625 74.703125 43.359375 79.9375 
L 48.921875 83.84375 
Q 54 77.984375 57.71875 72.90625 
L 53.171875 69.671875 
L 69.578125 69.671875 
Q 74.359375 76.375 78.90625 83.9375 
L 85.9375 79.9375 
Q 81.78125 74.5625 77.78125 69.671875 
L 94.34375 69.671875 
L 94.34375 33.15625 
L 87.5 33.15625 
L 87.5 36.078125 
L 41.015625 36.078125 
L 41.015625 33.15625 
L 34.1875 33.15625 
z
M 38.09375 28.078125 
L 90.4375 28.078125 
L 90.4375 -13.234375 
L 83.40625 -13.234375 
L 83.40625 -8.546875 
L 45.125 -8.546875 
L 45.125 -13.234375 
L 38.09375 -13.234375 
z
M 1.265625 6.6875 
Q 7.28125 8.40625 13.96875 10.5 
L 13.96875 50.828125 
L 2.25 50.828125 
L 2.25 57.765625 
L 13.96875 57.765625 
L 13.96875 82.171875 
L 21.1875 82.171875 
L 21.1875 57.765625 
L 31.25 57.765625 
L 31.25 50.828125 
L 21.1875 50.828125 
L 21.1875 12.796875 
Q 26.703125 14.546875 32.71875 16.546875 
Q 32.90625 11.859375 33.203125 8.640625 
Q 20.40625 4.9375 3.90625 -0.828125 
z
M 87.5 63.8125 
L 67.578125 63.8125 
L 67.578125 41.9375 
L 87.5 41.9375 
z
M 41.015625 41.9375 
L 60.84375 41.9375 
L 60.84375 63.8125 
L 41.015625 63.8125 
z
M 83.40625 22.015625 
L 45.125 22.015625 
L 45.125 12.640625 
L 83.40625 12.640625 
z
M 45.125 -2.484375 
L 83.40625 -2.484375 
L 83.40625 6.78125 
L 45.125 6.78125 
z
M 83.59375 56.390625 
Q 78.21875 47.90625 75.875 45.0625 
L 70.609375 48.1875 
Q 74.125 52.984375 77.828125 59.8125 
z
M 44.734375 56.203125 
L 49.703125 59.421875 
Q 54.109375 53.765625 57.328125 48.78125 
L 51.859375 45.265625 
Q 48.734375 50.4375 44.734375 56.203125 
z
" id="MicrosoftYaHei-589e"/>
     <path d="M 1.765625 -4.34375 
L 46.578125 -4.34375 
L 46.578125 1.21875 
L 7.421875 1.21875 
L 7.421875 6.296875 
L 46.578125 6.296875 
L 46.578125 11.859375 
L 23.34375 11.859375 
L 23.34375 9.328125 
L 16.703125 9.328125 
L 16.703125 39.3125 
L 83.59375 39.3125 
L 83.59375 9.328125 
L 76.953125 9.328125 
L 76.953125 11.859375 
L 53.421875 11.859375 
L 53.421875 6.296875 
L 92.671875 6.296875 
L 92.671875 1.21875 
L 53.421875 1.21875 
L 53.421875 -4.34375 
L 98.25 -4.34375 
L 98.25 -9.625 
L 1.765625 -9.625 
z
M 17.484375 79.25 
L 82.90625 79.25 
L 82.90625 51.3125 
L 76.265625 51.3125 
L 76.265625 53.953125 
L 24.125 53.953125 
L 24.125 51.3125 
L 17.484375 51.3125 
z
M 2.546875 49.265625 
L 97.859375 49.265625 
L 97.859375 44 
L 2.546875 44 
z
M 24.125 59.03125 
L 76.265625 59.03125 
L 76.265625 64.3125 
L 24.125 64.3125 
z
M 76.265625 74.171875 
L 24.125 74.171875 
L 24.125 69 
L 76.265625 69 
z
M 53.421875 16.9375 
L 76.953125 16.9375 
L 76.953125 23.296875 
L 53.421875 23.296875 
z
M 23.34375 16.9375 
L 46.578125 16.9375 
L 46.578125 23.296875 
L 23.34375 23.296875 
z
M 76.953125 34.234375 
L 53.421875 34.234375 
L 53.421875 27.984375 
L 76.953125 27.984375 
z
M 23.34375 27.984375 
L 46.578125 27.984375 
L 46.578125 34.234375 
L 23.34375 34.234375 
z
" id="MicrosoftYaHei-91cf"/>
    </defs>
    <g transform="translate(404.204063 45.84)scale(0.12 -0.12)">
     <use xlink:href="#MicrosoftYaHei-6559"/>
     <use x="100" xlink:href="#MicrosoftYaHei-80b2"/>
     <use x="200" xlink:href="#MicrosoftYaHei-7ed3"/>
     <use x="300" xlink:href="#MicrosoftYaHei-6784"/>
     <use x="400" xlink:href="#MicrosoftYaHei-2d"/>
     <use x="443.261719" xlink:href="#MicrosoftYaHei-589e"/>
     <use x="543.261719" xlink:href="#MicrosoftYaHei-91cf"/>
    </g>
   </g>
   <g id="legend_1">
    <g id="patch_7">
     <path d="M 115 106.279063 
L 217 106.279063 
Q 219 106.279063 219 104.279063 
L 219 58.84 
Q 219 56.84 217 56.84 
L 115 56.84 
Q 113 56.84 113 58.84 
L 113 104.279063 
Q 113 106.279063 115 106.279063 
z
" style="fill:#ffffff;opacity:0.8;stroke:#cccccc;stroke-linejoin:miter;"/>
    </g>
    <g id="line2d_32">
     <path d="M 117 65.33375 
L 137 65.33375 
" style="fill:none;stroke:#1f77b4;stroke-linecap:square;stroke-width:1.5;"/>
    </g>
    <g id="line2d_33">
     <g>
      <use style="fill:#1f77b4;stroke:#1f77b4;" x="127" xlink:href="#mfb574c942f" y="65.33375"/>
     </g>
    </g>
    <g id="text_17">
     <!-- 本科学历占比 -->
     <defs>
      <path d="M 98.140625 12.546875 
Q 95.609375 10.015625 91.5 5.71875 
Q 67.875 23.921875 53.8125 52.390625 
L 53.8125 13.71875 
L 76.171875 13.71875 
L 76.171875 6.890625 
L 53.8125 6.890625 
L 53.8125 -13.140625 
L 46.1875 -13.140625 
L 46.1875 6.890625 
L 23.046875 6.890625 
L 23.046875 13.71875 
L 46.1875 13.71875 
L 46.1875 52.390625 
Q 33.734375 27.59375 8.015625 4.546875 
Q 4.203125 8.15625 1.5625 10.40625 
Q 29.34375 33.203125 43.109375 58.640625 
L 3.71875 58.640625 
L 3.71875 65.875 
L 46.1875 65.875 
L 46.1875 83.453125 
L 53.8125 83.453125 
L 53.8125 65.875 
L 96.296875 65.875 
L 96.296875 58.640625 
L 56.59375 58.640625 
Q 72.125 29.4375 98.140625 12.546875 
z
" id="MicrosoftYaHei-672c"/>
      <path d="M 1.171875 13.625 
Q 12.3125 28.5625 17.96875 46.921875 
L 2.546875 46.921875 
L 2.546875 53.859375 
L 18.5625 53.859375 
L 18.5625 68.21875 
Q 11.03125 67.4375 4.390625 66.84375 
Q 3.71875 70.453125 2.4375 74.078125 
Q 21.390625 75.4375 40.046875 78.375 
L 42.578125 71.140625 
Q 33.796875 69.96875 25.875 69.09375 
L 25.875 53.859375 
L 41.40625 53.859375 
L 41.40625 46.921875 
L 25.875 46.921875 
L 25.875 35.890625 
L 30.171875 39.796875 
Q 37.203125 33.734375 43.171875 27.984375 
L 37.703125 22.40625 
Q 31.453125 29.4375 25.875 34.625 
L 25.875 -13.234375 
L 18.5625 -13.234375 
L 18.5625 30.8125 
Q 12.796875 15.765625 4.890625 5.328125 
Q 3.21875 9.328125 1.171875 13.625 
z
M 36.421875 18.796875 
L 74.703125 22.21875 
L 74.703125 82.5625 
L 82.234375 82.5625 
L 82.234375 22.90625 
L 97.65625 24.359375 
L 98.25 17.328125 
L 82.234375 15.875 
L 82.234375 -13.234375 
L 74.703125 -13.234375 
L 74.703125 15.1875 
L 37.203125 11.765625 
z
M 48.046875 67.328125 
L 52.546875 72.21875 
Q 63.375 63.921875 70.125 57.671875 
L 65.046875 51.90625 
Q 58.109375 59.03125 48.046875 67.328125 
z
M 42.28125 43.890625 
L 46.96875 48.875 
Q 58.109375 40.1875 63.765625 35.015625 
L 58.6875 29.046875 
Q 54.109375 33.84375 42.28125 43.890625 
z
" id="MicrosoftYaHei-79d1"/>
      <path d="M 2.25 21.234375 
L 47.953125 21.234375 
L 47.953125 26.703125 
L 66.609375 37.25 
L 20.703125 37.25 
L 20.703125 44.390625 
L 78.03125 44.390625 
L 78.03125 36.1875 
L 55.859375 23.390625 
L 55.859375 21.234375 
L 97.859375 21.234375 
L 97.859375 14.109375 
L 55.859375 14.109375 
L 55.859375 -0.640625 
Q 55.859375 -12.15625 44.234375 -12.15625 
Q 37.796875 -12.15625 29.109375 -11.96875 
Q 28.8125 -8.640625 27.9375 -3.65625 
Q 35.75 -4.4375 42.875 -4.546875 
Q 47.953125 -4.640625 47.953125 0.828125 
L 47.953125 14.109375 
L 2.25 14.109375 
z
M 5.5625 61.078125 
L 94.625 61.078125 
L 94.625 41.359375 
L 86.921875 41.359375 
L 86.921875 53.953125 
L 13.28125 53.953125 
L 13.28125 41.359375 
L 5.5625 41.359375 
z
M 67.390625 66.75 
Q 73.921875 73.78125 79.6875 81.890625 
L 86.71875 76.703125 
Q 80.375 69.484375 73.140625 61.578125 
z
M 39.65625 79.9375 
L 46 83.640625 
Q 51.953125 75.828125 57.03125 67.71875 
L 50 63.71875 
Q 45.703125 71.34375 39.65625 79.9375 
z
M 13.28125 77 
L 19.046875 81.203125 
Q 25 74.65625 30.765625 67.046875 
L 24.125 62.359375 
Q 18.65625 70.65625 13.28125 77 
z
" id="MicrosoftYaHei-5b66"/>
      <path d="M 26.078125 48.1875 
L 47.3125 48.1875 
Q 47.5625 57.03125 47.5625 65.96875 
L 55.765625 65.96875 
Q 55.671875 57.03125 55.421875 48.1875 
L 90.625 48.1875 
Q 89.453125 22.21875 88.375 5.328125 
Q 86.8125 -9.625 73.25 -9.90625 
Q 65.921875 -9.90625 56.0625 -9.421875 
Q 55.5625 -5.71875 54.59375 -0.640625 
Q 64.265625 -1.703125 71.6875 -1.703125 
Q 79.5 -1.609375 80.5625 7.28125 
Q 81.640625 21.34375 82.328125 40.671875 
L 55.171875 40.671875 
Q 54.34375 20.84375 49.03125 10.796875 
Q 41.890625 -2.59375 23.640625 -13.234375 
Q 20.90625 -10.015625 17.875 -6.59375 
Q 35.84375 4.4375 41.3125 14.796875 
Q 46.390625 23.875 47.078125 40.671875 
L 26.078125 40.671875 
z
M 20.703125 43.21875 
Q 20.609375 21.625 17.875 10.109375 
Q 15.046875 -1.8125 7.125 -13.140625 
Q 4.6875 -9.8125 1.265625 -6.5 
Q 7.90625 3.078125 10.15625 12.75 
Q 12.40625 22.125 12.40625 41.453125 
L 12.40625 76.8125 
L 97.5625 76.8125 
L 97.5625 69.28125 
L 20.703125 69.28125 
z
" id="MicrosoftYaHei-5386"/>
      <path d="M 13.484375 38.03125 
L 43.359375 38.03125 
L 43.359375 82.171875 
L 51.375 82.171875 
L 51.375 65.765625 
L 96.09375 65.765625 
L 96.09375 58.546875 
L 51.375 58.546875 
L 51.375 38.03125 
L 86.328125 38.03125 
L 86.328125 -13.140625 
L 78.515625 -13.140625 
L 78.515625 -7.078125 
L 21.296875 -7.078125 
L 21.296875 -13.328125 
L 13.484375 -13.328125 
z
M 78.515625 31 
L 21.296875 31 
L 21.296875 -0.140625 
L 78.515625 -0.140625 
z
" id="MicrosoftYaHei-5360"/>
      <path d="M 50.390625 83.0625 
L 58.5 83.0625 
L 58.5 41.75 
Q 77.484375 55.46875 89.75 70.453125 
L 96.6875 65.28125 
Q 80.859375 47.859375 58.5 32.125 
L 58.5 3.859375 
Q 58.5 -2.59375 64.15625 -2.59375 
L 80.859375 -2.59375 
Q 87.3125 -2.59375 88.28125 3.171875 
Q 89.453125 10.59375 90.046875 19.484375 
Q 94.140625 17.921875 98.4375 16.65625 
Q 97.5625 7.5625 96.09375 0.34375 
Q 94.046875 -9.71875 83.109375 -9.71875 
L 61.625 -9.71875 
Q 50.390625 -9.71875 50.390625 2.484375 
z
M 16.609375 80.515625 
L 16.609375 51.21875 
L 44.140625 51.21875 
L 44.140625 43.890625 
L 16.609375 43.890625 
L 16.609375 2.390625 
Q 26.765625 6.6875 43.171875 14.5 
Q 43.171875 9.90625 43.5625 5.71875 
Q 29.203125 -0.046875 19.234375 -5.125 
Q 14.9375 -7.375 11.328125 -10.5 
L 5.375 -2.875 
Q 8.5 -0.53125 8.5 4.25 
L 8.5 80.515625 
z
" id="MicrosoftYaHei-6bd4"/>
     </defs>
     <g transform="translate(145 68.83375)scale(0.1 -0.1)">
      <use xlink:href="#MicrosoftYaHei-672c"/>
      <use x="100" xlink:href="#MicrosoftYaHei-79d1"/>
      <use x="200" xlink:href="#MicrosoftYaHei-5b66"/>
      <use x="300" xlink:href="#MicrosoftYaHei-5386"/>
      <use x="400" xlink:href="#MicrosoftYaHei-5360"/>
      <use x="500" xlink:href="#MicrosoftYaHei-6bd4"/>
     </g>
    </g>
    <g id="line2d_34">
     <path d="M 117 80.813438 
L 137 80.813438 
" style="fill:none;stroke:#ff7f0e;stroke-linecap:square;stroke-width:1.5;"/>
    </g>
    <g id="line2d_35">
     <g>
      <use style="fill:#ff7f0e;stroke:#ff7f0e;" x="127" xlink:href="#md933b5a482" y="80.813438"/>
     </g>
    </g>
    <g id="text_18">
     <!-- 研究生学历占比 -->
     <defs>
      <path d="M 39.15625 40.875 
L 50.921875 40.875 
Q 50.984375 43.171875 50.984375 69.96875 
L 43.0625 69.96875 
L 43.0625 77.203125 
L 94.734375 77.203125 
L 94.734375 69.96875 
L 84.859375 69.96875 
L 84.859375 40.875 
L 98.25 40.875 
L 98.25 33.640625 
L 84.859375 33.640625 
L 84.859375 -12.546875 
L 77.34375 -12.546875 
L 77.34375 33.640625 
L 58.25 33.640625 
Q 58.015625 4.734375 39.453125 -13.328125 
Q 36.421875 -10.296875 33.015625 -7.671875 
Q 50.390625 8.640625 50.640625 33.640625 
L 39.15625 33.640625 
z
M 3.71875 76.8125 
L 39.359375 76.8125 
L 39.359375 69.96875 
L 25.203125 69.96875 
Q 22.796875 58.203125 18.890625 47.796875 
L 35.359375 47.796875 
L 35.359375 2 
L 17 2 
L 17 -6.109375 
L 10.15625 -6.109375 
L 10.15625 29.296875 
Q 8.15625 25.875 5.953125 22.703125 
Q 3.71875 26.21875 1.265625 28.765625 
Q 13.625 47.21875 17.921875 69.96875 
L 3.71875 69.96875 
z
M 58.453125 40.875 
L 77.34375 40.875 
L 77.34375 69.96875 
L 58.5 69.96875 
Q 58.5 44.671875 58.453125 40.875 
z
M 28.515625 8.734375 
L 28.515625 41.0625 
L 17 41.0625 
L 17 8.734375 
z
" id="MicrosoftYaHei-7814"/>
      <path d="M 72.078125 32.078125 
L 72.078125 4.15625 
Q 72.078125 -2.296875 77.25 -2.296875 
L 84.28125 -2.296875 
Q 88.96875 -2.296875 89.546875 2.484375 
Q 90.234375 7.28125 90.71875 15.578125 
Q 94.046875 14.015625 98.34375 12.640625 
Q 97.953125 7.46875 96.875 0.140625 
Q 95.703125 -9.625 86.328125 -9.625 
L 75.09375 -9.625 
Q 64.15625 -9.625 64.15625 3.46875 
L 64.15625 25.046875 
L 42.1875 25.046875 
Q 38.53125 -3.421875 7.125 -13.03125 
Q 4.203125 -8.25 2.4375 -6.109375 
Q 31.25 2.4375 34.375 25.046875 
L 9.46875 25.046875 
L 9.46875 32.078125 
L 35.15625 32.078125 
Q 35.640625 37.640625 36.03125 45.84375 
L 43.75 45.84375 
Q 43.40625 37.984375 42.921875 32.078125 
z
M 6.0625 70.75 
L 47.3125 70.75 
Q 44.390625 76.3125 42 80.125 
L 48.921875 83.734375 
Q 52.15625 78.859375 55.671875 72.796875 
L 51.375 70.75 
L 94.234375 70.75 
L 94.234375 51.421875 
L 86.421875 51.421875 
L 86.421875 63.53125 
L 13.875 63.53125 
L 13.875 51.421875 
L 6.0625 51.421875 
z
M 61.53125 59.90625 
Q 77.34375 50.640625 93.5625 39.984375 
L 88.484375 33.34375 
Q 72.75 44.78125 56.84375 54.4375 
z
M 35.0625 60.109375 
L 40.4375 54.828125 
Q 25 42.71875 9.1875 33.9375 
Q 6.34375 37.9375 4.390625 40.1875 
Q 21.875 48.875 35.0625 60.109375 
z
" id="MicrosoftYaHei-7a76"/>
      <path d="M 1.953125 0.25 
L 47.265625 0.25 
L 47.265625 25.140625 
L 12.703125 25.140625 
L 12.703125 32.671875 
L 47.265625 32.671875 
L 47.265625 55.21875 
L 21.484375 55.21875 
Q 14.984375 43.5 6.546875 34.03125 
Q 4.5 37.25 1.265625 40.875 
Q 15.046875 56.296875 23.046875 78.5625 
L 31.0625 76.421875 
Q 28.46875 69.28125 25.34375 62.75 
L 47.265625 62.75 
L 47.265625 83.453125 
L 55.671875 83.453125 
L 55.671875 62.75 
L 92.96875 62.75 
L 92.96875 55.21875 
L 55.671875 55.21875 
L 55.671875 32.671875 
L 90.234375 32.671875 
L 90.234375 25.140625 
L 55.671875 25.140625 
L 55.671875 0.25 
L 98.25 0.25 
L 98.25 -7.078125 
L 1.953125 -7.078125 
z
" id="MicrosoftYaHei-751f"/>
     </defs>
     <g transform="translate(145 84.313438)scale(0.1 -0.1)">
      <use xlink:href="#MicrosoftYaHei-7814"/>
      <use x="100" xlink:href="#MicrosoftYaHei-7a76"/>
      <use x="200" xlink:href="#MicrosoftYaHei-751f"/>
      <use x="300" xlink:href="#MicrosoftYaHei-5b66"/>
      <use x="400" xlink:href="#MicrosoftYaHei-5386"/>
      <use x="500" xlink:href="#MicrosoftYaHei-5360"/>
      <use x="600" xlink:href="#MicrosoftYaHei-6bd4"/>
     </g>
    </g>
    <g id="line2d_36">
     <path d="M 117 96.293125 
L 137 96.293125 
" style="fill:none;stroke:#2ca02c;stroke-linecap:square;stroke-width:1.5;"/>
    </g>
    <g id="line2d_37">
     <g>
      <use style="fill:#2ca02c;stroke:#2ca02c;" x="127" xlink:href="#mc9b94ffe38" y="96.293125"/>
     </g>
    </g>
    <g id="text_19">
     <!-- 博士学历占比 -->
     <defs>
      <path d="M 83.109375 22.609375 
L 83.109375 27.984375 
L 64.84375 27.984375 
L 64.84375 21.734375 
L 57.8125 21.734375 
L 57.8125 27.984375 
L 39.75 27.984375 
L 39.75 20.65625 
L 32.71875 20.65625 
L 32.71875 58.9375 
L 57.8125 58.9375 
L 57.8125 65.375 
L 27.9375 65.375 
L 27.9375 71.625 
L 57.8125 71.625 
L 57.8125 82.953125 
L 64.84375 82.953125 
L 64.84375 71.625 
L 96.09375 71.625 
L 96.09375 65.375 
L 64.84375 65.375 
L 64.84375 58.9375 
L 90.140625 58.9375 
L 90.140625 22.609375 
z
M 1.46875 55.421875 
L 11.328125 55.421875 
L 11.328125 82.953125 
L 18.5625 82.953125 
L 18.5625 55.421875 
L 27.9375 55.421875 
L 27.9375 48.390625 
L 18.5625 48.390625 
L 18.5625 -13.140625 
L 11.328125 -13.140625 
L 11.328125 48.390625 
L 1.46875 48.390625 
z
M 25.390625 16.546875 
L 75.484375 16.546875 
L 75.484375 22.21875 
L 82.71875 22.21875 
L 82.71875 16.546875 
L 98.4375 16.546875 
L 98.4375 10.296875 
L 82.71875 10.296875 
L 82.71875 -0.921875 
Q 82.71875 -11.96875 71 -11.96875 
Q 65.4375 -11.96875 57.234375 -11.765625 
Q 56.84375 -8.640625 56.0625 -4.546875 
Q 63.96875 -5.21875 70.125 -5.21875 
Q 75.484375 -5.21875 75.484375 0.046875 
L 75.484375 10.296875 
L 25.390625 10.296875 
z
M 64.84375 33.84375 
L 83.109375 33.84375 
L 83.109375 40.484375 
L 64.84375 40.484375 
z
M 39.75 33.84375 
L 57.8125 33.84375 
L 57.8125 40.484375 
L 39.75 40.484375 
z
M 83.109375 52.875 
L 64.84375 52.875 
L 64.84375 46.34375 
L 83.109375 46.34375 
z
M 39.75 46.34375 
L 57.8125 46.34375 
L 57.8125 52.875 
L 39.75 52.875 
z
M 36.921875 4.9375 
L 41.3125 9.8125 
Q 48.34375 5.21875 54.59375 0.25 
L 49.90625 -4.9375 
Q 44.140625 -0.046875 36.921875 4.9375 
z
M 84.375 71.828125 
Q 78.515625 75.046875 72.078125 77.984375 
L 75.09375 82.953125 
Q 82.234375 79.9375 87.40625 77.296875 
z
" id="MicrosoftYaHei-535a"/>
      <path d="M 9.1875 2.09375 
L 45.609375 2.09375 
L 45.609375 44.1875 
L 2.25 44.1875 
L 2.25 52.296875 
L 45.609375 52.296875 
L 45.609375 82.953125 
L 54.390625 82.953125 
L 54.390625 52.296875 
L 97.65625 52.296875 
L 97.65625 44.1875 
L 54.390625 44.1875 
L 54.390625 2.09375 
L 90.828125 2.09375 
L 90.828125 -5.71875 
L 9.1875 -5.71875 
z
" id="MicrosoftYaHei-58eb"/>
     </defs>
     <g transform="translate(145 99.793125)scale(0.1 -0.1)">
      <use xlink:href="#MicrosoftYaHei-535a"/>
      <use x="100" xlink:href="#MicrosoftYaHei-58eb"/>
      <use x="200" xlink:href="#MicrosoftYaHei-5b66"/>
      <use x="300" xlink:href="#MicrosoftYaHei-5386"/>
      <use x="400" xlink:href="#MicrosoftYaHei-5360"/>
      <use x="500" xlink:href="#MicrosoftYaHei-6bd4"/>
     </g>
    </g>
   </g>
  </g>
 </g>
 <defs>
  <clipPath id="pd8bc8c2e0d">
   <rect height="332.64" width="669.6" x="108" y="51.84"/>
  </clipPath>
 </defs>
</svg>
