<?xml version="1.0" encoding="utf-8" standalone="no"?>
<!DOCTYPE svg PUBLIC "-//W3C//DTD SVG 1.1//EN"
  "http://www.w3.org/Graphics/SVG/1.1/DTD/svg11.dtd">
<!-- Created with matplotlib (http://matplotlib.org/) -->
<svg height="432pt" version="1.1" viewBox="0 0 864 432" width="864pt" xmlns="http://www.w3.org/2000/svg" xmlns:xlink="http://www.w3.org/1999/xlink">
 <defs>
  <style type="text/css">
*{stroke-linecap:butt;stroke-linejoin:round;}
  </style>
 </defs>
 <g id="figure_1">
  <g id="patch_1">
   <path d="M 0 432 
L 864 432 
L 864 0 
L 0 0 
z
" style="fill:#ffffff;"/>
  </g>
  <g id="axes_1">
   <g id="patch_2">
    <path d="M 108 384.48 
L 777.6 384.48 
L 777.6 51.84 
L 108 51.84 
z
" style="fill:#ffffff;"/>
   </g>
   <g id="PolyCollection_1">
    <defs>
     <path d="M 108 -107.30022 
L 108 -47.52 
L 117.704348 -47.52 
L 127.408696 -47.52 
L 137.113043 -47.52 
L 146.817391 -47.52 
L 156.521739 -47.52 
L 166.226087 -47.52 
L 175.930435 -47.52 
L 185.634783 -47.52 
L 195.33913 -47.52 
L 205.043478 -47.52 
L 214.747826 -47.52 
L 224.452174 -47.52 
L 234.156522 -47.52 
L 243.86087 -47.52 
L 253.565217 -47.52 
L 263.269565 -47.52 
L 272.973913 -47.52 
L 282.678261 -47.52 
L 292.382609 -47.52 
L 302.086957 -47.52 
L 311.791304 -47.52 
L 321.495652 -47.52 
L 331.2 -47.52 
L 340.904348 -47.52 
L 350.608696 -47.52 
L 360.313043 -47.52 
L 370.017391 -47.52 
L 379.721739 -47.52 
L 389.426087 -47.52 
L 399.130435 -47.52 
L 408.834783 -47.52 
L 418.53913 -47.52 
L 428.243478 -47.52 
L 437.947826 -47.52 
L 447.652174 -47.52 
L 457.356522 -47.52 
L 467.06087 -47.52 
L 476.765217 -47.52 
L 486.469565 -47.52 
L 496.173913 -47.52 
L 505.878261 -47.52 
L 515.582609 -47.52 
L 525.286957 -47.52 
L 534.991304 -47.52 
L 544.695652 -47.52 
L 554.4 -47.52 
L 564.104348 -47.52 
L 573.808696 -47.52 
L 583.513043 -47.52 
L 593.217391 -47.52 
L 602.921739 -47.52 
L 612.626087 -47.52 
L 622.330435 -47.52 
L 632.034783 -47.52 
L 641.73913 -47.52 
L 651.443478 -47.52 
L 661.147826 -47.52 
L 670.852174 -47.52 
L 680.556522 -47.52 
L 690.26087 -47.52 
L 699.965217 -47.52 
L 709.669565 -47.52 
L 719.373913 -47.52 
L 729.078261 -47.52 
L 738.782609 -47.52 
L 748.486957 -47.52 
L 758.191304 -47.52 
L 767.895652 -47.52 
L 777.6 -47.52 
L 777.6 -211.678242 
L 777.6 -211.678242 
L 767.895652 -202.821486 
L 758.191304 -201.585934 
L 748.486957 -199.52 
L 738.782609 -193.313407 
L 729.078261 -196.566154 
L 719.373913 -198.262857 
L 709.669565 -200.205714 
L 699.965217 -196.240879 
L 690.26087 -191.502418 
L 680.556522 -196.592527 
L 670.852174 -200.144176 
L 661.147826 -199.555165 
L 651.443478 -194.482637 
L 641.73913 -201.102418 
L 632.034783 -208.346374 
L 622.330435 -219.194725 
L 612.626087 -218.438681 
L 602.921739 -218.640879 
L 593.217391 -225.940545 
L 583.513043 -241.048035 
L 573.808696 -263.963446 
L 564.104348 -269.467719 
L 554.4 -270.095824 
L 544.695652 -270.555859 
L 534.991304 -254.41956 
L 525.286957 -239.44967 
L 515.582609 -229.738901 
L 505.878261 -228.970549 
L 496.173913 -236.666374 
L 486.469565 -234.181978 
L 476.765217 -231.658022 
L 467.06087 -246.045714 
L 457.356522 -249.55956 
L 447.652174 -264.92044 
L 437.947826 -271.168352 
L 428.243478 -282.394725 
L 418.53913 -289.207912 
L 408.834783 -306.183736 
L 399.130435 -320.196923 
L 389.426087 -338.983736 
L 379.721739 -321.058462 
L 370.017391 -325.418901 
L 360.313043 -342.21011 
L 350.608696 -333.19033 
L 340.904348 -343.722198 
L 331.2 -364.32 
L 321.495652 -345.322198 
L 311.791304 -296.469451 
L 302.086957 -241.427692 
L 292.382609 -201.647473 
L 282.678261 -170.816703 
L 272.973913 -212.724396 
L 263.269565 -337.278242 
L 253.565217 -308.522198 
L 243.86087 -196.812308 
L 234.156522 -186.974945 
L 224.452174 -192.32 
L 214.747826 -266.799121 
L 205.043478 -227.660659 
L 195.33913 -311.30022 
L 185.634783 -157.33978 
L 175.930435 -187.502418 
L 166.226087 -151.432088 
L 156.521739 -140.223297 
L 146.817391 -119.563956 
L 137.113043 -148.557363 
L 127.408696 -143.01011 
L 117.704348 -108.75956 
L 108 -107.30022 
z
" id="mbd75d940c7" style="stroke:#1f77b4;"/>
    </defs>
    <g clip-path="url(#pbb8fbb9efd)">
     <use style="fill:#1f77b4;stroke:#1f77b4;" x="0" xlink:href="#mbd75d940c7" y="432"/>
    </g>
   </g>
   <g id="PolyCollection_2">
    <defs>
     <path d="M 108 -47.52 
L 108 -47.52 
L 117.704348 -47.52 
L 127.408696 -47.52 
L 137.113043 -47.52 
L 146.817391 -47.52 
L 156.521739 -47.52 
L 166.226087 -47.52 
L 175.930435 -47.52 
L 185.634783 -47.52 
L 195.33913 -47.52 
L 205.043478 -47.52 
L 214.747826 -47.52 
L 224.452174 -47.52 
L 234.156522 -47.52 
L 243.86087 -47.52 
L 253.565217 -47.52 
L 263.269565 -47.52 
L 272.973913 -47.52 
L 282.678261 -47.52 
L 292.382609 -47.52 
L 302.086957 -47.52 
L 311.791304 -47.52 
L 321.495652 -47.52 
L 331.2 -47.52 
L 340.904348 -47.52 
L 350.608696 -47.52 
L 360.313043 -47.52 
L 370.017391 -47.52 
L 379.721739 -47.52 
L 389.426087 -47.52 
L 399.130435 -47.52 
L 408.834783 -47.52 
L 418.53913 -47.52 
L 428.243478 -47.52 
L 437.947826 -47.52 
L 447.652174 -47.52 
L 457.356522 -47.52 
L 467.06087 -47.52 
L 476.765217 -47.52 
L 486.469565 -47.52 
L 496.173913 -47.52 
L 505.878261 -47.52 
L 515.582609 -47.52 
L 525.286957 -47.52 
L 534.991304 -47.52 
L 544.695652 -47.52 
L 554.4 -47.52 
L 564.104348 -47.52 
L 573.808696 -47.52 
L 583.513043 -47.52 
L 593.217391 -47.52 
L 602.921739 -47.52 
L 612.626087 -47.52 
L 622.330435 -47.52 
L 632.034783 -47.52 
L 641.73913 -47.52 
L 651.443478 -47.52 
L 661.147826 -47.52 
L 670.852174 -47.52 
L 680.556522 -47.52 
L 690.26087 -47.52 
L 699.965217 -47.52 
L 709.669565 -47.52 
L 719.373913 -47.52 
L 729.078261 -47.52 
L 738.782609 -47.52 
L 748.486957 -47.52 
L 758.191304 -47.52 
L 767.895652 -47.52 
L 777.6 -47.52 
L 777.6 -47.52 
L 777.6 -47.52 
L 767.895652 -60.565969 
L 758.191304 -60.832844 
L 748.486957 -61.163604 
L 738.782609 -61.720949 
L 729.078261 -63.654655 
L 719.373913 -66.324677 
L 709.669565 -69.183842 
L 699.965217 -72.018875 
L 690.26087 -75.051736 
L 680.556522 -73.07236 
L 670.852174 -74.08553 
L 661.147826 -72.840325 
L 651.443478 -69.340809 
L 641.73913 -66.215235 
L 632.034783 -47.52 
L 622.330435 -47.52 
L 612.626087 -47.52 
L 602.921739 -47.52 
L 593.217391 -47.52 
L 583.513043 -47.52 
L 573.808696 -47.52 
L 564.104348 -47.52 
L 554.4 -47.52 
L 544.695652 -47.52 
L 534.991304 -47.52 
L 525.286957 -47.52 
L 515.582609 -47.52 
L 505.878261 -47.52 
L 496.173913 -47.52 
L 486.469565 -47.52 
L 476.765217 -47.52 
L 467.06087 -47.52 
L 457.356522 -47.52 
L 447.652174 -47.52 
L 437.947826 -47.52 
L 428.243478 -47.52 
L 418.53913 -47.52 
L 408.834783 -47.52 
L 399.130435 -47.52 
L 389.426087 -47.52 
L 379.721739 -47.52 
L 370.017391 -47.52 
L 360.313043 -47.52 
L 350.608696 -47.52 
L 340.904348 -47.52 
L 331.2 -47.52 
L 321.495652 -47.52 
L 311.791304 -47.52 
L 302.086957 -47.52 
L 292.382609 -47.52 
L 282.678261 -47.52 
L 272.973913 -47.52 
L 263.269565 -47.52 
L 253.565217 -47.52 
L 243.86087 -47.52 
L 234.156522 -47.52 
L 224.452174 -47.52 
L 214.747826 -47.52 
L 205.043478 -47.52 
L 195.33913 -47.52 
L 185.634783 -47.52 
L 175.930435 -47.52 
L 166.226087 -47.52 
L 156.521739 -47.52 
L 146.817391 -47.52 
L 137.113043 -47.52 
L 127.408696 -47.52 
L 117.704348 -47.52 
L 108 -47.52 
z
" id="m4c53661e41" style="stroke:#ff7f0e;"/>
    </defs>
    <g clip-path="url(#pbb8fbb9efd)">
     <use style="fill:#ff7f0e;stroke:#ff7f0e;" x="0" xlink:href="#m4c53661e41" y="432"/>
    </g>
   </g>
   <g id="PolyCollection_3">
    <defs>
     <path d="M 108 -48.144176 
L 108 -47.52 
L 117.704348 -47.52 
L 127.408696 -47.52 
L 137.113043 -47.52 
L 146.817391 -47.52 
L 156.521739 -47.52 
L 166.226087 -47.52 
L 175.930435 -47.52 
L 185.634783 -47.52 
L 195.33913 -47.52 
L 205.043478 -47.52 
L 214.747826 -47.52 
L 224.452174 -47.52 
L 234.156522 -47.52 
L 243.86087 -47.52 
L 253.565217 -47.52 
L 263.269565 -47.52 
L 272.973913 -47.52 
L 282.678261 -47.52 
L 292.382609 -47.52 
L 302.086957 -47.52 
L 311.791304 -47.52 
L 321.495652 -47.52 
L 331.2 -47.52 
L 340.904348 -47.52 
L 350.608696 -47.52 
L 360.313043 -47.52 
L 370.017391 -47.52 
L 379.721739 -47.52 
L 389.426087 -47.52 
L 399.130435 -47.52 
L 408.834783 -47.52 
L 418.53913 -47.52 
L 428.243478 -47.52 
L 437.947826 -47.52 
L 447.652174 -47.52 
L 457.356522 -47.52 
L 467.06087 -47.52 
L 476.765217 -47.52 
L 486.469565 -47.52 
L 496.173913 -47.52 
L 505.878261 -47.52 
L 515.582609 -47.52 
L 525.286957 -47.52 
L 534.991304 -47.52 
L 544.695652 -47.52 
L 554.4 -47.52 
L 564.104348 -47.52 
L 573.808696 -47.52 
L 583.513043 -47.52 
L 593.217391 -47.52 
L 602.921739 -47.52 
L 612.626087 -47.52 
L 622.330435 -47.52 
L 632.034783 -47.52 
L 641.73913 -47.52 
L 651.443478 -47.52 
L 661.147826 -47.52 
L 670.852174 -47.52 
L 680.556522 -47.52 
L 690.26087 -47.52 
L 699.965217 -47.52 
L 709.669565 -47.52 
L 719.373913 -47.52 
L 729.078261 -47.52 
L 738.782609 -47.52 
L 748.486957 -47.52 
L 758.191304 -47.52 
L 767.895652 -47.52 
L 777.6 -47.52 
L 777.6 -117.207912 
L 777.6 -117.207912 
L 767.895652 -117.854488 
L 758.191304 -118.104615 
L 748.486957 -117.550769 
L 738.782609 -117.550769 
L 729.078261 -119.845275 
L 719.373913 -121.770549 
L 709.669565 -122.315604 
L 699.965217 -121.032088 
L 690.26087 -120.513407 
L 680.556522 -121.102418 
L 670.852174 -121.383736 
L 661.147826 -124.109011 
L 651.443478 -124.68044 
L 641.73913 -119.73978 
L 632.034783 -113.638681 
L 622.330435 -107.01011 
L 612.626087 -96.574945 
L 602.921739 -89.076044 
L 593.217391 -82.361662 
L 583.513043 -79.128967 
L 573.808696 -75.881697 
L 564.104348 -72.331402 
L 554.4 -71.572747 
L 544.695652 -68.916809 
L 534.991304 -67.593415 
L 525.286957 -68.155789 
L 515.582609 -68.954347 
L 505.878261 -69.48044 
L 496.173913 -68.807332 
L 486.469565 -69.635165 
L 476.765217 -69.951648 
L 467.06087 -70.141538 
L 457.356522 -70.157363 
L 447.652174 -70.581978 
L 437.947826 -70.35956 
L 428.243478 -72.073846 
L 418.53913 -76.337582 
L 408.834783 -81.225495 
L 399.130435 -101.506813 
L 389.426087 -108.434286 
L 379.721739 -134.825495 
L 370.017391 -123.221099 
L 360.313043 -103.177143 
L 350.608696 -95.089231 
L 340.904348 -87.256264 
L 331.2 -89.62989 
L 321.495652 -75.766154 
L 311.791304 -68.530989 
L 302.086957 -56.627692 
L 292.382609 -53.058462 
L 282.678261 -48.715604 
L 272.973913 -49.33978 
L 263.269565 -51.555165 
L 253.565217 -51.370549 
L 243.86087 -51.335385 
L 234.156522 -51.185934 
L 224.452174 -51.44967 
L 214.747826 -53.48044 
L 205.043478 -53.287033 
L 195.33913 -52.460659 
L 185.634783 -50.35956 
L 175.930435 -50.807912 
L 166.226087 -49.462857 
L 156.521739 -49.234286 
L 146.817391 -48.935385 
L 137.113043 -48.75956 
L 127.408696 -48.32 
L 117.704348 -48.469451 
L 108 -48.144176 
z
" id="m691655b8ca" style="stroke:#2ca02c;"/>
    </defs>
    <g clip-path="url(#pbb8fbb9efd)">
     <use style="fill:#2ca02c;stroke:#2ca02c;" x="0" xlink:href="#m691655b8ca" y="432"/>
    </g>
   </g>
   <g id="PolyCollection_4">
    <defs>
     <path d="M 108 -47.792527 
L 108 -47.52 
L 117.704348 -47.52 
L 127.408696 -47.52 
L 137.113043 -47.52 
L 146.817391 -47.52 
L 156.521739 -47.52 
L 166.226087 -47.52 
L 175.930435 -47.52 
L 185.634783 -47.52 
L 195.33913 -47.52 
L 205.043478 -47.52 
L 214.747826 -47.52 
L 224.452174 -47.52 
L 234.156522 -47.52 
L 243.86087 -47.52 
L 253.565217 -47.52 
L 263.269565 -47.52 
L 272.973913 -47.52 
L 282.678261 -47.52 
L 292.382609 -47.52 
L 302.086957 -47.52 
L 311.791304 -47.52 
L 321.495652 -47.52 
L 331.2 -47.52 
L 340.904348 -47.52 
L 350.608696 -47.52 
L 360.313043 -47.52 
L 370.017391 -47.52 
L 379.721739 -47.52 
L 389.426087 -47.52 
L 399.130435 -47.52 
L 408.834783 -47.52 
L 418.53913 -47.52 
L 428.243478 -47.52 
L 437.947826 -47.52 
L 447.652174 -47.52 
L 457.356522 -47.52 
L 467.06087 -47.52 
L 476.765217 -47.52 
L 486.469565 -47.52 
L 496.173913 -47.52 
L 505.878261 -47.52 
L 515.582609 -47.52 
L 525.286957 -47.52 
L 534.991304 -47.52 
L 544.695652 -47.52 
L 554.4 -47.52 
L 564.104348 -47.52 
L 573.808696 -47.52 
L 583.513043 -47.52 
L 593.217391 -47.52 
L 602.921739 -47.52 
L 612.626087 -47.52 
L 622.330435 -47.52 
L 632.034783 -47.52 
L 641.73913 -47.52 
L 651.443478 -47.52 
L 661.147826 -47.52 
L 670.852174 -47.52 
L 680.556522 -47.52 
L 690.26087 -47.52 
L 699.965217 -47.52 
L 709.669565 -47.52 
L 719.373913 -47.52 
L 729.078261 -47.52 
L 738.782609 -47.52 
L 748.486957 -47.52 
L 758.191304 -47.52 
L 767.895652 -47.52 
L 777.6 -47.52 
L 777.6 -117.058462 
L 777.6 -117.058462 
L 767.895652 -114.464114 
L 758.191304 -113.330989 
L 748.486957 -112.381538 
L 738.782609 -110.93978 
L 729.078261 -109.040879 
L 719.373913 -108.073846 
L 709.669565 -107.432088 
L 699.965217 -105.70022 
L 690.26087 -103.73978 
L 680.556522 -100.944176 
L 670.852174 -97.269451 
L 661.147826 -95.528791 
L 651.443478 -91.871648 
L 641.73913 -86.843077 
L 632.034783 -81.12 
L 622.330435 -75.695824 
L 612.626087 -71.106813 
L 602.921739 -66.913407 
L 593.217391 -61.557802 
L 583.513043 -57.046391 
L 573.808696 -56.314664 
L 564.104348 -56.010655 
L 554.4 -55.660659 
L 544.695652 -55.430734 
L 534.991304 -55.642655 
L 525.286957 -54.150259 
L 515.582609 -52.969442 
L 505.878261 -52.873846 
L 496.173913 -52.769345 
L 486.469565 -53.407473 
L 476.765217 -52.942418 
L 467.06087 -52.548571 
L 457.356522 -52.961758 
L 447.652174 -51.697327 
L 437.947826 -50.957363 
L 428.243478 -50.289231 
L 418.53913 -49.972747 
L 408.834783 -49.99033 
L 399.130435 -49.937582 
L 389.426087 -51.054066 
L 379.721739 -49.92 
L 370.017391 -49.427692 
L 360.313043 -49.199121 
L 350.608696 -48.970549 
L 340.904348 -48.838681 
L 331.2 -48.698022 
L 321.495652 -47.889231 
L 311.791304 -47.889231 
L 302.086957 -47.52 
L 292.382609 -47.52 
L 282.678261 -47.52 
L 272.973913 -47.52 
L 263.269565 -48.961758 
L 253.565217 -48.812308 
L 243.86087 -48.689231 
L 234.156522 -48.460659 
L 224.452174 -49.005714 
L 214.747826 -50.35956 
L 205.043478 -49.928791 
L 195.33913 -49.84967 
L 185.634783 -48.451868 
L 175.930435 -49.146374 
L 166.226087 -48.381538 
L 156.521739 -48.328791 
L 146.817391 -48.232088 
L 137.113043 -48.214505 
L 127.408696 -47.977143 
L 117.704348 -48.02989 
L 108 -47.792527 
z
" id="mb81df7d9ef" style="stroke:#d62728;"/>
    </defs>
    <g clip-path="url(#pbb8fbb9efd)">
     <use style="fill:#d62728;stroke:#d62728;" x="0" xlink:href="#mb81df7d9ef" y="432"/>
    </g>
   </g>
   <g id="PolyCollection_5">
    <defs>
     <path d="M 108 -47.52 
L 108 -47.52 
L 117.704348 -47.52 
L 127.408696 -47.52 
L 137.113043 -47.52 
L 146.817391 -47.52 
L 156.521739 -47.52 
L 166.226087 -47.52 
L 175.930435 -47.52 
L 185.634783 -47.52 
L 195.33913 -47.52 
L 205.043478 -47.52 
L 214.747826 -47.52 
L 224.452174 -47.52 
L 234.156522 -47.52 
L 243.86087 -47.52 
L 253.565217 -47.52 
L 263.269565 -47.52 
L 272.973913 -47.52 
L 282.678261 -47.52 
L 292.382609 -47.52 
L 302.086957 -47.52 
L 311.791304 -47.52 
L 321.495652 -47.52 
L 331.2 -47.52 
L 340.904348 -47.52 
L 350.608696 -47.52 
L 360.313043 -47.52 
L 370.017391 -47.52 
L 379.721739 -47.52 
L 389.426087 -47.52 
L 399.130435 -47.52 
L 408.834783 -47.52 
L 418.53913 -47.52 
L 428.243478 -47.52 
L 437.947826 -47.52 
L 447.652174 -47.52 
L 457.356522 -47.52 
L 467.06087 -47.52 
L 476.765217 -47.52 
L 486.469565 -47.52 
L 496.173913 -47.52 
L 505.878261 -47.52 
L 515.582609 -47.52 
L 525.286957 -47.52 
L 534.991304 -47.52 
L 544.695652 -47.52 
L 554.4 -47.52 
L 564.104348 -47.52 
L 573.808696 -47.52 
L 583.513043 -47.52 
L 593.217391 -47.52 
L 602.921739 -47.52 
L 612.626087 -47.52 
L 622.330435 -47.52 
L 632.034783 -47.52 
L 641.73913 -47.52 
L 651.443478 -47.52 
L 661.147826 -47.52 
L 670.852174 -47.52 
L 680.556522 -47.52 
L 690.26087 -47.52 
L 699.965217 -47.52 
L 709.669565 -47.52 
L 719.373913 -47.52 
L 729.078261 -47.52 
L 738.782609 -47.52 
L 748.486957 -47.52 
L 758.191304 -47.52 
L 767.895652 -47.52 
L 777.6 -47.52 
L 777.6 -47.52 
L 777.6 -47.52 
L 767.895652 -83.630189 
L 758.191304 -83.159622 
L 748.486957 -81.754585 
L 738.782609 -81.226831 
L 729.078261 -81.05258 
L 719.373913 -80.404167 
L 709.669565 -78.873064 
L 699.965217 -78.399675 
L 690.26087 -76.188844 
L 680.556522 -73.635174 
L 670.852174 -72.319745 
L 661.147826 -69.769266 
L 651.443478 -68.299314 
L 641.73913 -65.974075 
L 632.034783 -63.566259 
L 622.330435 -61.479903 
L 612.626087 -59.668 
L 602.921739 -57.719481 
L 593.217391 -55.754637 
L 583.513043 -53.261846 
L 573.808696 -47.52 
L 564.104348 -47.52 
L 554.4 -47.52 
L 544.695652 -47.52 
L 534.991304 -47.52 
L 525.286957 -47.52 
L 515.582609 -47.52 
L 505.878261 -47.52 
L 496.173913 -47.52 
L 486.469565 -47.52 
L 476.765217 -47.52 
L 467.06087 -47.52 
L 457.356522 -47.52 
L 447.652174 -47.52 
L 437.947826 -47.52 
L 428.243478 -47.52 
L 418.53913 -47.52 
L 408.834783 -47.52 
L 399.130435 -47.52 
L 389.426087 -47.52 
L 379.721739 -47.52 
L 370.017391 -47.52 
L 360.313043 -47.52 
L 350.608696 -47.52 
L 340.904348 -47.52 
L 331.2 -47.52 
L 321.495652 -47.52 
L 311.791304 -47.52 
L 302.086957 -47.52 
L 292.382609 -47.52 
L 282.678261 -47.52 
L 272.973913 -47.52 
L 263.269565 -47.52 
L 253.565217 -47.52 
L 243.86087 -47.52 
L 234.156522 -47.52 
L 224.452174 -47.52 
L 214.747826 -47.52 
L 205.043478 -47.52 
L 195.33913 -47.52 
L 185.634783 -47.52 
L 175.930435 -47.52 
L 166.226087 -47.52 
L 156.521739 -47.52 
L 146.817391 -47.52 
L 137.113043 -47.52 
L 127.408696 -47.52 
L 117.704348 -47.52 
L 108 -47.52 
z
" id="m54d6ae3b52" style="stroke:#9467bd;"/>
    </defs>
    <g clip-path="url(#pbb8fbb9efd)">
     <use style="fill:#9467bd;stroke:#9467bd;" x="0" xlink:href="#m54d6ae3b52" y="432"/>
    </g>
   </g>
   <g id="matplotlib.axis_1">
    <g id="xtick_1">
     <g id="line2d_1">
      <path clip-path="url(#pbb8fbb9efd)" d="M 108 384.48 
L 108 51.84 
" style="fill:none;stroke:#b0b0b0;stroke-linecap:square;stroke-width:0.8;"/>
     </g>
     <g id="line2d_2">
      <defs>
       <path d="M 0 0 
L 0 3.5 
" id="m83af8861f0" style="stroke:#000000;stroke-width:0.8;"/>
      </defs>
      <g>
       <use style="stroke:#000000;stroke-width:0.8;" x="108" xlink:href="#m83af8861f0" y="384.48"/>
      </g>
     </g>
     <g id="text_1">
      <!-- 1949年 -->
      <defs>
       <path d="M 52.59375 0 
L 9.234375 0 
L 9.234375 8.25 
L 26.171875 8.25 
L 26.171875 65.671875 
L 8.796875 60.640625 
L 8.796875 69.4375 
L 35.6875 77.25 
L 35.6875 8.25 
L 52.59375 8.25 
z
" id="MicrosoftYaHei-31"/>
       <path d="M 9.03125 10.25 
Q 15.28125 6.640625 22.515625 6.640625 
Q 32.671875 6.640625 38.25 14.640625 
Q 43.84375 22.65625 43.84375 37.40625 
Q 43.75 37.3125 43.65625 37.40625 
Q 38.671875 27.9375 26.90625 27.9375 
Q 17.390625 27.9375 11.140625 34.46875 
Q 4.890625 41.015625 4.890625 51.46875 
Q 4.890625 62.59375 11.71875 69.75 
Q 18.5625 76.90625 29.4375 76.90625 
Q 40.71875 76.90625 47.0625 68.046875 
Q 53.421875 59.1875 53.421875 42.234375 
Q 53.421875 21.296875 45.21875 10.015625 
Q 37.015625 -1.265625 22.515625 -1.265625 
Q 14.546875 -1.265625 9.03125 1.3125 
z
M 14.546875 52.6875 
Q 14.546875 45.0625 18.453125 40.59375 
Q 22.359375 36.140625 29.25 36.140625 
Q 35.203125 36.140625 39.25 40.203125 
Q 43.3125 44.28125 43.3125 50.09375 
Q 43.3125 58.25 39.28125 63.59375 
Q 35.25 68.953125 28.65625 68.953125 
Q 22.5625 68.953125 18.546875 64.3125 
Q 14.546875 59.671875 14.546875 52.6875 
z
" id="MicrosoftYaHei-39"/>
       <path d="M 55.078125 19.625 
L 45.40625 19.625 
L 45.40625 0 
L 36.140625 0 
L 36.140625 19.625 
L 0.875 19.625 
L 0.875 25.828125 
L 34.328125 75.640625 
L 45.40625 75.640625 
L 45.40625 27.203125 
L 55.078125 27.203125 
z
M 36.140625 27.203125 
L 36.140625 58.890625 
Q 36.140625 62.25 36.328125 66.65625 
L 36.140625 66.65625 
Q 35.453125 64.796875 33.25 60.84375 
L 10.75 27.203125 
z
" id="MicrosoftYaHei-34"/>
       <path d="M 1.859375 19.96875 
L 17.578125 19.96875 
L 17.578125 47.90625 
L 52.15625 47.90625 
L 52.15625 65.28125 
L 23.4375 65.28125 
Q 16.84375 53.421875 8.6875 43.40625 
Q 6.15625 46.140625 2.640625 48.875 
Q 16.5 64.5 23.4375 83.9375 
L 31.453125 81.6875 
Q 29.390625 76.859375 27.15625 72.3125 
L 94.34375 72.3125 
L 94.34375 65.28125 
L 60.0625 65.28125 
L 60.0625 47.90625 
L 92.671875 47.90625 
L 92.671875 41.0625 
L 60.0625 41.0625 
L 60.0625 19.96875 
L 98.734375 19.96875 
L 98.734375 12.9375 
L 60.0625 12.9375 
L 60.0625 -13.421875 
L 52.15625 -13.421875 
L 52.15625 12.9375 
L 1.859375 12.9375 
z
M 25.296875 19.96875 
L 52.15625 19.96875 
L 52.15625 41.0625 
L 25.296875 41.0625 
z
" id="MicrosoftYaHei-5e74"/>
      </defs>
      <g transform="translate(91.271875 399.47375)scale(0.1 -0.1)">
       <use xlink:href="#MicrosoftYaHei-31"/>
       <use x="58.642578" xlink:href="#MicrosoftYaHei-39"/>
       <use x="117.285156" xlink:href="#MicrosoftYaHei-34"/>
       <use x="175.927734" xlink:href="#MicrosoftYaHei-39"/>
       <use x="234.570312" xlink:href="#MicrosoftYaHei-5e74"/>
      </g>
     </g>
    </g>
    <g id="xtick_2">
     <g id="line2d_3">
      <path clip-path="url(#pbb8fbb9efd)" d="M 205.043478 384.48 
L 205.043478 51.84 
" style="fill:none;stroke:#b0b0b0;stroke-linecap:square;stroke-width:0.8;"/>
     </g>
     <g id="line2d_4">
      <g>
       <use style="stroke:#000000;stroke-width:0.8;" x="205.043478" xlink:href="#m83af8861f0" y="384.48"/>
      </g>
     </g>
     <g id="text_2">
      <!-- 1959年 -->
      <defs>
       <path d="M 8.640625 11.625 
Q 16.265625 6.640625 24.515625 6.640625 
Q 32.328125 6.640625 37.109375 11 
Q 41.890625 15.375 41.890625 22.609375 
Q 41.890625 29.890625 37.03125 33.890625 
Q 32.171875 37.890625 22.953125 37.890625 
Q 18.5 37.890625 10.984375 37.203125 
L 10.984375 75.640625 
L 48.1875 75.640625 
L 48.1875 67.1875 
L 19.875 67.1875 
L 19.875 45.796875 
Q 24.125 46.046875 26.265625 46.046875 
Q 38.234375 46.046875 44.921875 39.984375 
Q 51.609375 33.9375 51.609375 23.296875 
Q 51.609375 12.3125 44.421875 5.515625 
Q 37.25 -1.265625 24.609375 -1.265625 
Q 14.015625 -1.265625 8.640625 1.859375 
z
" id="MicrosoftYaHei-35"/>
      </defs>
      <g transform="translate(188.315353 399.47375)scale(0.1 -0.1)">
       <use xlink:href="#MicrosoftYaHei-31"/>
       <use x="58.642578" xlink:href="#MicrosoftYaHei-39"/>
       <use x="117.285156" xlink:href="#MicrosoftYaHei-35"/>
       <use x="175.927734" xlink:href="#MicrosoftYaHei-39"/>
       <use x="234.570312" xlink:href="#MicrosoftYaHei-5e74"/>
      </g>
     </g>
    </g>
    <g id="xtick_3">
     <g id="line2d_5">
      <path clip-path="url(#pbb8fbb9efd)" d="M 302.086957 384.48 
L 302.086957 51.84 
" style="fill:none;stroke:#b0b0b0;stroke-linecap:square;stroke-width:0.8;"/>
     </g>
     <g id="line2d_6">
      <g>
       <use style="stroke:#000000;stroke-width:0.8;" x="302.086957" xlink:href="#m83af8861f0" y="384.48"/>
      </g>
     </g>
     <g id="text_3">
      <!-- 1969年 -->
      <defs>
       <path d="M 49.703125 65.921875 
Q 43.796875 68.953125 37.359375 68.953125 
Q 27.546875 68.953125 21.578125 60.40625 
Q 15.625 51.859375 15.53125 37.0625 
L 15.765625 37.0625 
Q 21.140625 47.46875 32.90625 47.46875 
Q 42.71875 47.46875 48.578125 41.0625 
Q 54.4375 34.671875 54.4375 24.078125 
Q 54.4375 12.984375 47.671875 5.859375 
Q 40.921875 -1.265625 30.421875 -1.265625 
Q 18.890625 -1.265625 12.328125 7.734375 
Q 5.765625 16.75 5.765625 33.296875 
Q 5.765625 53.328125 14.375 65.109375 
Q 23 76.90625 37.0625 76.90625 
Q 45.125 76.90625 49.703125 74.703125 
z
M 16.109375 24.75 
Q 16.109375 17.28125 20.09375 11.953125 
Q 24.078125 6.640625 30.671875 6.640625 
Q 36.921875 6.640625 40.828125 11.234375 
Q 44.734375 15.828125 44.734375 23.046875 
Q 44.734375 30.859375 41.046875 35.203125 
Q 37.359375 39.546875 30.5625 39.546875 
Q 24.125 39.546875 20.109375 35.15625 
Q 16.109375 30.765625 16.109375 24.75 
z
" id="MicrosoftYaHei-36"/>
      </defs>
      <g transform="translate(285.358832 399.47375)scale(0.1 -0.1)">
       <use xlink:href="#MicrosoftYaHei-31"/>
       <use x="58.642578" xlink:href="#MicrosoftYaHei-39"/>
       <use x="117.285156" xlink:href="#MicrosoftYaHei-36"/>
       <use x="175.927734" xlink:href="#MicrosoftYaHei-39"/>
       <use x="234.570312" xlink:href="#MicrosoftYaHei-5e74"/>
      </g>
     </g>
    </g>
    <g id="xtick_4">
     <g id="line2d_7">
      <path clip-path="url(#pbb8fbb9efd)" d="M 399.130435 384.48 
L 399.130435 51.84 
" style="fill:none;stroke:#b0b0b0;stroke-linecap:square;stroke-width:0.8;"/>
     </g>
     <g id="line2d_8">
      <g>
       <use style="stroke:#000000;stroke-width:0.8;" x="399.130435" xlink:href="#m83af8861f0" y="384.48"/>
      </g>
     </g>
     <g id="text_4">
      <!-- 1979年 -->
      <defs>
       <path d="M 53.765625 72.3125 
L 24.171875 0 
L 14.265625 0 
L 42.390625 67.1875 
L 4.59375 67.1875 
L 4.59375 75.640625 
L 53.765625 75.640625 
z
" id="MicrosoftYaHei-37"/>
      </defs>
      <g transform="translate(382.40231 399.47375)scale(0.1 -0.1)">
       <use xlink:href="#MicrosoftYaHei-31"/>
       <use x="58.642578" xlink:href="#MicrosoftYaHei-39"/>
       <use x="117.285156" xlink:href="#MicrosoftYaHei-37"/>
       <use x="175.927734" xlink:href="#MicrosoftYaHei-39"/>
       <use x="234.570312" xlink:href="#MicrosoftYaHei-5e74"/>
      </g>
     </g>
    </g>
    <g id="xtick_5">
     <g id="line2d_9">
      <path clip-path="url(#pbb8fbb9efd)" d="M 496.173913 384.48 
L 496.173913 51.84 
" style="fill:none;stroke:#b0b0b0;stroke-linecap:square;stroke-width:0.8;"/>
     </g>
     <g id="line2d_10">
      <g>
       <use style="stroke:#000000;stroke-width:0.8;" x="496.173913" xlink:href="#m83af8861f0" y="384.48"/>
      </g>
     </g>
     <g id="text_5">
      <!-- 1989年 -->
      <defs>
       <path d="M 21.390625 39.796875 
Q 7.859375 46.09375 7.859375 58.0625 
Q 7.859375 66.40625 14.203125 71.65625 
Q 20.5625 76.90625 30.421875 76.90625 
Q 39.453125 76.90625 45.3125 71.96875 
Q 51.171875 67.046875 51.171875 59.234375 
Q 51.171875 46.625 37.0625 39.84375 
L 37.0625 39.65625 
Q 53.609375 33.6875 53.609375 19.34375 
Q 53.609375 9.90625 46.796875 4.3125 
Q 39.984375 -1.265625 27.78125 -1.265625 
Q 17.78125 -1.265625 11.46875 4.25 
Q 5.171875 9.765625 5.171875 18.5625 
Q 5.171875 33.015625 21.390625 39.59375 
z
M 41.5 58.109375 
Q 41.5 63.1875 38.328125 66.109375 
Q 35.15625 69.046875 29.734375 69.046875 
Q 24.65625 69.046875 21.09375 65.984375 
Q 17.53125 62.9375 17.53125 58.203125 
Q 17.53125 48.734375 29.390625 43.796875 
Q 41.5 48.828125 41.5 58.109375 
z
M 28.8125 35.25 
Q 14.796875 29.59375 14.796875 19.046875 
Q 14.796875 13.578125 18.890625 10.0625 
Q 23 6.546875 29.59375 6.546875 
Q 35.984375 6.546875 39.984375 10.03125 
Q 44 13.53125 44 18.75 
Q 44 29.734375 28.8125 35.25 
z
" id="MicrosoftYaHei-38"/>
      </defs>
      <g transform="translate(479.445788 399.47375)scale(0.1 -0.1)">
       <use xlink:href="#MicrosoftYaHei-31"/>
       <use x="58.642578" xlink:href="#MicrosoftYaHei-39"/>
       <use x="117.285156" xlink:href="#MicrosoftYaHei-38"/>
       <use x="175.927734" xlink:href="#MicrosoftYaHei-39"/>
       <use x="234.570312" xlink:href="#MicrosoftYaHei-5e74"/>
      </g>
     </g>
    </g>
    <g id="xtick_6">
     <g id="line2d_11">
      <path clip-path="url(#pbb8fbb9efd)" d="M 593.217391 384.48 
L 593.217391 51.84 
" style="fill:none;stroke:#b0b0b0;stroke-linecap:square;stroke-width:0.8;"/>
     </g>
     <g id="line2d_12">
      <g>
       <use style="stroke:#000000;stroke-width:0.8;" x="593.217391" xlink:href="#m83af8861f0" y="384.48"/>
      </g>
     </g>
     <g id="text_6">
      <!-- 1999年 -->
      <g transform="translate(576.489266 399.47375)scale(0.1 -0.1)">
       <use xlink:href="#MicrosoftYaHei-31"/>
       <use x="58.642578" xlink:href="#MicrosoftYaHei-39"/>
       <use x="117.285156" xlink:href="#MicrosoftYaHei-39"/>
       <use x="175.927734" xlink:href="#MicrosoftYaHei-39"/>
       <use x="234.570312" xlink:href="#MicrosoftYaHei-5e74"/>
      </g>
     </g>
    </g>
    <g id="xtick_7">
     <g id="line2d_13">
      <path clip-path="url(#pbb8fbb9efd)" d="M 690.26087 384.48 
L 690.26087 51.84 
" style="fill:none;stroke:#b0b0b0;stroke-linecap:square;stroke-width:0.8;"/>
     </g>
     <g id="line2d_14">
      <g>
       <use style="stroke:#000000;stroke-width:0.8;" x="690.26087" xlink:href="#m83af8861f0" y="384.48"/>
      </g>
     </g>
     <g id="text_7">
      <!-- 2009年 -->
      <defs>
       <path d="M 51.171875 0 
L 5.171875 0 
L 5.171875 8.296875 
L 27.15625 30.21875 
Q 36.234375 39.3125 39.3125 44.609375 
Q 42.390625 49.90625 42.390625 55.5625 
Q 42.390625 62.015625 38.765625 65.453125 
Q 35.15625 68.890625 28.328125 68.890625 
Q 18.21875 68.890625 9.03125 60.296875 
L 9.03125 70.015625 
Q 17.96875 76.90625 29.828125 76.90625 
Q 40.046875 76.90625 45.953125 71.390625 
Q 51.859375 65.875 51.859375 56.546875 
Q 51.859375 49.515625 48.0625 42.75 
Q 44.28125 35.984375 33.734375 25.53125 
L 16.5 8.6875 
L 16.5 8.5 
L 51.171875 8.5 
z
" id="MicrosoftYaHei-32"/>
       <path d="M 4.4375 36.328125 
Q 4.4375 56.34375 11.078125 66.625 
Q 17.71875 76.90625 30.328125 76.90625 
Q 54.34375 76.90625 54.34375 38.140625 
Q 54.34375 19 47.578125 8.859375 
Q 40.828125 -1.265625 28.609375 -1.265625 
Q 17.09375 -1.265625 10.765625 8.34375 
Q 4.4375 17.96875 4.4375 36.328125 
z
M 14.203125 36.765625 
Q 14.203125 6.640625 29.5 6.640625 
Q 44.53125 6.640625 44.53125 37.25 
Q 44.53125 68.953125 29.78125 68.953125 
Q 14.203125 68.953125 14.203125 36.765625 
z
" id="MicrosoftYaHei-30"/>
      </defs>
      <g transform="translate(673.532745 399.47375)scale(0.1 -0.1)">
       <use xlink:href="#MicrosoftYaHei-32"/>
       <use x="58.642578" xlink:href="#MicrosoftYaHei-30"/>
       <use x="117.285156" xlink:href="#MicrosoftYaHei-30"/>
       <use x="175.927734" xlink:href="#MicrosoftYaHei-39"/>
       <use x="234.570312" xlink:href="#MicrosoftYaHei-5e74"/>
      </g>
     </g>
    </g>
    <g id="text_8">
     <!-- 时间 -->
     <defs>
      <path d="M 5.375 73.875 
L 39.0625 73.875 
L 39.0625 -5.71875 
L 31.34375 -5.71875 
L 31.34375 2.390625 
L 13.09375 2.390625 
L 13.09375 -6.890625 
L 5.375 -6.890625 
z
M 42.28125 61.578125 
L 76.953125 61.578125 
L 76.953125 83.15625 
L 84.765625 83.15625 
L 84.765625 61.578125 
L 98.640625 61.578125 
L 98.640625 54.34375 
L 84.765625 54.34375 
L 84.765625 1.8125 
Q 84.765625 -11.28125 72.265625 -11.28125 
Q 66.609375 -11.28125 55.671875 -10.984375 
Q 55.171875 -7.46875 54.109375 -2.78125 
Q 64.359375 -3.5625 70.125 -3.5625 
Q 76.953125 -3.5625 76.953125 3.375 
L 76.953125 54.34375 
L 42.28125 54.34375 
z
M 13.09375 9.625 
L 31.34375 9.625 
L 31.34375 34.90625 
L 13.09375 34.90625 
z
M 31.34375 66.65625 
L 13.09375 66.65625 
L 13.09375 41.9375 
L 31.34375 41.9375 
z
M 53.21875 44.96875 
Q 61.03125 30.71875 65.046875 22.21875 
Q 62.5 21.046875 57.234375 18.3125 
Q 53.421875 27.59375 46.296875 41.453125 
z
" id="MicrosoftYaHei-65f6"/>
      <path d="M 29.109375 56.984375 
L 70.515625 56.984375 
L 70.515625 8.640625 
L 36.140625 8.640625 
L 36.140625 2.59375 
L 29.109375 2.59375 
z
M 37.3125 69.578125 
L 37.3125 76.90625 
L 93.953125 76.90625 
L 93.953125 -0.4375 
Q 93.953125 -12.75 79.984375 -12.75 
Q 74.3125 -12.75 65.140625 -12.546875 
Q 64.75 -9.625 63.578125 -4.640625 
Q 71.6875 -5.21875 79 -5.21875 
Q 86.328125 -5.21875 86.328125 1.90625 
L 86.328125 69.578125 
z
M 6.546875 63.8125 
L 14.15625 63.8125 
L 14.15625 -12.75 
L 6.546875 -12.75 
z
M 36.140625 15.578125 
L 63.484375 15.578125 
L 63.484375 29.4375 
L 36.140625 29.4375 
z
M 63.484375 50.046875 
L 36.140625 50.046875 
L 36.140625 36.375 
L 63.484375 36.375 
z
M 11.625 78.171875 
L 17.1875 83.15625 
Q 24.609375 76.125 30.953125 69.484375 
L 24.609375 63.921875 
Q 18.65625 70.953125 11.625 78.171875 
z
" id="MicrosoftYaHei-95f4"/>
     </defs>
     <g transform="translate(432.8 413.953438)scale(0.1 -0.1)">
      <use xlink:href="#MicrosoftYaHei-65f6"/>
      <use x="100" xlink:href="#MicrosoftYaHei-95f4"/>
     </g>
    </g>
   </g>
   <g id="matplotlib.axis_2">
    <g id="ytick_1">
     <g id="line2d_15">
      <path clip-path="url(#pbb8fbb9efd)" d="M 108 384.48 
L 777.6 384.48 
" style="fill:none;stroke:#b0b0b0;stroke-linecap:square;stroke-width:0.8;"/>
     </g>
     <g id="line2d_16">
      <defs>
       <path d="M 0 0 
L -3.5 0 
" id="m1daf700fcf" style="stroke:#000000;stroke-width:0.8;"/>
      </defs>
      <g>
       <use style="stroke:#000000;stroke-width:0.8;" x="108" xlink:href="#m1daf700fcf" y="384.48"/>
      </g>
     </g>
     <g id="text_9">
      <!-- 0 -->
      <g transform="translate(95.135937 388.476875)scale(0.1 -0.1)">
       <use xlink:href="#MicrosoftYaHei-30"/>
      </g>
     </g>
    </g>
    <g id="ytick_2">
     <g id="line2d_17">
      <path clip-path="url(#pbb8fbb9efd)" d="M 108 340.523956 
L 777.6 340.523956 
" style="fill:none;stroke:#b0b0b0;stroke-linecap:square;stroke-width:0.8;"/>
     </g>
     <g id="line2d_18">
      <g>
       <use style="stroke:#000000;stroke-width:0.8;" x="108" xlink:href="#m1daf700fcf" y="340.523956"/>
      </g>
     </g>
     <g id="text_10">
      <!-- 500 -->
      <g transform="translate(83.407813 344.520831)scale(0.1 -0.1)">
       <use xlink:href="#MicrosoftYaHei-35"/>
       <use x="58.642578" xlink:href="#MicrosoftYaHei-30"/>
       <use x="117.285156" xlink:href="#MicrosoftYaHei-30"/>
      </g>
     </g>
    </g>
    <g id="ytick_3">
     <g id="line2d_19">
      <path clip-path="url(#pbb8fbb9efd)" d="M 108 296.567912 
L 777.6 296.567912 
" style="fill:none;stroke:#b0b0b0;stroke-linecap:square;stroke-width:0.8;"/>
     </g>
     <g id="line2d_20">
      <g>
       <use style="stroke:#000000;stroke-width:0.8;" x="108" xlink:href="#m1daf700fcf" y="296.567912"/>
      </g>
     </g>
     <g id="text_11">
      <!-- 1000 -->
      <g transform="translate(77.54375 300.564787)scale(0.1 -0.1)">
       <use xlink:href="#MicrosoftYaHei-31"/>
       <use x="58.642578" xlink:href="#MicrosoftYaHei-30"/>
       <use x="117.285156" xlink:href="#MicrosoftYaHei-30"/>
       <use x="175.927734" xlink:href="#MicrosoftYaHei-30"/>
      </g>
     </g>
    </g>
    <g id="ytick_4">
     <g id="line2d_21">
      <path clip-path="url(#pbb8fbb9efd)" d="M 108 252.611868 
L 777.6 252.611868 
" style="fill:none;stroke:#b0b0b0;stroke-linecap:square;stroke-width:0.8;"/>
     </g>
     <g id="line2d_22">
      <g>
       <use style="stroke:#000000;stroke-width:0.8;" x="108" xlink:href="#m1daf700fcf" y="252.611868"/>
      </g>
     </g>
     <g id="text_12">
      <!-- 1500 -->
      <g transform="translate(77.54375 256.608743)scale(0.1 -0.1)">
       <use xlink:href="#MicrosoftYaHei-31"/>
       <use x="58.642578" xlink:href="#MicrosoftYaHei-35"/>
       <use x="117.285156" xlink:href="#MicrosoftYaHei-30"/>
       <use x="175.927734" xlink:href="#MicrosoftYaHei-30"/>
      </g>
     </g>
    </g>
    <g id="ytick_5">
     <g id="line2d_23">
      <path clip-path="url(#pbb8fbb9efd)" d="M 108 208.655824 
L 777.6 208.655824 
" style="fill:none;stroke:#b0b0b0;stroke-linecap:square;stroke-width:0.8;"/>
     </g>
     <g id="line2d_24">
      <g>
       <use style="stroke:#000000;stroke-width:0.8;" x="108" xlink:href="#m1daf700fcf" y="208.655824"/>
      </g>
     </g>
     <g id="text_13">
      <!-- 2000 -->
      <g transform="translate(77.54375 212.652699)scale(0.1 -0.1)">
       <use xlink:href="#MicrosoftYaHei-32"/>
       <use x="58.642578" xlink:href="#MicrosoftYaHei-30"/>
       <use x="117.285156" xlink:href="#MicrosoftYaHei-30"/>
       <use x="175.927734" xlink:href="#MicrosoftYaHei-30"/>
      </g>
     </g>
    </g>
    <g id="ytick_6">
     <g id="line2d_25">
      <path clip-path="url(#pbb8fbb9efd)" d="M 108 164.69978 
L 777.6 164.69978 
" style="fill:none;stroke:#b0b0b0;stroke-linecap:square;stroke-width:0.8;"/>
     </g>
     <g id="line2d_26">
      <g>
       <use style="stroke:#000000;stroke-width:0.8;" x="108" xlink:href="#m1daf700fcf" y="164.69978"/>
      </g>
     </g>
     <g id="text_14">
      <!-- 2500 -->
      <g transform="translate(77.54375 168.696655)scale(0.1 -0.1)">
       <use xlink:href="#MicrosoftYaHei-32"/>
       <use x="58.642578" xlink:href="#MicrosoftYaHei-35"/>
       <use x="117.285156" xlink:href="#MicrosoftYaHei-30"/>
       <use x="175.927734" xlink:href="#MicrosoftYaHei-30"/>
      </g>
     </g>
    </g>
    <g id="ytick_7">
     <g id="line2d_27">
      <path clip-path="url(#pbb8fbb9efd)" d="M 108 120.743736 
L 777.6 120.743736 
" style="fill:none;stroke:#b0b0b0;stroke-linecap:square;stroke-width:0.8;"/>
     </g>
     <g id="line2d_28">
      <g>
       <use style="stroke:#000000;stroke-width:0.8;" x="108" xlink:href="#m1daf700fcf" y="120.743736"/>
      </g>
     </g>
     <g id="text_15">
      <!-- 3000 -->
      <defs>
       <path d="M 6.984375 12.640625 
Q 14.75 6.640625 24.515625 6.640625 
Q 32.328125 6.640625 36.890625 10.46875 
Q 41.453125 14.3125 41.453125 20.75 
Q 41.453125 35.109375 20.90625 35.109375 
L 14.59375 35.109375 
L 14.59375 43.015625 
L 20.609375 43.015625 
Q 38.8125 43.015625 38.8125 56.5 
Q 38.8125 68.953125 24.90625 68.953125 
Q 16.9375 68.953125 9.90625 63.578125 
L 9.90625 72.609375 
Q 17.328125 76.90625 27.25 76.90625 
Q 36.921875 76.90625 42.78125 71.84375 
Q 48.640625 66.796875 48.640625 58.734375 
Q 48.640625 43.890625 33.5 39.65625 
L 33.5 39.453125 
Q 41.703125 38.578125 46.453125 33.671875 
Q 51.21875 28.765625 51.21875 21.4375 
Q 51.21875 11.234375 43.875 4.984375 
Q 36.53125 -1.265625 24.3125 -1.265625 
Q 13.578125 -1.265625 6.984375 2.734375 
z
" id="MicrosoftYaHei-33"/>
      </defs>
      <g transform="translate(77.54375 124.740611)scale(0.1 -0.1)">
       <use xlink:href="#MicrosoftYaHei-33"/>
       <use x="58.642578" xlink:href="#MicrosoftYaHei-30"/>
       <use x="117.285156" xlink:href="#MicrosoftYaHei-30"/>
       <use x="175.927734" xlink:href="#MicrosoftYaHei-30"/>
      </g>
     </g>
    </g>
    <g id="ytick_8">
     <g id="line2d_29">
      <path clip-path="url(#pbb8fbb9efd)" d="M 108 76.787692 
L 777.6 76.787692 
" style="fill:none;stroke:#b0b0b0;stroke-linecap:square;stroke-width:0.8;"/>
     </g>
     <g id="line2d_30">
      <g>
       <use style="stroke:#000000;stroke-width:0.8;" x="108" xlink:href="#m1daf700fcf" y="76.787692"/>
      </g>
     </g>
     <g id="text_16">
      <!-- 3500 -->
      <g transform="translate(77.54375 80.784567)scale(0.1 -0.1)">
       <use xlink:href="#MicrosoftYaHei-33"/>
       <use x="58.642578" xlink:href="#MicrosoftYaHei-35"/>
       <use x="117.285156" xlink:href="#MicrosoftYaHei-30"/>
       <use x="175.927734" xlink:href="#MicrosoftYaHei-30"/>
      </g>
     </g>
    </g>
   </g>
   <g id="line2d_31">
    <path clip-path="url(#pbb8fbb9efd)" d="M 108 324.69978 
L 117.704348 323.24044 
L 127.408696 288.98989 
L 137.113043 283.442637 
L 146.817391 312.436044 
L 156.521739 291.776703 
L 166.226087 280.567912 
L 175.930435 244.497582 
L 185.634783 274.66022 
L 195.33913 120.69978 
L 205.043478 204.339341 
L 214.747826 165.200879 
L 224.452174 239.68 
L 234.156522 245.025055 
L 243.86087 235.187692 
L 253.565217 123.477802 
L 263.269565 94.721758 
L 272.973913 219.275604 
L 282.678261 261.183297 
L 292.382609 230.352527 
L 302.086957 190.572308 
L 311.791304 135.530549 
L 321.495652 86.677802 
L 331.2 67.68 
L 340.904348 88.277802 
L 350.608696 98.80967 
L 360.313043 89.78989 
L 370.017391 106.581099 
L 379.721739 110.941538 
L 389.426087 93.016264 
L 399.130435 111.803077 
L 408.834783 125.816264 
L 418.53913 142.792088 
L 428.243478 149.605275 
L 437.947826 160.831648 
L 447.652174 167.07956 
L 457.356522 182.44044 
L 467.06087 185.954286 
L 476.765217 200.341978 
L 486.469565 197.818022 
L 496.173913 195.333626 
L 505.878261 203.029451 
L 515.582609 202.261099 
L 525.286957 192.55033 
L 534.991304 177.58044 
L 544.695652 161.444141 
L 554.4 161.904176 
L 564.104348 162.532281 
L 573.808696 168.036554 
L 583.513043 190.951965 
L 593.217391 206.059455 
L 602.921739 213.359121 
L 612.626087 213.561319 
L 622.330435 212.805275 
L 632.034783 223.653626 
L 641.73913 230.897582 
L 651.443478 237.517363 
L 661.147826 232.444835 
L 670.852174 231.855824 
L 680.556522 235.407473 
L 690.26087 240.497582 
L 699.965217 235.759121 
L 709.669565 231.794286 
L 719.373913 233.737143 
L 729.078261 235.433846 
L 738.782609 238.686593 
L 748.486957 232.48 
L 758.191304 230.414066 
L 767.895652 229.178514 
L 777.6 220.321758 
" style="fill:none;stroke:#1f77b4;stroke-linecap:square;stroke-width:1.5;"/>
   </g>
   <g id="line2d_32">
    <path clip-path="url(#pbb8fbb9efd)" d="M 108 384.48 
L 117.704348 384.48 
L 127.408696 384.48 
L 137.113043 384.48 
L 146.817391 384.48 
L 156.521739 384.48 
L 166.226087 384.48 
L 175.930435 384.48 
L 185.634783 384.48 
L 195.33913 384.48 
L 205.043478 384.48 
L 214.747826 384.48 
L 224.452174 384.48 
L 234.156522 384.48 
L 243.86087 384.48 
L 253.565217 384.48 
L 263.269565 384.48 
L 272.973913 384.48 
L 282.678261 384.48 
L 292.382609 384.48 
L 302.086957 384.48 
L 311.791304 384.48 
L 321.495652 384.48 
L 331.2 384.48 
L 340.904348 384.48 
L 350.608696 384.48 
L 360.313043 384.48 
L 370.017391 384.48 
L 379.721739 384.48 
L 389.426087 384.48 
L 399.130435 384.48 
L 408.834783 384.48 
L 418.53913 384.48 
L 428.243478 384.48 
L 437.947826 384.48 
L 447.652174 384.48 
L 457.356522 384.48 
L 467.06087 384.48 
L 476.765217 384.48 
L 486.469565 384.48 
L 496.173913 384.48 
L 505.878261 384.48 
L 515.582609 384.48 
L 525.286957 384.48 
L 534.991304 384.48 
L 544.695652 384.48 
L 554.4 384.48 
L 564.104348 384.48 
L 573.808696 384.48 
L 583.513043 384.48 
L 593.217391 384.48 
L 602.921739 384.48 
L 612.626087 384.48 
L 622.330435 384.48 
L 632.034783 384.48 
L 641.73913 365.784765 
L 651.443478 362.659191 
L 661.147826 359.159675 
L 670.852174 357.91447 
L 680.556522 358.92764 
L 690.26087 356.948264 
L 699.965217 359.981125 
L 709.669565 362.816158 
L 719.373913 365.675323 
L 729.078261 368.345345 
L 738.782609 370.279051 
L 748.486957 370.836396 
L 758.191304 371.167156 
L 767.895652 371.434031 
L 777.6 384.48 
" style="fill:none;stroke:#ff7f0e;stroke-linecap:square;stroke-width:1.5;"/>
   </g>
   <g id="line2d_33">
    <path clip-path="url(#pbb8fbb9efd)" d="M 108 383.855824 
L 117.704348 383.530549 
L 127.408696 383.68 
L 137.113043 383.24044 
L 146.817391 383.064615 
L 156.521739 382.765714 
L 166.226087 382.537143 
L 175.930435 381.192088 
L 185.634783 381.64044 
L 195.33913 379.539341 
L 205.043478 378.712967 
L 214.747826 378.51956 
L 224.452174 380.55033 
L 234.156522 380.814066 
L 243.86087 380.664615 
L 253.565217 380.629451 
L 263.269565 380.444835 
L 272.973913 382.66022 
L 282.678261 383.284396 
L 292.382609 378.941538 
L 302.086957 375.372308 
L 311.791304 363.469011 
L 321.495652 356.233846 
L 331.2 342.37011 
L 340.904348 344.743736 
L 350.608696 336.910769 
L 360.313043 328.822857 
L 370.017391 308.778901 
L 379.721739 297.174505 
L 389.426087 323.565714 
L 399.130435 330.493187 
L 408.834783 350.774505 
L 418.53913 355.662418 
L 428.243478 359.926154 
L 437.947826 361.64044 
L 447.652174 361.418022 
L 457.356522 361.842637 
L 467.06087 361.858462 
L 476.765217 362.048352 
L 486.469565 362.364835 
L 496.173913 363.192668 
L 505.878261 362.51956 
L 515.582609 363.045653 
L 525.286957 363.844211 
L 534.991304 364.406585 
L 544.695652 363.083191 
L 554.4 360.427253 
L 564.104348 359.668598 
L 573.808696 356.118303 
L 583.513043 352.871033 
L 593.217391 349.638338 
L 602.921739 342.923956 
L 612.626087 335.425055 
L 622.330435 324.98989 
L 632.034783 318.361319 
L 641.73913 312.26022 
L 651.443478 307.31956 
L 661.147826 307.890989 
L 670.852174 310.616264 
L 680.556522 310.897582 
L 690.26087 311.486593 
L 699.965217 310.967912 
L 709.669565 309.684396 
L 719.373913 310.229451 
L 729.078261 312.154725 
L 738.782609 314.449231 
L 748.486957 314.449231 
L 758.191304 313.895385 
L 767.895652 314.145512 
L 777.6 314.792088 
" style="fill:none;stroke:#2ca02c;stroke-linecap:square;stroke-width:1.5;"/>
   </g>
   <g id="line2d_34">
    <path clip-path="url(#pbb8fbb9efd)" d="M 108 384.207473 
L 117.704348 383.97011 
L 127.408696 384.022857 
L 137.113043 383.785495 
L 146.817391 383.767912 
L 156.521739 383.671209 
L 166.226087 383.618462 
L 175.930435 382.853626 
L 185.634783 383.548132 
L 195.33913 382.15033 
L 205.043478 382.071209 
L 214.747826 381.64044 
L 224.452174 382.994286 
L 234.156522 383.539341 
L 243.86087 383.310769 
L 253.565217 383.187692 
L 263.269565 383.038242 
L 272.973913 384.48 
L 282.678261 384.48 
L 292.382609 384.48 
L 302.086957 384.48 
L 311.791304 384.110769 
L 321.495652 384.110769 
L 331.2 383.301978 
L 340.904348 383.161319 
L 350.608696 383.029451 
L 360.313043 382.800879 
L 370.017391 382.572308 
L 379.721739 382.08 
L 389.426087 380.945934 
L 399.130435 382.062418 
L 408.834783 382.00967 
L 418.53913 382.027253 
L 428.243478 381.710769 
L 437.947826 381.042637 
L 447.652174 380.302673 
L 457.356522 379.038242 
L 467.06087 379.451429 
L 476.765217 379.057582 
L 486.469565 378.592527 
L 496.173913 379.230655 
L 505.878261 379.126154 
L 515.582609 379.030558 
L 525.286957 377.849741 
L 534.991304 376.357345 
L 544.695652 376.569266 
L 554.4 376.339341 
L 564.104348 375.989345 
L 573.808696 375.685336 
L 583.513043 374.953609 
L 593.217391 370.442198 
L 602.921739 365.086593 
L 612.626087 360.893187 
L 622.330435 356.304176 
L 632.034783 350.88 
L 641.73913 345.156923 
L 651.443478 340.128352 
L 661.147826 336.471209 
L 670.852174 334.730549 
L 680.556522 331.055824 
L 690.26087 328.26022 
L 699.965217 326.29978 
L 709.669565 324.567912 
L 719.373913 323.926154 
L 729.078261 322.959121 
L 738.782609 321.06022 
L 748.486957 319.618462 
L 758.191304 318.669011 
L 767.895652 317.535886 
L 777.6 314.941538 
" style="fill:none;stroke:#d62728;stroke-linecap:square;stroke-width:1.5;"/>
   </g>
   <g id="line2d_35">
    <path clip-path="url(#pbb8fbb9efd)" d="M 108 384.48 
L 117.704348 384.48 
L 127.408696 384.48 
L 137.113043 384.48 
L 146.817391 384.48 
L 156.521739 384.48 
L 166.226087 384.48 
L 175.930435 384.48 
L 185.634783 384.48 
L 195.33913 384.48 
L 205.043478 384.48 
L 214.747826 384.48 
L 224.452174 384.48 
L 234.156522 384.48 
L 243.86087 384.48 
L 253.565217 384.48 
L 263.269565 384.48 
L 272.973913 384.48 
L 282.678261 384.48 
L 292.382609 384.48 
L 302.086957 384.48 
L 311.791304 384.48 
L 321.495652 384.48 
L 331.2 384.48 
L 340.904348 384.48 
L 350.608696 384.48 
L 360.313043 384.48 
L 370.017391 384.48 
L 379.721739 384.48 
L 389.426087 384.48 
L 399.130435 384.48 
L 408.834783 384.48 
L 418.53913 384.48 
L 428.243478 384.48 
L 437.947826 384.48 
L 447.652174 384.48 
L 457.356522 384.48 
L 467.06087 384.48 
L 476.765217 384.48 
L 486.469565 384.48 
L 496.173913 384.48 
L 505.878261 384.48 
L 515.582609 384.48 
L 525.286957 384.48 
L 534.991304 384.48 
L 544.695652 384.48 
L 554.4 384.48 
L 564.104348 384.48 
L 573.808696 384.48 
L 583.513043 378.738154 
L 593.217391 376.245363 
L 602.921739 374.280519 
L 612.626087 372.332 
L 622.330435 370.520097 
L 632.034783 368.433741 
L 641.73913 366.025925 
L 651.443478 363.700686 
L 661.147826 362.230734 
L 670.852174 359.680255 
L 680.556522 358.364826 
L 690.26087 355.811156 
L 699.965217 353.600325 
L 709.669565 353.126936 
L 719.373913 351.595833 
L 729.078261 350.94742 
L 738.782609 350.773169 
L 748.486957 350.245415 
L 758.191304 348.840378 
L 767.895652 348.369811 
L 777.6 384.48 
" style="fill:none;stroke:#9467bd;stroke-linecap:square;stroke-width:1.5;"/>
   </g>
   <g id="patch_3">
    <path d="M 108 384.48 
L 108 51.84 
" style="fill:none;stroke:#000000;stroke-linecap:square;stroke-linejoin:miter;stroke-width:0.8;"/>
   </g>
   <g id="patch_4">
    <path d="M 777.6 384.48 
L 777.6 51.84 
" style="fill:none;stroke:#000000;stroke-linecap:square;stroke-linejoin:miter;stroke-width:0.8;"/>
   </g>
   <g id="patch_5">
    <path d="M 108 384.48 
L 777.6 384.48 
" style="fill:none;stroke:#000000;stroke-linecap:square;stroke-linejoin:miter;stroke-width:0.8;"/>
   </g>
   <g id="patch_6">
    <path d="M 108 51.84 
L 777.6 51.84 
" style="fill:none;stroke:#000000;stroke-linecap:square;stroke-linejoin:miter;stroke-width:0.8;"/>
   </g>
   <g id="text_17">
    <!-- 教育结构-招生 -->
    <defs>
     <path d="M 46.484375 33.640625 
Q 57.515625 53.953125 64.15625 81.5 
L 71.296875 79.734375 
Q 69.34375 71.734375 66.796875 63.8125 
L 97.265625 63.8125 
L 97.265625 56.78125 
L 87.703125 56.78125 
Q 87.015625 31.59375 75.390625 13.421875 
Q 84.28125 1.21875 98.734375 -5.609375 
Q 96 -9.625 94.140625 -12.84375 
Q 79.890625 -4.640625 70.90625 7.171875 
Q 61.03125 -5.125 45.3125 -13.8125 
Q 43.5625 -11.28125 40.53125 -7.375 
Q 56.84375 0.921875 66.609375 13.625 
Q 59.765625 25.046875 57.328125 39.40625 
Q 55.078125 34.625 52.734375 29.9375 
Q 49.609375 31.984375 46.484375 33.640625 
z
M 49.421875 73.09375 
L 55.28125 69.28125 
Q 49.3125 60.40625 42 51.703125 
L 49.21875 51.703125 
L 49.21875 45.265625 
L 36.421875 45.265625 
Q 32.515625 40.875 28.421875 36.765625 
L 44.4375 36.765625 
L 44.4375 30.90625 
L 31.84375 18.5 
L 31.84375 16.75 
Q 39.75 18.109375 49.3125 19.875 
Q 49.03125 16.15625 48.921875 13.140625 
Q 40.921875 11.765625 31.84375 10.109375 
L 31.84375 -0.53125 
Q 32.515625 -12.640625 20.515625 -12.15625 
Q 16.3125 -12.15625 9.671875 -11.96875 
Q 9.28125 -8.84375 8.6875 -4.640625 
Q 13.28125 -5.125 19.140625 -5.21875 
Q 25.296875 -5.8125 24.8125 0.25 
L 24.8125 8.84375 
Q 15.328125 7.078125 4.890625 5.03125 
L 3.71875 12.15625 
Q 11.8125 13.328125 24.8125 15.484375 
L 24.8125 20.359375 
L 35.0625 30.515625 
L 21.96875 30.515625 
Q 13.875 23.09375 5.765625 16.84375 
Q 3.8125 19.578125 1.171875 22.40625 
Q 6.84375 26.421875 11.71875 30.515625 
L 3.609375 30.515625 
L 3.609375 36.765625 
L 18.75 36.765625 
Q 23.34375 40.875 27.640625 45.265625 
L 2.34375 45.265625 
L 2.34375 51.703125 
L 21.578125 51.703125 
L 21.578125 61.671875 
L 6.25 61.671875 
L 6.25 68.109375 
L 21.578125 68.109375 
L 21.578125 81.390625 
L 28.609375 81.390625 
L 28.609375 68.109375 
L 40.625 68.109375 
L 40.625 61.671875 
L 28.609375 61.671875 
L 28.609375 51.703125 
L 33.40625 51.703125 
Q 42.1875 61.578125 49.421875 73.09375 
z
M 62.203125 51.125 
Q 64.15625 33.34375 71.09375 20.359375 
Q 79.984375 35.796875 80.5625 56.78125 
L 64.359375 56.78125 
Q 63.375 53.953125 62.203125 51.125 
z
" id="MicrosoftYaHei-6559"/>
     <path d="M 15.4375 40.28125 
L 84.96875 40.28125 
L 84.96875 -0.046875 
Q 84.96875 -11.578125 71.296875 -11.578125 
Q 66.703125 -11.578125 60.0625 -11.46875 
Q 59.859375 -10.5 58.5 -3.46875 
Q 65.234375 -4.4375 70.796875 -4.4375 
Q 77.34375 -4.4375 77.546875 1.125 
L 77.546875 4.15625 
L 22.859375 4.15625 
L 22.859375 -12.453125 
L 15.4375 -12.453125 
z
M 70.609375 64.5 
Q 83.109375 55.90625 95.3125 46.625 
L 89.75 41.0625 
Q 85.6875 44.578125 81.296875 48.09375 
Q 43.015625 47.953125 22.859375 47.015625 
Q 16.703125 46.734375 12.3125 45.953125 
L 9.578125 54.15625 
Q 16.3125 55.421875 20.40625 57.859375 
Q 26.265625 61.328125 32.03125 66.0625 
L 2.640625 66.0625 
L 2.640625 72.90625 
L 48.4375 72.90625 
Q 46.390625 76.46875 43.953125 80.421875 
L 50.6875 83.734375 
Q 55.125 76.8125 57.28125 72.90625 
L 97.46875 72.90625 
L 97.46875 66.0625 
L 43.5625 66.0625 
Q 33.890625 59.234375 25.875 54.15625 
Q 48.78125 54.15625 72.65625 54.640625 
Q 69.4375 57.03125 66.015625 59.421875 
z
M 22.859375 10.59375 
L 77.546875 10.59375 
L 77.546875 18.890625 
L 22.859375 18.890625 
z
M 77.546875 33.640625 
L 22.859375 33.640625 
L 22.859375 25.34375 
L 77.546875 25.34375 
z
" id="MicrosoftYaHei-80b2"/>
     <path d="M 41.015625 26.703125 
L 92.578125 26.703125 
L 92.578125 -12.9375 
L 84.96875 -12.9375 
L 84.96875 -6.890625 
L 48.640625 -6.890625 
L 48.640625 -12.9375 
L 41.015625 -12.9375 
z
M 39.0625 45.265625 
L 62.890625 45.265625 
L 62.890625 60.5 
L 35.84375 60.5 
L 35.84375 67.53125 
L 62.890625 67.53125 
L 62.890625 83.15625 
L 70.703125 83.15625 
L 70.703125 67.53125 
L 98.046875 67.53125 
L 98.046875 60.5 
L 70.703125 60.5 
L 70.703125 45.265625 
L 94.625 45.265625 
L 94.625 38.234375 
L 39.0625 38.234375 
z
M 13.96875 24.46875 
Q 26.953125 26.3125 35.453125 27.78125 
Q 34.859375 23.96875 34.578125 20.359375 
Q 23.734375 18.796875 4.984375 15.765625 
L 3.421875 23 
Q 9.671875 29.5 18.3125 43.609375 
Q 10.109375 43.0625 3.421875 42.53125 
L 1.5625 49.171875 
Q 10.546875 61.1875 20.21875 83.84375 
L 27.640625 80.90625 
Q 17.09375 60.203125 10.359375 49.75 
Q 16.015625 49.90625 22.171875 50.09375 
Q 25.484375 55.765625 29.109375 62.453125 
L 36.328125 58.84375 
Q 25.203125 40.28125 13.96875 24.46875 
z
M 84.96875 19.875 
L 48.640625 19.875 
L 48.640625 -0.046875 
L 84.96875 -0.046875 
z
M 1.171875 1.421875 
Q 19.234375 4.9375 36.421875 9.125 
Q 36.140625 5.21875 36.140625 1.703125 
Q 20.3125 -1.609375 3.328125 -6.109375 
z
" id="MicrosoftYaHei-7ed3"/>
     <path d="M 33.40625 47.796875 
Q 44.34375 63.234375 50.875 82.953125 
L 58.40625 80.515625 
Q 55.5625 73.78125 52.9375 67.921875 
L 95.015625 67.921875 
Q 93.65625 18.015625 93.0625 6.203125 
Q 92.578125 -4.046875 88.375 -7.859375 
Q 84.375 -11.671875 73.921875 -11.671875 
Q 66.21875 -11.671875 57.8125 -11.1875 
Q 57.234375 -7.28125 56.15625 -2.59375 
Q 65.828125 -3.65625 73.640625 -3.859375 
Q 80.375 -3.953125 82.71875 -1.515625 
Q 85.15625 0.53125 85.453125 7.375 
Q 86.140625 20.5625 87.109375 60.796875 
L 49.515625 60.796875 
Q 44.34375 50.640625 39.453125 43.703125 
Q 37.015625 45.5625 33.40625 47.796875 
z
M 1.265625 21.234375 
Q 11.421875 37.0625 15.625 55.90625 
L 1.953125 55.90625 
L 1.953125 62.453125 
L 15.71875 62.453125 
L 15.71875 81.78125 
L 22.46875 81.78125 
L 22.46875 62.453125 
L 35.15625 62.453125 
L 35.15625 55.90625 
L 22.46875 55.90625 
L 22.46875 42.71875 
L 25.203125 45.5625 
Q 31.84375 39.5 38.96875 32.671875 
L 33.796875 27.296875 
Q 27.734375 34.234375 22.46875 39.3125 
L 22.46875 -13.03125 
L 15.71875 -13.03125 
L 15.71875 37.25 
Q 10.9375 22.015625 4.390625 12.640625 
Q 3.125 16.84375 1.265625 21.234375 
z
M 61.328125 35.203125 
L 67.28125 38.328125 
Q 74.421875 26.03125 82.03125 11.46875 
L 75.09375 7.765625 
Q 73.921875 10.40625 72.65625 13.03125 
Q 59.96875 12.25 47.65625 11.28125 
Q 44.625 10.984375 39.0625 9.8125 
L 35.75 16.84375 
Q 38.875 19 41.015625 22.125 
Q 49.03125 34.71875 56.84375 53.078125 
L 64.15625 50.046875 
Q 58.40625 37.359375 46.578125 18.3125 
Q 60.640625 18.703125 69.734375 19.09375 
Q 65.828125 27.203125 61.328125 35.203125 
z
" id="MicrosoftYaHei-6784"/>
     <path d="M 36.375 26.265625 
L 7.625 26.265625 
L 7.625 33.640625 
L 36.375 33.640625 
z
" id="MicrosoftYaHei-2d"/>
     <path d="M 39.453125 30.609375 
L 91.609375 30.609375 
L 91.609375 -12.9375 
L 84.1875 -12.9375 
L 84.1875 -6.203125 
L 46.875 -6.203125 
L 46.875 -13.03125 
L 39.453125 -13.03125 
z
M 36.328125 77.875 
L 93.65625 77.875 
Q 93.453125 66.0625 92.78125 53.65625 
Q 91.890625 39.203125 78.328125 38.921875 
Q 71.296875 38.71875 61.234375 38.921875 
Q 60.546875 43.796875 59.859375 47.015625 
Q 69.046875 46.234375 76.46875 46.234375 
Q 84.765625 46.234375 85.25 54.734375 
Q 85.84375 61.859375 85.9375 70.953125 
L 60.0625 70.953125 
Q 59.625 58.59375 55.953125 51.703125 
Q 50.984375 42.328125 37.59375 34.515625 
Q 35.546875 37.359375 32.515625 40.96875 
Q 44.734375 47.609375 48.734375 54.546875 
Q 52.09375 59.71875 52.4375 70.953125 
L 36.328125 70.953125 
z
M 1.375 30.515625 
Q 8.546875 32.171875 15.140625 33.796875 
L 15.140625 57.078125 
L 2.25 57.078125 
L 2.25 63.921875 
L 15.140625 63.921875 
L 15.140625 82.859375 
L 22.359375 82.859375 
L 22.359375 63.921875 
L 35.15625 63.921875 
L 35.15625 57.078125 
L 22.359375 57.078125 
L 22.359375 35.59375 
Q 27.640625 36.96875 32.515625 38.328125 
Q 32.90625 33.34375 33.203125 31.109375 
Q 27.59375 29.59375 22.359375 28.171875 
L 22.359375 -1.125 
Q 22.359375 -11.859375 12.59375 -11.859375 
Q 9.28125 -11.859375 3.421875 -11.671875 
Q 3.03125 -7.671875 2.15625 -3.953125 
Q 7.8125 -4.640625 10.84375 -4.640625 
Q 15.140625 -4.640625 15.140625 0.34375 
L 15.140625 26.171875 
Q 8.40625 24.265625 2.34375 22.515625 
z
M 84.1875 23.6875 
L 46.875 23.6875 
L 46.875 0.53125 
L 84.1875 0.53125 
z
" id="MicrosoftYaHei-62db"/>
     <path d="M 1.953125 0.25 
L 47.265625 0.25 
L 47.265625 25.140625 
L 12.703125 25.140625 
L 12.703125 32.671875 
L 47.265625 32.671875 
L 47.265625 55.21875 
L 21.484375 55.21875 
Q 14.984375 43.5 6.546875 34.03125 
Q 4.5 37.25 1.265625 40.875 
Q 15.046875 56.296875 23.046875 78.5625 
L 31.0625 76.421875 
Q 28.46875 69.28125 25.34375 62.75 
L 47.265625 62.75 
L 47.265625 83.453125 
L 55.671875 83.453125 
L 55.671875 62.75 
L 92.96875 62.75 
L 92.96875 55.21875 
L 55.671875 55.21875 
L 55.671875 32.671875 
L 90.234375 32.671875 
L 90.234375 25.140625 
L 55.671875 25.140625 
L 55.671875 0.25 
L 98.25 0.25 
L 98.25 -7.078125 
L 1.953125 -7.078125 
z
" id="MicrosoftYaHei-751f"/>
    </defs>
    <g transform="translate(404.204063 45.84)scale(0.12 -0.12)">
     <use xlink:href="#MicrosoftYaHei-6559"/>
     <use x="100" xlink:href="#MicrosoftYaHei-80b2"/>
     <use x="200" xlink:href="#MicrosoftYaHei-7ed3"/>
     <use x="300" xlink:href="#MicrosoftYaHei-6784"/>
     <use x="400" xlink:href="#MicrosoftYaHei-2d"/>
     <use x="443.261719" xlink:href="#MicrosoftYaHei-62db"/>
     <use x="543.261719" xlink:href="#MicrosoftYaHei-751f"/>
    </g>
   </g>
   <g id="legend_1">
    <g id="patch_7">
     <path d="M 621.91875 137.238438 
L 770.6 137.238438 
Q 772.6 137.238438 772.6 135.238438 
L 772.6 58.84 
Q 772.6 56.84 770.6 56.84 
L 621.91875 56.84 
Q 619.91875 56.84 619.91875 58.84 
L 619.91875 135.238438 
Q 619.91875 137.238438 621.91875 137.238438 
z
" style="fill:#ffffff;opacity:0.8;stroke:#cccccc;stroke-linejoin:miter;"/>
    </g>
    <g id="patch_8">
     <path d="M 623.91875 68.83375 
L 643.91875 68.83375 
L 643.91875 61.83375 
L 623.91875 61.83375 
z
" style="fill:#1f77b4;stroke:#1f77b4;stroke-linejoin:miter;"/>
    </g>
    <g id="text_18">
     <!-- 普通小学招生数(万人) -->
     <defs>
      <path d="M 16.015625 30.21875 
L 83.984375 30.21875 
L 83.984375 -12.9375 
L 76.5625 -12.9375 
L 76.5625 -8.453125 
L 23.4375 -8.453125 
L 23.4375 -12.9375 
L 16.015625 -12.9375 
z
M 2.34375 44.875 
L 35.25 44.875 
L 35.25 64.984375 
L 5.46875 64.984375 
L 5.46875 71.625 
L 32.28125 71.625 
Q 29.390625 75.59375 25.59375 79.828125 
L 31.25 83.9375 
Q 35.75 79.34375 39.65625 74.5625 
L 35.546875 71.625 
L 60.5 71.625 
Q 64.3125 77.15625 68.265625 83.734375 
L 75.390625 79.828125 
Q 72.171875 75.34375 69.34375 71.625 
L 94.53125 71.625 
L 94.53125 64.984375 
L 64.75 64.984375 
L 64.75 44.875 
L 97.65625 44.875 
L 97.65625 38.234375 
L 2.34375 38.234375 
z
M 23.4375 -1.8125 
L 76.5625 -1.8125 
L 76.5625 7.671875 
L 23.4375 7.671875 
z
M 76.5625 23.578125 
L 23.4375 23.578125 
L 23.4375 14.109375 
L 76.5625 14.109375 
z
M 42.390625 44.875 
L 57.625 44.875 
L 57.625 64.984375 
L 42.390625 64.984375 
z
M 70.515625 50.921875 
Q 75.78125 56.296875 80.859375 63.140625 
L 87.109375 58.640625 
Q 81.640625 52.09375 75.984375 46.34375 
z
M 12.3125 58.15625 
L 17.578125 62.9375 
Q 23.828125 56.984375 28.71875 51.703125 
L 23.046875 46.625 
Q 18.65625 51.8125 12.3125 58.15625 
z
" id="MicrosoftYaHei-666e"/>
      <path d="M 40.53125 2.296875 
L 33.59375 2.296875 
L 33.59375 57.28125 
L 57.125 57.28125 
Q 49.8125 61.03125 42 64.796875 
L 46 69.484375 
Q 53.65625 65.765625 60.40625 62.40625 
L 77.828125 71.53125 
L 32.03125 71.53125 
L 32.03125 77.78125 
L 90.71875 77.78125 
L 90.71875 71.234375 
L 67.140625 58.984375 
Q 68.84375 58.109375 70.453125 57.28125 
L 91.40625 57.28125 
L 91.40625 13.140625 
Q 91.40625 2 81.15625 2 
Q 76.078125 2 70.125 2.296875 
Q 69.625 6 68.65625 9.8125 
Q 74.8125 9.125 79.203125 9.125 
Q 84.46875 9.125 84.46875 14.203125 
L 84.46875 19 
L 65.828125 19 
L 65.828125 3.765625 
L 58.890625 3.765625 
L 58.890625 19 
L 40.53125 19 
z
M 41.609375 -3.078125 
L 65.921875 -3.46875 
L 98.4375 -2.6875 
Q 97.359375 -5.90625 95.703125 -10.40625 
L 63.375 -10.59375 
L 40.140625 -10.015625 
Q 23.53125 -9.8125 16.890625 1.421875 
Q 12.890625 -2.296875 5.171875 -11.671875 
L 1.171875 -3.5625 
Q 9.8125 4.78125 13.671875 8.40625 
L 13.671875 41.265625 
L 2.046875 41.265625 
L 2.046875 48.484375 
L 21.1875 48.484375 
L 21.1875 6.734375 
Q 27.203125 -2.984375 41.609375 -3.078125 
z
M 13.375 81.296875 
Q 18.359375 75.25 27.046875 62.84375 
L 20.125 57.953125 
Q 12.203125 70.359375 7.125 77.09375 
z
M 84.46875 51.03125 
L 65.828125 51.03125 
L 65.828125 41.265625 
L 84.46875 41.265625 
z
M 65.828125 25.25 
L 84.46875 25.25 
L 84.46875 35.015625 
L 65.828125 35.015625 
z
M 40.53125 41.265625 
L 58.890625 41.265625 
L 58.890625 51.03125 
L 40.53125 51.03125 
z
M 40.53125 25.25 
L 58.890625 25.25 
L 58.890625 35.015625 
L 40.53125 35.015625 
z
" id="MicrosoftYaHei-901a"/>
      <path d="M 23.640625 60.59375 
L 31.640625 57.765625 
Q 22.265625 31 9.765625 7.46875 
Q 6.453125 9.515625 1.765625 11.859375 
Q 12.984375 30.8125 23.640625 60.59375 
z
M 67.1875 56.890625 
L 74.515625 60.40625 
Q 86.921875 37.84375 98.734375 12.9375 
L 89.84375 8.734375 
Q 77.9375 36.375 67.1875 56.890625 
z
M 46.875 81.984375 
L 55.5625 81.984375 
L 55.5625 1.03125 
Q 55.5625 -11.671875 41.796875 -11.671875 
Q 36.328125 -11.671875 27.25 -11.375 
Q 26.5625 -7.078125 25.59375 -2.203125 
Q 34.96875 -3.078125 39.9375 -3.078125 
Q 46.875 -3.078125 46.875 3.171875 
z
" id="MicrosoftYaHei-5c0f"/>
      <path d="M 2.25 21.234375 
L 47.953125 21.234375 
L 47.953125 26.703125 
L 66.609375 37.25 
L 20.703125 37.25 
L 20.703125 44.390625 
L 78.03125 44.390625 
L 78.03125 36.1875 
L 55.859375 23.390625 
L 55.859375 21.234375 
L 97.859375 21.234375 
L 97.859375 14.109375 
L 55.859375 14.109375 
L 55.859375 -0.640625 
Q 55.859375 -12.15625 44.234375 -12.15625 
Q 37.796875 -12.15625 29.109375 -11.96875 
Q 28.8125 -8.640625 27.9375 -3.65625 
Q 35.75 -4.4375 42.875 -4.546875 
Q 47.953125 -4.640625 47.953125 0.828125 
L 47.953125 14.109375 
L 2.25 14.109375 
z
M 5.5625 61.078125 
L 94.625 61.078125 
L 94.625 41.359375 
L 86.921875 41.359375 
L 86.921875 53.953125 
L 13.28125 53.953125 
L 13.28125 41.359375 
L 5.5625 41.359375 
z
M 67.390625 66.75 
Q 73.921875 73.78125 79.6875 81.890625 
L 86.71875 76.703125 
Q 80.375 69.484375 73.140625 61.578125 
z
M 39.65625 79.9375 
L 46 83.640625 
Q 51.953125 75.828125 57.03125 67.71875 
L 50 63.71875 
Q 45.703125 71.34375 39.65625 79.9375 
z
M 13.28125 77 
L 19.046875 81.203125 
Q 25 74.65625 30.765625 67.046875 
L 24.125 62.359375 
Q 18.65625 70.65625 13.28125 77 
z
" id="MicrosoftYaHei-5b66"/>
      <path d="M 65.234375 82.859375 
L 73.046875 81.6875 
Q 71 72.21875 68.265625 64.015625 
L 98.140625 64.015625 
L 98.140625 57.375 
L 92 57.375 
Q 89.546875 28.65625 79.5 11.765625 
Q 87.40625 1.03125 99.609375 -5.8125 
Q 96.484375 -10.109375 94.34375 -13.53125 
Q 82.421875 -5.8125 74.515625 4.828125 
Q 65.53125 -6.296875 53.125 -14.5 
Q 50.984375 -11.671875 47.5625 -8.34375 
Q 61.234375 0.640625 69.734375 12.0625 
Q 61.8125 25.734375 59.28125 43.609375 
Q 57.234375 39.984375 54.984375 36.859375 
Q 53.03125 39.703125 50.09375 43.109375 
Q 61.421875 59.421875 65.234375 82.859375 
z
M 2.34375 26.515625 
L 17.1875 26.515625 
Q 19.34375 30.21875 21.390625 34.125 
L 28.421875 31.890625 
Q 26.859375 29.15625 25.296875 26.515625 
L 49.21875 26.515625 
L 49.21875 20.171875 
Q 45.515625 10.59375 37.984375 3.375 
Q 43.359375 0.828125 48.921875 -1.703125 
L 44.625 -8.453125 
Q 38.578125 -5.03125 32.03125 -1.609375 
Q 21 -9.515625 4.203125 -14.109375 
Q 2.640625 -10.984375 0.875 -7.28125 
Q 15.140625 -4.046875 25 2 
Q 16.609375 6.296875 7.421875 10.796875 
Q 10.546875 15.28125 13.484375 20.0625 
L 2.34375 20.0625 
z
M 3.421875 60.109375 
L 25.875 60.109375 
L 25.875 81.984375 
L 33.109375 81.984375 
L 33.109375 60.109375 
L 51.859375 60.109375 
L 51.859375 53.65625 
L 33.109375 53.65625 
L 33.109375 47.703125 
L 36.03125 51.03125 
Q 45.125 44.390625 51.265625 39.3125 
L 46.578125 33.84375 
Q 41.21875 38.921875 33.109375 45.265625 
L 33.109375 34.125 
L 25.875 34.125 
L 25.875 47.796875 
Q 17 38.53125 5.171875 31.5 
Q 3.328125 34.328125 0.984375 37.453125 
Q 13.28125 44.09375 23.53125 53.65625 
L 3.421875 53.65625 
z
M 84.1875 57.375 
L 65.921875 57.375 
Q 65.4375 56.109375 64.84375 54.9375 
Q 66.609375 34.234375 74.609375 19.484375 
Q 82.421875 33.734375 84.1875 57.375 
z
M 17 13.03125 
Q 23.921875 9.90625 31.25 6.5 
Q 37.984375 12.25 41.796875 20.0625 
L 21.484375 20.0625 
Q 19.234375 16.453125 17 13.03125 
z
M 47.46875 79.546875 
L 53.515625 75.53125 
Q 48.140625 68.5 42.78125 62.546875 
Q 40.53125 64.5 37.5 66.65625 
Q 42.578125 72.609375 47.46875 79.546875 
z
M 5.953125 75.25 
L 11.53125 79.046875 
Q 15.921875 73.6875 20.609375 67.53125 
L 14.546875 63.234375 
Q 10.25 69.578125 5.953125 75.25 
z
" id="MicrosoftYaHei-6570"/>
      <path d="M 23.921875 -17.1875 
Q 7.46875 1.5625 7.46875 28.859375 
Q 7.46875 56.15625 23.921875 75.640625 
L 32.375 75.640625 
Q 15.875 55.375 15.875 28.953125 
Q 15.875 2.59375 32.28125 -17.1875 
z
" id="MicrosoftYaHei-28"/>
      <path d="M 2.9375 75.046875 
L 97.078125 75.046875 
L 97.078125 67.53125 
L 41.15625 67.53125 
Q 40.765625 56.640625 40.140625 47.125 
L 85.453125 47.125 
Q 84.46875 27.203125 83.203125 9.328125 
Q 82.328125 -1.515625 78.21875 -6.296875 
Q 74.3125 -10.6875 64.0625 -10.796875 
Q 58.6875 -10.984375 45.90625 -10.015625 
Q 45.40625 -6.296875 44.4375 -1.03125 
Q 56.84375 -2.6875 63.375 -2.6875 
Q 73.828125 -3.46875 74.90625 10.5 
Q 76.078125 24.171875 76.65625 39.703125 
L 39.546875 39.703125 
Q 35.890625 3.953125 7.515625 -13.421875 
Q 5.28125 -10.40625 1.765625 -6.5 
Q 29.203125 10.203125 31.15625 43.3125 
Q 32.078125 54 32.375 67.53125 
L 2.9375 67.53125 
z
" id="MicrosoftYaHei-4e07"/>
      <path d="M 1.5625 -4.734375 
Q 44.140625 19.875 46.578125 81.59375 
L 55.171875 81.59375 
Q 54.640625 71.140625 53.125 61.671875 
Q 65.234375 12.84375 98.640625 -2.59375 
Q 94.53125 -7.078125 91.40625 -11.078125 
Q 62.40625 5.328125 50.046875 46.96875 
Q 39.359375 6.734375 7.71875 -12.15625 
Q 5.078125 -8.546875 1.5625 -4.734375 
z
" id="MicrosoftYaHei-4eba"/>
      <path d="M 1.21875 -17.1875 
Q 17.671875 2.546875 17.671875 28.953125 
Q 17.671875 55.421875 1.125 75.640625 
L 9.625 75.640625 
Q 26.125 56.296875 26.125 28.859375 
Q 26.125 1.421875 9.625 -17.1875 
z
" id="MicrosoftYaHei-29"/>
     </defs>
     <g transform="translate(651.91875 68.83375)scale(0.1 -0.1)">
      <use xlink:href="#MicrosoftYaHei-666e"/>
      <use x="100" xlink:href="#MicrosoftYaHei-901a"/>
      <use x="200" xlink:href="#MicrosoftYaHei-5c0f"/>
      <use x="300" xlink:href="#MicrosoftYaHei-5b66"/>
      <use x="400" xlink:href="#MicrosoftYaHei-62db"/>
      <use x="500" xlink:href="#MicrosoftYaHei-751f"/>
      <use x="600" xlink:href="#MicrosoftYaHei-6570"/>
      <use x="700" xlink:href="#MicrosoftYaHei-28"/>
      <use x="733.398438" xlink:href="#MicrosoftYaHei-4e07"/>
      <use x="833.398438" xlink:href="#MicrosoftYaHei-4eba"/>
      <use x="933.398438" xlink:href="#MicrosoftYaHei-29"/>
     </g>
    </g>
    <g id="patch_9">
     <path d="M 623.91875 84.313438 
L 643.91875 84.313438 
L 643.91875 77.313438 
L 623.91875 77.313438 
z
" style="fill:#ff7f0e;stroke:#ff7f0e;stroke-linejoin:miter;"/>
    </g>
    <g id="text_19">
     <!-- 职业高中招生数(万人) -->
     <defs>
      <path d="M 3.03125 76.515625 
L 44.921875 76.515625 
L 44.921875 69.671875 
L 38.1875 69.671875 
L 38.1875 16.359375 
Q 41.796875 17.28125 45.40625 18.21875 
Q 45.3125 13.71875 45.40625 10.5 
Q 41.796875 9.71875 38.1875 8.890625 
L 38.1875 -12.359375 
L 30.953125 -12.359375 
L 30.953125 7.28125 
Q 17.234375 4.15625 3.421875 0.640625 
L 1.859375 8.15625 
L 8.40625 9.515625 
L 8.40625 69.671875 
L 3.03125 69.671875 
z
M 49.125 75.640625 
L 91.015625 75.640625 
L 91.015625 23.875 
L 83.796875 23.875 
L 83.796875 29.546875 
L 56.34375 29.546875 
L 56.34375 23.875 
L 49.125 23.875 
z
M 83.796875 68.609375 
L 56.34375 68.609375 
L 56.34375 36.578125 
L 83.796875 36.578125 
z
M 81.25 20.171875 
Q 89.65625 7.46875 98.25 -8.15625 
L 91.40625 -12.453125 
Q 83.59375 2.09375 74.515625 16.265625 
z
M 58.59375 19.671875 
L 65.71875 16.0625 
Q 56.9375 -0.140625 48.640625 -12.25 
Q 45.21875 -9.71875 41.890625 -8.25 
Q 51.375 4.828125 58.59375 19.671875 
z
M 30.953125 14.59375 
L 30.953125 27.6875 
L 15.625 27.6875 
L 15.625 11.078125 
Q 23.296875 12.796875 30.953125 14.59375 
z
M 15.625 34.515625 
L 30.953125 34.515625 
L 30.953125 48.6875 
L 15.625 48.6875 
z
M 15.625 55.515625 
L 30.953125 55.515625 
L 30.953125 69.671875 
L 15.625 69.671875 
z
" id="MicrosoftYaHei-804c"/>
      <path d="M 1.859375 0.734375 
L 33.203125 0.734375 
L 33.203125 81.390625 
L 41.40625 81.390625 
L 41.40625 0.734375 
L 58.5 0.734375 
L 58.5 81.390625 
L 66.703125 81.390625 
L 66.703125 0.734375 
L 98.34375 0.734375 
L 98.34375 -6.5 
L 1.859375 -6.5 
z
M 13.1875 62.25 
Q 21.1875 43.40625 28.71875 22.21875 
L 20.703125 18.609375 
Q 14.15625 39.203125 6.0625 59.125 
z
M 70.21875 21.34375 
Q 79.984375 42.046875 86.625 61.375 
L 94.53125 58.25 
Q 85.453125 34.90625 77.25 18.109375 
z
" id="MicrosoftYaHei-4e1a"/>
      <path d="M 18.65625 61.28125 
L 82.03125 61.28125 
L 82.03125 37.453125 
L 74.609375 37.453125 
L 74.609375 40.578125 
L 26.078125 40.578125 
L 26.078125 37.546875 
L 18.65625 37.546875 
z
M 15.140625 -12.25 
L 7.71875 -12.25 
L 7.71875 33.546875 
L 93.0625 33.546875 
L 93.0625 0.34375 
Q 93.0625 -11.671875 81.734375 -11.671875 
Q 75.390625 -11.671875 67.484375 -11.46875 
Q 66.890625 -8.15625 65.921875 -3.765625 
Q 74.90625 -4.4375 79.6875 -4.4375 
Q 85.640625 -4.4375 85.640625 1.515625 
L 85.640625 27.296875 
L 15.140625 27.296875 
z
M 28.328125 20.84375 
L 72.46875 20.84375 
L 72.46875 0.4375 
L 35.359375 0.4375 
L 35.359375 -3.765625 
L 28.328125 -3.765625 
z
M 1.953125 74.171875 
L 46.6875 74.171875 
Q 44.53125 78.328125 42.578125 81.5 
L 49.90625 84.421875 
Q 52.6875 79.59375 55.328125 74.171875 
L 98.046875 74.171875 
L 98.046875 67.71875 
L 1.953125 67.71875 
z
M 74.609375 55.21875 
L 26.078125 55.21875 
L 26.078125 46.625 
L 74.609375 46.625 
z
M 65.4375 6.5 
L 65.4375 14.796875 
L 35.359375 14.796875 
L 35.359375 6.5 
z
" id="MicrosoftYaHei-9ad8"/>
      <path d="M 8.203125 62.0625 
L 45.796875 62.0625 
L 45.796875 83.34375 
L 54.203125 83.34375 
L 54.203125 62.0625 
L 92.1875 62.0625 
L 92.1875 17.53125 
L 84.1875 17.53125 
L 84.1875 22.796875 
L 54.203125 22.796875 
L 54.203125 -13.53125 
L 45.796875 -13.53125 
L 45.796875 22.796875 
L 16.21875 22.796875 
L 16.21875 17.53125 
L 8.203125 17.53125 
z
M 84.1875 54.828125 
L 54.203125 54.828125 
L 54.203125 30.03125 
L 84.1875 30.03125 
z
M 16.21875 30.03125 
L 45.796875 30.03125 
L 45.796875 54.828125 
L 16.21875 54.828125 
z
" id="MicrosoftYaHei-4e2d"/>
     </defs>
     <g transform="translate(651.91875 84.313438)scale(0.1 -0.1)">
      <use xlink:href="#MicrosoftYaHei-804c"/>
      <use x="100" xlink:href="#MicrosoftYaHei-4e1a"/>
      <use x="200" xlink:href="#MicrosoftYaHei-9ad8"/>
      <use x="300" xlink:href="#MicrosoftYaHei-4e2d"/>
      <use x="400" xlink:href="#MicrosoftYaHei-62db"/>
      <use x="500" xlink:href="#MicrosoftYaHei-751f"/>
      <use x="600" xlink:href="#MicrosoftYaHei-6570"/>
      <use x="700" xlink:href="#MicrosoftYaHei-28"/>
      <use x="733.398438" xlink:href="#MicrosoftYaHei-4e07"/>
      <use x="833.398438" xlink:href="#MicrosoftYaHei-4eba"/>
      <use x="933.398438" xlink:href="#MicrosoftYaHei-29"/>
     </g>
    </g>
    <g id="patch_10">
     <path d="M 623.91875 99.793125 
L 643.91875 99.793125 
L 643.91875 92.793125 
L 623.91875 92.793125 
z
" style="fill:#2ca02c;stroke:#2ca02c;stroke-linejoin:miter;"/>
    </g>
    <g id="text_20">
     <!-- 高中招生数(万人) -->
     <g transform="translate(651.91875 99.793125)scale(0.1 -0.1)">
      <use xlink:href="#MicrosoftYaHei-9ad8"/>
      <use x="100" xlink:href="#MicrosoftYaHei-4e2d"/>
      <use x="200" xlink:href="#MicrosoftYaHei-62db"/>
      <use x="300" xlink:href="#MicrosoftYaHei-751f"/>
      <use x="400" xlink:href="#MicrosoftYaHei-6570"/>
      <use x="500" xlink:href="#MicrosoftYaHei-28"/>
      <use x="533.398438" xlink:href="#MicrosoftYaHei-4e07"/>
      <use x="633.398438" xlink:href="#MicrosoftYaHei-4eba"/>
      <use x="733.398438" xlink:href="#MicrosoftYaHei-29"/>
     </g>
    </g>
    <g id="patch_11">
     <path d="M 623.91875 115.272812 
L 643.91875 115.272812 
L 643.91875 108.272812 
L 623.91875 108.272812 
z
" style="fill:#d62728;stroke:#d62728;stroke-linejoin:miter;"/>
    </g>
    <g id="text_21">
     <!-- 普通高等学校招生数(万人) -->
     <defs>
      <path d="M 1.953125 35.984375 
L 45.515625 35.984375 
L 45.515625 45.65625 
L 8.796875 45.65625 
L 8.796875 52 
L 45.515625 52 
L 45.515625 59.71875 
L 53.125 59.71875 
L 53.125 52 
L 91.40625 52 
L 91.40625 45.65625 
L 53.125 45.65625 
L 53.125 35.984375 
L 98.25 35.984375 
L 98.25 29.4375 
L 1.953125 29.4375 
z
M 5.28125 19.875 
L 66.40625 19.875 
L 66.40625 27.59375 
L 74.03125 27.59375 
L 74.03125 19.875 
L 94.921875 19.875 
L 94.921875 13.328125 
L 74.03125 13.328125 
L 74.03125 0.34375 
Q 74.03125 -11.96875 61.328125 -11.96875 
Q 53.90625 -11.96875 46.390625 -11.859375 
Q 45.90625 -8.34375 44.921875 -3.5625 
Q 52.734375 -4.34375 59.28125 -4.34375 
Q 66.40625 -4.34375 66.40625 1.421875 
L 66.40625 13.328125 
L 5.28125 13.328125 
z
M 20.21875 83.546875 
L 28.609375 83.546875 
Q 26.375 78.765625 23.640625 74.359375 
L 51.953125 74.359375 
L 51.953125 68.3125 
L 19.4375 68.3125 
Q 13.671875 60.59375 6.0625 54.046875 
Q 4.109375 56.390625 1.171875 59.328125 
Q 13.375 69.1875 20.21875 83.546875 
z
M 62.015625 83.546875 
L 70.40625 83.546875 
Q 68.21875 78.71875 65.828125 74.359375 
L 97.265625 74.359375 
L 97.265625 68.3125 
L 62.25 68.3125 
Q 58.9375 63.09375 55.28125 58.734375 
Q 51.171875 61.671875 48.734375 62.640625 
Q 57.234375 71.828125 62.015625 83.546875 
z
M 23.4375 7.671875 
L 28.609375 12.640625 
Q 35.25 6.984375 42.1875 0.4375 
L 36.53125 -4.9375 
Q 31.25 0.640625 23.4375 7.671875 
z
M 31.546875 53.765625 
Q 27.828125 58.640625 23.4375 63.71875 
L 28.515625 67.328125 
Q 33.203125 62.84375 37.3125 58.15625 
z
M 74.125 53.765625 
Q 72.265625 56.6875 66.21875 63.71875 
L 71.296875 67.328125 
Q 76.5625 62.25 79.890625 58.15625 
z
" id="MicrosoftYaHei-7b49"/>
      <path d="M 1.375 21.140625 
Q 11.625 38.625 15.828125 55.8125 
L 2.4375 55.8125 
L 2.4375 62.546875 
L 16.109375 62.546875 
L 16.109375 82.765625 
L 23.25 82.765625 
L 23.25 62.546875 
L 34.578125 62.546875 
L 34.578125 55.8125 
L 23.25 55.8125 
L 23.25 46.734375 
L 26.65625 49.359375 
Q 33.59375 40.578125 36.234375 36.46875 
L 30.953125 32.5625 
Q 27.9375 37.15625 23.25 43.890625 
L 23.25 -13.53125 
L 16.109375 -13.53125 
L 16.109375 38.625 
Q 11.03125 22.125 4.5 12.546875 
Q 3.21875 16.75 1.375 21.140625 
z
M 52.25 37.75 
Q 57.515625 23.875 65.234375 14.984375 
Q 72.46875 23.875 77.15625 38.625 
L 84.671875 35.890625 
Q 78.21875 19 70.703125 9.625 
Q 81.734375 0.4375 98.640625 -4.25 
Q 96.296875 -7.078125 93.65625 -11.578125 
Q 76.078125 -5.421875 65.4375 3.953125 
Q 54.203125 -6.78125 35.75 -13.921875 
Q 33.796875 -10.796875 31.0625 -6.890625 
Q 49.125 -0.53125 59.96875 9.421875 
Q 51.65625 18.796875 46 34.71875 
z
M 37.890625 67.828125 
L 64.265625 67.828125 
Q 62.203125 73.390625 58.6875 80.609375 
L 65.234375 83.453125 
Q 69.046875 76.703125 71.6875 70.65625 
L 65.328125 67.828125 
L 96.6875 67.828125 
L 96.6875 60.984375 
L 37.890625 60.984375 
z
M 52.25 58.84375 
L 58.984375 55.515625 
Q 50.390625 40.671875 41.015625 28.265625 
Q 38.09375 30.328125 34.859375 32.375 
Q 45.015625 45.265625 52.25 58.84375 
z
M 71.578125 54.046875 
L 76.859375 58.453125 
Q 87.5 47.125 97.078125 35.203125 
L 91.109375 30.125 
Q 82.625 41.9375 71.578125 54.046875 
z
" id="MicrosoftYaHei-6821"/>
     </defs>
     <g transform="translate(651.91875 115.272812)scale(0.1 -0.1)">
      <use xlink:href="#MicrosoftYaHei-666e"/>
      <use x="100" xlink:href="#MicrosoftYaHei-901a"/>
      <use x="200" xlink:href="#MicrosoftYaHei-9ad8"/>
      <use x="300" xlink:href="#MicrosoftYaHei-7b49"/>
      <use x="400" xlink:href="#MicrosoftYaHei-5b66"/>
      <use x="500" xlink:href="#MicrosoftYaHei-6821"/>
      <use x="600" xlink:href="#MicrosoftYaHei-62db"/>
      <use x="700" xlink:href="#MicrosoftYaHei-751f"/>
      <use x="800" xlink:href="#MicrosoftYaHei-6570"/>
      <use x="900" xlink:href="#MicrosoftYaHei-28"/>
      <use x="933.398438" xlink:href="#MicrosoftYaHei-4e07"/>
      <use x="1033.398438" xlink:href="#MicrosoftYaHei-4eba"/>
      <use x="1133.398438" xlink:href="#MicrosoftYaHei-29"/>
     </g>
    </g>
    <g id="patch_12">
     <path d="M 623.91875 130.7525 
L 643.91875 130.7525 
L 643.91875 123.7525 
L 623.91875 123.7525 
z
" style="fill:#9467bd;stroke:#9467bd;stroke-linejoin:miter;"/>
    </g>
    <g id="text_22">
     <!-- 普通本科招生数(万人) -->
     <defs>
      <path d="M 98.140625 12.546875 
Q 95.609375 10.015625 91.5 5.71875 
Q 67.875 23.921875 53.8125 52.390625 
L 53.8125 13.71875 
L 76.171875 13.71875 
L 76.171875 6.890625 
L 53.8125 6.890625 
L 53.8125 -13.140625 
L 46.1875 -13.140625 
L 46.1875 6.890625 
L 23.046875 6.890625 
L 23.046875 13.71875 
L 46.1875 13.71875 
L 46.1875 52.390625 
Q 33.734375 27.59375 8.015625 4.546875 
Q 4.203125 8.15625 1.5625 10.40625 
Q 29.34375 33.203125 43.109375 58.640625 
L 3.71875 58.640625 
L 3.71875 65.875 
L 46.1875 65.875 
L 46.1875 83.453125 
L 53.8125 83.453125 
L 53.8125 65.875 
L 96.296875 65.875 
L 96.296875 58.640625 
L 56.59375 58.640625 
Q 72.125 29.4375 98.140625 12.546875 
z
" id="MicrosoftYaHei-672c"/>
      <path d="M 1.171875 13.625 
Q 12.3125 28.5625 17.96875 46.921875 
L 2.546875 46.921875 
L 2.546875 53.859375 
L 18.5625 53.859375 
L 18.5625 68.21875 
Q 11.03125 67.4375 4.390625 66.84375 
Q 3.71875 70.453125 2.4375 74.078125 
Q 21.390625 75.4375 40.046875 78.375 
L 42.578125 71.140625 
Q 33.796875 69.96875 25.875 69.09375 
L 25.875 53.859375 
L 41.40625 53.859375 
L 41.40625 46.921875 
L 25.875 46.921875 
L 25.875 35.890625 
L 30.171875 39.796875 
Q 37.203125 33.734375 43.171875 27.984375 
L 37.703125 22.40625 
Q 31.453125 29.4375 25.875 34.625 
L 25.875 -13.234375 
L 18.5625 -13.234375 
L 18.5625 30.8125 
Q 12.796875 15.765625 4.890625 5.328125 
Q 3.21875 9.328125 1.171875 13.625 
z
M 36.421875 18.796875 
L 74.703125 22.21875 
L 74.703125 82.5625 
L 82.234375 82.5625 
L 82.234375 22.90625 
L 97.65625 24.359375 
L 98.25 17.328125 
L 82.234375 15.875 
L 82.234375 -13.234375 
L 74.703125 -13.234375 
L 74.703125 15.1875 
L 37.203125 11.765625 
z
M 48.046875 67.328125 
L 52.546875 72.21875 
Q 63.375 63.921875 70.125 57.671875 
L 65.046875 51.90625 
Q 58.109375 59.03125 48.046875 67.328125 
z
M 42.28125 43.890625 
L 46.96875 48.875 
Q 58.109375 40.1875 63.765625 35.015625 
L 58.6875 29.046875 
Q 54.109375 33.84375 42.28125 43.890625 
z
" id="MicrosoftYaHei-79d1"/>
     </defs>
     <g transform="translate(651.91875 130.7525)scale(0.1 -0.1)">
      <use xlink:href="#MicrosoftYaHei-666e"/>
      <use x="100" xlink:href="#MicrosoftYaHei-901a"/>
      <use x="200" xlink:href="#MicrosoftYaHei-672c"/>
      <use x="300" xlink:href="#MicrosoftYaHei-79d1"/>
      <use x="400" xlink:href="#MicrosoftYaHei-62db"/>
      <use x="500" xlink:href="#MicrosoftYaHei-751f"/>
      <use x="600" xlink:href="#MicrosoftYaHei-6570"/>
      <use x="700" xlink:href="#MicrosoftYaHei-28"/>
      <use x="733.398438" xlink:href="#MicrosoftYaHei-4e07"/>
      <use x="833.398438" xlink:href="#MicrosoftYaHei-4eba"/>
      <use x="933.398438" xlink:href="#MicrosoftYaHei-29"/>
     </g>
    </g>
   </g>
  </g>
 </g>
 <defs>
  <clipPath id="pbb8fbb9efd">
   <rect height="332.64" width="669.6" x="108" y="51.84"/>
  </clipPath>
 </defs>
</svg>
