<?xml version="1.0" encoding="utf-8" standalone="no"?>
<!DOCTYPE svg PUBLIC "-//W3C//DTD SVG 1.1//EN"
  "http://www.w3.org/Graphics/SVG/1.1/DTD/svg11.dtd">
<!-- Created with matplotlib (http://matplotlib.org/) -->
<svg height="360pt" version="1.1" viewBox="0 0 864 360" width="864pt" xmlns="http://www.w3.org/2000/svg" xmlns:xlink="http://www.w3.org/1999/xlink">
 <defs>
  <style type="text/css">
*{stroke-linecap:butt;stroke-linejoin:round;}
  </style>
 </defs>
 <g id="figure_1">
  <g id="patch_1">
   <path d="M 0 360 
L 864 360 
L 864 0 
L 0 0 
z
" style="fill:#ffffff;"/>
  </g>
  <g id="axes_1">
   <g id="patch_2">
    <path d="M 108 320.4 
L 777.6 320.4 
L 777.6 43.2 
L 108 43.2 
z
" style="fill:#ffffff;"/>
   </g>
   <g id="matplotlib.axis_1">
    <g id="xtick_1">
     <g id="line2d_1">
      <path clip-path="url(#p193671357f)" d="M 108 320.4 
L 108 43.2 
" style="fill:none;stroke:#b0b0b0;stroke-linecap:square;stroke-width:0.8;"/>
     </g>
     <g id="line2d_2">
      <defs>
       <path d="M 0 0 
L 0 3.5 
" id="m202c2dd694" style="stroke:#000000;stroke-width:0.8;"/>
      </defs>
      <g>
       <use style="stroke:#000000;stroke-width:0.8;" x="108" xlink:href="#m202c2dd694" y="320.4"/>
      </g>
     </g>
     <g id="text_1">
      <!-- 2018年8月8日 -->
      <defs>
       <path d="M 51.171875 0 
L 5.171875 0 
L 5.171875 8.296875 
L 27.15625 30.21875 
Q 36.234375 39.3125 39.3125 44.609375 
Q 42.390625 49.90625 42.390625 55.5625 
Q 42.390625 62.015625 38.765625 65.453125 
Q 35.15625 68.890625 28.328125 68.890625 
Q 18.21875 68.890625 9.03125 60.296875 
L 9.03125 70.015625 
Q 17.96875 76.90625 29.828125 76.90625 
Q 40.046875 76.90625 45.953125 71.390625 
Q 51.859375 65.875 51.859375 56.546875 
Q 51.859375 49.515625 48.0625 42.75 
Q 44.28125 35.984375 33.734375 25.53125 
L 16.5 8.6875 
L 16.5 8.5 
L 51.171875 8.5 
z
" id="MicrosoftYaHei-32"/>
       <path d="M 4.4375 36.328125 
Q 4.4375 56.34375 11.078125 66.625 
Q 17.71875 76.90625 30.328125 76.90625 
Q 54.34375 76.90625 54.34375 38.140625 
Q 54.34375 19 47.578125 8.859375 
Q 40.828125 -1.265625 28.609375 -1.265625 
Q 17.09375 -1.265625 10.765625 8.34375 
Q 4.4375 17.96875 4.4375 36.328125 
z
M 14.203125 36.765625 
Q 14.203125 6.640625 29.5 6.640625 
Q 44.53125 6.640625 44.53125 37.25 
Q 44.53125 68.953125 29.78125 68.953125 
Q 14.203125 68.953125 14.203125 36.765625 
z
" id="MicrosoftYaHei-30"/>
       <path d="M 52.59375 0 
L 9.234375 0 
L 9.234375 8.25 
L 26.171875 8.25 
L 26.171875 65.671875 
L 8.796875 60.640625 
L 8.796875 69.4375 
L 35.6875 77.25 
L 35.6875 8.25 
L 52.59375 8.25 
z
" id="MicrosoftYaHei-31"/>
       <path d="M 21.390625 39.796875 
Q 7.859375 46.09375 7.859375 58.0625 
Q 7.859375 66.40625 14.203125 71.65625 
Q 20.5625 76.90625 30.421875 76.90625 
Q 39.453125 76.90625 45.3125 71.96875 
Q 51.171875 67.046875 51.171875 59.234375 
Q 51.171875 46.625 37.0625 39.84375 
L 37.0625 39.65625 
Q 53.609375 33.6875 53.609375 19.34375 
Q 53.609375 9.90625 46.796875 4.3125 
Q 39.984375 -1.265625 27.78125 -1.265625 
Q 17.78125 -1.265625 11.46875 4.25 
Q 5.171875 9.765625 5.171875 18.5625 
Q 5.171875 33.015625 21.390625 39.59375 
z
M 41.5 58.109375 
Q 41.5 63.1875 38.328125 66.109375 
Q 35.15625 69.046875 29.734375 69.046875 
Q 24.65625 69.046875 21.09375 65.984375 
Q 17.53125 62.9375 17.53125 58.203125 
Q 17.53125 48.734375 29.390625 43.796875 
Q 41.5 48.828125 41.5 58.109375 
z
M 28.8125 35.25 
Q 14.796875 29.59375 14.796875 19.046875 
Q 14.796875 13.578125 18.890625 10.0625 
Q 23 6.546875 29.59375 6.546875 
Q 35.984375 6.546875 39.984375 10.03125 
Q 44 13.53125 44 18.75 
Q 44 29.734375 28.8125 35.25 
z
" id="MicrosoftYaHei-38"/>
       <path d="M 1.859375 19.96875 
L 17.578125 19.96875 
L 17.578125 47.90625 
L 52.15625 47.90625 
L 52.15625 65.28125 
L 23.4375 65.28125 
Q 16.84375 53.421875 8.6875 43.40625 
Q 6.15625 46.140625 2.640625 48.875 
Q 16.5 64.5 23.4375 83.9375 
L 31.453125 81.6875 
Q 29.390625 76.859375 27.15625 72.3125 
L 94.34375 72.3125 
L 94.34375 65.28125 
L 60.0625 65.28125 
L 60.0625 47.90625 
L 92.671875 47.90625 
L 92.671875 41.0625 
L 60.0625 41.0625 
L 60.0625 19.96875 
L 98.734375 19.96875 
L 98.734375 12.9375 
L 60.0625 12.9375 
L 60.0625 -13.421875 
L 52.15625 -13.421875 
L 52.15625 12.9375 
L 1.859375 12.9375 
z
M 25.296875 19.96875 
L 52.15625 19.96875 
L 52.15625 41.0625 
L 25.296875 41.0625 
z
" id="MicrosoftYaHei-5e74"/>
       <path d="M 25.046875 20.0625 
Q 22.859375 1.21875 10.359375 -14.015625 
Q 7.234375 -10.984375 3.609375 -8.15625 
Q 13.09375 2.09375 16.3125 16.265625 
Q 18.5625 26.703125 18.5625 45.171875 
L 18.5625 78.953125 
L 83.796875 78.953125 
L 83.796875 2.78125 
Q 83.796875 -11.671875 70.015625 -11.671875 
Q 64.265625 -11.671875 55.171875 -11.46875 
Q 54.6875 -7.953125 53.71875 -3.265625 
Q 62.703125 -3.859375 67.875 -3.859375 
Q 75.78125 -3.859375 75.78125 3.859375 
L 75.78125 20.0625 
z
M 25.828125 27.203125 
L 75.78125 27.203125 
L 75.78125 45.953125 
L 26.5625 45.953125 
Q 26.5625 36.1875 25.828125 27.203125 
z
M 26.5625 71.625 
L 26.5625 53.078125 
L 75.78125 53.078125 
L 75.78125 71.625 
z
" id="MicrosoftYaHei-6708"/>
       <path d="M 15.234375 76.703125 
L 84.859375 76.703125 
L 84.859375 -11.96875 
L 76.5625 -11.96875 
L 76.5625 -5.03125 
L 23.53125 -5.03125 
L 23.53125 -11.96875 
L 15.234375 -11.96875 
z
M 23.53125 32.859375 
L 23.53125 2.09375 
L 76.5625 2.09375 
L 76.5625 32.859375 
z
M 23.53125 69.390625 
L 23.53125 40.1875 
L 76.5625 40.1875 
L 76.5625 69.390625 
z
" id="MicrosoftYaHei-65e5"/>
      </defs>
      <g transform="translate(75.407813 335.39375)scale(0.1 -0.1)">
       <use xlink:href="#MicrosoftYaHei-32"/>
       <use x="58.642578" xlink:href="#MicrosoftYaHei-30"/>
       <use x="117.285156" xlink:href="#MicrosoftYaHei-31"/>
       <use x="175.927734" xlink:href="#MicrosoftYaHei-38"/>
       <use x="234.570312" xlink:href="#MicrosoftYaHei-5e74"/>
       <use x="334.570312" xlink:href="#MicrosoftYaHei-38"/>
       <use x="393.212891" xlink:href="#MicrosoftYaHei-6708"/>
       <use x="493.212891" xlink:href="#MicrosoftYaHei-38"/>
       <use x="551.855469" xlink:href="#MicrosoftYaHei-65e5"/>
      </g>
     </g>
    </g>
    <g id="xtick_2">
     <g id="line2d_3">
      <path clip-path="url(#p193671357f)" d="M 243.272727 320.4 
L 243.272727 43.2 
" style="fill:none;stroke:#b0b0b0;stroke-linecap:square;stroke-width:0.8;"/>
     </g>
     <g id="line2d_4">
      <g>
       <use style="stroke:#000000;stroke-width:0.8;" x="243.272727" xlink:href="#m202c2dd694" y="320.4"/>
      </g>
     </g>
     <g id="text_2">
      <!-- 2018年9月3日 -->
      <defs>
       <path d="M 9.03125 10.25 
Q 15.28125 6.640625 22.515625 6.640625 
Q 32.671875 6.640625 38.25 14.640625 
Q 43.84375 22.65625 43.84375 37.40625 
Q 43.75 37.3125 43.65625 37.40625 
Q 38.671875 27.9375 26.90625 27.9375 
Q 17.390625 27.9375 11.140625 34.46875 
Q 4.890625 41.015625 4.890625 51.46875 
Q 4.890625 62.59375 11.71875 69.75 
Q 18.5625 76.90625 29.4375 76.90625 
Q 40.71875 76.90625 47.0625 68.046875 
Q 53.421875 59.1875 53.421875 42.234375 
Q 53.421875 21.296875 45.21875 10.015625 
Q 37.015625 -1.265625 22.515625 -1.265625 
Q 14.546875 -1.265625 9.03125 1.3125 
z
M 14.546875 52.6875 
Q 14.546875 45.0625 18.453125 40.59375 
Q 22.359375 36.140625 29.25 36.140625 
Q 35.203125 36.140625 39.25 40.203125 
Q 43.3125 44.28125 43.3125 50.09375 
Q 43.3125 58.25 39.28125 63.59375 
Q 35.25 68.953125 28.65625 68.953125 
Q 22.5625 68.953125 18.546875 64.3125 
Q 14.546875 59.671875 14.546875 52.6875 
z
" id="MicrosoftYaHei-39"/>
       <path d="M 6.984375 12.640625 
Q 14.75 6.640625 24.515625 6.640625 
Q 32.328125 6.640625 36.890625 10.46875 
Q 41.453125 14.3125 41.453125 20.75 
Q 41.453125 35.109375 20.90625 35.109375 
L 14.59375 35.109375 
L 14.59375 43.015625 
L 20.609375 43.015625 
Q 38.8125 43.015625 38.8125 56.5 
Q 38.8125 68.953125 24.90625 68.953125 
Q 16.9375 68.953125 9.90625 63.578125 
L 9.90625 72.609375 
Q 17.328125 76.90625 27.25 76.90625 
Q 36.921875 76.90625 42.78125 71.84375 
Q 48.640625 66.796875 48.640625 58.734375 
Q 48.640625 43.890625 33.5 39.65625 
L 33.5 39.453125 
Q 41.703125 38.578125 46.453125 33.671875 
Q 51.21875 28.765625 51.21875 21.4375 
Q 51.21875 11.234375 43.875 4.984375 
Q 36.53125 -1.265625 24.3125 -1.265625 
Q 13.578125 -1.265625 6.984375 2.734375 
z
" id="MicrosoftYaHei-33"/>
      </defs>
      <g transform="translate(210.68054 335.39375)scale(0.1 -0.1)">
       <use xlink:href="#MicrosoftYaHei-32"/>
       <use x="58.642578" xlink:href="#MicrosoftYaHei-30"/>
       <use x="117.285156" xlink:href="#MicrosoftYaHei-31"/>
       <use x="175.927734" xlink:href="#MicrosoftYaHei-38"/>
       <use x="234.570312" xlink:href="#MicrosoftYaHei-5e74"/>
       <use x="334.570312" xlink:href="#MicrosoftYaHei-39"/>
       <use x="393.212891" xlink:href="#MicrosoftYaHei-6708"/>
       <use x="493.212891" xlink:href="#MicrosoftYaHei-33"/>
       <use x="551.855469" xlink:href="#MicrosoftYaHei-65e5"/>
      </g>
     </g>
    </g>
    <g id="xtick_3">
     <g id="line2d_5">
      <path clip-path="url(#p193671357f)" d="M 378.545455 320.4 
L 378.545455 43.2 
" style="fill:none;stroke:#b0b0b0;stroke-linecap:square;stroke-width:0.8;"/>
     </g>
     <g id="line2d_6">
      <g>
       <use style="stroke:#000000;stroke-width:0.8;" x="378.545455" xlink:href="#m202c2dd694" y="320.4"/>
      </g>
     </g>
     <g id="text_3">
      <!-- 2019年1月27日 -->
      <defs>
       <path d="M 53.765625 72.3125 
L 24.171875 0 
L 14.265625 0 
L 42.390625 67.1875 
L 4.59375 67.1875 
L 4.59375 75.640625 
L 53.765625 75.640625 
z
" id="MicrosoftYaHei-37"/>
      </defs>
      <g transform="translate(343.021236 335.39375)scale(0.1 -0.1)">
       <use xlink:href="#MicrosoftYaHei-32"/>
       <use x="58.642578" xlink:href="#MicrosoftYaHei-30"/>
       <use x="117.285156" xlink:href="#MicrosoftYaHei-31"/>
       <use x="175.927734" xlink:href="#MicrosoftYaHei-39"/>
       <use x="234.570312" xlink:href="#MicrosoftYaHei-5e74"/>
       <use x="334.570312" xlink:href="#MicrosoftYaHei-31"/>
       <use x="393.212891" xlink:href="#MicrosoftYaHei-6708"/>
       <use x="493.212891" xlink:href="#MicrosoftYaHei-32"/>
       <use x="551.855469" xlink:href="#MicrosoftYaHei-37"/>
       <use x="610.498047" xlink:href="#MicrosoftYaHei-65e5"/>
      </g>
     </g>
    </g>
    <g id="xtick_4">
     <g id="line2d_7">
      <path clip-path="url(#p193671357f)" d="M 513.818182 320.4 
L 513.818182 43.2 
" style="fill:none;stroke:#b0b0b0;stroke-linecap:square;stroke-width:0.8;"/>
     </g>
     <g id="line2d_8">
      <g>
       <use style="stroke:#000000;stroke-width:0.8;" x="513.818182" xlink:href="#m202c2dd694" y="320.4"/>
      </g>
     </g>
     <g id="text_4">
      <!-- 2019年2月1日 -->
      <g transform="translate(481.225994 335.39375)scale(0.1 -0.1)">
       <use xlink:href="#MicrosoftYaHei-32"/>
       <use x="58.642578" xlink:href="#MicrosoftYaHei-30"/>
       <use x="117.285156" xlink:href="#MicrosoftYaHei-31"/>
       <use x="175.927734" xlink:href="#MicrosoftYaHei-39"/>
       <use x="234.570312" xlink:href="#MicrosoftYaHei-5e74"/>
       <use x="334.570312" xlink:href="#MicrosoftYaHei-32"/>
       <use x="393.212891" xlink:href="#MicrosoftYaHei-6708"/>
       <use x="493.212891" xlink:href="#MicrosoftYaHei-31"/>
       <use x="551.855469" xlink:href="#MicrosoftYaHei-65e5"/>
      </g>
     </g>
    </g>
    <g id="xtick_5">
     <g id="line2d_9">
      <path clip-path="url(#p193671357f)" d="M 649.090909 320.4 
L 649.090909 43.2 
" style="fill:none;stroke:#b0b0b0;stroke-linecap:square;stroke-width:0.8;"/>
     </g>
     <g id="line2d_10">
      <g>
       <use style="stroke:#000000;stroke-width:0.8;" x="649.090909" xlink:href="#m202c2dd694" y="320.4"/>
      </g>
     </g>
     <g id="text_5">
      <!-- 2019年3月15日 -->
      <defs>
       <path d="M 8.640625 11.625 
Q 16.265625 6.640625 24.515625 6.640625 
Q 32.328125 6.640625 37.109375 11 
Q 41.890625 15.375 41.890625 22.609375 
Q 41.890625 29.890625 37.03125 33.890625 
Q 32.171875 37.890625 22.953125 37.890625 
Q 18.5 37.890625 10.984375 37.203125 
L 10.984375 75.640625 
L 48.1875 75.640625 
L 48.1875 67.1875 
L 19.875 67.1875 
L 19.875 45.796875 
Q 24.125 46.046875 26.265625 46.046875 
Q 38.234375 46.046875 44.921875 39.984375 
Q 51.609375 33.9375 51.609375 23.296875 
Q 51.609375 12.3125 44.421875 5.515625 
Q 37.25 -1.265625 24.609375 -1.265625 
Q 14.015625 -1.265625 8.640625 1.859375 
z
" id="MicrosoftYaHei-35"/>
      </defs>
      <g transform="translate(613.56669 335.39375)scale(0.1 -0.1)">
       <use xlink:href="#MicrosoftYaHei-32"/>
       <use x="58.642578" xlink:href="#MicrosoftYaHei-30"/>
       <use x="117.285156" xlink:href="#MicrosoftYaHei-31"/>
       <use x="175.927734" xlink:href="#MicrosoftYaHei-39"/>
       <use x="234.570312" xlink:href="#MicrosoftYaHei-5e74"/>
       <use x="334.570312" xlink:href="#MicrosoftYaHei-33"/>
       <use x="393.212891" xlink:href="#MicrosoftYaHei-6708"/>
       <use x="493.212891" xlink:href="#MicrosoftYaHei-31"/>
       <use x="551.855469" xlink:href="#MicrosoftYaHei-35"/>
       <use x="610.498047" xlink:href="#MicrosoftYaHei-65e5"/>
      </g>
     </g>
    </g>
    <g id="text_6">
     <!-- 日期 -->
     <defs>
      <path d="M 58.890625 79.15625 
L 93.453125 79.15625 
L 93.453125 -0.046875 
Q 93.453125 -11.578125 82.515625 -11.578125 
Q 77.046875 -11.578125 71.78125 -11.28125 
Q 71.390625 -8.0625 70.609375 -3.765625 
Q 77.734375 -4.4375 80.859375 -4.4375 
Q 86.234375 -4.4375 86.234375 0.921875 
L 86.234375 21.4375 
L 65.328125 21.4375 
Q 64.265625 0.046875 52.34375 -14.109375 
Q 49.703125 -11.375 46.484375 -8.640625 
Q 54.390625 0.4375 56.546875 10.203125 
Q 58.890625 19.578125 58.890625 42.828125 
z
M 1.953125 17.828125 
L 11.140625 17.828125 
L 11.140625 62.9375 
L 3.125 62.9375 
L 3.125 69.578125 
L 11.140625 69.578125 
L 11.140625 81.5 
L 18.359375 81.5 
L 18.359375 69.578125 
L 38.671875 69.578125 
L 38.671875 81.890625 
L 45.90625 81.890625 
L 45.90625 69.578125 
L 53.8125 69.578125 
L 53.8125 62.9375 
L 45.90625 62.9375 
L 45.90625 17.828125 
L 53.71875 17.828125 
L 53.71875 11.1875 
L 1.953125 11.1875 
z
M 65.765625 27.875 
L 86.234375 27.875 
L 86.234375 47.015625 
L 66.109375 47.015625 
Q 66.21875 34.421875 65.765625 27.875 
z
M 86.234375 72.515625 
L 66.109375 72.515625 
L 66.109375 53.46875 
L 86.234375 53.46875 
z
M 18.359375 17.828125 
L 38.671875 17.828125 
L 38.671875 28.765625 
L 18.359375 28.765625 
z
M 18.359375 35.015625 
L 38.671875 35.015625 
L 38.671875 45.84375 
L 18.359375 45.84375 
z
M 18.359375 52.09375 
L 38.671875 52.09375 
L 38.671875 62.9375 
L 18.359375 62.9375 
z
M 18.359375 9.328125 
L 24.3125 4.640625 
Q 14.453125 -6 6.34375 -13.234375 
Q 4.296875 -10.890625 1.171875 -8.0625 
Q 10.453125 -0.140625 18.359375 9.328125 
z
M 31.15625 4.734375 
L 35.84375 9.515625 
Q 42.671875 4.4375 48.734375 -0.734375 
L 43.5625 -6.296875 
Q 38.09375 -0.828125 31.15625 4.734375 
z
" id="MicrosoftYaHei-671f"/>
     </defs>
     <g transform="translate(432.8 349.873438)scale(0.1 -0.1)">
      <use xlink:href="#MicrosoftYaHei-65e5"/>
      <use x="100" xlink:href="#MicrosoftYaHei-671f"/>
     </g>
    </g>
   </g>
   <g id="matplotlib.axis_2">
    <g id="ytick_1">
     <g id="line2d_11">
      <path clip-path="url(#p193671357f)" d="M 108 287.538693 
L 777.6 287.538693 
" style="fill:none;stroke:#b0b0b0;stroke-linecap:square;stroke-width:0.8;"/>
     </g>
     <g id="line2d_12">
      <defs>
       <path d="M 0 0 
L -3.5 0 
" id="md91b9a57e3" style="stroke:#000000;stroke-width:0.8;"/>
      </defs>
      <g>
       <use style="stroke:#000000;stroke-width:0.8;" x="108" xlink:href="#md91b9a57e3" y="287.538693"/>
      </g>
     </g>
     <g id="text_7">
      <!-- 2.0 -->
      <defs>
       <path d="M 5.8125 5.03125 
Q 5.8125 7.671875 7.609375 9.46875 
Q 9.421875 11.28125 12.109375 11.28125 
Q 14.84375 11.28125 16.640625 9.453125 
Q 18.453125 7.625 18.453125 5.03125 
Q 18.453125 2.484375 16.640625 0.65625 
Q 14.84375 -1.171875 12.0625 -1.171875 
Q 9.375 -1.171875 7.59375 0.65625 
Q 5.8125 2.484375 5.8125 5.03125 
z
" id="MicrosoftYaHei-2e"/>
      </defs>
      <g transform="translate(86.864063 291.535568)scale(0.1 -0.1)">
       <use xlink:href="#MicrosoftYaHei-32"/>
       <use x="58.642578" xlink:href="#MicrosoftYaHei-2e"/>
       <use x="82.714844" xlink:href="#MicrosoftYaHei-30"/>
      </g>
     </g>
    </g>
    <g id="ytick_2">
     <g id="line2d_13">
      <path clip-path="url(#p193671357f)" d="M 108 245.327638 
L 777.6 245.327638 
" style="fill:none;stroke:#b0b0b0;stroke-linecap:square;stroke-width:0.8;"/>
     </g>
     <g id="line2d_14">
      <g>
       <use style="stroke:#000000;stroke-width:0.8;" x="108" xlink:href="#md91b9a57e3" y="245.327638"/>
      </g>
     </g>
     <g id="text_8">
      <!-- 2.2 -->
      <g transform="translate(86.864063 249.324513)scale(0.1 -0.1)">
       <use xlink:href="#MicrosoftYaHei-32"/>
       <use x="58.642578" xlink:href="#MicrosoftYaHei-2e"/>
       <use x="82.714844" xlink:href="#MicrosoftYaHei-32"/>
      </g>
     </g>
    </g>
    <g id="ytick_3">
     <g id="line2d_15">
      <path clip-path="url(#p193671357f)" d="M 108 203.116583 
L 777.6 203.116583 
" style="fill:none;stroke:#b0b0b0;stroke-linecap:square;stroke-width:0.8;"/>
     </g>
     <g id="line2d_16">
      <g>
       <use style="stroke:#000000;stroke-width:0.8;" x="108" xlink:href="#md91b9a57e3" y="203.116583"/>
      </g>
     </g>
     <g id="text_9">
      <!-- 2.4 -->
      <defs>
       <path d="M 55.078125 19.625 
L 45.40625 19.625 
L 45.40625 0 
L 36.140625 0 
L 36.140625 19.625 
L 0.875 19.625 
L 0.875 25.828125 
L 34.328125 75.640625 
L 45.40625 75.640625 
L 45.40625 27.203125 
L 55.078125 27.203125 
z
M 36.140625 27.203125 
L 36.140625 58.890625 
Q 36.140625 62.25 36.328125 66.65625 
L 36.140625 66.65625 
Q 35.453125 64.796875 33.25 60.84375 
L 10.75 27.203125 
z
" id="MicrosoftYaHei-34"/>
      </defs>
      <g transform="translate(86.864063 207.113458)scale(0.1 -0.1)">
       <use xlink:href="#MicrosoftYaHei-32"/>
       <use x="58.642578" xlink:href="#MicrosoftYaHei-2e"/>
       <use x="82.714844" xlink:href="#MicrosoftYaHei-34"/>
      </g>
     </g>
    </g>
    <g id="ytick_4">
     <g id="line2d_17">
      <path clip-path="url(#p193671357f)" d="M 108 160.905528 
L 777.6 160.905528 
" style="fill:none;stroke:#b0b0b0;stroke-linecap:square;stroke-width:0.8;"/>
     </g>
     <g id="line2d_18">
      <g>
       <use style="stroke:#000000;stroke-width:0.8;" x="108" xlink:href="#md91b9a57e3" y="160.905528"/>
      </g>
     </g>
     <g id="text_10">
      <!-- 2.6 -->
      <defs>
       <path d="M 49.703125 65.921875 
Q 43.796875 68.953125 37.359375 68.953125 
Q 27.546875 68.953125 21.578125 60.40625 
Q 15.625 51.859375 15.53125 37.0625 
L 15.765625 37.0625 
Q 21.140625 47.46875 32.90625 47.46875 
Q 42.71875 47.46875 48.578125 41.0625 
Q 54.4375 34.671875 54.4375 24.078125 
Q 54.4375 12.984375 47.671875 5.859375 
Q 40.921875 -1.265625 30.421875 -1.265625 
Q 18.890625 -1.265625 12.328125 7.734375 
Q 5.765625 16.75 5.765625 33.296875 
Q 5.765625 53.328125 14.375 65.109375 
Q 23 76.90625 37.0625 76.90625 
Q 45.125 76.90625 49.703125 74.703125 
z
M 16.109375 24.75 
Q 16.109375 17.28125 20.09375 11.953125 
Q 24.078125 6.640625 30.671875 6.640625 
Q 36.921875 6.640625 40.828125 11.234375 
Q 44.734375 15.828125 44.734375 23.046875 
Q 44.734375 30.859375 41.046875 35.203125 
Q 37.359375 39.546875 30.5625 39.546875 
Q 24.125 39.546875 20.109375 35.15625 
Q 16.109375 30.765625 16.109375 24.75 
z
" id="MicrosoftYaHei-36"/>
      </defs>
      <g transform="translate(86.864063 164.902403)scale(0.1 -0.1)">
       <use xlink:href="#MicrosoftYaHei-32"/>
       <use x="58.642578" xlink:href="#MicrosoftYaHei-2e"/>
       <use x="82.714844" xlink:href="#MicrosoftYaHei-36"/>
      </g>
     </g>
    </g>
    <g id="ytick_5">
     <g id="line2d_19">
      <path clip-path="url(#p193671357f)" d="M 108 118.694472 
L 777.6 118.694472 
" style="fill:none;stroke:#b0b0b0;stroke-linecap:square;stroke-width:0.8;"/>
     </g>
     <g id="line2d_20">
      <g>
       <use style="stroke:#000000;stroke-width:0.8;" x="108" xlink:href="#md91b9a57e3" y="118.694472"/>
      </g>
     </g>
     <g id="text_11">
      <!-- 2.8 -->
      <g transform="translate(86.864063 122.691347)scale(0.1 -0.1)">
       <use xlink:href="#MicrosoftYaHei-32"/>
       <use x="58.642578" xlink:href="#MicrosoftYaHei-2e"/>
       <use x="82.714844" xlink:href="#MicrosoftYaHei-38"/>
      </g>
     </g>
    </g>
    <g id="ytick_6">
     <g id="line2d_21">
      <path clip-path="url(#p193671357f)" d="M 108 76.483417 
L 777.6 76.483417 
" style="fill:none;stroke:#b0b0b0;stroke-linecap:square;stroke-width:0.8;"/>
     </g>
     <g id="line2d_22">
      <g>
       <use style="stroke:#000000;stroke-width:0.8;" x="108" xlink:href="#md91b9a57e3" y="76.483417"/>
      </g>
     </g>
     <g id="text_12">
      <!-- 3.0 -->
      <g transform="translate(86.864063 80.480292)scale(0.1 -0.1)">
       <use xlink:href="#MicrosoftYaHei-33"/>
       <use x="58.642578" xlink:href="#MicrosoftYaHei-2e"/>
       <use x="82.714844" xlink:href="#MicrosoftYaHei-30"/>
      </g>
     </g>
    </g>
   </g>
   <g id="line2d_23">
    <path clip-path="url(#p193671357f)" d="M 108 304.001005 
L 114.763636 307.8 
L 121.527273 296.61407 
L 128.290909 295.136683 
L 135.054545 287.538693 
L 141.818182 287.538693 
L 148.581818 285.428141 
L 155.345455 284.794975 
L 162.109091 286.483417 
L 168.872727 285.428141 
L 175.636364 276.774874 
L 182.4 282.051256 
L 189.163636 279.940704 
L 195.927273 279.940704 
L 202.690909 276.352764 
L 209.454545 275.297487 
L 216.218182 262.845226 
L 222.981818 264.955779 
L 229.745455 263.900503 
L 236.509091 263.478392 
L 243.272727 301.046231 
L 250.036364 300.413065 
L 256.8 287.538693 
L 263.563636 292.815075 
L 270.327273 294.081407 
L 277.090909 293.448241 
L 283.854545 204.382915 
L 290.618182 199.950754 
L 297.381818 198.895477 
L 304.145455 200.58392 
L 310.909091 201.639196 
L 317.672727 203.749749 
L 324.436364 205.860302 
L 331.2 204.805025 
L 337.963636 195.729648 
L 344.727273 203.749749 
L 351.490909 206.915578 
L 358.254545 210.714573 
L 365.018182 220.423116 
L 371.781818 206.493467 
L 378.545455 206.915578 
L 385.309091 205.227136 
L 392.072727 206.915578 
L 398.836364 204.382915 
L 405.6 205.860302 
L 412.363636 203.749749 
L 419.127273 213.458291 
L 425.890909 200.58392 
L 432.654545 199.950754 
L 439.418182 201.00603 
L 446.181818 203.116583 
L 452.945455 204.805025 
L 459.709091 197.840201 
L 466.472727 196.151759 
L 473.236364 199.528643 
L 480 199.528643 
L 486.763636 198.473367 
L 493.527273 197.840201 
L 500.290909 196.784925 
L 507.054545 202.061307 
L 513.818182 201.00603 
L 520.581818 202.694472 
L 527.345455 206.493467 
L 534.109091 197.840201 
L 540.872727 196.151759 
L 547.636364 196.784925 
L 554.4 197.207035 
L 561.163636 198.473367 
L 567.927273 199.950754 
L 574.690909 201.00603 
L 581.454545 202.694472 
L 588.218182 205.860302 
L 594.981818 204.382915 
L 601.745455 205.860302 
L 608.509091 197.207035 
L 615.272727 194.463317 
L 622.036364 193.619095 
L 628.8 195.940704 
L 635.563636 196.99598 
L 642.327273 193.196985 
L 649.090909 189.39799 
L 655.854545 191.297487 
L 662.618182 192.141709 
L 669.381818 191.508543 
L 676.145455 192.141709 
L 682.909091 190.031156 
L 689.672727 190.031156 
L 696.436364 185.598995 
L 703.2 187.498492 
L 709.963636 191.086432 
L 716.727273 190.031156 
L 723.490909 193.196985 
L 730.254545 201.428141 
L 737.018182 196.362814 
L 743.781818 192.98593 
L 750.545455 195.307538 
L 757.309091 196.362814 
L 764.072727 197.629146 
L 770.836364 198.051256 
L 777.6 192.563819 
" style="fill:none;stroke:#1f77b4;stroke-linecap:square;stroke-width:1.5;"/>
   </g>
   <g id="line2d_24">
    <path clip-path="url(#p193671357f)" d="M 108 275.719598 
L 114.763636 276.774874 
L 121.527273 259.679397 
L 128.290909 255.247236 
L 135.054545 255.669347 
L 141.818182 257.357789 
L 148.581818 255.247236 
L 155.345455 255.247236 
L 162.109091 254.19196 
L 168.872727 250.815075 
L 175.636364 252.503518 
L 182.4 251.870352 
L 189.163636 251.026131 
L 195.927273 251.026131 
L 202.690909 251.026131 
L 209.454545 242.161809 
L 216.218182 242.794975 
L 222.981818 247.01608 
L 229.745455 245.538693 
L 236.509091 244.483417 
L 243.272727 266.011055 
L 250.036364 262.845226 
L 256.8 259.046231 
L 263.563636 260.101508 
L 270.327273 258.624121 
L 277.090909 257.990955 
L 283.854545 196.151759 
L 290.618182 198.051256 
L 297.381818 198.473367 
L 304.145455 199.528643 
L 310.909091 192.352764 
L 317.672727 198.895477 
L 324.436364 201.00603 
L 331.2 202.272362 
L 337.963636 189.186935 
L 344.727273 201.850251 
L 351.490909 202.905528 
L 358.254545 201.00603 
L 365.018182 209.659296 
L 371.781818 206.704523 
L 378.545455 206.704523 
L 385.309091 205.649246 
L 392.072727 198.262312 
L 398.836364 199.528643 
L 405.6 199.528643 
L 412.363636 203.749749 
L 419.127273 200.58392 
L 425.890909 200.161809 
L 432.654545 198.051256 
L 439.418182 201.217085 
L 446.181818 190.875377 
L 452.945455 194.041206 
L 459.709091 198.473367 
L 466.472727 196.362814 
L 473.236364 195.729648 
L 480 196.784925 
L 486.763636 196.784925 
L 493.527273 197.41809 
L 500.290909 196.99598 
L 507.054545 196.99598 
L 513.818182 203.960804 
L 520.581818 193.40804 
L 527.345455 192.98593 
L 534.109091 192.563819 
L 540.872727 192.563819 
L 547.636364 192.563819 
L 554.4 190.875377 
L 561.163636 192.352764 
L 567.927273 194.674372 
L 574.690909 203.960804 
L 581.454545 205.01608 
L 588.218182 199.528643 
L 594.981818 199.528643 
L 601.745455 200.58392 
L 608.509091 198.473367 
L 615.272727 191.930653 
L 622.036364 193.830151 
L 628.8 190.453266 
L 635.563636 192.141709 
L 642.327273 192.141709 
L 649.090909 192.141709 
L 655.854545 194.252261 
L 662.618182 193.40804 
L 669.381818 188.342714 
L 676.145455 195.729648 
L 682.909091 187.709548 
L 689.672727 187.709548 
L 696.436364 190.031156 
L 703.2 191.930653 
L 709.963636 191.719598 
L 716.727273 188.342714 
L 723.490909 194.252261 
L 730.254545 195.307538 
L 737.018182 203.960804 
L 743.781818 194.674372 
L 750.545455 196.362814 
L 757.309091 189.39799 
L 764.072727 189.39799 
L 770.836364 190.453266 
L 777.6 191.719598 
" style="fill:none;stroke:#ff7f0e;stroke-linecap:square;stroke-width:1.5;"/>
   </g>
   <g id="line2d_25">
    <path clip-path="url(#p193671357f)" d="M 108 197.629146 
L 114.763636 198.684422 
L 121.527273 179.478392 
L 128.290909 177.367839 
L 135.054545 172.091457 
L 141.818182 171.036181 
L 148.581818 168.925628 
L 155.345455 168.925628 
L 162.109091 168.292462 
L 168.872727 166.815075 
L 175.636364 166.18191 
L 182.4 166.18191 
L 189.163636 166.392965 
L 195.927273 167.448241 
L 202.690909 165.759799 
L 209.454545 164.704523 
L 216.218182 165.337688 
L 222.981818 165.759799 
L 229.745455 167.026131 
L 236.509091 167.026131 
L 243.272727 191.930653 
L 250.036364 186.443216 
L 256.8 187.076382 
L 263.563636 187.076382 
L 270.327273 179.478392 
L 277.090909 179.900503 
L 283.854545 162.382915 
L 290.618182 165.759799 
L 297.381818 165.126633 
L 304.145455 166.392965 
L 310.909091 168.081407 
L 317.672727 168.081407 
L 324.436364 166.392965 
L 331.2 162.171859 
L 337.963636 155.41809 
L 344.727273 161.538693 
L 351.490909 163.860302 
L 358.254545 162.805025 
L 365.018182 165.548744 
L 371.781818 161.749749 
L 378.545455 161.749749 
L 385.309091 161.116583 
L 392.072727 162.805025 
L 398.836364 159.850251 
L 405.6 164.282412 
L 412.363636 171.036181 
L 419.127273 180.533668 
L 425.890909 168.292462 
L 432.654545 166.60402 
L 439.418182 166.18191 
L 446.181818 160.061307 
L 452.945455 162.382915 
L 459.709091 174.624121 
L 466.472727 172.513568 
L 473.236364 172.513568 
L 480 171.458291 
L 486.763636 175.257286 
L 493.527273 172.724623 
L 500.290909 172.513568 
L 507.054545 172.724623 
L 513.818182 167.870352 
L 520.581818 173.779899 
L 527.345455 171.669347 
L 534.109091 172.724623 
L 540.872727 172.724623 
L 547.636364 170.61407 
L 554.4 173.990955 
L 561.163636 172.091457 
L 567.927273 173.146734 
L 574.690909 168.292462 
L 581.454545 167.870352 
L 588.218182 168.925628 
L 594.981818 169.980905 
L 601.745455 174.624121 
L 608.509091 174.624121 
L 615.272727 176.945729 
L 622.036364 175.257286 
L 628.8 176.945729 
L 635.563636 178.001005 
L 642.327273 178.001005 
L 649.090909 178.21206 
L 655.854545 178.634171 
L 662.618182 178.634171 
L 669.381818 181.588945 
L 676.145455 170.61407 
L 682.909091 188.131658 
L 689.672727 186.021106 
L 696.436364 191.086432 
L 703.2 193.196985 
L 709.963636 197.207035 
L 716.727273 197.207035 
L 723.490909 203.960804 
L 730.254545 203.960804 
L 737.018182 202.483417 
L 743.781818 171.036181 
L 750.545455 173.357789 
L 757.309091 172.302513 
L 764.072727 173.990955 
L 770.836364 176.312563 
L 777.6 176.945729 
" style="fill:none;stroke:#2ca02c;stroke-linecap:square;stroke-width:1.5;"/>
   </g>
   <g id="line2d_26">
    <path clip-path="url(#p193671357f)" d="M 108 111.307538 
L 114.763636 116.794975 
L 121.527273 113.41809 
L 128.290909 103.920603 
L 135.054545 105.609045 
L 141.818182 102.654271 
L 148.581818 96.533668 
L 155.345455 96.533668 
L 162.109091 99.066332 
L 168.872727 87.880402 
L 175.636364 87.036181 
L 182.4 85.980905 
L 189.163636 86.61407 
L 195.927273 86.61407 
L 202.690909 83.026131 
L 209.454545 80.071357 
L 216.218182 88.302513 
L 222.981818 85.347739 
L 229.745455 85.980905 
L 236.509091 84.292462 
L 243.272727 131.357789 
L 250.036364 124.18191 
L 256.8 125.026131 
L 263.563636 129.880402 
L 270.327273 114.684422 
L 277.090909 114.262312 
L 283.854545 167.448241 
L 290.618182 176.312563 
L 297.381818 176.312563 
L 304.145455 176.312563 
L 310.909091 174.835176 
L 317.672727 173.146734 
L 324.436364 165.970854 
L 331.2 155.629146 
L 337.963636 179.900503 
L 344.727273 159.217085 
L 351.490909 165.337688 
L 358.254545 164.282412 
L 365.018182 171.458291 
L 371.781818 161.327638 
L 378.545455 161.749749 
L 385.309091 164.704523 
L 392.072727 172.513568 
L 398.836364 188.764824 
L 405.6 185.176884 
L 412.363636 194.674372 
L 419.127273 212.61407 
L 425.890909 181.8 
L 432.654545 181.588945 
L 439.418182 173.990955 
L 446.181818 164.915578 
L 452.945455 171.669347 
L 459.709091 193.830151 
L 466.472727 188.342714 
L 473.236364 183.488442 
L 480 175.890452 
L 486.763636 187.709548 
L 493.527273 183.488442 
L 500.290909 182.011055 
L 507.054545 190.664322 
L 513.818182 181.377889 
L 520.581818 188.131658 
L 527.345455 179.267337 
L 534.109091 188.131658 
L 540.872727 185.176884 
L 547.636364 186.021106 
L 554.4 193.196985 
L 561.163636 185.81005 
L 567.927273 178.634171 
L 574.690909 178.845226 
L 581.454545 174.20201 
L 588.218182 178.423116 
L 594.981818 180.322613 
L 601.745455 189.39799 
L 608.509091 193.619095 
L 615.272727 196.784925 
L 622.036364 193.830151 
L 628.8 202.061307 
L 635.563636 196.362814 
L 642.327273 196.784925 
L 649.090909 203.749749 
L 655.854545 203.116583 
L 662.618182 199.950754 
L 669.381818 196.99598 
L 676.145455 169.136683 
L 682.909091 218.734673 
L 689.672727 215.568844 
L 696.436364 236.885427 
L 703.2 234.774874 
L 709.963636 248.071357 
L 716.727273 243.639196 
L 723.490909 251.659296 
L 730.254545 243.428141 
L 737.018182 237.729648 
L 743.781818 167.237186 
L 750.545455 175.890452 
L 757.309091 175.890452 
L 764.072727 182.222111 
L 770.836364 194.252261 
L 777.6 196.362814 
" style="fill:none;stroke:#d62728;stroke-linecap:square;stroke-width:1.5;"/>
   </g>
   <g id="line2d_27">
    <path clip-path="url(#p193671357f)" d="M 108 84.081407 
L 114.763636 91.468342 
L 121.527273 90.20201 
L 128.290909 80.493467 
L 135.054545 83.870352 
L 141.818182 81.970854 
L 148.581818 76.694472 
L 155.345455 76.483417 
L 162.109091 77.749749 
L 168.872727 64.453266 
L 175.636364 62.553769 
L 182.4 62.975879 
L 189.163636 62.342714 
L 195.927273 62.553769 
L 202.690909 57.699497 
L 209.454545 55.8 
L 216.218182 66.352764 
L 222.981818 64.875377 
L 229.745455 62.764824 
L 236.509091 61.920603 
L 243.272727 105.609045 
L 250.036364 98.011055 
L 256.8 96.744724 
L 263.563636 102.232161 
L 270.327273 89.357789 
L 277.090909 88.724623 
L 283.854545 130.091457 
L 290.618182 140.011055 
L 297.381818 140.011055 
L 304.145455 138.533668 
L 310.909091 136.001005 
L 317.672727 134.101508 
L 324.436364 129.247236 
L 331.2 121.227136 
L 337.963636 142.754774 
L 344.727273 124.392965 
L 351.490909 131.146734 
L 358.254545 129.247236 
L 365.018182 136.423116 
L 371.781818 127.347739 
L 378.545455 128.19196 
L 385.309091 129.669347 
L 392.072727 137.689447 
L 398.836364 153.940704 
L 405.6 144.443216 
L 412.363636 153.940704 
L 419.127273 171.036181 
L 425.890909 146.553769 
L 432.654545 146.553769 
L 439.418182 140.222111 
L 446.181818 133.468342 
L 452.945455 137.267337 
L 459.709091 153.729648 
L 466.472727 149.508543 
L 473.236364 142.754774 
L 480 137.900503 
L 486.763636 149.297487 
L 493.527273 147.39799 
L 500.290909 145.498492 
L 507.054545 153.307538 
L 513.818182 143.176884 
L 520.581818 150.774874 
L 527.345455 140.855276 
L 534.109091 149.508543 
L 540.872727 146.975879 
L 547.636364 146.553769 
L 554.4 152.885427 
L 561.163636 142.754774 
L 567.927273 136.21206 
L 574.690909 141.699497 
L 581.454545 134.523618 
L 588.218182 138.955779 
L 594.981818 139.8 
L 601.745455 148.875377 
L 608.509091 153.729648 
L 615.272727 154.573869 
L 622.036364 152.252261 
L 628.8 160.905528 
L 635.563636 155.629146 
L 642.327273 154.573869 
L 649.090909 162.805025 
L 655.854545 162.171859 
L 662.618182 159.850251 
L 669.381818 157.106533 
L 676.145455 127.347739 
L 682.909091 176.734673 
L 689.672727 173.779899 
L 696.436364 195.307538 
L 703.2 192.352764 
L 709.963636 202.061307 
L 716.727273 197.840201 
L 723.490909 207.126633 
L 730.254545 205.01608 
L 737.018182 201.639196 
L 743.781818 125.870352 
L 750.545455 134.734673 
L 757.309091 135.78995 
L 764.072727 141.277387 
L 770.836364 152.252261 
L 777.6 154.573869 
" style="fill:none;stroke:#9467bd;stroke-linecap:square;stroke-width:1.5;"/>
   </g>
   <g id="patch_3">
    <path d="M 108 320.4 
L 108 43.2 
" style="fill:none;stroke:#000000;stroke-linecap:square;stroke-linejoin:miter;stroke-width:0.8;"/>
   </g>
   <g id="patch_4">
    <path d="M 777.6 320.4 
L 777.6 43.2 
" style="fill:none;stroke:#000000;stroke-linecap:square;stroke-linejoin:miter;stroke-width:0.8;"/>
   </g>
   <g id="patch_5">
    <path d="M 108 320.4 
L 777.6 320.4 
" style="fill:none;stroke:#000000;stroke-linecap:square;stroke-linejoin:miter;stroke-width:0.8;"/>
   </g>
   <g id="patch_6">
    <path d="M 108 43.2 
L 777.6 43.2 
" style="fill:none;stroke:#000000;stroke-linecap:square;stroke-linejoin:miter;stroke-width:0.8;"/>
   </g>
   <g id="text_13">
    <!-- 美国国债收益率 -->
    <defs>
     <path d="M 2.34375 37.546875 
L 46.1875 37.546875 
L 46.1875 46.734375 
L 10.359375 46.734375 
L 10.359375 53.375 
L 46.1875 53.375 
L 46.1875 62.359375 
L 4.5 62.359375 
L 4.5 69 
L 35.296875 69 
Q 30.28125 73.34375 22.265625 79.4375 
L 26.765625 84.328125 
Q 35.25 78.5625 40.921875 74.265625 
L 35.75 69 
L 61.71875 69 
L 58.109375 73.09375 
Q 65.828125 78.46875 72.078125 83.9375 
L 77.828125 78.46875 
Q 71.578125 73.78125 64.3125 69 
L 96.09375 69 
L 96.09375 62.359375 
L 54.203125 62.359375 
L 54.203125 53.375 
L 90.828125 53.375 
L 90.828125 46.734375 
L 54.203125 46.734375 
L 54.203125 37.546875 
L 97.859375 37.546875 
L 97.859375 30.90625 
L 2.34375 30.90625 
z
M 98.640625 -4.734375 
Q 94.921875 -9.71875 92.96875 -12.84375 
Q 60.890625 -6.546875 50.25 12.546875 
Q 40.71875 -7.625 6.34375 -13.625 
Q 4.390625 -10.296875 1.5625 -6.203125 
Q 34.375 -1.65625 42.828125 14.3125 
L 3.71875 14.3125 
L 3.71875 20.953125 
L 45.515625 20.953125 
Q 46.484375 24.359375 47.078125 28.765625 
L 55.078125 28.765625 
Q 54.296875 24.46875 53.328125 20.953125 
L 96.875 20.953125 
L 96.875 14.3125 
L 56.734375 14.3125 
Q 68.171875 -2.15625 98.640625 -4.734375 
z
" id="MicrosoftYaHei-7f8e"/>
     <path d="M 7.328125 78.078125 
L 92.78125 78.078125 
L 92.78125 -13.03125 
L 85.25 -13.03125 
L 85.25 -8.15625 
L 14.84375 -8.15625 
L 14.84375 -13.140625 
L 7.328125 -13.140625 
z
M 85.25 71.140625 
L 14.84375 71.140625 
L 14.84375 -1.21875 
L 85.25 -1.21875 
z
M 19.34375 15.765625 
L 46.296875 15.765625 
L 46.296875 35.109375 
L 22.75 35.109375 
L 22.75 41.75 
L 46.296875 41.75 
L 46.296875 54.828125 
L 20.90625 54.828125 
L 20.90625 61.46875 
L 79.109375 61.46875 
L 79.109375 54.828125 
L 53.515625 54.828125 
L 53.515625 41.75 
L 77.15625 41.75 
L 77.15625 35.109375 
L 53.515625 35.109375 
L 53.515625 15.765625 
L 80.671875 15.765625 
L 80.671875 9.125 
L 19.34375 9.125 
z
M 58.59375 28.859375 
L 64.0625 32.953125 
Q 69.4375 27.390625 73.25 22.515625 
L 67.484375 18.109375 
Q 62.796875 24.46875 58.59375 28.859375 
z
" id="MicrosoftYaHei-56fd"/>
     <path d="M 26.859375 47.40625 
L 58.984375 47.40625 
L 58.984375 54.34375 
L 34.1875 54.34375 
L 34.1875 60.5 
L 58.984375 60.5 
L 58.984375 67.328125 
L 31.0625 67.328125 
L 31.0625 73.484375 
L 58.984375 73.484375 
L 58.984375 82.171875 
L 66.3125 82.171875 
L 66.3125 73.484375 
L 95.125 73.484375 
L 95.125 67.328125 
L 66.3125 67.328125 
L 66.3125 60.5 
L 90.328125 60.5 
L 90.328125 54.34375 
L 66.3125 54.34375 
L 66.3125 47.40625 
L 97.953125 47.40625 
L 97.953125 41.265625 
L 26.859375 41.265625 
z
M 1.265625 35.203125 
Q 12.890625 54.25 19.34375 82.375 
L 26.46875 81.109375 
Q 23.640625 70.65625 20.40625 61.375 
L 20.40625 -13.71875 
L 13.28125 -13.71875 
L 13.28125 44.09375 
Q 8.890625 35.015625 3.90625 27.390625 
Q 2.734375 31.390625 1.265625 35.203125 
z
M 34.859375 34.625 
L 89.15625 34.625 
L 89.15625 4.4375 
L 82.03125 4.4375 
L 82.03125 28.265625 
L 42 28.265625 
L 42 3.953125 
L 34.859375 3.953125 
z
M 58.5 25.140625 
L 65.625 25.140625 
Q 65.625 17.046875 64.0625 10.984375 
Q 80.5625 2.78125 97.265625 -7.765625 
L 92.875 -14.015625 
Q 77.546875 -3.953125 61.921875 4.9375 
Q 60.546875 2.09375 58.6875 0.046875 
Q 50.875 -8.9375 31.453125 -13.921875 
Q 28.515625 -8.453125 27.25 -6.890625 
Q 45.90625 -2.875 52.25 3.859375 
Q 58.5 9.8125 58.5 25.140625 
z
" id="MicrosoftYaHei-503a"/>
     <path d="M 35.0625 41.546875 
Q 47.5625 63.234375 53.125 83.453125 
L 61.03125 81.203125 
Q 57.90625 72.171875 54.5 63.921875 
L 97.078125 63.921875 
L 97.078125 56.6875 
L 85.59375 56.6875 
Q 84.125 28.421875 71.09375 10.640625 
Q 81 1.859375 99.21875 -4.640625 
Q 96.1875 -8.453125 93.65625 -12.453125 
Q 76.265625 -5.03125 65.921875 4.6875 
Q 56.5 -4.59375 39.84375 -13.328125 
Q 37.796875 -10.109375 34.859375 -6.78125 
Q 51.515625 1.5625 60.59375 10.5 
Q 49.3125 24.609375 46 45.5625 
Q 43.265625 40.234375 40.328125 35.296875 
Q 38.484375 38.140625 35.0625 41.546875 
z
M 26.265625 82.671875 
L 33.6875 82.671875 
L 33.6875 -12.75 
L 26.265625 -12.75 
L 26.265625 17.390625 
Q 20.3125 14.0625 14.15625 10.015625 
Q 11.625 8.15625 9.1875 5.609375 
L 3.609375 12.15625 
Q 6.640625 15.375 6.640625 20.5625 
L 6.640625 69 
L 14.0625 69 
L 14.0625 19 
Q 19.875 22.078125 26.265625 25.53125 
z
M 77.875 56.6875 
L 51.90625 56.6875 
Q 53.328125 32.859375 65.671875 16.546875 
Q 76.8125 32.234375 77.875 56.6875 
z
" id="MicrosoftYaHei-6536"/>
     <path d="M 1.765625 -1.609375 
L 15.921875 -1.609375 
L 15.921875 31.203125 
L 84.46875 31.203125 
L 84.46875 -1.609375 
L 97.953125 -1.609375 
L 97.953125 -8.453125 
L 1.765625 -8.453125 
z
M 4.109375 64.3125 
L 57.375 64.3125 
Q 66.015625 72.65625 74.125 83.34375 
L 81.25 78.859375 
Q 74.609375 71.140625 67.671875 64.3125 
L 96.484375 64.3125 
L 96.484375 57.46875 
L 4.109375 57.46875 
z
M 77.4375 24.5625 
L 63.765625 24.5625 
L 63.765625 -1.609375 
L 77.4375 -1.609375 
z
M 22.953125 -1.609375 
L 36.53125 -1.609375 
L 36.53125 24.5625 
L 22.953125 24.5625 
z
M 43.359375 -1.609375 
L 56.9375 -1.609375 
L 56.9375 24.5625 
L 43.359375 24.5625 
z
M 36.53125 54.4375 
L 41.3125 48.09375 
Q 26.078125 38.8125 7.125 29.25 
Q 5.171875 33.0625 3.125 36.078125 
Q 21.390625 44.875 36.53125 54.4375 
z
M 59.28125 48.296875 
L 63.28125 54.25 
Q 82.8125 45.0625 97.078125 37.25 
L 92.78125 30.03125 
Q 73.53125 41.15625 59.28125 48.296875 
z
M 19.34375 78.375 
L 24.421875 83.453125 
Q 32.8125 77.390625 39.546875 71.625 
L 33.984375 65.765625 
Q 27.640625 71.828125 19.34375 78.375 
z
" id="MicrosoftYaHei-76ca"/>
     <path d="M 39.453125 31.390625 
Q 40.96875 31.5 61.375 32.515625 
Q 58.9375 35.9375 56.640625 38.921875 
L 61.921875 42.234375 
Q 68.953125 34.421875 74.90625 25.828125 
L 68.65625 21.921875 
Q 66.9375 24.515625 65.28125 26.953125 
Q 46.734375 25.921875 34.578125 24.953125 
Q 32.421875 24.75 29.390625 24.078125 
L 26.953125 30.71875 
Q 29.890625 31.6875 31.34375 32.5625 
Q 39.59375 38.140625 47.65625 45.515625 
Q 40.578125 45.21875 35.546875 44.78125 
Q 33.5 44.484375 31.0625 43.890625 
L 28.125 49.859375 
Q 30.5625 50.734375 32.625 52.59375 
Q 39.203125 58.15625 44.921875 66.0625 
L 3.609375 66.0625 
L 3.609375 72.90625 
L 47.359375 72.90625 
Q 44.96875 77.25 42.875 80.515625 
L 49.90625 83.9375 
Q 53.71875 78.125 56.5 72.90625 
L 96.484375 72.90625 
L 96.484375 66.0625 
L 47.703125 66.0625 
L 52.34375 63.625 
Q 44.4375 55.515625 38.96875 50.734375 
Q 44.53125 50.875 53.515625 51.078125 
Q 57.421875 54.984375 61.328125 59.328125 
L 68.0625 55.421875 
Q 52.546875 40.671875 39.453125 31.390625 
z
M 2.25 15.484375 
L 46.78125 15.484375 
L 46.78125 24.078125 
L 54.5 24.078125 
L 54.5 15.484375 
L 98.046875 15.484375 
L 98.046875 8.640625 
L 54.5 8.640625 
L 54.5 -13.328125 
L 46.78125 -13.328125 
L 46.78125 8.640625 
L 2.25 8.640625 
z
M 26.859375 41.75 
L 30.375 35.984375 
Q 18.75 29.15625 6.640625 22.015625 
L 2.546875 28.5625 
Q 12.703125 33.34375 26.859375 41.75 
z
M 75.875 41.84375 
Q 89.84375 33.9375 97.65625 28.375 
L 93.359375 22.015625 
Q 83.296875 29.828125 71.875 36.578125 
z
M 93.65625 56.109375 
Q 86.234375 49.65625 77.546875 43.890625 
L 72.5625 49.078125 
Q 81.9375 55.21875 88.09375 61.375 
z
M 5.671875 56.78125 
L 10.640625 61.578125 
Q 18.75 55.125 24.8125 49.359375 
L 19.34375 44 
Q 13.671875 49.953125 5.671875 56.78125 
z
" id="MicrosoftYaHei-7387"/>
    </defs>
    <g transform="translate(400.8 37.2)scale(0.12 -0.12)">
     <use xlink:href="#MicrosoftYaHei-7f8e"/>
     <use x="100" xlink:href="#MicrosoftYaHei-56fd"/>
     <use x="200" xlink:href="#MicrosoftYaHei-56fd"/>
     <use x="300" xlink:href="#MicrosoftYaHei-503a"/>
     <use x="400" xlink:href="#MicrosoftYaHei-6536"/>
     <use x="500" xlink:href="#MicrosoftYaHei-76ca"/>
     <use x="600" xlink:href="#MicrosoftYaHei-7387"/>
    </g>
   </g>
   <g id="legend_1">
    <g id="patch_7">
     <path d="M 410.778906 315.4 
L 474.821094 315.4 
Q 476.821094 315.4 476.821094 313.4 
L 476.821094 236.828125 
Q 476.821094 234.828125 474.821094 234.828125 
L 410.778906 234.828125 
Q 408.778906 234.828125 408.778906 236.828125 
L 408.778906 313.4 
Q 408.778906 315.4 410.778906 315.4 
z
" style="fill:#ffffff;opacity:0.8;stroke:#cccccc;stroke-linejoin:miter;"/>
    </g>
    <g id="line2d_28">
     <path d="M 412.778906 243.321875 
L 432.778906 243.321875 
" style="fill:none;stroke:#1f77b4;stroke-linecap:square;stroke-width:1.5;"/>
    </g>
    <g id="line2d_29"/>
    <g id="text_14">
     <!-- 1mon -->
     <defs>
      <path d="M 86.28125 0 
L 76.703125 0 
L 76.703125 31 
Q 76.703125 39.796875 73.96875 43.578125 
Q 71.234375 47.359375 64.984375 47.359375 
Q 59.71875 47.359375 55.953125 42.421875 
Q 52.203125 37.5 52.203125 30.765625 
L 52.203125 0 
L 42.625 0 
L 42.625 31.984375 
Q 42.625 47.359375 30.765625 47.359375 
Q 25.296875 47.359375 21.703125 42.671875 
Q 18.109375 37.984375 18.109375 30.71875 
L 18.109375 0 
L 8.546875 0 
L 8.546875 54 
L 18.109375 54 
L 18.109375 45.453125 
L 18.3125 45.453125 
Q 24.078125 55.28125 35.15625 55.28125 
Q 40.578125 55.28125 44.71875 52.296875 
Q 48.875 49.3125 50.484375 44.234375 
Q 56.5 55.28125 68.453125 55.28125 
Q 86.28125 55.28125 86.28125 33.296875 
z
" id="MicrosoftYaHei-6d"/>
      <path d="M 4.9375 26.421875 
Q 4.9375 39.796875 12.40625 47.53125 
Q 19.875 55.28125 32.671875 55.28125 
Q 44.828125 55.28125 51.734375 47.828125 
Q 58.640625 40.375 58.640625 27.25 
Q 58.640625 14.453125 51.265625 6.59375 
Q 43.890625 -1.265625 31.5 -1.265625 
Q 19.390625 -1.265625 12.15625 6.34375 
Q 4.9375 13.96875 4.9375 26.421875 
z
M 14.703125 26.703125 
Q 14.703125 17.390625 19.40625 12.015625 
Q 24.125 6.640625 32.078125 6.640625 
Q 40.28125 6.640625 44.578125 11.890625 
Q 48.875 17.140625 48.875 26.953125 
Q 48.875 36.8125 44.578125 42.078125 
Q 40.28125 47.359375 32.078125 47.359375 
Q 24.03125 47.359375 19.359375 41.84375 
Q 14.703125 36.328125 14.703125 26.703125 
z
" id="MicrosoftYaHei-6f"/>
      <path d="M 54.203125 0 
L 44.671875 0 
L 44.671875 30.71875 
Q 44.671875 47.359375 32.515625 47.359375 
Q 26.21875 47.359375 22.15625 42.671875 
Q 18.109375 37.984375 18.109375 30.8125 
L 18.109375 0 
L 8.546875 0 
L 8.546875 54 
L 18.109375 54 
L 18.109375 45.0625 
L 18.3125 45.0625 
Q 24.421875 55.28125 36.03125 55.28125 
Q 44.921875 55.28125 49.5625 49.578125 
Q 54.203125 43.890625 54.203125 33.015625 
z
" id="MicrosoftYaHei-6e"/>
     </defs>
     <g transform="translate(440.778906 246.821875)scale(0.1 -0.1)">
      <use xlink:href="#MicrosoftYaHei-31"/>
      <use x="58.642578" xlink:href="#MicrosoftYaHei-6d"/>
      <use x="152.34375" xlink:href="#MicrosoftYaHei-6f"/>
      <use x="215.917969" xlink:href="#MicrosoftYaHei-6e"/>
     </g>
    </g>
    <g id="line2d_30">
     <path d="M 412.778906 258.801562 
L 432.778906 258.801562 
" style="fill:none;stroke:#ff7f0e;stroke-linecap:square;stroke-width:1.5;"/>
    </g>
    <g id="line2d_31"/>
    <g id="text_15">
     <!-- 3mon -->
     <g transform="translate(440.778906 262.301562)scale(0.1 -0.1)">
      <use xlink:href="#MicrosoftYaHei-33"/>
      <use x="58.642578" xlink:href="#MicrosoftYaHei-6d"/>
      <use x="152.34375" xlink:href="#MicrosoftYaHei-6f"/>
      <use x="215.917969" xlink:href="#MicrosoftYaHei-6e"/>
     </g>
    </g>
    <g id="line2d_32">
     <path d="M 412.778906 274.28125 
L 432.778906 274.28125 
" style="fill:none;stroke:#2ca02c;stroke-linecap:square;stroke-width:1.5;"/>
    </g>
    <g id="line2d_33"/>
    <g id="text_16">
     <!-- 1year -->
     <defs>
      <path d="M 52.484375 54 
L 27.984375 -8.15625 
Q 21.140625 -25.4375 8.6875 -25.4375 
Q 5.125 -25.4375 2.59375 -24.65625 
L 2.59375 -16.265625 
Q 5.375 -17.328125 7.953125 -17.328125 
Q 14.453125 -17.328125 17.671875 -9.71875 
L 21.828125 0.09375 
L 0.640625 54 
L 11.234375 54 
L 25.34375 13.421875 
L 26.515625 8.984375 
L 26.765625 8.984375 
Q 27.046875 10.5 27.9375 13.328125 
L 42.671875 54 
z
" id="MicrosoftYaHei-79"/>
      <path d="M 52.546875 24.5625 
L 14.75 24.5625 
Q 14.984375 15.921875 19.46875 11.203125 
Q 23.96875 6.5 32.03125 6.5 
Q 41.109375 6.5 48.6875 12.3125 
L 48.6875 3.765625 
Q 41.546875 -1.265625 29.78125 -1.265625 
Q 18.0625 -1.265625 11.5 6.15625 
Q 4.9375 13.578125 4.9375 26.765625 
Q 4.9375 39.15625 12.140625 47.21875 
Q 19.34375 55.28125 30.03125 55.28125 
Q 40.625 55.28125 46.578125 48.46875 
Q 52.546875 41.65625 52.546875 29.390625 
z
M 42.96875 32.234375 
Q 42.921875 39.546875 39.5 43.546875 
Q 36.078125 47.5625 29.890625 47.5625 
Q 24.171875 47.5625 20 43.3125 
Q 15.828125 39.0625 14.75 32.234375 
z
" id="MicrosoftYaHei-65"/>
      <path d="M 9.8125 50.25 
Q 17.875 55.28125 28.421875 55.28125 
Q 47.953125 55.28125 47.953125 34.765625 
L 47.953125 0 
L 38.484375 0 
L 38.484375 8.34375 
L 38.234375 8.34375 
Q 32.625 -1.265625 21.6875 -1.265625 
Q 13.8125 -1.265625 9.171875 2.984375 
Q 4.546875 7.234375 4.546875 14.453125 
Q 4.546875 29.59375 22.46875 32.078125 
L 38.484375 34.328125 
Q 38.484375 47.5625 27.546875 47.5625 
Q 17.828125 47.5625 9.8125 41.015625 
z
M 25.828125 25.390625 
Q 19.1875 24.515625 16.671875 22.0625 
Q 14.15625 19.625 14.15625 15.234375 
Q 14.15625 11.375 16.890625 8.9375 
Q 19.625 6.5 24.125 6.5 
Q 30.375 6.5 34.421875 10.890625 
Q 38.484375 15.28125 38.484375 21.921875 
L 38.484375 27.09375 
z
" id="MicrosoftYaHei-61"/>
      <path d="M 37.5 44.53125 
Q 35.109375 46.234375 30.90625 46.234375 
Q 25.34375 46.234375 21.71875 41.03125 
Q 18.109375 35.84375 18.109375 27.34375 
L 18.109375 0 
L 8.546875 0 
L 8.546875 54 
L 18.109375 54 
L 18.109375 43.015625 
L 18.3125 43.015625 
Q 22.40625 54.9375 32.46875 54.9375 
Q 35.75 54.9375 37.5 54.203125 
z
" id="MicrosoftYaHei-72"/>
     </defs>
     <g transform="translate(440.778906 277.78125)scale(0.1 -0.1)">
      <use xlink:href="#MicrosoftYaHei-31"/>
      <use x="58.642578" xlink:href="#MicrosoftYaHei-79"/>
      <use x="111.572266" xlink:href="#MicrosoftYaHei-65"/>
      <use x="168.310547" xlink:href="#MicrosoftYaHei-61"/>
      <use x="223.583984" xlink:href="#MicrosoftYaHei-72"/>
     </g>
    </g>
    <g id="line2d_34">
     <path d="M 412.778906 289.81875 
L 432.778906 289.81875 
" style="fill:none;stroke:#d62728;stroke-linecap:square;stroke-width:1.5;"/>
    </g>
    <g id="line2d_35"/>
    <g id="text_17">
     <!-- 5year -->
     <g transform="translate(440.778906 293.31875)scale(0.1 -0.1)">
      <use xlink:href="#MicrosoftYaHei-35"/>
      <use x="58.642578" xlink:href="#MicrosoftYaHei-79"/>
      <use x="111.572266" xlink:href="#MicrosoftYaHei-65"/>
      <use x="168.310547" xlink:href="#MicrosoftYaHei-61"/>
      <use x="223.583984" xlink:href="#MicrosoftYaHei-72"/>
     </g>
    </g>
    <g id="line2d_36">
     <path d="M 412.778906 305.35625 
L 432.778906 305.35625 
" style="fill:none;stroke:#9467bd;stroke-linecap:square;stroke-width:1.5;"/>
    </g>
    <g id="line2d_37"/>
    <g id="text_18">
     <!-- 10year -->
     <g transform="translate(440.778906 308.85625)scale(0.1 -0.1)">
      <use xlink:href="#MicrosoftYaHei-31"/>
      <use x="58.642578" xlink:href="#MicrosoftYaHei-30"/>
      <use x="117.285156" xlink:href="#MicrosoftYaHei-79"/>
      <use x="170.214844" xlink:href="#MicrosoftYaHei-65"/>
      <use x="226.953125" xlink:href="#MicrosoftYaHei-61"/>
      <use x="282.226562" xlink:href="#MicrosoftYaHei-72"/>
     </g>
    </g>
   </g>
  </g>
 </g>
 <defs>
  <clipPath id="p193671357f">
   <rect height="277.2" width="669.6" x="108" y="43.2"/>
  </clipPath>
 </defs>
</svg>
