<?xml version="1.0" encoding="utf-8" standalone="no"?>
<!DOCTYPE svg PUBLIC "-//W3C//DTD SVG 1.1//EN"
  "http://www.w3.org/Graphics/SVG/1.1/DTD/svg11.dtd">
<!-- Created with matplotlib (http://matplotlib.org/) -->
<svg height="360pt" version="1.1" viewBox="0 0 864 360" width="864pt" xmlns="http://www.w3.org/2000/svg" xmlns:xlink="http://www.w3.org/1999/xlink">
 <defs>
  <style type="text/css">
*{stroke-linecap:butt;stroke-linejoin:round;}
  </style>
 </defs>
 <g id="figure_1">
  <g id="patch_1">
   <path d="M 0 360 
L 864 360 
L 864 0 
L 0 0 
z
" style="fill:#ffffff;"/>
  </g>
  <g id="axes_1">
   <g id="patch_2">
    <path d="M 108 320.4 
L 777.6 320.4 
L 777.6 43.2 
L 108 43.2 
z
" style="fill:#ffffff;"/>
   </g>
   <g id="matplotlib.axis_1">
    <g id="xtick_1">
     <g id="line2d_1">
      <path clip-path="url(#peb8e0a4744)" d="M 108 320.4 
L 108 43.2 
" style="fill:none;stroke:#b0b0b0;stroke-linecap:square;stroke-width:0.8;"/>
     </g>
     <g id="line2d_2">
      <defs>
       <path d="M 0 0 
L 0 3.5 
" id="m411ad0c3bc" style="stroke:#000000;stroke-width:0.8;"/>
      </defs>
      <g>
       <use style="stroke:#000000;stroke-width:0.8;" x="108" xlink:href="#m411ad0c3bc" y="320.4"/>
      </g>
     </g>
     <g id="text_1">
      <!-- 2017年5月7日 -->
      <defs>
       <path d="M 51.171875 0 
L 5.171875 0 
L 5.171875 8.296875 
L 27.15625 30.21875 
Q 36.234375 39.3125 39.3125 44.609375 
Q 42.390625 49.90625 42.390625 55.5625 
Q 42.390625 62.015625 38.765625 65.453125 
Q 35.15625 68.890625 28.328125 68.890625 
Q 18.21875 68.890625 9.03125 60.296875 
L 9.03125 70.015625 
Q 17.96875 76.90625 29.828125 76.90625 
Q 40.046875 76.90625 45.953125 71.390625 
Q 51.859375 65.875 51.859375 56.546875 
Q 51.859375 49.515625 48.0625 42.75 
Q 44.28125 35.984375 33.734375 25.53125 
L 16.5 8.6875 
L 16.5 8.5 
L 51.171875 8.5 
z
" id="MicrosoftYaHei-32"/>
       <path d="M 4.4375 36.328125 
Q 4.4375 56.34375 11.078125 66.625 
Q 17.71875 76.90625 30.328125 76.90625 
Q 54.34375 76.90625 54.34375 38.140625 
Q 54.34375 19 47.578125 8.859375 
Q 40.828125 -1.265625 28.609375 -1.265625 
Q 17.09375 -1.265625 10.765625 8.34375 
Q 4.4375 17.96875 4.4375 36.328125 
z
M 14.203125 36.765625 
Q 14.203125 6.640625 29.5 6.640625 
Q 44.53125 6.640625 44.53125 37.25 
Q 44.53125 68.953125 29.78125 68.953125 
Q 14.203125 68.953125 14.203125 36.765625 
z
" id="MicrosoftYaHei-30"/>
       <path d="M 52.59375 0 
L 9.234375 0 
L 9.234375 8.25 
L 26.171875 8.25 
L 26.171875 65.671875 
L 8.796875 60.640625 
L 8.796875 69.4375 
L 35.6875 77.25 
L 35.6875 8.25 
L 52.59375 8.25 
z
" id="MicrosoftYaHei-31"/>
       <path d="M 53.765625 72.3125 
L 24.171875 0 
L 14.265625 0 
L 42.390625 67.1875 
L 4.59375 67.1875 
L 4.59375 75.640625 
L 53.765625 75.640625 
z
" id="MicrosoftYaHei-37"/>
       <path d="M 1.859375 19.96875 
L 17.578125 19.96875 
L 17.578125 47.90625 
L 52.15625 47.90625 
L 52.15625 65.28125 
L 23.4375 65.28125 
Q 16.84375 53.421875 8.6875 43.40625 
Q 6.15625 46.140625 2.640625 48.875 
Q 16.5 64.5 23.4375 83.9375 
L 31.453125 81.6875 
Q 29.390625 76.859375 27.15625 72.3125 
L 94.34375 72.3125 
L 94.34375 65.28125 
L 60.0625 65.28125 
L 60.0625 47.90625 
L 92.671875 47.90625 
L 92.671875 41.0625 
L 60.0625 41.0625 
L 60.0625 19.96875 
L 98.734375 19.96875 
L 98.734375 12.9375 
L 60.0625 12.9375 
L 60.0625 -13.421875 
L 52.15625 -13.421875 
L 52.15625 12.9375 
L 1.859375 12.9375 
z
M 25.296875 19.96875 
L 52.15625 19.96875 
L 52.15625 41.0625 
L 25.296875 41.0625 
z
" id="MicrosoftYaHei-5e74"/>
       <path d="M 8.640625 11.625 
Q 16.265625 6.640625 24.515625 6.640625 
Q 32.328125 6.640625 37.109375 11 
Q 41.890625 15.375 41.890625 22.609375 
Q 41.890625 29.890625 37.03125 33.890625 
Q 32.171875 37.890625 22.953125 37.890625 
Q 18.5 37.890625 10.984375 37.203125 
L 10.984375 75.640625 
L 48.1875 75.640625 
L 48.1875 67.1875 
L 19.875 67.1875 
L 19.875 45.796875 
Q 24.125 46.046875 26.265625 46.046875 
Q 38.234375 46.046875 44.921875 39.984375 
Q 51.609375 33.9375 51.609375 23.296875 
Q 51.609375 12.3125 44.421875 5.515625 
Q 37.25 -1.265625 24.609375 -1.265625 
Q 14.015625 -1.265625 8.640625 1.859375 
z
" id="MicrosoftYaHei-35"/>
       <path d="M 25.046875 20.0625 
Q 22.859375 1.21875 10.359375 -14.015625 
Q 7.234375 -10.984375 3.609375 -8.15625 
Q 13.09375 2.09375 16.3125 16.265625 
Q 18.5625 26.703125 18.5625 45.171875 
L 18.5625 78.953125 
L 83.796875 78.953125 
L 83.796875 2.78125 
Q 83.796875 -11.671875 70.015625 -11.671875 
Q 64.265625 -11.671875 55.171875 -11.46875 
Q 54.6875 -7.953125 53.71875 -3.265625 
Q 62.703125 -3.859375 67.875 -3.859375 
Q 75.78125 -3.859375 75.78125 3.859375 
L 75.78125 20.0625 
z
M 25.828125 27.203125 
L 75.78125 27.203125 
L 75.78125 45.953125 
L 26.5625 45.953125 
Q 26.5625 36.1875 25.828125 27.203125 
z
M 26.5625 71.625 
L 26.5625 53.078125 
L 75.78125 53.078125 
L 75.78125 71.625 
z
" id="MicrosoftYaHei-6708"/>
       <path d="M 15.234375 76.703125 
L 84.859375 76.703125 
L 84.859375 -11.96875 
L 76.5625 -11.96875 
L 76.5625 -5.03125 
L 23.53125 -5.03125 
L 23.53125 -11.96875 
L 15.234375 -11.96875 
z
M 23.53125 32.859375 
L 23.53125 2.09375 
L 76.5625 2.09375 
L 76.5625 32.859375 
z
M 23.53125 69.390625 
L 23.53125 40.1875 
L 76.5625 40.1875 
L 76.5625 69.390625 
z
" id="MicrosoftYaHei-65e5"/>
      </defs>
      <g transform="translate(75.407813 335.39375)scale(0.1 -0.1)">
       <use xlink:href="#MicrosoftYaHei-32"/>
       <use x="58.642578" xlink:href="#MicrosoftYaHei-30"/>
       <use x="117.285156" xlink:href="#MicrosoftYaHei-31"/>
       <use x="175.927734" xlink:href="#MicrosoftYaHei-37"/>
       <use x="234.570312" xlink:href="#MicrosoftYaHei-5e74"/>
       <use x="334.570312" xlink:href="#MicrosoftYaHei-35"/>
       <use x="393.212891" xlink:href="#MicrosoftYaHei-6708"/>
       <use x="493.212891" xlink:href="#MicrosoftYaHei-37"/>
       <use x="551.855469" xlink:href="#MicrosoftYaHei-65e5"/>
      </g>
     </g>
    </g>
    <g id="xtick_2">
     <g id="line2d_3">
      <path clip-path="url(#peb8e0a4744)" d="M 242.188377 320.4 
L 242.188377 43.2 
" style="fill:none;stroke:#b0b0b0;stroke-linecap:square;stroke-width:0.8;"/>
     </g>
     <g id="line2d_4">
      <g>
       <use style="stroke:#000000;stroke-width:0.8;" x="242.188377" xlink:href="#m411ad0c3bc" y="320.4"/>
      </g>
     </g>
     <g id="text_2">
      <!-- 2017年9月28日 -->
      <defs>
       <path d="M 9.03125 10.25 
Q 15.28125 6.640625 22.515625 6.640625 
Q 32.671875 6.640625 38.25 14.640625 
Q 43.84375 22.65625 43.84375 37.40625 
Q 43.75 37.3125 43.65625 37.40625 
Q 38.671875 27.9375 26.90625 27.9375 
Q 17.390625 27.9375 11.140625 34.46875 
Q 4.890625 41.015625 4.890625 51.46875 
Q 4.890625 62.59375 11.71875 69.75 
Q 18.5625 76.90625 29.4375 76.90625 
Q 40.71875 76.90625 47.0625 68.046875 
Q 53.421875 59.1875 53.421875 42.234375 
Q 53.421875 21.296875 45.21875 10.015625 
Q 37.015625 -1.265625 22.515625 -1.265625 
Q 14.546875 -1.265625 9.03125 1.3125 
z
M 14.546875 52.6875 
Q 14.546875 45.0625 18.453125 40.59375 
Q 22.359375 36.140625 29.25 36.140625 
Q 35.203125 36.140625 39.25 40.203125 
Q 43.3125 44.28125 43.3125 50.09375 
Q 43.3125 58.25 39.28125 63.59375 
Q 35.25 68.953125 28.65625 68.953125 
Q 22.5625 68.953125 18.546875 64.3125 
Q 14.546875 59.671875 14.546875 52.6875 
z
" id="MicrosoftYaHei-39"/>
       <path d="M 21.390625 39.796875 
Q 7.859375 46.09375 7.859375 58.0625 
Q 7.859375 66.40625 14.203125 71.65625 
Q 20.5625 76.90625 30.421875 76.90625 
Q 39.453125 76.90625 45.3125 71.96875 
Q 51.171875 67.046875 51.171875 59.234375 
Q 51.171875 46.625 37.0625 39.84375 
L 37.0625 39.65625 
Q 53.609375 33.6875 53.609375 19.34375 
Q 53.609375 9.90625 46.796875 4.3125 
Q 39.984375 -1.265625 27.78125 -1.265625 
Q 17.78125 -1.265625 11.46875 4.25 
Q 5.171875 9.765625 5.171875 18.5625 
Q 5.171875 33.015625 21.390625 39.59375 
z
M 41.5 58.109375 
Q 41.5 63.1875 38.328125 66.109375 
Q 35.15625 69.046875 29.734375 69.046875 
Q 24.65625 69.046875 21.09375 65.984375 
Q 17.53125 62.9375 17.53125 58.203125 
Q 17.53125 48.734375 29.390625 43.796875 
Q 41.5 48.828125 41.5 58.109375 
z
M 28.8125 35.25 
Q 14.796875 29.59375 14.796875 19.046875 
Q 14.796875 13.578125 18.890625 10.0625 
Q 23 6.546875 29.59375 6.546875 
Q 35.984375 6.546875 39.984375 10.03125 
Q 44 13.53125 44 18.75 
Q 44 29.734375 28.8125 35.25 
z
" id="MicrosoftYaHei-38"/>
      </defs>
      <g transform="translate(206.664158 335.39375)scale(0.1 -0.1)">
       <use xlink:href="#MicrosoftYaHei-32"/>
       <use x="58.642578" xlink:href="#MicrosoftYaHei-30"/>
       <use x="117.285156" xlink:href="#MicrosoftYaHei-31"/>
       <use x="175.927734" xlink:href="#MicrosoftYaHei-37"/>
       <use x="234.570312" xlink:href="#MicrosoftYaHei-5e74"/>
       <use x="334.570312" xlink:href="#MicrosoftYaHei-39"/>
       <use x="393.212891" xlink:href="#MicrosoftYaHei-6708"/>
       <use x="493.212891" xlink:href="#MicrosoftYaHei-32"/>
       <use x="551.855469" xlink:href="#MicrosoftYaHei-38"/>
       <use x="610.498047" xlink:href="#MicrosoftYaHei-65e5"/>
      </g>
     </g>
    </g>
    <g id="xtick_3">
     <g id="line2d_5">
      <path clip-path="url(#peb8e0a4744)" d="M 376.376754 320.4 
L 376.376754 43.2 
" style="fill:none;stroke:#b0b0b0;stroke-linecap:square;stroke-width:0.8;"/>
     </g>
     <g id="line2d_6">
      <g>
       <use style="stroke:#000000;stroke-width:0.8;" x="376.376754" xlink:href="#m411ad0c3bc" y="320.4"/>
      </g>
     </g>
     <g id="text_3">
      <!-- 2018年1月29日 -->
      <g transform="translate(340.852535 335.39375)scale(0.1 -0.1)">
       <use xlink:href="#MicrosoftYaHei-32"/>
       <use x="58.642578" xlink:href="#MicrosoftYaHei-30"/>
       <use x="117.285156" xlink:href="#MicrosoftYaHei-31"/>
       <use x="175.927734" xlink:href="#MicrosoftYaHei-38"/>
       <use x="234.570312" xlink:href="#MicrosoftYaHei-5e74"/>
       <use x="334.570312" xlink:href="#MicrosoftYaHei-31"/>
       <use x="393.212891" xlink:href="#MicrosoftYaHei-6708"/>
       <use x="493.212891" xlink:href="#MicrosoftYaHei-32"/>
       <use x="551.855469" xlink:href="#MicrosoftYaHei-39"/>
       <use x="610.498047" xlink:href="#MicrosoftYaHei-65e5"/>
      </g>
     </g>
    </g>
    <g id="xtick_4">
     <g id="line2d_7">
      <path clip-path="url(#peb8e0a4744)" d="M 510.56513 320.4 
L 510.56513 43.2 
" style="fill:none;stroke:#b0b0b0;stroke-linecap:square;stroke-width:0.8;"/>
     </g>
     <g id="line2d_8">
      <g>
       <use style="stroke:#000000;stroke-width:0.8;" x="510.56513" xlink:href="#m411ad0c3bc" y="320.4"/>
      </g>
     </g>
     <g id="text_4">
      <!-- 2018年5月28日 -->
      <g transform="translate(475.040912 335.39375)scale(0.1 -0.1)">
       <use xlink:href="#MicrosoftYaHei-32"/>
       <use x="58.642578" xlink:href="#MicrosoftYaHei-30"/>
       <use x="117.285156" xlink:href="#MicrosoftYaHei-31"/>
       <use x="175.927734" xlink:href="#MicrosoftYaHei-38"/>
       <use x="234.570312" xlink:href="#MicrosoftYaHei-5e74"/>
       <use x="334.570312" xlink:href="#MicrosoftYaHei-35"/>
       <use x="393.212891" xlink:href="#MicrosoftYaHei-6708"/>
       <use x="493.212891" xlink:href="#MicrosoftYaHei-32"/>
       <use x="551.855469" xlink:href="#MicrosoftYaHei-38"/>
       <use x="610.498047" xlink:href="#MicrosoftYaHei-65e5"/>
      </g>
     </g>
    </g>
    <g id="xtick_5">
     <g id="line2d_9">
      <path clip-path="url(#peb8e0a4744)" d="M 644.753507 320.4 
L 644.753507 43.2 
" style="fill:none;stroke:#b0b0b0;stroke-linecap:square;stroke-width:0.8;"/>
     </g>
     <g id="line2d_10">
      <g>
       <use style="stroke:#000000;stroke-width:0.8;" x="644.753507" xlink:href="#m411ad0c3bc" y="320.4"/>
      </g>
     </g>
     <g id="text_5">
      <!-- 2018年9月21日 -->
      <g transform="translate(609.229288 335.39375)scale(0.1 -0.1)">
       <use xlink:href="#MicrosoftYaHei-32"/>
       <use x="58.642578" xlink:href="#MicrosoftYaHei-30"/>
       <use x="117.285156" xlink:href="#MicrosoftYaHei-31"/>
       <use x="175.927734" xlink:href="#MicrosoftYaHei-38"/>
       <use x="234.570312" xlink:href="#MicrosoftYaHei-5e74"/>
       <use x="334.570312" xlink:href="#MicrosoftYaHei-39"/>
       <use x="393.212891" xlink:href="#MicrosoftYaHei-6708"/>
       <use x="493.212891" xlink:href="#MicrosoftYaHei-32"/>
       <use x="551.855469" xlink:href="#MicrosoftYaHei-31"/>
       <use x="610.498047" xlink:href="#MicrosoftYaHei-65e5"/>
      </g>
     </g>
    </g>
    <g id="text_6">
     <!-- 日期 -->
     <defs>
      <path d="M 58.890625 79.15625 
L 93.453125 79.15625 
L 93.453125 -0.046875 
Q 93.453125 -11.578125 82.515625 -11.578125 
Q 77.046875 -11.578125 71.78125 -11.28125 
Q 71.390625 -8.0625 70.609375 -3.765625 
Q 77.734375 -4.4375 80.859375 -4.4375 
Q 86.234375 -4.4375 86.234375 0.921875 
L 86.234375 21.4375 
L 65.328125 21.4375 
Q 64.265625 0.046875 52.34375 -14.109375 
Q 49.703125 -11.375 46.484375 -8.640625 
Q 54.390625 0.4375 56.546875 10.203125 
Q 58.890625 19.578125 58.890625 42.828125 
z
M 1.953125 17.828125 
L 11.140625 17.828125 
L 11.140625 62.9375 
L 3.125 62.9375 
L 3.125 69.578125 
L 11.140625 69.578125 
L 11.140625 81.5 
L 18.359375 81.5 
L 18.359375 69.578125 
L 38.671875 69.578125 
L 38.671875 81.890625 
L 45.90625 81.890625 
L 45.90625 69.578125 
L 53.8125 69.578125 
L 53.8125 62.9375 
L 45.90625 62.9375 
L 45.90625 17.828125 
L 53.71875 17.828125 
L 53.71875 11.1875 
L 1.953125 11.1875 
z
M 65.765625 27.875 
L 86.234375 27.875 
L 86.234375 47.015625 
L 66.109375 47.015625 
Q 66.21875 34.421875 65.765625 27.875 
z
M 86.234375 72.515625 
L 66.109375 72.515625 
L 66.109375 53.46875 
L 86.234375 53.46875 
z
M 18.359375 17.828125 
L 38.671875 17.828125 
L 38.671875 28.765625 
L 18.359375 28.765625 
z
M 18.359375 35.015625 
L 38.671875 35.015625 
L 38.671875 45.84375 
L 18.359375 45.84375 
z
M 18.359375 52.09375 
L 38.671875 52.09375 
L 38.671875 62.9375 
L 18.359375 62.9375 
z
M 18.359375 9.328125 
L 24.3125 4.640625 
Q 14.453125 -6 6.34375 -13.234375 
Q 4.296875 -10.890625 1.171875 -8.0625 
Q 10.453125 -0.140625 18.359375 9.328125 
z
M 31.15625 4.734375 
L 35.84375 9.515625 
Q 42.671875 4.4375 48.734375 -0.734375 
L 43.5625 -6.296875 
Q 38.09375 -0.828125 31.15625 4.734375 
z
" id="MicrosoftYaHei-671f"/>
     </defs>
     <g transform="translate(432.8 349.873438)scale(0.1 -0.1)">
      <use xlink:href="#MicrosoftYaHei-65e5"/>
      <use x="100" xlink:href="#MicrosoftYaHei-671f"/>
     </g>
    </g>
   </g>
   <g id="matplotlib.axis_2">
    <g id="ytick_1">
     <g id="line2d_11">
      <path clip-path="url(#peb8e0a4744)" d="M 108 276.719342 
L 777.6 276.719342 
" style="fill:none;stroke:#b0b0b0;stroke-linecap:square;stroke-width:0.8;"/>
     </g>
     <g id="line2d_12">
      <defs>
       <path d="M 0 0 
L -3.5 0 
" id="m8cdd48be12" style="stroke:#000000;stroke-width:0.8;"/>
      </defs>
      <g>
       <use style="stroke:#000000;stroke-width:0.8;" x="108" xlink:href="#m8cdd48be12" y="276.719342"/>
      </g>
     </g>
     <g id="text_7">
      <!-- 1.0 -->
      <defs>
       <path d="M 5.8125 5.03125 
Q 5.8125 7.671875 7.609375 9.46875 
Q 9.421875 11.28125 12.109375 11.28125 
Q 14.84375 11.28125 16.640625 9.453125 
Q 18.453125 7.625 18.453125 5.03125 
Q 18.453125 2.484375 16.640625 0.65625 
Q 14.84375 -1.171875 12.0625 -1.171875 
Q 9.375 -1.171875 7.59375 0.65625 
Q 5.8125 2.484375 5.8125 5.03125 
z
" id="MicrosoftYaHei-2e"/>
      </defs>
      <g transform="translate(86.864063 280.716217)scale(0.1 -0.1)">
       <use xlink:href="#MicrosoftYaHei-31"/>
       <use x="58.642578" xlink:href="#MicrosoftYaHei-2e"/>
       <use x="82.714844" xlink:href="#MicrosoftYaHei-30"/>
      </g>
     </g>
    </g>
    <g id="ytick_2">
     <g id="line2d_13">
      <path clip-path="url(#peb8e0a4744)" d="M 108 227.384965 
L 777.6 227.384965 
" style="fill:none;stroke:#b0b0b0;stroke-linecap:square;stroke-width:0.8;"/>
     </g>
     <g id="line2d_14">
      <g>
       <use style="stroke:#000000;stroke-width:0.8;" x="108" xlink:href="#m8cdd48be12" y="227.384965"/>
      </g>
     </g>
     <g id="text_8">
      <!-- 1.5 -->
      <g transform="translate(86.864063 231.38184)scale(0.1 -0.1)">
       <use xlink:href="#MicrosoftYaHei-31"/>
       <use x="58.642578" xlink:href="#MicrosoftYaHei-2e"/>
       <use x="82.714844" xlink:href="#MicrosoftYaHei-35"/>
      </g>
     </g>
    </g>
    <g id="ytick_3">
     <g id="line2d_15">
      <path clip-path="url(#peb8e0a4744)" d="M 108 178.050587 
L 777.6 178.050587 
" style="fill:none;stroke:#b0b0b0;stroke-linecap:square;stroke-width:0.8;"/>
     </g>
     <g id="line2d_16">
      <g>
       <use style="stroke:#000000;stroke-width:0.8;" x="108" xlink:href="#m8cdd48be12" y="178.050587"/>
      </g>
     </g>
     <g id="text_9">
      <!-- 2.0 -->
      <g transform="translate(86.864063 182.047462)scale(0.1 -0.1)">
       <use xlink:href="#MicrosoftYaHei-32"/>
       <use x="58.642578" xlink:href="#MicrosoftYaHei-2e"/>
       <use x="82.714844" xlink:href="#MicrosoftYaHei-30"/>
      </g>
     </g>
    </g>
    <g id="ytick_4">
     <g id="line2d_17">
      <path clip-path="url(#peb8e0a4744)" d="M 108 128.71621 
L 777.6 128.71621 
" style="fill:none;stroke:#b0b0b0;stroke-linecap:square;stroke-width:0.8;"/>
     </g>
     <g id="line2d_18">
      <g>
       <use style="stroke:#000000;stroke-width:0.8;" x="108" xlink:href="#m8cdd48be12" y="128.71621"/>
      </g>
     </g>
     <g id="text_10">
      <!-- 2.5 -->
      <g transform="translate(86.864063 132.713085)scale(0.1 -0.1)">
       <use xlink:href="#MicrosoftYaHei-32"/>
       <use x="58.642578" xlink:href="#MicrosoftYaHei-2e"/>
       <use x="82.714844" xlink:href="#MicrosoftYaHei-35"/>
      </g>
     </g>
    </g>
    <g id="ytick_5">
     <g id="line2d_19">
      <path clip-path="url(#peb8e0a4744)" d="M 108 79.381832 
L 777.6 79.381832 
" style="fill:none;stroke:#b0b0b0;stroke-linecap:square;stroke-width:0.8;"/>
     </g>
     <g id="line2d_20">
      <g>
       <use style="stroke:#000000;stroke-width:0.8;" x="108" xlink:href="#m8cdd48be12" y="79.381832"/>
      </g>
     </g>
     <g id="text_11">
      <!-- 3.0 -->
      <defs>
       <path d="M 6.984375 12.640625 
Q 14.75 6.640625 24.515625 6.640625 
Q 32.328125 6.640625 36.890625 10.46875 
Q 41.453125 14.3125 41.453125 20.75 
Q 41.453125 35.109375 20.90625 35.109375 
L 14.59375 35.109375 
L 14.59375 43.015625 
L 20.609375 43.015625 
Q 38.8125 43.015625 38.8125 56.5 
Q 38.8125 68.953125 24.90625 68.953125 
Q 16.9375 68.953125 9.90625 63.578125 
L 9.90625 72.609375 
Q 17.328125 76.90625 27.25 76.90625 
Q 36.921875 76.90625 42.78125 71.84375 
Q 48.640625 66.796875 48.640625 58.734375 
Q 48.640625 43.890625 33.5 39.65625 
L 33.5 39.453125 
Q 41.703125 38.578125 46.453125 33.671875 
Q 51.21875 28.765625 51.21875 21.4375 
Q 51.21875 11.234375 43.875 4.984375 
Q 36.53125 -1.265625 24.3125 -1.265625 
Q 13.578125 -1.265625 6.984375 2.734375 
z
" id="MicrosoftYaHei-33"/>
      </defs>
      <g transform="translate(86.864063 83.378707)scale(0.1 -0.1)">
       <use xlink:href="#MicrosoftYaHei-33"/>
       <use x="58.642578" xlink:href="#MicrosoftYaHei-2e"/>
       <use x="82.714844" xlink:href="#MicrosoftYaHei-30"/>
      </g>
     </g>
    </g>
   </g>
   <g id="line2d_21">
    <path clip-path="url(#peb8e0a4744)" d="M 108 307.8 
L 110.683768 305.333281 
L 112.025651 298.525137 
L 113.367535 296.058418 
L 114.709419 291.322318 
L 116.051303 285.994205 
L 117.393186 290.532968 
L 118.73507 292.309005 
L 120.076954 292.506343 
L 121.418838 294.085043 
L 124.102605 295.565074 
L 125.444489 291.815662 
L 126.786373 297.341112 
L 128.128257 301.583868 
L 129.47014 302.077212 
L 130.812024 297.834456 
L 132.153908 289.842287 
L 133.495792 288.263587 
L 134.837675 290.039624 
L 136.179559 295.269068 
L 137.521443 292.605012 
L 138.863327 296.058418 
L 140.20521 295.565074 
L 141.547094 296.551762 
L 142.888978 295.071731 
L 144.230862 298.031793 
L 145.572745 296.354424 
L 146.914629 282.836805 
L 148.256513 282.343461 
L 149.598397 282.540799 
L 150.940281 282.047455 
L 152.282164 284.316836 
L 153.624048 284.316836 
L 154.965932 282.836805 
L 156.307816 282.047455 
L 157.649699 277.311355 
L 158.991583 292.802349 
L 160.333467 278.002036 
L 161.675351 278.791386 
L 163.017234 279.087392 
L 164.359118 279.580736 
L 165.701002 278.49538 
L 167.042886 276.225998 
L 168.38477 276.324667 
L 169.726653 277.311355 
L 171.068537 293.591699 
L 172.410421 278.298042 
L 173.752305 278.49538 
L 175.094188 287.770243 
L 176.436072 281.258105 
L 177.777956 279.482067 
L 179.11984 282.540799 
L 180.461723 283.823493 
L 181.803607 283.823493 
L 183.145491 276.028661 
L 184.487375 277.508692 
L 185.829259 277.508692 
L 187.171142 282.540799 
L 188.513026 282.343461 
L 189.85491 280.271417 
L 191.196794 280.764761 
L 192.538677 281.060767 
L 193.880561 279.28473 
L 195.222445 282.047455 
L 196.564329 282.836805 
L 197.906212 281.751449 
L 199.248096 278.791386 
L 200.58998 278.298042 
L 201.931864 278.298042 
L 203.273747 278.49538 
L 204.615631 277.508692 
L 205.957515 278.002036 
L 207.299399 276.818011 
L 208.641283 281.258105 
L 209.983166 282.836805 
L 211.32505 277.508692 
L 212.666934 277.508692 
L 214.008818 277.804699 
L 215.350701 278.298042 
L 216.692585 277.508692 
L 218.034469 276.028661 
L 219.376353 281.554111 
L 220.718236 280.567424 
L 222.06012 279.28473 
L 223.402004 278.49538 
L 224.743888 278.002036 
L 226.085772 280.07408 
L 227.427655 280.07408 
L 228.769539 283.034143 
L 230.111423 281.554111 
L 231.453307 281.751449 
L 232.79519 277.804699 
L 234.137074 278.002036 
L 235.478958 280.07408 
L 236.820842 280.271417 
L 238.162725 281.751449 
L 239.504609 281.060767 
L 240.846493 278.002036 
L 242.188377 280.271417 
L 243.530261 281.751449 
L 244.872144 281.554111 
L 246.214028 276.028661 
L 247.555912 272.279248 
L 248.897796 280.07408 
L 250.239679 280.764761 
L 251.581563 161.17823 
L 252.923447 165.223649 
L 254.265331 165.026312 
L 255.607214 165.026312 
L 256.949098 163.052937 
L 258.290982 162.559593 
L 259.632866 158.908849 
L 260.974749 159.204855 
L 262.316633 160.290211 
L 263.658517 166.012999 
L 265.000401 160.191543 
L 266.342285 161.276899 
L 267.684168 161.572905 
L 269.026052 157.428818 
L 270.367936 159.204855 
L 271.70982 161.96758 
L 273.051703 161.770243 
L 274.393587 160.980893 
L 275.735471 164.532968 
L 277.077355 161.96758 
L 278.419238 158.908849 
L 279.761122 163.447612 
L 281.103006 162.954268 
L 283.786774 162.559593 
L 285.128657 162.066249 
L 286.470541 158.218168 
L 287.812425 157.034143 
L 289.154309 155.455442 
L 290.496192 159.007518 
L 291.838076 159.796868 
L 293.17996 159.994205 
L 295.863727 157.724824 
L 297.205611 160.092874 
L 298.547495 155.258105 
L 299.889379 155.455442 
L 301.231263 156.244792 
L 302.573146 155.554111 
L 303.91503 158.81018 
L 305.256914 159.007518 
L 306.598798 148.647298 
L 307.940681 148.647298 
L 309.282565 159.500861 
L 310.624449 147.75928 
L 311.966333 160.191543 
L 313.308216 160.783555 
L 314.6501 158.218168 
L 315.991984 156.44213 
L 317.333868 158.218168 
L 318.675752 158.711511 
L 320.017635 146.871261 
L 321.359519 150.91668 
L 322.701403 150.719342 
L 324.043287 150.91668 
L 325.38517 141.641817 
L 326.727054 140.655129 
L 328.068938 143.121848 
L 329.410822 145.193892 
L 330.752705 143.121848 
L 332.094589 137.596398 
L 334.778357 136.60971 
L 336.12024 137.892404 
L 337.462124 137.103054 
L 338.804008 137.892404 
L 340.145892 145.391229 
L 341.487776 136.905717 
L 342.829659 147.956617 
L 344.171543 137.300392 
L 345.513427 135.129679 
L 346.855311 149.732655 
L 348.197194 145.489898 
L 349.539078 143.121848 
L 350.880962 147.956617 
L 352.222846 144.897886 
L 353.564729 144.601879 
L 354.906613 247.217384 
L 356.248497 246.428034 
L 357.590381 246.724041 
L 358.932265 247.217384 
L 360.274148 246.033359 
L 361.616032 246.428034 
L 362.957916 249.19076 
L 364.2998 250.76946 
L 366.983567 250.76946 
L 368.325451 252.446829 
L 369.667335 252.742835 
L 371.009218 251.953485 
L 372.351102 255.50556 
L 375.03487 252.446829 
L 376.376754 251.460141 
L 377.718637 253.038841 
L 379.060521 253.038841 
L 380.402405 231.134377 
L 381.744289 247.217384 
L 383.086172 250.177447 
L 384.428056 251.460141 
L 385.76994 250.966797 
L 387.111824 248.697416 
L 388.453707 248.204072 
L 389.795591 245.934691 
L 391.137475 244.257322 
L 392.479359 246.230697 
L 393.821242 245.934691 
L 395.163126 246.724041 
L 396.50501 243.467972 
L 397.846894 243.467972 
L 399.188778 242.481284 
L 400.530661 236.955834 
L 401.872545 240.014565 
L 403.214429 237.942522 
L 404.556313 243.171966 
L 405.898196 240.211903 
L 407.24008 239.422553 
L 408.581964 241.001253 
L 409.923848 240.211903 
L 411.265731 226.694283 
L 412.607615 237.745184 
L 413.949499 237.449178 
L 415.291383 237.745184 
L 416.633267 238.238528 
L 419.317034 245.244009 
L 420.658918 245.737353 
L 422.000802 221.366171 
L 423.342685 219.688802 
L 424.684569 216.136727 
L 426.026453 206.565857 
L 427.368337 208.144558 
L 428.71022 208.144558 
L 430.052104 206.36852 
L 431.393988 208.637901 
L 432.735872 228.371652 
L 434.077756 208.637901 
L 435.419639 207.355208 
L 436.761523 210.117933 
L 438.103407 209.427251 
L 439.445291 208.440564 
L 440.787174 207.651214 
L 442.129058 211.203289 
L 444.812826 215.446045 
L 446.154709 229.161002 
L 447.496593 227.680971 
L 448.838477 227.680971 
L 450.180361 226.398277 
L 451.522244 220.675489 
L 452.864128 221.168833 
L 454.206012 221.168833 
L 455.547896 214.656695 
L 456.88978 214.656695 
L 458.231663 213.867345 
L 459.573547 214.656695 
L 460.915431 213.670008 
L 462.257315 214.656695 
L 463.599198 214.163352 
L 464.941082 210.907283 
L 466.282966 211.89397 
L 467.62485 214.854033 
L 468.966733 212.880658 
L 470.308617 211.597964 
L 472.992385 210.611276 
L 474.334269 212.387314 
L 475.676152 216.63007 
L 477.018036 217.419421 
L 478.35992 217.123414 
L 479.701804 209.624589 
L 481.043687 215.150039 
L 482.385571 208.933908 
L 483.727455 210.31527 
L 485.069339 210.907283 
L 486.411222 209.920595 
L 487.753106 209.131245 
L 489.09499 211.696633 
L 490.436874 210.611276 
L 491.778758 211.597964 
L 493.120641 211.10462 
L 494.462525 211.10462 
L 495.804409 212.68332 
L 497.146293 209.821926 
L 498.488176 209.821926 
L 499.83006 211.10462 
L 501.171944 215.643383 
L 502.513828 210.611276 
L 503.855711 210.611276 
L 505.197595 212.68332 
L 506.539479 202.816445 
L 507.881363 205.085826 
L 509.223246 208.933908 
L 510.56513 209.131245 
L 511.907014 207.94722 
L 513.248898 209.131245 
L 514.590782 201.829757 
L 515.932665 203.112451 
L 517.274549 210.413939 
L 518.616433 211.10462 
L 519.958317 210.413939 
L 521.3002 210.611276 
L 522.642084 210.413939 
L 523.983968 209.131245 
L 525.325852 199.165701 
L 526.667735 196.600313 
L 528.009619 198.080345 
L 529.351503 196.600313 
L 530.693387 198.376351 
L 532.035271 196.600313 
L 533.377154 197.389663 
L 534.719038 195.317619 
L 536.060922 195.416288 
L 537.402806 204.395145 
L 538.744689 193.541582 
L 540.086573 192.850901 
L 541.428457 195.317619 
L 542.770341 195.120282 
L 544.112224 199.856382 
L 545.454108 201.139076 
L 546.795992 199.363038 
L 548.137876 201.829757 
L 549.47976 201.829757 
L 550.821643 204.592482 
L 553.505411 201.63242 
L 554.847295 197.093657 
L 556.189178 200.05372 
L 557.531062 200.349726 
L 558.872946 189.890838 
L 561.556713 189.298825 
L 562.898597 190.088175 
L 564.240481 190.088175 
L 565.582365 189.594832 
L 566.924248 188.608144 
L 568.266132 188.016132 
L 569.608016 190.088175 
L 570.9499 202.619107 
L 572.291784 193.344244 
L 573.633667 193.344244 
L 574.975551 190.384182 
L 576.317435 189.890838 
L 577.659319 188.312138 
L 580.343086 189.298825 
L 581.68497 189.298825 
L 583.026854 191.370869 
L 584.368737 188.1148 
L 585.710621 188.1148 
L 587.052505 187.029444 
L 588.394389 187.029444 
L 589.736273 192.061551 
L 591.078156 194.824276 
L 592.42004 193.146907 
L 593.761924 192.061551 
L 595.103808 187.029444 
L 596.445691 187.128113 
L 597.787575 186.042756 
L 599.129459 184.069381 
L 600.471343 182.984025 
L 603.15511 184.562725 
L 604.496994 184.365388 
L 605.838878 184.562725 
L 607.180762 186.338763 
L 608.522645 185.549413 
L 609.864529 184.069381 
L 613.89018 184.069381 
L 615.232064 183.3787 
L 616.573948 183.872044 
L 617.915832 182.293344 
L 619.257715 189.594832 
L 620.599599 181.997338 
L 621.941483 184.562725 
L 623.283367 188.805482 
L 624.625251 189.298825 
L 625.967134 188.1148 
L 627.309018 187.818794 
L 628.650902 185.74675 
L 629.992786 187.522788 
L 631.334669 182.293344 
L 632.676553 181.602662 
L 634.018437 178.050587 
L 635.360321 178.050587 
L 636.702204 177.0639 
L 638.044088 176.767894 
L 639.385972 177.557244 
L 640.727856 177.0639 
L 642.069739 173.018481 
L 643.411623 175.4852 
L 644.753507 174.498512 
L 646.095391 174.498512 
L 647.437275 172.821143 
L 648.779158 172.3278 
L 650.121042 166.506343 
L 651.462926 167.493031 
L 652.80481 166.999687 
L 654.146693 166.802349 
L 655.488577 184.365388 
L 656.830461 184.069381 
L 658.172345 178.050587 
L 659.514228 180.517306 
L 660.856112 181.109319 
L 662.197996 180.813312 
L 663.53988 139.175098 
L 664.881764 137.103054 
L 666.223647 136.60971 
L 667.565531 137.39906 
L 668.907415 137.892404 
L 671.591182 139.865779 
L 672.933066 139.372435 
L 674.27495 135.129679 
L 675.616834 138.879092 
L 676.958717 140.359123 
L 678.300601 142.135161 
L 679.642485 146.673923 
L 680.984369 140.161785 
L 682.326253 140.359123 
L 683.668136 139.569773 
L 685.01002 140.359123 
L 686.351904 139.175098 
L 687.693788 139.865779 
L 689.035671 138.879092 
L 690.377555 143.417854 
L 691.719439 137.39906 
L 693.061323 137.103054 
L 694.403206 137.596398 
L 695.74509 138.583085 
L 697.086974 139.372435 
L 698.428858 136.116366 
L 699.770741 135.327016 
L 701.112625 136.905717 
L 702.454509 136.905717 
L 703.796393 136.412373 
L 705.138277 136.116366 
L 706.48016 135.623023 
L 707.822044 138.089742 
L 709.163928 137.596398 
L 710.505812 138.385748 
L 711.847695 140.161785 
L 713.189579 136.116366 
L 714.531463 135.327016 
L 717.21523 135.82036 
L 721.240882 137.596398 
L 722.582766 138.385748 
L 723.924649 139.865779 
L 725.266533 139.175098 
L 726.608417 139.865779 
L 727.950301 135.82036 
L 729.292184 134.537666 
L 730.634068 134.142991 
L 731.975952 135.228348 
L 733.317836 135.721691 
L 736.001603 132.169616 
L 737.343487 133.057635 
L 738.685371 133.45231 
L 740.027255 133.156304 
L 741.369138 133.45231 
L 742.711022 132.465623 
L 744.052906 132.465623 
L 745.39479 130.393579 
L 746.736673 131.281597 
L 748.078557 132.958966 
L 749.420441 132.465623 
L 750.762325 133.945654 
L 752.104208 137.793735 
L 753.446092 135.425685 
L 754.787976 133.45231 
L 756.12986 133.846985 
L 757.471743 134.932341 
L 760.155511 136.017698 
L 761.497395 136.215035 
L 762.839279 133.649648 
L 764.181162 137.695067 
L 765.523046 137.497729 
L 766.86493 136.215035 
L 768.206814 135.425685 
L 769.548697 135.721691 
L 772.232465 136.708379 
L 773.574349 134.932341 
L 774.916232 135.228348 
L 776.258116 135.721691 
L 777.6 136.511042 
L 777.6 136.511042 
" style="fill:none;stroke:#1f77b4;stroke-linecap:square;stroke-width:1.5;"/>
   </g>
   <g id="line2d_22">
    <path clip-path="url(#peb8e0a4744)" d="M 108 287.671574 
L 109.341884 287.17823 
L 110.683768 285.106186 
L 112.025651 275.633986 
L 113.367535 276.91668 
L 114.709419 275.831323 
L 116.051303 275.633986 
L 117.393186 274.844636 
L 118.73507 275.633986 
L 121.418838 275.633986 
L 122.760721 279.383399 
L 124.102605 274.844636 
L 125.444489 277.311355 
L 126.786373 280.86343 
L 128.128257 280.86343 
L 129.47014 280.370086 
L 130.812024 280.666092 
L 132.153908 274.844636 
L 133.495792 275.633986 
L 134.837675 273.857948 
L 136.179559 278.890055 
L 137.521443 274.647298 
L 138.863327 279.087392 
L 140.20521 279.383399 
L 141.547094 278.396711 
L 142.888978 276.818011 
L 144.230862 276.818011 
L 145.572745 276.12733 
L 146.914629 272.871261 
L 148.256513 270.799217 
L 150.940281 272.871261 
L 152.282164 273.364605 
L 153.624048 272.871261 
L 154.965932 272.081911 
L 156.307816 269.812529 
L 157.649699 265.273767 
L 158.991583 274.153955 
L 160.333467 262.511042 
L 161.675351 260.044323 
L 164.359118 259.057635 
L 165.701002 259.748316 
L 167.042886 263.991073 
L 168.38477 266.260454 
L 169.726653 268.825842 
L 171.068537 274.647298 
L 172.410421 270.108536 
L 173.752305 268.529836 
L 175.094188 274.153955 
L 176.436072 270.601879 
L 177.777956 271.785904 
L 179.11984 273.364605 
L 181.803607 273.364605 
L 183.145491 272.377917 
L 184.487375 272.871261 
L 185.829259 272.081911 
L 187.171142 273.857948 
L 188.513026 273.364605 
L 189.85491 275.33798 
L 191.196794 276.324667 
L 192.538677 275.33798 
L 193.880561 268.332498 
L 195.222445 276.324667 
L 196.564329 277.607361 
L 197.906212 275.140642 
L 199.248096 276.620673 
L 200.58998 274.351292 
L 201.931864 274.647298 
L 203.273747 275.33798 
L 204.615631 273.561942 
L 205.957515 273.068598 
L 207.299399 269.023179 
L 208.641283 274.351292 
L 209.983166 276.324667 
L 211.32505 268.332498 
L 212.666934 269.121848 
L 214.008818 268.825842 
L 215.350701 271.095223 
L 216.692585 271.095223 
L 219.376353 272.081911 
L 220.718236 272.081911 
L 222.06012 272.377917 
L 223.402004 272.377917 
L 224.743888 271.292561 
L 226.085772 273.068598 
L 227.427655 273.068598 
L 228.769539 274.055286 
L 230.111423 272.377917 
L 231.453307 275.633986 
L 232.79519 272.081911 
L 234.137074 273.364605 
L 235.478958 273.857948 
L 238.162725 274.351292 
L 239.504609 269.812529 
L 240.846493 270.305873 
L 242.188377 271.095223 
L 243.530261 271.095223 
L 244.872144 274.844636 
L 246.214028 275.831323 
L 247.555912 270.305873 
L 248.897796 272.081911 
L 250.239679 272.081911 
L 251.581563 151.015348 
L 252.923447 151.804699 
L 254.265331 151.311355 
L 255.607214 151.311355 
L 256.949098 150.12733 
L 258.290982 147.463273 
L 262.316633 147.561942 
L 263.658517 157.724824 
L 265.000401 147.561942 
L 266.342285 147.265936 
L 267.684168 144.503211 
L 269.026052 144.503211 
L 270.367936 144.996554 
L 271.70982 145.785904 
L 273.051703 145.489898 
L 274.393587 147.068598 
L 275.735471 156.047455 
L 277.077355 144.700548 
L 278.419238 145.193892 
L 279.761122 156.047455 
L 281.103006 156.146124 
L 282.44489 156.639468 
L 283.786774 156.639468 
L 285.128657 154.666092 
L 286.470541 143.023179 
L 287.812425 143.516523 
L 289.154309 140.951135 
L 291.838076 143.023179 
L 293.17996 143.220517 
L 294.521844 143.023179 
L 295.863727 145.983242 
L 297.205611 139.372435 
L 298.547495 137.892404 
L 299.889379 138.385748 
L 302.573146 137.892404 
L 303.91503 138.681754 
L 305.256914 138.089742 
L 306.598798 139.865779 
L 307.940681 141.937823 
L 309.282565 145.785904 
L 310.624449 142.233829 
L 311.966333 145.983242 
L 313.308216 146.279248 
L 314.6501 141.937823 
L 315.991984 142.431167 
L 318.675752 143.023179 
L 320.017635 139.964448 
L 321.359519 135.82036 
L 322.701403 135.82036 
L 324.043287 136.60971 
L 325.38517 136.215035 
L 326.727054 136.905717 
L 328.068938 139.175098 
L 329.410822 140.161785 
L 330.752705 139.175098 
L 332.094589 139.372435 
L 333.436473 139.964448 
L 334.778357 139.964448 
L 336.12024 139.76711 
L 337.462124 134.340329 
L 338.804008 135.129679 
L 341.487776 140.260454 
L 342.829659 143.023179 
L 344.171543 139.964448 
L 345.513427 140.457792 
L 346.855311 144.305873 
L 348.197194 136.313704 
L 349.539078 136.412373 
L 350.880962 137.596398 
L 352.222846 138.97776 
L 353.564729 138.97776 
L 354.906613 234.88379 
L 356.248497 233.601096 
L 357.590381 232.811746 
L 358.932265 232.811746 
L 360.274148 234.390446 
L 361.616032 232.811746 
L 364.2998 233.897103 
L 365.641683 238.139859 
M 368.325451 234.88379 
L 369.667335 232.614409 
L 371.009218 233.30509 
L 372.351102 234.587784 
L 373.692986 235.081128 
L 375.03487 235.081128 
L 376.376754 236.363821 
L 377.718637 236.166484 
L 379.060521 231.331715 
L 380.402405 230.838371 
L 381.744289 236.857165 
L 385.76994 236.857165 
L 387.111824 235.870478 
L 388.453707 232.318403 
L 389.795591 221.267502 
L 391.137475 220.280814 
L 392.479359 216.728739 
L 393.821242 218.702114 
L 396.50501 216.728739 
L 397.846894 217.518089 
L 399.188778 216.728739 
L 400.530661 228.56899 
L 401.872545 216.531402 
L 403.214429 212.880658 
L 404.556313 213.176664 
L 405.898196 213.176664 
L 407.24008 212.979327 
L 408.581964 212.979327 
L 409.923848 210.117933 
L 411.265731 211.696633 
L 412.607615 228.766327 
L 413.949499 228.56899 
L 415.291383 228.075646 
L 416.633267 225.016915 
L 417.97515 222.747533 
L 419.317034 222.25419 
L 420.658918 221.267502 
L 422.000802 210.216601 
L 423.342685 209.427251 
L 424.684569 205.085826 
L 426.026453 202.323101 
L 427.368337 200.547063 
L 428.71022 199.856382 
L 430.052104 199.560376 
L 431.393988 200.84307 
L 432.735872 214.656695 
L 434.077756 197.784338 
L 435.419639 203.112451 
L 436.761523 205.381832 
L 438.103407 204.888489 
L 439.445291 205.381832 
L 440.787174 203.112451 
L 442.129058 200.251057 
L 443.470942 204.099139 
L 444.812826 206.171182 
L 446.154709 213.176664 
L 447.496593 212.979327 
L 448.838477 210.907283 
L 450.180361 209.427251 
L 451.522244 209.131245 
L 452.864128 210.117933 
L 454.206012 210.117933 
L 455.547896 204.099139 
L 456.88978 204.296476 
L 459.573547 201.829757 
L 462.257315 202.323101 
L 463.599198 198.573688 
L 464.941082 196.501644 
L 466.282966 195.218951 
L 467.62485 204.592482 
L 468.966733 197.093657 
L 470.308617 197.093657 
L 471.650501 195.317619 
L 472.992385 191.173532 
L 474.334269 192.456226 
L 475.676152 195.021613 
L 477.018036 196.501644 
L 478.35992 196.501644 
L 479.701804 205.381832 
L 481.043687 197.093657 
L 482.385571 202.323101 
L 483.727455 206.861864 
L 485.069339 206.36852 
L 486.411222 205.677839 
L 489.09499 206.171182 
L 490.436874 188.90415 
L 491.778758 187.424119 
L 494.462525 188.016132 
L 495.804409 186.437431 
L 497.146293 187.424119 
L 498.488176 187.226782 
L 499.83006 188.016132 
L 501.171944 192.456226 
L 502.513828 188.509475 
L 503.855711 187.226782 
L 505.197595 184.16805 
L 506.539479 186.141425 
L 507.881363 187.424119 
L 509.223246 188.213469 
L 510.56513 188.016132 
L 511.907014 189.298825 
L 513.248898 195.514957 
L 514.590782 185.648081 
L 515.932665 186.437431 
L 517.274549 194.725607 
L 518.616433 194.232263 
L 519.958317 194.528269 
L 521.3002 194.330932 
L 522.642084 190.48285 
L 523.983968 189.397494 
L 525.325852 184.9574 
L 526.667735 186.733438 
L 528.009619 184.661394 
L 529.351503 184.365388 
L 530.693387 185.154738 
L 532.035271 184.661394 
L 533.377154 184.661394 
L 534.719038 185.253406 
L 536.060922 183.674706 
L 537.402806 186.930775 
L 538.744689 184.661394 
L 540.086573 184.661394 
L 541.428457 186.437431 
L 542.770341 185.450744 
L 544.112224 188.016132 
L 545.454108 184.16805 
L 546.795992 185.944088 
L 549.47976 185.944088 
L 550.821643 186.733438 
L 552.163527 186.930775 
L 553.505411 183.181363 
L 554.847295 183.872044 
L 556.189178 184.9574 
L 557.531062 185.450744 
L 558.872946 180.319969 
L 560.21483 181.898669 
L 561.556713 180.615975 
L 562.898597 180.911981 
L 565.582365 179.925294 
L 566.924248 176.27455 
L 568.266132 177.85325 
L 569.608016 178.6426 
L 570.9499 185.944088 
L 572.291784 180.122631 
L 573.633667 180.418637 
L 574.975551 181.405325 
L 576.317435 177.359906 
L 577.659319 178.050587 
L 579.001202 179.135944 
L 580.343086 178.839937 
L 581.68497 179.135944 
L 583.026854 184.464056 
L 584.368737 178.938606 
L 585.710621 174.794518 
L 587.052505 180.122631 
L 588.394389 180.813312 
L 589.736273 182.392013 
L 591.078156 182.885356 
L 592.42004 182.885356 
L 593.761924 181.898669 
L 595.103808 173.610493 
L 596.445691 173.11715 
L 597.787575 173.807831 
L 599.129459 169.959749 
L 600.471343 171.242443 
L 601.813226 171.735787 
L 603.15511 173.807831 
L 604.496994 173.807831 
L 605.838878 175.583868 
L 607.180762 174.103837 
L 608.522645 170.255756 
L 609.864529 169.762412 
L 611.206413 170.255756 
L 612.548297 168.775724 
L 613.89018 168.282381 
L 615.232064 167.295693 
L 616.573948 165.420987 
L 617.915832 165.716993 
L 619.257715 177.359906 
L 620.599599 167.690368 
L 621.941483 167.789037 
L 623.283367 177.359906 
L 624.625251 177.359906 
L 625.967134 176.669225 
L 627.309018 172.525137 
L 628.650902 172.525137 
L 629.992786 173.018481 
L 631.334669 165.026312 
L 632.676553 162.954268 
L 634.018437 163.151605 
L 635.360321 163.940955 
L 636.702204 162.954268 
L 638.044088 162.954268 
L 639.385972 162.460924 
L 640.727856 160.882224 
L 642.069739 161.671574 
L 644.753507 160.980893 
L 647.437275 160.980893 
L 648.779158 156.836805 
L 650.121042 157.132811 
L 651.462926 159.106186 
L 652.80481 158.415505 
L 654.146693 157.922161 
L 655.488577 167.986374 
L 656.830461 166.506343 
L 658.172345 164.730305 
L 659.514228 165.223649 
L 660.856112 164.532968 
L 662.197996 164.236962 
L 663.53988 135.327016 
L 664.881764 136.215035 
L 666.223647 136.412373 
L 667.565531 136.905717 
L 668.907415 133.550979 
L 670.249299 136.60971 
L 671.591182 137.596398 
L 672.933066 138.18841 
L 674.27495 132.070948 
L 675.616834 137.991073 
L 676.958717 138.484417 
L 678.300601 137.596398 
L 679.642485 141.641817 
L 680.984369 140.260454 
L 682.326253 140.260454 
L 683.668136 139.76711 
L 685.01002 136.313704 
L 686.351904 136.905717 
L 687.693788 136.905717 
L 689.035671 138.879092 
L 690.377555 137.39906 
L 691.719439 137.201723 
L 693.061323 136.215035 
L 694.403206 137.695067 
L 695.74509 132.860298 
L 697.086974 134.340329 
L 698.428858 136.412373 
L 699.770741 135.425685 
L 701.112625 135.129679 
L 702.454509 135.623023 
L 703.796393 135.623023 
L 705.138277 135.919029 
L 706.48016 135.721691 
L 707.822044 135.721691 
L 709.163928 138.97776 
L 710.505812 134.044323 
L 713.189579 133.649648 
L 715.873347 133.649648 
L 717.21523 132.860298 
L 718.557114 133.550979 
L 719.898998 134.636335 
L 721.240882 138.97776 
L 722.582766 139.471104 
L 723.924649 136.905717 
L 725.266533 136.905717 
L 726.608417 137.39906 
L 727.950301 136.412373 
L 729.292184 133.353641 
L 730.634068 134.24166 
L 731.975952 132.66296 
L 733.317836 133.45231 
L 736.001603 133.45231 
L 737.343487 134.438998 
L 738.685371 134.044323 
L 740.027255 131.676273 
L 741.369138 135.129679 
L 742.711022 131.380266 
L 744.052906 131.380266 
L 745.39479 132.465623 
L 746.736673 133.353641 
L 748.078557 133.254973 
L 749.420441 131.676273 
L 750.762325 134.438998 
L 752.104208 134.932341 
L 753.446092 138.97776 
L 754.787976 138.484417 
L 756.12986 134.636335 
L 757.471743 135.425685 
L 758.813627 132.169616 
L 760.155511 132.169616 
L 762.839279 133.254973 
L 764.181162 135.919029 
L 765.523046 135.721691 
L 766.86493 134.537666 
L 768.206814 139.372435 
L 769.548697 135.228348 
L 770.890581 135.623023 
L 772.232465 135.623023 
L 773.574349 135.228348 
L 774.916232 135.623023 
L 777.6 135.721691 
L 777.6 135.721691 
" style="fill:none;stroke:#ff7f0e;stroke-linecap:square;stroke-width:1.5;"/>
   </g>
   <g id="line2d_23">
    <path clip-path="url(#peb8e0a4744)" d="M 108 266.457792 
L 109.341884 264.97776 
L 110.683768 263.991073 
L 112.025651 257.577604 
L 113.367535 256.590916 
L 114.709419 256.29491 
L 116.051303 258.070948 
L 117.393186 256.886922 
L 118.73507 257.577604 
L 120.076954 257.577604 
L 121.418838 255.801566 
L 122.760721 261.129679 
L 124.102605 255.604229 
L 125.444489 255.012216 
L 126.786373 255.998904 
L 128.128257 256.29491 
L 130.812024 256.29491 
L 132.153908 255.50556 
L 133.495792 255.801566 
L 134.837675 254.518872 
L 136.179559 261.425685 
L 137.521443 253.236179 
L 138.863327 261.425685 
L 140.20521 260.636335 
L 141.547094 260.932341 
L 142.888978 259.846985 
L 144.230862 259.156304 
L 146.914629 255.604229 
L 148.256513 256.590916 
L 149.598397 256.590916 
L 150.940281 256.097572 
L 152.282164 256.590916 
L 153.624048 256.590916 
L 154.965932 256.097572 
L 156.307816 256.886922 
L 157.649699 254.518872 
L 158.991583 253.532185 
L 160.333467 254.71621 
L 161.675351 255.012216 
L 163.017234 255.012216 
L 164.359118 253.729522 
L 165.701002 252.742835 
L 167.042886 254.222866 
L 168.38477 254.518872 
L 169.726653 255.308222 
L 171.068537 253.532185 
L 172.410421 255.308222 
L 173.752305 254.814879 
L 175.094188 252.249491 
L 176.436072 252.545497 
L 177.777956 253.729522 
L 179.11984 253.729522 
L 180.461723 255.308222 
L 183.145491 255.801566 
L 184.487375 256.886922 
L 185.829259 257.380266 
L 187.171142 255.801566 
L 188.513026 253.334847 
L 189.85491 252.446829 
L 191.196794 253.433516 
L 192.538677 253.729522 
L 193.880561 255.308222 
L 195.222445 254.025529 
L 196.564329 254.71621 
L 197.906212 253.729522 
L 199.248096 254.222866 
L 200.58998 253.532185 
L 203.273747 254.025529 
L 204.615631 253.236179 
L 205.957515 254.321535 
L 207.299399 254.814879 
L 208.641283 254.025529 
L 211.32505 255.012216 
L 212.666934 254.321535 
L 214.008818 254.321535 
L 216.692585 253.828191 
L 218.034469 255.801566 
L 219.376353 255.801566 
L 222.06012 252.052153 
L 223.402004 250.177447 
L 224.743888 248.598747 
L 226.085772 247.414722 
L 227.427655 247.118716 
L 228.769539 246.625372 
L 230.111423 246.822709 
L 231.453307 254.025529 
L 232.79519 245.342678 
L 234.137074 246.329366 
L 235.478958 247.118716 
L 236.820842 247.118716 
L 238.162725 247.61206 
L 239.504609 247.118716 
L 240.846493 246.132028 
L 242.188377 247.118716 
L 243.530261 247.118716 
L 244.872144 253.828191 
L 246.214028 255.012216 
L 247.555912 253.236179 
L 248.897796 255.801566 
L 250.239679 256.097572 
L 251.581563 111.843853 
L 252.923447 113.718559 
L 254.265331 114.310572 
L 255.607214 114.014565 
L 256.949098 112.435865 
L 258.290982 113.225215 
L 259.632866 113.225215 
L 262.316633 112.238528 
L 263.658517 120.921378 
L 265.000401 112.238528 
L 266.342285 112.337197 
L 267.684168 113.61989 
L 269.026052 115.19859 
L 270.367936 114.113234 
L 271.70982 116.283947 
L 273.051703 115.98794 
L 274.393587 114.705247 
L 275.735471 120.724041 
L 277.077355 114.507909 
L 278.419238 112.435865 
L 279.761122 118.158653 
L 281.103006 117.369303 
L 282.44489 116.875959 
L 283.786774 116.875959 
L 285.128657 116.185278 
L 286.470541 106.219734 
L 287.812425 106.713078 
L 289.154309 108.09444 
L 290.496192 109.081128 
L 291.838076 111.547847 
L 293.17996 112.04119 
L 294.521844 113.027878 
L 295.863727 113.225215 
L 297.205611 112.83054 
L 298.547495 112.04119 
L 299.889379 112.337197 
L 301.231263 112.337197 
L 305.256914 110.857165 
L 306.598798 111.350509 
L 307.940681 110.857165 
L 309.282565 110.955834 
L 310.624449 109.870478 
L 311.966333 110.363821 
L 313.308216 110.659828 
L 314.6501 109.179796 
L 315.991984 105.331715 
L 317.333868 105.134377 
L 318.675752 105.923727 
L 320.017635 110.067815 
L 321.359519 108.587784 
L 322.701403 108.88379 
L 324.043287 109.870478 
L 325.38517 111.547847 
L 326.727054 111.745184 
L 328.068938 113.027878 
L 329.410822 115.19859 
L 332.094589 115.494597 
L 333.436473 115.98794 
L 334.778357 115.494597 
L 336.12024 118.158653 
L 337.462124 119.934691 
L 338.804008 118.651997 
L 340.145892 121.020047 
L 341.487776 120.230697 
L 342.829659 110.659828 
L 344.171543 119.737353 
L 345.513427 118.750666 
L 346.855311 108.291778 
L 348.197194 108.390446 
L 349.539078 106.910415 
L 352.222846 110.659828 
L 353.564729 110.659828 
L 354.906613 199.757713 
L 356.248497 200.547063 
L 357.590381 199.560376 
L 360.274148 199.560376 
L 362.957916 200.645732 
L 364.2998 200.152388 
L 365.641683 203.803132 
L 366.983567 200.152388 
L 368.325451 199.659045 
L 369.667335 201.63242 
L 371.009218 200.645732 
L 372.351102 200.152388 
L 373.692986 199.165701 
L 376.376754 199.659045 
L 377.718637 198.179013 
L 379.060521 199.659045 
L 380.402405 188.213469 
L 381.744289 196.402976 
L 383.086172 197.192326 
L 385.76994 197.68567 
L 387.111824 199.067032 
L 388.453707 199.26437 
L 389.795591 189.002819 
L 391.137475 185.450744 
L 392.479359 184.16805 
L 393.821242 181.109319 
L 395.163126 179.530619 
L 396.50501 180.122631 
L 399.188778 180.122631 
L 400.530661 188.410807 
L 401.872545 178.050587 
L 403.214429 177.261237 
L 404.556313 177.0639 
L 405.898196 177.557244 
L 408.581964 176.570556 
L 409.923848 175.583868 
L 411.265731 171.143774 
L 412.607615 189.792169 
L 413.949499 190.581519 
L 415.291383 192.061551 
L 416.633267 192.061551 
L 417.97515 188.509475 
L 419.317034 188.016132 
L 420.658918 189.792169 
L 422.000802 173.9065 
L 423.342685 175.189193 
L 424.684569 174.893187 
L 426.026453 174.399843 
L 427.368337 172.623806 
L 428.71022 172.130462 
L 430.052104 172.426468 
L 431.393988 171.341112 
L 432.735872 174.005168 
L 434.077756 171.341112 
L 435.419639 173.215818 
L 436.761523 174.202506 
L 438.103407 176.077212 
L 439.445291 174.498512 
L 440.787174 174.794518 
L 442.129058 174.794518 
L 443.470942 167.098356 
L 444.812826 169.170399 
L 446.154709 173.314487 
L 447.496593 173.314487 
L 448.838477 172.821143 
L 450.180361 172.821143 
L 451.522244 173.610493 
L 452.864128 174.103837 
L 454.206012 174.893187 
L 455.547896 171.045106 
L 456.88978 171.341112 
L 458.231663 169.269068 
L 459.573547 168.282381 
L 460.915431 168.282381 
L 462.257315 167.197024 
L 463.599198 164.927643 
L 466.282966 159.994205 
L 467.62485 169.170399 
L 468.966733 158.218168 
L 470.308617 158.02083 
L 471.650501 156.738136 
L 472.992385 156.244792 
L 474.334269 153.087392 
L 475.676152 154.172749 
L 477.018036 154.468755 
L 478.35992 154.468755 
L 479.701804 169.663743 
L 481.043687 154.468755 
L 482.385571 169.959749 
L 483.727455 171.538449 
L 485.069339 170.749099 
L 486.411222 172.623806 
L 487.753106 172.821143 
L 489.09499 171.538449 
L 490.436874 152.988724 
L 491.778758 152.49538 
L 493.120641 152.49538 
L 494.462525 151.804699 
L 495.804409 149.929992 
L 497.146293 150.225998 
L 498.488176 148.943305 
L 499.83006 148.745967 
L 501.171944 153.186061 
L 502.513828 148.943305 
L 503.855711 146.180579 
L 506.539479 148.745967 
L 507.881363 151.311355 
L 509.223246 152.890055 
L 510.56513 152.890055 
L 511.907014 162.460924 
L 513.248898 154.468755 
L 514.590782 157.330149 
L 515.932665 155.751449 
L 518.616433 154.764761 
L 519.958317 154.764761 
L 521.3002 154.271417 
L 522.642084 153.975411 
L 523.983968 153.28473 
L 525.325852 148.647298 
L 526.667735 147.660611 
L 528.009619 147.068598 
L 529.351503 145.292561 
L 530.693387 146.377917 
L 532.035271 146.871261 
L 533.377154 147.167267 
L 534.719038 146.180579 
L 536.060922 146.377917 
L 537.402806 152.199374 
L 538.744689 143.319186 
L 540.086573 144.799217 
L 541.428457 145.687236 
L 542.770341 145.884573 
L 544.112224 145.884573 
L 545.454108 145.687236 
L 546.795992 146.673923 
L 548.137876 146.96993 
L 549.47976 146.279248 
L 550.821643 151.903367 
L 552.163527 149.33798 
L 553.505411 149.929992 
L 554.847295 148.055286 
L 557.531062 149.140642 
L 558.872946 145.588567 
L 560.21483 145.095223 
L 561.556713 143.812529 
L 564.240481 143.319186 
L 565.582365 141.740486 
L 566.924248 140.951135 
L 568.266132 137.596398 
L 569.608016 138.879092 
L 570.9499 146.772592 
L 572.291784 139.175098 
L 573.633667 139.175098 
L 574.975551 137.892404 
L 576.317435 138.385748 
L 577.659319 138.484417 
L 579.001202 137.39906 
L 580.343086 137.695067 
L 581.68497 137.695067 
L 583.026854 145.785904 
L 584.368737 137.201723 
L 585.710621 136.905717 
L 587.052505 146.772592 
L 588.394389 147.068598 
L 589.736273 146.772592 
L 591.078156 147.068598 
L 592.42004 147.561942 
L 593.761924 146.081911 
L 595.103808 138.681754 
L 596.445691 138.089742 
L 597.787575 137.892404 
L 599.129459 137.39906 
L 600.471343 134.438998 
L 601.813226 133.945654 
L 603.15511 135.03101 
L 604.496994 135.327016 
L 605.838878 135.425685 
L 607.180762 136.116366 
L 608.522645 135.327016 
L 609.864529 136.116366 
L 611.206413 135.82036 
L 612.548297 135.327016 
L 613.89018 135.623023 
L 615.232064 134.044323 
L 616.573948 133.057635 
L 617.915832 132.564291 
L 619.257715 136.412373 
L 620.599599 133.649648 
L 621.941483 133.156304 
L 623.283367 136.708379 
L 625.967134 136.807048 
L 627.309018 136.017698 
L 628.650902 136.017698 
L 629.992786 136.511042 
L 631.334669 127.532185 
L 632.676553 126.545497 
L 634.018437 124.078778 
L 635.360321 123.585435 
L 636.702204 122.598747 
L 638.044088 122.598747 
L 639.385972 122.302741 
L 640.727856 121.61206 
L 642.069739 121.316053 
L 644.753507 121.414722 
L 646.095391 121.908066 
L 647.437275 121.118716 
L 648.779158 120.625372 
L 651.462926 121.118716 
L 652.80481 121.710728 
L 654.146693 121.710728 
L 655.488577 133.353641 
L 656.830461 130.788254 
L 658.172345 131.08426 
L 659.514228 131.08426 
L 660.856112 127.532185 
L 662.197996 127.729522 
L 663.53988 119.540016 
L 664.881764 121.118716 
L 666.223647 120.822709 
L 667.565531 121.414722 
L 668.907415 122.204072 
L 670.249299 122.204072 
L 671.591182 121.414722 
L 672.933066 119.441347 
L 674.27495 116.283947 
L 675.616834 119.145341 
L 676.958717 120.230697 
L 678.300601 119.737353 
L 679.642485 121.020047 
L 680.984369 119.244009 
L 682.326253 119.244009 
L 683.668136 118.948003 
L 685.01002 119.737353 
L 686.351904 118.355991 
L 687.693788 120.428034 
L 689.035671 123.585435 
L 690.377555 128.025529 
L 691.719439 122.302741 
L 693.061323 121.513391 
L 694.403206 121.316053 
L 695.74509 118.454659 
L 697.086974 119.540016 
L 698.428858 125.262803 
L 699.770741 124.276116 
L 701.112625 124.276116 
L 702.454509 123.782772 
L 703.796393 125.55881 
L 705.138277 124.374785 
L 706.48016 124.276116 
L 707.822044 124.374785 
L 709.163928 122.105403 
L 710.505812 124.868128 
L 711.847695 123.881441 
L 713.189579 124.374785 
L 714.531463 124.374785 
L 715.873347 123.388097 
L 717.21523 124.966797 
L 718.557114 124.078778 
L 719.898998 124.572122 
L 721.240882 122.302741 
L 722.582766 122.105403 
L 725.266533 123.092091 
L 726.608417 125.262803 
L 727.950301 125.262803 
L 729.292184 126.34816 
L 730.634068 125.55881 
L 731.975952 126.34816 
L 733.317836 126.841504 
L 736.001603 126.940172 
L 737.343487 127.13751 
L 738.685371 127.13751 
L 740.027255 128.518872 
L 741.369138 123.388097 
L 742.711022 131.577604 
L 744.052906 130.590916 
L 745.39479 132.958966 
L 746.736673 133.945654 
L 748.078557 135.82036 
L 749.420441 135.82036 
L 750.762325 138.97776 
L 752.104208 138.97776 
L 753.446092 138.287079 
L 754.787976 138.780423 
L 756.12986 123.585435 
L 757.471743 124.670791 
L 758.813627 124.177447 
L 760.155511 124.966797 
L 761.497395 126.052153 
L 762.839279 126.34816 
L 764.181162 137.300392 
L 765.523046 136.60971 
L 766.86493 135.03101 
L 768.206814 137.004385 
L 769.548697 137.991073 
L 770.890581 137.497729 
L 772.232465 137.300392 
L 773.574349 136.017698 
L 774.916232 136.017698 
L 776.258116 135.721691 
L 777.6 136.313704 
L 777.6 136.313704 
" style="fill:none;stroke:#2ca02c;stroke-linecap:square;stroke-width:1.5;"/>
   </g>
   <g id="line2d_24">
    <path clip-path="url(#peb8e0a4744)" d="M 108 188.410807 
L 109.341884 186.634769 
L 110.683768 185.450744 
L 112.025651 200.251057 
L 113.367535 199.757713 
L 114.709419 199.461707 
L 116.051303 205.973845 
L 117.393186 201.533751 
L 118.73507 203.408457 
L 120.076954 203.013782 
L 121.418838 198.672357 
L 122.760721 201.435082 
L 124.102605 201.731088 
L 125.444489 200.251057 
L 126.786373 201.731088 
L 128.128257 202.125764 
L 129.47014 201.731088 
L 130.812024 202.125764 
L 132.153908 196.600313 
L 133.495792 195.909632 
L 134.837675 192.850901 
L 136.179559 205.677839 
L 137.521443 189.200157 
L 138.863327 205.776507 
L 140.20521 203.408457 
L 141.547094 206.467189 
L 142.888978 203.704464 
L 144.230862 202.520439 
L 145.572745 201.139076 
L 146.914629 184.760063 
L 148.256513 186.338763 
L 149.598397 190.285513 
L 150.940281 188.509475 
L 152.282164 191.074863 
L 153.624048 191.074863 
L 154.965932 192.061551 
L 156.307816 196.304307 
L 157.649699 195.218951 
L 158.991583 189.200157 
L 160.333467 196.205638 
L 161.675351 197.488332 
L 163.017234 197.784338 
L 164.359118 195.514957 
L 165.701002 189.101488 
L 167.042886 194.330932 
L 168.38477 192.160219 
L 169.726653 194.429601 
L 171.068537 188.213469 
L 172.410421 194.922944 
L 173.752305 194.133594 
L 175.094188 184.760063 
L 176.436072 185.944088 
L 177.777956 186.240094 
L 179.11984 184.266719 
L 180.461723 183.280031 
L 181.803607 183.280031 
L 183.145491 200.349726 
L 184.487375 203.21112 
L 185.829259 202.619107 
L 187.171142 200.349726 
L 188.513026 195.317619 
L 189.85491 199.560376 
L 191.196794 202.816445 
L 192.538677 201.336413 
L 193.880561 197.68567 
L 196.564329 202.619107 
L 197.906212 199.067032 
L 199.248096 203.112451 
L 200.58998 200.05372 
L 201.931864 201.731088 
L 203.273747 201.040407 
L 204.615631 203.704464 
L 205.957515 207.15787 
L 207.299399 195.218951 
L 208.641283 205.677839 
L 209.983166 207.15787 
L 211.32505 199.26437 
L 212.666934 196.106969 
L 214.008818 195.218951 
L 215.350701 196.402976 
L 216.692585 196.106969 
L 218.034469 197.093657 
L 219.376353 210.709945 
L 220.718236 206.269851 
L 222.06012 203.013782 
L 223.402004 200.744401 
L 224.743888 199.757713 
L 226.085772 197.192326 
L 227.427655 197.192326 
L 228.769539 194.725607 
L 230.111423 194.232263 
L 231.453307 203.704464 
L 232.79519 189.989507 
L 234.137074 189.101488 
L 235.478958 191.370869 
L 236.820842 190.384182 
L 238.162725 194.034926 
L 239.504609 192.061551 
L 240.846493 187.226782 
L 242.188377 188.608144 
L 243.530261 184.069381 
L 244.872144 203.704464 
L 246.214028 213.077995 
L 247.555912 209.032576 
L 248.897796 214.854033 
L 250.239679 213.867345 
L 251.581563 78.296476 
L 252.923447 79.283164 
L 254.265331 77.21112 
L 255.607214 78.099139 
L 256.949098 78.395145 
L 258.290982 77.013782 
L 259.632866 73.26437 
L 260.974749 76.915114 
L 262.316633 74.645732 
L 263.658517 82.835239 
L 265.000401 74.84307 
L 266.342285 74.448395 
L 267.684168 78.00047 
L 269.026052 84.512608 
L 270.367936 82.539233 
L 271.70982 88.360689 
L 273.051703 87.867345 
L 274.393587 87.077995 
L 275.735471 84.31527 
L 277.077355 84.216601 
L 278.419238 81.552545 
L 279.761122 75.237745 
L 281.103006 74.941738 
L 282.44489 72.179013 
L 283.786774 73.363038 
L 285.128657 74.05372 
L 286.470541 79.283164 
L 287.812425 80.960532 
L 289.154309 83.624589 
L 290.496192 85.696633 
L 291.838076 91.024745 
L 293.17996 91.912764 
L 294.521844 92.110102 
L 295.863727 83.229914 
L 297.205611 90.728739 
L 298.547495 89.939389 
L 299.889379 89.84072 
L 301.231263 91.912764 
L 302.573146 91.912764 
L 303.91503 90.432733 
L 305.256914 90.235395 
L 307.940681 94.379483 
L 309.282565 75.237745 
L 310.624449 96.846202 
L 311.966333 76.42177 
L 313.308216 76.619107 
L 314.6501 73.363038 
L 315.991984 71.192326 
L 317.333868 70.205638 
L 318.675752 75.336413 
L 320.017635 107.206421 
L 322.701403 102.075646 
L 324.043287 103.457009 
L 325.38517 105.627721 
L 326.727054 105.331715 
L 328.068938 109.771809 
L 329.410822 113.521222 
L 330.752705 116.185278 
L 332.094589 111.843853 
L 333.436473 115.19859 
L 334.778357 115.19859 
L 336.12024 121.61206 
L 337.462124 121.020047 
L 338.804008 113.915897 
L 340.145892 116.875959 
L 341.487776 123.289428 
L 342.829659 92.011433 
L 344.171543 123.289428 
L 345.513427 127.729522 
L 346.855311 97.536883 
L 348.197194 100.003602 
L 349.539078 99.41159 
L 350.880962 103.753015 
L 352.222846 108.88379 
L 353.564729 111.547847 
L 354.906613 145.391229 
L 356.248497 146.081911 
L 357.590381 143.911198 
L 358.932265 143.319186 
L 360.274148 143.220517 
L 361.616032 138.287079 
L 362.957916 136.807048 
L 364.2998 133.353641 
L 365.641683 157.724824 
L 366.983567 132.860298 
L 368.325451 133.353641 
L 369.667335 137.103054 
L 371.009218 134.833673 
L 372.351102 136.116366 
L 373.692986 131.676273 
L 375.03487 131.676273 
L 376.376754 129.209554 
L 377.718637 153.580736 
L 379.060521 127.828191 
L 380.402405 126.545497 
L 381.744289 154.07408 
L 383.086172 151.607361 
L 384.428056 149.929992 
L 385.76994 149.732655 
L 387.111824 149.732655 
L 388.453707 145.588567 
L 389.795591 124.473453 
L 391.137475 123.092091 
L 392.479359 124.078778 
L 393.821242 114.705247 
L 395.163126 114.211903 
L 396.50501 116.185278 
L 397.846894 116.185278 
L 399.188778 113.61989 
L 400.530661 122.204072 
L 401.872545 114.310572 
L 403.214429 110.363821 
L 404.556313 113.027878 
L 405.898196 116.875959 
L 407.24008 116.382616 
L 408.581964 117.665309 
L 409.923848 112.435865 
L 411.265731 114.40924 
L 412.607615 120.033359 
L 413.949499 119.836022 
L 415.291383 134.24166 
L 416.633267 124.473453 
L 417.97515 123.092091 
L 419.317034 124.276116 
L 420.658918 124.473453 
L 422.000802 112.929209 
L 423.342685 115.395928 
L 424.684569 116.678622 
L 426.026453 117.566641 
L 427.368337 116.579953 
L 428.71022 114.606578 
L 430.052104 113.521222 
L 431.393988 113.422553 
L 432.735872 120.329366 
L 434.077756 108.982459 
L 435.419639 111.547847 
L 436.761523 116.777291 
L 438.103407 118.553328 
L 439.445291 118.257322 
L 440.787174 114.902584 
L 442.129058 121.809397 
L 443.470942 119.244009 
L 444.812826 122.598747 
L 446.154709 115.691934 
L 447.496593 117.862647 
L 448.838477 114.40924 
L 450.180361 113.521222 
L 451.522244 114.113234 
L 452.864128 116.086609 
L 454.206012 113.718559 
L 455.547896 116.382616 
L 456.88978 117.566641 
L 458.231663 111.054503 
L 459.573547 111.843853 
L 460.915431 110.166484 
L 462.257315 110.857165 
L 463.599198 109.969146 
L 464.941082 105.72639 
L 466.282966 103.35834 
L 467.62485 120.625372 
L 468.966733 98.918246 
L 470.308617 98.227565 
L 471.650501 96.944871 
L 472.992385 96.352858 
L 474.334269 94.971496 
L 475.676152 97.734221 
L 477.018036 98.720908 
L 478.35992 98.720908 
L 479.701804 123.782772 
L 481.043687 99.016915 
L 482.385571 118.948003 
L 483.727455 116.283947 
L 485.069339 114.902584 
L 486.411222 120.132028 
L 487.753106 118.750666 
L 489.09499 119.046672 
L 490.436874 96.155521 
L 491.778758 95.366171 
L 493.120641 94.872827 
L 494.462525 92.998121 
L 495.804409 87.571339 
L 497.146293 84.907283 
L 498.488176 85.400626 
L 499.83006 90.432733 
L 501.171944 97.734221 
L 502.513828 88.26202 
L 503.855711 89.742052 
L 505.197595 89.446045 
L 506.539479 96.648865 
L 507.881363 97.734221 
L 509.223246 102.667659 
L 510.56513 105.923727 
L 511.907014 118.750666 
L 513.248898 98.720908 
L 514.590782 110.659828 
L 515.932665 108.982459 
L 517.274549 100.891621 
L 518.616433 100.398277 
L 519.958317 100.20094 
L 521.3002 100.20094 
L 522.642084 98.030227 
L 523.983968 95.070164 
L 525.325852 99.904933 
L 526.667735 99.510258 
L 528.009619 97.83289 
L 529.351503 95.464839 
L 530.693387 98.326233 
L 532.035271 99.214252 
L 533.377154 99.41159 
L 534.719038 99.904933 
L 536.060922 101.878309 
L 537.402806 104.345027 
L 538.744689 98.326233 
L 540.086573 102.272984 
L 542.770341 102.56899 
L 544.112224 103.753015 
L 545.454108 104.443696 
L 546.795992 109.081128 
L 548.137876 107.206421 
L 549.47976 105.035709 
L 550.821643 103.753015 
L 552.163527 99.510258 
L 553.505411 102.272984 
L 554.847295 98.030227 
L 556.189178 102.075646 
L 557.531062 100.595615 
L 558.872946 102.667659 
L 560.21483 105.233046 
L 561.556713 104.246359 
L 562.898597 106.318403 
L 564.240481 106.318403 
L 565.582365 103.950352 
L 566.924248 102.766327 
L 568.266132 101.77964 
L 569.608016 105.627721 
L 570.9499 105.430384 
L 572.291784 102.667659 
L 573.633667 102.470321 
L 574.975551 96.846202 
L 576.317435 97.04354 
L 577.659319 94.280814 
L 579.001202 92.702114 
L 580.343086 94.576821 
L 581.68497 94.576821 
L 583.026854 103.457009 
L 584.368737 94.083477 
L 585.710621 94.379483 
L 587.052505 106.713078 
L 588.394389 105.72639 
L 589.736273 105.923727 
L 591.078156 107.206421 
L 592.42004 107.009084 
L 593.761924 103.851684 
L 595.103808 104.345027 
L 596.445691 105.233046 
L 597.787575 104.345027 
L 599.129459 101.680971 
L 600.471343 105.529052 
L 601.813226 104.542365 
L 603.15511 104.739702 
L 604.496994 104.443696 
L 605.838878 91.715427 
L 607.180762 109.081128 
L 608.522645 106.417071 
L 609.864529 108.587784 
L 611.206413 106.614409 
L 612.548297 107.403759 
L 613.89018 106.713078 
L 615.232064 104.93704 
L 616.573948 101.384965 
L 617.915832 100.694283 
L 619.257715 93.688802 
L 620.599599 103.851684 
L 621.941483 105.233046 
L 623.283367 97.734221 
L 624.625251 97.240877 
L 625.967134 98.227565 
L 627.309018 94.675489 
L 628.650902 95.662177 
L 629.992786 98.227565 
L 631.334669 96.648865 
L 632.676553 92.208771 
L 634.018437 92.998121 
L 635.360321 91.616758 
L 636.702204 88.755364 
L 638.044088 88.755364 
L 639.385972 89.939389 
L 640.727856 84.709945 
L 643.411623 83.821926 
L 644.753507 84.117933 
L 646.095391 84.117933 
L 647.437275 82.440564 
L 648.779158 81.059201 
L 650.121042 84.907283 
L 651.462926 83.52592 
L 652.80481 83.821926 
L 654.146693 83.032576 
L 655.488577 105.035709 
L 656.830461 101.680971 
L 658.172345 102.075646 
L 659.514228 104.345027 
L 660.856112 97.240877 
L 662.197996 97.04354 
L 663.53988 121.908066 
L 664.881764 126.052153 
L 667.565531 126.052153 
L 670.249299 124.572122 
L 671.591182 121.217384 
L 672.933066 116.382616 
L 674.27495 127.729522 
L 675.616834 118.059984 
L 676.958717 120.921378 
L 678.300601 120.428034 
L 679.642485 123.782772 
L 680.984369 119.046672 
L 682.326253 119.244009 
L 683.668136 120.625372 
L 685.01002 124.276116 
L 686.351904 131.87361 
L 687.693788 130.196241 
L 689.035671 134.636335 
L 690.377555 143.023179 
L 691.719439 128.617541 
L 693.061323 128.518872 
L 694.403206 124.966797 
L 695.74509 120.724041 
L 697.086974 123.881441 
L 698.428858 134.24166 
L 699.770741 131.676273 
L 701.112625 129.406891 
L 702.454509 125.854816 
L 703.796393 131.380266 
L 705.138277 129.406891 
L 706.48016 128.71621 
L 707.822044 132.761629 
L 709.163928 128.420204 
L 710.505812 131.577604 
L 711.847695 127.433516 
L 713.189579 131.577604 
L 714.531463 130.196241 
L 715.873347 130.590916 
L 717.21523 133.945654 
L 719.898998 127.13751 
L 721.240882 127.236179 
L 722.582766 125.065466 
L 723.924649 127.038841 
L 725.266533 127.92686 
L 726.608417 132.169616 
L 727.950301 134.142991 
L 729.292184 135.623023 
L 730.634068 134.24166 
L 731.975952 138.089742 
L 733.317836 135.425685 
L 734.659719 135.623023 
L 736.001603 138.879092 
L 737.343487 138.583085 
L 740.027255 135.721691 
L 741.369138 122.697416 
L 742.711022 145.884573 
L 744.052906 144.404542 
L 745.39479 154.370086 
L 746.736673 153.383399 
L 748.078557 159.59953 
L 749.420441 157.527486 
L 750.762325 161.276899 
L 752.104208 157.428818 
L 753.446092 154.764761 
L 754.787976 152.396711 
L 756.12986 121.809397 
L 757.471743 125.854816 
L 758.813627 125.854816 
L 760.155511 128.814879 
L 761.497395 134.438998 
L 762.839279 135.425685 
L 764.181162 151.410023 
L 765.523046 147.068598 
L 766.86493 140.852467 
L 768.206814 145.983242 
L 769.548697 150.12733 
L 770.890581 146.180579 
L 772.232465 147.167267 
L 773.574349 147.561942 
L 774.916232 146.96993 
L 776.258116 145.884573 
L 777.6 147.75928 
L 777.6 147.75928 
" style="fill:none;stroke:#d62728;stroke-linecap:square;stroke-width:1.5;"/>
   </g>
   <g id="line2d_25">
    <path clip-path="url(#peb8e0a4744)" d="M 108 142.529836 
L 109.341884 139.668442 
L 110.683768 138.780423 
L 112.025651 157.23148 
L 113.367535 156.836805 
L 114.709419 157.23148 
L 116.051303 165.519655 
L 117.393186 161.868912 
L 118.73507 162.954268 
L 120.076954 162.559593 
L 121.418838 159.204855 
L 122.760721 157.034143 
L 124.102605 162.658262 
L 125.444489 161.770243 
L 126.786373 163.447612 
L 128.128257 163.842287 
L 129.47014 163.644949 
L 130.812024 164.730305 
L 132.153908 158.02083 
L 133.495792 155.751449 
L 134.837675 151.70603 
L 136.179559 162.362255 
L 137.521443 148.055286 
L 138.863327 162.362255 
L 140.20521 159.994205 
L 141.547094 163.743618 
L 142.888978 160.684886 
L 144.230862 159.106186 
L 145.572745 158.119499 
L 146.914629 141.247142 
L 148.256513 142.431167 
L 149.598397 146.476586 
L 150.940281 143.713861 
L 152.282164 145.292561 
L 153.624048 145.292561 
L 154.965932 147.068598 
L 156.307816 152.298042 
L 157.649699 151.311355 
L 158.991583 148.055286 
L 160.333467 152.692717 
L 161.675351 154.666092 
L 163.017234 155.159436 
L 164.359118 152.692717 
L 165.701002 145.292561 
L 167.042886 149.239311 
L 168.38477 146.575255 
L 169.726653 149.33798 
L 171.068537 146.871261 
L 172.410421 150.225998 
L 173.752305 148.844636 
L 175.094188 143.713861 
L 176.436072 145.095223 
L 177.777956 145.785904 
L 179.11984 141.740486 
L 180.461723 139.964448 
L 181.803607 139.964448 
L 183.145491 158.218168 
L 184.487375 159.204855 
L 185.829259 158.415505 
L 187.171142 155.948786 
L 188.513026 151.114017 
L 189.85491 155.850117 
L 191.196794 159.796868 
L 192.538677 158.612843 
L 193.880561 153.087392 
L 195.222445 157.330149 
L 196.564329 159.994205 
L 197.906212 156.639468 
L 199.248096 161.375568 
L 200.58998 158.711511 
L 201.931864 161.375568 
L 203.273747 160.783555 
L 204.615631 162.362255 
L 205.957515 165.322318 
L 207.299399 151.311355 
L 208.641283 164.631637 
L 209.983166 166.210337 
L 211.32505 156.44213 
L 212.666934 152.002036 
L 214.008818 151.114017 
L 215.350701 152.692717 
L 216.692585 152.199374 
L 218.034469 153.482067 
L 219.376353 169.269068 
L 220.718236 164.828974 
L 222.06012 161.572905 
L 223.402004 159.007518 
L 224.743888 159.59953 
L 226.085772 158.119499 
L 227.427655 158.119499 
L 228.769539 154.962099 
L 230.111423 153.778074 
L 231.453307 161.671574 
L 232.79519 151.114017 
L 234.137074 150.620673 
L 235.478958 153.087392 
L 236.820842 152.199374 
L 238.162725 156.146124 
L 239.504609 154.764761 
L 240.846493 147.463273 
L 242.188377 147.660611 
L 243.530261 144.601879 
L 244.872144 161.671574 
L 246.214028 171.834456 
L 247.555912 167.591699 
L 248.897796 173.9065 
L 250.239679 172.722475 
L 251.581563 62.213469 
L 252.923447 64.976194 
L 254.265331 62.90415 
L 255.607214 63.6935 
L 256.949098 63.989507 
L 258.290982 63.298825 
L 259.632866 58.9574 
L 260.974749 61.917463 
L 262.316633 60.042756 
L 263.658517 70.896319 
L 265.000401 60.437431 
L 266.342285 59.648081 
L 267.684168 62.509475 
L 269.026052 68.429601 
L 270.367936 66.949569 
L 271.70982 71.784338 
L 274.393587 70.600313 
L 275.735471 73.363038 
L 277.077355 67.640251 
L 279.761122 61.522788 
L 281.103006 60.930775 
L 282.44489 56.392013 
L 283.786774 56.58935 
L 285.128657 59.056069 
L 286.470541 64.48285 
L 287.812425 65.370869 
L 289.154309 66.850901 
L 290.496192 68.528269 
L 291.838076 72.968363 
L 293.17996 73.757713 
L 294.521844 73.165701 
L 295.863727 66.160219 
L 297.205611 73.363038 
L 298.547495 72.968363 
L 299.889379 72.968363 
L 301.231263 74.84307 
L 302.573146 74.645732 
L 303.91503 73.560376 
L 305.256914 73.560376 
L 306.598798 73.363038 
L 307.940681 76.224432 
L 309.282565 57.674706 
L 310.624449 80.072514 
L 311.966333 58.661394 
L 313.308216 59.549413 
L 314.6501 56.58935 
L 315.991984 55.997338 
L 317.333868 55.8 
L 318.675752 61.029444 
L 320.017635 92.899452 
L 321.359519 91.320752 
L 322.701403 88.163352 
L 324.043287 87.966014 
L 325.38517 89.742052 
L 326.727054 89.939389 
L 329.410822 96.846202 
L 330.752705 102.864996 
L 332.094589 98.326233 
L 333.436473 100.299608 
L 334.778357 100.299608 
L 336.12024 105.430384 
L 337.462124 103.950352 
L 338.804008 98.128896 
L 340.145892 101.680971 
L 341.487776 107.403759 
L 342.829659 75.533751 
L 344.171543 107.403759 
L 345.513427 110.363821 
L 346.855311 82.73657 
L 348.197194 87.768677 
L 349.539078 87.571339 
L 350.880962 90.038058 
L 352.222846 93.392796 
L 353.564729 96.25419 
L 354.906613 122.894753 
L 356.248497 125.065466 
L 357.590381 123.782772 
L 358.932265 123.585435 
L 360.274148 124.868128 
L 361.616032 120.132028 
L 364.2998 112.83054 
L 365.641683 138.089742 
L 366.983567 112.633203 
L 368.325451 113.323884 
L 369.667335 117.171966 
L 371.009218 114.113234 
L 372.351102 116.481284 
L 373.692986 112.929209 
L 375.03487 113.126547 
L 376.376754 109.081128 
L 377.718637 132.465623 
L 379.060521 106.614409 
L 380.402405 107.798434 
L 381.744289 134.142991 
L 383.086172 133.353641 
L 384.428056 131.08426 
L 385.76994 131.08426 
L 387.111824 130.689585 
L 388.453707 123.684103 
L 389.795591 93.491464 
L 391.137475 93.392796 
L 392.479359 95.859514 
L 393.821242 87.966014 
L 395.163126 88.656695 
L 396.50501 91.912764 
L 397.846894 91.912764 
L 399.188778 90.334064 
L 400.530661 100.891621 
L 401.872545 90.136727 
L 403.214429 84.117933 
L 404.556313 87.374002 
L 405.898196 92.603446 
L 407.24008 91.715427 
L 408.581964 92.800783 
L 409.923848 89.150039 
L 411.265731 92.800783 
L 412.607615 95.070164 
L 413.949499 94.675489 
L 415.291383 108.09444 
L 416.633267 98.62224 
L 417.97515 95.760846 
L 419.317034 96.352858 
L 420.658918 93.491464 
L 422.000802 88.755364 
L 423.342685 92.603446 
L 424.684569 94.774158 
L 426.026453 97.240877 
L 427.368337 96.550196 
L 428.71022 94.675489 
L 430.052104 93.688802 
L 431.393988 93.590133 
L 432.735872 98.030227 
L 434.077756 89.248708 
L 435.419639 91.123414 
L 436.761523 96.846202 
L 438.103407 97.83289 
L 439.445291 97.04354 
L 440.787174 93.984808 
L 442.129058 101.582302 
L 443.470942 100.792952 
L 444.812826 104.93704 
L 446.154709 92.406108 
L 447.496593 94.379483 
L 448.838477 90.926077 
L 450.180361 90.63007 
L 451.522244 91.123414 
L 452.864128 93.491464 
L 454.206012 89.643383 
L 455.547896 99.016915 
L 456.88978 101.187627 
L 458.231663 94.872827 
L 459.573547 96.648865 
L 460.915431 94.872827 
L 462.257315 96.25419 
L 463.599198 96.155521 
L 464.941082 91.715427 
L 466.282966 87.966014 
L 467.62485 102.963665 
L 468.966733 83.328583 
L 471.650501 81.651214 
L 472.992385 79.480501 
L 474.334269 76.323101 
L 475.676152 81.059201 
L 477.018036 83.427251 
L 478.35992 83.427251 
L 479.701804 105.72639 
L 481.043687 83.821926 
L 482.385571 100.99029 
L 485.069339 95.760846 
L 486.411222 101.582302 
L 487.753106 100.496946 
L 489.09499 100.99029 
L 490.436874 82.933908 
L 493.120641 81.848551 
L 494.462525 79.184495 
L 495.804409 72.277682 
L 497.146293 69.120282 
L 498.488176 68.034926 
L 499.83006 73.461707 
L 501.171944 82.539233 
L 502.513828 71.488332 
L 503.855711 73.659045 
L 505.197595 73.165701 
L 506.539479 79.973845 
L 507.881363 81.651214 
L 509.223246 86.189977 
L 510.56513 89.446045 
L 511.907014 100.102271 
L 513.248898 81.749883 
L 514.590782 93.491464 
L 515.932665 93.195458 
L 517.274549 84.512608 
L 519.958317 84.019264 
L 521.3002 84.117933 
L 522.642084 82.144558 
L 523.983968 78.78982 
L 525.325852 84.117933 
L 526.667735 84.117933 
L 528.009619 82.835239 
L 529.351503 81.94722 
L 530.693387 85.795301 
L 532.035271 87.077995 
L 533.377154 87.176664 
L 534.719038 87.571339 
L 536.060922 89.544714 
L 537.402806 89.05137 
L 538.744689 85.597964 
L 540.086573 89.347377 
L 542.770341 90.136727 
L 544.112224 91.024745 
L 545.454108 91.518089 
L 546.795992 96.451527 
L 548.137876 95.168833 
L 549.47976 93.195458 
L 550.821643 88.656695 
L 552.163527 84.907283 
L 553.505411 86.68332 
L 554.847295 81.94722 
L 556.189178 87.077995 
L 557.531062 84.512608 
L 558.872946 92.504777 
L 560.21483 95.168833 
L 561.556713 94.280814 
L 562.898597 96.25419 
L 564.240481 96.25419 
L 565.582365 93.590133 
L 566.924248 93.195458 
L 568.266132 91.715427 
L 569.608016 95.366171 
L 570.9499 93.590133 
L 572.291784 89.742052 
L 573.633667 89.939389 
L 574.975551 83.328583 
L 576.317435 84.31527 
L 577.659319 82.045889 
L 579.001202 81.15787 
L 580.343086 83.52592 
L 581.68497 83.328583 
L 583.026854 92.110102 
L 584.368737 81.848551 
L 585.710621 83.131245 
L 587.052505 95.859514 
L 588.394389 94.971496 
L 591.078156 96.747533 
L 592.42004 96.648865 
L 593.761924 93.392796 
L 595.103808 91.912764 
L 596.445691 92.800783 
L 597.787575 91.518089 
L 599.129459 89.248708 
L 600.471343 92.800783 
L 601.813226 92.208771 
L 603.15511 92.800783 
L 604.496994 92.406108 
L 605.838878 78.888489 
L 607.180762 97.240877 
L 608.522645 94.971496 
L 609.864529 97.04354 
L 611.206413 96.352858 
L 612.548297 97.83289 
L 613.89018 97.04354 
L 615.232064 94.576821 
L 616.573948 90.827408 
L 617.915832 90.63007 
L 619.257715 80.763195 
L 620.599599 93.294127 
L 621.941483 93.195458 
L 623.283367 84.216601 
L 624.625251 83.723258 
L 625.967134 84.808614 
L 627.309018 81.651214 
L 628.650902 82.933908 
L 629.992786 86.387314 
L 631.334669 85.795301 
L 632.676553 81.256539 
L 634.018437 82.835239 
L 635.360321 81.94722 
L 636.702204 79.480501 
L 638.044088 79.381832 
L 639.385972 79.973845 
L 640.727856 73.757713 
L 642.069739 72.869695 
L 643.411623 73.067032 
L 644.753507 72.771026 
L 646.095391 72.869695 
L 647.437275 70.600313 
L 648.779158 69.712294 
L 650.121042 74.645732 
L 651.462926 73.955051 
L 652.80481 72.968363 
L 654.146693 72.573688 
L 655.488577 92.998121 
L 656.830461 89.446045 
L 658.172345 88.854033 
L 659.514228 91.419421 
L 660.856112 85.400626 
L 662.197996 85.10462 
L 663.53988 104.443696 
L 664.881764 109.081128 
L 666.223647 109.081128 
L 667.565531 108.390446 
L 668.907415 107.206421 
L 670.249299 106.318403 
L 671.591182 104.049021 
L 672.933066 100.299608 
L 674.27495 110.363821 
L 675.616834 101.77964 
L 676.958717 104.93704 
L 678.300601 104.049021 
L 679.642485 107.403759 
L 680.984369 103.161002 
L 682.326253 103.555677 
L 683.668136 104.246359 
L 685.01002 107.995771 
L 686.351904 115.593265 
L 687.693788 111.153171 
L 689.035671 115.593265 
L 690.377555 123.585435 
L 691.719439 112.139859 
L 693.061323 112.139859 
L 695.74509 106.022396 
L 697.086974 107.798434 
L 698.428858 115.494597 
L 699.770741 113.521222 
L 701.112625 110.363821 
L 702.454509 108.09444 
L 703.796393 113.422553 
L 706.48016 111.646515 
L 707.822044 115.297259 
L 709.163928 110.561159 
L 710.505812 114.113234 
L 711.847695 109.475803 
L 713.189579 113.521222 
L 714.531463 112.337197 
L 715.873347 112.139859 
L 717.21523 115.099922 
L 718.557114 110.363821 
L 719.898998 107.30509 
L 721.240882 109.870478 
L 722.582766 106.51574 
L 723.924649 108.587784 
L 725.266533 108.982459 
L 726.608417 113.225215 
L 727.950301 115.494597 
L 729.292184 115.889272 
L 730.634068 114.803915 
L 731.975952 118.849334 
L 733.317836 116.382616 
L 734.659719 115.889272 
L 736.001603 119.737353 
L 737.343487 119.441347 
L 738.685371 118.355991 
L 740.027255 117.073297 
L 741.369138 103.161002 
L 742.711022 126.249491 
L 744.052906 124.868128 
L 745.39479 134.932341 
L 746.736673 133.550979 
L 748.078557 138.089742 
L 749.420441 136.116366 
L 750.762325 140.457792 
L 752.104208 139.471104 
L 753.446092 137.892404 
L 754.787976 135.82036 
L 756.12986 102.470321 
L 757.471743 106.614409 
L 758.813627 107.107753 
L 760.155511 109.67314 
L 761.497395 114.803915 
L 762.839279 115.889272 
L 764.181162 132.169616 
L 765.523046 128.814879 
L 766.86493 122.598747 
L 768.206814 128.420204 
L 769.548697 131.478935 
L 770.890581 126.841504 
L 772.232465 127.92686 
L 773.574349 128.814879 
L 774.916232 128.420204 
L 776.258116 126.742835 
L 777.6 128.518872 
L 777.6 128.518872 
" style="fill:none;stroke:#9467bd;stroke-linecap:square;stroke-width:1.5;"/>
   </g>
   <g id="patch_3">
    <path d="M 108 320.4 
L 108 43.2 
" style="fill:none;stroke:#000000;stroke-linecap:square;stroke-linejoin:miter;stroke-width:0.8;"/>
   </g>
   <g id="patch_4">
    <path d="M 777.6 320.4 
L 777.6 43.2 
" style="fill:none;stroke:#000000;stroke-linecap:square;stroke-linejoin:miter;stroke-width:0.8;"/>
   </g>
   <g id="patch_5">
    <path d="M 108 320.4 
L 777.6 320.4 
" style="fill:none;stroke:#000000;stroke-linecap:square;stroke-linejoin:miter;stroke-width:0.8;"/>
   </g>
   <g id="patch_6">
    <path d="M 108 43.2 
L 777.6 43.2 
" style="fill:none;stroke:#000000;stroke-linecap:square;stroke-linejoin:miter;stroke-width:0.8;"/>
   </g>
   <g id="text_12">
    <!-- 美国国债收益率 -->
    <defs>
     <path d="M 2.34375 37.546875 
L 46.1875 37.546875 
L 46.1875 46.734375 
L 10.359375 46.734375 
L 10.359375 53.375 
L 46.1875 53.375 
L 46.1875 62.359375 
L 4.5 62.359375 
L 4.5 69 
L 35.296875 69 
Q 30.28125 73.34375 22.265625 79.4375 
L 26.765625 84.328125 
Q 35.25 78.5625 40.921875 74.265625 
L 35.75 69 
L 61.71875 69 
L 58.109375 73.09375 
Q 65.828125 78.46875 72.078125 83.9375 
L 77.828125 78.46875 
Q 71.578125 73.78125 64.3125 69 
L 96.09375 69 
L 96.09375 62.359375 
L 54.203125 62.359375 
L 54.203125 53.375 
L 90.828125 53.375 
L 90.828125 46.734375 
L 54.203125 46.734375 
L 54.203125 37.546875 
L 97.859375 37.546875 
L 97.859375 30.90625 
L 2.34375 30.90625 
z
M 98.640625 -4.734375 
Q 94.921875 -9.71875 92.96875 -12.84375 
Q 60.890625 -6.546875 50.25 12.546875 
Q 40.71875 -7.625 6.34375 -13.625 
Q 4.390625 -10.296875 1.5625 -6.203125 
Q 34.375 -1.65625 42.828125 14.3125 
L 3.71875 14.3125 
L 3.71875 20.953125 
L 45.515625 20.953125 
Q 46.484375 24.359375 47.078125 28.765625 
L 55.078125 28.765625 
Q 54.296875 24.46875 53.328125 20.953125 
L 96.875 20.953125 
L 96.875 14.3125 
L 56.734375 14.3125 
Q 68.171875 -2.15625 98.640625 -4.734375 
z
" id="MicrosoftYaHei-7f8e"/>
     <path d="M 7.328125 78.078125 
L 92.78125 78.078125 
L 92.78125 -13.03125 
L 85.25 -13.03125 
L 85.25 -8.15625 
L 14.84375 -8.15625 
L 14.84375 -13.140625 
L 7.328125 -13.140625 
z
M 85.25 71.140625 
L 14.84375 71.140625 
L 14.84375 -1.21875 
L 85.25 -1.21875 
z
M 19.34375 15.765625 
L 46.296875 15.765625 
L 46.296875 35.109375 
L 22.75 35.109375 
L 22.75 41.75 
L 46.296875 41.75 
L 46.296875 54.828125 
L 20.90625 54.828125 
L 20.90625 61.46875 
L 79.109375 61.46875 
L 79.109375 54.828125 
L 53.515625 54.828125 
L 53.515625 41.75 
L 77.15625 41.75 
L 77.15625 35.109375 
L 53.515625 35.109375 
L 53.515625 15.765625 
L 80.671875 15.765625 
L 80.671875 9.125 
L 19.34375 9.125 
z
M 58.59375 28.859375 
L 64.0625 32.953125 
Q 69.4375 27.390625 73.25 22.515625 
L 67.484375 18.109375 
Q 62.796875 24.46875 58.59375 28.859375 
z
" id="MicrosoftYaHei-56fd"/>
     <path d="M 26.859375 47.40625 
L 58.984375 47.40625 
L 58.984375 54.34375 
L 34.1875 54.34375 
L 34.1875 60.5 
L 58.984375 60.5 
L 58.984375 67.328125 
L 31.0625 67.328125 
L 31.0625 73.484375 
L 58.984375 73.484375 
L 58.984375 82.171875 
L 66.3125 82.171875 
L 66.3125 73.484375 
L 95.125 73.484375 
L 95.125 67.328125 
L 66.3125 67.328125 
L 66.3125 60.5 
L 90.328125 60.5 
L 90.328125 54.34375 
L 66.3125 54.34375 
L 66.3125 47.40625 
L 97.953125 47.40625 
L 97.953125 41.265625 
L 26.859375 41.265625 
z
M 1.265625 35.203125 
Q 12.890625 54.25 19.34375 82.375 
L 26.46875 81.109375 
Q 23.640625 70.65625 20.40625 61.375 
L 20.40625 -13.71875 
L 13.28125 -13.71875 
L 13.28125 44.09375 
Q 8.890625 35.015625 3.90625 27.390625 
Q 2.734375 31.390625 1.265625 35.203125 
z
M 34.859375 34.625 
L 89.15625 34.625 
L 89.15625 4.4375 
L 82.03125 4.4375 
L 82.03125 28.265625 
L 42 28.265625 
L 42 3.953125 
L 34.859375 3.953125 
z
M 58.5 25.140625 
L 65.625 25.140625 
Q 65.625 17.046875 64.0625 10.984375 
Q 80.5625 2.78125 97.265625 -7.765625 
L 92.875 -14.015625 
Q 77.546875 -3.953125 61.921875 4.9375 
Q 60.546875 2.09375 58.6875 0.046875 
Q 50.875 -8.9375 31.453125 -13.921875 
Q 28.515625 -8.453125 27.25 -6.890625 
Q 45.90625 -2.875 52.25 3.859375 
Q 58.5 9.8125 58.5 25.140625 
z
" id="MicrosoftYaHei-503a"/>
     <path d="M 35.0625 41.546875 
Q 47.5625 63.234375 53.125 83.453125 
L 61.03125 81.203125 
Q 57.90625 72.171875 54.5 63.921875 
L 97.078125 63.921875 
L 97.078125 56.6875 
L 85.59375 56.6875 
Q 84.125 28.421875 71.09375 10.640625 
Q 81 1.859375 99.21875 -4.640625 
Q 96.1875 -8.453125 93.65625 -12.453125 
Q 76.265625 -5.03125 65.921875 4.6875 
Q 56.5 -4.59375 39.84375 -13.328125 
Q 37.796875 -10.109375 34.859375 -6.78125 
Q 51.515625 1.5625 60.59375 10.5 
Q 49.3125 24.609375 46 45.5625 
Q 43.265625 40.234375 40.328125 35.296875 
Q 38.484375 38.140625 35.0625 41.546875 
z
M 26.265625 82.671875 
L 33.6875 82.671875 
L 33.6875 -12.75 
L 26.265625 -12.75 
L 26.265625 17.390625 
Q 20.3125 14.0625 14.15625 10.015625 
Q 11.625 8.15625 9.1875 5.609375 
L 3.609375 12.15625 
Q 6.640625 15.375 6.640625 20.5625 
L 6.640625 69 
L 14.0625 69 
L 14.0625 19 
Q 19.875 22.078125 26.265625 25.53125 
z
M 77.875 56.6875 
L 51.90625 56.6875 
Q 53.328125 32.859375 65.671875 16.546875 
Q 76.8125 32.234375 77.875 56.6875 
z
" id="MicrosoftYaHei-6536"/>
     <path d="M 1.765625 -1.609375 
L 15.921875 -1.609375 
L 15.921875 31.203125 
L 84.46875 31.203125 
L 84.46875 -1.609375 
L 97.953125 -1.609375 
L 97.953125 -8.453125 
L 1.765625 -8.453125 
z
M 4.109375 64.3125 
L 57.375 64.3125 
Q 66.015625 72.65625 74.125 83.34375 
L 81.25 78.859375 
Q 74.609375 71.140625 67.671875 64.3125 
L 96.484375 64.3125 
L 96.484375 57.46875 
L 4.109375 57.46875 
z
M 77.4375 24.5625 
L 63.765625 24.5625 
L 63.765625 -1.609375 
L 77.4375 -1.609375 
z
M 22.953125 -1.609375 
L 36.53125 -1.609375 
L 36.53125 24.5625 
L 22.953125 24.5625 
z
M 43.359375 -1.609375 
L 56.9375 -1.609375 
L 56.9375 24.5625 
L 43.359375 24.5625 
z
M 36.53125 54.4375 
L 41.3125 48.09375 
Q 26.078125 38.8125 7.125 29.25 
Q 5.171875 33.0625 3.125 36.078125 
Q 21.390625 44.875 36.53125 54.4375 
z
M 59.28125 48.296875 
L 63.28125 54.25 
Q 82.8125 45.0625 97.078125 37.25 
L 92.78125 30.03125 
Q 73.53125 41.15625 59.28125 48.296875 
z
M 19.34375 78.375 
L 24.421875 83.453125 
Q 32.8125 77.390625 39.546875 71.625 
L 33.984375 65.765625 
Q 27.640625 71.828125 19.34375 78.375 
z
" id="MicrosoftYaHei-76ca"/>
     <path d="M 39.453125 31.390625 
Q 40.96875 31.5 61.375 32.515625 
Q 58.9375 35.9375 56.640625 38.921875 
L 61.921875 42.234375 
Q 68.953125 34.421875 74.90625 25.828125 
L 68.65625 21.921875 
Q 66.9375 24.515625 65.28125 26.953125 
Q 46.734375 25.921875 34.578125 24.953125 
Q 32.421875 24.75 29.390625 24.078125 
L 26.953125 30.71875 
Q 29.890625 31.6875 31.34375 32.5625 
Q 39.59375 38.140625 47.65625 45.515625 
Q 40.578125 45.21875 35.546875 44.78125 
Q 33.5 44.484375 31.0625 43.890625 
L 28.125 49.859375 
Q 30.5625 50.734375 32.625 52.59375 
Q 39.203125 58.15625 44.921875 66.0625 
L 3.609375 66.0625 
L 3.609375 72.90625 
L 47.359375 72.90625 
Q 44.96875 77.25 42.875 80.515625 
L 49.90625 83.9375 
Q 53.71875 78.125 56.5 72.90625 
L 96.484375 72.90625 
L 96.484375 66.0625 
L 47.703125 66.0625 
L 52.34375 63.625 
Q 44.4375 55.515625 38.96875 50.734375 
Q 44.53125 50.875 53.515625 51.078125 
Q 57.421875 54.984375 61.328125 59.328125 
L 68.0625 55.421875 
Q 52.546875 40.671875 39.453125 31.390625 
z
M 2.25 15.484375 
L 46.78125 15.484375 
L 46.78125 24.078125 
L 54.5 24.078125 
L 54.5 15.484375 
L 98.046875 15.484375 
L 98.046875 8.640625 
L 54.5 8.640625 
L 54.5 -13.328125 
L 46.78125 -13.328125 
L 46.78125 8.640625 
L 2.25 8.640625 
z
M 26.859375 41.75 
L 30.375 35.984375 
Q 18.75 29.15625 6.640625 22.015625 
L 2.546875 28.5625 
Q 12.703125 33.34375 26.859375 41.75 
z
M 75.875 41.84375 
Q 89.84375 33.9375 97.65625 28.375 
L 93.359375 22.015625 
Q 83.296875 29.828125 71.875 36.578125 
z
M 93.65625 56.109375 
Q 86.234375 49.65625 77.546875 43.890625 
L 72.5625 49.078125 
Q 81.9375 55.21875 88.09375 61.375 
z
M 5.671875 56.78125 
L 10.640625 61.578125 
Q 18.75 55.125 24.8125 49.359375 
L 19.34375 44 
Q 13.671875 49.953125 5.671875 56.78125 
z
" id="MicrosoftYaHei-7387"/>
    </defs>
    <g transform="translate(400.8 37.2)scale(0.12 -0.12)">
     <use xlink:href="#MicrosoftYaHei-7f8e"/>
     <use x="100" xlink:href="#MicrosoftYaHei-56fd"/>
     <use x="200" xlink:href="#MicrosoftYaHei-56fd"/>
     <use x="300" xlink:href="#MicrosoftYaHei-503a"/>
     <use x="400" xlink:href="#MicrosoftYaHei-6536"/>
     <use x="500" xlink:href="#MicrosoftYaHei-76ca"/>
     <use x="600" xlink:href="#MicrosoftYaHei-7387"/>
    </g>
   </g>
   <g id="legend_1">
    <g id="patch_7">
     <path d="M 115 128.771875 
L 179.042188 128.771875 
Q 181.042188 128.771875 181.042188 126.771875 
L 181.042188 50.2 
Q 181.042188 48.2 179.042188 48.2 
L 115 48.2 
Q 113 48.2 113 50.2 
L 113 126.771875 
Q 113 128.771875 115 128.771875 
z
" style="fill:#ffffff;opacity:0.8;stroke:#cccccc;stroke-linejoin:miter;"/>
    </g>
    <g id="line2d_26">
     <path d="M 117 56.69375 
L 137 56.69375 
" style="fill:none;stroke:#1f77b4;stroke-linecap:square;stroke-width:1.5;"/>
    </g>
    <g id="line2d_27"/>
    <g id="text_13">
     <!-- 1mon -->
     <defs>
      <path d="M 86.28125 0 
L 76.703125 0 
L 76.703125 31 
Q 76.703125 39.796875 73.96875 43.578125 
Q 71.234375 47.359375 64.984375 47.359375 
Q 59.71875 47.359375 55.953125 42.421875 
Q 52.203125 37.5 52.203125 30.765625 
L 52.203125 0 
L 42.625 0 
L 42.625 31.984375 
Q 42.625 47.359375 30.765625 47.359375 
Q 25.296875 47.359375 21.703125 42.671875 
Q 18.109375 37.984375 18.109375 30.71875 
L 18.109375 0 
L 8.546875 0 
L 8.546875 54 
L 18.109375 54 
L 18.109375 45.453125 
L 18.3125 45.453125 
Q 24.078125 55.28125 35.15625 55.28125 
Q 40.578125 55.28125 44.71875 52.296875 
Q 48.875 49.3125 50.484375 44.234375 
Q 56.5 55.28125 68.453125 55.28125 
Q 86.28125 55.28125 86.28125 33.296875 
z
" id="MicrosoftYaHei-6d"/>
      <path d="M 4.9375 26.421875 
Q 4.9375 39.796875 12.40625 47.53125 
Q 19.875 55.28125 32.671875 55.28125 
Q 44.828125 55.28125 51.734375 47.828125 
Q 58.640625 40.375 58.640625 27.25 
Q 58.640625 14.453125 51.265625 6.59375 
Q 43.890625 -1.265625 31.5 -1.265625 
Q 19.390625 -1.265625 12.15625 6.34375 
Q 4.9375 13.96875 4.9375 26.421875 
z
M 14.703125 26.703125 
Q 14.703125 17.390625 19.40625 12.015625 
Q 24.125 6.640625 32.078125 6.640625 
Q 40.28125 6.640625 44.578125 11.890625 
Q 48.875 17.140625 48.875 26.953125 
Q 48.875 36.8125 44.578125 42.078125 
Q 40.28125 47.359375 32.078125 47.359375 
Q 24.03125 47.359375 19.359375 41.84375 
Q 14.703125 36.328125 14.703125 26.703125 
z
" id="MicrosoftYaHei-6f"/>
      <path d="M 54.203125 0 
L 44.671875 0 
L 44.671875 30.71875 
Q 44.671875 47.359375 32.515625 47.359375 
Q 26.21875 47.359375 22.15625 42.671875 
Q 18.109375 37.984375 18.109375 30.8125 
L 18.109375 0 
L 8.546875 0 
L 8.546875 54 
L 18.109375 54 
L 18.109375 45.0625 
L 18.3125 45.0625 
Q 24.421875 55.28125 36.03125 55.28125 
Q 44.921875 55.28125 49.5625 49.578125 
Q 54.203125 43.890625 54.203125 33.015625 
z
" id="MicrosoftYaHei-6e"/>
     </defs>
     <g transform="translate(145 60.19375)scale(0.1 -0.1)">
      <use xlink:href="#MicrosoftYaHei-31"/>
      <use x="58.642578" xlink:href="#MicrosoftYaHei-6d"/>
      <use x="152.34375" xlink:href="#MicrosoftYaHei-6f"/>
      <use x="215.917969" xlink:href="#MicrosoftYaHei-6e"/>
     </g>
    </g>
    <g id="line2d_28">
     <path d="M 117 72.173437 
L 137 72.173437 
" style="fill:none;stroke:#ff7f0e;stroke-linecap:square;stroke-width:1.5;"/>
    </g>
    <g id="line2d_29"/>
    <g id="text_14">
     <!-- 3mon -->
     <g transform="translate(145 75.673437)scale(0.1 -0.1)">
      <use xlink:href="#MicrosoftYaHei-33"/>
      <use x="58.642578" xlink:href="#MicrosoftYaHei-6d"/>
      <use x="152.34375" xlink:href="#MicrosoftYaHei-6f"/>
      <use x="215.917969" xlink:href="#MicrosoftYaHei-6e"/>
     </g>
    </g>
    <g id="line2d_30">
     <path d="M 117 87.653125 
L 137 87.653125 
" style="fill:none;stroke:#2ca02c;stroke-linecap:square;stroke-width:1.5;"/>
    </g>
    <g id="line2d_31"/>
    <g id="text_15">
     <!-- 1year -->
     <defs>
      <path d="M 52.484375 54 
L 27.984375 -8.15625 
Q 21.140625 -25.4375 8.6875 -25.4375 
Q 5.125 -25.4375 2.59375 -24.65625 
L 2.59375 -16.265625 
Q 5.375 -17.328125 7.953125 -17.328125 
Q 14.453125 -17.328125 17.671875 -9.71875 
L 21.828125 0.09375 
L 0.640625 54 
L 11.234375 54 
L 25.34375 13.421875 
L 26.515625 8.984375 
L 26.765625 8.984375 
Q 27.046875 10.5 27.9375 13.328125 
L 42.671875 54 
z
" id="MicrosoftYaHei-79"/>
      <path d="M 52.546875 24.5625 
L 14.75 24.5625 
Q 14.984375 15.921875 19.46875 11.203125 
Q 23.96875 6.5 32.03125 6.5 
Q 41.109375 6.5 48.6875 12.3125 
L 48.6875 3.765625 
Q 41.546875 -1.265625 29.78125 -1.265625 
Q 18.0625 -1.265625 11.5 6.15625 
Q 4.9375 13.578125 4.9375 26.765625 
Q 4.9375 39.15625 12.140625 47.21875 
Q 19.34375 55.28125 30.03125 55.28125 
Q 40.625 55.28125 46.578125 48.46875 
Q 52.546875 41.65625 52.546875 29.390625 
z
M 42.96875 32.234375 
Q 42.921875 39.546875 39.5 43.546875 
Q 36.078125 47.5625 29.890625 47.5625 
Q 24.171875 47.5625 20 43.3125 
Q 15.828125 39.0625 14.75 32.234375 
z
" id="MicrosoftYaHei-65"/>
      <path d="M 9.8125 50.25 
Q 17.875 55.28125 28.421875 55.28125 
Q 47.953125 55.28125 47.953125 34.765625 
L 47.953125 0 
L 38.484375 0 
L 38.484375 8.34375 
L 38.234375 8.34375 
Q 32.625 -1.265625 21.6875 -1.265625 
Q 13.8125 -1.265625 9.171875 2.984375 
Q 4.546875 7.234375 4.546875 14.453125 
Q 4.546875 29.59375 22.46875 32.078125 
L 38.484375 34.328125 
Q 38.484375 47.5625 27.546875 47.5625 
Q 17.828125 47.5625 9.8125 41.015625 
z
M 25.828125 25.390625 
Q 19.1875 24.515625 16.671875 22.0625 
Q 14.15625 19.625 14.15625 15.234375 
Q 14.15625 11.375 16.890625 8.9375 
Q 19.625 6.5 24.125 6.5 
Q 30.375 6.5 34.421875 10.890625 
Q 38.484375 15.28125 38.484375 21.921875 
L 38.484375 27.09375 
z
" id="MicrosoftYaHei-61"/>
      <path d="M 37.5 44.53125 
Q 35.109375 46.234375 30.90625 46.234375 
Q 25.34375 46.234375 21.71875 41.03125 
Q 18.109375 35.84375 18.109375 27.34375 
L 18.109375 0 
L 8.546875 0 
L 8.546875 54 
L 18.109375 54 
L 18.109375 43.015625 
L 18.3125 43.015625 
Q 22.40625 54.9375 32.46875 54.9375 
Q 35.75 54.9375 37.5 54.203125 
z
" id="MicrosoftYaHei-72"/>
     </defs>
     <g transform="translate(145 91.153125)scale(0.1 -0.1)">
      <use xlink:href="#MicrosoftYaHei-31"/>
      <use x="58.642578" xlink:href="#MicrosoftYaHei-79"/>
      <use x="111.572266" xlink:href="#MicrosoftYaHei-65"/>
      <use x="168.310547" xlink:href="#MicrosoftYaHei-61"/>
      <use x="223.583984" xlink:href="#MicrosoftYaHei-72"/>
     </g>
    </g>
    <g id="line2d_32">
     <path d="M 117 103.190625 
L 137 103.190625 
" style="fill:none;stroke:#d62728;stroke-linecap:square;stroke-width:1.5;"/>
    </g>
    <g id="line2d_33"/>
    <g id="text_16">
     <!-- 5year -->
     <g transform="translate(145 106.690625)scale(0.1 -0.1)">
      <use xlink:href="#MicrosoftYaHei-35"/>
      <use x="58.642578" xlink:href="#MicrosoftYaHei-79"/>
      <use x="111.572266" xlink:href="#MicrosoftYaHei-65"/>
      <use x="168.310547" xlink:href="#MicrosoftYaHei-61"/>
      <use x="223.583984" xlink:href="#MicrosoftYaHei-72"/>
     </g>
    </g>
    <g id="line2d_34">
     <path d="M 117 118.728125 
L 137 118.728125 
" style="fill:none;stroke:#9467bd;stroke-linecap:square;stroke-width:1.5;"/>
    </g>
    <g id="line2d_35"/>
    <g id="text_17">
     <!-- 10year -->
     <g transform="translate(145 122.228125)scale(0.1 -0.1)">
      <use xlink:href="#MicrosoftYaHei-31"/>
      <use x="58.642578" xlink:href="#MicrosoftYaHei-30"/>
      <use x="117.285156" xlink:href="#MicrosoftYaHei-79"/>
      <use x="170.214844" xlink:href="#MicrosoftYaHei-65"/>
      <use x="226.953125" xlink:href="#MicrosoftYaHei-61"/>
      <use x="282.226562" xlink:href="#MicrosoftYaHei-72"/>
     </g>
    </g>
   </g>
  </g>
 </g>
 <defs>
  <clipPath id="peb8e0a4744">
   <rect height="277.2" width="669.6" x="108" y="43.2"/>
  </clipPath>
 </defs>
</svg>
