<?xml version="1.0" encoding="utf-8" standalone="no"?>
<!DOCTYPE svg PUBLIC "-//W3C//DTD SVG 1.1//EN"
  "http://www.w3.org/Graphics/SVG/1.1/DTD/svg11.dtd">
<!-- Created with matplotlib (http://matplotlib.org/) -->
<svg height="360pt" version="1.1" viewBox="0 0 864 360" width="864pt" xmlns="http://www.w3.org/2000/svg" xmlns:xlink="http://www.w3.org/1999/xlink">
 <defs>
  <style type="text/css">
*{stroke-linecap:butt;stroke-linejoin:round;}
  </style>
 </defs>
 <g id="figure_1">
  <g id="patch_1">
   <path d="M 0 360 
L 864 360 
L 864 0 
L 0 0 
z
" style="fill:#ffffff;"/>
  </g>
  <g id="axes_1">
   <g id="patch_2">
    <path d="M 108 320.4 
L 777.6 320.4 
L 777.6 43.2 
L 108 43.2 
z
" style="fill:#ffffff;"/>
   </g>
   <g id="matplotlib.axis_1">
    <g id="xtick_1">
     <g id="line2d_1">
      <path clip-path="url(#p751569b559)" d="M 108 320.4 
L 108 43.2 
" style="fill:none;stroke:#b0b0b0;stroke-linecap:square;stroke-width:0.8;"/>
     </g>
     <g id="line2d_2">
      <defs>
       <path d="M 0 0 
L 0 3.5 
" id="mf9890a3795" style="stroke:#000000;stroke-width:0.8;"/>
      </defs>
      <g>
       <use style="stroke:#000000;stroke-width:0.8;" x="108" xlink:href="#mf9890a3795" y="320.4"/>
      </g>
     </g>
     <g id="text_1">
      <!-- 2017年8月24日 -->
      <defs>
       <path d="M 51.171875 0 
L 5.171875 0 
L 5.171875 8.296875 
L 27.15625 30.21875 
Q 36.234375 39.3125 39.3125 44.609375 
Q 42.390625 49.90625 42.390625 55.5625 
Q 42.390625 62.015625 38.765625 65.453125 
Q 35.15625 68.890625 28.328125 68.890625 
Q 18.21875 68.890625 9.03125 60.296875 
L 9.03125 70.015625 
Q 17.96875 76.90625 29.828125 76.90625 
Q 40.046875 76.90625 45.953125 71.390625 
Q 51.859375 65.875 51.859375 56.546875 
Q 51.859375 49.515625 48.0625 42.75 
Q 44.28125 35.984375 33.734375 25.53125 
L 16.5 8.6875 
L 16.5 8.5 
L 51.171875 8.5 
z
" id="MicrosoftYaHei-32"/>
       <path d="M 4.4375 36.328125 
Q 4.4375 56.34375 11.078125 66.625 
Q 17.71875 76.90625 30.328125 76.90625 
Q 54.34375 76.90625 54.34375 38.140625 
Q 54.34375 19 47.578125 8.859375 
Q 40.828125 -1.265625 28.609375 -1.265625 
Q 17.09375 -1.265625 10.765625 8.34375 
Q 4.4375 17.96875 4.4375 36.328125 
z
M 14.203125 36.765625 
Q 14.203125 6.640625 29.5 6.640625 
Q 44.53125 6.640625 44.53125 37.25 
Q 44.53125 68.953125 29.78125 68.953125 
Q 14.203125 68.953125 14.203125 36.765625 
z
" id="MicrosoftYaHei-30"/>
       <path d="M 52.59375 0 
L 9.234375 0 
L 9.234375 8.25 
L 26.171875 8.25 
L 26.171875 65.671875 
L 8.796875 60.640625 
L 8.796875 69.4375 
L 35.6875 77.25 
L 35.6875 8.25 
L 52.59375 8.25 
z
" id="MicrosoftYaHei-31"/>
       <path d="M 53.765625 72.3125 
L 24.171875 0 
L 14.265625 0 
L 42.390625 67.1875 
L 4.59375 67.1875 
L 4.59375 75.640625 
L 53.765625 75.640625 
z
" id="MicrosoftYaHei-37"/>
       <path d="M 1.859375 19.96875 
L 17.578125 19.96875 
L 17.578125 47.90625 
L 52.15625 47.90625 
L 52.15625 65.28125 
L 23.4375 65.28125 
Q 16.84375 53.421875 8.6875 43.40625 
Q 6.15625 46.140625 2.640625 48.875 
Q 16.5 64.5 23.4375 83.9375 
L 31.453125 81.6875 
Q 29.390625 76.859375 27.15625 72.3125 
L 94.34375 72.3125 
L 94.34375 65.28125 
L 60.0625 65.28125 
L 60.0625 47.90625 
L 92.671875 47.90625 
L 92.671875 41.0625 
L 60.0625 41.0625 
L 60.0625 19.96875 
L 98.734375 19.96875 
L 98.734375 12.9375 
L 60.0625 12.9375 
L 60.0625 -13.421875 
L 52.15625 -13.421875 
L 52.15625 12.9375 
L 1.859375 12.9375 
z
M 25.296875 19.96875 
L 52.15625 19.96875 
L 52.15625 41.0625 
L 25.296875 41.0625 
z
" id="MicrosoftYaHei-5e74"/>
       <path d="M 21.390625 39.796875 
Q 7.859375 46.09375 7.859375 58.0625 
Q 7.859375 66.40625 14.203125 71.65625 
Q 20.5625 76.90625 30.421875 76.90625 
Q 39.453125 76.90625 45.3125 71.96875 
Q 51.171875 67.046875 51.171875 59.234375 
Q 51.171875 46.625 37.0625 39.84375 
L 37.0625 39.65625 
Q 53.609375 33.6875 53.609375 19.34375 
Q 53.609375 9.90625 46.796875 4.3125 
Q 39.984375 -1.265625 27.78125 -1.265625 
Q 17.78125 -1.265625 11.46875 4.25 
Q 5.171875 9.765625 5.171875 18.5625 
Q 5.171875 33.015625 21.390625 39.59375 
z
M 41.5 58.109375 
Q 41.5 63.1875 38.328125 66.109375 
Q 35.15625 69.046875 29.734375 69.046875 
Q 24.65625 69.046875 21.09375 65.984375 
Q 17.53125 62.9375 17.53125 58.203125 
Q 17.53125 48.734375 29.390625 43.796875 
Q 41.5 48.828125 41.5 58.109375 
z
M 28.8125 35.25 
Q 14.796875 29.59375 14.796875 19.046875 
Q 14.796875 13.578125 18.890625 10.0625 
Q 23 6.546875 29.59375 6.546875 
Q 35.984375 6.546875 39.984375 10.03125 
Q 44 13.53125 44 18.75 
Q 44 29.734375 28.8125 35.25 
z
" id="MicrosoftYaHei-38"/>
       <path d="M 25.046875 20.0625 
Q 22.859375 1.21875 10.359375 -14.015625 
Q 7.234375 -10.984375 3.609375 -8.15625 
Q 13.09375 2.09375 16.3125 16.265625 
Q 18.5625 26.703125 18.5625 45.171875 
L 18.5625 78.953125 
L 83.796875 78.953125 
L 83.796875 2.78125 
Q 83.796875 -11.671875 70.015625 -11.671875 
Q 64.265625 -11.671875 55.171875 -11.46875 
Q 54.6875 -7.953125 53.71875 -3.265625 
Q 62.703125 -3.859375 67.875 -3.859375 
Q 75.78125 -3.859375 75.78125 3.859375 
L 75.78125 20.0625 
z
M 25.828125 27.203125 
L 75.78125 27.203125 
L 75.78125 45.953125 
L 26.5625 45.953125 
Q 26.5625 36.1875 25.828125 27.203125 
z
M 26.5625 71.625 
L 26.5625 53.078125 
L 75.78125 53.078125 
L 75.78125 71.625 
z
" id="MicrosoftYaHei-6708"/>
       <path d="M 55.078125 19.625 
L 45.40625 19.625 
L 45.40625 0 
L 36.140625 0 
L 36.140625 19.625 
L 0.875 19.625 
L 0.875 25.828125 
L 34.328125 75.640625 
L 45.40625 75.640625 
L 45.40625 27.203125 
L 55.078125 27.203125 
z
M 36.140625 27.203125 
L 36.140625 58.890625 
Q 36.140625 62.25 36.328125 66.65625 
L 36.140625 66.65625 
Q 35.453125 64.796875 33.25 60.84375 
L 10.75 27.203125 
z
" id="MicrosoftYaHei-34"/>
       <path d="M 15.234375 76.703125 
L 84.859375 76.703125 
L 84.859375 -11.96875 
L 76.5625 -11.96875 
L 76.5625 -5.03125 
L 23.53125 -5.03125 
L 23.53125 -11.96875 
L 15.234375 -11.96875 
z
M 23.53125 32.859375 
L 23.53125 2.09375 
L 76.5625 2.09375 
L 76.5625 32.859375 
z
M 23.53125 69.390625 
L 23.53125 40.1875 
L 76.5625 40.1875 
L 76.5625 69.390625 
z
" id="MicrosoftYaHei-65e5"/>
      </defs>
      <g transform="translate(72.475781 335.39375)scale(0.1 -0.1)">
       <use xlink:href="#MicrosoftYaHei-32"/>
       <use x="58.642578" xlink:href="#MicrosoftYaHei-30"/>
       <use x="117.285156" xlink:href="#MicrosoftYaHei-31"/>
       <use x="175.927734" xlink:href="#MicrosoftYaHei-37"/>
       <use x="234.570312" xlink:href="#MicrosoftYaHei-5e74"/>
       <use x="334.570312" xlink:href="#MicrosoftYaHei-38"/>
       <use x="393.212891" xlink:href="#MicrosoftYaHei-6708"/>
       <use x="493.212891" xlink:href="#MicrosoftYaHei-32"/>
       <use x="551.855469" xlink:href="#MicrosoftYaHei-34"/>
       <use x="610.498047" xlink:href="#MicrosoftYaHei-65e5"/>
      </g>
     </g>
    </g>
    <g id="xtick_2">
     <g id="line2d_3">
      <path clip-path="url(#p751569b559)" d="M 242.188377 320.4 
L 242.188377 43.2 
" style="fill:none;stroke:#b0b0b0;stroke-linecap:square;stroke-width:0.8;"/>
     </g>
     <g id="line2d_4">
      <g>
       <use style="stroke:#000000;stroke-width:0.8;" x="242.188377" xlink:href="#mf9890a3795" y="320.4"/>
      </g>
     </g>
     <g id="text_2">
      <!-- 2018年12月23日 -->
      <defs>
       <path d="M 6.984375 12.640625 
Q 14.75 6.640625 24.515625 6.640625 
Q 32.328125 6.640625 36.890625 10.46875 
Q 41.453125 14.3125 41.453125 20.75 
Q 41.453125 35.109375 20.90625 35.109375 
L 14.59375 35.109375 
L 14.59375 43.015625 
L 20.609375 43.015625 
Q 38.8125 43.015625 38.8125 56.5 
Q 38.8125 68.953125 24.90625 68.953125 
Q 16.9375 68.953125 9.90625 63.578125 
L 9.90625 72.609375 
Q 17.328125 76.90625 27.25 76.90625 
Q 36.921875 76.90625 42.78125 71.84375 
Q 48.640625 66.796875 48.640625 58.734375 
Q 48.640625 43.890625 33.5 39.65625 
L 33.5 39.453125 
Q 41.703125 38.578125 46.453125 33.671875 
Q 51.21875 28.765625 51.21875 21.4375 
Q 51.21875 11.234375 43.875 4.984375 
Q 36.53125 -1.265625 24.3125 -1.265625 
Q 13.578125 -1.265625 6.984375 2.734375 
z
" id="MicrosoftYaHei-33"/>
      </defs>
      <g transform="translate(203.732127 335.39375)scale(0.1 -0.1)">
       <use xlink:href="#MicrosoftYaHei-32"/>
       <use x="58.642578" xlink:href="#MicrosoftYaHei-30"/>
       <use x="117.285156" xlink:href="#MicrosoftYaHei-31"/>
       <use x="175.927734" xlink:href="#MicrosoftYaHei-38"/>
       <use x="234.570312" xlink:href="#MicrosoftYaHei-5e74"/>
       <use x="334.570312" xlink:href="#MicrosoftYaHei-31"/>
       <use x="393.212891" xlink:href="#MicrosoftYaHei-32"/>
       <use x="451.855469" xlink:href="#MicrosoftYaHei-6708"/>
       <use x="551.855469" xlink:href="#MicrosoftYaHei-32"/>
       <use x="610.498047" xlink:href="#MicrosoftYaHei-33"/>
       <use x="669.140625" xlink:href="#MicrosoftYaHei-65e5"/>
      </g>
     </g>
    </g>
    <g id="xtick_3">
     <g id="line2d_5">
      <path clip-path="url(#p751569b559)" d="M 376.376754 320.4 
L 376.376754 43.2 
" style="fill:none;stroke:#b0b0b0;stroke-linecap:square;stroke-width:0.8;"/>
     </g>
     <g id="line2d_6">
      <g>
       <use style="stroke:#000000;stroke-width:0.8;" x="376.376754" xlink:href="#mf9890a3795" y="320.4"/>
      </g>
     </g>
     <g id="text_3">
      <!-- 2018年4月20日 -->
      <g transform="translate(340.852535 335.39375)scale(0.1 -0.1)">
       <use xlink:href="#MicrosoftYaHei-32"/>
       <use x="58.642578" xlink:href="#MicrosoftYaHei-30"/>
       <use x="117.285156" xlink:href="#MicrosoftYaHei-31"/>
       <use x="175.927734" xlink:href="#MicrosoftYaHei-38"/>
       <use x="234.570312" xlink:href="#MicrosoftYaHei-5e74"/>
       <use x="334.570312" xlink:href="#MicrosoftYaHei-34"/>
       <use x="393.212891" xlink:href="#MicrosoftYaHei-6708"/>
       <use x="493.212891" xlink:href="#MicrosoftYaHei-32"/>
       <use x="551.855469" xlink:href="#MicrosoftYaHei-30"/>
       <use x="610.498047" xlink:href="#MicrosoftYaHei-65e5"/>
      </g>
     </g>
    </g>
    <g id="xtick_4">
     <g id="line2d_7">
      <path clip-path="url(#p751569b559)" d="M 510.56513 320.4 
L 510.56513 43.2 
" style="fill:none;stroke:#b0b0b0;stroke-linecap:square;stroke-width:0.8;"/>
     </g>
     <g id="line2d_8">
      <g>
       <use style="stroke:#000000;stroke-width:0.8;" x="510.56513" xlink:href="#mf9890a3795" y="320.4"/>
      </g>
     </g>
     <g id="text_4">
      <!-- 2018年8月17日 -->
      <g transform="translate(475.040912 335.39375)scale(0.1 -0.1)">
       <use xlink:href="#MicrosoftYaHei-32"/>
       <use x="58.642578" xlink:href="#MicrosoftYaHei-30"/>
       <use x="117.285156" xlink:href="#MicrosoftYaHei-31"/>
       <use x="175.927734" xlink:href="#MicrosoftYaHei-38"/>
       <use x="234.570312" xlink:href="#MicrosoftYaHei-5e74"/>
       <use x="334.570312" xlink:href="#MicrosoftYaHei-38"/>
       <use x="393.212891" xlink:href="#MicrosoftYaHei-6708"/>
       <use x="493.212891" xlink:href="#MicrosoftYaHei-31"/>
       <use x="551.855469" xlink:href="#MicrosoftYaHei-37"/>
       <use x="610.498047" xlink:href="#MicrosoftYaHei-65e5"/>
      </g>
     </g>
    </g>
    <g id="xtick_5">
     <g id="line2d_9">
      <path clip-path="url(#p751569b559)" d="M 644.753507 320.4 
L 644.753507 43.2 
" style="fill:none;stroke:#b0b0b0;stroke-linecap:square;stroke-width:0.8;"/>
     </g>
     <g id="line2d_10">
      <g>
       <use style="stroke:#000000;stroke-width:0.8;" x="644.753507" xlink:href="#mf9890a3795" y="320.4"/>
      </g>
     </g>
     <g id="text_5">
      <!-- 2019年3月17日 -->
      <defs>
       <path d="M 9.03125 10.25 
Q 15.28125 6.640625 22.515625 6.640625 
Q 32.671875 6.640625 38.25 14.640625 
Q 43.84375 22.65625 43.84375 37.40625 
Q 43.75 37.3125 43.65625 37.40625 
Q 38.671875 27.9375 26.90625 27.9375 
Q 17.390625 27.9375 11.140625 34.46875 
Q 4.890625 41.015625 4.890625 51.46875 
Q 4.890625 62.59375 11.71875 69.75 
Q 18.5625 76.90625 29.4375 76.90625 
Q 40.71875 76.90625 47.0625 68.046875 
Q 53.421875 59.1875 53.421875 42.234375 
Q 53.421875 21.296875 45.21875 10.015625 
Q 37.015625 -1.265625 22.515625 -1.265625 
Q 14.546875 -1.265625 9.03125 1.3125 
z
M 14.546875 52.6875 
Q 14.546875 45.0625 18.453125 40.59375 
Q 22.359375 36.140625 29.25 36.140625 
Q 35.203125 36.140625 39.25 40.203125 
Q 43.3125 44.28125 43.3125 50.09375 
Q 43.3125 58.25 39.28125 63.59375 
Q 35.25 68.953125 28.65625 68.953125 
Q 22.5625 68.953125 18.546875 64.3125 
Q 14.546875 59.671875 14.546875 52.6875 
z
" id="MicrosoftYaHei-39"/>
      </defs>
      <g transform="translate(609.229288 335.39375)scale(0.1 -0.1)">
       <use xlink:href="#MicrosoftYaHei-32"/>
       <use x="58.642578" xlink:href="#MicrosoftYaHei-30"/>
       <use x="117.285156" xlink:href="#MicrosoftYaHei-31"/>
       <use x="175.927734" xlink:href="#MicrosoftYaHei-39"/>
       <use x="234.570312" xlink:href="#MicrosoftYaHei-5e74"/>
       <use x="334.570312" xlink:href="#MicrosoftYaHei-33"/>
       <use x="393.212891" xlink:href="#MicrosoftYaHei-6708"/>
       <use x="493.212891" xlink:href="#MicrosoftYaHei-31"/>
       <use x="551.855469" xlink:href="#MicrosoftYaHei-37"/>
       <use x="610.498047" xlink:href="#MicrosoftYaHei-65e5"/>
      </g>
     </g>
    </g>
    <g id="text_6">
     <!-- 日期 -->
     <defs>
      <path d="M 58.890625 79.15625 
L 93.453125 79.15625 
L 93.453125 -0.046875 
Q 93.453125 -11.578125 82.515625 -11.578125 
Q 77.046875 -11.578125 71.78125 -11.28125 
Q 71.390625 -8.0625 70.609375 -3.765625 
Q 77.734375 -4.4375 80.859375 -4.4375 
Q 86.234375 -4.4375 86.234375 0.921875 
L 86.234375 21.4375 
L 65.328125 21.4375 
Q 64.265625 0.046875 52.34375 -14.109375 
Q 49.703125 -11.375 46.484375 -8.640625 
Q 54.390625 0.4375 56.546875 10.203125 
Q 58.890625 19.578125 58.890625 42.828125 
z
M 1.953125 17.828125 
L 11.140625 17.828125 
L 11.140625 62.9375 
L 3.125 62.9375 
L 3.125 69.578125 
L 11.140625 69.578125 
L 11.140625 81.5 
L 18.359375 81.5 
L 18.359375 69.578125 
L 38.671875 69.578125 
L 38.671875 81.890625 
L 45.90625 81.890625 
L 45.90625 69.578125 
L 53.8125 69.578125 
L 53.8125 62.9375 
L 45.90625 62.9375 
L 45.90625 17.828125 
L 53.71875 17.828125 
L 53.71875 11.1875 
L 1.953125 11.1875 
z
M 65.765625 27.875 
L 86.234375 27.875 
L 86.234375 47.015625 
L 66.109375 47.015625 
Q 66.21875 34.421875 65.765625 27.875 
z
M 86.234375 72.515625 
L 66.109375 72.515625 
L 66.109375 53.46875 
L 86.234375 53.46875 
z
M 18.359375 17.828125 
L 38.671875 17.828125 
L 38.671875 28.765625 
L 18.359375 28.765625 
z
M 18.359375 35.015625 
L 38.671875 35.015625 
L 38.671875 45.84375 
L 18.359375 45.84375 
z
M 18.359375 52.09375 
L 38.671875 52.09375 
L 38.671875 62.9375 
L 18.359375 62.9375 
z
M 18.359375 9.328125 
L 24.3125 4.640625 
Q 14.453125 -6 6.34375 -13.234375 
Q 4.296875 -10.890625 1.171875 -8.0625 
Q 10.453125 -0.140625 18.359375 9.328125 
z
M 31.15625 4.734375 
L 35.84375 9.515625 
Q 42.671875 4.4375 48.734375 -0.734375 
L 43.5625 -6.296875 
Q 38.09375 -0.828125 31.15625 4.734375 
z
" id="MicrosoftYaHei-671f"/>
     </defs>
     <g transform="translate(432.8 349.873438)scale(0.1 -0.1)">
      <use xlink:href="#MicrosoftYaHei-65e5"/>
      <use x="100" xlink:href="#MicrosoftYaHei-671f"/>
     </g>
    </g>
   </g>
   <g id="matplotlib.axis_2">
    <g id="ytick_1">
     <g id="line2d_11">
      <path clip-path="url(#p751569b559)" d="M 108 300.79696 
L 777.6 300.79696 
" style="fill:none;stroke:#b0b0b0;stroke-linecap:square;stroke-width:0.8;"/>
     </g>
     <g id="line2d_12">
      <defs>
       <path d="M 0 0 
L -3.5 0 
" id="m00bf394c7b" style="stroke:#000000;stroke-width:0.8;"/>
      </defs>
      <g>
       <use style="stroke:#000000;stroke-width:0.8;" x="108" xlink:href="#m00bf394c7b" y="300.79696"/>
      </g>
     </g>
     <g id="text_7">
      <!-- 1.0 -->
      <defs>
       <path d="M 5.8125 5.03125 
Q 5.8125 7.671875 7.609375 9.46875 
Q 9.421875 11.28125 12.109375 11.28125 
Q 14.84375 11.28125 16.640625 9.453125 
Q 18.453125 7.625 18.453125 5.03125 
Q 18.453125 2.484375 16.640625 0.65625 
Q 14.84375 -1.171875 12.0625 -1.171875 
Q 9.375 -1.171875 7.59375 0.65625 
Q 5.8125 2.484375 5.8125 5.03125 
z
" id="MicrosoftYaHei-2e"/>
      </defs>
      <g transform="translate(86.864063 304.793835)scale(0.1 -0.1)">
       <use xlink:href="#MicrosoftYaHei-31"/>
       <use x="58.642578" xlink:href="#MicrosoftYaHei-2e"/>
       <use x="82.714844" xlink:href="#MicrosoftYaHei-30"/>
      </g>
     </g>
    </g>
    <g id="ytick_2">
     <g id="line2d_13">
      <path clip-path="url(#p751569b559)" d="M 108 246.085714 
L 777.6 246.085714 
" style="fill:none;stroke:#b0b0b0;stroke-linecap:square;stroke-width:0.8;"/>
     </g>
     <g id="line2d_14">
      <g>
       <use style="stroke:#000000;stroke-width:0.8;" x="108" xlink:href="#m00bf394c7b" y="246.085714"/>
      </g>
     </g>
     <g id="text_8">
      <!-- 1.5 -->
      <defs>
       <path d="M 8.640625 11.625 
Q 16.265625 6.640625 24.515625 6.640625 
Q 32.328125 6.640625 37.109375 11 
Q 41.890625 15.375 41.890625 22.609375 
Q 41.890625 29.890625 37.03125 33.890625 
Q 32.171875 37.890625 22.953125 37.890625 
Q 18.5 37.890625 10.984375 37.203125 
L 10.984375 75.640625 
L 48.1875 75.640625 
L 48.1875 67.1875 
L 19.875 67.1875 
L 19.875 45.796875 
Q 24.125 46.046875 26.265625 46.046875 
Q 38.234375 46.046875 44.921875 39.984375 
Q 51.609375 33.9375 51.609375 23.296875 
Q 51.609375 12.3125 44.421875 5.515625 
Q 37.25 -1.265625 24.609375 -1.265625 
Q 14.015625 -1.265625 8.640625 1.859375 
z
" id="MicrosoftYaHei-35"/>
      </defs>
      <g transform="translate(86.864063 250.082589)scale(0.1 -0.1)">
       <use xlink:href="#MicrosoftYaHei-31"/>
       <use x="58.642578" xlink:href="#MicrosoftYaHei-2e"/>
       <use x="82.714844" xlink:href="#MicrosoftYaHei-35"/>
      </g>
     </g>
    </g>
    <g id="ytick_3">
     <g id="line2d_15">
      <path clip-path="url(#p751569b559)" d="M 108 191.374468 
L 777.6 191.374468 
" style="fill:none;stroke:#b0b0b0;stroke-linecap:square;stroke-width:0.8;"/>
     </g>
     <g id="line2d_16">
      <g>
       <use style="stroke:#000000;stroke-width:0.8;" x="108" xlink:href="#m00bf394c7b" y="191.374468"/>
      </g>
     </g>
     <g id="text_9">
      <!-- 2.0 -->
      <g transform="translate(86.864063 195.371343)scale(0.1 -0.1)">
       <use xlink:href="#MicrosoftYaHei-32"/>
       <use x="58.642578" xlink:href="#MicrosoftYaHei-2e"/>
       <use x="82.714844" xlink:href="#MicrosoftYaHei-30"/>
      </g>
     </g>
    </g>
    <g id="ytick_4">
     <g id="line2d_17">
      <path clip-path="url(#p751569b559)" d="M 108 136.663222 
L 777.6 136.663222 
" style="fill:none;stroke:#b0b0b0;stroke-linecap:square;stroke-width:0.8;"/>
     </g>
     <g id="line2d_18">
      <g>
       <use style="stroke:#000000;stroke-width:0.8;" x="108" xlink:href="#m00bf394c7b" y="136.663222"/>
      </g>
     </g>
     <g id="text_10">
      <!-- 2.5 -->
      <g transform="translate(86.864063 140.660097)scale(0.1 -0.1)">
       <use xlink:href="#MicrosoftYaHei-32"/>
       <use x="58.642578" xlink:href="#MicrosoftYaHei-2e"/>
       <use x="82.714844" xlink:href="#MicrosoftYaHei-35"/>
      </g>
     </g>
    </g>
    <g id="ytick_5">
     <g id="line2d_19">
      <path clip-path="url(#p751569b559)" d="M 108 81.951976 
L 777.6 81.951976 
" style="fill:none;stroke:#b0b0b0;stroke-linecap:square;stroke-width:0.8;"/>
     </g>
     <g id="line2d_20">
      <g>
       <use style="stroke:#000000;stroke-width:0.8;" x="108" xlink:href="#m00bf394c7b" y="81.951976"/>
      </g>
     </g>
     <g id="text_11">
      <!-- 3.0 -->
      <g transform="translate(86.864063 85.948851)scale(0.1 -0.1)">
       <use xlink:href="#MicrosoftYaHei-33"/>
       <use x="58.642578" xlink:href="#MicrosoftYaHei-2e"/>
       <use x="82.714844" xlink:href="#MicrosoftYaHei-30"/>
      </g>
     </g>
    </g>
   </g>
   <g id="line2d_21">
    <path clip-path="url(#p751569b559)" d="M 108 302.54772 
L 109.341884 302.54772 
L 110.683768 302.766565 
L 112.025651 301.67234 
L 113.367535 302.219453 
L 114.709419 300.906383 
L 116.051303 305.830395 
L 117.393186 307.581155 
L 118.73507 301.67234 
L 120.076954 301.67234 
L 121.418838 302.000608 
L 122.760721 302.54772 
L 124.102605 301.67234 
L 125.444489 300.031003 
L 126.786373 306.158663 
L 128.128257 305.064438 
L 129.47014 303.641945 
L 130.812024 302.766565 
L 132.153908 302.219453 
L 133.495792 304.517325 
L 134.837675 304.517325 
L 136.179559 307.8 
L 137.521443 306.158663 
L 138.863327 306.377508 
L 140.20521 302.000608 
L 141.547094 302.219453 
L 142.888978 304.517325 
L 144.230862 304.73617 
L 145.572745 306.377508 
L 146.914629 305.61155 
L 148.256513 302.219453 
L 149.598397 304.73617 
L 150.940281 306.377508 
L 152.282164 306.158663 
L 153.624048 300.031003 
L 154.965932 295.872948 
L 156.307816 304.517325 
L 157.649699 305.283283 
L 158.991583 172.663222 
L 160.333467 177.149544 
L 161.675351 176.930699 
L 163.017234 176.930699 
L 164.359118 174.742249 
L 165.701002 174.195137 
L 167.042886 170.146505 
L 168.38477 170.474772 
L 169.726653 171.678419 
L 171.068537 178.024924 
L 172.410421 171.568997 
L 173.752305 172.772644 
L 175.094188 173.100912 
L 176.436072 168.505167 
L 177.777956 170.474772 
L 179.11984 173.538602 
L 180.461723 173.319757 
L 181.803607 172.444377 
L 183.145491 176.383587 
L 184.487375 173.538602 
L 185.829259 170.146505 
L 187.171142 175.179939 
L 188.513026 174.632827 
L 191.196794 174.195137 
L 192.538677 173.648024 
L 193.880561 169.380547 
L 195.222445 168.067477 
L 196.564329 166.316717 
L 197.906212 170.255927 
L 199.248096 171.131307 
L 200.58998 171.350152 
L 203.273747 168.833435 
L 204.615631 171.459574 
L 205.957515 166.097872 
L 207.299399 166.316717 
L 208.641283 167.192097 
L 209.983166 166.42614 
L 211.32505 170.037082 
L 212.666934 170.255927 
L 214.008818 158.766565 
L 215.350701 158.766565 
L 216.692585 170.80304 
L 218.034469 157.781763 
L 219.376353 171.568997 
L 220.718236 172.225532 
L 222.06012 169.380547 
L 223.402004 167.410942 
L 224.743888 169.380547 
L 226.085772 169.92766 
L 227.427655 156.79696 
L 228.769539 161.283283 
L 230.111423 161.064438 
L 231.453307 161.283283 
L 232.79519 150.997568 
L 234.137074 149.903343 
L 235.478958 152.638906 
L 236.820842 154.936778 
L 238.162725 152.638906 
L 239.504609 146.511246 
L 242.188377 145.417021 
L 243.530261 146.839514 
L 244.872144 145.964134 
L 246.214028 146.839514 
L 247.555912 155.155623 
L 248.897796 145.745289 
L 250.239679 158.000608 
L 251.581563 146.182979 
L 252.923447 143.775684 
L 254.265331 159.970213 
L 255.607214 155.265046 
L 256.949098 152.638906 
L 258.290982 158.000608 
L 259.632866 154.608511 
L 260.974749 154.280243 
L 262.316633 268.079635 
L 263.658517 267.204255 
L 265.000401 267.532523 
L 266.342285 268.079635 
L 267.684168 266.766565 
L 269.026052 267.204255 
L 270.367936 270.268085 
L 271.70982 272.018845 
L 274.393587 272.018845 
L 275.735471 273.879027 
L 277.077355 274.207295 
L 278.419238 273.331915 
L 279.761122 277.271125 
L 282.44489 273.879027 
L 283.786774 272.784802 
L 285.128657 274.535562 
L 286.470541 274.535562 
L 287.812425 250.243769 
L 289.154309 268.079635 
L 290.496192 271.36231 
L 291.838076 272.784802 
L 293.17996 272.23769 
L 294.521844 269.720973 
L 295.863727 269.17386 
L 297.205611 266.657143 
L 298.547495 264.79696 
L 299.889379 266.98541 
L 301.231263 266.657143 
L 302.573146 267.532523 
L 303.91503 263.921581 
L 305.256914 263.921581 
L 306.598798 262.827356 
L 307.940681 256.699696 
L 309.282565 260.091793 
L 310.624449 257.793921 
L 311.966333 263.593313 
L 313.308216 260.310638 
L 314.6501 259.435258 
L 315.991984 261.186018 
L 317.333868 260.310638 
L 318.675752 245.319757 
L 320.017635 257.575076 
L 321.359519 257.246809 
L 322.701403 257.575076 
L 324.043287 258.122188 
L 326.727054 265.891185 
L 328.068938 266.438298 
L 329.410822 239.410942 
L 330.752705 237.55076 
L 332.094589 233.61155 
L 333.436473 222.997568 
L 334.778357 224.748328 
L 336.12024 224.748328 
L 337.462124 222.778723 
L 338.804008 225.295441 
L 340.145892 247.179939 
L 341.487776 225.295441 
L 342.829659 223.872948 
L 344.171543 226.936778 
L 345.513427 226.170821 
L 346.855311 225.076596 
L 348.197194 224.201216 
L 349.539078 228.140426 
L 352.222846 232.845593 
L 353.564729 248.055319 
L 354.906613 246.413982 
L 356.248497 246.413982 
L 357.590381 244.991489 
L 358.932265 238.644985 
L 360.274148 239.192097 
L 361.616032 239.192097 
L 362.957916 231.970213 
L 364.2998 231.970213 
L 365.641683 231.094833 
L 366.983567 231.970213 
L 368.325451 230.875988 
L 369.667335 231.970213 
L 371.009218 231.4231 
L 372.351102 227.812158 
L 373.692986 228.906383 
L 375.03487 232.189058 
L 376.376754 230.000608 
L 377.718637 228.578116 
L 380.402405 227.483891 
L 381.744289 229.453495 
L 383.086172 234.158663 
L 384.428056 235.034043 
L 385.76994 234.705775 
L 387.111824 226.389666 
L 388.453707 232.517325 
L 389.795591 225.623708 
L 391.137475 227.155623 
L 392.479359 227.812158 
L 393.821242 226.717933 
L 395.163126 225.842553 
L 396.50501 228.687538 
L 397.846894 227.483891 
L 399.188778 228.578116 
L 400.530661 228.031003 
L 401.872545 228.031003 
L 403.214429 229.781763 
L 404.556313 226.608511 
L 405.898196 226.608511 
L 407.24008 228.031003 
L 408.581964 233.064438 
L 409.923848 227.483891 
L 411.265731 227.483891 
L 412.607615 229.781763 
L 413.949499 218.839514 
L 415.291383 221.356231 
L 416.633267 225.623708 
L 417.97515 225.842553 
L 419.317034 224.529483 
L 420.658918 225.842553 
L 422.000802 217.745289 
L 423.342685 219.167781 
L 424.684569 227.265046 
L 426.026453 228.031003 
L 427.368337 227.265046 
L 428.71022 227.483891 
L 430.052104 227.265046 
L 431.393988 225.842553 
L 432.735872 214.790881 
L 434.077756 211.945897 
L 435.419639 213.587234 
L 436.761523 211.945897 
L 438.103407 213.915502 
L 439.445291 211.945897 
L 440.787174 212.821277 
L 442.129058 210.523404 
L 443.470942 210.632827 
L 444.812826 220.590274 
L 446.154709 208.553799 
L 447.496593 207.787842 
L 448.838477 210.523404 
L 450.180361 210.304559 
L 451.522244 215.556839 
L 452.864128 216.979331 
L 454.206012 215.009726 
L 455.547896 217.745289 
L 456.88978 217.745289 
L 458.231663 220.809119 
L 460.915431 217.526444 
L 462.257315 212.493009 
L 463.599198 215.775684 
L 464.941082 216.103951 
L 466.282966 204.505167 
L 468.966733 203.848632 
L 470.308617 204.724012 
L 471.650501 204.724012 
L 472.992385 204.1769 
L 474.334269 203.082675 
L 475.676152 202.42614 
L 477.018036 204.724012 
L 478.35992 218.620669 
L 479.701804 208.334954 
L 481.043687 208.334954 
L 482.385571 205.05228 
L 483.727455 204.505167 
L 485.069339 202.754407 
L 487.753106 203.848632 
L 489.09499 203.848632 
L 490.436874 206.146505 
L 491.778758 202.535562 
L 493.120641 202.535562 
L 494.462525 201.331915 
L 495.804409 201.331915 
L 497.146293 206.912462 
L 498.488176 209.976292 
L 499.83006 208.116109 
L 501.171944 206.912462 
L 502.513828 201.331915 
L 503.855711 201.441337 
L 505.197595 200.23769 
L 506.539479 198.04924 
L 507.881363 196.845593 
L 510.56513 198.596353 
L 511.907014 198.377508 
L 513.248898 198.596353 
L 514.590782 200.565957 
L 515.932665 199.690578 
L 517.274549 198.04924 
L 521.3002 198.04924 
L 522.642084 197.283283 
L 523.983968 197.830395 
L 525.325852 196.079635 
L 526.667735 204.1769 
L 528.009619 195.751368 
L 529.351503 198.596353 
L 530.693387 203.30152 
L 532.035271 203.848632 
L 533.377154 202.535562 
L 534.719038 202.207295 
L 536.060922 199.909422 
L 537.402806 201.879027 
L 538.744689 196.079635 
L 540.086573 195.313678 
L 541.428457 191.374468 
L 542.770341 191.374468 
L 544.112224 190.280243 
L 545.454108 189.951976 
L 546.795992 190.827356 
L 548.137876 190.280243 
L 549.47976 185.793921 
L 550.821643 188.529483 
L 552.163527 187.435258 
L 553.505411 187.435258 
L 554.847295 185.575076 
L 556.189178 185.027964 
L 557.531062 178.572036 
L 558.872946 179.666261 
L 560.21483 179.119149 
L 561.556713 178.900304 
L 562.898597 198.377508 
L 564.240481 198.04924 
L 565.582365 191.374468 
L 566.924248 194.11003 
L 568.266132 194.766565 
L 569.608016 194.438298 
L 570.9499 148.262006 
L 572.291784 145.964134 
L 573.633667 145.417021 
L 574.975551 146.292401 
L 576.317435 146.839514 
L 579.001202 149.027964 
L 580.343086 148.480851 
L 581.68497 143.775684 
L 583.026854 147.933739 
L 584.368737 149.575076 
L 585.710621 151.544681 
L 587.052505 156.578116 
L 588.394389 149.356231 
L 589.736273 149.575076 
L 591.078156 148.699696 
L 592.42004 149.575076 
L 593.761924 148.262006 
L 595.103808 149.027964 
L 596.445691 147.933739 
L 597.787575 152.967173 
L 599.129459 146.292401 
L 600.471343 145.964134 
L 601.813226 146.511246 
L 603.15511 147.605471 
L 604.496994 148.480851 
L 605.838878 144.869909 
L 607.180762 143.994529 
L 608.522645 145.745289 
L 609.864529 145.745289 
L 611.206413 145.198176 
L 612.548297 144.869909 
L 613.89018 144.322796 
L 615.232064 147.058359 
L 616.573948 146.511246 
L 617.915832 147.386626 
L 619.257715 149.356231 
L 620.599599 144.869909 
L 621.941483 143.994529 
L 624.625251 144.541641 
L 628.650902 146.511246 
L 629.992786 147.386626 
L 631.334669 149.027964 
L 632.676553 148.262006 
L 634.018437 149.027964 
L 635.360321 144.541641 
L 636.702204 143.119149 
L 638.044088 142.681459 
L 639.385972 143.885106 
L 640.727856 144.432219 
L 643.411623 140.493009 
L 644.753507 141.477812 
L 646.095391 141.915502 
L 647.437275 141.587234 
L 648.779158 141.915502 
L 650.121042 140.821277 
L 651.462926 140.821277 
L 652.80481 138.523404 
L 654.146693 139.508207 
L 655.488577 141.368389 
L 656.830461 140.821277 
L 658.172345 142.462614 
L 659.514228 146.730091 
L 660.856112 144.103951 
L 662.197996 141.915502 
L 663.53988 142.353191 
L 664.881764 143.556839 
L 667.565531 144.760486 
L 668.907415 144.979331 
L 670.249299 142.134347 
L 671.591182 146.620669 
L 672.933066 146.401824 
L 674.27495 144.979331 
L 675.616834 145.198176 
L 676.958717 145.198176 
L 678.300601 144.432219 
L 679.642485 144.979331 
L 680.984369 146.182979 
L 682.326253 144.103951 
L 683.668136 138.851672 
L 685.01002 143.009726 
L 686.351904 144.432219 
L 687.693788 145.526444 
L 689.035671 144.979331 
L 690.377555 143.885106 
L 691.719439 142.134347 
L 693.061323 144.432219 
L 694.403206 144.432219 
L 697.086974 145.526444 
L 698.428858 143.556839 
L 699.770741 143.885106 
L 701.112625 144.432219 
L 702.454509 145.307599 
L 703.796393 144.103951 
L 705.138277 144.432219 
L 706.48016 145.526444 
L 707.822044 146.073556 
L 709.163928 147.277204 
L 710.505812 151.435258 
L 711.847695 147.496049 
L 713.189579 147.496049 
L 714.531463 145.526444 
L 715.873347 149.137386 
L 717.21523 150.888146 
L 718.557114 152.201216 
L 719.898998 153.076596 
L 721.240882 150.559878 
L 722.582766 151.106991 
L 723.924649 152.748328 
L 725.266533 153.404863 
L 726.608417 146.182979 
L 727.950301 152.310638 
L 729.292184 151.654103 
L 730.634068 143.556839 
L 731.975952 143.556839 
L 733.317836 143.885106 
L 734.659719 144.979331 
L 736.001603 144.979331 
L 737.343487 145.526444 
L 738.685371 158.11003 
L 740.027255 162.596353 
L 741.369138 171.787842 
L 742.711022 172.116109 
L 744.052906 166.42614 
L 745.39479 162.815198 
L 746.736673 167.30152 
L 748.078557 170.912462 
L 749.420441 175.179939 
L 750.762325 180.432219 
L 752.104208 173.757447 
L 753.446092 172.553799 
L 754.787976 178.462614 
L 757.471743 180.103951 
L 758.813627 179.885106 
L 760.155511 171.459574 
L 761.497395 151.654103 
L 762.839279 171.459574 
L 764.181162 153.295441 
L 765.523046 154.170821 
L 766.86493 158.438298 
L 768.206814 159.532523 
L 769.548697 156.359271 
L 770.890581 156.687538 
L 772.232465 172.006687 
L 773.574349 168.1769 
L 774.916232 165.660182 
L 776.258116 165.003647 
L 777.6 163.143465 
L 777.6 163.143465 
" style="fill:none;stroke:#1f77b4;stroke-linecap:square;stroke-width:1.5;"/>
   </g>
   <g id="line2d_22">
    <path clip-path="url(#p751569b559)" d="M 108 298.170821 
L 109.341884 298.499088 
L 110.683768 299.265046 
L 112.025651 297.295441 
L 113.367535 296.748328 
L 114.709419 292.262006 
L 116.051303 298.170821 
L 117.393186 300.359271 
L 118.73507 291.496049 
L 120.076954 292.371429 
L 121.418838 292.043161 
L 122.760721 294.559878 
L 124.102605 294.559878 
L 126.786373 295.654103 
L 128.128257 295.654103 
L 129.47014 295.982371 
L 130.812024 295.982371 
L 132.153908 294.778723 
L 133.495792 296.748328 
L 134.837675 296.748328 
L 136.179559 297.842553 
L 137.521443 295.982371 
L 138.863327 299.593313 
L 140.20521 295.654103 
L 141.547094 297.076596 
L 142.888978 297.623708 
L 145.572745 298.170821 
L 146.914629 293.137386 
L 148.256513 293.684498 
L 149.598397 294.559878 
L 150.940281 294.559878 
L 152.282164 298.717933 
L 153.624048 299.812158 
L 154.965932 293.684498 
L 156.307816 295.654103 
L 157.649699 295.654103 
L 158.991583 161.392705 
L 160.333467 162.268085 
L 161.675351 161.720973 
L 163.017234 161.720973 
L 164.359118 160.407903 
L 165.701002 157.453495 
L 169.726653 157.562918 
L 171.068537 168.833435 
L 172.410421 157.562918 
L 173.752305 157.23465 
L 175.094188 154.170821 
L 176.436072 154.170821 
L 177.777956 154.717933 
L 179.11984 155.593313 
L 180.461723 155.265046 
L 181.803607 157.015805 
L 183.145491 166.973252 
L 184.487375 154.389666 
L 185.829259 154.936778 
L 187.171142 166.973252 
L 188.513026 167.082675 
L 189.85491 167.629787 
L 191.196794 167.629787 
L 192.538677 165.441337 
L 193.880561 152.529483 
L 195.222445 153.076596 
L 196.564329 150.231611 
L 199.248096 152.529483 
L 200.58998 152.748328 
L 201.931864 152.529483 
L 203.273747 155.812158 
L 204.615631 148.480851 
L 205.957515 146.839514 
L 207.299399 147.386626 
L 209.983166 146.839514 
L 211.32505 147.714894 
L 212.666934 147.058359 
L 214.008818 149.027964 
L 215.350701 151.325836 
L 216.692585 155.593313 
L 218.034469 151.654103 
L 219.376353 155.812158 
L 220.718236 156.140426 
L 222.06012 151.325836 
L 223.402004 151.872948 
L 226.085772 152.529483 
L 227.427655 149.137386 
L 228.769539 144.541641 
L 230.111423 144.541641 
L 231.453307 145.417021 
L 232.79519 144.979331 
L 234.137074 145.745289 
L 235.478958 148.262006 
L 236.820842 149.356231 
L 238.162725 148.262006 
L 239.504609 148.480851 
L 240.846493 149.137386 
L 242.188377 149.137386 
L 243.530261 148.918541 
L 244.872144 142.900304 
L 246.214028 143.775684 
L 248.897796 149.465653 
L 250.239679 152.529483 
L 251.581563 149.137386 
L 252.923447 149.684498 
L 254.265331 153.951976 
L 255.607214 145.088754 
L 256.949098 145.198176 
L 258.290982 146.511246 
L 259.632866 148.043161 
L 260.974749 148.043161 
L 262.316633 254.401824 
L 263.658517 252.979331 
L 265.000401 252.103951 
L 266.342285 252.103951 
L 267.684168 253.854711 
L 269.026052 252.103951 
L 271.70982 253.307599 
L 273.051703 258.012766 
M 275.735471 254.401824 
L 277.077355 251.885106 
L 278.419238 252.651064 
L 279.761122 254.073556 
L 281.103006 254.620669 
L 282.44489 254.620669 
L 283.786774 256.043161 
L 285.128657 255.824316 
L 286.470541 250.462614 
L 287.812425 249.915502 
L 289.154309 256.590274 
L 293.17996 256.590274 
L 294.521844 255.496049 
L 295.863727 251.556839 
L 297.205611 239.30152 
L 298.547495 238.207295 
L 299.889379 234.268085 
L 301.231263 236.456535 
L 303.91503 234.268085 
L 305.256914 235.143465 
L 306.598798 234.268085 
L 307.940681 247.398784 
L 309.282565 234.04924 
L 310.624449 230.000608 
L 311.966333 230.328875 
L 313.308216 230.328875 
L 314.6501 230.11003 
L 315.991984 230.11003 
L 317.333868 226.936778 
L 318.675752 228.687538 
L 320.017635 247.617629 
L 321.359519 247.398784 
L 322.701403 246.851672 
L 324.043287 243.459574 
L 325.38517 240.942857 
L 326.727054 240.395745 
L 328.068938 239.30152 
L 329.410822 227.046201 
L 330.752705 226.170821 
L 332.094589 221.356231 
L 333.436473 218.292401 
L 334.778357 216.322796 
L 336.12024 215.556839 
L 337.462124 215.228571 
L 338.804008 216.651064 
L 340.145892 231.970213 
L 341.487776 213.258967 
L 342.829659 219.167781 
L 344.171543 221.684498 
L 345.513427 221.137386 
L 346.855311 221.684498 
L 348.197194 219.167781 
L 349.539078 215.994529 
L 350.880962 220.262006 
L 352.222846 222.559878 
L 353.564729 230.328875 
L 354.906613 230.11003 
L 356.248497 227.812158 
L 357.590381 226.170821 
L 358.932265 225.842553 
L 360.274148 226.936778 
L 361.616032 226.936778 
L 362.957916 220.262006 
L 364.2998 220.480851 
L 366.983567 217.745289 
L 369.667335 218.292401 
L 371.009218 214.134347 
L 372.351102 211.836474 
L 373.692986 210.413982 
L 375.03487 220.809119 
L 376.376754 212.493009 
L 377.718637 212.493009 
L 379.060521 210.523404 
L 380.402405 205.92766 
L 381.744289 207.350152 
L 383.086172 210.195137 
L 384.428056 211.836474 
L 385.76994 211.836474 
L 387.111824 221.684498 
L 388.453707 212.493009 
L 389.795591 218.292401 
L 391.137475 223.325836 
L 392.479359 222.778723 
L 393.821242 222.012766 
L 396.50501 222.559878 
L 397.846894 203.410942 
L 399.188778 201.769605 
L 401.872545 202.42614 
L 403.214429 200.67538 
L 404.556313 201.769605 
L 405.898196 201.55076 
L 407.24008 202.42614 
L 408.581964 207.350152 
L 409.923848 202.973252 
L 411.265731 201.55076 
L 412.607615 198.158663 
L 413.949499 200.347112 
L 415.291383 201.769605 
L 416.633267 202.644985 
L 417.97515 202.42614 
L 419.317034 203.848632 
L 420.658918 210.742249 
L 422.000802 199.8 
L 423.342685 200.67538 
L 424.684569 209.866869 
L 426.026453 209.319757 
L 427.368337 209.648024 
L 428.71022 209.429179 
L 430.052104 205.161702 
L 431.393988 203.958055 
L 432.735872 199.034043 
L 434.077756 201.003647 
L 435.419639 198.705775 
L 436.761523 198.377508 
L 438.103407 199.252888 
L 439.445291 198.705775 
L 440.787174 198.705775 
L 442.129058 199.36231 
L 443.470942 197.61155 
L 444.812826 201.222492 
L 446.154709 198.705775 
L 447.496593 198.705775 
L 448.838477 200.67538 
L 450.180361 199.581155 
L 451.522244 202.42614 
L 452.864128 198.158663 
L 454.206012 200.128267 
L 456.88978 200.128267 
L 458.231663 201.003647 
L 459.573547 201.222492 
L 460.915431 197.064438 
L 462.257315 197.830395 
L 463.599198 199.034043 
L 464.941082 199.581155 
L 466.282966 193.891185 
L 467.62485 195.641945 
L 468.966733 194.219453 
L 470.308617 194.54772 
L 472.992385 193.453495 
L 474.334269 189.404863 
L 475.676152 191.155623 
L 477.018036 192.031003 
L 478.35992 200.128267 
L 479.701804 193.67234 
L 481.043687 194.000608 
L 482.385571 195.094833 
L 483.727455 190.608511 
L 485.069339 191.374468 
L 486.411222 192.578116 
L 487.753106 192.249848 
L 489.09499 192.578116 
L 490.436874 198.48693 
L 491.778758 192.359271 
L 493.120641 187.763526 
L 494.462525 193.67234 
L 495.804409 194.438298 
L 497.146293 196.189058 
L 498.488176 196.73617 
L 499.83006 196.73617 
L 501.171944 195.641945 
L 502.513828 186.450456 
L 503.855711 185.903343 
L 505.197595 186.669301 
L 506.539479 182.401824 
L 507.881363 183.824316 
L 509.223246 184.371429 
L 510.56513 186.669301 
L 511.907014 186.669301 
L 513.248898 188.638906 
L 514.590782 186.997568 
L 515.932665 182.730091 
L 517.274549 182.182979 
L 518.616433 182.730091 
L 519.958317 181.088754 
L 521.3002 180.541641 
L 522.642084 179.447416 
L 523.983968 177.368389 
L 525.325852 177.696657 
L 526.667735 190.608511 
L 528.009619 179.885106 
L 529.351503 179.994529 
L 530.693387 190.608511 
L 532.035271 190.608511 
L 533.377154 189.842553 
L 534.719038 185.246809 
L 536.060922 185.246809 
L 537.402806 185.793921 
L 538.744689 176.930699 
L 540.086573 174.632827 
L 541.428457 174.851672 
L 542.770341 175.727052 
L 544.112224 174.632827 
L 545.454108 174.632827 
L 546.795992 174.085714 
L 548.137876 172.334954 
L 549.47976 173.210334 
L 552.163527 172.444377 
L 554.847295 172.444377 
L 556.189178 167.848632 
L 557.531062 168.1769 
L 558.872946 170.36535 
L 560.21483 169.599392 
L 561.556713 169.05228 
L 562.898597 180.213374 
L 564.240481 178.572036 
L 565.582365 176.602432 
L 566.924248 177.149544 
L 568.266132 176.383587 
L 569.608016 176.055319 
L 570.9499 143.994529 
L 572.291784 144.979331 
L 573.633667 145.198176 
L 574.975551 145.745289 
L 576.317435 142.024924 
L 577.659319 145.417021 
L 579.001202 146.511246 
L 580.343086 147.167781 
L 581.68497 140.383587 
L 583.026854 146.948936 
L 584.368737 147.496049 
L 585.710621 146.511246 
L 587.052505 150.997568 
L 588.394389 149.465653 
L 589.736273 149.465653 
L 591.078156 148.918541 
L 592.42004 145.088754 
L 593.761924 145.745289 
L 595.103808 145.745289 
L 596.445691 147.933739 
L 597.787575 146.292401 
L 599.129459 146.073556 
L 600.471343 144.979331 
L 601.813226 146.620669 
L 603.15511 141.258967 
L 604.496994 142.900304 
L 605.838878 145.198176 
L 607.180762 144.103951 
L 608.522645 143.775684 
L 609.864529 144.322796 
L 611.206413 144.322796 
L 612.548297 144.651064 
L 613.89018 144.432219 
L 615.232064 144.432219 
L 616.573948 148.043161 
L 617.915832 142.572036 
L 620.599599 142.134347 
L 623.283367 142.134347 
L 624.625251 141.258967 
L 625.967134 142.024924 
L 627.309018 143.228571 
L 628.650902 148.043161 
L 629.992786 148.590274 
L 631.334669 145.745289 
L 632.676553 145.745289 
L 634.018437 146.292401 
L 635.360321 145.198176 
L 636.702204 141.806079 
L 638.044088 142.790881 
L 639.385972 141.040122 
L 640.727856 141.915502 
L 643.411623 141.915502 
L 644.753507 143.009726 
L 646.095391 142.572036 
L 647.437275 139.945897 
L 648.779158 143.775684 
L 650.121042 139.617629 
L 651.462926 139.617629 
L 652.80481 140.821277 
L 654.146693 141.806079 
L 655.488577 141.696657 
L 656.830461 139.945897 
L 658.172345 143.009726 
L 659.514228 143.556839 
L 660.856112 148.043161 
L 662.197996 147.496049 
L 663.53988 143.228571 
L 664.881764 144.103951 
L 666.223647 140.493009 
L 667.565531 140.493009 
L 670.249299 141.696657 
L 671.591182 144.651064 
L 672.933066 144.432219 
L 674.27495 143.119149 
L 676.958717 145.088754 
L 678.300601 143.009726 
L 679.642485 143.337994 
L 680.984369 144.432219 
L 682.326253 148.480851 
L 683.668136 144.651064 
L 685.01002 143.119149 
L 686.351904 142.134347 
L 687.693788 143.885106 
L 690.377555 145.088754 
L 691.719439 145.088754 
L 693.061323 143.885106 
L 695.74509 144.322796 
L 697.086974 144.322796 
L 698.428858 143.885106 
L 699.770741 144.322796 
L 702.454509 144.432219 
L 703.796393 144.432219 
L 705.138277 144.979331 
L 706.48016 146.182979 
L 707.822044 145.854711 
L 710.505812 147.496049 
L 713.189579 149.137386 
L 714.531463 144.651064 
L 715.873347 149.575076 
L 717.21523 148.371429 
L 718.557114 150.012766 
L 719.898998 151.435258 
L 721.240882 152.638906 
L 722.582766 152.857751 
L 725.266533 151.982371 
L 726.608417 143.556839 
L 727.950301 150.669301 
L 729.292184 152.638906 
L 730.634068 144.213374 
L 731.975952 144.651064 
L 733.317836 144.760486 
L 734.659719 144.103951 
L 736.001603 143.885106 
L 737.343487 143.885106 
L 738.685371 160.845593 
L 740.027255 161.61155 
L 741.369138 167.192097 
L 742.711022 169.708815 
L 744.052906 171.459574 
L 745.39479 172.116109 
L 746.736673 170.037082 
L 748.078557 166.644985 
L 750.762325 176.493009 
L 752.104208 179.337994 
L 753.446092 178.790881 
L 754.787976 179.119149 
L 756.12986 176.164742 
L 757.471743 175.070517 
L 758.813627 175.617629 
L 760.155511 180.432219 
L 761.497395 153.295441 
L 762.839279 179.666261 
L 764.181162 154.061398 
L 765.523046 152.310638 
L 766.86493 153.951976 
L 768.206814 157.125228 
L 769.548697 161.392705 
L 770.890581 160.73617 
L 772.232465 177.696657 
L 773.574349 168.942857 
L 774.916232 168.61459 
L 776.258116 168.61459 
L 777.6 167.520365 
L 777.6 167.520365 
" style="fill:none;stroke:#ff7f0e;stroke-linecap:square;stroke-width:1.5;"/>
   </g>
   <g id="line2d_23">
    <path clip-path="url(#p751569b559)" d="M 108 275.082675 
L 110.683768 275.629787 
L 112.025651 274.754407 
L 113.367535 275.958055 
L 114.709419 276.505167 
L 116.051303 275.629787 
L 118.73507 276.724012 
L 120.076954 275.958055 
L 121.418838 275.958055 
L 124.102605 275.410942 
L 125.444489 277.599392 
L 126.786373 277.599392 
L 128.128257 275.410942 
L 132.153908 269.61155 
L 133.495792 268.29848 
L 134.837675 267.970213 
L 136.179559 267.4231 
L 137.521443 267.641945 
L 138.863327 275.629787 
L 140.20521 266.000608 
L 141.547094 267.094833 
L 142.888978 267.970213 
L 144.230862 267.970213 
L 145.572745 268.517325 
L 146.914629 267.970213 
L 148.256513 266.875988 
L 149.598397 267.970213 
L 150.940281 267.970213 
L 152.282164 275.410942 
L 153.624048 276.724012 
L 154.965932 274.754407 
L 156.307816 277.599392 
L 157.649699 277.92766 
L 158.991583 117.951976 
L 160.333467 120.031003 
L 161.675351 120.687538 
L 163.017234 120.359271 
L 164.359118 118.608511 
L 165.701002 119.483891 
L 167.042886 119.483891 
L 169.726653 118.389666 
L 171.068537 128.018845 
L 172.410421 118.389666 
L 173.752305 118.499088 
L 175.094188 119.921581 
L 176.436072 121.67234 
L 177.777956 120.468693 
L 179.11984 122.875988 
L 180.461723 122.54772 
L 181.803607 121.125228 
L 183.145491 127.8 
L 184.487375 120.906383 
L 185.829259 118.608511 
L 187.171142 124.955015 
L 188.513026 124.079635 
L 189.85491 123.532523 
L 191.196794 123.532523 
L 192.538677 122.766565 
L 193.880561 111.714894 
L 195.222445 112.262006 
L 196.564329 113.793921 
L 197.906212 114.888146 
L 199.248096 117.623708 
L 200.58998 118.170821 
L 201.931864 119.265046 
L 203.273747 119.483891 
L 204.615631 119.046201 
L 205.957515 118.170821 
L 207.299399 118.499088 
L 208.641283 118.499088 
L 212.666934 116.857751 
L 214.008818 117.404863 
L 215.350701 116.857751 
L 216.692585 116.967173 
L 218.034469 115.763526 
L 219.376353 116.310638 
L 220.718236 116.638906 
L 222.06012 114.997568 
L 223.402004 110.730091 
L 224.743888 110.511246 
L 226.085772 111.386626 
L 227.427655 115.982371 
L 228.769539 114.341033 
L 230.111423 114.669301 
L 231.453307 115.763526 
L 232.79519 117.623708 
L 234.137074 117.842553 
L 235.478958 119.265046 
L 236.820842 121.67234 
L 239.504609 122.000608 
L 240.846493 122.54772 
L 242.188377 122.000608 
L 243.530261 124.955015 
L 244.872144 126.92462 
L 246.214028 125.502128 
L 247.555912 128.128267 
L 248.897796 127.252888 
L 250.239679 116.638906 
L 251.581563 126.705775 
L 252.923447 125.61155 
L 254.265331 114.012766 
L 255.607214 114.122188 
L 256.949098 112.480851 
L 259.632866 116.638906 
L 260.974749 116.638906 
L 262.316633 215.447416 
L 263.658517 216.322796 
L 265.000401 215.228571 
L 267.684168 215.228571 
L 270.367936 216.432219 
L 271.70982 215.885106 
L 273.051703 219.933739 
L 274.393587 215.885106 
L 275.735471 215.337994 
L 277.077355 217.526444 
L 278.419238 216.432219 
L 279.761122 215.885106 
L 281.103006 214.790881 
L 283.786774 215.337994 
L 285.128657 213.696657 
L 286.470541 215.337994 
L 287.812425 202.644985 
L 289.154309 211.727052 
L 290.496192 212.602432 
L 293.17996 213.149544 
L 294.521844 214.681459 
L 295.863727 214.900304 
L 297.205611 203.520365 
L 298.547495 199.581155 
L 299.889379 198.158663 
L 301.231263 194.766565 
L 302.573146 193.015805 
L 303.91503 193.67234 
L 306.598798 193.67234 
L 307.940681 202.86383 
L 309.282565 191.374468 
L 310.624449 190.499088 
L 311.966333 190.280243 
L 313.308216 190.827356 
L 315.991984 189.733131 
L 317.333868 188.638906 
L 318.675752 183.714894 
L 320.017635 204.395745 
L 321.359519 205.271125 
L 322.701403 206.912462 
L 324.043287 206.912462 
L 325.38517 202.973252 
L 326.727054 202.42614 
L 328.068938 204.395745 
L 329.410822 186.778723 
L 330.752705 188.201216 
L 332.094589 187.872948 
L 333.436473 187.325836 
L 334.778357 185.356231 
L 336.12024 184.809119 
L 337.462124 185.137386 
L 338.804008 183.933739 
L 340.145892 186.888146 
L 341.487776 183.933739 
L 342.829659 186.012766 
L 344.171543 187.106991 
L 345.513427 189.186018 
L 346.855311 187.435258 
L 348.197194 187.763526 
L 349.539078 187.763526 
L 350.880962 179.228571 
L 352.222846 181.526444 
L 353.564729 186.122188 
L 354.906613 186.122188 
L 356.248497 185.575076 
L 357.590381 185.575076 
L 358.932265 186.450456 
L 360.274148 186.997568 
L 361.616032 187.872948 
L 362.957916 183.605471 
L 364.2998 183.933739 
L 365.641683 181.635866 
L 366.983567 180.541641 
L 368.325451 180.541641 
L 369.667335 179.337994 
L 371.009218 176.821277 
L 373.692986 171.350152 
L 375.03487 181.526444 
L 376.376754 169.380547 
L 377.718637 169.161702 
L 379.060521 167.73921 
L 380.402405 167.192097 
L 381.744289 163.690578 
L 383.086172 164.894225 
L 384.428056 165.222492 
L 385.76994 165.222492 
L 387.111824 182.073556 
L 388.453707 165.222492 
L 389.795591 182.401824 
L 391.137475 184.152584 
L 392.479359 183.277204 
L 393.821242 185.356231 
L 395.163126 185.575076 
L 396.50501 184.152584 
L 397.846894 163.581155 
L 399.188778 163.034043 
L 400.530661 163.034043 
L 401.872545 162.268085 
L 403.214429 160.189058 
L 404.556313 160.517325 
L 405.898196 159.094833 
L 407.24008 158.875988 
L 408.581964 163.8 
L 409.923848 159.094833 
L 411.265731 156.031003 
L 413.949499 158.875988 
L 415.291383 161.720973 
L 416.633267 163.471733 
L 417.97515 163.471733 
L 419.317034 174.085714 
L 420.658918 165.222492 
L 422.000802 168.395745 
L 423.342685 166.644985 
L 426.026453 165.55076 
L 427.368337 165.55076 
L 428.71022 165.003647 
L 430.052104 164.67538 
L 431.393988 163.909422 
L 432.735872 158.766565 
L 434.077756 157.67234 
L 435.419639 157.015805 
L 436.761523 155.046201 
L 438.103407 156.249848 
L 439.445291 156.79696 
L 440.787174 157.125228 
L 442.129058 156.031003 
L 443.470942 156.249848 
L 444.812826 162.705775 
L 446.154709 152.857751 
L 447.496593 154.499088 
L 448.838477 155.483891 
L 450.180361 155.702736 
L 451.522244 155.702736 
L 452.864128 155.483891 
L 454.206012 156.578116 
L 455.547896 156.906383 
L 456.88978 156.140426 
L 458.231663 162.377508 
L 459.573547 159.532523 
L 460.915431 160.189058 
L 462.257315 158.11003 
L 464.941082 159.313678 
L 466.282966 155.374468 
L 467.62485 154.827356 
L 468.966733 153.404863 
L 471.650501 152.857751 
L 472.992385 151.106991 
L 474.334269 150.231611 
L 475.676152 146.511246 
L 477.018036 147.933739 
L 478.35992 156.687538 
L 479.701804 148.262006 
L 481.043687 148.262006 
L 482.385571 146.839514 
L 483.727455 147.386626 
L 485.069339 147.496049 
L 486.411222 146.292401 
L 487.753106 146.620669 
L 489.09499 146.620669 
L 490.436874 155.593313 
L 491.778758 146.073556 
L 493.120641 145.745289 
L 494.462525 156.687538 
L 495.804409 157.015805 
L 497.146293 156.687538 
L 498.488176 157.015805 
L 499.83006 157.562918 
L 501.171944 155.921581 
L 502.513828 147.714894 
L 503.855711 147.058359 
L 505.197595 146.839514 
L 506.539479 146.292401 
L 507.881363 143.009726 
L 509.223246 142.462614 
L 510.56513 143.666261 
L 511.907014 143.994529 
L 513.248898 144.103951 
L 514.590782 144.869909 
L 515.932665 143.994529 
L 517.274549 144.869909 
L 518.616433 144.541641 
L 519.958317 143.994529 
L 521.3002 144.322796 
L 522.642084 142.572036 
L 523.983968 141.477812 
L 525.325852 140.930699 
L 526.667735 145.198176 
L 528.009619 142.134347 
L 529.351503 141.587234 
L 530.693387 145.526444 
L 533.377154 145.635866 
L 534.719038 144.760486 
L 536.060922 144.760486 
L 537.402806 145.307599 
L 538.744689 135.350152 
L 540.086573 134.255927 
L 541.428457 131.520365 
L 542.770341 130.973252 
L 544.112224 129.879027 
L 545.454108 129.879027 
L 546.795992 129.55076 
L 548.137876 128.784802 
L 549.47976 128.456535 
L 552.163527 128.565957 
L 553.505411 129.11307 
L 554.847295 128.23769 
L 556.189178 127.690578 
L 558.872946 128.23769 
L 560.21483 128.894225 
L 561.556713 128.894225 
L 562.898597 141.806079 
L 564.240481 138.961094 
L 565.582365 139.289362 
L 566.924248 139.289362 
L 568.266132 135.350152 
L 569.608016 135.568997 
L 570.9499 126.48693 
L 572.291784 128.23769 
L 573.633667 127.909422 
L 574.975551 128.565957 
L 576.317435 129.441337 
L 577.659319 129.441337 
L 579.001202 128.565957 
L 580.343086 126.377508 
L 581.68497 122.875988 
L 583.026854 126.04924 
L 584.368737 127.252888 
L 585.710621 126.705775 
L 587.052505 128.128267 
L 588.394389 126.158663 
L 589.736273 126.158663 
L 591.078156 125.830395 
L 592.42004 126.705775 
L 593.761924 125.17386 
L 595.103808 127.471733 
L 596.445691 130.973252 
L 597.787575 135.897264 
L 599.129459 129.55076 
L 600.471343 128.67538 
L 601.813226 128.456535 
L 603.15511 125.283283 
L 604.496994 126.48693 
L 605.838878 132.833435 
L 607.180762 131.73921 
L 608.522645 131.73921 
L 609.864529 131.192097 
L 611.206413 133.161702 
L 612.548297 131.848632 
L 613.89018 131.73921 
L 615.232064 131.848632 
L 616.573948 129.331915 
L 617.915832 132.395745 
L 619.257715 131.30152 
L 620.599599 131.848632 
L 621.941483 131.848632 
L 623.283367 130.754407 
L 624.625251 132.505167 
L 625.967134 131.520365 
L 627.309018 132.067477 
L 628.650902 129.55076 
L 629.992786 129.331915 
L 632.676553 130.42614 
L 634.018437 132.833435 
L 635.360321 132.833435 
L 636.702204 134.037082 
L 638.044088 133.161702 
L 639.385972 134.037082 
L 640.727856 134.584195 
L 643.411623 134.693617 
L 644.753507 134.912462 
L 646.095391 134.912462 
L 647.437275 136.444377 
L 648.779158 130.754407 
L 650.121042 139.836474 
L 651.462926 138.742249 
L 652.80481 141.368389 
L 654.146693 142.462614 
L 655.488577 144.541641 
L 656.830461 144.541641 
L 658.172345 148.043161 
L 659.514228 148.043161 
L 660.856112 147.277204 
L 662.197996 147.824316 
L 663.53988 130.973252 
L 664.881764 132.1769 
L 666.223647 131.629787 
L 667.565531 132.505167 
L 668.907415 133.708815 
L 670.249299 134.037082 
L 671.591182 146.182979 
L 672.933066 145.417021 
L 674.27495 143.666261 
L 675.616834 143.994529 
L 676.958717 143.666261 
L 678.300601 142.572036 
L 679.642485 142.572036 
L 680.984369 142.900304 
L 682.326253 145.854711 
L 685.01002 141.806079 
L 686.351904 143.556839 
L 687.693788 144.869909 
L 689.035671 144.651064 
L 690.377555 146.401824 
L 691.719439 146.401824 
L 693.061323 146.948936 
L 694.403206 149.575076 
L 695.74509 146.401824 
L 697.086974 146.182979 
L 698.428858 144.760486 
L 699.770741 144.760486 
L 701.112625 144.432219 
L 702.454509 145.088754 
L 703.796393 151.763526 
L 705.138277 151.216413 
L 706.48016 155.483891 
L 707.822044 155.483891 
L 709.163928 157.23465 
L 710.505812 154.717933 
L 711.847695 154.389666 
L 713.189579 154.717933 
L 714.531463 149.575076 
L 715.873347 153.623708 
L 717.21523 150.669301 
L 718.557114 151.872948 
L 719.898998 156.687538 
L 721.240882 155.046201 
L 722.582766 155.593313 
L 723.924649 157.344073 
L 725.266533 158.54772 
L 726.608417 147.277204 
L 727.950301 158.000608 
L 729.292184 167.73921 
L 730.634068 147.058359 
L 731.975952 146.730091 
L 734.659719 150.778723 
L 736.001603 150.231611 
L 737.343487 151.106991 
L 738.685371 188.529483 
L 740.027255 185.027964 
L 741.369138 187.654103 
L 742.711022 190.827356 
L 744.052906 189.076596 
L 745.39479 189.951976 
L 748.078557 182.511246 
L 749.420441 193.453495 
L 750.762325 201.222492 
L 752.104208 197.502128 
L 753.446092 197.502128 
L 754.787976 199.252888 
L 756.12986 197.830395 
L 757.471743 194.438298 
L 758.813627 196.955015 
L 760.155511 199.034043 
L 761.497395 166.644985 
L 762.839279 198.158663 
L 764.181162 176.383587 
L 765.523046 177.587234 
L 766.86493 185.575076 
L 768.206814 186.778723 
L 769.548697 190.717933 
L 772.232465 196.955015 
L 773.574349 199.581155 
L 774.916232 199.909422 
L 776.258116 199.581155 
L 777.6 192.140426 
L 777.6 192.140426 
" style="fill:none;stroke:#2ca02c;stroke-linecap:square;stroke-width:1.5;"/>
   </g>
   <g id="line2d_24">
    <path clip-path="url(#p751569b559)" d="M 108 215.775684 
L 109.341884 217.635866 
L 110.683768 216.869909 
L 112.025651 219.824316 
L 113.367535 223.654103 
L 114.709419 210.413982 
L 116.051303 222.012766 
L 117.393186 223.654103 
L 118.73507 214.900304 
L 120.076954 211.398784 
L 121.418838 210.413982 
L 122.760721 211.727052 
L 124.102605 211.398784 
L 125.444489 212.493009 
L 126.786373 227.593313 
L 128.128257 222.669301 
L 129.47014 219.058359 
L 130.812024 216.541641 
L 132.153908 215.447416 
L 133.495792 212.602432 
L 134.837675 212.602432 
L 136.179559 209.866869 
L 137.521443 209.319757 
L 138.863327 219.824316 
L 140.20521 204.61459 
L 141.547094 203.629787 
L 142.888978 206.146505 
L 144.230862 205.05228 
L 145.572745 209.100912 
L 146.914629 206.912462 
L 148.256513 201.55076 
L 149.598397 203.082675 
L 150.940281 198.04924 
L 152.282164 219.824316 
L 153.624048 230.219453 
L 154.965932 225.733131 
L 156.307816 232.189058 
L 157.649699 231.094833 
L 158.991583 80.748328 
L 160.333467 81.842553 
L 161.675351 79.544681 
L 163.017234 80.529483 
L 164.359118 80.857751 
L 165.701002 79.325836 
L 167.042886 75.167781 
L 168.38477 79.216413 
L 169.726653 76.699696 
L 171.068537 85.781763 
L 172.410421 76.918541 
L 173.752305 76.480851 
L 175.094188 80.420061 
L 176.436072 87.641945 
L 177.777956 85.453495 
L 179.11984 91.909422 
L 180.461723 91.36231 
L 181.803607 90.48693 
L 183.145491 87.4231 
L 184.487375 87.313678 
L 185.829259 84.359271 
L 187.171142 77.356231 
L 188.513026 77.027964 
L 189.85491 73.964134 
L 191.196794 75.277204 
L 192.538677 76.043161 
L 193.880561 81.842553 
L 195.222445 83.702736 
L 196.564329 86.657143 
L 197.906212 88.955015 
L 199.248096 94.86383 
L 200.58998 95.848632 
L 201.931864 96.067477 
L 203.273747 86.219453 
L 204.615631 94.535562 
L 205.957515 93.660182 
L 207.299399 93.55076 
L 208.641283 95.848632 
L 209.983166 95.848632 
L 211.32505 94.207295 
L 212.666934 93.98845 
L 215.350701 98.584195 
L 216.692585 77.356231 
L 218.034469 101.319757 
L 219.376353 78.669301 
L 220.718236 78.888146 
L 222.06012 75.277204 
L 223.402004 72.869909 
L 224.743888 71.775684 
L 226.085772 77.465653 
L 227.427655 112.809119 
L 230.111423 107.119149 
L 231.453307 108.651064 
L 232.79519 111.058359 
L 234.137074 110.730091 
L 235.478958 115.654103 
L 236.820842 119.812158 
L 238.162725 122.766565 
L 239.504609 117.951976 
L 240.846493 121.67234 
L 242.188377 121.67234 
L 243.530261 128.784802 
L 244.872144 128.128267 
L 246.214028 120.249848 
L 247.555912 123.532523 
L 248.897796 130.644985 
L 250.239679 95.958055 
L 251.581563 130.644985 
L 252.923447 135.568997 
L 254.265331 102.085714 
L 255.607214 104.821277 
L 256.949098 104.164742 
L 258.290982 108.979331 
L 259.632866 114.669301 
L 260.974749 117.623708 
L 262.316633 155.155623 
L 263.658517 155.921581 
L 265.000401 153.514286 
L 266.342285 152.857751 
L 267.684168 152.748328 
L 269.026052 147.277204 
L 270.367936 145.635866 
L 271.70982 141.806079 
L 273.051703 168.833435 
L 274.393587 141.258967 
L 275.735471 141.806079 
L 277.077355 145.964134 
L 278.419238 143.447416 
L 279.761122 144.869909 
L 281.103006 139.945897 
L 282.44489 139.945897 
L 283.786774 137.210334 
L 285.128657 164.23769 
L 286.470541 135.678419 
L 287.812425 134.255927 
L 289.154309 164.784802 
L 290.496192 162.04924 
L 291.838076 160.189058 
L 293.17996 159.970213 
L 294.521844 159.970213 
L 295.863727 155.374468 
L 297.205611 131.958055 
L 298.547495 130.42614 
L 299.889379 131.520365 
L 301.231263 121.125228 
L 302.573146 120.578116 
L 303.91503 122.766565 
L 305.256914 122.766565 
L 306.598798 119.921581 
L 307.940681 129.441337 
L 309.282565 120.687538 
L 310.624449 116.310638 
L 311.966333 119.265046 
L 313.308216 123.532523 
L 314.6501 122.98541 
L 315.991984 124.407903 
L 317.333868 118.608511 
L 318.675752 120.79696 
L 320.017635 127.034043 
L 321.359519 126.815198 
L 322.701403 142.790881 
L 324.043287 131.958055 
L 325.38517 130.42614 
L 326.727054 131.73921 
L 328.068938 131.958055 
L 329.410822 119.155623 
L 330.752705 121.891185 
L 332.094589 123.313678 
L 333.436473 124.29848 
L 334.778357 123.204255 
L 336.12024 121.015805 
L 337.462124 119.812158 
L 338.804008 119.702736 
L 340.145892 127.36231 
L 341.487776 114.778723 
L 342.829659 117.623708 
L 344.171543 123.4231 
L 345.513427 125.392705 
L 346.855311 125.064438 
L 348.197194 121.344073 
L 349.539078 129.003647 
L 350.880962 126.158663 
L 352.222846 129.879027 
L 353.564729 122.219453 
L 354.906613 124.626748 
L 356.248497 120.79696 
L 357.590381 119.812158 
L 358.932265 120.468693 
L 360.274148 122.657143 
L 361.616032 120.031003 
L 362.957916 122.98541 
L 364.2998 124.29848 
L 365.641683 117.076596 
L 366.983567 117.951976 
L 368.325451 116.091793 
L 369.667335 116.857751 
L 371.009218 115.872948 
L 372.351102 111.167781 
L 373.692986 108.541641 
L 375.03487 127.690578 
L 376.376754 103.617629 
L 377.718637 102.851672 
L 379.060521 101.429179 
L 380.402405 100.772644 
L 381.744289 99.240729 
L 383.086172 102.304559 
L 384.428056 103.398784 
L 385.76994 103.398784 
L 387.111824 131.192097 
L 388.453707 103.727052 
L 389.795591 125.830395 
L 391.137475 122.875988 
L 392.479359 121.344073 
L 393.821242 127.143465 
L 395.163126 125.61155 
L 396.50501 125.939818 
L 397.846894 100.553799 
L 399.188778 99.678419 
L 400.530661 99.131307 
L 401.872545 97.05228 
L 403.214429 91.034043 
L 404.556313 88.079635 
L 405.898196 88.626748 
L 407.24008 94.207295 
L 408.581964 102.304559 
L 409.923848 91.8 
L 411.265731 93.441337 
L 412.607615 93.11307 
L 413.949499 101.100912 
L 415.291383 102.304559 
L 416.633267 107.775684 
L 417.97515 111.386626 
L 419.317034 125.61155 
L 420.658918 103.398784 
L 422.000802 116.638906 
L 423.342685 114.778723 
L 424.684569 105.806079 
L 426.026453 105.258967 
L 427.368337 105.040122 
L 428.71022 105.040122 
L 430.052104 102.632827 
L 431.393988 99.350152 
L 432.735872 104.711854 
L 434.077756 104.274164 
L 435.419639 102.413982 
L 436.761523 99.787842 
L 438.103407 102.961094 
L 439.445291 103.945897 
L 440.787174 104.164742 
L 442.129058 104.711854 
L 443.470942 106.900304 
L 444.812826 109.635866 
L 446.154709 102.961094 
L 447.496593 107.337994 
L 450.180361 107.666261 
L 451.522244 108.979331 
L 452.864128 109.745289 
L 454.206012 114.888146 
L 455.547896 112.809119 
L 456.88978 110.401824 
L 458.231663 108.979331 
L 459.573547 104.274164 
L 460.915431 107.337994 
L 462.257315 102.632827 
L 463.599198 107.119149 
L 464.941082 105.477812 
L 466.282966 107.775684 
L 467.62485 110.620669 
L 468.966733 109.526444 
L 470.308617 111.824316 
L 471.650501 111.824316 
L 472.992385 109.198176 
L 474.334269 107.885106 
L 475.676152 106.790881 
L 477.018036 111.058359 
L 478.35992 110.839514 
L 479.701804 107.775684 
L 481.043687 107.556839 
L 482.385571 101.319757 
L 483.727455 101.538602 
L 485.069339 98.474772 
L 486.411222 96.724012 
L 487.753106 98.80304 
L 489.09499 98.80304 
L 490.436874 108.651064 
L 491.778758 98.255927 
L 493.120641 98.584195 
L 494.462525 112.262006 
L 495.804409 111.167781 
L 497.146293 111.386626 
L 498.488176 112.809119 
L 499.83006 112.590274 
L 501.171944 109.088754 
L 502.513828 109.635866 
L 503.855711 110.620669 
L 505.197595 109.635866 
L 506.539479 106.681459 
L 507.881363 110.948936 
L 509.223246 109.854711 
L 510.56513 110.073556 
L 511.907014 109.745289 
L 513.248898 95.629787 
L 514.590782 114.888146 
L 515.932665 111.933739 
L 517.274549 114.341033 
L 518.616433 112.152584 
L 519.958317 113.027964 
L 521.3002 112.262006 
L 522.642084 110.292401 
L 523.983968 106.353191 
L 525.325852 105.587234 
L 526.667735 97.818237 
L 528.009619 109.088754 
L 529.351503 110.620669 
L 530.693387 102.304559 
L 532.035271 101.757447 
L 533.377154 102.851672 
L 534.719038 98.912462 
L 536.060922 100.006687 
L 537.402806 102.851672 
L 538.744689 101.100912 
L 540.086573 96.1769 
L 541.428457 97.05228 
L 542.770341 95.520365 
L 544.112224 92.347112 
L 545.454108 92.347112 
L 546.795992 93.660182 
L 548.137876 87.86079 
L 550.821643 86.875988 
L 552.163527 87.204255 
L 553.505411 87.204255 
L 554.847295 85.344073 
L 556.189178 83.812158 
L 557.531062 88.079635 
L 558.872946 86.54772 
L 560.21483 86.875988 
L 561.556713 86.000608 
L 562.898597 110.401824 
L 564.240481 106.681459 
L 565.582365 107.119149 
L 566.924248 109.635866 
L 568.266132 101.757447 
L 569.608016 101.538602 
L 570.9499 129.11307 
L 572.291784 133.708815 
L 574.975551 133.708815 
L 577.659319 132.067477 
L 579.001202 128.347112 
L 580.343086 122.98541 
L 581.68497 135.568997 
L 583.026854 124.845593 
L 584.368737 128.018845 
L 585.710621 127.471733 
L 587.052505 131.192097 
L 588.394389 125.939818 
L 589.736273 126.158663 
L 591.078156 127.690578 
L 592.42004 131.73921 
L 593.761924 140.164742 
L 595.103808 138.304559 
L 596.445691 143.228571 
L 597.787575 152.529483 
L 599.129459 136.553799 
L 600.471343 136.444377 
L 601.813226 132.505167 
L 603.15511 127.8 
L 604.496994 131.30152 
L 605.838878 142.790881 
L 607.180762 139.945897 
L 608.522645 137.429179 
L 609.864529 133.48997 
L 611.206413 139.617629 
L 612.548297 137.429179 
L 613.89018 136.663222 
L 615.232064 141.149544 
L 616.573948 136.334954 
L 617.915832 139.836474 
L 619.257715 135.240729 
L 620.599599 139.836474 
L 621.941483 138.304559 
L 623.283367 138.742249 
L 624.625251 142.462614 
L 627.309018 134.912462 
L 628.650902 135.021884 
L 629.992786 132.61459 
L 631.334669 134.80304 
L 632.676553 135.787842 
L 634.018437 140.493009 
L 635.360321 142.681459 
L 636.702204 144.322796 
L 638.044088 142.790881 
L 639.385972 147.058359 
L 640.727856 144.103951 
L 642.069739 144.322796 
L 643.411623 147.933739 
L 644.753507 147.605471 
L 647.437275 144.432219 
L 648.779158 129.98845 
L 650.121042 155.702736 
L 651.462926 154.061398 
L 652.80481 165.11307 
L 654.146693 164.018845 
L 655.488577 170.912462 
L 656.830461 168.61459 
L 658.172345 172.772644 
L 659.514228 168.505167 
L 660.856112 165.55076 
L 662.197996 162.92462 
L 663.53988 129.003647 
L 664.881764 133.48997 
L 666.223647 133.48997 
L 667.565531 136.772644 
L 668.907415 143.009726 
L 670.249299 144.103951 
L 671.591182 161.830395 
L 672.933066 157.015805 
L 674.27495 150.122188 
L 675.616834 150.559878 
L 676.958717 150.669301 
L 678.300601 146.948936 
L 679.642485 147.167781 
L 680.984369 150.997568 
L 682.326253 155.812158 
L 683.668136 151.325836 
L 685.01002 149.246809 
L 686.351904 151.872948 
L 687.693788 157.23465 
L 689.035671 155.265046 
L 690.377555 159.641945 
L 691.719439 157.23465 
L 693.061323 160.407903 
L 694.403206 160.955015 
L 695.74509 156.031003 
L 697.086974 157.125228 
L 698.428858 157.562918 
L 699.770741 156.906383 
L 701.112625 155.702736 
L 702.454509 157.781763 
L 703.796393 162.04924 
L 706.48016 171.131307 
L 707.822044 170.474772 
L 709.163928 174.851672 
L 710.505812 172.663222 
L 711.847695 172.116109 
L 713.189579 170.80304 
L 714.531463 158.219453 
L 715.873347 168.833435 
L 717.21523 166.42614 
L 718.557114 171.787842 
L 719.898998 178.462614 
L 721.240882 178.024924 
L 722.582766 178.572036 
L 723.924649 183.714894 
L 725.266533 183.605471 
L 726.608417 153.404863 
L 727.950301 188.638906 
L 729.292184 200.565957 
L 730.634068 155.593313 
L 731.975952 155.593313 
L 733.317836 159.313678 
L 734.659719 163.690578 
L 736.001603 159.86079 
L 737.343487 163.690578 
L 738.685371 200.456535 
L 740.027255 200.67538 
L 742.711022 209.429179 
L 744.052906 209.319757 
L 745.39479 207.897264 
L 746.736673 207.568997 
L 748.078557 209.866869 
L 749.420441 217.088754 
L 750.762325 215.885106 
L 752.104208 213.587234 
L 753.446092 213.696657 
L 754.787976 218.948936 
L 756.12986 221.027964 
L 757.471743 213.477812 
L 758.813627 216.541641 
L 760.155511 216.760486 
L 761.497395 201.660182 
L 762.839279 211.727052 
L 764.181162 208.882067 
L 765.523046 203.848632 
L 766.86493 205.48997 
L 768.206814 204.1769 
L 769.548697 207.678419 
L 770.890581 202.207295 
L 772.232465 213.696657 
L 773.574349 219.496049 
L 776.258116 220.918541 
L 777.6 209.210334 
L 777.6 209.210334 
" style="fill:none;stroke:#d62728;stroke-linecap:square;stroke-width:1.5;"/>
   </g>
   <g id="line2d_25">
    <path clip-path="url(#p751569b559)" d="M 108 169.92766 
L 109.341884 172.882067 
L 110.683768 172.225532 
L 112.025651 173.976292 
L 113.367535 177.258967 
L 114.709419 161.720973 
L 116.051303 176.493009 
L 117.393186 178.243769 
L 118.73507 167.410942 
L 120.076954 162.48693 
L 121.418838 161.502128 
L 122.760721 163.252888 
L 124.102605 162.705775 
L 125.444489 164.128267 
L 126.786373 181.635866 
L 128.128257 176.711854 
L 129.47014 173.100912 
L 130.812024 170.255927 
L 132.153908 170.912462 
L 133.495792 169.271125 
L 134.837675 169.271125 
L 136.179559 165.769605 
L 137.521443 164.456535 
L 138.863327 173.210334 
L 140.20521 161.502128 
L 141.547094 160.955015 
L 142.888978 163.690578 
L 144.230862 162.705775 
L 145.572745 167.082675 
L 146.914629 165.55076 
L 148.256513 157.453495 
L 149.598397 157.67234 
L 150.940281 154.280243 
L 152.282164 173.210334 
L 153.624048 184.480851 
L 154.965932 179.775684 
L 156.307816 186.778723 
L 157.649699 185.465653 
L 158.991583 62.912462 
L 160.333467 65.976292 
L 161.675351 63.678419 
L 163.017234 64.553799 
L 164.359118 64.882067 
L 165.701002 64.116109 
L 167.042886 59.30152 
L 168.38477 62.584195 
L 169.726653 60.505167 
L 171.068537 72.541641 
L 172.410421 60.942857 
L 173.752305 60.067477 
L 175.094188 63.240729 
L 176.436072 69.806079 
L 177.777956 68.164742 
L 179.11984 73.526444 
L 181.803607 72.213374 
L 183.145491 75.277204 
L 184.487375 68.930699 
L 187.171142 62.146505 
L 188.513026 61.48997 
L 189.85491 56.456535 
L 191.196794 56.67538 
L 192.538677 59.410942 
L 193.880561 65.429179 
L 195.222445 66.413982 
L 196.564329 68.055319 
L 197.906212 69.915502 
L 199.248096 74.839514 
L 200.58998 75.714894 
L 201.931864 75.058359 
L 203.273747 67.289362 
L 204.615631 75.277204 
L 205.957515 74.839514 
L 207.299399 74.839514 
L 208.641283 76.918541 
L 209.983166 76.699696 
L 211.32505 75.496049 
L 212.666934 75.496049 
L 214.008818 75.277204 
L 215.350701 78.450456 
L 216.692585 57.879027 
L 218.034469 82.717933 
L 219.376353 58.973252 
L 220.718236 59.958055 
L 222.06012 56.67538 
L 223.402004 56.018845 
L 224.743888 55.8 
L 226.085772 61.599392 
L 227.427655 96.942857 
L 228.769539 95.192097 
L 230.111423 91.690578 
L 231.453307 91.471733 
L 232.79519 93.441337 
L 234.137074 93.660182 
L 236.820842 101.319757 
L 238.162725 107.994529 
L 239.504609 102.961094 
L 240.846493 105.149544 
L 242.188377 105.149544 
L 243.530261 110.839514 
L 244.872144 109.198176 
L 246.214028 102.742249 
L 247.555912 106.681459 
L 248.897796 113.027964 
L 250.239679 77.684498 
L 251.581563 113.027964 
L 252.923447 116.310638 
L 254.265331 85.67234 
L 255.607214 91.252888 
L 256.949098 91.034043 
L 258.290982 93.769605 
L 259.632866 97.48997 
L 260.974749 100.663222 
L 262.316633 130.207295 
L 263.658517 132.61459 
L 265.000401 131.192097 
L 266.342285 130.973252 
L 267.684168 132.395745 
L 269.026052 127.143465 
L 271.70982 119.046201 
L 273.051703 147.058359 
L 274.393587 118.827356 
L 275.735471 119.593313 
L 277.077355 123.86079 
L 278.419238 120.468693 
L 279.761122 123.094833 
L 281.103006 119.155623 
L 282.44489 119.374468 
L 283.786774 114.888146 
L 285.128657 140.821277 
L 286.470541 112.152584 
L 287.812425 113.465653 
L 289.154309 142.681459 
L 290.496192 141.806079 
L 291.838076 139.289362 
L 293.17996 139.289362 
L 294.521844 138.851672 
L 295.863727 131.082675 
L 297.205611 97.599392 
L 298.547495 97.48997 
L 299.889379 100.225532 
L 301.231263 91.471733 
L 302.573146 92.23769 
L 303.91503 95.848632 
L 305.256914 95.848632 
L 306.598798 94.097872 
L 307.940681 105.806079 
L 309.282565 93.879027 
L 310.624449 87.204255 
L 311.966333 90.815198 
L 313.308216 96.61459 
L 314.6501 95.629787 
L 315.991984 96.833435 
L 317.333868 92.784802 
L 318.675752 96.833435 
L 320.017635 99.350152 
L 321.359519 98.912462 
L 322.701403 113.793921 
L 324.043287 103.289362 
L 325.38517 100.116109 
L 326.727054 100.772644 
L 328.068938 97.599392 
L 329.410822 92.347112 
L 330.752705 96.61459 
L 332.094589 99.021884 
L 333.436473 101.757447 
L 334.778357 100.991489 
L 336.12024 98.912462 
L 337.462124 97.818237 
L 338.804008 97.708815 
L 340.145892 102.632827 
L 341.487776 92.894225 
L 342.829659 94.973252 
L 344.171543 101.319757 
L 345.513427 102.413982 
L 346.855311 101.538602 
L 348.197194 98.146505 
L 349.539078 106.572036 
L 350.880962 105.696657 
L 352.222846 110.292401 
L 353.564729 96.395745 
L 354.906613 98.584195 
L 356.248497 94.754407 
L 357.590381 94.42614 
L 358.932265 94.973252 
L 360.274148 97.599392 
L 361.616032 93.331915 
L 362.957916 103.727052 
L 364.2998 106.134347 
L 365.641683 99.131307 
L 366.983567 101.100912 
L 368.325451 99.131307 
L 369.667335 100.663222 
L 371.009218 100.553799 
L 372.351102 95.629787 
L 373.692986 91.471733 
L 375.03487 108.103951 
L 376.376754 86.328875 
L 379.060521 84.468693 
L 380.402405 82.061398 
L 381.744289 78.559878 
L 383.086172 83.812158 
L 384.428056 86.438298 
L 385.76994 86.438298 
L 387.111824 111.167781 
L 388.453707 86.875988 
L 389.795591 105.915502 
L 392.479359 100.116109 
L 393.821242 106.572036 
L 395.163126 105.368389 
L 396.50501 105.915502 
L 397.846894 85.891185 
L 400.530661 84.687538 
L 401.872545 81.733131 
L 403.214429 74.073556 
L 404.556313 70.572036 
L 405.898196 69.368389 
L 407.24008 75.386626 
L 408.581964 85.453495 
L 409.923848 73.198176 
L 411.265731 75.605471 
L 412.607615 75.058359 
L 413.949499 82.608511 
L 415.291383 84.468693 
L 416.633267 89.502128 
L 417.97515 93.11307 
L 419.317034 104.930699 
L 420.658918 84.578116 
L 422.000802 97.599392 
L 423.342685 97.271125 
L 424.684569 87.641945 
L 427.368337 87.094833 
L 428.71022 87.204255 
L 430.052104 85.015805 
L 431.393988 81.295441 
L 432.735872 87.204255 
L 434.077756 87.204255 
L 435.419639 85.781763 
L 436.761523 84.79696 
L 438.103407 89.064438 
L 439.445291 90.48693 
L 440.787174 90.596353 
L 442.129058 91.034043 
L 443.470942 93.222492 
L 444.812826 92.67538 
L 446.154709 88.845593 
L 447.496593 93.003647 
L 450.180361 93.879027 
L 451.522244 94.86383 
L 452.864128 95.410942 
L 454.206012 100.882067 
L 455.547896 99.459574 
L 456.88978 97.271125 
L 458.231663 92.23769 
L 459.573547 88.079635 
L 460.915431 90.04924 
L 462.257315 84.79696 
L 463.599198 90.48693 
L 464.941082 87.641945 
L 466.282966 96.505167 
L 467.62485 99.459574 
L 468.966733 98.474772 
L 470.308617 100.663222 
L 471.650501 100.663222 
L 472.992385 97.708815 
L 474.334269 97.271125 
L 475.676152 95.629787 
L 477.018036 99.678419 
L 478.35992 97.708815 
L 479.701804 93.441337 
L 481.043687 93.660182 
L 482.385571 86.328875 
L 483.727455 87.4231 
L 485.069339 84.906383 
L 486.411222 83.921581 
L 487.753106 86.54772 
L 489.09499 86.328875 
L 490.436874 96.067477 
L 491.778758 84.687538 
L 493.120641 86.11003 
L 494.462525 100.225532 
L 495.804409 99.240729 
L 498.488176 101.210334 
L 499.83006 101.100912 
L 501.171944 97.48997 
L 502.513828 95.848632 
L 503.855711 96.833435 
L 505.197595 95.410942 
L 506.539479 92.894225 
L 507.881363 96.833435 
L 509.223246 96.1769 
L 510.56513 96.833435 
L 511.907014 96.395745 
L 513.248898 81.404863 
L 514.590782 101.757447 
L 515.932665 99.240729 
L 517.274549 101.538602 
L 518.616433 100.772644 
L 519.958317 102.413982 
L 521.3002 101.538602 
L 522.642084 98.80304 
L 523.983968 94.644985 
L 525.325852 94.42614 
L 526.667735 83.483891 
L 528.009619 97.380547 
L 529.351503 97.271125 
L 530.693387 87.313678 
L 532.035271 86.766565 
L 533.377154 87.970213 
L 534.719038 84.468693 
L 536.060922 85.891185 
L 537.402806 89.720973 
L 538.744689 89.064438 
L 540.086573 84.031003 
L 541.428457 85.781763 
L 542.770341 84.79696 
L 544.112224 82.061398 
L 545.454108 81.951976 
L 546.795992 82.608511 
L 548.137876 75.714894 
L 549.47976 74.730091 
L 550.821643 74.948936 
L 552.163527 74.620669 
L 553.505411 74.730091 
L 554.847295 72.213374 
L 556.189178 71.228571 
L 557.531062 76.699696 
L 558.872946 75.933739 
L 560.21483 74.839514 
L 561.556713 74.401824 
L 562.898597 97.05228 
L 564.240481 93.11307 
L 565.582365 92.456535 
L 566.924248 95.30152 
L 568.266132 88.626748 
L 569.608016 88.29848 
L 570.9499 109.745289 
L 572.291784 114.888146 
L 573.633667 114.888146 
L 574.975551 114.122188 
L 576.317435 112.809119 
L 577.659319 111.824316 
L 579.001202 109.307599 
L 580.343086 105.149544 
L 581.68497 116.310638 
L 583.026854 106.790881 
L 584.368737 110.292401 
L 585.710621 109.307599 
L 587.052505 113.027964 
L 588.394389 108.322796 
L 589.736273 108.760486 
L 591.078156 109.526444 
L 592.42004 113.684498 
L 593.761924 122.11003 
L 595.103808 117.186018 
L 596.445691 122.11003 
L 597.787575 130.973252 
L 599.129459 118.280243 
L 600.471343 118.280243 
L 603.15511 111.496049 
L 604.496994 113.465653 
L 605.838878 122.000608 
L 607.180762 119.812158 
L 608.522645 116.310638 
L 609.864529 113.793921 
L 611.206413 119.702736 
L 613.89018 117.733131 
L 615.232064 121.781763 
L 616.573948 116.529483 
L 617.915832 120.468693 
L 619.257715 115.325836 
L 620.599599 119.812158 
L 621.941483 118.499088 
L 623.283367 118.280243 
L 624.625251 121.562918 
L 625.967134 116.310638 
L 627.309018 112.918541 
L 628.650902 115.763526 
L 629.992786 112.043161 
L 631.334669 114.341033 
L 632.676553 114.778723 
L 634.018437 119.483891 
L 635.360321 122.000608 
L 636.702204 122.438298 
L 638.044088 121.23465 
L 639.385972 125.720973 
L 640.727856 122.98541 
L 642.069739 122.438298 
L 643.411623 126.705775 
L 644.753507 126.377508 
L 646.095391 125.17386 
L 647.437275 123.751368 
L 648.779158 108.322796 
L 650.121042 133.92766 
L 651.462926 132.395745 
L 652.80481 143.556839 
L 654.146693 142.024924 
L 655.488577 147.058359 
L 656.830461 144.869909 
L 658.172345 149.684498 
L 659.514228 148.590274 
L 660.856112 146.839514 
L 662.197996 144.541641 
L 663.53988 107.556839 
L 664.881764 112.152584 
L 666.223647 112.699696 
L 667.565531 115.544681 
L 668.907415 121.23465 
L 670.249299 122.438298 
L 671.591182 140.493009 
L 672.933066 136.772644 
L 674.27495 129.879027 
L 675.616834 130.535562 
L 676.958717 130.535562 
L 678.300601 126.596353 
L 679.642485 126.377508 
L 680.984369 130.097872 
L 682.326253 136.334954 
L 683.668136 130.097872 
L 685.01002 127.143465 
L 686.351904 129.11307 
L 687.693788 134.693617 
L 689.035671 132.942857 
L 690.377555 136.663222 
L 691.719439 133.708815 
L 693.061323 139.727052 
L 694.403206 136.225532 
L 695.74509 134.584195 
L 697.086974 135.787842 
L 698.428858 136.772644 
L 699.770741 136.334954 
L 701.112625 134.474772 
L 702.454509 136.444377 
L 703.796393 139.617629 
L 705.138277 143.775684 
L 706.48016 147.277204 
L 707.822044 146.073556 
L 709.163928 150.122188 
L 710.505812 148.262006 
L 711.847695 148.371429 
L 713.189579 147.496049 
L 714.531463 136.444377 
L 715.873347 145.526444 
L 717.21523 144.541641 
L 718.557114 149.793921 
L 719.898998 156.140426 
L 721.240882 155.921581 
L 722.582766 157.453495 
L 723.924649 162.04924 
L 725.266533 162.705775 
L 726.608417 131.73921 
L 727.950301 167.629787 
L 729.292184 176.821277 
L 730.634068 133.380547 
L 731.975952 133.380547 
L 733.317836 136.663222 
L 734.659719 142.353191 
L 736.001603 138.304559 
L 737.343487 141.806079 
L 738.685371 174.961094 
L 740.027255 175.508207 
L 741.369138 178.024924 
L 742.711022 181.198176 
L 744.052906 182.182979 
L 745.39479 181.307599 
L 746.736673 181.417021 
L 748.078557 185.027964 
L 749.420441 188.201216 
L 750.762325 188.857751 
L 752.104208 184.918541 
L 753.446092 184.918541 
L 754.787976 189.404863 
L 756.12986 192.687538 
L 757.471743 185.903343 
L 758.813627 189.842553 
L 760.155511 190.608511 
L 761.497395 177.696657 
L 762.839279 186.450456 
L 764.181162 183.167781 
L 765.523046 178.134347 
L 766.86493 177.040122 
L 768.206814 178.134347 
L 769.548697 182.182979 
L 770.890581 178.134347 
L 772.232465 187.763526 
L 773.574349 194.000608 
L 774.916232 196.517325 
L 776.258116 197.064438 
L 777.6 187.106991 
L 777.6 187.106991 
" style="fill:none;stroke:#9467bd;stroke-linecap:square;stroke-width:1.5;"/>
   </g>
   <g id="patch_3">
    <path d="M 108 320.4 
L 108 43.2 
" style="fill:none;stroke:#000000;stroke-linecap:square;stroke-linejoin:miter;stroke-width:0.8;"/>
   </g>
   <g id="patch_4">
    <path d="M 777.6 320.4 
L 777.6 43.2 
" style="fill:none;stroke:#000000;stroke-linecap:square;stroke-linejoin:miter;stroke-width:0.8;"/>
   </g>
   <g id="patch_5">
    <path d="M 108 320.4 
L 777.6 320.4 
" style="fill:none;stroke:#000000;stroke-linecap:square;stroke-linejoin:miter;stroke-width:0.8;"/>
   </g>
   <g id="patch_6">
    <path d="M 108 43.2 
L 777.6 43.2 
" style="fill:none;stroke:#000000;stroke-linecap:square;stroke-linejoin:miter;stroke-width:0.8;"/>
   </g>
   <g id="text_12">
    <!-- 美国国债收益率 -->
    <defs>
     <path d="M 2.34375 37.546875 
L 46.1875 37.546875 
L 46.1875 46.734375 
L 10.359375 46.734375 
L 10.359375 53.375 
L 46.1875 53.375 
L 46.1875 62.359375 
L 4.5 62.359375 
L 4.5 69 
L 35.296875 69 
Q 30.28125 73.34375 22.265625 79.4375 
L 26.765625 84.328125 
Q 35.25 78.5625 40.921875 74.265625 
L 35.75 69 
L 61.71875 69 
L 58.109375 73.09375 
Q 65.828125 78.46875 72.078125 83.9375 
L 77.828125 78.46875 
Q 71.578125 73.78125 64.3125 69 
L 96.09375 69 
L 96.09375 62.359375 
L 54.203125 62.359375 
L 54.203125 53.375 
L 90.828125 53.375 
L 90.828125 46.734375 
L 54.203125 46.734375 
L 54.203125 37.546875 
L 97.859375 37.546875 
L 97.859375 30.90625 
L 2.34375 30.90625 
z
M 98.640625 -4.734375 
Q 94.921875 -9.71875 92.96875 -12.84375 
Q 60.890625 -6.546875 50.25 12.546875 
Q 40.71875 -7.625 6.34375 -13.625 
Q 4.390625 -10.296875 1.5625 -6.203125 
Q 34.375 -1.65625 42.828125 14.3125 
L 3.71875 14.3125 
L 3.71875 20.953125 
L 45.515625 20.953125 
Q 46.484375 24.359375 47.078125 28.765625 
L 55.078125 28.765625 
Q 54.296875 24.46875 53.328125 20.953125 
L 96.875 20.953125 
L 96.875 14.3125 
L 56.734375 14.3125 
Q 68.171875 -2.15625 98.640625 -4.734375 
z
" id="MicrosoftYaHei-7f8e"/>
     <path d="M 7.328125 78.078125 
L 92.78125 78.078125 
L 92.78125 -13.03125 
L 85.25 -13.03125 
L 85.25 -8.15625 
L 14.84375 -8.15625 
L 14.84375 -13.140625 
L 7.328125 -13.140625 
z
M 85.25 71.140625 
L 14.84375 71.140625 
L 14.84375 -1.21875 
L 85.25 -1.21875 
z
M 19.34375 15.765625 
L 46.296875 15.765625 
L 46.296875 35.109375 
L 22.75 35.109375 
L 22.75 41.75 
L 46.296875 41.75 
L 46.296875 54.828125 
L 20.90625 54.828125 
L 20.90625 61.46875 
L 79.109375 61.46875 
L 79.109375 54.828125 
L 53.515625 54.828125 
L 53.515625 41.75 
L 77.15625 41.75 
L 77.15625 35.109375 
L 53.515625 35.109375 
L 53.515625 15.765625 
L 80.671875 15.765625 
L 80.671875 9.125 
L 19.34375 9.125 
z
M 58.59375 28.859375 
L 64.0625 32.953125 
Q 69.4375 27.390625 73.25 22.515625 
L 67.484375 18.109375 
Q 62.796875 24.46875 58.59375 28.859375 
z
" id="MicrosoftYaHei-56fd"/>
     <path d="M 26.859375 47.40625 
L 58.984375 47.40625 
L 58.984375 54.34375 
L 34.1875 54.34375 
L 34.1875 60.5 
L 58.984375 60.5 
L 58.984375 67.328125 
L 31.0625 67.328125 
L 31.0625 73.484375 
L 58.984375 73.484375 
L 58.984375 82.171875 
L 66.3125 82.171875 
L 66.3125 73.484375 
L 95.125 73.484375 
L 95.125 67.328125 
L 66.3125 67.328125 
L 66.3125 60.5 
L 90.328125 60.5 
L 90.328125 54.34375 
L 66.3125 54.34375 
L 66.3125 47.40625 
L 97.953125 47.40625 
L 97.953125 41.265625 
L 26.859375 41.265625 
z
M 1.265625 35.203125 
Q 12.890625 54.25 19.34375 82.375 
L 26.46875 81.109375 
Q 23.640625 70.65625 20.40625 61.375 
L 20.40625 -13.71875 
L 13.28125 -13.71875 
L 13.28125 44.09375 
Q 8.890625 35.015625 3.90625 27.390625 
Q 2.734375 31.390625 1.265625 35.203125 
z
M 34.859375 34.625 
L 89.15625 34.625 
L 89.15625 4.4375 
L 82.03125 4.4375 
L 82.03125 28.265625 
L 42 28.265625 
L 42 3.953125 
L 34.859375 3.953125 
z
M 58.5 25.140625 
L 65.625 25.140625 
Q 65.625 17.046875 64.0625 10.984375 
Q 80.5625 2.78125 97.265625 -7.765625 
L 92.875 -14.015625 
Q 77.546875 -3.953125 61.921875 4.9375 
Q 60.546875 2.09375 58.6875 0.046875 
Q 50.875 -8.9375 31.453125 -13.921875 
Q 28.515625 -8.453125 27.25 -6.890625 
Q 45.90625 -2.875 52.25 3.859375 
Q 58.5 9.8125 58.5 25.140625 
z
" id="MicrosoftYaHei-503a"/>
     <path d="M 35.0625 41.546875 
Q 47.5625 63.234375 53.125 83.453125 
L 61.03125 81.203125 
Q 57.90625 72.171875 54.5 63.921875 
L 97.078125 63.921875 
L 97.078125 56.6875 
L 85.59375 56.6875 
Q 84.125 28.421875 71.09375 10.640625 
Q 81 1.859375 99.21875 -4.640625 
Q 96.1875 -8.453125 93.65625 -12.453125 
Q 76.265625 -5.03125 65.921875 4.6875 
Q 56.5 -4.59375 39.84375 -13.328125 
Q 37.796875 -10.109375 34.859375 -6.78125 
Q 51.515625 1.5625 60.59375 10.5 
Q 49.3125 24.609375 46 45.5625 
Q 43.265625 40.234375 40.328125 35.296875 
Q 38.484375 38.140625 35.0625 41.546875 
z
M 26.265625 82.671875 
L 33.6875 82.671875 
L 33.6875 -12.75 
L 26.265625 -12.75 
L 26.265625 17.390625 
Q 20.3125 14.0625 14.15625 10.015625 
Q 11.625 8.15625 9.1875 5.609375 
L 3.609375 12.15625 
Q 6.640625 15.375 6.640625 20.5625 
L 6.640625 69 
L 14.0625 69 
L 14.0625 19 
Q 19.875 22.078125 26.265625 25.53125 
z
M 77.875 56.6875 
L 51.90625 56.6875 
Q 53.328125 32.859375 65.671875 16.546875 
Q 76.8125 32.234375 77.875 56.6875 
z
" id="MicrosoftYaHei-6536"/>
     <path d="M 1.765625 -1.609375 
L 15.921875 -1.609375 
L 15.921875 31.203125 
L 84.46875 31.203125 
L 84.46875 -1.609375 
L 97.953125 -1.609375 
L 97.953125 -8.453125 
L 1.765625 -8.453125 
z
M 4.109375 64.3125 
L 57.375 64.3125 
Q 66.015625 72.65625 74.125 83.34375 
L 81.25 78.859375 
Q 74.609375 71.140625 67.671875 64.3125 
L 96.484375 64.3125 
L 96.484375 57.46875 
L 4.109375 57.46875 
z
M 77.4375 24.5625 
L 63.765625 24.5625 
L 63.765625 -1.609375 
L 77.4375 -1.609375 
z
M 22.953125 -1.609375 
L 36.53125 -1.609375 
L 36.53125 24.5625 
L 22.953125 24.5625 
z
M 43.359375 -1.609375 
L 56.9375 -1.609375 
L 56.9375 24.5625 
L 43.359375 24.5625 
z
M 36.53125 54.4375 
L 41.3125 48.09375 
Q 26.078125 38.8125 7.125 29.25 
Q 5.171875 33.0625 3.125 36.078125 
Q 21.390625 44.875 36.53125 54.4375 
z
M 59.28125 48.296875 
L 63.28125 54.25 
Q 82.8125 45.0625 97.078125 37.25 
L 92.78125 30.03125 
Q 73.53125 41.15625 59.28125 48.296875 
z
M 19.34375 78.375 
L 24.421875 83.453125 
Q 32.8125 77.390625 39.546875 71.625 
L 33.984375 65.765625 
Q 27.640625 71.828125 19.34375 78.375 
z
" id="MicrosoftYaHei-76ca"/>
     <path d="M 39.453125 31.390625 
Q 40.96875 31.5 61.375 32.515625 
Q 58.9375 35.9375 56.640625 38.921875 
L 61.921875 42.234375 
Q 68.953125 34.421875 74.90625 25.828125 
L 68.65625 21.921875 
Q 66.9375 24.515625 65.28125 26.953125 
Q 46.734375 25.921875 34.578125 24.953125 
Q 32.421875 24.75 29.390625 24.078125 
L 26.953125 30.71875 
Q 29.890625 31.6875 31.34375 32.5625 
Q 39.59375 38.140625 47.65625 45.515625 
Q 40.578125 45.21875 35.546875 44.78125 
Q 33.5 44.484375 31.0625 43.890625 
L 28.125 49.859375 
Q 30.5625 50.734375 32.625 52.59375 
Q 39.203125 58.15625 44.921875 66.0625 
L 3.609375 66.0625 
L 3.609375 72.90625 
L 47.359375 72.90625 
Q 44.96875 77.25 42.875 80.515625 
L 49.90625 83.9375 
Q 53.71875 78.125 56.5 72.90625 
L 96.484375 72.90625 
L 96.484375 66.0625 
L 47.703125 66.0625 
L 52.34375 63.625 
Q 44.4375 55.515625 38.96875 50.734375 
Q 44.53125 50.875 53.515625 51.078125 
Q 57.421875 54.984375 61.328125 59.328125 
L 68.0625 55.421875 
Q 52.546875 40.671875 39.453125 31.390625 
z
M 2.25 15.484375 
L 46.78125 15.484375 
L 46.78125 24.078125 
L 54.5 24.078125 
L 54.5 15.484375 
L 98.046875 15.484375 
L 98.046875 8.640625 
L 54.5 8.640625 
L 54.5 -13.328125 
L 46.78125 -13.328125 
L 46.78125 8.640625 
L 2.25 8.640625 
z
M 26.859375 41.75 
L 30.375 35.984375 
Q 18.75 29.15625 6.640625 22.015625 
L 2.546875 28.5625 
Q 12.703125 33.34375 26.859375 41.75 
z
M 75.875 41.84375 
Q 89.84375 33.9375 97.65625 28.375 
L 93.359375 22.015625 
Q 83.296875 29.828125 71.875 36.578125 
z
M 93.65625 56.109375 
Q 86.234375 49.65625 77.546875 43.890625 
L 72.5625 49.078125 
Q 81.9375 55.21875 88.09375 61.375 
z
M 5.671875 56.78125 
L 10.640625 61.578125 
Q 18.75 55.125 24.8125 49.359375 
L 19.34375 44 
Q 13.671875 49.953125 5.671875 56.78125 
z
" id="MicrosoftYaHei-7387"/>
    </defs>
    <g transform="translate(400.8 37.2)scale(0.12 -0.12)">
     <use xlink:href="#MicrosoftYaHei-7f8e"/>
     <use x="100" xlink:href="#MicrosoftYaHei-56fd"/>
     <use x="200" xlink:href="#MicrosoftYaHei-56fd"/>
     <use x="300" xlink:href="#MicrosoftYaHei-503a"/>
     <use x="400" xlink:href="#MicrosoftYaHei-6536"/>
     <use x="500" xlink:href="#MicrosoftYaHei-76ca"/>
     <use x="600" xlink:href="#MicrosoftYaHei-7387"/>
    </g>
   </g>
   <g id="legend_1">
    <g id="patch_7">
     <path d="M 706.557812 128.771875 
L 770.6 128.771875 
Q 772.6 128.771875 772.6 126.771875 
L 772.6 50.2 
Q 772.6 48.2 770.6 48.2 
L 706.557812 48.2 
Q 704.557812 48.2 704.557812 50.2 
L 704.557812 126.771875 
Q 704.557812 128.771875 706.557812 128.771875 
z
" style="fill:#ffffff;opacity:0.8;stroke:#cccccc;stroke-linejoin:miter;"/>
    </g>
    <g id="line2d_26">
     <path d="M 708.557812 56.69375 
L 728.557812 56.69375 
" style="fill:none;stroke:#1f77b4;stroke-linecap:square;stroke-width:1.5;"/>
    </g>
    <g id="line2d_27"/>
    <g id="text_13">
     <!-- 1mon -->
     <defs>
      <path d="M 86.28125 0 
L 76.703125 0 
L 76.703125 31 
Q 76.703125 39.796875 73.96875 43.578125 
Q 71.234375 47.359375 64.984375 47.359375 
Q 59.71875 47.359375 55.953125 42.421875 
Q 52.203125 37.5 52.203125 30.765625 
L 52.203125 0 
L 42.625 0 
L 42.625 31.984375 
Q 42.625 47.359375 30.765625 47.359375 
Q 25.296875 47.359375 21.703125 42.671875 
Q 18.109375 37.984375 18.109375 30.71875 
L 18.109375 0 
L 8.546875 0 
L 8.546875 54 
L 18.109375 54 
L 18.109375 45.453125 
L 18.3125 45.453125 
Q 24.078125 55.28125 35.15625 55.28125 
Q 40.578125 55.28125 44.71875 52.296875 
Q 48.875 49.3125 50.484375 44.234375 
Q 56.5 55.28125 68.453125 55.28125 
Q 86.28125 55.28125 86.28125 33.296875 
z
" id="MicrosoftYaHei-6d"/>
      <path d="M 4.9375 26.421875 
Q 4.9375 39.796875 12.40625 47.53125 
Q 19.875 55.28125 32.671875 55.28125 
Q 44.828125 55.28125 51.734375 47.828125 
Q 58.640625 40.375 58.640625 27.25 
Q 58.640625 14.453125 51.265625 6.59375 
Q 43.890625 -1.265625 31.5 -1.265625 
Q 19.390625 -1.265625 12.15625 6.34375 
Q 4.9375 13.96875 4.9375 26.421875 
z
M 14.703125 26.703125 
Q 14.703125 17.390625 19.40625 12.015625 
Q 24.125 6.640625 32.078125 6.640625 
Q 40.28125 6.640625 44.578125 11.890625 
Q 48.875 17.140625 48.875 26.953125 
Q 48.875 36.8125 44.578125 42.078125 
Q 40.28125 47.359375 32.078125 47.359375 
Q 24.03125 47.359375 19.359375 41.84375 
Q 14.703125 36.328125 14.703125 26.703125 
z
" id="MicrosoftYaHei-6f"/>
      <path d="M 54.203125 0 
L 44.671875 0 
L 44.671875 30.71875 
Q 44.671875 47.359375 32.515625 47.359375 
Q 26.21875 47.359375 22.15625 42.671875 
Q 18.109375 37.984375 18.109375 30.8125 
L 18.109375 0 
L 8.546875 0 
L 8.546875 54 
L 18.109375 54 
L 18.109375 45.0625 
L 18.3125 45.0625 
Q 24.421875 55.28125 36.03125 55.28125 
Q 44.921875 55.28125 49.5625 49.578125 
Q 54.203125 43.890625 54.203125 33.015625 
z
" id="MicrosoftYaHei-6e"/>
     </defs>
     <g transform="translate(736.557812 60.19375)scale(0.1 -0.1)">
      <use xlink:href="#MicrosoftYaHei-31"/>
      <use x="58.642578" xlink:href="#MicrosoftYaHei-6d"/>
      <use x="152.34375" xlink:href="#MicrosoftYaHei-6f"/>
      <use x="215.917969" xlink:href="#MicrosoftYaHei-6e"/>
     </g>
    </g>
    <g id="line2d_28">
     <path d="M 708.557812 72.173437 
L 728.557812 72.173437 
" style="fill:none;stroke:#ff7f0e;stroke-linecap:square;stroke-width:1.5;"/>
    </g>
    <g id="line2d_29"/>
    <g id="text_14">
     <!-- 3mon -->
     <g transform="translate(736.557812 75.673437)scale(0.1 -0.1)">
      <use xlink:href="#MicrosoftYaHei-33"/>
      <use x="58.642578" xlink:href="#MicrosoftYaHei-6d"/>
      <use x="152.34375" xlink:href="#MicrosoftYaHei-6f"/>
      <use x="215.917969" xlink:href="#MicrosoftYaHei-6e"/>
     </g>
    </g>
    <g id="line2d_30">
     <path d="M 708.557812 87.653125 
L 728.557812 87.653125 
" style="fill:none;stroke:#2ca02c;stroke-linecap:square;stroke-width:1.5;"/>
    </g>
    <g id="line2d_31"/>
    <g id="text_15">
     <!-- 1year -->
     <defs>
      <path d="M 52.484375 54 
L 27.984375 -8.15625 
Q 21.140625 -25.4375 8.6875 -25.4375 
Q 5.125 -25.4375 2.59375 -24.65625 
L 2.59375 -16.265625 
Q 5.375 -17.328125 7.953125 -17.328125 
Q 14.453125 -17.328125 17.671875 -9.71875 
L 21.828125 0.09375 
L 0.640625 54 
L 11.234375 54 
L 25.34375 13.421875 
L 26.515625 8.984375 
L 26.765625 8.984375 
Q 27.046875 10.5 27.9375 13.328125 
L 42.671875 54 
z
" id="MicrosoftYaHei-79"/>
      <path d="M 52.546875 24.5625 
L 14.75 24.5625 
Q 14.984375 15.921875 19.46875 11.203125 
Q 23.96875 6.5 32.03125 6.5 
Q 41.109375 6.5 48.6875 12.3125 
L 48.6875 3.765625 
Q 41.546875 -1.265625 29.78125 -1.265625 
Q 18.0625 -1.265625 11.5 6.15625 
Q 4.9375 13.578125 4.9375 26.765625 
Q 4.9375 39.15625 12.140625 47.21875 
Q 19.34375 55.28125 30.03125 55.28125 
Q 40.625 55.28125 46.578125 48.46875 
Q 52.546875 41.65625 52.546875 29.390625 
z
M 42.96875 32.234375 
Q 42.921875 39.546875 39.5 43.546875 
Q 36.078125 47.5625 29.890625 47.5625 
Q 24.171875 47.5625 20 43.3125 
Q 15.828125 39.0625 14.75 32.234375 
z
" id="MicrosoftYaHei-65"/>
      <path d="M 9.8125 50.25 
Q 17.875 55.28125 28.421875 55.28125 
Q 47.953125 55.28125 47.953125 34.765625 
L 47.953125 0 
L 38.484375 0 
L 38.484375 8.34375 
L 38.234375 8.34375 
Q 32.625 -1.265625 21.6875 -1.265625 
Q 13.8125 -1.265625 9.171875 2.984375 
Q 4.546875 7.234375 4.546875 14.453125 
Q 4.546875 29.59375 22.46875 32.078125 
L 38.484375 34.328125 
Q 38.484375 47.5625 27.546875 47.5625 
Q 17.828125 47.5625 9.8125 41.015625 
z
M 25.828125 25.390625 
Q 19.1875 24.515625 16.671875 22.0625 
Q 14.15625 19.625 14.15625 15.234375 
Q 14.15625 11.375 16.890625 8.9375 
Q 19.625 6.5 24.125 6.5 
Q 30.375 6.5 34.421875 10.890625 
Q 38.484375 15.28125 38.484375 21.921875 
L 38.484375 27.09375 
z
" id="MicrosoftYaHei-61"/>
      <path d="M 37.5 44.53125 
Q 35.109375 46.234375 30.90625 46.234375 
Q 25.34375 46.234375 21.71875 41.03125 
Q 18.109375 35.84375 18.109375 27.34375 
L 18.109375 0 
L 8.546875 0 
L 8.546875 54 
L 18.109375 54 
L 18.109375 43.015625 
L 18.3125 43.015625 
Q 22.40625 54.9375 32.46875 54.9375 
Q 35.75 54.9375 37.5 54.203125 
z
" id="MicrosoftYaHei-72"/>
     </defs>
     <g transform="translate(736.557812 91.153125)scale(0.1 -0.1)">
      <use xlink:href="#MicrosoftYaHei-31"/>
      <use x="58.642578" xlink:href="#MicrosoftYaHei-79"/>
      <use x="111.572266" xlink:href="#MicrosoftYaHei-65"/>
      <use x="168.310547" xlink:href="#MicrosoftYaHei-61"/>
      <use x="223.583984" xlink:href="#MicrosoftYaHei-72"/>
     </g>
    </g>
    <g id="line2d_32">
     <path d="M 708.557812 103.190625 
L 728.557812 103.190625 
" style="fill:none;stroke:#d62728;stroke-linecap:square;stroke-width:1.5;"/>
    </g>
    <g id="line2d_33"/>
    <g id="text_16">
     <!-- 5year -->
     <g transform="translate(736.557812 106.690625)scale(0.1 -0.1)">
      <use xlink:href="#MicrosoftYaHei-35"/>
      <use x="58.642578" xlink:href="#MicrosoftYaHei-79"/>
      <use x="111.572266" xlink:href="#MicrosoftYaHei-65"/>
      <use x="168.310547" xlink:href="#MicrosoftYaHei-61"/>
      <use x="223.583984" xlink:href="#MicrosoftYaHei-72"/>
     </g>
    </g>
    <g id="line2d_34">
     <path d="M 708.557812 118.728125 
L 728.557812 118.728125 
" style="fill:none;stroke:#9467bd;stroke-linecap:square;stroke-width:1.5;"/>
    </g>
    <g id="line2d_35"/>
    <g id="text_17">
     <!-- 10year -->
     <g transform="translate(736.557812 122.228125)scale(0.1 -0.1)">
      <use xlink:href="#MicrosoftYaHei-31"/>
      <use x="58.642578" xlink:href="#MicrosoftYaHei-30"/>
      <use x="117.285156" xlink:href="#MicrosoftYaHei-79"/>
      <use x="170.214844" xlink:href="#MicrosoftYaHei-65"/>
      <use x="226.953125" xlink:href="#MicrosoftYaHei-61"/>
      <use x="282.226562" xlink:href="#MicrosoftYaHei-72"/>
     </g>
    </g>
   </g>
  </g>
 </g>
 <defs>
  <clipPath id="p751569b559">
   <rect height="277.2" width="669.6" x="108" y="43.2"/>
  </clipPath>
 </defs>
</svg>
