<?xml version="1.0" encoding="utf-8" standalone="no"?>
<!DOCTYPE svg PUBLIC "-//W3C//DTD SVG 1.1//EN"
  "http://www.w3.org/Graphics/SVG/1.1/DTD/svg11.dtd">
<!-- Created with matplotlib (http://matplotlib.org/) -->
<svg height="432pt" version="1.1" viewBox="0 0 864 432" width="864pt" xmlns="http://www.w3.org/2000/svg" xmlns:xlink="http://www.w3.org/1999/xlink">
 <defs>
  <style type="text/css">
*{stroke-linecap:butt;stroke-linejoin:round;}
  </style>
 </defs>
 <g id="figure_1">
  <g id="patch_1">
   <path d="M 0 432 
L 864 432 
L 864 0 
L 0 0 
z
" style="fill:#ffffff;"/>
  </g>
  <g id="axes_1">
   <g id="patch_2">
    <path d="M 108 384.48 
L 777.6 384.48 
L 777.6 51.84 
L 108 51.84 
z
" style="fill:#ffffff;"/>
   </g>
   <g id="matplotlib.axis_1">
    <g id="xtick_1">
     <g id="line2d_1">
      <defs>
       <path d="M 0 0 
L 0 3.5 
" id="mb29fd5bf6f" style="stroke:#000000;stroke-width:0.8;"/>
      </defs>
      <g>
       <use style="stroke:#000000;stroke-width:0.8;" x="108" xlink:href="#mb29fd5bf6f" y="384.48"/>
      </g>
     </g>
     <g id="text_1">
      <!-- 2017-01-04 -->
      <defs>
       <path d="M 51.171875 0 
L 5.171875 0 
L 5.171875 8.296875 
L 27.15625 30.21875 
Q 36.234375 39.3125 39.3125 44.609375 
Q 42.390625 49.90625 42.390625 55.5625 
Q 42.390625 62.015625 38.765625 65.453125 
Q 35.15625 68.890625 28.328125 68.890625 
Q 18.21875 68.890625 9.03125 60.296875 
L 9.03125 70.015625 
Q 17.96875 76.90625 29.828125 76.90625 
Q 40.046875 76.90625 45.953125 71.390625 
Q 51.859375 65.875 51.859375 56.546875 
Q 51.859375 49.515625 48.0625 42.75 
Q 44.28125 35.984375 33.734375 25.53125 
L 16.5 8.6875 
L 16.5 8.5 
L 51.171875 8.5 
z
" id="MicrosoftYaHei-32"/>
       <path d="M 4.4375 36.328125 
Q 4.4375 56.34375 11.078125 66.625 
Q 17.71875 76.90625 30.328125 76.90625 
Q 54.34375 76.90625 54.34375 38.140625 
Q 54.34375 19 47.578125 8.859375 
Q 40.828125 -1.265625 28.609375 -1.265625 
Q 17.09375 -1.265625 10.765625 8.34375 
Q 4.4375 17.96875 4.4375 36.328125 
z
M 14.203125 36.765625 
Q 14.203125 6.640625 29.5 6.640625 
Q 44.53125 6.640625 44.53125 37.25 
Q 44.53125 68.953125 29.78125 68.953125 
Q 14.203125 68.953125 14.203125 36.765625 
z
" id="MicrosoftYaHei-30"/>
       <path d="M 52.59375 0 
L 9.234375 0 
L 9.234375 8.25 
L 26.171875 8.25 
L 26.171875 65.671875 
L 8.796875 60.640625 
L 8.796875 69.4375 
L 35.6875 77.25 
L 35.6875 8.25 
L 52.59375 8.25 
z
" id="MicrosoftYaHei-31"/>
       <path d="M 53.765625 72.3125 
L 24.171875 0 
L 14.265625 0 
L 42.390625 67.1875 
L 4.59375 67.1875 
L 4.59375 75.640625 
L 53.765625 75.640625 
z
" id="MicrosoftYaHei-37"/>
       <path d="M 36.375 26.265625 
L 7.625 26.265625 
L 7.625 33.640625 
L 36.375 33.640625 
z
" id="MicrosoftYaHei-2d"/>
       <path d="M 55.078125 19.625 
L 45.40625 19.625 
L 45.40625 0 
L 36.140625 0 
L 36.140625 19.625 
L 0.875 19.625 
L 0.875 25.828125 
L 34.328125 75.640625 
L 45.40625 75.640625 
L 45.40625 27.203125 
L 55.078125 27.203125 
z
M 36.140625 27.203125 
L 36.140625 58.890625 
Q 36.140625 62.25 36.328125 66.65625 
L 36.140625 66.65625 
Q 35.453125 64.796875 33.25 60.84375 
L 10.75 27.203125 
z
" id="MicrosoftYaHei-34"/>
      </defs>
      <g transform="translate(80.217187 399.47375)scale(0.1 -0.1)">
       <use xlink:href="#MicrosoftYaHei-32"/>
       <use x="58.642578" xlink:href="#MicrosoftYaHei-30"/>
       <use x="117.285156" xlink:href="#MicrosoftYaHei-31"/>
       <use x="175.927734" xlink:href="#MicrosoftYaHei-37"/>
       <use x="234.570312" xlink:href="#MicrosoftYaHei-2d"/>
       <use x="277.832031" xlink:href="#MicrosoftYaHei-30"/>
       <use x="336.474609" xlink:href="#MicrosoftYaHei-31"/>
       <use x="395.117188" xlink:href="#MicrosoftYaHei-2d"/>
       <use x="438.378906" xlink:href="#MicrosoftYaHei-30"/>
       <use x="497.021484" xlink:href="#MicrosoftYaHei-34"/>
      </g>
     </g>
    </g>
    <g id="xtick_2">
     <g id="line2d_2">
      <g>
       <use style="stroke:#000000;stroke-width:0.8;" x="233.628518" xlink:href="#mb29fd5bf6f" y="384.48"/>
      </g>
     </g>
     <g id="text_2">
      <!-- 2017-11-13 -->
      <defs>
       <path d="M 6.984375 12.640625 
Q 14.75 6.640625 24.515625 6.640625 
Q 32.328125 6.640625 36.890625 10.46875 
Q 41.453125 14.3125 41.453125 20.75 
Q 41.453125 35.109375 20.90625 35.109375 
L 14.59375 35.109375 
L 14.59375 43.015625 
L 20.609375 43.015625 
Q 38.8125 43.015625 38.8125 56.5 
Q 38.8125 68.953125 24.90625 68.953125 
Q 16.9375 68.953125 9.90625 63.578125 
L 9.90625 72.609375 
Q 17.328125 76.90625 27.25 76.90625 
Q 36.921875 76.90625 42.78125 71.84375 
Q 48.640625 66.796875 48.640625 58.734375 
Q 48.640625 43.890625 33.5 39.65625 
L 33.5 39.453125 
Q 41.703125 38.578125 46.453125 33.671875 
Q 51.21875 28.765625 51.21875 21.4375 
Q 51.21875 11.234375 43.875 4.984375 
Q 36.53125 -1.265625 24.3125 -1.265625 
Q 13.578125 -1.265625 6.984375 2.734375 
z
" id="MicrosoftYaHei-33"/>
      </defs>
      <g transform="translate(205.845705 399.47375)scale(0.1 -0.1)">
       <use xlink:href="#MicrosoftYaHei-32"/>
       <use x="58.642578" xlink:href="#MicrosoftYaHei-30"/>
       <use x="117.285156" xlink:href="#MicrosoftYaHei-31"/>
       <use x="175.927734" xlink:href="#MicrosoftYaHei-37"/>
       <use x="234.570312" xlink:href="#MicrosoftYaHei-2d"/>
       <use x="277.832031" xlink:href="#MicrosoftYaHei-31"/>
       <use x="336.474609" xlink:href="#MicrosoftYaHei-31"/>
       <use x="395.117188" xlink:href="#MicrosoftYaHei-2d"/>
       <use x="438.378906" xlink:href="#MicrosoftYaHei-31"/>
       <use x="497.021484" xlink:href="#MicrosoftYaHei-33"/>
      </g>
     </g>
    </g>
    <g id="xtick_3">
     <g id="line2d_3">
      <g>
       <use style="stroke:#000000;stroke-width:0.8;" x="359.257036" xlink:href="#mb29fd5bf6f" y="384.48"/>
      </g>
     </g>
     <g id="text_3">
      <!-- 2018-09-17 -->
      <defs>
       <path d="M 21.390625 39.796875 
Q 7.859375 46.09375 7.859375 58.0625 
Q 7.859375 66.40625 14.203125 71.65625 
Q 20.5625 76.90625 30.421875 76.90625 
Q 39.453125 76.90625 45.3125 71.96875 
Q 51.171875 67.046875 51.171875 59.234375 
Q 51.171875 46.625 37.0625 39.84375 
L 37.0625 39.65625 
Q 53.609375 33.6875 53.609375 19.34375 
Q 53.609375 9.90625 46.796875 4.3125 
Q 39.984375 -1.265625 27.78125 -1.265625 
Q 17.78125 -1.265625 11.46875 4.25 
Q 5.171875 9.765625 5.171875 18.5625 
Q 5.171875 33.015625 21.390625 39.59375 
z
M 41.5 58.109375 
Q 41.5 63.1875 38.328125 66.109375 
Q 35.15625 69.046875 29.734375 69.046875 
Q 24.65625 69.046875 21.09375 65.984375 
Q 17.53125 62.9375 17.53125 58.203125 
Q 17.53125 48.734375 29.390625 43.796875 
Q 41.5 48.828125 41.5 58.109375 
z
M 28.8125 35.25 
Q 14.796875 29.59375 14.796875 19.046875 
Q 14.796875 13.578125 18.890625 10.0625 
Q 23 6.546875 29.59375 6.546875 
Q 35.984375 6.546875 39.984375 10.03125 
Q 44 13.53125 44 18.75 
Q 44 29.734375 28.8125 35.25 
z
" id="MicrosoftYaHei-38"/>
       <path d="M 9.03125 10.25 
Q 15.28125 6.640625 22.515625 6.640625 
Q 32.671875 6.640625 38.25 14.640625 
Q 43.84375 22.65625 43.84375 37.40625 
Q 43.75 37.3125 43.65625 37.40625 
Q 38.671875 27.9375 26.90625 27.9375 
Q 17.390625 27.9375 11.140625 34.46875 
Q 4.890625 41.015625 4.890625 51.46875 
Q 4.890625 62.59375 11.71875 69.75 
Q 18.5625 76.90625 29.4375 76.90625 
Q 40.71875 76.90625 47.0625 68.046875 
Q 53.421875 59.1875 53.421875 42.234375 
Q 53.421875 21.296875 45.21875 10.015625 
Q 37.015625 -1.265625 22.515625 -1.265625 
Q 14.546875 -1.265625 9.03125 1.3125 
z
M 14.546875 52.6875 
Q 14.546875 45.0625 18.453125 40.59375 
Q 22.359375 36.140625 29.25 36.140625 
Q 35.203125 36.140625 39.25 40.203125 
Q 43.3125 44.28125 43.3125 50.09375 
Q 43.3125 58.25 39.28125 63.59375 
Q 35.25 68.953125 28.65625 68.953125 
Q 22.5625 68.953125 18.546875 64.3125 
Q 14.546875 59.671875 14.546875 52.6875 
z
" id="MicrosoftYaHei-39"/>
      </defs>
      <g transform="translate(331.474223 399.47375)scale(0.1 -0.1)">
       <use xlink:href="#MicrosoftYaHei-32"/>
       <use x="58.642578" xlink:href="#MicrosoftYaHei-30"/>
       <use x="117.285156" xlink:href="#MicrosoftYaHei-31"/>
       <use x="175.927734" xlink:href="#MicrosoftYaHei-38"/>
       <use x="234.570312" xlink:href="#MicrosoftYaHei-2d"/>
       <use x="277.832031" xlink:href="#MicrosoftYaHei-30"/>
       <use x="336.474609" xlink:href="#MicrosoftYaHei-39"/>
       <use x="395.117188" xlink:href="#MicrosoftYaHei-2d"/>
       <use x="438.378906" xlink:href="#MicrosoftYaHei-31"/>
       <use x="497.021484" xlink:href="#MicrosoftYaHei-37"/>
      </g>
     </g>
    </g>
    <g id="xtick_4">
     <g id="line2d_4">
      <g>
       <use style="stroke:#000000;stroke-width:0.8;" x="484.885553" xlink:href="#mb29fd5bf6f" y="384.48"/>
      </g>
     </g>
     <g id="text_4">
      <!-- 2019-08-05 -->
      <defs>
       <path d="M 8.640625 11.625 
Q 16.265625 6.640625 24.515625 6.640625 
Q 32.328125 6.640625 37.109375 11 
Q 41.890625 15.375 41.890625 22.609375 
Q 41.890625 29.890625 37.03125 33.890625 
Q 32.171875 37.890625 22.953125 37.890625 
Q 18.5 37.890625 10.984375 37.203125 
L 10.984375 75.640625 
L 48.1875 75.640625 
L 48.1875 67.1875 
L 19.875 67.1875 
L 19.875 45.796875 
Q 24.125 46.046875 26.265625 46.046875 
Q 38.234375 46.046875 44.921875 39.984375 
Q 51.609375 33.9375 51.609375 23.296875 
Q 51.609375 12.3125 44.421875 5.515625 
Q 37.25 -1.265625 24.609375 -1.265625 
Q 14.015625 -1.265625 8.640625 1.859375 
z
" id="MicrosoftYaHei-35"/>
      </defs>
      <g transform="translate(457.102741 399.47375)scale(0.1 -0.1)">
       <use xlink:href="#MicrosoftYaHei-32"/>
       <use x="58.642578" xlink:href="#MicrosoftYaHei-30"/>
       <use x="117.285156" xlink:href="#MicrosoftYaHei-31"/>
       <use x="175.927734" xlink:href="#MicrosoftYaHei-39"/>
       <use x="234.570312" xlink:href="#MicrosoftYaHei-2d"/>
       <use x="277.832031" xlink:href="#MicrosoftYaHei-30"/>
       <use x="336.474609" xlink:href="#MicrosoftYaHei-38"/>
       <use x="395.117188" xlink:href="#MicrosoftYaHei-2d"/>
       <use x="438.378906" xlink:href="#MicrosoftYaHei-30"/>
       <use x="497.021484" xlink:href="#MicrosoftYaHei-35"/>
      </g>
     </g>
    </g>
    <g id="xtick_5">
     <g id="line2d_5">
      <g>
       <use style="stroke:#000000;stroke-width:0.8;" x="610.514071" xlink:href="#mb29fd5bf6f" y="384.48"/>
      </g>
     </g>
     <g id="text_5">
      <!-- 2020-06-04 -->
      <defs>
       <path d="M 49.703125 65.921875 
Q 43.796875 68.953125 37.359375 68.953125 
Q 27.546875 68.953125 21.578125 60.40625 
Q 15.625 51.859375 15.53125 37.0625 
L 15.765625 37.0625 
Q 21.140625 47.46875 32.90625 47.46875 
Q 42.71875 47.46875 48.578125 41.0625 
Q 54.4375 34.671875 54.4375 24.078125 
Q 54.4375 12.984375 47.671875 5.859375 
Q 40.921875 -1.265625 30.421875 -1.265625 
Q 18.890625 -1.265625 12.328125 7.734375 
Q 5.765625 16.75 5.765625 33.296875 
Q 5.765625 53.328125 14.375 65.109375 
Q 23 76.90625 37.0625 76.90625 
Q 45.125 76.90625 49.703125 74.703125 
z
M 16.109375 24.75 
Q 16.109375 17.28125 20.09375 11.953125 
Q 24.078125 6.640625 30.671875 6.640625 
Q 36.921875 6.640625 40.828125 11.234375 
Q 44.734375 15.828125 44.734375 23.046875 
Q 44.734375 30.859375 41.046875 35.203125 
Q 37.359375 39.546875 30.5625 39.546875 
Q 24.125 39.546875 20.109375 35.15625 
Q 16.109375 30.765625 16.109375 24.75 
z
" id="MicrosoftYaHei-36"/>
      </defs>
      <g transform="translate(582.731259 399.47375)scale(0.1 -0.1)">
       <use xlink:href="#MicrosoftYaHei-32"/>
       <use x="58.642578" xlink:href="#MicrosoftYaHei-30"/>
       <use x="117.285156" xlink:href="#MicrosoftYaHei-32"/>
       <use x="175.927734" xlink:href="#MicrosoftYaHei-30"/>
       <use x="234.570312" xlink:href="#MicrosoftYaHei-2d"/>
       <use x="277.832031" xlink:href="#MicrosoftYaHei-30"/>
       <use x="336.474609" xlink:href="#MicrosoftYaHei-36"/>
       <use x="395.117188" xlink:href="#MicrosoftYaHei-2d"/>
       <use x="438.378906" xlink:href="#MicrosoftYaHei-30"/>
       <use x="497.021484" xlink:href="#MicrosoftYaHei-34"/>
      </g>
     </g>
    </g>
    <g id="xtick_6">
     <g id="line2d_6">
      <g>
       <use style="stroke:#000000;stroke-width:0.8;" x="736.142589" xlink:href="#mb29fd5bf6f" y="384.48"/>
      </g>
     </g>
     <g id="text_6">
      <!-- 2021-03-31 -->
      <g transform="translate(708.359777 399.47375)scale(0.1 -0.1)">
       <use xlink:href="#MicrosoftYaHei-32"/>
       <use x="58.642578" xlink:href="#MicrosoftYaHei-30"/>
       <use x="117.285156" xlink:href="#MicrosoftYaHei-32"/>
       <use x="175.927734" xlink:href="#MicrosoftYaHei-31"/>
       <use x="234.570312" xlink:href="#MicrosoftYaHei-2d"/>
       <use x="277.832031" xlink:href="#MicrosoftYaHei-30"/>
       <use x="336.474609" xlink:href="#MicrosoftYaHei-33"/>
       <use x="395.117188" xlink:href="#MicrosoftYaHei-2d"/>
       <use x="438.378906" xlink:href="#MicrosoftYaHei-33"/>
       <use x="497.021484" xlink:href="#MicrosoftYaHei-31"/>
      </g>
     </g>
    </g>
    <g id="text_7">
     <!-- date -->
     <defs>
      <path d="M 55.421875 0 
L 45.84375 0 
L 45.84375 8.984375 
L 45.65625 8.984375 
Q 39.75 -1.265625 27.296875 -1.265625 
Q 17.046875 -1.265625 10.984375 6.03125 
Q 4.9375 13.328125 4.9375 25.734375 
Q 4.9375 39.109375 11.765625 47.1875 
Q 18.609375 55.28125 29.640625 55.28125 
Q 40.671875 55.28125 45.65625 46.6875 
L 45.84375 46.6875 
L 45.84375 79.9375 
L 55.421875 79.9375 
z
M 45.90625 32.125 
Q 45.90625 38.625 41.625 42.984375 
Q 37.359375 47.359375 31.109375 47.359375 
Q 23.484375 47.359375 19.09375 41.671875 
Q 14.703125 35.984375 14.703125 26.171875 
Q 14.703125 17.140625 18.921875 11.890625 
Q 23.140625 6.640625 30.171875 6.640625 
Q 37.109375 6.640625 41.5 11.78125 
Q 45.90625 16.9375 45.90625 24.609375 
z
" id="MicrosoftYaHei-64"/>
      <path d="M 9.8125 50.25 
Q 17.875 55.28125 28.421875 55.28125 
Q 47.953125 55.28125 47.953125 34.765625 
L 47.953125 0 
L 38.484375 0 
L 38.484375 8.34375 
L 38.234375 8.34375 
Q 32.625 -1.265625 21.6875 -1.265625 
Q 13.8125 -1.265625 9.171875 2.984375 
Q 4.546875 7.234375 4.546875 14.453125 
Q 4.546875 29.59375 22.46875 32.078125 
L 38.484375 34.328125 
Q 38.484375 47.5625 27.546875 47.5625 
Q 17.828125 47.5625 9.8125 41.015625 
z
M 25.828125 25.390625 
Q 19.1875 24.515625 16.671875 22.0625 
Q 14.15625 19.625 14.15625 15.234375 
Q 14.15625 11.375 16.890625 8.9375 
Q 19.625 6.5 24.125 6.5 
Q 30.375 6.5 34.421875 10.890625 
Q 38.484375 15.28125 38.484375 21.921875 
L 38.484375 27.09375 
z
" id="MicrosoftYaHei-61"/>
      <path d="M 34.46875 0.53125 
Q 31.34375 -1.171875 26.03125 -1.171875 
Q 11.53125 -1.171875 11.53125 14.890625 
L 11.53125 46.09375 
L 2.25 46.09375 
L 2.25 54 
L 11.53125 54 
L 11.53125 67 
L 21.046875 70.015625 
L 21.046875 54 
L 34.46875 54 
L 34.46875 46.09375 
L 21.046875 46.09375 
L 21.046875 16.609375 
Q 21.046875 11.28125 22.84375 8.984375 
Q 24.65625 6.6875 28.859375 6.6875 
Q 32.078125 6.6875 34.46875 8.5 
z
" id="MicrosoftYaHei-74"/>
      <path d="M 52.546875 24.5625 
L 14.75 24.5625 
Q 14.984375 15.921875 19.46875 11.203125 
Q 23.96875 6.5 32.03125 6.5 
Q 41.109375 6.5 48.6875 12.3125 
L 48.6875 3.765625 
Q 41.546875 -1.265625 29.78125 -1.265625 
Q 18.0625 -1.265625 11.5 6.15625 
Q 4.9375 13.578125 4.9375 26.765625 
Q 4.9375 39.15625 12.140625 47.21875 
Q 19.34375 55.28125 30.03125 55.28125 
Q 40.625 55.28125 46.578125 48.46875 
Q 52.546875 41.65625 52.546875 29.390625 
z
M 42.96875 32.234375 
Q 42.921875 39.546875 39.5 43.546875 
Q 36.078125 47.5625 29.890625 47.5625 
Q 24.171875 47.5625 20 43.3125 
Q 15.828125 39.0625 14.75 32.234375 
z
" id="MicrosoftYaHei-65"/>
     </defs>
     <g transform="translate(432.138281 413.953438)scale(0.1 -0.1)">
      <use xlink:href="#MicrosoftYaHei-64"/>
      <use x="63.964844" xlink:href="#MicrosoftYaHei-61"/>
      <use x="119.238281" xlink:href="#MicrosoftYaHei-74"/>
      <use x="156.494141" xlink:href="#MicrosoftYaHei-65"/>
     </g>
    </g>
   </g>
   <g id="matplotlib.axis_2">
    <g id="ytick_1">
     <g id="line2d_7">
      <defs>
       <path d="M 0 0 
L -3.5 0 
" id="m62093c3335" style="stroke:#000000;stroke-width:0.8;"/>
      </defs>
      <g>
       <use style="stroke:#000000;stroke-width:0.8;" x="108" xlink:href="#m62093c3335" y="368.723125"/>
      </g>
     </g>
     <g id="text_8">
      <!-- 1.0 -->
      <defs>
       <path d="M 5.8125 5.03125 
Q 5.8125 7.671875 7.609375 9.46875 
Q 9.421875 11.28125 12.109375 11.28125 
Q 14.84375 11.28125 16.640625 9.453125 
Q 18.453125 7.625 18.453125 5.03125 
Q 18.453125 2.484375 16.640625 0.65625 
Q 14.84375 -1.171875 12.0625 -1.171875 
Q 9.375 -1.171875 7.59375 0.65625 
Q 5.8125 2.484375 5.8125 5.03125 
z
" id="MicrosoftYaHei-2e"/>
      </defs>
      <g transform="translate(86.864063 372.72)scale(0.1 -0.1)">
       <use xlink:href="#MicrosoftYaHei-31"/>
       <use x="58.642578" xlink:href="#MicrosoftYaHei-2e"/>
       <use x="82.714844" xlink:href="#MicrosoftYaHei-30"/>
      </g>
     </g>
    </g>
    <g id="ytick_2">
     <g id="line2d_8">
      <g>
       <use style="stroke:#000000;stroke-width:0.8;" x="108" xlink:href="#m62093c3335" y="330.124618"/>
      </g>
     </g>
     <g id="text_9">
      <!-- 1.2 -->
      <g transform="translate(86.864063 334.121493)scale(0.1 -0.1)">
       <use xlink:href="#MicrosoftYaHei-31"/>
       <use x="58.642578" xlink:href="#MicrosoftYaHei-2e"/>
       <use x="82.714844" xlink:href="#MicrosoftYaHei-32"/>
      </g>
     </g>
    </g>
    <g id="ytick_3">
     <g id="line2d_9">
      <g>
       <use style="stroke:#000000;stroke-width:0.8;" x="108" xlink:href="#m62093c3335" y="291.526111"/>
      </g>
     </g>
     <g id="text_10">
      <!-- 1.4 -->
      <g transform="translate(86.864063 295.522986)scale(0.1 -0.1)">
       <use xlink:href="#MicrosoftYaHei-31"/>
       <use x="58.642578" xlink:href="#MicrosoftYaHei-2e"/>
       <use x="82.714844" xlink:href="#MicrosoftYaHei-34"/>
      </g>
     </g>
    </g>
    <g id="ytick_4">
     <g id="line2d_10">
      <g>
       <use style="stroke:#000000;stroke-width:0.8;" x="108" xlink:href="#m62093c3335" y="252.927605"/>
      </g>
     </g>
     <g id="text_11">
      <!-- 1.6 -->
      <g transform="translate(86.864063 256.92448)scale(0.1 -0.1)">
       <use xlink:href="#MicrosoftYaHei-31"/>
       <use x="58.642578" xlink:href="#MicrosoftYaHei-2e"/>
       <use x="82.714844" xlink:href="#MicrosoftYaHei-36"/>
      </g>
     </g>
    </g>
    <g id="ytick_5">
     <g id="line2d_11">
      <g>
       <use style="stroke:#000000;stroke-width:0.8;" x="108" xlink:href="#m62093c3335" y="214.329098"/>
      </g>
     </g>
     <g id="text_12">
      <!-- 1.8 -->
      <g transform="translate(86.864063 218.325973)scale(0.1 -0.1)">
       <use xlink:href="#MicrosoftYaHei-31"/>
       <use x="58.642578" xlink:href="#MicrosoftYaHei-2e"/>
       <use x="82.714844" xlink:href="#MicrosoftYaHei-38"/>
      </g>
     </g>
    </g>
    <g id="ytick_6">
     <g id="line2d_12">
      <g>
       <use style="stroke:#000000;stroke-width:0.8;" x="108" xlink:href="#m62093c3335" y="175.730592"/>
      </g>
     </g>
     <g id="text_13">
      <!-- 2.0 -->
      <g transform="translate(86.864063 179.727467)scale(0.1 -0.1)">
       <use xlink:href="#MicrosoftYaHei-32"/>
       <use x="58.642578" xlink:href="#MicrosoftYaHei-2e"/>
       <use x="82.714844" xlink:href="#MicrosoftYaHei-30"/>
      </g>
     </g>
    </g>
    <g id="ytick_7">
     <g id="line2d_13">
      <g>
       <use style="stroke:#000000;stroke-width:0.8;" x="108" xlink:href="#m62093c3335" y="137.132085"/>
      </g>
     </g>
     <g id="text_14">
      <!-- 2.2 -->
      <g transform="translate(86.864063 141.12896)scale(0.1 -0.1)">
       <use xlink:href="#MicrosoftYaHei-32"/>
       <use x="58.642578" xlink:href="#MicrosoftYaHei-2e"/>
       <use x="82.714844" xlink:href="#MicrosoftYaHei-32"/>
      </g>
     </g>
    </g>
    <g id="ytick_8">
     <g id="line2d_14">
      <g>
       <use style="stroke:#000000;stroke-width:0.8;" x="108" xlink:href="#m62093c3335" y="98.533578"/>
      </g>
     </g>
     <g id="text_15">
      <!-- 2.4 -->
      <g transform="translate(86.864063 102.530453)scale(0.1 -0.1)">
       <use xlink:href="#MicrosoftYaHei-32"/>
       <use x="58.642578" xlink:href="#MicrosoftYaHei-2e"/>
       <use x="82.714844" xlink:href="#MicrosoftYaHei-34"/>
      </g>
     </g>
    </g>
    <g id="ytick_9">
     <g id="line2d_15">
      <g>
       <use style="stroke:#000000;stroke-width:0.8;" x="108" xlink:href="#m62093c3335" y="59.935072"/>
      </g>
     </g>
     <g id="text_16">
      <!-- 2.6 -->
      <g transform="translate(86.864063 63.931947)scale(0.1 -0.1)">
       <use xlink:href="#MicrosoftYaHei-32"/>
       <use x="58.642578" xlink:href="#MicrosoftYaHei-2e"/>
       <use x="82.714844" xlink:href="#MicrosoftYaHei-36"/>
      </g>
     </g>
    </g>
   </g>
   <g id="line2d_16">
    <path clip-path="url(#pc152ab3ac5)" d="M 108 368.723125 
L 109.884428 368.645928 
L 112.396998 368.742424 
L 113.025141 369.205606 
L 113.653283 368.83892 
L 114.281426 369.36 
L 115.537711 366.484411 
L 116.165854 364.149202 
L 116.793996 364.728179 
L 117.422139 365.558047 
L 118.050281 363.589523 
L 118.678424 363.512326 
L 119.306567 360.366548 
L 119.934709 360.752533 
L 121.190994 358.591017 
L 121.819137 360.192855 
L 122.44728 358.706812 
L 123.075422 355.638231 
L 123.703565 356.796186 
L 124.95985 351.430994 
L 125.587992 353.766203 
L 126.216135 356.564595 
L 126.844278 356.004917 
L 127.47242 356.95058 
L 128.100563 355.503136 
L 128.728705 357.047076 
L 129.356848 356.564595 
L 129.984991 357.510258 
L 131.241276 354.325882 
L 131.869418 355.368041 
L 132.497561 354.403079 
L 133.125704 352.067869 
L 133.753846 352.395956 
L 134.381989 352.974934 
L 135.010131 350.23444 
L 135.638274 349.404572 
L 136.266417 346.702677 
L 136.894559 351.373096 
L 137.522702 351.855577 
L 138.150844 350.697622 
L 138.778987 350.157243 
L 139.407129 350.523929 
L 140.035272 349.887053 
L 140.663415 348.227318 
L 141.9197 350.041447 
L 142.547842 349.925652 
L 143.175985 348.748397 
L 143.804128 348.613303 
L 144.43227 346.567582 
L 145.060413 348.999288 
L 145.688555 347.841333 
L 146.316698 349.46247 
L 146.944841 348.323814 
L 147.572983 347.860632 
L 148.201126 344.116577 
L 148.829268 343.209512 
L 149.457411 341.356783 
L 150.085553 336.667065 
L 150.713696 337.805721 
L 151.341839 335.721401 
L 151.969981 337.709225 
L 152.598124 334.891534 
L 153.226266 337.439035 
L 153.854409 336.879357 
L 154.482552 333.521287 
L 155.110694 328.117496 
L 155.738837 326.226169 
L 156.366979 325.338403 
L 156.995122 324.006755 
L 157.623265 323.640069 
L 158.251407 319.066146 
L 158.87955 323.968156 
L 159.507692 323.60147 
L 160.135835 318.081884 
L 160.763977 314.839609 
L 161.39212 317.367812 
L 162.020263 318.197679 
L 162.648405 316.151959 
L 163.276548 316.267754 
L 163.90469 322.32772 
L 164.532833 321.382056 
L 165.160976 321.266261 
L 165.789118 320.474991 
L 166.417261 320.2434 
L 167.045403 317.464308 
L 167.673546 310.767467 
L 168.301689 316.229156 
L 168.929831 318.120482 
L 170.186116 320.474991 
L 170.814259 323.678667 
L 171.442402 323.447076 
L 172.070544 316.962527 
L 172.698687 317.136221 
L 173.326829 311.809627 
L 173.954972 311.867524 
L 174.583114 310.149891 
L 175.211257 310.43938 
L 175.8394 313.546559 
L 176.467542 312.735991 
L 177.095685 316.460747 
L 177.723827 318.757358 
L 178.35197 318.641562 
L 178.980113 316.769535 
L 179.608255 318.738059 
L 180.236398 319.201241 
L 182.120826 308.10417 
L 182.748968 307.58309 
L 183.377111 304.919793 
L 184.005253 307.119908 
L 184.633396 303.067065 
L 185.261538 301.040643 
L 185.889681 301.947708 
L 186.517824 301.581022 
L 187.145966 298.222952 
L 187.774109 297.914164 
L 188.402251 293.649029 
L 189.030394 294.980678 
L 189.658537 288.399632 
L 190.286679 286.604802 
L 190.914822 287.106582 
L 191.542964 290.908535 
L 192.171107 289.422493 
L 192.79925 288.341735 
L 193.427392 281.664193 
L 194.055535 279.579874 
L 194.683677 279.464078 
L 195.31182 290.464652 
L 195.939962 293.842022 
L 196.568105 291.236623 
L 197.196248 291.062929 
L 197.82439 289.2488 
L 198.452533 291.275221 
L 199.080675 290.483952 
L 199.708818 286.778495 
L 200.336961 284.520482 
L 200.965103 283.28533 
L 201.593246 284.288891 
L 202.221388 287.241677 
L 202.849531 293.050752 
L 203.477674 293.571832 
L 204.105816 288.824216 
L 204.733959 287.222378 
L 205.362101 287.203079 
L 205.990244 293.282343 
L 206.618386 292.838461 
L 207.246529 289.943573 
L 207.874672 292.684067 
L 208.502814 287.16448 
L 209.130957 282.860747 
L 209.759099 279.579874 
L 210.387242 279.40618 
L 211.015385 280.351844 
L 211.643527 275.52703 
L 212.27167 276.125307 
L 212.899812 276.183205 
L 213.527955 276.897277 
L 214.156098 277.263963 
L 214.78424 285.890729 
L 215.412383 287.145181 
L 216.040525 283.80641 
L 216.668668 284.945066 
L 217.296811 281.664193 
L 217.924953 271.898771 
L 218.553096 269.042481 
L 219.181238 271.165399 
L 219.809381 273.944492 
L 220.437523 272.43915 
L 221.065666 266.99676 
L 221.693809 270.277634 
L 222.321951 267.865227 
L 222.950094 273.7322 
L 223.578236 273.847995 
L 224.206379 275.604227 
L 224.834522 275.855118 
L 226.090807 282.165974 
L 226.718949 283.28533 
L 227.347092 282.204572 
L 227.975235 278.190327 
L 228.603377 275.758621 
L 229.23152 277.669248 
L 229.859662 276.704285 
L 230.487805 269.544262 
L 231.115947 267.151155 
L 231.74409 267.961723 
L 232.372233 268.347708 
L 233.000375 270.316232 
L 233.628518 268.579299 
L 234.25666 272.477748 
L 234.884803 273.172522 
L 235.512946 265.9739 
L 236.141088 261.535072 
L 236.769231 259.701643 
L 237.397373 254.529443 
L 238.025516 254.220655 
L 239.281801 263.445698 
L 239.909944 263.754486 
L 240.538086 271.532085 
L 241.166229 274.465572 
L 241.794371 279.174589 
L 242.422514 282.108076 
L 243.050657 284.346789 
L 243.678799 284.539782 
L 244.935084 276.800781 
L 245.563227 271.532085 
L 246.19137 275.816519 
L 246.819512 270.740816 
L 247.447655 273.847995 
L 248.075797 273.577806 
L 248.70394 266.958162 
L 249.332083 267.672234 
L 249.960225 268.849489 
L 250.588368 266.089696 
L 251.21651 265.433521 
L 251.844653 269.60216 
L 253.100938 272.574245 
L 253.729081 272.593544 
L 254.357223 262.056152 
L 254.985366 261.226284 
L 255.613508 258.331396 
L 256.241651 254.317151 
L 256.869794 251.518759 
L 257.497936 249.357243 
L 258.754221 253.371488 
L 259.382364 251.904744 
L 260.010507 255.282114 
L 260.638649 253.738173 
L 261.266792 254.162757 
L 261.894934 254.08556 
L 262.523077 253.757473 
L 263.15122 248.681769 
L 263.779362 248.430879 
L 264.407505 249.106353 
L 265.035647 241.135761 
L 265.66379 246.288662 
L 266.291932 253.0627 
L 266.920075 250.553797 
L 268.17636 267.479242 
L 268.804503 275.411235 
L 269.432645 276.530592 
L 270.060788 281.4905 
L 270.688931 290.734842 
L 271.945216 285.138059 
L 272.573358 278.171028 
L 273.201501 266.321287 
L 273.829644 258.794578 
L 274.457786 253.911867 
L 275.085929 254.104859 
L 275.714071 262.982516 
L 276.342214 264.912441 
L 276.970356 266.282688 
L 277.598499 268.444204 
L 278.226642 267.884526 
L 278.854784 262.403538 
L 279.482927 261.110488 
L 280.111069 259.450752 
L 280.739212 253.911867 
L 281.367355 251.152074 
L 281.995497 256.729558 
L 282.62364 254.741735 
L 283.251782 249.95552 
L 283.879925 248.66247 
L 284.508068 255.243515 
L 285.13621 251.981941 
L 285.764353 253.911867 
L 286.392495 270.046043 
L 287.020638 277.61135 
L 287.64878 270.798713 
L 288.905066 288.168041 
L 289.533208 283.80641 
L 290.161351 291.487513 
L 290.789493 291.56471 
L 291.417636 289.2488 
L 292.045779 282.590557 
L 293.302064 285.659138 
L 293.930206 290.599747 
L 294.558349 290.406755 
L 295.186492 287.41537 
L 295.814634 285.331051 
L 296.442777 286.045123 
L 297.070919 290.483952 
L 297.699062 293.263044 
L 298.327205 295.154371 
L 298.955347 299.496703 
L 299.58349 295.714049 
L 300.211632 289.557588 
L 300.839775 285.562642 
L 301.467917 286.334612 
L 302.09606 285.060862 
L 302.724203 279.985158 
L 303.352345 275.932315 
L 303.980488 276.279701 
L 304.60863 271.242596 
L 305.236773 272.651442 
L 305.864916 270.393429 
L 306.493058 274.832257 
L 307.121201 270.258334 
L 307.749343 272.381252 
L 308.377486 278.9044 
L 309.005629 281.683492 
L 309.633771 281.143113 
L 310.261914 281.394003 
L 310.890056 279.946559 
L 311.518199 280.332545 
L 312.146341 280.525537 
L 312.774484 279.734268 
L 313.402627 273.635704 
L 314.030769 264.372062 
L 314.658912 263.272005 
L 315.287054 261.342079 
L 315.915197 263.059713 
L 316.54334 263.252705 
L 317.171482 259.701643 
L 317.799625 257.019047 
L 318.427767 258.273498 
L 319.05591 255.320712 
L 319.684053 254.645238 
L 320.312195 263.445698 
L 320.940338 259.180563 
L 321.56848 263.947478 
L 322.196623 263.831683 
L 322.824765 275.121746 
L 323.452908 273.655003 
L 324.081051 281.895784 
L 324.709193 277.225365 
L 325.337336 273.712901 
L 325.965478 273.712901 
L 326.593621 273.404113 
L 327.221764 276.472694 
L 328.478049 265.066835 
L 329.734334 272.632142 
L 330.362477 265.221229 
L 330.990619 266.99676 
L 331.618762 266.398484 
L 332.246904 265.568616 
L 332.875047 266.74587 
L 333.503189 271.609282 
L 334.131332 269.563561 
L 334.759475 271.107501 
L 335.387617 269.737254 
L 336.01576 260.743802 
L 336.643902 266.572177 
L 337.272045 269.968845 
L 337.900188 275.584928 
L 338.52833 277.727145 
L 339.156473 281.74139 
L 339.784615 286.566203 
L 340.412758 285.118759 
L 341.040901 285.157358 
L 341.669043 284.134497 
L 342.297186 287.994348 
L 342.925328 289.461091 
L 343.553471 289.480391 
L 344.181614 293.938518 
L 344.809756 302.314394 
L 345.437899 308.818242 
L 346.066041 308.007674 
L 346.694184 303.877634 
L 347.322326 298.628237 
L 347.950469 298.724733 
L 348.578612 297.200092 
L 349.206754 301.195037 
L 349.834897 298.724733 
L 350.463039 292.047191 
L 351.091182 295.405261 
L 351.719325 296.100034 
L 352.347467 301.735416 
L 352.97561 302.43019 
L 353.603752 307.177806 
L 354.231895 317.136221 
L 354.860038 319.510029 
L 355.48818 318.738059 
L 356.116323 323.87166 
L 356.744465 323.427777 
L 357.372608 319.99251 
L 358.00075 312.137714 
L 358.628893 313.450063 
L 359.257036 319.413532 
L 359.885178 319.799518 
L 360.513321 312.099115 
L 361.141463 308.335761 
L 361.769606 307.930477 
L 362.397749 308.277863 
L 363.025891 307.409397 
L 363.654034 308.586651 
L 364.282176 328.985962 
L 364.910319 331.707157 
L 365.538462 339.233866 
L 366.166604 342.186651 
L 366.794747 332.614222 
L 367.422889 337.863619 
L 368.051032 334.891534 
L 368.679174 344.097277 
L 369.307317 344.193774 
L 369.93546 337.361838 
L 370.563602 343.035818 
L 371.191745 352.511752 
L 371.819887 347.64834 
L 372.44803 349.829156 
L 373.076173 355.947019 
L 373.704315 355.483837 
L 374.332458 346.548283 
L 374.9606 332.459828 
L 375.588743 331.243975 
L 376.216886 335.798599 
L 376.845028 334.21606 
L 377.473171 330.510603 
L 378.729456 346.779874 
L 379.357598 351.566088 
L 379.985741 347.281654 
L 380.613884 344.502562 
L 381.242026 336.454773 
L 381.870169 337.728524 
L 382.498311 342.437542 
L 383.126454 348.555405 
L 383.754597 340.874302 
L 384.382739 345.911407 
L 385.010882 340.719908 
L 385.639024 340.218128 
L 386.267167 334.775738 
L 386.89531 340.449719 
L 387.523452 335.586307 
L 388.151595 328.27189 
L 389.40788 340.9322 
L 390.036023 342.360345 
L 390.664165 344.309569 
L 391.292308 342.205951 
L 391.92045 338.500494 
L 392.548593 338.674187 
L 393.176735 342.862125 
L 393.804878 348.343113 
L 395.061163 357.278667 
L 395.689306 359.169994 
L 396.317448 358.51382 
L 396.945591 359.980563 
L 397.573734 354.63467 
L 398.201876 355.831223 
L 399.458161 359.227892 
L 400.086304 365.075566 
L 400.714447 355.020655 
L 401.342589 350.967812 
L 401.970732 350.195841 
L 402.598874 342.74633 
L 403.227017 343.595497 
L 403.855159 345.988604 
L 404.483302 352.685445 
L 405.739587 345.120138 
L 406.36773 344.946445 
L 406.995872 339.793544 
L 407.624015 345.699115 
L 408.252158 344.599058 
L 408.8803 343.035818 
L 409.508443 335.48981 
L 410.136585 338.481195 
L 410.764728 339.909339 
L 411.392871 335.161723 
L 412.021013 331.745755 
L 412.649156 332.344032 
L 413.905441 325.955979 
L 414.533583 326.033176 
L 415.161726 325.801585 
L 415.789869 331.436967 
L 416.418011 328.484182 
L 417.046154 326.863044 
L 417.674296 328.985962 
L 418.930582 319.703021 
L 419.558724 322.134727 
L 420.186867 322.462814 
L 420.815009 322.289121 
L 421.443152 322.501413 
L 422.071295 318.776657 
L 422.699437 312.639495 
L 423.32758 312.909684 
L 423.955722 320.687283 
L 424.583865 324.566433 
L 425.212008 317.792395 
L 425.84015 318.795956 
L 426.468293 320.590787 
L 427.096435 323.061091 
L 427.724578 318.294176 
L 428.35272 314.897507 
L 428.980863 315.939667 
L 429.609006 318.931051 
L 430.237148 319.74162 
L 430.865291 324.450638 
L 431.493433 323.717266 
L 432.121576 324.412039 
L 433.377861 321.941735 
L 434.006004 315.901068 
L 434.634146 312.176312 
L 435.262289 312.967582 
L 435.890432 310.091993 
L 436.518574 310.304285 
L 437.146717 305.016289 
L 437.774859 305.653165 
L 438.403002 306.81112 
L 439.031144 309.184928 
L 439.659287 305.305778 
L 440.28743 311.037657 
L 440.915572 308.490155 
L 441.543715 307.06201 
L 442.171857 308.200666 
L 442.8 306.270741 
L 443.428143 307.409397 
L 444.056285 309.339322 
L 444.684428 309.030534 
L 445.31257 306.926916 
L 445.940713 307.3322 
L 447.196998 315.244894 
L 447.825141 316.094061 
L 448.453283 317.792395 
L 449.081426 316.943228 
L 449.709568 320.745181 
L 450.337711 317.387111 
L 450.965854 317.792395 
L 452.222139 337.844319 
L 452.850281 334.389753 
L 453.478424 337.632028 
L 454.106567 344.579759 
L 454.734709 345.139437 
L 455.362852 345.004342 
L 455.990994 346.837771 
L 456.619137 346.702677 
L 457.24728 348.42031 
L 457.875422 348.6712 
L 458.503565 346.258794 
L 459.131707 348.053624 
L 459.75985 347.841333 
L 460.387992 338.982975 
L 461.016135 335.200322 
L 461.644278 338.944377 
L 462.27242 339.002275 
L 462.900563 342.051557 
L 463.528705 341.086594 
L 464.156848 335.412613 
L 465.413133 329.217553 
L 466.041276 330.915887 
L 466.669418 330.626399 
L 467.297561 334.582746 
L 468.553846 327.210431 
L 469.181989 328.136795 
L 469.810131 328.136795 
L 470.438274 322.154026 
L 471.066417 322.887398 
L 471.694559 323.968156 
L 472.322702 329.410546 
L 472.950844 328.638576 
L 473.578987 328.715773 
L 474.207129 330.143917 
L 474.835272 330.008823 
L 475.463415 326.496358 
L 476.091557 326.129673 
L 476.7197 325.975279 
L 477.347842 329.063159 
L 477.975985 327.905204 
L 478.604128 328.368386 
L 479.23227 324.219047 
L 479.860413 321.768041 
L 480.488555 322.945296 
L 481.116698 323.369879 
L 481.744841 324.219047 
L 482.372983 325.801585 
L 483.001126 328.040299 
L 483.629268 332.093142 
L 484.257411 338.153107 
L 484.885553 348.092223 
L 486.141839 343.614796 
L 486.769981 339.233866 
L 487.398124 341.97436 
L 488.026266 342.205951 
L 488.654409 338.249604 
L 489.282552 339.446157 
L 489.910694 338.751384 
L 490.538837 333.69498 
L 491.166979 326.612154 
L 491.795122 327.519219 
L 492.423265 328.175393 
L 493.051407 331.205376 
L 493.67955 335.084526 
L 494.935835 333.270396 
L 495.563977 333.617783 
L 496.19212 329.526341 
L 496.820263 327.596416 
L 497.448405 329.024561 
L 498.70469 320.976772 
L 499.332833 321.150465 
L 499.960976 320.320597 
L 500.589118 322.57861 
L 501.217261 318.911752 
L 501.845403 317.387111 
L 502.473546 319.394233 
L 503.101689 318.834555 
L 503.729831 318.564365 
L 504.357974 319.317036 
L 504.986116 319.104744 
L 506.242402 328.349087 
L 506.870544 325.878782 
L 507.498687 325.840184 
L 508.126829 333.366893 
L 508.754972 332.189638 
L 509.383114 335.412613 
L 510.011257 334.273957 
L 510.6394 332.247536 
L 511.267542 326.70865 
L 511.895685 326.515658 
L 512.523827 322.424216 
L 513.15197 320.339897 
L 513.780113 320.706582 
L 514.408255 325.898082 
L 515.036398 323.369879 
L 515.66454 326.515658 
L 516.292683 327.847306 
L 516.920826 324.527835 
L 517.548968 323.022493 
L 518.177111 318.159081 
L 518.805253 321.768041 
L 519.433396 321.053969 
L 520.061538 321.073268 
L 520.689681 319.934612 
L 521.317824 313.585158 
L 521.945966 312.600896 
L 522.574109 313.00618 
L 523.202251 308.837542 
L 523.830394 310.516577 
L 524.458537 313.199173 
L 525.086679 311.056956 
L 525.714822 314.723814 
L 526.342964 317.348512 
L 526.971107 315.148397 
L 527.59925 314.56942 
L 528.227392 313.546559 
L 528.855535 317.116921 
L 529.483677 317.425709 
L 530.739962 308.084871 
L 531.368105 306.598828 
L 531.996248 302.796875 
L 532.62439 302.102102 
L 533.252533 304.919793 
L 533.880675 306.521631 
L 535.136961 310.149891 
L 535.765103 304.784698 
L 536.393246 302.507387 
L 537.021388 304.456611 
L 537.649531 304.051327 
L 538.277674 301.175738 
L 539.533959 296.852705 
L 540.162101 295.540356 
L 540.790244 291.198024 
L 541.418386 288.959311 
L 542.046529 288.920712 
L 542.674672 288.245238 
L 543.302814 285.601241 
L 543.930957 285.736335 
L 544.559099 285.987226 
L 545.187242 285.717036 
L 545.815385 284.385388 
L 547.07167 289.190902 
L 547.699812 278.846502 
L 548.327955 280.158851 
L 548.956098 280.17815 
L 549.58424 276.665686 
L 550.212383 278.499115 
L 550.840525 273.365514 
L 551.468668 270.62502 
L 552.096811 264.101872 
L 552.724953 269.177576 
L 553.353096 270.451327 
L 553.981238 270.740816 
L 554.609381 269.389868 
L 555.237523 271.261895 
L 555.865666 279.039495 
L 556.493809 277.36046 
L 557.750094 286.431109 
L 558.378236 274.619966 
L 559.006379 277.128868 
L 559.634522 272.207559 
L 560.262664 275.295439 
L 560.890807 276.06741 
L 562.147092 266.610775 
L 563.403377 268.347708 
L 564.03152 268.000322 
L 564.659662 270.335531 
L 565.287805 266.591476 
L 565.915947 269.814451 
L 566.54409 275.160345 
L 567.172233 283.246732 
L 567.800375 281.374704 
L 568.428518 280.409742 
L 569.684803 287.43467 
L 570.312946 283.073038 
L 570.941088 285.813532 
L 571.569231 281.451901 
L 572.197373 278.055233 
L 572.825516 286.701298 
L 573.453659 298.859828 
L 574.081801 290.464652 
L 574.709944 296.293027 
L 575.338086 311.558736 
L 575.966229 305.035589 
L 576.594371 324.412039 
L 577.222514 316.827433 
L 577.850657 326.284067 
L 578.478799 322.154026 
L 579.106942 314.337829 
L 579.735084 318.95035 
L 580.363227 305.556669 
L 581.619512 295.771947 
L 582.247655 302.758277 
L 582.875797 303.260057 
L 583.50394 297.103596 
L 584.132083 302.488087 
L 584.760225 299.32301 
L 585.388368 301.793314 
L 586.01651 289.866376 
L 586.644653 295.366663 
L 587.272795 292.375279 
L 587.900938 293.089351 
L 588.529081 291.699805 
L 589.157223 286.546904 
L 589.785366 284.501183 
L 590.413508 276.202504 
L 591.041651 276.858679 
L 591.669794 275.816519 
L 592.297936 281.548397 
L 592.926079 275.970913 
L 593.554221 279.135991 
L 594.182364 281.432602 
L 594.810507 278.325422 
L 595.438649 280.120253 
L 596.066792 275.372636 
L 596.694934 278.576312 
L 597.323077 283.883607 
L 597.95122 281.394003 
L 598.579362 273.48131 
L 599.207505 268.733693 
L 599.835647 270.181137 
L 600.46379 269.60216 
L 601.091932 267.112556 
L 601.720075 266.823067 
L 602.348218 255.880391 
L 602.97636 253.139897 
L 603.604503 251.557358 
L 604.232645 256.459368 
L 604.860788 270.856611 
L 605.488931 267.305549 
L 606.117073 258.099805 
L 607.373358 266.707272 
L 608.001501 256.903251 
L 608.629644 250.650293 
L 609.257786 246.404457 
L 609.885929 240.286594 
L 610.514071 239.958507 
L 611.142214 236.793429 
L 611.770356 239.630419 
L 612.398499 239.977806 
L 613.026642 232.200207 
L 613.654784 239.939207 
L 614.282927 236.291648 
L 614.911069 236.889925 
L 615.539212 227.780678 
L 616.167355 224.017323 
L 616.795497 222.106697 
L 618.051782 219.752188 
L 618.679925 209.291993 
L 619.308068 212.785158 
L 619.93621 218.439839 
L 620.564353 215.487053 
L 621.192495 215.815141 
L 621.820638 203.482918 
L 622.44878 199.198484 
L 623.076923 191.169994 
L 623.705066 197.287858 
L 624.333208 176.521861 
L 624.961351 166.640643 
L 626.217636 181.308076 
L 626.845779 189.394463 
L 627.473921 184.492453 
L 628.102064 200.31784 
L 628.730206 194.335072 
L 629.358349 189.529558 
L 629.986492 175.26741 
L 630.614634 188.69969 
L 631.242777 184.492453 
L 631.870919 194.701758 
L 632.499062 194.180678 
L 633.127205 189.452361 
L 633.755347 186.422378 
L 634.38349 187.889121 
L 635.011632 186.962757 
L 635.639775 177.911407 
L 636.267917 170.616289 
L 636.89606 165.096703 
L 637.524203 168.165284 
L 638.152345 184.55035 
L 638.780488 191.999862 
L 639.40863 190.359426 
L 640.036773 185.496014 
L 640.664916 190.398024 
L 641.293058 192.771832 
L 641.921201 188.487398 
L 642.549343 180.729098 
L 643.177486 183.392395 
L 643.805629 182.48533 
L 644.433771 177.892108 
L 645.061914 161.680735 
L 646.318199 152.494291 
L 646.946341 153.459253 
L 647.574484 155.215485 
L 648.202627 163.900149 
L 648.830769 152.725882 
L 649.458912 151.664423 
L 650.087054 165.926571 
L 651.34334 173.993659 
L 651.971482 185.245123 
L 652.599625 184.357358 
L 653.227767 188.603194 
L 654.484053 175.421804 
L 655.112195 174.090155 
L 655.740338 174.398943 
L 656.36848 180.806295 
L 656.996623 182.639724 
L 657.624765 185.785503 
L 658.252908 184.724044 
L 658.881051 184.125767 
L 659.509193 190.475221 
L 660.137336 190.398024 
L 660.765478 184.280161 
L 661.393621 185.766203 
L 662.021764 175.827088 
L 662.649906 159.49992 
L 663.278049 153.304859 
L 663.906191 152.224101 
L 664.534334 150.332774 
L 665.162477 159.384124 
L 665.790619 153.941735 
L 666.418762 158.670052 
L 667.046904 154.501413 
L 667.675047 154.8488 
L 668.303189 158.882343 
L 668.931332 158.998139 
L 669.559475 160.291189 
L 670.187617 148.248455 
L 670.81576 146.106238 
L 671.443902 138.000551 
L 672.072045 147.495784 
L 672.700188 142.516577 
L 673.32833 152.51359 
L 673.956473 139.428696 
L 674.584615 130.145755 
L 675.212758 130.300149 
L 675.840901 135.70394 
L 676.469043 161.854428 
L 677.097186 173.781367 
L 678.353471 146.279931 
L 678.981614 149.792395 
L 679.609756 161.371947 
L 680.237899 164.228237 
L 680.866041 164.980908 
L 681.494184 151.876715 
L 682.122326 151.818817 
L 682.750469 146.704515 
L 683.378612 154.733004 
L 684.006754 149.40641 
L 684.634897 147.437886 
L 685.263039 162.703596 
L 685.891182 159.287628 
L 686.519325 165.637082 
L 687.147467 158.920942 
L 687.77561 157.454199 
L 688.403752 161.526341 
L 689.031895 157.473498 
L 689.660038 159.113935 
L 690.28818 157.261206 
L 690.916323 155.987455 
L 691.544465 165.366893 
L 692.172608 167.181022 
L 693.428893 154.30842 
L 694.057036 157.434899 
L 694.685178 158.45776 
L 695.313321 162.298311 
L 695.941463 157.357702 
L 696.569606 177.83421 
L 697.197749 178.027203 
L 697.825891 192.752533 
L 699.082176 160.831568 
M 700.338462 164.440528 
L 700.966604 153.80664 
L 702.222889 166.235359 
L 702.851032 153.690844 
L 703.479174 158.70865 
L 704.107317 158.805146 
L 704.73546 156.469937 
L 705.363602 142.709569 
L 705.991745 144.427203 
L 706.619887 137.884756 
L 707.24803 126.459598 
L 707.876173 106.137484 
L 708.504315 108.106008 
L 709.132458 106.890155 
L 709.7606 82.650293 
L 711.016886 109.225365 
L 711.645028 114.455462 
L 712.273171 120.669822 
L 712.901313 101.389868 
L 713.529456 96.777346 
L 714.157598 86.876829 
L 714.785741 86.33645 
L 715.413884 85.255692 
L 716.042026 86.143458 
L 716.670169 79.813303 
M 717.926454 70.761953 
L 718.554597 66.96 
L 719.182739 87.320712 
L 719.810882 92.685905 
L 720.439024 107.488432 
L 721.067167 114.223871 
L 721.69531 127.44386 
L 722.323452 108.723584 
L 722.951595 114.918644 
L 723.579737 113.143113 
L 724.20788 133.059943 
L 724.836023 134.93197 
L 725.464165 162.028122 
L 726.092308 144.871086 
L 726.72045 146.492223 
L 727.348593 128.949202 
L 727.976735 142.69027 
L 728.604878 148.88533 
L 729.233021 144.542998 
L 729.861163 143.964021 
L 730.489306 142.921861 
L 731.117448 142.535876 
L 731.745591 143.73243 
L 732.373734 151.124044 
L 733.001876 167.76 
L 733.630019 177.506123 
L 734.258161 168.879357 
L 734.886304 173.279586 
L 735.514447 168.068788 
L 736.142589 168.03019 
L 736.770732 153.092567 
L 737.398874 152.745181 
L 738.027017 149.271315 
L 738.655159 163.012384 
L 739.283302 162.06672 
L 739.911445 167.316117 
L 740.539587 164.614222 
L 741.16773 169.477634 
L 741.795872 167.50911 
L 742.424015 170.307501 
L 743.052158 166.447651 
L 743.6803 168.975853 
L 744.308443 174.167352 
L 744.936585 176.521861 
L 745.564728 172.121631 
L 746.192871 163.224675 
L 746.821013 162.935187 
L 747.449156 160.966663 
L 748.077298 160.850867 
L 748.705441 165.058105 
L 750.589869 186.403079 
L 751.218011 198.986192 
L 751.846154 202.170569 
L 752.474296 199.700264 
L 753.102439 213.306238 
L 754.358724 204.235589 
L 754.986867 198.928294 
L 755.615009 199.159885 
L 756.243152 191.247191 
L 756.871295 198.966893 
L 757.499437 201.726686 
L 758.12758 195.859713 
L 758.755722 195.41583 
L 759.383865 198.928294 
L 760.012008 200.221344 
L 760.64015 194.663159 
L 761.268293 183.990672 
L 761.896435 185.013532 
L 762.524578 192.270052 
L 763.15272 191.710373 
L 763.780863 198.445813 
L 765.037148 200.761723 
L 765.665291 200.06695 
L 766.293433 201.417898 
L 766.921576 202.093372 
L 767.549719 206.223412 
L 768.806004 199.893257 
L 769.434146 202.807444 
L 770.062289 207.921746 
L 771.318574 194.103481 
L 771.946717 183.045009 
L 772.574859 185.013532 
L 773.203002 184.646847 
L 773.831144 189.510258 
L 774.459287 193.119219 
L 775.08743 202.016175 
L 776.343715 215.660747 
L 776.971857 221.122435 
L 777.6 234.419621 
L 777.6 234.419621 
" style="fill:none;stroke:#1f77b4;stroke-linecap:square;stroke-width:1.5;"/>
   </g>
   <g id="patch_3">
    <path d="M 108 384.48 
L 108 51.84 
" style="fill:none;stroke:#000000;stroke-linecap:square;stroke-linejoin:miter;stroke-width:0.8;"/>
   </g>
   <g id="patch_4">
    <path d="M 777.6 384.48 
L 777.6 51.84 
" style="fill:none;stroke:#000000;stroke-linecap:square;stroke-linejoin:miter;stroke-width:0.8;"/>
   </g>
   <g id="patch_5">
    <path d="M 108 384.48 
L 777.6 384.48 
" style="fill:none;stroke:#000000;stroke-linecap:square;stroke-linejoin:miter;stroke-width:0.8;"/>
   </g>
   <g id="patch_6">
    <path d="M 108 51.84 
L 777.6 51.84 
" style="fill:none;stroke:#000000;stroke-linecap:square;stroke-linejoin:miter;stroke-width:0.8;"/>
   </g>
   <g id="text_17">
    <!-- 易方达中概互联50ETF -->
    <defs>
     <path d="M 14.359375 78.46875 
L 86.234375 78.46875 
L 86.234375 37.84375 
L 78.609375 37.84375 
L 78.609375 41.75 
L 14.359375 41.75 
z
M 1.765625 17.046875 
Q 17.390625 25.53125 28.21875 40.09375 
L 35.15625 37.453125 
Q 33.203125 34.8125 31.25 32.375 
L 91.890625 32.375 
Q 91.015625 13.921875 90.046875 3.859375 
Q 88.765625 -11.859375 74.21875 -11.96875 
Q 66.109375 -12.0625 57.328125 -11.96875 
Q 56.734375 -7.765625 55.859375 -3.65625 
Q 64.359375 -4.4375 72.265625 -4.4375 
Q 81.453125 -4.4375 82.421875 4.734375 
Q 83.5 13.53125 83.890625 25.53125 
L 68.84375 25.53125 
Q 62.890625 -0.140625 34.1875 -13.921875 
Q 31.640625 -10.6875 28.71875 -7.28125 
Q 56.0625 3.953125 61.234375 25.53125 
L 46.390625 25.53125 
Q 39.265625 4.734375 8.6875 -7.078125 
Q 6.15625 -3.859375 3.21875 -0.53125 
Q 32.03125 10.203125 38.28125 25.53125 
L 25.09375 25.53125 
Q 16.796875 17.140625 6.640625 10.796875 
Q 4.59375 13.71875 1.765625 17.046875 
z
M 21.96875 48.578125 
L 78.609375 48.578125 
L 78.609375 56.78125 
L 21.96875 56.78125 
z
M 78.609375 71.625 
L 21.96875 71.625 
L 21.96875 63.625 
L 78.609375 63.625 
z
" id="MicrosoftYaHei-6613"/>
     <path d="M 3.03125 66.265625 
L 49.90625 66.265625 
Q 44.96875 75.640625 42.1875 79.9375 
L 49.8125 83.546875 
Q 52.546875 79.34375 58.015625 69.875 
L 50.875 66.265625 
L 97.171875 66.265625 
L 97.171875 58.84375 
L 37.9375 58.84375 
Q 37.59375 49.953125 37.203125 43.703125 
L 84.375 43.703125 
Q 83.203125 22.515625 81.84375 6.890625 
Q 80.765625 -10.796875 64.65625 -10.796875 
Q 57.234375 -10.796875 44.828125 -10.015625 
Q 44.34375 -6.296875 43.359375 -1.03125 
Q 55.765625 -2.6875 63.484375 -2.6875 
Q 72.46875 -2.6875 73.53125 7.953125 
Q 74.703125 19.578125 75.59375 36.375 
L 36.671875 36.375 
Q 33.9375 4.15625 6.84375 -13.625 
Q 4.203125 -10.5 0.875 -6.984375 
Q 26.65625 10.015625 28.515625 38.53125 
Q 29.203125 46.234375 29.640625 58.84375 
L 3.03125 58.84375 
z
" id="MicrosoftYaHei-65b9"/>
     <path d="M 42.484375 -3.765625 
Q 69.53125 -4.046875 98.734375 -3.375 
Q 97.078125 -7.28125 95.515625 -10.890625 
Q 68.75 -11.28125 41.21875 -10.796875 
Q 24.90625 -10.59375 17 0.34375 
Q 14.15625 -1.90625 5.5625 -12.15625 
L 1.375 -3.859375 
Q 7.421875 1.609375 13.484375 6.78125 
L 13.484375 40.875 
L 2.34375 40.875 
L 2.34375 48 
L 21.09375 48 
L 21.09375 5.328125 
Q 28.21875 -3.375 42.484375 -3.765625 
z
M 29.296875 59.234375 
L 56.25 59.234375 
L 56.25 82.28125 
L 64.0625 82.28125 
L 64.0625 59.234375 
L 94.53125 59.234375 
L 94.53125 52.09375 
L 63.875 52.09375 
Q 63.484375 44.96875 61.921875 38.625 
Q 78.8125 25.046875 93.84375 9.625 
L 87.984375 3.078125 
Q 74.8125 18.015625 59.765625 31.59375 
Q 52.546875 12.15625 32.515625 1.125 
Q 29.890625 4.734375 27.046875 7.5625 
Q 53.90625 21.921875 56.0625 52.09375 
L 29.296875 52.09375 
z
M 11.421875 81.890625 
Q 20.015625 71.625 26.265625 63.03125 
L 19.4375 58.15625 
Q 12.984375 67.921875 5.375 77.484375 
z
" id="MicrosoftYaHei-8fbe"/>
     <path d="M 8.203125 62.0625 
L 45.796875 62.0625 
L 45.796875 83.34375 
L 54.203125 83.34375 
L 54.203125 62.0625 
L 92.1875 62.0625 
L 92.1875 17.53125 
L 84.1875 17.53125 
L 84.1875 22.796875 
L 54.203125 22.796875 
L 54.203125 -13.53125 
L 45.796875 -13.53125 
L 45.796875 22.796875 
L 16.21875 22.796875 
L 16.21875 17.53125 
L 8.203125 17.53125 
z
M 84.1875 54.828125 
L 54.203125 54.828125 
L 54.203125 30.03125 
L 84.1875 30.03125 
z
M 16.21875 30.03125 
L 45.796875 30.03125 
L 45.796875 54.828125 
L 16.21875 54.828125 
z
" id="MicrosoftYaHei-4e2d"/>
     <path d="M 45.3125 21.234375 
L 50.984375 24.359375 
Q 54.984375 17.828125 60.453125 7.28125 
L 54.59375 3.46875 
Q 53.375 6 52.25 8.25 
Q 47.515625 5.078125 39.75 -0.34375 
Q 37.796875 -1.609375 34.671875 -5.03125 
L 29.203125 1.421875 
Q 32.234375 4.734375 32.234375 10.296875 
L 32.234375 77.59375 
L 56.34375 77.59375 
L 56.34375 28.171875 
L 50.09375 28.171875 
L 50.09375 31.390625 
L 38.578125 31.390625 
L 38.578125 7.5625 
Q 43.453125 10.453125 49.171875 14.3125 
Q 47.015625 18.40625 45.3125 21.234375 
z
M 67.390625 40.375 
L 75.78125 40.375 
Q 77.34375 51.5625 77.34375 71.34375 
L 60.9375 71.34375 
L 60.9375 77.59375 
L 95.3125 77.59375 
L 95.3125 71.34375 
L 83.796875 71.34375 
Q 83.890625 52.25 82.375 40.375 
L 95.90625 40.375 
L 95.90625 34.125 
L 81.390625 34.125 
Q 80.5625 29.640625 79.296875 25.4375 
L 82.515625 25.4375 
L 82.515625 0.921875 
Q 82.515625 -3.5625 85.9375 -3.5625 
L 87.796875 -3.5625 
Q 90.328125 -3.5625 91.3125 0.34375 
Q 92.390625 4.4375 92.1875 13.328125 
Q 95.796875 11.671875 98.734375 10.796875 
Q 98.53125 2.203125 97.078125 -3.375 
Q 95.015625 -10.203125 89.75 -10.203125 
L 83.890625 -10.203125 
Q 76.078125 -10.203125 76.078125 -0.046875 
L 76.078125 16.75 
Q 68.21875 -0.640625 51.265625 -13.140625 
Q 49.21875 -10.109375 46.296875 -7.5625 
Q 69.140625 8.34375 74.65625 34.125 
L 60.84375 34.125 
L 63.484375 66.453125 
L 69.53125 66.453125 
z
M 1.171875 21.625 
Q 8.890625 37.015625 13.375 56.5 
L 2.640625 56.5 
L 2.640625 62.546875 
L 14.265625 62.546875 
L 14.265625 83.15625 
L 20.703125 83.15625 
L 20.703125 62.546875 
L 29.890625 62.546875 
L 29.890625 56.5 
L 20.703125 56.5 
L 20.703125 43.359375 
L 23.34375 45.65625 
Q 28.421875 40.28125 31.546875 36.078125 
L 26.953125 32.171875 
Q 23.96875 36.578125 20.703125 40.4375 
L 20.703125 -12.84375 
L 14.265625 -12.84375 
L 14.265625 42.046875 
Q 9.71875 23.921875 4 13.140625 
Q 2.734375 17.234375 1.171875 21.625 
z
M 38.578125 37.453125 
L 50.09375 37.453125 
L 50.09375 51.515625 
L 38.578125 51.515625 
z
M 50.09375 71.53125 
L 38.578125 71.53125 
L 38.578125 57.5625 
L 50.09375 57.5625 
z
" id="MicrosoftYaHei-6982"/>
     <path d="M 3.71875 1.125 
L 69.875 1.125 
L 71.09375 17.921875 
L 16.015625 17.921875 
L 16.015625 24.859375 
L 22.171875 67.828125 
L 7.234375 67.828125 
L 7.234375 74.859375 
L 92.96875 74.859375 
L 92.96875 67.828125 
L 30.375 67.828125 
L 28.265625 53.46875 
L 81.84375 53.46875 
L 78.078125 1.125 
L 96.6875 1.125 
L 96.6875 -5.71875 
L 3.71875 -5.71875 
z
M 73.140625 46.4375 
L 27.296875 46.4375 
L 24.21875 24.953125 
L 71.578125 24.953125 
z
" id="MicrosoftYaHei-4e92"/>
     <path d="M 1.265625 8.640625 
Q 4.984375 9.234375 8.6875 9.859375 
L 8.6875 69.1875 
L 2.34375 69.1875 
L 2.34375 76.03125 
L 44.53125 76.03125 
L 44.53125 69.1875 
L 37.203125 69.1875 
L 37.203125 14.890625 
Q 41.65625 15.71875 46.09375 16.546875 
Q 46.296875 12.546875 46.78125 9.71875 
Q 42.140625 8.796875 37.203125 7.8125 
L 37.203125 -12.84375 
L 30.078125 -12.84375 
L 30.078125 6.34375 
Q 17.53125 3.8125 3.125 0.828125 
z
M 40.625 37.453125 
L 63.1875 37.453125 
Q 63.578125 44.578125 63.53125 55.125 
L 43.359375 55.125 
L 43.359375 62.359375 
L 69.734375 62.359375 
Q 74.125 69.390625 81.25 82.953125 
L 88.875 79.34375 
Q 82.8125 69.921875 77.59375 62.359375 
L 93.953125 62.359375 
L 93.953125 55.125 
L 71.09375 55.125 
Q 71.09375 44.53125 70.75 37.453125 
L 97.265625 37.453125 
L 97.265625 30.21875 
L 71.734375 30.21875 
Q 79.203125 6.890625 98.640625 -4.4375 
Q 95.125 -7.953125 92.390625 -11.765625 
Q 75.046875 1.375 67.96875 21.140625 
Q 62.59375 0.203125 44.234375 -12.75 
Q 41.21875 -8.9375 38.765625 -6.390625 
Q 59.125 6.453125 62.59375 30.21875 
L 40.625 30.21875 
z
M 30.078125 13.578125 
L 30.078125 27.390625 
L 15.828125 27.390625 
L 15.828125 11.078125 
Q 23 12.3125 30.078125 13.578125 
z
M 15.828125 34.03125 
L 30.078125 34.03125 
L 30.078125 48.296875 
L 15.828125 48.296875 
z
M 15.828125 54.9375 
L 30.078125 54.9375 
L 30.078125 69.1875 
L 15.828125 69.1875 
z
M 47.078125 78.953125 
L 52.734375 82.953125 
Q 58.59375 76.3125 63.765625 68.40625 
L 57.421875 64.015625 
Q 53.328125 70.75 47.078125 78.953125 
z
" id="MicrosoftYaHei-8054"/>
     <path d="M 50.4375 0 
L 9.765625 0 
L 9.765625 75.640625 
L 48.734375 75.640625 
L 48.734375 66.9375 
L 19.53125 66.9375 
L 19.53125 42.71875 
L 46.578125 42.71875 
L 46.578125 34.078125 
L 19.53125 34.078125 
L 19.53125 8.640625 
L 50.4375 8.640625 
z
" id="MicrosoftYaHei-45"/>
     <path d="M 55.46875 66.9375 
L 33.640625 66.9375 
L 33.640625 0 
L 23.828125 0 
L 23.828125 66.9375 
L 2.09375 66.9375 
L 2.09375 75.640625 
L 55.46875 75.640625 
z
" id="MicrosoftYaHei-54"/>
     <path d="M 48.734375 66.9375 
L 19.53125 66.9375 
L 19.53125 41.65625 
L 46.578125 41.65625 
L 46.578125 33.0625 
L 19.53125 33.0625 
L 19.53125 0 
L 9.765625 0 
L 9.765625 75.640625 
L 48.734375 75.640625 
z
" id="MicrosoftYaHei-46"/>
    </defs>
    <g transform="translate(383.836875 45.84)scale(0.12 -0.12)">
     <use xlink:href="#MicrosoftYaHei-6613"/>
     <use x="100" xlink:href="#MicrosoftYaHei-65b9"/>
     <use x="200" xlink:href="#MicrosoftYaHei-8fbe"/>
     <use x="300" xlink:href="#MicrosoftYaHei-4e2d"/>
     <use x="400" xlink:href="#MicrosoftYaHei-6982"/>
     <use x="500" xlink:href="#MicrosoftYaHei-4e92"/>
     <use x="600" xlink:href="#MicrosoftYaHei-8054"/>
     <use x="700" xlink:href="#MicrosoftYaHei-35"/>
     <use x="758.642578" xlink:href="#MicrosoftYaHei-30"/>
     <use x="817.285156" xlink:href="#MicrosoftYaHei-45"/>
     <use x="872.265625" xlink:href="#MicrosoftYaHei-54"/>
     <use x="929.589844" xlink:href="#MicrosoftYaHei-46"/>
    </g>
   </g>
   <g id="legend_1">
    <g id="patch_7">
     <path d="M 766.6 64.84 
L 770.6 64.84 
Q 772.6 64.84 772.6 62.84 
L 772.6 58.84 
Q 772.6 56.84 770.6 56.84 
L 766.6 56.84 
Q 764.6 56.84 764.6 58.84 
L 764.6 62.84 
Q 764.6 64.84 766.6 64.84 
z
" style="fill:#ffffff;opacity:0.8;stroke:#cccccc;stroke-linejoin:miter;"/>
    </g>
   </g>
  </g>
 </g>
 <defs>
  <clipPath id="pc152ab3ac5">
   <rect height="332.64" width="669.6" x="108" y="51.84"/>
  </clipPath>
 </defs>
</svg>
