<?xml version="1.0" encoding="utf-8" standalone="no"?>
<!DOCTYPE svg PUBLIC "-//W3C//DTD SVG 1.1//EN"
  "http://www.w3.org/Graphics/SVG/1.1/DTD/svg11.dtd">
<!-- Created with matplotlib (http://matplotlib.org/) -->
<svg height="432pt" version="1.1" viewBox="0 0 864 432" width="864pt" xmlns="http://www.w3.org/2000/svg" xmlns:xlink="http://www.w3.org/1999/xlink">
 <defs>
  <style type="text/css">
*{stroke-linecap:butt;stroke-linejoin:round;}
  </style>
 </defs>
 <g id="figure_1">
  <g id="patch_1">
   <path d="M 0 432 
L 864 432 
L 864 0 
L 0 0 
z
" style="fill:#ffffff;"/>
  </g>
  <g id="axes_1">
   <g id="patch_2">
    <path d="M 108 384.48 
L 777.6 384.48 
L 777.6 51.84 
L 108 51.84 
z
" style="fill:#ffffff;"/>
   </g>
   <g id="matplotlib.axis_1">
    <g id="xtick_1">
     <g id="line2d_1">
      <defs>
       <path d="M 0 0 
L 0 3.5 
" id="m4944e28eee" style="stroke:#000000;stroke-width:0.8;"/>
      </defs>
      <g>
       <use style="stroke:#000000;stroke-width:0.8;" x="108" xlink:href="#m4944e28eee" y="384.48"/>
      </g>
     </g>
     <g id="text_1">
      <!-- 2013-04-25 -->
      <defs>
       <path d="M 51.171875 0 
L 5.171875 0 
L 5.171875 8.296875 
L 27.15625 30.21875 
Q 36.234375 39.3125 39.3125 44.609375 
Q 42.390625 49.90625 42.390625 55.5625 
Q 42.390625 62.015625 38.765625 65.453125 
Q 35.15625 68.890625 28.328125 68.890625 
Q 18.21875 68.890625 9.03125 60.296875 
L 9.03125 70.015625 
Q 17.96875 76.90625 29.828125 76.90625 
Q 40.046875 76.90625 45.953125 71.390625 
Q 51.859375 65.875 51.859375 56.546875 
Q 51.859375 49.515625 48.0625 42.75 
Q 44.28125 35.984375 33.734375 25.53125 
L 16.5 8.6875 
L 16.5 8.5 
L 51.171875 8.5 
z
" id="MicrosoftYaHei-32"/>
       <path d="M 4.4375 36.328125 
Q 4.4375 56.34375 11.078125 66.625 
Q 17.71875 76.90625 30.328125 76.90625 
Q 54.34375 76.90625 54.34375 38.140625 
Q 54.34375 19 47.578125 8.859375 
Q 40.828125 -1.265625 28.609375 -1.265625 
Q 17.09375 -1.265625 10.765625 8.34375 
Q 4.4375 17.96875 4.4375 36.328125 
z
M 14.203125 36.765625 
Q 14.203125 6.640625 29.5 6.640625 
Q 44.53125 6.640625 44.53125 37.25 
Q 44.53125 68.953125 29.78125 68.953125 
Q 14.203125 68.953125 14.203125 36.765625 
z
" id="MicrosoftYaHei-30"/>
       <path d="M 52.59375 0 
L 9.234375 0 
L 9.234375 8.25 
L 26.171875 8.25 
L 26.171875 65.671875 
L 8.796875 60.640625 
L 8.796875 69.4375 
L 35.6875 77.25 
L 35.6875 8.25 
L 52.59375 8.25 
z
" id="MicrosoftYaHei-31"/>
       <path d="M 6.984375 12.640625 
Q 14.75 6.640625 24.515625 6.640625 
Q 32.328125 6.640625 36.890625 10.46875 
Q 41.453125 14.3125 41.453125 20.75 
Q 41.453125 35.109375 20.90625 35.109375 
L 14.59375 35.109375 
L 14.59375 43.015625 
L 20.609375 43.015625 
Q 38.8125 43.015625 38.8125 56.5 
Q 38.8125 68.953125 24.90625 68.953125 
Q 16.9375 68.953125 9.90625 63.578125 
L 9.90625 72.609375 
Q 17.328125 76.90625 27.25 76.90625 
Q 36.921875 76.90625 42.78125 71.84375 
Q 48.640625 66.796875 48.640625 58.734375 
Q 48.640625 43.890625 33.5 39.65625 
L 33.5 39.453125 
Q 41.703125 38.578125 46.453125 33.671875 
Q 51.21875 28.765625 51.21875 21.4375 
Q 51.21875 11.234375 43.875 4.984375 
Q 36.53125 -1.265625 24.3125 -1.265625 
Q 13.578125 -1.265625 6.984375 2.734375 
z
" id="MicrosoftYaHei-33"/>
       <path d="M 36.375 26.265625 
L 7.625 26.265625 
L 7.625 33.640625 
L 36.375 33.640625 
z
" id="MicrosoftYaHei-2d"/>
       <path d="M 55.078125 19.625 
L 45.40625 19.625 
L 45.40625 0 
L 36.140625 0 
L 36.140625 19.625 
L 0.875 19.625 
L 0.875 25.828125 
L 34.328125 75.640625 
L 45.40625 75.640625 
L 45.40625 27.203125 
L 55.078125 27.203125 
z
M 36.140625 27.203125 
L 36.140625 58.890625 
Q 36.140625 62.25 36.328125 66.65625 
L 36.140625 66.65625 
Q 35.453125 64.796875 33.25 60.84375 
L 10.75 27.203125 
z
" id="MicrosoftYaHei-34"/>
       <path d="M 8.640625 11.625 
Q 16.265625 6.640625 24.515625 6.640625 
Q 32.328125 6.640625 37.109375 11 
Q 41.890625 15.375 41.890625 22.609375 
Q 41.890625 29.890625 37.03125 33.890625 
Q 32.171875 37.890625 22.953125 37.890625 
Q 18.5 37.890625 10.984375 37.203125 
L 10.984375 75.640625 
L 48.1875 75.640625 
L 48.1875 67.1875 
L 19.875 67.1875 
L 19.875 45.796875 
Q 24.125 46.046875 26.265625 46.046875 
Q 38.234375 46.046875 44.921875 39.984375 
Q 51.609375 33.9375 51.609375 23.296875 
Q 51.609375 12.3125 44.421875 5.515625 
Q 37.25 -1.265625 24.609375 -1.265625 
Q 14.015625 -1.265625 8.640625 1.859375 
z
" id="MicrosoftYaHei-35"/>
      </defs>
      <g transform="translate(80.217187 399.47375)scale(0.1 -0.1)">
       <use xlink:href="#MicrosoftYaHei-32"/>
       <use x="58.642578" xlink:href="#MicrosoftYaHei-30"/>
       <use x="117.285156" xlink:href="#MicrosoftYaHei-31"/>
       <use x="175.927734" xlink:href="#MicrosoftYaHei-33"/>
       <use x="234.570312" xlink:href="#MicrosoftYaHei-2d"/>
       <use x="277.832031" xlink:href="#MicrosoftYaHei-30"/>
       <use x="336.474609" xlink:href="#MicrosoftYaHei-34"/>
       <use x="395.117188" xlink:href="#MicrosoftYaHei-2d"/>
       <use x="438.378906" xlink:href="#MicrosoftYaHei-32"/>
       <use x="497.021484" xlink:href="#MicrosoftYaHei-35"/>
      </g>
     </g>
    </g>
    <g id="xtick_2">
     <g id="line2d_2">
      <g>
       <use style="stroke:#000000;stroke-width:0.8;" x="193.714286" xlink:href="#m4944e28eee" y="384.48"/>
      </g>
     </g>
     <g id="text_2">
      <!-- 2014-05-29 -->
      <defs>
       <path d="M 9.03125 10.25 
Q 15.28125 6.640625 22.515625 6.640625 
Q 32.671875 6.640625 38.25 14.640625 
Q 43.84375 22.65625 43.84375 37.40625 
Q 43.75 37.3125 43.65625 37.40625 
Q 38.671875 27.9375 26.90625 27.9375 
Q 17.390625 27.9375 11.140625 34.46875 
Q 4.890625 41.015625 4.890625 51.46875 
Q 4.890625 62.59375 11.71875 69.75 
Q 18.5625 76.90625 29.4375 76.90625 
Q 40.71875 76.90625 47.0625 68.046875 
Q 53.421875 59.1875 53.421875 42.234375 
Q 53.421875 21.296875 45.21875 10.015625 
Q 37.015625 -1.265625 22.515625 -1.265625 
Q 14.546875 -1.265625 9.03125 1.3125 
z
M 14.546875 52.6875 
Q 14.546875 45.0625 18.453125 40.59375 
Q 22.359375 36.140625 29.25 36.140625 
Q 35.203125 36.140625 39.25 40.203125 
Q 43.3125 44.28125 43.3125 50.09375 
Q 43.3125 58.25 39.28125 63.59375 
Q 35.25 68.953125 28.65625 68.953125 
Q 22.5625 68.953125 18.546875 64.3125 
Q 14.546875 59.671875 14.546875 52.6875 
z
" id="MicrosoftYaHei-39"/>
      </defs>
      <g transform="translate(165.931473 399.47375)scale(0.1 -0.1)">
       <use xlink:href="#MicrosoftYaHei-32"/>
       <use x="58.642578" xlink:href="#MicrosoftYaHei-30"/>
       <use x="117.285156" xlink:href="#MicrosoftYaHei-31"/>
       <use x="175.927734" xlink:href="#MicrosoftYaHei-34"/>
       <use x="234.570312" xlink:href="#MicrosoftYaHei-2d"/>
       <use x="277.832031" xlink:href="#MicrosoftYaHei-30"/>
       <use x="336.474609" xlink:href="#MicrosoftYaHei-35"/>
       <use x="395.117188" xlink:href="#MicrosoftYaHei-2d"/>
       <use x="438.378906" xlink:href="#MicrosoftYaHei-32"/>
       <use x="497.021484" xlink:href="#MicrosoftYaHei-39"/>
      </g>
     </g>
    </g>
    <g id="xtick_3">
     <g id="line2d_3">
      <g>
       <use style="stroke:#000000;stroke-width:0.8;" x="279.428571" xlink:href="#m4944e28eee" y="384.48"/>
      </g>
     </g>
     <g id="text_3">
      <!-- 2015-06-17 -->
      <defs>
       <path d="M 49.703125 65.921875 
Q 43.796875 68.953125 37.359375 68.953125 
Q 27.546875 68.953125 21.578125 60.40625 
Q 15.625 51.859375 15.53125 37.0625 
L 15.765625 37.0625 
Q 21.140625 47.46875 32.90625 47.46875 
Q 42.71875 47.46875 48.578125 41.0625 
Q 54.4375 34.671875 54.4375 24.078125 
Q 54.4375 12.984375 47.671875 5.859375 
Q 40.921875 -1.265625 30.421875 -1.265625 
Q 18.890625 -1.265625 12.328125 7.734375 
Q 5.765625 16.75 5.765625 33.296875 
Q 5.765625 53.328125 14.375 65.109375 
Q 23 76.90625 37.0625 76.90625 
Q 45.125 76.90625 49.703125 74.703125 
z
M 16.109375 24.75 
Q 16.109375 17.28125 20.09375 11.953125 
Q 24.078125 6.640625 30.671875 6.640625 
Q 36.921875 6.640625 40.828125 11.234375 
Q 44.734375 15.828125 44.734375 23.046875 
Q 44.734375 30.859375 41.046875 35.203125 
Q 37.359375 39.546875 30.5625 39.546875 
Q 24.125 39.546875 20.109375 35.15625 
Q 16.109375 30.765625 16.109375 24.75 
z
" id="MicrosoftYaHei-36"/>
       <path d="M 53.765625 72.3125 
L 24.171875 0 
L 14.265625 0 
L 42.390625 67.1875 
L 4.59375 67.1875 
L 4.59375 75.640625 
L 53.765625 75.640625 
z
" id="MicrosoftYaHei-37"/>
      </defs>
      <g transform="translate(251.645759 399.47375)scale(0.1 -0.1)">
       <use xlink:href="#MicrosoftYaHei-32"/>
       <use x="58.642578" xlink:href="#MicrosoftYaHei-30"/>
       <use x="117.285156" xlink:href="#MicrosoftYaHei-31"/>
       <use x="175.927734" xlink:href="#MicrosoftYaHei-35"/>
       <use x="234.570312" xlink:href="#MicrosoftYaHei-2d"/>
       <use x="277.832031" xlink:href="#MicrosoftYaHei-30"/>
       <use x="336.474609" xlink:href="#MicrosoftYaHei-36"/>
       <use x="395.117188" xlink:href="#MicrosoftYaHei-2d"/>
       <use x="438.378906" xlink:href="#MicrosoftYaHei-31"/>
       <use x="497.021484" xlink:href="#MicrosoftYaHei-37"/>
      </g>
     </g>
    </g>
    <g id="xtick_4">
     <g id="line2d_4">
      <g>
       <use style="stroke:#000000;stroke-width:0.8;" x="365.142857" xlink:href="#m4944e28eee" y="384.48"/>
      </g>
     </g>
     <g id="text_4">
      <!-- 2016-07-08 -->
      <defs>
       <path d="M 21.390625 39.796875 
Q 7.859375 46.09375 7.859375 58.0625 
Q 7.859375 66.40625 14.203125 71.65625 
Q 20.5625 76.90625 30.421875 76.90625 
Q 39.453125 76.90625 45.3125 71.96875 
Q 51.171875 67.046875 51.171875 59.234375 
Q 51.171875 46.625 37.0625 39.84375 
L 37.0625 39.65625 
Q 53.609375 33.6875 53.609375 19.34375 
Q 53.609375 9.90625 46.796875 4.3125 
Q 39.984375 -1.265625 27.78125 -1.265625 
Q 17.78125 -1.265625 11.46875 4.25 
Q 5.171875 9.765625 5.171875 18.5625 
Q 5.171875 33.015625 21.390625 39.59375 
z
M 41.5 58.109375 
Q 41.5 63.1875 38.328125 66.109375 
Q 35.15625 69.046875 29.734375 69.046875 
Q 24.65625 69.046875 21.09375 65.984375 
Q 17.53125 62.9375 17.53125 58.203125 
Q 17.53125 48.734375 29.390625 43.796875 
Q 41.5 48.828125 41.5 58.109375 
z
M 28.8125 35.25 
Q 14.796875 29.59375 14.796875 19.046875 
Q 14.796875 13.578125 18.890625 10.0625 
Q 23 6.546875 29.59375 6.546875 
Q 35.984375 6.546875 39.984375 10.03125 
Q 44 13.53125 44 18.75 
Q 44 29.734375 28.8125 35.25 
z
" id="MicrosoftYaHei-38"/>
      </defs>
      <g transform="translate(337.360045 399.47375)scale(0.1 -0.1)">
       <use xlink:href="#MicrosoftYaHei-32"/>
       <use x="58.642578" xlink:href="#MicrosoftYaHei-30"/>
       <use x="117.285156" xlink:href="#MicrosoftYaHei-31"/>
       <use x="175.927734" xlink:href="#MicrosoftYaHei-36"/>
       <use x="234.570312" xlink:href="#MicrosoftYaHei-2d"/>
       <use x="277.832031" xlink:href="#MicrosoftYaHei-30"/>
       <use x="336.474609" xlink:href="#MicrosoftYaHei-37"/>
       <use x="395.117188" xlink:href="#MicrosoftYaHei-2d"/>
       <use x="438.378906" xlink:href="#MicrosoftYaHei-30"/>
       <use x="497.021484" xlink:href="#MicrosoftYaHei-38"/>
      </g>
     </g>
    </g>
    <g id="xtick_5">
     <g id="line2d_5">
      <g>
       <use style="stroke:#000000;stroke-width:0.8;" x="450.857143" xlink:href="#m4944e28eee" y="384.48"/>
      </g>
     </g>
     <g id="text_5">
      <!-- 2017-07-27 -->
      <g transform="translate(423.07433 399.47375)scale(0.1 -0.1)">
       <use xlink:href="#MicrosoftYaHei-32"/>
       <use x="58.642578" xlink:href="#MicrosoftYaHei-30"/>
       <use x="117.285156" xlink:href="#MicrosoftYaHei-31"/>
       <use x="175.927734" xlink:href="#MicrosoftYaHei-37"/>
       <use x="234.570312" xlink:href="#MicrosoftYaHei-2d"/>
       <use x="277.832031" xlink:href="#MicrosoftYaHei-30"/>
       <use x="336.474609" xlink:href="#MicrosoftYaHei-37"/>
       <use x="395.117188" xlink:href="#MicrosoftYaHei-2d"/>
       <use x="438.378906" xlink:href="#MicrosoftYaHei-32"/>
       <use x="497.021484" xlink:href="#MicrosoftYaHei-37"/>
      </g>
     </g>
    </g>
    <g id="xtick_6">
     <g id="line2d_6">
      <g>
       <use style="stroke:#000000;stroke-width:0.8;" x="536.571429" xlink:href="#m4944e28eee" y="384.48"/>
      </g>
     </g>
     <g id="text_6">
      <!-- 2018-08-10 -->
      <g transform="translate(508.788616 399.47375)scale(0.1 -0.1)">
       <use xlink:href="#MicrosoftYaHei-32"/>
       <use x="58.642578" xlink:href="#MicrosoftYaHei-30"/>
       <use x="117.285156" xlink:href="#MicrosoftYaHei-31"/>
       <use x="175.927734" xlink:href="#MicrosoftYaHei-38"/>
       <use x="234.570312" xlink:href="#MicrosoftYaHei-2d"/>
       <use x="277.832031" xlink:href="#MicrosoftYaHei-30"/>
       <use x="336.474609" xlink:href="#MicrosoftYaHei-38"/>
       <use x="395.117188" xlink:href="#MicrosoftYaHei-2d"/>
       <use x="438.378906" xlink:href="#MicrosoftYaHei-31"/>
       <use x="497.021484" xlink:href="#MicrosoftYaHei-30"/>
      </g>
     </g>
    </g>
    <g id="xtick_7">
     <g id="line2d_7">
      <g>
       <use style="stroke:#000000;stroke-width:0.8;" x="622.285714" xlink:href="#m4944e28eee" y="384.48"/>
      </g>
     </g>
     <g id="text_7">
      <!-- 2019-08-23 -->
      <g transform="translate(594.502902 399.47375)scale(0.1 -0.1)">
       <use xlink:href="#MicrosoftYaHei-32"/>
       <use x="58.642578" xlink:href="#MicrosoftYaHei-30"/>
       <use x="117.285156" xlink:href="#MicrosoftYaHei-31"/>
       <use x="175.927734" xlink:href="#MicrosoftYaHei-39"/>
       <use x="234.570312" xlink:href="#MicrosoftYaHei-2d"/>
       <use x="277.832031" xlink:href="#MicrosoftYaHei-30"/>
       <use x="336.474609" xlink:href="#MicrosoftYaHei-38"/>
       <use x="395.117188" xlink:href="#MicrosoftYaHei-2d"/>
       <use x="438.378906" xlink:href="#MicrosoftYaHei-32"/>
       <use x="497.021484" xlink:href="#MicrosoftYaHei-33"/>
      </g>
     </g>
    </g>
    <g id="xtick_8">
     <g id="line2d_8">
      <g>
       <use style="stroke:#000000;stroke-width:0.8;" x="708" xlink:href="#m4944e28eee" y="384.48"/>
      </g>
     </g>
     <g id="text_8">
      <!-- 2020-09-03 -->
      <g transform="translate(680.217188 399.47375)scale(0.1 -0.1)">
       <use xlink:href="#MicrosoftYaHei-32"/>
       <use x="58.642578" xlink:href="#MicrosoftYaHei-30"/>
       <use x="117.285156" xlink:href="#MicrosoftYaHei-32"/>
       <use x="175.927734" xlink:href="#MicrosoftYaHei-30"/>
       <use x="234.570312" xlink:href="#MicrosoftYaHei-2d"/>
       <use x="277.832031" xlink:href="#MicrosoftYaHei-30"/>
       <use x="336.474609" xlink:href="#MicrosoftYaHei-39"/>
       <use x="395.117188" xlink:href="#MicrosoftYaHei-2d"/>
       <use x="438.378906" xlink:href="#MicrosoftYaHei-30"/>
       <use x="497.021484" xlink:href="#MicrosoftYaHei-33"/>
      </g>
     </g>
    </g>
    <g id="text_9">
     <!-- date -->
     <defs>
      <path d="M 55.421875 0 
L 45.84375 0 
L 45.84375 8.984375 
L 45.65625 8.984375 
Q 39.75 -1.265625 27.296875 -1.265625 
Q 17.046875 -1.265625 10.984375 6.03125 
Q 4.9375 13.328125 4.9375 25.734375 
Q 4.9375 39.109375 11.765625 47.1875 
Q 18.609375 55.28125 29.640625 55.28125 
Q 40.671875 55.28125 45.65625 46.6875 
L 45.84375 46.6875 
L 45.84375 79.9375 
L 55.421875 79.9375 
z
M 45.90625 32.125 
Q 45.90625 38.625 41.625 42.984375 
Q 37.359375 47.359375 31.109375 47.359375 
Q 23.484375 47.359375 19.09375 41.671875 
Q 14.703125 35.984375 14.703125 26.171875 
Q 14.703125 17.140625 18.921875 11.890625 
Q 23.140625 6.640625 30.171875 6.640625 
Q 37.109375 6.640625 41.5 11.78125 
Q 45.90625 16.9375 45.90625 24.609375 
z
" id="MicrosoftYaHei-64"/>
      <path d="M 9.8125 50.25 
Q 17.875 55.28125 28.421875 55.28125 
Q 47.953125 55.28125 47.953125 34.765625 
L 47.953125 0 
L 38.484375 0 
L 38.484375 8.34375 
L 38.234375 8.34375 
Q 32.625 -1.265625 21.6875 -1.265625 
Q 13.8125 -1.265625 9.171875 2.984375 
Q 4.546875 7.234375 4.546875 14.453125 
Q 4.546875 29.59375 22.46875 32.078125 
L 38.484375 34.328125 
Q 38.484375 47.5625 27.546875 47.5625 
Q 17.828125 47.5625 9.8125 41.015625 
z
M 25.828125 25.390625 
Q 19.1875 24.515625 16.671875 22.0625 
Q 14.15625 19.625 14.15625 15.234375 
Q 14.15625 11.375 16.890625 8.9375 
Q 19.625 6.5 24.125 6.5 
Q 30.375 6.5 34.421875 10.890625 
Q 38.484375 15.28125 38.484375 21.921875 
L 38.484375 27.09375 
z
" id="MicrosoftYaHei-61"/>
      <path d="M 34.46875 0.53125 
Q 31.34375 -1.171875 26.03125 -1.171875 
Q 11.53125 -1.171875 11.53125 14.890625 
L 11.53125 46.09375 
L 2.25 46.09375 
L 2.25 54 
L 11.53125 54 
L 11.53125 67 
L 21.046875 70.015625 
L 21.046875 54 
L 34.46875 54 
L 34.46875 46.09375 
L 21.046875 46.09375 
L 21.046875 16.609375 
Q 21.046875 11.28125 22.84375 8.984375 
Q 24.65625 6.6875 28.859375 6.6875 
Q 32.078125 6.6875 34.46875 8.5 
z
" id="MicrosoftYaHei-74"/>
      <path d="M 52.546875 24.5625 
L 14.75 24.5625 
Q 14.984375 15.921875 19.46875 11.203125 
Q 23.96875 6.5 32.03125 6.5 
Q 41.109375 6.5 48.6875 12.3125 
L 48.6875 3.765625 
Q 41.546875 -1.265625 29.78125 -1.265625 
Q 18.0625 -1.265625 11.5 6.15625 
Q 4.9375 13.578125 4.9375 26.765625 
Q 4.9375 39.15625 12.140625 47.21875 
Q 19.34375 55.28125 30.03125 55.28125 
Q 40.625 55.28125 46.578125 48.46875 
Q 52.546875 41.65625 52.546875 29.390625 
z
M 42.96875 32.234375 
Q 42.921875 39.546875 39.5 43.546875 
Q 36.078125 47.5625 29.890625 47.5625 
Q 24.171875 47.5625 20 43.3125 
Q 15.828125 39.0625 14.75 32.234375 
z
" id="MicrosoftYaHei-65"/>
     </defs>
     <g transform="translate(432.138281 413.953438)scale(0.1 -0.1)">
      <use xlink:href="#MicrosoftYaHei-64"/>
      <use x="63.964844" xlink:href="#MicrosoftYaHei-61"/>
      <use x="119.238281" xlink:href="#MicrosoftYaHei-74"/>
      <use x="156.494141" xlink:href="#MicrosoftYaHei-65"/>
     </g>
    </g>
   </g>
   <g id="matplotlib.axis_2">
    <g id="ytick_1">
     <g id="line2d_9">
      <defs>
       <path d="M 0 0 
L -3.5 0 
" id="m1184411f49" style="stroke:#000000;stroke-width:0.8;"/>
      </defs>
      <g>
       <use style="stroke:#000000;stroke-width:0.8;" x="108" xlink:href="#m1184411f49" y="365.478198"/>
      </g>
     </g>
     <g id="text_10">
      <!-- 1.0 -->
      <defs>
       <path d="M 5.8125 5.03125 
Q 5.8125 7.671875 7.609375 9.46875 
Q 9.421875 11.28125 12.109375 11.28125 
Q 14.84375 11.28125 16.640625 9.453125 
Q 18.453125 7.625 18.453125 5.03125 
Q 18.453125 2.484375 16.640625 0.65625 
Q 14.84375 -1.171875 12.0625 -1.171875 
Q 9.375 -1.171875 7.59375 0.65625 
Q 5.8125 2.484375 5.8125 5.03125 
z
" id="MicrosoftYaHei-2e"/>
      </defs>
      <g transform="translate(86.864063 369.475073)scale(0.1 -0.1)">
       <use xlink:href="#MicrosoftYaHei-31"/>
       <use x="58.642578" xlink:href="#MicrosoftYaHei-2e"/>
       <use x="82.714844" xlink:href="#MicrosoftYaHei-30"/>
      </g>
     </g>
    </g>
    <g id="ytick_2">
     <g id="line2d_10">
      <g>
       <use style="stroke:#000000;stroke-width:0.8;" x="108" xlink:href="#m1184411f49" y="327.421314"/>
      </g>
     </g>
     <g id="text_11">
      <!-- 1.5 -->
      <g transform="translate(86.864063 331.418189)scale(0.1 -0.1)">
       <use xlink:href="#MicrosoftYaHei-31"/>
       <use x="58.642578" xlink:href="#MicrosoftYaHei-2e"/>
       <use x="82.714844" xlink:href="#MicrosoftYaHei-35"/>
      </g>
     </g>
    </g>
    <g id="ytick_3">
     <g id="line2d_11">
      <g>
       <use style="stroke:#000000;stroke-width:0.8;" x="108" xlink:href="#m1184411f49" y="289.36443"/>
      </g>
     </g>
     <g id="text_12">
      <!-- 2.0 -->
      <g transform="translate(86.864063 293.361305)scale(0.1 -0.1)">
       <use xlink:href="#MicrosoftYaHei-32"/>
       <use x="58.642578" xlink:href="#MicrosoftYaHei-2e"/>
       <use x="82.714844" xlink:href="#MicrosoftYaHei-30"/>
      </g>
     </g>
    </g>
    <g id="ytick_4">
     <g id="line2d_12">
      <g>
       <use style="stroke:#000000;stroke-width:0.8;" x="108" xlink:href="#m1184411f49" y="251.307546"/>
      </g>
     </g>
     <g id="text_13">
      <!-- 2.5 -->
      <g transform="translate(86.864063 255.304421)scale(0.1 -0.1)">
       <use xlink:href="#MicrosoftYaHei-32"/>
       <use x="58.642578" xlink:href="#MicrosoftYaHei-2e"/>
       <use x="82.714844" xlink:href="#MicrosoftYaHei-35"/>
      </g>
     </g>
    </g>
    <g id="ytick_5">
     <g id="line2d_13">
      <g>
       <use style="stroke:#000000;stroke-width:0.8;" x="108" xlink:href="#m1184411f49" y="213.250662"/>
      </g>
     </g>
     <g id="text_14">
      <!-- 3.0 -->
      <g transform="translate(86.864063 217.247537)scale(0.1 -0.1)">
       <use xlink:href="#MicrosoftYaHei-33"/>
       <use x="58.642578" xlink:href="#MicrosoftYaHei-2e"/>
       <use x="82.714844" xlink:href="#MicrosoftYaHei-30"/>
      </g>
     </g>
    </g>
    <g id="ytick_6">
     <g id="line2d_14">
      <g>
       <use style="stroke:#000000;stroke-width:0.8;" x="108" xlink:href="#m1184411f49" y="175.193778"/>
      </g>
     </g>
     <g id="text_15">
      <!-- 3.5 -->
      <g transform="translate(86.864063 179.190653)scale(0.1 -0.1)">
       <use xlink:href="#MicrosoftYaHei-33"/>
       <use x="58.642578" xlink:href="#MicrosoftYaHei-2e"/>
       <use x="82.714844" xlink:href="#MicrosoftYaHei-35"/>
      </g>
     </g>
    </g>
    <g id="ytick_7">
     <g id="line2d_15">
      <g>
       <use style="stroke:#000000;stroke-width:0.8;" x="108" xlink:href="#m1184411f49" y="137.136894"/>
      </g>
     </g>
     <g id="text_16">
      <!-- 4.0 -->
      <g transform="translate(86.864063 141.133769)scale(0.1 -0.1)">
       <use xlink:href="#MicrosoftYaHei-34"/>
       <use x="58.642578" xlink:href="#MicrosoftYaHei-2e"/>
       <use x="82.714844" xlink:href="#MicrosoftYaHei-30"/>
      </g>
     </g>
    </g>
    <g id="ytick_8">
     <g id="line2d_16">
      <g>
       <use style="stroke:#000000;stroke-width:0.8;" x="108" xlink:href="#m1184411f49" y="99.08001"/>
      </g>
     </g>
     <g id="text_17">
      <!-- 4.5 -->
      <g transform="translate(86.864063 103.076885)scale(0.1 -0.1)">
       <use xlink:href="#MicrosoftYaHei-34"/>
       <use x="58.642578" xlink:href="#MicrosoftYaHei-2e"/>
       <use x="82.714844" xlink:href="#MicrosoftYaHei-35"/>
      </g>
     </g>
    </g>
    <g id="ytick_9">
     <g id="line2d_17">
      <g>
       <use style="stroke:#000000;stroke-width:0.8;" x="108" xlink:href="#m1184411f49" y="61.023126"/>
      </g>
     </g>
     <g id="text_18">
      <!-- 5.0 -->
      <g transform="translate(86.864063 65.020001)scale(0.1 -0.1)">
       <use xlink:href="#MicrosoftYaHei-35"/>
       <use x="58.642578" xlink:href="#MicrosoftYaHei-2e"/>
       <use x="82.714844" xlink:href="#MicrosoftYaHei-30"/>
      </g>
     </g>
    </g>
   </g>
   <g id="line2d_18">
    <path clip-path="url(#p65e688732e)" d="M 108 365.478198 
L 110.057143 365.402084 
L 111.085714 365.021515 
L 111.428571 365.021515 
L 111.771429 365.554312 
L 112.457143 365.706539 
L 112.8 365.32597 
L 113.142857 365.630425 
L 113.485714 365.32597 
L 113.828571 365.93488 
L 114.171429 365.782653 
L 114.514286 366.239336 
L 114.857143 367.000473 
L 115.2 366.772132 
L 115.542857 366.010994 
L 116.228571 367.076587 
L 116.914286 365.782653 
L 117.257143 366.619904 
L 117.6 368.446635 
L 117.942857 368.674976 
L 118.285714 369.36 
L 118.628571 368.903317 
L 118.971429 368.218293 
L 119.314286 367.913838 
L 120 367.837725 
L 120.342857 367.381042 
L 120.685714 367.381042 
L 122.057143 366.010994 
L 122.4 365.706539 
L 122.742857 364.260378 
L 123.085714 363.803695 
L 123.428571 363.651467 
L 123.771429 363.651467 
L 124.114286 363.49924 
L 124.457143 363.651467 
L 124.8 364.488719 
L 125.142857 364.260378 
L 125.485714 364.869288 
L 125.828571 364.640946 
L 126.171429 364.032036 
L 126.514286 363.727581 
L 126.857143 363.879809 
L 127.2 363.423126 
L 127.542857 363.270899 
L 127.885714 362.433647 
L 128.228571 361.976965 
L 128.571429 361.976965 
L 128.914286 362.509761 
L 129.257143 362.661988 
L 129.6 362.28142 
L 129.942857 362.661988 
L 130.285714 362.509761 
L 130.628571 362.053078 
L 130.971429 362.357533 
L 131.314286 363.727581 
L 132 363.955922 
L 132.342857 363.575354 
L 132.685714 363.879809 
L 133.371429 362.509761 
L 133.714286 362.661988 
L 134.057143 364.184264 
L 134.4 363.955922 
L 134.742857 363.423126 
L 135.085714 363.879809 
L 135.428571 363.423126 
L 135.771429 362.585875 
L 136.457143 362.357533 
L 136.8 361.520282 
L 137.142857 361.139713 
L 137.828571 361.444168 
L 138.171429 361.368054 
L 138.514286 361.596396 
L 138.857143 360.987486 
L 139.2 359.998007 
L 139.542857 360.378575 
L 139.885714 360.378575 
L 140.228571 360.68303 
L 140.571429 360.07412 
L 140.914286 360.150234 
L 141.257143 360.454689 
L 141.6 362.053078 
L 141.942857 362.28142 
L 142.285714 360.606917 
L 142.971429 359.46521 
L 143.314286 359.769665 
L 143.657143 358.8563 
L 144 358.399617 
L 144.342857 357.181797 
L 145.028571 356.877342 
L 145.371429 357.410138 
L 146.057143 356.496773 
L 146.4 356.496773 
L 146.742857 356.268432 
L 147.771429 356.420659 
L 148.457143 356.192318 
L 148.8 356.192318 
L 149.142857 357.790707 
L 149.485714 356.801228 
L 149.828571 356.953456 
L 150.171429 356.877342 
L 150.514286 355.887863 
L 151.2 355.507294 
L 151.542857 356.344546 
L 152.228571 356.877342 
L 152.571429 355.735636 
L 152.914286 355.278953 
L 153.257143 355.202839 
L 153.6 354.670043 
L 153.942857 354.365588 
L 154.285714 353.908905 
L 154.628571 354.137246 
L 155.657143 354.21336 
L 156 353.680564 
L 156.342857 353.528336 
L 156.685714 353.60445 
L 157.028571 354.746157 
L 157.371429 354.974498 
L 157.714286 355.050612 
L 158.057143 354.593929 
L 158.4 354.746157 
L 158.742857 353.756678 
L 159.085714 353.908905 
L 159.771429 352.158288 
L 160.114286 352.082175 
L 160.457143 351.77772 
L 160.8 352.234402 
L 161.142857 352.38663 
L 161.485714 351.929947 
L 162.171429 353.071654 
L 162.514286 353.299995 
L 162.857143 352.538857 
L 163.2 352.310516 
L 163.542857 352.614971 
L 163.885714 352.462744 
L 164.228571 353.832791 
L 164.571429 352.234402 
L 164.914286 351.473265 
L 165.257143 351.321037 
L 165.6 351.853833 
L 165.942857 351.168809 
L 166.285714 350.940468 
L 166.628571 351.244923 
L 166.971429 353.071654 
L 167.314286 353.832791 
L 167.657143 353.985019 
L 168 354.898384 
L 168.342857 353.299995 
L 169.371429 351.168809 
L 169.714286 351.016582 
L 170.057143 350.255444 
L 170.4 350.17933 
L 170.742857 349.798762 
L 171.085714 350.331558 
L 171.428571 349.874875 
L 171.771429 350.027103 
L 172.114286 349.494307 
L 172.8 349.722648 
L 173.142857 349.113738 
L 173.485714 349.189851 
L 173.828571 349.874875 
L 174.171429 348.657055 
L 174.514286 348.428714 
L 174.857143 348.580941 
L 175.2 349.037624 
L 175.542857 348.809283 
L 175.885714 349.113738 
L 176.228571 348.733169 
L 176.571429 350.103217 
L 176.914286 350.636013 
L 177.257143 349.874875 
L 177.6 348.809283 
L 177.942857 349.342079 
L 178.285714 348.96151 
L 178.971429 350.788241 
L 179.314286 350.559899 
L 179.657143 351.625492 
L 180 352.082175 
L 180.342857 351.929947 
L 180.685714 351.321037 
L 181.028571 349.722648 
L 181.371429 349.57042 
L 181.714286 350.255444 
L 182.057143 352.614971 
L 182.4 352.691085 
L 182.742857 351.244923 
L 183.085714 353.985019 
L 183.428571 354.974498 
L 183.771429 354.289474 
L 184.114286 353.908905 
L 184.457143 352.767199 
L 184.8 352.767199 
L 185.485714 351.397151 
L 185.828571 352.158288 
L 186.171429 351.397151 
L 186.514286 352.843312 
L 186.857143 352.538857 
L 187.2 351.853833 
L 187.542857 351.625492 
L 187.885714 351.092696 
L 188.228571 352.310516 
L 188.571429 352.538857 
L 188.914286 352.614971 
L 189.257143 352.234402 
L 189.6 350.712127 
L 189.942857 350.712127 
L 190.285714 351.092696 
L 190.628571 351.853833 
L 190.971429 351.321037 
L 191.314286 350.559899 
L 191.657143 350.940468 
L 192 350.103217 
L 192.342857 349.646534 
L 192.685714 348.96151 
L 193.028571 347.819804 
L 193.371429 348.048145 
L 193.714286 347.515349 
L 194.057143 347.439235 
L 194.4 347.591462 
L 194.742857 347.363121 
L 195.085714 346.449756 
L 195.428571 346.145301 
L 195.771429 346.297528 
L 196.457143 346.221415 
L 196.8 346.982552 
L 197.485714 346.601983 
L 197.828571 346.601983 
L 198.171429 345.993073 
L 198.514286 346.145301 
L 199.2 345.993073 
L 199.542857 346.145301 
L 199.885714 345.460277 
L 200.228571 345.536391 
L 200.571429 345.079708 
L 200.914286 345.003594 
L 201.257143 343.861888 
L 201.6 343.70966 
L 201.942857 343.024636 
L 202.285714 343.252978 
L 202.628571 344.470798 
L 202.971429 343.785774 
L 203.314286 344.31857 
L 204 343.10075 
L 204.342857 343.481319 
L 204.685714 343.024636 
L 205.028571 344.242457 
L 205.371429 342.796295 
L 205.714286 342.948523 
L 206.4 341.654588 
L 206.742857 341.730702 
L 207.085714 342.111271 
L 207.428571 342.035157 
L 207.771429 342.263499 
L 208.114286 341.806816 
L 208.457143 343.70966 
L 208.8 344.014115 
L 209.142857 343.405205 
L 209.485714 344.242457 
L 209.828571 344.166343 
L 210.171429 344.546912 
L 210.857143 343.481319 
L 211.2 343.633546 
L 211.542857 342.49184 
L 212.914286 340.208427 
L 213.257143 340.132313 
L 213.942857 339.751744 
L 214.285714 339.295062 
L 214.971429 339.142834 
L 215.314286 339.371175 
L 216 338.533924 
L 216.342857 339.142834 
L 216.685714 339.371175 
L 217.028571 338.686152 
L 217.371429 339.675631 
L 217.714286 338.990607 
L 218.057143 338.990607 
L 218.4 339.599517 
L 218.742857 340.588996 
L 219.085714 339.675631 
L 219.428571 339.523403 
L 219.771429 338.762265 
L 220.114286 338.914493 
L 220.457143 339.827858 
L 220.8 340.056199 
L 221.142857 338.990607 
L 221.485714 341.121792 
L 221.828571 339.980086 
L 222.171429 340.056199 
L 222.514286 339.980086 
L 222.857143 340.284541 
L 223.2 342.111271 
L 223.542857 344.546912 
L 223.885714 346.069187 
L 224.228571 346.069187 
L 224.914286 347.287007 
L 225.6 344.699139 
L 225.942857 342.339612 
L 226.285714 342.872409 
L 226.628571 341.350133 
L 226.971429 340.665109 
L 227.314286 340.665109 
L 227.657143 339.295062 
L 228 339.675631 
L 228.342857 339.371175 
L 228.685714 338.001128 
L 229.028571 337.620559 
L 229.714286 338.001128 
L 230.057143 337.544445 
L 230.742857 337.620559 
L 232.114286 336.326625 
L 232.457143 336.63108 
L 232.8 335.869942 
L 233.142857 336.402738 
L 233.485714 335.869942 
L 233.828571 335.717715 
L 234.171429 334.880463 
L 234.514286 334.880463 
L 235.2 333.738757 
L 235.542857 334.956577 
L 236.228571 334.271553 
L 236.914286 334.347667 
L 237.257143 335.41326 
L 237.6 335.032691 
L 237.942857 336.859421 
L 238.285714 336.478852 
L 238.971429 338.686152 
L 239.314286 340.284541 
L 239.657143 338.533924 
L 240 335.793828 
L 240.685714 335.184918 
L 241.028571 335.489373 
L 241.371429 335.337146 
L 241.714286 334.652122 
L 242.057143 334.652122 
L 242.4 335.41326 
L 242.742857 336.554966 
L 243.428571 339.523403 
L 243.771429 338.229469 
L 244.114286 336.250511 
L 244.457143 336.935535 
L 244.8 338.153355 
L 245.142857 338.381696 
L 245.485714 338.838379 
L 245.828571 340.208427 
L 246.171429 338.914493 
L 246.857143 337.544445 
L 247.2 335.641601 
L 247.542857 335.337146 
L 247.885714 335.337146 
L 248.228571 338.077241 
L 248.571429 338.914493 
L 248.914286 337.925014 
L 249.257143 338.610038 
L 249.942857 336.63108 
L 250.285714 336.783307 
L 250.628571 335.793828 
L 250.971429 336.63108 
L 251.314286 336.859421 
L 251.657143 335.337146 
L 252 334.880463 
L 252.342857 333.586529 
L 252.685714 332.825391 
L 253.028571 332.673164 
L 253.371429 331.227002 
L 253.714286 330.77032 
L 254.057143 331.074775 
L 254.4 329.933068 
L 254.742857 330.541978 
L 255.085714 330.922547 
L 255.428571 330.694206 
L 255.771429 332.064254 
L 256.114286 331.683685 
L 256.457143 333.738757 
L 256.8 334.119325 
L 257.142857 333.358188 
L 257.485714 333.967098 
L 257.828571 332.59705 
L 258.171429 332.520936 
L 258.514286 331.37923 
L 258.857143 331.455344 
L 259.2 330.541978 
L 259.885714 331.455344 
L 260.228571 334.043212 
L 260.571429 334.499894 
L 260.914286 333.967098 
L 261.257143 332.673164 
L 261.6 333.81487 
L 261.942857 334.347667 
L 262.285714 334.271553 
L 262.628571 333.81487 
L 263.314286 332.292595 
L 263.657143 331.835912 
L 264.342857 332.368709 
L 264.685714 331.759799 
L 265.028571 332.140367 
L 265.371429 333.967098 
L 265.714286 332.292595 
L 266.4 331.227002 
L 266.742857 330.694206 
L 267.085714 329.248044 
L 267.771429 329.933068 
L 268.114286 330.694206 
L 268.457143 332.673164 
L 268.8 330.846433 
L 269.142857 332.59705 
L 269.485714 333.358188 
L 269.828571 332.825391 
L 270.171429 331.37923 
L 270.857143 332.292595 
L 271.2 332.216481 
L 271.542857 330.618092 
L 271.885714 330.618092 
L 272.228571 330.085296 
L 272.571429 330.313637 
L 272.914286 330.237523 
L 273.257143 329.628613 
L 273.6 329.704727 
L 273.942857 330.998661 
L 274.285714 329.171931 
L 274.628571 329.552499 
L 274.971429 330.237523 
L 275.314286 330.009182 
L 275.657143 330.389751 
L 276 330.16141 
L 276.342857 330.846433 
L 276.685714 330.998661 
L 277.028571 331.912026 
L 277.371429 331.98814 
L 277.714286 330.618092 
L 278.057143 330.618092 
L 278.4 331.37923 
L 278.742857 331.835912 
L 279.428571 330.998661 
L 279.771429 329.628613 
L 280.114286 330.085296 
L 280.457143 329.248044 
L 280.8 329.856954 
L 281.142857 330.085296 
L 281.485714 330.77032 
L 281.828571 333.20596 
L 282.171429 332.901505 
L 282.514286 332.064254 
L 282.857143 331.912026 
L 283.2 332.292595 
L 283.542857 332.064254 
L 283.885714 333.967098 
L 284.228571 333.967098 
L 284.914286 330.618092 
L 285.257143 329.856954 
L 285.6 329.704727 
L 286.285714 326.584062 
L 286.628571 326.12738 
L 286.971429 326.355721 
L 287.314286 327.649655 
L 287.657143 327.95411 
L 288.342857 330.009182 
L 288.685714 329.019703 
L 289.371429 328.030224 
L 290.4 328.715248 
L 290.742857 327.877996 
L 291.085714 329.476386 
L 291.428571 329.704727 
L 291.771429 328.410793 
L 292.114286 327.801883 
L 292.457143 325.822925 
L 292.8 324.833446 
L 293.142857 324.605104 
L 293.485714 323.767853 
L 293.828571 324.300649 
L 294.171429 325.137901 
L 294.514286 328.410793 
L 295.2 337.011649 
L 295.542857 337.316104 
L 295.885714 332.140367 
L 296.228571 329.476386 
L 296.571429 329.476386 
L 296.914286 330.998661 
L 297.257143 334.652122 
L 297.6 331.98814 
L 297.942857 330.77032 
L 298.285714 332.064254 
L 298.628571 330.77032 
L 298.971429 330.16141 
L 299.314286 330.541978 
L 299.657143 329.324158 
L 300 328.639134 
L 300.342857 328.639134 
L 300.685714 330.313637 
L 301.028571 329.933068 
L 301.371429 331.37923 
L 301.714286 331.303116 
L 302.057143 331.607571 
L 302.4 332.520936 
L 302.742857 335.717715 
L 303.085714 336.326625 
L 303.428571 333.967098 
L 303.771429 329.856954 
L 304.114286 329.324158 
L 304.457143 329.171931 
L 304.8 330.237523 
L 305.142857 330.085296 
L 305.485714 328.334679 
L 306.171429 327.040745 
L 306.514286 327.421314 
L 306.857143 328.334679 
L 307.2 326.12738 
L 307.542857 323.006715 
L 308.228571 322.778374 
L 308.571429 321.788895 
L 308.914286 321.865009 
L 309.257143 322.550033 
L 309.942857 321.256099 
L 310.285714 321.179985 
L 310.628571 321.408326 
L 310.971429 321.179985 
L 311.314286 322.321691 
L 311.657143 322.550033 
L 312 322.626146 
L 312.342857 323.767853 
L 312.685714 325.822925 
L 313.028571 324.072308 
L 313.371429 324.072308 
L 313.714286 321.788895 
L 314.057143 321.788895 
L 314.4 321.027757 
L 315.085714 321.256099 
L 315.428571 321.179985 
L 315.771429 320.87553 
L 316.114286 321.179985 
L 316.457143 319.809937 
L 316.8 320.647189 
L 317.142857 322.626146 
L 317.485714 320.114392 
L 317.828571 320.418847 
L 318.171429 320.190506 
L 318.514286 321.941123 
L 318.857143 321.256099 
L 319.2 323.691739 
L 319.885714 321.788895 
L 320.228571 319.962165 
L 320.571429 321.408326 
L 320.914286 323.463398 
L 321.6 321.636668 
L 321.942857 320.723302 
L 322.628571 320.87553 
L 322.971429 318.820458 
L 323.314286 319.809937 
L 323.657143 321.256099 
L 324 323.539512 
L 324.342857 323.691739 
L 324.685714 324.452877 
L 325.028571 327.497428 
L 325.371429 328.410793 
L 325.714286 328.106338 
L 326.057143 326.812404 
L 326.4 330.694206 
L 326.742857 328.486907 
L 327.085714 331.683685 
L 327.428571 331.759799 
L 327.771429 332.064254 
L 328.114286 331.912026 
L 328.457143 328.791362 
L 328.8 330.541978 
L 329.142857 329.476386 
L 329.485714 332.444823 
L 329.828571 330.922547 
L 330.171429 328.410793 
L 330.514286 328.182452 
L 330.857143 330.77032 
L 331.2 331.227002 
L 331.542857 331.455344 
L 331.885714 335.489373 
L 332.228571 333.586529 
L 332.571429 330.846433 
L 332.914286 332.292595 
L 333.257143 331.912026 
L 333.6 330.16141 
L 333.942857 331.835912 
L 334.628571 329.628613 
L 334.971429 329.780841 
L 335.314286 330.465865 
L 335.657143 327.040745 
L 336 326.812404 
L 336.342857 327.192973 
L 336.685714 327.3452 
L 337.371429 329.476386 
L 337.714286 328.56302 
L 338.057143 328.715248 
L 338.4 327.116859 
L 339.085714 326.73629 
L 339.428571 325.594583 
L 340.114286 326.355721 
L 340.8 325.061787 
L 341.142857 326.051266 
L 341.485714 325.594583 
L 341.828571 325.670697 
L 342.171429 324.148422 
L 342.514286 323.920081 
L 342.857143 324.528991 
L 343.2 323.31117 
L 343.542857 324.757332 
L 343.885714 322.70226 
L 344.228571 324.605104 
L 344.571429 324.528991 
L 344.914286 325.137901 
L 345.257143 324.224536 
L 345.6 322.70226 
L 345.942857 322.169464 
L 346.285714 322.473919 
L 346.628571 322.09335 
L 346.971429 322.930602 
L 347.314286 323.082829 
L 347.657143 322.70226 
L 348 324.300649 
L 348.342857 323.920081 
L 349.371429 327.040745 
L 349.714286 328.258565 
L 350.4 328.410793 
L 350.742857 328.106338 
L 351.085714 327.497428 
L 351.428571 327.3452 
L 351.771429 325.51847 
L 352.457143 327.649655 
L 352.8 327.573541 
L 353.142857 325.975152 
L 353.485714 327.649655 
L 353.828571 327.192973 
L 354.171429 327.269086 
L 354.514286 326.051266 
L 354.857143 326.355721 
L 355.2 323.996194 
L 355.542857 322.70226 
L 355.885714 322.70226 
L 356.571429 321.332212 
L 356.914286 321.256099 
L 357.257143 321.332212 
L 357.942857 321.941123 
L 358.285714 321.941123 
L 358.628571 321.788895 
L 358.971429 323.996194 
L 360 324.072308 
L 360.342857 325.290128 
L 360.685714 324.757332 
L 361.371429 324.300649 
L 361.714286 323.082829 
L 362.057143 327.725769 
L 362.4 329.019703 
L 362.742857 326.355721 
L 363.428571 323.31117 
L 363.771429 322.473919 
L 364.114286 323.082829 
L 364.457143 321.712781 
L 364.8 321.332212 
L 365.142857 319.429368 
L 365.828571 317.983207 
L 366.171429 318.363775 
L 366.514286 317.602638 
L 366.857143 317.907093 
L 367.2 316.8415 
L 367.542857 317.222069 
L 367.885714 315.852021 
L 368.228571 316.23259 
L 368.571429 316.156476 
L 368.914286 315.775907 
L 369.257143 315.775907 
L 369.6 315.166997 
L 369.942857 314.786428 
L 370.285714 314.710315 
L 370.628571 314.481973 
L 370.971429 315.166997 
L 371.314286 315.243111 
L 371.657143 314.481973 
L 372 313.264153 
L 372.685714 312.883584 
L 373.028571 313.264153 
L 373.371429 313.264153 
L 373.714286 312.655243 
L 374.057143 312.350788 
L 374.4 313.340267 
L 374.742857 313.568608 
L 375.085714 313.035812 
L 375.428571 313.264153 
L 375.771429 312.350788 
L 376.114286 312.274674 
L 376.457143 313.492494 
L 376.8 313.340267 
L 377.142857 313.340267 
L 377.485714 312.426902 
L 377.828571 312.883584 
L 378.514286 312.80747 
L 378.857143 312.503015 
L 379.2 311.741878 
L 379.542857 311.894105 
L 379.885714 312.579129 
L 380.228571 315.699794 
L 380.571429 313.111925 
L 380.914286 314.558087 
L 381.6 312.503015 
L 381.942857 312.655243 
L 382.285714 311.056854 
L 382.628571 310.524057 
L 382.971429 311.056854 
L 383.314286 312.046333 
L 383.657143 310.904626 
L 384 310.676285 
L 384.342857 311.58965 
L 385.028571 309.534578 
L 385.371429 311.285195 
L 385.714286 311.056854 
L 386.057143 311.437423 
L 386.4 311.58965 
L 386.742857 311.513536 
L 387.085714 310.524057 
L 387.771429 310.676285 
L 388.114286 309.686806 
L 388.457143 307.860076 
L 388.8 308.316758 
L 389.485714 309.839033 
L 390.514286 311.665764 
L 391.2 314.40586 
L 391.542857 314.862542 
L 391.885714 311.437423 
L 392.228571 310.447944 
L 392.571429 309.839033 
L 392.914286 311.817991 
L 393.257143 311.361309 
L 393.6 312.426902 
L 393.942857 310.219602 
L 394.628571 308.164531 
L 394.971429 308.468986 
L 395.314286 306.718369 
L 395.657143 306.718369 
L 396 307.022824 
L 396.342857 306.109459 
L 396.685714 306.642255 
L 397.028571 306.490028 
L 397.714286 310.219602 
L 398.057143 310.37183 
L 398.4 309.230123 
L 398.742857 309.458465 
L 399.085714 307.327279 
L 399.428571 307.251165 
L 399.771429 305.805004 
L 400.114286 306.109459 
L 400.457143 304.663297 
L 400.8 304.891639 
L 401.142857 304.130501 
L 401.485714 304.206615 
L 401.828571 304.054387 
L 402.171429 303.293249 
L 402.514286 303.369363 
L 402.857143 303.90216 
L 403.2 303.673818 
L 403.542857 303.064908 
L 403.885714 304.054387 
L 404.228571 304.282728 
L 404.571429 305.957231 
L 404.914286 305.957231 
L 405.257143 304.434956 
L 405.6 303.673818 
L 405.942857 303.369363 
L 406.285714 303.445477 
L 406.628571 301.847088 
L 406.971429 301.618747 
L 407.314286 301.238178 
L 407.657143 301.618747 
L 408 301.618747 
L 408.342857 301.847088 
L 408.685714 302.532112 
L 409.028571 302.532112 
L 409.371429 301.999315 
L 409.714286 302.151543 
L 410.057143 301.69486 
L 410.4 299.86813 
L 411.428571 299.411447 
L 411.771429 298.878651 
L 412.114286 298.117513 
L 412.457143 297.965286 
L 412.8 297.356376 
L 413.142857 296.366897 
L 413.485714 296.062441 
L 413.828571 295.605759 
L 414.171429 295.681873 
L 414.514286 295.377418 
L 414.857143 294.083484 
L 415.2 293.931256 
L 415.542857 294.692394 
L 415.885714 294.540166 
L 416.228571 294.083484 
L 416.571429 294.692394 
L 416.914286 293.017891 
L 417.257143 293.702915 
L 417.6 293.246232 
L 417.942857 293.855142 
L 418.285714 293.779028 
L 419.314286 292.485094 
L 420 292.637322 
L 420.342857 291.723957 
L 420.685714 292.332867 
L 421.028571 292.408981 
L 421.371429 292.028412 
L 421.714286 294.083484 
L 422.057143 293.550687 
L 422.4 293.931256 
L 422.742857 293.702915 
L 423.085714 293.779028 
L 423.771429 291.80007 
L 424.114286 291.571729 
L 424.457143 291.495615 
L 424.8 292.104526 
L 425.828571 291.80007 
L 426.514286 293.246232 
L 426.857143 294.464052 
L 427.2 292.941777 
L 427.542857 293.017891 
L 427.885714 293.246232 
L 428.228571 291.80007 
L 428.571429 291.723957 
L 429.257143 288.831634 
L 429.6 288.983861 
L 429.942857 288.070496 
L 430.285714 287.689927 
L 430.628571 285.93931 
L 430.971429 286.624334 
L 431.314286 286.395993 
L 432 285.558742 
L 432.342857 284.797604 
L 432.685714 284.645376 
L 433.028571 284.797604 
L 433.371429 284.72149 
L 433.714286 284.417035 
L 434.057143 283.960352 
L 434.4 288.222723 
L 435.428571 284.949831 
L 435.771429 284.873718 
L 436.457143 282.742532 
L 436.8 282.438077 
L 437.142857 282.666418 
L 437.485714 283.123101 
L 437.828571 281.372484 
L 438.514286 282.438077 
L 439.2 281.676939 
L 439.542857 285.406514 
L 439.885714 286.319879 
L 440.228571 285.178173 
L 441.257143 287.081017 
L 441.6 284.645376 
L 441.942857 285.634855 
L 442.285714 283.884239 
L 442.628571 283.960352 
L 442.971429 283.199215 
L 443.314286 283.884239 
L 443.657143 286.624334 
L 444 284.873718 
L 444.342857 287.842155 
L 444.685714 288.374951 
L 445.028571 289.668885 
L 445.371429 287.918268 
L 445.714286 289.288316 
L 446.4 286.624334 
L 446.742857 286.167652 
L 447.085714 284.493149 
L 447.428571 284.264807 
L 447.771429 283.123101 
L 448.114286 283.579784 
L 448.457143 282.438077 
L 448.8 281.829167 
L 449.142857 281.676939 
L 449.485714 281.829167 
L 449.828571 281.296371 
L 450.171429 281.372484 
L 450.514286 280.763574 
L 450.857143 282.209736 
L 451.2 282.285849 
L 451.542857 283.199215 
L 451.885714 283.123101 
L 452.228571 282.514191 
L 452.571429 283.046987 
L 452.914286 283.046987 
L 453.257143 281.905281 
L 453.6 282.209736 
L 453.942857 282.666418 
L 454.285714 286.776562 
L 454.628571 285.93931 
L 454.971429 284.036466 
L 455.314286 283.732011 
L 455.657143 283.275328 
L 456 286.624334 
L 456.342857 286.700448 
L 456.685714 286.928789 
L 457.028571 284.873718 
L 457.714286 286.091538 
L 458.4 286.395993 
L 458.742857 285.863197 
L 459.428571 283.123101 
L 459.771429 283.427556 
L 460.114286 286.167652 
L 460.8 285.558742 
L 461.142857 287.385472 
L 461.485714 285.787083 
L 461.828571 284.72149 
L 462.171429 284.188694 
L 462.514286 284.949831 
L 462.857143 284.569263 
L 463.2 284.797604 
L 463.542857 284.264807 
L 463.885714 284.340921 
L 464.228571 284.873718 
L 464.571429 284.949831 
L 464.914286 286.395993 
L 465.257143 285.787083 
L 465.6 284.036466 
L 465.942857 283.960352 
L 466.285714 282.514191 
L 466.628571 280.154664 
L 467.657143 281.448598 
L 468.342857 280.230778 
L 468.685714 279.926323 
L 469.028571 279.850209 
L 469.371429 280.230778 
L 469.714286 279.774095 
L 470.057143 280.611347 
L 470.4 280.154664 
L 471.085714 281.296371 
L 471.428571 276.348976 
L 472.114286 275.587838 
L 472.457143 275.816179 
L 472.8 276.501203 
L 473.485714 274.293904 
L 473.828571 274.21779 
L 474.171429 273.456652 
L 474.514286 274.141676 
L 474.857143 274.293904 
L 475.2 273.913335 
L 475.542857 274.446131 
L 475.885714 275.587838 
L 476.228571 273.304425 
L 476.571429 273.989449 
L 476.914286 274.141676 
L 477.257143 272.086605 
L 477.6 272.086605 
L 477.942857 272.695515 
L 478.285714 272.619401 
L 478.628571 272.010491 
L 478.971429 274.674473 
L 479.314286 273.228311 
L 479.657143 273.913335 
L 480 275.740065 
L 480.342857 275.663952 
L 481.714286 272.162718 
L 482.057143 272.39106 
L 482.4 271.934377 
L 482.742857 272.543287 
L 483.085714 270.335988 
L 483.428571 268.889826 
L 483.771429 269.955419 
L 484.114286 270.259874 
L 484.457143 270.868784 
L 484.8 271.021012 
L 485.142857 272.923856 
L 485.828571 272.771628 
L 486.171429 274.065563 
L 486.514286 274.065563 
L 486.857143 271.858263 
L 487.2 270.640443 
L 487.542857 270.107647 
L 487.885714 268.661485 
L 488.914286 267.74812 
L 489.257143 266.682527 
L 489.6 265.997503 
L 489.942857 268.052575 
L 490.285714 266.225844 
L 490.628571 265.997503 
L 490.971429 265.997503 
L 491.657143 263.10518 
L 492 264.475228 
L 492.342857 265.160252 
L 492.685714 263.181294 
L 493.371429 265.921389 
L 493.714286 265.312479 
L 494.057143 267.291437 
L 494.4 271.325467 
L 494.742857 277.64291 
L 495.085714 273.152197 
L 495.428571 275.740065 
L 495.771429 282.89476 
L 496.114286 279.241299 
L 496.457143 276.957886 
L 496.8 275.587838 
L 497.485714 269.422623 
L 497.828571 265.997503 
L 498.171429 263.942431 
L 498.514286 266.910868 
L 498.857143 267.672006 
L 499.2 270.259874 
L 499.542857 268.737599 
L 499.885714 266.606413 
L 500.228571 265.921389 
L 500.571429 265.769162 
L 500.914286 264.93191 
L 501.257143 260.821767 
L 501.6 260.441198 
L 501.942857 262.952952 
L 502.285714 263.181294 
L 502.628571 263.561863 
L 502.971429 263.333521 
L 503.314286 267.443665 
L 503.657143 267.13921 
L 504 267.595892 
L 504.685714 276.729544 
L 505.028571 270.792671 
L 505.371429 277.414568 
L 505.714286 279.089071 
L 506.057143 275.43561 
L 506.4 280.915802 
L 506.742857 279.089071 
L 507.085714 276.272862 
L 507.428571 277.947365 
L 507.771429 274.446131 
L 508.114286 275.740065 
L 508.457143 274.141676 
L 508.8 274.750586 
L 509.142857 273.60888 
L 509.485714 270.412102 
L 509.828571 269.803192 
L 510.171429 271.173239 
L 510.514286 273.761107 
L 510.857143 273.837221 
L 511.2 276.957886 
L 511.542857 277.186227 
L 511.885714 273.152197 
L 512.571429 272.467173 
L 512.914286 272.314946 
L 513.257143 269.57485 
L 513.6 268.128689 
L 513.942857 268.128689 
L 514.628571 264.094659 
L 514.971429 264.855797 
L 515.314286 265.008024 
L 515.657143 266.606413 
L 516 264.779683 
L 516.685714 266.225844 
L 517.028571 265.084138 
L 517.371429 265.540821 
L 517.714286 264.170773 
L 518.057143 264.246886 
L 518.4 263.866318 
L 518.742857 264.323 
L 519.085714 262.572384 
L 519.428571 262.952952 
L 520.114286 258.386126 
L 520.457143 257.929444 
L 520.8 257.092192 
L 521.142857 258.918923 
L 521.485714 258.614468 
L 521.828571 258.005558 
L 522.171429 256.787737 
L 522.514286 256.863851 
L 522.857143 255.341576 
L 523.2 254.961007 
L 523.542857 255.950486 
L 523.885714 253.590959 
L 524.228571 254.884893 
L 524.571429 255.037121 
L 524.914286 258.842809 
L 525.257143 257.320534 
L 525.6 258.918923 
L 525.942857 256.331055 
L 526.285714 255.493803 
L 526.628571 255.493803 
L 526.971429 254.047642 
L 527.314286 255.265462 
L 527.657143 253.8193 
L 528 250.470294 
L 528.342857 248.56745 
L 528.685714 248.795792 
L 529.028571 249.937498 
L 529.371429 245.370672 
L 529.714286 245.142331 
L 530.057143 245.751241 
L 530.4 244.152852 
L 530.742857 244.381193 
L 531.085714 244.913989 
L 531.428571 243.3156 
L 531.771429 242.70669 
L 532.114286 241.108301 
L 532.457143 238.06375 
L 532.8 241.641097 
L 533.485714 245.979582 
L 534.171429 243.391714 
L 535.2 238.215978 
L 535.542857 237.759295 
L 535.885714 238.06375 
L 536.228571 238.139864 
L 536.571429 239.281571 
L 536.914286 238.901002 
L 537.257143 237.530954 
L 537.6 239.586026 
L 537.942857 238.824888 
L 538.285714 238.901002 
L 538.628571 239.509912 
L 538.971429 239.814367 
L 539.314286 239.281571 
L 539.657143 239.281571 
L 540 236.313134 
L 540.342857 234.866972 
L 540.685714 235.932565 
L 541.028571 233.42081 
L 541.371429 233.801379 
L 541.714286 233.040242 
L 542.057143 234.105834 
L 542.742857 238.67266 
L 543.085714 239.281571 
L 543.428571 238.292092 
L 543.771429 236.389247 
L 544.114286 236.769816 
L 544.457143 234.943086 
L 544.8 235.704224 
L 545.142857 238.292092 
L 545.485714 236.541475 
L 545.828571 236.617589 
L 546.171429 234.486403 
L 546.514286 236.160906 
L 546.857143 234.943086 
L 547.2 234.638631 
L 547.542857 232.583559 
L 547.885714 232.20299 
L 548.228571 239.129343 
L 548.571429 238.520433 
L 548.914286 247.501858 
L 549.257143 249.480816 
L 549.6 244.305079 
L 549.942857 246.664606 
L 550.285714 240.87996 
L 550.628571 240.956073 
L 550.971429 244.990103 
L 551.314286 244.990103 
L 551.657143 244.457307 
L 552 244.913989 
L 552.342857 253.8193 
L 552.685714 247.730199 
L 553.371429 256.178827 
L 553.714286 252.982049 
L 554.057143 248.415223 
L 554.4 245.370672 
L 554.742857 249.024133 
L 555.085714 251.003091 
L 555.428571 249.252474 
L 555.771429 243.467828 
L 556.114286 244.381193 
L 556.457143 247.197402 
L 556.8 252.525366 
L 557.142857 252.068684 
L 557.485714 254.352097 
L 557.828571 251.003091 
L 558.171429 251.840342 
L 558.514286 258.46224 
L 558.857143 261.354563 
L 559.2 259.603947 
L 559.542857 261.354563 
L 559.885714 256.787737 
L 560.228571 256.178827 
L 560.571429 250.165839 
L 560.914286 251.155318 
L 561.257143 249.633043 
L 561.6 246.13181 
L 561.942857 254.884893 
L 562.285714 254.656552 
L 562.628571 260.593426 
L 563.314286 257.24442 
L 563.657143 255.417689 
L 564 256.102713 
L 564.685714 264.323 
L 565.028571 263.333521 
L 565.371429 267.291437 
L 565.714286 269.727078 
L 566.057143 275.359497 
L 566.4 278.936844 
L 566.742857 269.498736 
L 567.085714 268.661485 
L 567.428571 269.498736 
L 567.771429 268.280916 
L 568.114286 267.74812 
L 568.457143 273.380539 
L 568.8 266.149731 
L 569.828571 261.659018 
L 570.171429 262.115701 
L 570.514286 263.333521 
L 570.857143 265.845276 
L 571.2 262.49627 
L 571.542857 262.344042 
L 571.885714 261.050108 
L 572.228571 259.07115 
L 572.571429 258.842809 
L 572.914286 262.267929 
L 573.257143 261.735132 
L 573.6 260.973994 
L 573.942857 258.310013 
L 574.285714 261.963473 
L 574.628571 264.018545 
L 574.971429 259.299492 
L 575.314286 257.548875 
L 575.657143 258.233899 
L 576 256.178827 
L 576.342857 252.60148 
L 576.685714 252.829821 
L 577.371429 251.840342 
L 577.714286 251.764229 
L 578.057143 251.535887 
L 578.4 251.764229 
L 578.742857 253.438731 
L 579.085714 252.220911 
L 579.428571 251.612001 
L 579.771429 251.916456 
L 580.457143 252.753708 
L 580.8 251.155318 
L 581.142857 251.003091 
L 581.485714 251.003091 
L 581.828571 251.99257 
L 582.171429 254.123755 
L 582.514286 254.047642 
L 582.857143 250.165839 
L 583.2 249.404702 
L 583.542857 247.95854 
L 583.885714 248.643564 
L 584.228571 246.436265 
L 584.571429 246.207923 
L 584.914286 245.675127 
L 585.257143 244.761762 
L 585.6 242.554463 
L 585.942857 246.664606 
L 586.285714 246.512379 
L 586.628571 245.751241 
L 586.971429 246.588492 
L 587.314286 245.903468 
L 588 241.945552 
L 588.342857 241.48887 
L 588.685714 240.118822 
L 589.028571 240.651618 
L 589.371429 238.67266 
L 589.714286 239.662139 
L 590.057143 238.67266 
L 590.4 239.205457 
L 590.742857 237.759295 
L 591.085714 238.139864 
L 591.771429 236.769816 
L 592.114286 237.074271 
L 592.8 236.160906 
L 593.142857 233.42081 
L 593.485714 233.649152 
L 593.828571 232.659673 
L 594.514286 232.126876 
L 594.857143 233.573038 
L 595.2 233.040242 
L 595.542857 236.23702 
L 596.228571 237.607068 
L 596.571429 236.693702 
L 596.914286 243.92451 
L 597.942857 235.0192 
L 598.285714 236.693702 
L 598.628571 239.814367 
L 598.971429 237.835409 
L 599.314286 238.67266 
L 599.657143 241.717211 
L 600.342857 242.09778 
L 600.685714 242.554463 
L 601.028571 244.228966 
L 601.371429 243.391714 
L 601.714286 246.588492 
L 602.057143 251.003091 
L 602.4 246.207923 
L 603.085714 242.858918 
L 603.428571 236.769816 
L 603.771429 236.465361 
L 604.114286 237.607068 
L 604.457143 236.465361 
L 604.8 237.378726 
L 605.142857 236.084792 
L 605.485714 233.116355 
L 605.828571 232.355218 
L 606.171429 230.680715 
L 606.514286 231.974649 
L 606.857143 232.050763 
L 607.2 235.399768 
L 607.885714 233.040242 
L 608.228571 232.8119 
L 608.571429 232.8119 
L 608.914286 230.300146 
L 609.257143 229.995691 
L 609.6 228.016733 
L 609.942857 227.788392 
L 610.285714 228.321188 
L 610.628571 229.310667 
L 610.971429 228.245074 
L 611.314286 226.190003 
L 611.657143 226.875026 
L 612 225.73332 
L 612.342857 225.048296 
L 613.028571 226.722799 
L 613.371429 226.494458 
L 613.714286 228.777871 
L 614.057143 226.494458 
L 614.742857 223.373793 
L 615.085714 225.885547 
L 615.428571 223.449907 
L 616.114286 224.972182 
L 616.457143 227.864505 
L 616.8 228.930098 
L 617.142857 231.670194 
L 617.485714 238.67266 
L 617.828571 234.410289 
L 618.171429 232.659673 
L 618.514286 227.712278 
L 619.2 231.670194 
L 619.542857 226.722799 
L 619.885714 233.344697 
L 620.228571 233.573038 
L 620.914286 226.798913 
L 621.257143 228.092847 
L 621.6 226.190003 
L 621.942857 226.798913 
L 622.285714 233.268583 
L 622.628571 230.224032 
L 622.971429 229.843463 
L 623.314286 229.158439 
L 623.657143 225.885547 
L 624 226.113889 
L 624.342857 226.113889 
L 624.685714 228.397302 
L 625.371429 221.470949 
L 625.714286 221.69929 
L 626.4 222.840997 
L 626.742857 220.785925 
L 627.085714 219.948674 
L 627.428571 222.3082 
L 627.771429 221.09038 
L 628.114286 221.09038 
L 628.457143 220.785925 
L 628.8 222.993224 
L 629.142857 223.069338 
L 629.485714 226.113889 
L 629.828571 223.526021 
L 630.171429 224.439386 
L 630.514286 226.875026 
L 630.857143 225.048296 
L 631.2 229.082326 
L 631.542857 226.646685 
L 631.885714 225.276637 
L 632.228571 222.384314 
L 632.571429 222.460428 
L 632.914286 219.720332 
L 633.257143 220.177015 
L 633.6 219.491991 
L 633.942857 221.851518 
L 634.285714 219.948674 
L 634.628571 221.851518 
L 634.971429 221.09038 
L 636 214.925165 
L 636.342857 217.132464 
L 636.685714 216.219099 
L 637.028571 216.295213 
L 637.371429 214.468482 
L 637.714286 213.326776 
L 638.057143 213.326776 
L 638.4 214.62071 
L 638.742857 214.164027 
L 639.085714 213.326776 
L 639.428571 213.783458 
L 639.771429 212.946207 
L 640.114286 212.946207 
L 640.457143 212.793979 
L 640.8 211.19559 
L 641.485714 210.815021 
L 641.828571 211.956728 
L 642.171429 212.108955 
L 642.514286 211.652273 
L 642.857143 208.607722 
L 643.2 208.379381 
L 643.542857 206.704878 
L 643.885714 206.933219 
L 644.228571 207.998812 
L 644.571429 210.815021 
L 644.914286 212.489524 
L 645.257143 210.815021 
L 645.6 209.97777 
L 645.942857 207.998812 
L 646.285714 208.912177 
L 646.628571 209.140518 
L 647.314286 206.476537 
L 647.657143 206.172082 
L 648 204.72592 
L 648.342857 204.421465 
L 648.685714 204.269237 
L 649.028571 202.442507 
L 649.714286 200.539663 
L 650.057143 200.463549 
L 650.4 200.615776 
L 650.742857 199.245729 
L 651.085714 199.169615 
L 651.428571 201.072459 
L 651.771429 200.615776 
L 652.114286 197.266771 
L 652.457143 199.169615 
L 652.8 197.571226 
L 653.142857 197.723453 
L 653.485714 196.657861 
L 653.828571 194.450561 
L 654.171429 195.592268 
L 654.514286 193.0044 
L 654.857143 195.059471 
L 655.2 195.363927 
L 655.542857 193.080513 
L 655.885714 191.558238 
L 656.228571 192.319376 
L 656.571429 192.623831 
L 656.914286 191.177669 
L 657.257143 190.264304 
L 657.6 191.634352 
L 657.942857 184.32743 
L 658.285714 183.261837 
L 658.628571 180.521742 
L 658.971429 182.424586 
L 659.314286 178.847239 
L 659.657143 178.771125 
L 660 176.716053 
L 660.342857 176.944395 
L 660.685714 176.031029 
L 661.028571 176.183257 
L 661.371429 175.954916 
L 661.714286 172.758137 
L 662.057143 175.269892 
L 662.4 179.608377 
L 662.742857 189.731508 
L 663.085714 196.505633 
L 663.428571 195.896723 
L 663.771429 207.846584 
L 664.114286 207.542129 
L 664.457143 197.418998 
L 664.8 205.94374 
L 665.142857 196.277292 
L 665.485714 204.193124 
L 665.828571 208.303267 
L 666.171429 224.211045 
L 666.514286 212.717866 
L 666.857143 221.69929 
L 667.2 241.564984 
L 667.542857 220.633697 
L 667.885714 247.654085 
L 668.228571 235.323655 
L 668.571429 242.554463 
L 668.914286 239.053229 
L 669.257143 245.675127 
L 669.6 245.599013 
L 669.942857 230.832942 
L 670.285714 233.877493 
L 670.628571 222.536542 
L 670.971429 231.59408 
L 671.314286 223.373793 
L 671.657143 224.211045 
L 672 233.573038 
L 672.342857 228.777871 
L 672.685714 231.441853 
L 673.028571 217.436919 
L 673.371429 213.859572 
L 673.714286 213.479003 
L 674.057143 214.0118 
L 674.4 211.576159 
L 674.742857 201.224687 
L 675.085714 204.040896 
L 675.428571 198.408477 
L 675.771429 196.429519 
L 676.114286 199.550184 
L 676.457143 208.227153 
L 676.8 200.539663 
L 677.142857 201.224687 
L 677.485714 197.495112 
L 677.828571 196.505633 
L 678.171429 200.920232 
L 678.514286 192.471603 
L 678.857143 192.319376 
L 679.2 192.39549 
L 679.885714 185.469137 
L 680.228571 183.337951 
L 680.914286 191.329897 
L 681.257143 188.437574 
L 681.6 186.839184 
L 681.942857 181.587335 
L 682.285714 182.881269 
L 682.628571 177.477191 
L 682.971429 180.750083 
L 683.657143 178.542784 
L 684 178.923353 
L 684.342857 178.238329 
L 684.685714 178.314442 
L 685.028571 174.356527 
L 685.714286 172.073114 
L 686.057143 171.159748 
L 686.4 173.367048 
L 686.742857 168.191311 
L 687.428571 165.070647 
L 687.771429 161.645527 
L 688.114286 175.954916 
L 688.8 169.7897 
L 689.142857 165.527329 
L 689.485714 164.157282 
L 689.828571 163.32003 
L 690.171429 163.32003 
L 690.514286 160.199366 
L 690.857143 158.67709 
L 691.2 164.842306 
L 691.542857 165.146761 
L 691.885714 159.742683 
L 692.228571 156.698132 
L 692.571429 155.556426 
L 692.914286 155.251971 
L 693.257143 147.945049 
L 693.6 151.522396 
L 693.942857 148.021163 
L 694.628571 144.443816 
L 694.971429 150.761258 
L 695.314286 148.249504 
L 695.657143 148.021163 
L 696 150.38069 
L 696.342857 149.315097 
L 696.685714 141.323151 
L 697.028571 144.824385 
L 697.371429 144.443816 
L 697.714286 151.59851 
L 698.057143 154.186378 
L 698.4 148.630073 
L 698.742857 153.044672 
L 699.085714 149.238983 
L 699.428571 148.021163 
L 700.114286 138.354714 
L 700.8 137.441349 
L 701.142857 134.853481 
L 701.485714 138.430828 
L 701.828571 138.887511 
L 702.171429 144.291588 
L 702.514286 137.136894 
L 702.857143 137.289122 
L 703.2 137.745804 
L 703.885714 131.656703 
L 704.228571 134.472912 
L 704.571429 129.753859 
L 704.914286 128.383811 
L 705.6 123.51253 
L 705.942857 117.195087 
L 706.285714 119.250159 
L 706.971429 115.748925 
L 707.314286 111.334327 
L 707.657143 108.442004 
L 708 126.100398 
L 708.342857 129.906086 
L 708.685714 129.753859 
L 709.028571 144.596043 
L 709.371429 135.766846 
L 709.714286 142.464858 
L 710.057143 144.063247 
L 710.742857 135.462391 
L 711.428571 147.412253 
L 711.771429 151.59851 
L 712.114286 150.456803 
L 712.457143 143.834906 
L 712.8 152.740216 
L 713.142857 150.837372 
L 713.828571 137.441349 
L 714.171429 138.887511 
L 714.514286 136.680211 
L 715.2 123.436416 
L 715.542857 122.827506 
L 715.885714 124.578122 
L 716.228571 127.318218 
L 716.571429 128.840493 
L 716.914286 135.995188 
L 717.257143 135.23405 
L 717.942857 137.365235 
L 718.285714 135.919074 
L 718.628571 140.714241 
L 718.971429 137.06078 
L 719.314286 148.249504 
L 719.657143 142.464858 
L 720 150.38069 
L 720.342857 150.456803 
L 720.685714 145.73775 
L 721.371429 125.034805 
L 721.714286 127.470446 
L 722.4 141.399265 
L 722.742857 133.711774 
L 723.085714 134.701253 
L 723.428571 131.580589 
L 723.771429 130.667224 
L 724.457143 135.690732 
L 724.8 133.864002 
L 725.142857 134.549026 
L 725.485714 134.929595 
L 725.828571 130.134427 
L 726.171429 128.459924 
L 726.514286 128.383811 
L 726.857143 125.719829 
L 727.2 125.33926 
L 727.542857 119.935182 
L 727.885714 121.381344 
L 728.228571 121.153003 
L 728.914286 118.945703 
L 729.257143 118.184566 
L 729.6 125.187032 
L 729.942857 123.436416 
L 730.285714 124.425895 
L 730.628571 122.446937 
L 730.971429 118.641248 
L 731.314286 117.195087 
L 731.657143 115.063901 
L 732 115.672811 
L 732.342857 115.901153 
L 732.685714 115.748925 
L 733.028571 116.66229 
L 733.371429 116.129494 
L 733.714286 116.281722 
L 734.057143 113.389398 
L 734.4 112.247692 
L 734.742857 112.856602 
M 735.428571 116.357835 
L 735.771429 116.738404 
L 736.114286 122.066368 
L 736.457143 114.074422 
L 736.8 109.431483 
L 737.142857 114.302764 
L 737.485714 114.378877 
L 737.828571 113.313285 
L 738.171429 114.531105 
L 738.514286 117.499542 
L 738.857143 116.510063 
L 739.2 111.486554 
L 739.542857 104.027405 
L 739.885714 101.972333 
L 740.228571 103.418495 
L 740.571429 99.384465 
L 740.914286 99.08001 
L 741.257143 109.58371 
L 741.6 106.463046 
L 741.942857 114.074422 
L 742.628571 100.602285 
L 742.971429 102.276788 
L 743.314286 98.547214 
L 744 94.741525 
L 744.342857 95.654891 
M 745.028571 96.872711 
L 745.371429 97.86219 
L 745.714286 107.224183 
L 746.057143 108.289776 
L 746.4 105.016884 
L 746.742857 117.499542 
L 747.085714 114.531105 
L 747.428571 104.94077 
L 747.771429 111.258213 
L 748.114286 121.000775 
L 748.457143 125.567601 
L 748.8 119.706841 
L 749.142857 129.601631 
L 749.485714 114.607219 
L 749.828571 116.814518 
L 750.171429 109.888165 
L 750.514286 113.389398 
L 750.857143 108.9748 
L 751.2 107.071956 
L 751.542857 106.006363 
L 751.885714 117.195087 
L 752.228571 114.074422 
L 752.571429 108.061435 
L 752.914286 110.497075 
L 753.257143 115.140015 
L 753.6 115.368356 
L 753.942857 109.888165 
L 754.285714 110.040393 
L 754.628571 110.725417 
L 755.314286 99.993375 
L 755.657143 99.68892 
L 756 93.82816 
L 756.342857 93.523705 
L 756.685714 89.565789 
L 757.028571 87.586831 
L 757.371429 87.35849 
L 757.714286 83.857256 
L 758.057143 88.956879 
L 758.4 83.628915 
L 758.742857 83.248346 
L 759.428571 90.250813 
L 759.771429 87.35849 
L 760.114286 92.534226 
L 760.457143 87.891286 
L 760.8 85.836214 
L 761.485714 89.337448 
L 761.828571 88.347969 
L 762.171429 91.316406 
L 762.514286 96.416028 
L 762.857143 94.817639 
L 763.2 105.245225 
L 763.542857 106.310818 
L 763.885714 114.987788 
L 764.228571 110.573189 
L 764.571429 103.951291 
L 765.257143 109.203141 
L 765.6 109.127027 
L 765.942857 101.667878 
L 766.285714 104.560201 
L 766.628571 98.242759 
L 766.971429 98.4711 
L 767.314286 98.318872 
L 767.657143 99.841148 
L 768 99.993375 
L 768.342857 100.90674 
L 768.685714 102.276788 
L 769.028571 100.754513 
L 769.371429 104.179633 
L 769.714286 96.796597 
L 770.057143 96.568256 
L 770.4 96.644369 
L 770.742857 96.339914 
L 771.085714 92.61034 
L 771.428571 92.305885 
L 771.771429 90.326927 
L 772.114286 91.468633 
L 772.457143 85.836214 
L 772.8 88.347969 
L 773.485714 81.421616 
L 773.828571 81.269388 
L 774.171429 77.844269 
L 774.514286 78.833748 
L 774.857143 75.256401 
L 775.2 74.114694 
L 775.542857 74.343035 
L 775.885714 73.658012 
L 776.228571 69.319527 
L 776.571429 69.471754 
L 776.914286 68.406162 
L 777.257143 66.96 
L 777.6 69.547868 
L 777.6 69.547868 
" style="fill:none;stroke:#1f77b4;stroke-linecap:square;stroke-width:1.5;"/>
   </g>
   <g id="patch_3">
    <path d="M 108 384.48 
L 108 51.84 
" style="fill:none;stroke:#000000;stroke-linecap:square;stroke-linejoin:miter;stroke-width:0.8;"/>
   </g>
   <g id="patch_4">
    <path d="M 777.6 384.48 
L 777.6 51.84 
" style="fill:none;stroke:#000000;stroke-linecap:square;stroke-linejoin:miter;stroke-width:0.8;"/>
   </g>
   <g id="patch_5">
    <path d="M 108 384.48 
L 777.6 384.48 
" style="fill:none;stroke:#000000;stroke-linecap:square;stroke-linejoin:miter;stroke-width:0.8;"/>
   </g>
   <g id="patch_6">
    <path d="M 108 51.84 
L 777.6 51.84 
" style="fill:none;stroke:#000000;stroke-linecap:square;stroke-linejoin:miter;stroke-width:0.8;"/>
   </g>
   <g id="text_19">
    <!-- 100ETF -->
    <defs>
     <path d="M 15.234375 68.5 
L 54.15625 68.5 
Q 51.421875 73.1875 46.875 79.640625 
L 54 83.734375 
Q 58.796875 77.59375 62.5 71.734375 
L 57.03125 68.5 
L 97.078125 68.5 
L 97.078125 60.59375 
L 23.921875 60.59375 
L 23.921875 36.375 
Q 24.03125 5.71875 8.015625 -12.453125 
Q 5.765625 -10.015625 0.984375 -6.296875 
Q 15.234375 9.234375 15.234375 37.359375 
z
" id="MicrosoftYaHei-5e7f"/>
     <path d="M 14.75 61.078125 
L 35.40625 61.078125 
Q 37.796875 71.296875 39.453125 83.34375 
L 47.75 82.28125 
Q 46.09375 71.1875 43.703125 61.078125 
L 97.65625 61.078125 
L 97.65625 53.859375 
L 41.84375 53.859375 
Q 40.09375 47.40625 37.984375 41.453125 
L 86.421875 41.453125 
L 86.421875 34.71875 
Q 79.984375 18.75 66.359375 7.125 
Q 80.078125 -1.171875 98.34375 -4.546875 
Q 93.953125 -9.421875 91.5 -12.75 
Q 75.875 -7.5625 60.0625 2.390625 
Q 47.359375 -5.953125 23.734375 -13.421875 
Q 21 -9.515625 17.875 -6.203125 
Q 41.890625 0.046875 53.765625 7.03125 
Q 40.921875 18.015625 35.453125 34.71875 
Q 24.75 7.953125 6.34375 -9.234375 
Q 3.71875 -5.515625 1.171875 -2.59375 
Q 23.1875 17.28125 33.546875 53.859375 
L 6.453125 53.859375 
L 6.453125 61.1875 
Q 10.453125 70.453125 13.765625 79.828125 
L 21.6875 77.6875 
Q 18.265625 69.09375 14.75 61.078125 
z
M 77.828125 34.71875 
L 42.53125 34.71875 
Q 46.921875 21.1875 59.96875 11.421875 
Q 72.609375 21.875 77.828125 34.71875 
z
M 62.796875 76.609375 
L 67.09375 82.078125 
Q 76.65625 76.03125 85.453125 69.484375 
L 80.171875 63.140625 
Q 71.6875 70.359375 62.796875 76.609375 
z
" id="MicrosoftYaHei-53d1"/>
     <path d="M 46.390625 -12.359375 
L 38.96875 -12.359375 
L 38.96875 65.578125 
L 63.421875 65.578125 
Q 63.484375 73.6875 63.484375 82.953125 
L 71 82.953125 
Q 71 73.53125 70.90625 65.578125 
L 95.125 65.578125 
L 95.125 -0.4375 
Q 95.125 -11.28125 84.671875 -11.28125 
L 70.21875 -11.28125 
Q 69.734375 -8.0625 68.75 -3.65625 
Q 77.25 -4.25 81.734375 -4.25 
Q 87.703125 -4.25 87.703125 0.921875 
L 87.703125 17.625 
Q 84.90625 15.375 81.84375 12.640625 
Q 74.125 23.734375 66.609375 32.953125 
Q 61.46875 18.5 50.09375 9.125 
Q 48.4375 11.328125 46.390625 13.875 
z
M 13.96875 24.46875 
Q 23.53125 25.828125 34.671875 27.78125 
Q 34.078125 24.171875 33.796875 20.265625 
Q 25 19 4.984375 15.671875 
L 3.421875 23 
Q 10.40625 30.375 18.5 43.609375 
Q 11.53125 43.21875 3.421875 42.53125 
L 1.5625 49.171875 
Q 10.546875 61.1875 20.21875 83.84375 
L 27.640625 80.90625 
Q 17.09375 60.203125 10.359375 49.75 
Q 16.9375 49.90625 22.3125 50.046875 
Q 25.640625 55.8125 29.109375 62.453125 
L 36.328125 58.84375 
Q 25.203125 40.28125 13.96875 24.46875 
z
M 63.375 58.9375 
L 46.390625 58.9375 
L 46.390625 16.546875 
Q 62.9375 30.171875 63.375 58.9375 
z
M 68.953125 41.3125 
Q 78.515625 30.421875 87.703125 18.84375 
L 87.703125 58.9375 
L 70.796875 58.9375 
Q 70.703125 49.421875 68.953125 41.3125 
z
M 1.375 1.703125 
Q 17.09375 4.640625 34.96875 8.546875 
Q 34.671875 4.640625 34.671875 1.21875 
Q 19.4375 -1.703125 3.515625 -5.609375 
z
" id="MicrosoftYaHei-7eb3"/>
     <path d="M 2.046875 19 
L 9.578125 19 
L 9.578125 64.109375 
L 2.734375 64.109375 
L 2.734375 70.75 
L 9.578125 70.75 
L 9.578125 82.375 
L 16.796875 82.375 
L 16.796875 70.75 
L 37.109375 70.75 
L 37.109375 82.375 
L 44.34375 82.375 
L 44.34375 70.75 
L 51.5625 70.75 
L 51.5625 64.109375 
L 44.34375 64.109375 
L 44.34375 19 
L 51.65625 19 
L 51.65625 12.359375 
L 2.046875 12.359375 
z
M 57.03125 74.265625 
Q 77.9375 76.3125 93.265625 80.03125 
L 96.296875 72.796875 
Q 80.859375 69.875 64.265625 68.21875 
L 64.265625 47.125 
L 98.046875 47.125 
L 98.046875 40.28125 
L 86.921875 40.28125 
L 86.921875 -12.75 
L 79.6875 -12.75 
L 79.6875 40.28125 
L 64.265625 40.28125 
Q 64.109375 6.6875 52.4375 -12.15625 
Q 49.8125 -9.421875 46.296875 -6.6875 
Q 57.03125 9.625 57.03125 39.59375 
z
M 16.796875 19 
L 37.109375 19 
L 37.109375 29.9375 
L 16.796875 29.9375 
z
M 16.796875 53.265625 
L 37.109375 53.265625 
L 37.109375 64.109375 
L 16.796875 64.109375 
z
M 16.796875 36.1875 
L 37.109375 36.1875 
L 37.109375 47.015625 
L 16.796875 47.015625 
z
M 17.1875 10.109375 
L 23.140625 5.421875 
Q 13.96875 -5.90625 6.546875 -12.640625 
Q 4.5 -10.296875 1.171875 -7.46875 
Q 10.359375 0.640625 17.1875 10.109375 
z
M 30.171875 6.109375 
L 35.25 10.59375 
Q 41.21875 5.125 46.96875 -0.921875 
L 41.40625 -6 
Q 36.140625 0.140625 30.171875 6.109375 
z
" id="MicrosoftYaHei-65af"/>
     <path d="M 42.484375 -3.765625 
Q 69.53125 -4.046875 98.734375 -3.375 
Q 97.078125 -7.28125 95.515625 -10.890625 
Q 68.75 -11.28125 41.21875 -10.796875 
Q 24.90625 -10.59375 17 0.34375 
Q 14.15625 -1.90625 5.5625 -12.15625 
L 1.375 -3.859375 
Q 7.421875 1.609375 13.484375 6.78125 
L 13.484375 40.875 
L 2.34375 40.875 
L 2.34375 48 
L 21.09375 48 
L 21.09375 5.328125 
Q 28.21875 -3.375 42.484375 -3.765625 
z
M 29.296875 59.234375 
L 56.25 59.234375 
L 56.25 82.28125 
L 64.0625 82.28125 
L 64.0625 59.234375 
L 94.53125 59.234375 
L 94.53125 52.09375 
L 63.875 52.09375 
Q 63.484375 44.96875 61.921875 38.625 
Q 78.8125 25.046875 93.84375 9.625 
L 87.984375 3.078125 
Q 74.8125 18.015625 59.765625 31.59375 
Q 52.546875 12.15625 32.515625 1.125 
Q 29.890625 4.734375 27.046875 7.5625 
Q 53.90625 21.921875 56.0625 52.09375 
L 29.296875 52.09375 
z
M 11.421875 81.890625 
Q 20.015625 71.625 26.265625 63.03125 
L 19.4375 58.15625 
Q 12.984375 67.921875 5.375 77.484375 
z
" id="MicrosoftYaHei-8fbe"/>
     <path d="M 15.046875 54.828125 
L 46.1875 54.828125 
L 46.1875 65.1875 
L 2.546875 65.1875 
L 2.546875 72.015625 
L 46.1875 72.015625 
L 46.1875 83.34375 
L 54 83.34375 
L 54 72.015625 
L 97.171875 72.015625 
L 97.171875 65.1875 
L 54 65.1875 
L 54 54.828125 
L 85.9375 54.828125 
L 85.9375 18.890625 
L 78.515625 18.890625 
L 78.515625 22.515625 
L 65.140625 22.515625 
L 65.140625 2.296875 
Q 65.140625 -4.046875 71.09375 -4.046875 
L 82.125 -4.046875 
Q 88.671875 -4.046875 89.265625 0.734375 
Q 90.046875 5.8125 90.328125 13.421875 
Q 93.84375 12.0625 98.4375 10.5 
Q 97.953125 4.734375 96.6875 -2.484375 
Q 95.3125 -11.078125 82.625 -11.078125 
L 69.625 -11.078125 
Q 57.234375 -11.078125 57.234375 1.3125 
L 57.234375 22.515625 
L 42.28125 22.515625 
Q 40.875 7.03125 33.796875 -0.140625 
Q 25.09375 -8.9375 6.453125 -13.328125 
Q 4.5 -10.203125 1.859375 -6.203125 
Q 20.703125 -2.296875 27.640625 4.734375 
Q 33.640625 10.40625 34.578125 22.515625 
L 22.46875 22.515625 
L 22.46875 18.890625 
L 15.046875 18.890625 
z
M 78.515625 48 
L 22.46875 48 
L 22.46875 29.34375 
L 78.515625 29.34375 
z
" id="MicrosoftYaHei-514b"/>
     <path d="M 50.4375 0 
L 9.765625 0 
L 9.765625 75.640625 
L 48.734375 75.640625 
L 48.734375 66.9375 
L 19.53125 66.9375 
L 19.53125 42.71875 
L 46.578125 42.71875 
L 46.578125 34.078125 
L 19.53125 34.078125 
L 19.53125 8.640625 
L 50.4375 8.640625 
z
" id="MicrosoftYaHei-45"/>
     <path d="M 55.46875 66.9375 
L 33.640625 66.9375 
L 33.640625 0 
L 23.828125 0 
L 23.828125 66.9375 
L 2.09375 66.9375 
L 2.09375 75.640625 
L 55.46875 75.640625 
z
" id="MicrosoftYaHei-54"/>
     <path d="M 48.734375 66.9375 
L 19.53125 66.9375 
L 19.53125 41.65625 
L 46.578125 41.65625 
L 46.578125 33.0625 
L 19.53125 33.0625 
L 19.53125 0 
L 9.765625 0 
L 9.765625 75.640625 
L 48.734375 75.640625 
z
" id="MicrosoftYaHei-46"/>
    </defs>
    <g transform="translate(386.318438 45.84)scale(0.12 -0.12)">
     <use xlink:href="#MicrosoftYaHei-5e7f"/>
     <use x="100" xlink:href="#MicrosoftYaHei-53d1"/>
     <use x="200" xlink:href="#MicrosoftYaHei-7eb3"/>
     <use x="300" xlink:href="#MicrosoftYaHei-65af"/>
     <use x="400" xlink:href="#MicrosoftYaHei-8fbe"/>
     <use x="500" xlink:href="#MicrosoftYaHei-514b"/>
     <use x="600" xlink:href="#MicrosoftYaHei-31"/>
     <use x="658.642578" xlink:href="#MicrosoftYaHei-30"/>
     <use x="717.285156" xlink:href="#MicrosoftYaHei-30"/>
     <use x="775.927734" xlink:href="#MicrosoftYaHei-45"/>
     <use x="830.908203" xlink:href="#MicrosoftYaHei-54"/>
     <use x="888.232422" xlink:href="#MicrosoftYaHei-46"/>
    </g>
   </g>
   <g id="legend_1">
    <g id="patch_7">
     <path d="M 766.6 64.84 
L 770.6 64.84 
Q 772.6 64.84 772.6 62.84 
L 772.6 58.84 
Q 772.6 56.84 770.6 56.84 
L 766.6 56.84 
Q 764.6 56.84 764.6 58.84 
L 764.6 62.84 
Q 764.6 64.84 766.6 64.84 
z
" style="fill:#ffffff;opacity:0.8;stroke:#cccccc;stroke-linejoin:miter;"/>
    </g>
   </g>
  </g>
 </g>
 <defs>
  <clipPath id="p65e688732e">
   <rect height="332.64" width="669.6" x="108" y="51.84"/>
  </clipPath>
 </defs>
</svg>
