<?xml version="1.0" encoding="utf-8" standalone="no"?>
<!DOCTYPE svg PUBLIC "-//W3C//DTD SVG 1.1//EN"
  "http://www.w3.org/Graphics/SVG/1.1/DTD/svg11.dtd">
<!-- Created with matplotlib (http://matplotlib.org/) -->
<svg height="360pt" version="1.1" viewBox="0 0 864 360" width="864pt" xmlns="http://www.w3.org/2000/svg" xmlns:xlink="http://www.w3.org/1999/xlink">
 <defs>
  <style type="text/css">
*{stroke-linecap:butt;stroke-linejoin:round;}
  </style>
 </defs>
 <g id="figure_1">
  <g id="patch_1">
   <path d="M 0 360 
L 864 360 
L 864 0 
L 0 0 
z
" style="fill:#ffffff;"/>
  </g>
  <g id="axes_1">
   <g id="patch_2">
    <path d="M 108 320.4 
L 777.6 320.4 
L 777.6 43.2 
L 108 43.2 
z
" style="fill:#ffffff;"/>
   </g>
   <g id="matplotlib.axis_1">
    <g id="xtick_1">
     <g id="line2d_1">
      <path clip-path="url(#p9b67185469)" d="M 108 320.4 
L 108 43.2 
" style="fill:none;stroke:#b0b0b0;stroke-linecap:square;stroke-width:0.8;"/>
     </g>
     <g id="line2d_2">
      <defs>
       <path d="M 0 0 
L 0 3.5 
" id="maaa3830fad" style="stroke:#000000;stroke-width:0.8;"/>
      </defs>
      <g>
       <use style="stroke:#000000;stroke-width:0.8;" x="108" xlink:href="#maaa3830fad" y="320.4"/>
      </g>
     </g>
     <g id="text_1">
      <!-- 2007-01-05 -->
      <defs>
       <path d="M 51.171875 0 
L 5.171875 0 
L 5.171875 8.296875 
L 27.15625 30.21875 
Q 36.234375 39.3125 39.3125 44.609375 
Q 42.390625 49.90625 42.390625 55.5625 
Q 42.390625 62.015625 38.765625 65.453125 
Q 35.15625 68.890625 28.328125 68.890625 
Q 18.21875 68.890625 9.03125 60.296875 
L 9.03125 70.015625 
Q 17.96875 76.90625 29.828125 76.90625 
Q 40.046875 76.90625 45.953125 71.390625 
Q 51.859375 65.875 51.859375 56.546875 
Q 51.859375 49.515625 48.0625 42.75 
Q 44.28125 35.984375 33.734375 25.53125 
L 16.5 8.6875 
L 16.5 8.5 
L 51.171875 8.5 
z
" id="MicrosoftYaHei-32"/>
       <path d="M 4.4375 36.328125 
Q 4.4375 56.34375 11.078125 66.625 
Q 17.71875 76.90625 30.328125 76.90625 
Q 54.34375 76.90625 54.34375 38.140625 
Q 54.34375 19 47.578125 8.859375 
Q 40.828125 -1.265625 28.609375 -1.265625 
Q 17.09375 -1.265625 10.765625 8.34375 
Q 4.4375 17.96875 4.4375 36.328125 
z
M 14.203125 36.765625 
Q 14.203125 6.640625 29.5 6.640625 
Q 44.53125 6.640625 44.53125 37.25 
Q 44.53125 68.953125 29.78125 68.953125 
Q 14.203125 68.953125 14.203125 36.765625 
z
" id="MicrosoftYaHei-30"/>
       <path d="M 53.765625 72.3125 
L 24.171875 0 
L 14.265625 0 
L 42.390625 67.1875 
L 4.59375 67.1875 
L 4.59375 75.640625 
L 53.765625 75.640625 
z
" id="MicrosoftYaHei-37"/>
       <path d="M 36.375 26.265625 
L 7.625 26.265625 
L 7.625 33.640625 
L 36.375 33.640625 
z
" id="MicrosoftYaHei-2d"/>
       <path d="M 52.59375 0 
L 9.234375 0 
L 9.234375 8.25 
L 26.171875 8.25 
L 26.171875 65.671875 
L 8.796875 60.640625 
L 8.796875 69.4375 
L 35.6875 77.25 
L 35.6875 8.25 
L 52.59375 8.25 
z
" id="MicrosoftYaHei-31"/>
       <path d="M 8.640625 11.625 
Q 16.265625 6.640625 24.515625 6.640625 
Q 32.328125 6.640625 37.109375 11 
Q 41.890625 15.375 41.890625 22.609375 
Q 41.890625 29.890625 37.03125 33.890625 
Q 32.171875 37.890625 22.953125 37.890625 
Q 18.5 37.890625 10.984375 37.203125 
L 10.984375 75.640625 
L 48.1875 75.640625 
L 48.1875 67.1875 
L 19.875 67.1875 
L 19.875 45.796875 
Q 24.125 46.046875 26.265625 46.046875 
Q 38.234375 46.046875 44.921875 39.984375 
Q 51.609375 33.9375 51.609375 23.296875 
Q 51.609375 12.3125 44.421875 5.515625 
Q 37.25 -1.265625 24.609375 -1.265625 
Q 14.015625 -1.265625 8.640625 1.859375 
z
" id="MicrosoftYaHei-35"/>
      </defs>
      <g transform="translate(80.217187 335.39375)scale(0.1 -0.1)">
       <use xlink:href="#MicrosoftYaHei-32"/>
       <use x="58.642578" xlink:href="#MicrosoftYaHei-30"/>
       <use x="117.285156" xlink:href="#MicrosoftYaHei-30"/>
       <use x="175.927734" xlink:href="#MicrosoftYaHei-37"/>
       <use x="234.570312" xlink:href="#MicrosoftYaHei-2d"/>
       <use x="277.832031" xlink:href="#MicrosoftYaHei-30"/>
       <use x="336.474609" xlink:href="#MicrosoftYaHei-31"/>
       <use x="395.117188" xlink:href="#MicrosoftYaHei-2d"/>
       <use x="438.378906" xlink:href="#MicrosoftYaHei-30"/>
       <use x="497.021484" xlink:href="#MicrosoftYaHei-35"/>
      </g>
     </g>
    </g>
    <g id="xtick_2">
     <g id="line2d_3">
      <path clip-path="url(#p9b67185469)" d="M 216.630759 320.4 
L 216.630759 43.2 
" style="fill:none;stroke:#b0b0b0;stroke-linecap:square;stroke-width:0.8;"/>
     </g>
     <g id="line2d_4">
      <g>
       <use style="stroke:#000000;stroke-width:0.8;" x="216.630759" xlink:href="#maaa3830fad" y="320.4"/>
      </g>
     </g>
     <g id="text_2">
      <!-- 2009-01-05 -->
      <defs>
       <path d="M 9.03125 10.25 
Q 15.28125 6.640625 22.515625 6.640625 
Q 32.671875 6.640625 38.25 14.640625 
Q 43.84375 22.65625 43.84375 37.40625 
Q 43.75 37.3125 43.65625 37.40625 
Q 38.671875 27.9375 26.90625 27.9375 
Q 17.390625 27.9375 11.140625 34.46875 
Q 4.890625 41.015625 4.890625 51.46875 
Q 4.890625 62.59375 11.71875 69.75 
Q 18.5625 76.90625 29.4375 76.90625 
Q 40.71875 76.90625 47.0625 68.046875 
Q 53.421875 59.1875 53.421875 42.234375 
Q 53.421875 21.296875 45.21875 10.015625 
Q 37.015625 -1.265625 22.515625 -1.265625 
Q 14.546875 -1.265625 9.03125 1.3125 
z
M 14.546875 52.6875 
Q 14.546875 45.0625 18.453125 40.59375 
Q 22.359375 36.140625 29.25 36.140625 
Q 35.203125 36.140625 39.25 40.203125 
Q 43.3125 44.28125 43.3125 50.09375 
Q 43.3125 58.25 39.28125 63.59375 
Q 35.25 68.953125 28.65625 68.953125 
Q 22.5625 68.953125 18.546875 64.3125 
Q 14.546875 59.671875 14.546875 52.6875 
z
" id="MicrosoftYaHei-39"/>
      </defs>
      <g transform="translate(188.847947 335.39375)scale(0.1 -0.1)">
       <use xlink:href="#MicrosoftYaHei-32"/>
       <use x="58.642578" xlink:href="#MicrosoftYaHei-30"/>
       <use x="117.285156" xlink:href="#MicrosoftYaHei-30"/>
       <use x="175.927734" xlink:href="#MicrosoftYaHei-39"/>
       <use x="234.570312" xlink:href="#MicrosoftYaHei-2d"/>
       <use x="277.832031" xlink:href="#MicrosoftYaHei-30"/>
       <use x="336.474609" xlink:href="#MicrosoftYaHei-31"/>
       <use x="395.117188" xlink:href="#MicrosoftYaHei-2d"/>
       <use x="438.378906" xlink:href="#MicrosoftYaHei-30"/>
       <use x="497.021484" xlink:href="#MicrosoftYaHei-35"/>
      </g>
     </g>
    </g>
    <g id="xtick_3">
     <g id="line2d_5">
      <path clip-path="url(#p9b67185469)" d="M 325.261518 320.4 
L 325.261518 43.2 
" style="fill:none;stroke:#b0b0b0;stroke-linecap:square;stroke-width:0.8;"/>
     </g>
     <g id="line2d_6">
      <g>
       <use style="stroke:#000000;stroke-width:0.8;" x="325.261518" xlink:href="#maaa3830fad" y="320.4"/>
      </g>
     </g>
     <g id="text_3">
      <!-- 2011-01-05 -->
      <g transform="translate(297.478706 335.39375)scale(0.1 -0.1)">
       <use xlink:href="#MicrosoftYaHei-32"/>
       <use x="58.642578" xlink:href="#MicrosoftYaHei-30"/>
       <use x="117.285156" xlink:href="#MicrosoftYaHei-31"/>
       <use x="175.927734" xlink:href="#MicrosoftYaHei-31"/>
       <use x="234.570312" xlink:href="#MicrosoftYaHei-2d"/>
       <use x="277.832031" xlink:href="#MicrosoftYaHei-30"/>
       <use x="336.474609" xlink:href="#MicrosoftYaHei-31"/>
       <use x="395.117188" xlink:href="#MicrosoftYaHei-2d"/>
       <use x="438.378906" xlink:href="#MicrosoftYaHei-30"/>
       <use x="497.021484" xlink:href="#MicrosoftYaHei-35"/>
      </g>
     </g>
    </g>
    <g id="xtick_4">
     <g id="line2d_7">
      <path clip-path="url(#p9b67185469)" d="M 433.892278 320.4 
L 433.892278 43.2 
" style="fill:none;stroke:#b0b0b0;stroke-linecap:square;stroke-width:0.8;"/>
     </g>
     <g id="line2d_8">
      <g>
       <use style="stroke:#000000;stroke-width:0.8;" x="433.892278" xlink:href="#maaa3830fad" y="320.4"/>
      </g>
     </g>
     <g id="text_4">
      <!-- 2013-01-06 -->
      <defs>
       <path d="M 6.984375 12.640625 
Q 14.75 6.640625 24.515625 6.640625 
Q 32.328125 6.640625 36.890625 10.46875 
Q 41.453125 14.3125 41.453125 20.75 
Q 41.453125 35.109375 20.90625 35.109375 
L 14.59375 35.109375 
L 14.59375 43.015625 
L 20.609375 43.015625 
Q 38.8125 43.015625 38.8125 56.5 
Q 38.8125 68.953125 24.90625 68.953125 
Q 16.9375 68.953125 9.90625 63.578125 
L 9.90625 72.609375 
Q 17.328125 76.90625 27.25 76.90625 
Q 36.921875 76.90625 42.78125 71.84375 
Q 48.640625 66.796875 48.640625 58.734375 
Q 48.640625 43.890625 33.5 39.65625 
L 33.5 39.453125 
Q 41.703125 38.578125 46.453125 33.671875 
Q 51.21875 28.765625 51.21875 21.4375 
Q 51.21875 11.234375 43.875 4.984375 
Q 36.53125 -1.265625 24.3125 -1.265625 
Q 13.578125 -1.265625 6.984375 2.734375 
z
" id="MicrosoftYaHei-33"/>
       <path d="M 49.703125 65.921875 
Q 43.796875 68.953125 37.359375 68.953125 
Q 27.546875 68.953125 21.578125 60.40625 
Q 15.625 51.859375 15.53125 37.0625 
L 15.765625 37.0625 
Q 21.140625 47.46875 32.90625 47.46875 
Q 42.71875 47.46875 48.578125 41.0625 
Q 54.4375 34.671875 54.4375 24.078125 
Q 54.4375 12.984375 47.671875 5.859375 
Q 40.921875 -1.265625 30.421875 -1.265625 
Q 18.890625 -1.265625 12.328125 7.734375 
Q 5.765625 16.75 5.765625 33.296875 
Q 5.765625 53.328125 14.375 65.109375 
Q 23 76.90625 37.0625 76.90625 
Q 45.125 76.90625 49.703125 74.703125 
z
M 16.109375 24.75 
Q 16.109375 17.28125 20.09375 11.953125 
Q 24.078125 6.640625 30.671875 6.640625 
Q 36.921875 6.640625 40.828125 11.234375 
Q 44.734375 15.828125 44.734375 23.046875 
Q 44.734375 30.859375 41.046875 35.203125 
Q 37.359375 39.546875 30.5625 39.546875 
Q 24.125 39.546875 20.109375 35.15625 
Q 16.109375 30.765625 16.109375 24.75 
z
" id="MicrosoftYaHei-36"/>
      </defs>
      <g transform="translate(406.109465 335.39375)scale(0.1 -0.1)">
       <use xlink:href="#MicrosoftYaHei-32"/>
       <use x="58.642578" xlink:href="#MicrosoftYaHei-30"/>
       <use x="117.285156" xlink:href="#MicrosoftYaHei-31"/>
       <use x="175.927734" xlink:href="#MicrosoftYaHei-33"/>
       <use x="234.570312" xlink:href="#MicrosoftYaHei-2d"/>
       <use x="277.832031" xlink:href="#MicrosoftYaHei-30"/>
       <use x="336.474609" xlink:href="#MicrosoftYaHei-31"/>
       <use x="395.117188" xlink:href="#MicrosoftYaHei-2d"/>
       <use x="438.378906" xlink:href="#MicrosoftYaHei-30"/>
       <use x="497.021484" xlink:href="#MicrosoftYaHei-36"/>
      </g>
     </g>
    </g>
    <g id="xtick_5">
     <g id="line2d_9">
      <path clip-path="url(#p9b67185469)" d="M 542.523037 320.4 
L 542.523037 43.2 
" style="fill:none;stroke:#b0b0b0;stroke-linecap:square;stroke-width:0.8;"/>
     </g>
     <g id="line2d_10">
      <g>
       <use style="stroke:#000000;stroke-width:0.8;" x="542.523037" xlink:href="#maaa3830fad" y="320.4"/>
      </g>
     </g>
     <g id="text_5">
      <!-- 2015-01-06 -->
      <g transform="translate(514.740224 335.39375)scale(0.1 -0.1)">
       <use xlink:href="#MicrosoftYaHei-32"/>
       <use x="58.642578" xlink:href="#MicrosoftYaHei-30"/>
       <use x="117.285156" xlink:href="#MicrosoftYaHei-31"/>
       <use x="175.927734" xlink:href="#MicrosoftYaHei-35"/>
       <use x="234.570312" xlink:href="#MicrosoftYaHei-2d"/>
       <use x="277.832031" xlink:href="#MicrosoftYaHei-30"/>
       <use x="336.474609" xlink:href="#MicrosoftYaHei-31"/>
       <use x="395.117188" xlink:href="#MicrosoftYaHei-2d"/>
       <use x="438.378906" xlink:href="#MicrosoftYaHei-30"/>
       <use x="497.021484" xlink:href="#MicrosoftYaHei-36"/>
      </g>
     </g>
    </g>
    <g id="xtick_6">
     <g id="line2d_11">
      <path clip-path="url(#p9b67185469)" d="M 651.153796 320.4 
L 651.153796 43.2 
" style="fill:none;stroke:#b0b0b0;stroke-linecap:square;stroke-width:0.8;"/>
     </g>
     <g id="line2d_12">
      <g>
       <use style="stroke:#000000;stroke-width:0.8;" x="651.153796" xlink:href="#maaa3830fad" y="320.4"/>
      </g>
     </g>
     <g id="text_6">
      <!-- 2017-01-05 -->
      <g transform="translate(623.370984 335.39375)scale(0.1 -0.1)">
       <use xlink:href="#MicrosoftYaHei-32"/>
       <use x="58.642578" xlink:href="#MicrosoftYaHei-30"/>
       <use x="117.285156" xlink:href="#MicrosoftYaHei-31"/>
       <use x="175.927734" xlink:href="#MicrosoftYaHei-37"/>
       <use x="234.570312" xlink:href="#MicrosoftYaHei-2d"/>
       <use x="277.832031" xlink:href="#MicrosoftYaHei-30"/>
       <use x="336.474609" xlink:href="#MicrosoftYaHei-31"/>
       <use x="395.117188" xlink:href="#MicrosoftYaHei-2d"/>
       <use x="438.378906" xlink:href="#MicrosoftYaHei-30"/>
       <use x="497.021484" xlink:href="#MicrosoftYaHei-35"/>
      </g>
     </g>
    </g>
    <g id="xtick_7">
     <g id="line2d_13">
      <path clip-path="url(#p9b67185469)" d="M 759.784555 320.4 
L 759.784555 43.2 
" style="fill:none;stroke:#b0b0b0;stroke-linecap:square;stroke-width:0.8;"/>
     </g>
     <g id="line2d_14">
      <g>
       <use style="stroke:#000000;stroke-width:0.8;" x="759.784555" xlink:href="#maaa3830fad" y="320.4"/>
      </g>
     </g>
     <g id="text_7">
      <!-- 2018-12-31 -->
      <defs>
       <path d="M 21.390625 39.796875 
Q 7.859375 46.09375 7.859375 58.0625 
Q 7.859375 66.40625 14.203125 71.65625 
Q 20.5625 76.90625 30.421875 76.90625 
Q 39.453125 76.90625 45.3125 71.96875 
Q 51.171875 67.046875 51.171875 59.234375 
Q 51.171875 46.625 37.0625 39.84375 
L 37.0625 39.65625 
Q 53.609375 33.6875 53.609375 19.34375 
Q 53.609375 9.90625 46.796875 4.3125 
Q 39.984375 -1.265625 27.78125 -1.265625 
Q 17.78125 -1.265625 11.46875 4.25 
Q 5.171875 9.765625 5.171875 18.5625 
Q 5.171875 33.015625 21.390625 39.59375 
z
M 41.5 58.109375 
Q 41.5 63.1875 38.328125 66.109375 
Q 35.15625 69.046875 29.734375 69.046875 
Q 24.65625 69.046875 21.09375 65.984375 
Q 17.53125 62.9375 17.53125 58.203125 
Q 17.53125 48.734375 29.390625 43.796875 
Q 41.5 48.828125 41.5 58.109375 
z
M 28.8125 35.25 
Q 14.796875 29.59375 14.796875 19.046875 
Q 14.796875 13.578125 18.890625 10.0625 
Q 23 6.546875 29.59375 6.546875 
Q 35.984375 6.546875 39.984375 10.03125 
Q 44 13.53125 44 18.75 
Q 44 29.734375 28.8125 35.25 
z
" id="MicrosoftYaHei-38"/>
      </defs>
      <g transform="translate(732.001743 335.39375)scale(0.1 -0.1)">
       <use xlink:href="#MicrosoftYaHei-32"/>
       <use x="58.642578" xlink:href="#MicrosoftYaHei-30"/>
       <use x="117.285156" xlink:href="#MicrosoftYaHei-31"/>
       <use x="175.927734" xlink:href="#MicrosoftYaHei-38"/>
       <use x="234.570312" xlink:href="#MicrosoftYaHei-2d"/>
       <use x="277.832031" xlink:href="#MicrosoftYaHei-31"/>
       <use x="336.474609" xlink:href="#MicrosoftYaHei-32"/>
       <use x="395.117188" xlink:href="#MicrosoftYaHei-2d"/>
       <use x="438.378906" xlink:href="#MicrosoftYaHei-33"/>
       <use x="497.021484" xlink:href="#MicrosoftYaHei-31"/>
      </g>
     </g>
    </g>
    <g id="text_8">
     <!-- 日期 -->
     <defs>
      <path d="M 15.234375 76.703125 
L 84.859375 76.703125 
L 84.859375 -11.96875 
L 76.5625 -11.96875 
L 76.5625 -5.03125 
L 23.53125 -5.03125 
L 23.53125 -11.96875 
L 15.234375 -11.96875 
z
M 23.53125 32.859375 
L 23.53125 2.09375 
L 76.5625 2.09375 
L 76.5625 32.859375 
z
M 23.53125 69.390625 
L 23.53125 40.1875 
L 76.5625 40.1875 
L 76.5625 69.390625 
z
" id="MicrosoftYaHei-65e5"/>
      <path d="M 58.890625 79.15625 
L 93.453125 79.15625 
L 93.453125 -0.046875 
Q 93.453125 -11.578125 82.515625 -11.578125 
Q 77.046875 -11.578125 71.78125 -11.28125 
Q 71.390625 -8.0625 70.609375 -3.765625 
Q 77.734375 -4.4375 80.859375 -4.4375 
Q 86.234375 -4.4375 86.234375 0.921875 
L 86.234375 21.4375 
L 65.328125 21.4375 
Q 64.265625 0.046875 52.34375 -14.109375 
Q 49.703125 -11.375 46.484375 -8.640625 
Q 54.390625 0.4375 56.546875 10.203125 
Q 58.890625 19.578125 58.890625 42.828125 
z
M 1.953125 17.828125 
L 11.140625 17.828125 
L 11.140625 62.9375 
L 3.125 62.9375 
L 3.125 69.578125 
L 11.140625 69.578125 
L 11.140625 81.5 
L 18.359375 81.5 
L 18.359375 69.578125 
L 38.671875 69.578125 
L 38.671875 81.890625 
L 45.90625 81.890625 
L 45.90625 69.578125 
L 53.8125 69.578125 
L 53.8125 62.9375 
L 45.90625 62.9375 
L 45.90625 17.828125 
L 53.71875 17.828125 
L 53.71875 11.1875 
L 1.953125 11.1875 
z
M 65.765625 27.875 
L 86.234375 27.875 
L 86.234375 47.015625 
L 66.109375 47.015625 
Q 66.21875 34.421875 65.765625 27.875 
z
M 86.234375 72.515625 
L 66.109375 72.515625 
L 66.109375 53.46875 
L 86.234375 53.46875 
z
M 18.359375 17.828125 
L 38.671875 17.828125 
L 38.671875 28.765625 
L 18.359375 28.765625 
z
M 18.359375 35.015625 
L 38.671875 35.015625 
L 38.671875 45.84375 
L 18.359375 45.84375 
z
M 18.359375 52.09375 
L 38.671875 52.09375 
L 38.671875 62.9375 
L 18.359375 62.9375 
z
M 18.359375 9.328125 
L 24.3125 4.640625 
Q 14.453125 -6 6.34375 -13.234375 
Q 4.296875 -10.890625 1.171875 -8.0625 
Q 10.453125 -0.140625 18.359375 9.328125 
z
M 31.15625 4.734375 
L 35.84375 9.515625 
Q 42.671875 4.4375 48.734375 -0.734375 
L 43.5625 -6.296875 
Q 38.09375 -0.828125 31.15625 4.734375 
z
" id="MicrosoftYaHei-671f"/>
     </defs>
     <g transform="translate(432.8 349.873438)scale(0.1 -0.1)">
      <use xlink:href="#MicrosoftYaHei-65e5"/>
      <use x="100" xlink:href="#MicrosoftYaHei-671f"/>
     </g>
    </g>
   </g>
   <g id="matplotlib.axis_2">
    <g id="ytick_1">
     <g id="line2d_15">
      <path clip-path="url(#p9b67185469)" d="M 108 307.059304 
L 777.6 307.059304 
" style="fill:none;stroke:#b0b0b0;stroke-linecap:square;stroke-width:0.8;"/>
     </g>
     <g id="line2d_16">
      <defs>
       <path d="M 0 0 
L -3.5 0 
" id="m5e1cd714ec" style="stroke:#000000;stroke-width:0.8;"/>
      </defs>
      <g>
       <use style="stroke:#000000;stroke-width:0.8;" x="108" xlink:href="#m5e1cd714ec" y="307.059304"/>
      </g>
     </g>
     <g id="text_9">
      <!-- −1.5 -->
      <defs>
       <path d="M 62.0625 27.6875 
L 12.3125 27.6875 
L 12.3125 35.15625 
L 62.0625 35.15625 
z
" id="MicrosoftYaHei-2212"/>
       <path d="M 5.8125 5.03125 
Q 5.8125 7.671875 7.609375 9.46875 
Q 9.421875 11.28125 12.109375 11.28125 
Q 14.84375 11.28125 16.640625 9.453125 
Q 18.453125 7.625 18.453125 5.03125 
Q 18.453125 2.484375 16.640625 0.65625 
Q 14.84375 -1.171875 12.0625 -1.171875 
Q 9.375 -1.171875 7.59375 0.65625 
Q 5.8125 2.484375 5.8125 5.03125 
z
" id="MicrosoftYaHei-2e"/>
      </defs>
      <g transform="translate(79.446875 311.056179)scale(0.1 -0.1)">
       <use xlink:href="#MicrosoftYaHei-2212"/>
       <use x="74.169922" xlink:href="#MicrosoftYaHei-31"/>
       <use x="132.8125" xlink:href="#MicrosoftYaHei-2e"/>
       <use x="156.884766" xlink:href="#MicrosoftYaHei-35"/>
      </g>
     </g>
    </g>
    <g id="ytick_2">
     <g id="line2d_17">
      <path clip-path="url(#p9b67185469)" d="M 108 275.67386 
L 777.6 275.67386 
" style="fill:none;stroke:#b0b0b0;stroke-linecap:square;stroke-width:0.8;"/>
     </g>
     <g id="line2d_18">
      <g>
       <use style="stroke:#000000;stroke-width:0.8;" x="108" xlink:href="#m5e1cd714ec" y="275.67386"/>
      </g>
     </g>
     <g id="text_10">
      <!-- −1.0 -->
      <g transform="translate(79.446875 279.670735)scale(0.1 -0.1)">
       <use xlink:href="#MicrosoftYaHei-2212"/>
       <use x="74.169922" xlink:href="#MicrosoftYaHei-31"/>
       <use x="132.8125" xlink:href="#MicrosoftYaHei-2e"/>
       <use x="156.884766" xlink:href="#MicrosoftYaHei-30"/>
      </g>
     </g>
    </g>
    <g id="ytick_3">
     <g id="line2d_19">
      <path clip-path="url(#p9b67185469)" d="M 108 244.288417 
L 777.6 244.288417 
" style="fill:none;stroke:#b0b0b0;stroke-linecap:square;stroke-width:0.8;"/>
     </g>
     <g id="line2d_20">
      <g>
       <use style="stroke:#000000;stroke-width:0.8;" x="108" xlink:href="#m5e1cd714ec" y="244.288417"/>
      </g>
     </g>
     <g id="text_11">
      <!-- −0.5 -->
      <g transform="translate(79.446875 248.285292)scale(0.1 -0.1)">
       <use xlink:href="#MicrosoftYaHei-2212"/>
       <use x="74.169922" xlink:href="#MicrosoftYaHei-30"/>
       <use x="132.8125" xlink:href="#MicrosoftYaHei-2e"/>
       <use x="156.884766" xlink:href="#MicrosoftYaHei-35"/>
      </g>
     </g>
    </g>
    <g id="ytick_4">
     <g id="line2d_21">
      <path clip-path="url(#p9b67185469)" d="M 108 212.902974 
L 777.6 212.902974 
" style="fill:none;stroke:#b0b0b0;stroke-linecap:square;stroke-width:0.8;"/>
     </g>
     <g id="line2d_22">
      <g>
       <use style="stroke:#000000;stroke-width:0.8;" x="108" xlink:href="#m5e1cd714ec" y="212.902974"/>
      </g>
     </g>
     <g id="text_12">
      <!-- 0.0 -->
      <g transform="translate(86.864063 216.899849)scale(0.1 -0.1)">
       <use xlink:href="#MicrosoftYaHei-30"/>
       <use x="58.642578" xlink:href="#MicrosoftYaHei-2e"/>
       <use x="82.714844" xlink:href="#MicrosoftYaHei-30"/>
      </g>
     </g>
    </g>
    <g id="ytick_5">
     <g id="line2d_23">
      <path clip-path="url(#p9b67185469)" d="M 108 181.517531 
L 777.6 181.517531 
" style="fill:none;stroke:#b0b0b0;stroke-linecap:square;stroke-width:0.8;"/>
     </g>
     <g id="line2d_24">
      <g>
       <use style="stroke:#000000;stroke-width:0.8;" x="108" xlink:href="#m5e1cd714ec" y="181.517531"/>
      </g>
     </g>
     <g id="text_13">
      <!-- 0.5 -->
      <g transform="translate(86.864063 185.514406)scale(0.1 -0.1)">
       <use xlink:href="#MicrosoftYaHei-30"/>
       <use x="58.642578" xlink:href="#MicrosoftYaHei-2e"/>
       <use x="82.714844" xlink:href="#MicrosoftYaHei-35"/>
      </g>
     </g>
    </g>
    <g id="ytick_6">
     <g id="line2d_25">
      <path clip-path="url(#p9b67185469)" d="M 108 150.132088 
L 777.6 150.132088 
" style="fill:none;stroke:#b0b0b0;stroke-linecap:square;stroke-width:0.8;"/>
     </g>
     <g id="line2d_26">
      <g>
       <use style="stroke:#000000;stroke-width:0.8;" x="108" xlink:href="#m5e1cd714ec" y="150.132088"/>
      </g>
     </g>
     <g id="text_14">
      <!-- 1.0 -->
      <g transform="translate(86.864063 154.128963)scale(0.1 -0.1)">
       <use xlink:href="#MicrosoftYaHei-31"/>
       <use x="58.642578" xlink:href="#MicrosoftYaHei-2e"/>
       <use x="82.714844" xlink:href="#MicrosoftYaHei-30"/>
      </g>
     </g>
    </g>
    <g id="ytick_7">
     <g id="line2d_27">
      <path clip-path="url(#p9b67185469)" d="M 108 118.746645 
L 777.6 118.746645 
" style="fill:none;stroke:#b0b0b0;stroke-linecap:square;stroke-width:0.8;"/>
     </g>
     <g id="line2d_28">
      <g>
       <use style="stroke:#000000;stroke-width:0.8;" x="108" xlink:href="#m5e1cd714ec" y="118.746645"/>
      </g>
     </g>
     <g id="text_15">
      <!-- 1.5 -->
      <g transform="translate(86.864063 122.74352)scale(0.1 -0.1)">
       <use xlink:href="#MicrosoftYaHei-31"/>
       <use x="58.642578" xlink:href="#MicrosoftYaHei-2e"/>
       <use x="82.714844" xlink:href="#MicrosoftYaHei-35"/>
      </g>
     </g>
    </g>
    <g id="ytick_8">
     <g id="line2d_29">
      <path clip-path="url(#p9b67185469)" d="M 108 87.361202 
L 777.6 87.361202 
" style="fill:none;stroke:#b0b0b0;stroke-linecap:square;stroke-width:0.8;"/>
     </g>
     <g id="line2d_30">
      <g>
       <use style="stroke:#000000;stroke-width:0.8;" x="108" xlink:href="#m5e1cd714ec" y="87.361202"/>
      </g>
     </g>
     <g id="text_16">
      <!-- 2.0 -->
      <g transform="translate(86.864063 91.358077)scale(0.1 -0.1)">
       <use xlink:href="#MicrosoftYaHei-32"/>
       <use x="58.642578" xlink:href="#MicrosoftYaHei-2e"/>
       <use x="82.714844" xlink:href="#MicrosoftYaHei-30"/>
      </g>
     </g>
    </g>
    <g id="ytick_9">
     <g id="line2d_31">
      <path clip-path="url(#p9b67185469)" d="M 108 55.975758 
L 777.6 55.975758 
" style="fill:none;stroke:#b0b0b0;stroke-linecap:square;stroke-width:0.8;"/>
     </g>
     <g id="line2d_32">
      <g>
       <use style="stroke:#000000;stroke-width:0.8;" x="108" xlink:href="#m5e1cd714ec" y="55.975758"/>
      </g>
     </g>
     <g id="text_17">
      <!-- 2.5 -->
      <g transform="translate(86.864063 59.972633)scale(0.1 -0.1)">
       <use xlink:href="#MicrosoftYaHei-32"/>
       <use x="58.642578" xlink:href="#MicrosoftYaHei-2e"/>
       <use x="82.714844" xlink:href="#MicrosoftYaHei-35"/>
      </g>
     </g>
    </g>
   </g>
   <g id="line2d_33">
    <path clip-path="url(#p9b67185469)" d="M 108 148.242684 
L 108.217262 144.7589 
L 108.869046 146.824062 
L 109.086308 146.227739 
L 109.303569 146.447437 
L 109.520831 144.639635 
L 109.738092 144.947213 
L 109.955354 144.024481 
L 110.172615 143.729457 
L 110.389877 144.627081 
L 110.607138 144.65219 
L 111.041661 143.415603 
L 111.258923 143.704349 
L 111.910707 141.526199 
L 112.127969 140.239396 
L 112.34523 140.1013 
L 112.562492 139.053026 
L 112.779753 139.429652 
L 113.214276 139.373158 
L 113.431538 137.132237 
L 113.648799 136.604962 
L 113.866061 136.404095 
L 114.300584 136.542191 
L 114.517846 136.567299 
L 114.735107 138.205619 
L 114.952369 138.205619 
L 115.16963 137.577911 
L 115.386892 135.895651 
L 115.604153 135.908205 
L 116.038676 134.546077 
L 116.255938 134.903871 
L 116.473199 134.502137 
L 116.690461 133.811657 
L 116.907722 131.978748 
L 117.124984 128.658168 
L 117.342245 132.066627 
L 117.559507 132.863817 
L 117.776768 131.099955 
L 117.99403 127.685219 
L 118.211291 127.89864 
L 118.863076 123.140607 
L 119.080337 124.08217 
L 119.297599 122.920909 
L 119.51486 123.140607 
L 119.732122 123.140607 
L 119.949384 122.858138 
L 120.166645 121.973068 
L 120.601168 122.512898 
L 120.81843 122.657271 
L 121.035691 121.25748 
L 121.470214 121.791033 
L 121.687476 121.383022 
L 121.904737 122.330862 
L 122.121999 121.696876 
L 122.33926 121.659214 
L 122.556522 119.989508 
L 122.773783 119.832581 
L 122.991045 119.430847 
L 123.208306 118.118936 
L 123.425568 117.491227 
L 123.642829 120.705096 
L 123.860091 120.002062 
L 124.077352 118.501838 
L 124.294614 117.811359 
L 124.511875 120.228038 
L 124.729137 119.851412 
L 124.946398 120.077388 
L 125.16366 116.863518 
L 125.380921 116.763085 
L 125.815445 115.570438 
L 126.249968 109.958721 
L 126.467229 109.958721 
L 126.684491 104.359558 
L 126.901752 102.426214 
L 127.336275 102.426214 
L 127.770798 88.616619 
L 127.98806 87.110118 
L 128.422583 92.382873 
L 128.857106 91.441309 
L 129.291629 93.010581 
L 129.50889 91.755164 
L 129.726152 88.03285 
L 129.943413 88.748438 
L 130.160675 94.002361 
L 130.377936 94.410372 
L 130.595198 93.362098 
L 130.812459 97.555194 
L 131.029721 94.272276 
L 131.246982 93.512748 
L 131.464244 91.322045 
L 131.681506 86.526349 
L 131.898767 86.130892 
L 132.550552 79.828695 
L 132.985075 82.339531 
L 133.202336 81.711822 
L 133.419598 80.55056 
L 133.636859 77.07933 
L 133.854121 77.945569 
L 134.071382 77.945569 
L 134.288644 76.526947 
L 134.505905 76.721536 
L 134.723167 76.690151 
L 134.940428 83.212046 
L 135.15769 85.026125 
L 135.374951 80.795367 
L 135.592213 82.38347 
L 135.809474 82.483904 
L 136.026736 84.636945 
L 136.461259 86.469855 
L 136.895782 83.281094 
L 137.113043 83.343865 
L 137.330305 82.213989 
L 137.547567 83.588671 
L 137.764828 96.525751 
L 138.199351 92.38915 
L 138.416613 96.211897 
L 138.633874 95.402152 
L 139.068397 101.290061 
L 139.285659 100.62469 
L 139.50292 95.565356 
L 139.720182 95.025527 
L 139.937443 100.059752 
L 140.154705 100.448931 
L 140.371966 98.867105 
L 140.589228 98.120132 
L 140.806489 99.406935 
L 141.023751 99.469706 
L 141.241012 97.448483 
L 141.458274 99.450874 
L 141.675535 105.351338 
L 141.892797 105.797011 
L 142.110058 105.376446 
L 142.32732 107.548319 
L 142.544581 107.755463 
L 142.761843 114.967837 
L 142.979104 102.928381 
L 143.196366 98.804334 
L 143.413628 99.419489 
L 143.630889 99.475983 
L 143.848151 103.625138 
L 144.065412 102.570587 
L 144.282674 102.56431 
L 144.717197 99.789837 
L 144.934458 100.492871 
L 145.15172 97.272725 
L 145.368981 96.971424 
L 145.586243 97.065581 
L 145.803504 108.778628 
L 146.020766 104.309341 
L 146.238027 108.238798 
L 146.67255 109.556987 
L 147.107073 115.269138 
L 147.324335 116.355074 
L 147.541596 118.17543 
L 147.758858 117.346854 
L 147.976119 117.83019 
L 148.193381 117.641877 
L 148.410642 116.844687 
L 148.627904 119.600329 
L 148.845165 117.491227 
L 149.279689 118.231923 
L 149.49695 120.485398 
L 149.714212 121.282589 
L 149.931473 125.695382 
L 150.148735 134.439366 
L 150.583258 138.833328 
L 150.800519 140.088746 
L 151.017781 149.818233 
L 151.452304 153.584487 
L 151.669565 154.839904 
L 151.886827 129.417695 
L 152.32135 126.674608 
L 152.538611 126.90686 
L 152.755873 128.162278 
L 152.973134 128.143446 
L 153.190396 130.999522 
L 153.407657 152.561321 
L 153.624919 151.130145 
L 153.84218 151.117591 
L 154.059442 152.247467 
L 154.276703 155.398565 
L 154.493965 156.898789 
L 154.711226 157.206367 
L 154.928488 157.20009 
L 155.14575 157.526498 
L 155.363011 158.486893 
L 155.580273 157.978449 
L 156.014796 156.283635 
L 156.232057 154.212195 
L 156.449319 154.086654 
L 156.883842 155.254192 
L 157.101103 155.241638 
L 157.318365 155.875624 
L 157.535626 153.364789 
L 157.752888 144.507816 
L 157.970149 141.93421 
L 158.187411 141.758452 
L 158.404672 142.750232 
L 158.621934 140.616022 
L 158.839195 141.394381 
L 159.056457 141.237453 
L 159.49098 147.73424 
L 159.708241 149.165416 
L 159.925503 145.863668 
L 160.142764 148.606755 
L 160.360026 146.252847 
L 160.577287 137.025527 
L 160.794549 133.00819 
L 161.011811 132.926588 
L 161.880857 144.71496 
L 162.098118 143.459543 
L 162.31538 145.656524 
L 162.532641 144.369721 
L 162.749903 144.959767 
L 162.967164 143.716903 
L 163.184426 143.434434 
L 163.401687 144.526648 
L 163.618949 140.590913 
L 163.83621 138.695232 
L 164.270733 141.48226 
L 164.487995 140.528142 
L 164.705256 142.116246 
L 164.922518 144.614527 
L 165.139779 149.61109 
L 165.574302 147.370169 
L 165.791564 149.02732 
L 166.008825 147.062592 
L 166.226087 146.980989 
L 166.66061 152.341623 
L 166.877872 151.971275 
L 167.095133 151.331012 
L 167.312395 151.255687 
L 167.529656 151.023434 
L 167.746918 150.138365 
L 167.964179 150.577761 
L 168.181441 150.188582 
L 168.398702 148.763683 
L 168.615964 148.845285 
L 168.833225 151.575818 
L 169.050487 151.130145 
L 169.267748 151.117591 
L 169.48501 152.140756 
L 169.702271 151.939889 
L 169.919533 151.368674 
L 170.136794 151.362397 
L 170.354056 151.494216 
L 170.571317 151.494216 
L 171.00584 148.437274 
L 171.223102 147.909999 
L 171.440363 148.355672 
L 171.657625 149.667583 
L 171.874886 142.919713 
L 172.092148 142.254342 
L 172.309409 143.873831 
L 172.526671 141.990704 
L 172.743933 144.200239 
L 172.961194 144.476431 
L 173.178456 146.679689 
L 173.395717 145.110417 
L 173.612979 144.60825 
L 173.83024 145.417994 
L 174.047502 147.04376 
L 174.264763 146.340726 
L 174.482025 150.081871 
L 174.699286 150.659363 
L 174.916548 147.244627 
L 175.351071 147.200687 
L 175.568332 145.775788 
L 175.785594 145.738126 
L 176.002855 141.337887 
L 176.220117 145.374055 
L 176.65464 141.990704 
L 177.089163 144.896996 
L 177.306424 145.248513 
L 177.523686 145.386609 
L 177.740947 144.369721 
L 177.958209 146.127305 
L 178.17547 146.20263 
L 178.392732 145.323838 
L 178.609994 143.177074 
L 179.044517 144.250456 
L 179.47904 149.272127 
L 179.696301 146.328172 
L 179.913563 148.669526 
L 180.130824 147.790734 
L 180.348086 144.231625 
L 180.565347 144.840502 
L 180.782609 145.016261 
L 180.99987 143.748289 
L 181.217132 144.570587 
L 181.434393 143.522314 
L 181.868916 144.212793 
L 182.086178 143.591362 
L 182.303439 143.559976 
L 182.737962 143.264953 
L 182.955224 151.186639 
L 183.172485 151.16153 
L 183.389747 152.310238 
L 183.607008 149.862173 
L 183.82427 149.742908 
L 184.041531 150.66564 
L 184.258793 150.627978 
L 184.476055 152.121925 
L 184.693316 152.140756 
L 184.910578 153.609595 
L 185.127839 153.527993 
L 185.345101 151.632312 
L 185.562362 145.713017 
L 185.779624 147.797011 
L 185.996885 146.09592 
L 186.214147 148.07948 
L 186.431408 148.066926 
L 186.64867 145.0602 
L 186.865931 146.491376 
L 187.300454 137.4712 
L 187.517716 137.094575 
L 187.734977 138.419041 
L 187.952239 135.029413 
L 188.1695 133.472695 
L 188.386762 136.416649 
L 188.604023 137.483754 
L 189.038546 134.370318 
L 189.255808 134.156897 
L 189.473069 131.344762 
L 189.690331 136.153012 
L 189.907592 136.592408 
L 190.124854 138.375101 
L 190.342116 138.381378 
L 190.559377 139.693289 
L 190.776639 139.781169 
L 190.9939 140.044806 
L 191.211162 139.429652 
L 191.428423 140.396323 
L 191.645685 140.854551 
L 191.862946 141.8275 
L 192.080208 144.959767 
L 192.297469 144.840502 
L 192.514731 142.47404 
L 192.949254 145.581199 
L 193.166515 145.261067 
L 193.383777 142.81928 
L 193.601038 142.813003 
L 193.8183 142.379883 
L 194.035561 142.712569 
L 194.252823 142.543088 
L 194.470084 137.075744 
L 194.687346 136.485697 
L 194.904607 132.116844 
L 195.121869 135.173786 
L 195.33913 135.468809 
L 195.556392 137.088298 
L 195.773653 141.237453 
L 196.208177 138.676401 
L 196.425438 134.822269 
L 196.859961 141.005201 
L 197.077223 140.79178 
L 197.511746 142.511702 
L 197.946269 146.535316 
L 198.16353 151.839456 
L 198.380792 146.773845 
L 198.598053 150.810013 
L 198.815315 148.098311 
L 199.032576 149.247018 
L 199.249838 149.479271 
L 199.467099 151.029712 
L 199.684361 151.65742 
L 199.901622 154.582544 
L 200.336145 167.594948 
L 200.553407 169.584786 
L 200.98793 177.820326 
L 201.205191 177.230279 
L 201.422453 183.394381 
L 201.639714 182.208011 
L 201.856976 182.364938 
L 202.291499 181.084412 
L 202.508761 181.869048 
L 202.726022 181.894156 
L 203.160545 199.765028 
L 203.595068 196.984277 
L 203.81233 187.543536 
L 204.029591 183.312778 
L 204.246853 187.072754 
L 204.464114 176.370318 
L 204.681376 176.357764 
L 204.898637 172.817486 
L 205.115899 172.760992 
L 205.33316 176.853654 
L 205.550422 171.806875 
L 205.767683 170.651891 
L 205.984945 174.688059 
L 206.419468 178.303662 
L 206.853991 170.162278 
L 207.071252 171.505575 
L 207.288514 174.179614 
L 207.505775 172.327873 
L 207.723037 174.769661 
L 207.940299 166.973517 
L 208.15756 170.212494 
L 208.374822 167.576117 
L 208.592083 157.859184 
L 209.026606 154.143148 
L 209.243868 145.838559 
L 209.461129 145.286175 
L 209.678391 144.206516 
L 209.895652 143.942878 
L 210.112914 148.556539 
L 210.330175 149.893559 
L 210.547437 142.191571 
L 210.764698 143.641578 
L 211.199221 125.620057 
L 211.416483 136.460589 
L 211.633744 130.654282 
L 211.851006 129.662502 
L 212.068267 130.453415 
L 212.285529 108.948109 
L 212.50279 108.872784 
L 212.720052 100.913436 
L 213.154575 96.525751 
L 213.371836 102.821671 
L 213.589098 100.66863 
L 213.80636 99.645464 
L 214.023621 104.623195 
L 214.240883 104.039426 
L 214.458144 100.643521 
L 214.675406 100.662352 
L 214.892667 103.857391 
L 215.109929 102.771454 
L 215.32719 103.072754 
L 215.544452 101.792228 
L 215.761713 99.701958 
L 215.978975 99.501091 
L 216.196236 99.802391 
L 216.413498 102.451323 
L 216.630759 101.22729 
L 216.848021 104.340726 
L 217.065282 104.868002 
L 217.717067 98.659961 
L 217.934328 89.828097 
L 218.15159 85.992796 
L 218.368851 79.395576 
L 218.586113 83.563563 
L 218.803374 81.881303 
L 219.020636 77.349245 
L 219.237897 75.779973 
L 219.455159 80.839307 
L 219.672421 81.843641 
L 219.889682 79.383022 
L 220.106944 79.188432 
L 220.541467 73.137319 
L 220.758728 64.374503 
L 220.97599 60.878165 
L 221.193251 65.316066 
L 221.410513 65.755463 
L 221.627774 64.757405 
L 221.845036 69.327126 
L 222.062297 76.244478 
L 222.279559 78.102496 
L 222.49682 74.254641 
L 222.714082 73.65204 
L 222.931343 70.657869 
L 223.148605 74.336243 
L 223.365866 72.785802 
L 223.583128 73.978449 
L 223.800389 73.564161 
L 224.017651 71.611986 
L 224.234912 71.392288 
L 224.452174 71.693588 
L 224.669435 71.586878 
L 224.886697 69.873233 
L 225.103958 67.042266 
L 225.32122 60.300673 
L 225.755743 61.957824 
L 225.973005 63.596144 
L 226.190266 66.458496 
L 226.407528 65.290958 
L 226.624789 65.617367 
L 227.059312 68.454611 
L 227.276574 71.379734 
L 227.493835 70.017606 
L 227.711097 70.52605 
L 227.928358 70.205918 
L 228.14562 67.362397 
L 228.362881 67.381229 
L 228.580143 65.491825 
L 228.797404 65.617367 
L 229.014666 64.901779 
L 229.449189 69.333403 
L 229.883712 64.820176 
L 230.100973 66.075594 
L 230.318235 66.301569 
L 230.752758 65.052429 
L 230.970019 66.314123 
L 231.187281 66.458496 
L 231.404543 62.999821 
L 231.621804 67.092482 
L 232.056327 69.710028 
L 232.273589 66.414557 
L 232.49085 66.828845 
L 232.708112 66.948109 
L 232.925373 69.013272 
L 233.142635 66.389449 
L 233.359896 66.822568 
L 233.794419 70.858736 
L 234.011681 70.984277 
L 234.446204 75.572829 
L 234.663465 75.328023 
L 234.880727 73.589269 
L 235.097988 76.445344 
L 235.31525 75.271529 
L 235.532511 77.368077 
L 235.749773 76.483007 
L 235.967034 76.734091 
L 236.184296 75.924346 
L 236.618819 76.658766 
L 237.053342 73.871738 
L 237.270604 75.943177 
L 237.487865 74.800747 
L 237.705127 77.939292 
L 237.922388 75.346854 
L 238.13965 77.361799 
L 238.356911 74.850964 
L 238.574173 75.346854 
L 238.791434 70.419339 
L 239.008696 68.69314 
L 239.225957 68.423225 
L 239.443219 71.17259 
L 239.66048 69.113705 
L 239.877742 69.779076 
L 240.095003 67.494216 
L 240.312265 67.243133 
L 240.529526 69.716305 
L 240.746788 69.628426 
L 240.964049 68.3479 
L 241.398572 69.779076 
L 241.615834 65.290958 
L 241.833095 64.656972 
L 243.136665 65.4165 
L 243.571188 62.020595 
L 243.788449 62.842893 
L 244.005711 66.577761 
L 244.222972 67.462831 
L 244.440234 77.594052 
L 244.874757 74.399014 
L 245.092018 71.304409 
L 245.30928 74.706591 
L 245.526541 82.251651 
L 245.743803 77.135824 
L 246.395587 80.833029 
L 246.612849 78.290809 
L 246.83011 74.235809 
L 247.047372 74.392737 
L 247.264633 72.798356 
L 247.481895 73.526498 
L 247.699156 72.716754 
L 247.916418 72.490779 
L 248.350941 76.068719 
L 248.568202 75.867852 
L 248.785464 76.263309 
L 249.219987 73.934509 
L 249.437249 73.80269 
L 249.65451 74.04122 
L 249.871772 71.429951 
L 250.089033 71.222807 
L 250.523556 71.260469 
L 250.740818 71.925841 
L 250.958079 70.413062 
L 251.175341 73.689703 
L 251.392602 73.244029 
L 251.609864 74.053774 
L 251.827125 74.160484 
L 252.044387 73.947063 
L 252.261648 74.788193 
L 252.47891 74.920012 
L 252.696171 73.991003 
L 252.913433 74.129099 
L 253.130694 70.13687 
L 253.347956 74.995337 
L 253.565217 75.403348 
L 254.434263 72.308743 
L 254.651525 72.082768 
L 254.868787 72.453116 
L 255.086048 71.881901 
L 255.737833 68.793573 
L 255.955094 69.465222 
L 256.172356 69.678643 
L 256.82414 73.482559 
L 257.041402 72.923898 
L 257.258663 73.35074 
L 257.475925 67.952444 
L 257.693186 68.322792 
L 257.910448 65.793125 
L 258.127709 64.851562 
L 258.344971 61.819728 
L 258.562232 60.495262 
L 258.779494 61.44938 
L 258.996755 64.964549 
L 259.214017 61.94527 
L 259.431278 60.95349 
L 259.64854 60.677298 
L 259.865801 59.277507 
L 260.083063 61.129248 
L 260.300324 61.248513 
L 260.517586 62.629472 
L 260.952109 63.012375 
L 261.169371 62.911941 
L 261.386632 60.878165 
L 261.603894 60.300673 
L 261.821155 60.300673 
L 262.038417 55.869048 
L 262.255678 55.8 
L 262.47294 56.013421 
L 262.690201 58.078583 
L 262.907463 58.687461 
L 263.341986 57.538754 
L 263.776509 58.96993 
L 263.99377 59.22729 
L 264.211032 59.779674 
L 264.428293 58.743955 
L 264.645555 60.432491 
L 264.862816 60.369721 
L 265.080078 60.438768 
L 265.297339 65.215633 
L 265.514601 66.031654 
L 265.731862 64.977104 
L 265.949124 64.839008 
L 266.166385 63.6903 
L 266.383647 63.294844 
L 266.600909 61.763234 
L 266.81817 61.430548 
L 267.035432 61.700463 
L 267.252693 61.744403 
L 267.469955 62.026872 
L 268.121739 60.375998 
L 268.556262 60.451323 
L 268.773524 59.798505 
L 268.990785 59.848722 
L 269.208047 59.76712 
L 269.425308 59.277507 
L 269.64257 59.647855 
L 270.077093 61.788343 
L 270.294354 62.114751 
L 270.728877 60.80284 
L 271.380662 63.997878 
L 271.597923 66.06304 
L 271.815185 66.176027 
L 272.032446 66.816291 
L 272.249708 66.445942 
L 272.46697 65.724077 
L 272.684231 63.822119 
L 272.901493 64.487491 
L 273.336016 67.268241 
L 273.553277 66.389449 
L 273.770539 66.86023 
L 273.9878 68.322792 
L 274.205062 68.504827 
L 274.422323 68.517382 
L 274.639585 67.067374 
L 274.856846 67.644866 
L 275.508631 77.61916 
L 275.725892 74.543387 
L 275.943154 78.140158 
L 276.160415 79.565058 
L 276.377677 78.937349 
L 276.594938 80.500344 
L 276.8122 83.306202 
L 277.681246 77.493618 
L 277.898507 77.600329 
L 278.33303 81.805978 
L 278.550292 84.166164 
L 278.984815 85.848423 
L 279.202077 85.986519 
L 279.419338 83.557286 
L 279.6366 83.507069 
L 280.288384 81.234763 
L 280.505646 78.096219 
L 280.722907 79.816141 
L 280.940169 80.010731 
L 281.15743 81.259871 
L 281.591953 86.457301 
L 282.026476 81.423076 
L 282.460999 83.023733 
L 282.678261 81.724376 
L 283.112784 72.748139 
L 283.330045 69.38362 
L 283.764568 70.921507 
L 284.199091 69.170199 
L 284.416353 70.312629 
L 284.633615 67.431445 
L 285.068138 74.223255 
L 285.285399 77.374354 
L 285.719922 77.16721 
L 285.937184 77.713316 
L 286.371707 83.431744 
L 286.588968 81.805978 
L 286.80623 83.469407 
L 287.023491 82.176326 
L 287.240753 84.718547 
L 287.458014 84.385862 
L 287.675276 86.363145 
L 287.892537 85.088896 
L 288.109799 84.982185 
L 288.32706 83.325034 
L 288.761583 84.737379 
L 288.978845 89.708833 
L 289.196106 87.166612 
L 289.413368 87.08501 
L 289.847891 90.267494 
L 290.282414 96.456703 
L 290.499676 97.335495 
L 290.934199 100.737677 
L 291.15146 104.673412 
L 291.368722 106.085757 
L 292.020506 114.879958 
L 293.106814 120.140158 
L 293.324075 117.252698 
L 293.541337 116.405291 
L 293.758598 116.323689 
L 293.97586 114.735585 
L 294.193121 115.677148 
L 294.410383 120.516784 
L 294.627644 120.893409 
L 295.062167 122.933463 
L 295.279429 123.429353 
L 295.49669 128.444747 
L 295.713952 129.197997 
L 295.931213 128.99713 
L 296.148475 129.643671 
L 296.365737 132.66295 
L 296.582998 132.229831 
L 296.80026 136.510806 
L 297.017521 138.16168 
L 297.234783 136.32877 
L 297.669306 140.000867 
L 297.886567 140.195457 
L 298.103829 137.81644 
L 298.755613 122.858138 
L 299.190136 108.502436 
L 299.624659 107.504379 
L 299.841921 106.719743 
L 300.059182 107.441608 
L 300.276444 107.1152 
L 300.493705 108.263907 
L 300.928228 102.972321 
L 301.14549 102.030758 
L 301.362751 100.386161 
L 301.580013 100.630967 
L 301.797274 100.342221 
L 302.014536 100.681184 
L 302.231798 102.143745 
L 302.666321 102.95349 
L 302.883582 102.601973 
L 303.318105 101.716903 
L 303.535367 103.512151 
L 303.752628 106.412166 
L 303.96989 107.391391 
L 304.187151 106.556539 
L 304.404413 106.839008 
L 304.621674 106.299178 
L 304.838936 105.363892 
L 305.056197 108.25763 
L 305.273459 107.755463 
L 305.707982 108.992049 
L 306.359766 114.063937 
L 306.794289 117.516335 
L 307.011551 117.422179 
L 307.228812 117.905515 
L 307.446074 117.466119 
L 307.663335 114.252249 
L 308.097859 119.27392 
L 308.31512 114.202033 
L 308.532382 112.883844 
L 308.749643 115.055717 
L 308.966905 114.245972 
L 309.184166 113.003109 
L 309.401428 112.896398 
L 309.618689 112.940338 
L 310.270474 118.752922 
L 310.487735 119.248812 
L 311.13952 121.640383 
L 311.356781 121.025228 
L 311.791304 117.566552 
L 312.008566 112.821073 
L 312.66035 109.952444 
L 312.877612 109.55071 
L 313.094873 110.008937 
L 313.312135 110.008937 
L 313.529396 101.873831 
L 313.746658 99.557585 
L 313.96392 103.085309 
L 314.398443 96.393932 
L 314.615704 97.159737 
L 315.050227 99.745897 
L 315.267489 99.802391 
L 315.702012 90.844986 
L 315.919273 90.110566 
L 316.136535 88.390644 
L 316.353796 89.583291 
L 316.571058 89.112509 
L 316.788319 84.461187 
L 317.005581 84.957077 
L 317.222842 84.423524 
L 317.440104 85.183052 
L 317.657365 85.088896 
L 317.874627 89.294545 
L 318.091888 97.555194 
L 318.30915 95.533971 
L 318.526411 99.73962 
L 319.395457 130.52874 
L 319.612719 132.185891 
L 320.047242 138.996533 
L 320.264504 138.180511 
L 320.481765 137.935705 
L 320.699027 132.010133 
L 320.916288 132.951696 
L 321.13355 130.704499 
L 321.350811 131.664893 
L 321.785334 142.813003 
L 322.002596 144.231625 
L 322.219857 154.971723 
L 322.437119 156.641429 
L 322.65438 155.298132 
L 322.871642 159.899238 
L 323.088903 161.493618 
L 323.523426 176.031356 
L 323.740688 194.686863 
L 323.957949 190.613032 
L 324.175211 189.665192 
L 324.609734 167.067673 
L 325.261518 153.653535 
L 325.696042 148.719743 
L 325.913303 147.941384 
L 326.347826 145.016261 
L 326.782349 136.535914 
L 326.999611 136.818383 
L 327.216872 138.054969 
L 327.651395 159.905515 
L 327.868657 169.522015 
L 328.085918 163.828695 
L 328.30318 170.325482 
L 328.520441 171.938694 
L 328.954964 167.46313 
L 329.172226 167.940188 
L 329.389487 167.601226 
L 329.606749 163.119384 
L 330.041272 148.606755 
L 330.258533 142.932267 
L 330.475795 140.829443 
L 330.910318 131.445195 
L 331.344841 134.866208 
L 331.562103 132.713167 
L 331.779364 140.948707 
L 331.996626 142.875773 
L 332.213887 134.426812 
L 332.431149 135.198894 
L 332.64841 129.43025 
L 332.865672 130.635451 
L 333.300195 122.556838 
L 333.517456 120.736482 
L 333.734718 121.238649 
L 333.951979 116.44923 
L 334.169241 118.43279 
L 334.386502 117.660708 
L 334.603764 114.886235 
L 334.821025 121.10683 
L 335.038287 122.676102 
L 335.47281 127.095173 
L 335.690071 127.992796 
L 335.907333 128.231326 
L 336.124594 130.911643 
L 336.341856 129.863369 
L 336.776379 133.422478 
L 336.99364 133.215334 
L 337.210902 134.156897 
L 337.428164 130.641728 
L 337.645425 130.133284 
L 337.862687 131.67117 
L 338.079948 131.746495 
L 338.29721 130.886534 
L 338.731733 133.943476 
L 338.948994 131.733941 
L 339.166256 132.286325 
L 339.383517 133.46014 
L 339.81804 129.49302 
L 340.035302 130.233717 
L 340.252563 128.331759 
L 340.469825 129.091287 
L 340.904348 131.978748 
L 341.121609 131.595845 
L 341.556132 135.500194 
L 341.773394 134.477029 
L 341.990655 131.47658 
L 342.207917 131.777881 
L 342.425178 133.679839 
L 342.64244 133.579405 
L 342.859701 133.949753 
L 343.076963 134.677896 
L 343.294225 136.184397 
L 343.511486 136.611239 
L 343.728748 135.650844 
L 343.946009 135.964699 
L 344.163271 142.455208 
L 344.380532 144.595696 
L 344.597794 145.461934 
L 344.815055 144.871888 
L 345.032317 145.185742 
L 345.249578 146.962158 
L 345.46684 151.425168 
L 346.118624 154.494664 
L 346.335886 153.584487 
L 346.553147 154.011329 
L 346.770409 154.846181 
L 347.204932 154.538604 
L 347.422193 154.670423 
L 347.639455 155.907009 
L 347.856716 155.71242 
L 348.291239 155.599432 
L 348.508501 155.938395 
L 348.725762 156.754416 
L 349.160286 175.001913 
L 349.377547 184.888328 
L 349.594809 186.350889 
L 349.81207 189.859782 
L 350.029332 189.206965 
L 350.246593 192.232521 
L 350.463855 192.646809 
L 350.681116 185.610193 
L 350.898378 183.275116 
L 351.332901 181.8 
L 351.550162 179.646959 
L 351.767424 175.773995 
L 351.984685 175.35343 
L 352.201947 171.951248 
L 352.419208 173.683724 
L 352.63647 169.685219 
L 352.853731 167.933911 
L 353.070993 167.72049 
L 353.505516 171.078733 
L 353.722777 160.897295 
L 354.1573 164.707488 
L 354.374562 173.445195 
L 354.591823 172.72333 
L 354.809085 167.130444 
L 355.026347 167.155552 
L 355.46087 169.565954 
L 355.895393 165.937797 
L 356.112654 166.87936 
L 356.329916 166.358362 
L 356.547177 162.855747 
L 356.9817 167.971574 
L 357.198962 168.699716 
L 357.416223 168.423524 
L 357.633485 166.634554 
L 357.850746 168.743656 
L 358.068008 167.827201 
L 358.285269 166.257929 
L 358.719792 167.142998 
L 359.154315 169.973965 
L 359.588838 172.139561 
L 359.8061 171.606008 
L 360.023361 170.595397 
L 360.240623 170.683276 
L 360.457884 171.260768 
L 360.892408 182.302167 
L 361.109669 185.133134 
L 361.326931 183.042864 
L 361.544192 183.350441 
L 361.761454 187.970378 
L 361.978715 185.842445 
L 362.195977 185.503482 
L 362.413238 183.915379 
L 362.6305 185.42188 
L 363.282284 177.883097 
L 363.499546 180.889822 
L 363.716807 181.8 
L 363.934069 178.127903 
L 364.15133 178.215782 
L 364.368592 183.645464 
L 364.585853 184.656075 
L 364.803115 183.996981 
L 365.020376 182.132686 
L 365.237638 183.237453 
L 365.454899 182.264505 
L 365.672161 183.469706 
L 365.889422 186.60825 
L 366.106684 186.237902 
L 366.323945 185.346555 
L 366.541207 174.957973 
L 366.758469 170.061844 
L 366.97573 168.969631 
L 367.410253 170.413361 
L 367.627515 172.648005 
L 368.062038 169.622448 
L 368.279299 171.022239 
L 368.496561 169.383919 
L 368.713822 169.647556 
L 368.931084 169.572231 
L 369.148345 171.869646 
L 369.365607 172.729607 
L 369.582868 170.551457 
L 369.80013 170.538903 
L 370.017391 166.747541 
L 370.451914 164.255537 
L 370.669176 157.947063 
L 370.886437 144.250456 
L 371.103699 148.217576 
L 371.32096 147.050037 
L 371.755483 139.787446 
L 372.190006 144.871888 
L 372.407268 145.267344 
L 372.841791 150.088148 
L 373.059053 153.546824 
L 373.276314 151.431445 
L 373.493576 153.923449 
L 373.710837 152.536213 
L 373.928099 153.559378 
L 374.14536 156.195755 
L 374.362622 150.715857 
L 374.579883 153.854401 
L 374.797145 153.515439 
L 375.014406 155.316963 
L 375.231668 155.938395 
L 375.448929 155.542938 
L 375.666191 157.174981 
L 375.883452 156.490779 
L 376.100714 156.773248 
L 376.317975 158.499447 
L 376.535237 158.022388 
L 376.752498 159.723479 
L 376.96976 159.943177 
L 377.187021 159.874129 
L 377.404283 160.941234 
L 377.838806 164.650994 
L 378.056067 165.529786 
L 378.273329 167.07395 
L 378.707852 168.599283 
L 378.925114 170.149724 
L 379.142375 170.168555 
L 379.359637 169.471798 
L 379.79416 172.007742 
L 380.011421 171.047347 
L 380.228683 169.409027 
L 380.445944 170.168555 
L 380.663206 171.348647 
L 380.880467 170.796264 
L 381.749513 181.931819 
L 381.966775 182.578359 
L 382.184036 182.452817 
L 382.401298 182.59719 
L 382.618559 180.142849 
L 382.835821 181.636796 
L 383.053082 180.663847 
L 383.270344 182.860828 
L 383.487605 183.168405 
L 383.704867 180.776835 
L 383.922128 180.513197 
L 384.13939 184.787894 
L 384.573913 182.352384 
L 384.791175 183.821223 
L 385.008436 186.087252 
L 385.225698 183.519922 
L 385.442959 183.224899 
L 385.660221 185.936601 
L 385.877482 185.221013 
L 386.094744 185.327724 
L 386.312005 174.832432 
L 386.529267 177.481363 
L 386.746528 177.136123 
L 386.96379 176.376595 
L 387.181051 176.552354 
L 387.398313 177.161232 
L 387.832836 175.497803 
L 388.050097 176.213391 
L 388.267359 175.667284 
L 388.48462 173.212943 
L 388.701882 173.231774 
L 388.919143 172.660559 
L 389.353666 170.174832 
L 389.570928 169.8547 
L 389.788189 168.957077 
L 390.005451 169.923748 
L 390.222713 168.373307 
L 390.439974 167.695382 
L 390.657236 167.632611 
L 390.874497 167.990405 
L 391.091759 169.50946 
L 391.30902 169.289762 
L 392.178066 165.856195 
L 392.395328 166.188881 
L 392.612589 165.561172 
L 392.829851 165.944074 
L 393.047112 165.793424 
L 393.264374 165.28498 
L 393.481635 163.960514 
L 393.698897 164.324585 
L 393.916158 163.703153 
L 394.13342 164.330862 
L 394.350681 164.299477 
L 394.567943 165.102944 
L 394.785204 163.9919 
L 395.002466 162.202929 
L 395.219727 162.893409 
L 395.436989 162.573278 
L 395.65425 163.276311 
L 395.871512 164.839307 
L 396.523297 164.230429 
L 396.740558 163.784756 
L 396.95782 164.437573 
L 397.392343 162.428904 
L 397.609604 162.918517 
L 398.261389 159.6356 
L 398.47865 145.355223 
L 398.913173 154.287521 
L 399.130435 147.602421 
L 399.347696 148.587924 
L 399.564958 144.06842 
L 399.782219 142.737677 
L 399.999481 142.166462 
L 400.216742 140.320998 
L 400.434004 142.204125 
L 400.868527 138.532028 
L 401.085788 140.233119 
L 401.30305 139.191122 
L 401.520311 138.940039 
L 401.737573 138.35627 
L 401.954835 137.038081 
L 402.172096 137.577911 
L 402.389358 136.97531 
L 402.606619 138.230728 
L 402.823881 132.681781 
L 403.041142 130.497355 
L 403.258404 130.779824 
L 403.475665 130.189777 
L 403.692927 130.673113 
L 403.910188 129.574623 
L 404.12745 129.769212 
L 404.344711 129.762935 
L 404.561973 130.1835 
L 404.779234 132.123121 
L 404.996496 132.286325 
L 405.213757 136.686564 
L 405.431019 136.014916 
L 405.64828 135.933313 
L 405.865542 135.575519 
L 406.082803 137.314273 
L 406.300065 136.717949 
L 406.517326 134.941533 
L 406.734588 134.087849 
L 406.951849 133.95603 
L 407.169111 133.171394 
L 407.386372 133.817935 
L 407.820896 131.82182 
L 408.255419 132.90148 
L 408.47268 135.751278 
L 408.689942 135.217725 
L 409.124465 140.270782 
L 409.341726 141.532476 
L 409.776249 142.266896 
L 409.993511 141.306501 
L 410.428034 144.338335 
L 410.862557 145.769511 
L 411.079818 147.721686 
L 411.29708 147.92883 
L 411.514341 148.556539 
L 411.731603 147.608698 
L 411.948864 152.260021 
L 412.383387 151.029712 
L 412.81791 154.205918 
L 413.035172 155.122373 
L 413.686957 166.691048 
L 413.904218 165.153161 
L 414.338741 169.622448 
L 414.990526 159.710925 
L 415.207787 158.700314 
L 415.425049 158.549664 
L 415.64231 156.371514 
L 415.859572 156.679091 
L 416.294095 156.183201 
L 416.945879 152.147033 
L 417.163141 156.653983 
L 417.380402 157.3068 
L 417.597664 156.949006 
L 417.814925 157.771305 
L 418.249448 162.855747 
L 418.46671 161.324137 
L 419.335756 166.998625 
L 419.553018 166.822867 
L 419.770279 166.358362 
L 419.987541 166.622 
L 420.204802 164.010731 
L 420.422064 164.456404 
L 420.639325 162.880855 
L 420.856587 162.347302 
L 421.073848 162.767867 
L 421.508371 164.74515 
L 421.725633 166.873083 
L 421.942894 166.797758 
L 422.160156 172.629174 
L 422.594679 172.352982 
L 422.81194 172.704499 
L 423.029202 172.748438 
L 423.246463 173.438918 
L 423.463725 172.321596 
L 423.680986 169.183052 
L 423.898248 163.828695 
L 424.115509 164.607054 
L 424.332771 171.712719 
L 424.550032 170.331759 
L 424.767294 170.363145 
L 424.984555 169.89864 
L 425.201817 170.262711 
L 425.419079 170.156001 
L 425.63634 170.281542 
L 425.853602 171.480466 
L 426.070863 171.98891 
L 426.288125 170.827649 
L 426.722648 172.252548 
L 426.939909 170.00535 
L 427.591694 167.249709 
L 427.808955 167.356419 
L 428.026217 167.61378 
L 428.243478 168.448632 
L 428.46074 170.633059 
L 428.678001 170.752324 
L 428.895263 170.639336 
L 429.112524 171.568346 
L 429.98157 169.007293 
L 430.198832 169.321148 
L 430.416093 169.277208 
L 431.067878 163.483455 
L 431.28514 164.556838 
L 431.502401 163.935406 
L 431.936924 164.456404 
L 432.154186 165.787147 
L 432.371447 165.981737 
L 432.80597 166.904469 
L 433.023232 163.502287 
L 433.240493 163.207263 
L 433.892278 157.840353 
L 434.109539 158.367628 
L 434.326801 156.001166 
L 434.544062 157.821521 
L 434.761324 156.55355 
L 434.978585 156.515887 
L 435.195847 152.303961 
L 435.413108 153.013272 
L 435.63037 151.839456 
L 435.847631 152.109371 
L 436.064893 151.70136 
L 436.499416 153.182753 
L 436.716677 156.296189 
L 436.933939 156.082768 
L 437.368462 153.841847 
L 437.585724 154.0741 
L 437.802985 156.252249 
L 438.020247 156.898789 
L 438.237508 156.923898 
L 438.45477 157.149873 
L 438.889293 155.86307 
L 439.106554 155.869347 
L 439.323816 155.994889 
L 439.541077 147.439217 
L 439.758339 147.589867 
L 439.9756 150.584038 
L 440.192862 151.199193 
L 440.410123 153.069765 
L 440.627385 152.919115 
L 440.844646 153.057211 
L 441.061908 152.975609 
L 441.279169 155.316963 
L 441.496431 154.965446 
L 442.365477 158.355074 
L 442.582738 157.677148 
L 442.8 158.028665 
L 443.017262 157.407234 
L 443.234523 159.641877 
L 443.451785 159.227589 
L 443.669046 159.227589 
L 443.886308 159.09577 
L 444.320831 157.20009 
L 444.538092 157.507667 
L 444.755354 158.135376 
L 444.972615 157.520221 
L 445.189877 158.235809 
L 445.407138 155.976057 
L 445.6244 156.308743 
L 446.710707 159.390794 
L 446.927969 159.422179 
L 447.14523 159.227589 
L 447.362492 156.139262 
L 447.797015 157.570438 
L 448.014276 156.089045 
L 448.231538 156.547272 
L 448.666061 161.035391 
L 448.883323 160.564609 
L 449.100584 158.386459 
L 449.317846 159.020445 
L 449.752369 156.402899 
L 450.186892 163.640383 
L 450.838676 162.642326 
L 451.055938 162.780421 
L 451.273199 160.734091 
L 451.490461 160.162876 
L 451.707722 160.43279 
L 451.924984 161.299029 
L 452.142245 164.726319 
L 452.359507 165.197101 
L 452.576768 166.490181 
L 452.79403 166.446241 
L 453.011291 168.975908 
L 453.445814 169.496906 
L 453.663076 171.254491 
L 454.097599 172.221163 
L 454.31486 172.37809 
L 454.532122 171.92614 
L 454.749384 171.951248 
L 455.401168 170.582843 
L 455.61843 171.298431 
L 455.835691 169.8547 
L 456.052953 170.331759 
L 456.487476 179.590465 
L 456.921999 195.226693 
L 457.13926 190.38078 
L 457.356522 205.941683 
L 457.573783 189.640084 
L 457.791045 186.702406 
L 458.225568 202.960066 
L 458.442829 295.233269 
L 458.660091 307.8 
L 458.877352 301.617068 
L 459.311875 276.910447 
L 459.529137 240.898789 
L 459.746398 247.841249 
L 460.615445 220.655179 
L 460.832706 214.221163 
L 461.049968 211.785652 
L 461.267229 211.628725 
L 461.484491 211.001016 
L 461.701752 214.139561 
L 461.919014 210.379585 
L 462.136275 211.628725 
L 462.353537 209.820924 
L 462.570798 206.05467 
L 462.78806 205.345359 
L 463.222583 202.847078 
L 463.439844 201.585383 
L 463.657106 201.271529 
L 463.874367 206.607054 
L 464.091629 198.176924 
L 464.30889 196.444448 
L 464.526152 193.312181 
L 464.743413 195.276909 
L 464.960675 193.148976 
L 465.177936 193.035989 
L 465.395198 190.713466 
L 465.612459 191.033597 
L 466.046982 187.342669 
L 466.264244 187.64397 
L 466.481506 186.350889 
L 466.698767 181.712121 
L 466.916029 180.054969 
L 467.13329 181.398266 
L 467.350552 187.574922 
L 467.785075 178.912539 
L 468.002336 185.183351 
L 468.654121 190.374503 
L 468.871382 189.753071 
L 469.088644 185.559976 
L 469.305905 186.95349 
L 469.523167 185.986818 
L 470.174951 190.23013 
L 470.392213 188.208907 
L 470.609474 187.612584 
L 470.826736 187.417994 
L 471.043997 187.612584 
L 471.261259 184.467763 
L 471.47852 187.417994 
L 471.695782 185.490928 
L 471.913043 189.665192 
L 472.130305 189.0877 
L 472.347567 191.021043 
L 472.564828 195.107428 
L 472.78209 195.458945 
L 472.999351 193.651143 
L 473.216613 193.017157 
L 473.433874 191.786848 
L 473.651136 188.014318 
L 473.868397 188.146137 
L 474.085659 183.927933 
L 474.30292 185.12058 
L 474.520182 182.528142 
L 474.954705 180.965147 
L 475.171966 180.776835 
L 476.041012 173.457749 
L 476.258274 172.516186 
L 476.692797 174.085458 
L 476.910058 174.173337 
L 477.12732 177.550411 
L 477.344581 184.342221 
L 477.561843 186.658467 
L 477.779104 185.804783 
L 477.996366 185.804783 
L 478.213628 190.61931 
L 478.430889 190.167359 
L 478.648151 189.351338 
L 478.865412 183.055418 
L 479.082674 184.938544 
L 479.299935 182.810611 
L 479.517197 183.808668 
L 479.734458 186.796563 
L 479.95172 187.769511 
L 481.038027 202.363742 
L 481.255289 202.307249 
L 481.47255 200.606158 
L 481.907073 202.395128 
L 482.124335 200.210701 
L 482.341596 201.453564 
L 482.558858 206.462681 
L 482.776119 207.724376 
L 482.993381 205.910297 
L 483.210642 207.793424 
L 483.427904 213.323539 
L 483.645165 212.306651 
L 483.862427 214.754715 
L 484.079689 215.690001 
L 484.29695 213.185443 
L 484.514212 214.045404 
L 484.731473 210.90686 
L 485.165996 216.393035 
L 485.600519 218.288716 
L 485.817781 222.965147 
L 486.035042 221.483754 
L 486.252304 225.149574 
L 486.904088 216.675504 
L 487.12135 220.335047 
L 487.555873 216.637842 
L 488.207657 205.897743 
L 488.424919 206.236706 
L 488.859442 194.636646 
L 489.293965 171.072456 
L 489.511226 168.825258 
L 489.728488 167.91508 
L 489.94575 173.922254 
L 490.163011 170.168555 
L 490.380273 178.146734 
L 490.814796 169.923748 
L 491.032057 172.07679 
L 491.249319 163.929129 
L 491.46658 162.548169 
L 491.683842 163.79731 
L 492.335626 158.920012 
L 492.552888 155.731251 
L 492.987411 143.622747 
L 493.204672 145.192019 
L 493.421934 142.988761 
L 493.639195 138.594799 
L 493.856457 137.36449 
L 494.073718 135.1424 
L 494.29098 134.828546 
L 494.725503 130.67939 
L 494.942764 129.436527 
L 495.160026 131.495412 
L 495.377287 134.633956 
L 495.594549 131.746495 
L 495.811811 132.374204 
L 496.029072 130.936751 
L 496.246334 132.192169 
L 496.463595 129.367479 
L 497.549903 124.483904 
L 497.767164 124.490181 
L 497.984426 127.917471 
L 498.201687 128.54518 
L 498.418949 118.539501 
L 498.63621 116.813301 
L 498.853472 123.354028 
L 499.070733 122.09861 
L 499.287995 123.918966 
L 500.157041 113.166313 
L 500.374302 113.994889 
L 500.591564 113.524107 
L 500.808825 113.542938 
L 501.46061 117.497504 
L 501.677872 122.155104 
L 501.895133 120.479121 
L 502.329656 129.555791 
L 502.546918 128.796264 
L 502.764179 128.463578 
L 502.981441 129.5809 
L 503.198702 124.741264 
L 503.850487 132.600179 
L 504.067748 133.227888 
L 504.28501 134.564908 
L 504.502271 138.26839 
L 504.719533 137.232671 
L 504.936794 137.96709 
L 505.154056 137.433538 
L 505.80584 139.128352 
L 506.023102 139.322941 
L 506.240363 141.58897 
L 506.457625 145.342669 
L 506.892148 137.62185 
L 507.109409 139.511254 
L 507.543933 140.779226 
L 507.978456 144.903273 
L 508.412979 144.903273 
L 509.282025 140.923599 
L 509.499286 140.911045 
L 509.716548 140.565805 
L 509.933809 140.860828 
L 510.151071 141.488537 
L 510.368332 137.094575 
L 511.020117 140.860828 
L 511.237378 140.860828 
L 511.45464 139.442206 
L 511.671901 139.435929 
L 511.889163 140.691347 
L 512.323686 148.613032 
L 512.758209 160.162876 
L 512.97547 162.673711 
L 513.192732 160.470453 
L 513.409994 162.089942 
L 513.627255 159.48495 
L 513.844517 158.399014 
L 514.061778 156.051382 
L 514.27904 155.806576 
L 514.496301 153.923449 
L 514.713563 153.352234 
L 514.930824 152.316515 
L 515.148086 152.536213 
L 515.365347 149.724077 
L 515.582609 149.548319 
L 515.79987 152.548767 
L 516.017132 153.804185 
L 516.234393 152.548767 
L 516.451655 154.475833 
L 516.668916 154.601375 
L 516.886178 151.525602 
L 517.103439 154.984277 
L 517.320701 156.61632 
L 517.537962 159.754865 
L 517.755224 160.068719 
L 517.972485 160.068719 
L 518.189747 164.186489 
L 518.407008 164.173935 
L 518.62427 167.990405 
L 518.841531 168.505126 
L 519.058793 170.074398 
L 519.276055 172.497355 
L 519.493316 172.095621 
L 520.145101 167.011179 
L 520.362362 166.257929 
L 520.796885 162.479121 
L 521.014147 165.580003 
L 521.231408 165.881303 
L 521.44867 169.635002 
L 521.665931 168.687162 
L 521.883193 165.743207 
L 522.100454 165.699268 
L 522.752239 170.714661 
L 522.9695 169.848423 
L 523.186762 167.663996 
L 523.404023 169.89864 
L 523.838546 165.674159 
L 524.273069 167.965297 
L 524.707592 163.90402 
L 524.924854 164.261814 
L 525.142116 166.264206 
L 525.359377 166.873083 
L 525.7939 171.110118 
L 526.228423 171.631116 
L 526.880208 184.800448 
L 527.097469 187.800897 
L 527.314731 187.713017 
L 527.531992 190.223853 
L 527.749254 191.058706 
L 527.966515 190.839008 
L 528.183777 192.734688 
L 528.401038 192.740965 
L 528.6183 193.632312 
L 528.835561 193.305903 
L 529.052823 193.381229 
L 529.487346 193.983829 
L 529.704607 193.59465 
L 530.13913 198.735585 
L 530.356392 196.444448 
L 530.573653 199.815244 
L 530.790915 198.045105 
L 531.008177 191.17797 
L 531.225438 190.42472 
L 531.4427 188.604364 
L 531.659961 194.555044 
L 531.877223 194.812405 
L 532.094484 193.236855 
L 532.311746 190.022986 
L 532.529007 189.426663 
L 532.746269 190.914333 
L 532.96353 191.61109 
L 533.398053 189.658915 
L 533.615315 194.316515 
L 533.832576 196.023883 
L 534.049838 195.289463 
L 534.267099 187.857391 
L 534.484361 184.317113 
L 534.701622 183.526199 
L 534.918884 183.883993 
L 535.136145 187.267344 
L 535.353407 187.367778 
L 535.570668 186.658467 
L 535.78793 188.780123 
L 536.005191 192.897893 
L 536.222453 187.675355 
L 536.439714 187.60003 
L 536.656976 183.570139 
L 536.874238 186.746346 
L 537.091499 187.480765 
L 537.308761 186.175131 
L 537.743284 179.402152 
L 537.960545 176.100404 
L 538.177807 176.985473 
L 538.395068 188.824062 
L 538.61233 187.110417 
L 538.829591 184.097414 
L 539.046853 185.208459 
L 539.264114 183.953041 
L 539.481376 185.233567 
L 539.915899 201.616769 
L 540.13316 202.294694 
L 540.350422 200.392737 
L 540.567683 200.417845 
L 540.784945 202.752922 
L 541.002206 197.568047 
L 541.219468 199.237752 
L 541.436729 197.775191 
L 541.653991 197.461336 
L 541.871252 194.718248 
L 542.088514 194.485996 
L 542.305775 195.954835 
L 542.523037 196.387954 
L 542.740299 196.042714 
L 542.95756 196.0741 
L 543.174822 195.239247 
L 543.392083 195.722583 
L 543.826606 200.486893 
L 544.261129 194.467165 
L 544.478391 195.050934 
L 544.695652 197.178867 
L 544.912914 196.168256 
L 545.130175 194.605261 
L 545.347437 195.239247 
L 545.564698 194.617815 
L 545.78196 194.818682 
L 545.999221 190.179913 
L 546.433744 192.992049 
L 546.651006 195.440114 
L 546.868267 199.181258 
L 547.085529 194.762188 
L 547.30279 197.178867 
L 547.737313 194.021492 
L 547.954575 195.433836 
L 548.171836 197.593155 
L 548.389098 197.354626 
L 548.60636 197.436228 
L 548.823621 197.273023 
L 549.040883 196.469556 
L 549.258144 196.475833 
L 549.692667 193.425168 
L 549.909929 193.732745 
L 550.12719 196.513496 
L 550.561713 190.864116 
L 550.778975 193.707637 
L 550.996236 190.569093 
L 551.213498 189.727963 
L 551.430759 193.996383 
L 551.648021 192.276461 
L 551.865282 195.936004 
L 552.299805 192.797459 
L 552.517067 189.018652 
L 552.734328 188.221462 
L 552.95159 186.438768 
L 553.168851 186.815394 
L 553.603374 190.87667 
L 553.820636 191.140308 
L 554.037897 191.165416 
L 554.255159 191.705246 
L 554.472421 194.435779 
L 554.689682 194.617815 
L 554.906944 188.987266 
L 555.124205 189.489434 
L 555.558728 185.597639 
L 555.77599 184.92599 
L 556.210513 169.904917 
L 556.427774 171.744104 
L 556.645036 171.392587 
L 557.079559 178.67401 
L 557.29682 180.877268 
L 557.514082 180.393932 
L 557.731343 181.492423 
L 557.948605 180.230728 
L 558.165866 176.69045 
L 558.383128 175.541743 
L 558.600389 173.633508 
L 558.817651 169.082618 
L 559.034912 170.639336 
L 559.252174 169.409027 
L 559.469435 172.359259 
L 559.686697 165.448184 
L 559.903958 165.981737 
L 560.12122 156.227141 
L 560.338482 156.522164 
L 560.555743 159.189927 
L 560.990266 146.522762 
L 561.424789 130.660559 
L 561.642051 129.210551 
L 561.859312 125.149275 
L 562.076574 125.877417 
L 562.293835 127.007293 
L 562.511097 129.675056 
L 562.728358 127.923748 
L 562.94562 130.120729 
L 563.162881 116.781916 
L 563.380143 113.17259 
L 563.597404 114.107876 
L 564.031927 111.427559 
L 564.249189 113.448782 
L 564.46645 108.828845 
L 564.683712 107.56715 
L 564.900973 109.927335 
L 565.118235 106.142251 
L 565.335496 108.954386 
L 565.552758 101.290061 
L 565.987281 94.925093 
L 566.204543 94.021193 
L 566.639066 99.563862 
L 567.073589 104.102197 
L 567.29085 101.798505 
L 567.725373 100.687461 
L 567.942635 100.361052 
L 568.159896 99.174682 
L 568.377158 107.579704 
L 568.594419 109.688806 
L 568.811681 110.335346 
L 569.028942 111.979943 
L 569.680727 120.799253 
L 570.11525 136.215782 
L 570.549773 139.222508 
L 570.767034 136.680287 
L 570.984296 141.086803 
L 571.201557 142.417546 
L 571.63608 137.948259 
L 572.070604 127.735436 
L 572.287865 128.708384 
L 572.505127 124.942131 
L 572.93965 132.681781 
L 573.156911 133.861874 
L 573.591434 133.20278 
L 574.025957 129.844537 
L 574.243219 131.708833 
L 574.46048 126.982185 
L 574.895003 132.06035 
L 575.112265 129.976356 
L 575.329526 133.378538 
L 575.546788 131.118786 
L 575.764049 133.391093 
L 575.981311 132.989359 
L 576.198572 133.234165 
L 576.415834 137.232671 
L 576.633095 134.897594 
L 576.850357 133.874428 
L 577.28488 139.128352 
L 577.502141 142.81928 
L 577.719403 141.921656 
L 577.936665 146.089643 
L 578.153926 147.288567 
L 578.371188 146.566702 
L 578.588449 141.714512 
L 579.022972 143.095472 
L 579.240234 141.281393 
L 579.457495 141.501091 
L 579.674757 142.536811 
L 579.892018 140.113854 
L 580.10928 141.752175 
L 580.326541 141.143297 
L 580.543803 142.386161 
L 580.978326 146.629472 
L 581.195587 145.342669 
L 581.412849 144.928381 
L 581.63011 146.748737 
L 581.847372 146.566702 
L 582.064633 147.081423 
L 582.281895 146.880556 
L 582.499156 148.732297 
L 582.716418 146.347003 
L 582.933679 154.984277 
L 583.150941 154.752025 
L 583.368202 156.817187 
L 583.585464 160.734091 
L 583.802726 169.339979 
L 584.237249 163.998177 
L 584.45451 164.563115 
L 584.671772 168.743656 
L 584.889033 168.335645 
L 585.323556 169.691496 
L 585.758079 175.742609 
L 585.975341 173.721387 
L 586.192602 168.423524 
L 586.409864 168.737379 
L 587.27891 163.100553 
L 588.582479 174.945419 
L 588.79974 175.974862 
L 589.451525 173.300822 
L 589.668787 173.934808 
L 589.886048 174.926588 
L 590.10331 176.684173 
L 590.755094 178.793275 
L 590.972356 183.381826 
L 591.189617 183.017755 
L 591.406879 181.8 
L 591.62414 183.545031 
L 591.841402 180.130294 
L 592.058663 180.375101 
L 592.493186 178.680287 
L 592.710448 177.707338 
L 593.144971 173.438918 
L 593.579494 175.121178 
L 593.796755 175.014467 
L 594.883063 183.350441 
L 595.100324 181.517531 
L 595.317586 181.856494 
L 595.534848 181.228785 
L 595.752109 177.719892 
L 595.969371 177.092184 
L 596.186632 177.073352 
L 596.403894 175.799103 
L 596.621155 177.970976 
L 596.838417 181.279002 
L 597.055678 180.619907 
L 597.27294 180.965147 
L 597.707463 184.882051 
L 598.141986 180.437872 
L 598.359247 179.803886 
L 598.576509 178.617516 
L 598.79377 186.821671 
L 599.662816 174.506023 
L 599.880078 174.593902 
L 600.097339 175.271828 
L 600.314601 174.342819 
L 600.531862 174.844986 
L 600.966385 170.670722 
L 601.183647 174.957973 
L 601.400909 173.583291 
L 601.61817 173.583291 
L 601.835432 177.368375 
L 602.052693 176.112958 
L 602.269955 176.338933 
L 602.487216 175.070961 
L 602.704478 175.365984 
L 603.139001 163.941683 
L 603.356262 166.647108 
L 603.573524 164.933463 
L 603.790785 165.994291 
L 604.008047 162.435182 
L 604.225308 165.88758 
L 604.44257 166.540398 
L 605.094354 157.752473 
L 605.311616 156.798356 
L 605.528877 154.664146 
L 605.746139 155.486444 
L 605.9634 158.612435 
L 606.180662 156.089045 
L 606.832446 161.110716 
L 607.049708 161.104439 
L 607.26697 158.568495 
L 607.484231 160.231923 
L 607.701493 160.815693 
L 608.136016 162.617217 
L 608.570539 155.618263 
L 609.005062 160.489284 
L 609.222323 161.229981 
L 609.439585 160.08755 
L 609.656846 159.666986 
L 609.874108 161.418293 
L 610.091369 160.545778 
L 610.308631 159.039277 
L 610.743154 162.46029 
L 610.960415 162.598386 
L 611.177677 163.370468 
L 611.6122 161.587775 
L 611.829461 162.347302 
L 612.046723 161.16721 
L 612.263984 161.543835 
L 612.698507 166.684771 
L 612.915769 166.552952 
L 613.13303 166.873083 
L 613.350292 170.061844 
L 613.567554 169.132835 
L 613.784815 170.268988 
L 614.002077 169.05751 
L 614.219338 171.009685 
L 614.4366 169.823315 
L 614.653861 171.461635 
L 615.088384 169.164221 
L 615.305646 168.247766 
L 615.522907 168.643222 
L 615.740169 167.230877 
L 615.95743 167.37525 
L 616.391953 165.197101 
L 616.609215 165.222209 
L 616.826476 164.236706 
L 617.043738 165.190823 
L 617.260999 165.253594 
L 617.478261 164.569392 
L 617.912784 162.096219 
L 618.130045 162.968734 
L 618.564568 161.901629 
L 618.78183 161.863967 
L 618.999091 161.242535 
L 619.216353 160.257032 
L 619.433615 161.794919 
L 619.650876 162.271977 
L 620.085399 165.818532 
L 620.302661 166.019399 
L 620.519922 166.584337 
L 620.737184 165.517232 
L 620.954445 165.341474 
L 621.388968 165.875026 
L 621.60623 167.406636 
L 622.040753 173.212943 
L 622.258014 170.463578 
L 622.475276 170.746047 
L 622.909799 174.694336 
L 623.12706 172.616619 
L 623.344322 172.823763 
L 623.561583 174.644119 
L 623.778845 175.133732 
L 624.430629 172.67939 
L 624.647891 173.093678 
L 625.082414 171.806875 
L 625.299676 171.267045 
L 625.516937 171.179166 
L 625.95146 173.784158 
L 626.168722 173.018353 
L 626.385983 171.725273 
L 626.603245 172.72333 
L 626.820506 171.92614 
L 627.037768 172.993245 
L 627.255029 173.32593 
L 627.472291 172.949305 
L 627.689552 171.323539 
L 628.124075 170.714661 
L 628.341337 171.624839 
L 628.558598 170.664445 
L 628.77586 173.897145 
L 629.210383 174.85754 
L 629.427644 174.907757 
L 629.644906 175.69867 
L 630.079429 171.530683 
L 630.29669 171.643671 
L 630.513952 169.007293 
L 630.731213 169.164221 
L 630.948475 168.662054 
L 631.165737 167.645165 
L 631.382998 167.733044 
L 631.60026 169.427858 
L 631.817521 168.781318 
L 632.034783 165.893857 
L 632.252044 166.634554 
L 632.469306 166.201435 
L 632.686567 167.689105 
L 632.903829 166.697325 
L 633.12109 168.103393 
L 633.338352 166.119833 
L 633.555613 167.325034 
L 633.772875 166.559229 
L 633.990136 165.09039 
L 634.207398 166.691048 
L 634.424659 170.93436 
L 634.641921 171.022239 
L 634.859182 172.07679 
L 635.076444 172.459692 
L 635.293705 172.145838 
L 635.510967 169.860977 
L 635.728228 170.024182 
L 635.94549 171.260768 
L 636.162751 170.783709 
L 636.380013 170.576566 
L 636.597274 169.371365 
L 636.814536 170.369422 
L 637.249059 174.104289 
L 637.466321 173.438918 
L 637.683582 171.392587 
L 637.900844 168.078284 
L 638.118105 168.787595 
L 638.335367 165.667882 
L 638.552628 168.329368 
L 638.76989 167.61378 
L 638.987151 168.969631 
L 639.204413 168.969631 
L 639.421674 171.009685 
L 639.638936 170.030459 
L 640.073459 169.547123 
L 640.29072 169.860977 
L 640.507982 169.339979 
L 640.942505 166.421133 
L 641.159766 166.684771 
L 641.377028 167.400359 
L 641.594289 166.722433 
L 641.811551 166.691048 
L 642.463335 166.03823 
L 642.897859 162.202929 
L 643.11512 162.767867 
L 643.549643 160.58344 
L 643.766905 162.466567 
L 643.984166 165.605111 
L 644.201428 166.339531 
L 644.635951 168.944522 
L 644.853212 166.734987 
L 645.070474 169.434135 
L 645.287735 169.120281 
L 645.722258 175.949753 
L 645.93952 175.485249 
L 646.156781 172.120729 
L 646.374043 165.93152 
L 646.591304 168.536512 
L 646.808566 168.486295 
L 647.025827 170.212494 
L 647.243089 169.628725 
L 647.46035 162.033448 
L 647.677612 170.281542 
L 647.894873 171.643671 
L 648.112135 187.235959 
L 648.329396 194.624092 
L 648.546658 195.38362 
L 648.981181 204.039725 
L 649.198443 192.540099 
L 649.415704 193.858287 
L 649.632966 194.303961 
L 649.850227 196.205918 
L 650.067489 191.259573 
L 650.28475 190.305455 
L 650.502012 190.048094 
L 650.936535 179.056912 
L 651.153796 174.757107 
L 651.588319 178.021193 
L 652.022842 175.252997 
L 652.240104 174.788492 
L 652.457365 172.03285 
L 652.674627 167.745599 
L 653.326411 174.31771 
L 653.760934 167.080227 
L 653.978196 169.145389 
L 654.195457 166.477627 
L 654.629981 158.64382 
L 655.064504 162.65488 
L 655.281765 158.593603 
L 655.499027 160.865909 
L 655.716288 160.683874 
L 655.93355 165.052728 
L 656.150811 161.179764 
L 656.585334 161.719593 
L 657.019857 165.636497 
L 657.237119 164.556838 
L 657.888903 171.059901 
L 658.540688 168.643222 
L 658.757949 169.239546 
L 659.409734 165.63022 
L 659.626995 167.262263 
L 659.844257 167.87114 
L 660.061518 165.39169 
L 660.27878 166.42741 
L 660.496042 166.509012 
L 660.713303 167.601226 
L 661.147826 173.162726 
L 661.365088 175.014467 
L 661.582349 178.567299 
L 661.799611 177.920759 
L 662.234134 184.62469 
L 662.451395 185.020146 
L 662.668657 188.409774 
L 662.885918 189.552204 
L 663.10318 187.44938 
L 663.320441 189.6903 
L 663.537703 187.60003 
L 663.754964 187.713017 
L 663.972226 188.05198 
L 664.406749 185.258676 
L 664.62401 187.417994 
L 664.841272 187.367778 
L 665.058533 185.534868 
L 665.275795 185.001315 
L 665.710318 183.350441 
L 665.927579 179.879211 
L 666.144841 180.638739 
L 666.579364 178.956479 
L 667.013887 173.922254 
L 667.44841 179.402152 
L 667.882933 179.785055 
L 668.317456 179.056912 
L 668.534718 177.581796 
L 668.751979 178.97531 
L 668.969241 178.240891 
L 669.186502 175.340876 
L 669.403764 174.5123 
L 669.838287 179.916873 
L 670.055548 182.258227 
L 670.27281 181.379435 
L 670.707333 186.21907 
L 671.141856 184.047198 
L 671.359117 182.208011 
L 671.576379 187.267344 
L 671.79364 189.018652 
L 672.010902 188.554147 
L 672.228164 188.353281 
L 672.445425 187.493319 
L 672.662687 187.417994 
L 672.879948 194.128202 
L 673.09721 194.253744 
L 673.314471 193.443999 
L 673.531733 199.714811 
L 673.748994 201.29036 
L 674.183517 207.197101 
L 674.400779 208.609446 
L 674.61804 215.777881 
L 675.052563 212.218771 
L 675.269825 215.664893 
L 675.487086 216.449529 
L 676.573394 194.109371 
L 676.790655 189.407831 
L 677.44244 184.963653 
L 677.659701 187.311284 
L 677.876963 186.853056 
L 678.094225 185.27123 
L 678.311486 186.137468 
L 678.528748 185.522314 
L 678.963271 191.768017 
L 679.180532 191.096368 
L 679.397794 187.857391 
L 679.832317 180.092632 
L 680.049578 182.785503 
L 680.26684 183.865162 
L 680.484101 180.444149 
L 680.701363 181.417098 
L 681.135886 176.433089 
L 681.353147 175.610791 
L 681.570409 175.447586 
L 681.78767 170.375699 
L 682.222193 173.683724 
L 682.439455 170.921805 
L 682.656716 170.381976 
L 682.873978 166.239097 
L 683.308501 165.78087 
L 683.525762 166.954685 
L 684.177547 158.173038 
L 684.394809 162.830638 
L 684.61207 164.525452 
L 685.263855 162.993842 
L 685.481116 164.946017 
L 685.698378 163.213541 
L 685.915639 167.287371 
L 686.132901 164.820475 
L 686.350162 168.053176 
L 686.567424 177.299327 
L 687.219208 168.323091 
L 687.43647 166.722433 
L 687.870993 174.549963 
L 688.088254 173.118786 
L 688.740039 175.69867 
L 688.9573 177.500194 
L 689.174562 176.144343 
L 689.391823 175.761441 
L 689.609085 175.868151 
L 689.826347 178.196951 
L 690.043608 176.972919 
L 690.478131 178.799552 
L 690.695393 181.975758 
L 690.912654 179.119683 
L 691.129916 184.467763 
L 691.564439 184.492871 
L 691.7817 186.005649 
L 691.998962 185.490928 
L 692.433485 180.908653 
L 692.650746 183.362995 
L 692.868008 183.689404 
L 693.085269 179.979644 
L 693.302531 183.13702 
L 693.737054 185.72318 
L 694.171577 185.603916 
L 694.6061 186.595696 
L 694.823361 188.133582 
L 695.040623 184.574473 
L 695.475146 190.305455 
L 695.692408 190.029263 
L 695.909669 188.899387 
L 696.126931 189.19441 
L 696.344192 187.637692 
L 696.561454 192.025377 
L 696.995977 192.132088 
L 697.213238 189.100254 
L 697.4305 189.232073 
L 697.647761 193.519324 
L 697.865023 194.6492 
L 698.082284 198.974114 
L 698.299546 196.563712 
L 698.734069 194.404394 
L 698.95133 195.063488 
L 699.385853 206.889523 
L 700.254899 215.514243 
L 700.472161 215.307099 
L 700.689422 216.160783 
L 700.906684 217.598236 
L 701.123945 216.487192 
L 701.77573 214.974413 
L 702.210253 219.845434 
L 702.427515 217.981139 
L 702.644776 218.288716 
L 702.862038 217.322045 
L 703.079299 217.924645 
L 703.296561 217.340876 
L 703.513822 218.357764 
L 703.731084 218.244777 
L 703.948345 219.311882 
L 704.165607 218.464475 
L 704.382868 219.632013 
L 704.817391 213.298431 
L 705.251914 205.30142 
L 706.12096 174.40559 
L 706.555483 176.703004 
L 706.990006 175.54802 
L 707.207268 174.085458 
L 707.42453 174.807323 
L 707.641791 176.025078 
L 707.859053 175.001913 
L 708.076314 175.271828 
L 708.293576 175.836766 
L 708.510837 177.154954 
L 708.728099 175.058407 
L 708.94536 175.736332 
L 709.162622 173.97247 
L 709.379883 173.959916 
L 709.814406 176.031356 
L 710.031668 179.107129 
L 710.248929 173.005799 
L 710.466191 173.765327 
L 710.683452 173.401255 
L 710.900714 174.267494 
L 711.117975 173.809266 
L 711.335237 172.265102 
L 711.552498 174.323987 
L 711.76976 174.612734 
L 711.987021 173.495412 
L 712.204283 171.078733 
L 712.421544 171.486743 
L 712.638806 170.281542 
L 712.856067 170.607951 
L 713.073329 171.762935 
L 713.290591 171.73155 
L 713.725114 177.1424 
L 713.942375 172.252548 
L 714.159637 171.618562 
L 714.376898 173.577014 
L 714.811421 174.229831 
L 715.028683 169.409027 
L 715.463206 171.053624 
L 715.680467 169.653834 
L 715.897729 170.633059 
L 716.332252 168.693439 
L 716.549513 168.680885 
L 716.766775 169.835869 
L 716.984036 169.798207 
L 717.418559 166.075893 
L 717.853082 168.523958 
L 718.287605 163.979345 
L 718.504867 163.640383 
L 718.722128 158.122822 
L 718.93939 158.581049 
L 719.156652 159.999671 
L 719.373913 152.580152 
L 719.591175 151.324735 
L 719.808436 152.159588 
L 720.242959 148.751128 
L 720.460221 152.423225 
L 720.677482 152.291406 
L 720.894744 150.157196 
L 721.112005 152.975609 
L 721.546528 155.794022 
L 721.76379 160.426513 
L 722.415574 153.465222 
L 722.632836 153.107428 
L 722.850097 152.373009 
L 723.067359 152.73708 
L 723.501882 149.893559 
L 723.719143 147.891167 
L 724.153666 152.900284 
L 724.370928 150.954386 
L 724.588189 151.858287 
L 724.805451 153.797908 
L 725.022713 152.774742 
L 725.239974 154.507219 
L 725.457236 152.291406 
L 725.674497 157.35074 
L 726.326282 159.955732 
L 726.760805 169.283485 
L 726.978066 170.174832 
L 727.195328 169.365087 
L 727.412589 167.5259 
L 727.629851 173.985025 
L 727.847112 170.946914 
L 728.064374 170.702107 
L 728.281635 170.877866 
L 728.498897 170.388253 
L 728.93342 167.695382 
L 729.150681 166.358362 
L 729.367943 170.256434 
L 729.585204 171.436527 
L 729.802466 171.957525 
L 730.45425 183.218622 
L 730.671512 180.444149 
L 730.888774 180.337438 
L 731.540558 187.769511 
L 731.75782 183.814945 
L 732.192343 163.596443 
L 732.409604 159.6356 
L 732.626866 159.742311 
L 732.844127 145.053923 
L 733.27865 143.390495 
L 733.713173 146.497654 
L 733.930435 150.722134 
L 734.147696 152.661755 
L 734.364958 150.948109 
L 734.582219 154.337737 
L 734.799481 155.737528 
L 735.016742 147.426663 
L 735.234004 147.23835 
L 735.451265 145.524705 
L 735.885788 134.859931 
L 736.10305 135.977253 
L 736.320311 135.537857 
L 736.537573 138.95887 
L 736.754835 139.065581 
L 736.972096 135.801495 
L 737.841142 114.603766 
L 738.058404 112.946615 
L 738.275665 113.279301 
L 738.492927 107.937498 
L 738.710188 113.260469 
L 738.92745 113.850516 
L 739.361973 116.455507 
L 739.796496 123.680436 
L 740.013757 125.193215 
L 740.44828 121.571335 
L 740.665542 119.487341 
L 740.882803 121.10683 
L 741.100065 120.943626 
L 741.317326 122.676102 
L 741.751849 120.937349 
L 741.969111 120.629771 
L 742.186372 120.667434 
L 742.403634 120.108773 
L 742.620896 118.92868 
L 743.055419 116.047497 
L 743.27268 118.464176 
L 743.489942 118.338634 
L 743.707203 118.639934 
L 743.924465 116.957674 
L 744.141726 117.302914 
L 744.358988 114.566104 
L 744.576249 109.475385 
L 744.793511 112.356569 
L 745.010772 113.342071 
L 745.228034 115.061994 
L 745.445295 118.683874 
L 745.662557 125.287371 
L 745.879818 125.783261 
L 746.09708 125.852309 
L 746.531603 103.581199 
L 746.748864 100.480317 
L 747.183387 108.941832 
L 747.400649 108.841399 
L 747.835172 114.026274 
L 748.052433 124.42741 
L 748.486957 129.825706 
L 748.704218 131.156449 
L 748.92148 135.594351 
L 749.138741 133.723778 
L 749.356003 133.102346 
L 749.573264 135.908205 
L 749.790526 133.246719 
L 750.007787 138.368824 
L 750.225049 138.695232 
L 750.44231 134.533523 
L 750.659572 134.376595 
L 751.094095 137.439815 
L 751.311356 137.251502 
L 751.528618 135.996084 
L 751.745879 132.305156 
L 751.963141 133.246719 
L 752.397664 141.576416 
L 752.614925 141.639187 
L 753.26671 147.834673 
L 753.483971 147.966492 
L 753.701233 143.522314 
L 753.918494 144.319504 
L 754.135756 145.55609 
L 754.570279 153.609595 
L 754.787541 150.979495 
L 755.004802 150.565207 
L 755.656587 157.564161 
L 755.873848 157.394679 
L 756.09111 161.951846 
L 756.308371 162.742759 
L 756.525633 165.705545 
L 756.742894 161.995785 
L 756.960156 163.044059 
L 757.177417 161.506172 
L 757.394679 162.661157 
L 757.61194 168.247766 
L 757.829202 176.960365 
L 758.046463 179.151069 
L 758.263725 178.153012 
L 758.480986 180.500643 
L 758.698248 180.142849 
L 758.915509 181.385712 
L 759.132771 174.914034 
L 759.350032 174.537408 
L 759.784555 174.537408 
L 760.219079 170.840203 
L 760.43634 161.041668 
L 760.653602 162.07111 
L 760.870863 162.089942 
L 761.088125 164.776536 
L 761.305386 165.912689 
L 761.522648 160.338634 
L 761.739909 160.903572 
L 761.957171 160.231923 
L 762.174432 165.529786 
L 762.391694 164.682379 
L 762.608955 162.774144 
L 762.826217 165.297534 
L 763.695263 159.252698 
L 763.912524 158.857241 
L 764.129786 155.674757 
L 764.347047 157.69598 
L 764.564309 156.497056 
L 764.78157 156.597489 
L 764.998832 156.936452 
L 765.216093 157.0055 
L 765.433355 158.737976 
L 765.650616 157.068271 
L 765.867878 156.61632 
L 766.08514 155.86307 
L 766.302401 145.512151 
L 766.519663 147.19441 
L 766.736924 145.989209 
L 766.954186 146.459991 
L 767.60597 142.210402 
L 767.823232 150.163473 
L 768.257755 147.715409 
L 768.475016 139.034195 
L 768.692278 135.111015 
L 768.909539 138.35627 
L 769.126801 137.527694 
L 769.561324 138.306053 
L 769.778585 137.12596 
L 769.995847 141.570139 
L 770.213108 141.563862 
L 770.43037 150.640532 
L 771.082154 151.889673 
L 771.299416 150.715857 
L 771.733939 152.429502 
L 771.951201 151.582095 
L 772.168462 151.902227 
L 772.385724 152.711971 
L 772.602985 155.649649 
L 772.820247 154.802242 
L 773.037508 145.047646 
L 773.25477 144.765177 
L 773.689293 137.803886 
L 773.906554 144.426214 
L 774.123816 142.022089 
L 774.341077 142.568196 
L 774.558339 143.66041 
L 774.7756 135.883097 
L 774.992862 139.354327 
L 775.210123 137.12596 
L 775.427385 138.004753 
L 775.644646 141.833777 
L 775.861908 138.387655 
L 776.079169 132.280048 
L 776.296431 136.93137 
L 776.513692 133.573128 
L 776.730954 134.891317 
L 776.948215 137.96709 
L 777.165477 137.96709 
L 777.382738 138.877268 
L 777.6 141.821223 
L 777.6 141.821223 
" style="fill:none;stroke:#1f77b4;stroke-linecap:square;stroke-width:1.5;"/>
   </g>
   <g id="patch_3">
    <path d="M 108 320.4 
L 108 43.2 
" style="fill:none;stroke:#000000;stroke-linecap:square;stroke-linejoin:miter;stroke-width:0.8;"/>
   </g>
   <g id="patch_4">
    <path d="M 777.6 320.4 
L 777.6 43.2 
" style="fill:none;stroke:#000000;stroke-linecap:square;stroke-linejoin:miter;stroke-width:0.8;"/>
   </g>
   <g id="patch_5">
    <path d="M 108 320.4 
L 777.6 320.4 
" style="fill:none;stroke:#000000;stroke-linecap:square;stroke-linejoin:miter;stroke-width:0.8;"/>
   </g>
   <g id="patch_6">
    <path d="M 108 43.2 
L 777.6 43.2 
" style="fill:none;stroke:#000000;stroke-linecap:square;stroke-linejoin:miter;stroke-width:0.8;"/>
   </g>
   <g id="text_18">
    <!-- 中债国债收益率利差 -->
    <defs>
     <path d="M 8.203125 62.0625 
L 45.796875 62.0625 
L 45.796875 83.34375 
L 54.203125 83.34375 
L 54.203125 62.0625 
L 92.1875 62.0625 
L 92.1875 17.53125 
L 84.1875 17.53125 
L 84.1875 22.796875 
L 54.203125 22.796875 
L 54.203125 -13.53125 
L 45.796875 -13.53125 
L 45.796875 22.796875 
L 16.21875 22.796875 
L 16.21875 17.53125 
L 8.203125 17.53125 
z
M 84.1875 54.828125 
L 54.203125 54.828125 
L 54.203125 30.03125 
L 84.1875 30.03125 
z
M 16.21875 30.03125 
L 45.796875 30.03125 
L 45.796875 54.828125 
L 16.21875 54.828125 
z
" id="MicrosoftYaHei-4e2d"/>
     <path d="M 26.859375 47.40625 
L 58.984375 47.40625 
L 58.984375 54.34375 
L 34.1875 54.34375 
L 34.1875 60.5 
L 58.984375 60.5 
L 58.984375 67.328125 
L 31.0625 67.328125 
L 31.0625 73.484375 
L 58.984375 73.484375 
L 58.984375 82.171875 
L 66.3125 82.171875 
L 66.3125 73.484375 
L 95.125 73.484375 
L 95.125 67.328125 
L 66.3125 67.328125 
L 66.3125 60.5 
L 90.328125 60.5 
L 90.328125 54.34375 
L 66.3125 54.34375 
L 66.3125 47.40625 
L 97.953125 47.40625 
L 97.953125 41.265625 
L 26.859375 41.265625 
z
M 1.265625 35.203125 
Q 12.890625 54.25 19.34375 82.375 
L 26.46875 81.109375 
Q 23.640625 70.65625 20.40625 61.375 
L 20.40625 -13.71875 
L 13.28125 -13.71875 
L 13.28125 44.09375 
Q 8.890625 35.015625 3.90625 27.390625 
Q 2.734375 31.390625 1.265625 35.203125 
z
M 34.859375 34.625 
L 89.15625 34.625 
L 89.15625 4.4375 
L 82.03125 4.4375 
L 82.03125 28.265625 
L 42 28.265625 
L 42 3.953125 
L 34.859375 3.953125 
z
M 58.5 25.140625 
L 65.625 25.140625 
Q 65.625 17.046875 64.0625 10.984375 
Q 80.5625 2.78125 97.265625 -7.765625 
L 92.875 -14.015625 
Q 77.546875 -3.953125 61.921875 4.9375 
Q 60.546875 2.09375 58.6875 0.046875 
Q 50.875 -8.9375 31.453125 -13.921875 
Q 28.515625 -8.453125 27.25 -6.890625 
Q 45.90625 -2.875 52.25 3.859375 
Q 58.5 9.8125 58.5 25.140625 
z
" id="MicrosoftYaHei-503a"/>
     <path d="M 7.328125 78.078125 
L 92.78125 78.078125 
L 92.78125 -13.03125 
L 85.25 -13.03125 
L 85.25 -8.15625 
L 14.84375 -8.15625 
L 14.84375 -13.140625 
L 7.328125 -13.140625 
z
M 85.25 71.140625 
L 14.84375 71.140625 
L 14.84375 -1.21875 
L 85.25 -1.21875 
z
M 19.34375 15.765625 
L 46.296875 15.765625 
L 46.296875 35.109375 
L 22.75 35.109375 
L 22.75 41.75 
L 46.296875 41.75 
L 46.296875 54.828125 
L 20.90625 54.828125 
L 20.90625 61.46875 
L 79.109375 61.46875 
L 79.109375 54.828125 
L 53.515625 54.828125 
L 53.515625 41.75 
L 77.15625 41.75 
L 77.15625 35.109375 
L 53.515625 35.109375 
L 53.515625 15.765625 
L 80.671875 15.765625 
L 80.671875 9.125 
L 19.34375 9.125 
z
M 58.59375 28.859375 
L 64.0625 32.953125 
Q 69.4375 27.390625 73.25 22.515625 
L 67.484375 18.109375 
Q 62.796875 24.46875 58.59375 28.859375 
z
" id="MicrosoftYaHei-56fd"/>
     <path d="M 35.0625 41.546875 
Q 47.5625 63.234375 53.125 83.453125 
L 61.03125 81.203125 
Q 57.90625 72.171875 54.5 63.921875 
L 97.078125 63.921875 
L 97.078125 56.6875 
L 85.59375 56.6875 
Q 84.125 28.421875 71.09375 10.640625 
Q 81 1.859375 99.21875 -4.640625 
Q 96.1875 -8.453125 93.65625 -12.453125 
Q 76.265625 -5.03125 65.921875 4.6875 
Q 56.5 -4.59375 39.84375 -13.328125 
Q 37.796875 -10.109375 34.859375 -6.78125 
Q 51.515625 1.5625 60.59375 10.5 
Q 49.3125 24.609375 46 45.5625 
Q 43.265625 40.234375 40.328125 35.296875 
Q 38.484375 38.140625 35.0625 41.546875 
z
M 26.265625 82.671875 
L 33.6875 82.671875 
L 33.6875 -12.75 
L 26.265625 -12.75 
L 26.265625 17.390625 
Q 20.3125 14.0625 14.15625 10.015625 
Q 11.625 8.15625 9.1875 5.609375 
L 3.609375 12.15625 
Q 6.640625 15.375 6.640625 20.5625 
L 6.640625 69 
L 14.0625 69 
L 14.0625 19 
Q 19.875 22.078125 26.265625 25.53125 
z
M 77.875 56.6875 
L 51.90625 56.6875 
Q 53.328125 32.859375 65.671875 16.546875 
Q 76.8125 32.234375 77.875 56.6875 
z
" id="MicrosoftYaHei-6536"/>
     <path d="M 1.765625 -1.609375 
L 15.921875 -1.609375 
L 15.921875 31.203125 
L 84.46875 31.203125 
L 84.46875 -1.609375 
L 97.953125 -1.609375 
L 97.953125 -8.453125 
L 1.765625 -8.453125 
z
M 4.109375 64.3125 
L 57.375 64.3125 
Q 66.015625 72.65625 74.125 83.34375 
L 81.25 78.859375 
Q 74.609375 71.140625 67.671875 64.3125 
L 96.484375 64.3125 
L 96.484375 57.46875 
L 4.109375 57.46875 
z
M 77.4375 24.5625 
L 63.765625 24.5625 
L 63.765625 -1.609375 
L 77.4375 -1.609375 
z
M 22.953125 -1.609375 
L 36.53125 -1.609375 
L 36.53125 24.5625 
L 22.953125 24.5625 
z
M 43.359375 -1.609375 
L 56.9375 -1.609375 
L 56.9375 24.5625 
L 43.359375 24.5625 
z
M 36.53125 54.4375 
L 41.3125 48.09375 
Q 26.078125 38.8125 7.125 29.25 
Q 5.171875 33.0625 3.125 36.078125 
Q 21.390625 44.875 36.53125 54.4375 
z
M 59.28125 48.296875 
L 63.28125 54.25 
Q 82.8125 45.0625 97.078125 37.25 
L 92.78125 30.03125 
Q 73.53125 41.15625 59.28125 48.296875 
z
M 19.34375 78.375 
L 24.421875 83.453125 
Q 32.8125 77.390625 39.546875 71.625 
L 33.984375 65.765625 
Q 27.640625 71.828125 19.34375 78.375 
z
" id="MicrosoftYaHei-76ca"/>
     <path d="M 39.453125 31.390625 
Q 40.96875 31.5 61.375 32.515625 
Q 58.9375 35.9375 56.640625 38.921875 
L 61.921875 42.234375 
Q 68.953125 34.421875 74.90625 25.828125 
L 68.65625 21.921875 
Q 66.9375 24.515625 65.28125 26.953125 
Q 46.734375 25.921875 34.578125 24.953125 
Q 32.421875 24.75 29.390625 24.078125 
L 26.953125 30.71875 
Q 29.890625 31.6875 31.34375 32.5625 
Q 39.59375 38.140625 47.65625 45.515625 
Q 40.578125 45.21875 35.546875 44.78125 
Q 33.5 44.484375 31.0625 43.890625 
L 28.125 49.859375 
Q 30.5625 50.734375 32.625 52.59375 
Q 39.203125 58.15625 44.921875 66.0625 
L 3.609375 66.0625 
L 3.609375 72.90625 
L 47.359375 72.90625 
Q 44.96875 77.25 42.875 80.515625 
L 49.90625 83.9375 
Q 53.71875 78.125 56.5 72.90625 
L 96.484375 72.90625 
L 96.484375 66.0625 
L 47.703125 66.0625 
L 52.34375 63.625 
Q 44.4375 55.515625 38.96875 50.734375 
Q 44.53125 50.875 53.515625 51.078125 
Q 57.421875 54.984375 61.328125 59.328125 
L 68.0625 55.421875 
Q 52.546875 40.671875 39.453125 31.390625 
z
M 2.25 15.484375 
L 46.78125 15.484375 
L 46.78125 24.078125 
L 54.5 24.078125 
L 54.5 15.484375 
L 98.046875 15.484375 
L 98.046875 8.640625 
L 54.5 8.640625 
L 54.5 -13.328125 
L 46.78125 -13.328125 
L 46.78125 8.640625 
L 2.25 8.640625 
z
M 26.859375 41.75 
L 30.375 35.984375 
Q 18.75 29.15625 6.640625 22.015625 
L 2.546875 28.5625 
Q 12.703125 33.34375 26.859375 41.75 
z
M 75.875 41.84375 
Q 89.84375 33.9375 97.65625 28.375 
L 93.359375 22.015625 
Q 83.296875 29.828125 71.875 36.578125 
z
M 93.65625 56.109375 
Q 86.234375 49.65625 77.546875 43.890625 
L 72.5625 49.078125 
Q 81.9375 55.21875 88.09375 61.375 
z
M 5.671875 56.78125 
L 10.640625 61.578125 
Q 18.75 55.125 24.8125 49.359375 
L 19.34375 44 
Q 13.671875 49.953125 5.671875 56.78125 
z
" id="MicrosoftYaHei-7387"/>
     <path d="M 1.171875 11.578125 
Q 14.265625 25.828125 23.25 46.828125 
L 1.65625 46.828125 
L 1.65625 53.953125 
L 25.09375 53.953125 
L 25.09375 68.609375 
Q 15.046875 67.625 5.171875 66.75 
Q 4.5 70.359375 3.21875 74.171875 
Q 26.65625 76.03125 51.078125 79.15625 
L 53.03125 71.734375 
Q 42.671875 70.453125 32.515625 69.390625 
L 32.515625 53.953125 
L 54.6875 53.953125 
L 54.6875 46.828125 
L 32.515625 46.828125 
L 32.515625 33.734375 
L 36.8125 37.84375 
Q 46 30.03125 55.078125 21.046875 
L 49.125 14.984375 
Q 43.171875 21.921875 32.515625 32.078125 
L 32.515625 -12.9375 
L 25.09375 -12.9375 
L 25.09375 35.890625 
Q 16.703125 16.9375 5.078125 2.78125 
Q 2.4375 9.125 1.171875 11.578125 
z
M 85.0625 81.203125 
L 92.78125 81.203125 
L 92.78125 -0.140625 
Q 92.78125 -12.546875 80.28125 -12.453125 
Q 76.265625 -12.453125 67.28125 -12.359375 
Q 66.703125 -8.34375 65.828125 -3.5625 
Q 73.734375 -4.4375 77.828125 -4.4375 
Q 85.0625 -4.546875 85.0625 2.875 
z
M 61.921875 71.4375 
L 69.34375 71.4375 
L 69.34375 9.71875 
L 61.921875 9.71875 
z
" id="MicrosoftYaHei-5229"/>
     <path d="M 17.09375 -2.6875 
L 53.421875 -2.6875 
L 53.421875 13.921875 
L 28.328125 13.921875 
L 28.328125 17 
Q 18.75 6.15625 5.171875 -3.078125 
Q 3.21875 0.046875 0.484375 3.859375 
Q 18.953125 16.0625 29.046875 31 
L 3.125 31 
L 3.125 37.640625 
L 33.109375 37.640625 
Q 35.546875 42.09375 37.640625 47.3125 
L 9.96875 47.3125 
L 9.96875 53.859375 
L 40.140625 53.859375 
Q 41.65625 58.25 42.96875 63.140625 
L 7.625 63.140625 
L 7.625 69.78125 
L 32.421875 69.78125 
Q 28.328125 74.953125 23.640625 80.03125 
L 29.203125 84.328125 
Q 34.859375 78.859375 40.046875 73 
L 35.59375 69.78125 
L 65.921875 69.78125 
L 62.109375 73.1875 
Q 67.875 78.859375 72.359375 84.421875 
L 79 80.03125 
Q 74.03125 74.5625 68.953125 69.78125 
L 94.53125 69.78125 
L 94.53125 63.140625 
L 51.421875 63.140625 
Q 50.09375 58.296875 48.578125 53.859375 
L 90.828125 53.859375 
L 90.828125 47.3125 
L 46.296875 47.3125 
Q 44.34375 42.1875 42.140625 37.640625 
L 98.34375 37.640625 
L 98.34375 31 
L 38.578125 31 
Q 35.296875 25.53125 31.203125 20.453125 
L 87.703125 20.453125 
L 87.703125 13.921875 
L 61.328125 13.921875 
L 61.328125 -2.6875 
L 97.078125 -2.6875 
L 97.078125 -9.328125 
L 17.09375 -9.328125 
z
" id="MicrosoftYaHei-5dee"/>
    </defs>
    <g transform="translate(388.8 37.2)scale(0.12 -0.12)">
     <use xlink:href="#MicrosoftYaHei-4e2d"/>
     <use x="100" xlink:href="#MicrosoftYaHei-503a"/>
     <use x="200" xlink:href="#MicrosoftYaHei-56fd"/>
     <use x="300" xlink:href="#MicrosoftYaHei-503a"/>
     <use x="400" xlink:href="#MicrosoftYaHei-6536"/>
     <use x="500" xlink:href="#MicrosoftYaHei-76ca"/>
     <use x="600" xlink:href="#MicrosoftYaHei-7387"/>
     <use x="700" xlink:href="#MicrosoftYaHei-5229"/>
     <use x="800" xlink:href="#MicrosoftYaHei-5dee"/>
    </g>
   </g>
   <g id="legend_1">
    <g id="patch_7">
     <path d="M 690.7625 66.679688 
L 770.6 66.679688 
Q 772.6 66.679688 772.6 64.679688 
L 772.6 50.2 
Q 772.6 48.2 770.6 48.2 
L 690.7625 48.2 
Q 688.7625 48.2 688.7625 50.2 
L 688.7625 64.679688 
Q 688.7625 66.679688 690.7625 66.679688 
z
" style="fill:#ffffff;opacity:0.8;stroke:#cccccc;stroke-linejoin:miter;"/>
    </g>
    <g id="line2d_34">
     <path d="M 692.7625 56.69375 
L 712.7625 56.69375 
" style="fill:none;stroke:#1f77b4;stroke-linecap:square;stroke-width:1.5;"/>
    </g>
    <g id="line2d_35"/>
    <g id="text_19">
     <!-- 10年 - 3月 -->
     <defs>
      <path d="M 1.859375 19.96875 
L 17.578125 19.96875 
L 17.578125 47.90625 
L 52.15625 47.90625 
L 52.15625 65.28125 
L 23.4375 65.28125 
Q 16.84375 53.421875 8.6875 43.40625 
Q 6.15625 46.140625 2.640625 48.875 
Q 16.5 64.5 23.4375 83.9375 
L 31.453125 81.6875 
Q 29.390625 76.859375 27.15625 72.3125 
L 94.34375 72.3125 
L 94.34375 65.28125 
L 60.0625 65.28125 
L 60.0625 47.90625 
L 92.671875 47.90625 
L 92.671875 41.0625 
L 60.0625 41.0625 
L 60.0625 19.96875 
L 98.734375 19.96875 
L 98.734375 12.9375 
L 60.0625 12.9375 
L 60.0625 -13.421875 
L 52.15625 -13.421875 
L 52.15625 12.9375 
L 1.859375 12.9375 
z
M 25.296875 19.96875 
L 52.15625 19.96875 
L 52.15625 41.0625 
L 25.296875 41.0625 
z
" id="MicrosoftYaHei-5e74"/>
      <path id="MicrosoftYaHei-20"/>
      <path d="M 25.046875 20.0625 
Q 22.859375 1.21875 10.359375 -14.015625 
Q 7.234375 -10.984375 3.609375 -8.15625 
Q 13.09375 2.09375 16.3125 16.265625 
Q 18.5625 26.703125 18.5625 45.171875 
L 18.5625 78.953125 
L 83.796875 78.953125 
L 83.796875 2.78125 
Q 83.796875 -11.671875 70.015625 -11.671875 
Q 64.265625 -11.671875 55.171875 -11.46875 
Q 54.6875 -7.953125 53.71875 -3.265625 
Q 62.703125 -3.859375 67.875 -3.859375 
Q 75.78125 -3.859375 75.78125 3.859375 
L 75.78125 20.0625 
z
M 25.828125 27.203125 
L 75.78125 27.203125 
L 75.78125 45.953125 
L 26.5625 45.953125 
Q 26.5625 36.1875 25.828125 27.203125 
z
M 26.5625 71.625 
L 26.5625 53.078125 
L 75.78125 53.078125 
L 75.78125 71.625 
z
" id="MicrosoftYaHei-6708"/>
     </defs>
     <g transform="translate(720.7625 60.19375)scale(0.1 -0.1)">
      <use xlink:href="#MicrosoftYaHei-31"/>
      <use x="58.642578" xlink:href="#MicrosoftYaHei-30"/>
      <use x="117.285156" xlink:href="#MicrosoftYaHei-5e74"/>
      <use x="217.285156" xlink:href="#MicrosoftYaHei-20"/>
      <use x="246.875" xlink:href="#MicrosoftYaHei-2d"/>
      <use x="290.136719" xlink:href="#MicrosoftYaHei-20"/>
      <use x="319.726562" xlink:href="#MicrosoftYaHei-33"/>
      <use x="378.369141" xlink:href="#MicrosoftYaHei-6708"/>
     </g>
    </g>
   </g>
  </g>
 </g>
 <defs>
  <clipPath id="p9b67185469">
   <rect height="277.2" width="669.6" x="108" y="43.2"/>
  </clipPath>
 </defs>
</svg>
