<?xml version="1.0" encoding="utf-8" standalone="no"?>
<!DOCTYPE svg PUBLIC "-//W3C//DTD SVG 1.1//EN"
  "http://www.w3.org/Graphics/SVG/1.1/DTD/svg11.dtd">
<!-- Created with matplotlib (http://matplotlib.org/) -->
<svg height="360pt" version="1.1" viewBox="0 0 864 360" width="864pt" xmlns="http://www.w3.org/2000/svg" xmlns:xlink="http://www.w3.org/1999/xlink">
 <defs>
  <style type="text/css">
*{stroke-linecap:butt;stroke-linejoin:round;}
  </style>
 </defs>
 <g id="figure_1">
  <g id="patch_1">
   <path d="M 0 360 
L 864 360 
L 864 0 
L 0 0 
z
" style="fill:#ffffff;"/>
  </g>
  <g id="axes_1">
   <g id="patch_2">
    <path d="M 108 320.4 
L 777.6 320.4 
L 777.6 43.2 
L 108 43.2 
z
" style="fill:#ffffff;"/>
   </g>
   <g id="matplotlib.axis_1">
    <g id="xtick_1">
     <g id="line2d_1">
      <path clip-path="url(#p4d1d63714a)" d="M 108 320.4 
L 108 43.2 
" style="fill:none;stroke:#b0b0b0;stroke-linecap:square;stroke-width:0.8;"/>
     </g>
     <g id="line2d_2">
      <defs>
       <path d="M 0 0 
L 0 3.5 
" id="mb314e189aa" style="stroke:#000000;stroke-width:0.8;"/>
      </defs>
      <g>
       <use style="stroke:#000000;stroke-width:0.8;" x="108" xlink:href="#mb314e189aa" y="320.4"/>
      </g>
     </g>
     <g id="text_1">
      <!-- 2018-07-11 -->
      <defs>
       <path d="M 51.171875 0 
L 5.171875 0 
L 5.171875 8.296875 
L 27.15625 30.21875 
Q 36.234375 39.3125 39.3125 44.609375 
Q 42.390625 49.90625 42.390625 55.5625 
Q 42.390625 62.015625 38.765625 65.453125 
Q 35.15625 68.890625 28.328125 68.890625 
Q 18.21875 68.890625 9.03125 60.296875 
L 9.03125 70.015625 
Q 17.96875 76.90625 29.828125 76.90625 
Q 40.046875 76.90625 45.953125 71.390625 
Q 51.859375 65.875 51.859375 56.546875 
Q 51.859375 49.515625 48.0625 42.75 
Q 44.28125 35.984375 33.734375 25.53125 
L 16.5 8.6875 
L 16.5 8.5 
L 51.171875 8.5 
z
" id="MicrosoftYaHei-32"/>
       <path d="M 4.4375 36.328125 
Q 4.4375 56.34375 11.078125 66.625 
Q 17.71875 76.90625 30.328125 76.90625 
Q 54.34375 76.90625 54.34375 38.140625 
Q 54.34375 19 47.578125 8.859375 
Q 40.828125 -1.265625 28.609375 -1.265625 
Q 17.09375 -1.265625 10.765625 8.34375 
Q 4.4375 17.96875 4.4375 36.328125 
z
M 14.203125 36.765625 
Q 14.203125 6.640625 29.5 6.640625 
Q 44.53125 6.640625 44.53125 37.25 
Q 44.53125 68.953125 29.78125 68.953125 
Q 14.203125 68.953125 14.203125 36.765625 
z
" id="MicrosoftYaHei-30"/>
       <path d="M 52.59375 0 
L 9.234375 0 
L 9.234375 8.25 
L 26.171875 8.25 
L 26.171875 65.671875 
L 8.796875 60.640625 
L 8.796875 69.4375 
L 35.6875 77.25 
L 35.6875 8.25 
L 52.59375 8.25 
z
" id="MicrosoftYaHei-31"/>
       <path d="M 21.390625 39.796875 
Q 7.859375 46.09375 7.859375 58.0625 
Q 7.859375 66.40625 14.203125 71.65625 
Q 20.5625 76.90625 30.421875 76.90625 
Q 39.453125 76.90625 45.3125 71.96875 
Q 51.171875 67.046875 51.171875 59.234375 
Q 51.171875 46.625 37.0625 39.84375 
L 37.0625 39.65625 
Q 53.609375 33.6875 53.609375 19.34375 
Q 53.609375 9.90625 46.796875 4.3125 
Q 39.984375 -1.265625 27.78125 -1.265625 
Q 17.78125 -1.265625 11.46875 4.25 
Q 5.171875 9.765625 5.171875 18.5625 
Q 5.171875 33.015625 21.390625 39.59375 
z
M 41.5 58.109375 
Q 41.5 63.1875 38.328125 66.109375 
Q 35.15625 69.046875 29.734375 69.046875 
Q 24.65625 69.046875 21.09375 65.984375 
Q 17.53125 62.9375 17.53125 58.203125 
Q 17.53125 48.734375 29.390625 43.796875 
Q 41.5 48.828125 41.5 58.109375 
z
M 28.8125 35.25 
Q 14.796875 29.59375 14.796875 19.046875 
Q 14.796875 13.578125 18.890625 10.0625 
Q 23 6.546875 29.59375 6.546875 
Q 35.984375 6.546875 39.984375 10.03125 
Q 44 13.53125 44 18.75 
Q 44 29.734375 28.8125 35.25 
z
" id="MicrosoftYaHei-38"/>
       <path d="M 36.375 26.265625 
L 7.625 26.265625 
L 7.625 33.640625 
L 36.375 33.640625 
z
" id="MicrosoftYaHei-2d"/>
       <path d="M 53.765625 72.3125 
L 24.171875 0 
L 14.265625 0 
L 42.390625 67.1875 
L 4.59375 67.1875 
L 4.59375 75.640625 
L 53.765625 75.640625 
z
" id="MicrosoftYaHei-37"/>
      </defs>
      <g transform="translate(80.217187 335.39375)scale(0.1 -0.1)">
       <use xlink:href="#MicrosoftYaHei-32"/>
       <use x="58.642578" xlink:href="#MicrosoftYaHei-30"/>
       <use x="117.285156" xlink:href="#MicrosoftYaHei-31"/>
       <use x="175.927734" xlink:href="#MicrosoftYaHei-38"/>
       <use x="234.570312" xlink:href="#MicrosoftYaHei-2d"/>
       <use x="277.832031" xlink:href="#MicrosoftYaHei-30"/>
       <use x="336.474609" xlink:href="#MicrosoftYaHei-37"/>
       <use x="395.117188" xlink:href="#MicrosoftYaHei-2d"/>
       <use x="438.378906" xlink:href="#MicrosoftYaHei-31"/>
       <use x="497.021484" xlink:href="#MicrosoftYaHei-31"/>
      </g>
     </g>
    </g>
    <g id="xtick_2">
     <g id="line2d_3">
      <path clip-path="url(#p4d1d63714a)" d="M 199.978022 320.4 
L 199.978022 43.2 
" style="fill:none;stroke:#b0b0b0;stroke-linecap:square;stroke-width:0.8;"/>
     </g>
     <g id="line2d_4">
      <g>
       <use style="stroke:#000000;stroke-width:0.8;" x="199.978022" xlink:href="#mb314e189aa" y="320.4"/>
      </g>
     </g>
     <g id="text_2">
      <!-- 2018-09-19 -->
      <defs>
       <path d="M 9.03125 10.25 
Q 15.28125 6.640625 22.515625 6.640625 
Q 32.671875 6.640625 38.25 14.640625 
Q 43.84375 22.65625 43.84375 37.40625 
Q 43.75 37.3125 43.65625 37.40625 
Q 38.671875 27.9375 26.90625 27.9375 
Q 17.390625 27.9375 11.140625 34.46875 
Q 4.890625 41.015625 4.890625 51.46875 
Q 4.890625 62.59375 11.71875 69.75 
Q 18.5625 76.90625 29.4375 76.90625 
Q 40.71875 76.90625 47.0625 68.046875 
Q 53.421875 59.1875 53.421875 42.234375 
Q 53.421875 21.296875 45.21875 10.015625 
Q 37.015625 -1.265625 22.515625 -1.265625 
Q 14.546875 -1.265625 9.03125 1.3125 
z
M 14.546875 52.6875 
Q 14.546875 45.0625 18.453125 40.59375 
Q 22.359375 36.140625 29.25 36.140625 
Q 35.203125 36.140625 39.25 40.203125 
Q 43.3125 44.28125 43.3125 50.09375 
Q 43.3125 58.25 39.28125 63.59375 
Q 35.25 68.953125 28.65625 68.953125 
Q 22.5625 68.953125 18.546875 64.3125 
Q 14.546875 59.671875 14.546875 52.6875 
z
" id="MicrosoftYaHei-39"/>
      </defs>
      <g transform="translate(172.195209 335.39375)scale(0.1 -0.1)">
       <use xlink:href="#MicrosoftYaHei-32"/>
       <use x="58.642578" xlink:href="#MicrosoftYaHei-30"/>
       <use x="117.285156" xlink:href="#MicrosoftYaHei-31"/>
       <use x="175.927734" xlink:href="#MicrosoftYaHei-38"/>
       <use x="234.570312" xlink:href="#MicrosoftYaHei-2d"/>
       <use x="277.832031" xlink:href="#MicrosoftYaHei-30"/>
       <use x="336.474609" xlink:href="#MicrosoftYaHei-39"/>
       <use x="395.117188" xlink:href="#MicrosoftYaHei-2d"/>
       <use x="438.378906" xlink:href="#MicrosoftYaHei-31"/>
       <use x="497.021484" xlink:href="#MicrosoftYaHei-39"/>
      </g>
     </g>
    </g>
    <g id="xtick_3">
     <g id="line2d_5">
      <path clip-path="url(#p4d1d63714a)" d="M 291.956044 320.4 
L 291.956044 43.2 
" style="fill:none;stroke:#b0b0b0;stroke-linecap:square;stroke-width:0.8;"/>
     </g>
     <g id="line2d_6">
      <g>
       <use style="stroke:#000000;stroke-width:0.8;" x="291.956044" xlink:href="#mb314e189aa" y="320.4"/>
      </g>
     </g>
     <g id="text_3">
      <!-- 2018-12-04 -->
      <defs>
       <path d="M 55.078125 19.625 
L 45.40625 19.625 
L 45.40625 0 
L 36.140625 0 
L 36.140625 19.625 
L 0.875 19.625 
L 0.875 25.828125 
L 34.328125 75.640625 
L 45.40625 75.640625 
L 45.40625 27.203125 
L 55.078125 27.203125 
z
M 36.140625 27.203125 
L 36.140625 58.890625 
Q 36.140625 62.25 36.328125 66.65625 
L 36.140625 66.65625 
Q 35.453125 64.796875 33.25 60.84375 
L 10.75 27.203125 
z
" id="MicrosoftYaHei-34"/>
      </defs>
      <g transform="translate(264.173231 335.39375)scale(0.1 -0.1)">
       <use xlink:href="#MicrosoftYaHei-32"/>
       <use x="58.642578" xlink:href="#MicrosoftYaHei-30"/>
       <use x="117.285156" xlink:href="#MicrosoftYaHei-31"/>
       <use x="175.927734" xlink:href="#MicrosoftYaHei-38"/>
       <use x="234.570312" xlink:href="#MicrosoftYaHei-2d"/>
       <use x="277.832031" xlink:href="#MicrosoftYaHei-31"/>
       <use x="336.474609" xlink:href="#MicrosoftYaHei-32"/>
       <use x="395.117188" xlink:href="#MicrosoftYaHei-2d"/>
       <use x="438.378906" xlink:href="#MicrosoftYaHei-30"/>
       <use x="497.021484" xlink:href="#MicrosoftYaHei-34"/>
      </g>
     </g>
    </g>
    <g id="xtick_4">
     <g id="line2d_7">
      <path clip-path="url(#p4d1d63714a)" d="M 383.934066 320.4 
L 383.934066 43.2 
" style="fill:none;stroke:#b0b0b0;stroke-linecap:square;stroke-width:0.8;"/>
     </g>
     <g id="line2d_8">
      <g>
       <use style="stroke:#000000;stroke-width:0.8;" x="383.934066" xlink:href="#mb314e189aa" y="320.4"/>
      </g>
     </g>
     <g id="text_4">
      <!-- 2019-02-14 -->
      <g transform="translate(356.151253 335.39375)scale(0.1 -0.1)">
       <use xlink:href="#MicrosoftYaHei-32"/>
       <use x="58.642578" xlink:href="#MicrosoftYaHei-30"/>
       <use x="117.285156" xlink:href="#MicrosoftYaHei-31"/>
       <use x="175.927734" xlink:href="#MicrosoftYaHei-39"/>
       <use x="234.570312" xlink:href="#MicrosoftYaHei-2d"/>
       <use x="277.832031" xlink:href="#MicrosoftYaHei-30"/>
       <use x="336.474609" xlink:href="#MicrosoftYaHei-32"/>
       <use x="395.117188" xlink:href="#MicrosoftYaHei-2d"/>
       <use x="438.378906" xlink:href="#MicrosoftYaHei-31"/>
       <use x="497.021484" xlink:href="#MicrosoftYaHei-34"/>
      </g>
     </g>
    </g>
    <g id="xtick_5">
     <g id="line2d_9">
      <path clip-path="url(#p4d1d63714a)" d="M 475.912088 320.4 
L 475.912088 43.2 
" style="fill:none;stroke:#b0b0b0;stroke-linecap:square;stroke-width:0.8;"/>
     </g>
     <g id="line2d_10">
      <g>
       <use style="stroke:#000000;stroke-width:0.8;" x="475.912088" xlink:href="#mb314e189aa" y="320.4"/>
      </g>
     </g>
     <g id="text_5">
      <!-- 2019-04-26 -->
      <defs>
       <path d="M 49.703125 65.921875 
Q 43.796875 68.953125 37.359375 68.953125 
Q 27.546875 68.953125 21.578125 60.40625 
Q 15.625 51.859375 15.53125 37.0625 
L 15.765625 37.0625 
Q 21.140625 47.46875 32.90625 47.46875 
Q 42.71875 47.46875 48.578125 41.0625 
Q 54.4375 34.671875 54.4375 24.078125 
Q 54.4375 12.984375 47.671875 5.859375 
Q 40.921875 -1.265625 30.421875 -1.265625 
Q 18.890625 -1.265625 12.328125 7.734375 
Q 5.765625 16.75 5.765625 33.296875 
Q 5.765625 53.328125 14.375 65.109375 
Q 23 76.90625 37.0625 76.90625 
Q 45.125 76.90625 49.703125 74.703125 
z
M 16.109375 24.75 
Q 16.109375 17.28125 20.09375 11.953125 
Q 24.078125 6.640625 30.671875 6.640625 
Q 36.921875 6.640625 40.828125 11.234375 
Q 44.734375 15.828125 44.734375 23.046875 
Q 44.734375 30.859375 41.046875 35.203125 
Q 37.359375 39.546875 30.5625 39.546875 
Q 24.125 39.546875 20.109375 35.15625 
Q 16.109375 30.765625 16.109375 24.75 
z
" id="MicrosoftYaHei-36"/>
      </defs>
      <g transform="translate(448.129275 335.39375)scale(0.1 -0.1)">
       <use xlink:href="#MicrosoftYaHei-32"/>
       <use x="58.642578" xlink:href="#MicrosoftYaHei-30"/>
       <use x="117.285156" xlink:href="#MicrosoftYaHei-31"/>
       <use x="175.927734" xlink:href="#MicrosoftYaHei-39"/>
       <use x="234.570312" xlink:href="#MicrosoftYaHei-2d"/>
       <use x="277.832031" xlink:href="#MicrosoftYaHei-30"/>
       <use x="336.474609" xlink:href="#MicrosoftYaHei-34"/>
       <use x="395.117188" xlink:href="#MicrosoftYaHei-2d"/>
       <use x="438.378906" xlink:href="#MicrosoftYaHei-32"/>
       <use x="497.021484" xlink:href="#MicrosoftYaHei-36"/>
      </g>
     </g>
    </g>
    <g id="xtick_6">
     <g id="line2d_11">
      <path clip-path="url(#p4d1d63714a)" d="M 567.89011 320.4 
L 567.89011 43.2 
" style="fill:none;stroke:#b0b0b0;stroke-linecap:square;stroke-width:0.8;"/>
     </g>
     <g id="line2d_12">
      <g>
       <use style="stroke:#000000;stroke-width:0.8;" x="567.89011" xlink:href="#mb314e189aa" y="320.4"/>
      </g>
     </g>
     <g id="text_6">
      <!-- 2019-07-09 -->
      <g transform="translate(540.107297 335.39375)scale(0.1 -0.1)">
       <use xlink:href="#MicrosoftYaHei-32"/>
       <use x="58.642578" xlink:href="#MicrosoftYaHei-30"/>
       <use x="117.285156" xlink:href="#MicrosoftYaHei-31"/>
       <use x="175.927734" xlink:href="#MicrosoftYaHei-39"/>
       <use x="234.570312" xlink:href="#MicrosoftYaHei-2d"/>
       <use x="277.832031" xlink:href="#MicrosoftYaHei-30"/>
       <use x="336.474609" xlink:href="#MicrosoftYaHei-37"/>
       <use x="395.117188" xlink:href="#MicrosoftYaHei-2d"/>
       <use x="438.378906" xlink:href="#MicrosoftYaHei-30"/>
       <use x="497.021484" xlink:href="#MicrosoftYaHei-39"/>
      </g>
     </g>
    </g>
    <g id="xtick_7">
     <g id="line2d_13">
      <path clip-path="url(#p4d1d63714a)" d="M 659.868132 320.4 
L 659.868132 43.2 
" style="fill:none;stroke:#b0b0b0;stroke-linecap:square;stroke-width:0.8;"/>
     </g>
     <g id="line2d_14">
      <g>
       <use style="stroke:#000000;stroke-width:0.8;" x="659.868132" xlink:href="#mb314e189aa" y="320.4"/>
      </g>
     </g>
     <g id="text_7">
      <!-- 2019-09-18 -->
      <g transform="translate(632.085319 335.39375)scale(0.1 -0.1)">
       <use xlink:href="#MicrosoftYaHei-32"/>
       <use x="58.642578" xlink:href="#MicrosoftYaHei-30"/>
       <use x="117.285156" xlink:href="#MicrosoftYaHei-31"/>
       <use x="175.927734" xlink:href="#MicrosoftYaHei-39"/>
       <use x="234.570312" xlink:href="#MicrosoftYaHei-2d"/>
       <use x="277.832031" xlink:href="#MicrosoftYaHei-30"/>
       <use x="336.474609" xlink:href="#MicrosoftYaHei-39"/>
       <use x="395.117188" xlink:href="#MicrosoftYaHei-2d"/>
       <use x="438.378906" xlink:href="#MicrosoftYaHei-31"/>
       <use x="497.021484" xlink:href="#MicrosoftYaHei-38"/>
      </g>
     </g>
    </g>
    <g id="xtick_8">
     <g id="line2d_15">
      <path clip-path="url(#p4d1d63714a)" d="M 751.846154 320.4 
L 751.846154 43.2 
" style="fill:none;stroke:#b0b0b0;stroke-linecap:square;stroke-width:0.8;"/>
     </g>
     <g id="line2d_16">
      <g>
       <use style="stroke:#000000;stroke-width:0.8;" x="751.846154" xlink:href="#mb314e189aa" y="320.4"/>
      </g>
     </g>
     <g id="text_8">
      <!-- 2019-12-02 -->
      <g transform="translate(724.063341 335.39375)scale(0.1 -0.1)">
       <use xlink:href="#MicrosoftYaHei-32"/>
       <use x="58.642578" xlink:href="#MicrosoftYaHei-30"/>
       <use x="117.285156" xlink:href="#MicrosoftYaHei-31"/>
       <use x="175.927734" xlink:href="#MicrosoftYaHei-39"/>
       <use x="234.570312" xlink:href="#MicrosoftYaHei-2d"/>
       <use x="277.832031" xlink:href="#MicrosoftYaHei-31"/>
       <use x="336.474609" xlink:href="#MicrosoftYaHei-32"/>
       <use x="395.117188" xlink:href="#MicrosoftYaHei-2d"/>
       <use x="438.378906" xlink:href="#MicrosoftYaHei-30"/>
       <use x="497.021484" xlink:href="#MicrosoftYaHei-32"/>
      </g>
     </g>
    </g>
    <g id="text_9">
     <!-- 日期 -->
     <defs>
      <path d="M 15.234375 76.703125 
L 84.859375 76.703125 
L 84.859375 -11.96875 
L 76.5625 -11.96875 
L 76.5625 -5.03125 
L 23.53125 -5.03125 
L 23.53125 -11.96875 
L 15.234375 -11.96875 
z
M 23.53125 32.859375 
L 23.53125 2.09375 
L 76.5625 2.09375 
L 76.5625 32.859375 
z
M 23.53125 69.390625 
L 23.53125 40.1875 
L 76.5625 40.1875 
L 76.5625 69.390625 
z
" id="MicrosoftYaHei-65e5"/>
      <path d="M 58.890625 79.15625 
L 93.453125 79.15625 
L 93.453125 -0.046875 
Q 93.453125 -11.578125 82.515625 -11.578125 
Q 77.046875 -11.578125 71.78125 -11.28125 
Q 71.390625 -8.0625 70.609375 -3.765625 
Q 77.734375 -4.4375 80.859375 -4.4375 
Q 86.234375 -4.4375 86.234375 0.921875 
L 86.234375 21.4375 
L 65.328125 21.4375 
Q 64.265625 0.046875 52.34375 -14.109375 
Q 49.703125 -11.375 46.484375 -8.640625 
Q 54.390625 0.4375 56.546875 10.203125 
Q 58.890625 19.578125 58.890625 42.828125 
z
M 1.953125 17.828125 
L 11.140625 17.828125 
L 11.140625 62.9375 
L 3.125 62.9375 
L 3.125 69.578125 
L 11.140625 69.578125 
L 11.140625 81.5 
L 18.359375 81.5 
L 18.359375 69.578125 
L 38.671875 69.578125 
L 38.671875 81.890625 
L 45.90625 81.890625 
L 45.90625 69.578125 
L 53.8125 69.578125 
L 53.8125 62.9375 
L 45.90625 62.9375 
L 45.90625 17.828125 
L 53.71875 17.828125 
L 53.71875 11.1875 
L 1.953125 11.1875 
z
M 65.765625 27.875 
L 86.234375 27.875 
L 86.234375 47.015625 
L 66.109375 47.015625 
Q 66.21875 34.421875 65.765625 27.875 
z
M 86.234375 72.515625 
L 66.109375 72.515625 
L 66.109375 53.46875 
L 86.234375 53.46875 
z
M 18.359375 17.828125 
L 38.671875 17.828125 
L 38.671875 28.765625 
L 18.359375 28.765625 
z
M 18.359375 35.015625 
L 38.671875 35.015625 
L 38.671875 45.84375 
L 18.359375 45.84375 
z
M 18.359375 52.09375 
L 38.671875 52.09375 
L 38.671875 62.9375 
L 18.359375 62.9375 
z
M 18.359375 9.328125 
L 24.3125 4.640625 
Q 14.453125 -6 6.34375 -13.234375 
Q 4.296875 -10.890625 1.171875 -8.0625 
Q 10.453125 -0.140625 18.359375 9.328125 
z
M 31.15625 4.734375 
L 35.84375 9.515625 
Q 42.671875 4.4375 48.734375 -0.734375 
L 43.5625 -6.296875 
Q 38.09375 -0.828125 31.15625 4.734375 
z
" id="MicrosoftYaHei-671f"/>
     </defs>
     <g transform="translate(432.8 349.873438)scale(0.1 -0.1)">
      <use xlink:href="#MicrosoftYaHei-65e5"/>
      <use x="100" xlink:href="#MicrosoftYaHei-671f"/>
     </g>
    </g>
   </g>
   <g id="matplotlib.axis_2">
    <g id="ytick_1">
     <g id="line2d_17">
      <path clip-path="url(#p4d1d63714a)" d="M 108 317.822498 
L 777.6 317.822498 
" style="fill:none;stroke:#b0b0b0;stroke-linecap:square;stroke-width:0.8;"/>
     </g>
     <g id="line2d_18">
      <defs>
       <path d="M 0 0 
L -3.5 0 
" id="md0384678ed" style="stroke:#000000;stroke-width:0.8;"/>
      </defs>
      <g>
       <use style="stroke:#000000;stroke-width:0.8;" x="108" xlink:href="#md0384678ed" y="317.822498"/>
      </g>
     </g>
     <g id="text_10">
      <!-- 1.75 -->
      <defs>
       <path d="M 5.8125 5.03125 
Q 5.8125 7.671875 7.609375 9.46875 
Q 9.421875 11.28125 12.109375 11.28125 
Q 14.84375 11.28125 16.640625 9.453125 
Q 18.453125 7.625 18.453125 5.03125 
Q 18.453125 2.484375 16.640625 0.65625 
Q 14.84375 -1.171875 12.0625 -1.171875 
Q 9.375 -1.171875 7.59375 0.65625 
Q 5.8125 2.484375 5.8125 5.03125 
z
" id="MicrosoftYaHei-2e"/>
       <path d="M 8.640625 11.625 
Q 16.265625 6.640625 24.515625 6.640625 
Q 32.328125 6.640625 37.109375 11 
Q 41.890625 15.375 41.890625 22.609375 
Q 41.890625 29.890625 37.03125 33.890625 
Q 32.171875 37.890625 22.953125 37.890625 
Q 18.5 37.890625 10.984375 37.203125 
L 10.984375 75.640625 
L 48.1875 75.640625 
L 48.1875 67.1875 
L 19.875 67.1875 
L 19.875 45.796875 
Q 24.125 46.046875 26.265625 46.046875 
Q 38.234375 46.046875 44.921875 39.984375 
Q 51.609375 33.9375 51.609375 23.296875 
Q 51.609375 12.3125 44.421875 5.515625 
Q 37.25 -1.265625 24.609375 -1.265625 
Q 14.015625 -1.265625 8.640625 1.859375 
z
" id="MicrosoftYaHei-35"/>
      </defs>
      <g transform="translate(81 321.819373)scale(0.1 -0.1)">
       <use xlink:href="#MicrosoftYaHei-31"/>
       <use x="58.642578" xlink:href="#MicrosoftYaHei-2e"/>
       <use x="82.714844" xlink:href="#MicrosoftYaHei-37"/>
       <use x="141.357422" xlink:href="#MicrosoftYaHei-35"/>
      </g>
     </g>
    </g>
    <g id="ytick_2">
     <g id="line2d_19">
      <path clip-path="url(#p4d1d63714a)" d="M 108 284.235038 
L 777.6 284.235038 
" style="fill:none;stroke:#b0b0b0;stroke-linecap:square;stroke-width:0.8;"/>
     </g>
     <g id="line2d_20">
      <g>
       <use style="stroke:#000000;stroke-width:0.8;" x="108" xlink:href="#md0384678ed" y="284.235038"/>
      </g>
     </g>
     <g id="text_11">
      <!-- 2.00 -->
      <g transform="translate(81 288.231913)scale(0.1 -0.1)">
       <use xlink:href="#MicrosoftYaHei-32"/>
       <use x="58.642578" xlink:href="#MicrosoftYaHei-2e"/>
       <use x="82.714844" xlink:href="#MicrosoftYaHei-30"/>
       <use x="141.357422" xlink:href="#MicrosoftYaHei-30"/>
      </g>
     </g>
    </g>
    <g id="ytick_3">
     <g id="line2d_21">
      <path clip-path="url(#p4d1d63714a)" d="M 108 250.647577 
L 777.6 250.647577 
" style="fill:none;stroke:#b0b0b0;stroke-linecap:square;stroke-width:0.8;"/>
     </g>
     <g id="line2d_22">
      <g>
       <use style="stroke:#000000;stroke-width:0.8;" x="108" xlink:href="#md0384678ed" y="250.647577"/>
      </g>
     </g>
     <g id="text_12">
      <!-- 2.25 -->
      <g transform="translate(81 254.644452)scale(0.1 -0.1)">
       <use xlink:href="#MicrosoftYaHei-32"/>
       <use x="58.642578" xlink:href="#MicrosoftYaHei-2e"/>
       <use x="82.714844" xlink:href="#MicrosoftYaHei-32"/>
       <use x="141.357422" xlink:href="#MicrosoftYaHei-35"/>
      </g>
     </g>
    </g>
    <g id="ytick_4">
     <g id="line2d_23">
      <path clip-path="url(#p4d1d63714a)" d="M 108 217.060116 
L 777.6 217.060116 
" style="fill:none;stroke:#b0b0b0;stroke-linecap:square;stroke-width:0.8;"/>
     </g>
     <g id="line2d_24">
      <g>
       <use style="stroke:#000000;stroke-width:0.8;" x="108" xlink:href="#md0384678ed" y="217.060116"/>
      </g>
     </g>
     <g id="text_13">
      <!-- 2.50 -->
      <g transform="translate(81 221.056991)scale(0.1 -0.1)">
       <use xlink:href="#MicrosoftYaHei-32"/>
       <use x="58.642578" xlink:href="#MicrosoftYaHei-2e"/>
       <use x="82.714844" xlink:href="#MicrosoftYaHei-35"/>
       <use x="141.357422" xlink:href="#MicrosoftYaHei-30"/>
      </g>
     </g>
    </g>
    <g id="ytick_5">
     <g id="line2d_25">
      <path clip-path="url(#p4d1d63714a)" d="M 108 183.472656 
L 777.6 183.472656 
" style="fill:none;stroke:#b0b0b0;stroke-linecap:square;stroke-width:0.8;"/>
     </g>
     <g id="line2d_26">
      <g>
       <use style="stroke:#000000;stroke-width:0.8;" x="108" xlink:href="#md0384678ed" y="183.472656"/>
      </g>
     </g>
     <g id="text_14">
      <!-- 2.75 -->
      <g transform="translate(81 187.469531)scale(0.1 -0.1)">
       <use xlink:href="#MicrosoftYaHei-32"/>
       <use x="58.642578" xlink:href="#MicrosoftYaHei-2e"/>
       <use x="82.714844" xlink:href="#MicrosoftYaHei-37"/>
       <use x="141.357422" xlink:href="#MicrosoftYaHei-35"/>
      </g>
     </g>
    </g>
    <g id="ytick_6">
     <g id="line2d_27">
      <path clip-path="url(#p4d1d63714a)" d="M 108 149.885195 
L 777.6 149.885195 
" style="fill:none;stroke:#b0b0b0;stroke-linecap:square;stroke-width:0.8;"/>
     </g>
     <g id="line2d_28">
      <g>
       <use style="stroke:#000000;stroke-width:0.8;" x="108" xlink:href="#md0384678ed" y="149.885195"/>
      </g>
     </g>
     <g id="text_15">
      <!-- 3.00 -->
      <defs>
       <path d="M 6.984375 12.640625 
Q 14.75 6.640625 24.515625 6.640625 
Q 32.328125 6.640625 36.890625 10.46875 
Q 41.453125 14.3125 41.453125 20.75 
Q 41.453125 35.109375 20.90625 35.109375 
L 14.59375 35.109375 
L 14.59375 43.015625 
L 20.609375 43.015625 
Q 38.8125 43.015625 38.8125 56.5 
Q 38.8125 68.953125 24.90625 68.953125 
Q 16.9375 68.953125 9.90625 63.578125 
L 9.90625 72.609375 
Q 17.328125 76.90625 27.25 76.90625 
Q 36.921875 76.90625 42.78125 71.84375 
Q 48.640625 66.796875 48.640625 58.734375 
Q 48.640625 43.890625 33.5 39.65625 
L 33.5 39.453125 
Q 41.703125 38.578125 46.453125 33.671875 
Q 51.21875 28.765625 51.21875 21.4375 
Q 51.21875 11.234375 43.875 4.984375 
Q 36.53125 -1.265625 24.3125 -1.265625 
Q 13.578125 -1.265625 6.984375 2.734375 
z
" id="MicrosoftYaHei-33"/>
      </defs>
      <g transform="translate(81 153.88207)scale(0.1 -0.1)">
       <use xlink:href="#MicrosoftYaHei-33"/>
       <use x="58.642578" xlink:href="#MicrosoftYaHei-2e"/>
       <use x="82.714844" xlink:href="#MicrosoftYaHei-30"/>
       <use x="141.357422" xlink:href="#MicrosoftYaHei-30"/>
      </g>
     </g>
    </g>
    <g id="ytick_7">
     <g id="line2d_29">
      <path clip-path="url(#p4d1d63714a)" d="M 108 116.297734 
L 777.6 116.297734 
" style="fill:none;stroke:#b0b0b0;stroke-linecap:square;stroke-width:0.8;"/>
     </g>
     <g id="line2d_30">
      <g>
       <use style="stroke:#000000;stroke-width:0.8;" x="108" xlink:href="#md0384678ed" y="116.297734"/>
      </g>
     </g>
     <g id="text_16">
      <!-- 3.25 -->
      <g transform="translate(81 120.294609)scale(0.1 -0.1)">
       <use xlink:href="#MicrosoftYaHei-33"/>
       <use x="58.642578" xlink:href="#MicrosoftYaHei-2e"/>
       <use x="82.714844" xlink:href="#MicrosoftYaHei-32"/>
       <use x="141.357422" xlink:href="#MicrosoftYaHei-35"/>
      </g>
     </g>
    </g>
    <g id="ytick_8">
     <g id="line2d_31">
      <path clip-path="url(#p4d1d63714a)" d="M 108 82.710273 
L 777.6 82.710273 
" style="fill:none;stroke:#b0b0b0;stroke-linecap:square;stroke-width:0.8;"/>
     </g>
     <g id="line2d_32">
      <g>
       <use style="stroke:#000000;stroke-width:0.8;" x="108" xlink:href="#md0384678ed" y="82.710273"/>
      </g>
     </g>
     <g id="text_17">
      <!-- 3.50 -->
      <g transform="translate(81 86.707148)scale(0.1 -0.1)">
       <use xlink:href="#MicrosoftYaHei-33"/>
       <use x="58.642578" xlink:href="#MicrosoftYaHei-2e"/>
       <use x="82.714844" xlink:href="#MicrosoftYaHei-35"/>
       <use x="141.357422" xlink:href="#MicrosoftYaHei-30"/>
      </g>
     </g>
    </g>
    <g id="ytick_9">
     <g id="line2d_33">
      <path clip-path="url(#p4d1d63714a)" d="M 108 49.122813 
L 777.6 49.122813 
" style="fill:none;stroke:#b0b0b0;stroke-linecap:square;stroke-width:0.8;"/>
     </g>
     <g id="line2d_34">
      <g>
       <use style="stroke:#000000;stroke-width:0.8;" x="108" xlink:href="#md0384678ed" y="49.122813"/>
      </g>
     </g>
     <g id="text_18">
      <!-- 3.75 -->
      <g transform="translate(81 53.119688)scale(0.1 -0.1)">
       <use xlink:href="#MicrosoftYaHei-33"/>
       <use x="58.642578" xlink:href="#MicrosoftYaHei-2e"/>
       <use x="82.714844" xlink:href="#MicrosoftYaHei-37"/>
       <use x="141.357422" xlink:href="#MicrosoftYaHei-35"/>
      </g>
     </g>
    </g>
   </g>
   <g id="line2d_35">
    <path clip-path="url(#p4d1d63714a)" d="M 108 226.128731 
L 109.83956 222.716245 
L 111.679121 217.704995 
L 113.518681 214.225335 
L 115.358242 217.893085 
L 117.197802 211.981692 
L 119.037363 213.002751 
L 120.876923 221.036872 
L 122.716484 220.754737 
L 124.556044 218.658879 
L 126.395604 228.520158 
L 128.235165 244.897404 
L 130.074725 244.507789 
L 131.914286 245.434803 
L 133.753846 243.500165 
L 135.593407 245.609458 
L 137.432967 251.588026 
L 139.272527 265.735064 
L 141.112088 281.427126 
L 142.951648 282.636274 
L 144.791209 290.119561 
L 146.630769 290.253911 
L 148.47033 288.883542 
L 150.30989 296.272783 
L 152.149451 289.004457 
L 153.989011 283.576723 
L 157.668132 268.663891 
L 159.507692 262.174793 
L 161.347253 256.20966 
L 163.186813 255.994701 
L 165.026374 260.6029 
L 166.865934 261.019385 
L 168.705495 265.143925 
L 170.545055 264.391566 
L 174.224176 265.063315 
L 176.063736 268.045882 
L 179.742857 265.412625 
L 181.582418 265.332015 
L 183.421978 266.527728 
L 185.261538 266.366509 
L 187.101099 267.118868 
L 188.940659 266.487423 
L 190.78022 264.001951 
L 192.61978 264.606526 
L 194.459341 266.312769 
L 196.298901 270.235784 
L 198.138462 267.817487 
L 199.978022 269.980519 
L 201.817582 277.168236 
L 203.657143 274.373759 
L 205.496703 272.237597 
L 207.336264 271.928592 
L 209.175824 267.535352 
L 211.015385 254.745247 
L 212.854945 254.342198 
L 214.694505 254.207848 
L 216.534066 275.529168 
L 218.373626 301.163118 
L 220.213187 307.8 
L 222.052747 302.211047 
L 223.892308 294.056011 
L 225.731868 293.921661 
L 227.571429 290.60322 
L 229.410989 283.496113 
L 231.250549 265.251405 
L 233.09011 257.056064 
L 234.92967 248.296455 
L 236.769231 248.14867 
L 238.608791 242.680631 
L 240.448352 246.684257 
L 242.287912 248.000885 
L 244.127473 246.012507 
L 245.967033 251.037191 
L 247.806593 241.081868 
L 249.646154 242.398497 
L 251.485714 244.252524 
L 253.325275 246.590212 
L 255.164835 246.106552 
L 257.004396 246.737996 
L 258.843956 247.141046 
L 260.683516 250.499792 
L 262.523077 257.029194 
L 264.362637 256.69332 
L 266.202198 254.973642 
L 268.041758 249.948958 
L 269.881319 255.188602 
L 271.720879 247.490356 
L 273.56044 242.049187 
L 277.23956 236.245274 
L 279.079121 245.757243 
L 280.918681 240.907213 
L 282.758242 240.289204 
L 284.597802 233.249272 
L 286.437363 228.426113 
L 288.276923 234.727121 
L 290.116484 236.285579 
L 291.956044 236.366189 
L 293.795604 235.53322 
L 295.635165 231.368374 
L 297.474725 230.360751 
L 299.314286 222.958074 
L 301.153846 221.614576 
L 302.993407 214.588079 
L 304.832967 214.359684 
L 306.672527 210.006749 
L 308.512088 210.006749 
L 310.351648 207.521277 
L 312.191209 199.621507 
L 314.030769 186.468657 
L 315.87033 179.563075 
L 317.70989 177.467218 
L 319.549451 177.413478 
L 321.389011 179.54964 
L 323.228571 180.946878 
L 325.068132 200.091731 
L 326.907692 201.569579 
L 330.586813 201.569579 
L 332.426374 213.876025 
L 334.265934 220.969697 
L 336.105495 240.557904 
L 337.945055 238.435176 
L 339.784615 242.371627 
L 341.624176 238.032127 
L 343.463736 236.943893 
L 345.303297 248.17554 
L 347.142857 243.75543 
L 348.982418 244.037565 
L 350.821978 241.269958 
L 352.661538 242.882156 
L 354.501099 244.951144 
L 356.340659 237.844037 
L 358.18022 240.490729 
L 360.01978 242.626891 
L 361.859341 242.680631 
L 363.698901 245.931897 
L 365.538462 246.791736 
L 367.378022 255.631956 
L 369.217582 252.582215 
L 371.057143 256.679885 
L 372.896703 256.5321 
L 376.575824 256.5321 
L 378.415385 256.814235 
L 380.254945 259.340012 
L 382.094505 260.696945 
L 383.934066 262.215098 
L 385.773626 283.455808 
L 387.613187 275.824737 
L 391.292308 276.026262 
L 393.131868 277.396631 
L 394.971429 279.317833 
L 396.810989 277.181671 
L 398.650549 258.936962 
L 400.49011 264.149736 
L 402.32967 266.151549 
L 404.169231 282.864669 
L 406.008791 289.205982 
L 407.848352 280.567287 
L 409.687912 284.060383 
L 411.527473 289.259722 
L 413.367033 290.428565 
L 415.206593 293.612657 
L 417.046154 283.428939 
L 418.885714 284.100688 
L 420.725275 263.330202 
L 422.564835 263.692947 
L 426.243956 261.973269 
L 428.083516 263.464552 
L 429.923077 263.598902 
L 431.762637 264.80805 
L 433.602198 269.967084 
L 435.441758 271.942027 
L 437.281319 266.863603 
L 439.120879 263.907906 
L 440.96044 265.063315 
L 442.8 277.221976 
L 444.63956 273.137741 
L 446.479121 273.339265 
L 448.318681 274.629024 
L 450.158242 263.101807 
L 451.997802 262.873413 
L 453.837363 261.03282 
L 455.676923 260.68351 
L 457.516484 269.940214 
L 459.356044 257.109804 
L 461.195604 259.178792 
L 463.035165 257.284459 
L 464.874725 253.777928 
L 466.714286 259.111617 
L 468.553846 267.481612 
L 470.393407 258.842917 
L 472.232967 261.328389 
L 474.072527 260.52229 
L 475.912088 255.954396 
L 477.751648 255.954396 
L 479.591209 250.983452 
L 481.430769 250.043003 
L 483.27033 249.371253 
L 485.10989 247.785925 
L 486.949451 247.476921 
L 488.789011 244.561529 
L 490.628571 245.716938 
L 492.468132 237.078243 
L 494.307692 233.544842 
L 496.147253 236.406494 
L 497.986813 240.074244 
L 499.826374 246.240902 
L 501.665934 245.434803 
L 503.505495 248.981639 
L 505.345055 246.899216 
L 507.184615 243.083681 
L 509.024176 242.586586 
L 510.863736 244.816794 
L 512.703297 242.761241 
L 514.542857 231.207155 
L 516.382418 235.42574 
L 520.061538 230.54884 
L 521.901099 228.345503 
L 523.740659 228.950077 
L 525.58022 228.318633 
L 527.41978 229.783046 
L 531.098901 228.318633 
L 534.778022 229.070992 
L 536.617582 226.437735 
L 538.457143 223.119294 
L 540.296703 226.303385 
L 542.136264 237.078243 
L 543.975824 239.63089 
L 545.815385 249.760868 
L 547.654945 251.131236 
L 549.494505 250.163917 
L 551.334066 252.770304 
L 553.173626 252.32695 
L 555.013187 259.111617 
L 556.852747 258.090558 
L 558.692308 261.919529 
L 560.531868 277.396631 
L 562.371429 275.220163 
L 564.210989 278.928219 
L 566.050549 277.369761 
L 567.89011 276.335267 
L 569.72967 279.976148 
L 571.569231 276.926406 
L 573.408791 278.955089 
L 575.248352 279.922408 
L 577.087912 272.358511 
L 578.927473 266.688948 
L 580.767033 262.416623 
L 582.606593 264.190041 
L 584.446154 258.063688 
L 586.285714 256.20966 
L 588.125275 258.950397 
L 589.964835 256.96202 
L 591.804396 254.382503 
L 593.643956 248.135235 
L 595.483516 246.590212 
L 597.323077 242.586586 
L 599.162637 239.87272 
L 601.002198 242.828416 
L 602.841758 239.859285 
L 604.681319 239.7115 
L 606.520879 238.502351 
L 608.36044 238.475481 
L 610.2 241.216218 
L 612.03956 237.360377 
L 613.879121 236.554278 
L 615.718681 237.051373 
L 617.558242 232.470043 
L 619.397802 229.984571 
L 621.237363 230.454796 
L 623.076923 232.577523 
L 624.916484 225.819726 
L 626.756044 225.537591 
L 628.595604 225.456981 
L 630.435165 224.355313 
L 632.274725 222.501285 
L 634.114286 220.297947 
L 635.953846 218.967884 
L 637.793407 224.046308 
L 639.632967 224.959887 
L 641.472527 225.094237 
L 643.312088 228.493288 
L 645.151648 227.593144 
L 646.991209 231.27433 
L 648.830769 228.614203 
L 652.50989 230.562275 
L 654.349451 231.999819 
L 656.189011 228.238023 
L 658.028571 230.065181 
L 659.868132 230.4951 
L 661.707692 241.659572 
L 663.547253 242.976201 
L 665.386813 241.699877 
L 667.226374 244.816794 
L 669.065934 246.106552 
L 670.905495 247.060436 
L 672.745055 251.762681 
L 674.584615 247.167916 
L 676.424176 245.999072 
L 678.263736 250.647577 
L 680.103297 251.292456 
L 681.942857 252.27321 
L 683.782418 247.82623 
L 685.621978 246.093117 
L 689.301099 244.292829 
L 691.140659 243.083681 
L 692.98022 247.8531 
L 694.81978 236.984198 
L 696.659341 235.600395 
L 698.498901 234.633076 
L 700.338462 226.98857 
L 702.178022 226.169036 
L 704.017582 230.186096 
L 705.857143 221.077177 
L 707.696703 220.123293 
L 711.375824 219.491848 
L 713.215385 216.079362 
L 715.054945 216.240582 
L 716.894505 217.167596 
L 718.734066 209.939575 
L 720.573626 212.814661 
L 722.413187 216.092797 
L 724.252747 217.96026 
L 726.092308 217.71843 
L 727.931868 214.856779 
L 729.771429 213.822285 
L 731.610989 214.574644 
L 733.450549 216.992941 
L 735.29011 220.835347 
L 737.12967 221.278701 
L 738.969231 223.025249 
L 740.808791 222.689375 
L 742.648352 220.983132 
L 744.487912 223.629824 
L 746.327473 220.432297 
L 748.167033 225.282327 
L 750.006593 225.994381 
L 751.846154 229.191907 
L 753.685714 224.650882 
L 755.525275 221.97732 
L 757.364835 220.082988 
L 759.204396 223.240209 
L 761.043956 224.758362 
L 762.883516 222.313195 
L 764.723077 225.121107 
L 766.562637 229.057557 
L 768.402198 228.735118 
L 770.241758 230.320446 
L 772.081319 228.573898 
L 773.920879 227.714059 
L 775.76044 229.205342 
L 777.6 237.158853 
L 777.6 237.158853 
" style="fill:none;stroke:#1f77b4;stroke-linecap:square;stroke-width:1.5;"/>
   </g>
   <g id="line2d_36">
    <path clip-path="url(#p4d1d63714a)" d="M 108 141.098715 
L 111.679121 141.098715 
L 113.518681 146.405534 
L 115.358242 146.405534 
L 117.197802 143.060223 
L 124.556044 143.060223 
L 126.395604 148.407347 
L 128.235165 151.094343 
L 130.074725 162.984305 
L 131.914286 165.792216 
L 133.753846 171.24682 
L 137.432967 180.490089 
L 139.272527 186.871707 
L 142.951648 203.222082 
L 144.791209 200.535086 
L 146.630769 187.140406 
L 148.47033 186.804532 
L 150.30989 175.008615 
L 152.149451 175.116095 
L 153.989011 171.38117 
L 155.828571 171.27369 
L 157.668132 165.563822 
L 159.507692 163.266439 
L 161.347253 157.516266 
L 163.186813 162.86339 
L 165.026374 166.128091 
L 166.865934 171.703609 
L 168.705495 169.433097 
L 170.545055 167.753724 
L 172.384615 168.788218 
L 174.224176 172.133529 
L 176.063736 170.695985 
L 177.903297 171.555824 
L 179.742857 170.360111 
L 181.582418 170.440721 
L 183.421978 171.19308 
L 185.261538 170.87064 
L 187.101099 171.287125 
L 188.940659 170.615376 
L 190.78022 170.172021 
L 192.61978 168.801653 
L 194.459341 168.385168 
L 196.298901 168.210513 
L 198.138462 166.101221 
L 199.978022 148.514826 
L 201.817582 145.66661 
L 203.657143 146.311489 
L 205.496703 146.244314 
L 207.336264 146.513014 
L 209.175824 147.507203 
L 212.854945 151.228693 
L 214.694505 154.493394 
L 216.534066 155.541323 
L 218.373626 158.107405 
L 220.213187 158.01336 
L 222.052747 164.636808 
L 223.892308 164.609938 
L 225.731868 166.007176 
L 227.571429 164.636808 
L 229.410989 162.957435 
L 234.92967 162.957435 
L 236.769231 164.945812 
L 238.608791 169.204702 
L 240.448352 169.204702 
L 242.287912 170.84377 
L 244.127473 174.027862 
L 245.967033 176.029674 
L 247.806593 176.029674 
L 249.646154 178.662931 
L 251.485714 178.595756 
L 253.325275 179.939255 
L 257.004396 186.576137 
L 258.843956 193.266759 
L 260.683516 195.752231 
L 262.523077 201.972629 
L 264.362637 204.793976 
L 266.202198 209.133476 
L 268.041758 215.824098 
L 269.881319 215.985317 
L 271.720879 215.824098 
L 273.56044 214.494034 
L 275.4 217.490036 
L 277.23956 218.511095 
L 279.079121 215.515093 
L 280.918681 216.966071 
L 282.758242 217.731865 
L 284.597802 219.747113 
L 286.437363 221.090612 
L 288.276923 219.397803 
L 290.116484 219.438108 
L 291.956044 222.38037 
L 293.795604 222.38037 
L 295.635165 222.635635 
L 297.474725 222.43411 
L 299.314286 219.223149 
L 301.153846 220.526342 
L 302.993407 222.340065 
L 304.832967 222.205715 
L 306.672527 219.854593 
L 308.512088 220.942827 
L 310.351648 218.927579 
L 312.191209 190.042363 
L 315.87033 192.796535 
L 317.70989 189.585573 
L 319.549451 188.22864 
L 321.389011 190.176713 
L 323.228571 195.416357 
L 325.068132 203.222082 
L 326.907692 203.625132 
L 330.586813 203.625132 
L 332.426374 216.872026 
L 334.265934 216.831721 
L 339.784615 236.836413 
L 341.624176 233.491102 
L 343.463736 235.50635 
L 345.303297 229.621827 
L 347.142857 227.002005 
L 348.982418 225.860031 
L 350.821978 235.869094 
L 352.661538 237.212593 
L 354.501099 237.239463 
L 356.340659 227.687189 
L 358.18022 230.508535 
L 360.01978 229.165037 
L 361.859341 230.441361 
L 363.698901 233.128357 
L 365.538462 231.019065 
L 367.378022 232.147604 
L 369.217582 233.141792 
L 371.057143 232.201343 
L 372.896703 237.078243 
L 376.575824 237.131983 
L 378.415385 238.811356 
L 380.254945 243.218031 
L 382.094505 240.557904 
L 383.934066 242.183537 
L 385.773626 242.667196 
L 387.613187 241.162478 
L 389.452747 242.035752 
L 391.292308 243.218031 
L 393.131868 239.14723 
L 394.971429 235.976574 
L 396.810989 238.018692 
L 398.650549 236.594583 
L 400.49011 231.838599 
L 402.32967 229.783046 
L 404.169231 225.954076 
L 406.008791 224.556837 
L 407.848352 224.704622 
L 409.687912 223.965698 
L 411.527473 223.347689 
L 415.206593 224.167223 
L 417.046154 222.259455 
L 418.885714 221.023437 
L 420.725275 220.835347 
L 422.564835 222.00419 
L 424.404396 220.109858 
L 426.243956 219.921768 
L 428.083516 221.117481 
L 429.923077 223.804478 
L 431.762637 221.695186 
L 433.602198 219.814288 
L 435.441758 221.010002 
L 437.281319 221.507096 
L 439.120879 224.073178 
L 440.96044 225.430111 
L 442.8 225.027062 
L 448.318681 220.297947 
L 450.158242 220.472602 
L 451.997802 221.574271 
L 453.837363 220.378557 
L 455.676923 219.827723 
L 457.516484 214.373119 
L 459.356044 212.545962 
L 461.195604 205.55977 
L 463.035165 188.09429 
L 464.874725 194.059423 
L 466.714286 192.917449 
L 470.393407 189.921448 
L 472.232967 190.620067 
L 474.072527 191.506776 
L 475.912088 193.656374 
L 479.591209 187.194146 
L 481.430769 191.506776 
L 483.27033 191.506776 
L 485.10989 192.957754 
L 486.949451 193.360804 
L 488.789011 192.86371 
L 490.628571 195.322312 
L 492.468132 192.205395 
L 494.307692 192.286005 
L 496.147253 193.105539 
L 497.986813 192.232265 
L 499.826374 192.474095 
L 501.665934 193.213019 
L 503.505495 195.658186 
L 505.345055 195.255137 
L 507.184615 190.190148 
L 509.024176 190.861897 
L 510.863736 191.372426 
L 512.703297 183.002431 
L 514.542857 185.461033 
L 516.382418 188.1749 
L 520.061538 193.011494 
L 521.901099 191.076857 
L 523.740659 194.086293 
L 525.58022 195.134222 
L 527.41978 196.34337 
L 531.098901 193.253324 
L 532.938462 192.21883 
L 534.778022 188.107725 
L 536.617582 185.649123 
L 538.457143 186.643312 
L 540.296703 186.562702 
L 542.136264 187.086666 
L 543.975824 191.681431 
L 545.815385 195.456662 
L 547.654945 195.120787 
L 549.494505 195.658186 
L 551.334066 195.510401 
L 553.173626 196.034366 
L 555.013187 197.861524 
L 556.852747 196.182151 
L 558.692308 200.091731 
L 560.531868 204.619321 
L 562.371429 205.707555 
L 564.210989 204.202836 
L 566.050549 202.281634 
L 567.89011 200.037991 
L 569.72967 204.726801 
L 571.569231 203.208647 
L 573.408791 201.126225 
L 575.248352 200.346996 
L 577.087912 200.320126 
L 578.927473 198.546708 
L 580.767033 198.492968 
L 582.606593 199.003497 
L 584.446154 198.439228 
L 586.285714 199.567767 
L 588.125275 199.366242 
L 589.964835 199.366242 
L 591.804396 200.037991 
L 595.483516 199.796161 
L 597.323077 201.16653 
L 599.162637 201.542709 
L 601.002198 203.987877 
L 602.841758 205.304505 
L 604.681319 207.333188 
L 606.520879 207.386928 
L 608.36044 206.957008 
L 610.2 207.736237 
L 612.03956 204.88802 
L 613.879121 204.767106 
L 615.718681 205.02237 
L 617.558242 204.095356 
L 619.397802 204.310316 
L 621.237363 204.041616 
L 623.076923 203.463912 
L 624.916484 199.863336 
L 628.595604 201.00531 
L 630.435165 202.536898 
L 632.274725 200.158906 
L 634.114286 200.132036 
L 635.953846 199.446852 
L 637.793407 201.22027 
L 641.472527 200.467911 
L 643.312088 199.594637 
L 645.151648 201.892019 
L 646.991209 202.254764 
L 648.830769 199.621507 
L 650.67033 200.938135 
L 652.50989 202.026369 
L 654.349451 203.463912 
L 656.189011 204.149096 
L 658.028571 204.122226 
L 659.868132 210.302319 
L 661.707692 210.248579 
L 663.547253 207.413798 
L 665.386813 208.300506 
L 667.226374 208.273637 
L 669.065934 210.302319 
L 672.745055 211.511468 
L 674.584615 210.436669 
L 676.424176 208.622946 
L 678.263736 210.167969 
L 680.103297 208.421421 
L 681.942857 208.313941 
L 683.782418 209.65744 
L 685.621978 209.724615 
L 687.461538 213.51328 
L 689.301099 210.356059 
L 691.140659 209.120041 
L 692.98022 209.966445 
L 694.81978 207.951197 
L 696.659341 205.546335 
L 698.498901 206.527089 
L 700.338462 200.199211 
L 702.178022 198.425793 
L 704.017582 200.884395 
L 705.857143 199.352807 
L 707.696703 198.667623 
L 709.536264 194.973002 
L 711.375824 194.919262 
L 713.215385 195.886581 
L 715.054945 194.838652 
L 718.734066 194.878957 
L 720.573626 195.725361 
L 722.413187 195.846276 
L 724.252747 196.437415 
L 726.092308 195.577576 
L 727.931868 190.485717 
L 729.771429 192.635315 
L 731.610989 191.842651 
L 733.450549 195.268572 
L 735.29011 197.270384 
L 738.969231 198.452663 
L 740.808791 198.533273 
L 742.648352 197.297254 
L 744.487912 196.706115 
L 746.327473 198.667623 
L 748.167033 196.90764 
L 750.006593 197.834654 
L 751.846154 196.82703 
L 755.525275 200.467911 
L 757.364835 199.634942 
L 759.204396 198.063048 
L 762.883516 198.788538 
L 764.723077 202.227894 
L 766.562637 202.227894 
L 768.402198 201.811409 
L 770.241758 200.494781 
L 772.081319 199.514027 
L 773.920879 201.13966 
L 775.76044 204.041616 
L 777.6 206.379304 
L 777.6 206.379304 
" style="fill:none;stroke:#ff7f0e;stroke-linecap:square;stroke-width:1.5;"/>
   </g>
   <g id="line2d_37">
    <path clip-path="url(#p4d1d63714a)" d="M 108 81.27273 
L 109.83956 80.587546 
L 111.679121 84.618041 
L 113.518681 85.28979 
L 115.358242 85.28979 
L 117.197802 86.633289 
L 119.037363 90.650349 
L 120.876923 80.896551 
L 122.716484 80.211366 
L 124.556044 74.447758 
L 126.395604 74.461193 
L 128.235165 77.860244 
L 130.074725 79.862057 
L 131.914286 79.848622 
L 133.753846 85.236051 
L 135.593407 87.573738 
L 137.432967 86.566114 
L 139.272527 88.527622 
L 141.112088 88.514187 
L 142.951648 84.376212 
L 144.791209 79.727707 
L 146.630769 76.315221 
L 148.47033 75.656907 
L 150.30989 71.612976 
L 152.149451 75.737517 
L 155.828571 67.380956 
L 157.668132 62.235357 
L 159.507692 64.895484 
L 161.347253 65.244794 
L 163.186813 68.267665 
L 165.026374 67.918356 
L 166.865934 65.540364 
L 168.705495 65.204489 
L 170.545055 67.918356 
L 172.384615 67.918356 
L 174.224176 71.948851 
L 176.063736 72.6206 
L 177.903297 69.933603 
L 179.742857 67.918356 
L 183.421978 67.918356 
L 185.261538 65.231359 
L 187.101099 61.872613 
L 188.940659 59.185616 
L 190.78022 61.872613 
L 192.61978 62.208487 
L 194.459341 64.55961 
L 196.298901 64.882049 
L 198.138462 63.202676 
L 201.817582 55.8 
L 203.657143 59.172181 
L 205.496703 59.145311 
L 209.175824 65.876238 
L 211.015385 67.219737 
L 212.854945 67.878051 
L 214.694505 67.891486 
L 216.534066 67.192867 
L 220.213187 67.179432 
L 222.052747 71.881676 
L 225.731868 71.196492 
L 227.571429 72.53999 
L 229.410989 71.868241 
L 231.250549 75.885301 
L 233.09011 73.870054 
L 234.92967 70.484438 
L 236.769231 73.18487 
L 238.608791 77.215365 
L 242.287912 77.20193 
L 244.127473 81.21899 
L 245.967033 80.547241 
L 247.806593 81.554865 
L 249.646154 83.570112 
L 251.485714 76.516746 
L 253.325275 78.518558 
L 255.164835 81.19212 
L 257.004396 85.222616 
L 258.843956 85.222616 
L 260.683516 85.894365 
L 262.523077 84.523996 
L 264.362637 86.203369 
L 266.202198 93.216431 
L 268.041758 97.287231 
L 269.881319 102.661225 
L 271.720879 99.208434 
L 273.56044 99.221869 
L 275.4 99.960793 
L 277.23956 97.260361 
L 279.079121 97.260361 
L 280.918681 94.116575 
L 282.758242 96.145258 
L 284.597802 100.175753 
L 286.437363 101.519251 
L 290.116484 102.86275 
L 291.956044 108.908493 
L 293.795604 112.938988 
L 295.635165 112.925553 
L 297.474725 111.555185 
L 299.314286 113.906307 
L 301.153846 114.255617 
L 302.993407 113.570432 
L 304.832967 105.401962 
L 306.672527 103.292669 
L 308.512088 100.001098 
L 310.351648 99.987663 
L 312.191209 104.045029 
L 314.030769 109.539937 
L 315.87033 107.323165 
L 317.70989 103.091145 
L 319.549451 108.062089 
L 321.389011 109.432457 
L 323.228571 113.489822 
L 325.068132 118.783206 
L 326.907692 119.454955 
L 330.586813 119.454955 
L 332.426374 126.588932 
L 334.265934 130.941867 
L 336.105495 129.558064 
L 337.945055 129.638674 
L 339.784615 133.615429 
L 343.463736 136.369601 
L 345.303297 135.670982 
L 347.142857 132.46002 
L 348.982418 131.304612 
L 350.821978 139.876132 
L 352.661538 139.674607 
L 354.501099 137.659359 
L 356.340659 135.953116 
L 358.18022 135.496327 
L 360.01978 133.897564 
L 361.859341 131.909186 
L 363.698901 131.103087 
L 365.538462 131.116522 
L 367.378022 133.145204 
L 369.217582 134.421528 
L 371.057143 135.953116 
L 372.896703 136.020291 
L 374.736264 136.74578 
L 376.575824 136.893565 
L 378.415385 140.883755 
L 380.254945 139.835827 
L 382.094505 140.225441 
L 383.934066 140.131396 
L 385.773626 139.217817 
L 387.613187 135.187322 
L 389.452747 132.70185 
L 391.292308 133.816954 
L 393.131868 131.600181 
L 394.971429 130.391033 
L 396.810989 125.876878 
L 398.650549 124.654294 
L 400.49011 127.193506 
L 402.32967 126.629237 
L 404.169231 124.761774 
L 406.008791 122.706222 
L 407.848352 121.013414 
L 409.687912 122.733092 
L 411.527473 128.7654 
L 413.367033 130.767212 
L 415.206593 131.425526 
L 417.046154 130.753777 
L 418.885714 131.412091 
L 420.725275 130.068593 
L 422.564835 131.398657 
L 426.243956 131.385222 
L 428.083516 130.364163 
L 429.923077 132.54063 
L 431.762637 135.375412 
L 433.602198 138.720723 
L 435.441758 141.38085 
L 437.281319 138.035539 
L 439.120879 141.367415 
L 440.96044 140.709101 
L 442.8 131.989796 
L 444.63956 127.300986 
L 446.479121 118.568247 
L 448.318681 113.892872 
L 450.158242 116.539564 
L 451.997802 111.16557 
L 453.837363 110.493821 
L 455.676923 112.482199 
L 457.516484 105.092957 
L 459.356044 99.692094 
L 461.195604 96.991662 
L 463.035165 96.978227 
L 464.874725 101.667036 
L 466.714286 99.624919 
L 468.553846 94.922674 
L 470.393407 96.239303 
L 472.232967 91.537058 
L 475.912088 95.567553 
L 477.751648 95.567553 
L 479.591209 92.544682 
L 481.430769 97.905241 
L 483.27033 98.17394 
L 485.10989 102.191001 
L 486.949451 102.177566 
L 488.789011 103.856939 
L 490.628571 108.021784 
L 492.468132 109.351847 
L 494.307692 113.489822 
L 496.147253 111.474575 
L 499.826374 114.121267 
L 501.665934 114.080962 
L 503.505495 113.382343 
L 507.184615 106.033406 
L 509.024176 108.236744 
L 510.863736 107.900869 
L 512.703297 102.86275 
L 514.542857 108.236744 
L 516.382418 111.259615 
L 518.221978 112.938988 
L 520.061538 112.925553 
L 521.901099 117.627798 
L 523.740659 121.658293 
L 525.58022 121.671728 
L 527.41978 121.188068 
L 529.259341 119.643045 
L 531.098901 114.269052 
L 532.938462 114.940801 
L 536.617582 118.957861 
L 538.457143 119.62961 
L 540.296703 118.957861 
L 542.136264 117.278488 
L 543.975824 118.286112 
L 545.815385 118.944426 
L 547.654945 116.929178 
L 549.494505 118.272677 
L 553.173626 115.58568 
L 555.013187 119.60274 
L 556.852747 119.60274 
L 558.692308 126.991982 
L 560.531868 129.007229 
L 562.371429 130.014853 
L 564.210989 126.978547 
L 566.050549 125.635048 
L 567.89011 127.314421 
L 569.72967 126.965112 
L 571.569231 127.314421 
L 573.408791 129.316234 
L 575.248352 125.944053 
L 577.087912 126.615802 
L 578.927473 126.279927 
L 580.767033 128.28174 
L 582.606593 128.940054 
L 584.446154 129.947678 
L 586.285714 129.947678 
L 588.125275 126.911372 
L 589.964835 127.918996 
L 591.804396 127.569686 
L 593.643956 125.218564 
L 595.483516 126.226188 
L 597.323077 129.034099 
L 599.162637 129.907373 
L 601.002198 137.605619 
L 602.841758 142.321299 
L 604.681319 141.64955 
L 606.520879 142.979613 
L 608.36044 143.637927 
L 610.2 146.983238 
L 612.03956 144.632116 
L 613.879121 149.334361 
L 615.718681 148.474522 
L 617.558242 148.340172 
L 619.397802 146.969803 
L 621.237363 147.319113 
L 623.076923 145.626305 
L 624.916484 142.267559 
L 626.756044 142.589998 
L 628.595604 141.233065 
L 630.435165 143.248313 
L 632.274725 142.899003 
L 634.114286 142.899003 
L 635.953846 145.572565 
L 637.793407 142.186949 
L 639.632967 140.171701 
L 641.472527 141.501765 
L 643.312088 143.530447 
L 645.151648 147.560943 
L 646.991209 147.560943 
L 648.830769 146.526449 
L 650.67033 144.175327 
L 652.50989 142.831828 
L 654.349451 138.116149 
L 656.189011 137.444399 
L 658.028571 135.429152 
L 659.868132 132.715285 
L 661.707692 135.738156 
L 663.547253 136.71891 
L 665.386813 136.383036 
L 667.226374 133.696039 
L 669.065934 134.340918 
L 670.905495 131.331482 
L 672.745055 129.974548 
L 674.584615 130.619427 
L 676.424176 130.928432 
L 678.263736 135.603807 
L 680.103297 135.254497 
L 681.942857 132.5675 
L 683.782418 128.872879 
L 685.621978 126.830762 
L 687.461538 127.838386 
L 691.140659 127.139766 
L 692.98022 128.805705 
L 694.81978 124.761774 
L 696.659341 120.381969 
L 698.498901 120.381969 
L 700.338462 121.376158 
L 702.178022 120.381969 
L 704.017582 118.017412 
L 705.857143 110.601301 
L 709.536264 107.900869 
L 711.375824 111.19244 
L 713.215385 112.844943 
L 715.054945 110.198251 
L 716.894505 116.915743 
L 718.734066 115.55881 
L 720.573626 113.127078 
L 722.413187 112.737463 
L 724.252747 116.794829 
L 726.092308 115.625985 
L 727.931868 118.044282 
L 729.771429 115.55881 
L 731.610989 118.245807 
L 733.450549 123.109271 
L 735.29011 126.468017 
L 740.808791 126.414277 
L 742.648352 124.694599 
L 744.487912 127.381596 
L 746.327473 127.045722 
L 748.167033 127.717471 
L 750.006593 127.717471 
L 751.846154 122.182257 
L 753.685714 126.427712 
L 755.525275 126.360537 
L 757.364835 126.024663 
L 759.204396 126.360537 
L 761.043956 124.31842 
L 762.883516 126.024663 
L 764.723077 127.018852 
L 766.562637 127.690601 
L 768.402198 125.326044 
L 770.241758 124.976734 
L 772.081319 121.228373 
L 775.76044 121.147764 
L 777.6 125.594743 
L 777.6 125.594743 
" style="fill:none;stroke:#2ca02c;stroke-linecap:square;stroke-width:1.5;"/>
   </g>
   <g id="patch_3">
    <path d="M 108 320.4 
L 108 43.2 
" style="fill:none;stroke:#000000;stroke-linecap:square;stroke-linejoin:miter;stroke-width:0.8;"/>
   </g>
   <g id="patch_4">
    <path d="M 777.6 320.4 
L 777.6 43.2 
" style="fill:none;stroke:#000000;stroke-linecap:square;stroke-linejoin:miter;stroke-width:0.8;"/>
   </g>
   <g id="patch_5">
    <path d="M 108 320.4 
L 777.6 320.4 
" style="fill:none;stroke:#000000;stroke-linecap:square;stroke-linejoin:miter;stroke-width:0.8;"/>
   </g>
   <g id="patch_6">
    <path d="M 108 43.2 
L 777.6 43.2 
" style="fill:none;stroke:#000000;stroke-linecap:square;stroke-linejoin:miter;stroke-width:0.8;"/>
   </g>
   <g id="text_19">
    <!-- 中债国债收益率曲线 -->
    <defs>
     <path d="M 8.203125 62.0625 
L 45.796875 62.0625 
L 45.796875 83.34375 
L 54.203125 83.34375 
L 54.203125 62.0625 
L 92.1875 62.0625 
L 92.1875 17.53125 
L 84.1875 17.53125 
L 84.1875 22.796875 
L 54.203125 22.796875 
L 54.203125 -13.53125 
L 45.796875 -13.53125 
L 45.796875 22.796875 
L 16.21875 22.796875 
L 16.21875 17.53125 
L 8.203125 17.53125 
z
M 84.1875 54.828125 
L 54.203125 54.828125 
L 54.203125 30.03125 
L 84.1875 30.03125 
z
M 16.21875 30.03125 
L 45.796875 30.03125 
L 45.796875 54.828125 
L 16.21875 54.828125 
z
" id="MicrosoftYaHei-4e2d"/>
     <path d="M 26.859375 47.40625 
L 58.984375 47.40625 
L 58.984375 54.34375 
L 34.1875 54.34375 
L 34.1875 60.5 
L 58.984375 60.5 
L 58.984375 67.328125 
L 31.0625 67.328125 
L 31.0625 73.484375 
L 58.984375 73.484375 
L 58.984375 82.171875 
L 66.3125 82.171875 
L 66.3125 73.484375 
L 95.125 73.484375 
L 95.125 67.328125 
L 66.3125 67.328125 
L 66.3125 60.5 
L 90.328125 60.5 
L 90.328125 54.34375 
L 66.3125 54.34375 
L 66.3125 47.40625 
L 97.953125 47.40625 
L 97.953125 41.265625 
L 26.859375 41.265625 
z
M 1.265625 35.203125 
Q 12.890625 54.25 19.34375 82.375 
L 26.46875 81.109375 
Q 23.640625 70.65625 20.40625 61.375 
L 20.40625 -13.71875 
L 13.28125 -13.71875 
L 13.28125 44.09375 
Q 8.890625 35.015625 3.90625 27.390625 
Q 2.734375 31.390625 1.265625 35.203125 
z
M 34.859375 34.625 
L 89.15625 34.625 
L 89.15625 4.4375 
L 82.03125 4.4375 
L 82.03125 28.265625 
L 42 28.265625 
L 42 3.953125 
L 34.859375 3.953125 
z
M 58.5 25.140625 
L 65.625 25.140625 
Q 65.625 17.046875 64.0625 10.984375 
Q 80.5625 2.78125 97.265625 -7.765625 
L 92.875 -14.015625 
Q 77.546875 -3.953125 61.921875 4.9375 
Q 60.546875 2.09375 58.6875 0.046875 
Q 50.875 -8.9375 31.453125 -13.921875 
Q 28.515625 -8.453125 27.25 -6.890625 
Q 45.90625 -2.875 52.25 3.859375 
Q 58.5 9.8125 58.5 25.140625 
z
" id="MicrosoftYaHei-503a"/>
     <path d="M 7.328125 78.078125 
L 92.78125 78.078125 
L 92.78125 -13.03125 
L 85.25 -13.03125 
L 85.25 -8.15625 
L 14.84375 -8.15625 
L 14.84375 -13.140625 
L 7.328125 -13.140625 
z
M 85.25 71.140625 
L 14.84375 71.140625 
L 14.84375 -1.21875 
L 85.25 -1.21875 
z
M 19.34375 15.765625 
L 46.296875 15.765625 
L 46.296875 35.109375 
L 22.75 35.109375 
L 22.75 41.75 
L 46.296875 41.75 
L 46.296875 54.828125 
L 20.90625 54.828125 
L 20.90625 61.46875 
L 79.109375 61.46875 
L 79.109375 54.828125 
L 53.515625 54.828125 
L 53.515625 41.75 
L 77.15625 41.75 
L 77.15625 35.109375 
L 53.515625 35.109375 
L 53.515625 15.765625 
L 80.671875 15.765625 
L 80.671875 9.125 
L 19.34375 9.125 
z
M 58.59375 28.859375 
L 64.0625 32.953125 
Q 69.4375 27.390625 73.25 22.515625 
L 67.484375 18.109375 
Q 62.796875 24.46875 58.59375 28.859375 
z
" id="MicrosoftYaHei-56fd"/>
     <path d="M 35.0625 41.546875 
Q 47.5625 63.234375 53.125 83.453125 
L 61.03125 81.203125 
Q 57.90625 72.171875 54.5 63.921875 
L 97.078125 63.921875 
L 97.078125 56.6875 
L 85.59375 56.6875 
Q 84.125 28.421875 71.09375 10.640625 
Q 81 1.859375 99.21875 -4.640625 
Q 96.1875 -8.453125 93.65625 -12.453125 
Q 76.265625 -5.03125 65.921875 4.6875 
Q 56.5 -4.59375 39.84375 -13.328125 
Q 37.796875 -10.109375 34.859375 -6.78125 
Q 51.515625 1.5625 60.59375 10.5 
Q 49.3125 24.609375 46 45.5625 
Q 43.265625 40.234375 40.328125 35.296875 
Q 38.484375 38.140625 35.0625 41.546875 
z
M 26.265625 82.671875 
L 33.6875 82.671875 
L 33.6875 -12.75 
L 26.265625 -12.75 
L 26.265625 17.390625 
Q 20.3125 14.0625 14.15625 10.015625 
Q 11.625 8.15625 9.1875 5.609375 
L 3.609375 12.15625 
Q 6.640625 15.375 6.640625 20.5625 
L 6.640625 69 
L 14.0625 69 
L 14.0625 19 
Q 19.875 22.078125 26.265625 25.53125 
z
M 77.875 56.6875 
L 51.90625 56.6875 
Q 53.328125 32.859375 65.671875 16.546875 
Q 76.8125 32.234375 77.875 56.6875 
z
" id="MicrosoftYaHei-6536"/>
     <path d="M 1.765625 -1.609375 
L 15.921875 -1.609375 
L 15.921875 31.203125 
L 84.46875 31.203125 
L 84.46875 -1.609375 
L 97.953125 -1.609375 
L 97.953125 -8.453125 
L 1.765625 -8.453125 
z
M 4.109375 64.3125 
L 57.375 64.3125 
Q 66.015625 72.65625 74.125 83.34375 
L 81.25 78.859375 
Q 74.609375 71.140625 67.671875 64.3125 
L 96.484375 64.3125 
L 96.484375 57.46875 
L 4.109375 57.46875 
z
M 77.4375 24.5625 
L 63.765625 24.5625 
L 63.765625 -1.609375 
L 77.4375 -1.609375 
z
M 22.953125 -1.609375 
L 36.53125 -1.609375 
L 36.53125 24.5625 
L 22.953125 24.5625 
z
M 43.359375 -1.609375 
L 56.9375 -1.609375 
L 56.9375 24.5625 
L 43.359375 24.5625 
z
M 36.53125 54.4375 
L 41.3125 48.09375 
Q 26.078125 38.8125 7.125 29.25 
Q 5.171875 33.0625 3.125 36.078125 
Q 21.390625 44.875 36.53125 54.4375 
z
M 59.28125 48.296875 
L 63.28125 54.25 
Q 82.8125 45.0625 97.078125 37.25 
L 92.78125 30.03125 
Q 73.53125 41.15625 59.28125 48.296875 
z
M 19.34375 78.375 
L 24.421875 83.453125 
Q 32.8125 77.390625 39.546875 71.625 
L 33.984375 65.765625 
Q 27.640625 71.828125 19.34375 78.375 
z
" id="MicrosoftYaHei-76ca"/>
     <path d="M 39.453125 31.390625 
Q 40.96875 31.5 61.375 32.515625 
Q 58.9375 35.9375 56.640625 38.921875 
L 61.921875 42.234375 
Q 68.953125 34.421875 74.90625 25.828125 
L 68.65625 21.921875 
Q 66.9375 24.515625 65.28125 26.953125 
Q 46.734375 25.921875 34.578125 24.953125 
Q 32.421875 24.75 29.390625 24.078125 
L 26.953125 30.71875 
Q 29.890625 31.6875 31.34375 32.5625 
Q 39.59375 38.140625 47.65625 45.515625 
Q 40.578125 45.21875 35.546875 44.78125 
Q 33.5 44.484375 31.0625 43.890625 
L 28.125 49.859375 
Q 30.5625 50.734375 32.625 52.59375 
Q 39.203125 58.15625 44.921875 66.0625 
L 3.609375 66.0625 
L 3.609375 72.90625 
L 47.359375 72.90625 
Q 44.96875 77.25 42.875 80.515625 
L 49.90625 83.9375 
Q 53.71875 78.125 56.5 72.90625 
L 96.484375 72.90625 
L 96.484375 66.0625 
L 47.703125 66.0625 
L 52.34375 63.625 
Q 44.4375 55.515625 38.96875 50.734375 
Q 44.53125 50.875 53.515625 51.078125 
Q 57.421875 54.984375 61.328125 59.328125 
L 68.0625 55.421875 
Q 52.546875 40.671875 39.453125 31.390625 
z
M 2.25 15.484375 
L 46.78125 15.484375 
L 46.78125 24.078125 
L 54.5 24.078125 
L 54.5 15.484375 
L 98.046875 15.484375 
L 98.046875 8.640625 
L 54.5 8.640625 
L 54.5 -13.328125 
L 46.78125 -13.328125 
L 46.78125 8.640625 
L 2.25 8.640625 
z
M 26.859375 41.75 
L 30.375 35.984375 
Q 18.75 29.15625 6.640625 22.015625 
L 2.546875 28.5625 
Q 12.703125 33.34375 26.859375 41.75 
z
M 75.875 41.84375 
Q 89.84375 33.9375 97.65625 28.375 
L 93.359375 22.015625 
Q 83.296875 29.828125 71.875 36.578125 
z
M 93.65625 56.109375 
Q 86.234375 49.65625 77.546875 43.890625 
L 72.5625 49.078125 
Q 81.9375 55.21875 88.09375 61.375 
z
M 5.671875 56.78125 
L 10.640625 61.578125 
Q 18.75 55.125 24.8125 49.359375 
L 19.34375 44 
Q 13.671875 49.953125 5.671875 56.78125 
z
" id="MicrosoftYaHei-7387"/>
     <path d="M 33.796875 83.15625 
L 41.015625 83.15625 
L 41.015625 67.046875 
L 58.984375 67.046875 
L 58.984375 83.25 
L 66.21875 83.25 
L 66.21875 67.046875 
L 91.40625 67.046875 
L 91.40625 -12.84375 
L 84.1875 -12.84375 
L 84.1875 -6.390625 
L 15.828125 -6.390625 
L 15.828125 -12.84375 
L 8.59375 -12.84375 
L 8.59375 67.046875 
L 33.796875 67.046875 
z
M 15.828125 0.640625 
L 33.796875 0.640625 
L 33.796875 27.390625 
L 15.828125 27.390625 
z
M 66.21875 0.640625 
L 84.1875 0.640625 
L 84.1875 27.390625 
L 66.21875 27.390625 
z
M 41.015625 0.640625 
L 58.984375 0.640625 
L 58.984375 27.390625 
L 41.015625 27.390625 
z
M 15.828125 34.421875 
L 33.796875 34.421875 
L 33.796875 60.015625 
L 15.828125 60.015625 
z
M 84.1875 60.015625 
L 66.21875 60.015625 
L 66.21875 34.421875 
L 84.1875 34.421875 
z
M 41.015625 34.421875 
L 58.984375 34.421875 
L 58.984375 60.015625 
L 41.015625 60.015625 
z
" id="MicrosoftYaHei-66f2"/>
     <path d="M 30.765625 -5.421875 
Q 49.125 1.171875 62.546875 9.859375 
Q 59.078125 18.703125 57.078125 30.8125 
L 36.234375 27.875 
L 35.0625 34.90625 
L 56.109375 37.84375 
Q 55.28125 44.671875 54.890625 52.4375 
L 37.203125 50.4375 
L 36.03125 57.46875 
L 54.5 59.515625 
Q 53.953125 69.671875 53.515625 82.859375 
L 61.53125 82.859375 
Q 61.765625 70.265625 62.15625 60.40625 
L 94.828125 64.109375 
L 95.703125 57.171875 
L 62.453125 53.328125 
Q 62.796875 45.609375 63.578125 38.875 
L 97.265625 43.609375 
L 98.140625 36.671875 
L 64.5 31.890625 
Q 66.15625 21.78125 69 14.3125 
Q 79.34375 22.125 86.234375 31.390625 
L 92.578125 26.609375 
Q 83.796875 16.015625 72.171875 7.421875 
Q 75.921875 0.6875 81.15625 -2.875 
Q 87.59375 -6.6875 89.453125 1.03125 
Q 90.71875 7.28125 91.5 14.890625 
Q 96 12.9375 99.03125 12.0625 
Q 97.359375 1.515625 95.703125 -3.859375 
Q 92.875 -12.15625 86.03125 -12.15625 
Q 78.90625 -12.15625 72.859375 -6.296875 
Q 68.890625 -2.546875 65.765625 3.03125 
Q 52.34375 -5.671875 35.640625 -12.0625 
Q 33.890625 -9.328125 30.765625 -5.421875 
z
M 14.0625 24.078125 
Q 22.75 25.34375 34.578125 27.390625 
Q 33.984375 23.78125 33.6875 19.875 
Q 17.390625 17.328125 5.078125 15.28125 
L 3.515625 22.609375 
Q 10.296875 29.890625 18.40625 43.359375 
Q 10.5 42.921875 3.515625 42.234375 
L 1.65625 48.875 
Q 10.75 61.28125 20.3125 83.640625 
L 27.734375 80.71875 
Q 17.671875 60.890625 10.453125 49.46875 
Q 16.265625 49.65625 22.21875 49.90625 
Q 25.59375 55.90625 29.203125 62.9375 
L 36.421875 59.328125 
Q 24.515625 38.71875 14.0625 24.078125 
z
M 1.65625 1.515625 
Q 18.84375 5.21875 36.421875 9.625 
Q 36.140625 5.71875 36.140625 2.203125 
Q 19.828125 -1.609375 3.8125 -5.90625 
z
M 69.734375 77.6875 
L 73.921875 82.5625 
Q 80.859375 78.171875 88.765625 72.015625 
L 84.078125 66.359375 
Q 75.984375 73.296875 69.734375 77.6875 
z
" id="MicrosoftYaHei-7ebf"/>
    </defs>
    <g transform="translate(388.8 37.2)scale(0.12 -0.12)">
     <use xlink:href="#MicrosoftYaHei-4e2d"/>
     <use x="100" xlink:href="#MicrosoftYaHei-503a"/>
     <use x="200" xlink:href="#MicrosoftYaHei-56fd"/>
     <use x="300" xlink:href="#MicrosoftYaHei-503a"/>
     <use x="400" xlink:href="#MicrosoftYaHei-6536"/>
     <use x="500" xlink:href="#MicrosoftYaHei-76ca"/>
     <use x="600" xlink:href="#MicrosoftYaHei-7387"/>
     <use x="700" xlink:href="#MicrosoftYaHei-66f2"/>
     <use x="800" xlink:href="#MicrosoftYaHei-7ebf"/>
    </g>
   </g>
   <g id="legend_1">
    <g id="patch_7">
     <path d="M 716.871875 97.639062 
L 770.6 97.639062 
Q 772.6 97.639062 772.6 95.639062 
L 772.6 50.2 
Q 772.6 48.2 770.6 48.2 
L 716.871875 48.2 
Q 714.871875 48.2 714.871875 50.2 
L 714.871875 95.639062 
Q 714.871875 97.639062 716.871875 97.639062 
z
" style="fill:#ffffff;opacity:0.8;stroke:#cccccc;stroke-linejoin:miter;"/>
    </g>
    <g id="line2d_38">
     <path d="M 718.871875 56.69375 
L 738.871875 56.69375 
" style="fill:none;stroke:#1f77b4;stroke-linecap:square;stroke-width:1.5;"/>
    </g>
    <g id="line2d_39"/>
    <g id="text_20">
     <!-- 3月 -->
     <defs>
      <path d="M 25.046875 20.0625 
Q 22.859375 1.21875 10.359375 -14.015625 
Q 7.234375 -10.984375 3.609375 -8.15625 
Q 13.09375 2.09375 16.3125 16.265625 
Q 18.5625 26.703125 18.5625 45.171875 
L 18.5625 78.953125 
L 83.796875 78.953125 
L 83.796875 2.78125 
Q 83.796875 -11.671875 70.015625 -11.671875 
Q 64.265625 -11.671875 55.171875 -11.46875 
Q 54.6875 -7.953125 53.71875 -3.265625 
Q 62.703125 -3.859375 67.875 -3.859375 
Q 75.78125 -3.859375 75.78125 3.859375 
L 75.78125 20.0625 
z
M 25.828125 27.203125 
L 75.78125 27.203125 
L 75.78125 45.953125 
L 26.5625 45.953125 
Q 26.5625 36.1875 25.828125 27.203125 
z
M 26.5625 71.625 
L 26.5625 53.078125 
L 75.78125 53.078125 
L 75.78125 71.625 
z
" id="MicrosoftYaHei-6708"/>
     </defs>
     <g transform="translate(746.871875 60.19375)scale(0.1 -0.1)">
      <use xlink:href="#MicrosoftYaHei-33"/>
      <use x="58.642578" xlink:href="#MicrosoftYaHei-6708"/>
     </g>
    </g>
    <g id="line2d_40">
     <path d="M 718.871875 72.173437 
L 738.871875 72.173437 
" style="fill:none;stroke:#ff7f0e;stroke-linecap:square;stroke-width:1.5;"/>
    </g>
    <g id="line2d_41"/>
    <g id="text_21">
     <!-- 1年 -->
     <defs>
      <path d="M 1.859375 19.96875 
L 17.578125 19.96875 
L 17.578125 47.90625 
L 52.15625 47.90625 
L 52.15625 65.28125 
L 23.4375 65.28125 
Q 16.84375 53.421875 8.6875 43.40625 
Q 6.15625 46.140625 2.640625 48.875 
Q 16.5 64.5 23.4375 83.9375 
L 31.453125 81.6875 
Q 29.390625 76.859375 27.15625 72.3125 
L 94.34375 72.3125 
L 94.34375 65.28125 
L 60.0625 65.28125 
L 60.0625 47.90625 
L 92.671875 47.90625 
L 92.671875 41.0625 
L 60.0625 41.0625 
L 60.0625 19.96875 
L 98.734375 19.96875 
L 98.734375 12.9375 
L 60.0625 12.9375 
L 60.0625 -13.421875 
L 52.15625 -13.421875 
L 52.15625 12.9375 
L 1.859375 12.9375 
z
M 25.296875 19.96875 
L 52.15625 19.96875 
L 52.15625 41.0625 
L 25.296875 41.0625 
z
" id="MicrosoftYaHei-5e74"/>
     </defs>
     <g transform="translate(746.871875 75.673437)scale(0.1 -0.1)">
      <use xlink:href="#MicrosoftYaHei-31"/>
      <use x="58.642578" xlink:href="#MicrosoftYaHei-5e74"/>
     </g>
    </g>
    <g id="line2d_42">
     <path d="M 718.871875 87.653125 
L 738.871875 87.653125 
" style="fill:none;stroke:#2ca02c;stroke-linecap:square;stroke-width:1.5;"/>
    </g>
    <g id="line2d_43"/>
    <g id="text_22">
     <!-- 10年 -->
     <g transform="translate(746.871875 91.153125)scale(0.1 -0.1)">
      <use xlink:href="#MicrosoftYaHei-31"/>
      <use x="58.642578" xlink:href="#MicrosoftYaHei-30"/>
      <use x="117.285156" xlink:href="#MicrosoftYaHei-5e74"/>
     </g>
    </g>
   </g>
  </g>
 </g>
 <defs>
  <clipPath id="p4d1d63714a">
   <rect height="277.2" width="669.6" x="108" y="43.2"/>
  </clipPath>
 </defs>
</svg>
