<?xml version="1.0" encoding="utf-8" standalone="no"?>
<!DOCTYPE svg PUBLIC "-//W3C//DTD SVG 1.1//EN"
  "http://www.w3.org/Graphics/SVG/1.1/DTD/svg11.dtd">
<!-- Created with matplotlib (http://matplotlib.org/) -->
<svg height="360pt" version="1.1" viewBox="0 0 864 360" width="864pt" xmlns="http://www.w3.org/2000/svg" xmlns:xlink="http://www.w3.org/1999/xlink">
 <defs>
  <style type="text/css">
*{stroke-linecap:butt;stroke-linejoin:round;}
  </style>
 </defs>
 <g id="figure_1">
  <g id="patch_1">
   <path d="M 0 360 
L 864 360 
L 864 0 
L 0 0 
z
" style="fill:#ffffff;"/>
  </g>
  <g id="axes_1">
   <g id="patch_2">
    <path d="M 108 320.4 
L 777.6 320.4 
L 777.6 43.2 
L 108 43.2 
z
" style="fill:#ffffff;"/>
   </g>
   <g id="matplotlib.axis_1">
    <g id="xtick_1">
     <g id="line2d_1">
      <path clip-path="url(#pb286782405)" d="M 108 320.4 
L 108 43.2 
" style="fill:none;stroke:#b0b0b0;stroke-linecap:square;stroke-width:0.8;"/>
     </g>
     <g id="line2d_2">
      <defs>
       <path d="M 0 0 
L 0 3.5 
" id="m25530d4fd8" style="stroke:#000000;stroke-width:0.8;"/>
      </defs>
      <g>
       <use style="stroke:#000000;stroke-width:0.8;" x="108" xlink:href="#m25530d4fd8" y="320.4"/>
      </g>
     </g>
     <g id="text_1">
      <!-- 2007-01-05 -->
      <defs>
       <path d="M 51.171875 0 
L 5.171875 0 
L 5.171875 8.296875 
L 27.15625 30.21875 
Q 36.234375 39.3125 39.3125 44.609375 
Q 42.390625 49.90625 42.390625 55.5625 
Q 42.390625 62.015625 38.765625 65.453125 
Q 35.15625 68.890625 28.328125 68.890625 
Q 18.21875 68.890625 9.03125 60.296875 
L 9.03125 70.015625 
Q 17.96875 76.90625 29.828125 76.90625 
Q 40.046875 76.90625 45.953125 71.390625 
Q 51.859375 65.875 51.859375 56.546875 
Q 51.859375 49.515625 48.0625 42.75 
Q 44.28125 35.984375 33.734375 25.53125 
L 16.5 8.6875 
L 16.5 8.5 
L 51.171875 8.5 
z
" id="MicrosoftYaHei-32"/>
       <path d="M 4.4375 36.328125 
Q 4.4375 56.34375 11.078125 66.625 
Q 17.71875 76.90625 30.328125 76.90625 
Q 54.34375 76.90625 54.34375 38.140625 
Q 54.34375 19 47.578125 8.859375 
Q 40.828125 -1.265625 28.609375 -1.265625 
Q 17.09375 -1.265625 10.765625 8.34375 
Q 4.4375 17.96875 4.4375 36.328125 
z
M 14.203125 36.765625 
Q 14.203125 6.640625 29.5 6.640625 
Q 44.53125 6.640625 44.53125 37.25 
Q 44.53125 68.953125 29.78125 68.953125 
Q 14.203125 68.953125 14.203125 36.765625 
z
" id="MicrosoftYaHei-30"/>
       <path d="M 53.765625 72.3125 
L 24.171875 0 
L 14.265625 0 
L 42.390625 67.1875 
L 4.59375 67.1875 
L 4.59375 75.640625 
L 53.765625 75.640625 
z
" id="MicrosoftYaHei-37"/>
       <path d="M 36.375 26.265625 
L 7.625 26.265625 
L 7.625 33.640625 
L 36.375 33.640625 
z
" id="MicrosoftYaHei-2d"/>
       <path d="M 52.59375 0 
L 9.234375 0 
L 9.234375 8.25 
L 26.171875 8.25 
L 26.171875 65.671875 
L 8.796875 60.640625 
L 8.796875 69.4375 
L 35.6875 77.25 
L 35.6875 8.25 
L 52.59375 8.25 
z
" id="MicrosoftYaHei-31"/>
       <path d="M 8.640625 11.625 
Q 16.265625 6.640625 24.515625 6.640625 
Q 32.328125 6.640625 37.109375 11 
Q 41.890625 15.375 41.890625 22.609375 
Q 41.890625 29.890625 37.03125 33.890625 
Q 32.171875 37.890625 22.953125 37.890625 
Q 18.5 37.890625 10.984375 37.203125 
L 10.984375 75.640625 
L 48.1875 75.640625 
L 48.1875 67.1875 
L 19.875 67.1875 
L 19.875 45.796875 
Q 24.125 46.046875 26.265625 46.046875 
Q 38.234375 46.046875 44.921875 39.984375 
Q 51.609375 33.9375 51.609375 23.296875 
Q 51.609375 12.3125 44.421875 5.515625 
Q 37.25 -1.265625 24.609375 -1.265625 
Q 14.015625 -1.265625 8.640625 1.859375 
z
" id="MicrosoftYaHei-35"/>
      </defs>
      <g transform="translate(80.217187 335.39375)scale(0.1 -0.1)">
       <use xlink:href="#MicrosoftYaHei-32"/>
       <use x="58.642578" xlink:href="#MicrosoftYaHei-30"/>
       <use x="117.285156" xlink:href="#MicrosoftYaHei-30"/>
       <use x="175.927734" xlink:href="#MicrosoftYaHei-37"/>
       <use x="234.570312" xlink:href="#MicrosoftYaHei-2d"/>
       <use x="277.832031" xlink:href="#MicrosoftYaHei-30"/>
       <use x="336.474609" xlink:href="#MicrosoftYaHei-31"/>
       <use x="395.117188" xlink:href="#MicrosoftYaHei-2d"/>
       <use x="438.378906" xlink:href="#MicrosoftYaHei-30"/>
       <use x="497.021484" xlink:href="#MicrosoftYaHei-35"/>
      </g>
     </g>
    </g>
    <g id="xtick_2">
     <g id="line2d_3">
      <path clip-path="url(#pb286782405)" d="M 217.26893 320.4 
L 217.26893 43.2 
" style="fill:none;stroke:#b0b0b0;stroke-linecap:square;stroke-width:0.8;"/>
     </g>
     <g id="line2d_4">
      <g>
       <use style="stroke:#000000;stroke-width:0.8;" x="217.26893" xlink:href="#m25530d4fd8" y="320.4"/>
      </g>
     </g>
     <g id="text_2">
      <!-- 2009-01-05 -->
      <defs>
       <path d="M 9.03125 10.25 
Q 15.28125 6.640625 22.515625 6.640625 
Q 32.671875 6.640625 38.25 14.640625 
Q 43.84375 22.65625 43.84375 37.40625 
Q 43.75 37.3125 43.65625 37.40625 
Q 38.671875 27.9375 26.90625 27.9375 
Q 17.390625 27.9375 11.140625 34.46875 
Q 4.890625 41.015625 4.890625 51.46875 
Q 4.890625 62.59375 11.71875 69.75 
Q 18.5625 76.90625 29.4375 76.90625 
Q 40.71875 76.90625 47.0625 68.046875 
Q 53.421875 59.1875 53.421875 42.234375 
Q 53.421875 21.296875 45.21875 10.015625 
Q 37.015625 -1.265625 22.515625 -1.265625 
Q 14.546875 -1.265625 9.03125 1.3125 
z
M 14.546875 52.6875 
Q 14.546875 45.0625 18.453125 40.59375 
Q 22.359375 36.140625 29.25 36.140625 
Q 35.203125 36.140625 39.25 40.203125 
Q 43.3125 44.28125 43.3125 50.09375 
Q 43.3125 58.25 39.28125 63.59375 
Q 35.25 68.953125 28.65625 68.953125 
Q 22.5625 68.953125 18.546875 64.3125 
Q 14.546875 59.671875 14.546875 52.6875 
z
" id="MicrosoftYaHei-39"/>
      </defs>
      <g transform="translate(189.486117 335.39375)scale(0.1 -0.1)">
       <use xlink:href="#MicrosoftYaHei-32"/>
       <use x="58.642578" xlink:href="#MicrosoftYaHei-30"/>
       <use x="117.285156" xlink:href="#MicrosoftYaHei-30"/>
       <use x="175.927734" xlink:href="#MicrosoftYaHei-39"/>
       <use x="234.570312" xlink:href="#MicrosoftYaHei-2d"/>
       <use x="277.832031" xlink:href="#MicrosoftYaHei-30"/>
       <use x="336.474609" xlink:href="#MicrosoftYaHei-31"/>
       <use x="395.117188" xlink:href="#MicrosoftYaHei-2d"/>
       <use x="438.378906" xlink:href="#MicrosoftYaHei-30"/>
       <use x="497.021484" xlink:href="#MicrosoftYaHei-35"/>
      </g>
     </g>
    </g>
    <g id="xtick_3">
     <g id="line2d_5">
      <path clip-path="url(#pb286782405)" d="M 326.537859 320.4 
L 326.537859 43.2 
" style="fill:none;stroke:#b0b0b0;stroke-linecap:square;stroke-width:0.8;"/>
     </g>
     <g id="line2d_6">
      <g>
       <use style="stroke:#000000;stroke-width:0.8;" x="326.537859" xlink:href="#m25530d4fd8" y="320.4"/>
      </g>
     </g>
     <g id="text_3">
      <!-- 2011-01-05 -->
      <g transform="translate(298.755047 335.39375)scale(0.1 -0.1)">
       <use xlink:href="#MicrosoftYaHei-32"/>
       <use x="58.642578" xlink:href="#MicrosoftYaHei-30"/>
       <use x="117.285156" xlink:href="#MicrosoftYaHei-31"/>
       <use x="175.927734" xlink:href="#MicrosoftYaHei-31"/>
       <use x="234.570312" xlink:href="#MicrosoftYaHei-2d"/>
       <use x="277.832031" xlink:href="#MicrosoftYaHei-30"/>
       <use x="336.474609" xlink:href="#MicrosoftYaHei-31"/>
       <use x="395.117188" xlink:href="#MicrosoftYaHei-2d"/>
       <use x="438.378906" xlink:href="#MicrosoftYaHei-30"/>
       <use x="497.021484" xlink:href="#MicrosoftYaHei-35"/>
      </g>
     </g>
    </g>
    <g id="xtick_4">
     <g id="line2d_7">
      <path clip-path="url(#pb286782405)" d="M 435.806789 320.4 
L 435.806789 43.2 
" style="fill:none;stroke:#b0b0b0;stroke-linecap:square;stroke-width:0.8;"/>
     </g>
     <g id="line2d_8">
      <g>
       <use style="stroke:#000000;stroke-width:0.8;" x="435.806789" xlink:href="#m25530d4fd8" y="320.4"/>
      </g>
     </g>
     <g id="text_4">
      <!-- 2013-01-06 -->
      <defs>
       <path d="M 6.984375 12.640625 
Q 14.75 6.640625 24.515625 6.640625 
Q 32.328125 6.640625 36.890625 10.46875 
Q 41.453125 14.3125 41.453125 20.75 
Q 41.453125 35.109375 20.90625 35.109375 
L 14.59375 35.109375 
L 14.59375 43.015625 
L 20.609375 43.015625 
Q 38.8125 43.015625 38.8125 56.5 
Q 38.8125 68.953125 24.90625 68.953125 
Q 16.9375 68.953125 9.90625 63.578125 
L 9.90625 72.609375 
Q 17.328125 76.90625 27.25 76.90625 
Q 36.921875 76.90625 42.78125 71.84375 
Q 48.640625 66.796875 48.640625 58.734375 
Q 48.640625 43.890625 33.5 39.65625 
L 33.5 39.453125 
Q 41.703125 38.578125 46.453125 33.671875 
Q 51.21875 28.765625 51.21875 21.4375 
Q 51.21875 11.234375 43.875 4.984375 
Q 36.53125 -1.265625 24.3125 -1.265625 
Q 13.578125 -1.265625 6.984375 2.734375 
z
" id="MicrosoftYaHei-33"/>
       <path d="M 49.703125 65.921875 
Q 43.796875 68.953125 37.359375 68.953125 
Q 27.546875 68.953125 21.578125 60.40625 
Q 15.625 51.859375 15.53125 37.0625 
L 15.765625 37.0625 
Q 21.140625 47.46875 32.90625 47.46875 
Q 42.71875 47.46875 48.578125 41.0625 
Q 54.4375 34.671875 54.4375 24.078125 
Q 54.4375 12.984375 47.671875 5.859375 
Q 40.921875 -1.265625 30.421875 -1.265625 
Q 18.890625 -1.265625 12.328125 7.734375 
Q 5.765625 16.75 5.765625 33.296875 
Q 5.765625 53.328125 14.375 65.109375 
Q 23 76.90625 37.0625 76.90625 
Q 45.125 76.90625 49.703125 74.703125 
z
M 16.109375 24.75 
Q 16.109375 17.28125 20.09375 11.953125 
Q 24.078125 6.640625 30.671875 6.640625 
Q 36.921875 6.640625 40.828125 11.234375 
Q 44.734375 15.828125 44.734375 23.046875 
Q 44.734375 30.859375 41.046875 35.203125 
Q 37.359375 39.546875 30.5625 39.546875 
Q 24.125 39.546875 20.109375 35.15625 
Q 16.109375 30.765625 16.109375 24.75 
z
" id="MicrosoftYaHei-36"/>
      </defs>
      <g transform="translate(408.023976 335.39375)scale(0.1 -0.1)">
       <use xlink:href="#MicrosoftYaHei-32"/>
       <use x="58.642578" xlink:href="#MicrosoftYaHei-30"/>
       <use x="117.285156" xlink:href="#MicrosoftYaHei-31"/>
       <use x="175.927734" xlink:href="#MicrosoftYaHei-33"/>
       <use x="234.570312" xlink:href="#MicrosoftYaHei-2d"/>
       <use x="277.832031" xlink:href="#MicrosoftYaHei-30"/>
       <use x="336.474609" xlink:href="#MicrosoftYaHei-31"/>
       <use x="395.117188" xlink:href="#MicrosoftYaHei-2d"/>
       <use x="438.378906" xlink:href="#MicrosoftYaHei-30"/>
       <use x="497.021484" xlink:href="#MicrosoftYaHei-36"/>
      </g>
     </g>
    </g>
    <g id="xtick_5">
     <g id="line2d_9">
      <path clip-path="url(#pb286782405)" d="M 545.075718 320.4 
L 545.075718 43.2 
" style="fill:none;stroke:#b0b0b0;stroke-linecap:square;stroke-width:0.8;"/>
     </g>
     <g id="line2d_10">
      <g>
       <use style="stroke:#000000;stroke-width:0.8;" x="545.075718" xlink:href="#m25530d4fd8" y="320.4"/>
      </g>
     </g>
     <g id="text_5">
      <!-- 2015-01-06 -->
      <g transform="translate(517.292906 335.39375)scale(0.1 -0.1)">
       <use xlink:href="#MicrosoftYaHei-32"/>
       <use x="58.642578" xlink:href="#MicrosoftYaHei-30"/>
       <use x="117.285156" xlink:href="#MicrosoftYaHei-31"/>
       <use x="175.927734" xlink:href="#MicrosoftYaHei-35"/>
       <use x="234.570312" xlink:href="#MicrosoftYaHei-2d"/>
       <use x="277.832031" xlink:href="#MicrosoftYaHei-30"/>
       <use x="336.474609" xlink:href="#MicrosoftYaHei-31"/>
       <use x="395.117188" xlink:href="#MicrosoftYaHei-2d"/>
       <use x="438.378906" xlink:href="#MicrosoftYaHei-30"/>
       <use x="497.021484" xlink:href="#MicrosoftYaHei-36"/>
      </g>
     </g>
    </g>
    <g id="xtick_6">
     <g id="line2d_11">
      <path clip-path="url(#pb286782405)" d="M 654.344648 320.4 
L 654.344648 43.2 
" style="fill:none;stroke:#b0b0b0;stroke-linecap:square;stroke-width:0.8;"/>
     </g>
     <g id="line2d_12">
      <g>
       <use style="stroke:#000000;stroke-width:0.8;" x="654.344648" xlink:href="#m25530d4fd8" y="320.4"/>
      </g>
     </g>
     <g id="text_6">
      <!-- 2017-01-05 -->
      <g transform="translate(626.561835 335.39375)scale(0.1 -0.1)">
       <use xlink:href="#MicrosoftYaHei-32"/>
       <use x="58.642578" xlink:href="#MicrosoftYaHei-30"/>
       <use x="117.285156" xlink:href="#MicrosoftYaHei-31"/>
       <use x="175.927734" xlink:href="#MicrosoftYaHei-37"/>
       <use x="234.570312" xlink:href="#MicrosoftYaHei-2d"/>
       <use x="277.832031" xlink:href="#MicrosoftYaHei-30"/>
       <use x="336.474609" xlink:href="#MicrosoftYaHei-31"/>
       <use x="395.117188" xlink:href="#MicrosoftYaHei-2d"/>
       <use x="438.378906" xlink:href="#MicrosoftYaHei-30"/>
       <use x="497.021484" xlink:href="#MicrosoftYaHei-35"/>
      </g>
     </g>
    </g>
    <g id="xtick_7">
     <g id="line2d_13">
      <path clip-path="url(#pb286782405)" d="M 763.613577 320.4 
L 763.613577 43.2 
" style="fill:none;stroke:#b0b0b0;stroke-linecap:square;stroke-width:0.8;"/>
     </g>
     <g id="line2d_14">
      <g>
       <use style="stroke:#000000;stroke-width:0.8;" x="763.613577" xlink:href="#m25530d4fd8" y="320.4"/>
      </g>
     </g>
     <g id="text_7">
      <!-- 2018-12-31 -->
      <defs>
       <path d="M 21.390625 39.796875 
Q 7.859375 46.09375 7.859375 58.0625 
Q 7.859375 66.40625 14.203125 71.65625 
Q 20.5625 76.90625 30.421875 76.90625 
Q 39.453125 76.90625 45.3125 71.96875 
Q 51.171875 67.046875 51.171875 59.234375 
Q 51.171875 46.625 37.0625 39.84375 
L 37.0625 39.65625 
Q 53.609375 33.6875 53.609375 19.34375 
Q 53.609375 9.90625 46.796875 4.3125 
Q 39.984375 -1.265625 27.78125 -1.265625 
Q 17.78125 -1.265625 11.46875 4.25 
Q 5.171875 9.765625 5.171875 18.5625 
Q 5.171875 33.015625 21.390625 39.59375 
z
M 41.5 58.109375 
Q 41.5 63.1875 38.328125 66.109375 
Q 35.15625 69.046875 29.734375 69.046875 
Q 24.65625 69.046875 21.09375 65.984375 
Q 17.53125 62.9375 17.53125 58.203125 
Q 17.53125 48.734375 29.390625 43.796875 
Q 41.5 48.828125 41.5 58.109375 
z
M 28.8125 35.25 
Q 14.796875 29.59375 14.796875 19.046875 
Q 14.796875 13.578125 18.890625 10.0625 
Q 23 6.546875 29.59375 6.546875 
Q 35.984375 6.546875 39.984375 10.03125 
Q 44 13.53125 44 18.75 
Q 44 29.734375 28.8125 35.25 
z
" id="MicrosoftYaHei-38"/>
      </defs>
      <g transform="translate(735.830765 335.39375)scale(0.1 -0.1)">
       <use xlink:href="#MicrosoftYaHei-32"/>
       <use x="58.642578" xlink:href="#MicrosoftYaHei-30"/>
       <use x="117.285156" xlink:href="#MicrosoftYaHei-31"/>
       <use x="175.927734" xlink:href="#MicrosoftYaHei-38"/>
       <use x="234.570312" xlink:href="#MicrosoftYaHei-2d"/>
       <use x="277.832031" xlink:href="#MicrosoftYaHei-31"/>
       <use x="336.474609" xlink:href="#MicrosoftYaHei-32"/>
       <use x="395.117188" xlink:href="#MicrosoftYaHei-2d"/>
       <use x="438.378906" xlink:href="#MicrosoftYaHei-33"/>
       <use x="497.021484" xlink:href="#MicrosoftYaHei-31"/>
      </g>
     </g>
    </g>
    <g id="text_8">
     <!-- 日期 -->
     <defs>
      <path d="M 15.234375 76.703125 
L 84.859375 76.703125 
L 84.859375 -11.96875 
L 76.5625 -11.96875 
L 76.5625 -5.03125 
L 23.53125 -5.03125 
L 23.53125 -11.96875 
L 15.234375 -11.96875 
z
M 23.53125 32.859375 
L 23.53125 2.09375 
L 76.5625 2.09375 
L 76.5625 32.859375 
z
M 23.53125 69.390625 
L 23.53125 40.1875 
L 76.5625 40.1875 
L 76.5625 69.390625 
z
" id="MicrosoftYaHei-65e5"/>
      <path d="M 58.890625 79.15625 
L 93.453125 79.15625 
L 93.453125 -0.046875 
Q 93.453125 -11.578125 82.515625 -11.578125 
Q 77.046875 -11.578125 71.78125 -11.28125 
Q 71.390625 -8.0625 70.609375 -3.765625 
Q 77.734375 -4.4375 80.859375 -4.4375 
Q 86.234375 -4.4375 86.234375 0.921875 
L 86.234375 21.4375 
L 65.328125 21.4375 
Q 64.265625 0.046875 52.34375 -14.109375 
Q 49.703125 -11.375 46.484375 -8.640625 
Q 54.390625 0.4375 56.546875 10.203125 
Q 58.890625 19.578125 58.890625 42.828125 
z
M 1.953125 17.828125 
L 11.140625 17.828125 
L 11.140625 62.9375 
L 3.125 62.9375 
L 3.125 69.578125 
L 11.140625 69.578125 
L 11.140625 81.5 
L 18.359375 81.5 
L 18.359375 69.578125 
L 38.671875 69.578125 
L 38.671875 81.890625 
L 45.90625 81.890625 
L 45.90625 69.578125 
L 53.8125 69.578125 
L 53.8125 62.9375 
L 45.90625 62.9375 
L 45.90625 17.828125 
L 53.71875 17.828125 
L 53.71875 11.1875 
L 1.953125 11.1875 
z
M 65.765625 27.875 
L 86.234375 27.875 
L 86.234375 47.015625 
L 66.109375 47.015625 
Q 66.21875 34.421875 65.765625 27.875 
z
M 86.234375 72.515625 
L 66.109375 72.515625 
L 66.109375 53.46875 
L 86.234375 53.46875 
z
M 18.359375 17.828125 
L 38.671875 17.828125 
L 38.671875 28.765625 
L 18.359375 28.765625 
z
M 18.359375 35.015625 
L 38.671875 35.015625 
L 38.671875 45.84375 
L 18.359375 45.84375 
z
M 18.359375 52.09375 
L 38.671875 52.09375 
L 38.671875 62.9375 
L 18.359375 62.9375 
z
M 18.359375 9.328125 
L 24.3125 4.640625 
Q 14.453125 -6 6.34375 -13.234375 
Q 4.296875 -10.890625 1.171875 -8.0625 
Q 10.453125 -0.140625 18.359375 9.328125 
z
M 31.15625 4.734375 
L 35.84375 9.515625 
Q 42.671875 4.4375 48.734375 -0.734375 
L 43.5625 -6.296875 
Q 38.09375 -0.828125 31.15625 4.734375 
z
" id="MicrosoftYaHei-671f"/>
     </defs>
     <g transform="translate(432.8 349.873438)scale(0.1 -0.1)">
      <use xlink:href="#MicrosoftYaHei-65e5"/>
      <use x="100" xlink:href="#MicrosoftYaHei-671f"/>
     </g>
    </g>
   </g>
   <g id="matplotlib.axis_2">
    <g id="ytick_1">
     <g id="line2d_15">
      <path clip-path="url(#pb286782405)" d="M 108 307.059304 
L 777.6 307.059304 
" style="fill:none;stroke:#b0b0b0;stroke-linecap:square;stroke-width:0.8;"/>
     </g>
     <g id="line2d_16">
      <defs>
       <path d="M 0 0 
L -3.5 0 
" id="m63dc46fcea" style="stroke:#000000;stroke-width:0.8;"/>
      </defs>
      <g>
       <use style="stroke:#000000;stroke-width:0.8;" x="108" xlink:href="#m63dc46fcea" y="307.059304"/>
      </g>
     </g>
     <g id="text_9">
      <!-- −1.5 -->
      <defs>
       <path d="M 62.0625 27.6875 
L 12.3125 27.6875 
L 12.3125 35.15625 
L 62.0625 35.15625 
z
" id="MicrosoftYaHei-2212"/>
       <path d="M 5.8125 5.03125 
Q 5.8125 7.671875 7.609375 9.46875 
Q 9.421875 11.28125 12.109375 11.28125 
Q 14.84375 11.28125 16.640625 9.453125 
Q 18.453125 7.625 18.453125 5.03125 
Q 18.453125 2.484375 16.640625 0.65625 
Q 14.84375 -1.171875 12.0625 -1.171875 
Q 9.375 -1.171875 7.59375 0.65625 
Q 5.8125 2.484375 5.8125 5.03125 
z
" id="MicrosoftYaHei-2e"/>
      </defs>
      <g transform="translate(79.446875 311.056179)scale(0.1 -0.1)">
       <use xlink:href="#MicrosoftYaHei-2212"/>
       <use x="74.169922" xlink:href="#MicrosoftYaHei-31"/>
       <use x="132.8125" xlink:href="#MicrosoftYaHei-2e"/>
       <use x="156.884766" xlink:href="#MicrosoftYaHei-35"/>
      </g>
     </g>
    </g>
    <g id="ytick_2">
     <g id="line2d_17">
      <path clip-path="url(#pb286782405)" d="M 108 275.67386 
L 777.6 275.67386 
" style="fill:none;stroke:#b0b0b0;stroke-linecap:square;stroke-width:0.8;"/>
     </g>
     <g id="line2d_18">
      <g>
       <use style="stroke:#000000;stroke-width:0.8;" x="108" xlink:href="#m63dc46fcea" y="275.67386"/>
      </g>
     </g>
     <g id="text_10">
      <!-- −1.0 -->
      <g transform="translate(79.446875 279.670735)scale(0.1 -0.1)">
       <use xlink:href="#MicrosoftYaHei-2212"/>
       <use x="74.169922" xlink:href="#MicrosoftYaHei-31"/>
       <use x="132.8125" xlink:href="#MicrosoftYaHei-2e"/>
       <use x="156.884766" xlink:href="#MicrosoftYaHei-30"/>
      </g>
     </g>
    </g>
    <g id="ytick_3">
     <g id="line2d_19">
      <path clip-path="url(#pb286782405)" d="M 108 244.288417 
L 777.6 244.288417 
" style="fill:none;stroke:#b0b0b0;stroke-linecap:square;stroke-width:0.8;"/>
     </g>
     <g id="line2d_20">
      <g>
       <use style="stroke:#000000;stroke-width:0.8;" x="108" xlink:href="#m63dc46fcea" y="244.288417"/>
      </g>
     </g>
     <g id="text_11">
      <!-- −0.5 -->
      <g transform="translate(79.446875 248.285292)scale(0.1 -0.1)">
       <use xlink:href="#MicrosoftYaHei-2212"/>
       <use x="74.169922" xlink:href="#MicrosoftYaHei-30"/>
       <use x="132.8125" xlink:href="#MicrosoftYaHei-2e"/>
       <use x="156.884766" xlink:href="#MicrosoftYaHei-35"/>
      </g>
     </g>
    </g>
    <g id="ytick_4">
     <g id="line2d_21">
      <path clip-path="url(#pb286782405)" d="M 108 212.902974 
L 777.6 212.902974 
" style="fill:none;stroke:#b0b0b0;stroke-linecap:square;stroke-width:0.8;"/>
     </g>
     <g id="line2d_22">
      <g>
       <use style="stroke:#000000;stroke-width:0.8;" x="108" xlink:href="#m63dc46fcea" y="212.902974"/>
      </g>
     </g>
     <g id="text_12">
      <!-- 0.0 -->
      <g transform="translate(86.864063 216.899849)scale(0.1 -0.1)">
       <use xlink:href="#MicrosoftYaHei-30"/>
       <use x="58.642578" xlink:href="#MicrosoftYaHei-2e"/>
       <use x="82.714844" xlink:href="#MicrosoftYaHei-30"/>
      </g>
     </g>
    </g>
    <g id="ytick_5">
     <g id="line2d_23">
      <path clip-path="url(#pb286782405)" d="M 108 181.517531 
L 777.6 181.517531 
" style="fill:none;stroke:#b0b0b0;stroke-linecap:square;stroke-width:0.8;"/>
     </g>
     <g id="line2d_24">
      <g>
       <use style="stroke:#000000;stroke-width:0.8;" x="108" xlink:href="#m63dc46fcea" y="181.517531"/>
      </g>
     </g>
     <g id="text_13">
      <!-- 0.5 -->
      <g transform="translate(86.864063 185.514406)scale(0.1 -0.1)">
       <use xlink:href="#MicrosoftYaHei-30"/>
       <use x="58.642578" xlink:href="#MicrosoftYaHei-2e"/>
       <use x="82.714844" xlink:href="#MicrosoftYaHei-35"/>
      </g>
     </g>
    </g>
    <g id="ytick_6">
     <g id="line2d_25">
      <path clip-path="url(#pb286782405)" d="M 108 150.132088 
L 777.6 150.132088 
" style="fill:none;stroke:#b0b0b0;stroke-linecap:square;stroke-width:0.8;"/>
     </g>
     <g id="line2d_26">
      <g>
       <use style="stroke:#000000;stroke-width:0.8;" x="108" xlink:href="#m63dc46fcea" y="150.132088"/>
      </g>
     </g>
     <g id="text_14">
      <!-- 1.0 -->
      <g transform="translate(86.864063 154.128963)scale(0.1 -0.1)">
       <use xlink:href="#MicrosoftYaHei-31"/>
       <use x="58.642578" xlink:href="#MicrosoftYaHei-2e"/>
       <use x="82.714844" xlink:href="#MicrosoftYaHei-30"/>
      </g>
     </g>
    </g>
    <g id="ytick_7">
     <g id="line2d_27">
      <path clip-path="url(#pb286782405)" d="M 108 118.746645 
L 777.6 118.746645 
" style="fill:none;stroke:#b0b0b0;stroke-linecap:square;stroke-width:0.8;"/>
     </g>
     <g id="line2d_28">
      <g>
       <use style="stroke:#000000;stroke-width:0.8;" x="108" xlink:href="#m63dc46fcea" y="118.746645"/>
      </g>
     </g>
     <g id="text_15">
      <!-- 1.5 -->
      <g transform="translate(86.864063 122.74352)scale(0.1 -0.1)">
       <use xlink:href="#MicrosoftYaHei-31"/>
       <use x="58.642578" xlink:href="#MicrosoftYaHei-2e"/>
       <use x="82.714844" xlink:href="#MicrosoftYaHei-35"/>
      </g>
     </g>
    </g>
    <g id="ytick_8">
     <g id="line2d_29">
      <path clip-path="url(#pb286782405)" d="M 108 87.361202 
L 777.6 87.361202 
" style="fill:none;stroke:#b0b0b0;stroke-linecap:square;stroke-width:0.8;"/>
     </g>
     <g id="line2d_30">
      <g>
       <use style="stroke:#000000;stroke-width:0.8;" x="108" xlink:href="#m63dc46fcea" y="87.361202"/>
      </g>
     </g>
     <g id="text_16">
      <!-- 2.0 -->
      <g transform="translate(86.864063 91.358077)scale(0.1 -0.1)">
       <use xlink:href="#MicrosoftYaHei-32"/>
       <use x="58.642578" xlink:href="#MicrosoftYaHei-2e"/>
       <use x="82.714844" xlink:href="#MicrosoftYaHei-30"/>
      </g>
     </g>
    </g>
    <g id="ytick_9">
     <g id="line2d_31">
      <path clip-path="url(#pb286782405)" d="M 108 55.975758 
L 777.6 55.975758 
" style="fill:none;stroke:#b0b0b0;stroke-linecap:square;stroke-width:0.8;"/>
     </g>
     <g id="line2d_32">
      <g>
       <use style="stroke:#000000;stroke-width:0.8;" x="108" xlink:href="#m63dc46fcea" y="55.975758"/>
      </g>
     </g>
     <g id="text_17">
      <!-- 2.5 -->
      <g transform="translate(86.864063 59.972633)scale(0.1 -0.1)">
       <use xlink:href="#MicrosoftYaHei-32"/>
       <use x="58.642578" xlink:href="#MicrosoftYaHei-2e"/>
       <use x="82.714844" xlink:href="#MicrosoftYaHei-35"/>
      </g>
     </g>
    </g>
   </g>
   <g id="line2d_33">
    <path clip-path="url(#pb286782405)" d="M 108 148.242684 
L 108.218538 144.7589 
L 108.874151 146.824062 
L 109.092689 146.227739 
L 109.311227 146.447437 
L 109.529765 144.639635 
L 109.748303 144.947213 
L 109.966841 144.024481 
L 110.185379 143.729457 
L 110.403916 144.627081 
L 110.622454 144.65219 
L 111.05953 143.415603 
L 111.278068 143.704349 
L 111.933681 141.526199 
L 112.152219 140.239396 
L 112.370757 140.1013 
L 112.589295 139.053026 
L 112.807833 139.429652 
L 113.244909 139.373158 
L 113.463446 137.132237 
L 113.681984 136.604962 
L 113.900522 136.404095 
L 114.337598 136.542191 
L 114.556136 136.567299 
L 114.774674 138.205619 
L 114.993211 138.205619 
L 115.211749 137.577911 
L 115.430287 135.895651 
L 115.648825 135.908205 
L 116.085901 134.546077 
L 116.304439 134.903871 
L 116.522977 134.502137 
L 116.741514 133.811657 
L 116.960052 131.978748 
L 117.17859 128.658168 
L 117.397128 132.066627 
L 117.615666 132.863817 
L 117.834204 131.099955 
L 118.052742 127.685219 
L 118.271279 127.89864 
L 118.926893 123.140607 
L 119.145431 124.08217 
L 119.363969 122.920909 
L 119.582507 123.140607 
L 119.801044 123.140607 
L 120.019582 122.858138 
L 120.23812 121.973068 
L 120.675196 122.512898 
L 120.893734 122.657271 
L 121.112272 121.25748 
L 121.549347 121.791033 
L 121.767885 121.383022 
L 121.986423 122.330862 
L 122.204961 121.696876 
L 122.423499 121.659214 
L 122.642037 119.989508 
L 122.860574 119.832581 
L 123.079112 119.430847 
L 123.29765 118.118936 
L 123.516188 117.491227 
L 123.734726 120.705096 
L 123.953264 120.002062 
L 124.171802 118.501838 
L 124.390339 117.811359 
L 124.608877 120.228038 
L 124.827415 119.851412 
L 125.045953 120.077388 
L 125.264491 116.863518 
L 125.483029 116.763085 
L 125.920104 115.570438 
L 126.35718 109.958721 
L 126.575718 109.958721 
L 126.794256 104.359558 
L 127.012794 102.426214 
L 127.449869 102.426214 
L 127.886945 88.616619 
L 128.105483 87.110118 
L 128.542559 92.382873 
L 128.979634 91.441309 
L 129.41671 93.010581 
L 129.635248 91.755164 
L 129.853786 88.03285 
L 130.072324 88.748438 
L 130.290862 94.002361 
L 130.509399 94.410372 
L 130.727937 93.362098 
L 130.946475 97.555194 
L 131.165013 94.272276 
L 131.383551 93.512748 
L 131.602089 91.322045 
L 131.820627 86.526349 
L 132.039164 86.130892 
L 132.694778 79.828695 
L 133.131854 82.339531 
L 133.350392 81.711822 
L 133.56893 80.55056 
L 133.787467 77.07933 
L 134.006005 77.945569 
L 134.224543 77.945569 
L 134.443081 76.526947 
L 134.661619 76.721536 
L 134.880157 76.690151 
L 135.098695 83.212046 
L 135.317232 85.026125 
L 135.53577 80.795367 
L 135.754308 82.38347 
L 135.972846 82.483904 
L 136.191384 84.636945 
L 136.62846 86.469855 
L 137.065535 83.281094 
L 137.284073 83.343865 
L 137.502611 82.213989 
L 137.721149 83.588671 
L 137.939687 96.525751 
L 138.376762 92.38915 
L 138.5953 96.211897 
L 138.813838 95.402152 
L 139.250914 101.290061 
L 139.469452 100.62469 
L 139.68799 95.565356 
L 139.906527 95.025527 
L 140.125065 100.059752 
L 140.343603 100.448931 
L 140.562141 98.867105 
L 140.780679 98.120132 
L 140.999217 99.406935 
L 141.217755 99.469706 
L 141.436292 97.448483 
L 141.65483 99.450874 
L 141.873368 105.351338 
L 142.091906 105.797011 
L 142.310444 105.376446 
L 142.528982 107.548319 
L 142.74752 107.755463 
L 142.966057 114.967837 
L 143.184595 102.928381 
L 143.403133 98.804334 
L 143.621671 99.419489 
L 143.840209 99.475983 
L 144.058747 103.625138 
L 144.277285 102.570587 
L 144.495822 102.56431 
L 144.932898 99.789837 
L 145.151436 100.492871 
L 145.369974 97.272725 
L 145.588512 96.971424 
L 145.80705 97.065581 
L 146.025587 108.778628 
L 146.244125 104.309341 
L 146.462663 108.238798 
L 146.899739 109.556987 
L 147.336815 115.269138 
L 147.555352 116.355074 
L 147.77389 118.17543 
L 147.992428 117.346854 
L 148.210966 117.83019 
L 148.429504 117.641877 
L 148.648042 116.844687 
L 148.86658 119.600329 
L 149.085117 117.491227 
L 149.522193 118.231923 
L 149.740731 120.485398 
L 149.959269 121.282589 
L 150.177807 125.695382 
L 150.396345 134.439366 
L 150.83342 138.833328 
L 151.051958 140.088746 
L 151.270496 149.818233 
L 151.707572 153.584487 
L 151.92611 154.839904 
L 152.144648 129.417695 
L 152.581723 126.674608 
L 152.800261 126.90686 
L 153.018799 128.162278 
L 153.237337 128.143446 
L 153.455875 130.999522 
L 153.674413 152.561321 
L 153.89295 151.130145 
L 154.111488 151.117591 
L 154.330026 152.247467 
L 154.548564 155.398565 
L 154.767102 156.898789 
L 154.98564 157.206367 
L 155.204178 157.20009 
L 155.422715 157.526498 
L 155.641253 158.486893 
L 155.859791 157.978449 
L 156.296867 156.283635 
L 156.515405 154.212195 
L 156.733943 154.086654 
L 157.171018 155.254192 
L 157.389556 155.241638 
L 157.608094 155.875624 
L 157.826632 153.364789 
L 158.04517 144.507816 
L 158.263708 141.93421 
L 158.482245 141.758452 
L 158.700783 142.750232 
L 158.919321 140.616022 
L 159.137859 141.394381 
L 159.356397 141.237453 
L 159.793473 147.73424 
L 160.01201 149.165416 
L 160.230548 145.863668 
L 160.449086 148.606755 
L 160.667624 146.252847 
L 160.886162 137.025527 
L 161.1047 133.00819 
L 161.323238 132.926588 
L 162.197389 144.71496 
L 162.415927 143.459543 
L 162.634465 145.656524 
L 162.853003 144.369721 
L 163.07154 144.959767 
L 163.290078 143.716903 
L 163.508616 143.434434 
L 163.727154 144.526648 
L 163.945692 140.590913 
L 164.16423 138.695232 
L 164.601305 141.48226 
L 164.819843 140.528142 
L 165.038381 142.116246 
L 165.256919 144.614527 
L 165.475457 149.61109 
L 165.912533 147.370169 
L 166.13107 149.02732 
L 166.349608 147.062592 
L 166.568146 146.980989 
L 167.005222 152.341623 
L 167.22376 151.971275 
L 167.442298 151.331012 
L 167.660836 151.255687 
L 167.879373 151.023434 
L 168.097911 150.138365 
L 168.316449 150.577761 
L 168.534987 150.188582 
L 168.753525 148.763683 
L 168.972063 148.845285 
L 169.190601 151.575818 
L 169.409138 151.130145 
L 169.627676 151.117591 
L 169.846214 152.140756 
L 170.064752 151.939889 
L 170.28329 151.368674 
L 170.501828 151.362397 
L 170.720366 151.494216 
L 170.938903 151.494216 
L 171.375979 148.437274 
L 171.594517 147.909999 
L 171.813055 148.355672 
L 172.031593 149.667583 
L 172.250131 142.919713 
L 172.468668 142.254342 
L 172.687206 143.873831 
L 172.905744 141.990704 
L 173.124282 144.200239 
L 173.34282 144.476431 
L 173.561358 146.679689 
L 173.779896 145.110417 
L 173.998433 144.60825 
L 174.216971 145.417994 
L 174.435509 147.04376 
L 174.654047 146.340726 
L 174.872585 150.081871 
L 175.091123 150.659363 
L 175.309661 147.244627 
L 175.746736 147.200687 
L 175.965274 145.775788 
L 176.183812 145.738126 
L 176.40235 141.337887 
L 176.620888 145.374055 
L 177.057963 141.990704 
L 177.495039 144.896996 
L 177.713577 145.248513 
L 177.932115 145.386609 
L 178.150653 144.369721 
L 178.369191 146.127305 
L 178.587728 146.20263 
L 178.806266 145.323838 
L 179.024804 143.177074 
L 179.46188 144.250456 
L 179.898956 149.272127 
L 180.117493 146.328172 
L 180.336031 148.669526 
L 180.554569 147.790734 
L 180.773107 144.231625 
L 180.991645 144.840502 
L 181.210183 145.016261 
L 181.428721 143.748289 
L 181.647258 144.570587 
L 181.865796 143.522314 
L 182.302872 144.212793 
L 182.52141 143.591362 
L 182.739948 143.559976 
L 183.177023 143.264953 
L 183.395561 151.186639 
L 183.614099 151.16153 
L 183.832637 152.310238 
L 184.051175 149.862173 
L 184.269713 149.742908 
L 184.488251 150.66564 
L 184.706789 150.627978 
L 184.925326 152.121925 
L 185.143864 152.140756 
L 185.362402 153.609595 
L 185.58094 153.527993 
L 185.799478 151.632312 
L 186.018016 145.713017 
L 186.236554 147.797011 
L 186.455091 146.09592 
L 186.673629 148.07948 
L 186.892167 148.066926 
L 187.110705 145.0602 
L 187.329243 146.491376 
L 187.766319 137.4712 
L 187.984856 137.094575 
L 188.203394 138.419041 
L 188.421932 135.029413 
L 188.64047 133.472695 
L 188.859008 136.416649 
L 189.077546 137.483754 
L 189.514621 134.370318 
L 189.733159 134.156897 
L 189.951697 131.344762 
L 190.170235 136.153012 
L 190.388773 136.592408 
L 190.607311 138.375101 
L 190.825849 138.381378 
L 191.044386 139.693289 
L 191.262924 139.781169 
L 191.481462 140.044806 
L 191.7 139.429652 
L 191.918538 140.396323 
L 192.137076 140.854551 
L 192.355614 141.8275 
L 192.574151 144.959767 
L 192.792689 144.840502 
L 193.011227 142.47404 
L 193.448303 145.581199 
L 193.666841 145.261067 
L 193.885379 142.81928 
L 194.103916 142.813003 
L 194.322454 142.379883 
L 194.540992 142.712569 
L 194.75953 142.543088 
L 194.978068 137.075744 
L 195.196606 136.485697 
L 195.415144 132.116844 
L 195.633681 135.173786 
L 195.852219 135.468809 
L 196.070757 137.088298 
L 196.289295 141.237453 
L 196.726371 138.676401 
L 196.944909 134.822269 
L 197.381984 141.005201 
L 197.600522 140.79178 
L 198.037598 142.511702 
L 198.474674 146.535316 
L 198.693211 151.839456 
L 198.911749 146.773845 
L 199.130287 150.810013 
L 199.348825 148.098311 
L 199.567363 149.247018 
L 199.785901 149.479271 
L 200.004439 151.029712 
L 200.222977 151.65742 
L 200.441514 154.582544 
L 200.87859 167.594948 
L 201.097128 169.584786 
L 201.534204 177.820326 
L 201.752742 177.230279 
L 201.971279 183.394381 
L 202.189817 182.208011 
L 202.408355 182.364938 
L 202.845431 181.084412 
L 203.063969 181.869048 
L 203.282507 181.894156 
L 203.719582 199.765028 
L 204.156658 196.984277 
L 204.375196 187.543536 
L 204.593734 183.312778 
L 204.812272 187.072754 
L 205.030809 176.370318 
L 205.249347 176.357764 
L 205.467885 172.817486 
L 205.686423 172.760992 
L 205.904961 176.853654 
L 206.123499 171.806875 
L 206.342037 170.651891 
L 206.560574 174.688059 
L 206.99765 178.303662 
L 207.434726 170.162278 
L 207.653264 171.505575 
L 207.871802 174.179614 
L 208.090339 172.327873 
L 208.308877 174.769661 
L 208.527415 166.973517 
L 208.745953 170.212494 
L 208.964491 167.576117 
L 209.183029 157.859184 
L 209.620104 154.143148 
L 209.838642 145.838559 
L 210.05718 145.286175 
L 210.275718 144.206516 
L 210.494256 143.942878 
L 210.712794 148.556539 
L 210.931332 149.893559 
L 211.149869 142.191571 
L 211.368407 143.641578 
L 211.805483 125.620057 
L 212.024021 136.460589 
L 212.242559 130.654282 
L 212.461097 129.662502 
L 212.679634 130.453415 
L 212.898172 108.948109 
L 213.11671 108.872784 
L 213.335248 100.913436 
L 213.772324 96.525751 
L 213.990862 102.821671 
L 214.209399 100.66863 
L 214.427937 99.645464 
L 214.646475 104.623195 
L 214.865013 104.039426 
L 215.083551 100.643521 
L 215.302089 100.662352 
L 215.520627 103.857391 
L 215.739164 102.771454 
L 215.957702 103.072754 
L 216.17624 101.792228 
L 216.394778 99.701958 
L 216.613316 99.501091 
L 216.831854 99.802391 
L 217.050392 102.451323 
L 217.26893 101.22729 
L 217.487467 104.340726 
L 217.706005 104.868002 
L 218.361619 98.659961 
L 218.580157 89.828097 
L 218.798695 85.992796 
L 219.017232 79.395576 
L 219.23577 83.563563 
L 219.454308 81.881303 
L 219.672846 77.349245 
L 219.891384 75.779973 
L 220.109922 80.839307 
L 220.32846 81.843641 
L 220.546997 79.383022 
L 220.765535 79.188432 
L 221.202611 73.137319 
L 221.421149 64.374503 
L 221.639687 60.878165 
L 221.858225 65.316066 
L 222.076762 65.755463 
L 222.2953 64.757405 
L 222.513838 69.327126 
L 222.732376 76.244478 
L 222.950914 78.102496 
L 223.169452 74.254641 
L 223.38799 73.65204 
L 223.606527 70.657869 
L 223.825065 74.336243 
L 224.043603 72.785802 
L 224.262141 73.978449 
L 224.480679 73.564161 
L 224.699217 71.611986 
L 224.917755 71.392288 
L 225.136292 71.693588 
L 225.35483 71.586878 
L 225.573368 69.873233 
L 225.791906 67.042266 
L 226.010444 60.300673 
L 226.44752 61.957824 
L 226.666057 63.596144 
L 226.884595 66.458496 
L 227.103133 65.290958 
L 227.321671 65.617367 
L 227.758747 68.454611 
L 227.977285 71.379734 
L 228.195822 70.017606 
L 228.41436 70.52605 
L 228.632898 70.205918 
L 228.851436 67.362397 
L 229.069974 67.381229 
L 229.288512 65.491825 
L 229.50705 65.617367 
L 229.725587 64.901779 
L 230.162663 69.333403 
L 230.599739 64.820176 
L 230.818277 66.075594 
L 231.036815 66.301569 
L 231.47389 65.052429 
L 231.692428 66.314123 
L 231.910966 66.458496 
L 232.129504 62.999821 
L 232.348042 67.092482 
L 232.785117 69.710028 
L 233.003655 66.414557 
L 233.222193 66.828845 
L 233.440731 66.948109 
L 233.659269 69.013272 
L 233.877807 66.389449 
L 234.096345 66.822568 
L 234.53342 70.858736 
L 234.751958 70.984277 
L 235.189034 75.572829 
L 235.407572 75.328023 
L 235.62611 73.589269 
L 235.844648 76.445344 
L 236.063185 75.271529 
L 236.281723 77.368077 
L 236.500261 76.483007 
L 236.718799 76.734091 
L 236.937337 75.924346 
L 237.374413 76.658766 
L 237.811488 73.871738 
L 238.030026 75.943177 
L 238.248564 74.800747 
L 238.467102 77.939292 
L 238.68564 75.346854 
L 238.904178 77.361799 
L 239.122715 74.850964 
L 239.341253 75.346854 
L 239.559791 70.419339 
L 239.778329 68.69314 
L 239.996867 68.423225 
L 240.215405 71.17259 
L 240.433943 69.113705 
L 240.65248 69.779076 
L 240.871018 67.494216 
L 241.089556 67.243133 
L 241.308094 69.716305 
L 241.526632 69.628426 
L 241.74517 68.3479 
L 242.182245 69.779076 
L 242.400783 65.290958 
L 242.619321 64.656972 
L 243.930548 65.4165 
L 244.367624 62.020595 
L 244.586162 62.842893 
L 244.8047 66.577761 
L 245.023238 67.462831 
L 245.241775 77.594052 
L 245.678851 74.399014 
L 245.897389 71.304409 
L 246.115927 74.706591 
L 246.334465 82.251651 
L 246.553003 77.135824 
L 247.208616 80.833029 
L 247.427154 78.290809 
L 247.645692 74.235809 
L 247.86423 74.392737 
L 248.082768 72.798356 
L 248.301305 73.526498 
L 248.519843 72.716754 
L 248.738381 72.490779 
L 249.175457 76.068719 
L 249.393995 75.867852 
L 249.612533 76.263309 
L 250.049608 73.934509 
L 250.268146 73.80269 
L 250.486684 74.04122 
L 250.705222 71.429951 
L 250.92376 71.222807 
L 251.360836 71.260469 
L 251.579373 71.925841 
L 251.797911 70.413062 
L 252.016449 73.689703 
L 252.234987 73.244029 
L 252.453525 74.053774 
L 252.672063 74.160484 
L 252.890601 73.947063 
L 253.109138 74.788193 
L 253.327676 74.920012 
L 253.546214 73.991003 
L 253.764752 74.129099 
L 253.98329 70.13687 
L 254.201828 74.995337 
L 254.420366 75.403348 
L 255.294517 72.308743 
L 255.513055 72.082768 
L 255.731593 72.453116 
L 255.950131 71.881901 
L 256.605744 68.793573 
L 256.824282 69.465222 
L 257.04282 69.678643 
L 257.698433 73.482559 
L 257.916971 72.923898 
L 258.135509 73.35074 
L 258.354047 67.952444 
L 258.572585 68.322792 
L 258.791123 65.793125 
L 259.009661 64.851562 
L 259.228198 61.819728 
L 259.446736 60.495262 
L 259.665274 61.44938 
L 259.883812 64.964549 
L 260.10235 61.94527 
L 260.320888 60.95349 
L 260.539426 60.677298 
L 260.757963 59.277507 
L 260.976501 61.129248 
L 261.195039 61.248513 
L 261.413577 62.629472 
L 261.850653 63.012375 
L 262.069191 62.911941 
L 262.287728 60.878165 
L 262.506266 60.300673 
L 262.724804 60.300673 
L 262.943342 55.869048 
L 263.16188 55.8 
L 263.380418 56.013421 
L 263.598956 58.078583 
L 263.817493 58.687461 
L 264.254569 57.538754 
L 264.691645 58.96993 
L 264.910183 59.22729 
L 265.128721 59.779674 
L 265.347258 58.743955 
L 265.565796 60.432491 
L 265.784334 60.369721 
L 266.002872 60.438768 
L 266.22141 65.215633 
L 266.439948 66.031654 
L 266.658486 64.977104 
L 266.877023 64.839008 
L 267.095561 63.6903 
L 267.314099 63.294844 
L 267.532637 61.763234 
L 267.751175 61.430548 
L 267.969713 61.700463 
L 268.188251 61.744403 
L 268.406789 62.026872 
L 269.062402 60.375998 
L 269.499478 60.451323 
L 269.718016 59.798505 
L 269.936554 59.848722 
L 270.155091 59.76712 
L 270.373629 59.277507 
L 270.592167 59.647855 
L 271.029243 61.788343 
L 271.247781 62.114751 
L 271.684856 60.80284 
L 272.34047 63.997878 
L 272.559008 66.06304 
L 272.777546 66.176027 
L 272.996084 66.816291 
L 273.214621 66.445942 
L 273.433159 65.724077 
L 273.651697 63.822119 
L 273.870235 64.487491 
L 274.307311 67.268241 
L 274.525849 66.389449 
L 274.744386 66.86023 
L 274.962924 68.322792 
L 275.181462 68.504827 
L 275.4 68.517382 
L 275.618538 67.067374 
L 275.837076 67.644866 
L 276.492689 77.61916 
L 276.711227 74.543387 
L 276.929765 78.140158 
L 277.148303 79.565058 
L 277.366841 78.937349 
L 277.585379 80.500344 
L 277.803916 83.306202 
L 278.678068 77.493618 
L 278.896606 77.600329 
L 279.333681 81.805978 
L 279.552219 84.166164 
L 279.989295 85.848423 
L 280.207833 85.986519 
L 280.426371 83.557286 
L 280.644909 83.507069 
L 281.300522 81.234763 
L 281.51906 78.096219 
L 281.737598 79.816141 
L 281.956136 80.010731 
L 282.174674 81.259871 
L 282.611749 86.457301 
L 283.048825 81.423076 
L 283.485901 83.023733 
L 283.704439 81.724376 
L 284.141514 72.748139 
L 284.360052 69.38362 
L 284.797128 70.921507 
L 285.234204 69.170199 
L 285.452742 70.312629 
L 285.671279 67.431445 
L 286.108355 74.223255 
L 286.326893 77.374354 
L 286.763969 77.16721 
L 286.982507 77.713316 
L 287.419582 83.431744 
L 287.63812 81.805978 
L 287.856658 83.469407 
L 288.075196 82.176326 
L 288.293734 84.718547 
L 288.512272 84.385862 
L 288.730809 86.363145 
L 288.949347 85.088896 
L 289.167885 84.982185 
L 289.386423 83.325034 
L 289.823499 84.737379 
L 290.042037 89.708833 
L 290.260574 87.166612 
L 290.479112 87.08501 
L 290.916188 90.267494 
L 291.353264 96.456703 
L 291.571802 97.335495 
L 292.008877 100.737677 
L 292.227415 104.673412 
L 292.445953 106.085757 
L 293.101567 114.879958 
L 294.194256 120.140158 
L 294.412794 117.252698 
L 294.631332 116.405291 
L 294.849869 116.323689 
L 295.068407 114.735585 
L 295.286945 115.677148 
L 295.505483 120.516784 
L 295.724021 120.893409 
L 296.161097 122.933463 
L 296.379634 123.429353 
L 296.598172 128.444747 
L 296.81671 129.197997 
L 297.035248 128.99713 
L 297.253786 129.643671 
L 297.472324 132.66295 
L 297.690862 132.229831 
L 297.909399 136.510806 
L 298.127937 138.16168 
L 298.346475 136.32877 
L 298.783551 140.000867 
L 299.002089 140.195457 
L 299.220627 137.81644 
L 299.87624 122.858138 
L 300.313316 108.502436 
L 300.750392 107.504379 
L 300.96893 106.719743 
L 301.187467 107.441608 
L 301.406005 107.1152 
L 301.624543 108.263907 
L 302.061619 102.972321 
L 302.280157 102.030758 
L 302.498695 100.386161 
L 302.717232 100.630967 
L 302.93577 100.342221 
L 303.154308 100.681184 
L 303.372846 102.143745 
L 303.809922 102.95349 
L 304.02846 102.601973 
L 304.465535 101.716903 
L 304.684073 103.512151 
L 304.902611 106.412166 
L 305.121149 107.391391 
L 305.339687 106.556539 
L 305.558225 106.839008 
L 305.776762 106.299178 
L 305.9953 105.363892 
L 306.213838 108.25763 
L 306.432376 107.755463 
L 306.869452 108.992049 
L 307.525065 114.063937 
L 307.962141 117.516335 
L 308.180679 117.422179 
L 308.399217 117.905515 
L 308.617755 117.466119 
L 308.836292 114.252249 
L 309.273368 119.27392 
L 309.491906 114.202033 
L 309.710444 112.883844 
L 309.928982 115.055717 
L 310.14752 114.245972 
L 310.366057 113.003109 
L 310.584595 112.896398 
L 310.803133 112.940338 
L 311.458747 118.752922 
L 311.677285 119.248812 
L 312.332898 121.640383 
L 312.551436 121.025228 
L 312.988512 117.566552 
L 313.20705 112.821073 
L 313.862663 109.952444 
L 314.081201 109.55071 
L 314.299739 110.008937 
L 314.518277 110.008937 
L 314.736815 101.873831 
L 314.955352 99.557585 
L 315.17389 103.085309 
L 315.610966 96.393932 
L 315.829504 97.159737 
L 316.26658 99.745897 
L 316.485117 99.802391 
L 316.922193 90.844986 
L 317.140731 90.110566 
L 317.359269 88.390644 
L 317.577807 89.583291 
L 317.796345 89.112509 
L 318.014883 84.461187 
L 318.23342 84.957077 
L 318.451958 84.423524 
L 318.670496 85.183052 
L 318.889034 85.088896 
L 319.107572 89.294545 
L 319.32611 97.555194 
L 319.544648 95.533971 
L 319.763185 99.73962 
L 320.637337 130.52874 
L 320.855875 132.185891 
L 321.29295 138.996533 
L 321.511488 138.180511 
L 321.730026 137.935705 
L 321.948564 132.010133 
L 322.167102 132.951696 
L 322.38564 130.704499 
L 322.604178 131.664893 
L 323.041253 142.813003 
L 323.259791 144.231625 
L 323.478329 154.971723 
L 323.696867 156.641429 
L 323.915405 155.298132 
L 324.133943 159.899238 
L 324.35248 161.493618 
L 324.789556 176.031356 
L 325.008094 194.686863 
L 325.226632 190.613032 
L 325.44517 189.665192 
L 325.882245 167.067673 
L 326.537859 153.653535 
L 326.974935 148.719743 
L 327.193473 147.941384 
L 327.630548 145.016261 
L 328.067624 136.535914 
L 328.286162 136.818383 
L 328.5047 138.054969 
L 328.941775 159.905515 
L 329.160313 169.522015 
L 329.378851 163.828695 
L 329.597389 170.325482 
L 329.815927 171.938694 
L 330.253003 167.46313 
L 330.47154 167.940188 
L 330.690078 167.601226 
L 330.908616 163.119384 
L 331.345692 148.606755 
L 331.56423 142.932267 
L 331.782768 140.829443 
L 332.219843 131.445195 
L 332.656919 134.866208 
L 332.875457 132.713167 
L 333.093995 140.948707 
L 333.312533 142.875773 
L 333.53107 134.426812 
L 333.749608 135.198894 
L 333.968146 129.43025 
L 334.186684 130.635451 
L 334.62376 122.556838 
L 334.842298 120.736482 
L 335.060836 121.238649 
L 335.279373 116.44923 
L 335.497911 118.43279 
L 335.716449 117.660708 
L 335.934987 114.886235 
L 336.153525 121.10683 
L 336.372063 122.676102 
L 336.809138 127.095173 
L 337.027676 127.992796 
L 337.246214 128.231326 
L 337.464752 130.911643 
L 337.68329 129.863369 
L 338.120366 133.422478 
L 338.338903 133.215334 
L 338.557441 134.156897 
L 338.775979 130.641728 
L 338.994517 130.133284 
L 339.213055 131.67117 
L 339.431593 131.746495 
L 339.650131 130.886534 
L 340.087206 133.943476 
L 340.305744 131.733941 
L 340.524282 132.286325 
L 340.74282 133.46014 
L 341.179896 129.49302 
L 341.398433 130.233717 
L 341.616971 128.331759 
L 341.835509 129.091287 
L 342.272585 131.978748 
L 342.491123 131.595845 
L 342.928198 135.500194 
L 343.146736 134.477029 
L 343.365274 131.47658 
L 343.583812 131.777881 
L 343.80235 133.679839 
L 344.020888 133.579405 
L 344.239426 133.949753 
L 344.457963 134.677896 
L 344.676501 136.184397 
L 344.895039 136.611239 
L 345.113577 135.650844 
L 345.332115 135.964699 
L 345.550653 142.455208 
L 345.769191 144.595696 
L 345.987728 145.461934 
L 346.206266 144.871888 
L 346.424804 145.185742 
L 346.643342 146.962158 
L 346.86188 151.425168 
L 347.517493 154.494664 
L 347.736031 153.584487 
L 347.954569 154.011329 
L 348.173107 154.846181 
L 348.610183 154.538604 
L 348.828721 154.670423 
L 349.047258 155.907009 
L 349.265796 155.71242 
L 349.702872 155.599432 
L 349.92141 155.938395 
L 350.139948 156.754416 
L 350.577023 175.001913 
L 350.795561 184.888328 
L 351.014099 186.350889 
L 351.232637 189.859782 
L 351.451175 189.206965 
L 351.669713 192.232521 
L 351.888251 192.646809 
L 352.106789 185.610193 
L 352.325326 183.275116 
L 352.762402 181.8 
L 352.98094 179.646959 
L 353.199478 175.773995 
L 353.418016 175.35343 
L 353.636554 171.951248 
L 353.855091 173.683724 
L 354.073629 169.685219 
L 354.292167 167.933911 
L 354.510705 167.72049 
L 354.947781 171.078733 
L 355.166319 160.897295 
L 355.603394 164.707488 
L 355.821932 173.445195 
L 356.04047 172.72333 
L 356.259008 167.130444 
L 356.477546 167.155552 
L 356.914621 169.565954 
L 357.351697 165.937797 
L 357.570235 166.87936 
L 357.788773 166.358362 
L 358.007311 162.855747 
L 358.444386 167.971574 
L 358.662924 168.699716 
L 358.881462 168.423524 
L 359.1 166.634554 
L 359.318538 168.743656 
L 359.537076 167.827201 
L 359.755614 166.257929 
L 360.192689 167.142998 
L 360.629765 169.973965 
L 361.066841 172.139561 
L 361.285379 171.606008 
L 361.503916 170.595397 
L 361.722454 170.683276 
L 361.940992 171.260768 
L 362.378068 182.302167 
L 362.596606 185.133134 
L 362.815144 183.042864 
L 363.033681 183.350441 
L 363.252219 187.970378 
L 363.470757 185.842445 
L 363.689295 185.503482 
L 363.907833 183.915379 
L 364.126371 185.42188 
L 364.781984 177.883097 
L 365.000522 180.889822 
L 365.21906 181.8 
L 365.437598 178.127903 
L 365.656136 178.215782 
L 365.874674 183.645464 
L 366.093211 184.656075 
L 366.311749 183.996981 
L 366.530287 182.132686 
L 366.748825 183.237453 
L 366.967363 182.264505 
L 367.185901 183.469706 
L 367.404439 186.60825 
L 367.622977 186.237902 
L 367.841514 185.346555 
L 368.060052 174.957973 
L 368.27859 170.061844 
L 368.497128 168.969631 
L 368.934204 170.413361 
L 369.152742 172.648005 
L 369.589817 169.622448 
L 369.808355 171.022239 
L 370.026893 169.383919 
L 370.245431 169.647556 
L 370.463969 169.572231 
L 370.682507 171.869646 
L 370.901044 172.729607 
L 371.119582 170.551457 
L 371.33812 170.538903 
L 371.556658 166.747541 
L 371.993734 164.255537 
L 372.212272 157.947063 
L 372.430809 144.250456 
L 372.649347 148.217576 
L 372.867885 147.050037 
L 373.304961 139.787446 
L 373.742037 144.871888 
L 373.960574 145.267344 
L 374.39765 150.088148 
L 374.616188 153.546824 
L 374.834726 151.431445 
L 375.053264 153.923449 
L 375.271802 152.536213 
L 375.490339 153.559378 
L 375.708877 156.195755 
L 375.927415 150.715857 
L 376.145953 153.854401 
L 376.364491 153.515439 
L 376.583029 155.316963 
L 376.801567 155.938395 
L 377.020104 155.542938 
L 377.238642 157.174981 
L 377.45718 156.490779 
L 377.675718 156.773248 
L 377.894256 158.499447 
L 378.112794 158.022388 
L 378.331332 159.723479 
L 378.549869 159.943177 
L 378.768407 159.874129 
L 378.986945 160.941234 
L 379.424021 164.650994 
L 379.642559 165.529786 
L 379.861097 167.07395 
L 380.298172 168.599283 
L 380.51671 170.149724 
L 380.735248 170.168555 
L 380.953786 169.471798 
L 381.390862 172.007742 
L 381.609399 171.047347 
L 381.827937 169.409027 
L 382.046475 170.168555 
L 382.265013 171.348647 
L 382.483551 170.796264 
L 383.357702 181.931819 
L 383.57624 182.578359 
L 383.794778 182.452817 
L 384.013316 182.59719 
L 384.231854 180.142849 
L 384.450392 181.636796 
L 384.66893 180.663847 
L 384.887467 182.860828 
L 385.106005 183.168405 
L 385.324543 180.776835 
L 385.543081 180.513197 
L 385.761619 184.787894 
L 386.198695 182.352384 
L 386.417232 183.821223 
L 386.63577 186.087252 
L 386.854308 183.519922 
L 387.072846 183.224899 
L 387.291384 185.936601 
L 387.509922 185.221013 
L 387.72846 185.327724 
L 387.946997 174.832432 
L 388.165535 177.481363 
L 388.384073 177.136123 
L 388.602611 176.376595 
L 388.821149 176.552354 
L 389.039687 177.161232 
L 389.476762 175.497803 
L 389.6953 176.213391 
L 389.913838 175.667284 
L 390.132376 173.212943 
L 390.350914 173.231774 
L 390.569452 172.660559 
L 391.006527 170.174832 
L 391.225065 169.8547 
L 391.443603 168.957077 
L 391.662141 169.923748 
L 391.880679 168.373307 
L 392.099217 167.695382 
L 392.317755 167.632611 
L 392.536292 167.990405 
L 392.75483 169.50946 
L 392.973368 169.289762 
L 393.84752 165.856195 
L 394.066057 166.188881 
L 394.284595 165.561172 
L 394.503133 165.944074 
L 394.721671 165.793424 
L 394.940209 165.28498 
L 395.158747 163.960514 
L 395.377285 164.324585 
L 395.595822 163.703153 
L 395.81436 164.330862 
L 396.032898 164.299477 
L 396.251436 165.102944 
L 396.469974 163.9919 
L 396.688512 162.202929 
L 396.90705 162.893409 
L 397.125587 162.573278 
L 397.344125 163.276311 
L 397.562663 164.839307 
L 398.218277 164.230429 
L 398.436815 163.784756 
L 398.655352 164.437573 
L 399.092428 162.428904 
L 399.310966 162.918517 
L 399.96658 159.6356 
L 400.185117 145.355223 
L 400.622193 154.287521 
L 400.840731 147.602421 
L 401.059269 148.587924 
L 401.277807 144.06842 
L 401.496345 142.737677 
L 401.714883 142.166462 
L 401.93342 140.320998 
L 402.151958 142.204125 
L 402.589034 138.532028 
L 402.807572 140.233119 
L 403.02611 139.191122 
L 403.244648 138.940039 
L 403.463185 138.35627 
L 403.681723 137.038081 
L 403.900261 137.577911 
L 404.118799 136.97531 
L 404.337337 138.230728 
L 404.555875 132.681781 
L 404.774413 130.497355 
L 404.99295 130.779824 
L 405.211488 130.189777 
L 405.430026 130.673113 
L 405.648564 129.574623 
L 405.867102 129.769212 
L 406.08564 129.762935 
L 406.304178 130.1835 
L 406.522715 132.123121 
L 406.741253 132.286325 
L 406.959791 136.686564 
L 407.178329 136.014916 
L 407.396867 135.933313 
L 407.615405 135.575519 
L 407.833943 137.314273 
L 408.05248 136.717949 
L 408.271018 134.941533 
L 408.489556 134.087849 
L 408.708094 133.95603 
L 408.926632 133.171394 
L 409.14517 133.817935 
L 409.582245 131.82182 
L 410.019321 132.90148 
L 410.237859 135.751278 
L 410.456397 135.217725 
L 410.893473 140.270782 
L 411.11201 141.532476 
L 411.549086 142.266896 
L 411.767624 141.306501 
L 412.2047 144.338335 
L 412.641775 145.769511 
L 412.860313 147.721686 
L 413.078851 147.92883 
L 413.297389 148.556539 
L 413.515927 147.608698 
L 413.734465 152.260021 
L 414.17154 151.029712 
L 414.608616 154.205918 
L 414.827154 155.122373 
L 415.482768 166.691048 
L 415.701305 165.153161 
L 416.138381 169.622448 
L 416.793995 159.710925 
L 417.012533 158.700314 
L 417.23107 158.549664 
L 417.449608 156.371514 
L 417.668146 156.679091 
L 418.105222 156.183201 
L 418.760836 152.147033 
L 418.979373 156.653983 
L 419.197911 157.3068 
L 419.416449 156.949006 
L 419.634987 157.771305 
L 420.072063 162.855747 
L 420.290601 161.324137 
L 421.164752 166.998625 
L 421.38329 166.822867 
L 421.601828 166.358362 
L 421.820366 166.622 
L 422.038903 164.010731 
L 422.257441 164.456404 
L 422.475979 162.880855 
L 422.694517 162.347302 
L 422.913055 162.767867 
L 423.350131 164.74515 
L 423.568668 166.873083 
L 423.787206 166.797758 
L 424.005744 172.629174 
L 424.44282 172.352982 
L 424.661358 172.704499 
L 424.879896 172.748438 
L 425.098433 173.438918 
L 425.316971 172.321596 
L 425.535509 169.183052 
L 425.754047 163.828695 
L 425.972585 164.607054 
L 426.191123 171.712719 
L 426.409661 170.331759 
L 426.628198 170.363145 
L 426.846736 169.89864 
L 427.065274 170.262711 
L 427.283812 170.156001 
L 427.50235 170.281542 
L 427.720888 171.480466 
L 427.939426 171.98891 
L 428.157963 170.827649 
L 428.595039 172.252548 
L 428.813577 170.00535 
L 429.469191 167.249709 
L 429.687728 167.356419 
L 429.906266 167.61378 
L 430.124804 168.448632 
L 430.343342 170.633059 
L 430.56188 170.752324 
L 430.780418 170.639336 
L 430.998956 171.568346 
L 431.873107 169.007293 
L 432.091645 169.321148 
L 432.310183 169.277208 
L 432.965796 163.483455 
L 433.184334 164.556838 
L 433.402872 163.935406 
L 433.839948 164.456404 
L 434.058486 165.787147 
L 434.277023 165.981737 
L 434.714099 166.904469 
L 434.932637 163.502287 
L 435.151175 163.207263 
L 435.806789 157.840353 
L 436.025326 158.367628 
L 436.243864 156.001166 
L 436.462402 157.821521 
L 436.68094 156.55355 
L 436.899478 156.515887 
L 437.118016 152.303961 
L 437.336554 153.013272 
L 437.555091 151.839456 
L 437.773629 152.109371 
L 437.992167 151.70136 
L 438.429243 153.182753 
L 438.647781 156.296189 
L 438.866319 156.082768 
L 439.303394 153.841847 
L 439.521932 154.0741 
L 439.74047 156.252249 
L 439.959008 156.898789 
L 440.177546 156.923898 
L 440.396084 157.149873 
L 440.833159 155.86307 
L 441.051697 155.869347 
L 441.270235 155.994889 
L 441.488773 147.439217 
L 441.707311 147.589867 
L 441.925849 150.584038 
L 442.144386 151.199193 
L 442.362924 153.069765 
L 442.581462 152.919115 
L 442.8 153.057211 
L 443.018538 152.975609 
L 443.237076 155.316963 
L 443.455614 154.965446 
L 444.329765 158.355074 
L 444.548303 157.677148 
L 444.766841 158.028665 
L 444.985379 157.407234 
L 445.203916 159.641877 
L 445.422454 159.227589 
L 445.640992 159.227589 
L 445.85953 159.09577 
L 446.296606 157.20009 
L 446.515144 157.507667 
L 446.733681 158.135376 
L 446.952219 157.520221 
L 447.170757 158.235809 
L 447.389295 155.976057 
L 447.607833 156.308743 
L 448.700522 159.390794 
L 448.91906 159.422179 
L 449.137598 159.227589 
L 449.356136 156.139262 
L 449.793211 157.570438 
L 450.011749 156.089045 
L 450.230287 156.547272 
L 450.667363 161.035391 
L 450.885901 160.564609 
L 451.104439 158.386459 
L 451.322977 159.020445 
L 451.760052 156.402899 
L 452.197128 163.640383 
L 452.852742 162.642326 
L 453.071279 162.780421 
L 453.289817 160.734091 
L 453.508355 160.162876 
L 453.726893 160.43279 
L 453.945431 161.299029 
L 454.163969 164.726319 
L 454.382507 165.197101 
L 454.601044 166.490181 
L 454.819582 166.446241 
L 455.03812 168.975908 
L 455.475196 169.496906 
L 455.693734 171.254491 
L 456.130809 172.221163 
L 456.349347 172.37809 
L 456.567885 171.92614 
L 456.786423 171.951248 
L 457.442037 170.582843 
L 457.660574 171.298431 
L 457.879112 169.8547 
L 458.09765 170.331759 
L 458.534726 179.590465 
L 458.971802 195.226693 
L 459.190339 190.38078 
L 459.408877 205.941683 
L 459.627415 189.640084 
L 459.845953 186.702406 
L 460.283029 202.960066 
L 460.501567 295.233269 
L 460.720104 307.8 
L 460.938642 301.617068 
L 461.375718 276.910447 
L 461.594256 240.898789 
L 461.812794 247.841249 
L 462.686945 220.655179 
L 462.905483 214.221163 
L 463.124021 211.785652 
L 463.342559 211.628725 
L 463.561097 211.001016 
L 463.779634 214.139561 
L 463.998172 210.379585 
L 464.21671 211.628725 
L 464.435248 209.820924 
L 464.653786 206.05467 
L 464.872324 205.345359 
L 465.309399 202.847078 
L 465.527937 201.585383 
L 465.746475 201.271529 
L 465.965013 206.607054 
L 466.183551 198.176924 
L 466.402089 196.444448 
L 466.620627 193.312181 
L 466.839164 195.276909 
L 467.057702 193.148976 
L 467.27624 193.035989 
L 467.494778 190.713466 
L 467.713316 191.033597 
L 468.150392 187.342669 
L 468.36893 187.64397 
L 468.587467 186.350889 
L 468.806005 181.712121 
L 469.024543 180.054969 
L 469.243081 181.398266 
L 469.461619 187.574922 
L 469.898695 178.912539 
L 470.117232 185.183351 
L 470.772846 190.374503 
L 470.991384 189.753071 
L 471.209922 185.559976 
L 471.42846 186.95349 
L 471.646997 185.986818 
L 472.302611 190.23013 
L 472.521149 188.208907 
L 472.739687 187.612584 
L 472.958225 187.417994 
L 473.176762 187.612584 
L 473.3953 184.467763 
L 473.613838 187.417994 
L 473.832376 185.490928 
L 474.050914 189.665192 
L 474.269452 189.0877 
L 474.48799 191.021043 
L 474.706527 195.107428 
L 474.925065 195.458945 
L 475.143603 193.651143 
L 475.362141 193.017157 
L 475.580679 191.786848 
L 475.799217 188.014318 
L 476.017755 188.146137 
L 476.236292 183.927933 
L 476.45483 185.12058 
L 476.673368 182.528142 
L 477.110444 180.965147 
L 477.328982 180.776835 
L 478.203133 173.457749 
L 478.421671 172.516186 
L 478.858747 174.085458 
L 479.077285 174.173337 
L 479.295822 177.550411 
L 479.51436 184.342221 
L 479.732898 186.658467 
L 479.951436 185.804783 
L 480.169974 185.804783 
L 480.388512 190.61931 
L 480.60705 190.167359 
L 480.825587 189.351338 
L 481.044125 183.055418 
L 481.262663 184.938544 
L 481.481201 182.810611 
L 481.699739 183.808668 
L 481.918277 186.796563 
L 482.136815 187.769511 
L 483.010966 202.156598 
L 483.229504 202.363742 
L 483.448042 202.307249 
L 483.66658 200.606158 
L 484.103655 202.395128 
L 484.322193 200.210701 
L 484.540731 201.453564 
L 484.759269 206.462681 
L 484.977807 207.724376 
L 485.196345 205.910297 
L 485.414883 207.793424 
L 485.63342 213.323539 
L 485.851958 212.306651 
L 486.070496 214.754715 
L 486.289034 215.690001 
L 486.507572 213.185443 
L 486.72611 214.045404 
L 486.944648 210.90686 
L 487.381723 216.393035 
L 487.818799 218.288716 
L 488.037337 222.965147 
L 488.255875 221.483754 
L 488.474413 225.149574 
L 489.130026 216.675504 
L 489.348564 220.335047 
L 489.78564 216.637842 
L 490.441253 205.897743 
L 490.659791 206.236706 
L 491.096867 194.636646 
L 491.533943 171.072456 
L 491.75248 168.825258 
L 491.971018 167.91508 
L 492.189556 173.922254 
L 492.408094 170.168555 
L 492.626632 178.146734 
L 493.063708 169.923748 
L 493.282245 172.07679 
L 493.500783 163.929129 
L 493.719321 162.548169 
L 493.937859 163.79731 
L 494.593473 158.920012 
L 494.81201 155.731251 
L 495.249086 143.622747 
L 495.467624 145.192019 
L 495.686162 142.988761 
L 495.9047 138.594799 
L 496.123238 137.36449 
L 496.341775 135.1424 
L 496.560313 134.828546 
L 496.997389 130.67939 
L 497.215927 129.436527 
L 497.434465 131.495412 
L 497.653003 134.633956 
L 497.87154 131.746495 
L 498.090078 132.374204 
L 498.308616 130.936751 
L 498.527154 132.192169 
L 498.745692 129.367479 
L 499.838381 124.483904 
L 500.056919 124.490181 
L 500.275457 127.917471 
L 500.493995 128.54518 
L 500.712533 118.539501 
L 500.93107 116.813301 
L 501.149608 123.354028 
L 501.368146 122.09861 
L 501.586684 123.918966 
L 502.460836 113.166313 
L 502.679373 113.994889 
L 502.897911 113.524107 
L 503.116449 113.542938 
L 503.772063 117.497504 
L 503.990601 122.155104 
L 504.209138 120.479121 
L 504.646214 129.555791 
L 504.864752 128.796264 
L 505.08329 128.463578 
L 505.301828 129.5809 
L 505.520366 124.741264 
L 506.175979 132.600179 
L 506.394517 133.227888 
L 506.613055 134.564908 
L 506.831593 138.26839 
L 507.050131 137.232671 
L 507.268668 137.96709 
L 507.487206 137.433538 
L 508.14282 139.128352 
L 508.361358 139.322941 
L 508.579896 141.58897 
L 508.798433 145.342669 
L 509.235509 137.62185 
L 509.454047 139.511254 
L 509.891123 140.779226 
L 510.328198 144.903273 
L 510.765274 144.903273 
L 511.639426 140.923599 
L 511.857963 140.911045 
L 512.076501 140.565805 
L 512.295039 140.860828 
L 512.513577 141.488537 
L 512.732115 137.094575 
L 513.387728 140.860828 
L 513.606266 140.860828 
L 513.824804 139.442206 
L 514.043342 139.435929 
L 514.26188 140.691347 
L 514.698956 148.613032 
L 515.136031 160.162876 
L 515.354569 162.673711 
L 515.573107 160.470453 
L 515.791645 162.089942 
L 516.010183 159.48495 
L 516.228721 158.399014 
L 516.447258 156.051382 
L 516.665796 155.806576 
L 516.884334 153.923449 
L 517.102872 153.352234 
L 517.32141 152.316515 
L 517.539948 152.536213 
L 517.758486 149.724077 
L 517.977023 149.548319 
L 518.195561 152.548767 
L 518.414099 153.804185 
L 518.632637 152.548767 
L 518.851175 154.475833 
L 519.069713 154.601375 
L 519.288251 151.525602 
L 519.506789 154.984277 
L 519.725326 156.61632 
L 519.943864 159.754865 
L 520.162402 160.068719 
L 520.38094 160.068719 
L 520.599478 164.186489 
L 520.818016 164.173935 
L 521.036554 167.990405 
L 521.255091 168.505126 
L 521.473629 170.074398 
L 521.692167 172.497355 
L 521.910705 172.095621 
L 522.566319 167.011179 
L 522.784856 166.257929 
L 523.221932 162.479121 
L 523.44047 165.580003 
L 523.659008 165.881303 
L 523.877546 169.635002 
L 524.096084 168.687162 
L 524.314621 165.743207 
L 524.533159 165.699268 
L 525.188773 170.714661 
L 525.407311 169.848423 
L 525.625849 167.663996 
L 525.844386 169.89864 
L 526.281462 165.674159 
L 526.718538 167.965297 
L 527.155614 163.90402 
L 527.374151 164.261814 
L 527.592689 166.264206 
L 527.811227 166.873083 
L 528.248303 171.110118 
L 528.685379 171.631116 
L 529.340992 184.800448 
L 529.55953 187.800897 
L 529.778068 187.713017 
L 529.996606 190.223853 
L 530.215144 191.058706 
L 530.433681 190.839008 
L 530.652219 192.734688 
L 530.870757 192.740965 
L 531.089295 193.632312 
L 531.307833 193.305903 
L 531.526371 193.381229 
L 531.963446 193.983829 
L 532.181984 193.59465 
L 532.61906 198.735585 
L 532.837598 196.444448 
L 533.056136 199.815244 
L 533.274674 198.045105 
L 533.493211 191.17797 
L 533.711749 190.42472 
L 533.930287 188.604364 
L 534.148825 194.555044 
L 534.367363 194.812405 
L 534.585901 193.236855 
L 534.804439 190.022986 
L 535.022977 189.426663 
L 535.241514 190.914333 
L 535.460052 191.61109 
L 535.897128 189.658915 
L 536.115666 194.316515 
L 536.334204 196.023883 
L 536.552742 195.289463 
L 536.771279 187.857391 
L 536.989817 184.317113 
L 537.208355 183.526199 
L 537.426893 183.883993 
L 537.645431 187.267344 
L 537.863969 187.367778 
L 538.082507 186.658467 
L 538.301044 188.780123 
L 538.519582 192.897893 
L 538.73812 187.675355 
L 538.956658 187.60003 
L 539.175196 183.570139 
L 539.393734 186.746346 
L 539.612272 187.480765 
L 539.830809 186.175131 
L 540.267885 179.402152 
L 540.486423 176.100404 
L 540.704961 176.985473 
L 540.923499 188.824062 
L 541.142037 187.110417 
L 541.360574 184.097414 
L 541.579112 185.208459 
L 541.79765 183.953041 
L 542.016188 185.233567 
L 542.453264 201.616769 
L 542.671802 202.294694 
L 542.890339 200.392737 
L 543.108877 200.417845 
L 543.327415 202.752922 
L 543.545953 197.568047 
L 543.764491 199.237752 
L 543.983029 197.775191 
L 544.201567 197.461336 
L 544.420104 194.718248 
L 544.638642 194.485996 
L 544.85718 195.954835 
L 545.075718 196.387954 
L 545.294256 196.042714 
L 545.512794 196.0741 
L 545.731332 195.239247 
L 545.949869 195.722583 
L 546.386945 200.486893 
L 546.824021 194.467165 
L 547.042559 195.050934 
L 547.261097 197.178867 
L 547.479634 196.168256 
L 547.698172 194.605261 
L 547.91671 195.239247 
L 548.135248 194.617815 
L 548.353786 194.818682 
L 548.572324 190.179913 
L 549.009399 192.992049 
L 549.227937 195.440114 
L 549.446475 199.181258 
L 549.665013 194.762188 
L 549.883551 197.178867 
L 550.320627 194.021492 
L 550.539164 195.433836 
L 550.757702 197.593155 
L 550.97624 197.354626 
L 551.194778 197.436228 
L 551.413316 197.273023 
L 551.631854 196.469556 
L 551.850392 196.475833 
L 552.287467 193.425168 
L 552.506005 193.732745 
L 552.724543 196.513496 
L 553.161619 190.864116 
L 553.380157 193.707637 
L 553.598695 190.569093 
L 553.817232 189.727963 
L 554.03577 193.996383 
L 554.254308 192.276461 
L 554.472846 195.936004 
L 554.909922 192.797459 
L 555.12846 189.018652 
L 555.346997 188.221462 
L 555.565535 186.438768 
L 555.784073 186.815394 
L 556.221149 190.87667 
L 556.439687 191.140308 
L 556.658225 191.165416 
L 556.876762 191.705246 
L 557.0953 194.435779 
L 557.313838 194.617815 
L 557.532376 188.987266 
L 557.750914 189.489434 
L 558.18799 185.597639 
L 558.406527 184.92599 
L 558.843603 169.904917 
L 559.062141 171.744104 
L 559.280679 171.392587 
L 559.717755 178.67401 
L 559.936292 180.877268 
L 560.15483 180.393932 
L 560.373368 181.492423 
L 560.591906 180.230728 
L 560.810444 176.69045 
L 561.028982 175.541743 
L 561.24752 173.633508 
L 561.466057 169.082618 
L 561.684595 170.639336 
L 561.903133 169.409027 
L 562.121671 172.359259 
L 562.340209 165.448184 
L 562.558747 165.981737 
L 562.777285 156.227141 
L 562.995822 156.522164 
L 563.21436 159.189927 
L 563.651436 146.522762 
L 564.088512 130.660559 
L 564.30705 129.210551 
L 564.525587 125.149275 
L 564.744125 125.877417 
L 564.962663 127.007293 
L 565.181201 129.675056 
L 565.399739 127.923748 
L 565.618277 130.120729 
L 565.836815 116.781916 
L 566.055352 113.17259 
L 566.27389 114.107876 
L 566.710966 111.427559 
L 566.929504 113.448782 
L 567.148042 108.828845 
L 567.36658 107.56715 
L 567.585117 109.927335 
L 567.803655 106.142251 
L 568.022193 108.954386 
L 568.240731 101.290061 
L 568.677807 94.925093 
L 568.896345 94.021193 
L 569.33342 99.563862 
L 569.770496 104.102197 
L 569.989034 101.798505 
L 570.42611 100.687461 
L 570.644648 100.361052 
L 570.863185 99.174682 
L 571.081723 107.579704 
L 571.300261 109.688806 
L 571.518799 110.335346 
L 571.737337 111.979943 
L 572.39295 120.799253 
L 572.830026 136.215782 
L 573.267102 139.222508 
L 573.48564 136.680287 
L 573.704178 141.086803 
L 573.922715 142.417546 
L 574.359791 137.948259 
L 574.796867 127.735436 
L 575.015405 128.708384 
L 575.233943 124.942131 
L 575.671018 132.681781 
L 575.889556 133.861874 
L 576.326632 133.20278 
L 576.763708 129.844537 
L 576.982245 131.708833 
L 577.200783 126.982185 
L 577.637859 132.06035 
L 577.856397 129.976356 
L 578.074935 133.378538 
L 578.293473 131.118786 
L 578.51201 133.391093 
L 578.730548 132.989359 
L 578.949086 133.234165 
L 579.167624 137.232671 
L 579.386162 134.897594 
L 579.6047 133.874428 
L 580.041775 139.128352 
L 580.260313 142.81928 
L 580.478851 141.921656 
L 580.697389 146.089643 
L 580.915927 147.288567 
L 581.134465 146.566702 
L 581.353003 141.714512 
L 581.790078 143.095472 
L 582.008616 141.281393 
L 582.227154 141.501091 
L 582.445692 142.536811 
L 582.66423 140.113854 
L 582.882768 141.752175 
L 583.101305 141.143297 
L 583.319843 142.386161 
L 583.756919 146.629472 
L 583.975457 145.342669 
L 584.193995 144.928381 
L 584.412533 146.748737 
L 584.63107 146.566702 
L 584.849608 147.081423 
L 585.068146 146.880556 
L 585.286684 148.732297 
L 585.505222 146.347003 
L 585.72376 154.984277 
L 585.942298 154.752025 
L 586.160836 156.817187 
L 586.379373 160.734091 
L 586.597911 169.339979 
L 587.034987 163.998177 
L 587.253525 164.563115 
L 587.472063 168.743656 
L 587.690601 168.335645 
L 588.127676 169.691496 
L 588.564752 175.742609 
L 588.78329 173.721387 
L 589.001828 168.423524 
L 589.220366 168.737379 
L 590.094517 163.100553 
L 591.405744 174.945419 
L 591.624282 175.974862 
L 592.279896 173.300822 
L 592.498433 173.934808 
L 592.716971 174.926588 
L 592.935509 176.684173 
L 593.591123 178.793275 
L 593.809661 183.381826 
L 594.028198 183.017755 
L 594.246736 181.8 
L 594.465274 183.545031 
L 594.683812 180.130294 
L 594.90235 180.375101 
L 595.339426 178.680287 
L 595.557963 177.707338 
L 595.995039 173.438918 
L 596.432115 175.121178 
L 596.650653 175.014467 
L 597.743342 183.350441 
L 597.96188 181.517531 
L 598.180418 181.856494 
L 598.398956 181.228785 
L 598.617493 177.719892 
L 598.836031 177.092184 
L 599.054569 177.073352 
L 599.273107 175.799103 
L 599.491645 177.970976 
L 599.710183 181.279002 
L 599.928721 180.619907 
L 600.147258 180.965147 
L 600.584334 184.882051 
L 601.02141 180.437872 
L 601.239948 179.803886 
L 601.458486 178.617516 
L 601.677023 186.821671 
L 602.551175 174.506023 
L 602.769713 174.593902 
L 602.988251 175.271828 
L 603.206789 174.342819 
L 603.425326 174.844986 
L 603.862402 170.670722 
L 604.08094 174.957973 
L 604.299478 173.583291 
L 604.518016 173.583291 
L 604.736554 177.368375 
L 604.955091 176.112958 
L 605.173629 176.338933 
L 605.392167 175.070961 
L 605.610705 175.365984 
L 606.047781 163.941683 
L 606.266319 166.647108 
L 606.484856 164.933463 
L 606.703394 165.994291 
L 606.921932 162.435182 
L 607.14047 165.88758 
L 607.359008 166.540398 
L 608.014621 157.752473 
L 608.233159 156.798356 
L 608.451697 154.664146 
L 608.670235 155.486444 
L 608.888773 158.612435 
L 609.107311 156.089045 
L 609.762924 161.110716 
L 609.981462 161.104439 
L 610.2 158.568495 
L 610.418538 160.231923 
L 610.637076 160.815693 
L 611.074151 162.617217 
L 611.511227 155.618263 
L 611.948303 160.489284 
L 612.166841 161.229981 
L 612.385379 160.08755 
L 612.603916 159.666986 
L 612.822454 161.418293 
L 613.040992 160.545778 
L 613.25953 159.039277 
L 613.696606 162.46029 
L 613.915144 162.598386 
L 614.133681 163.370468 
L 614.570757 161.587775 
L 614.789295 162.347302 
L 615.007833 161.16721 
L 615.226371 161.543835 
L 615.663446 166.684771 
L 615.881984 166.552952 
L 616.100522 166.873083 
L 616.31906 170.061844 
L 616.537598 169.132835 
L 616.756136 170.268988 
L 616.974674 169.05751 
L 617.193211 171.009685 
L 617.411749 169.823315 
L 617.630287 171.461635 
L 618.067363 169.164221 
L 618.285901 168.247766 
L 618.504439 168.643222 
L 618.722977 167.230877 
L 618.941514 167.37525 
L 619.37859 165.197101 
L 619.597128 165.222209 
L 619.815666 164.236706 
L 620.034204 165.190823 
L 620.252742 165.253594 
L 620.471279 164.569392 
L 620.908355 162.096219 
L 621.126893 162.968734 
L 621.563969 161.901629 
L 621.782507 161.863967 
L 622.001044 161.242535 
L 622.219582 160.257032 
L 622.43812 161.794919 
L 622.656658 162.271977 
L 623.093734 165.818532 
L 623.312272 166.019399 
L 623.530809 166.584337 
L 623.749347 165.517232 
L 623.967885 165.341474 
L 624.404961 165.875026 
L 624.623499 167.406636 
L 625.060574 173.212943 
L 625.279112 170.463578 
L 625.49765 170.746047 
L 625.934726 174.694336 
L 626.153264 172.616619 
L 626.371802 172.823763 
L 626.590339 174.644119 
L 626.808877 175.133732 
L 627.464491 172.67939 
L 627.683029 173.093678 
L 628.120104 171.806875 
L 628.338642 171.267045 
L 628.55718 171.179166 
L 628.994256 173.784158 
L 629.212794 173.018353 
L 629.431332 171.725273 
L 629.649869 172.72333 
L 629.868407 171.92614 
L 630.086945 172.993245 
L 630.305483 173.32593 
L 630.524021 172.949305 
L 630.742559 171.323539 
L 631.179634 170.714661 
L 631.398172 171.624839 
L 631.61671 170.664445 
L 631.835248 173.897145 
L 632.272324 174.85754 
L 632.490862 174.907757 
L 632.709399 175.69867 
L 633.146475 171.530683 
L 633.365013 171.643671 
L 633.583551 169.007293 
L 633.802089 169.164221 
L 634.020627 168.662054 
L 634.239164 167.645165 
L 634.457702 167.733044 
L 634.67624 169.427858 
L 634.894778 168.781318 
L 635.113316 165.893857 
L 635.331854 166.634554 
L 635.550392 166.201435 
L 635.76893 167.689105 
L 635.987467 166.697325 
L 636.206005 168.103393 
L 636.424543 166.119833 
L 636.643081 167.325034 
L 636.861619 166.559229 
L 637.080157 165.09039 
L 637.298695 166.691048 
L 637.517232 170.93436 
L 637.73577 171.022239 
L 637.954308 172.07679 
L 638.172846 172.459692 
L 638.391384 172.145838 
L 638.609922 169.860977 
L 638.82846 170.024182 
L 639.046997 171.260768 
L 639.265535 170.783709 
L 639.484073 170.576566 
L 639.702611 169.371365 
L 639.921149 170.369422 
L 640.358225 174.104289 
L 640.576762 173.438918 
L 640.7953 171.392587 
L 641.013838 168.078284 
L 641.232376 168.787595 
L 641.450914 165.667882 
L 641.669452 168.329368 
L 641.88799 167.61378 
L 642.106527 168.969631 
L 642.325065 168.969631 
L 642.543603 171.009685 
L 642.762141 170.030459 
L 643.199217 169.547123 
L 643.417755 169.860977 
L 643.636292 169.339979 
L 644.073368 166.421133 
L 644.291906 166.684771 
L 644.510444 167.400359 
L 644.728982 166.722433 
L 644.94752 166.691048 
L 645.603133 166.03823 
L 646.040209 162.202929 
L 646.258747 162.767867 
L 646.695822 160.58344 
L 646.91436 162.466567 
L 647.132898 165.605111 
L 647.351436 166.339531 
L 647.788512 168.944522 
L 648.00705 166.734987 
L 648.225587 169.434135 
L 648.444125 169.120281 
L 648.881201 175.949753 
L 649.099739 175.485249 
L 649.318277 172.120729 
L 649.536815 165.93152 
L 649.755352 168.536512 
L 649.97389 168.486295 
L 650.192428 170.212494 
L 650.410966 169.628725 
L 650.629504 162.033448 
L 650.848042 170.281542 
L 651.06658 171.643671 
L 651.285117 187.235959 
L 651.503655 194.624092 
L 651.722193 195.38362 
L 652.159269 204.039725 
L 652.377807 192.540099 
L 652.596345 193.858287 
L 652.814883 194.303961 
L 653.03342 196.205918 
L 653.251958 191.259573 
L 653.470496 190.305455 
L 653.689034 190.048094 
L 654.12611 179.056912 
L 654.344648 174.757107 
L 654.781723 178.021193 
L 655.218799 175.252997 
L 655.437337 174.788492 
L 655.655875 172.03285 
L 655.874413 167.745599 
L 656.530026 174.31771 
L 656.967102 167.080227 
L 657.18564 169.145389 
L 657.404178 166.477627 
L 657.841253 158.64382 
L 658.278329 162.65488 
L 658.496867 158.593603 
L 658.715405 160.865909 
L 658.933943 160.683874 
L 659.15248 165.052728 
L 659.371018 161.179764 
L 659.808094 161.719593 
L 660.24517 165.636497 
L 660.463708 164.556838 
L 661.119321 171.059901 
L 661.774935 168.643222 
L 661.993473 169.239546 
L 662.649086 165.63022 
L 662.867624 167.262263 
L 663.086162 167.87114 
L 663.3047 165.39169 
L 663.523238 166.42741 
L 663.741775 166.509012 
L 663.960313 167.601226 
L 664.397389 173.162726 
L 664.615927 175.014467 
L 664.834465 178.567299 
L 665.053003 177.920759 
L 665.490078 184.62469 
L 665.708616 185.020146 
L 665.927154 188.409774 
L 666.145692 189.552204 
L 666.36423 187.44938 
L 666.582768 189.6903 
L 666.801305 187.60003 
L 667.019843 187.713017 
L 667.238381 188.05198 
L 667.675457 185.258676 
L 667.893995 187.417994 
L 668.112533 187.367778 
L 668.33107 185.534868 
L 668.549608 185.001315 
L 668.986684 183.350441 
L 669.205222 179.879211 
L 669.42376 180.638739 
L 669.860836 178.956479 
L 670.297911 173.922254 
L 670.734987 179.402152 
L 671.172063 179.785055 
L 671.609138 179.056912 
L 671.827676 177.581796 
L 672.046214 178.97531 
L 672.264752 178.240891 
L 672.48329 175.340876 
L 672.701828 174.5123 
L 673.138903 179.916873 
L 673.357441 182.258227 
L 673.575979 181.379435 
L 674.013055 186.21907 
L 674.450131 184.047198 
L 674.668668 182.208011 
L 674.887206 187.267344 
L 675.105744 189.018652 
L 675.324282 188.554147 
L 675.54282 188.353281 
L 675.761358 187.493319 
L 675.979896 187.417994 
L 676.198433 194.128202 
L 676.416971 194.253744 
L 676.635509 193.443999 
L 676.854047 199.714811 
L 677.072585 201.29036 
L 677.509661 207.197101 
L 677.728198 208.609446 
L 677.946736 215.777881 
L 678.383812 212.218771 
L 678.60235 215.664893 
L 678.820888 216.449529 
L 679.913577 194.109371 
L 680.132115 189.407831 
L 680.787728 184.963653 
L 681.006266 187.311284 
L 681.224804 186.853056 
L 681.443342 185.27123 
L 681.66188 186.137468 
L 681.880418 185.522314 
L 682.317493 191.768017 
L 682.536031 191.096368 
L 682.754569 187.857391 
L 683.191645 180.092632 
L 683.410183 182.785503 
L 683.628721 183.865162 
L 683.847258 180.444149 
L 684.065796 181.417098 
L 684.502872 176.433089 
L 684.72141 175.610791 
L 684.939948 175.447586 
L 685.158486 170.375699 
L 685.595561 173.683724 
L 685.814099 170.921805 
L 686.032637 170.381976 
L 686.251175 166.239097 
L 686.688251 165.78087 
L 686.906789 166.954685 
L 687.562402 158.173038 
L 687.78094 162.830638 
L 687.999478 164.525452 
L 688.655091 162.993842 
L 688.873629 164.946017 
L 689.092167 163.213541 
L 689.310705 167.287371 
L 689.529243 164.820475 
L 689.747781 168.053176 
L 689.966319 177.299327 
L 690.621932 168.323091 
L 690.84047 166.722433 
L 691.277546 174.549963 
L 691.496084 173.118786 
L 692.151697 175.69867 
L 692.370235 177.500194 
L 692.588773 176.144343 
L 692.807311 175.761441 
L 693.025849 175.868151 
L 693.244386 178.196951 
L 693.462924 176.972919 
L 693.9 178.799552 
L 694.118538 181.975758 
L 694.337076 179.119683 
L 694.555614 184.467763 
L 694.992689 184.492871 
L 695.211227 186.005649 
L 695.429765 185.490928 
L 695.866841 180.908653 
L 696.085379 183.362995 
L 696.303916 183.689404 
L 696.522454 179.979644 
L 696.740992 183.13702 
L 697.178068 185.72318 
L 697.615144 185.603916 
L 698.052219 186.595696 
L 698.270757 188.133582 
L 698.489295 184.574473 
L 698.926371 190.305455 
L 699.144909 190.029263 
L 699.363446 188.899387 
L 699.581984 189.19441 
L 699.800522 187.637692 
L 700.01906 192.025377 
L 700.456136 192.132088 
L 700.674674 189.100254 
L 700.893211 189.232073 
L 701.111749 193.519324 
L 701.330287 194.6492 
L 701.548825 198.974114 
L 701.767363 196.563712 
L 702.204439 194.404394 
L 702.422977 195.063488 
L 702.860052 206.889523 
L 703.734204 215.514243 
L 703.952742 215.307099 
L 704.171279 216.160783 
L 704.389817 217.598236 
L 704.608355 216.487192 
L 705.263969 214.974413 
L 705.701044 219.845434 
L 705.919582 217.981139 
L 706.13812 218.288716 
L 706.356658 217.322045 
L 706.575196 217.924645 
L 706.793734 217.340876 
L 707.012272 218.357764 
L 707.230809 218.244777 
L 707.449347 219.311882 
L 707.667885 218.464475 
L 707.886423 219.632013 
L 708.323499 213.298431 
L 708.760574 205.30142 
L 709.634726 174.40559 
L 710.071802 176.703004 
L 710.508877 175.54802 
L 710.727415 174.085458 
L 710.945953 174.807323 
L 711.164491 176.025078 
L 711.383029 175.001913 
L 711.601567 175.271828 
L 711.820104 175.836766 
L 712.038642 177.154954 
L 712.25718 175.058407 
L 712.475718 175.736332 
L 712.694256 173.97247 
L 712.912794 173.959916 
L 713.349869 176.031356 
L 713.568407 179.107129 
L 713.786945 173.005799 
L 714.005483 173.765327 
L 714.224021 173.401255 
L 714.442559 174.267494 
L 714.661097 173.809266 
L 714.879634 172.265102 
L 715.098172 174.323987 
L 715.31671 174.612734 
L 715.535248 173.495412 
L 715.753786 171.078733 
L 715.972324 171.486743 
L 716.190862 170.281542 
L 716.409399 170.607951 
L 716.627937 171.762935 
L 716.846475 171.73155 
L 717.283551 177.1424 
L 717.502089 172.252548 
L 717.720627 171.618562 
L 717.939164 173.577014 
L 718.37624 174.229831 
L 718.594778 169.409027 
L 719.031854 171.053624 
L 719.250392 169.653834 
L 719.46893 170.633059 
L 719.906005 168.693439 
L 720.124543 168.680885 
L 720.343081 169.835869 
L 720.561619 169.798207 
L 720.998695 166.075893 
L 721.43577 168.523958 
L 721.872846 163.979345 
L 722.091384 163.640383 
L 722.309922 158.122822 
L 722.52846 158.581049 
L 722.746997 159.999671 
L 722.965535 152.580152 
L 723.184073 151.324735 
L 723.402611 152.159588 
L 723.839687 148.751128 
L 724.058225 152.423225 
L 724.276762 152.291406 
L 724.4953 150.157196 
L 724.713838 152.975609 
L 725.150914 155.794022 
L 725.369452 160.426513 
L 726.025065 153.465222 
L 726.243603 153.107428 
L 726.462141 152.373009 
L 726.680679 152.73708 
L 727.117755 149.893559 
L 727.336292 147.891167 
L 727.773368 152.900284 
L 727.991906 150.954386 
L 728.210444 151.858287 
L 728.428982 153.797908 
L 728.64752 152.774742 
L 728.866057 154.507219 
L 729.084595 152.291406 
L 729.303133 157.35074 
L 729.958747 159.955732 
L 730.395822 169.283485 
L 730.61436 170.174832 
L 730.832898 169.365087 
L 731.051436 167.5259 
L 731.269974 173.985025 
L 731.488512 170.946914 
L 731.70705 170.702107 
L 731.925587 170.877866 
L 732.144125 170.388253 
L 732.581201 167.695382 
L 732.799739 166.358362 
L 733.018277 170.256434 
L 733.236815 171.436527 
L 733.455352 171.957525 
L 734.110966 183.218622 
L 734.329504 180.444149 
L 734.548042 180.337438 
L 735.203655 187.769511 
L 735.422193 183.814945 
L 735.859269 163.596443 
L 736.077807 159.6356 
L 736.296345 159.742311 
L 736.514883 145.053923 
L 736.951958 143.390495 
L 737.389034 146.497654 
L 737.607572 150.722134 
L 737.82611 152.661755 
L 738.044648 150.948109 
L 738.263185 154.337737 
L 738.481723 155.737528 
L 738.700261 147.426663 
L 738.918799 147.23835 
L 739.137337 145.524705 
L 739.574413 134.859931 
L 739.79295 135.977253 
L 740.011488 135.537857 
L 740.230026 138.95887 
L 740.448564 139.065581 
L 740.667102 135.801495 
L 741.541253 114.603766 
L 741.759791 112.946615 
L 741.978329 113.279301 
L 742.196867 107.937498 
L 742.415405 113.260469 
L 742.633943 113.850516 
L 743.071018 116.455507 
L 743.508094 123.680436 
L 743.726632 125.193215 
L 744.163708 121.571335 
L 744.382245 119.487341 
L 744.600783 121.10683 
L 744.819321 120.943626 
L 745.037859 122.676102 
L 745.474935 120.937349 
L 745.693473 120.629771 
L 745.91201 120.667434 
L 746.130548 120.108773 
L 746.349086 118.92868 
L 746.786162 116.047497 
L 747.0047 118.464176 
L 747.223238 118.338634 
L 747.441775 118.639934 
L 747.660313 116.957674 
L 747.878851 117.302914 
L 748.097389 114.566104 
L 748.315927 109.475385 
L 748.534465 112.356569 
L 748.753003 113.342071 
L 748.97154 115.061994 
L 749.190078 118.683874 
L 749.408616 125.287371 
L 749.627154 125.783261 
L 749.845692 125.852309 
L 750.282768 103.581199 
L 750.501305 100.480317 
L 750.938381 108.941832 
L 751.156919 108.841399 
L 751.593995 114.026274 
L 751.812533 124.42741 
L 752.249608 129.825706 
L 752.468146 131.156449 
L 752.686684 135.594351 
L 752.905222 133.723778 
L 753.12376 133.102346 
L 753.342298 135.908205 
L 753.560836 133.246719 
L 753.779373 138.368824 
L 753.997911 138.695232 
L 754.216449 134.533523 
L 754.434987 134.376595 
L 754.872063 137.439815 
L 755.090601 137.251502 
L 755.309138 135.996084 
L 755.527676 132.305156 
L 755.746214 133.246719 
L 756.18329 141.576416 
L 756.401828 141.639187 
L 757.057441 147.834673 
L 757.275979 147.966492 
L 757.494517 143.522314 
L 757.713055 144.319504 
L 757.931593 145.55609 
L 758.368668 153.609595 
L 758.587206 150.979495 
L 758.805744 150.565207 
L 759.461358 157.564161 
L 759.679896 157.394679 
L 759.898433 161.951846 
L 760.116971 162.742759 
L 760.335509 165.705545 
L 760.554047 161.995785 
L 760.772585 163.044059 
L 760.991123 161.506172 
L 761.209661 162.661157 
L 761.428198 168.247766 
L 761.646736 176.960365 
L 761.865274 179.151069 
L 762.083812 178.153012 
L 762.30235 180.500643 
L 762.520888 180.142849 
L 762.739426 181.385712 
L 762.957963 174.914034 
L 763.176501 174.537408 
L 763.613577 174.537408 
L 764.050653 170.840203 
L 764.269191 161.041668 
L 764.487728 162.07111 
L 764.706266 162.089942 
L 764.924804 164.776536 
L 765.143342 165.912689 
L 765.36188 160.338634 
L 765.580418 160.903572 
L 765.798956 160.231923 
L 766.017493 165.529786 
L 766.236031 164.682379 
L 766.454569 162.774144 
L 766.673107 165.297534 
L 767.547258 159.252698 
L 767.765796 158.857241 
L 767.984334 155.674757 
L 768.202872 157.69598 
L 768.42141 156.497056 
L 768.639948 156.597489 
L 768.858486 156.936452 
L 769.077023 157.0055 
L 769.295561 158.737976 
L 769.514099 157.068271 
L 769.732637 156.61632 
L 769.951175 155.86307 
L 770.169713 145.512151 
L 770.388251 147.19441 
L 770.606789 145.989209 
L 770.825326 146.459991 
L 771.48094 142.210402 
L 771.699478 150.163473 
L 772.136554 147.715409 
L 772.355091 139.034195 
L 772.573629 135.111015 
L 772.792167 138.35627 
L 773.010705 137.527694 
L 773.447781 138.306053 
L 773.666319 137.12596 
L 773.884856 141.570139 
L 774.103394 141.563862 
L 774.321932 150.640532 
L 774.977546 151.889673 
L 775.196084 150.715857 
L 775.633159 152.429502 
L 775.851697 151.582095 
L 776.070235 151.902227 
L 776.288773 152.711971 
L 776.507311 155.649649 
L 776.725849 154.802242 
L 776.944386 145.047646 
L 777.162924 144.765177 
L 777.6 137.803886 
L 777.6 137.803886 
" style="fill:none;stroke:#1f77b4;stroke-linecap:square;stroke-width:1.5;"/>
   </g>
   <g id="patch_3">
    <path d="M 108 320.4 
L 108 43.2 
" style="fill:none;stroke:#000000;stroke-linecap:square;stroke-linejoin:miter;stroke-width:0.8;"/>
   </g>
   <g id="patch_4">
    <path d="M 777.6 320.4 
L 777.6 43.2 
" style="fill:none;stroke:#000000;stroke-linecap:square;stroke-linejoin:miter;stroke-width:0.8;"/>
   </g>
   <g id="patch_5">
    <path d="M 108 320.4 
L 777.6 320.4 
" style="fill:none;stroke:#000000;stroke-linecap:square;stroke-linejoin:miter;stroke-width:0.8;"/>
   </g>
   <g id="patch_6">
    <path d="M 108 43.2 
L 777.6 43.2 
" style="fill:none;stroke:#000000;stroke-linecap:square;stroke-linejoin:miter;stroke-width:0.8;"/>
   </g>
   <g id="text_18">
    <!-- 中债国债收益率利差 -->
    <defs>
     <path d="M 8.203125 62.0625 
L 45.796875 62.0625 
L 45.796875 83.34375 
L 54.203125 83.34375 
L 54.203125 62.0625 
L 92.1875 62.0625 
L 92.1875 17.53125 
L 84.1875 17.53125 
L 84.1875 22.796875 
L 54.203125 22.796875 
L 54.203125 -13.53125 
L 45.796875 -13.53125 
L 45.796875 22.796875 
L 16.21875 22.796875 
L 16.21875 17.53125 
L 8.203125 17.53125 
z
M 84.1875 54.828125 
L 54.203125 54.828125 
L 54.203125 30.03125 
L 84.1875 30.03125 
z
M 16.21875 30.03125 
L 45.796875 30.03125 
L 45.796875 54.828125 
L 16.21875 54.828125 
z
" id="MicrosoftYaHei-4e2d"/>
     <path d="M 26.859375 47.40625 
L 58.984375 47.40625 
L 58.984375 54.34375 
L 34.1875 54.34375 
L 34.1875 60.5 
L 58.984375 60.5 
L 58.984375 67.328125 
L 31.0625 67.328125 
L 31.0625 73.484375 
L 58.984375 73.484375 
L 58.984375 82.171875 
L 66.3125 82.171875 
L 66.3125 73.484375 
L 95.125 73.484375 
L 95.125 67.328125 
L 66.3125 67.328125 
L 66.3125 60.5 
L 90.328125 60.5 
L 90.328125 54.34375 
L 66.3125 54.34375 
L 66.3125 47.40625 
L 97.953125 47.40625 
L 97.953125 41.265625 
L 26.859375 41.265625 
z
M 1.265625 35.203125 
Q 12.890625 54.25 19.34375 82.375 
L 26.46875 81.109375 
Q 23.640625 70.65625 20.40625 61.375 
L 20.40625 -13.71875 
L 13.28125 -13.71875 
L 13.28125 44.09375 
Q 8.890625 35.015625 3.90625 27.390625 
Q 2.734375 31.390625 1.265625 35.203125 
z
M 34.859375 34.625 
L 89.15625 34.625 
L 89.15625 4.4375 
L 82.03125 4.4375 
L 82.03125 28.265625 
L 42 28.265625 
L 42 3.953125 
L 34.859375 3.953125 
z
M 58.5 25.140625 
L 65.625 25.140625 
Q 65.625 17.046875 64.0625 10.984375 
Q 80.5625 2.78125 97.265625 -7.765625 
L 92.875 -14.015625 
Q 77.546875 -3.953125 61.921875 4.9375 
Q 60.546875 2.09375 58.6875 0.046875 
Q 50.875 -8.9375 31.453125 -13.921875 
Q 28.515625 -8.453125 27.25 -6.890625 
Q 45.90625 -2.875 52.25 3.859375 
Q 58.5 9.8125 58.5 25.140625 
z
" id="MicrosoftYaHei-503a"/>
     <path d="M 7.328125 78.078125 
L 92.78125 78.078125 
L 92.78125 -13.03125 
L 85.25 -13.03125 
L 85.25 -8.15625 
L 14.84375 -8.15625 
L 14.84375 -13.140625 
L 7.328125 -13.140625 
z
M 85.25 71.140625 
L 14.84375 71.140625 
L 14.84375 -1.21875 
L 85.25 -1.21875 
z
M 19.34375 15.765625 
L 46.296875 15.765625 
L 46.296875 35.109375 
L 22.75 35.109375 
L 22.75 41.75 
L 46.296875 41.75 
L 46.296875 54.828125 
L 20.90625 54.828125 
L 20.90625 61.46875 
L 79.109375 61.46875 
L 79.109375 54.828125 
L 53.515625 54.828125 
L 53.515625 41.75 
L 77.15625 41.75 
L 77.15625 35.109375 
L 53.515625 35.109375 
L 53.515625 15.765625 
L 80.671875 15.765625 
L 80.671875 9.125 
L 19.34375 9.125 
z
M 58.59375 28.859375 
L 64.0625 32.953125 
Q 69.4375 27.390625 73.25 22.515625 
L 67.484375 18.109375 
Q 62.796875 24.46875 58.59375 28.859375 
z
" id="MicrosoftYaHei-56fd"/>
     <path d="M 35.0625 41.546875 
Q 47.5625 63.234375 53.125 83.453125 
L 61.03125 81.203125 
Q 57.90625 72.171875 54.5 63.921875 
L 97.078125 63.921875 
L 97.078125 56.6875 
L 85.59375 56.6875 
Q 84.125 28.421875 71.09375 10.640625 
Q 81 1.859375 99.21875 -4.640625 
Q 96.1875 -8.453125 93.65625 -12.453125 
Q 76.265625 -5.03125 65.921875 4.6875 
Q 56.5 -4.59375 39.84375 -13.328125 
Q 37.796875 -10.109375 34.859375 -6.78125 
Q 51.515625 1.5625 60.59375 10.5 
Q 49.3125 24.609375 46 45.5625 
Q 43.265625 40.234375 40.328125 35.296875 
Q 38.484375 38.140625 35.0625 41.546875 
z
M 26.265625 82.671875 
L 33.6875 82.671875 
L 33.6875 -12.75 
L 26.265625 -12.75 
L 26.265625 17.390625 
Q 20.3125 14.0625 14.15625 10.015625 
Q 11.625 8.15625 9.1875 5.609375 
L 3.609375 12.15625 
Q 6.640625 15.375 6.640625 20.5625 
L 6.640625 69 
L 14.0625 69 
L 14.0625 19 
Q 19.875 22.078125 26.265625 25.53125 
z
M 77.875 56.6875 
L 51.90625 56.6875 
Q 53.328125 32.859375 65.671875 16.546875 
Q 76.8125 32.234375 77.875 56.6875 
z
" id="MicrosoftYaHei-6536"/>
     <path d="M 1.765625 -1.609375 
L 15.921875 -1.609375 
L 15.921875 31.203125 
L 84.46875 31.203125 
L 84.46875 -1.609375 
L 97.953125 -1.609375 
L 97.953125 -8.453125 
L 1.765625 -8.453125 
z
M 4.109375 64.3125 
L 57.375 64.3125 
Q 66.015625 72.65625 74.125 83.34375 
L 81.25 78.859375 
Q 74.609375 71.140625 67.671875 64.3125 
L 96.484375 64.3125 
L 96.484375 57.46875 
L 4.109375 57.46875 
z
M 77.4375 24.5625 
L 63.765625 24.5625 
L 63.765625 -1.609375 
L 77.4375 -1.609375 
z
M 22.953125 -1.609375 
L 36.53125 -1.609375 
L 36.53125 24.5625 
L 22.953125 24.5625 
z
M 43.359375 -1.609375 
L 56.9375 -1.609375 
L 56.9375 24.5625 
L 43.359375 24.5625 
z
M 36.53125 54.4375 
L 41.3125 48.09375 
Q 26.078125 38.8125 7.125 29.25 
Q 5.171875 33.0625 3.125 36.078125 
Q 21.390625 44.875 36.53125 54.4375 
z
M 59.28125 48.296875 
L 63.28125 54.25 
Q 82.8125 45.0625 97.078125 37.25 
L 92.78125 30.03125 
Q 73.53125 41.15625 59.28125 48.296875 
z
M 19.34375 78.375 
L 24.421875 83.453125 
Q 32.8125 77.390625 39.546875 71.625 
L 33.984375 65.765625 
Q 27.640625 71.828125 19.34375 78.375 
z
" id="MicrosoftYaHei-76ca"/>
     <path d="M 39.453125 31.390625 
Q 40.96875 31.5 61.375 32.515625 
Q 58.9375 35.9375 56.640625 38.921875 
L 61.921875 42.234375 
Q 68.953125 34.421875 74.90625 25.828125 
L 68.65625 21.921875 
Q 66.9375 24.515625 65.28125 26.953125 
Q 46.734375 25.921875 34.578125 24.953125 
Q 32.421875 24.75 29.390625 24.078125 
L 26.953125 30.71875 
Q 29.890625 31.6875 31.34375 32.5625 
Q 39.59375 38.140625 47.65625 45.515625 
Q 40.578125 45.21875 35.546875 44.78125 
Q 33.5 44.484375 31.0625 43.890625 
L 28.125 49.859375 
Q 30.5625 50.734375 32.625 52.59375 
Q 39.203125 58.15625 44.921875 66.0625 
L 3.609375 66.0625 
L 3.609375 72.90625 
L 47.359375 72.90625 
Q 44.96875 77.25 42.875 80.515625 
L 49.90625 83.9375 
Q 53.71875 78.125 56.5 72.90625 
L 96.484375 72.90625 
L 96.484375 66.0625 
L 47.703125 66.0625 
L 52.34375 63.625 
Q 44.4375 55.515625 38.96875 50.734375 
Q 44.53125 50.875 53.515625 51.078125 
Q 57.421875 54.984375 61.328125 59.328125 
L 68.0625 55.421875 
Q 52.546875 40.671875 39.453125 31.390625 
z
M 2.25 15.484375 
L 46.78125 15.484375 
L 46.78125 24.078125 
L 54.5 24.078125 
L 54.5 15.484375 
L 98.046875 15.484375 
L 98.046875 8.640625 
L 54.5 8.640625 
L 54.5 -13.328125 
L 46.78125 -13.328125 
L 46.78125 8.640625 
L 2.25 8.640625 
z
M 26.859375 41.75 
L 30.375 35.984375 
Q 18.75 29.15625 6.640625 22.015625 
L 2.546875 28.5625 
Q 12.703125 33.34375 26.859375 41.75 
z
M 75.875 41.84375 
Q 89.84375 33.9375 97.65625 28.375 
L 93.359375 22.015625 
Q 83.296875 29.828125 71.875 36.578125 
z
M 93.65625 56.109375 
Q 86.234375 49.65625 77.546875 43.890625 
L 72.5625 49.078125 
Q 81.9375 55.21875 88.09375 61.375 
z
M 5.671875 56.78125 
L 10.640625 61.578125 
Q 18.75 55.125 24.8125 49.359375 
L 19.34375 44 
Q 13.671875 49.953125 5.671875 56.78125 
z
" id="MicrosoftYaHei-7387"/>
     <path d="M 1.171875 11.578125 
Q 14.265625 25.828125 23.25 46.828125 
L 1.65625 46.828125 
L 1.65625 53.953125 
L 25.09375 53.953125 
L 25.09375 68.609375 
Q 15.046875 67.625 5.171875 66.75 
Q 4.5 70.359375 3.21875 74.171875 
Q 26.65625 76.03125 51.078125 79.15625 
L 53.03125 71.734375 
Q 42.671875 70.453125 32.515625 69.390625 
L 32.515625 53.953125 
L 54.6875 53.953125 
L 54.6875 46.828125 
L 32.515625 46.828125 
L 32.515625 33.734375 
L 36.8125 37.84375 
Q 46 30.03125 55.078125 21.046875 
L 49.125 14.984375 
Q 43.171875 21.921875 32.515625 32.078125 
L 32.515625 -12.9375 
L 25.09375 -12.9375 
L 25.09375 35.890625 
Q 16.703125 16.9375 5.078125 2.78125 
Q 2.4375 9.125 1.171875 11.578125 
z
M 85.0625 81.203125 
L 92.78125 81.203125 
L 92.78125 -0.140625 
Q 92.78125 -12.546875 80.28125 -12.453125 
Q 76.265625 -12.453125 67.28125 -12.359375 
Q 66.703125 -8.34375 65.828125 -3.5625 
Q 73.734375 -4.4375 77.828125 -4.4375 
Q 85.0625 -4.546875 85.0625 2.875 
z
M 61.921875 71.4375 
L 69.34375 71.4375 
L 69.34375 9.71875 
L 61.921875 9.71875 
z
" id="MicrosoftYaHei-5229"/>
     <path d="M 17.09375 -2.6875 
L 53.421875 -2.6875 
L 53.421875 13.921875 
L 28.328125 13.921875 
L 28.328125 17 
Q 18.75 6.15625 5.171875 -3.078125 
Q 3.21875 0.046875 0.484375 3.859375 
Q 18.953125 16.0625 29.046875 31 
L 3.125 31 
L 3.125 37.640625 
L 33.109375 37.640625 
Q 35.546875 42.09375 37.640625 47.3125 
L 9.96875 47.3125 
L 9.96875 53.859375 
L 40.140625 53.859375 
Q 41.65625 58.25 42.96875 63.140625 
L 7.625 63.140625 
L 7.625 69.78125 
L 32.421875 69.78125 
Q 28.328125 74.953125 23.640625 80.03125 
L 29.203125 84.328125 
Q 34.859375 78.859375 40.046875 73 
L 35.59375 69.78125 
L 65.921875 69.78125 
L 62.109375 73.1875 
Q 67.875 78.859375 72.359375 84.421875 
L 79 80.03125 
Q 74.03125 74.5625 68.953125 69.78125 
L 94.53125 69.78125 
L 94.53125 63.140625 
L 51.421875 63.140625 
Q 50.09375 58.296875 48.578125 53.859375 
L 90.828125 53.859375 
L 90.828125 47.3125 
L 46.296875 47.3125 
Q 44.34375 42.1875 42.140625 37.640625 
L 98.34375 37.640625 
L 98.34375 31 
L 38.578125 31 
Q 35.296875 25.53125 31.203125 20.453125 
L 87.703125 20.453125 
L 87.703125 13.921875 
L 61.328125 13.921875 
L 61.328125 -2.6875 
L 97.078125 -2.6875 
L 97.078125 -9.328125 
L 17.09375 -9.328125 
z
" id="MicrosoftYaHei-5dee"/>
    </defs>
    <g transform="translate(388.8 37.2)scale(0.12 -0.12)">
     <use xlink:href="#MicrosoftYaHei-4e2d"/>
     <use x="100" xlink:href="#MicrosoftYaHei-503a"/>
     <use x="200" xlink:href="#MicrosoftYaHei-56fd"/>
     <use x="300" xlink:href="#MicrosoftYaHei-503a"/>
     <use x="400" xlink:href="#MicrosoftYaHei-6536"/>
     <use x="500" xlink:href="#MicrosoftYaHei-76ca"/>
     <use x="600" xlink:href="#MicrosoftYaHei-7387"/>
     <use x="700" xlink:href="#MicrosoftYaHei-5229"/>
     <use x="800" xlink:href="#MicrosoftYaHei-5dee"/>
    </g>
   </g>
   <g id="legend_1">
    <g id="patch_7">
     <path d="M 690.7625 66.679688 
L 770.6 66.679688 
Q 772.6 66.679688 772.6 64.679688 
L 772.6 50.2 
Q 772.6 48.2 770.6 48.2 
L 690.7625 48.2 
Q 688.7625 48.2 688.7625 50.2 
L 688.7625 64.679688 
Q 688.7625 66.679688 690.7625 66.679688 
z
" style="fill:#ffffff;opacity:0.8;stroke:#cccccc;stroke-linejoin:miter;"/>
    </g>
    <g id="line2d_34">
     <path d="M 692.7625 56.69375 
L 712.7625 56.69375 
" style="fill:none;stroke:#1f77b4;stroke-linecap:square;stroke-width:1.5;"/>
    </g>
    <g id="line2d_35"/>
    <g id="text_19">
     <!-- 10年 - 3月 -->
     <defs>
      <path d="M 1.859375 19.96875 
L 17.578125 19.96875 
L 17.578125 47.90625 
L 52.15625 47.90625 
L 52.15625 65.28125 
L 23.4375 65.28125 
Q 16.84375 53.421875 8.6875 43.40625 
Q 6.15625 46.140625 2.640625 48.875 
Q 16.5 64.5 23.4375 83.9375 
L 31.453125 81.6875 
Q 29.390625 76.859375 27.15625 72.3125 
L 94.34375 72.3125 
L 94.34375 65.28125 
L 60.0625 65.28125 
L 60.0625 47.90625 
L 92.671875 47.90625 
L 92.671875 41.0625 
L 60.0625 41.0625 
L 60.0625 19.96875 
L 98.734375 19.96875 
L 98.734375 12.9375 
L 60.0625 12.9375 
L 60.0625 -13.421875 
L 52.15625 -13.421875 
L 52.15625 12.9375 
L 1.859375 12.9375 
z
M 25.296875 19.96875 
L 52.15625 19.96875 
L 52.15625 41.0625 
L 25.296875 41.0625 
z
" id="MicrosoftYaHei-5e74"/>
      <path id="MicrosoftYaHei-20"/>
      <path d="M 25.046875 20.0625 
Q 22.859375 1.21875 10.359375 -14.015625 
Q 7.234375 -10.984375 3.609375 -8.15625 
Q 13.09375 2.09375 16.3125 16.265625 
Q 18.5625 26.703125 18.5625 45.171875 
L 18.5625 78.953125 
L 83.796875 78.953125 
L 83.796875 2.78125 
Q 83.796875 -11.671875 70.015625 -11.671875 
Q 64.265625 -11.671875 55.171875 -11.46875 
Q 54.6875 -7.953125 53.71875 -3.265625 
Q 62.703125 -3.859375 67.875 -3.859375 
Q 75.78125 -3.859375 75.78125 3.859375 
L 75.78125 20.0625 
z
M 25.828125 27.203125 
L 75.78125 27.203125 
L 75.78125 45.953125 
L 26.5625 45.953125 
Q 26.5625 36.1875 25.828125 27.203125 
z
M 26.5625 71.625 
L 26.5625 53.078125 
L 75.78125 53.078125 
L 75.78125 71.625 
z
" id="MicrosoftYaHei-6708"/>
     </defs>
     <g transform="translate(720.7625 60.19375)scale(0.1 -0.1)">
      <use xlink:href="#MicrosoftYaHei-31"/>
      <use x="58.642578" xlink:href="#MicrosoftYaHei-30"/>
      <use x="117.285156" xlink:href="#MicrosoftYaHei-5e74"/>
      <use x="217.285156" xlink:href="#MicrosoftYaHei-20"/>
      <use x="246.875" xlink:href="#MicrosoftYaHei-2d"/>
      <use x="290.136719" xlink:href="#MicrosoftYaHei-20"/>
      <use x="319.726562" xlink:href="#MicrosoftYaHei-33"/>
      <use x="378.369141" xlink:href="#MicrosoftYaHei-6708"/>
     </g>
    </g>
   </g>
  </g>
 </g>
 <defs>
  <clipPath id="pb286782405">
   <rect height="277.2" width="669.6" x="108" y="43.2"/>
  </clipPath>
 </defs>
</svg>
