<?xml version="1.0" encoding="utf-8" standalone="no"?>
<!DOCTYPE svg PUBLIC "-//W3C//DTD SVG 1.1//EN"
  "http://www.w3.org/Graphics/SVG/1.1/DTD/svg11.dtd">
<!-- Created with matplotlib (http://matplotlib.org/) -->
<svg height="360pt" version="1.1" viewBox="0 0 864 360" width="864pt" xmlns="http://www.w3.org/2000/svg" xmlns:xlink="http://www.w3.org/1999/xlink">
 <defs>
  <style type="text/css">
*{stroke-linecap:butt;stroke-linejoin:round;}
  </style>
 </defs>
 <g id="figure_1">
  <g id="patch_1">
   <path d="M 0 360 
L 864 360 
L 864 0 
L 0 0 
z
" style="fill:#ffffff;"/>
  </g>
  <g id="axes_1">
   <g id="patch_2">
    <path d="M 108 320.4 
L 777.6 320.4 
L 777.6 43.2 
L 108 43.2 
z
" style="fill:#ffffff;"/>
   </g>
   <g id="matplotlib.axis_1">
    <g id="xtick_1">
     <g id="line2d_1">
      <path clip-path="url(#p7c733351e4)" d="M 108 320.4 
L 108 43.2 
" style="fill:none;stroke:#b0b0b0;stroke-linecap:square;stroke-width:0.8;"/>
     </g>
     <g id="line2d_2">
      <defs>
       <path d="M 0 0 
L 0 3.5 
" id="mef56eb3cb6" style="stroke:#000000;stroke-width:0.8;"/>
      </defs>
      <g>
       <use style="stroke:#000000;stroke-width:0.8;" x="108" xlink:href="#mef56eb3cb6" y="320.4"/>
      </g>
     </g>
     <g id="text_1">
      <!-- 2007-01-05 -->
      <defs>
       <path d="M 51.171875 0 
L 5.171875 0 
L 5.171875 8.296875 
L 27.15625 30.21875 
Q 36.234375 39.3125 39.3125 44.609375 
Q 42.390625 49.90625 42.390625 55.5625 
Q 42.390625 62.015625 38.765625 65.453125 
Q 35.15625 68.890625 28.328125 68.890625 
Q 18.21875 68.890625 9.03125 60.296875 
L 9.03125 70.015625 
Q 17.96875 76.90625 29.828125 76.90625 
Q 40.046875 76.90625 45.953125 71.390625 
Q 51.859375 65.875 51.859375 56.546875 
Q 51.859375 49.515625 48.0625 42.75 
Q 44.28125 35.984375 33.734375 25.53125 
L 16.5 8.6875 
L 16.5 8.5 
L 51.171875 8.5 
z
" id="MicrosoftYaHei-32"/>
       <path d="M 4.4375 36.328125 
Q 4.4375 56.34375 11.078125 66.625 
Q 17.71875 76.90625 30.328125 76.90625 
Q 54.34375 76.90625 54.34375 38.140625 
Q 54.34375 19 47.578125 8.859375 
Q 40.828125 -1.265625 28.609375 -1.265625 
Q 17.09375 -1.265625 10.765625 8.34375 
Q 4.4375 17.96875 4.4375 36.328125 
z
M 14.203125 36.765625 
Q 14.203125 6.640625 29.5 6.640625 
Q 44.53125 6.640625 44.53125 37.25 
Q 44.53125 68.953125 29.78125 68.953125 
Q 14.203125 68.953125 14.203125 36.765625 
z
" id="MicrosoftYaHei-30"/>
       <path d="M 53.765625 72.3125 
L 24.171875 0 
L 14.265625 0 
L 42.390625 67.1875 
L 4.59375 67.1875 
L 4.59375 75.640625 
L 53.765625 75.640625 
z
" id="MicrosoftYaHei-37"/>
       <path d="M 36.375 26.265625 
L 7.625 26.265625 
L 7.625 33.640625 
L 36.375 33.640625 
z
" id="MicrosoftYaHei-2d"/>
       <path d="M 52.59375 0 
L 9.234375 0 
L 9.234375 8.25 
L 26.171875 8.25 
L 26.171875 65.671875 
L 8.796875 60.640625 
L 8.796875 69.4375 
L 35.6875 77.25 
L 35.6875 8.25 
L 52.59375 8.25 
z
" id="MicrosoftYaHei-31"/>
       <path d="M 8.640625 11.625 
Q 16.265625 6.640625 24.515625 6.640625 
Q 32.328125 6.640625 37.109375 11 
Q 41.890625 15.375 41.890625 22.609375 
Q 41.890625 29.890625 37.03125 33.890625 
Q 32.171875 37.890625 22.953125 37.890625 
Q 18.5 37.890625 10.984375 37.203125 
L 10.984375 75.640625 
L 48.1875 75.640625 
L 48.1875 67.1875 
L 19.875 67.1875 
L 19.875 45.796875 
Q 24.125 46.046875 26.265625 46.046875 
Q 38.234375 46.046875 44.921875 39.984375 
Q 51.609375 33.9375 51.609375 23.296875 
Q 51.609375 12.3125 44.421875 5.515625 
Q 37.25 -1.265625 24.609375 -1.265625 
Q 14.015625 -1.265625 8.640625 1.859375 
z
" id="MicrosoftYaHei-35"/>
      </defs>
      <g transform="translate(80.217187 335.39375)scale(0.1 -0.1)">
       <use xlink:href="#MicrosoftYaHei-32"/>
       <use x="58.642578" xlink:href="#MicrosoftYaHei-30"/>
       <use x="117.285156" xlink:href="#MicrosoftYaHei-30"/>
       <use x="175.927734" xlink:href="#MicrosoftYaHei-37"/>
       <use x="234.570312" xlink:href="#MicrosoftYaHei-2d"/>
       <use x="277.832031" xlink:href="#MicrosoftYaHei-30"/>
       <use x="336.474609" xlink:href="#MicrosoftYaHei-31"/>
       <use x="395.117188" xlink:href="#MicrosoftYaHei-2d"/>
       <use x="438.378906" xlink:href="#MicrosoftYaHei-30"/>
       <use x="497.021484" xlink:href="#MicrosoftYaHei-35"/>
      </g>
     </g>
    </g>
    <g id="xtick_2">
     <g id="line2d_3">
      <path clip-path="url(#p7c733351e4)" d="M 214.556334 320.4 
L 214.556334 43.2 
" style="fill:none;stroke:#b0b0b0;stroke-linecap:square;stroke-width:0.8;"/>
     </g>
     <g id="line2d_4">
      <g>
       <use style="stroke:#000000;stroke-width:0.8;" x="214.556334" xlink:href="#mef56eb3cb6" y="320.4"/>
      </g>
     </g>
     <g id="text_2">
      <!-- 2009-01-05 -->
      <defs>
       <path d="M 9.03125 10.25 
Q 15.28125 6.640625 22.515625 6.640625 
Q 32.671875 6.640625 38.25 14.640625 
Q 43.84375 22.65625 43.84375 37.40625 
Q 43.75 37.3125 43.65625 37.40625 
Q 38.671875 27.9375 26.90625 27.9375 
Q 17.390625 27.9375 11.140625 34.46875 
Q 4.890625 41.015625 4.890625 51.46875 
Q 4.890625 62.59375 11.71875 69.75 
Q 18.5625 76.90625 29.4375 76.90625 
Q 40.71875 76.90625 47.0625 68.046875 
Q 53.421875 59.1875 53.421875 42.234375 
Q 53.421875 21.296875 45.21875 10.015625 
Q 37.015625 -1.265625 22.515625 -1.265625 
Q 14.546875 -1.265625 9.03125 1.3125 
z
M 14.546875 52.6875 
Q 14.546875 45.0625 18.453125 40.59375 
Q 22.359375 36.140625 29.25 36.140625 
Q 35.203125 36.140625 39.25 40.203125 
Q 43.3125 44.28125 43.3125 50.09375 
Q 43.3125 58.25 39.28125 63.59375 
Q 35.25 68.953125 28.65625 68.953125 
Q 22.5625 68.953125 18.546875 64.3125 
Q 14.546875 59.671875 14.546875 52.6875 
z
" id="MicrosoftYaHei-39"/>
      </defs>
      <g transform="translate(186.773521 335.39375)scale(0.1 -0.1)">
       <use xlink:href="#MicrosoftYaHei-32"/>
       <use x="58.642578" xlink:href="#MicrosoftYaHei-30"/>
       <use x="117.285156" xlink:href="#MicrosoftYaHei-30"/>
       <use x="175.927734" xlink:href="#MicrosoftYaHei-39"/>
       <use x="234.570312" xlink:href="#MicrosoftYaHei-2d"/>
       <use x="277.832031" xlink:href="#MicrosoftYaHei-30"/>
       <use x="336.474609" xlink:href="#MicrosoftYaHei-31"/>
       <use x="395.117188" xlink:href="#MicrosoftYaHei-2d"/>
       <use x="438.378906" xlink:href="#MicrosoftYaHei-30"/>
       <use x="497.021484" xlink:href="#MicrosoftYaHei-35"/>
      </g>
     </g>
    </g>
    <g id="xtick_3">
     <g id="line2d_5">
      <path clip-path="url(#p7c733351e4)" d="M 321.112667 320.4 
L 321.112667 43.2 
" style="fill:none;stroke:#b0b0b0;stroke-linecap:square;stroke-width:0.8;"/>
     </g>
     <g id="line2d_6">
      <g>
       <use style="stroke:#000000;stroke-width:0.8;" x="321.112667" xlink:href="#mef56eb3cb6" y="320.4"/>
      </g>
     </g>
     <g id="text_3">
      <!-- 2011-01-05 -->
      <g transform="translate(293.329855 335.39375)scale(0.1 -0.1)">
       <use xlink:href="#MicrosoftYaHei-32"/>
       <use x="58.642578" xlink:href="#MicrosoftYaHei-30"/>
       <use x="117.285156" xlink:href="#MicrosoftYaHei-31"/>
       <use x="175.927734" xlink:href="#MicrosoftYaHei-31"/>
       <use x="234.570312" xlink:href="#MicrosoftYaHei-2d"/>
       <use x="277.832031" xlink:href="#MicrosoftYaHei-30"/>
       <use x="336.474609" xlink:href="#MicrosoftYaHei-31"/>
       <use x="395.117188" xlink:href="#MicrosoftYaHei-2d"/>
       <use x="438.378906" xlink:href="#MicrosoftYaHei-30"/>
       <use x="497.021484" xlink:href="#MicrosoftYaHei-35"/>
      </g>
     </g>
    </g>
    <g id="xtick_4">
     <g id="line2d_7">
      <path clip-path="url(#p7c733351e4)" d="M 427.669001 320.4 
L 427.669001 43.2 
" style="fill:none;stroke:#b0b0b0;stroke-linecap:square;stroke-width:0.8;"/>
     </g>
     <g id="line2d_8">
      <g>
       <use style="stroke:#000000;stroke-width:0.8;" x="427.669001" xlink:href="#mef56eb3cb6" y="320.4"/>
      </g>
     </g>
     <g id="text_4">
      <!-- 2013-01-06 -->
      <defs>
       <path d="M 6.984375 12.640625 
Q 14.75 6.640625 24.515625 6.640625 
Q 32.328125 6.640625 36.890625 10.46875 
Q 41.453125 14.3125 41.453125 20.75 
Q 41.453125 35.109375 20.90625 35.109375 
L 14.59375 35.109375 
L 14.59375 43.015625 
L 20.609375 43.015625 
Q 38.8125 43.015625 38.8125 56.5 
Q 38.8125 68.953125 24.90625 68.953125 
Q 16.9375 68.953125 9.90625 63.578125 
L 9.90625 72.609375 
Q 17.328125 76.90625 27.25 76.90625 
Q 36.921875 76.90625 42.78125 71.84375 
Q 48.640625 66.796875 48.640625 58.734375 
Q 48.640625 43.890625 33.5 39.65625 
L 33.5 39.453125 
Q 41.703125 38.578125 46.453125 33.671875 
Q 51.21875 28.765625 51.21875 21.4375 
Q 51.21875 11.234375 43.875 4.984375 
Q 36.53125 -1.265625 24.3125 -1.265625 
Q 13.578125 -1.265625 6.984375 2.734375 
z
" id="MicrosoftYaHei-33"/>
       <path d="M 49.703125 65.921875 
Q 43.796875 68.953125 37.359375 68.953125 
Q 27.546875 68.953125 21.578125 60.40625 
Q 15.625 51.859375 15.53125 37.0625 
L 15.765625 37.0625 
Q 21.140625 47.46875 32.90625 47.46875 
Q 42.71875 47.46875 48.578125 41.0625 
Q 54.4375 34.671875 54.4375 24.078125 
Q 54.4375 12.984375 47.671875 5.859375 
Q 40.921875 -1.265625 30.421875 -1.265625 
Q 18.890625 -1.265625 12.328125 7.734375 
Q 5.765625 16.75 5.765625 33.296875 
Q 5.765625 53.328125 14.375 65.109375 
Q 23 76.90625 37.0625 76.90625 
Q 45.125 76.90625 49.703125 74.703125 
z
M 16.109375 24.75 
Q 16.109375 17.28125 20.09375 11.953125 
Q 24.078125 6.640625 30.671875 6.640625 
Q 36.921875 6.640625 40.828125 11.234375 
Q 44.734375 15.828125 44.734375 23.046875 
Q 44.734375 30.859375 41.046875 35.203125 
Q 37.359375 39.546875 30.5625 39.546875 
Q 24.125 39.546875 20.109375 35.15625 
Q 16.109375 30.765625 16.109375 24.75 
z
" id="MicrosoftYaHei-36"/>
      </defs>
      <g transform="translate(399.886188 335.39375)scale(0.1 -0.1)">
       <use xlink:href="#MicrosoftYaHei-32"/>
       <use x="58.642578" xlink:href="#MicrosoftYaHei-30"/>
       <use x="117.285156" xlink:href="#MicrosoftYaHei-31"/>
       <use x="175.927734" xlink:href="#MicrosoftYaHei-33"/>
       <use x="234.570312" xlink:href="#MicrosoftYaHei-2d"/>
       <use x="277.832031" xlink:href="#MicrosoftYaHei-30"/>
       <use x="336.474609" xlink:href="#MicrosoftYaHei-31"/>
       <use x="395.117188" xlink:href="#MicrosoftYaHei-2d"/>
       <use x="438.378906" xlink:href="#MicrosoftYaHei-30"/>
       <use x="497.021484" xlink:href="#MicrosoftYaHei-36"/>
      </g>
     </g>
    </g>
    <g id="xtick_5">
     <g id="line2d_9">
      <path clip-path="url(#p7c733351e4)" d="M 534.225334 320.4 
L 534.225334 43.2 
" style="fill:none;stroke:#b0b0b0;stroke-linecap:square;stroke-width:0.8;"/>
     </g>
     <g id="line2d_10">
      <g>
       <use style="stroke:#000000;stroke-width:0.8;" x="534.225334" xlink:href="#mef56eb3cb6" y="320.4"/>
      </g>
     </g>
     <g id="text_5">
      <!-- 2015-01-06 -->
      <g transform="translate(506.442522 335.39375)scale(0.1 -0.1)">
       <use xlink:href="#MicrosoftYaHei-32"/>
       <use x="58.642578" xlink:href="#MicrosoftYaHei-30"/>
       <use x="117.285156" xlink:href="#MicrosoftYaHei-31"/>
       <use x="175.927734" xlink:href="#MicrosoftYaHei-35"/>
       <use x="234.570312" xlink:href="#MicrosoftYaHei-2d"/>
       <use x="277.832031" xlink:href="#MicrosoftYaHei-30"/>
       <use x="336.474609" xlink:href="#MicrosoftYaHei-31"/>
       <use x="395.117188" xlink:href="#MicrosoftYaHei-2d"/>
       <use x="438.378906" xlink:href="#MicrosoftYaHei-30"/>
       <use x="497.021484" xlink:href="#MicrosoftYaHei-36"/>
      </g>
     </g>
    </g>
    <g id="xtick_6">
     <g id="line2d_11">
      <path clip-path="url(#p7c733351e4)" d="M 640.781668 320.4 
L 640.781668 43.2 
" style="fill:none;stroke:#b0b0b0;stroke-linecap:square;stroke-width:0.8;"/>
     </g>
     <g id="line2d_12">
      <g>
       <use style="stroke:#000000;stroke-width:0.8;" x="640.781668" xlink:href="#mef56eb3cb6" y="320.4"/>
      </g>
     </g>
     <g id="text_6">
      <!-- 2017-01-05 -->
      <g transform="translate(612.998855 335.39375)scale(0.1 -0.1)">
       <use xlink:href="#MicrosoftYaHei-32"/>
       <use x="58.642578" xlink:href="#MicrosoftYaHei-30"/>
       <use x="117.285156" xlink:href="#MicrosoftYaHei-31"/>
       <use x="175.927734" xlink:href="#MicrosoftYaHei-37"/>
       <use x="234.570312" xlink:href="#MicrosoftYaHei-2d"/>
       <use x="277.832031" xlink:href="#MicrosoftYaHei-30"/>
       <use x="336.474609" xlink:href="#MicrosoftYaHei-31"/>
       <use x="395.117188" xlink:href="#MicrosoftYaHei-2d"/>
       <use x="438.378906" xlink:href="#MicrosoftYaHei-30"/>
       <use x="497.021484" xlink:href="#MicrosoftYaHei-35"/>
      </g>
     </g>
    </g>
    <g id="xtick_7">
     <g id="line2d_13">
      <path clip-path="url(#p7c733351e4)" d="M 747.338001 320.4 
L 747.338001 43.2 
" style="fill:none;stroke:#b0b0b0;stroke-linecap:square;stroke-width:0.8;"/>
     </g>
     <g id="line2d_14">
      <g>
       <use style="stroke:#000000;stroke-width:0.8;" x="747.338001" xlink:href="#mef56eb3cb6" y="320.4"/>
      </g>
     </g>
     <g id="text_7">
      <!-- 2018-12-31 -->
      <defs>
       <path d="M 21.390625 39.796875 
Q 7.859375 46.09375 7.859375 58.0625 
Q 7.859375 66.40625 14.203125 71.65625 
Q 20.5625 76.90625 30.421875 76.90625 
Q 39.453125 76.90625 45.3125 71.96875 
Q 51.171875 67.046875 51.171875 59.234375 
Q 51.171875 46.625 37.0625 39.84375 
L 37.0625 39.65625 
Q 53.609375 33.6875 53.609375 19.34375 
Q 53.609375 9.90625 46.796875 4.3125 
Q 39.984375 -1.265625 27.78125 -1.265625 
Q 17.78125 -1.265625 11.46875 4.25 
Q 5.171875 9.765625 5.171875 18.5625 
Q 5.171875 33.015625 21.390625 39.59375 
z
M 41.5 58.109375 
Q 41.5 63.1875 38.328125 66.109375 
Q 35.15625 69.046875 29.734375 69.046875 
Q 24.65625 69.046875 21.09375 65.984375 
Q 17.53125 62.9375 17.53125 58.203125 
Q 17.53125 48.734375 29.390625 43.796875 
Q 41.5 48.828125 41.5 58.109375 
z
M 28.8125 35.25 
Q 14.796875 29.59375 14.796875 19.046875 
Q 14.796875 13.578125 18.890625 10.0625 
Q 23 6.546875 29.59375 6.546875 
Q 35.984375 6.546875 39.984375 10.03125 
Q 44 13.53125 44 18.75 
Q 44 29.734375 28.8125 35.25 
z
" id="MicrosoftYaHei-38"/>
      </defs>
      <g transform="translate(719.555189 335.39375)scale(0.1 -0.1)">
       <use xlink:href="#MicrosoftYaHei-32"/>
       <use x="58.642578" xlink:href="#MicrosoftYaHei-30"/>
       <use x="117.285156" xlink:href="#MicrosoftYaHei-31"/>
       <use x="175.927734" xlink:href="#MicrosoftYaHei-38"/>
       <use x="234.570312" xlink:href="#MicrosoftYaHei-2d"/>
       <use x="277.832031" xlink:href="#MicrosoftYaHei-31"/>
       <use x="336.474609" xlink:href="#MicrosoftYaHei-32"/>
       <use x="395.117188" xlink:href="#MicrosoftYaHei-2d"/>
       <use x="438.378906" xlink:href="#MicrosoftYaHei-33"/>
       <use x="497.021484" xlink:href="#MicrosoftYaHei-31"/>
      </g>
     </g>
    </g>
    <g id="text_8">
     <!-- 日期 -->
     <defs>
      <path d="M 15.234375 76.703125 
L 84.859375 76.703125 
L 84.859375 -11.96875 
L 76.5625 -11.96875 
L 76.5625 -5.03125 
L 23.53125 -5.03125 
L 23.53125 -11.96875 
L 15.234375 -11.96875 
z
M 23.53125 32.859375 
L 23.53125 2.09375 
L 76.5625 2.09375 
L 76.5625 32.859375 
z
M 23.53125 69.390625 
L 23.53125 40.1875 
L 76.5625 40.1875 
L 76.5625 69.390625 
z
" id="MicrosoftYaHei-65e5"/>
      <path d="M 58.890625 79.15625 
L 93.453125 79.15625 
L 93.453125 -0.046875 
Q 93.453125 -11.578125 82.515625 -11.578125 
Q 77.046875 -11.578125 71.78125 -11.28125 
Q 71.390625 -8.0625 70.609375 -3.765625 
Q 77.734375 -4.4375 80.859375 -4.4375 
Q 86.234375 -4.4375 86.234375 0.921875 
L 86.234375 21.4375 
L 65.328125 21.4375 
Q 64.265625 0.046875 52.34375 -14.109375 
Q 49.703125 -11.375 46.484375 -8.640625 
Q 54.390625 0.4375 56.546875 10.203125 
Q 58.890625 19.578125 58.890625 42.828125 
z
M 1.953125 17.828125 
L 11.140625 17.828125 
L 11.140625 62.9375 
L 3.125 62.9375 
L 3.125 69.578125 
L 11.140625 69.578125 
L 11.140625 81.5 
L 18.359375 81.5 
L 18.359375 69.578125 
L 38.671875 69.578125 
L 38.671875 81.890625 
L 45.90625 81.890625 
L 45.90625 69.578125 
L 53.8125 69.578125 
L 53.8125 62.9375 
L 45.90625 62.9375 
L 45.90625 17.828125 
L 53.71875 17.828125 
L 53.71875 11.1875 
L 1.953125 11.1875 
z
M 65.765625 27.875 
L 86.234375 27.875 
L 86.234375 47.015625 
L 66.109375 47.015625 
Q 66.21875 34.421875 65.765625 27.875 
z
M 86.234375 72.515625 
L 66.109375 72.515625 
L 66.109375 53.46875 
L 86.234375 53.46875 
z
M 18.359375 17.828125 
L 38.671875 17.828125 
L 38.671875 28.765625 
L 18.359375 28.765625 
z
M 18.359375 35.015625 
L 38.671875 35.015625 
L 38.671875 45.84375 
L 18.359375 45.84375 
z
M 18.359375 52.09375 
L 38.671875 52.09375 
L 38.671875 62.9375 
L 18.359375 62.9375 
z
M 18.359375 9.328125 
L 24.3125 4.640625 
Q 14.453125 -6 6.34375 -13.234375 
Q 4.296875 -10.890625 1.171875 -8.0625 
Q 10.453125 -0.140625 18.359375 9.328125 
z
M 31.15625 4.734375 
L 35.84375 9.515625 
Q 42.671875 4.4375 48.734375 -0.734375 
L 43.5625 -6.296875 
Q 38.09375 -0.828125 31.15625 4.734375 
z
" id="MicrosoftYaHei-671f"/>
     </defs>
     <g transform="translate(432.8 349.873438)scale(0.1 -0.1)">
      <use xlink:href="#MicrosoftYaHei-65e5"/>
      <use x="100" xlink:href="#MicrosoftYaHei-671f"/>
     </g>
    </g>
   </g>
   <g id="matplotlib.axis_2">
    <g id="ytick_1">
     <g id="line2d_15">
      <path clip-path="url(#p7c733351e4)" d="M 108 307.059304 
L 777.6 307.059304 
" style="fill:none;stroke:#b0b0b0;stroke-linecap:square;stroke-width:0.8;"/>
     </g>
     <g id="line2d_16">
      <defs>
       <path d="M 0 0 
L -3.5 0 
" id="ma1c117a9fd" style="stroke:#000000;stroke-width:0.8;"/>
      </defs>
      <g>
       <use style="stroke:#000000;stroke-width:0.8;" x="108" xlink:href="#ma1c117a9fd" y="307.059304"/>
      </g>
     </g>
     <g id="text_9">
      <!-- −1.5 -->
      <defs>
       <path d="M 62.0625 27.6875 
L 12.3125 27.6875 
L 12.3125 35.15625 
L 62.0625 35.15625 
z
" id="MicrosoftYaHei-2212"/>
       <path d="M 5.8125 5.03125 
Q 5.8125 7.671875 7.609375 9.46875 
Q 9.421875 11.28125 12.109375 11.28125 
Q 14.84375 11.28125 16.640625 9.453125 
Q 18.453125 7.625 18.453125 5.03125 
Q 18.453125 2.484375 16.640625 0.65625 
Q 14.84375 -1.171875 12.0625 -1.171875 
Q 9.375 -1.171875 7.59375 0.65625 
Q 5.8125 2.484375 5.8125 5.03125 
z
" id="MicrosoftYaHei-2e"/>
      </defs>
      <g transform="translate(79.446875 311.056179)scale(0.1 -0.1)">
       <use xlink:href="#MicrosoftYaHei-2212"/>
       <use x="74.169922" xlink:href="#MicrosoftYaHei-31"/>
       <use x="132.8125" xlink:href="#MicrosoftYaHei-2e"/>
       <use x="156.884766" xlink:href="#MicrosoftYaHei-35"/>
      </g>
     </g>
    </g>
    <g id="ytick_2">
     <g id="line2d_17">
      <path clip-path="url(#p7c733351e4)" d="M 108 275.67386 
L 777.6 275.67386 
" style="fill:none;stroke:#b0b0b0;stroke-linecap:square;stroke-width:0.8;"/>
     </g>
     <g id="line2d_18">
      <g>
       <use style="stroke:#000000;stroke-width:0.8;" x="108" xlink:href="#ma1c117a9fd" y="275.67386"/>
      </g>
     </g>
     <g id="text_10">
      <!-- −1.0 -->
      <g transform="translate(79.446875 279.670735)scale(0.1 -0.1)">
       <use xlink:href="#MicrosoftYaHei-2212"/>
       <use x="74.169922" xlink:href="#MicrosoftYaHei-31"/>
       <use x="132.8125" xlink:href="#MicrosoftYaHei-2e"/>
       <use x="156.884766" xlink:href="#MicrosoftYaHei-30"/>
      </g>
     </g>
    </g>
    <g id="ytick_3">
     <g id="line2d_19">
      <path clip-path="url(#p7c733351e4)" d="M 108 244.288417 
L 777.6 244.288417 
" style="fill:none;stroke:#b0b0b0;stroke-linecap:square;stroke-width:0.8;"/>
     </g>
     <g id="line2d_20">
      <g>
       <use style="stroke:#000000;stroke-width:0.8;" x="108" xlink:href="#ma1c117a9fd" y="244.288417"/>
      </g>
     </g>
     <g id="text_11">
      <!-- −0.5 -->
      <g transform="translate(79.446875 248.285292)scale(0.1 -0.1)">
       <use xlink:href="#MicrosoftYaHei-2212"/>
       <use x="74.169922" xlink:href="#MicrosoftYaHei-30"/>
       <use x="132.8125" xlink:href="#MicrosoftYaHei-2e"/>
       <use x="156.884766" xlink:href="#MicrosoftYaHei-35"/>
      </g>
     </g>
    </g>
    <g id="ytick_4">
     <g id="line2d_21">
      <path clip-path="url(#p7c733351e4)" d="M 108 212.902974 
L 777.6 212.902974 
" style="fill:none;stroke:#b0b0b0;stroke-linecap:square;stroke-width:0.8;"/>
     </g>
     <g id="line2d_22">
      <g>
       <use style="stroke:#000000;stroke-width:0.8;" x="108" xlink:href="#ma1c117a9fd" y="212.902974"/>
      </g>
     </g>
     <g id="text_12">
      <!-- 0.0 -->
      <g transform="translate(86.864063 216.899849)scale(0.1 -0.1)">
       <use xlink:href="#MicrosoftYaHei-30"/>
       <use x="58.642578" xlink:href="#MicrosoftYaHei-2e"/>
       <use x="82.714844" xlink:href="#MicrosoftYaHei-30"/>
      </g>
     </g>
    </g>
    <g id="ytick_5">
     <g id="line2d_23">
      <path clip-path="url(#p7c733351e4)" d="M 108 181.517531 
L 777.6 181.517531 
" style="fill:none;stroke:#b0b0b0;stroke-linecap:square;stroke-width:0.8;"/>
     </g>
     <g id="line2d_24">
      <g>
       <use style="stroke:#000000;stroke-width:0.8;" x="108" xlink:href="#ma1c117a9fd" y="181.517531"/>
      </g>
     </g>
     <g id="text_13">
      <!-- 0.5 -->
      <g transform="translate(86.864063 185.514406)scale(0.1 -0.1)">
       <use xlink:href="#MicrosoftYaHei-30"/>
       <use x="58.642578" xlink:href="#MicrosoftYaHei-2e"/>
       <use x="82.714844" xlink:href="#MicrosoftYaHei-35"/>
      </g>
     </g>
    </g>
    <g id="ytick_6">
     <g id="line2d_25">
      <path clip-path="url(#p7c733351e4)" d="M 108 150.132088 
L 777.6 150.132088 
" style="fill:none;stroke:#b0b0b0;stroke-linecap:square;stroke-width:0.8;"/>
     </g>
     <g id="line2d_26">
      <g>
       <use style="stroke:#000000;stroke-width:0.8;" x="108" xlink:href="#ma1c117a9fd" y="150.132088"/>
      </g>
     </g>
     <g id="text_14">
      <!-- 1.0 -->
      <g transform="translate(86.864063 154.128963)scale(0.1 -0.1)">
       <use xlink:href="#MicrosoftYaHei-31"/>
       <use x="58.642578" xlink:href="#MicrosoftYaHei-2e"/>
       <use x="82.714844" xlink:href="#MicrosoftYaHei-30"/>
      </g>
     </g>
    </g>
    <g id="ytick_7">
     <g id="line2d_27">
      <path clip-path="url(#p7c733351e4)" d="M 108 118.746645 
L 777.6 118.746645 
" style="fill:none;stroke:#b0b0b0;stroke-linecap:square;stroke-width:0.8;"/>
     </g>
     <g id="line2d_28">
      <g>
       <use style="stroke:#000000;stroke-width:0.8;" x="108" xlink:href="#ma1c117a9fd" y="118.746645"/>
      </g>
     </g>
     <g id="text_15">
      <!-- 1.5 -->
      <g transform="translate(86.864063 122.74352)scale(0.1 -0.1)">
       <use xlink:href="#MicrosoftYaHei-31"/>
       <use x="58.642578" xlink:href="#MicrosoftYaHei-2e"/>
       <use x="82.714844" xlink:href="#MicrosoftYaHei-35"/>
      </g>
     </g>
    </g>
    <g id="ytick_8">
     <g id="line2d_29">
      <path clip-path="url(#p7c733351e4)" d="M 108 87.361202 
L 777.6 87.361202 
" style="fill:none;stroke:#b0b0b0;stroke-linecap:square;stroke-width:0.8;"/>
     </g>
     <g id="line2d_30">
      <g>
       <use style="stroke:#000000;stroke-width:0.8;" x="108" xlink:href="#ma1c117a9fd" y="87.361202"/>
      </g>
     </g>
     <g id="text_16">
      <!-- 2.0 -->
      <g transform="translate(86.864063 91.358077)scale(0.1 -0.1)">
       <use xlink:href="#MicrosoftYaHei-32"/>
       <use x="58.642578" xlink:href="#MicrosoftYaHei-2e"/>
       <use x="82.714844" xlink:href="#MicrosoftYaHei-30"/>
      </g>
     </g>
    </g>
    <g id="ytick_9">
     <g id="line2d_31">
      <path clip-path="url(#p7c733351e4)" d="M 108 55.975758 
L 777.6 55.975758 
" style="fill:none;stroke:#b0b0b0;stroke-linecap:square;stroke-width:0.8;"/>
     </g>
     <g id="line2d_32">
      <g>
       <use style="stroke:#000000;stroke-width:0.8;" x="108" xlink:href="#ma1c117a9fd" y="55.975758"/>
      </g>
     </g>
     <g id="text_17">
      <!-- 2.5 -->
      <g transform="translate(86.864063 59.972633)scale(0.1 -0.1)">
       <use xlink:href="#MicrosoftYaHei-32"/>
       <use x="58.642578" xlink:href="#MicrosoftYaHei-2e"/>
       <use x="82.714844" xlink:href="#MicrosoftYaHei-35"/>
      </g>
     </g>
    </g>
   </g>
   <g id="line2d_33">
    <path clip-path="url(#p7c733351e4)" d="M 108 148.242684 
L 108.213113 144.7589 
L 108.852451 146.824062 
L 109.065563 146.227739 
L 109.278676 146.447437 
L 109.491789 144.639635 
L 109.704901 144.947213 
L 109.918014 144.024481 
L 110.131127 143.729457 
L 110.344239 144.627081 
L 110.557352 144.65219 
L 110.983577 143.415603 
L 111.19669 143.704349 
L 111.836028 141.526199 
L 112.049141 140.239396 
L 112.262253 140.1013 
L 112.475366 139.053026 
L 112.688479 139.429652 
L 113.114704 139.373158 
L 113.327817 137.132237 
L 113.540929 136.604962 
L 113.754042 136.404095 
L 114.180267 136.542191 
L 114.39338 136.567299 
L 114.606493 138.205619 
L 114.819605 138.205619 
L 115.032718 137.577911 
L 115.245831 135.895651 
L 115.458943 135.908205 
L 115.885169 134.546077 
L 116.098281 134.903871 
L 116.311394 134.502137 
L 116.524507 133.811657 
L 116.737619 131.978748 
L 116.950732 128.658168 
L 117.163845 132.066627 
L 117.376957 132.863817 
L 117.59007 131.099955 
L 117.803183 127.685219 
L 118.016295 127.89864 
L 118.655633 123.140607 
L 118.868746 124.08217 
L 119.081859 122.920909 
L 119.294971 123.140607 
L 119.508084 123.140607 
L 119.721197 122.858138 
L 119.934309 121.973068 
L 120.360535 122.512898 
L 120.573647 122.657271 
L 120.78676 121.25748 
L 121.212985 121.791033 
L 121.426098 121.383022 
L 121.639211 122.330862 
L 121.852323 121.696876 
L 122.065436 121.659214 
L 122.278549 119.989508 
L 122.491661 119.832581 
L 122.704774 119.430847 
L 123.130999 117.491227 
L 123.344112 120.705096 
L 123.557225 120.002062 
L 123.770337 118.501838 
L 123.98345 117.811359 
L 124.196563 120.228038 
L 124.409675 119.851412 
L 124.622788 120.077388 
L 124.835901 116.863518 
L 125.049013 116.763085 
L 125.475239 115.570438 
L 125.901464 109.958721 
L 126.114577 109.958721 
L 126.327689 104.359558 
L 126.540802 102.426214 
L 126.967027 102.426214 
L 127.393253 88.616619 
L 127.606365 87.110118 
L 128.032591 92.382873 
L 128.458816 91.441309 
L 128.885041 93.010581 
L 129.098154 91.755164 
L 129.311267 88.03285 
L 129.524379 88.748438 
L 129.737492 94.002361 
L 129.950605 94.410372 
L 130.163717 93.362098 
L 130.37683 97.555194 
L 130.589943 94.272276 
L 130.803055 93.512748 
L 131.016168 91.322045 
L 131.229281 86.526349 
L 131.442393 86.130892 
L 132.081731 79.828695 
L 132.507957 82.339531 
L 132.721069 81.711822 
L 132.934182 80.55056 
L 133.147295 77.07933 
L 133.360407 77.945569 
L 133.57352 77.945569 
L 133.786633 76.526947 
L 133.999745 76.721536 
L 134.212858 76.690151 
L 134.425971 83.212046 
L 134.639083 85.026125 
L 134.852196 80.795367 
L 135.065309 82.38347 
L 135.278421 82.483904 
L 135.491534 84.636945 
L 135.917759 86.469855 
L 136.343985 83.281094 
L 136.557097 83.343865 
L 136.77021 82.213989 
L 136.983323 83.588671 
L 137.196435 96.525751 
L 137.622661 92.38915 
L 137.835773 96.211897 
L 138.048886 95.402152 
L 138.475111 101.290061 
L 138.688224 100.62469 
L 138.901337 95.565356 
L 139.114449 95.025527 
L 139.327562 100.059752 
L 139.540675 100.448931 
L 139.753787 98.867105 
L 139.9669 98.120132 
L 140.180013 99.406935 
L 140.393125 99.469706 
L 140.606238 97.448483 
L 140.819351 99.450874 
L 141.032463 105.351338 
L 141.245576 105.797011 
L 141.458689 105.376446 
L 141.671801 107.548319 
L 141.884914 107.755463 
L 142.098027 114.967837 
L 142.311139 102.928381 
L 142.524252 98.804334 
L 142.737365 99.419489 
L 142.950477 99.475983 
L 143.16359 103.625138 
L 143.376703 102.570587 
L 143.589815 102.56431 
L 144.016041 99.789837 
L 144.229153 100.492871 
L 144.442266 97.272725 
L 144.655379 96.971424 
L 144.868491 97.065581 
L 145.081604 108.778628 
L 145.294717 104.309341 
L 145.507829 108.238798 
L 145.934055 109.556987 
L 146.36028 115.269138 
L 146.573393 116.355074 
L 146.786505 118.17543 
L 146.999618 117.346854 
L 147.212731 117.83019 
L 147.425843 117.641877 
L 147.638956 116.844687 
L 147.852069 119.600329 
L 148.065181 117.491227 
L 148.491407 118.231923 
L 148.704519 120.485398 
L 148.917632 121.282589 
L 149.130745 125.695382 
L 149.343857 134.439366 
L 149.770083 138.833328 
L 149.983195 140.088746 
L 150.196308 149.818233 
L 150.622533 153.584487 
L 150.835646 154.839904 
L 151.048759 129.417695 
L 151.474984 126.674608 
L 151.688097 126.90686 
L 151.901209 128.162278 
L 152.114322 128.143446 
L 152.327435 130.999522 
L 152.540547 152.561321 
L 152.75366 151.130145 
L 152.966773 151.117591 
L 153.179885 152.247467 
L 153.392998 155.398565 
L 153.606111 156.898789 
L 153.819223 157.206367 
L 154.032336 157.20009 
L 154.245449 157.526498 
L 154.458561 158.486893 
L 154.671674 157.978449 
L 155.097899 156.283635 
L 155.311012 154.212195 
L 155.524125 154.086654 
L 155.95035 155.254192 
L 156.163463 155.241638 
L 156.376575 155.875624 
L 156.589688 153.364789 
L 156.802801 144.507816 
L 157.015913 141.93421 
L 157.229026 141.758452 
L 157.442139 142.750232 
L 157.655251 140.616022 
L 157.868364 141.394381 
L 158.081477 141.237453 
L 158.507702 147.73424 
L 158.720815 149.165416 
L 158.933927 145.863668 
L 159.14704 148.606755 
L 159.360153 146.252847 
L 159.573265 137.025527 
L 159.786378 133.00819 
L 159.999491 132.926588 
L 160.851941 144.71496 
L 161.065054 143.459543 
L 161.278167 145.656524 
L 161.491279 144.369721 
L 161.704392 144.959767 
L 161.917505 143.716903 
L 162.130617 143.434434 
L 162.34373 144.526648 
L 162.769955 138.695232 
L 163.196181 141.48226 
L 163.409293 140.528142 
L 163.622406 142.116246 
L 163.835519 144.614527 
L 164.048631 149.61109 
L 164.474857 147.370169 
L 164.687969 149.02732 
L 164.901082 147.062592 
L 165.114195 146.980989 
L 165.54042 152.341623 
L 165.753533 151.971275 
L 165.966645 151.331012 
L 166.179758 151.255687 
L 166.392871 151.023434 
L 166.605983 150.138365 
L 166.819096 150.577761 
L 167.032209 150.188582 
L 167.245321 148.763683 
L 167.458434 148.845285 
L 167.671547 151.575818 
L 167.884659 151.130145 
L 168.097772 151.117591 
L 168.310885 152.140756 
L 168.523997 151.939889 
L 168.73711 151.368674 
L 168.950223 151.362397 
L 169.163335 151.494216 
L 169.376448 151.494216 
L 169.802673 148.437274 
L 170.015786 147.909999 
L 170.228899 148.355672 
L 170.442011 149.667583 
L 170.655124 142.919713 
L 170.868237 142.254342 
L 171.081349 143.873831 
L 171.294462 141.990704 
L 171.507575 144.200239 
L 171.720687 144.476431 
L 171.9338 146.679689 
L 172.146913 145.110417 
L 172.360025 144.60825 
L 172.573138 145.417994 
L 172.786251 147.04376 
L 172.999363 146.340726 
L 173.212476 150.081871 
L 173.425589 150.659363 
L 173.638701 147.244627 
L 174.064927 147.200687 
L 174.278039 145.775788 
L 174.491152 145.738126 
L 174.704265 141.337887 
L 174.917377 145.374055 
L 175.343603 141.990704 
L 175.769828 144.896996 
L 176.196053 145.386609 
L 176.409166 144.369721 
L 176.622279 146.127305 
L 176.835391 146.20263 
L 177.048504 145.323838 
L 177.261617 143.177074 
L 177.687842 144.250456 
L 178.114067 149.272127 
L 178.32718 146.328172 
L 178.540293 148.669526 
L 178.753405 147.790734 
L 178.966518 144.231625 
L 179.179631 144.840502 
L 179.392743 145.016261 
L 179.605856 143.748289 
L 179.818969 144.570587 
L 180.032081 143.522314 
L 180.458307 144.212793 
L 180.671419 143.591362 
L 180.884532 143.559976 
L 181.310757 143.264953 
L 181.52387 151.186639 
L 181.736983 151.16153 
L 181.950095 152.310238 
L 182.163208 149.862173 
L 182.376321 149.742908 
L 182.589433 150.66564 
L 182.802546 150.627978 
L 183.015659 152.121925 
L 183.228771 152.140756 
L 183.441884 153.609595 
L 183.654997 153.527993 
L 183.868109 151.632312 
L 184.081222 145.713017 
L 184.294335 147.797011 
L 184.507447 146.09592 
L 184.72056 148.07948 
L 184.933673 148.066926 
L 185.146785 145.0602 
L 185.359898 146.491376 
L 185.786123 137.4712 
L 185.999236 137.094575 
L 186.212349 138.419041 
L 186.425461 135.029413 
L 186.638574 133.472695 
L 186.851687 136.416649 
L 187.064799 137.483754 
L 187.491025 134.370318 
L 187.704137 134.156897 
L 187.91725 131.344762 
L 188.130363 136.153012 
L 188.343475 136.592408 
L 188.556588 138.375101 
L 188.769701 138.381378 
L 188.982813 139.693289 
L 189.195926 139.781169 
L 189.409039 140.044806 
L 189.622151 139.429652 
L 190.261489 141.8275 
L 190.474602 144.959767 
L 190.687715 144.840502 
L 190.900827 142.47404 
L 191.327053 145.581199 
L 191.540165 145.261067 
L 191.753278 142.81928 
L 191.966391 142.813003 
L 192.179504 142.379883 
L 192.392616 142.712569 
L 192.605729 142.543088 
L 192.818842 137.075744 
L 193.031954 136.485697 
L 193.245067 132.116844 
L 193.45818 135.173786 
L 193.671292 135.468809 
L 193.884405 137.088298 
L 194.097518 141.237453 
L 194.523743 138.676401 
L 194.736856 134.822269 
L 195.163081 141.005201 
L 195.376194 140.79178 
L 195.802419 142.511702 
L 196.228644 146.535316 
L 196.441757 151.839456 
L 196.65487 146.773845 
L 196.867982 150.810013 
L 197.081095 148.098311 
L 197.294208 149.247018 
L 197.50732 149.479271 
L 197.720433 151.029712 
L 197.933546 151.65742 
L 198.146658 154.582544 
L 198.572884 167.594948 
L 198.785996 169.584786 
L 199.212222 177.820326 
L 199.425334 177.230279 
L 199.638447 183.394381 
L 199.85156 182.208011 
L 200.064672 182.364938 
L 200.490898 181.084412 
L 200.70401 181.869048 
L 200.917123 181.894156 
L 201.343348 199.765028 
L 201.769574 196.984277 
L 201.982686 187.543536 
L 202.195799 183.312778 
L 202.408912 187.072754 
L 202.622024 176.370318 
L 202.835137 176.357764 
L 203.04825 172.817486 
L 203.261362 172.760992 
L 203.474475 176.853654 
L 203.687588 171.806875 
L 203.9007 170.651891 
L 204.113813 174.688059 
L 204.540038 178.303662 
L 204.966264 170.162278 
L 205.179376 171.505575 
L 205.392489 174.179614 
L 205.605602 172.327873 
L 205.818714 174.769661 
L 206.031827 166.973517 
L 206.24494 170.212494 
L 206.458052 167.576117 
L 206.671165 157.859184 
L 207.09739 154.143148 
L 207.310503 145.838559 
L 207.523616 145.286175 
L 207.736728 144.206516 
L 207.949841 143.942878 
L 208.162954 148.556539 
L 208.376066 149.893559 
L 208.589179 142.191571 
L 208.802292 143.641578 
L 209.228517 125.620057 
L 209.44163 136.460589 
L 209.654742 130.654282 
L 209.867855 129.662502 
L 210.080968 130.453415 
L 210.29408 108.948109 
L 210.507193 108.872784 
L 210.720306 100.913436 
L 211.146531 96.525751 
L 211.359644 102.821671 
L 211.572756 100.66863 
L 211.785869 99.645464 
L 211.998982 104.623195 
L 212.212094 104.039426 
L 212.425207 100.643521 
L 212.63832 100.662352 
L 212.851432 103.857391 
L 213.064545 102.771454 
L 213.277658 103.072754 
L 213.49077 101.792228 
L 213.703883 99.701958 
L 213.916996 99.501091 
L 214.130108 99.802391 
L 214.343221 102.451323 
L 214.556334 101.22729 
L 214.769446 104.340726 
L 214.982559 104.868002 
L 215.621897 98.659961 
L 215.83501 89.828097 
L 216.048122 85.992796 
L 216.261235 79.395576 
L 216.474348 83.563563 
L 216.68746 81.881303 
L 216.900573 77.349245 
L 217.113686 75.779973 
L 217.326798 80.839307 
L 217.539911 81.843641 
L 217.753024 79.383022 
L 217.966136 79.188432 
L 218.392362 73.137319 
L 218.605474 64.374503 
L 218.818587 60.878165 
L 219.0317 65.316066 
L 219.244812 65.755463 
L 219.457925 64.757405 
L 220.097263 78.102496 
L 220.310376 74.254641 
L 220.523488 73.65204 
L 220.736601 70.657869 
L 220.949714 74.336243 
L 221.162826 72.785802 
L 221.375939 73.978449 
L 221.589052 73.564161 
L 221.802164 71.611986 
L 222.015277 71.392288 
L 222.22839 71.693588 
L 222.441502 71.586878 
L 222.654615 69.873233 
L 222.867728 67.042266 
L 223.08084 60.300673 
L 223.507066 61.957824 
L 223.720178 63.596144 
L 223.933291 66.458496 
L 224.146404 65.290958 
L 224.359516 65.617367 
L 224.785742 68.454611 
L 224.998854 71.379734 
L 225.211967 70.017606 
L 225.42508 70.52605 
L 225.638192 70.205918 
L 225.851305 67.362397 
L 226.064418 67.381229 
L 226.27753 65.491825 
L 226.490643 65.617367 
L 226.703756 64.901779 
L 227.129981 69.333403 
L 227.556206 64.820176 
L 227.769319 66.075594 
L 227.982432 66.301569 
L 228.408657 65.052429 
L 228.62177 66.314123 
L 228.834882 66.458496 
L 229.047995 62.999821 
L 229.261108 67.092482 
L 229.687333 69.710028 
L 229.900446 66.414557 
L 230.113558 66.828845 
L 230.326671 66.948109 
L 230.539784 69.013272 
L 230.752896 66.389449 
L 230.966009 66.822568 
L 231.392234 70.858736 
L 231.605347 70.984277 
L 232.031572 75.572829 
L 232.244685 75.328023 
L 232.457798 73.589269 
L 232.67091 76.445344 
L 232.884023 75.271529 
L 233.097136 77.368077 
L 233.310248 76.483007 
L 233.523361 76.734091 
L 233.736474 75.924346 
L 234.162699 76.658766 
L 234.588924 73.871738 
L 234.802037 75.943177 
L 235.01515 74.800747 
L 235.228262 77.939292 
L 235.441375 75.346854 
L 235.654488 77.361799 
L 235.8676 74.850964 
L 236.080713 75.346854 
L 236.293826 70.419339 
L 236.506938 68.69314 
L 236.720051 68.423225 
L 236.933164 71.17259 
L 237.146276 69.113705 
L 237.359389 69.779076 
L 237.572502 67.494216 
L 237.785614 67.243133 
L 237.998727 69.716305 
L 238.21184 69.628426 
L 238.424952 68.3479 
L 238.851178 69.779076 
L 239.06429 65.290958 
L 239.277403 64.656972 
L 240.556079 65.4165 
L 240.982304 62.020595 
L 241.195417 62.842893 
L 241.40853 66.577761 
L 241.621642 67.462831 
L 241.834755 77.594052 
L 242.26098 74.399014 
L 242.474093 71.304409 
L 242.687206 74.706591 
L 242.900318 82.251651 
L 243.113431 77.135824 
L 243.752769 80.833029 
L 243.965882 78.290809 
L 244.178994 74.235809 
L 244.392107 74.392737 
L 244.60522 72.798356 
L 244.818332 73.526498 
L 245.031445 72.716754 
L 245.244558 72.490779 
L 245.670783 76.068719 
L 245.883896 75.867852 
L 246.097008 76.263309 
L 246.523234 73.934509 
L 246.736346 73.80269 
L 246.949459 74.04122 
L 247.162572 71.429951 
L 247.375684 71.222807 
L 247.80191 71.260469 
L 248.015022 71.925841 
L 248.228135 70.413062 
L 248.441248 73.689703 
L 248.65436 73.244029 
L 248.867473 74.053774 
L 249.080586 74.160484 
L 249.293698 73.947063 
L 249.506811 74.788193 
L 249.719924 74.920012 
L 249.933036 73.991003 
L 250.146149 74.129099 
L 250.359262 70.13687 
L 250.572374 74.995337 
L 250.785487 75.403348 
L 251.637938 72.308743 
L 251.85105 72.082768 
L 252.064163 72.453116 
L 252.277276 71.881901 
L 252.916614 68.793573 
L 253.129726 69.465222 
L 253.342839 69.678643 
L 253.982177 73.482559 
L 254.19529 72.923898 
L 254.408402 73.35074 
L 254.621515 67.952444 
L 254.834628 68.322792 
L 255.04774 65.793125 
L 255.260853 64.851562 
L 255.473966 61.819728 
L 255.687078 60.495262 
L 255.900191 61.44938 
L 256.113304 64.964549 
L 256.326416 61.94527 
L 256.539529 60.95349 
L 256.752642 60.677298 
L 256.965754 59.277507 
L 257.178867 61.129248 
L 257.39198 61.248513 
L 257.605092 62.629472 
L 258.031318 63.012375 
L 258.24443 62.911941 
L 258.457543 60.878165 
L 258.670656 60.300673 
L 258.883768 60.300673 
L 259.096881 55.869048 
L 259.309994 55.8 
L 259.523106 56.013421 
L 259.736219 58.078583 
L 259.949332 58.687461 
L 260.375557 57.538754 
L 260.801782 58.96993 
L 261.014895 59.22729 
L 261.228008 59.779674 
L 261.44112 58.743955 
L 261.654233 60.432491 
L 261.867346 60.369721 
L 262.080458 60.438768 
L 262.293571 65.215633 
L 262.506684 66.031654 
L 262.719796 64.977104 
L 262.932909 64.839008 
L 263.146022 63.6903 
L 263.359134 63.294844 
L 263.572247 61.763234 
L 263.78536 61.430548 
L 263.998472 61.700463 
L 264.211585 61.744403 
L 264.424698 62.026872 
L 265.064036 60.375998 
L 265.490261 60.451323 
L 265.703374 59.798505 
L 265.916486 59.848722 
L 266.129599 59.76712 
L 266.342712 59.277507 
L 266.555824 59.647855 
L 266.98205 61.788343 
L 267.195162 62.114751 
L 267.621388 60.80284 
L 268.260726 63.997878 
L 268.473838 66.06304 
L 268.686951 66.176027 
L 268.900064 66.816291 
L 269.113176 66.445942 
L 269.326289 65.724077 
L 269.539402 63.822119 
L 269.752514 64.487491 
L 270.17874 67.268241 
L 270.391852 66.389449 
L 270.604965 66.86023 
L 270.818078 68.322792 
L 271.03119 68.504827 
L 271.244303 68.517382 
L 271.457416 67.067374 
L 271.670528 67.644866 
L 272.309866 77.61916 
L 272.522979 74.543387 
L 272.736092 78.140158 
L 272.949204 79.565058 
L 273.162317 78.937349 
L 273.37543 80.500344 
L 273.588542 83.306202 
L 274.440993 77.493618 
L 274.654106 77.600329 
L 275.080331 81.805978 
L 275.293444 84.166164 
L 275.719669 85.848423 
L 275.932782 85.986519 
L 276.145894 83.557286 
L 276.359007 83.507069 
L 276.998345 81.234763 
L 277.211458 78.096219 
L 277.42457 79.816141 
L 277.637683 80.010731 
L 277.850796 81.259871 
L 278.277021 86.457301 
L 278.703246 81.423076 
L 279.129472 83.023733 
L 279.342584 81.724376 
L 279.76881 72.748139 
L 279.981922 69.38362 
L 280.408148 70.921507 
L 280.834373 69.170199 
L 281.047486 70.312629 
L 281.260598 67.431445 
L 281.686824 74.223255 
L 281.899936 77.374354 
L 282.326162 77.16721 
L 282.539274 77.713316 
L 282.9655 83.431744 
L 283.178612 81.805978 
L 283.391725 83.469407 
L 283.604838 82.176326 
L 283.81795 84.718547 
L 284.031063 84.385862 
L 284.244176 86.363145 
L 284.457288 85.088896 
L 284.670401 84.982185 
L 284.883514 83.325034 
L 285.309739 84.737379 
L 285.522852 89.708833 
L 285.735964 87.166612 
L 285.949077 87.08501 
L 286.375302 90.267494 
L 286.801528 96.456703 
L 287.01464 97.335495 
L 287.440866 100.737677 
L 287.653978 104.673412 
L 287.867091 106.085757 
L 288.506429 114.879958 
L 289.571992 120.140158 
L 289.785105 117.252698 
L 289.998218 116.405291 
L 290.21133 116.323689 
L 290.424443 114.735585 
L 290.637556 115.677148 
L 290.850668 120.516784 
L 291.063781 120.893409 
L 291.490006 122.933463 
L 291.703119 123.429353 
L 291.916232 128.444747 
L 292.129344 129.197997 
L 292.342457 128.99713 
L 292.55557 129.643671 
L 292.768682 132.66295 
L 292.981795 132.229831 
L 293.194908 136.510806 
L 293.40802 138.16168 
L 293.621133 136.32877 
L 294.047358 140.000867 
L 294.260471 140.195457 
L 294.473584 137.81644 
L 295.112922 122.858138 
L 295.539147 108.502436 
L 295.965372 107.504379 
L 296.178485 106.719743 
L 296.391598 107.441608 
L 296.60471 107.1152 
L 296.817823 108.263907 
L 297.244048 102.972321 
L 297.457161 102.030758 
L 297.670274 100.386161 
L 297.883386 100.630967 
L 298.096499 100.342221 
L 298.309612 100.681184 
L 298.522724 102.143745 
L 298.94895 102.95349 
L 299.162062 102.601973 
L 299.588288 101.716903 
L 299.8014 103.512151 
L 300.014513 106.412166 
L 300.227626 107.391391 
L 300.440738 106.556539 
L 300.653851 106.839008 
L 300.866964 106.299178 
L 301.080076 105.363892 
L 301.293189 108.25763 
L 301.506302 107.755463 
L 301.932527 108.992049 
L 302.571865 114.063937 
L 302.99809 117.516335 
L 303.211203 117.422179 
L 303.424316 117.905515 
L 303.637428 117.466119 
L 303.850541 114.252249 
L 304.276766 119.27392 
L 304.489879 114.202033 
L 304.702992 112.883844 
L 304.916104 115.055717 
L 305.555442 112.896398 
L 305.768555 112.940338 
L 306.407893 118.752922 
L 306.621006 119.248812 
L 307.260344 121.640383 
L 307.473456 121.025228 
L 307.899682 117.566552 
L 308.112794 112.821073 
L 308.752132 109.952444 
L 308.965245 109.55071 
L 309.178358 110.008937 
L 309.39147 110.008937 
L 309.604583 101.873831 
L 309.817696 99.557585 
L 310.030808 103.085309 
L 310.457034 96.393932 
L 310.670146 97.159737 
L 311.096372 99.745897 
L 311.309484 99.802391 
L 311.73571 90.844986 
L 311.948822 90.110566 
L 312.161935 88.390644 
L 312.375048 89.583291 
L 312.58816 89.112509 
L 312.801273 84.461187 
L 313.014386 84.957077 
L 313.227498 84.423524 
L 313.440611 85.183052 
L 313.653724 85.088896 
L 313.866836 89.294545 
L 314.079949 97.555194 
L 314.293062 95.533971 
L 314.506174 99.73962 
L 315.358625 130.52874 
L 315.571738 132.185891 
L 315.997963 138.996533 
L 316.211076 138.180511 
L 316.424188 137.935705 
L 316.637301 132.010133 
L 316.850414 132.951696 
L 317.063526 130.704499 
L 317.276639 131.664893 
L 317.702864 142.813003 
L 317.915977 144.231625 
L 318.12909 154.971723 
L 318.342202 156.641429 
L 318.555315 155.298132 
L 318.768428 159.899238 
L 318.98154 161.493618 
L 319.407766 176.031356 
L 319.620878 194.686863 
L 319.833991 190.613032 
L 320.047104 189.665192 
L 320.473329 167.067673 
L 321.112667 153.653535 
L 321.538892 148.719743 
L 321.752005 147.941384 
L 322.17823 145.016261 
L 322.604456 136.535914 
L 322.817568 136.818383 
L 323.030681 138.054969 
L 323.456906 159.905515 
L 323.670019 169.522015 
L 323.883132 163.828695 
L 324.096244 170.325482 
L 324.309357 171.938694 
L 324.735582 167.46313 
L 324.948695 167.940188 
L 325.161808 167.601226 
L 325.37492 163.119384 
L 325.801146 148.606755 
L 326.014258 142.932267 
L 326.227371 140.829443 
L 326.653596 131.445195 
L 327.079822 134.866208 
L 327.292934 132.713167 
L 327.506047 140.948707 
L 327.71916 142.875773 
L 327.932272 134.426812 
L 328.145385 135.198894 
L 328.358498 129.43025 
L 328.57161 130.635451 
L 328.997836 122.556838 
L 329.210948 120.736482 
L 329.424061 121.238649 
L 329.637174 116.44923 
L 329.850286 118.43279 
L 330.063399 117.660708 
L 330.276512 114.886235 
L 330.489624 121.10683 
L 330.702737 122.676102 
L 331.128962 127.095173 
L 331.342075 127.992796 
L 331.555188 128.231326 
L 331.7683 130.911643 
L 331.981413 129.863369 
L 332.407638 133.422478 
L 332.620751 133.215334 
L 332.833864 134.156897 
L 333.046976 130.641728 
L 333.260089 130.133284 
L 333.473202 131.67117 
L 333.686314 131.746495 
L 333.899427 130.886534 
L 334.325652 133.943476 
L 334.538765 131.733941 
L 334.751878 132.286325 
L 334.96499 133.46014 
L 335.391216 129.49302 
L 335.604328 130.233717 
L 335.817441 128.331759 
L 336.030554 129.091287 
L 336.456779 131.978748 
L 336.669892 131.595845 
L 337.096117 135.500194 
L 337.30923 134.477029 
L 337.522342 131.47658 
L 337.735455 131.777881 
L 337.948568 133.679839 
L 338.16168 133.579405 
L 338.374793 133.949753 
L 338.587906 134.677896 
L 338.801018 136.184397 
L 339.014131 136.611239 
L 339.227244 135.650844 
L 339.440356 135.964699 
L 339.653469 142.455208 
L 339.866582 144.595696 
L 340.079694 145.461934 
L 340.292807 144.871888 
L 340.50592 145.185742 
L 340.719032 146.962158 
L 340.932145 151.425168 
L 341.571483 154.494664 
L 341.784596 153.584487 
L 341.997708 154.011329 
L 342.210821 154.846181 
L 342.637046 154.538604 
L 342.850159 154.670423 
L 343.063272 155.907009 
L 343.276384 155.71242 
L 343.70261 155.599432 
L 343.915722 155.938395 
L 344.128835 156.754416 
L 344.55506 175.001913 
L 344.768173 184.888328 
L 344.981286 186.350889 
L 345.194398 189.859782 
L 345.407511 189.206965 
L 345.620624 192.232521 
L 345.833736 192.646809 
L 346.046849 185.610193 
L 346.259962 183.275116 
L 346.686187 181.8 
L 346.8993 179.646959 
L 347.112412 175.773995 
L 347.325525 175.35343 
L 347.538638 171.951248 
L 347.75175 173.683724 
L 347.964863 169.685219 
L 348.177976 167.933911 
L 348.391088 167.72049 
L 348.817314 171.078733 
L 349.030426 160.897295 
L 349.456652 164.707488 
L 349.669764 173.445195 
L 349.882877 172.72333 
L 350.09599 167.130444 
L 350.309102 167.155552 
L 350.735328 169.565954 
L 351.161553 165.937797 
L 351.374666 166.87936 
L 351.587778 166.358362 
L 351.800891 162.855747 
L 352.227116 167.971574 
L 352.440229 168.699716 
L 352.653342 168.423524 
L 352.866454 166.634554 
L 353.079567 168.743656 
L 353.29268 167.827201 
L 353.505792 166.257929 
L 353.932018 167.142998 
L 354.358243 169.973965 
L 354.784468 172.139561 
L 354.997581 171.606008 
L 355.210694 170.595397 
L 355.423806 170.683276 
L 355.636919 171.260768 
L 356.063144 182.302167 
L 356.276257 185.133134 
L 356.48937 183.042864 
L 356.702482 183.350441 
L 356.915595 187.970378 
L 357.128708 185.842445 
L 357.34182 185.503482 
L 357.554933 183.915379 
L 357.768046 185.42188 
L 358.407384 177.883097 
L 358.620496 180.889822 
L 358.833609 181.8 
L 359.046722 178.127903 
L 359.259835 178.215782 
L 359.472947 183.645464 
L 359.68606 184.656075 
L 359.899173 183.996981 
L 360.112285 182.132686 
L 360.325398 183.237453 
L 360.538511 182.264505 
L 360.751623 183.469706 
L 360.964736 186.60825 
L 361.177849 186.237902 
L 361.390961 185.346555 
L 361.604074 174.957973 
L 361.817187 170.061844 
L 362.030299 168.969631 
L 362.456525 170.413361 
L 362.669637 172.648005 
L 363.095863 169.622448 
L 363.308975 171.022239 
L 363.522088 169.383919 
L 363.735201 169.647556 
L 363.948313 169.572231 
L 364.161426 171.869646 
L 364.374539 172.729607 
L 364.587651 170.551457 
L 364.800764 170.538903 
L 365.013877 166.747541 
L 365.440102 164.255537 
L 365.653215 157.947063 
L 365.866327 144.250456 
L 366.07944 148.217576 
L 366.292553 147.050037 
L 366.718778 139.787446 
L 367.145003 144.871888 
L 367.358116 145.267344 
L 367.784341 150.088148 
L 367.997454 153.546824 
L 368.210567 151.431445 
L 368.423679 153.923449 
L 368.636792 152.536213 
L 368.849905 153.559378 
L 369.063017 156.195755 
L 369.27613 150.715857 
L 369.489243 153.854401 
L 369.702355 153.515439 
L 369.915468 155.316963 
L 370.128581 155.938395 
L 370.341693 155.542938 
L 370.554806 157.174981 
L 370.767919 156.490779 
L 370.981031 156.773248 
L 371.194144 158.499447 
L 371.407257 158.022388 
L 371.620369 159.723479 
L 371.833482 159.943177 
L 372.046595 159.874129 
L 372.259707 160.941234 
L 372.685933 164.650994 
L 372.899045 165.529786 
L 373.112158 167.07395 
L 373.538383 168.599283 
L 373.751496 170.149724 
L 373.964609 170.168555 
L 374.177721 169.471798 
L 374.603947 172.007742 
L 374.817059 171.047347 
L 375.030172 169.409027 
L 375.243285 170.168555 
L 375.456397 171.348647 
L 375.66951 170.796264 
L 376.521961 181.931819 
L 376.735073 182.578359 
L 376.948186 182.452817 
L 377.161299 182.59719 
L 377.374411 180.142849 
L 377.587524 181.636796 
L 377.800637 180.663847 
L 378.013749 182.860828 
L 378.226862 183.168405 
L 378.439975 180.776835 
L 378.653087 180.513197 
L 378.8662 184.787894 
L 379.292425 182.352384 
L 379.505538 183.821223 
L 379.718651 186.087252 
L 379.931763 183.519922 
L 380.144876 183.224899 
L 380.357989 185.936601 
L 380.571101 185.221013 
L 380.784214 185.327724 
L 380.997327 174.832432 
L 381.210439 177.481363 
L 381.423552 177.136123 
L 381.636665 176.376595 
L 381.849777 176.552354 
L 382.06289 177.161232 
L 382.489115 175.497803 
L 382.702228 176.213391 
L 382.915341 175.667284 
L 383.128453 173.212943 
L 383.341566 173.231774 
L 383.554679 172.660559 
L 383.980904 170.174832 
L 384.194017 169.8547 
L 384.407129 168.957077 
L 384.620242 169.923748 
L 384.833355 168.373307 
L 385.046467 167.695382 
L 385.25958 167.632611 
L 385.472693 167.990405 
L 385.685805 169.50946 
L 385.898918 169.289762 
L 386.751369 165.856195 
L 386.964481 166.188881 
L 387.177594 165.561172 
L 387.390707 165.944074 
L 387.603819 165.793424 
L 387.816932 165.28498 
L 388.030045 163.960514 
L 388.243157 164.324585 
L 388.45627 163.703153 
L 388.669383 164.330862 
L 388.882495 164.299477 
L 389.095608 165.102944 
L 389.308721 163.9919 
L 389.521833 162.202929 
L 389.734946 162.893409 
L 389.948059 162.573278 
L 390.161171 163.276311 
L 390.374284 164.839307 
L 391.013622 164.230429 
L 391.226735 163.784756 
L 391.439847 164.437573 
L 391.866073 162.428904 
L 392.079185 162.918517 
L 392.718523 159.6356 
L 392.931636 145.355223 
L 393.357861 154.287521 
L 393.570974 147.602421 
L 393.784087 148.587924 
L 393.997199 144.06842 
L 394.210312 142.737677 
L 394.423425 142.166462 
L 394.636537 140.320998 
L 394.84965 142.204125 
L 395.275875 138.532028 
L 395.488988 140.233119 
L 395.702101 139.191122 
L 395.915213 138.940039 
L 396.128326 138.35627 
L 396.341439 137.038081 
L 396.554551 137.577911 
L 396.767664 136.97531 
L 396.980777 138.230728 
L 397.193889 132.681781 
L 397.407002 130.497355 
L 397.620115 130.779824 
L 397.833227 130.189777 
L 398.04634 130.673113 
L 398.259453 129.574623 
L 398.472565 129.769212 
L 398.685678 129.762935 
L 398.898791 130.1835 
L 399.111903 132.123121 
L 399.325016 132.286325 
L 399.538129 136.686564 
L 399.751241 136.014916 
L 399.964354 135.933313 
L 400.177467 135.575519 
L 400.390579 137.314273 
L 400.603692 136.717949 
L 401.029917 134.087849 
L 401.24303 133.95603 
L 401.456143 133.171394 
L 401.669255 133.817935 
L 402.095481 131.82182 
L 402.521706 132.90148 
L 402.734819 135.751278 
L 402.947931 135.217725 
L 403.374157 140.270782 
L 403.587269 141.532476 
L 404.013495 142.266896 
L 404.226607 141.306501 
L 404.865945 145.091586 
L 405.079058 145.769511 
L 405.292171 147.721686 
L 405.505283 147.92883 
L 405.718396 148.556539 
L 405.931509 147.608698 
L 406.144621 152.260021 
L 406.570847 151.029712 
L 406.997072 154.205918 
L 407.210185 155.122373 
L 407.849523 166.691048 
L 408.062635 165.153161 
L 408.488861 169.622448 
L 409.128199 159.710925 
L 409.341311 158.700314 
L 409.554424 158.549664 
L 409.767537 156.371514 
L 409.980649 156.679091 
L 410.406875 156.183201 
L 411.046213 152.147033 
L 411.259325 156.653983 
L 411.472438 157.3068 
L 411.685551 156.949006 
L 411.898663 157.771305 
L 412.324889 162.855747 
L 412.538001 161.324137 
L 413.390452 166.998625 
L 413.603565 166.822867 
L 413.816677 166.358362 
L 414.02979 166.622 
L 414.242903 164.010731 
L 414.456015 164.456404 
L 414.669128 162.880855 
L 414.882241 162.347302 
L 415.095353 162.767867 
L 415.521579 164.74515 
L 415.734691 166.873083 
L 415.947804 166.797758 
L 416.160917 172.629174 
L 416.587142 172.352982 
L 416.800255 172.704499 
L 417.013367 172.748438 
L 417.22648 173.438918 
L 417.439593 172.321596 
L 417.652705 169.183052 
L 417.865818 163.828695 
L 418.078931 164.607054 
L 418.292043 171.712719 
L 418.505156 170.331759 
L 418.718269 170.363145 
L 418.931381 169.89864 
L 419.144494 170.262711 
L 419.357607 170.156001 
L 419.570719 170.281542 
L 419.783832 171.480466 
L 419.996945 171.98891 
L 420.210057 170.827649 
L 420.636283 172.252548 
L 420.849395 170.00535 
L 421.488733 167.249709 
L 421.701846 167.356419 
L 421.914959 167.61378 
L 422.128071 168.448632 
L 422.341184 170.633059 
L 422.554297 170.752324 
L 422.767409 170.639336 
L 422.980522 171.568346 
L 423.832973 169.007293 
L 424.046085 169.321148 
L 424.259198 169.277208 
L 424.898536 163.483455 
L 425.111649 164.556838 
L 425.324761 163.935406 
L 425.750987 164.456404 
L 425.964099 165.787147 
L 426.177212 165.981737 
L 426.603437 166.904469 
L 426.81655 163.502287 
L 427.029663 163.207263 
L 427.669001 157.840353 
L 427.882113 158.367628 
L 428.095226 156.001166 
L 428.308339 157.821521 
L 428.521451 156.55355 
L 428.734564 156.515887 
L 428.947677 152.303961 
L 429.160789 153.013272 
L 429.373902 151.839456 
L 429.587015 152.109371 
L 429.800127 151.70136 
L 430.226353 153.182753 
L 430.439465 156.296189 
L 430.652578 156.082768 
L 431.078803 153.841847 
L 431.291916 154.0741 
L 431.505029 156.252249 
L 431.718141 156.898789 
L 431.931254 156.923898 
L 432.144367 157.149873 
L 432.570592 155.86307 
L 432.783705 155.869347 
L 432.996817 155.994889 
L 433.20993 147.439217 
L 433.423043 147.589867 
L 433.636155 150.584038 
L 433.849268 151.199193 
L 434.062381 153.069765 
L 434.275493 152.919115 
L 434.488606 153.057211 
L 434.701719 152.975609 
L 434.914831 155.316963 
L 435.127944 154.965446 
L 435.980395 158.355074 
L 436.193507 157.677148 
L 436.40662 158.028665 
L 436.619733 157.407234 
L 436.832845 159.641877 
L 437.045958 159.227589 
L 437.259071 159.227589 
L 437.472183 159.09577 
L 437.898409 157.20009 
L 438.111521 157.507667 
L 438.324634 158.135376 
L 438.537747 157.520221 
L 438.750859 158.235809 
L 438.963972 155.976057 
L 439.177085 156.308743 
L 440.242648 159.390794 
L 440.455761 159.422179 
L 440.668873 159.227589 
L 440.881986 156.139262 
L 441.308211 157.570438 
L 441.521324 156.089045 
L 441.734437 156.547272 
L 442.160662 161.035391 
L 442.373775 160.564609 
L 442.586887 158.386459 
L 442.8 159.020445 
L 443.226225 156.402899 
L 443.652451 163.640383 
L 444.291789 162.642326 
L 444.504901 162.780421 
L 444.718014 160.734091 
L 444.931127 160.162876 
L 445.144239 160.43279 
L 445.357352 161.299029 
L 445.570465 164.726319 
L 445.783577 165.197101 
L 445.99669 166.490181 
L 446.209803 166.446241 
L 446.422915 168.975908 
L 446.849141 169.496906 
L 447.062253 171.254491 
L 447.488479 172.221163 
L 447.701591 172.37809 
L 447.914704 171.92614 
L 448.127817 171.951248 
L 448.767155 170.582843 
L 448.980267 171.298431 
L 449.19338 169.8547 
L 449.406493 170.331759 
L 449.832718 179.590465 
L 450.258943 195.226693 
L 450.472056 190.38078 
L 450.685169 205.941683 
L 450.898281 189.640084 
L 451.111394 186.702406 
L 451.537619 202.960066 
L 451.750732 295.233269 
L 451.963845 307.8 
L 452.176957 301.617068 
L 452.603183 276.910447 
L 452.816295 240.898789 
L 453.029408 247.841249 
L 453.881859 220.655179 
L 454.094971 214.221163 
L 454.308084 211.785652 
L 454.521197 211.628725 
L 454.734309 211.001016 
L 454.947422 214.139561 
L 455.160535 210.379585 
L 455.373647 211.628725 
L 455.58676 209.820924 
L 455.799873 206.05467 
L 456.012985 205.345359 
L 456.439211 202.847078 
L 456.652323 201.585383 
L 456.865436 201.271529 
L 457.078549 206.607054 
L 457.291661 198.176924 
L 457.504774 196.444448 
L 457.717887 193.312181 
L 457.930999 195.276909 
L 458.144112 193.148976 
L 458.357225 193.035989 
L 458.570337 190.713466 
L 458.78345 191.033597 
L 459.209675 187.342669 
L 459.422788 187.64397 
L 459.635901 186.350889 
L 459.849013 181.712121 
L 460.062126 180.054969 
L 460.275239 181.398266 
L 460.488351 187.574922 
L 460.914577 178.912539 
L 461.127689 185.183351 
L 461.767027 190.374503 
L 461.98014 189.753071 
L 462.193253 185.559976 
L 462.406365 186.95349 
L 462.619478 185.986818 
L 463.258816 190.23013 
L 463.471929 188.208907 
L 463.685041 187.612584 
L 463.898154 187.417994 
L 464.111267 187.612584 
L 464.324379 184.467763 
L 464.537492 187.417994 
L 464.750605 185.490928 
L 464.963717 189.665192 
L 465.17683 189.0877 
L 465.389943 191.021043 
L 465.603055 195.107428 
L 465.816168 195.458945 
L 466.029281 193.651143 
L 466.242393 193.017157 
L 466.455506 191.786848 
L 466.668619 188.014318 
L 466.881731 188.146137 
L 467.094844 183.927933 
L 467.307957 185.12058 
L 467.521069 182.528142 
L 467.947295 180.965147 
L 468.160407 180.776835 
L 469.012858 173.457749 
L 469.225971 172.516186 
L 469.652196 174.085458 
L 469.865309 174.173337 
L 470.078421 177.550411 
L 470.291534 184.342221 
L 470.504647 186.658467 
L 470.717759 185.804783 
L 470.930872 185.804783 
L 471.143985 190.61931 
L 471.357097 190.167359 
L 471.57021 189.351338 
L 471.783323 183.055418 
L 471.996435 184.938544 
L 472.209548 182.810611 
L 472.422661 183.808668 
L 472.635773 186.796563 
L 472.848886 187.769511 
L 473.914449 202.363742 
L 474.127562 202.307249 
L 474.340675 200.606158 
L 474.7669 202.395128 
L 474.980013 200.210701 
L 475.193125 201.453564 
L 475.406238 206.462681 
L 475.619351 207.724376 
L 475.832463 205.910297 
L 476.045576 207.793424 
L 476.258689 213.323539 
L 476.471801 212.306651 
L 476.684914 214.754715 
L 476.898027 215.690001 
L 477.111139 213.185443 
L 477.324252 214.045404 
L 477.537365 210.90686 
L 477.96359 216.393035 
L 478.389815 218.288716 
L 478.602928 222.965147 
L 478.816041 221.483754 
L 479.029153 225.149574 
L 479.668491 216.675504 
L 479.881604 220.335047 
L 480.307829 216.637842 
L 480.947167 205.897743 
L 481.16028 206.236706 
L 481.586505 194.636646 
L 482.012731 171.072456 
L 482.225843 168.825258 
L 482.438956 167.91508 
L 482.652069 173.922254 
L 482.865181 170.168555 
L 483.078294 178.146734 
L 483.504519 169.923748 
L 483.717632 172.07679 
L 483.930745 163.929129 
L 484.143857 162.548169 
L 484.35697 163.79731 
L 484.996308 158.920012 
L 485.209421 155.731251 
L 485.635646 143.622747 
L 485.848759 145.192019 
L 486.061871 142.988761 
L 486.274984 138.594799 
L 486.488097 137.36449 
L 486.701209 135.1424 
L 486.914322 134.828546 
L 487.340547 130.67939 
L 487.55366 129.436527 
L 487.766773 131.495412 
L 487.979885 134.633956 
L 488.192998 131.746495 
L 488.406111 132.374204 
L 488.619223 130.936751 
L 488.832336 132.192169 
L 489.045449 129.367479 
L 490.111012 124.483904 
L 490.324125 124.490181 
L 490.537237 127.917471 
L 490.75035 128.54518 
L 490.963463 118.539501 
L 491.176575 116.813301 
L 491.389688 123.354028 
L 491.602801 122.09861 
L 491.815913 123.918966 
L 492.668364 113.166313 
L 492.881477 113.994889 
L 493.094589 113.524107 
L 493.307702 113.542938 
L 493.94704 117.497504 
L 494.160153 122.155104 
L 494.373265 120.479121 
L 494.799491 129.555791 
L 495.012603 128.796264 
L 495.225716 128.463578 
L 495.438829 129.5809 
L 495.651941 124.741264 
L 496.291279 132.600179 
L 496.504392 133.227888 
L 496.717505 134.564908 
L 496.930617 138.26839 
L 497.14373 137.232671 
L 497.356843 137.96709 
L 497.569955 137.433538 
L 498.209293 139.128352 
L 498.422406 139.322941 
L 498.635519 141.58897 
L 498.848631 145.342669 
L 499.274857 137.62185 
L 499.487969 139.511254 
L 499.914195 140.779226 
L 500.34042 144.903273 
L 500.766645 144.903273 
L 501.619096 140.923599 
L 501.832209 140.911045 
L 502.045321 140.565805 
L 502.258434 140.860828 
L 502.471547 141.488537 
L 502.684659 137.094575 
L 503.323997 140.860828 
L 503.53711 140.860828 
L 503.750223 139.442206 
L 503.963335 139.435929 
L 504.176448 140.691347 
L 504.602673 148.613032 
L 505.028899 160.162876 
L 505.242011 162.673711 
L 505.455124 160.470453 
L 505.668237 162.089942 
L 505.881349 159.48495 
L 506.094462 158.399014 
L 506.307575 156.051382 
L 506.520687 155.806576 
L 506.7338 153.923449 
L 506.946913 153.352234 
L 507.160025 152.316515 
L 507.373138 152.536213 
L 507.586251 149.724077 
L 507.799363 149.548319 
L 508.012476 152.548767 
L 508.225589 153.804185 
L 508.438701 152.548767 
L 508.651814 154.475833 
L 508.864927 154.601375 
L 509.078039 151.525602 
L 509.291152 154.984277 
L 509.504265 156.61632 
L 509.717377 159.754865 
L 509.93049 160.068719 
L 510.143603 160.068719 
L 510.356715 164.186489 
L 510.569828 164.173935 
L 510.782941 167.990405 
L 510.996053 168.505126 
L 511.209166 170.074398 
L 511.422279 172.497355 
L 511.635391 172.095621 
L 512.274729 167.011179 
L 512.487842 166.257929 
L 512.914067 162.479121 
L 513.12718 165.580003 
L 513.340293 165.881303 
L 513.553405 169.635002 
L 513.766518 168.687162 
L 513.979631 165.743207 
L 514.192743 165.699268 
L 514.832081 170.714661 
L 515.045194 169.848423 
L 515.258307 167.663996 
L 515.471419 169.89864 
L 515.897645 165.674159 
L 516.32387 167.965297 
L 516.750095 163.90402 
L 516.963208 164.261814 
L 517.176321 166.264206 
L 517.389433 166.873083 
L 517.815659 171.110118 
L 518.241884 171.631116 
L 518.881222 184.800448 
L 519.094335 187.800897 
L 519.307447 187.713017 
L 519.52056 190.223853 
L 519.733673 191.058706 
L 519.946785 190.839008 
L 520.159898 192.734688 
L 520.373011 192.740965 
L 520.586123 193.632312 
L 520.799236 193.305903 
L 521.012349 193.381229 
L 521.438574 193.983829 
L 521.651687 193.59465 
L 522.077912 198.735585 
L 522.291025 196.444448 
L 522.504137 199.815244 
L 522.71725 198.045105 
L 522.930363 191.17797 
L 523.143475 190.42472 
L 523.356588 188.604364 
L 523.569701 194.555044 
L 523.782813 194.812405 
L 523.995926 193.236855 
L 524.209039 190.022986 
L 524.422151 189.426663 
L 524.635264 190.914333 
L 524.848377 191.61109 
L 525.274602 189.658915 
L 525.487715 194.316515 
L 525.700827 196.023883 
L 525.91394 195.289463 
L 526.127053 187.857391 
L 526.340165 184.317113 
L 526.553278 183.526199 
L 526.766391 183.883993 
L 526.979504 187.267344 
L 527.192616 187.367778 
L 527.405729 186.658467 
L 527.618842 188.780123 
L 527.831954 192.897893 
L 528.045067 187.675355 
L 528.25818 187.60003 
L 528.471292 183.570139 
L 528.684405 186.746346 
L 528.897518 187.480765 
L 529.11063 186.175131 
L 529.536856 179.402152 
L 529.749968 176.100404 
L 529.963081 176.985473 
L 530.176194 188.824062 
L 530.389306 187.110417 
L 530.602419 184.097414 
L 530.815532 185.208459 
L 531.028644 183.953041 
L 531.241757 185.233567 
L 531.667982 201.616769 
L 531.881095 202.294694 
L 532.094208 200.392737 
L 532.30732 200.417845 
L 532.520433 202.752922 
L 532.733546 197.568047 
L 532.946658 199.237752 
L 533.159771 197.775191 
L 533.372884 197.461336 
L 533.585996 194.718248 
L 533.799109 194.485996 
L 534.012222 195.954835 
L 534.225334 196.387954 
L 534.438447 196.042714 
L 534.65156 196.0741 
L 534.864672 195.239247 
L 535.077785 195.722583 
L 535.50401 200.486893 
L 535.930236 194.467165 
L 536.143348 195.050934 
L 536.356461 197.178867 
L 536.569574 196.168256 
L 536.782686 194.605261 
L 536.995799 195.239247 
L 537.208912 194.617815 
L 537.422024 194.818682 
L 537.635137 190.179913 
L 538.061362 192.992049 
L 538.274475 195.440114 
L 538.487588 199.181258 
L 538.7007 194.762188 
L 538.913813 197.178867 
L 539.340038 194.021492 
L 539.553151 195.433836 
L 539.766264 197.593155 
L 539.979376 197.354626 
L 540.192489 197.436228 
L 540.405602 197.273023 
L 540.618714 196.469556 
L 540.831827 196.475833 
L 541.258052 193.425168 
L 541.471165 193.732745 
L 541.684278 196.513496 
L 542.110503 190.864116 
L 542.323616 193.707637 
L 542.536728 190.569093 
L 542.749841 189.727963 
L 542.962954 193.996383 
L 543.176066 192.276461 
L 543.389179 195.936004 
L 543.815404 192.797459 
L 544.028517 189.018652 
L 544.24163 188.221462 
L 544.454742 186.438768 
L 544.667855 186.815394 
L 545.09408 190.87667 
L 545.307193 191.140308 
L 545.520306 191.165416 
L 545.733418 191.705246 
L 545.946531 194.435779 
L 546.159644 194.617815 
L 546.372756 188.987266 
L 546.585869 189.489434 
L 547.012094 185.597639 
L 547.225207 184.92599 
L 547.651432 169.904917 
L 547.864545 171.744104 
L 548.077658 171.392587 
L 548.503883 178.67401 
L 548.716996 180.877268 
L 548.930108 180.393932 
L 549.143221 181.492423 
L 549.356334 180.230728 
L 549.569446 176.69045 
L 549.782559 175.541743 
L 549.995672 173.633508 
L 550.208784 169.082618 
L 550.421897 170.639336 
L 550.63501 169.409027 
L 550.848122 172.359259 
L 551.061235 165.448184 
L 551.274348 165.981737 
L 551.48746 156.227141 
L 551.700573 156.522164 
L 551.913686 159.189927 
L 552.339911 146.522762 
L 552.766136 130.660559 
L 552.979249 129.210551 
L 553.192362 125.149275 
L 553.405474 125.877417 
L 553.618587 127.007293 
L 553.8317 129.675056 
L 554.044812 127.923748 
L 554.257925 130.120729 
L 554.471038 116.781916 
L 554.68415 113.17259 
L 554.897263 114.107876 
L 555.323488 111.427559 
L 555.536601 113.448782 
L 555.749714 108.828845 
L 555.962826 107.56715 
L 556.175939 109.927335 
L 556.389052 106.142251 
L 556.602164 108.954386 
L 557.02839 97.617964 
L 557.241502 94.925093 
L 557.454615 94.021193 
L 557.88084 99.563862 
L 558.307066 104.102197 
L 558.520178 101.798505 
L 558.946404 100.687461 
L 559.159516 100.361052 
L 559.372629 99.174682 
L 559.585742 107.579704 
L 559.798854 109.688806 
L 560.011967 110.335346 
L 560.22508 111.979943 
L 560.864418 120.799253 
L 561.290643 136.215782 
L 561.716868 139.222508 
L 561.929981 136.680287 
L 562.143094 141.086803 
L 562.356206 142.417546 
L 562.782432 137.948259 
L 563.208657 127.735436 
L 563.42177 128.708384 
L 563.634882 124.942131 
L 564.061108 132.681781 
L 564.27422 133.861874 
L 564.700446 133.20278 
L 565.126671 129.844537 
L 565.339784 131.708833 
L 565.552896 126.982185 
L 565.979122 132.06035 
L 566.192234 129.976356 
L 566.405347 133.378538 
L 566.61846 131.118786 
L 566.831572 133.391093 
L 567.044685 132.989359 
L 567.257798 133.234165 
L 567.47091 137.232671 
L 567.684023 134.897594 
L 567.897136 133.874428 
L 568.323361 139.128352 
L 568.536474 142.81928 
L 568.749586 141.921656 
L 568.962699 146.089643 
L 569.175812 147.288567 
L 569.388924 146.566702 
L 569.602037 141.714512 
L 570.028262 143.095472 
L 570.241375 141.281393 
L 570.454488 141.501091 
L 570.6676 142.536811 
L 570.880713 140.113854 
L 571.093826 141.752175 
L 571.306938 141.143297 
L 571.520051 142.386161 
L 571.946276 146.629472 
L 572.159389 145.342669 
L 572.372502 144.928381 
L 572.585614 146.748737 
L 572.798727 146.566702 
L 573.01184 147.081423 
L 573.224952 146.880556 
L 573.438065 148.732297 
L 573.651178 146.347003 
L 573.86429 154.984277 
L 574.077403 154.752025 
L 574.290516 156.817187 
L 574.503628 160.734091 
L 574.716741 169.339979 
L 575.142966 163.998177 
L 575.356079 164.563115 
L 575.569192 168.743656 
L 575.782304 168.335645 
L 576.20853 169.691496 
L 576.634755 175.742609 
L 576.847868 173.721387 
L 577.06098 168.423524 
L 577.274093 168.737379 
L 578.126544 163.100553 
L 579.40522 174.945419 
L 579.618332 175.974862 
L 580.25767 173.300822 
L 580.470783 173.934808 
L 580.683896 174.926588 
L 580.897008 176.684173 
L 581.536346 178.793275 
L 581.749459 183.381826 
L 581.962572 183.017755 
L 582.175684 181.8 
L 582.388797 183.545031 
L 582.60191 180.130294 
L 582.815022 180.375101 
L 583.241248 178.680287 
L 583.45436 177.707338 
L 583.880586 173.438918 
L 584.306811 175.121178 
L 584.519924 175.014467 
L 585.585487 183.350441 
L 585.7986 181.517531 
L 586.011712 181.856494 
L 586.224825 181.228785 
L 586.437938 177.719892 
L 586.65105 177.092184 
L 586.864163 177.073352 
L 587.077276 175.799103 
L 587.503501 181.279002 
L 587.716614 180.619907 
L 587.929726 180.965147 
L 588.355952 184.882051 
L 588.782177 180.437872 
L 588.99529 179.803886 
L 589.208402 178.617516 
L 589.421515 186.821671 
L 590.273966 174.506023 
L 590.487078 174.593902 
L 590.700191 175.271828 
L 590.913304 174.342819 
L 591.126416 174.844986 
L 591.552642 170.670722 
L 591.765754 174.957973 
L 591.978867 173.583291 
L 592.19198 173.583291 
L 592.405092 177.368375 
L 592.618205 176.112958 
L 592.831318 176.338933 
L 593.04443 175.070961 
L 593.257543 175.365984 
L 593.683768 163.941683 
L 593.896881 166.647108 
L 594.109994 164.933463 
L 594.323106 165.994291 
L 594.536219 162.435182 
L 594.749332 165.88758 
L 594.962444 166.540398 
L 595.601782 157.752473 
L 595.814895 156.798356 
L 596.028008 154.664146 
L 596.24112 155.486444 
L 596.454233 158.612435 
L 596.667346 156.089045 
L 597.306684 161.110716 
L 597.519796 161.104439 
L 597.732909 158.568495 
L 597.946022 160.231923 
L 598.159134 160.815693 
L 598.58536 162.617217 
L 599.011585 155.618263 
L 599.43781 160.489284 
L 599.650923 161.229981 
L 599.864036 160.08755 
L 600.077148 159.666986 
L 600.290261 161.418293 
L 600.503374 160.545778 
L 600.716486 159.039277 
L 601.142712 162.46029 
L 601.355824 162.598386 
L 601.568937 163.370468 
L 601.995162 161.587775 
L 602.208275 162.347302 
L 602.421388 161.16721 
L 602.6345 161.543835 
L 603.060726 166.684771 
L 603.273838 166.552952 
L 603.486951 166.873083 
L 603.700064 170.061844 
L 603.913176 169.132835 
L 604.126289 170.268988 
L 604.339402 169.05751 
L 604.552514 171.009685 
L 604.765627 169.823315 
L 604.97874 171.461635 
L 605.404965 169.164221 
L 605.618078 168.247766 
L 605.83119 168.643222 
L 606.044303 167.230877 
L 606.257416 167.37525 
L 606.683641 165.197101 
L 606.896754 165.222209 
L 607.109866 164.236706 
L 607.322979 165.190823 
L 607.536092 165.253594 
L 607.749204 164.569392 
L 608.17543 162.096219 
L 608.388542 162.968734 
L 608.814768 161.901629 
L 609.02788 161.863967 
L 609.240993 161.242535 
L 609.454106 160.257032 
L 609.667218 161.794919 
L 609.880331 162.271977 
L 610.306556 165.818532 
L 610.519669 166.019399 
L 610.732782 166.584337 
L 610.945894 165.517232 
L 611.159007 165.341474 
L 611.585232 165.875026 
L 611.798345 167.406636 
L 612.22457 173.212943 
L 612.437683 170.463578 
L 612.650796 170.746047 
L 613.077021 174.694336 
L 613.290134 172.616619 
L 613.503246 172.823763 
L 613.716359 174.644119 
L 613.929472 175.133732 
L 614.56881 172.67939 
L 614.781922 173.093678 
L 615.208148 171.806875 
L 615.42126 171.267045 
L 615.634373 171.179166 
L 616.060598 173.784158 
L 616.273711 173.018353 
L 616.486824 171.725273 
L 616.699936 172.72333 
L 616.913049 171.92614 
L 617.126162 172.993245 
L 617.339274 173.32593 
L 617.552387 172.949305 
L 617.7655 171.323539 
L 618.191725 170.714661 
L 618.404838 171.624839 
L 618.61795 170.664445 
L 618.831063 173.897145 
L 619.257288 174.85754 
L 619.470401 174.907757 
L 619.683514 175.69867 
L 620.109739 171.530683 
L 620.322852 171.643671 
L 620.535964 169.007293 
L 620.749077 169.164221 
L 620.96219 168.662054 
L 621.175302 167.645165 
L 621.388415 167.733044 
L 621.601528 169.427858 
L 621.81464 168.781318 
L 622.027753 165.893857 
L 622.240866 166.634554 
L 622.453978 166.201435 
L 622.667091 167.689105 
L 622.880204 166.697325 
L 623.093316 168.103393 
L 623.306429 166.119833 
L 623.519542 167.325034 
L 623.732654 166.559229 
L 623.945767 165.09039 
L 624.15888 166.691048 
L 624.371992 170.93436 
L 624.585105 171.022239 
L 624.798218 172.07679 
L 625.01133 172.459692 
L 625.224443 172.145838 
L 625.437556 169.860977 
L 625.650668 170.024182 
L 625.863781 171.260768 
L 626.290006 170.576566 
L 626.503119 169.371365 
L 626.716232 170.369422 
L 627.142457 174.104289 
L 627.35557 173.438918 
L 627.568682 171.392587 
L 627.781795 168.078284 
L 627.994908 168.787595 
L 628.20802 165.667882 
L 628.421133 168.329368 
L 628.634246 167.61378 
L 628.847358 168.969631 
L 629.060471 168.969631 
L 629.273584 171.009685 
L 629.486696 170.030459 
L 629.912922 169.547123 
L 630.126034 169.860977 
L 630.339147 169.339979 
L 630.765372 166.421133 
L 630.978485 166.684771 
L 631.191598 167.400359 
L 631.40471 166.722433 
L 631.617823 166.691048 
L 632.257161 166.03823 
L 632.683386 162.202929 
L 632.896499 162.767867 
L 633.322724 160.58344 
L 633.535837 162.466567 
L 633.74895 165.605111 
L 633.962062 166.339531 
L 634.388288 168.944522 
L 634.6014 166.734987 
L 634.814513 169.434135 
L 635.027626 169.120281 
L 635.453851 175.949753 
L 635.666964 175.485249 
L 635.880076 172.120729 
L 636.093189 165.93152 
L 636.306302 168.536512 
L 636.519414 168.486295 
L 636.732527 170.212494 
L 636.94564 169.628725 
L 637.158752 162.033448 
L 637.371865 170.281542 
L 637.584978 171.643671 
L 637.79809 187.235959 
L 638.011203 194.624092 
L 638.224316 195.38362 
L 638.650541 204.039725 
L 638.863654 192.540099 
L 639.076766 193.858287 
L 639.289879 194.303961 
L 639.502992 196.205918 
L 639.716104 191.259573 
L 639.929217 190.305455 
L 640.14233 190.048094 
L 640.568555 179.056912 
L 640.781668 174.757107 
L 641.207893 178.021193 
L 641.634118 175.252997 
L 641.847231 174.788492 
L 642.060344 172.03285 
L 642.273456 167.745599 
L 642.912794 174.31771 
L 643.33902 167.080227 
L 643.552132 169.145389 
L 643.765245 166.477627 
L 644.19147 158.64382 
L 644.617696 162.65488 
L 644.830808 158.593603 
L 645.043921 160.865909 
L 645.257034 160.683874 
L 645.470146 165.052728 
L 645.683259 161.179764 
L 646.109484 161.719593 
L 646.53571 165.636497 
L 646.748822 164.556838 
L 647.38816 171.059901 
L 648.027498 168.643222 
L 648.240611 169.239546 
L 648.879949 165.63022 
L 649.093062 167.262263 
L 649.306174 167.87114 
L 649.519287 165.39169 
L 649.7324 166.42741 
L 649.945512 166.509012 
L 650.158625 167.601226 
L 650.58485 173.162726 
L 650.797963 175.014467 
L 651.011076 178.567299 
L 651.224188 177.920759 
L 651.650414 184.62469 
L 651.863526 185.020146 
L 652.076639 188.409774 
L 652.289752 189.552204 
L 652.502864 187.44938 
L 652.715977 189.6903 
L 652.92909 187.60003 
L 653.142202 187.713017 
L 653.355315 188.05198 
L 653.78154 185.258676 
L 653.994653 187.417994 
L 654.207766 187.367778 
L 654.420878 185.534868 
L 654.633991 185.001315 
L 655.060216 183.350441 
L 655.273329 179.879211 
L 655.486442 180.638739 
L 655.912667 178.956479 
L 656.338892 173.922254 
L 656.765118 179.402152 
L 657.191343 179.785055 
L 657.617568 179.056912 
L 657.830681 177.581796 
L 658.043794 178.97531 
L 658.256906 178.240891 
L 658.470019 175.340876 
L 658.683132 174.5123 
L 659.109357 179.916873 
L 659.32247 182.258227 
L 659.535582 181.379435 
L 659.961808 186.21907 
L 660.388033 184.047198 
L 660.601146 182.208011 
L 660.814258 187.267344 
L 661.027371 189.018652 
L 661.879822 187.417994 
L 662.092934 194.128202 
L 662.306047 194.253744 
L 662.51916 193.443999 
L 662.732272 199.714811 
L 662.945385 201.29036 
L 663.37161 207.197101 
L 663.584723 208.609446 
L 663.797836 215.777881 
L 664.224061 212.218771 
L 664.437174 215.664893 
L 664.650286 216.449529 
L 665.71585 194.109371 
L 665.928962 189.407831 
L 666.5683 184.963653 
L 666.781413 187.311284 
L 666.994526 186.853056 
L 667.207638 185.27123 
L 667.420751 186.137468 
L 667.633864 185.522314 
L 668.060089 191.768017 
L 668.273202 191.096368 
L 668.486314 187.857391 
L 668.91254 180.092632 
L 669.125652 182.785503 
L 669.338765 183.865162 
L 669.551878 180.444149 
L 669.76499 181.417098 
L 670.191216 176.433089 
L 670.404328 175.610791 
L 670.617441 175.447586 
L 670.830554 170.375699 
L 671.256779 173.683724 
L 671.469892 170.921805 
L 671.683004 170.381976 
L 671.896117 166.239097 
L 672.322342 165.78087 
L 672.535455 166.954685 
L 673.174793 158.173038 
L 673.387906 162.830638 
L 673.601018 164.525452 
L 674.240356 162.993842 
L 674.453469 164.946017 
L 674.666582 163.213541 
L 674.879694 167.287371 
L 675.092807 164.820475 
L 675.30592 168.053176 
L 675.519032 177.299327 
L 676.15837 168.323091 
L 676.371483 166.722433 
L 676.797708 174.549963 
L 677.010821 173.118786 
L 677.650159 175.69867 
L 677.863272 177.500194 
L 678.076384 176.144343 
L 678.289497 175.761441 
L 678.50261 175.868151 
L 678.715722 178.196951 
L 678.928835 176.972919 
L 679.35506 178.799552 
L 679.568173 181.975758 
L 679.781286 179.119683 
L 679.994398 184.467763 
L 680.420624 184.492871 
L 680.633736 186.005649 
L 680.846849 185.490928 
L 681.273074 180.908653 
L 681.486187 183.362995 
L 681.6993 183.689404 
L 681.912412 179.979644 
L 682.125525 183.13702 
L 682.55175 185.72318 
L 682.977976 185.603916 
L 683.404201 186.595696 
L 683.617314 188.133582 
L 683.830426 184.574473 
L 684.256652 190.305455 
L 684.469764 190.029263 
L 684.682877 188.899387 
L 684.89599 189.19441 
L 685.109102 187.637692 
L 685.322215 192.025377 
L 685.74844 192.132088 
L 685.961553 189.100254 
L 686.174666 189.232073 
L 686.387778 193.519324 
L 686.600891 194.6492 
L 686.814004 198.974114 
L 687.027116 196.563712 
L 687.453342 194.404394 
L 687.666454 195.063488 
L 688.09268 206.889523 
L 688.94513 215.514243 
L 689.158243 215.307099 
L 689.371356 216.160783 
L 689.584468 217.598236 
L 689.797581 216.487192 
L 690.436919 214.974413 
L 690.863144 219.845434 
L 691.076257 217.981139 
L 691.28937 218.288716 
L 691.502482 217.322045 
L 691.715595 217.924645 
L 691.928708 217.340876 
L 692.14182 218.357764 
L 692.354933 218.244777 
L 692.568046 219.311882 
L 692.781158 218.464475 
L 692.994271 219.632013 
L 693.420496 213.298431 
L 693.846722 205.30142 
L 694.699173 174.40559 
L 695.125398 176.703004 
L 695.551623 175.54802 
L 695.764736 174.085458 
L 695.977849 174.807323 
L 696.190961 176.025078 
L 696.404074 175.001913 
L 696.617187 175.271828 
L 696.830299 175.836766 
L 697.043412 177.154954 
L 697.256525 175.058407 
L 697.469637 175.736332 
L 697.68275 173.97247 
L 697.895863 173.959916 
L 698.322088 176.031356 
L 698.535201 179.107129 
L 698.748313 173.005799 
L 698.961426 173.765327 
L 699.174539 173.401255 
L 699.387651 174.267494 
L 699.600764 173.809266 
L 699.813877 172.265102 
L 700.026989 174.323987 
L 700.240102 174.612734 
L 700.453215 173.495412 
L 700.666327 171.078733 
L 700.87944 171.486743 
L 701.092553 170.281542 
L 701.305665 170.607951 
L 701.518778 171.762935 
L 701.731891 171.73155 
L 702.158116 177.1424 
L 702.371229 172.252548 
L 702.584341 171.618562 
L 702.797454 173.577014 
L 703.223679 174.229831 
L 703.436792 169.409027 
L 703.863017 171.053624 
L 704.07613 169.653834 
L 704.289243 170.633059 
L 704.715468 168.693439 
L 704.928581 168.680885 
L 705.141693 169.835869 
L 705.354806 169.798207 
L 705.781031 166.075893 
L 706.207257 168.523958 
L 706.633482 163.979345 
L 706.846595 163.640383 
L 707.059707 158.122822 
L 707.27282 158.581049 
L 707.485933 159.999671 
L 707.699045 152.580152 
L 707.912158 151.324735 
L 708.125271 152.159588 
L 708.551496 148.751128 
L 708.764609 152.423225 
L 708.977721 152.291406 
L 709.190834 150.157196 
L 709.403947 152.975609 
L 709.830172 155.794022 
L 710.043285 160.426513 
L 710.682623 153.465222 
L 710.895735 153.107428 
L 711.108848 152.373009 
L 711.321961 152.73708 
L 711.748186 149.893559 
L 711.961299 147.891167 
L 712.387524 152.900284 
L 712.600637 150.954386 
L 712.813749 151.858287 
L 713.026862 153.797908 
L 713.239975 152.774742 
L 713.453087 154.507219 
L 713.6662 152.291406 
L 713.879313 157.35074 
L 714.518651 159.955732 
L 714.944876 169.283485 
L 715.157989 170.174832 
L 715.371101 169.365087 
L 715.584214 167.5259 
L 715.797327 173.985025 
L 716.010439 170.946914 
L 716.223552 170.702107 
L 716.436665 170.877866 
L 716.649777 170.388253 
L 717.076003 167.695382 
L 717.289115 166.358362 
L 717.502228 170.256434 
L 717.715341 171.436527 
L 717.928453 171.957525 
L 718.567791 183.218622 
L 718.780904 180.444149 
L 718.994017 180.337438 
L 719.633355 187.769511 
L 719.846467 183.814945 
L 720.272693 163.596443 
L 720.485805 159.6356 
L 720.698918 159.742311 
L 720.912031 145.053923 
L 721.338256 143.390495 
L 721.764481 146.497654 
L 721.977594 150.722134 
L 722.190707 152.661755 
L 722.403819 150.948109 
L 722.616932 154.337737 
L 722.830045 155.737528 
L 723.043157 147.426663 
L 723.25627 147.23835 
L 723.469383 145.524705 
L 723.895608 134.859931 
L 724.108721 135.977253 
L 724.321833 135.537857 
L 724.534946 138.95887 
L 724.748059 139.065581 
L 724.961171 135.801495 
L 725.813622 114.603766 
L 726.026735 112.946615 
L 726.239847 113.279301 
L 726.45296 107.937498 
L 726.666073 113.260469 
L 726.879185 113.850516 
L 727.305411 116.455507 
L 727.731636 123.680436 
L 727.944749 125.193215 
L 728.370974 121.571335 
L 728.584087 119.487341 
L 728.797199 121.10683 
L 729.010312 120.943626 
L 729.223425 122.676102 
L 729.64965 120.937349 
L 729.862763 120.629771 
L 730.075875 120.667434 
L 730.288988 120.108773 
L 730.502101 118.92868 
L 730.928326 116.047497 
L 731.141439 118.464176 
L 731.354551 118.338634 
L 731.567664 118.639934 
L 731.780777 116.957674 
L 731.993889 117.302914 
L 732.207002 114.566104 
L 732.420115 109.475385 
L 732.633227 112.356569 
L 732.84634 113.342071 
L 733.059453 115.061994 
L 733.272565 118.683874 
L 733.485678 125.287371 
L 733.698791 125.783261 
L 733.911903 125.852309 
L 734.338129 103.581199 
L 734.551241 100.480317 
L 734.977467 108.941832 
L 735.190579 108.841399 
L 735.616805 114.026274 
L 735.829917 124.42741 
L 736.256143 129.825706 
L 736.469255 131.156449 
L 736.682368 135.594351 
L 736.895481 133.723778 
L 737.108593 133.102346 
L 737.321706 135.908205 
L 737.534819 133.246719 
L 737.747931 138.368824 
L 737.961044 138.695232 
L 738.174157 134.533523 
L 738.387269 134.376595 
L 738.813495 137.439815 
L 739.026607 137.251502 
L 739.23972 135.996084 
L 739.452833 132.305156 
L 739.665945 133.246719 
L 740.092171 141.576416 
L 740.305283 141.639187 
L 740.944621 147.834673 
L 741.157734 147.966492 
L 741.370847 143.522314 
L 741.583959 144.319504 
L 741.797072 145.55609 
L 742.223297 153.609595 
L 742.43641 150.979495 
L 742.649523 150.565207 
L 743.288861 157.564161 
L 743.501973 157.394679 
L 743.715086 161.951846 
L 743.928199 162.742759 
L 744.141311 165.705545 
L 744.354424 161.995785 
L 744.567537 163.044059 
L 744.780649 161.506172 
L 744.993762 162.661157 
L 745.206875 168.247766 
L 745.419987 176.960365 
L 745.6331 179.151069 
L 745.846213 178.153012 
L 746.059325 180.500643 
L 746.272438 180.142849 
L 746.485551 181.385712 
L 746.698663 174.914034 
L 746.911776 174.537408 
L 747.338001 174.537408 
L 747.764227 170.840203 
L 747.977339 161.041668 
L 748.190452 162.07111 
L 748.403565 162.089942 
L 748.616677 164.776536 
L 748.82979 165.912689 
L 749.042903 160.338634 
L 749.256015 160.903572 
L 749.469128 160.231923 
L 749.682241 165.529786 
L 749.895353 164.682379 
L 750.108466 162.774144 
L 750.321579 165.297534 
L 751.174029 159.252698 
L 751.387142 158.857241 
L 751.600255 155.674757 
L 751.813367 157.69598 
L 752.02648 156.497056 
L 752.239593 156.597489 
L 752.452705 156.936452 
L 752.665818 157.0055 
L 752.878931 158.737976 
L 753.092043 157.068271 
L 753.305156 156.61632 
L 753.518269 155.86307 
L 753.731381 145.512151 
L 753.944494 147.19441 
L 754.157607 145.989209 
L 754.370719 146.459991 
L 755.010057 142.210402 
L 755.22317 150.163473 
L 755.649395 147.715409 
L 755.862508 139.034195 
L 756.075621 135.111015 
L 756.288733 138.35627 
L 756.501846 137.527694 
L 756.928071 138.306053 
L 757.141184 137.12596 
L 757.354297 141.570139 
L 757.567409 141.563862 
L 757.780522 150.640532 
L 758.41986 151.889673 
L 758.632973 150.715857 
L 759.059198 152.429502 
L 759.272311 151.582095 
L 759.485423 151.902227 
L 759.698536 152.711971 
L 759.911649 155.649649 
L 760.124761 154.802242 
L 760.337874 145.047646 
L 760.550987 144.765177 
L 760.977212 137.803886 
L 761.190325 144.426214 
L 761.403437 142.022089 
L 761.61655 142.568196 
L 761.829663 143.66041 
L 762.042775 135.883097 
L 762.255888 139.354327 
L 762.469001 137.12596 
L 762.682113 138.004753 
L 762.895226 141.833777 
L 763.108339 138.387655 
L 763.321451 132.280048 
L 763.534564 136.93137 
L 763.747677 133.573128 
L 763.960789 134.891317 
L 764.173902 137.96709 
L 764.387015 137.96709 
L 764.600127 138.877268 
L 764.81324 141.821223 
L 765.026353 142.260619 
L 765.239465 144.878165 
L 765.452578 145.016261 
L 765.878803 148.569093 
L 766.305029 156.81091 
L 766.731254 153.427559 
L 766.944367 151.174085 
L 767.157479 151.531879 
L 767.370592 149.548319 
L 767.583705 148.807622 
L 767.796817 148.870393 
L 768.00993 150.132088 
L 768.436155 147.53965 
L 768.649268 155.448782 
L 768.862381 154.890121 
L 769.714831 162.774144 
L 769.927944 163.075445 
L 770.141057 162.165267 
L 770.354169 161.76981 
L 770.567282 159.616769 
L 770.780395 159.767419 
L 770.993507 160.52067 
L 771.419733 164.55056 
L 771.632845 162.749036 
L 771.845958 156.930175 
L 772.059071 156.20831 
L 772.272183 151.782962 
L 772.485296 150.201136 
L 772.698409 151.280795 
L 772.911521 149.435331 
L 773.124634 149.014766 
L 773.337747 147.721686 
L 773.550859 148.198745 
L 773.763972 149.862173 
L 773.977085 143.57253 
L 774.190197 145.0602 
L 774.40331 141.909102 
L 774.616423 142.009535 
L 774.829535 143.277507 
L 775.042648 141.413212 
L 775.255761 143.001315 
L 775.468873 142.988761 
L 775.681986 140.961261 
L 776.108211 147.301121 
L 776.321324 150.232521 
L 776.534437 149.711523 
L 776.747549 153.044657 
L 776.960662 153.910895 
L 777.173775 151.211747 
L 777.6 153.653535 
L 777.6 153.653535 
" style="fill:none;stroke:#1f77b4;stroke-linecap:square;stroke-width:1.5;"/>
   </g>
   <g id="patch_3">
    <path d="M 108 320.4 
L 108 43.2 
" style="fill:none;stroke:#000000;stroke-linecap:square;stroke-linejoin:miter;stroke-width:0.8;"/>
   </g>
   <g id="patch_4">
    <path d="M 777.6 320.4 
L 777.6 43.2 
" style="fill:none;stroke:#000000;stroke-linecap:square;stroke-linejoin:miter;stroke-width:0.8;"/>
   </g>
   <g id="patch_5">
    <path d="M 108 320.4 
L 777.6 320.4 
" style="fill:none;stroke:#000000;stroke-linecap:square;stroke-linejoin:miter;stroke-width:0.8;"/>
   </g>
   <g id="patch_6">
    <path d="M 108 43.2 
L 777.6 43.2 
" style="fill:none;stroke:#000000;stroke-linecap:square;stroke-linejoin:miter;stroke-width:0.8;"/>
   </g>
   <g id="text_18">
    <!-- 中债国债收益率利差 -->
    <defs>
     <path d="M 8.203125 62.0625 
L 45.796875 62.0625 
L 45.796875 83.34375 
L 54.203125 83.34375 
L 54.203125 62.0625 
L 92.1875 62.0625 
L 92.1875 17.53125 
L 84.1875 17.53125 
L 84.1875 22.796875 
L 54.203125 22.796875 
L 54.203125 -13.53125 
L 45.796875 -13.53125 
L 45.796875 22.796875 
L 16.21875 22.796875 
L 16.21875 17.53125 
L 8.203125 17.53125 
z
M 84.1875 54.828125 
L 54.203125 54.828125 
L 54.203125 30.03125 
L 84.1875 30.03125 
z
M 16.21875 30.03125 
L 45.796875 30.03125 
L 45.796875 54.828125 
L 16.21875 54.828125 
z
" id="MicrosoftYaHei-4e2d"/>
     <path d="M 26.859375 47.40625 
L 58.984375 47.40625 
L 58.984375 54.34375 
L 34.1875 54.34375 
L 34.1875 60.5 
L 58.984375 60.5 
L 58.984375 67.328125 
L 31.0625 67.328125 
L 31.0625 73.484375 
L 58.984375 73.484375 
L 58.984375 82.171875 
L 66.3125 82.171875 
L 66.3125 73.484375 
L 95.125 73.484375 
L 95.125 67.328125 
L 66.3125 67.328125 
L 66.3125 60.5 
L 90.328125 60.5 
L 90.328125 54.34375 
L 66.3125 54.34375 
L 66.3125 47.40625 
L 97.953125 47.40625 
L 97.953125 41.265625 
L 26.859375 41.265625 
z
M 1.265625 35.203125 
Q 12.890625 54.25 19.34375 82.375 
L 26.46875 81.109375 
Q 23.640625 70.65625 20.40625 61.375 
L 20.40625 -13.71875 
L 13.28125 -13.71875 
L 13.28125 44.09375 
Q 8.890625 35.015625 3.90625 27.390625 
Q 2.734375 31.390625 1.265625 35.203125 
z
M 34.859375 34.625 
L 89.15625 34.625 
L 89.15625 4.4375 
L 82.03125 4.4375 
L 82.03125 28.265625 
L 42 28.265625 
L 42 3.953125 
L 34.859375 3.953125 
z
M 58.5 25.140625 
L 65.625 25.140625 
Q 65.625 17.046875 64.0625 10.984375 
Q 80.5625 2.78125 97.265625 -7.765625 
L 92.875 -14.015625 
Q 77.546875 -3.953125 61.921875 4.9375 
Q 60.546875 2.09375 58.6875 0.046875 
Q 50.875 -8.9375 31.453125 -13.921875 
Q 28.515625 -8.453125 27.25 -6.890625 
Q 45.90625 -2.875 52.25 3.859375 
Q 58.5 9.8125 58.5 25.140625 
z
" id="MicrosoftYaHei-503a"/>
     <path d="M 7.328125 78.078125 
L 92.78125 78.078125 
L 92.78125 -13.03125 
L 85.25 -13.03125 
L 85.25 -8.15625 
L 14.84375 -8.15625 
L 14.84375 -13.140625 
L 7.328125 -13.140625 
z
M 85.25 71.140625 
L 14.84375 71.140625 
L 14.84375 -1.21875 
L 85.25 -1.21875 
z
M 19.34375 15.765625 
L 46.296875 15.765625 
L 46.296875 35.109375 
L 22.75 35.109375 
L 22.75 41.75 
L 46.296875 41.75 
L 46.296875 54.828125 
L 20.90625 54.828125 
L 20.90625 61.46875 
L 79.109375 61.46875 
L 79.109375 54.828125 
L 53.515625 54.828125 
L 53.515625 41.75 
L 77.15625 41.75 
L 77.15625 35.109375 
L 53.515625 35.109375 
L 53.515625 15.765625 
L 80.671875 15.765625 
L 80.671875 9.125 
L 19.34375 9.125 
z
M 58.59375 28.859375 
L 64.0625 32.953125 
Q 69.4375 27.390625 73.25 22.515625 
L 67.484375 18.109375 
Q 62.796875 24.46875 58.59375 28.859375 
z
" id="MicrosoftYaHei-56fd"/>
     <path d="M 35.0625 41.546875 
Q 47.5625 63.234375 53.125 83.453125 
L 61.03125 81.203125 
Q 57.90625 72.171875 54.5 63.921875 
L 97.078125 63.921875 
L 97.078125 56.6875 
L 85.59375 56.6875 
Q 84.125 28.421875 71.09375 10.640625 
Q 81 1.859375 99.21875 -4.640625 
Q 96.1875 -8.453125 93.65625 -12.453125 
Q 76.265625 -5.03125 65.921875 4.6875 
Q 56.5 -4.59375 39.84375 -13.328125 
Q 37.796875 -10.109375 34.859375 -6.78125 
Q 51.515625 1.5625 60.59375 10.5 
Q 49.3125 24.609375 46 45.5625 
Q 43.265625 40.234375 40.328125 35.296875 
Q 38.484375 38.140625 35.0625 41.546875 
z
M 26.265625 82.671875 
L 33.6875 82.671875 
L 33.6875 -12.75 
L 26.265625 -12.75 
L 26.265625 17.390625 
Q 20.3125 14.0625 14.15625 10.015625 
Q 11.625 8.15625 9.1875 5.609375 
L 3.609375 12.15625 
Q 6.640625 15.375 6.640625 20.5625 
L 6.640625 69 
L 14.0625 69 
L 14.0625 19 
Q 19.875 22.078125 26.265625 25.53125 
z
M 77.875 56.6875 
L 51.90625 56.6875 
Q 53.328125 32.859375 65.671875 16.546875 
Q 76.8125 32.234375 77.875 56.6875 
z
" id="MicrosoftYaHei-6536"/>
     <path d="M 1.765625 -1.609375 
L 15.921875 -1.609375 
L 15.921875 31.203125 
L 84.46875 31.203125 
L 84.46875 -1.609375 
L 97.953125 -1.609375 
L 97.953125 -8.453125 
L 1.765625 -8.453125 
z
M 4.109375 64.3125 
L 57.375 64.3125 
Q 66.015625 72.65625 74.125 83.34375 
L 81.25 78.859375 
Q 74.609375 71.140625 67.671875 64.3125 
L 96.484375 64.3125 
L 96.484375 57.46875 
L 4.109375 57.46875 
z
M 77.4375 24.5625 
L 63.765625 24.5625 
L 63.765625 -1.609375 
L 77.4375 -1.609375 
z
M 22.953125 -1.609375 
L 36.53125 -1.609375 
L 36.53125 24.5625 
L 22.953125 24.5625 
z
M 43.359375 -1.609375 
L 56.9375 -1.609375 
L 56.9375 24.5625 
L 43.359375 24.5625 
z
M 36.53125 54.4375 
L 41.3125 48.09375 
Q 26.078125 38.8125 7.125 29.25 
Q 5.171875 33.0625 3.125 36.078125 
Q 21.390625 44.875 36.53125 54.4375 
z
M 59.28125 48.296875 
L 63.28125 54.25 
Q 82.8125 45.0625 97.078125 37.25 
L 92.78125 30.03125 
Q 73.53125 41.15625 59.28125 48.296875 
z
M 19.34375 78.375 
L 24.421875 83.453125 
Q 32.8125 77.390625 39.546875 71.625 
L 33.984375 65.765625 
Q 27.640625 71.828125 19.34375 78.375 
z
" id="MicrosoftYaHei-76ca"/>
     <path d="M 39.453125 31.390625 
Q 40.96875 31.5 61.375 32.515625 
Q 58.9375 35.9375 56.640625 38.921875 
L 61.921875 42.234375 
Q 68.953125 34.421875 74.90625 25.828125 
L 68.65625 21.921875 
Q 66.9375 24.515625 65.28125 26.953125 
Q 46.734375 25.921875 34.578125 24.953125 
Q 32.421875 24.75 29.390625 24.078125 
L 26.953125 30.71875 
Q 29.890625 31.6875 31.34375 32.5625 
Q 39.59375 38.140625 47.65625 45.515625 
Q 40.578125 45.21875 35.546875 44.78125 
Q 33.5 44.484375 31.0625 43.890625 
L 28.125 49.859375 
Q 30.5625 50.734375 32.625 52.59375 
Q 39.203125 58.15625 44.921875 66.0625 
L 3.609375 66.0625 
L 3.609375 72.90625 
L 47.359375 72.90625 
Q 44.96875 77.25 42.875 80.515625 
L 49.90625 83.9375 
Q 53.71875 78.125 56.5 72.90625 
L 96.484375 72.90625 
L 96.484375 66.0625 
L 47.703125 66.0625 
L 52.34375 63.625 
Q 44.4375 55.515625 38.96875 50.734375 
Q 44.53125 50.875 53.515625 51.078125 
Q 57.421875 54.984375 61.328125 59.328125 
L 68.0625 55.421875 
Q 52.546875 40.671875 39.453125 31.390625 
z
M 2.25 15.484375 
L 46.78125 15.484375 
L 46.78125 24.078125 
L 54.5 24.078125 
L 54.5 15.484375 
L 98.046875 15.484375 
L 98.046875 8.640625 
L 54.5 8.640625 
L 54.5 -13.328125 
L 46.78125 -13.328125 
L 46.78125 8.640625 
L 2.25 8.640625 
z
M 26.859375 41.75 
L 30.375 35.984375 
Q 18.75 29.15625 6.640625 22.015625 
L 2.546875 28.5625 
Q 12.703125 33.34375 26.859375 41.75 
z
M 75.875 41.84375 
Q 89.84375 33.9375 97.65625 28.375 
L 93.359375 22.015625 
Q 83.296875 29.828125 71.875 36.578125 
z
M 93.65625 56.109375 
Q 86.234375 49.65625 77.546875 43.890625 
L 72.5625 49.078125 
Q 81.9375 55.21875 88.09375 61.375 
z
M 5.671875 56.78125 
L 10.640625 61.578125 
Q 18.75 55.125 24.8125 49.359375 
L 19.34375 44 
Q 13.671875 49.953125 5.671875 56.78125 
z
" id="MicrosoftYaHei-7387"/>
     <path d="M 1.171875 11.578125 
Q 14.265625 25.828125 23.25 46.828125 
L 1.65625 46.828125 
L 1.65625 53.953125 
L 25.09375 53.953125 
L 25.09375 68.609375 
Q 15.046875 67.625 5.171875 66.75 
Q 4.5 70.359375 3.21875 74.171875 
Q 26.65625 76.03125 51.078125 79.15625 
L 53.03125 71.734375 
Q 42.671875 70.453125 32.515625 69.390625 
L 32.515625 53.953125 
L 54.6875 53.953125 
L 54.6875 46.828125 
L 32.515625 46.828125 
L 32.515625 33.734375 
L 36.8125 37.84375 
Q 46 30.03125 55.078125 21.046875 
L 49.125 14.984375 
Q 43.171875 21.921875 32.515625 32.078125 
L 32.515625 -12.9375 
L 25.09375 -12.9375 
L 25.09375 35.890625 
Q 16.703125 16.9375 5.078125 2.78125 
Q 2.4375 9.125 1.171875 11.578125 
z
M 85.0625 81.203125 
L 92.78125 81.203125 
L 92.78125 -0.140625 
Q 92.78125 -12.546875 80.28125 -12.453125 
Q 76.265625 -12.453125 67.28125 -12.359375 
Q 66.703125 -8.34375 65.828125 -3.5625 
Q 73.734375 -4.4375 77.828125 -4.4375 
Q 85.0625 -4.546875 85.0625 2.875 
z
M 61.921875 71.4375 
L 69.34375 71.4375 
L 69.34375 9.71875 
L 61.921875 9.71875 
z
" id="MicrosoftYaHei-5229"/>
     <path d="M 17.09375 -2.6875 
L 53.421875 -2.6875 
L 53.421875 13.921875 
L 28.328125 13.921875 
L 28.328125 17 
Q 18.75 6.15625 5.171875 -3.078125 
Q 3.21875 0.046875 0.484375 3.859375 
Q 18.953125 16.0625 29.046875 31 
L 3.125 31 
L 3.125 37.640625 
L 33.109375 37.640625 
Q 35.546875 42.09375 37.640625 47.3125 
L 9.96875 47.3125 
L 9.96875 53.859375 
L 40.140625 53.859375 
Q 41.65625 58.25 42.96875 63.140625 
L 7.625 63.140625 
L 7.625 69.78125 
L 32.421875 69.78125 
Q 28.328125 74.953125 23.640625 80.03125 
L 29.203125 84.328125 
Q 34.859375 78.859375 40.046875 73 
L 35.59375 69.78125 
L 65.921875 69.78125 
L 62.109375 73.1875 
Q 67.875 78.859375 72.359375 84.421875 
L 79 80.03125 
Q 74.03125 74.5625 68.953125 69.78125 
L 94.53125 69.78125 
L 94.53125 63.140625 
L 51.421875 63.140625 
Q 50.09375 58.296875 48.578125 53.859375 
L 90.828125 53.859375 
L 90.828125 47.3125 
L 46.296875 47.3125 
Q 44.34375 42.1875 42.140625 37.640625 
L 98.34375 37.640625 
L 98.34375 31 
L 38.578125 31 
Q 35.296875 25.53125 31.203125 20.453125 
L 87.703125 20.453125 
L 87.703125 13.921875 
L 61.328125 13.921875 
L 61.328125 -2.6875 
L 97.078125 -2.6875 
L 97.078125 -9.328125 
L 17.09375 -9.328125 
z
" id="MicrosoftYaHei-5dee"/>
    </defs>
    <g transform="translate(388.8 37.2)scale(0.12 -0.12)">
     <use xlink:href="#MicrosoftYaHei-4e2d"/>
     <use x="100" xlink:href="#MicrosoftYaHei-503a"/>
     <use x="200" xlink:href="#MicrosoftYaHei-56fd"/>
     <use x="300" xlink:href="#MicrosoftYaHei-503a"/>
     <use x="400" xlink:href="#MicrosoftYaHei-6536"/>
     <use x="500" xlink:href="#MicrosoftYaHei-76ca"/>
     <use x="600" xlink:href="#MicrosoftYaHei-7387"/>
     <use x="700" xlink:href="#MicrosoftYaHei-5229"/>
     <use x="800" xlink:href="#MicrosoftYaHei-5dee"/>
    </g>
   </g>
   <g id="legend_1">
    <g id="patch_7">
     <path d="M 690.7625 66.679688 
L 770.6 66.679688 
Q 772.6 66.679688 772.6 64.679688 
L 772.6 50.2 
Q 772.6 48.2 770.6 48.2 
L 690.7625 48.2 
Q 688.7625 48.2 688.7625 50.2 
L 688.7625 64.679688 
Q 688.7625 66.679688 690.7625 66.679688 
z
" style="fill:#ffffff;opacity:0.8;stroke:#cccccc;stroke-linejoin:miter;"/>
    </g>
    <g id="line2d_34">
     <path d="M 692.7625 56.69375 
L 712.7625 56.69375 
" style="fill:none;stroke:#1f77b4;stroke-linecap:square;stroke-width:1.5;"/>
    </g>
    <g id="line2d_35"/>
    <g id="text_19">
     <!-- 10年 - 3月 -->
     <defs>
      <path d="M 1.859375 19.96875 
L 17.578125 19.96875 
L 17.578125 47.90625 
L 52.15625 47.90625 
L 52.15625 65.28125 
L 23.4375 65.28125 
Q 16.84375 53.421875 8.6875 43.40625 
Q 6.15625 46.140625 2.640625 48.875 
Q 16.5 64.5 23.4375 83.9375 
L 31.453125 81.6875 
Q 29.390625 76.859375 27.15625 72.3125 
L 94.34375 72.3125 
L 94.34375 65.28125 
L 60.0625 65.28125 
L 60.0625 47.90625 
L 92.671875 47.90625 
L 92.671875 41.0625 
L 60.0625 41.0625 
L 60.0625 19.96875 
L 98.734375 19.96875 
L 98.734375 12.9375 
L 60.0625 12.9375 
L 60.0625 -13.421875 
L 52.15625 -13.421875 
L 52.15625 12.9375 
L 1.859375 12.9375 
z
M 25.296875 19.96875 
L 52.15625 19.96875 
L 52.15625 41.0625 
L 25.296875 41.0625 
z
" id="MicrosoftYaHei-5e74"/>
      <path id="MicrosoftYaHei-20"/>
      <path d="M 25.046875 20.0625 
Q 22.859375 1.21875 10.359375 -14.015625 
Q 7.234375 -10.984375 3.609375 -8.15625 
Q 13.09375 2.09375 16.3125 16.265625 
Q 18.5625 26.703125 18.5625 45.171875 
L 18.5625 78.953125 
L 83.796875 78.953125 
L 83.796875 2.78125 
Q 83.796875 -11.671875 70.015625 -11.671875 
Q 64.265625 -11.671875 55.171875 -11.46875 
Q 54.6875 -7.953125 53.71875 -3.265625 
Q 62.703125 -3.859375 67.875 -3.859375 
Q 75.78125 -3.859375 75.78125 3.859375 
L 75.78125 20.0625 
z
M 25.828125 27.203125 
L 75.78125 27.203125 
L 75.78125 45.953125 
L 26.5625 45.953125 
Q 26.5625 36.1875 25.828125 27.203125 
z
M 26.5625 71.625 
L 26.5625 53.078125 
L 75.78125 53.078125 
L 75.78125 71.625 
z
" id="MicrosoftYaHei-6708"/>
     </defs>
     <g transform="translate(720.7625 60.19375)scale(0.1 -0.1)">
      <use xlink:href="#MicrosoftYaHei-31"/>
      <use x="58.642578" xlink:href="#MicrosoftYaHei-30"/>
      <use x="117.285156" xlink:href="#MicrosoftYaHei-5e74"/>
      <use x="217.285156" xlink:href="#MicrosoftYaHei-20"/>
      <use x="246.875" xlink:href="#MicrosoftYaHei-2d"/>
      <use x="290.136719" xlink:href="#MicrosoftYaHei-20"/>
      <use x="319.726562" xlink:href="#MicrosoftYaHei-33"/>
      <use x="378.369141" xlink:href="#MicrosoftYaHei-6708"/>
     </g>
    </g>
   </g>
  </g>
 </g>
 <defs>
  <clipPath id="p7c733351e4">
   <rect height="277.2" width="669.6" x="108" y="43.2"/>
  </clipPath>
 </defs>
</svg>
