<?xml version="1.0" encoding="utf-8" standalone="no"?>
<!DOCTYPE svg PUBLIC "-//W3C//DTD SVG 1.1//EN"
  "http://www.w3.org/Graphics/SVG/1.1/DTD/svg11.dtd">
<!-- Created with matplotlib (http://matplotlib.org/) -->
<svg height="360pt" version="1.1" viewBox="0 0 864 360" width="864pt" xmlns="http://www.w3.org/2000/svg" xmlns:xlink="http://www.w3.org/1999/xlink">
 <defs>
  <style type="text/css">
*{stroke-linecap:butt;stroke-linejoin:round;}
  </style>
 </defs>
 <g id="figure_1">
  <g id="patch_1">
   <path d="M 0 360 
L 864 360 
L 864 0 
L 0 0 
z
" style="fill:#ffffff;"/>
  </g>
  <g id="axes_1">
   <g id="patch_2">
    <path d="M 108 320.4 
L 777.6 320.4 
L 777.6 43.2 
L 108 43.2 
z
" style="fill:#ffffff;"/>
   </g>
   <g id="matplotlib.axis_1">
    <g id="xtick_1">
     <g id="line2d_1">
      <path clip-path="url(#p199252bc7e)" d="M 108 320.4 
L 108 43.2 
" style="fill:none;stroke:#b0b0b0;stroke-linecap:square;stroke-width:0.8;"/>
     </g>
     <g id="line2d_2">
      <defs>
       <path d="M 0 0 
L 0 3.5 
" id="m02f136cd7f" style="stroke:#000000;stroke-width:0.8;"/>
      </defs>
      <g>
       <use style="stroke:#000000;stroke-width:0.8;" x="108" xlink:href="#m02f136cd7f" y="320.4"/>
      </g>
     </g>
     <g id="text_1">
      <!-- 2018-01-22 -->
      <defs>
       <path d="M 51.171875 0 
L 5.171875 0 
L 5.171875 8.296875 
L 27.15625 30.21875 
Q 36.234375 39.3125 39.3125 44.609375 
Q 42.390625 49.90625 42.390625 55.5625 
Q 42.390625 62.015625 38.765625 65.453125 
Q 35.15625 68.890625 28.328125 68.890625 
Q 18.21875 68.890625 9.03125 60.296875 
L 9.03125 70.015625 
Q 17.96875 76.90625 29.828125 76.90625 
Q 40.046875 76.90625 45.953125 71.390625 
Q 51.859375 65.875 51.859375 56.546875 
Q 51.859375 49.515625 48.0625 42.75 
Q 44.28125 35.984375 33.734375 25.53125 
L 16.5 8.6875 
L 16.5 8.5 
L 51.171875 8.5 
z
" id="MicrosoftYaHei-32"/>
       <path d="M 4.4375 36.328125 
Q 4.4375 56.34375 11.078125 66.625 
Q 17.71875 76.90625 30.328125 76.90625 
Q 54.34375 76.90625 54.34375 38.140625 
Q 54.34375 19 47.578125 8.859375 
Q 40.828125 -1.265625 28.609375 -1.265625 
Q 17.09375 -1.265625 10.765625 8.34375 
Q 4.4375 17.96875 4.4375 36.328125 
z
M 14.203125 36.765625 
Q 14.203125 6.640625 29.5 6.640625 
Q 44.53125 6.640625 44.53125 37.25 
Q 44.53125 68.953125 29.78125 68.953125 
Q 14.203125 68.953125 14.203125 36.765625 
z
" id="MicrosoftYaHei-30"/>
       <path d="M 52.59375 0 
L 9.234375 0 
L 9.234375 8.25 
L 26.171875 8.25 
L 26.171875 65.671875 
L 8.796875 60.640625 
L 8.796875 69.4375 
L 35.6875 77.25 
L 35.6875 8.25 
L 52.59375 8.25 
z
" id="MicrosoftYaHei-31"/>
       <path d="M 21.390625 39.796875 
Q 7.859375 46.09375 7.859375 58.0625 
Q 7.859375 66.40625 14.203125 71.65625 
Q 20.5625 76.90625 30.421875 76.90625 
Q 39.453125 76.90625 45.3125 71.96875 
Q 51.171875 67.046875 51.171875 59.234375 
Q 51.171875 46.625 37.0625 39.84375 
L 37.0625 39.65625 
Q 53.609375 33.6875 53.609375 19.34375 
Q 53.609375 9.90625 46.796875 4.3125 
Q 39.984375 -1.265625 27.78125 -1.265625 
Q 17.78125 -1.265625 11.46875 4.25 
Q 5.171875 9.765625 5.171875 18.5625 
Q 5.171875 33.015625 21.390625 39.59375 
z
M 41.5 58.109375 
Q 41.5 63.1875 38.328125 66.109375 
Q 35.15625 69.046875 29.734375 69.046875 
Q 24.65625 69.046875 21.09375 65.984375 
Q 17.53125 62.9375 17.53125 58.203125 
Q 17.53125 48.734375 29.390625 43.796875 
Q 41.5 48.828125 41.5 58.109375 
z
M 28.8125 35.25 
Q 14.796875 29.59375 14.796875 19.046875 
Q 14.796875 13.578125 18.890625 10.0625 
Q 23 6.546875 29.59375 6.546875 
Q 35.984375 6.546875 39.984375 10.03125 
Q 44 13.53125 44 18.75 
Q 44 29.734375 28.8125 35.25 
z
" id="MicrosoftYaHei-38"/>
       <path d="M 36.375 26.265625 
L 7.625 26.265625 
L 7.625 33.640625 
L 36.375 33.640625 
z
" id="MicrosoftYaHei-2d"/>
      </defs>
      <g transform="translate(80.217187 335.39375)scale(0.1 -0.1)">
       <use xlink:href="#MicrosoftYaHei-32"/>
       <use x="58.642578" xlink:href="#MicrosoftYaHei-30"/>
       <use x="117.285156" xlink:href="#MicrosoftYaHei-31"/>
       <use x="175.927734" xlink:href="#MicrosoftYaHei-38"/>
       <use x="234.570312" xlink:href="#MicrosoftYaHei-2d"/>
       <use x="277.832031" xlink:href="#MicrosoftYaHei-30"/>
       <use x="336.474609" xlink:href="#MicrosoftYaHei-31"/>
       <use x="395.117188" xlink:href="#MicrosoftYaHei-2d"/>
       <use x="438.378906" xlink:href="#MicrosoftYaHei-32"/>
       <use x="497.021484" xlink:href="#MicrosoftYaHei-32"/>
      </g>
     </g>
    </g>
    <g id="xtick_2">
     <g id="line2d_3">
      <path clip-path="url(#p199252bc7e)" d="M 199.978022 320.4 
L 199.978022 43.2 
" style="fill:none;stroke:#b0b0b0;stroke-linecap:square;stroke-width:0.8;"/>
     </g>
     <g id="line2d_4">
      <g>
       <use style="stroke:#000000;stroke-width:0.8;" x="199.978022" xlink:href="#m02f136cd7f" y="320.4"/>
      </g>
     </g>
     <g id="text_2">
      <!-- 2018-04-08 -->
      <defs>
       <path d="M 55.078125 19.625 
L 45.40625 19.625 
L 45.40625 0 
L 36.140625 0 
L 36.140625 19.625 
L 0.875 19.625 
L 0.875 25.828125 
L 34.328125 75.640625 
L 45.40625 75.640625 
L 45.40625 27.203125 
L 55.078125 27.203125 
z
M 36.140625 27.203125 
L 36.140625 58.890625 
Q 36.140625 62.25 36.328125 66.65625 
L 36.140625 66.65625 
Q 35.453125 64.796875 33.25 60.84375 
L 10.75 27.203125 
z
" id="MicrosoftYaHei-34"/>
      </defs>
      <g transform="translate(172.195209 335.39375)scale(0.1 -0.1)">
       <use xlink:href="#MicrosoftYaHei-32"/>
       <use x="58.642578" xlink:href="#MicrosoftYaHei-30"/>
       <use x="117.285156" xlink:href="#MicrosoftYaHei-31"/>
       <use x="175.927734" xlink:href="#MicrosoftYaHei-38"/>
       <use x="234.570312" xlink:href="#MicrosoftYaHei-2d"/>
       <use x="277.832031" xlink:href="#MicrosoftYaHei-30"/>
       <use x="336.474609" xlink:href="#MicrosoftYaHei-34"/>
       <use x="395.117188" xlink:href="#MicrosoftYaHei-2d"/>
       <use x="438.378906" xlink:href="#MicrosoftYaHei-30"/>
       <use x="497.021484" xlink:href="#MicrosoftYaHei-38"/>
      </g>
     </g>
    </g>
    <g id="xtick_3">
     <g id="line2d_5">
      <path clip-path="url(#p199252bc7e)" d="M 291.956044 320.4 
L 291.956044 43.2 
" style="fill:none;stroke:#b0b0b0;stroke-linecap:square;stroke-width:0.8;"/>
     </g>
     <g id="line2d_6">
      <g>
       <use style="stroke:#000000;stroke-width:0.8;" x="291.956044" xlink:href="#m02f136cd7f" y="320.4"/>
      </g>
     </g>
     <g id="text_3">
      <!-- 2018-06-19 -->
      <defs>
       <path d="M 49.703125 65.921875 
Q 43.796875 68.953125 37.359375 68.953125 
Q 27.546875 68.953125 21.578125 60.40625 
Q 15.625 51.859375 15.53125 37.0625 
L 15.765625 37.0625 
Q 21.140625 47.46875 32.90625 47.46875 
Q 42.71875 47.46875 48.578125 41.0625 
Q 54.4375 34.671875 54.4375 24.078125 
Q 54.4375 12.984375 47.671875 5.859375 
Q 40.921875 -1.265625 30.421875 -1.265625 
Q 18.890625 -1.265625 12.328125 7.734375 
Q 5.765625 16.75 5.765625 33.296875 
Q 5.765625 53.328125 14.375 65.109375 
Q 23 76.90625 37.0625 76.90625 
Q 45.125 76.90625 49.703125 74.703125 
z
M 16.109375 24.75 
Q 16.109375 17.28125 20.09375 11.953125 
Q 24.078125 6.640625 30.671875 6.640625 
Q 36.921875 6.640625 40.828125 11.234375 
Q 44.734375 15.828125 44.734375 23.046875 
Q 44.734375 30.859375 41.046875 35.203125 
Q 37.359375 39.546875 30.5625 39.546875 
Q 24.125 39.546875 20.109375 35.15625 
Q 16.109375 30.765625 16.109375 24.75 
z
" id="MicrosoftYaHei-36"/>
       <path d="M 9.03125 10.25 
Q 15.28125 6.640625 22.515625 6.640625 
Q 32.671875 6.640625 38.25 14.640625 
Q 43.84375 22.65625 43.84375 37.40625 
Q 43.75 37.3125 43.65625 37.40625 
Q 38.671875 27.9375 26.90625 27.9375 
Q 17.390625 27.9375 11.140625 34.46875 
Q 4.890625 41.015625 4.890625 51.46875 
Q 4.890625 62.59375 11.71875 69.75 
Q 18.5625 76.90625 29.4375 76.90625 
Q 40.71875 76.90625 47.0625 68.046875 
Q 53.421875 59.1875 53.421875 42.234375 
Q 53.421875 21.296875 45.21875 10.015625 
Q 37.015625 -1.265625 22.515625 -1.265625 
Q 14.546875 -1.265625 9.03125 1.3125 
z
M 14.546875 52.6875 
Q 14.546875 45.0625 18.453125 40.59375 
Q 22.359375 36.140625 29.25 36.140625 
Q 35.203125 36.140625 39.25 40.203125 
Q 43.3125 44.28125 43.3125 50.09375 
Q 43.3125 58.25 39.28125 63.59375 
Q 35.25 68.953125 28.65625 68.953125 
Q 22.5625 68.953125 18.546875 64.3125 
Q 14.546875 59.671875 14.546875 52.6875 
z
" id="MicrosoftYaHei-39"/>
      </defs>
      <g transform="translate(264.173231 335.39375)scale(0.1 -0.1)">
       <use xlink:href="#MicrosoftYaHei-32"/>
       <use x="58.642578" xlink:href="#MicrosoftYaHei-30"/>
       <use x="117.285156" xlink:href="#MicrosoftYaHei-31"/>
       <use x="175.927734" xlink:href="#MicrosoftYaHei-38"/>
       <use x="234.570312" xlink:href="#MicrosoftYaHei-2d"/>
       <use x="277.832031" xlink:href="#MicrosoftYaHei-30"/>
       <use x="336.474609" xlink:href="#MicrosoftYaHei-36"/>
       <use x="395.117188" xlink:href="#MicrosoftYaHei-2d"/>
       <use x="438.378906" xlink:href="#MicrosoftYaHei-31"/>
       <use x="497.021484" xlink:href="#MicrosoftYaHei-39"/>
      </g>
     </g>
    </g>
    <g id="xtick_4">
     <g id="line2d_7">
      <path clip-path="url(#p199252bc7e)" d="M 383.934066 320.4 
L 383.934066 43.2 
" style="fill:none;stroke:#b0b0b0;stroke-linecap:square;stroke-width:0.8;"/>
     </g>
     <g id="line2d_8">
      <g>
       <use style="stroke:#000000;stroke-width:0.8;" x="383.934066" xlink:href="#m02f136cd7f" y="320.4"/>
      </g>
     </g>
     <g id="text_4">
      <!-- 2018-08-28 -->
      <g transform="translate(356.151253 335.39375)scale(0.1 -0.1)">
       <use xlink:href="#MicrosoftYaHei-32"/>
       <use x="58.642578" xlink:href="#MicrosoftYaHei-30"/>
       <use x="117.285156" xlink:href="#MicrosoftYaHei-31"/>
       <use x="175.927734" xlink:href="#MicrosoftYaHei-38"/>
       <use x="234.570312" xlink:href="#MicrosoftYaHei-2d"/>
       <use x="277.832031" xlink:href="#MicrosoftYaHei-30"/>
       <use x="336.474609" xlink:href="#MicrosoftYaHei-38"/>
       <use x="395.117188" xlink:href="#MicrosoftYaHei-2d"/>
       <use x="438.378906" xlink:href="#MicrosoftYaHei-32"/>
       <use x="497.021484" xlink:href="#MicrosoftYaHei-38"/>
      </g>
     </g>
    </g>
    <g id="xtick_5">
     <g id="line2d_9">
      <path clip-path="url(#p199252bc7e)" d="M 475.912088 320.4 
L 475.912088 43.2 
" style="fill:none;stroke:#b0b0b0;stroke-linecap:square;stroke-width:0.8;"/>
     </g>
     <g id="line2d_10">
      <g>
       <use style="stroke:#000000;stroke-width:0.8;" x="475.912088" xlink:href="#m02f136cd7f" y="320.4"/>
      </g>
     </g>
     <g id="text_5">
      <!-- 2018-11-12 -->
      <g transform="translate(448.129275 335.39375)scale(0.1 -0.1)">
       <use xlink:href="#MicrosoftYaHei-32"/>
       <use x="58.642578" xlink:href="#MicrosoftYaHei-30"/>
       <use x="117.285156" xlink:href="#MicrosoftYaHei-31"/>
       <use x="175.927734" xlink:href="#MicrosoftYaHei-38"/>
       <use x="234.570312" xlink:href="#MicrosoftYaHei-2d"/>
       <use x="277.832031" xlink:href="#MicrosoftYaHei-31"/>
       <use x="336.474609" xlink:href="#MicrosoftYaHei-31"/>
       <use x="395.117188" xlink:href="#MicrosoftYaHei-2d"/>
       <use x="438.378906" xlink:href="#MicrosoftYaHei-31"/>
       <use x="497.021484" xlink:href="#MicrosoftYaHei-32"/>
      </g>
     </g>
    </g>
    <g id="xtick_6">
     <g id="line2d_11">
      <path clip-path="url(#p199252bc7e)" d="M 567.89011 320.4 
L 567.89011 43.2 
" style="fill:none;stroke:#b0b0b0;stroke-linecap:square;stroke-width:0.8;"/>
     </g>
     <g id="line2d_12">
      <g>
       <use style="stroke:#000000;stroke-width:0.8;" x="567.89011" xlink:href="#m02f136cd7f" y="320.4"/>
      </g>
     </g>
     <g id="text_6">
      <!-- 2019-01-18 -->
      <g transform="translate(540.107297 335.39375)scale(0.1 -0.1)">
       <use xlink:href="#MicrosoftYaHei-32"/>
       <use x="58.642578" xlink:href="#MicrosoftYaHei-30"/>
       <use x="117.285156" xlink:href="#MicrosoftYaHei-31"/>
       <use x="175.927734" xlink:href="#MicrosoftYaHei-39"/>
       <use x="234.570312" xlink:href="#MicrosoftYaHei-2d"/>
       <use x="277.832031" xlink:href="#MicrosoftYaHei-30"/>
       <use x="336.474609" xlink:href="#MicrosoftYaHei-31"/>
       <use x="395.117188" xlink:href="#MicrosoftYaHei-2d"/>
       <use x="438.378906" xlink:href="#MicrosoftYaHei-31"/>
       <use x="497.021484" xlink:href="#MicrosoftYaHei-38"/>
      </g>
     </g>
    </g>
    <g id="xtick_7">
     <g id="line2d_13">
      <path clip-path="url(#p199252bc7e)" d="M 659.868132 320.4 
L 659.868132 43.2 
" style="fill:none;stroke:#b0b0b0;stroke-linecap:square;stroke-width:0.8;"/>
     </g>
     <g id="line2d_14">
      <g>
       <use style="stroke:#000000;stroke-width:0.8;" x="659.868132" xlink:href="#m02f136cd7f" y="320.4"/>
      </g>
     </g>
     <g id="text_7">
      <!-- 2019-04-03 -->
      <defs>
       <path d="M 6.984375 12.640625 
Q 14.75 6.640625 24.515625 6.640625 
Q 32.328125 6.640625 36.890625 10.46875 
Q 41.453125 14.3125 41.453125 20.75 
Q 41.453125 35.109375 20.90625 35.109375 
L 14.59375 35.109375 
L 14.59375 43.015625 
L 20.609375 43.015625 
Q 38.8125 43.015625 38.8125 56.5 
Q 38.8125 68.953125 24.90625 68.953125 
Q 16.9375 68.953125 9.90625 63.578125 
L 9.90625 72.609375 
Q 17.328125 76.90625 27.25 76.90625 
Q 36.921875 76.90625 42.78125 71.84375 
Q 48.640625 66.796875 48.640625 58.734375 
Q 48.640625 43.890625 33.5 39.65625 
L 33.5 39.453125 
Q 41.703125 38.578125 46.453125 33.671875 
Q 51.21875 28.765625 51.21875 21.4375 
Q 51.21875 11.234375 43.875 4.984375 
Q 36.53125 -1.265625 24.3125 -1.265625 
Q 13.578125 -1.265625 6.984375 2.734375 
z
" id="MicrosoftYaHei-33"/>
      </defs>
      <g transform="translate(632.085319 335.39375)scale(0.1 -0.1)">
       <use xlink:href="#MicrosoftYaHei-32"/>
       <use x="58.642578" xlink:href="#MicrosoftYaHei-30"/>
       <use x="117.285156" xlink:href="#MicrosoftYaHei-31"/>
       <use x="175.927734" xlink:href="#MicrosoftYaHei-39"/>
       <use x="234.570312" xlink:href="#MicrosoftYaHei-2d"/>
       <use x="277.832031" xlink:href="#MicrosoftYaHei-30"/>
       <use x="336.474609" xlink:href="#MicrosoftYaHei-34"/>
       <use x="395.117188" xlink:href="#MicrosoftYaHei-2d"/>
       <use x="438.378906" xlink:href="#MicrosoftYaHei-30"/>
       <use x="497.021484" xlink:href="#MicrosoftYaHei-33"/>
      </g>
     </g>
    </g>
    <g id="xtick_8">
     <g id="line2d_15">
      <path clip-path="url(#p199252bc7e)" d="M 751.846154 320.4 
L 751.846154 43.2 
" style="fill:none;stroke:#b0b0b0;stroke-linecap:square;stroke-width:0.8;"/>
     </g>
     <g id="line2d_16">
      <g>
       <use style="stroke:#000000;stroke-width:0.8;" x="751.846154" xlink:href="#m02f136cd7f" y="320.4"/>
      </g>
     </g>
     <g id="text_8">
      <!-- 2019-06-17 -->
      <defs>
       <path d="M 53.765625 72.3125 
L 24.171875 0 
L 14.265625 0 
L 42.390625 67.1875 
L 4.59375 67.1875 
L 4.59375 75.640625 
L 53.765625 75.640625 
z
" id="MicrosoftYaHei-37"/>
      </defs>
      <g transform="translate(724.063341 335.39375)scale(0.1 -0.1)">
       <use xlink:href="#MicrosoftYaHei-32"/>
       <use x="58.642578" xlink:href="#MicrosoftYaHei-30"/>
       <use x="117.285156" xlink:href="#MicrosoftYaHei-31"/>
       <use x="175.927734" xlink:href="#MicrosoftYaHei-39"/>
       <use x="234.570312" xlink:href="#MicrosoftYaHei-2d"/>
       <use x="277.832031" xlink:href="#MicrosoftYaHei-30"/>
       <use x="336.474609" xlink:href="#MicrosoftYaHei-36"/>
       <use x="395.117188" xlink:href="#MicrosoftYaHei-2d"/>
       <use x="438.378906" xlink:href="#MicrosoftYaHei-31"/>
       <use x="497.021484" xlink:href="#MicrosoftYaHei-37"/>
      </g>
     </g>
    </g>
    <g id="text_9">
     <!-- 日期 -->
     <defs>
      <path d="M 15.234375 76.703125 
L 84.859375 76.703125 
L 84.859375 -11.96875 
L 76.5625 -11.96875 
L 76.5625 -5.03125 
L 23.53125 -5.03125 
L 23.53125 -11.96875 
L 15.234375 -11.96875 
z
M 23.53125 32.859375 
L 23.53125 2.09375 
L 76.5625 2.09375 
L 76.5625 32.859375 
z
M 23.53125 69.390625 
L 23.53125 40.1875 
L 76.5625 40.1875 
L 76.5625 69.390625 
z
" id="MicrosoftYaHei-65e5"/>
      <path d="M 58.890625 79.15625 
L 93.453125 79.15625 
L 93.453125 -0.046875 
Q 93.453125 -11.578125 82.515625 -11.578125 
Q 77.046875 -11.578125 71.78125 -11.28125 
Q 71.390625 -8.0625 70.609375 -3.765625 
Q 77.734375 -4.4375 80.859375 -4.4375 
Q 86.234375 -4.4375 86.234375 0.921875 
L 86.234375 21.4375 
L 65.328125 21.4375 
Q 64.265625 0.046875 52.34375 -14.109375 
Q 49.703125 -11.375 46.484375 -8.640625 
Q 54.390625 0.4375 56.546875 10.203125 
Q 58.890625 19.578125 58.890625 42.828125 
z
M 1.953125 17.828125 
L 11.140625 17.828125 
L 11.140625 62.9375 
L 3.125 62.9375 
L 3.125 69.578125 
L 11.140625 69.578125 
L 11.140625 81.5 
L 18.359375 81.5 
L 18.359375 69.578125 
L 38.671875 69.578125 
L 38.671875 81.890625 
L 45.90625 81.890625 
L 45.90625 69.578125 
L 53.8125 69.578125 
L 53.8125 62.9375 
L 45.90625 62.9375 
L 45.90625 17.828125 
L 53.71875 17.828125 
L 53.71875 11.1875 
L 1.953125 11.1875 
z
M 65.765625 27.875 
L 86.234375 27.875 
L 86.234375 47.015625 
L 66.109375 47.015625 
Q 66.21875 34.421875 65.765625 27.875 
z
M 86.234375 72.515625 
L 66.109375 72.515625 
L 66.109375 53.46875 
L 86.234375 53.46875 
z
M 18.359375 17.828125 
L 38.671875 17.828125 
L 38.671875 28.765625 
L 18.359375 28.765625 
z
M 18.359375 35.015625 
L 38.671875 35.015625 
L 38.671875 45.84375 
L 18.359375 45.84375 
z
M 18.359375 52.09375 
L 38.671875 52.09375 
L 38.671875 62.9375 
L 18.359375 62.9375 
z
M 18.359375 9.328125 
L 24.3125 4.640625 
Q 14.453125 -6 6.34375 -13.234375 
Q 4.296875 -10.890625 1.171875 -8.0625 
Q 10.453125 -0.140625 18.359375 9.328125 
z
M 31.15625 4.734375 
L 35.84375 9.515625 
Q 42.671875 4.4375 48.734375 -0.734375 
L 43.5625 -6.296875 
Q 38.09375 -0.828125 31.15625 4.734375 
z
" id="MicrosoftYaHei-671f"/>
     </defs>
     <g transform="translate(432.8 349.873438)scale(0.1 -0.1)">
      <use xlink:href="#MicrosoftYaHei-65e5"/>
      <use x="100" xlink:href="#MicrosoftYaHei-671f"/>
     </g>
    </g>
   </g>
   <g id="matplotlib.axis_2">
    <g id="ytick_1">
     <g id="line2d_17">
      <path clip-path="url(#p199252bc7e)" d="M 108 287.025042 
L 777.6 287.025042 
" style="fill:none;stroke:#b0b0b0;stroke-linecap:square;stroke-width:0.8;"/>
     </g>
     <g id="line2d_18">
      <defs>
       <path d="M 0 0 
L -3.5 0 
" id="m852bfe4096" style="stroke:#000000;stroke-width:0.8;"/>
      </defs>
      <g>
       <use style="stroke:#000000;stroke-width:0.8;" x="108" xlink:href="#m852bfe4096" y="287.025042"/>
      </g>
     </g>
     <g id="text_10">
      <!-- 2.0 -->
      <defs>
       <path d="M 5.8125 5.03125 
Q 5.8125 7.671875 7.609375 9.46875 
Q 9.421875 11.28125 12.109375 11.28125 
Q 14.84375 11.28125 16.640625 9.453125 
Q 18.453125 7.625 18.453125 5.03125 
Q 18.453125 2.484375 16.640625 0.65625 
Q 14.84375 -1.171875 12.0625 -1.171875 
Q 9.375 -1.171875 7.59375 0.65625 
Q 5.8125 2.484375 5.8125 5.03125 
z
" id="MicrosoftYaHei-2e"/>
      </defs>
      <g transform="translate(86.864063 291.021917)scale(0.1 -0.1)">
       <use xlink:href="#MicrosoftYaHei-32"/>
       <use x="58.642578" xlink:href="#MicrosoftYaHei-2e"/>
       <use x="82.714844" xlink:href="#MicrosoftYaHei-30"/>
      </g>
     </g>
    </g>
    <g id="ytick_2">
     <g id="line2d_19">
      <path clip-path="url(#p199252bc7e)" d="M 108 227.803384 
L 777.6 227.803384 
" style="fill:none;stroke:#b0b0b0;stroke-linecap:square;stroke-width:0.8;"/>
     </g>
     <g id="line2d_20">
      <g>
       <use style="stroke:#000000;stroke-width:0.8;" x="108" xlink:href="#m852bfe4096" y="227.803384"/>
      </g>
     </g>
     <g id="text_11">
      <!-- 2.5 -->
      <defs>
       <path d="M 8.640625 11.625 
Q 16.265625 6.640625 24.515625 6.640625 
Q 32.328125 6.640625 37.109375 11 
Q 41.890625 15.375 41.890625 22.609375 
Q 41.890625 29.890625 37.03125 33.890625 
Q 32.171875 37.890625 22.953125 37.890625 
Q 18.5 37.890625 10.984375 37.203125 
L 10.984375 75.640625 
L 48.1875 75.640625 
L 48.1875 67.1875 
L 19.875 67.1875 
L 19.875 45.796875 
Q 24.125 46.046875 26.265625 46.046875 
Q 38.234375 46.046875 44.921875 39.984375 
Q 51.609375 33.9375 51.609375 23.296875 
Q 51.609375 12.3125 44.421875 5.515625 
Q 37.25 -1.265625 24.609375 -1.265625 
Q 14.015625 -1.265625 8.640625 1.859375 
z
" id="MicrosoftYaHei-35"/>
      </defs>
      <g transform="translate(86.864063 231.800259)scale(0.1 -0.1)">
       <use xlink:href="#MicrosoftYaHei-32"/>
       <use x="58.642578" xlink:href="#MicrosoftYaHei-2e"/>
       <use x="82.714844" xlink:href="#MicrosoftYaHei-35"/>
      </g>
     </g>
    </g>
    <g id="ytick_3">
     <g id="line2d_21">
      <path clip-path="url(#p199252bc7e)" d="M 108 168.581726 
L 777.6 168.581726 
" style="fill:none;stroke:#b0b0b0;stroke-linecap:square;stroke-width:0.8;"/>
     </g>
     <g id="line2d_22">
      <g>
       <use style="stroke:#000000;stroke-width:0.8;" x="108" xlink:href="#m852bfe4096" y="168.581726"/>
      </g>
     </g>
     <g id="text_12">
      <!-- 3.0 -->
      <g transform="translate(86.864063 172.578601)scale(0.1 -0.1)">
       <use xlink:href="#MicrosoftYaHei-33"/>
       <use x="58.642578" xlink:href="#MicrosoftYaHei-2e"/>
       <use x="82.714844" xlink:href="#MicrosoftYaHei-30"/>
      </g>
     </g>
    </g>
    <g id="ytick_4">
     <g id="line2d_23">
      <path clip-path="url(#p199252bc7e)" d="M 108 109.360068 
L 777.6 109.360068 
" style="fill:none;stroke:#b0b0b0;stroke-linecap:square;stroke-width:0.8;"/>
     </g>
     <g id="line2d_24">
      <g>
       <use style="stroke:#000000;stroke-width:0.8;" x="108" xlink:href="#m852bfe4096" y="109.360068"/>
      </g>
     </g>
     <g id="text_13">
      <!-- 3.5 -->
      <g transform="translate(86.864063 113.356943)scale(0.1 -0.1)">
       <use xlink:href="#MicrosoftYaHei-33"/>
       <use x="58.642578" xlink:href="#MicrosoftYaHei-2e"/>
       <use x="82.714844" xlink:href="#MicrosoftYaHei-35"/>
      </g>
     </g>
    </g>
    <g id="ytick_5">
     <g id="line2d_25">
      <path clip-path="url(#p199252bc7e)" d="M 108 50.138409 
L 777.6 50.138409 
" style="fill:none;stroke:#b0b0b0;stroke-linecap:square;stroke-width:0.8;"/>
     </g>
     <g id="line2d_26">
      <g>
       <use style="stroke:#000000;stroke-width:0.8;" x="108" xlink:href="#m852bfe4096" y="50.138409"/>
      </g>
     </g>
     <g id="text_14">
      <!-- 4.0 -->
      <g transform="translate(86.864063 54.135284)scale(0.1 -0.1)">
       <use xlink:href="#MicrosoftYaHei-34"/>
       <use x="58.642578" xlink:href="#MicrosoftYaHei-2e"/>
       <use x="82.714844" xlink:href="#MicrosoftYaHei-30"/>
      </g>
     </g>
    </g>
   </g>
   <g id="line2d_27">
    <path clip-path="url(#p199252bc7e)" d="M 108 125.740778 
L 109.83956 124.532657 
L 111.679121 127.38714 
L 113.518681 126.960745 
L 115.358242 131.118105 
L 117.197802 131.106261 
L 119.037363 129.898139 
L 120.876923 129.898139 
L 122.716484 124.970897 
L 124.556044 136.175635 
L 126.395604 133.854146 
L 128.235165 138.591878 
L 130.074725 138.437902 
L 131.914286 138.106261 
L 133.753846 141.03181 
L 135.593407 137.442978 
L 137.432967 137.194247 
L 139.272527 139.894755 
L 141.112088 144.431134 
L 142.951648 143.069036 
L 144.791209 145.935364 
L 146.630769 145.911675 
L 148.47033 146.101184 
L 150.30989 149.133333 
L 152.149451 144.608799 
L 153.989011 138.923519 
L 155.828571 146.36176 
L 157.668132 146.36176 
L 159.507692 145.035195 
L 161.347253 144.904907 
L 163.186813 144.395601 
L 165.026374 152.603723 
L 166.865934 151.194247 
L 168.705495 148.505584 
L 170.545055 150.542809 
L 172.384615 150.542809 
L 174.224176 153.835533 
L 176.063736 156.01489 
L 177.903297 158.383756 
L 179.742857 159.473435 
L 181.582418 161.321151 
L 183.421978 170.393909 
L 185.261538 170.393909 
L 187.101099 166.047039 
L 188.940659 164.60203 
L 190.78022 168.546193 
L 192.61978 173.165482 
L 194.459341 174.397293 
L 196.298901 183.03181 
L 198.138462 185.400677 
L 199.978022 185.400677 
L 201.817582 199.981049 
L 203.657143 199.981049 
L 205.496703 198.99797 
L 207.336264 201.781387 
L 209.175824 205.986125 
L 211.015385 204.991201 
L 212.854945 205.820305 
L 214.694505 227.60203 
L 216.534066 221.679865 
L 218.373626 217.392217 
L 220.213187 205.050423 
L 222.052747 198.251777 
L 223.892308 199.448054 
L 225.731868 199.448054 
L 227.571429 205.358376 
L 229.410989 207.774619 
L 231.250549 203.854146 
L 233.09011 205.512352 
L 234.92967 209.823689 
L 236.769231 210.273773 
L 238.608791 209.267005 
L 240.448352 203.380372 
L 242.287912 199.79154 
L 244.127473 203.960745 
L 245.967033 201.603723 
L 247.806593 195.409137 
L 249.646154 198.228088 
L 251.485714 194.437902 
L 253.325275 198.867682 
L 255.164835 191.216244 
L 257.004396 192.448054 
L 258.843956 194.070728 
L 260.683516 191.488663 
L 262.523077 187.37868 
L 264.362637 178.625719 
L 266.202198 178.128257 
L 268.041758 179.952284 
L 269.881319 181.610491 
L 271.720879 168.558037 
L 273.56044 170.382064 
L 277.23956 169.683249 
L 279.079121 169.422673 
L 280.918681 174.503892 
L 282.758242 176.872758 
L 284.597802 175.23824 
L 286.437363 170.559729 
L 288.276923 173.070728 
L 290.116484 174.44467 
L 291.956044 171.353299 
L 293.795604 158.028426 
L 295.635165 156.45313 
L 297.474725 163.45313 
L 299.314286 161.297462 
L 301.153846 156.784772 
L 302.993407 156.784772 
L 304.832967 153.184095 
L 306.672527 167.136717 
L 308.512088 189.747547 
L 310.351648 202.930288 
L 312.191209 208.603723 
L 314.030769 209.610491 
L 315.87033 234.317766 
L 317.70989 234.045347 
L 319.549451 235.419289 
L 321.389011 235.798308 
L 323.228571 232.789848 
L 325.068132 228.371912 
L 326.907692 225.30423 
L 328.747253 228.537733 
L 330.586813 223.326227 
L 332.426374 224.226396 
L 334.265934 231.309306 
L 336.105495 231.060575 
L 337.945055 229.21286 
L 339.784615 237.906599 
L 341.624176 252.344839 
L 343.463736 252.001354 
L 345.303297 252.818613 
L 347.142857 251.113029 
L 348.982418 252.972589 
L 350.821978 258.243316 
L 352.661538 270.715398 
L 354.501099 284.549577 
L 356.340659 285.615567 
L 358.18022 292.21286 
L 360.01978 292.331303 
L 361.859341 291.123181 
L 363.698901 297.637563 
L 365.538462 291.22978 
L 367.378022 286.44467 
L 371.057143 273.297462 
L 372.896703 267.57665 
L 374.736264 262.317766 
L 376.575824 262.128257 
L 378.415385 266.190863 
L 380.254945 266.558037 
L 382.094505 270.194247 
L 383.934066 269.530964 
L 387.613187 270.123181 
L 389.452747 272.752623 
L 393.131868 270.431134 
L 394.971429 270.360068 
L 396.810989 271.414213 
L 398.650549 271.272081 
L 400.49011 271.935364 
L 402.32967 271.37868 
L 404.169231 269.187479 
L 406.008791 269.720474 
L 407.848352 271.224704 
L 409.687912 274.683249 
L 411.527473 272.551269 
L 413.367033 274.458206 
L 415.206593 280.794924 
L 417.046154 278.331303 
L 418.885714 276.448054 
L 420.725275 276.175635 
L 422.564835 272.302538 
L 424.404396 261.026734 
L 426.243956 260.671404 
L 428.083516 260.552961 
L 429.923077 279.349915 
L 431.762637 301.9489 
L 433.602198 307.8 
L 435.441758 302.872758 
L 437.281319 295.683249 
L 439.120879 295.564805 
L 440.96044 292.639255 
L 442.8 286.373604 
L 444.63956 270.289002 
L 446.479121 263.063959 
L 448.318681 255.341455 
L 450.158242 255.211168 
L 451.997802 250.390525 
L 453.837363 253.920135 
L 455.676923 255.08088 
L 457.516484 253.327919 
L 459.356044 257.757699 
L 461.195604 248.981049 
L 463.035165 250.141794 
L 464.874725 251.776311 
L 466.714286 253.837225 
L 468.553846 253.410829 
L 470.393407 253.967513 
L 472.232967 254.322843 
L 474.072527 257.283926 
L 475.912088 263.040271 
L 477.751648 262.744162 
L 479.591209 261.228088 
L 481.430769 256.798308 
L 483.27033 261.417597 
L 485.10989 254.630795 
L 486.949451 249.833841 
L 490.628571 244.71709 
L 492.468132 253.102876 
L 494.307692 248.827073 
L 496.147253 248.282234 
L 497.986813 242.075804 
L 499.826374 237.823689 
L 501.665934 243.37868 
L 503.505495 244.752623 
L 505.345055 244.823689 
L 507.184615 244.08934 
L 509.024176 240.417597 
L 510.863736 239.529272 
L 512.703297 233.003046 
L 514.542857 231.818613 
L 516.382418 225.624027 
L 518.221978 225.422673 
L 520.061538 221.58511 
L 521.901099 221.58511 
L 523.740659 219.393909 
L 525.58022 212.429442 
L 527.41978 200.833841 
L 529.259341 194.745854 
L 531.098901 192.898139 
L 532.938462 192.850761 
L 534.778022 194.73401 
L 536.617582 195.965821 
L 538.457143 212.843993 
L 540.296703 214.14687 
L 543.975824 214.14687 
L 545.815385 224.996277 
L 547.654945 231.250085 
L 549.494505 248.51912 
L 551.334066 246.647716 
L 553.173626 250.118105 
L 555.013187 246.292386 
L 556.852747 245.332995 
L 558.692308 255.234856 
L 560.531868 251.338071 
L 562.371429 251.586802 
L 564.210989 249.14687 
L 566.050549 250.56819 
L 567.89011 252.392217 
L 569.72967 246.126565 
L 571.569231 248.459898 
L 573.408791 250.343147 
L 575.248352 250.390525 
L 577.087912 253.256853 
L 578.927473 254.01489 
L 580.767033 261.80846 
L 582.606593 259.119797 
L 584.446154 262.732318 
L 586.285714 262.60203 
L 589.964835 262.60203 
L 591.804396 262.850761 
L 593.643956 265.077496 
L 595.483516 266.273773 
L 597.323077 267.612183 
L 599.162637 286.338071 
L 601.002198 279.610491 
L 604.681319 279.788156 
L 606.520879 280.996277 
L 608.36044 282.690017 
L 610.2 280.806768 
L 612.03956 264.722166 
L 613.879121 269.317766 
L 615.718681 271.082572 
L 617.558242 285.81692 
L 619.397802 291.407445 
L 621.237363 283.79154 
L 623.076923 286.871066 
L 624.916484 291.454822 
L 626.756044 292.485279 
L 628.595604 295.292386 
L 630.435165 286.314382 
L 632.274725 286.906599 
L 634.114286 268.595262 
L 635.953846 268.915059 
L 639.632967 267.398985 
L 641.472527 268.713706 
L 643.312088 268.832149 
L 645.151648 269.898139 
L 646.991209 274.446362 
L 648.830769 276.187479 
L 650.67033 271.710321 
L 652.50989 269.104569 
L 654.349451 270.123181 
L 656.189011 280.842301 
L 658.028571 277.241624 
L 659.868132 277.419289 
L 661.707692 278.556345 
L 663.547253 268.393909 
L 665.386813 268.192555 
L 667.226374 266.569882 
L 669.065934 266.261929 
L 670.905495 274.422673 
L 672.745055 263.111337 
L 674.584615 264.935364 
L 676.424176 263.265313 
L 678.263736 260.173942 
L 680.103297 264.876142 
L 681.942857 272.255161 
L 683.782418 264.639255 
L 685.621978 266.830457 
L 687.461538 266.119797 
L 689.301099 262.092724 
L 691.140659 262.092724 
L 692.98022 257.710321 
L 694.81978 256.881218 
L 696.659341 256.289002 
L 698.498901 254.891371 
L 700.338462 254.618951 
L 702.178022 252.048731 
L 704.017582 253.067343 
L 705.857143 245.451438 
L 707.696703 242.336379 
L 709.536264 244.859222 
L 711.375824 248.092724 
L 713.215385 253.529272 
L 715.054945 252.818613 
L 716.894505 255.945516 
L 718.734066 254.109645 
L 720.573626 250.745854 
L 722.413187 250.307614 
L 724.252747 252.273773 
L 726.092308 250.461591 
L 727.931868 240.275465 
L 729.771429 243.994585 
L 733.450549 239.695093 
L 735.29011 237.752623 
L 737.12967 238.285618 
L 738.969231 237.728934 
L 740.808791 239.019966 
L 744.487912 237.728934 
L 748.167033 238.392217 
L 750.006593 236.070728 
L 751.846154 233.145178 
L 753.685714 235.952284 
L 755.525275 245.451438 
L 757.364835 247.701861 
L 759.204396 256.632487 
L 761.043956 257.840609 
L 762.883516 256.987817 
L 764.723077 259.285618 
L 766.562637 258.894755 
L 768.402198 264.876142 
L 770.241758 263.975973 
L 772.081319 267.351607 
L 773.920879 280.996277 
L 775.76044 279.077496 
L 777.6 282.346531 
L 777.6 282.346531 
" style="fill:none;stroke:#1f77b4;stroke-linecap:square;stroke-width:1.5;"/>
   </g>
   <g id="line2d_28">
    <path clip-path="url(#p199252bc7e)" d="M 108 107.01489 
L 109.83956 104.646024 
L 111.679121 107.01489 
L 113.518681 108.199323 
L 115.358242 106.93198 
L 117.197802 108.16379 
L 119.037363 108.16379 
L 122.716484 117.6511 
L 126.395604 115.116413 
L 128.235165 120.162098 
L 130.074725 121.038579 
L 131.914286 121.37022 
L 133.753846 121.938748 
L 135.593407 121.571574 
L 137.432967 122.767851 
L 139.272527 122.625719 
L 141.112088 124.283926 
L 142.951648 122.329611 
L 144.791209 123.893063 
L 146.630769 123.893063 
L 148.47033 132.338071 
L 150.30989 136.448054 
L 152.149451 141.173942 
L 153.989011 140.392217 
L 155.828571 136.720474 
L 157.668132 135.784772 
L 159.507692 135.761083 
L 161.347253 137.987817 
L 163.186813 136.87445 
L 165.026374 137.798308 
L 166.865934 135.666328 
L 168.705495 132.349915 
L 170.545055 131.959052 
L 172.384615 130.703553 
L 174.224176 131.224704 
L 176.063736 131.532657 
L 177.903297 131.343147 
L 179.742857 134.872758 
L 181.582418 136.625719 
L 183.421978 140.546193 
L 185.261538 134.233164 
L 187.101099 130.431134 
L 192.61978 130.431134 
L 194.459341 135.050423 
L 196.298901 133.15533 
L 198.138462 137.893063 
L 199.978022 135.701861 
L 201.817582 141.564805 
L 203.657143 140.344839 
L 205.496703 140.309306 
L 207.336264 143.803384 
L 209.175824 144.739086 
L 211.015385 148.363452 
L 212.854945 149.500508 
L 214.694505 178.945516 
L 216.534066 173.189171 
L 220.213187 162.849069 
L 222.052747 166.781387 
L 223.892308 165.656176 
L 225.731868 165.277157 
L 227.571429 166.745854 
L 229.410989 168.996277 
L 231.250549 166.118105 
L 233.09011 171.305922 
L 234.92967 176.019966 
L 236.769231 176.647716 
L 238.608791 177.666328 
L 240.448352 176.93198 
L 242.287912 177.64264 
L 244.127473 176.813536 
L 245.967033 174.871066 
L 247.806593 172.5022 
L 251.485714 160.278849 
L 253.325275 160.160406 
L 255.164835 152.37868 
L 257.004396 154.025042 
L 262.523077 153.788156 
L 264.362637 151.821997 
L 266.202198 152.035195 
L 268.041758 150.483587 
L 269.881319 150.95736 
L 273.56044 147.842301 
L 275.4 148.410829 
L 277.23956 144.85753 
L 279.079121 142.986125 
L 280.918681 143.507276 
L 282.758242 142.761083 
L 284.597802 139.989509 
L 286.437363 140.084264 
L 288.276923 142.417597 
L 290.116484 142.72555 
L 291.956044 142.903215 
L 293.795604 134.849069 
L 295.635165 134.754315 
L 297.474725 135.713706 
L 299.314286 135.512352 
L 301.153846 135.749239 
L 302.993407 135.713706 
L 304.832967 142.026734 
L 306.672527 149.749239 
L 308.512088 152.710321 
L 310.351648 162.150254 
L 312.191209 161.451438 
L 314.030769 164.981049 
L 315.87033 166.118105 
L 319.549451 161.439594 
L 321.389011 160.835533 
L 325.068132 160.835533 
L 326.907692 165.514044 
L 328.747253 165.514044 
L 330.586813 162.564805 
L 337.945055 162.564805 
L 339.784615 167.278849 
L 341.624176 169.647716 
L 343.463736 180.129949 
L 345.303297 182.605415 
L 347.142857 187.414213 
L 350.821978 195.563113 
L 352.661538 201.189171 
L 356.340659 215.603723 
L 358.18022 213.234856 
L 360.01978 201.426058 
L 361.859341 201.129949 
L 363.698901 190.730626 
L 365.538462 190.825381 
L 367.378022 187.532657 
L 369.217582 187.437902 
L 371.057143 182.404061 
L 372.896703 180.37868 
L 374.736264 175.309306 
L 376.575824 180.02335 
L 378.415385 182.901523 
L 380.254945 187.81692 
L 382.094505 185.815228 
L 383.934066 184.334687 
L 385.773626 185.246701 
L 387.613187 188.195939 
L 389.452747 186.928596 
L 391.292308 187.686633 
L 393.131868 186.632487 
L 394.971429 186.703553 
L 396.810989 187.366836 
L 398.650549 187.082572 
L 400.49011 187.449746 
L 402.32967 186.85753 
L 404.169231 186.466667 
L 406.008791 185.258545 
L 407.848352 184.891371 
L 409.687912 184.737394 
L 411.527473 182.877834 
L 413.367033 167.373604 
L 415.206593 164.862606 
L 417.046154 165.431134 
L 418.885714 165.371912 
L 420.725275 165.608799 
L 422.564835 166.485279 
L 426.243956 169.766159 
L 428.083516 172.644332 
L 429.923077 173.56819 
L 431.762637 175.830457 
L 433.602198 175.747547 
L 435.441758 181.586802 
L 437.281319 181.563113 
L 439.120879 182.794924 
L 440.96044 181.586802 
L 442.8 180.106261 
L 448.318681 180.106261 
L 450.158242 181.859222 
L 451.997802 185.613875 
L 453.837363 185.613875 
L 455.676923 187.058883 
L 457.516484 189.86599 
L 459.356044 191.630795 
L 461.195604 191.630795 
L 463.035165 193.952284 
L 464.874725 193.893063 
L 466.714286 195.077496 
L 470.393407 200.928596 
L 472.232967 206.827073 
L 474.072527 209.018274 
L 475.912088 214.5022 
L 477.751648 216.989509 
L 479.591209 220.815228 
L 481.430769 226.713706 
L 483.27033 226.855838 
L 485.10989 226.713706 
L 486.949451 225.541117 
L 488.789011 228.182403 
L 490.628571 229.082572 
L 492.468132 226.441286 
L 494.307692 227.720474 
L 496.147253 228.395601 
L 497.986813 230.17225 
L 499.826374 231.356684 
L 501.665934 229.864298 
L 503.505495 229.899831 
L 505.345055 232.493739 
L 507.184615 232.493739 
L 509.024176 232.718782 
L 510.863736 232.541117 
L 512.703297 229.710321 
L 514.542857 230.859222 
L 516.382418 232.458206 
L 518.221978 232.339763 
L 520.061538 230.267005 
L 521.901099 231.226396 
L 523.740659 229.449746 
L 525.58022 203.984433 
L 529.259341 206.412521 
L 531.098901 203.581726 
L 532.938462 202.385448 
L 534.778022 204.102876 
L 536.617582 208.722166 
L 538.457143 215.603723 
L 540.296703 215.959052 
L 543.975824 215.959052 
L 545.815385 227.637563 
L 547.654945 227.60203 
L 553.173626 245.23824 
L 555.013187 242.289002 
L 556.852747 244.065651 
L 558.692308 238.877834 
L 560.531868 236.56819 
L 562.371429 235.561421 
L 564.210989 244.385448 
L 566.050549 245.569882 
L 567.89011 245.59357 
L 569.72967 237.17225 
L 571.569231 239.65956 
L 573.408791 238.475127 
L 575.248352 239.600338 
L 577.087912 241.969205 
L 578.927473 240.109645 
L 582.606593 241.981049 
L 584.446154 241.151946 
L 586.285714 245.451438 
L 589.964835 245.498816 
L 591.804396 246.979357 
L 593.643956 250.864298 
L 595.483516 248.51912 
L 597.323077 249.952284 
L 599.162637 250.37868 
L 601.002198 249.052115 
L 602.841758 249.821997 
L 604.681319 250.864298 
L 606.520879 247.275465 
L 608.36044 244.480203 
L 610.2 246.280541 
L 612.03956 245.025042 
L 613.879121 240.832149 
L 615.718681 239.019966 
L 617.558242 235.644332 
L 619.397802 234.412521 
L 621.237363 234.542809 
L 624.916484 233.346531 
L 628.595604 234.069036 
L 630.435165 232.38714 
L 632.274725 231.297462 
L 634.114286 231.131641 
L 635.953846 232.162098 
L 637.793407 230.492047 
L 639.632967 230.326227 
L 641.472527 231.380372 
L 643.312088 233.749239 
L 645.151648 231.889679 
L 646.991209 230.231472 
L 648.830769 231.285618 
L 650.67033 231.723858 
L 652.50989 233.986125 
L 654.349451 235.182403 
L 656.189011 234.827073 
L 661.707692 230.657868 
L 663.547253 230.811844 
L 665.386813 231.78308 
L 667.226374 230.728934 
L 669.065934 230.243316 
L 670.905495 225.434518 
L 672.745055 223.823689 
L 674.584615 217.664636 
L 676.424176 202.267005 
L 678.263736 207.525888 
L 680.103297 206.51912 
L 683.782418 203.877834 
L 685.621978 204.493739 
L 687.461538 205.275465 
L 689.301099 207.170558 
L 692.98022 201.473435 
L 694.81978 205.275465 
L 696.659341 205.275465 
L 698.498901 206.554653 
L 700.338462 206.909983 
L 702.178022 206.471743 
L 704.017582 208.639255 
L 705.857143 205.891371 
L 707.696703 205.962437 
L 709.536264 206.684941 
L 711.375824 205.915059 
L 713.215385 206.128257 
L 715.054945 206.779695 
L 716.894505 208.935364 
L 718.734066 208.580034 
L 720.573626 204.114721 
L 722.413187 204.706937 
L 724.252747 205.157022 
L 726.092308 197.778003 
L 727.931868 199.945516 
L 729.771429 202.338071 
L 733.450549 206.60203 
L 735.29011 204.896447 
L 737.12967 207.549577 
L 738.969231 208.473435 
L 740.808791 209.539425 
L 744.487912 206.815228 
L 746.327473 205.903215 
L 748.167033 202.278849 
L 750.006593 200.111337 
L 751.846154 200.987817 
L 753.685714 200.916751 
L 755.525275 201.37868 
L 757.364835 205.429442 
L 759.204396 208.757699 
L 761.043956 208.461591 
L 762.883516 208.935364 
L 764.723077 208.805076 
L 766.562637 209.267005 
L 768.402198 210.877834 
L 770.241758 209.397293 
L 772.081319 212.843993 
L 773.920879 216.835533 
L 775.76044 217.794924 
L 777.6 216.468359 
L 777.6 216.468359 
" style="fill:none;stroke:#ff7f0e;stroke-linecap:square;stroke-width:1.5;"/>
   </g>
   <g id="line2d_29">
    <path clip-path="url(#p199252bc7e)" d="M 108 55.8 
L 109.83956 57.079188 
L 111.679121 55.977665 
L 115.358242 57.65956 
L 117.197802 57.624027 
L 119.037363 58.524196 
L 120.876923 60.324535 
L 122.716484 61.201015 
L 124.556044 60.893063 
L 126.395604 60.004738 
L 128.235165 64.055499 
L 130.074725 65.536041 
L 131.914286 64.339763 
L 133.753846 64.351607 
L 137.432967 64.943824 
L 139.272527 65.536041 
L 141.112088 65.512352 
L 142.951648 64.920135 
L 146.630769 66.104569 
L 148.47033 68.473435 
L 150.30989 71.446362 
L 153.989011 71.446362 
L 155.828571 69.657868 
L 157.668132 68.461591 
L 159.507692 70.830457 
L 161.347253 71.422673 
L 163.186813 71.422673 
L 165.026374 70.534349 
L 166.865934 70.9489 
L 168.705495 69.539425 
L 170.545055 68.935364 
L 172.384615 70.78308 
L 174.224176 72.003046 
L 176.063736 72.595262 
L 177.903297 74.94044 
L 179.742857 78.209475 
L 181.582418 79.986125 
L 183.421978 85.612183 
L 185.261538 82.035195 
L 187.101099 80.554653 
L 188.940659 80.862606 
L 190.78022 80.270389 
L 194.459341 81.442978 
L 196.298901 79.666328 
L 198.138462 82.899831 
L 199.978022 85.57665 
L 201.817582 86.157022 
L 203.657143 83.788156 
L 205.496703 84.380372 
L 207.336264 84.380372 
L 209.175824 84.937056 
L 211.015385 90.871066 
L 212.854945 91.451438 
L 214.694505 109.206091 
L 216.534066 108.60203 
L 218.373626 106.813536 
L 220.213187 97.290694 
L 222.052747 99.233164 
L 223.892308 96.118105 
L 225.731868 93.441286 
L 227.571429 93.204399 
L 229.410989 94.945516 
L 231.250549 89.639255 
L 233.09011 91.984433 
L 234.92967 93.737394 
L 236.769231 91.380372 
L 238.608791 86.595262 
L 240.448352 84.794924 
L 242.287912 86.571574 
L 244.127473 87.069036 
L 245.967033 86.417597 
L 247.806593 83.88291 
L 249.646154 84.771235 
L 251.485714 84.250085 
L 253.325275 84.498816 
L 255.164835 86.393909 
L 257.004396 89.224704 
L 258.843956 92.778003 
L 260.683516 91.581726 
L 262.523077 96.02335 
L 264.362637 96.319459 
L 266.202198 97.503892 
L 268.041758 97.8 
L 269.881319 95.987817 
L 271.720879 95.123181 
L 273.56044 91.214552 
L 275.4 90.385448 
L 277.23956 90.385448 
L 279.079121 89.201015 
L 280.918681 92.150254 
L 282.758242 91.569882 
L 284.597802 87.412521 
L 286.437363 90.08934 
L 288.276923 94.827073 
L 290.116484 97.184095 
L 291.956044 102.217936 
L 293.795604 96.876142 
L 295.635165 100.441286 
L 297.474725 102.206091 
L 299.314286 99.849069 
L 301.153846 99.837225 
L 302.993407 103.094416 
L 304.832967 105.759391 
L 306.672527 112.250085 
L 308.512088 113.292386 
L 310.351648 109.893063 
L 312.191209 108.092724 
L 314.030769 109.300846 
L 315.87033 106.292386 
L 317.70989 104.243316 
L 319.549451 104.255161 
L 321.389011 108.092724 
L 323.228571 107.488663 
L 325.068132 111.041963 
L 326.907692 111.634179 
L 328.747253 111.634179 
L 330.586813 112.818613 
L 332.426374 116.360068 
L 334.265934 107.761083 
L 336.105495 107.157022 
L 337.945055 102.075804 
L 339.784615 102.087648 
L 341.624176 105.084264 
L 343.463736 106.849069 
L 345.303297 106.837225 
L 347.142857 111.586802 
L 348.982418 113.647716 
L 350.821978 112.759391 
L 352.661538 114.488663 
L 354.501099 114.476819 
L 356.340659 110.828765 
L 358.18022 106.730626 
L 360.01978 103.722166 
L 361.859341 103.141794 
L 363.698901 99.57665 
L 365.538462 103.21286 
L 369.217582 95.845685 
L 371.057143 91.309306 
L 372.896703 93.654484 
L 374.736264 93.962437 
L 376.575824 96.627411 
L 378.415385 96.319459 
L 380.254945 94.223012 
L 382.094505 93.926904 
L 383.934066 96.319459 
L 385.773626 96.319459 
L 387.613187 99.872758 
L 389.452747 100.464975 
L 391.292308 98.096108 
L 393.131868 96.319459 
L 396.810989 96.319459 
L 398.650549 93.950592 
L 400.49011 90.989509 
L 402.32967 88.620643 
L 404.169231 90.989509 
L 406.008791 91.285618 
L 407.848352 93.358376 
L 409.687912 93.64264 
L 411.527473 92.162098 
L 415.206593 85.635871 
L 417.046154 88.608799 
L 418.885714 88.58511 
L 422.564835 94.51912 
L 424.404396 95.703553 
L 426.243956 96.283926 
L 428.083516 96.29577 
L 429.923077 95.679865 
L 433.602198 95.66802 
L 435.441758 99.813536 
L 439.120879 99.209475 
L 440.96044 100.393909 
L 442.8 99.801692 
L 444.63956 103.343147 
L 446.479121 101.566497 
L 448.318681 98.581726 
L 450.158242 100.962437 
L 451.997802 104.515736 
L 455.676923 104.503892 
L 457.516484 108.045347 
L 459.356044 107.45313 
L 461.195604 108.341455 
L 463.035165 110.118105 
L 464.874725 103.899831 
L 466.714286 105.664636 
L 468.553846 108.021658 
L 470.393407 111.574958 
L 472.232967 111.574958 
L 474.072527 112.167174 
L 475.912088 110.959052 
L 477.751648 112.439594 
L 479.591209 118.622335 
L 481.430769 122.211168 
L 483.27033 126.9489 
L 485.10989 123.904907 
L 486.949451 123.916751 
L 488.789011 124.56819 
L 490.628571 122.187479 
L 492.468132 122.187479 
L 494.307692 119.415905 
L 496.147253 121.204399 
L 497.986813 124.757699 
L 499.826374 125.942132 
L 503.505495 127.126565 
L 505.345055 132.456514 
L 507.184615 136.009814 
L 509.024176 135.99797 
L 510.863736 134.789848 
L 512.703297 136.862606 
L 514.542857 137.170558 
L 516.382418 136.566497 
L 518.221978 129.365144 
L 520.061538 127.505584 
L 521.901099 124.603723 
L 523.740659 124.591878 
L 525.58022 128.168866 
L 527.41978 133.013198 
L 529.259341 131.058883 
L 531.098901 127.327919 
L 532.938462 131.710321 
L 534.778022 132.918443 
L 536.617582 136.495431 
L 538.457143 141.162098 
L 540.296703 141.754315 
L 543.975824 141.754315 
L 545.815385 148.043655 
L 547.654945 151.881218 
L 549.494505 150.661252 
L 551.334066 150.732318 
L 553.173626 154.23824 
L 556.852747 156.666328 
L 558.692308 156.050423 
L 560.531868 153.219628 
L 562.371429 152.201015 
L 564.210989 159.757699 
L 566.050549 159.580034 
L 567.89011 157.803384 
L 569.72967 156.299154 
L 571.569231 155.896447 
L 573.408791 154.486971 
L 575.248352 152.73401 
L 577.087912 152.02335 
L 578.927473 152.035195 
L 580.767033 153.823689 
L 582.606593 154.9489 
L 584.446154 156.299154 
L 586.285714 156.358376 
L 588.125275 156.99797 
L 589.964835 157.128257 
L 591.804396 160.646024 
L 593.643956 159.722166 
L 595.483516 160.065651 
L 597.323077 159.982741 
L 599.162637 159.177327 
L 601.002198 155.624027 
L 602.841758 153.432826 
L 604.681319 154.415905 
L 606.520879 152.461591 
L 608.36044 151.395601 
L 610.2 147.415905 
L 612.03956 146.338071 
L 613.879121 148.57665 
L 615.718681 148.079188 
L 617.558242 146.432826 
L 619.397802 144.620643 
L 621.237363 143.128257 
L 623.076923 144.644332 
L 624.916484 149.962437 
L 626.756044 151.727242 
L 628.595604 152.307614 
L 630.435165 151.715398 
L 632.274725 152.29577 
L 634.114286 151.111337 
L 635.953846 152.283926 
L 639.632967 152.272081 
L 641.472527 151.371912 
L 643.312088 153.290694 
L 645.151648 155.789848 
L 646.991209 158.739086 
L 648.830769 161.084264 
L 650.67033 158.135025 
L 652.50989 161.07242 
L 654.349451 160.492047 
L 656.189011 152.805076 
L 658.028571 148.671404 
L 659.868132 140.972589 
L 661.707692 136.850761 
L 663.547253 139.184095 
L 665.386813 134.446362 
L 667.226374 133.854146 
L 669.065934 135.607107 
L 670.905495 129.092724 
L 672.745055 124.331303 
L 674.584615 121.950592 
L 676.424176 121.938748 
L 678.263736 126.07242 
L 680.103297 124.272081 
L 681.942857 120.126565 
L 683.782418 121.28731 
L 685.621978 117.141794 
L 689.301099 120.695093 
L 691.140659 120.695093 
L 692.98022 118.030118 
L 694.81978 122.756007 
L 696.659341 122.992893 
L 698.498901 126.534349 
L 700.338462 126.522504 
L 702.178022 128.003046 
L 704.017582 131.674788 
L 705.857143 132.847377 
L 707.696703 136.495431 
L 709.536264 134.718782 
L 713.215385 137.052115 
L 715.054945 137.016582 
L 716.894505 136.400677 
L 720.573626 129.921827 
L 722.413187 131.864298 
L 724.252747 131.56819 
L 726.092308 127.126565 
L 727.931868 131.864298 
L 729.771429 134.529272 
L 731.610989 136.009814 
L 733.450549 135.99797 
L 735.29011 140.143486 
L 737.12967 143.696785 
L 738.969231 143.708629 
L 740.808791 143.282234 
L 742.648352 141.920135 
L 744.487912 137.182403 
L 746.327473 137.774619 
L 750.006593 141.316074 
L 751.846154 141.908291 
L 753.685714 141.316074 
L 755.525275 139.835533 
L 757.364835 140.723858 
L 759.204396 141.30423 
L 761.043956 139.52758 
L 762.883516 140.712014 
L 766.562637 138.343147 
L 768.402198 141.884602 
L 770.241758 141.884602 
L 772.081319 148.398985 
L 773.920879 150.175635 
L 775.76044 151.063959 
L 777.6 148.38714 
L 777.6 148.38714 
" style="fill:none;stroke:#2ca02c;stroke-linecap:square;stroke-width:1.5;"/>
   </g>
   <g id="patch_3">
    <path d="M 108 320.4 
L 108 43.2 
" style="fill:none;stroke:#000000;stroke-linecap:square;stroke-linejoin:miter;stroke-width:0.8;"/>
   </g>
   <g id="patch_4">
    <path d="M 777.6 320.4 
L 777.6 43.2 
" style="fill:none;stroke:#000000;stroke-linecap:square;stroke-linejoin:miter;stroke-width:0.8;"/>
   </g>
   <g id="patch_5">
    <path d="M 108 320.4 
L 777.6 320.4 
" style="fill:none;stroke:#000000;stroke-linecap:square;stroke-linejoin:miter;stroke-width:0.8;"/>
   </g>
   <g id="patch_6">
    <path d="M 108 43.2 
L 777.6 43.2 
" style="fill:none;stroke:#000000;stroke-linecap:square;stroke-linejoin:miter;stroke-width:0.8;"/>
   </g>
   <g id="text_15">
    <!-- 中债国债收益率曲线 -->
    <defs>
     <path d="M 8.203125 62.0625 
L 45.796875 62.0625 
L 45.796875 83.34375 
L 54.203125 83.34375 
L 54.203125 62.0625 
L 92.1875 62.0625 
L 92.1875 17.53125 
L 84.1875 17.53125 
L 84.1875 22.796875 
L 54.203125 22.796875 
L 54.203125 -13.53125 
L 45.796875 -13.53125 
L 45.796875 22.796875 
L 16.21875 22.796875 
L 16.21875 17.53125 
L 8.203125 17.53125 
z
M 84.1875 54.828125 
L 54.203125 54.828125 
L 54.203125 30.03125 
L 84.1875 30.03125 
z
M 16.21875 30.03125 
L 45.796875 30.03125 
L 45.796875 54.828125 
L 16.21875 54.828125 
z
" id="MicrosoftYaHei-4e2d"/>
     <path d="M 26.859375 47.40625 
L 58.984375 47.40625 
L 58.984375 54.34375 
L 34.1875 54.34375 
L 34.1875 60.5 
L 58.984375 60.5 
L 58.984375 67.328125 
L 31.0625 67.328125 
L 31.0625 73.484375 
L 58.984375 73.484375 
L 58.984375 82.171875 
L 66.3125 82.171875 
L 66.3125 73.484375 
L 95.125 73.484375 
L 95.125 67.328125 
L 66.3125 67.328125 
L 66.3125 60.5 
L 90.328125 60.5 
L 90.328125 54.34375 
L 66.3125 54.34375 
L 66.3125 47.40625 
L 97.953125 47.40625 
L 97.953125 41.265625 
L 26.859375 41.265625 
z
M 1.265625 35.203125 
Q 12.890625 54.25 19.34375 82.375 
L 26.46875 81.109375 
Q 23.640625 70.65625 20.40625 61.375 
L 20.40625 -13.71875 
L 13.28125 -13.71875 
L 13.28125 44.09375 
Q 8.890625 35.015625 3.90625 27.390625 
Q 2.734375 31.390625 1.265625 35.203125 
z
M 34.859375 34.625 
L 89.15625 34.625 
L 89.15625 4.4375 
L 82.03125 4.4375 
L 82.03125 28.265625 
L 42 28.265625 
L 42 3.953125 
L 34.859375 3.953125 
z
M 58.5 25.140625 
L 65.625 25.140625 
Q 65.625 17.046875 64.0625 10.984375 
Q 80.5625 2.78125 97.265625 -7.765625 
L 92.875 -14.015625 
Q 77.546875 -3.953125 61.921875 4.9375 
Q 60.546875 2.09375 58.6875 0.046875 
Q 50.875 -8.9375 31.453125 -13.921875 
Q 28.515625 -8.453125 27.25 -6.890625 
Q 45.90625 -2.875 52.25 3.859375 
Q 58.5 9.8125 58.5 25.140625 
z
" id="MicrosoftYaHei-503a"/>
     <path d="M 7.328125 78.078125 
L 92.78125 78.078125 
L 92.78125 -13.03125 
L 85.25 -13.03125 
L 85.25 -8.15625 
L 14.84375 -8.15625 
L 14.84375 -13.140625 
L 7.328125 -13.140625 
z
M 85.25 71.140625 
L 14.84375 71.140625 
L 14.84375 -1.21875 
L 85.25 -1.21875 
z
M 19.34375 15.765625 
L 46.296875 15.765625 
L 46.296875 35.109375 
L 22.75 35.109375 
L 22.75 41.75 
L 46.296875 41.75 
L 46.296875 54.828125 
L 20.90625 54.828125 
L 20.90625 61.46875 
L 79.109375 61.46875 
L 79.109375 54.828125 
L 53.515625 54.828125 
L 53.515625 41.75 
L 77.15625 41.75 
L 77.15625 35.109375 
L 53.515625 35.109375 
L 53.515625 15.765625 
L 80.671875 15.765625 
L 80.671875 9.125 
L 19.34375 9.125 
z
M 58.59375 28.859375 
L 64.0625 32.953125 
Q 69.4375 27.390625 73.25 22.515625 
L 67.484375 18.109375 
Q 62.796875 24.46875 58.59375 28.859375 
z
" id="MicrosoftYaHei-56fd"/>
     <path d="M 35.0625 41.546875 
Q 47.5625 63.234375 53.125 83.453125 
L 61.03125 81.203125 
Q 57.90625 72.171875 54.5 63.921875 
L 97.078125 63.921875 
L 97.078125 56.6875 
L 85.59375 56.6875 
Q 84.125 28.421875 71.09375 10.640625 
Q 81 1.859375 99.21875 -4.640625 
Q 96.1875 -8.453125 93.65625 -12.453125 
Q 76.265625 -5.03125 65.921875 4.6875 
Q 56.5 -4.59375 39.84375 -13.328125 
Q 37.796875 -10.109375 34.859375 -6.78125 
Q 51.515625 1.5625 60.59375 10.5 
Q 49.3125 24.609375 46 45.5625 
Q 43.265625 40.234375 40.328125 35.296875 
Q 38.484375 38.140625 35.0625 41.546875 
z
M 26.265625 82.671875 
L 33.6875 82.671875 
L 33.6875 -12.75 
L 26.265625 -12.75 
L 26.265625 17.390625 
Q 20.3125 14.0625 14.15625 10.015625 
Q 11.625 8.15625 9.1875 5.609375 
L 3.609375 12.15625 
Q 6.640625 15.375 6.640625 20.5625 
L 6.640625 69 
L 14.0625 69 
L 14.0625 19 
Q 19.875 22.078125 26.265625 25.53125 
z
M 77.875 56.6875 
L 51.90625 56.6875 
Q 53.328125 32.859375 65.671875 16.546875 
Q 76.8125 32.234375 77.875 56.6875 
z
" id="MicrosoftYaHei-6536"/>
     <path d="M 1.765625 -1.609375 
L 15.921875 -1.609375 
L 15.921875 31.203125 
L 84.46875 31.203125 
L 84.46875 -1.609375 
L 97.953125 -1.609375 
L 97.953125 -8.453125 
L 1.765625 -8.453125 
z
M 4.109375 64.3125 
L 57.375 64.3125 
Q 66.015625 72.65625 74.125 83.34375 
L 81.25 78.859375 
Q 74.609375 71.140625 67.671875 64.3125 
L 96.484375 64.3125 
L 96.484375 57.46875 
L 4.109375 57.46875 
z
M 77.4375 24.5625 
L 63.765625 24.5625 
L 63.765625 -1.609375 
L 77.4375 -1.609375 
z
M 22.953125 -1.609375 
L 36.53125 -1.609375 
L 36.53125 24.5625 
L 22.953125 24.5625 
z
M 43.359375 -1.609375 
L 56.9375 -1.609375 
L 56.9375 24.5625 
L 43.359375 24.5625 
z
M 36.53125 54.4375 
L 41.3125 48.09375 
Q 26.078125 38.8125 7.125 29.25 
Q 5.171875 33.0625 3.125 36.078125 
Q 21.390625 44.875 36.53125 54.4375 
z
M 59.28125 48.296875 
L 63.28125 54.25 
Q 82.8125 45.0625 97.078125 37.25 
L 92.78125 30.03125 
Q 73.53125 41.15625 59.28125 48.296875 
z
M 19.34375 78.375 
L 24.421875 83.453125 
Q 32.8125 77.390625 39.546875 71.625 
L 33.984375 65.765625 
Q 27.640625 71.828125 19.34375 78.375 
z
" id="MicrosoftYaHei-76ca"/>
     <path d="M 39.453125 31.390625 
Q 40.96875 31.5 61.375 32.515625 
Q 58.9375 35.9375 56.640625 38.921875 
L 61.921875 42.234375 
Q 68.953125 34.421875 74.90625 25.828125 
L 68.65625 21.921875 
Q 66.9375 24.515625 65.28125 26.953125 
Q 46.734375 25.921875 34.578125 24.953125 
Q 32.421875 24.75 29.390625 24.078125 
L 26.953125 30.71875 
Q 29.890625 31.6875 31.34375 32.5625 
Q 39.59375 38.140625 47.65625 45.515625 
Q 40.578125 45.21875 35.546875 44.78125 
Q 33.5 44.484375 31.0625 43.890625 
L 28.125 49.859375 
Q 30.5625 50.734375 32.625 52.59375 
Q 39.203125 58.15625 44.921875 66.0625 
L 3.609375 66.0625 
L 3.609375 72.90625 
L 47.359375 72.90625 
Q 44.96875 77.25 42.875 80.515625 
L 49.90625 83.9375 
Q 53.71875 78.125 56.5 72.90625 
L 96.484375 72.90625 
L 96.484375 66.0625 
L 47.703125 66.0625 
L 52.34375 63.625 
Q 44.4375 55.515625 38.96875 50.734375 
Q 44.53125 50.875 53.515625 51.078125 
Q 57.421875 54.984375 61.328125 59.328125 
L 68.0625 55.421875 
Q 52.546875 40.671875 39.453125 31.390625 
z
M 2.25 15.484375 
L 46.78125 15.484375 
L 46.78125 24.078125 
L 54.5 24.078125 
L 54.5 15.484375 
L 98.046875 15.484375 
L 98.046875 8.640625 
L 54.5 8.640625 
L 54.5 -13.328125 
L 46.78125 -13.328125 
L 46.78125 8.640625 
L 2.25 8.640625 
z
M 26.859375 41.75 
L 30.375 35.984375 
Q 18.75 29.15625 6.640625 22.015625 
L 2.546875 28.5625 
Q 12.703125 33.34375 26.859375 41.75 
z
M 75.875 41.84375 
Q 89.84375 33.9375 97.65625 28.375 
L 93.359375 22.015625 
Q 83.296875 29.828125 71.875 36.578125 
z
M 93.65625 56.109375 
Q 86.234375 49.65625 77.546875 43.890625 
L 72.5625 49.078125 
Q 81.9375 55.21875 88.09375 61.375 
z
M 5.671875 56.78125 
L 10.640625 61.578125 
Q 18.75 55.125 24.8125 49.359375 
L 19.34375 44 
Q 13.671875 49.953125 5.671875 56.78125 
z
" id="MicrosoftYaHei-7387"/>
     <path d="M 33.796875 83.15625 
L 41.015625 83.15625 
L 41.015625 67.046875 
L 58.984375 67.046875 
L 58.984375 83.25 
L 66.21875 83.25 
L 66.21875 67.046875 
L 91.40625 67.046875 
L 91.40625 -12.84375 
L 84.1875 -12.84375 
L 84.1875 -6.390625 
L 15.828125 -6.390625 
L 15.828125 -12.84375 
L 8.59375 -12.84375 
L 8.59375 67.046875 
L 33.796875 67.046875 
z
M 15.828125 0.640625 
L 33.796875 0.640625 
L 33.796875 27.390625 
L 15.828125 27.390625 
z
M 66.21875 0.640625 
L 84.1875 0.640625 
L 84.1875 27.390625 
L 66.21875 27.390625 
z
M 41.015625 0.640625 
L 58.984375 0.640625 
L 58.984375 27.390625 
L 41.015625 27.390625 
z
M 15.828125 34.421875 
L 33.796875 34.421875 
L 33.796875 60.015625 
L 15.828125 60.015625 
z
M 84.1875 60.015625 
L 66.21875 60.015625 
L 66.21875 34.421875 
L 84.1875 34.421875 
z
M 41.015625 34.421875 
L 58.984375 34.421875 
L 58.984375 60.015625 
L 41.015625 60.015625 
z
" id="MicrosoftYaHei-66f2"/>
     <path d="M 30.765625 -5.421875 
Q 49.125 1.171875 62.546875 9.859375 
Q 59.078125 18.703125 57.078125 30.8125 
L 36.234375 27.875 
L 35.0625 34.90625 
L 56.109375 37.84375 
Q 55.28125 44.671875 54.890625 52.4375 
L 37.203125 50.4375 
L 36.03125 57.46875 
L 54.5 59.515625 
Q 53.953125 69.671875 53.515625 82.859375 
L 61.53125 82.859375 
Q 61.765625 70.265625 62.15625 60.40625 
L 94.828125 64.109375 
L 95.703125 57.171875 
L 62.453125 53.328125 
Q 62.796875 45.609375 63.578125 38.875 
L 97.265625 43.609375 
L 98.140625 36.671875 
L 64.5 31.890625 
Q 66.15625 21.78125 69 14.3125 
Q 79.34375 22.125 86.234375 31.390625 
L 92.578125 26.609375 
Q 83.796875 16.015625 72.171875 7.421875 
Q 75.921875 0.6875 81.15625 -2.875 
Q 87.59375 -6.6875 89.453125 1.03125 
Q 90.71875 7.28125 91.5 14.890625 
Q 96 12.9375 99.03125 12.0625 
Q 97.359375 1.515625 95.703125 -3.859375 
Q 92.875 -12.15625 86.03125 -12.15625 
Q 78.90625 -12.15625 72.859375 -6.296875 
Q 68.890625 -2.546875 65.765625 3.03125 
Q 52.34375 -5.671875 35.640625 -12.0625 
Q 33.890625 -9.328125 30.765625 -5.421875 
z
M 14.0625 24.078125 
Q 22.75 25.34375 34.578125 27.390625 
Q 33.984375 23.78125 33.6875 19.875 
Q 17.390625 17.328125 5.078125 15.28125 
L 3.515625 22.609375 
Q 10.296875 29.890625 18.40625 43.359375 
Q 10.5 42.921875 3.515625 42.234375 
L 1.65625 48.875 
Q 10.75 61.28125 20.3125 83.640625 
L 27.734375 80.71875 
Q 17.671875 60.890625 10.453125 49.46875 
Q 16.265625 49.65625 22.21875 49.90625 
Q 25.59375 55.90625 29.203125 62.9375 
L 36.421875 59.328125 
Q 24.515625 38.71875 14.0625 24.078125 
z
M 1.65625 1.515625 
Q 18.84375 5.21875 36.421875 9.625 
Q 36.140625 5.71875 36.140625 2.203125 
Q 19.828125 -1.609375 3.8125 -5.90625 
z
M 69.734375 77.6875 
L 73.921875 82.5625 
Q 80.859375 78.171875 88.765625 72.015625 
L 84.078125 66.359375 
Q 75.984375 73.296875 69.734375 77.6875 
z
" id="MicrosoftYaHei-7ebf"/>
    </defs>
    <g transform="translate(388.8 37.2)scale(0.12 -0.12)">
     <use xlink:href="#MicrosoftYaHei-4e2d"/>
     <use x="100" xlink:href="#MicrosoftYaHei-503a"/>
     <use x="200" xlink:href="#MicrosoftYaHei-56fd"/>
     <use x="300" xlink:href="#MicrosoftYaHei-503a"/>
     <use x="400" xlink:href="#MicrosoftYaHei-6536"/>
     <use x="500" xlink:href="#MicrosoftYaHei-76ca"/>
     <use x="600" xlink:href="#MicrosoftYaHei-7387"/>
     <use x="700" xlink:href="#MicrosoftYaHei-66f2"/>
     <use x="800" xlink:href="#MicrosoftYaHei-7ebf"/>
    </g>
   </g>
   <g id="legend_1">
    <g id="patch_7">
     <path d="M 716.871875 97.639062 
L 770.6 97.639062 
Q 772.6 97.639062 772.6 95.639062 
L 772.6 50.2 
Q 772.6 48.2 770.6 48.2 
L 716.871875 48.2 
Q 714.871875 48.2 714.871875 50.2 
L 714.871875 95.639062 
Q 714.871875 97.639062 716.871875 97.639062 
z
" style="fill:#ffffff;opacity:0.8;stroke:#cccccc;stroke-linejoin:miter;"/>
    </g>
    <g id="line2d_30">
     <path d="M 718.871875 56.69375 
L 738.871875 56.69375 
" style="fill:none;stroke:#1f77b4;stroke-linecap:square;stroke-width:1.5;"/>
    </g>
    <g id="line2d_31"/>
    <g id="text_16">
     <!-- 3月 -->
     <defs>
      <path d="M 25.046875 20.0625 
Q 22.859375 1.21875 10.359375 -14.015625 
Q 7.234375 -10.984375 3.609375 -8.15625 
Q 13.09375 2.09375 16.3125 16.265625 
Q 18.5625 26.703125 18.5625 45.171875 
L 18.5625 78.953125 
L 83.796875 78.953125 
L 83.796875 2.78125 
Q 83.796875 -11.671875 70.015625 -11.671875 
Q 64.265625 -11.671875 55.171875 -11.46875 
Q 54.6875 -7.953125 53.71875 -3.265625 
Q 62.703125 -3.859375 67.875 -3.859375 
Q 75.78125 -3.859375 75.78125 3.859375 
L 75.78125 20.0625 
z
M 25.828125 27.203125 
L 75.78125 27.203125 
L 75.78125 45.953125 
L 26.5625 45.953125 
Q 26.5625 36.1875 25.828125 27.203125 
z
M 26.5625 71.625 
L 26.5625 53.078125 
L 75.78125 53.078125 
L 75.78125 71.625 
z
" id="MicrosoftYaHei-6708"/>
     </defs>
     <g transform="translate(746.871875 60.19375)scale(0.1 -0.1)">
      <use xlink:href="#MicrosoftYaHei-33"/>
      <use x="58.642578" xlink:href="#MicrosoftYaHei-6708"/>
     </g>
    </g>
    <g id="line2d_32">
     <path d="M 718.871875 72.173437 
L 738.871875 72.173437 
" style="fill:none;stroke:#ff7f0e;stroke-linecap:square;stroke-width:1.5;"/>
    </g>
    <g id="line2d_33"/>
    <g id="text_17">
     <!-- 1年 -->
     <defs>
      <path d="M 1.859375 19.96875 
L 17.578125 19.96875 
L 17.578125 47.90625 
L 52.15625 47.90625 
L 52.15625 65.28125 
L 23.4375 65.28125 
Q 16.84375 53.421875 8.6875 43.40625 
Q 6.15625 46.140625 2.640625 48.875 
Q 16.5 64.5 23.4375 83.9375 
L 31.453125 81.6875 
Q 29.390625 76.859375 27.15625 72.3125 
L 94.34375 72.3125 
L 94.34375 65.28125 
L 60.0625 65.28125 
L 60.0625 47.90625 
L 92.671875 47.90625 
L 92.671875 41.0625 
L 60.0625 41.0625 
L 60.0625 19.96875 
L 98.734375 19.96875 
L 98.734375 12.9375 
L 60.0625 12.9375 
L 60.0625 -13.421875 
L 52.15625 -13.421875 
L 52.15625 12.9375 
L 1.859375 12.9375 
z
M 25.296875 19.96875 
L 52.15625 19.96875 
L 52.15625 41.0625 
L 25.296875 41.0625 
z
" id="MicrosoftYaHei-5e74"/>
     </defs>
     <g transform="translate(746.871875 75.673437)scale(0.1 -0.1)">
      <use xlink:href="#MicrosoftYaHei-31"/>
      <use x="58.642578" xlink:href="#MicrosoftYaHei-5e74"/>
     </g>
    </g>
    <g id="line2d_34">
     <path d="M 718.871875 87.653125 
L 738.871875 87.653125 
" style="fill:none;stroke:#2ca02c;stroke-linecap:square;stroke-width:1.5;"/>
    </g>
    <g id="line2d_35"/>
    <g id="text_18">
     <!-- 10年 -->
     <g transform="translate(746.871875 91.153125)scale(0.1 -0.1)">
      <use xlink:href="#MicrosoftYaHei-31"/>
      <use x="58.642578" xlink:href="#MicrosoftYaHei-30"/>
      <use x="117.285156" xlink:href="#MicrosoftYaHei-5e74"/>
     </g>
    </g>
   </g>
  </g>
 </g>
 <defs>
  <clipPath id="p199252bc7e">
   <rect height="277.2" width="669.6" x="108" y="43.2"/>
  </clipPath>
 </defs>
</svg>
