<?xml version="1.0" encoding="utf-8" standalone="no"?>
<!DOCTYPE svg PUBLIC "-//W3C//DTD SVG 1.1//EN"
  "http://www.w3.org/Graphics/SVG/1.1/DTD/svg11.dtd">
<!-- Created with matplotlib (http://matplotlib.org/) -->
<svg height="360pt" version="1.1" viewBox="0 0 864 360" width="864pt" xmlns="http://www.w3.org/2000/svg" xmlns:xlink="http://www.w3.org/1999/xlink">
 <defs>
  <style type="text/css">
*{stroke-linecap:butt;stroke-linejoin:round;}
  </style>
 </defs>
 <g id="figure_1">
  <g id="patch_1">
   <path d="M 0 360 
L 864 360 
L 864 0 
L 0 0 
z
" style="fill:#ffffff;"/>
  </g>
  <g id="axes_1">
   <g id="patch_2">
    <path d="M 108 320.4 
L 777.6 320.4 
L 777.6 43.2 
L 108 43.2 
z
" style="fill:#ffffff;"/>
   </g>
   <g id="matplotlib.axis_1">
    <g id="xtick_1">
     <g id="line2d_1">
      <path clip-path="url(#pf0812e4cf2)" d="M 108 320.4 
L 108 43.2 
" style="fill:none;stroke:#b0b0b0;stroke-linecap:square;stroke-width:0.8;"/>
     </g>
     <g id="line2d_2">
      <defs>
       <path d="M 0 0 
L 0 3.5 
" id="m8cd8502b02" style="stroke:#000000;stroke-width:0.8;"/>
      </defs>
      <g>
       <use style="stroke:#000000;stroke-width:0.8;" x="108" xlink:href="#m8cd8502b02" y="320.4"/>
      </g>
     </g>
     <g id="text_1">
      <!-- 2018-11-20 -->
      <defs>
       <path d="M 51.171875 0 
L 5.171875 0 
L 5.171875 8.296875 
L 27.15625 30.21875 
Q 36.234375 39.3125 39.3125 44.609375 
Q 42.390625 49.90625 42.390625 55.5625 
Q 42.390625 62.015625 38.765625 65.453125 
Q 35.15625 68.890625 28.328125 68.890625 
Q 18.21875 68.890625 9.03125 60.296875 
L 9.03125 70.015625 
Q 17.96875 76.90625 29.828125 76.90625 
Q 40.046875 76.90625 45.953125 71.390625 
Q 51.859375 65.875 51.859375 56.546875 
Q 51.859375 49.515625 48.0625 42.75 
Q 44.28125 35.984375 33.734375 25.53125 
L 16.5 8.6875 
L 16.5 8.5 
L 51.171875 8.5 
z
" id="MicrosoftYaHei-32"/>
       <path d="M 4.4375 36.328125 
Q 4.4375 56.34375 11.078125 66.625 
Q 17.71875 76.90625 30.328125 76.90625 
Q 54.34375 76.90625 54.34375 38.140625 
Q 54.34375 19 47.578125 8.859375 
Q 40.828125 -1.265625 28.609375 -1.265625 
Q 17.09375 -1.265625 10.765625 8.34375 
Q 4.4375 17.96875 4.4375 36.328125 
z
M 14.203125 36.765625 
Q 14.203125 6.640625 29.5 6.640625 
Q 44.53125 6.640625 44.53125 37.25 
Q 44.53125 68.953125 29.78125 68.953125 
Q 14.203125 68.953125 14.203125 36.765625 
z
" id="MicrosoftYaHei-30"/>
       <path d="M 52.59375 0 
L 9.234375 0 
L 9.234375 8.25 
L 26.171875 8.25 
L 26.171875 65.671875 
L 8.796875 60.640625 
L 8.796875 69.4375 
L 35.6875 77.25 
L 35.6875 8.25 
L 52.59375 8.25 
z
" id="MicrosoftYaHei-31"/>
       <path d="M 21.390625 39.796875 
Q 7.859375 46.09375 7.859375 58.0625 
Q 7.859375 66.40625 14.203125 71.65625 
Q 20.5625 76.90625 30.421875 76.90625 
Q 39.453125 76.90625 45.3125 71.96875 
Q 51.171875 67.046875 51.171875 59.234375 
Q 51.171875 46.625 37.0625 39.84375 
L 37.0625 39.65625 
Q 53.609375 33.6875 53.609375 19.34375 
Q 53.609375 9.90625 46.796875 4.3125 
Q 39.984375 -1.265625 27.78125 -1.265625 
Q 17.78125 -1.265625 11.46875 4.25 
Q 5.171875 9.765625 5.171875 18.5625 
Q 5.171875 33.015625 21.390625 39.59375 
z
M 41.5 58.109375 
Q 41.5 63.1875 38.328125 66.109375 
Q 35.15625 69.046875 29.734375 69.046875 
Q 24.65625 69.046875 21.09375 65.984375 
Q 17.53125 62.9375 17.53125 58.203125 
Q 17.53125 48.734375 29.390625 43.796875 
Q 41.5 48.828125 41.5 58.109375 
z
M 28.8125 35.25 
Q 14.796875 29.59375 14.796875 19.046875 
Q 14.796875 13.578125 18.890625 10.0625 
Q 23 6.546875 29.59375 6.546875 
Q 35.984375 6.546875 39.984375 10.03125 
Q 44 13.53125 44 18.75 
Q 44 29.734375 28.8125 35.25 
z
" id="MicrosoftYaHei-38"/>
       <path d="M 36.375 26.265625 
L 7.625 26.265625 
L 7.625 33.640625 
L 36.375 33.640625 
z
" id="MicrosoftYaHei-2d"/>
      </defs>
      <g transform="translate(80.217187 335.39375)scale(0.1 -0.1)">
       <use xlink:href="#MicrosoftYaHei-32"/>
       <use x="58.642578" xlink:href="#MicrosoftYaHei-30"/>
       <use x="117.285156" xlink:href="#MicrosoftYaHei-31"/>
       <use x="175.927734" xlink:href="#MicrosoftYaHei-38"/>
       <use x="234.570312" xlink:href="#MicrosoftYaHei-2d"/>
       <use x="277.832031" xlink:href="#MicrosoftYaHei-31"/>
       <use x="336.474609" xlink:href="#MicrosoftYaHei-31"/>
       <use x="395.117188" xlink:href="#MicrosoftYaHei-2d"/>
       <use x="438.378906" xlink:href="#MicrosoftYaHei-32"/>
       <use x="497.021484" xlink:href="#MicrosoftYaHei-30"/>
      </g>
     </g>
    </g>
    <g id="xtick_2">
     <g id="line2d_3">
      <path clip-path="url(#pf0812e4cf2)" d="M 199.978022 320.4 
L 199.978022 43.2 
" style="fill:none;stroke:#b0b0b0;stroke-linecap:square;stroke-width:0.8;"/>
     </g>
     <g id="line2d_4">
      <g>
       <use style="stroke:#000000;stroke-width:0.8;" x="199.978022" xlink:href="#m8cd8502b02" y="320.4"/>
      </g>
     </g>
     <g id="text_2">
      <!-- 2019-01-28 -->
      <defs>
       <path d="M 9.03125 10.25 
Q 15.28125 6.640625 22.515625 6.640625 
Q 32.671875 6.640625 38.25 14.640625 
Q 43.84375 22.65625 43.84375 37.40625 
Q 43.75 37.3125 43.65625 37.40625 
Q 38.671875 27.9375 26.90625 27.9375 
Q 17.390625 27.9375 11.140625 34.46875 
Q 4.890625 41.015625 4.890625 51.46875 
Q 4.890625 62.59375 11.71875 69.75 
Q 18.5625 76.90625 29.4375 76.90625 
Q 40.71875 76.90625 47.0625 68.046875 
Q 53.421875 59.1875 53.421875 42.234375 
Q 53.421875 21.296875 45.21875 10.015625 
Q 37.015625 -1.265625 22.515625 -1.265625 
Q 14.546875 -1.265625 9.03125 1.3125 
z
M 14.546875 52.6875 
Q 14.546875 45.0625 18.453125 40.59375 
Q 22.359375 36.140625 29.25 36.140625 
Q 35.203125 36.140625 39.25 40.203125 
Q 43.3125 44.28125 43.3125 50.09375 
Q 43.3125 58.25 39.28125 63.59375 
Q 35.25 68.953125 28.65625 68.953125 
Q 22.5625 68.953125 18.546875 64.3125 
Q 14.546875 59.671875 14.546875 52.6875 
z
" id="MicrosoftYaHei-39"/>
      </defs>
      <g transform="translate(172.195209 335.39375)scale(0.1 -0.1)">
       <use xlink:href="#MicrosoftYaHei-32"/>
       <use x="58.642578" xlink:href="#MicrosoftYaHei-30"/>
       <use x="117.285156" xlink:href="#MicrosoftYaHei-31"/>
       <use x="175.927734" xlink:href="#MicrosoftYaHei-39"/>
       <use x="234.570312" xlink:href="#MicrosoftYaHei-2d"/>
       <use x="277.832031" xlink:href="#MicrosoftYaHei-30"/>
       <use x="336.474609" xlink:href="#MicrosoftYaHei-31"/>
       <use x="395.117188" xlink:href="#MicrosoftYaHei-2d"/>
       <use x="438.378906" xlink:href="#MicrosoftYaHei-32"/>
       <use x="497.021484" xlink:href="#MicrosoftYaHei-38"/>
      </g>
     </g>
    </g>
    <g id="xtick_3">
     <g id="line2d_5">
      <path clip-path="url(#pf0812e4cf2)" d="M 291.956044 320.4 
L 291.956044 43.2 
" style="fill:none;stroke:#b0b0b0;stroke-linecap:square;stroke-width:0.8;"/>
     </g>
     <g id="line2d_6">
      <g>
       <use style="stroke:#000000;stroke-width:0.8;" x="291.956044" xlink:href="#m8cd8502b02" y="320.4"/>
      </g>
     </g>
     <g id="text_3">
      <!-- 2019-04-12 -->
      <defs>
       <path d="M 55.078125 19.625 
L 45.40625 19.625 
L 45.40625 0 
L 36.140625 0 
L 36.140625 19.625 
L 0.875 19.625 
L 0.875 25.828125 
L 34.328125 75.640625 
L 45.40625 75.640625 
L 45.40625 27.203125 
L 55.078125 27.203125 
z
M 36.140625 27.203125 
L 36.140625 58.890625 
Q 36.140625 62.25 36.328125 66.65625 
L 36.140625 66.65625 
Q 35.453125 64.796875 33.25 60.84375 
L 10.75 27.203125 
z
" id="MicrosoftYaHei-34"/>
      </defs>
      <g transform="translate(264.173231 335.39375)scale(0.1 -0.1)">
       <use xlink:href="#MicrosoftYaHei-32"/>
       <use x="58.642578" xlink:href="#MicrosoftYaHei-30"/>
       <use x="117.285156" xlink:href="#MicrosoftYaHei-31"/>
       <use x="175.927734" xlink:href="#MicrosoftYaHei-39"/>
       <use x="234.570312" xlink:href="#MicrosoftYaHei-2d"/>
       <use x="277.832031" xlink:href="#MicrosoftYaHei-30"/>
       <use x="336.474609" xlink:href="#MicrosoftYaHei-34"/>
       <use x="395.117188" xlink:href="#MicrosoftYaHei-2d"/>
       <use x="438.378906" xlink:href="#MicrosoftYaHei-31"/>
       <use x="497.021484" xlink:href="#MicrosoftYaHei-32"/>
      </g>
     </g>
    </g>
    <g id="xtick_4">
     <g id="line2d_7">
      <path clip-path="url(#pf0812e4cf2)" d="M 383.934066 320.4 
L 383.934066 43.2 
" style="fill:none;stroke:#b0b0b0;stroke-linecap:square;stroke-width:0.8;"/>
     </g>
     <g id="line2d_8">
      <g>
       <use style="stroke:#000000;stroke-width:0.8;" x="383.934066" xlink:href="#m8cd8502b02" y="320.4"/>
      </g>
     </g>
     <g id="text_4">
      <!-- 2019-06-25 -->
      <defs>
       <path d="M 49.703125 65.921875 
Q 43.796875 68.953125 37.359375 68.953125 
Q 27.546875 68.953125 21.578125 60.40625 
Q 15.625 51.859375 15.53125 37.0625 
L 15.765625 37.0625 
Q 21.140625 47.46875 32.90625 47.46875 
Q 42.71875 47.46875 48.578125 41.0625 
Q 54.4375 34.671875 54.4375 24.078125 
Q 54.4375 12.984375 47.671875 5.859375 
Q 40.921875 -1.265625 30.421875 -1.265625 
Q 18.890625 -1.265625 12.328125 7.734375 
Q 5.765625 16.75 5.765625 33.296875 
Q 5.765625 53.328125 14.375 65.109375 
Q 23 76.90625 37.0625 76.90625 
Q 45.125 76.90625 49.703125 74.703125 
z
M 16.109375 24.75 
Q 16.109375 17.28125 20.09375 11.953125 
Q 24.078125 6.640625 30.671875 6.640625 
Q 36.921875 6.640625 40.828125 11.234375 
Q 44.734375 15.828125 44.734375 23.046875 
Q 44.734375 30.859375 41.046875 35.203125 
Q 37.359375 39.546875 30.5625 39.546875 
Q 24.125 39.546875 20.109375 35.15625 
Q 16.109375 30.765625 16.109375 24.75 
z
" id="MicrosoftYaHei-36"/>
       <path d="M 8.640625 11.625 
Q 16.265625 6.640625 24.515625 6.640625 
Q 32.328125 6.640625 37.109375 11 
Q 41.890625 15.375 41.890625 22.609375 
Q 41.890625 29.890625 37.03125 33.890625 
Q 32.171875 37.890625 22.953125 37.890625 
Q 18.5 37.890625 10.984375 37.203125 
L 10.984375 75.640625 
L 48.1875 75.640625 
L 48.1875 67.1875 
L 19.875 67.1875 
L 19.875 45.796875 
Q 24.125 46.046875 26.265625 46.046875 
Q 38.234375 46.046875 44.921875 39.984375 
Q 51.609375 33.9375 51.609375 23.296875 
Q 51.609375 12.3125 44.421875 5.515625 
Q 37.25 -1.265625 24.609375 -1.265625 
Q 14.015625 -1.265625 8.640625 1.859375 
z
" id="MicrosoftYaHei-35"/>
      </defs>
      <g transform="translate(356.151253 335.39375)scale(0.1 -0.1)">
       <use xlink:href="#MicrosoftYaHei-32"/>
       <use x="58.642578" xlink:href="#MicrosoftYaHei-30"/>
       <use x="117.285156" xlink:href="#MicrosoftYaHei-31"/>
       <use x="175.927734" xlink:href="#MicrosoftYaHei-39"/>
       <use x="234.570312" xlink:href="#MicrosoftYaHei-2d"/>
       <use x="277.832031" xlink:href="#MicrosoftYaHei-30"/>
       <use x="336.474609" xlink:href="#MicrosoftYaHei-36"/>
       <use x="395.117188" xlink:href="#MicrosoftYaHei-2d"/>
       <use x="438.378906" xlink:href="#MicrosoftYaHei-32"/>
       <use x="497.021484" xlink:href="#MicrosoftYaHei-35"/>
      </g>
     </g>
    </g>
    <g id="xtick_5">
     <g id="line2d_9">
      <path clip-path="url(#pf0812e4cf2)" d="M 475.912088 320.4 
L 475.912088 43.2 
" style="fill:none;stroke:#b0b0b0;stroke-linecap:square;stroke-width:0.8;"/>
     </g>
     <g id="line2d_10">
      <g>
       <use style="stroke:#000000;stroke-width:0.8;" x="475.912088" xlink:href="#m8cd8502b02" y="320.4"/>
      </g>
     </g>
     <g id="text_5">
      <!-- 2019-09-03 -->
      <defs>
       <path d="M 6.984375 12.640625 
Q 14.75 6.640625 24.515625 6.640625 
Q 32.328125 6.640625 36.890625 10.46875 
Q 41.453125 14.3125 41.453125 20.75 
Q 41.453125 35.109375 20.90625 35.109375 
L 14.59375 35.109375 
L 14.59375 43.015625 
L 20.609375 43.015625 
Q 38.8125 43.015625 38.8125 56.5 
Q 38.8125 68.953125 24.90625 68.953125 
Q 16.9375 68.953125 9.90625 63.578125 
L 9.90625 72.609375 
Q 17.328125 76.90625 27.25 76.90625 
Q 36.921875 76.90625 42.78125 71.84375 
Q 48.640625 66.796875 48.640625 58.734375 
Q 48.640625 43.890625 33.5 39.65625 
L 33.5 39.453125 
Q 41.703125 38.578125 46.453125 33.671875 
Q 51.21875 28.765625 51.21875 21.4375 
Q 51.21875 11.234375 43.875 4.984375 
Q 36.53125 -1.265625 24.3125 -1.265625 
Q 13.578125 -1.265625 6.984375 2.734375 
z
" id="MicrosoftYaHei-33"/>
      </defs>
      <g transform="translate(448.129275 335.39375)scale(0.1 -0.1)">
       <use xlink:href="#MicrosoftYaHei-32"/>
       <use x="58.642578" xlink:href="#MicrosoftYaHei-30"/>
       <use x="117.285156" xlink:href="#MicrosoftYaHei-31"/>
       <use x="175.927734" xlink:href="#MicrosoftYaHei-39"/>
       <use x="234.570312" xlink:href="#MicrosoftYaHei-2d"/>
       <use x="277.832031" xlink:href="#MicrosoftYaHei-30"/>
       <use x="336.474609" xlink:href="#MicrosoftYaHei-39"/>
       <use x="395.117188" xlink:href="#MicrosoftYaHei-2d"/>
       <use x="438.378906" xlink:href="#MicrosoftYaHei-30"/>
       <use x="497.021484" xlink:href="#MicrosoftYaHei-33"/>
      </g>
     </g>
    </g>
    <g id="xtick_6">
     <g id="line2d_11">
      <path clip-path="url(#pf0812e4cf2)" d="M 567.89011 320.4 
L 567.89011 43.2 
" style="fill:none;stroke:#b0b0b0;stroke-linecap:square;stroke-width:0.8;"/>
     </g>
     <g id="line2d_12">
      <g>
       <use style="stroke:#000000;stroke-width:0.8;" x="567.89011" xlink:href="#m8cd8502b02" y="320.4"/>
      </g>
     </g>
     <g id="text_6">
      <!-- 2019-11-18 -->
      <g transform="translate(540.107297 335.39375)scale(0.1 -0.1)">
       <use xlink:href="#MicrosoftYaHei-32"/>
       <use x="58.642578" xlink:href="#MicrosoftYaHei-30"/>
       <use x="117.285156" xlink:href="#MicrosoftYaHei-31"/>
       <use x="175.927734" xlink:href="#MicrosoftYaHei-39"/>
       <use x="234.570312" xlink:href="#MicrosoftYaHei-2d"/>
       <use x="277.832031" xlink:href="#MicrosoftYaHei-31"/>
       <use x="336.474609" xlink:href="#MicrosoftYaHei-31"/>
       <use x="395.117188" xlink:href="#MicrosoftYaHei-2d"/>
       <use x="438.378906" xlink:href="#MicrosoftYaHei-31"/>
       <use x="497.021484" xlink:href="#MicrosoftYaHei-38"/>
      </g>
     </g>
    </g>
    <g id="xtick_7">
     <g id="line2d_13">
      <path clip-path="url(#pf0812e4cf2)" d="M 659.868132 320.4 
L 659.868132 43.2 
" style="fill:none;stroke:#b0b0b0;stroke-linecap:square;stroke-width:0.8;"/>
     </g>
     <g id="line2d_14">
      <g>
       <use style="stroke:#000000;stroke-width:0.8;" x="659.868132" xlink:href="#m8cd8502b02" y="320.4"/>
      </g>
     </g>
     <g id="text_7">
      <!-- 2020-02-04 -->
      <g transform="translate(632.085319 335.39375)scale(0.1 -0.1)">
       <use xlink:href="#MicrosoftYaHei-32"/>
       <use x="58.642578" xlink:href="#MicrosoftYaHei-30"/>
       <use x="117.285156" xlink:href="#MicrosoftYaHei-32"/>
       <use x="175.927734" xlink:href="#MicrosoftYaHei-30"/>
       <use x="234.570312" xlink:href="#MicrosoftYaHei-2d"/>
       <use x="277.832031" xlink:href="#MicrosoftYaHei-30"/>
       <use x="336.474609" xlink:href="#MicrosoftYaHei-32"/>
       <use x="395.117188" xlink:href="#MicrosoftYaHei-2d"/>
       <use x="438.378906" xlink:href="#MicrosoftYaHei-30"/>
       <use x="497.021484" xlink:href="#MicrosoftYaHei-34"/>
      </g>
     </g>
    </g>
    <g id="xtick_8">
     <g id="line2d_15">
      <path clip-path="url(#pf0812e4cf2)" d="M 751.846154 320.4 
L 751.846154 43.2 
" style="fill:none;stroke:#b0b0b0;stroke-linecap:square;stroke-width:0.8;"/>
     </g>
     <g id="line2d_16">
      <g>
       <use style="stroke:#000000;stroke-width:0.8;" x="751.846154" xlink:href="#m8cd8502b02" y="320.4"/>
      </g>
     </g>
     <g id="text_8">
      <!-- 2020-04-15 -->
      <g transform="translate(724.063341 335.39375)scale(0.1 -0.1)">
       <use xlink:href="#MicrosoftYaHei-32"/>
       <use x="58.642578" xlink:href="#MicrosoftYaHei-30"/>
       <use x="117.285156" xlink:href="#MicrosoftYaHei-32"/>
       <use x="175.927734" xlink:href="#MicrosoftYaHei-30"/>
       <use x="234.570312" xlink:href="#MicrosoftYaHei-2d"/>
       <use x="277.832031" xlink:href="#MicrosoftYaHei-30"/>
       <use x="336.474609" xlink:href="#MicrosoftYaHei-34"/>
       <use x="395.117188" xlink:href="#MicrosoftYaHei-2d"/>
       <use x="438.378906" xlink:href="#MicrosoftYaHei-31"/>
       <use x="497.021484" xlink:href="#MicrosoftYaHei-35"/>
      </g>
     </g>
    </g>
    <g id="text_9">
     <!-- 日期 -->
     <defs>
      <path d="M 15.234375 76.703125 
L 84.859375 76.703125 
L 84.859375 -11.96875 
L 76.5625 -11.96875 
L 76.5625 -5.03125 
L 23.53125 -5.03125 
L 23.53125 -11.96875 
L 15.234375 -11.96875 
z
M 23.53125 32.859375 
L 23.53125 2.09375 
L 76.5625 2.09375 
L 76.5625 32.859375 
z
M 23.53125 69.390625 
L 23.53125 40.1875 
L 76.5625 40.1875 
L 76.5625 69.390625 
z
" id="MicrosoftYaHei-65e5"/>
      <path d="M 58.890625 79.15625 
L 93.453125 79.15625 
L 93.453125 -0.046875 
Q 93.453125 -11.578125 82.515625 -11.578125 
Q 77.046875 -11.578125 71.78125 -11.28125 
Q 71.390625 -8.0625 70.609375 -3.765625 
Q 77.734375 -4.4375 80.859375 -4.4375 
Q 86.234375 -4.4375 86.234375 0.921875 
L 86.234375 21.4375 
L 65.328125 21.4375 
Q 64.265625 0.046875 52.34375 -14.109375 
Q 49.703125 -11.375 46.484375 -8.640625 
Q 54.390625 0.4375 56.546875 10.203125 
Q 58.890625 19.578125 58.890625 42.828125 
z
M 1.953125 17.828125 
L 11.140625 17.828125 
L 11.140625 62.9375 
L 3.125 62.9375 
L 3.125 69.578125 
L 11.140625 69.578125 
L 11.140625 81.5 
L 18.359375 81.5 
L 18.359375 69.578125 
L 38.671875 69.578125 
L 38.671875 81.890625 
L 45.90625 81.890625 
L 45.90625 69.578125 
L 53.8125 69.578125 
L 53.8125 62.9375 
L 45.90625 62.9375 
L 45.90625 17.828125 
L 53.71875 17.828125 
L 53.71875 11.1875 
L 1.953125 11.1875 
z
M 65.765625 27.875 
L 86.234375 27.875 
L 86.234375 47.015625 
L 66.109375 47.015625 
Q 66.21875 34.421875 65.765625 27.875 
z
M 86.234375 72.515625 
L 66.109375 72.515625 
L 66.109375 53.46875 
L 86.234375 53.46875 
z
M 18.359375 17.828125 
L 38.671875 17.828125 
L 38.671875 28.765625 
L 18.359375 28.765625 
z
M 18.359375 35.015625 
L 38.671875 35.015625 
L 38.671875 45.84375 
L 18.359375 45.84375 
z
M 18.359375 52.09375 
L 38.671875 52.09375 
L 38.671875 62.9375 
L 18.359375 62.9375 
z
M 18.359375 9.328125 
L 24.3125 4.640625 
Q 14.453125 -6 6.34375 -13.234375 
Q 4.296875 -10.890625 1.171875 -8.0625 
Q 10.453125 -0.140625 18.359375 9.328125 
z
M 31.15625 4.734375 
L 35.84375 9.515625 
Q 42.671875 4.4375 48.734375 -0.734375 
L 43.5625 -6.296875 
Q 38.09375 -0.828125 31.15625 4.734375 
z
" id="MicrosoftYaHei-671f"/>
     </defs>
     <g transform="translate(432.8 349.873438)scale(0.1 -0.1)">
      <use xlink:href="#MicrosoftYaHei-65e5"/>
      <use x="100" xlink:href="#MicrosoftYaHei-671f"/>
     </g>
    </g>
   </g>
   <g id="matplotlib.axis_2">
    <g id="ytick_1">
     <g id="line2d_17">
      <path clip-path="url(#pf0812e4cf2)" d="M 108 291.821546 
L 777.6 291.821546 
" style="fill:none;stroke:#b0b0b0;stroke-linecap:square;stroke-width:0.8;"/>
     </g>
     <g id="line2d_18">
      <defs>
       <path d="M 0 0 
L -3.5 0 
" id="m087ac7a709" style="stroke:#000000;stroke-width:0.8;"/>
      </defs>
      <g>
       <use style="stroke:#000000;stroke-width:0.8;" x="108" xlink:href="#m087ac7a709" y="291.821546"/>
      </g>
     </g>
     <g id="text_10">
      <!-- 1.0 -->
      <defs>
       <path d="M 5.8125 5.03125 
Q 5.8125 7.671875 7.609375 9.46875 
Q 9.421875 11.28125 12.109375 11.28125 
Q 14.84375 11.28125 16.640625 9.453125 
Q 18.453125 7.625 18.453125 5.03125 
Q 18.453125 2.484375 16.640625 0.65625 
Q 14.84375 -1.171875 12.0625 -1.171875 
Q 9.375 -1.171875 7.59375 0.65625 
Q 5.8125 2.484375 5.8125 5.03125 
z
" id="MicrosoftYaHei-2e"/>
      </defs>
      <g transform="translate(86.864063 295.818421)scale(0.1 -0.1)">
       <use xlink:href="#MicrosoftYaHei-31"/>
       <use x="58.642578" xlink:href="#MicrosoftYaHei-2e"/>
       <use x="82.714844" xlink:href="#MicrosoftYaHei-30"/>
      </g>
     </g>
    </g>
    <g id="ytick_2">
     <g id="line2d_19">
      <path clip-path="url(#pf0812e4cf2)" d="M 108 243.343227 
L 777.6 243.343227 
" style="fill:none;stroke:#b0b0b0;stroke-linecap:square;stroke-width:0.8;"/>
     </g>
     <g id="line2d_20">
      <g>
       <use style="stroke:#000000;stroke-width:0.8;" x="108" xlink:href="#m087ac7a709" y="243.343227"/>
      </g>
     </g>
     <g id="text_11">
      <!-- 1.5 -->
      <g transform="translate(86.864063 247.340102)scale(0.1 -0.1)">
       <use xlink:href="#MicrosoftYaHei-31"/>
       <use x="58.642578" xlink:href="#MicrosoftYaHei-2e"/>
       <use x="82.714844" xlink:href="#MicrosoftYaHei-35"/>
      </g>
     </g>
    </g>
    <g id="ytick_3">
     <g id="line2d_21">
      <path clip-path="url(#pf0812e4cf2)" d="M 108 194.864907 
L 777.6 194.864907 
" style="fill:none;stroke:#b0b0b0;stroke-linecap:square;stroke-width:0.8;"/>
     </g>
     <g id="line2d_22">
      <g>
       <use style="stroke:#000000;stroke-width:0.8;" x="108" xlink:href="#m087ac7a709" y="194.864907"/>
      </g>
     </g>
     <g id="text_12">
      <!-- 2.0 -->
      <g transform="translate(86.864063 198.861782)scale(0.1 -0.1)">
       <use xlink:href="#MicrosoftYaHei-32"/>
       <use x="58.642578" xlink:href="#MicrosoftYaHei-2e"/>
       <use x="82.714844" xlink:href="#MicrosoftYaHei-30"/>
      </g>
     </g>
    </g>
    <g id="ytick_4">
     <g id="line2d_23">
      <path clip-path="url(#pf0812e4cf2)" d="M 108 146.386588 
L 777.6 146.386588 
" style="fill:none;stroke:#b0b0b0;stroke-linecap:square;stroke-width:0.8;"/>
     </g>
     <g id="line2d_24">
      <g>
       <use style="stroke:#000000;stroke-width:0.8;" x="108" xlink:href="#m087ac7a709" y="146.386588"/>
      </g>
     </g>
     <g id="text_13">
      <!-- 2.5 -->
      <g transform="translate(86.864063 150.383463)scale(0.1 -0.1)">
       <use xlink:href="#MicrosoftYaHei-32"/>
       <use x="58.642578" xlink:href="#MicrosoftYaHei-2e"/>
       <use x="82.714844" xlink:href="#MicrosoftYaHei-35"/>
      </g>
     </g>
    </g>
    <g id="ytick_5">
     <g id="line2d_25">
      <path clip-path="url(#pf0812e4cf2)" d="M 108 97.908268 
L 777.6 97.908268 
" style="fill:none;stroke:#b0b0b0;stroke-linecap:square;stroke-width:0.8;"/>
     </g>
     <g id="line2d_26">
      <g>
       <use style="stroke:#000000;stroke-width:0.8;" x="108" xlink:href="#m087ac7a709" y="97.908268"/>
      </g>
     </g>
     <g id="text_14">
      <!-- 3.0 -->
      <g transform="translate(86.864063 101.905143)scale(0.1 -0.1)">
       <use xlink:href="#MicrosoftYaHei-33"/>
       <use x="58.642578" xlink:href="#MicrosoftYaHei-2e"/>
       <use x="82.714844" xlink:href="#MicrosoftYaHei-30"/>
      </g>
     </g>
    </g>
    <g id="ytick_6">
     <g id="line2d_27">
      <path clip-path="url(#pf0812e4cf2)" d="M 108 49.429949 
L 777.6 49.429949 
" style="fill:none;stroke:#b0b0b0;stroke-linecap:square;stroke-width:0.8;"/>
     </g>
     <g id="line2d_28">
      <g>
       <use style="stroke:#000000;stroke-width:0.8;" x="108" xlink:href="#m087ac7a709" y="49.429949"/>
      </g>
     </g>
     <g id="text_15">
      <!-- 3.5 -->
      <g transform="translate(86.864063 53.426824)scale(0.1 -0.1)">
       <use xlink:href="#MicrosoftYaHei-33"/>
       <use x="58.642578" xlink:href="#MicrosoftYaHei-2e"/>
       <use x="82.714844" xlink:href="#MicrosoftYaHei-35"/>
      </g>
     </g>
    </g>
   </g>
   <g id="line2d_29">
    <path clip-path="url(#pf0812e4cf2)" d="M 108 164.420522 
L 111.679121 160.231996 
L 113.518681 167.096526 
L 115.358242 163.596391 
L 117.197802 163.150391 
L 119.037363 158.069863 
L 120.876923 154.589119 
L 122.716484 159.136386 
L 124.556044 160.261083 
L 126.395604 160.319257 
L 128.235165 159.718126 
L 130.074725 156.71247 
L 131.914286 155.985295 
L 133.753846 150.642984 
L 135.593407 149.673418 
L 137.432967 144.602586 
L 139.272527 144.437759 
L 141.112088 141.296364 
L 142.951648 141.296364 
L 144.791209 139.502666 
L 146.630769 133.801616 
L 148.47033 124.309561 
L 150.30989 119.32599 
L 152.149451 117.813466 
L 153.989011 117.774684 
L 155.828571 119.316294 
L 157.668132 120.324643 
L 159.507692 134.140964 
L 161.347253 135.207487 
L 165.026374 135.207487 
L 166.865934 144.088715 
L 168.705495 149.208026 
L 170.545055 163.344304 
L 172.384615 161.812389 
L 174.224176 164.653218 
L 176.063736 161.521519 
L 177.903297 160.73617 
L 179.742857 168.841745 
L 181.582418 165.651872 
L 183.421978 165.855481 
L 185.261538 163.858174 
L 187.101099 165.021654 
L 188.940659 166.514786 
L 190.78022 161.38578 
L 192.61978 163.295825 
L 194.459341 164.837436 
L 196.298901 164.876219 
L 198.138462 167.222569 
L 199.978022 167.843092 
L 201.817582 174.222839 
L 203.657143 172.021923 
L 205.496703 174.9791 
L 209.175824 174.872448 
L 211.015385 174.872448 
L 212.854945 175.076057 
L 214.694505 176.898842 
L 218.373626 178.973714 
L 220.213187 194.302559 
L 222.052747 188.795421 
L 225.731868 188.940856 
L 227.571429 189.929814 
L 229.410989 191.316294 
L 231.250549 189.774684 
L 233.09011 176.607972 
L 234.92967 180.36989 
L 236.769231 181.814543 
L 238.608791 193.875949 
L 240.448352 198.452303 
L 242.287912 192.217991 
L 244.127473 194.738863 
L 245.967033 198.491085 
L 247.806593 199.334608 
L 249.646154 201.63248 
L 251.485714 194.283167 
L 253.325275 194.76795 
L 255.164835 179.778454 
L 257.004396 180.040237 
L 260.683516 178.799192 
L 262.523077 179.875411 
L 264.362637 179.972367 
L 266.202198 180.844977 
L 268.041758 184.568112 
L 269.881319 185.993375 
L 271.720879 182.328414 
L 273.56044 180.195368 
L 275.4 181.029195 
L 277.23956 189.803771 
L 279.079121 186.856289 
L 280.918681 187.001724 
L 282.758242 187.932507 
L 284.597802 179.613628 
L 286.437363 179.448802 
L 288.276923 178.120496 
L 290.116484 177.868408 
L 291.956044 184.548721 
L 293.795604 175.289362 
L 295.635165 176.782494 
L 297.474725 175.415405 
L 299.314286 172.884837 
L 301.153846 176.734016 
L 302.993407 182.774414 
L 304.832967 176.540102 
L 306.672527 178.3338 
L 308.512088 177.75206 
L 310.351648 174.455535 
L 312.191209 174.455535 
L 314.030769 170.868139 
L 315.87033 170.189442 
L 317.70989 169.704659 
L 319.549451 168.560571 
L 321.389011 168.337571 
L 323.228571 166.233612 
L 325.068132 167.067439 
L 326.907692 160.833127 
L 328.747253 158.283167 
L 330.586813 160.348344 
L 332.426374 162.99526 
L 334.265934 167.44557 
L 336.105495 166.86383 
L 337.945055 169.423485 
L 339.784615 167.920657 
L 341.624176 165.167089 
L 343.463736 164.808349 
L 345.303297 166.417829 
L 347.142857 164.934393 
L 348.982418 156.596122 
L 350.821978 159.64056 
L 354.501099 156.121034 
L 356.340659 154.530945 
L 358.18022 154.96725 
L 360.01978 154.511554 
L 361.859341 155.568381 
L 365.538462 154.511554 
L 369.217582 155.054511 
L 371.057143 153.154161 
L 372.896703 150.759332 
L 374.736264 153.057204 
L 376.575824 160.833127 
L 378.415385 162.675303 
L 380.254945 169.985834 
L 382.094505 170.974791 
L 383.934066 170.276703 
L 385.773626 172.157662 
L 387.613187 171.837705 
L 389.452747 176.734016 
L 391.292308 175.997145 
L 393.131868 178.760409 
L 394.971429 189.929814 
L 396.810989 188.359117 
L 398.650549 191.03512 
L 400.49011 189.910423 
L 402.32967 189.163857 
L 404.169231 191.791382 
L 406.008791 189.590466 
L 407.848352 191.054511 
L 409.687912 191.752599 
L 411.527473 186.29394 
L 413.367033 182.20237 
L 415.206593 179.119149 
L 417.046154 180.398977 
L 418.885714 175.977754 
L 420.725275 174.639752 
L 422.564835 176.617668 
L 424.404396 175.182709 
L 426.243956 173.321142 
L 428.083516 168.812658 
L 429.923077 167.697657 
L 431.762637 164.808349 
L 433.602198 162.849825 
L 435.441758 164.982871 
L 437.281319 162.840129 
L 439.120879 162.733477 
L 440.96044 161.860867 
L 442.8 161.841476 
L 444.63956 163.819391 
L 446.479121 161.036736 
L 448.318681 160.454996 
L 450.158242 160.813736 
L 451.997802 157.507514 
L 453.837363 155.713816 
L 455.676923 156.053165 
L 457.516484 157.585079 
L 459.356044 152.708161 
L 461.195604 152.504552 
L 463.035165 152.446378 
L 464.874725 151.651333 
L 466.714286 150.313332 
L 468.553846 148.723243 
L 470.393407 147.763372 
L 472.232967 151.428333 
L 474.072527 152.087638 
L 475.912088 152.184595 
L 477.751648 154.637598 
L 479.591209 153.987988 
L 481.430769 156.6446 
L 483.27033 154.724859 
L 486.949451 156.13073 
L 488.789011 157.168166 
L 490.628571 154.45338 
L 492.468132 155.77199 
L 494.307692 156.082252 
L 496.147253 164.139348 
L 497.986813 165.089523 
L 499.826374 164.168435 
L 501.665934 166.417829 
L 503.505495 167.348613 
L 505.345055 168.037005 
L 507.184615 171.430487 
L 509.024176 168.11457 
L 510.863736 167.271048 
L 512.703297 170.625747 
L 514.542857 171.091139 
L 516.382418 171.798923 
L 518.221978 168.589658 
L 520.061538 167.338917 
L 523.740659 166.039698 
L 525.58022 165.167089 
L 527.41978 168.609049 
L 529.259341 160.765257 
L 531.098901 159.766604 
L 532.938462 159.068516 
L 534.778022 153.551683 
L 536.617582 152.960248 
L 538.457143 155.859251 
L 540.296703 149.285591 
L 542.136264 148.597199 
L 545.815385 148.141503 
L 547.654945 145.678804 
L 549.494505 145.795152 
L 551.334066 146.464153 
L 553.173626 141.247886 
L 555.013187 143.322758 
L 556.852747 145.6885 
L 558.692308 147.036197 
L 560.531868 146.861675 
L 562.371429 144.796499 
L 564.210989 144.049933 
L 566.050549 144.59289 
L 567.89011 146.338109 
L 569.72967 149.111069 
L 571.569231 149.431026 
L 573.408791 150.691462 
L 575.248352 150.449071 
L 577.087912 149.217722 
L 578.927473 151.127767 
L 580.767033 148.820199 
L 582.606593 152.320334 
L 584.446154 152.834204 
L 586.285714 155.141772 
L 588.125275 151.864638 
L 589.964835 149.935201 
L 591.804396 148.568112 
L 593.643956 150.846593 
L 595.483516 151.942203 
L 597.323077 150.177592 
L 599.162637 152.203986 
L 601.002198 155.044816 
L 602.841758 154.81212 
L 604.681319 155.956208 
L 606.520879 154.695772 
L 608.36044 154.075249 
L 610.2 155.151468 
L 612.03956 160.891301 
L 613.879121 165.40948 
L 615.718681 164.071479 
L 617.558242 175.328144 
L 619.397802 175.454188 
L 621.237363 187.573768 
L 623.076923 194.147428 
L 624.916484 194.147428 
L 626.756044 193.972906 
L 628.595604 194.215298 
L 630.435165 189.047509 
L 632.274725 191.422946 
L 634.114286 194.477081 
L 635.953846 194.845516 
L 637.793407 195.078212 
L 639.632967 196.358039 
L 641.472527 193.585079 
L 643.312088 189.435335 
L 645.151648 180.321411 
L 646.991209 185.624939 
L 648.830769 186.109723 
L 650.67033 189.454727 
L 654.349451 189.745597 
L 656.189011 191.471425 
L 658.028571 216.195368 
L 659.868132 219.346458 
L 661.707692 219.346458 
L 663.547253 219.142849 
L 665.386813 226.026771 
L 667.226374 231.010342 
L 669.065934 231.097603 
L 670.905495 228.121034 
L 672.745055 230.496472 
L 674.584615 226.74425 
L 676.424176 223.467116 
L 678.263736 219.685807 
L 680.103297 218.764719 
L 681.942857 216.767412 
L 683.782418 216.738325 
L 685.621978 216.243846 
L 687.461538 217.019499 
L 689.301099 218.56111 
L 691.140659 219.00711 
L 692.98022 215.565149 
L 694.81978 215.952976 
L 696.659341 215.894802 
L 698.498901 218.774414 
L 700.338462 218.648371 
L 702.178022 225.057204 
L 704.017582 228.57673 
L 705.857143 227.238729 
L 707.696703 223.942203 
L 709.536264 224.010073 
L 711.375824 226.81212 
L 713.215385 225.87164 
L 715.054945 231.029733 
L 716.894505 233.628171 
L 718.734066 236.517479 
L 720.573626 241.714355 
L 724.252747 241.79192 
L 726.092308 247.977754 
L 727.931868 253.009803 
L 729.771429 252.786803 
L 731.610989 252.098411 
L 733.450549 252.437759 
L 735.29011 262.724859 
L 737.12967 264.314947 
L 738.969231 268.687692 
L 740.808791 282.145273 
L 742.648352 286.973714 
L 744.487912 286.964018 
L 746.327473 281.873795 
L 748.167033 281.039968 
L 750.006593 283.04697 
L 751.846154 286.964018 
L 753.685714 291.336763 
L 755.525275 298.424293 
L 757.364835 300.790035 
L 759.204396 305.763911 
L 761.043956 302.060167 
L 762.883516 305.783302 
L 766.562637 305.482736 
L 768.402198 307.257043 
L 770.241758 307.257043 
L 772.081319 307.8 
L 773.920879 302.263776 
L 775.76044 300.857905 
L 777.6 303.601778 
L 777.6 303.601778 
" style="fill:none;stroke:#1f77b4;stroke-linecap:square;stroke-width:1.5;"/>
   </g>
   <g id="line2d_30">
    <path clip-path="url(#pf0812e4cf2)" d="M 108 144.534716 
L 109.83956 146.696849 
L 111.679121 147.433719 
L 113.518681 145.271586 
L 115.358242 146.318718 
L 117.197802 146.871371 
L 119.037363 148.32572 
L 120.876923 149.295287 
L 122.716484 148.073633 
L 124.556044 148.10272 
L 126.395604 150.226071 
L 128.235165 150.226071 
L 130.074725 150.410288 
L 131.914286 150.264853 
L 133.753846 147.94759 
L 135.593407 148.888069 
L 137.432967 150.196984 
L 139.272527 150.100027 
L 141.112088 148.403286 
L 142.951648 149.188635 
L 144.791209 147.734285 
L 146.630769 126.888608 
L 150.30989 128.876219 
L 152.149451 126.558955 
L 153.989011 125.579693 
L 155.828571 126.985564 
L 157.668132 130.766873 
L 159.507692 136.400054 
L 161.347253 136.690924 
L 165.026374 136.690924 
L 166.865934 146.250848 
L 168.705495 146.221761 
L 174.224176 160.658605 
L 176.063736 158.244385 
L 177.903297 159.698734 
L 179.742857 155.452033 
L 181.582418 153.561379 
L 183.421978 152.737248 
L 185.261538 159.960517 
L 187.101099 160.930083 
L 188.940659 160.949475 
L 190.78022 154.055858 
L 192.61978 156.091947 
L 194.459341 155.122381 
L 196.298901 156.043469 
L 198.138462 157.982602 
L 199.978022 156.460382 
L 203.657143 157.992297 
L 205.496703 157.313601 
L 207.336264 160.833127 
L 211.015385 160.87191 
L 212.854945 162.083867 
L 214.694505 165.264045 
L 216.534066 163.344304 
L 218.373626 164.517479 
L 220.213187 164.866523 
L 222.052747 163.780609 
L 223.892308 164.410827 
L 225.731868 165.264045 
L 227.571429 162.326259 
L 229.410989 160.038082 
L 231.250549 161.511823 
L 233.09011 160.484083 
L 234.92967 157.051818 
L 236.769231 155.568381 
L 238.608791 152.805117 
L 240.448352 151.796768 
L 242.287912 151.90342 
L 245.967033 150.924158 
L 249.646154 151.515594 
L 251.485714 150.13881 
L 253.325275 149.246809 
L 255.164835 149.111069 
L 257.004396 149.954592 
L 258.843956 148.587503 
L 260.683516 148.451764 
L 262.523077 149.314678 
L 264.362637 151.253811 
L 266.202198 149.731592 
L 268.041758 148.374199 
L 269.881319 149.237113 
L 271.720879 149.595852 
L 273.56044 151.447724 
L 275.4 152.426986 
L 277.23956 152.136116 
L 282.758242 148.723243 
L 284.597802 148.849286 
L 286.437363 149.644331 
L 288.276923 148.781417 
L 290.116484 148.383894 
L 291.956044 144.447455 
L 293.795604 143.128845 
L 295.635165 138.087099 
L 297.474725 125.482736 
L 299.314286 129.787611 
L 301.153846 128.96348 
L 304.832967 126.801347 
L 306.672527 127.305521 
L 308.512088 127.945435 
L 310.351648 129.496741 
L 314.030769 124.833127 
L 315.87033 127.945435 
L 317.70989 127.945435 
L 319.549451 128.992567 
L 321.389011 129.283437 
L 323.228571 128.924697 
L 325.068132 130.699004 
L 326.907692 128.449609 
L 328.747253 128.507783 
L 330.586813 129.099219 
L 332.426374 128.469001 
L 334.265934 128.643523 
L 336.105495 129.176784 
L 337.945055 130.941395 
L 339.784615 130.650525 
L 341.624176 126.99526 
L 343.463736 127.480043 
L 345.303297 127.848478 
L 347.142857 121.80808 
L 348.982418 123.582386 
L 352.661538 127.344304 
L 354.501099 129.031349 
L 356.340659 127.635174 
L 358.18022 129.807002 
L 361.859341 131.435874 
L 365.538462 129.205871 
L 367.378022 128.459305 
L 369.217582 125.492432 
L 371.057143 123.718126 
L 372.896703 124.435605 
L 374.736264 124.377431 
L 376.575824 124.755562 
L 378.415385 128.071479 
L 380.254945 130.79596 
L 382.094505 130.553569 
L 383.934066 130.941395 
L 385.773626 130.834743 
L 387.613187 131.212874 
L 389.452747 132.531484 
L 391.292308 131.319526 
L 393.131868 134.140964 
L 394.971429 137.408403 
L 396.810989 138.193752 
L 398.650549 137.107837 
L 400.49011 135.721357 
L 402.32967 134.102182 
L 404.169231 137.485968 
L 406.008791 136.390358 
L 407.848352 134.88753 
L 409.687912 134.325182 
L 411.527473 134.30579 
L 413.367033 133.025963 
L 415.206593 132.98718 
L 417.046154 133.355615 
L 418.885714 132.948398 
L 420.725275 133.762833 
L 422.564835 133.617398 
L 424.404396 133.617398 
L 426.243956 134.102182 
L 429.923077 133.92766 
L 431.762637 134.916617 
L 433.602198 135.188096 
L 435.441758 136.952707 
L 437.281319 137.902882 
L 439.120879 139.366927 
L 440.96044 139.40571 
L 442.8 139.095448 
L 444.63956 139.657797 
L 446.479121 137.602316 
L 448.318681 137.515055 
L 450.158242 137.699273 
L 451.997802 137.030272 
L 453.837363 137.185403 
L 455.676923 136.991489 
L 457.516484 136.574576 
L 459.356044 133.976138 
L 463.035165 134.800269 
L 464.874725 135.905575 
L 466.714286 134.189442 
L 468.553846 134.170051 
L 470.393407 133.675572 
L 472.232967 134.9554 
L 475.912088 134.412443 
L 477.751648 133.782225 
L 479.591209 135.440183 
L 481.430769 135.701966 
L 483.27033 133.801616 
L 485.10989 134.751791 
L 486.949451 135.53714 
L 488.789011 136.574576 
L 490.628571 137.069055 
L 492.468132 137.049663 
L 494.307692 141.509669 
L 496.147253 141.470886 
L 497.986813 139.425101 
L 499.826374 140.065015 
L 501.665934 140.045623 
L 503.505495 141.509669 
L 507.184615 142.382278 
L 509.024176 141.606625 
L 510.863736 140.297711 
L 512.703297 141.412712 
L 514.542857 140.152276 
L 516.382418 140.07471 
L 518.221978 141.044277 
L 520.061538 141.092755 
L 521.901099 143.826932 
L 523.740659 141.548451 
L 525.58022 140.65645 
L 527.41978 141.267277 
L 529.259341 139.812928 
L 531.098901 138.077404 
L 532.938462 138.785187 
L 534.778022 134.218529 
L 536.617582 132.938702 
L 538.457143 134.713008 
L 540.296703 133.607703 
L 542.136264 133.113224 
L 543.975824 130.446916 
L 545.815385 130.408134 
L 547.654945 131.106221 
L 549.494505 130.34996 
L 553.173626 130.379047 
L 555.013187 130.989873 
L 556.852747 131.077134 
L 558.692308 131.503744 
L 560.531868 130.883221 
L 562.371429 127.208565 
L 564.210989 128.759871 
L 566.050549 128.187827 
L 567.89011 130.660221 
L 569.72967 132.104875 
L 573.408791 132.958093 
L 575.248352 133.016267 
L 577.087912 132.124266 
L 578.927473 131.697657 
L 580.767033 133.113224 
L 582.606593 131.843092 
L 584.446154 132.512093 
L 586.285714 131.784918 
L 589.964835 134.412443 
L 591.804396 133.811312 
L 593.643956 132.676919 
L 597.323077 133.200485 
L 599.162637 135.682575 
L 601.002198 135.682575 
L 602.841758 135.382009 
L 604.681319 134.431834 
L 606.520879 133.724051 
L 608.36044 134.897226 
L 610.2 136.991489 
L 612.03956 138.678535 
L 613.879121 141.102451 
L 615.718681 146.309022 
L 617.558242 148.248155 
L 619.397802 156.877296 
L 621.237363 158.137732 
L 623.076923 159.737517 
L 624.916484 159.659952 
L 626.756044 154.530945 
L 628.595604 152.601508 
L 630.435165 154.909076 
L 632.274725 153.445031 
L 634.114286 165.777915 
L 635.953846 165.370698 
L 637.793407 168.260005 
L 639.632967 167.649179 
L 641.472527 165.690654 
L 643.312088 167.193482 
L 645.151648 168.483006 
L 646.991209 169.481659 
L 648.830769 169.394398 
L 650.67033 175.289362 
L 652.50989 174.911231 
L 654.349451 177.315755 
L 656.189011 177.315755 
L 658.028571 186.041853 
L 659.868132 185.169243 
L 661.707692 187.370159 
L 663.547253 189.115378 
L 665.386813 189.774684 
L 667.226374 194.864907 
L 669.065934 195.834473 
L 670.905495 195.834473 
L 672.745055 196.707083 
L 674.584615 198.617129 
L 676.424176 201.089523 
L 680.103297 201.021654 
L 681.942857 200.110261 
L 683.782418 201.564611 
L 685.621978 205.985834 
L 687.461538 205.035658 
L 689.301099 205.888877 
L 691.140659 204.066092 
L 692.98022 201.739133 
L 694.81978 202.126959 
L 696.659341 198.937086 
L 698.498901 200.391435 
L 700.338462 200.391435 
L 702.178022 203.300135 
L 704.017582 206.44153 
L 705.857143 203.901266 
L 707.696703 203.067439 
L 709.536264 202.951091 
L 711.375824 202.291786 
L 713.215385 205.006572 
L 715.054945 205.006572 
L 716.894505 203.067439 
L 718.734066 205.985834 
L 720.573626 207.643792 
L 722.413187 209.582925 
L 726.092308 217.300673 
L 727.931868 222.255158 
L 729.771429 219.957285 
L 731.610989 220.442068 
L 733.450549 225.212335 
L 735.29011 226.104336 
L 737.12967 228.334339 
L 738.969231 228.334339 
L 740.808791 258.390897 
L 742.648352 272.003609 
L 744.487912 272.003609 
L 746.327473 268.551953 
L 748.167033 266.195906 
L 750.006593 269.220953 
L 751.846154 270.006302 
L 753.685714 271.577 
L 755.525275 269.938433 
L 757.364835 272.187827 
L 759.204396 274.117264 
L 761.043956 278.713008 
L 762.883516 279.915271 
L 766.562637 278.984487 
L 768.402198 279.217183 
L 770.241758 278.848748 
L 772.081319 280.40975 
L 773.920879 277.617398 
L 775.76044 276.153353 
L 777.6 273.215567 
L 777.6 273.215567 
" style="fill:none;stroke:#ff7f0e;stroke-linecap:square;stroke-width:1.5;"/>
   </g>
   <g id="line2d_31">
    <path clip-path="url(#pf0812e4cf2)" d="M 108 61.34592 
L 109.83956 61.879181 
L 111.679121 59.930353 
L 113.518681 59.930353 
L 115.358242 57.661567 
L 117.197802 59.125613 
L 119.037363 62.034312 
L 120.876923 63.003878 
L 124.556044 63.973445 
L 126.395604 68.336493 
L 128.235165 71.245193 
L 130.074725 71.235497 
L 131.914286 70.246539 
L 133.753846 71.94328 
L 135.593407 72.195368 
L 137.432967 71.700889 
L 139.272527 65.805925 
L 141.112088 64.283706 
L 142.951648 61.908268 
L 144.791209 61.898573 
L 146.630769 64.826663 
L 148.47033 68.79219 
L 150.30989 67.192405 
L 152.149451 64.138271 
L 153.989011 67.725667 
L 155.828571 68.714624 
L 157.668132 71.642715 
L 159.507692 75.462806 
L 161.347253 75.94759 
L 165.026374 75.94759 
L 166.865934 81.095987 
L 168.705495 84.237382 
L 170.545055 83.238729 
L 172.384615 83.296903 
L 174.224176 86.166819 
L 177.903297 88.15443 
L 179.742857 87.650256 
L 181.582418 85.332992 
L 183.421978 84.499165 
L 185.261538 90.684999 
L 187.101099 90.539564 
L 188.940659 89.085214 
L 190.78022 87.853865 
L 192.61978 87.524212 
L 194.459341 86.370428 
L 196.298901 84.93547 
L 198.138462 84.35373 
L 199.978022 84.363426 
L 201.817582 85.827471 
L 203.657143 86.748559 
L 205.496703 87.853865 
L 207.336264 87.902343 
L 209.175824 88.425909 
L 211.015385 88.532561 
L 212.854945 91.412173 
L 214.694505 90.655912 
L 216.534066 90.937086 
L 218.373626 90.869216 
L 220.213187 90.209911 
L 222.052747 87.301212 
L 223.892308 85.507514 
L 225.731868 86.312254 
L 227.571429 84.71247 
L 229.410989 83.83986 
L 231.250549 80.582117 
L 233.09011 79.699811 
L 234.92967 81.532292 
L 236.769231 81.125074 
L 242.287912 77.072287 
L 244.127473 78.313332 
L 245.967033 82.666685 
L 247.806593 84.111339 
L 249.646154 84.586426 
L 251.485714 84.101643 
L 253.325275 84.57673 
L 255.164835 83.607164 
L 257.004396 84.567035 
L 260.683516 84.557339 
L 262.523077 83.820469 
L 264.362637 85.391166 
L 266.202198 87.436951 
L 268.041758 89.851172 
L 269.881319 91.770913 
L 271.720879 89.356693 
L 273.56044 91.761217 
L 275.4 91.28613 
L 277.23956 84.993644 
L 279.079121 81.609857 
L 280.918681 75.307676 
L 282.758242 71.933585 
L 284.597802 73.84363 
L 286.437363 69.965365 
L 288.276923 69.480582 
L 290.116484 70.91554 
L 291.956044 65.582925 
L 293.795604 61.685268 
L 295.635165 59.73644 
L 297.474725 59.726744 
L 299.314286 63.110531 
L 301.153846 61.63679 
L 302.993407 58.243307 
L 304.832967 59.193482 
L 306.672527 55.8 
L 310.351648 58.708699 
L 312.191209 58.708699 
L 314.030769 56.527175 
L 315.87033 60.395745 
L 317.70989 60.589658 
L 319.549451 63.488661 
L 321.389011 63.478966 
L 323.228571 64.690924 
L 325.068132 67.69658 
L 326.907692 68.65645 
L 328.747253 71.642715 
L 330.586813 70.188365 
L 334.265934 72.098411 
L 336.105495 72.069324 
L 337.945055 71.565149 
L 341.624176 66.261621 
L 343.463736 67.85171 
L 345.303297 67.609319 
L 347.142857 63.973445 
L 348.982418 67.85171 
L 350.821978 70.033235 
L 352.661538 71.245193 
L 354.501099 71.235497 
L 356.340659 74.628979 
L 358.18022 77.537678 
L 360.01978 77.547374 
L 361.859341 77.19833 
L 363.698901 76.083329 
L 365.538462 72.205063 
L 367.378022 72.689846 
L 371.057143 75.58885 
L 372.896703 76.073633 
L 374.736264 75.58885 
L 376.575824 74.376892 
L 378.415385 75.104067 
L 380.254945 75.579154 
L 382.094505 74.124805 
L 383.934066 75.094371 
L 387.613187 73.155238 
L 389.452747 76.054242 
L 391.292308 76.054242 
L 393.131868 81.386857 
L 394.971429 82.841207 
L 396.810989 83.568381 
L 398.650549 81.377161 
L 400.49011 80.407595 
L 402.32967 81.619553 
L 404.169231 81.367466 
L 406.008791 81.619553 
L 407.848352 83.064207 
L 409.687912 80.630595 
L 411.527473 81.115378 
L 413.367033 80.872987 
L 415.206593 82.317641 
L 417.046154 82.792728 
L 418.885714 83.519903 
L 420.725275 83.519903 
L 422.564835 81.328683 
L 424.404396 82.055858 
L 426.243956 81.803771 
L 428.083516 80.107029 
L 429.923077 80.834204 
L 431.762637 82.860598 
L 433.602198 83.490816 
L 435.441758 89.046431 
L 437.281319 92.449609 
L 439.120879 91.964826 
L 440.96044 92.924697 
L 442.8 93.399785 
L 444.63956 95.814005 
L 446.479121 94.117264 
L 448.318681 97.510746 
L 450.158242 96.890224 
L 451.997802 96.793267 
L 453.837363 95.804309 
L 455.676923 96.056396 
L 457.516484 94.834743 
L 459.356044 92.410827 
L 461.195604 92.643523 
L 463.035165 91.664261 
L 464.874725 93.11861 
L 466.714286 92.866523 
L 468.553846 92.866523 
L 470.393407 94.79596 
L 472.232967 92.352653 
L 474.072527 90.898303 
L 475.912088 91.858174 
L 477.751648 93.322219 
L 479.591209 96.230918 
L 481.430769 96.230918 
L 483.27033 95.484352 
L 485.10989 93.787611 
L 486.949451 92.818045 
L 488.789011 89.414867 
L 490.628571 88.930083 
L 492.468132 87.475734 
L 494.307692 85.51721 
L 496.147253 87.698734 
L 497.986813 88.406518 
L 499.826374 88.164126 
L 501.665934 86.224993 
L 503.505495 86.690385 
L 505.345055 84.518556 
L 507.184615 83.539294 
L 509.024176 84.004686 
L 510.863736 84.227687 
L 512.703297 87.601778 
L 514.542857 87.34969 
L 516.382418 85.410558 
L 518.221978 82.74425 
L 520.061538 81.270509 
L 521.901099 81.997684 
L 525.58022 81.493509 
L 527.41978 82.695772 
L 529.259341 79.777377 
L 531.098901 76.61659 
L 532.938462 76.61659 
L 534.778022 77.334069 
L 536.617582 76.61659 
L 538.457143 74.910154 
L 540.296703 69.558147 
L 543.975824 67.609319 
L 545.815385 69.984756 
L 547.654945 71.177323 
L 549.494505 69.267277 
L 551.334066 74.115109 
L 553.173626 73.135847 
L 555.013187 71.380932 
L 556.852747 71.099758 
L 558.692308 74.027848 
L 560.531868 73.184325 
L 562.371429 74.929545 
L 564.210989 73.135847 
L 566.050549 75.07498 
L 567.89011 78.58481 
L 569.72967 81.008726 
L 575.248352 80.969943 
L 577.087912 79.728898 
L 578.927473 81.668031 
L 580.767033 81.42564 
L 582.606593 81.910423 
L 584.446154 81.910423 
L 586.285714 77.915809 
L 588.125275 80.979639 
L 589.964835 80.931161 
L 591.804396 80.688769 
L 593.643956 80.931161 
L 595.483516 79.45742 
L 597.323077 80.688769 
L 599.162637 81.406248 
L 601.002198 81.891032 
L 602.841758 80.184595 
L 604.681319 79.932507 
L 606.520879 77.227417 
L 610.2 77.169243 
L 612.03956 80.378508 
L 613.879121 81.803771 
L 615.718681 83.025424 
L 617.558242 83.723512 
L 619.397802 86.884298 
L 621.237363 85.381471 
L 623.076923 85.090601 
L 624.916484 84.673687 
L 626.756044 83.510207 
L 628.595604 84.06286 
L 630.435165 84.799731 
L 632.274725 84.537948 
L 634.114286 84.945166 
L 635.953846 86.428602 
L 637.793407 89.96752 
L 639.632967 89.763911 
L 641.472527 88.270778 
L 643.312088 89.211258 
L 645.151648 89.007649 
L 646.991209 89.841476 
L 648.830769 90.34565 
L 650.67033 90.384433 
L 652.50989 94.64083 
L 654.349451 95.174091 
L 656.189011 98.567573 
L 658.028571 115.059898 
L 659.868132 111.957285 
L 661.707692 113.033504 
L 663.547253 113.498896 
L 665.386813 117.0669 
L 667.226374 118.540641 
L 669.065934 114.00307 
L 670.905495 114.07094 
L 672.745055 115.350768 
L 674.584615 111.181632 
L 676.424176 108.30202 
L 678.263736 110.861675 
L 680.103297 109.775761 
L 681.942857 108.990412 
L 683.782418 112.742634 
L 685.621978 116.136116 
L 687.461538 115.16655 
L 689.301099 117.561379 
L 691.140659 120.188904 
L 692.98022 123.34969 
L 696.659341 122.360733 
L 698.498901 129.613089 
L 700.338462 128.653218 
L 702.178022 133.976138 
L 704.017582 144.398977 
L 705.857143 135.430487 
L 707.696703 135.924966 
L 709.536264 133.016267 
L 711.375824 129.331915 
L 713.215385 129.341611 
L 715.054945 125.686345 
L 716.894505 125.67665 
L 718.734066 124.096256 
L 722.413187 133.63679 
L 724.252747 133.888877 
L 726.092308 133.888877 
L 727.931868 137.272664 
L 729.771429 135.818314 
L 731.610989 135.31414 
L 733.450549 137.670186 
L 735.29011 141.053973 
L 737.12967 138.106491 
L 738.969231 137.030272 
L 740.808791 145.300673 
L 742.648352 148.093025 
L 744.487912 144.195368 
L 746.327473 142.479235 
L 748.167033 140.006841 
L 750.006593 140.65645 
L 751.846154 141.975061 
L 753.685714 143.710584 
L 757.364835 137.466577 
L 759.204396 138.717318 
L 761.043956 140.889146 
L 762.883516 144.185672 
L 764.723077 145.417021 
L 766.562637 144.398977 
L 768.402198 143.041584 
L 770.241758 143.923889 
L 772.081319 146.299327 
L 773.920879 142.702235 
L 775.76044 138.542796 
L 777.6 133.801616 
L 777.6 133.801616 
" style="fill:none;stroke:#2ca02c;stroke-linecap:square;stroke-width:1.5;"/>
   </g>
   <g id="patch_3">
    <path d="M 108 320.4 
L 108 43.2 
" style="fill:none;stroke:#000000;stroke-linecap:square;stroke-linejoin:miter;stroke-width:0.8;"/>
   </g>
   <g id="patch_4">
    <path d="M 777.6 320.4 
L 777.6 43.2 
" style="fill:none;stroke:#000000;stroke-linecap:square;stroke-linejoin:miter;stroke-width:0.8;"/>
   </g>
   <g id="patch_5">
    <path d="M 108 320.4 
L 777.6 320.4 
" style="fill:none;stroke:#000000;stroke-linecap:square;stroke-linejoin:miter;stroke-width:0.8;"/>
   </g>
   <g id="patch_6">
    <path d="M 108 43.2 
L 777.6 43.2 
" style="fill:none;stroke:#000000;stroke-linecap:square;stroke-linejoin:miter;stroke-width:0.8;"/>
   </g>
   <g id="text_16">
    <!-- 中债国债收益率曲线 -->
    <defs>
     <path d="M 8.203125 62.0625 
L 45.796875 62.0625 
L 45.796875 83.34375 
L 54.203125 83.34375 
L 54.203125 62.0625 
L 92.1875 62.0625 
L 92.1875 17.53125 
L 84.1875 17.53125 
L 84.1875 22.796875 
L 54.203125 22.796875 
L 54.203125 -13.53125 
L 45.796875 -13.53125 
L 45.796875 22.796875 
L 16.21875 22.796875 
L 16.21875 17.53125 
L 8.203125 17.53125 
z
M 84.1875 54.828125 
L 54.203125 54.828125 
L 54.203125 30.03125 
L 84.1875 30.03125 
z
M 16.21875 30.03125 
L 45.796875 30.03125 
L 45.796875 54.828125 
L 16.21875 54.828125 
z
" id="MicrosoftYaHei-4e2d"/>
     <path d="M 26.859375 47.40625 
L 58.984375 47.40625 
L 58.984375 54.34375 
L 34.1875 54.34375 
L 34.1875 60.5 
L 58.984375 60.5 
L 58.984375 67.328125 
L 31.0625 67.328125 
L 31.0625 73.484375 
L 58.984375 73.484375 
L 58.984375 82.171875 
L 66.3125 82.171875 
L 66.3125 73.484375 
L 95.125 73.484375 
L 95.125 67.328125 
L 66.3125 67.328125 
L 66.3125 60.5 
L 90.328125 60.5 
L 90.328125 54.34375 
L 66.3125 54.34375 
L 66.3125 47.40625 
L 97.953125 47.40625 
L 97.953125 41.265625 
L 26.859375 41.265625 
z
M 1.265625 35.203125 
Q 12.890625 54.25 19.34375 82.375 
L 26.46875 81.109375 
Q 23.640625 70.65625 20.40625 61.375 
L 20.40625 -13.71875 
L 13.28125 -13.71875 
L 13.28125 44.09375 
Q 8.890625 35.015625 3.90625 27.390625 
Q 2.734375 31.390625 1.265625 35.203125 
z
M 34.859375 34.625 
L 89.15625 34.625 
L 89.15625 4.4375 
L 82.03125 4.4375 
L 82.03125 28.265625 
L 42 28.265625 
L 42 3.953125 
L 34.859375 3.953125 
z
M 58.5 25.140625 
L 65.625 25.140625 
Q 65.625 17.046875 64.0625 10.984375 
Q 80.5625 2.78125 97.265625 -7.765625 
L 92.875 -14.015625 
Q 77.546875 -3.953125 61.921875 4.9375 
Q 60.546875 2.09375 58.6875 0.046875 
Q 50.875 -8.9375 31.453125 -13.921875 
Q 28.515625 -8.453125 27.25 -6.890625 
Q 45.90625 -2.875 52.25 3.859375 
Q 58.5 9.8125 58.5 25.140625 
z
" id="MicrosoftYaHei-503a"/>
     <path d="M 7.328125 78.078125 
L 92.78125 78.078125 
L 92.78125 -13.03125 
L 85.25 -13.03125 
L 85.25 -8.15625 
L 14.84375 -8.15625 
L 14.84375 -13.140625 
L 7.328125 -13.140625 
z
M 85.25 71.140625 
L 14.84375 71.140625 
L 14.84375 -1.21875 
L 85.25 -1.21875 
z
M 19.34375 15.765625 
L 46.296875 15.765625 
L 46.296875 35.109375 
L 22.75 35.109375 
L 22.75 41.75 
L 46.296875 41.75 
L 46.296875 54.828125 
L 20.90625 54.828125 
L 20.90625 61.46875 
L 79.109375 61.46875 
L 79.109375 54.828125 
L 53.515625 54.828125 
L 53.515625 41.75 
L 77.15625 41.75 
L 77.15625 35.109375 
L 53.515625 35.109375 
L 53.515625 15.765625 
L 80.671875 15.765625 
L 80.671875 9.125 
L 19.34375 9.125 
z
M 58.59375 28.859375 
L 64.0625 32.953125 
Q 69.4375 27.390625 73.25 22.515625 
L 67.484375 18.109375 
Q 62.796875 24.46875 58.59375 28.859375 
z
" id="MicrosoftYaHei-56fd"/>
     <path d="M 35.0625 41.546875 
Q 47.5625 63.234375 53.125 83.453125 
L 61.03125 81.203125 
Q 57.90625 72.171875 54.5 63.921875 
L 97.078125 63.921875 
L 97.078125 56.6875 
L 85.59375 56.6875 
Q 84.125 28.421875 71.09375 10.640625 
Q 81 1.859375 99.21875 -4.640625 
Q 96.1875 -8.453125 93.65625 -12.453125 
Q 76.265625 -5.03125 65.921875 4.6875 
Q 56.5 -4.59375 39.84375 -13.328125 
Q 37.796875 -10.109375 34.859375 -6.78125 
Q 51.515625 1.5625 60.59375 10.5 
Q 49.3125 24.609375 46 45.5625 
Q 43.265625 40.234375 40.328125 35.296875 
Q 38.484375 38.140625 35.0625 41.546875 
z
M 26.265625 82.671875 
L 33.6875 82.671875 
L 33.6875 -12.75 
L 26.265625 -12.75 
L 26.265625 17.390625 
Q 20.3125 14.0625 14.15625 10.015625 
Q 11.625 8.15625 9.1875 5.609375 
L 3.609375 12.15625 
Q 6.640625 15.375 6.640625 20.5625 
L 6.640625 69 
L 14.0625 69 
L 14.0625 19 
Q 19.875 22.078125 26.265625 25.53125 
z
M 77.875 56.6875 
L 51.90625 56.6875 
Q 53.328125 32.859375 65.671875 16.546875 
Q 76.8125 32.234375 77.875 56.6875 
z
" id="MicrosoftYaHei-6536"/>
     <path d="M 1.765625 -1.609375 
L 15.921875 -1.609375 
L 15.921875 31.203125 
L 84.46875 31.203125 
L 84.46875 -1.609375 
L 97.953125 -1.609375 
L 97.953125 -8.453125 
L 1.765625 -8.453125 
z
M 4.109375 64.3125 
L 57.375 64.3125 
Q 66.015625 72.65625 74.125 83.34375 
L 81.25 78.859375 
Q 74.609375 71.140625 67.671875 64.3125 
L 96.484375 64.3125 
L 96.484375 57.46875 
L 4.109375 57.46875 
z
M 77.4375 24.5625 
L 63.765625 24.5625 
L 63.765625 -1.609375 
L 77.4375 -1.609375 
z
M 22.953125 -1.609375 
L 36.53125 -1.609375 
L 36.53125 24.5625 
L 22.953125 24.5625 
z
M 43.359375 -1.609375 
L 56.9375 -1.609375 
L 56.9375 24.5625 
L 43.359375 24.5625 
z
M 36.53125 54.4375 
L 41.3125 48.09375 
Q 26.078125 38.8125 7.125 29.25 
Q 5.171875 33.0625 3.125 36.078125 
Q 21.390625 44.875 36.53125 54.4375 
z
M 59.28125 48.296875 
L 63.28125 54.25 
Q 82.8125 45.0625 97.078125 37.25 
L 92.78125 30.03125 
Q 73.53125 41.15625 59.28125 48.296875 
z
M 19.34375 78.375 
L 24.421875 83.453125 
Q 32.8125 77.390625 39.546875 71.625 
L 33.984375 65.765625 
Q 27.640625 71.828125 19.34375 78.375 
z
" id="MicrosoftYaHei-76ca"/>
     <path d="M 39.453125 31.390625 
Q 40.96875 31.5 61.375 32.515625 
Q 58.9375 35.9375 56.640625 38.921875 
L 61.921875 42.234375 
Q 68.953125 34.421875 74.90625 25.828125 
L 68.65625 21.921875 
Q 66.9375 24.515625 65.28125 26.953125 
Q 46.734375 25.921875 34.578125 24.953125 
Q 32.421875 24.75 29.390625 24.078125 
L 26.953125 30.71875 
Q 29.890625 31.6875 31.34375 32.5625 
Q 39.59375 38.140625 47.65625 45.515625 
Q 40.578125 45.21875 35.546875 44.78125 
Q 33.5 44.484375 31.0625 43.890625 
L 28.125 49.859375 
Q 30.5625 50.734375 32.625 52.59375 
Q 39.203125 58.15625 44.921875 66.0625 
L 3.609375 66.0625 
L 3.609375 72.90625 
L 47.359375 72.90625 
Q 44.96875 77.25 42.875 80.515625 
L 49.90625 83.9375 
Q 53.71875 78.125 56.5 72.90625 
L 96.484375 72.90625 
L 96.484375 66.0625 
L 47.703125 66.0625 
L 52.34375 63.625 
Q 44.4375 55.515625 38.96875 50.734375 
Q 44.53125 50.875 53.515625 51.078125 
Q 57.421875 54.984375 61.328125 59.328125 
L 68.0625 55.421875 
Q 52.546875 40.671875 39.453125 31.390625 
z
M 2.25 15.484375 
L 46.78125 15.484375 
L 46.78125 24.078125 
L 54.5 24.078125 
L 54.5 15.484375 
L 98.046875 15.484375 
L 98.046875 8.640625 
L 54.5 8.640625 
L 54.5 -13.328125 
L 46.78125 -13.328125 
L 46.78125 8.640625 
L 2.25 8.640625 
z
M 26.859375 41.75 
L 30.375 35.984375 
Q 18.75 29.15625 6.640625 22.015625 
L 2.546875 28.5625 
Q 12.703125 33.34375 26.859375 41.75 
z
M 75.875 41.84375 
Q 89.84375 33.9375 97.65625 28.375 
L 93.359375 22.015625 
Q 83.296875 29.828125 71.875 36.578125 
z
M 93.65625 56.109375 
Q 86.234375 49.65625 77.546875 43.890625 
L 72.5625 49.078125 
Q 81.9375 55.21875 88.09375 61.375 
z
M 5.671875 56.78125 
L 10.640625 61.578125 
Q 18.75 55.125 24.8125 49.359375 
L 19.34375 44 
Q 13.671875 49.953125 5.671875 56.78125 
z
" id="MicrosoftYaHei-7387"/>
     <path d="M 33.796875 83.15625 
L 41.015625 83.15625 
L 41.015625 67.046875 
L 58.984375 67.046875 
L 58.984375 83.25 
L 66.21875 83.25 
L 66.21875 67.046875 
L 91.40625 67.046875 
L 91.40625 -12.84375 
L 84.1875 -12.84375 
L 84.1875 -6.390625 
L 15.828125 -6.390625 
L 15.828125 -12.84375 
L 8.59375 -12.84375 
L 8.59375 67.046875 
L 33.796875 67.046875 
z
M 15.828125 0.640625 
L 33.796875 0.640625 
L 33.796875 27.390625 
L 15.828125 27.390625 
z
M 66.21875 0.640625 
L 84.1875 0.640625 
L 84.1875 27.390625 
L 66.21875 27.390625 
z
M 41.015625 0.640625 
L 58.984375 0.640625 
L 58.984375 27.390625 
L 41.015625 27.390625 
z
M 15.828125 34.421875 
L 33.796875 34.421875 
L 33.796875 60.015625 
L 15.828125 60.015625 
z
M 84.1875 60.015625 
L 66.21875 60.015625 
L 66.21875 34.421875 
L 84.1875 34.421875 
z
M 41.015625 34.421875 
L 58.984375 34.421875 
L 58.984375 60.015625 
L 41.015625 60.015625 
z
" id="MicrosoftYaHei-66f2"/>
     <path d="M 30.765625 -5.421875 
Q 49.125 1.171875 62.546875 9.859375 
Q 59.078125 18.703125 57.078125 30.8125 
L 36.234375 27.875 
L 35.0625 34.90625 
L 56.109375 37.84375 
Q 55.28125 44.671875 54.890625 52.4375 
L 37.203125 50.4375 
L 36.03125 57.46875 
L 54.5 59.515625 
Q 53.953125 69.671875 53.515625 82.859375 
L 61.53125 82.859375 
Q 61.765625 70.265625 62.15625 60.40625 
L 94.828125 64.109375 
L 95.703125 57.171875 
L 62.453125 53.328125 
Q 62.796875 45.609375 63.578125 38.875 
L 97.265625 43.609375 
L 98.140625 36.671875 
L 64.5 31.890625 
Q 66.15625 21.78125 69 14.3125 
Q 79.34375 22.125 86.234375 31.390625 
L 92.578125 26.609375 
Q 83.796875 16.015625 72.171875 7.421875 
Q 75.921875 0.6875 81.15625 -2.875 
Q 87.59375 -6.6875 89.453125 1.03125 
Q 90.71875 7.28125 91.5 14.890625 
Q 96 12.9375 99.03125 12.0625 
Q 97.359375 1.515625 95.703125 -3.859375 
Q 92.875 -12.15625 86.03125 -12.15625 
Q 78.90625 -12.15625 72.859375 -6.296875 
Q 68.890625 -2.546875 65.765625 3.03125 
Q 52.34375 -5.671875 35.640625 -12.0625 
Q 33.890625 -9.328125 30.765625 -5.421875 
z
M 14.0625 24.078125 
Q 22.75 25.34375 34.578125 27.390625 
Q 33.984375 23.78125 33.6875 19.875 
Q 17.390625 17.328125 5.078125 15.28125 
L 3.515625 22.609375 
Q 10.296875 29.890625 18.40625 43.359375 
Q 10.5 42.921875 3.515625 42.234375 
L 1.65625 48.875 
Q 10.75 61.28125 20.3125 83.640625 
L 27.734375 80.71875 
Q 17.671875 60.890625 10.453125 49.46875 
Q 16.265625 49.65625 22.21875 49.90625 
Q 25.59375 55.90625 29.203125 62.9375 
L 36.421875 59.328125 
Q 24.515625 38.71875 14.0625 24.078125 
z
M 1.65625 1.515625 
Q 18.84375 5.21875 36.421875 9.625 
Q 36.140625 5.71875 36.140625 2.203125 
Q 19.828125 -1.609375 3.8125 -5.90625 
z
M 69.734375 77.6875 
L 73.921875 82.5625 
Q 80.859375 78.171875 88.765625 72.015625 
L 84.078125 66.359375 
Q 75.984375 73.296875 69.734375 77.6875 
z
" id="MicrosoftYaHei-7ebf"/>
    </defs>
    <g transform="translate(388.8 37.2)scale(0.12 -0.12)">
     <use xlink:href="#MicrosoftYaHei-4e2d"/>
     <use x="100" xlink:href="#MicrosoftYaHei-503a"/>
     <use x="200" xlink:href="#MicrosoftYaHei-56fd"/>
     <use x="300" xlink:href="#MicrosoftYaHei-503a"/>
     <use x="400" xlink:href="#MicrosoftYaHei-6536"/>
     <use x="500" xlink:href="#MicrosoftYaHei-76ca"/>
     <use x="600" xlink:href="#MicrosoftYaHei-7387"/>
     <use x="700" xlink:href="#MicrosoftYaHei-66f2"/>
     <use x="800" xlink:href="#MicrosoftYaHei-7ebf"/>
    </g>
   </g>
   <g id="legend_1">
    <g id="patch_7">
     <path d="M 716.871875 97.639062 
L 770.6 97.639062 
Q 772.6 97.639062 772.6 95.639062 
L 772.6 50.2 
Q 772.6 48.2 770.6 48.2 
L 716.871875 48.2 
Q 714.871875 48.2 714.871875 50.2 
L 714.871875 95.639062 
Q 714.871875 97.639062 716.871875 97.639062 
z
" style="fill:#ffffff;opacity:0.8;stroke:#cccccc;stroke-linejoin:miter;"/>
    </g>
    <g id="line2d_32">
     <path d="M 718.871875 56.69375 
L 738.871875 56.69375 
" style="fill:none;stroke:#1f77b4;stroke-linecap:square;stroke-width:1.5;"/>
    </g>
    <g id="line2d_33"/>
    <g id="text_17">
     <!-- 3月 -->
     <defs>
      <path d="M 25.046875 20.0625 
Q 22.859375 1.21875 10.359375 -14.015625 
Q 7.234375 -10.984375 3.609375 -8.15625 
Q 13.09375 2.09375 16.3125 16.265625 
Q 18.5625 26.703125 18.5625 45.171875 
L 18.5625 78.953125 
L 83.796875 78.953125 
L 83.796875 2.78125 
Q 83.796875 -11.671875 70.015625 -11.671875 
Q 64.265625 -11.671875 55.171875 -11.46875 
Q 54.6875 -7.953125 53.71875 -3.265625 
Q 62.703125 -3.859375 67.875 -3.859375 
Q 75.78125 -3.859375 75.78125 3.859375 
L 75.78125 20.0625 
z
M 25.828125 27.203125 
L 75.78125 27.203125 
L 75.78125 45.953125 
L 26.5625 45.953125 
Q 26.5625 36.1875 25.828125 27.203125 
z
M 26.5625 71.625 
L 26.5625 53.078125 
L 75.78125 53.078125 
L 75.78125 71.625 
z
" id="MicrosoftYaHei-6708"/>
     </defs>
     <g transform="translate(746.871875 60.19375)scale(0.1 -0.1)">
      <use xlink:href="#MicrosoftYaHei-33"/>
      <use x="58.642578" xlink:href="#MicrosoftYaHei-6708"/>
     </g>
    </g>
    <g id="line2d_34">
     <path d="M 718.871875 72.173437 
L 738.871875 72.173437 
" style="fill:none;stroke:#ff7f0e;stroke-linecap:square;stroke-width:1.5;"/>
    </g>
    <g id="line2d_35"/>
    <g id="text_18">
     <!-- 1年 -->
     <defs>
      <path d="M 1.859375 19.96875 
L 17.578125 19.96875 
L 17.578125 47.90625 
L 52.15625 47.90625 
L 52.15625 65.28125 
L 23.4375 65.28125 
Q 16.84375 53.421875 8.6875 43.40625 
Q 6.15625 46.140625 2.640625 48.875 
Q 16.5 64.5 23.4375 83.9375 
L 31.453125 81.6875 
Q 29.390625 76.859375 27.15625 72.3125 
L 94.34375 72.3125 
L 94.34375 65.28125 
L 60.0625 65.28125 
L 60.0625 47.90625 
L 92.671875 47.90625 
L 92.671875 41.0625 
L 60.0625 41.0625 
L 60.0625 19.96875 
L 98.734375 19.96875 
L 98.734375 12.9375 
L 60.0625 12.9375 
L 60.0625 -13.421875 
L 52.15625 -13.421875 
L 52.15625 12.9375 
L 1.859375 12.9375 
z
M 25.296875 19.96875 
L 52.15625 19.96875 
L 52.15625 41.0625 
L 25.296875 41.0625 
z
" id="MicrosoftYaHei-5e74"/>
     </defs>
     <g transform="translate(746.871875 75.673437)scale(0.1 -0.1)">
      <use xlink:href="#MicrosoftYaHei-31"/>
      <use x="58.642578" xlink:href="#MicrosoftYaHei-5e74"/>
     </g>
    </g>
    <g id="line2d_36">
     <path d="M 718.871875 87.653125 
L 738.871875 87.653125 
" style="fill:none;stroke:#2ca02c;stroke-linecap:square;stroke-width:1.5;"/>
    </g>
    <g id="line2d_37"/>
    <g id="text_19">
     <!-- 10年 -->
     <g transform="translate(746.871875 91.153125)scale(0.1 -0.1)">
      <use xlink:href="#MicrosoftYaHei-31"/>
      <use x="58.642578" xlink:href="#MicrosoftYaHei-30"/>
      <use x="117.285156" xlink:href="#MicrosoftYaHei-5e74"/>
     </g>
    </g>
   </g>
  </g>
 </g>
 <defs>
  <clipPath id="pf0812e4cf2">
   <rect height="277.2" width="669.6" x="108" y="43.2"/>
  </clipPath>
 </defs>
</svg>
