<?xml version="1.0" encoding="utf-8" standalone="no"?>
<!DOCTYPE svg PUBLIC "-//W3C//DTD SVG 1.1//EN"
  "http://www.w3.org/Graphics/SVG/1.1/DTD/svg11.dtd">
<!-- Created with matplotlib (http://matplotlib.org/) -->
<svg height="360pt" version="1.1" viewBox="0 0 864 360" width="864pt" xmlns="http://www.w3.org/2000/svg" xmlns:xlink="http://www.w3.org/1999/xlink">
 <defs>
  <style type="text/css">
*{stroke-linecap:butt;stroke-linejoin:round;}
  </style>
 </defs>
 <g id="figure_1">
  <g id="patch_1">
   <path d="M 0 360 
L 864 360 
L 864 0 
L 0 0 
z
" style="fill:#ffffff;"/>
  </g>
  <g id="axes_1">
   <g id="patch_2">
    <path d="M 108 320.4 
L 777.6 320.4 
L 777.6 43.2 
L 108 43.2 
z
" style="fill:#ffffff;"/>
   </g>
   <g id="matplotlib.axis_1">
    <g id="xtick_1">
     <g id="line2d_1">
      <path clip-path="url(#p5426dbdb8a)" d="M 108 320.4 
L 108 43.2 
" style="fill:none;stroke:#b0b0b0;stroke-linecap:square;stroke-width:0.8;"/>
     </g>
     <g id="line2d_2">
      <defs>
       <path d="M 0 0 
L 0 3.5 
" id="m639bbf074d" style="stroke:#000000;stroke-width:0.8;"/>
      </defs>
      <g>
       <use style="stroke:#000000;stroke-width:0.8;" x="108" xlink:href="#m639bbf074d" y="320.4"/>
      </g>
     </g>
     <g id="text_1">
      <!-- 2017-10-26 -->
      <defs>
       <path d="M 51.171875 0 
L 5.171875 0 
L 5.171875 8.296875 
L 27.15625 30.21875 
Q 36.234375 39.3125 39.3125 44.609375 
Q 42.390625 49.90625 42.390625 55.5625 
Q 42.390625 62.015625 38.765625 65.453125 
Q 35.15625 68.890625 28.328125 68.890625 
Q 18.21875 68.890625 9.03125 60.296875 
L 9.03125 70.015625 
Q 17.96875 76.90625 29.828125 76.90625 
Q 40.046875 76.90625 45.953125 71.390625 
Q 51.859375 65.875 51.859375 56.546875 
Q 51.859375 49.515625 48.0625 42.75 
Q 44.28125 35.984375 33.734375 25.53125 
L 16.5 8.6875 
L 16.5 8.5 
L 51.171875 8.5 
z
" id="MicrosoftYaHei-32"/>
       <path d="M 4.4375 36.328125 
Q 4.4375 56.34375 11.078125 66.625 
Q 17.71875 76.90625 30.328125 76.90625 
Q 54.34375 76.90625 54.34375 38.140625 
Q 54.34375 19 47.578125 8.859375 
Q 40.828125 -1.265625 28.609375 -1.265625 
Q 17.09375 -1.265625 10.765625 8.34375 
Q 4.4375 17.96875 4.4375 36.328125 
z
M 14.203125 36.765625 
Q 14.203125 6.640625 29.5 6.640625 
Q 44.53125 6.640625 44.53125 37.25 
Q 44.53125 68.953125 29.78125 68.953125 
Q 14.203125 68.953125 14.203125 36.765625 
z
" id="MicrosoftYaHei-30"/>
       <path d="M 52.59375 0 
L 9.234375 0 
L 9.234375 8.25 
L 26.171875 8.25 
L 26.171875 65.671875 
L 8.796875 60.640625 
L 8.796875 69.4375 
L 35.6875 77.25 
L 35.6875 8.25 
L 52.59375 8.25 
z
" id="MicrosoftYaHei-31"/>
       <path d="M 53.765625 72.3125 
L 24.171875 0 
L 14.265625 0 
L 42.390625 67.1875 
L 4.59375 67.1875 
L 4.59375 75.640625 
L 53.765625 75.640625 
z
" id="MicrosoftYaHei-37"/>
       <path d="M 36.375 26.265625 
L 7.625 26.265625 
L 7.625 33.640625 
L 36.375 33.640625 
z
" id="MicrosoftYaHei-2d"/>
       <path d="M 49.703125 65.921875 
Q 43.796875 68.953125 37.359375 68.953125 
Q 27.546875 68.953125 21.578125 60.40625 
Q 15.625 51.859375 15.53125 37.0625 
L 15.765625 37.0625 
Q 21.140625 47.46875 32.90625 47.46875 
Q 42.71875 47.46875 48.578125 41.0625 
Q 54.4375 34.671875 54.4375 24.078125 
Q 54.4375 12.984375 47.671875 5.859375 
Q 40.921875 -1.265625 30.421875 -1.265625 
Q 18.890625 -1.265625 12.328125 7.734375 
Q 5.765625 16.75 5.765625 33.296875 
Q 5.765625 53.328125 14.375 65.109375 
Q 23 76.90625 37.0625 76.90625 
Q 45.125 76.90625 49.703125 74.703125 
z
M 16.109375 24.75 
Q 16.109375 17.28125 20.09375 11.953125 
Q 24.078125 6.640625 30.671875 6.640625 
Q 36.921875 6.640625 40.828125 11.234375 
Q 44.734375 15.828125 44.734375 23.046875 
Q 44.734375 30.859375 41.046875 35.203125 
Q 37.359375 39.546875 30.5625 39.546875 
Q 24.125 39.546875 20.109375 35.15625 
Q 16.109375 30.765625 16.109375 24.75 
z
" id="MicrosoftYaHei-36"/>
      </defs>
      <g transform="translate(80.217187 335.39375)scale(0.1 -0.1)">
       <use xlink:href="#MicrosoftYaHei-32"/>
       <use x="58.642578" xlink:href="#MicrosoftYaHei-30"/>
       <use x="117.285156" xlink:href="#MicrosoftYaHei-31"/>
       <use x="175.927734" xlink:href="#MicrosoftYaHei-37"/>
       <use x="234.570312" xlink:href="#MicrosoftYaHei-2d"/>
       <use x="277.832031" xlink:href="#MicrosoftYaHei-31"/>
       <use x="336.474609" xlink:href="#MicrosoftYaHei-30"/>
       <use x="395.117188" xlink:href="#MicrosoftYaHei-2d"/>
       <use x="438.378906" xlink:href="#MicrosoftYaHei-32"/>
       <use x="497.021484" xlink:href="#MicrosoftYaHei-36"/>
      </g>
     </g>
    </g>
    <g id="xtick_2">
     <g id="line2d_3">
      <path clip-path="url(#p5426dbdb8a)" d="M 199.978022 320.4 
L 199.978022 43.2 
" style="fill:none;stroke:#b0b0b0;stroke-linecap:square;stroke-width:0.8;"/>
     </g>
     <g id="line2d_4">
      <g>
       <use style="stroke:#000000;stroke-width:0.8;" x="199.978022" xlink:href="#m639bbf074d" y="320.4"/>
      </g>
     </g>
     <g id="text_2">
      <!-- 2018-01-03 -->
      <defs>
       <path d="M 21.390625 39.796875 
Q 7.859375 46.09375 7.859375 58.0625 
Q 7.859375 66.40625 14.203125 71.65625 
Q 20.5625 76.90625 30.421875 76.90625 
Q 39.453125 76.90625 45.3125 71.96875 
Q 51.171875 67.046875 51.171875 59.234375 
Q 51.171875 46.625 37.0625 39.84375 
L 37.0625 39.65625 
Q 53.609375 33.6875 53.609375 19.34375 
Q 53.609375 9.90625 46.796875 4.3125 
Q 39.984375 -1.265625 27.78125 -1.265625 
Q 17.78125 -1.265625 11.46875 4.25 
Q 5.171875 9.765625 5.171875 18.5625 
Q 5.171875 33.015625 21.390625 39.59375 
z
M 41.5 58.109375 
Q 41.5 63.1875 38.328125 66.109375 
Q 35.15625 69.046875 29.734375 69.046875 
Q 24.65625 69.046875 21.09375 65.984375 
Q 17.53125 62.9375 17.53125 58.203125 
Q 17.53125 48.734375 29.390625 43.796875 
Q 41.5 48.828125 41.5 58.109375 
z
M 28.8125 35.25 
Q 14.796875 29.59375 14.796875 19.046875 
Q 14.796875 13.578125 18.890625 10.0625 
Q 23 6.546875 29.59375 6.546875 
Q 35.984375 6.546875 39.984375 10.03125 
Q 44 13.53125 44 18.75 
Q 44 29.734375 28.8125 35.25 
z
" id="MicrosoftYaHei-38"/>
       <path d="M 6.984375 12.640625 
Q 14.75 6.640625 24.515625 6.640625 
Q 32.328125 6.640625 36.890625 10.46875 
Q 41.453125 14.3125 41.453125 20.75 
Q 41.453125 35.109375 20.90625 35.109375 
L 14.59375 35.109375 
L 14.59375 43.015625 
L 20.609375 43.015625 
Q 38.8125 43.015625 38.8125 56.5 
Q 38.8125 68.953125 24.90625 68.953125 
Q 16.9375 68.953125 9.90625 63.578125 
L 9.90625 72.609375 
Q 17.328125 76.90625 27.25 76.90625 
Q 36.921875 76.90625 42.78125 71.84375 
Q 48.640625 66.796875 48.640625 58.734375 
Q 48.640625 43.890625 33.5 39.65625 
L 33.5 39.453125 
Q 41.703125 38.578125 46.453125 33.671875 
Q 51.21875 28.765625 51.21875 21.4375 
Q 51.21875 11.234375 43.875 4.984375 
Q 36.53125 -1.265625 24.3125 -1.265625 
Q 13.578125 -1.265625 6.984375 2.734375 
z
" id="MicrosoftYaHei-33"/>
      </defs>
      <g transform="translate(172.195209 335.39375)scale(0.1 -0.1)">
       <use xlink:href="#MicrosoftYaHei-32"/>
       <use x="58.642578" xlink:href="#MicrosoftYaHei-30"/>
       <use x="117.285156" xlink:href="#MicrosoftYaHei-31"/>
       <use x="175.927734" xlink:href="#MicrosoftYaHei-38"/>
       <use x="234.570312" xlink:href="#MicrosoftYaHei-2d"/>
       <use x="277.832031" xlink:href="#MicrosoftYaHei-30"/>
       <use x="336.474609" xlink:href="#MicrosoftYaHei-31"/>
       <use x="395.117188" xlink:href="#MicrosoftYaHei-2d"/>
       <use x="438.378906" xlink:href="#MicrosoftYaHei-30"/>
       <use x="497.021484" xlink:href="#MicrosoftYaHei-33"/>
      </g>
     </g>
    </g>
    <g id="xtick_3">
     <g id="line2d_5">
      <path clip-path="url(#p5426dbdb8a)" d="M 291.956044 320.4 
L 291.956044 43.2 
" style="fill:none;stroke:#b0b0b0;stroke-linecap:square;stroke-width:0.8;"/>
     </g>
     <g id="line2d_6">
      <g>
       <use style="stroke:#000000;stroke-width:0.8;" x="291.956044" xlink:href="#m639bbf074d" y="320.4"/>
      </g>
     </g>
     <g id="text_3">
      <!-- 2018-03-19 -->
      <defs>
       <path d="M 9.03125 10.25 
Q 15.28125 6.640625 22.515625 6.640625 
Q 32.671875 6.640625 38.25 14.640625 
Q 43.84375 22.65625 43.84375 37.40625 
Q 43.75 37.3125 43.65625 37.40625 
Q 38.671875 27.9375 26.90625 27.9375 
Q 17.390625 27.9375 11.140625 34.46875 
Q 4.890625 41.015625 4.890625 51.46875 
Q 4.890625 62.59375 11.71875 69.75 
Q 18.5625 76.90625 29.4375 76.90625 
Q 40.71875 76.90625 47.0625 68.046875 
Q 53.421875 59.1875 53.421875 42.234375 
Q 53.421875 21.296875 45.21875 10.015625 
Q 37.015625 -1.265625 22.515625 -1.265625 
Q 14.546875 -1.265625 9.03125 1.3125 
z
M 14.546875 52.6875 
Q 14.546875 45.0625 18.453125 40.59375 
Q 22.359375 36.140625 29.25 36.140625 
Q 35.203125 36.140625 39.25 40.203125 
Q 43.3125 44.28125 43.3125 50.09375 
Q 43.3125 58.25 39.28125 63.59375 
Q 35.25 68.953125 28.65625 68.953125 
Q 22.5625 68.953125 18.546875 64.3125 
Q 14.546875 59.671875 14.546875 52.6875 
z
" id="MicrosoftYaHei-39"/>
      </defs>
      <g transform="translate(264.173231 335.39375)scale(0.1 -0.1)">
       <use xlink:href="#MicrosoftYaHei-32"/>
       <use x="58.642578" xlink:href="#MicrosoftYaHei-30"/>
       <use x="117.285156" xlink:href="#MicrosoftYaHei-31"/>
       <use x="175.927734" xlink:href="#MicrosoftYaHei-38"/>
       <use x="234.570312" xlink:href="#MicrosoftYaHei-2d"/>
       <use x="277.832031" xlink:href="#MicrosoftYaHei-30"/>
       <use x="336.474609" xlink:href="#MicrosoftYaHei-33"/>
       <use x="395.117188" xlink:href="#MicrosoftYaHei-2d"/>
       <use x="438.378906" xlink:href="#MicrosoftYaHei-31"/>
       <use x="497.021484" xlink:href="#MicrosoftYaHei-39"/>
      </g>
     </g>
    </g>
    <g id="xtick_4">
     <g id="line2d_7">
      <path clip-path="url(#p5426dbdb8a)" d="M 383.934066 320.4 
L 383.934066 43.2 
" style="fill:none;stroke:#b0b0b0;stroke-linecap:square;stroke-width:0.8;"/>
     </g>
     <g id="line2d_8">
      <g>
       <use style="stroke:#000000;stroke-width:0.8;" x="383.934066" xlink:href="#m639bbf074d" y="320.4"/>
      </g>
     </g>
     <g id="text_4">
      <!-- 2018-05-30 -->
      <defs>
       <path d="M 8.640625 11.625 
Q 16.265625 6.640625 24.515625 6.640625 
Q 32.328125 6.640625 37.109375 11 
Q 41.890625 15.375 41.890625 22.609375 
Q 41.890625 29.890625 37.03125 33.890625 
Q 32.171875 37.890625 22.953125 37.890625 
Q 18.5 37.890625 10.984375 37.203125 
L 10.984375 75.640625 
L 48.1875 75.640625 
L 48.1875 67.1875 
L 19.875 67.1875 
L 19.875 45.796875 
Q 24.125 46.046875 26.265625 46.046875 
Q 38.234375 46.046875 44.921875 39.984375 
Q 51.609375 33.9375 51.609375 23.296875 
Q 51.609375 12.3125 44.421875 5.515625 
Q 37.25 -1.265625 24.609375 -1.265625 
Q 14.015625 -1.265625 8.640625 1.859375 
z
" id="MicrosoftYaHei-35"/>
      </defs>
      <g transform="translate(356.151253 335.39375)scale(0.1 -0.1)">
       <use xlink:href="#MicrosoftYaHei-32"/>
       <use x="58.642578" xlink:href="#MicrosoftYaHei-30"/>
       <use x="117.285156" xlink:href="#MicrosoftYaHei-31"/>
       <use x="175.927734" xlink:href="#MicrosoftYaHei-38"/>
       <use x="234.570312" xlink:href="#MicrosoftYaHei-2d"/>
       <use x="277.832031" xlink:href="#MicrosoftYaHei-30"/>
       <use x="336.474609" xlink:href="#MicrosoftYaHei-35"/>
       <use x="395.117188" xlink:href="#MicrosoftYaHei-2d"/>
       <use x="438.378906" xlink:href="#MicrosoftYaHei-33"/>
       <use x="497.021484" xlink:href="#MicrosoftYaHei-30"/>
      </g>
     </g>
    </g>
    <g id="xtick_5">
     <g id="line2d_9">
      <path clip-path="url(#p5426dbdb8a)" d="M 475.912088 320.4 
L 475.912088 43.2 
" style="fill:none;stroke:#b0b0b0;stroke-linecap:square;stroke-width:0.8;"/>
     </g>
     <g id="line2d_10">
      <g>
       <use style="stroke:#000000;stroke-width:0.8;" x="475.912088" xlink:href="#m639bbf074d" y="320.4"/>
      </g>
     </g>
     <g id="text_5">
      <!-- 2018-08-09 -->
      <g transform="translate(448.129275 335.39375)scale(0.1 -0.1)">
       <use xlink:href="#MicrosoftYaHei-32"/>
       <use x="58.642578" xlink:href="#MicrosoftYaHei-30"/>
       <use x="117.285156" xlink:href="#MicrosoftYaHei-31"/>
       <use x="175.927734" xlink:href="#MicrosoftYaHei-38"/>
       <use x="234.570312" xlink:href="#MicrosoftYaHei-2d"/>
       <use x="277.832031" xlink:href="#MicrosoftYaHei-30"/>
       <use x="336.474609" xlink:href="#MicrosoftYaHei-38"/>
       <use x="395.117188" xlink:href="#MicrosoftYaHei-2d"/>
       <use x="438.378906" xlink:href="#MicrosoftYaHei-30"/>
       <use x="497.021484" xlink:href="#MicrosoftYaHei-39"/>
      </g>
     </g>
    </g>
    <g id="xtick_6">
     <g id="line2d_11">
      <path clip-path="url(#p5426dbdb8a)" d="M 567.89011 320.4 
L 567.89011 43.2 
" style="fill:none;stroke:#b0b0b0;stroke-linecap:square;stroke-width:0.8;"/>
     </g>
     <g id="line2d_12">
      <g>
       <use style="stroke:#000000;stroke-width:0.8;" x="567.89011" xlink:href="#m639bbf074d" y="320.4"/>
      </g>
     </g>
     <g id="text_6">
      <!-- 2018-10-24 -->
      <defs>
       <path d="M 55.078125 19.625 
L 45.40625 19.625 
L 45.40625 0 
L 36.140625 0 
L 36.140625 19.625 
L 0.875 19.625 
L 0.875 25.828125 
L 34.328125 75.640625 
L 45.40625 75.640625 
L 45.40625 27.203125 
L 55.078125 27.203125 
z
M 36.140625 27.203125 
L 36.140625 58.890625 
Q 36.140625 62.25 36.328125 66.65625 
L 36.140625 66.65625 
Q 35.453125 64.796875 33.25 60.84375 
L 10.75 27.203125 
z
" id="MicrosoftYaHei-34"/>
      </defs>
      <g transform="translate(540.107297 335.39375)scale(0.1 -0.1)">
       <use xlink:href="#MicrosoftYaHei-32"/>
       <use x="58.642578" xlink:href="#MicrosoftYaHei-30"/>
       <use x="117.285156" xlink:href="#MicrosoftYaHei-31"/>
       <use x="175.927734" xlink:href="#MicrosoftYaHei-38"/>
       <use x="234.570312" xlink:href="#MicrosoftYaHei-2d"/>
       <use x="277.832031" xlink:href="#MicrosoftYaHei-31"/>
       <use x="336.474609" xlink:href="#MicrosoftYaHei-30"/>
       <use x="395.117188" xlink:href="#MicrosoftYaHei-2d"/>
       <use x="438.378906" xlink:href="#MicrosoftYaHei-32"/>
       <use x="497.021484" xlink:href="#MicrosoftYaHei-34"/>
      </g>
     </g>
    </g>
    <g id="xtick_7">
     <g id="line2d_13">
      <path clip-path="url(#p5426dbdb8a)" d="M 659.868132 320.4 
L 659.868132 43.2 
" style="fill:none;stroke:#b0b0b0;stroke-linecap:square;stroke-width:0.8;"/>
     </g>
     <g id="line2d_14">
      <g>
       <use style="stroke:#000000;stroke-width:0.8;" x="659.868132" xlink:href="#m639bbf074d" y="320.4"/>
      </g>
     </g>
     <g id="text_7">
      <!-- 2018-12-31 -->
      <g transform="translate(632.085319 335.39375)scale(0.1 -0.1)">
       <use xlink:href="#MicrosoftYaHei-32"/>
       <use x="58.642578" xlink:href="#MicrosoftYaHei-30"/>
       <use x="117.285156" xlink:href="#MicrosoftYaHei-31"/>
       <use x="175.927734" xlink:href="#MicrosoftYaHei-38"/>
       <use x="234.570312" xlink:href="#MicrosoftYaHei-2d"/>
       <use x="277.832031" xlink:href="#MicrosoftYaHei-31"/>
       <use x="336.474609" xlink:href="#MicrosoftYaHei-32"/>
       <use x="395.117188" xlink:href="#MicrosoftYaHei-2d"/>
       <use x="438.378906" xlink:href="#MicrosoftYaHei-33"/>
       <use x="497.021484" xlink:href="#MicrosoftYaHei-31"/>
      </g>
     </g>
    </g>
    <g id="xtick_8">
     <g id="line2d_15">
      <path clip-path="url(#p5426dbdb8a)" d="M 751.846154 320.4 
L 751.846154 43.2 
" style="fill:none;stroke:#b0b0b0;stroke-linecap:square;stroke-width:0.8;"/>
     </g>
     <g id="line2d_16">
      <g>
       <use style="stroke:#000000;stroke-width:0.8;" x="751.846154" xlink:href="#m639bbf074d" y="320.4"/>
      </g>
     </g>
     <g id="text_8">
      <!-- 2019-03-15 -->
      <g transform="translate(724.063341 335.39375)scale(0.1 -0.1)">
       <use xlink:href="#MicrosoftYaHei-32"/>
       <use x="58.642578" xlink:href="#MicrosoftYaHei-30"/>
       <use x="117.285156" xlink:href="#MicrosoftYaHei-31"/>
       <use x="175.927734" xlink:href="#MicrosoftYaHei-39"/>
       <use x="234.570312" xlink:href="#MicrosoftYaHei-2d"/>
       <use x="277.832031" xlink:href="#MicrosoftYaHei-30"/>
       <use x="336.474609" xlink:href="#MicrosoftYaHei-33"/>
       <use x="395.117188" xlink:href="#MicrosoftYaHei-2d"/>
       <use x="438.378906" xlink:href="#MicrosoftYaHei-31"/>
       <use x="497.021484" xlink:href="#MicrosoftYaHei-35"/>
      </g>
     </g>
    </g>
    <g id="text_9">
     <!-- 日期 -->
     <defs>
      <path d="M 15.234375 76.703125 
L 84.859375 76.703125 
L 84.859375 -11.96875 
L 76.5625 -11.96875 
L 76.5625 -5.03125 
L 23.53125 -5.03125 
L 23.53125 -11.96875 
L 15.234375 -11.96875 
z
M 23.53125 32.859375 
L 23.53125 2.09375 
L 76.5625 2.09375 
L 76.5625 32.859375 
z
M 23.53125 69.390625 
L 23.53125 40.1875 
L 76.5625 40.1875 
L 76.5625 69.390625 
z
" id="MicrosoftYaHei-65e5"/>
      <path d="M 58.890625 79.15625 
L 93.453125 79.15625 
L 93.453125 -0.046875 
Q 93.453125 -11.578125 82.515625 -11.578125 
Q 77.046875 -11.578125 71.78125 -11.28125 
Q 71.390625 -8.0625 70.609375 -3.765625 
Q 77.734375 -4.4375 80.859375 -4.4375 
Q 86.234375 -4.4375 86.234375 0.921875 
L 86.234375 21.4375 
L 65.328125 21.4375 
Q 64.265625 0.046875 52.34375 -14.109375 
Q 49.703125 -11.375 46.484375 -8.640625 
Q 54.390625 0.4375 56.546875 10.203125 
Q 58.890625 19.578125 58.890625 42.828125 
z
M 1.953125 17.828125 
L 11.140625 17.828125 
L 11.140625 62.9375 
L 3.125 62.9375 
L 3.125 69.578125 
L 11.140625 69.578125 
L 11.140625 81.5 
L 18.359375 81.5 
L 18.359375 69.578125 
L 38.671875 69.578125 
L 38.671875 81.890625 
L 45.90625 81.890625 
L 45.90625 69.578125 
L 53.8125 69.578125 
L 53.8125 62.9375 
L 45.90625 62.9375 
L 45.90625 17.828125 
L 53.71875 17.828125 
L 53.71875 11.1875 
L 1.953125 11.1875 
z
M 65.765625 27.875 
L 86.234375 27.875 
L 86.234375 47.015625 
L 66.109375 47.015625 
Q 66.21875 34.421875 65.765625 27.875 
z
M 86.234375 72.515625 
L 66.109375 72.515625 
L 66.109375 53.46875 
L 86.234375 53.46875 
z
M 18.359375 17.828125 
L 38.671875 17.828125 
L 38.671875 28.765625 
L 18.359375 28.765625 
z
M 18.359375 35.015625 
L 38.671875 35.015625 
L 38.671875 45.84375 
L 18.359375 45.84375 
z
M 18.359375 52.09375 
L 38.671875 52.09375 
L 38.671875 62.9375 
L 18.359375 62.9375 
z
M 18.359375 9.328125 
L 24.3125 4.640625 
Q 14.453125 -6 6.34375 -13.234375 
Q 4.296875 -10.890625 1.171875 -8.0625 
Q 10.453125 -0.140625 18.359375 9.328125 
z
M 31.15625 4.734375 
L 35.84375 9.515625 
Q 42.671875 4.4375 48.734375 -0.734375 
L 43.5625 -6.296875 
Q 38.09375 -0.828125 31.15625 4.734375 
z
" id="MicrosoftYaHei-671f"/>
     </defs>
     <g transform="translate(432.8 349.873438)scale(0.1 -0.1)">
      <use xlink:href="#MicrosoftYaHei-65e5"/>
      <use x="100" xlink:href="#MicrosoftYaHei-671f"/>
     </g>
    </g>
   </g>
   <g id="matplotlib.axis_2">
    <g id="ytick_1">
     <g id="line2d_17">
      <path clip-path="url(#p5426dbdb8a)" d="M 108 287.675797 
L 777.6 287.675797 
" style="fill:none;stroke:#b0b0b0;stroke-linecap:square;stroke-width:0.8;"/>
     </g>
     <g id="line2d_18">
      <defs>
       <path d="M 0 0 
L -3.5 0 
" id="mce17d9fdb6" style="stroke:#000000;stroke-width:0.8;"/>
      </defs>
      <g>
       <use style="stroke:#000000;stroke-width:0.8;" x="108" xlink:href="#mce17d9fdb6" y="287.675797"/>
      </g>
     </g>
     <g id="text_10">
      <!-- 2.0 -->
      <defs>
       <path d="M 5.8125 5.03125 
Q 5.8125 7.671875 7.609375 9.46875 
Q 9.421875 11.28125 12.109375 11.28125 
Q 14.84375 11.28125 16.640625 9.453125 
Q 18.453125 7.625 18.453125 5.03125 
Q 18.453125 2.484375 16.640625 0.65625 
Q 14.84375 -1.171875 12.0625 -1.171875 
Q 9.375 -1.171875 7.59375 0.65625 
Q 5.8125 2.484375 5.8125 5.03125 
z
" id="MicrosoftYaHei-2e"/>
      </defs>
      <g transform="translate(86.864063 291.672672)scale(0.1 -0.1)">
       <use xlink:href="#MicrosoftYaHei-32"/>
       <use x="58.642578" xlink:href="#MicrosoftYaHei-2e"/>
       <use x="82.714844" xlink:href="#MicrosoftYaHei-30"/>
      </g>
     </g>
    </g>
    <g id="ytick_2">
     <g id="line2d_19">
      <path clip-path="url(#p5426dbdb8a)" d="M 108 230.309197 
L 777.6 230.309197 
" style="fill:none;stroke:#b0b0b0;stroke-linecap:square;stroke-width:0.8;"/>
     </g>
     <g id="line2d_20">
      <g>
       <use style="stroke:#000000;stroke-width:0.8;" x="108" xlink:href="#mce17d9fdb6" y="230.309197"/>
      </g>
     </g>
     <g id="text_11">
      <!-- 2.5 -->
      <g transform="translate(86.864063 234.306072)scale(0.1 -0.1)">
       <use xlink:href="#MicrosoftYaHei-32"/>
       <use x="58.642578" xlink:href="#MicrosoftYaHei-2e"/>
       <use x="82.714844" xlink:href="#MicrosoftYaHei-35"/>
      </g>
     </g>
    </g>
    <g id="ytick_3">
     <g id="line2d_21">
      <path clip-path="url(#p5426dbdb8a)" d="M 108 172.942597 
L 777.6 172.942597 
" style="fill:none;stroke:#b0b0b0;stroke-linecap:square;stroke-width:0.8;"/>
     </g>
     <g id="line2d_22">
      <g>
       <use style="stroke:#000000;stroke-width:0.8;" x="108" xlink:href="#mce17d9fdb6" y="172.942597"/>
      </g>
     </g>
     <g id="text_12">
      <!-- 3.0 -->
      <g transform="translate(86.864063 176.939472)scale(0.1 -0.1)">
       <use xlink:href="#MicrosoftYaHei-33"/>
       <use x="58.642578" xlink:href="#MicrosoftYaHei-2e"/>
       <use x="82.714844" xlink:href="#MicrosoftYaHei-30"/>
      </g>
     </g>
    </g>
    <g id="ytick_4">
     <g id="line2d_23">
      <path clip-path="url(#p5426dbdb8a)" d="M 108 115.575997 
L 777.6 115.575997 
" style="fill:none;stroke:#b0b0b0;stroke-linecap:square;stroke-width:0.8;"/>
     </g>
     <g id="line2d_24">
      <g>
       <use style="stroke:#000000;stroke-width:0.8;" x="108" xlink:href="#mce17d9fdb6" y="115.575997"/>
      </g>
     </g>
     <g id="text_13">
      <!-- 3.5 -->
      <g transform="translate(86.864063 119.572872)scale(0.1 -0.1)">
       <use xlink:href="#MicrosoftYaHei-33"/>
       <use x="58.642578" xlink:href="#MicrosoftYaHei-2e"/>
       <use x="82.714844" xlink:href="#MicrosoftYaHei-35"/>
      </g>
     </g>
    </g>
    <g id="ytick_5">
     <g id="line2d_25">
      <path clip-path="url(#p5426dbdb8a)" d="M 108 58.209397 
L 777.6 58.209397 
" style="fill:none;stroke:#b0b0b0;stroke-linecap:square;stroke-width:0.8;"/>
     </g>
     <g id="line2d_26">
      <g>
       <use style="stroke:#000000;stroke-width:0.8;" x="108" xlink:href="#mce17d9fdb6" y="58.209397"/>
      </g>
     </g>
     <g id="text_14">
      <!-- 4.0 -->
      <g transform="translate(86.864063 62.206272)scale(0.1 -0.1)">
       <use xlink:href="#MicrosoftYaHei-34"/>
       <use x="58.642578" xlink:href="#MicrosoftYaHei-2e"/>
       <use x="82.714844" xlink:href="#MicrosoftYaHei-30"/>
      </g>
     </g>
    </g>
   </g>
   <g id="line2d_27">
    <path clip-path="url(#p5426dbdb8a)" d="M 108 131.891058 
L 109.83956 123.377855 
L 111.679121 120.142378 
L 113.518681 117.514988 
L 115.358242 115.231797 
L 117.197802 114.726971 
L 120.876923 116.528283 
L 122.716484 118.008341 
L 124.556044 110.998142 
L 126.395604 109.231251 
L 128.235165 107.647933 
L 130.074725 107.452887 
L 131.914286 106.925114 
L 133.753846 99.375669 
L 135.593407 100.465635 
L 137.432967 92.84735 
L 139.272527 94.958441 
L 141.112088 95.54358 
L 142.951648 93.742269 
L 144.791209 92.526097 
L 148.47033 74.926024 
L 150.30989 69.69419 
L 153.989011 69.717137 
L 155.828571 66.607867 
L 157.668132 66.412821 
L 159.507692 66.573447 
L 161.347253 63.946057 
L 163.186813 63.969004 
L 166.865934 61.892333 
L 168.705495 61.559607 
L 170.545055 58.094664 
L 172.384615 55.8 
L 174.224176 61.50224 
L 176.063736 60.940047 
L 177.903297 61.548133 
L 179.742857 60.446695 
L 181.582418 61.513713 
L 185.261538 63.005245 
L 187.101099 59.333783 
L 188.940659 60.022182 
L 190.78022 59.024003 
L 192.61978 64.565616 
L 196.298901 77.782881 
L 198.138462 83.485121 
L 199.978022 97.746458 
L 201.817582 113.969732 
L 205.496703 138.786523 
L 207.336264 139.314296 
L 209.175824 133.543216 
L 211.015385 130.755199 
L 212.854945 134.093936 
L 214.694505 133.17607 
L 216.534066 132.476197 
L 218.373626 130.2389 
L 220.213187 129.814387 
L 222.052747 129.814387 
L 223.892308 131.443599 
L 225.731868 130.27332 
L 227.571429 133.03839 
L 229.410989 132.625351 
L 231.250549 136.652486 
L 233.09011 136.641013 
L 234.92967 135.470734 
L 236.769231 135.470734 
L 238.608791 130.697833 
L 240.448352 141.551594 
L 242.287912 139.302823 
L 244.127473 143.892151 
L 245.967033 143.742998 
L 247.806593 143.421745 
L 249.646154 146.255655 
L 251.485714 142.779239 
L 253.325275 142.538299 
L 255.164835 145.154216 
L 257.004396 149.548498 
L 258.843956 148.229066 
L 260.683516 151.005609 
L 262.523077 150.982663 
L 264.362637 151.166236 
L 266.202198 154.103406 
L 268.041758 149.720597 
L 269.881319 144.213404 
L 271.720879 151.418649 
L 273.56044 151.418649 
L 275.4 150.133637 
L 277.23956 150.00743 
L 279.079121 149.514078 
L 280.918681 157.465088 
L 282.758242 156.099763 
L 284.597802 153.49532 
L 286.437363 155.468731 
L 288.276923 155.468731 
L 290.116484 158.658314 
L 291.956044 160.769404 
L 293.795604 163.064068 
L 295.635165 164.119614 
L 297.474725 165.909452 
L 299.314286 174.698015 
L 301.153846 174.698015 
L 302.993407 170.487307 
L 304.832967 169.087561 
L 306.672527 172.908177 
L 308.512088 177.382772 
L 310.351648 178.575997 
L 312.191209 186.940047 
L 314.030769 189.234711 
L 315.87033 189.234711 
L 317.70989 203.358368 
L 319.549451 203.358368 
L 321.389011 202.406083 
L 323.228571 205.102313 
L 325.068132 209.175341 
L 326.907692 208.211583 
L 328.747253 209.014715 
L 330.586813 230.11415 
L 332.426374 224.37749 
L 334.265934 220.224149 
L 336.105495 208.268949 
L 337.945055 201.683264 
L 339.784615 202.842069 
L 341.624176 202.842069 
L 343.463736 208.567256 
L 345.303297 210.907813 
L 347.142857 207.110144 
L 348.982418 208.716409 
L 350.821978 212.892697 
L 352.661538 213.328683 
L 354.501099 212.353451 
L 356.340659 206.651211 
L 358.18022 203.174795 
L 360.01978 207.213404 
L 361.859341 204.930213 
L 363.698901 198.929667 
L 365.538462 201.660317 
L 367.378022 197.988854 
L 369.217582 202.279876 
L 371.057143 194.868111 
L 372.896703 196.061337 
L 374.736264 197.633182 
L 376.575824 195.131998 
L 378.415385 191.150756 
L 380.254945 182.671972 
L 382.094505 182.190093 
L 383.934066 183.956984 
L 385.773626 185.563249 
L 387.613187 172.91965 
L 389.452747 174.686542 
L 393.131868 174.009616 
L 394.971429 173.757203 
L 396.810989 178.679257 
L 398.650549 180.973921 
L 400.49011 179.390603 
L 402.32967 174.858641 
L 404.169231 177.290985 
L 406.008791 178.62189 
L 407.848352 175.627354 
L 409.687912 162.719869 
L 411.527473 161.193917 
L 413.367033 167.974649 
L 415.206593 165.886505 
L 417.046154 161.51517 
L 418.885714 161.51517 
L 420.725275 158.027281 
L 422.564835 171.542852 
L 424.404396 193.44542 
L 426.243956 206.215225 
L 428.083516 211.710945 
L 429.923077 212.686177 
L 431.762637 236.619523 
L 433.602198 236.355636 
L 435.441758 237.686542 
L 437.281319 238.053688 
L 439.120879 235.139465 
L 440.96044 230.859916 
L 442.8 227.888326 
L 444.63956 231.020543 
L 446.479121 225.972282 
L 448.318681 226.844254 
L 450.158242 233.7053 
L 451.997802 233.46436 
L 453.837363 231.674522 
L 455.676923 240.095939 
L 457.516484 254.081916 
L 459.356044 253.74919 
L 461.195604 254.540849 
L 463.035165 252.888691 
L 464.874725 254.690002 
L 466.714286 259.795629 
L 468.553846 271.877035 
L 470.393407 285.277873 
L 472.232967 286.310472 
L 474.072527 292.701111 
L 475.912088 292.815844 
L 477.751648 291.645565 
L 479.591209 297.955891 
L 481.430769 291.748825 
L 483.27033 287.113604 
L 486.949451 274.378219 
L 488.789011 268.836605 
L 490.628571 263.742451 
L 492.468132 263.558878 
L 494.307692 267.494227 
L 496.147253 267.8499 
L 497.986813 271.372209 
L 499.826374 270.729703 
L 503.505495 271.303369 
L 505.345055 273.850446 
L 509.024176 271.601675 
L 510.863736 271.532836 
L 512.703297 272.553961 
L 514.542857 272.416281 
L 516.382418 273.058787 
L 518.221978 272.519541 
L 520.061538 270.396977 
L 521.901099 270.913276 
L 523.740659 272.370388 
L 525.58022 275.720597 
L 527.41978 273.6554 
L 529.259341 275.502604 
L 531.098901 281.64083 
L 532.938462 279.25438 
L 534.778022 277.430122 
L 536.617582 277.166236 
L 538.457143 273.41446 
L 540.296703 262.491859 
L 542.136264 262.14766 
L 543.975824 262.032927 
L 545.815385 280.241085 
L 547.654945 302.13218 
L 549.494505 307.8 
L 551.334066 303.027099 
L 553.173626 296.062794 
L 555.013187 295.94806 
L 556.852747 293.11415 
L 558.692308 287.044764 
L 560.531868 271.463996 
L 562.371429 264.46527 
L 564.210989 256.984666 
L 566.050549 256.858459 
L 567.89011 252.188818 
L 569.72967 255.607867 
L 571.569231 256.732253 
L 573.408791 255.034201 
L 575.248352 259.325223 
L 577.087912 250.823493 
L 578.927473 251.947878 
L 580.767033 253.531197 
L 582.606593 255.527554 
L 584.446154 255.114515 
L 586.285714 255.653761 
L 588.125275 255.99796 
L 589.964835 258.86629 
L 591.804396 264.442324 
L 593.643956 264.155491 
L 595.483516 262.686906 
L 597.323077 258.395884 
L 599.162637 262.870479 
L 601.002198 256.296267 
L 602.841758 251.649572 
L 606.520879 246.693098 
L 608.36044 254.816208 
L 610.2 250.67434 
L 612.03956 250.146567 
L 613.879121 244.134547 
L 615.718681 240.015626 
L 617.558242 245.396613 
L 619.397802 246.727518 
L 621.237363 246.796358 
L 623.076923 246.085012 
L 624.916484 242.528283 
L 626.756044 241.667784 
L 628.595604 235.345984 
L 630.435165 234.198652 
L 632.274725 228.198106 
L 634.114286 228.00306 
L 635.953846 224.285704 
L 637.793407 224.285704 
L 639.632967 222.16314 
L 641.472527 215.416828 
L 643.312088 204.184447 
L 645.151648 198.287161 
L 646.991209 196.497323 
L 648.830769 196.45143 
L 650.67033 198.275687 
L 652.50989 199.468913 
L 654.349451 215.818394 
L 656.189011 217.080459 
L 659.868132 217.080459 
L 661.707692 227.59002 
L 663.547253 233.647933 
L 665.386813 250.376034 
L 667.226374 248.563249 
L 669.065934 251.924932 
L 670.905495 248.219049 
L 672.745055 247.28971 
L 674.584615 256.881406 
L 676.424176 253.106684 
L 678.263736 253.347623 
L 680.103297 250.984119 
L 681.942857 252.360918 
L 683.782418 254.127809 
L 685.621978 248.058423 
L 687.461538 250.318667 
L 689.301099 252.142925 
L 691.140659 252.188818 
L 692.98022 254.965362 
L 694.81978 255.699654 
L 696.659341 263.249099 
L 698.498901 260.644655 
L 700.338462 264.144017 
L 702.178022 264.017811 
L 705.857143 264.017811 
L 707.696703 264.258751 
L 709.536264 266.415735 
L 711.375824 267.57454 
L 713.215385 268.871025 
L 715.054945 287.010344 
L 716.894505 280.493498 
L 720.573626 280.665598 
L 722.413187 281.835877 
L 724.252747 283.476562 
L 726.092308 281.652304 
L 727.931868 266.071535 
L 729.771429 270.523183 
L 731.610989 272.232708 
L 733.450549 286.505518 
L 735.29011 291.920925 
L 737.12967 284.54358 
L 738.969231 287.526644 
L 740.808791 291.966818 
L 742.648352 292.964997 
L 744.487912 295.684174 
L 746.327473 286.987398 
L 748.167033 287.561064 
L 750.006593 269.823311 
L 751.846154 270.133091 
L 755.525275 268.664506 
L 757.364835 269.938044 
L 759.204396 270.052777 
L 761.043956 271.085376 
L 762.883516 275.491131 
L 764.723077 277.177709 
L 766.562637 272.840794 
L 768.402198 270.316664 
L 770.241758 271.303369 
L 772.081319 281.686724 
L 773.920879 278.198834 
L 775.76044 278.370934 
L 777.6 279.472373 
L 777.6 279.472373 
" style="fill:none;stroke:#1f77b4;stroke-linecap:square;stroke-width:1.5;"/>
   </g>
   <g id="line2d_28">
    <path clip-path="url(#p5426dbdb8a)" d="M 108 114.118885 
L 109.83956 113.350173 
L 111.679121 109.472191 
L 113.518681 107.73972 
L 115.358242 106.500601 
L 117.197802 106.500601 
L 119.037363 106.856274 
L 120.876923 104.366563 
L 122.716484 104.171517 
L 124.556044 104.940229 
L 126.395604 106.546494 
L 128.235165 104.997596 
L 130.074725 104.997596 
L 131.914286 104.618977 
L 133.753846 102.335786 
L 137.432967 102.335786 
L 139.272527 102.943872 
L 141.112088 101.773593 
L 142.951648 99.478929 
L 144.791209 98.388964 
L 146.630769 96.209033 
L 148.47033 93.719323 
L 150.30989 92.629357 
L 152.149451 94.912548 
L 153.989011 99.467456 
L 155.828571 100.155855 
L 157.668132 100.603315 
L 159.507692 100.178802 
L 161.347253 87.55815 
L 163.186813 88.636642 
L 165.026374 86.364924 
L 166.865934 86.341978 
L 168.705495 85.206119 
L 170.545055 82.922928 
L 172.384615 83.668694 
L 174.224176 83.668694 
L 176.063736 85.389692 
L 177.903297 84.253834 
L 179.742857 80.823311 
L 181.582418 81.396977 
L 188.940659 81.396977 
L 190.78022 81.672337 
L 192.61978 82.200109 
L 196.298901 82.200109 
L 198.138462 95.302641 
L 199.978022 96.449973 
L 201.817582 104.469823 
L 203.657143 111.078456 
L 205.496703 111.720962 
L 207.336264 111.193189 
L 209.175824 107.831506 
L 211.015385 107.831506 
L 212.854945 106.087561 
L 220.213187 106.076088 
L 222.052747 108.657585 
L 223.892308 113.30428 
L 225.731868 111.009616 
L 227.571429 113.30428 
L 229.410989 114.451612 
L 231.250549 113.223966 
L 233.09011 114.417192 
L 234.92967 114.417192 
L 238.608791 123.607321 
L 242.287912 121.152031 
L 244.127473 126.039665 
L 245.967033 126.888691 
L 247.806593 127.209944 
L 249.646154 127.760663 
L 251.485714 127.40499 
L 253.325275 128.563795 
L 255.164835 128.426115 
L 257.004396 130.03238 
L 258.843956 128.139282 
L 260.683516 129.653761 
L 262.523077 129.653761 
L 264.362637 137.834238 
L 266.202198 141.81548 
L 268.041758 146.393335 
L 269.881319 145.636095 
L 271.720879 142.079366 
L 273.56044 141.172974 
L 275.4 141.150027 
L 277.23956 143.307011 
L 279.079121 142.228519 
L 280.918681 143.123438 
L 282.758242 141.058241 
L 284.597802 137.845711 
L 286.437363 137.467092 
L 288.276923 136.25092 
L 290.116484 136.755746 
L 291.956044 137.054052 
L 293.795604 136.870479 
L 295.635165 140.289528 
L 297.474725 141.98758 
L 299.314286 145.785249 
L 301.153846 139.669969 
L 302.993407 135.987033 
L 308.512088 135.987033 
L 310.351648 140.461628 
L 312.191209 138.625897 
L 314.030769 143.215225 
L 315.87033 141.092661 
L 317.70989 146.771954 
L 319.549451 145.590202 
L 321.389011 145.555782 
L 323.228571 148.940412 
L 325.068132 149.846804 
L 326.907692 153.35764 
L 328.747253 154.459078 
L 330.586813 182.981752 
L 332.426374 177.405718 
L 336.105495 167.38951 
L 337.945055 171.198652 
L 339.784615 170.108687 
L 341.624176 169.741541 
L 343.463736 171.164232 
L 345.303297 173.344163 
L 347.142857 170.556146 
L 348.982418 175.581461 
L 350.821978 180.147842 
L 352.661538 180.755928 
L 354.501099 181.742633 
L 356.340659 181.031288 
L 358.18022 181.719687 
L 360.01978 180.916554 
L 361.859341 179.03493 
L 363.698901 176.740266 
L 367.378022 164.8998 
L 369.217582 164.785066 
L 371.057143 157.247095 
L 372.896703 158.841887 
L 378.415385 158.61242 
L 380.254945 156.707849 
L 382.094505 156.914369 
L 383.934066 155.411364 
L 385.773626 155.870297 
L 389.452747 152.852814 
L 391.292308 153.403533 
L 393.131868 149.961537 
L 394.971429 148.148753 
L 396.810989 148.653579 
L 398.650549 147.930759 
L 400.49011 145.246003 
L 402.32967 145.337789 
L 404.169231 147.598033 
L 406.008791 147.896339 
L 407.848352 148.068439 
L 409.687912 140.266582 
L 411.527473 140.174795 
L 413.367033 141.104134 
L 415.206593 140.909088 
L 417.046154 141.138554 
L 418.885714 141.104134 
L 420.725275 147.219414 
L 422.564835 154.700018 
L 424.404396 157.568348 
L 426.243956 166.712584 
L 428.083516 166.035658 
L 429.923077 169.454708 
L 431.762637 170.556146 
L 435.441758 166.024185 
L 437.281319 165.439046 
L 440.96044 165.439046 
L 442.8 169.971007 
L 444.63956 169.971007 
L 446.479121 167.11415 
L 453.837363 167.11415 
L 455.676923 171.680532 
L 457.516484 173.975196 
L 459.356044 184.129084 
L 461.195604 186.527008 
L 463.035165 191.185176 
L 466.714286 199.07882 
L 468.553846 204.528647 
L 472.232967 218.491677 
L 474.072527 216.197013 
L 475.912088 204.758113 
L 477.751648 204.47128 
L 479.591209 194.397705 
L 481.430769 194.489492 
L 483.27033 191.299909 
L 485.10989 191.208122 
L 486.949451 186.331961 
L 488.789011 184.370024 
L 490.628571 179.459443 
L 492.468132 184.025824 
L 494.307692 186.813841 
L 496.147253 191.575269 
L 497.986813 189.636278 
L 499.826374 188.202113 
L 501.665934 189.085558 
L 503.505495 191.942415 
L 505.345055 190.71477 
L 507.184615 191.449062 
L 509.024176 190.427937 
L 510.863736 190.496777 
L 512.703297 191.139282 
L 514.542857 190.863923 
L 516.382418 191.219596 
L 518.221978 190.64593 
L 520.061538 190.26731 
L 521.901099 189.097032 
L 523.740659 188.741359 
L 525.58022 188.592205 
L 527.41978 186.790894 
L 529.259341 171.772318 
L 531.098901 169.339975 
L 532.938462 169.890694 
L 534.778022 169.833327 
L 536.617582 170.062794 
L 538.457143 170.911819 
L 542.136264 174.089929 
L 543.975824 176.877946 
L 545.815385 177.772865 
L 547.654945 179.964269 
L 549.494505 179.883956 
L 551.334066 185.540302 
L 553.173626 185.517356 
L 555.013187 186.710581 
L 556.852747 185.540302 
L 558.692308 184.106137 
L 564.210989 184.106137 
L 566.050549 185.804189 
L 567.89011 189.441231 
L 569.72967 189.441231 
L 571.569231 190.840976 
L 573.408791 193.560153 
L 575.248352 195.269678 
L 577.087912 195.269678 
L 578.927473 197.518448 
L 580.767033 197.461082 
L 582.606593 198.608414 
L 586.285714 204.276234 
L 588.125275 209.989947 
L 589.964835 212.112511 
L 591.804396 217.424659 
L 593.643956 219.834056 
L 595.483516 223.539938 
L 597.323077 229.253651 
L 599.162637 229.391331 
L 601.002198 229.253651 
L 602.841758 228.117793 
L 604.681319 230.676343 
L 606.520879 231.548315 
L 608.36044 228.989765 
L 610.2 230.228884 
L 612.03956 230.882863 
L 613.879121 232.603861 
L 615.718681 233.751193 
L 617.558242 232.305555 
L 619.397802 232.339975 
L 621.237363 234.852632 
L 623.076923 234.852632 
L 624.916484 235.070625 
L 626.756044 234.898525 
L 628.595604 232.156401 
L 630.435165 233.269313 
L 632.274725 234.818212 
L 634.114286 234.703478 
L 635.953846 232.695647 
L 637.793407 233.624986 
L 639.632967 231.903988 
L 641.472527 207.23635 
L 645.151648 209.588381 
L 646.991209 206.846258 
L 648.830769 205.687452 
L 650.67033 207.351084 
L 652.50989 211.825678 
L 654.349451 218.491677 
L 656.189011 218.835877 
L 659.868132 218.835877 
L 661.707692 230.14857 
L 663.547253 230.11415 
L 669.065934 247.197924 
L 670.905495 244.341067 
L 672.745055 246.062065 
L 674.584615 241.036751 
L 676.424176 238.799454 
L 678.263736 237.824221 
L 680.103297 246.371845 
L 681.942857 247.519177 
L 683.782418 247.542123 
L 685.621978 239.384593 
L 687.461538 241.79399 
L 689.301099 240.646658 
L 691.140659 241.736624 
L 692.98022 244.031288 
L 694.81978 242.229976 
L 698.498901 244.042761 
L 700.338462 243.239628 
L 702.178022 247.404444 
L 705.857143 247.450337 
L 707.696703 248.884502 
L 709.536264 252.647751 
L 711.375824 250.376034 
L 713.215385 251.764305 
L 715.054945 252.177345 
L 716.894505 250.892333 
L 718.734066 251.638099 
L 720.573626 252.647751 
L 722.413187 249.171335 
L 724.252747 246.463631 
L 726.092308 248.207576 
L 727.931868 246.991404 
L 729.771429 242.929849 
L 731.610989 241.174431 
L 733.450549 237.904535 
L 735.29011 236.711309 
L 737.12967 236.837516 
L 740.808791 235.678711 
L 744.487912 236.378583 
L 746.327473 234.749372 
L 748.167033 233.693826 
L 750.006593 233.5332 
L 751.846154 234.531379 
L 753.685714 232.913641 
L 755.525275 232.753014 
L 757.364835 233.77414 
L 759.204396 236.068803 
L 761.043956 234.267492 
L 762.883516 232.661227 
L 764.723077 233.682353 
L 766.562637 234.106866 
L 768.402198 236.29827 
L 770.241758 237.457075 
L 772.081319 237.112876 
L 777.6 233.074267 
L 777.6 233.074267 
" style="fill:none;stroke:#ff7f0e;stroke-linecap:square;stroke-width:1.5;"/>
   </g>
   <g id="line2d_29">
    <path clip-path="url(#p5426dbdb8a)" d="M 108 83.806374 
L 109.83956 78.104134 
L 111.679121 68.363285 
L 113.518681 70.635003 
L 115.358242 73.927846 
L 119.037363 71.793808 
L 120.876923 73.193553 
L 122.716484 71.828228 
L 124.556044 72.83788 
L 128.235165 69.682717 
L 130.074725 63.946057 
L 131.914286 63.659224 
L 133.753846 63.946057 
L 135.593407 67.10122 
L 137.432967 67.388053 
L 139.272527 65.093389 
L 141.112088 63.946057 
L 142.951648 59.930395 
L 144.791209 59.918922 
L 146.630769 64.37057 
L 148.47033 63.934584 
L 150.30989 62.787252 
L 152.149451 68.523912 
L 153.989011 70.818576 
L 155.828571 71.380769 
L 157.668132 70.807103 
L 159.507692 72.528101 
L 161.347253 72.528101 
L 165.026374 68.512439 
L 166.865934 66.206301 
L 168.705495 65.345802 
L 170.545055 66.206301 
L 174.224176 70.784156 
L 176.063736 70.784156 
L 177.903297 69.625351 
L 181.582418 69.625351 
L 183.421978 72.206848 
L 185.261538 72.76904 
L 187.101099 71.048042 
L 188.940659 70.187543 
L 190.78022 71.323402 
L 192.61978 71.897068 
L 196.298901 71.897068 
L 198.138462 69.590931 
L 201.817582 66.022728 
L 205.496703 68.420652 
L 207.336264 70.726789 
L 209.175824 67.37658 
L 211.015385 63.418284 
L 212.854945 65.816208 
L 214.694505 62.225059 
L 216.534066 62.844618 
L 218.373626 62.833145 
L 220.213187 60.538481 
L 222.052747 61.031834 
L 223.892308 63.693644 
L 225.731868 64.932763 
L 227.571429 63.865744 
L 231.250549 65.494955 
L 233.09011 65.460535 
L 234.92967 66.332508 
L 236.769231 68.076452 
L 238.608791 68.925478 
L 240.448352 68.627172 
L 242.287912 67.766673 
L 244.127473 71.690548 
L 245.967033 73.124713 
L 247.806593 71.965908 
L 249.646154 71.977381 
L 253.325275 72.551047 
L 255.164835 73.124713 
L 257.004396 73.101767 
L 258.843956 72.528101 
L 262.523077 73.675433 
L 264.362637 75.970097 
L 266.202198 78.8499 
L 269.881319 78.8499 
L 271.720879 77.117429 
L 273.56044 75.958623 
L 275.4 78.253287 
L 277.23956 78.826953 
L 279.079121 78.826953 
L 280.918681 77.966454 
L 282.758242 78.36802 
L 284.597802 77.002695 
L 286.437363 76.417556 
L 288.276923 78.207394 
L 290.116484 79.389146 
L 291.956044 79.962812 
L 293.795604 82.234529 
L 295.635165 85.401166 
L 297.474725 87.122164 
L 299.314286 92.571991 
L 301.153846 89.107048 
L 302.993407 87.672883 
L 304.832967 87.971189 
L 306.672527 87.397523 
L 310.351648 88.533382 
L 312.191209 86.812384 
L 314.030769 89.9446 
L 315.87033 92.537571 
L 317.70989 93.099763 
L 319.549451 90.805099 
L 321.389011 91.378765 
L 323.228571 91.378765 
L 325.068132 91.918011 
L 326.907692 97.666145 
L 328.747253 98.228337 
L 330.586813 115.426844 
L 332.426374 114.841705 
L 334.265934 113.109233 
L 336.105495 103.884684 
L 337.945055 105.766309 
L 339.784615 102.748825 
L 341.624176 100.155855 
L 343.463736 99.926389 
L 345.303297 101.612967 
L 347.142857 96.472919 
L 348.982418 98.744637 
L 350.821978 100.442688 
L 352.661538 98.159497 
L 354.501099 93.524276 
L 356.340659 91.780331 
L 358.18022 93.501329 
L 360.01978 93.983209 
L 361.859341 93.352176 
L 363.698901 90.896886 
L 365.538462 91.757385 
L 367.378022 91.252559 
L 369.217582 91.493498 
L 371.057143 93.32923 
L 372.896703 96.071353 
L 374.736264 99.513349 
L 376.575824 98.354544 
L 378.415385 102.657039 
L 380.254945 102.943872 
L 382.094505 104.091204 
L 383.934066 104.378037 
L 385.773626 102.622619 
L 387.613187 101.785066 
L 389.452747 97.998871 
L 391.292308 97.195738 
L 393.131868 97.195738 
L 394.971429 96.048406 
L 396.810989 98.905263 
L 398.650549 98.34307 
L 400.49011 94.315935 
L 402.32967 96.908905 
L 404.169231 101.498233 
L 406.008791 103.781424 
L 407.848352 108.657585 
L 409.687912 103.483118 
L 411.527473 106.936587 
L 413.367033 108.646112 
L 415.206593 106.362921 
L 417.046154 106.351448 
L 418.885714 109.506611 
L 420.725275 112.088108 
L 422.564835 118.375487 
L 424.404396 119.385139 
L 426.243956 116.092296 
L 428.083516 114.348352 
L 429.923077 115.51863 
L 431.762637 112.604407 
L 433.602198 110.619523 
L 435.441758 110.630996 
L 437.281319 114.348352 
L 439.120879 113.763213 
L 440.96044 117.205209 
L 442.8 117.778875 
L 444.63956 117.778875 
L 446.479121 118.926207 
L 448.318681 122.356729 
L 450.158242 114.027099 
L 451.997802 113.44196 
L 453.837363 108.519905 
L 455.676923 108.531379 
L 457.516484 111.434129 
L 459.356044 113.143653 
L 461.195604 113.13218 
L 463.035165 117.732981 
L 464.874725 119.729339 
L 466.714286 118.86884 
L 468.553846 120.543945 
L 470.393407 120.532471 
L 472.232967 116.998689 
L 474.072527 113.02892 
L 475.912088 110.114697 
L 477.751648 109.552504 
L 479.591209 106.099035 
L 481.430769 109.621344 
L 485.10989 102.484939 
L 486.949451 98.090657 
L 488.789011 100.362375 
L 490.628571 100.660681 
L 492.468132 103.242178 
L 494.307692 102.943872 
L 496.147253 100.913094 
L 497.986813 100.626261 
L 499.826374 102.943872 
L 501.665934 102.943872 
L 503.505495 106.385868 
L 505.345055 106.959534 
L 507.184615 104.66487 
L 509.024176 102.943872 
L 512.703297 102.943872 
L 514.542857 100.649208 
L 516.382418 97.780878 
L 518.221978 95.486214 
L 520.061538 97.780878 
L 521.901099 98.067711 
L 523.740659 100.075542 
L 525.58022 100.350901 
L 527.41978 98.916736 
L 531.098901 92.594937 
L 532.938462 95.47474 
L 534.778022 95.451794 
L 538.457143 101.199927 
L 540.296703 102.347259 
L 542.136264 102.909452 
L 543.975824 102.920925 
L 545.815385 102.324313 
L 549.494505 102.312839 
L 551.334066 106.328501 
L 555.013187 105.743362 
L 556.852747 106.890694 
L 558.692308 106.317028 
L 560.531868 109.747551 
L 562.371429 108.026553 
L 564.210989 105.135276 
L 566.050549 107.441413 
L 567.89011 110.883409 
L 571.569231 110.871936 
L 573.408791 114.302459 
L 575.248352 113.728793 
L 577.087912 114.589292 
L 578.927473 116.31029 
L 580.767033 110.286797 
L 582.606593 111.996321 
L 584.446154 114.279512 
L 586.285714 117.721508 
L 588.125275 117.721508 
L 589.964835 118.295174 
L 591.804396 117.124895 
L 593.643956 118.55906 
L 595.483516 124.548133 
L 597.323077 128.024549 
L 599.162637 132.613877 
L 601.002198 129.665234 
L 602.841758 129.676707 
L 604.681319 130.30774 
L 606.520879 128.001603 
L 608.36044 128.001603 
L 610.2 125.316846 
L 612.03956 127.049317 
L 613.879121 130.491313 
L 615.718681 131.638645 
L 619.397802 132.785977 
L 621.237363 137.948971 
L 623.076923 141.390967 
L 624.916484 141.379494 
L 626.756044 140.209215 
L 628.595604 142.217046 
L 630.435165 142.515352 
L 632.274725 141.930213 
L 634.114286 134.954435 
L 635.953846 133.153123 
L 637.793407 130.34216 
L 639.632967 130.330687 
L 641.472527 133.795629 
L 643.312088 138.488217 
L 645.151648 136.595119 
L 646.991209 132.981023 
L 648.830769 137.226152 
L 650.67033 138.396431 
L 652.50989 141.861373 
L 654.349451 146.381861 
L 656.189011 146.955527 
L 659.868132 146.955527 
L 661.707692 153.04786 
L 663.547253 156.765216 
L 665.386813 155.583464 
L 667.226374 155.652304 
L 669.065934 159.048406 
L 672.745055 161.400437 
L 674.584615 160.803824 
L 676.424176 158.061701 
L 678.263736 157.074995 
L 680.103297 164.394974 
L 681.942857 164.222874 
L 683.782418 162.501876 
L 685.621978 161.044764 
L 687.461538 160.654671 
L 689.301099 159.289346 
L 691.140659 157.591295 
L 692.98022 156.902896 
L 694.81978 156.914369 
L 696.659341 158.64684 
L 698.498901 159.736806 
L 700.338462 161.044764 
L 702.178022 161.102131 
L 704.017582 161.72169 
L 705.857143 161.847897 
L 707.696703 165.255473 
L 709.536264 164.360554 
L 711.375824 164.69328 
L 713.215385 164.612967 
L 715.054945 163.832781 
L 716.894505 160.390785 
L 718.734066 158.268221 
L 720.573626 159.220506 
L 722.413187 157.327408 
L 724.252747 156.29481 
L 726.092308 152.439774 
L 727.931868 151.395702 
L 729.771429 153.56416 
L 731.610989 153.08228 
L 733.450549 151.487489 
L 735.29011 149.732071 
L 737.12967 148.286432 
L 738.969231 149.755017 
L 740.808791 154.906538 
L 742.648352 156.616063 
L 744.487912 157.178255 
L 746.327473 156.604589 
L 748.167033 157.166782 
L 750.006593 156.01945 
L 751.846154 157.155309 
L 755.525275 157.143835 
L 757.364835 156.271863 
L 759.204396 158.130541 
L 761.043956 160.551411 
L 762.883516 163.408268 
L 764.723077 165.679985 
L 766.562637 162.823129 
L 768.402198 165.668512 
L 770.241758 165.106319 
L 772.081319 157.660135 
L 773.920879 153.655946 
L 775.76044 146.198288 
L 777.6 142.205573 
L 777.6 142.205573 
" style="fill:none;stroke:#2ca02c;stroke-linecap:square;stroke-width:1.5;"/>
   </g>
   <g id="patch_3">
    <path d="M 108 320.4 
L 108 43.2 
" style="fill:none;stroke:#000000;stroke-linecap:square;stroke-linejoin:miter;stroke-width:0.8;"/>
   </g>
   <g id="patch_4">
    <path d="M 777.6 320.4 
L 777.6 43.2 
" style="fill:none;stroke:#000000;stroke-linecap:square;stroke-linejoin:miter;stroke-width:0.8;"/>
   </g>
   <g id="patch_5">
    <path d="M 108 320.4 
L 777.6 320.4 
" style="fill:none;stroke:#000000;stroke-linecap:square;stroke-linejoin:miter;stroke-width:0.8;"/>
   </g>
   <g id="patch_6">
    <path d="M 108 43.2 
L 777.6 43.2 
" style="fill:none;stroke:#000000;stroke-linecap:square;stroke-linejoin:miter;stroke-width:0.8;"/>
   </g>
   <g id="text_15">
    <!-- 中债国债收益率曲线 -->
    <defs>
     <path d="M 8.203125 62.0625 
L 45.796875 62.0625 
L 45.796875 83.34375 
L 54.203125 83.34375 
L 54.203125 62.0625 
L 92.1875 62.0625 
L 92.1875 17.53125 
L 84.1875 17.53125 
L 84.1875 22.796875 
L 54.203125 22.796875 
L 54.203125 -13.53125 
L 45.796875 -13.53125 
L 45.796875 22.796875 
L 16.21875 22.796875 
L 16.21875 17.53125 
L 8.203125 17.53125 
z
M 84.1875 54.828125 
L 54.203125 54.828125 
L 54.203125 30.03125 
L 84.1875 30.03125 
z
M 16.21875 30.03125 
L 45.796875 30.03125 
L 45.796875 54.828125 
L 16.21875 54.828125 
z
" id="MicrosoftYaHei-4e2d"/>
     <path d="M 26.859375 47.40625 
L 58.984375 47.40625 
L 58.984375 54.34375 
L 34.1875 54.34375 
L 34.1875 60.5 
L 58.984375 60.5 
L 58.984375 67.328125 
L 31.0625 67.328125 
L 31.0625 73.484375 
L 58.984375 73.484375 
L 58.984375 82.171875 
L 66.3125 82.171875 
L 66.3125 73.484375 
L 95.125 73.484375 
L 95.125 67.328125 
L 66.3125 67.328125 
L 66.3125 60.5 
L 90.328125 60.5 
L 90.328125 54.34375 
L 66.3125 54.34375 
L 66.3125 47.40625 
L 97.953125 47.40625 
L 97.953125 41.265625 
L 26.859375 41.265625 
z
M 1.265625 35.203125 
Q 12.890625 54.25 19.34375 82.375 
L 26.46875 81.109375 
Q 23.640625 70.65625 20.40625 61.375 
L 20.40625 -13.71875 
L 13.28125 -13.71875 
L 13.28125 44.09375 
Q 8.890625 35.015625 3.90625 27.390625 
Q 2.734375 31.390625 1.265625 35.203125 
z
M 34.859375 34.625 
L 89.15625 34.625 
L 89.15625 4.4375 
L 82.03125 4.4375 
L 82.03125 28.265625 
L 42 28.265625 
L 42 3.953125 
L 34.859375 3.953125 
z
M 58.5 25.140625 
L 65.625 25.140625 
Q 65.625 17.046875 64.0625 10.984375 
Q 80.5625 2.78125 97.265625 -7.765625 
L 92.875 -14.015625 
Q 77.546875 -3.953125 61.921875 4.9375 
Q 60.546875 2.09375 58.6875 0.046875 
Q 50.875 -8.9375 31.453125 -13.921875 
Q 28.515625 -8.453125 27.25 -6.890625 
Q 45.90625 -2.875 52.25 3.859375 
Q 58.5 9.8125 58.5 25.140625 
z
" id="MicrosoftYaHei-503a"/>
     <path d="M 7.328125 78.078125 
L 92.78125 78.078125 
L 92.78125 -13.03125 
L 85.25 -13.03125 
L 85.25 -8.15625 
L 14.84375 -8.15625 
L 14.84375 -13.140625 
L 7.328125 -13.140625 
z
M 85.25 71.140625 
L 14.84375 71.140625 
L 14.84375 -1.21875 
L 85.25 -1.21875 
z
M 19.34375 15.765625 
L 46.296875 15.765625 
L 46.296875 35.109375 
L 22.75 35.109375 
L 22.75 41.75 
L 46.296875 41.75 
L 46.296875 54.828125 
L 20.90625 54.828125 
L 20.90625 61.46875 
L 79.109375 61.46875 
L 79.109375 54.828125 
L 53.515625 54.828125 
L 53.515625 41.75 
L 77.15625 41.75 
L 77.15625 35.109375 
L 53.515625 35.109375 
L 53.515625 15.765625 
L 80.671875 15.765625 
L 80.671875 9.125 
L 19.34375 9.125 
z
M 58.59375 28.859375 
L 64.0625 32.953125 
Q 69.4375 27.390625 73.25 22.515625 
L 67.484375 18.109375 
Q 62.796875 24.46875 58.59375 28.859375 
z
" id="MicrosoftYaHei-56fd"/>
     <path d="M 35.0625 41.546875 
Q 47.5625 63.234375 53.125 83.453125 
L 61.03125 81.203125 
Q 57.90625 72.171875 54.5 63.921875 
L 97.078125 63.921875 
L 97.078125 56.6875 
L 85.59375 56.6875 
Q 84.125 28.421875 71.09375 10.640625 
Q 81 1.859375 99.21875 -4.640625 
Q 96.1875 -8.453125 93.65625 -12.453125 
Q 76.265625 -5.03125 65.921875 4.6875 
Q 56.5 -4.59375 39.84375 -13.328125 
Q 37.796875 -10.109375 34.859375 -6.78125 
Q 51.515625 1.5625 60.59375 10.5 
Q 49.3125 24.609375 46 45.5625 
Q 43.265625 40.234375 40.328125 35.296875 
Q 38.484375 38.140625 35.0625 41.546875 
z
M 26.265625 82.671875 
L 33.6875 82.671875 
L 33.6875 -12.75 
L 26.265625 -12.75 
L 26.265625 17.390625 
Q 20.3125 14.0625 14.15625 10.015625 
Q 11.625 8.15625 9.1875 5.609375 
L 3.609375 12.15625 
Q 6.640625 15.375 6.640625 20.5625 
L 6.640625 69 
L 14.0625 69 
L 14.0625 19 
Q 19.875 22.078125 26.265625 25.53125 
z
M 77.875 56.6875 
L 51.90625 56.6875 
Q 53.328125 32.859375 65.671875 16.546875 
Q 76.8125 32.234375 77.875 56.6875 
z
" id="MicrosoftYaHei-6536"/>
     <path d="M 1.765625 -1.609375 
L 15.921875 -1.609375 
L 15.921875 31.203125 
L 84.46875 31.203125 
L 84.46875 -1.609375 
L 97.953125 -1.609375 
L 97.953125 -8.453125 
L 1.765625 -8.453125 
z
M 4.109375 64.3125 
L 57.375 64.3125 
Q 66.015625 72.65625 74.125 83.34375 
L 81.25 78.859375 
Q 74.609375 71.140625 67.671875 64.3125 
L 96.484375 64.3125 
L 96.484375 57.46875 
L 4.109375 57.46875 
z
M 77.4375 24.5625 
L 63.765625 24.5625 
L 63.765625 -1.609375 
L 77.4375 -1.609375 
z
M 22.953125 -1.609375 
L 36.53125 -1.609375 
L 36.53125 24.5625 
L 22.953125 24.5625 
z
M 43.359375 -1.609375 
L 56.9375 -1.609375 
L 56.9375 24.5625 
L 43.359375 24.5625 
z
M 36.53125 54.4375 
L 41.3125 48.09375 
Q 26.078125 38.8125 7.125 29.25 
Q 5.171875 33.0625 3.125 36.078125 
Q 21.390625 44.875 36.53125 54.4375 
z
M 59.28125 48.296875 
L 63.28125 54.25 
Q 82.8125 45.0625 97.078125 37.25 
L 92.78125 30.03125 
Q 73.53125 41.15625 59.28125 48.296875 
z
M 19.34375 78.375 
L 24.421875 83.453125 
Q 32.8125 77.390625 39.546875 71.625 
L 33.984375 65.765625 
Q 27.640625 71.828125 19.34375 78.375 
z
" id="MicrosoftYaHei-76ca"/>
     <path d="M 39.453125 31.390625 
Q 40.96875 31.5 61.375 32.515625 
Q 58.9375 35.9375 56.640625 38.921875 
L 61.921875 42.234375 
Q 68.953125 34.421875 74.90625 25.828125 
L 68.65625 21.921875 
Q 66.9375 24.515625 65.28125 26.953125 
Q 46.734375 25.921875 34.578125 24.953125 
Q 32.421875 24.75 29.390625 24.078125 
L 26.953125 30.71875 
Q 29.890625 31.6875 31.34375 32.5625 
Q 39.59375 38.140625 47.65625 45.515625 
Q 40.578125 45.21875 35.546875 44.78125 
Q 33.5 44.484375 31.0625 43.890625 
L 28.125 49.859375 
Q 30.5625 50.734375 32.625 52.59375 
Q 39.203125 58.15625 44.921875 66.0625 
L 3.609375 66.0625 
L 3.609375 72.90625 
L 47.359375 72.90625 
Q 44.96875 77.25 42.875 80.515625 
L 49.90625 83.9375 
Q 53.71875 78.125 56.5 72.90625 
L 96.484375 72.90625 
L 96.484375 66.0625 
L 47.703125 66.0625 
L 52.34375 63.625 
Q 44.4375 55.515625 38.96875 50.734375 
Q 44.53125 50.875 53.515625 51.078125 
Q 57.421875 54.984375 61.328125 59.328125 
L 68.0625 55.421875 
Q 52.546875 40.671875 39.453125 31.390625 
z
M 2.25 15.484375 
L 46.78125 15.484375 
L 46.78125 24.078125 
L 54.5 24.078125 
L 54.5 15.484375 
L 98.046875 15.484375 
L 98.046875 8.640625 
L 54.5 8.640625 
L 54.5 -13.328125 
L 46.78125 -13.328125 
L 46.78125 8.640625 
L 2.25 8.640625 
z
M 26.859375 41.75 
L 30.375 35.984375 
Q 18.75 29.15625 6.640625 22.015625 
L 2.546875 28.5625 
Q 12.703125 33.34375 26.859375 41.75 
z
M 75.875 41.84375 
Q 89.84375 33.9375 97.65625 28.375 
L 93.359375 22.015625 
Q 83.296875 29.828125 71.875 36.578125 
z
M 93.65625 56.109375 
Q 86.234375 49.65625 77.546875 43.890625 
L 72.5625 49.078125 
Q 81.9375 55.21875 88.09375 61.375 
z
M 5.671875 56.78125 
L 10.640625 61.578125 
Q 18.75 55.125 24.8125 49.359375 
L 19.34375 44 
Q 13.671875 49.953125 5.671875 56.78125 
z
" id="MicrosoftYaHei-7387"/>
     <path d="M 33.796875 83.15625 
L 41.015625 83.15625 
L 41.015625 67.046875 
L 58.984375 67.046875 
L 58.984375 83.25 
L 66.21875 83.25 
L 66.21875 67.046875 
L 91.40625 67.046875 
L 91.40625 -12.84375 
L 84.1875 -12.84375 
L 84.1875 -6.390625 
L 15.828125 -6.390625 
L 15.828125 -12.84375 
L 8.59375 -12.84375 
L 8.59375 67.046875 
L 33.796875 67.046875 
z
M 15.828125 0.640625 
L 33.796875 0.640625 
L 33.796875 27.390625 
L 15.828125 27.390625 
z
M 66.21875 0.640625 
L 84.1875 0.640625 
L 84.1875 27.390625 
L 66.21875 27.390625 
z
M 41.015625 0.640625 
L 58.984375 0.640625 
L 58.984375 27.390625 
L 41.015625 27.390625 
z
M 15.828125 34.421875 
L 33.796875 34.421875 
L 33.796875 60.015625 
L 15.828125 60.015625 
z
M 84.1875 60.015625 
L 66.21875 60.015625 
L 66.21875 34.421875 
L 84.1875 34.421875 
z
M 41.015625 34.421875 
L 58.984375 34.421875 
L 58.984375 60.015625 
L 41.015625 60.015625 
z
" id="MicrosoftYaHei-66f2"/>
     <path d="M 30.765625 -5.421875 
Q 49.125 1.171875 62.546875 9.859375 
Q 59.078125 18.703125 57.078125 30.8125 
L 36.234375 27.875 
L 35.0625 34.90625 
L 56.109375 37.84375 
Q 55.28125 44.671875 54.890625 52.4375 
L 37.203125 50.4375 
L 36.03125 57.46875 
L 54.5 59.515625 
Q 53.953125 69.671875 53.515625 82.859375 
L 61.53125 82.859375 
Q 61.765625 70.265625 62.15625 60.40625 
L 94.828125 64.109375 
L 95.703125 57.171875 
L 62.453125 53.328125 
Q 62.796875 45.609375 63.578125 38.875 
L 97.265625 43.609375 
L 98.140625 36.671875 
L 64.5 31.890625 
Q 66.15625 21.78125 69 14.3125 
Q 79.34375 22.125 86.234375 31.390625 
L 92.578125 26.609375 
Q 83.796875 16.015625 72.171875 7.421875 
Q 75.921875 0.6875 81.15625 -2.875 
Q 87.59375 -6.6875 89.453125 1.03125 
Q 90.71875 7.28125 91.5 14.890625 
Q 96 12.9375 99.03125 12.0625 
Q 97.359375 1.515625 95.703125 -3.859375 
Q 92.875 -12.15625 86.03125 -12.15625 
Q 78.90625 -12.15625 72.859375 -6.296875 
Q 68.890625 -2.546875 65.765625 3.03125 
Q 52.34375 -5.671875 35.640625 -12.0625 
Q 33.890625 -9.328125 30.765625 -5.421875 
z
M 14.0625 24.078125 
Q 22.75 25.34375 34.578125 27.390625 
Q 33.984375 23.78125 33.6875 19.875 
Q 17.390625 17.328125 5.078125 15.28125 
L 3.515625 22.609375 
Q 10.296875 29.890625 18.40625 43.359375 
Q 10.5 42.921875 3.515625 42.234375 
L 1.65625 48.875 
Q 10.75 61.28125 20.3125 83.640625 
L 27.734375 80.71875 
Q 17.671875 60.890625 10.453125 49.46875 
Q 16.265625 49.65625 22.21875 49.90625 
Q 25.59375 55.90625 29.203125 62.9375 
L 36.421875 59.328125 
Q 24.515625 38.71875 14.0625 24.078125 
z
M 1.65625 1.515625 
Q 18.84375 5.21875 36.421875 9.625 
Q 36.140625 5.71875 36.140625 2.203125 
Q 19.828125 -1.609375 3.8125 -5.90625 
z
M 69.734375 77.6875 
L 73.921875 82.5625 
Q 80.859375 78.171875 88.765625 72.015625 
L 84.078125 66.359375 
Q 75.984375 73.296875 69.734375 77.6875 
z
" id="MicrosoftYaHei-7ebf"/>
    </defs>
    <g transform="translate(388.8 37.2)scale(0.12 -0.12)">
     <use xlink:href="#MicrosoftYaHei-4e2d"/>
     <use x="100" xlink:href="#MicrosoftYaHei-503a"/>
     <use x="200" xlink:href="#MicrosoftYaHei-56fd"/>
     <use x="300" xlink:href="#MicrosoftYaHei-503a"/>
     <use x="400" xlink:href="#MicrosoftYaHei-6536"/>
     <use x="500" xlink:href="#MicrosoftYaHei-76ca"/>
     <use x="600" xlink:href="#MicrosoftYaHei-7387"/>
     <use x="700" xlink:href="#MicrosoftYaHei-66f2"/>
     <use x="800" xlink:href="#MicrosoftYaHei-7ebf"/>
    </g>
   </g>
   <g id="legend_1">
    <g id="patch_7">
     <path d="M 716.871875 97.639062 
L 770.6 97.639062 
Q 772.6 97.639062 772.6 95.639062 
L 772.6 50.2 
Q 772.6 48.2 770.6 48.2 
L 716.871875 48.2 
Q 714.871875 48.2 714.871875 50.2 
L 714.871875 95.639062 
Q 714.871875 97.639062 716.871875 97.639062 
z
" style="fill:#ffffff;opacity:0.8;stroke:#cccccc;stroke-linejoin:miter;"/>
    </g>
    <g id="line2d_30">
     <path d="M 718.871875 56.69375 
L 738.871875 56.69375 
" style="fill:none;stroke:#1f77b4;stroke-linecap:square;stroke-width:1.5;"/>
    </g>
    <g id="line2d_31"/>
    <g id="text_16">
     <!-- 3月 -->
     <defs>
      <path d="M 25.046875 20.0625 
Q 22.859375 1.21875 10.359375 -14.015625 
Q 7.234375 -10.984375 3.609375 -8.15625 
Q 13.09375 2.09375 16.3125 16.265625 
Q 18.5625 26.703125 18.5625 45.171875 
L 18.5625 78.953125 
L 83.796875 78.953125 
L 83.796875 2.78125 
Q 83.796875 -11.671875 70.015625 -11.671875 
Q 64.265625 -11.671875 55.171875 -11.46875 
Q 54.6875 -7.953125 53.71875 -3.265625 
Q 62.703125 -3.859375 67.875 -3.859375 
Q 75.78125 -3.859375 75.78125 3.859375 
L 75.78125 20.0625 
z
M 25.828125 27.203125 
L 75.78125 27.203125 
L 75.78125 45.953125 
L 26.5625 45.953125 
Q 26.5625 36.1875 25.828125 27.203125 
z
M 26.5625 71.625 
L 26.5625 53.078125 
L 75.78125 53.078125 
L 75.78125 71.625 
z
" id="MicrosoftYaHei-6708"/>
     </defs>
     <g transform="translate(746.871875 60.19375)scale(0.1 -0.1)">
      <use xlink:href="#MicrosoftYaHei-33"/>
      <use x="58.642578" xlink:href="#MicrosoftYaHei-6708"/>
     </g>
    </g>
    <g id="line2d_32">
     <path d="M 718.871875 72.173437 
L 738.871875 72.173437 
" style="fill:none;stroke:#ff7f0e;stroke-linecap:square;stroke-width:1.5;"/>
    </g>
    <g id="line2d_33"/>
    <g id="text_17">
     <!-- 1年 -->
     <defs>
      <path d="M 1.859375 19.96875 
L 17.578125 19.96875 
L 17.578125 47.90625 
L 52.15625 47.90625 
L 52.15625 65.28125 
L 23.4375 65.28125 
Q 16.84375 53.421875 8.6875 43.40625 
Q 6.15625 46.140625 2.640625 48.875 
Q 16.5 64.5 23.4375 83.9375 
L 31.453125 81.6875 
Q 29.390625 76.859375 27.15625 72.3125 
L 94.34375 72.3125 
L 94.34375 65.28125 
L 60.0625 65.28125 
L 60.0625 47.90625 
L 92.671875 47.90625 
L 92.671875 41.0625 
L 60.0625 41.0625 
L 60.0625 19.96875 
L 98.734375 19.96875 
L 98.734375 12.9375 
L 60.0625 12.9375 
L 60.0625 -13.421875 
L 52.15625 -13.421875 
L 52.15625 12.9375 
L 1.859375 12.9375 
z
M 25.296875 19.96875 
L 52.15625 19.96875 
L 52.15625 41.0625 
L 25.296875 41.0625 
z
" id="MicrosoftYaHei-5e74"/>
     </defs>
     <g transform="translate(746.871875 75.673437)scale(0.1 -0.1)">
      <use xlink:href="#MicrosoftYaHei-31"/>
      <use x="58.642578" xlink:href="#MicrosoftYaHei-5e74"/>
     </g>
    </g>
    <g id="line2d_34">
     <path d="M 718.871875 87.653125 
L 738.871875 87.653125 
" style="fill:none;stroke:#2ca02c;stroke-linecap:square;stroke-width:1.5;"/>
    </g>
    <g id="line2d_35"/>
    <g id="text_18">
     <!-- 10年 -->
     <g transform="translate(746.871875 91.153125)scale(0.1 -0.1)">
      <use xlink:href="#MicrosoftYaHei-31"/>
      <use x="58.642578" xlink:href="#MicrosoftYaHei-30"/>
      <use x="117.285156" xlink:href="#MicrosoftYaHei-5e74"/>
     </g>
    </g>
   </g>
  </g>
 </g>
 <defs>
  <clipPath id="p5426dbdb8a">
   <rect height="277.2" width="669.6" x="108" y="43.2"/>
  </clipPath>
 </defs>
</svg>
