<?xml version="1.0" encoding="utf-8" standalone="no"?>
<!DOCTYPE svg PUBLIC "-//W3C//DTD SVG 1.1//EN"
  "http://www.w3.org/Graphics/SVG/1.1/DTD/svg11.dtd">
<!-- Created with matplotlib (http://matplotlib.org/) -->
<svg height="360pt" version="1.1" viewBox="0 0 864 360" width="864pt" xmlns="http://www.w3.org/2000/svg" xmlns:xlink="http://www.w3.org/1999/xlink">
 <defs>
  <style type="text/css">
*{stroke-linecap:butt;stroke-linejoin:round;}
  </style>
 </defs>
 <g id="figure_1">
  <g id="patch_1">
   <path d="M 0 360 
L 864 360 
L 864 0 
L 0 0 
z
" style="fill:#ffffff;"/>
  </g>
  <g id="axes_1">
   <g id="patch_2">
    <path d="M 108 320.4 
L 777.6 320.4 
L 777.6 43.2 
L 108 43.2 
z
" style="fill:#ffffff;"/>
   </g>
   <g id="matplotlib.axis_1">
    <g id="xtick_1">
     <g id="line2d_1">
      <path clip-path="url(#p8ce9e57a37)" d="M 108 320.4 
L 108 43.2 
" style="fill:none;stroke:#b0b0b0;stroke-linecap:square;stroke-width:0.8;"/>
     </g>
     <g id="line2d_2">
      <defs>
       <path d="M 0 0 
L 0 3.5 
" id="me0c7e1ef61" style="stroke:#000000;stroke-width:0.8;"/>
      </defs>
      <g>
       <use style="stroke:#000000;stroke-width:0.8;" x="108" xlink:href="#me0c7e1ef61" y="320.4"/>
      </g>
     </g>
     <g id="text_1">
      <!-- 2007-01-05 -->
      <defs>
       <path d="M 51.171875 0 
L 5.171875 0 
L 5.171875 8.296875 
L 27.15625 30.21875 
Q 36.234375 39.3125 39.3125 44.609375 
Q 42.390625 49.90625 42.390625 55.5625 
Q 42.390625 62.015625 38.765625 65.453125 
Q 35.15625 68.890625 28.328125 68.890625 
Q 18.21875 68.890625 9.03125 60.296875 
L 9.03125 70.015625 
Q 17.96875 76.90625 29.828125 76.90625 
Q 40.046875 76.90625 45.953125 71.390625 
Q 51.859375 65.875 51.859375 56.546875 
Q 51.859375 49.515625 48.0625 42.75 
Q 44.28125 35.984375 33.734375 25.53125 
L 16.5 8.6875 
L 16.5 8.5 
L 51.171875 8.5 
z
" id="MicrosoftYaHei-32"/>
       <path d="M 4.4375 36.328125 
Q 4.4375 56.34375 11.078125 66.625 
Q 17.71875 76.90625 30.328125 76.90625 
Q 54.34375 76.90625 54.34375 38.140625 
Q 54.34375 19 47.578125 8.859375 
Q 40.828125 -1.265625 28.609375 -1.265625 
Q 17.09375 -1.265625 10.765625 8.34375 
Q 4.4375 17.96875 4.4375 36.328125 
z
M 14.203125 36.765625 
Q 14.203125 6.640625 29.5 6.640625 
Q 44.53125 6.640625 44.53125 37.25 
Q 44.53125 68.953125 29.78125 68.953125 
Q 14.203125 68.953125 14.203125 36.765625 
z
" id="MicrosoftYaHei-30"/>
       <path d="M 53.765625 72.3125 
L 24.171875 0 
L 14.265625 0 
L 42.390625 67.1875 
L 4.59375 67.1875 
L 4.59375 75.640625 
L 53.765625 75.640625 
z
" id="MicrosoftYaHei-37"/>
       <path d="M 36.375 26.265625 
L 7.625 26.265625 
L 7.625 33.640625 
L 36.375 33.640625 
z
" id="MicrosoftYaHei-2d"/>
       <path d="M 52.59375 0 
L 9.234375 0 
L 9.234375 8.25 
L 26.171875 8.25 
L 26.171875 65.671875 
L 8.796875 60.640625 
L 8.796875 69.4375 
L 35.6875 77.25 
L 35.6875 8.25 
L 52.59375 8.25 
z
" id="MicrosoftYaHei-31"/>
       <path d="M 8.640625 11.625 
Q 16.265625 6.640625 24.515625 6.640625 
Q 32.328125 6.640625 37.109375 11 
Q 41.890625 15.375 41.890625 22.609375 
Q 41.890625 29.890625 37.03125 33.890625 
Q 32.171875 37.890625 22.953125 37.890625 
Q 18.5 37.890625 10.984375 37.203125 
L 10.984375 75.640625 
L 48.1875 75.640625 
L 48.1875 67.1875 
L 19.875 67.1875 
L 19.875 45.796875 
Q 24.125 46.046875 26.265625 46.046875 
Q 38.234375 46.046875 44.921875 39.984375 
Q 51.609375 33.9375 51.609375 23.296875 
Q 51.609375 12.3125 44.421875 5.515625 
Q 37.25 -1.265625 24.609375 -1.265625 
Q 14.015625 -1.265625 8.640625 1.859375 
z
" id="MicrosoftYaHei-35"/>
      </defs>
      <g transform="translate(80.217187 335.39375)scale(0.1 -0.1)">
       <use xlink:href="#MicrosoftYaHei-32"/>
       <use x="58.642578" xlink:href="#MicrosoftYaHei-30"/>
       <use x="117.285156" xlink:href="#MicrosoftYaHei-30"/>
       <use x="175.927734" xlink:href="#MicrosoftYaHei-37"/>
       <use x="234.570312" xlink:href="#MicrosoftYaHei-2d"/>
       <use x="277.832031" xlink:href="#MicrosoftYaHei-30"/>
       <use x="336.474609" xlink:href="#MicrosoftYaHei-31"/>
       <use x="395.117188" xlink:href="#MicrosoftYaHei-2d"/>
       <use x="438.378906" xlink:href="#MicrosoftYaHei-30"/>
       <use x="497.021484" xlink:href="#MicrosoftYaHei-35"/>
      </g>
     </g>
    </g>
    <g id="xtick_2">
     <g id="line2d_3">
      <path clip-path="url(#p8ce9e57a37)" d="M 216.913468 320.4 
L 216.913468 43.2 
" style="fill:none;stroke:#b0b0b0;stroke-linecap:square;stroke-width:0.8;"/>
     </g>
     <g id="line2d_4">
      <g>
       <use style="stroke:#000000;stroke-width:0.8;" x="216.913468" xlink:href="#me0c7e1ef61" y="320.4"/>
      </g>
     </g>
     <g id="text_2">
      <!-- 2009-01-05 -->
      <defs>
       <path d="M 9.03125 10.25 
Q 15.28125 6.640625 22.515625 6.640625 
Q 32.671875 6.640625 38.25 14.640625 
Q 43.84375 22.65625 43.84375 37.40625 
Q 43.75 37.3125 43.65625 37.40625 
Q 38.671875 27.9375 26.90625 27.9375 
Q 17.390625 27.9375 11.140625 34.46875 
Q 4.890625 41.015625 4.890625 51.46875 
Q 4.890625 62.59375 11.71875 69.75 
Q 18.5625 76.90625 29.4375 76.90625 
Q 40.71875 76.90625 47.0625 68.046875 
Q 53.421875 59.1875 53.421875 42.234375 
Q 53.421875 21.296875 45.21875 10.015625 
Q 37.015625 -1.265625 22.515625 -1.265625 
Q 14.546875 -1.265625 9.03125 1.3125 
z
M 14.546875 52.6875 
Q 14.546875 45.0625 18.453125 40.59375 
Q 22.359375 36.140625 29.25 36.140625 
Q 35.203125 36.140625 39.25 40.203125 
Q 43.3125 44.28125 43.3125 50.09375 
Q 43.3125 58.25 39.28125 63.59375 
Q 35.25 68.953125 28.65625 68.953125 
Q 22.5625 68.953125 18.546875 64.3125 
Q 14.546875 59.671875 14.546875 52.6875 
z
" id="MicrosoftYaHei-39"/>
      </defs>
      <g transform="translate(189.130655 335.39375)scale(0.1 -0.1)">
       <use xlink:href="#MicrosoftYaHei-32"/>
       <use x="58.642578" xlink:href="#MicrosoftYaHei-30"/>
       <use x="117.285156" xlink:href="#MicrosoftYaHei-30"/>
       <use x="175.927734" xlink:href="#MicrosoftYaHei-39"/>
       <use x="234.570312" xlink:href="#MicrosoftYaHei-2d"/>
       <use x="277.832031" xlink:href="#MicrosoftYaHei-30"/>
       <use x="336.474609" xlink:href="#MicrosoftYaHei-31"/>
       <use x="395.117188" xlink:href="#MicrosoftYaHei-2d"/>
       <use x="438.378906" xlink:href="#MicrosoftYaHei-30"/>
       <use x="497.021484" xlink:href="#MicrosoftYaHei-35"/>
      </g>
     </g>
    </g>
    <g id="xtick_3">
     <g id="line2d_5">
      <path clip-path="url(#p8ce9e57a37)" d="M 325.826936 320.4 
L 325.826936 43.2 
" style="fill:none;stroke:#b0b0b0;stroke-linecap:square;stroke-width:0.8;"/>
     </g>
     <g id="line2d_6">
      <g>
       <use style="stroke:#000000;stroke-width:0.8;" x="325.826936" xlink:href="#me0c7e1ef61" y="320.4"/>
      </g>
     </g>
     <g id="text_3">
      <!-- 2011-01-05 -->
      <g transform="translate(298.044123 335.39375)scale(0.1 -0.1)">
       <use xlink:href="#MicrosoftYaHei-32"/>
       <use x="58.642578" xlink:href="#MicrosoftYaHei-30"/>
       <use x="117.285156" xlink:href="#MicrosoftYaHei-31"/>
       <use x="175.927734" xlink:href="#MicrosoftYaHei-31"/>
       <use x="234.570312" xlink:href="#MicrosoftYaHei-2d"/>
       <use x="277.832031" xlink:href="#MicrosoftYaHei-30"/>
       <use x="336.474609" xlink:href="#MicrosoftYaHei-31"/>
       <use x="395.117188" xlink:href="#MicrosoftYaHei-2d"/>
       <use x="438.378906" xlink:href="#MicrosoftYaHei-30"/>
       <use x="497.021484" xlink:href="#MicrosoftYaHei-35"/>
      </g>
     </g>
    </g>
    <g id="xtick_4">
     <g id="line2d_7">
      <path clip-path="url(#p8ce9e57a37)" d="M 434.740403 320.4 
L 434.740403 43.2 
" style="fill:none;stroke:#b0b0b0;stroke-linecap:square;stroke-width:0.8;"/>
     </g>
     <g id="line2d_8">
      <g>
       <use style="stroke:#000000;stroke-width:0.8;" x="434.740403" xlink:href="#me0c7e1ef61" y="320.4"/>
      </g>
     </g>
     <g id="text_4">
      <!-- 2013-01-06 -->
      <defs>
       <path d="M 6.984375 12.640625 
Q 14.75 6.640625 24.515625 6.640625 
Q 32.328125 6.640625 36.890625 10.46875 
Q 41.453125 14.3125 41.453125 20.75 
Q 41.453125 35.109375 20.90625 35.109375 
L 14.59375 35.109375 
L 14.59375 43.015625 
L 20.609375 43.015625 
Q 38.8125 43.015625 38.8125 56.5 
Q 38.8125 68.953125 24.90625 68.953125 
Q 16.9375 68.953125 9.90625 63.578125 
L 9.90625 72.609375 
Q 17.328125 76.90625 27.25 76.90625 
Q 36.921875 76.90625 42.78125 71.84375 
Q 48.640625 66.796875 48.640625 58.734375 
Q 48.640625 43.890625 33.5 39.65625 
L 33.5 39.453125 
Q 41.703125 38.578125 46.453125 33.671875 
Q 51.21875 28.765625 51.21875 21.4375 
Q 51.21875 11.234375 43.875 4.984375 
Q 36.53125 -1.265625 24.3125 -1.265625 
Q 13.578125 -1.265625 6.984375 2.734375 
z
" id="MicrosoftYaHei-33"/>
       <path d="M 49.703125 65.921875 
Q 43.796875 68.953125 37.359375 68.953125 
Q 27.546875 68.953125 21.578125 60.40625 
Q 15.625 51.859375 15.53125 37.0625 
L 15.765625 37.0625 
Q 21.140625 47.46875 32.90625 47.46875 
Q 42.71875 47.46875 48.578125 41.0625 
Q 54.4375 34.671875 54.4375 24.078125 
Q 54.4375 12.984375 47.671875 5.859375 
Q 40.921875 -1.265625 30.421875 -1.265625 
Q 18.890625 -1.265625 12.328125 7.734375 
Q 5.765625 16.75 5.765625 33.296875 
Q 5.765625 53.328125 14.375 65.109375 
Q 23 76.90625 37.0625 76.90625 
Q 45.125 76.90625 49.703125 74.703125 
z
M 16.109375 24.75 
Q 16.109375 17.28125 20.09375 11.953125 
Q 24.078125 6.640625 30.671875 6.640625 
Q 36.921875 6.640625 40.828125 11.234375 
Q 44.734375 15.828125 44.734375 23.046875 
Q 44.734375 30.859375 41.046875 35.203125 
Q 37.359375 39.546875 30.5625 39.546875 
Q 24.125 39.546875 20.109375 35.15625 
Q 16.109375 30.765625 16.109375 24.75 
z
" id="MicrosoftYaHei-36"/>
      </defs>
      <g transform="translate(406.957591 335.39375)scale(0.1 -0.1)">
       <use xlink:href="#MicrosoftYaHei-32"/>
       <use x="58.642578" xlink:href="#MicrosoftYaHei-30"/>
       <use x="117.285156" xlink:href="#MicrosoftYaHei-31"/>
       <use x="175.927734" xlink:href="#MicrosoftYaHei-33"/>
       <use x="234.570312" xlink:href="#MicrosoftYaHei-2d"/>
       <use x="277.832031" xlink:href="#MicrosoftYaHei-30"/>
       <use x="336.474609" xlink:href="#MicrosoftYaHei-31"/>
       <use x="395.117188" xlink:href="#MicrosoftYaHei-2d"/>
       <use x="438.378906" xlink:href="#MicrosoftYaHei-30"/>
       <use x="497.021484" xlink:href="#MicrosoftYaHei-36"/>
      </g>
     </g>
    </g>
    <g id="xtick_5">
     <g id="line2d_9">
      <path clip-path="url(#p8ce9e57a37)" d="M 543.653871 320.4 
L 543.653871 43.2 
" style="fill:none;stroke:#b0b0b0;stroke-linecap:square;stroke-width:0.8;"/>
     </g>
     <g id="line2d_10">
      <g>
       <use style="stroke:#000000;stroke-width:0.8;" x="543.653871" xlink:href="#me0c7e1ef61" y="320.4"/>
      </g>
     </g>
     <g id="text_5">
      <!-- 2015-01-06 -->
      <g transform="translate(515.871059 335.39375)scale(0.1 -0.1)">
       <use xlink:href="#MicrosoftYaHei-32"/>
       <use x="58.642578" xlink:href="#MicrosoftYaHei-30"/>
       <use x="117.285156" xlink:href="#MicrosoftYaHei-31"/>
       <use x="175.927734" xlink:href="#MicrosoftYaHei-35"/>
       <use x="234.570312" xlink:href="#MicrosoftYaHei-2d"/>
       <use x="277.832031" xlink:href="#MicrosoftYaHei-30"/>
       <use x="336.474609" xlink:href="#MicrosoftYaHei-31"/>
       <use x="395.117188" xlink:href="#MicrosoftYaHei-2d"/>
       <use x="438.378906" xlink:href="#MicrosoftYaHei-30"/>
       <use x="497.021484" xlink:href="#MicrosoftYaHei-36"/>
      </g>
     </g>
    </g>
    <g id="xtick_6">
     <g id="line2d_11">
      <path clip-path="url(#p8ce9e57a37)" d="M 652.567339 320.4 
L 652.567339 43.2 
" style="fill:none;stroke:#b0b0b0;stroke-linecap:square;stroke-width:0.8;"/>
     </g>
     <g id="line2d_12">
      <g>
       <use style="stroke:#000000;stroke-width:0.8;" x="652.567339" xlink:href="#me0c7e1ef61" y="320.4"/>
      </g>
     </g>
     <g id="text_6">
      <!-- 2017-01-05 -->
      <g transform="translate(624.784526 335.39375)scale(0.1 -0.1)">
       <use xlink:href="#MicrosoftYaHei-32"/>
       <use x="58.642578" xlink:href="#MicrosoftYaHei-30"/>
       <use x="117.285156" xlink:href="#MicrosoftYaHei-31"/>
       <use x="175.927734" xlink:href="#MicrosoftYaHei-37"/>
       <use x="234.570312" xlink:href="#MicrosoftYaHei-2d"/>
       <use x="277.832031" xlink:href="#MicrosoftYaHei-30"/>
       <use x="336.474609" xlink:href="#MicrosoftYaHei-31"/>
       <use x="395.117188" xlink:href="#MicrosoftYaHei-2d"/>
       <use x="438.378906" xlink:href="#MicrosoftYaHei-30"/>
       <use x="497.021484" xlink:href="#MicrosoftYaHei-35"/>
      </g>
     </g>
    </g>
    <g id="xtick_7">
     <g id="line2d_13">
      <path clip-path="url(#p8ce9e57a37)" d="M 761.480807 320.4 
L 761.480807 43.2 
" style="fill:none;stroke:#b0b0b0;stroke-linecap:square;stroke-width:0.8;"/>
     </g>
     <g id="line2d_14">
      <g>
       <use style="stroke:#000000;stroke-width:0.8;" x="761.480807" xlink:href="#me0c7e1ef61" y="320.4"/>
      </g>
     </g>
     <g id="text_7">
      <!-- 2018-12-31 -->
      <defs>
       <path d="M 21.390625 39.796875 
Q 7.859375 46.09375 7.859375 58.0625 
Q 7.859375 66.40625 14.203125 71.65625 
Q 20.5625 76.90625 30.421875 76.90625 
Q 39.453125 76.90625 45.3125 71.96875 
Q 51.171875 67.046875 51.171875 59.234375 
Q 51.171875 46.625 37.0625 39.84375 
L 37.0625 39.65625 
Q 53.609375 33.6875 53.609375 19.34375 
Q 53.609375 9.90625 46.796875 4.3125 
Q 39.984375 -1.265625 27.78125 -1.265625 
Q 17.78125 -1.265625 11.46875 4.25 
Q 5.171875 9.765625 5.171875 18.5625 
Q 5.171875 33.015625 21.390625 39.59375 
z
M 41.5 58.109375 
Q 41.5 63.1875 38.328125 66.109375 
Q 35.15625 69.046875 29.734375 69.046875 
Q 24.65625 69.046875 21.09375 65.984375 
Q 17.53125 62.9375 17.53125 58.203125 
Q 17.53125 48.734375 29.390625 43.796875 
Q 41.5 48.828125 41.5 58.109375 
z
M 28.8125 35.25 
Q 14.796875 29.59375 14.796875 19.046875 
Q 14.796875 13.578125 18.890625 10.0625 
Q 23 6.546875 29.59375 6.546875 
Q 35.984375 6.546875 39.984375 10.03125 
Q 44 13.53125 44 18.75 
Q 44 29.734375 28.8125 35.25 
z
" id="MicrosoftYaHei-38"/>
      </defs>
      <g transform="translate(733.697994 335.39375)scale(0.1 -0.1)">
       <use xlink:href="#MicrosoftYaHei-32"/>
       <use x="58.642578" xlink:href="#MicrosoftYaHei-30"/>
       <use x="117.285156" xlink:href="#MicrosoftYaHei-31"/>
       <use x="175.927734" xlink:href="#MicrosoftYaHei-38"/>
       <use x="234.570312" xlink:href="#MicrosoftYaHei-2d"/>
       <use x="277.832031" xlink:href="#MicrosoftYaHei-31"/>
       <use x="336.474609" xlink:href="#MicrosoftYaHei-32"/>
       <use x="395.117188" xlink:href="#MicrosoftYaHei-2d"/>
       <use x="438.378906" xlink:href="#MicrosoftYaHei-33"/>
       <use x="497.021484" xlink:href="#MicrosoftYaHei-31"/>
      </g>
     </g>
    </g>
    <g id="text_8">
     <!-- 日期 -->
     <defs>
      <path d="M 15.234375 76.703125 
L 84.859375 76.703125 
L 84.859375 -11.96875 
L 76.5625 -11.96875 
L 76.5625 -5.03125 
L 23.53125 -5.03125 
L 23.53125 -11.96875 
L 15.234375 -11.96875 
z
M 23.53125 32.859375 
L 23.53125 2.09375 
L 76.5625 2.09375 
L 76.5625 32.859375 
z
M 23.53125 69.390625 
L 23.53125 40.1875 
L 76.5625 40.1875 
L 76.5625 69.390625 
z
" id="MicrosoftYaHei-65e5"/>
      <path d="M 58.890625 79.15625 
L 93.453125 79.15625 
L 93.453125 -0.046875 
Q 93.453125 -11.578125 82.515625 -11.578125 
Q 77.046875 -11.578125 71.78125 -11.28125 
Q 71.390625 -8.0625 70.609375 -3.765625 
Q 77.734375 -4.4375 80.859375 -4.4375 
Q 86.234375 -4.4375 86.234375 0.921875 
L 86.234375 21.4375 
L 65.328125 21.4375 
Q 64.265625 0.046875 52.34375 -14.109375 
Q 49.703125 -11.375 46.484375 -8.640625 
Q 54.390625 0.4375 56.546875 10.203125 
Q 58.890625 19.578125 58.890625 42.828125 
z
M 1.953125 17.828125 
L 11.140625 17.828125 
L 11.140625 62.9375 
L 3.125 62.9375 
L 3.125 69.578125 
L 11.140625 69.578125 
L 11.140625 81.5 
L 18.359375 81.5 
L 18.359375 69.578125 
L 38.671875 69.578125 
L 38.671875 81.890625 
L 45.90625 81.890625 
L 45.90625 69.578125 
L 53.8125 69.578125 
L 53.8125 62.9375 
L 45.90625 62.9375 
L 45.90625 17.828125 
L 53.71875 17.828125 
L 53.71875 11.1875 
L 1.953125 11.1875 
z
M 65.765625 27.875 
L 86.234375 27.875 
L 86.234375 47.015625 
L 66.109375 47.015625 
Q 66.21875 34.421875 65.765625 27.875 
z
M 86.234375 72.515625 
L 66.109375 72.515625 
L 66.109375 53.46875 
L 86.234375 53.46875 
z
M 18.359375 17.828125 
L 38.671875 17.828125 
L 38.671875 28.765625 
L 18.359375 28.765625 
z
M 18.359375 35.015625 
L 38.671875 35.015625 
L 38.671875 45.84375 
L 18.359375 45.84375 
z
M 18.359375 52.09375 
L 38.671875 52.09375 
L 38.671875 62.9375 
L 18.359375 62.9375 
z
M 18.359375 9.328125 
L 24.3125 4.640625 
Q 14.453125 -6 6.34375 -13.234375 
Q 4.296875 -10.890625 1.171875 -8.0625 
Q 10.453125 -0.140625 18.359375 9.328125 
z
M 31.15625 4.734375 
L 35.84375 9.515625 
Q 42.671875 4.4375 48.734375 -0.734375 
L 43.5625 -6.296875 
Q 38.09375 -0.828125 31.15625 4.734375 
z
" id="MicrosoftYaHei-671f"/>
     </defs>
     <g transform="translate(432.8 349.873438)scale(0.1 -0.1)">
      <use xlink:href="#MicrosoftYaHei-65e5"/>
      <use x="100" xlink:href="#MicrosoftYaHei-671f"/>
     </g>
    </g>
   </g>
   <g id="matplotlib.axis_2">
    <g id="ytick_1">
     <g id="line2d_15">
      <path clip-path="url(#p8ce9e57a37)" d="M 108 307.059304 
L 777.6 307.059304 
" style="fill:none;stroke:#b0b0b0;stroke-linecap:square;stroke-width:0.8;"/>
     </g>
     <g id="line2d_16">
      <defs>
       <path d="M 0 0 
L -3.5 0 
" id="m837f37b177" style="stroke:#000000;stroke-width:0.8;"/>
      </defs>
      <g>
       <use style="stroke:#000000;stroke-width:0.8;" x="108" xlink:href="#m837f37b177" y="307.059304"/>
      </g>
     </g>
     <g id="text_9">
      <!-- −1.5 -->
      <defs>
       <path d="M 62.0625 27.6875 
L 12.3125 27.6875 
L 12.3125 35.15625 
L 62.0625 35.15625 
z
" id="MicrosoftYaHei-2212"/>
       <path d="M 5.8125 5.03125 
Q 5.8125 7.671875 7.609375 9.46875 
Q 9.421875 11.28125 12.109375 11.28125 
Q 14.84375 11.28125 16.640625 9.453125 
Q 18.453125 7.625 18.453125 5.03125 
Q 18.453125 2.484375 16.640625 0.65625 
Q 14.84375 -1.171875 12.0625 -1.171875 
Q 9.375 -1.171875 7.59375 0.65625 
Q 5.8125 2.484375 5.8125 5.03125 
z
" id="MicrosoftYaHei-2e"/>
      </defs>
      <g transform="translate(79.446875 311.056179)scale(0.1 -0.1)">
       <use xlink:href="#MicrosoftYaHei-2212"/>
       <use x="74.169922" xlink:href="#MicrosoftYaHei-31"/>
       <use x="132.8125" xlink:href="#MicrosoftYaHei-2e"/>
       <use x="156.884766" xlink:href="#MicrosoftYaHei-35"/>
      </g>
     </g>
    </g>
    <g id="ytick_2">
     <g id="line2d_17">
      <path clip-path="url(#p8ce9e57a37)" d="M 108 275.67386 
L 777.6 275.67386 
" style="fill:none;stroke:#b0b0b0;stroke-linecap:square;stroke-width:0.8;"/>
     </g>
     <g id="line2d_18">
      <g>
       <use style="stroke:#000000;stroke-width:0.8;" x="108" xlink:href="#m837f37b177" y="275.67386"/>
      </g>
     </g>
     <g id="text_10">
      <!-- −1.0 -->
      <g transform="translate(79.446875 279.670735)scale(0.1 -0.1)">
       <use xlink:href="#MicrosoftYaHei-2212"/>
       <use x="74.169922" xlink:href="#MicrosoftYaHei-31"/>
       <use x="132.8125" xlink:href="#MicrosoftYaHei-2e"/>
       <use x="156.884766" xlink:href="#MicrosoftYaHei-30"/>
      </g>
     </g>
    </g>
    <g id="ytick_3">
     <g id="line2d_19">
      <path clip-path="url(#p8ce9e57a37)" d="M 108 244.288417 
L 777.6 244.288417 
" style="fill:none;stroke:#b0b0b0;stroke-linecap:square;stroke-width:0.8;"/>
     </g>
     <g id="line2d_20">
      <g>
       <use style="stroke:#000000;stroke-width:0.8;" x="108" xlink:href="#m837f37b177" y="244.288417"/>
      </g>
     </g>
     <g id="text_11">
      <!-- −0.5 -->
      <g transform="translate(79.446875 248.285292)scale(0.1 -0.1)">
       <use xlink:href="#MicrosoftYaHei-2212"/>
       <use x="74.169922" xlink:href="#MicrosoftYaHei-30"/>
       <use x="132.8125" xlink:href="#MicrosoftYaHei-2e"/>
       <use x="156.884766" xlink:href="#MicrosoftYaHei-35"/>
      </g>
     </g>
    </g>
    <g id="ytick_4">
     <g id="line2d_21">
      <path clip-path="url(#p8ce9e57a37)" d="M 108 212.902974 
L 777.6 212.902974 
" style="fill:none;stroke:#b0b0b0;stroke-linecap:square;stroke-width:0.8;"/>
     </g>
     <g id="line2d_22">
      <g>
       <use style="stroke:#000000;stroke-width:0.8;" x="108" xlink:href="#m837f37b177" y="212.902974"/>
      </g>
     </g>
     <g id="text_12">
      <!-- 0.0 -->
      <g transform="translate(86.864063 216.899849)scale(0.1 -0.1)">
       <use xlink:href="#MicrosoftYaHei-30"/>
       <use x="58.642578" xlink:href="#MicrosoftYaHei-2e"/>
       <use x="82.714844" xlink:href="#MicrosoftYaHei-30"/>
      </g>
     </g>
    </g>
    <g id="ytick_5">
     <g id="line2d_23">
      <path clip-path="url(#p8ce9e57a37)" d="M 108 181.517531 
L 777.6 181.517531 
" style="fill:none;stroke:#b0b0b0;stroke-linecap:square;stroke-width:0.8;"/>
     </g>
     <g id="line2d_24">
      <g>
       <use style="stroke:#000000;stroke-width:0.8;" x="108" xlink:href="#m837f37b177" y="181.517531"/>
      </g>
     </g>
     <g id="text_13">
      <!-- 0.5 -->
      <g transform="translate(86.864063 185.514406)scale(0.1 -0.1)">
       <use xlink:href="#MicrosoftYaHei-30"/>
       <use x="58.642578" xlink:href="#MicrosoftYaHei-2e"/>
       <use x="82.714844" xlink:href="#MicrosoftYaHei-35"/>
      </g>
     </g>
    </g>
    <g id="ytick_6">
     <g id="line2d_25">
      <path clip-path="url(#p8ce9e57a37)" d="M 108 150.132088 
L 777.6 150.132088 
" style="fill:none;stroke:#b0b0b0;stroke-linecap:square;stroke-width:0.8;"/>
     </g>
     <g id="line2d_26">
      <g>
       <use style="stroke:#000000;stroke-width:0.8;" x="108" xlink:href="#m837f37b177" y="150.132088"/>
      </g>
     </g>
     <g id="text_14">
      <!-- 1.0 -->
      <g transform="translate(86.864063 154.128963)scale(0.1 -0.1)">
       <use xlink:href="#MicrosoftYaHei-31"/>
       <use x="58.642578" xlink:href="#MicrosoftYaHei-2e"/>
       <use x="82.714844" xlink:href="#MicrosoftYaHei-30"/>
      </g>
     </g>
    </g>
    <g id="ytick_7">
     <g id="line2d_27">
      <path clip-path="url(#p8ce9e57a37)" d="M 108 118.746645 
L 777.6 118.746645 
" style="fill:none;stroke:#b0b0b0;stroke-linecap:square;stroke-width:0.8;"/>
     </g>
     <g id="line2d_28">
      <g>
       <use style="stroke:#000000;stroke-width:0.8;" x="108" xlink:href="#m837f37b177" y="118.746645"/>
      </g>
     </g>
     <g id="text_15">
      <!-- 1.5 -->
      <g transform="translate(86.864063 122.74352)scale(0.1 -0.1)">
       <use xlink:href="#MicrosoftYaHei-31"/>
       <use x="58.642578" xlink:href="#MicrosoftYaHei-2e"/>
       <use x="82.714844" xlink:href="#MicrosoftYaHei-35"/>
      </g>
     </g>
    </g>
    <g id="ytick_8">
     <g id="line2d_29">
      <path clip-path="url(#p8ce9e57a37)" d="M 108 87.361202 
L 777.6 87.361202 
" style="fill:none;stroke:#b0b0b0;stroke-linecap:square;stroke-width:0.8;"/>
     </g>
     <g id="line2d_30">
      <g>
       <use style="stroke:#000000;stroke-width:0.8;" x="108" xlink:href="#m837f37b177" y="87.361202"/>
      </g>
     </g>
     <g id="text_16">
      <!-- 2.0 -->
      <g transform="translate(86.864063 91.358077)scale(0.1 -0.1)">
       <use xlink:href="#MicrosoftYaHei-32"/>
       <use x="58.642578" xlink:href="#MicrosoftYaHei-2e"/>
       <use x="82.714844" xlink:href="#MicrosoftYaHei-30"/>
      </g>
     </g>
    </g>
    <g id="ytick_9">
     <g id="line2d_31">
      <path clip-path="url(#p8ce9e57a37)" d="M 108 55.975758 
L 777.6 55.975758 
" style="fill:none;stroke:#b0b0b0;stroke-linecap:square;stroke-width:0.8;"/>
     </g>
     <g id="line2d_32">
      <g>
       <use style="stroke:#000000;stroke-width:0.8;" x="108" xlink:href="#m837f37b177" y="55.975758"/>
      </g>
     </g>
     <g id="text_17">
      <!-- 2.5 -->
      <g transform="translate(86.864063 59.972633)scale(0.1 -0.1)">
       <use xlink:href="#MicrosoftYaHei-32"/>
       <use x="58.642578" xlink:href="#MicrosoftYaHei-2e"/>
       <use x="82.714844" xlink:href="#MicrosoftYaHei-35"/>
      </g>
     </g>
    </g>
   </g>
   <g id="line2d_33">
    <path clip-path="url(#p8ce9e57a37)" d="M 108 148.242684 
L 108.217827 144.7589 
L 108.871308 146.824062 
L 109.089135 146.227739 
L 109.306962 146.447437 
L 109.524789 144.639635 
L 109.742615 144.947213 
L 109.960442 144.024481 
L 110.178269 143.729457 
L 110.396096 144.627081 
L 110.613923 144.65219 
L 111.049577 143.415603 
L 111.267404 143.704349 
L 111.920885 141.526199 
L 112.138712 140.239396 
L 112.356539 140.1013 
L 112.574366 139.053026 
L 112.792193 139.429652 
L 113.227846 139.373158 
L 113.445673 137.132237 
L 113.6635 136.604962 
L 113.881327 136.404095 
L 114.316981 136.542191 
L 114.534808 136.567299 
L 114.752635 138.205619 
L 114.970462 138.205619 
L 115.188289 137.577911 
L 115.406116 135.895651 
L 115.623943 135.908205 
L 116.059597 134.546077 
L 116.277424 134.903871 
L 116.49525 134.502137 
L 116.713077 133.811657 
L 116.930904 131.978748 
L 117.148731 128.658168 
L 117.366558 132.066627 
L 117.584385 132.863817 
L 117.802212 131.099955 
L 118.020039 127.685219 
L 118.237866 127.89864 
L 118.891347 123.140607 
L 119.109174 124.08217 
L 119.327001 122.920909 
L 119.544828 123.140607 
L 119.762655 123.140607 
L 119.980481 122.858138 
L 120.198308 121.973068 
L 120.633962 122.512898 
L 120.851789 122.657271 
L 121.069616 121.25748 
L 121.50527 121.791033 
L 121.723097 121.383022 
L 121.940924 122.330862 
L 122.158751 121.696876 
L 122.376578 121.659214 
L 122.594405 119.989508 
L 122.812232 119.832581 
L 123.030059 119.430847 
L 123.247885 118.118936 
L 123.465712 117.491227 
L 123.683539 120.705096 
L 123.901366 120.002062 
L 124.119193 118.501838 
L 124.33702 117.811359 
L 124.554847 120.228038 
L 124.772674 119.851412 
L 124.990501 120.077388 
L 125.208328 116.863518 
L 125.426155 116.763085 
L 125.861809 115.570438 
L 126.297463 109.958721 
L 126.51529 109.958721 
L 126.733116 104.359558 
L 126.950943 102.426214 
L 127.386597 102.426214 
L 127.822251 88.616619 
L 128.040078 87.110118 
L 128.475732 92.382873 
L 128.911386 91.441309 
L 129.34704 93.010581 
L 129.564867 91.755164 
L 129.782694 88.03285 
L 130.00052 88.748438 
L 130.218347 94.002361 
L 130.436174 94.410372 
L 130.654001 93.362098 
L 130.871828 97.555194 
L 131.089655 94.272276 
L 131.307482 93.512748 
L 131.525309 91.322045 
L 131.743136 86.526349 
L 131.960963 86.130892 
L 132.614444 79.828695 
L 133.050098 82.339531 
L 133.267925 81.711822 
L 133.485751 80.55056 
L 133.703578 77.07933 
L 133.921405 77.945569 
L 134.139232 77.945569 
L 134.357059 76.526947 
L 134.574886 76.721536 
L 134.792713 76.690151 
L 135.01054 83.212046 
L 135.228367 85.026125 
L 135.446194 80.795367 
L 135.664021 82.38347 
L 135.881848 82.483904 
L 136.099675 84.636945 
L 136.535329 86.469855 
L 136.970982 83.281094 
L 137.188809 83.343865 
L 137.406636 82.213989 
L 137.624463 83.588671 
L 137.84229 96.525751 
L 138.277944 92.38915 
L 138.495771 96.211897 
L 138.713598 95.402152 
L 139.149252 101.290061 
L 139.367079 100.62469 
L 139.584906 95.565356 
L 139.802733 95.025527 
L 140.02056 100.059752 
L 140.238386 100.448931 
L 140.456213 98.867105 
L 140.67404 98.120132 
L 140.891867 99.406935 
L 141.109694 99.469706 
L 141.327521 97.448483 
L 141.545348 99.450874 
L 141.763175 105.351338 
L 141.981002 105.797011 
L 142.198829 105.376446 
L 142.416656 107.548319 
L 142.634483 107.755463 
L 142.85231 114.967837 
L 143.070137 102.928381 
L 143.287964 98.804334 
L 143.505791 99.419489 
L 143.723617 99.475983 
L 143.941444 103.625138 
L 144.159271 102.570587 
L 144.377098 102.56431 
L 144.812752 99.789837 
L 145.030579 100.492871 
L 145.248406 97.272725 
L 145.466233 96.971424 
L 145.68406 97.065581 
L 145.901887 108.778628 
L 146.119714 104.309341 
L 146.337541 108.238798 
L 146.773195 109.556987 
L 147.208848 115.269138 
L 147.426675 116.355074 
L 147.644502 118.17543 
L 147.862329 117.346854 
L 148.080156 117.83019 
L 148.297983 117.641877 
L 148.51581 116.844687 
L 148.733637 119.600329 
L 148.951464 117.491227 
L 149.387118 118.231923 
L 149.604945 120.485398 
L 149.822772 121.282589 
L 150.040599 125.695382 
L 150.258426 134.439366 
L 150.694079 138.833328 
L 150.911906 140.088746 
L 151.129733 149.818233 
L 151.565387 153.584487 
L 151.783214 154.839904 
L 152.001041 129.417695 
L 152.436695 126.674608 
L 152.654522 126.90686 
L 152.872349 128.162278 
L 153.090176 128.143446 
L 153.308003 130.999522 
L 153.52583 152.561321 
L 153.743656 151.130145 
L 153.961483 151.117591 
L 154.17931 152.247467 
L 154.397137 155.398565 
L 154.614964 156.898789 
L 154.832791 157.206367 
L 155.050618 157.20009 
L 155.268445 157.526498 
L 155.486272 158.486893 
L 155.704099 157.978449 
L 156.139753 156.283635 
L 156.35758 154.212195 
L 156.575407 154.086654 
L 157.011061 155.254192 
L 157.228887 155.241638 
L 157.446714 155.875624 
L 157.664541 153.364789 
L 157.882368 144.507816 
L 158.100195 141.93421 
L 158.318022 141.758452 
L 158.535849 142.750232 
L 158.753676 140.616022 
L 158.971503 141.394381 
L 159.18933 141.237453 
L 159.624984 147.73424 
L 159.842811 149.165416 
L 160.060638 145.863668 
L 160.278465 148.606755 
L 160.496291 146.252847 
L 160.714118 137.025527 
L 160.931945 133.00819 
L 161.149772 132.926588 
L 162.02108 144.71496 
L 162.238907 143.459543 
L 162.456734 145.656524 
L 162.674561 144.369721 
L 162.892388 144.959767 
L 163.110215 143.716903 
L 163.328042 143.434434 
L 163.545869 144.526648 
L 163.763696 140.590913 
L 163.981522 138.695232 
L 164.417176 141.48226 
L 164.635003 140.528142 
L 164.85283 142.116246 
L 165.070657 144.614527 
L 165.288484 149.61109 
L 165.724138 147.370169 
L 165.941965 149.02732 
L 166.159792 147.062592 
L 166.377619 146.980989 
L 166.813273 152.341623 
L 167.0311 151.971275 
L 167.248926 151.331012 
L 167.466753 151.255687 
L 167.68458 151.023434 
L 167.902407 150.138365 
L 168.120234 150.577761 
L 168.338061 150.188582 
L 168.555888 148.763683 
L 168.773715 148.845285 
L 168.991542 151.575818 
L 169.209369 151.130145 
L 169.427196 151.117591 
L 169.645023 152.140756 
L 169.86285 151.939889 
L 170.080677 151.368674 
L 170.298504 151.362397 
L 170.516331 151.494216 
L 170.734157 151.494216 
L 171.169811 148.437274 
L 171.387638 147.909999 
L 171.605465 148.355672 
L 171.823292 149.667583 
L 172.041119 142.919713 
L 172.258946 142.254342 
L 172.476773 143.873831 
L 172.6946 141.990704 
L 172.912427 144.200239 
L 173.130254 144.476431 
L 173.348081 146.679689 
L 173.565908 145.110417 
L 173.783735 144.60825 
L 174.001561 145.417994 
L 174.219388 147.04376 
L 174.437215 146.340726 
L 174.655042 150.081871 
L 174.872869 150.659363 
L 175.090696 147.244627 
L 175.52635 147.200687 
L 175.744177 145.775788 
L 175.962004 145.738126 
L 176.179831 141.337887 
L 176.397658 145.374055 
L 176.833312 141.990704 
L 177.268966 144.896996 
L 177.486792 145.248513 
L 177.704619 145.386609 
L 177.922446 144.369721 
L 178.140273 146.127305 
L 178.3581 146.20263 
L 178.575927 145.323838 
L 178.793754 143.177074 
L 179.229408 144.250456 
L 179.665062 149.272127 
L 179.882889 146.328172 
L 180.100716 148.669526 
L 180.318543 147.790734 
L 180.53637 144.231625 
L 180.754196 144.840502 
L 180.972023 145.016261 
L 181.18985 143.748289 
L 181.407677 144.570587 
L 181.625504 143.522314 
L 182.061158 144.212793 
L 182.278985 143.591362 
L 182.496812 143.559976 
L 182.932466 143.264953 
L 183.150293 151.186639 
L 183.36812 151.16153 
L 183.585947 152.310238 
L 183.803774 149.862173 
L 184.021601 149.742908 
L 184.239427 150.66564 
L 184.457254 150.627978 
L 184.675081 152.121925 
L 184.892908 152.140756 
L 185.110735 153.609595 
L 185.328562 153.527993 
L 185.546389 151.632312 
L 185.764216 145.713017 
L 185.982043 147.797011 
L 186.19987 146.09592 
L 186.417697 148.07948 
L 186.635524 148.066926 
L 186.853351 145.0602 
L 187.071178 146.491376 
L 187.506831 137.4712 
L 187.724658 137.094575 
L 187.942485 138.419041 
L 188.160312 135.029413 
L 188.378139 133.472695 
L 188.595966 136.416649 
L 188.813793 137.483754 
L 189.249447 134.370318 
L 189.467274 134.156897 
L 189.685101 131.344762 
L 189.902928 136.153012 
L 190.120755 136.592408 
L 190.338582 138.375101 
L 190.556409 138.381378 
L 190.774236 139.693289 
L 190.992062 139.781169 
L 191.209889 140.044806 
L 191.427716 139.429652 
L 191.645543 140.396323 
L 191.86337 140.854551 
L 192.081197 141.8275 
L 192.299024 144.959767 
L 192.516851 144.840502 
L 192.734678 142.47404 
L 193.170332 145.581199 
L 193.388159 145.261067 
L 193.605986 142.81928 
L 193.823813 142.813003 
L 194.04164 142.379883 
L 194.259466 142.712569 
L 194.477293 142.543088 
L 194.69512 137.075744 
L 194.912947 136.485697 
L 195.130774 132.116844 
L 195.348601 135.173786 
L 195.566428 135.468809 
L 195.784255 137.088298 
L 196.002082 141.237453 
L 196.437736 138.676401 
L 196.655563 134.822269 
L 197.091217 141.005201 
L 197.309044 140.79178 
L 197.744697 142.511702 
L 198.180351 146.535316 
L 198.398178 151.839456 
L 198.616005 146.773845 
L 198.833832 150.810013 
L 199.051659 148.098311 
L 199.269486 149.247018 
L 199.487313 149.479271 
L 199.70514 151.029712 
L 199.922967 151.65742 
L 200.140794 154.582544 
L 200.576448 167.594948 
L 200.794275 169.584786 
L 201.229928 177.820326 
L 201.447755 177.230279 
L 201.665582 183.394381 
L 201.883409 182.208011 
L 202.101236 182.364938 
L 202.53689 181.084412 
L 202.754717 181.869048 
L 202.972544 181.894156 
L 203.408198 199.765028 
L 203.843852 196.984277 
L 204.061679 187.543536 
L 204.279506 183.312778 
L 204.497332 187.072754 
L 204.715159 176.370318 
L 204.932986 176.357764 
L 205.150813 172.817486 
L 205.36864 172.760992 
L 205.586467 176.853654 
L 205.804294 171.806875 
L 206.022121 170.651891 
L 206.239948 174.688059 
L 206.675602 178.303662 
L 207.111256 170.162278 
L 207.329083 171.505575 
L 207.54691 174.179614 
L 207.764736 172.327873 
L 207.982563 174.769661 
L 208.20039 166.973517 
L 208.418217 170.212494 
L 208.636044 167.576117 
L 208.853871 157.859184 
L 209.289525 154.143148 
L 209.507352 145.838559 
L 209.725179 145.286175 
L 209.943006 144.206516 
L 210.160833 143.942878 
L 210.37866 148.556539 
L 210.596487 149.893559 
L 210.814314 142.191571 
L 211.032141 143.641578 
L 211.467794 125.620057 
L 211.685621 136.460589 
L 211.903448 130.654282 
L 212.121275 129.662502 
L 212.339102 130.453415 
L 212.556929 108.948109 
L 212.774756 108.872784 
L 212.992583 100.913436 
L 213.428237 96.525751 
L 213.646064 102.821671 
L 213.863891 100.66863 
L 214.081718 99.645464 
L 214.299545 104.623195 
L 214.517372 104.039426 
L 214.735198 100.643521 
L 214.953025 100.662352 
L 215.170852 103.857391 
L 215.388679 102.771454 
L 215.606506 103.072754 
L 215.824333 101.792228 
L 216.04216 99.701958 
L 216.259987 99.501091 
L 216.477814 99.802391 
L 216.695641 102.451323 
L 216.913468 101.22729 
L 217.131295 104.340726 
L 217.349122 104.868002 
L 218.002602 98.659961 
L 218.220429 89.828097 
L 218.438256 85.992796 
L 218.656083 79.395576 
L 218.87391 83.563563 
L 219.091737 81.881303 
L 219.309564 77.349245 
L 219.527391 75.779973 
L 219.745218 80.839307 
L 219.963045 81.843641 
L 220.180872 79.383022 
L 220.398699 79.188432 
L 220.834353 73.137319 
L 221.05218 64.374503 
L 221.270007 60.878165 
L 221.487833 65.316066 
L 221.70566 65.755463 
L 221.923487 64.757405 
L 222.141314 69.327126 
L 222.359141 76.244478 
L 222.576968 78.102496 
L 222.794795 74.254641 
L 223.012622 73.65204 
L 223.230449 70.657869 
L 223.448276 74.336243 
L 223.666103 72.785802 
L 223.88393 73.978449 
L 224.101757 73.564161 
L 224.319584 71.611986 
L 224.537411 71.392288 
L 224.755237 71.693588 
L 224.973064 71.586878 
L 225.190891 69.873233 
L 225.408718 67.042266 
L 225.626545 60.300673 
L 226.062199 61.957824 
L 226.280026 63.596144 
L 226.497853 66.458496 
L 226.71568 65.290958 
L 226.933507 65.617367 
L 227.369161 68.454611 
L 227.586988 71.379734 
L 227.804815 70.017606 
L 228.022642 70.52605 
L 228.240468 70.205918 
L 228.458295 67.362397 
L 228.676122 67.381229 
L 228.893949 65.491825 
L 229.111776 65.617367 
L 229.329603 64.901779 
L 229.765257 69.333403 
L 230.200911 64.820176 
L 230.418738 66.075594 
L 230.636565 66.301569 
L 231.072219 65.052429 
L 231.290046 66.314123 
L 231.507872 66.458496 
L 231.725699 62.999821 
L 231.943526 67.092482 
L 232.37918 69.710028 
L 232.597007 66.414557 
L 232.814834 66.828845 
L 233.032661 66.948109 
L 233.250488 69.013272 
L 233.468315 66.389449 
L 233.686142 66.822568 
L 234.121796 70.858736 
L 234.339623 70.984277 
L 234.775277 75.572829 
L 234.993103 75.328023 
L 235.21093 73.589269 
L 235.428757 76.445344 
L 235.646584 75.271529 
L 235.864411 77.368077 
L 236.082238 76.483007 
L 236.300065 76.734091 
L 236.517892 75.924346 
L 236.953546 76.658766 
L 237.3892 73.871738 
L 237.607027 75.943177 
L 237.824854 74.800747 
L 238.042681 77.939292 
L 238.260507 75.346854 
L 238.478334 77.361799 
L 238.696161 74.850964 
L 238.913988 75.346854 
L 239.131815 70.419339 
L 239.349642 68.69314 
L 239.567469 68.423225 
L 239.785296 71.17259 
L 240.003123 69.113705 
L 240.22095 69.779076 
L 240.438777 67.494216 
L 240.656604 67.243133 
L 240.874431 69.716305 
L 241.092258 69.628426 
L 241.310085 68.3479 
L 241.745738 69.779076 
L 241.963565 65.290958 
L 242.181392 64.656972 
L 243.488354 65.4165 
L 243.924008 62.020595 
L 244.141835 62.842893 
L 244.359662 66.577761 
L 244.577489 67.462831 
L 244.795316 77.594052 
L 245.230969 74.399014 
L 245.448796 71.304409 
L 245.666623 74.706591 
L 245.88445 82.251651 
L 246.102277 77.135824 
L 246.755758 80.833029 
L 246.973585 78.290809 
L 247.191412 74.235809 
L 247.409239 74.392737 
L 247.627066 72.798356 
L 247.844893 73.526498 
L 248.06272 72.716754 
L 248.280547 72.490779 
L 248.7162 76.068719 
L 248.934027 75.867852 
L 249.151854 76.263309 
L 249.587508 73.934509 
L 249.805335 73.80269 
L 250.023162 74.04122 
L 250.240989 71.429951 
L 250.458816 71.222807 
L 250.89447 71.260469 
L 251.112297 71.925841 
L 251.330124 70.413062 
L 251.547951 73.689703 
L 251.765777 73.244029 
L 251.983604 74.053774 
L 252.201431 74.160484 
L 252.419258 73.947063 
L 252.637085 74.788193 
L 252.854912 74.920012 
L 253.072739 73.991003 
L 253.290566 74.129099 
L 253.508393 70.13687 
L 253.72622 74.995337 
L 253.944047 75.403348 
L 254.815355 72.308743 
L 255.033182 72.082768 
L 255.251008 72.453116 
L 255.468835 71.881901 
L 256.122316 68.793573 
L 256.340143 69.465222 
L 256.55797 69.678643 
L 257.211451 73.482559 
L 257.429278 72.923898 
L 257.647105 73.35074 
L 257.864932 67.952444 
L 258.082759 68.322792 
L 258.300586 65.793125 
L 258.518412 64.851562 
L 258.736239 61.819728 
L 258.954066 60.495262 
L 259.171893 61.44938 
L 259.38972 64.964549 
L 259.607547 61.94527 
L 259.825374 60.95349 
L 260.043201 60.677298 
L 260.261028 59.277507 
L 260.478855 61.129248 
L 260.696682 61.248513 
L 260.914509 62.629472 
L 261.350163 63.012375 
L 261.56799 62.911941 
L 261.785817 60.878165 
L 262.003643 60.300673 
L 262.22147 60.300673 
L 262.439297 55.869048 
L 262.657124 55.8 
L 262.874951 56.013421 
L 263.092778 58.078583 
L 263.310605 58.687461 
L 263.746259 57.538754 
L 264.181913 58.96993 
L 264.39974 59.22729 
L 264.617567 59.779674 
L 264.835394 58.743955 
L 265.053221 60.432491 
L 265.271047 60.369721 
L 265.488874 60.438768 
L 265.706701 65.215633 
L 265.924528 66.031654 
L 266.142355 64.977104 
L 266.360182 64.839008 
L 266.578009 63.6903 
L 266.795836 63.294844 
L 267.013663 61.763234 
L 267.23149 61.430548 
L 267.449317 61.700463 
L 267.667144 61.744403 
L 267.884971 62.026872 
L 268.538452 60.375998 
L 268.974105 60.451323 
L 269.191932 59.798505 
L 269.409759 59.848722 
L 269.627586 59.76712 
L 269.845413 59.277507 
L 270.06324 59.647855 
L 270.498894 61.788343 
L 270.716721 62.114751 
L 271.152375 60.80284 
L 271.805856 63.997878 
L 272.023682 66.06304 
L 272.241509 66.176027 
L 272.459336 66.816291 
L 272.677163 66.445942 
L 272.89499 65.724077 
L 273.112817 63.822119 
L 273.330644 64.487491 
L 273.766298 67.268241 
L 273.984125 66.389449 
L 274.201952 66.86023 
L 274.419779 68.322792 
L 274.637606 68.504827 
L 274.855433 68.517382 
L 275.07326 67.067374 
L 275.291087 67.644866 
L 275.944567 77.61916 
L 276.162394 74.543387 
L 276.380221 78.140158 
L 276.598048 79.565058 
L 276.815875 78.937349 
L 277.033702 80.500344 
L 277.251529 83.306202 
L 278.122837 77.493618 
L 278.340664 77.600329 
L 278.776318 81.805978 
L 278.994144 84.166164 
L 279.429798 85.848423 
L 279.647625 85.986519 
L 279.865452 83.557286 
L 280.083279 83.507069 
L 280.73676 81.234763 
L 280.954587 78.096219 
L 281.172414 79.816141 
L 281.390241 80.010731 
L 281.608068 81.259871 
L 282.043722 86.457301 
L 282.479375 81.423076 
L 282.915029 83.023733 
L 283.132856 81.724376 
L 283.56851 72.748139 
L 283.786337 69.38362 
L 284.221991 70.921507 
L 284.657645 69.170199 
L 284.875472 70.312629 
L 285.093299 67.431445 
L 285.528953 74.223255 
L 285.746779 77.374354 
L 286.182433 77.16721 
L 286.40026 77.713316 
L 286.835914 83.431744 
L 287.053741 81.805978 
L 287.271568 83.469407 
L 287.489395 82.176326 
L 287.707222 84.718547 
L 287.925049 84.385862 
L 288.142876 86.363145 
L 288.360703 85.088896 
L 288.57853 84.982185 
L 288.796357 83.325034 
L 289.23201 84.737379 
L 289.449837 89.708833 
L 289.667664 87.166612 
L 289.885491 87.08501 
L 290.321145 90.267494 
L 290.756799 96.456703 
L 290.974626 97.335495 
L 291.41028 100.737677 
L 291.628107 104.673412 
L 291.845934 106.085757 
L 292.499414 114.879958 
L 293.588549 120.140158 
L 293.806376 117.252698 
L 294.024203 116.405291 
L 294.24203 116.323689 
L 294.459857 114.735585 
L 294.677684 115.677148 
L 294.895511 120.516784 
L 295.113338 120.893409 
L 295.548992 122.933463 
L 295.766818 123.429353 
L 295.984645 128.444747 
L 296.202472 129.197997 
L 296.420299 128.99713 
L 296.638126 129.643671 
L 296.855953 132.66295 
L 297.07378 132.229831 
L 297.291607 136.510806 
L 297.509434 138.16168 
L 297.727261 136.32877 
L 298.162915 140.000867 
L 298.380742 140.195457 
L 298.598569 137.81644 
L 299.252049 122.858138 
L 299.687703 108.502436 
L 300.123357 107.504379 
L 300.341184 106.719743 
L 300.559011 107.441608 
L 300.776838 107.1152 
L 300.994665 108.263907 
L 301.430319 102.972321 
L 301.648146 102.030758 
L 301.865973 100.386161 
L 302.0838 100.630967 
L 302.301627 100.342221 
L 302.519453 100.681184 
L 302.73728 102.143745 
L 303.172934 102.95349 
L 303.390761 102.601973 
L 303.826415 101.716903 
L 304.044242 103.512151 
L 304.262069 106.412166 
L 304.479896 107.391391 
L 304.697723 106.556539 
L 304.91555 106.839008 
L 305.133377 106.299178 
L 305.351204 105.363892 
L 305.569031 108.25763 
L 305.786858 107.755463 
L 306.222511 108.992049 
L 306.875992 114.063937 
L 307.311646 117.516335 
L 307.529473 117.422179 
L 307.7473 117.905515 
L 307.965127 117.466119 
L 308.182954 114.252249 
L 308.618608 119.27392 
L 308.836435 114.202033 
L 309.054262 112.883844 
L 309.272088 115.055717 
L 309.489915 114.245972 
L 309.707742 113.003109 
L 309.925569 112.896398 
L 310.143396 112.940338 
L 310.796877 118.752922 
L 311.014704 119.248812 
L 311.668185 121.640383 
L 311.886012 121.025228 
L 312.321666 117.566552 
L 312.539493 112.821073 
L 313.192973 109.952444 
L 313.4108 109.55071 
L 313.628627 110.008937 
L 313.846454 110.008937 
L 314.064281 101.873831 
L 314.282108 99.557585 
L 314.499935 103.085309 
L 314.935589 96.393932 
L 315.153416 97.159737 
L 315.58907 99.745897 
L 315.806897 99.802391 
L 316.24255 90.844986 
L 316.460377 90.110566 
L 316.678204 88.390644 
L 316.896031 89.583291 
L 317.113858 89.112509 
L 317.331685 84.461187 
L 317.549512 84.957077 
L 317.767339 84.423524 
L 317.985166 85.183052 
L 318.202993 85.088896 
L 318.42082 89.294545 
L 318.638647 97.555194 
L 318.856474 95.533971 
L 319.074301 99.73962 
L 319.945608 130.52874 
L 320.163435 132.185891 
L 320.599089 138.996533 
L 320.816916 138.180511 
L 321.034743 137.935705 
L 321.25257 132.010133 
L 321.470397 132.951696 
L 321.688224 130.704499 
L 321.906051 131.664893 
L 322.341705 142.813003 
L 322.559532 144.231625 
L 322.777358 154.971723 
L 322.995185 156.641429 
L 323.213012 155.298132 
L 323.430839 159.899238 
L 323.648666 161.493618 
L 324.08432 176.031356 
L 324.302147 194.686863 
L 324.519974 190.613032 
L 324.737801 189.665192 
L 325.173455 167.067673 
L 325.826936 153.653535 
L 326.262589 148.719743 
L 326.480416 147.941384 
L 326.91607 145.016261 
L 327.351724 136.535914 
L 327.569551 136.818383 
L 327.787378 138.054969 
L 328.223032 159.905515 
L 328.440859 169.522015 
L 328.658686 163.828695 
L 328.876513 170.325482 
L 329.09434 171.938694 
L 329.529993 167.46313 
L 329.74782 167.940188 
L 329.965647 167.601226 
L 330.183474 163.119384 
L 330.619128 148.606755 
L 330.836955 142.932267 
L 331.054782 140.829443 
L 331.490436 131.445195 
L 331.92609 134.866208 
L 332.143917 132.713167 
L 332.361744 140.948707 
L 332.579571 142.875773 
L 332.797398 134.426812 
L 333.015224 135.198894 
L 333.233051 129.43025 
L 333.450878 130.635451 
L 333.886532 122.556838 
L 334.104359 120.736482 
L 334.322186 121.238649 
L 334.540013 116.44923 
L 334.75784 118.43279 
L 334.975667 117.660708 
L 335.193494 114.886235 
L 335.411321 121.10683 
L 335.629148 122.676102 
L 336.064802 127.095173 
L 336.282628 127.992796 
L 336.500455 128.231326 
L 336.718282 130.911643 
L 336.936109 129.863369 
L 337.371763 133.422478 
L 337.58959 133.215334 
L 337.807417 134.156897 
L 338.025244 130.641728 
L 338.243071 130.133284 
L 338.460898 131.67117 
L 338.678725 131.746495 
L 338.896552 130.886534 
L 339.332206 133.943476 
L 339.550033 131.733941 
L 339.767859 132.286325 
L 339.985686 133.46014 
L 340.42134 129.49302 
L 340.639167 130.233717 
L 340.856994 128.331759 
L 341.074821 129.091287 
L 341.510475 131.978748 
L 341.728302 131.595845 
L 342.163956 135.500194 
L 342.381783 134.477029 
L 342.59961 131.47658 
L 342.817437 131.777881 
L 343.035264 133.679839 
L 343.25309 133.579405 
L 343.470917 133.949753 
L 343.688744 134.677896 
L 343.906571 136.184397 
L 344.124398 136.611239 
L 344.342225 135.650844 
L 344.560052 135.964699 
L 344.777879 142.455208 
L 344.995706 144.595696 
L 345.213533 145.461934 
L 345.43136 144.871888 
L 345.649187 145.185742 
L 345.867014 146.962158 
L 346.084841 151.425168 
L 346.738321 154.494664 
L 346.956148 153.584487 
L 347.173975 154.011329 
L 347.391802 154.846181 
L 347.827456 154.538604 
L 348.045283 154.670423 
L 348.26311 155.907009 
L 348.480937 155.71242 
L 348.916591 155.599432 
L 349.134418 155.938395 
L 349.352245 156.754416 
L 349.787899 175.001913 
L 350.005725 184.888328 
L 350.223552 186.350889 
L 350.441379 189.859782 
L 350.659206 189.206965 
L 350.877033 192.232521 
L 351.09486 192.646809 
L 351.312687 185.610193 
L 351.530514 183.275116 
L 351.966168 181.8 
L 352.183995 179.646959 
L 352.401822 175.773995 
L 352.619649 175.35343 
L 352.837476 171.951248 
L 353.055303 173.683724 
L 353.273129 169.685219 
L 353.490956 167.933911 
L 353.708783 167.72049 
L 354.144437 171.078733 
L 354.362264 160.897295 
L 354.797918 164.707488 
L 355.015745 173.445195 
L 355.233572 172.72333 
L 355.451399 167.130444 
L 355.669226 167.155552 
L 356.10488 169.565954 
L 356.540534 165.937797 
L 356.75836 166.87936 
L 356.976187 166.358362 
L 357.194014 162.855747 
L 357.629668 167.971574 
L 357.847495 168.699716 
L 358.065322 168.423524 
L 358.283149 166.634554 
L 358.500976 168.743656 
L 358.718803 167.827201 
L 358.93663 166.257929 
L 359.372284 167.142998 
L 359.807938 169.973965 
L 360.243591 172.139561 
L 360.461418 171.606008 
L 360.679245 170.595397 
L 360.897072 170.683276 
L 361.114899 171.260768 
L 361.550553 182.302167 
L 361.76838 185.133134 
L 361.986207 183.042864 
L 362.204034 183.350441 
L 362.421861 187.970378 
L 362.639688 185.842445 
L 362.857515 185.503482 
L 363.075342 183.915379 
L 363.293169 185.42188 
L 363.946649 177.883097 
L 364.164476 180.889822 
L 364.382303 181.8 
L 364.60013 178.127903 
L 364.817957 178.215782 
L 365.035784 183.645464 
L 365.253611 184.656075 
L 365.471438 183.996981 
L 365.689265 182.132686 
L 365.907092 183.237453 
L 366.124919 182.264505 
L 366.342746 183.469706 
L 366.560573 186.60825 
L 366.778399 186.237902 
L 366.996226 185.346555 
L 367.214053 174.957973 
L 367.43188 170.061844 
L 367.649707 168.969631 
L 368.085361 170.413361 
L 368.303188 172.648005 
L 368.738842 169.622448 
L 368.956669 171.022239 
L 369.174496 169.383919 
L 369.392323 169.647556 
L 369.61015 169.572231 
L 369.827977 171.869646 
L 370.045804 172.729607 
L 370.26363 170.551457 
L 370.481457 170.538903 
L 370.699284 166.747541 
L 371.134938 164.255537 
L 371.352765 157.947063 
L 371.570592 144.250456 
L 371.788419 148.217576 
L 372.006246 147.050037 
L 372.4419 139.787446 
L 372.877554 144.871888 
L 373.095381 145.267344 
L 373.531034 150.088148 
L 373.748861 153.546824 
L 373.966688 151.431445 
L 374.184515 153.923449 
L 374.402342 152.536213 
L 374.620169 153.559378 
L 374.837996 156.195755 
L 375.055823 150.715857 
L 375.27365 153.854401 
L 375.491477 153.515439 
L 375.709304 155.316963 
L 375.927131 155.938395 
L 376.144958 155.542938 
L 376.362785 157.174981 
L 376.580612 156.490779 
L 376.798439 156.773248 
L 377.016265 158.499447 
L 377.234092 158.022388 
L 377.451919 159.723479 
L 377.669746 159.943177 
L 377.887573 159.874129 
L 378.1054 160.941234 
L 378.541054 164.650994 
L 378.758881 165.529786 
L 378.976708 167.07395 
L 379.412362 168.599283 
L 379.630189 170.149724 
L 379.848016 170.168555 
L 380.065843 169.471798 
L 380.501496 172.007742 
L 380.719323 171.047347 
L 380.93715 169.409027 
L 381.154977 170.168555 
L 381.372804 171.348647 
L 381.590631 170.796264 
L 382.461939 181.931819 
L 382.679766 182.578359 
L 382.897593 182.452817 
L 383.11542 182.59719 
L 383.333247 180.142849 
L 383.551074 181.636796 
L 383.7689 180.663847 
L 383.986727 182.860828 
L 384.204554 183.168405 
L 384.422381 180.776835 
L 384.640208 180.513197 
L 384.858035 184.787894 
L 385.293689 182.352384 
L 385.511516 183.821223 
L 385.729343 186.087252 
L 385.94717 183.519922 
L 386.164997 183.224899 
L 386.382824 185.936601 
L 386.600651 185.221013 
L 386.818478 185.327724 
L 387.036304 174.832432 
L 387.254131 177.481363 
L 387.471958 177.136123 
L 387.689785 176.376595 
L 387.907612 176.552354 
L 388.125439 177.161232 
L 388.561093 175.497803 
L 388.77892 176.213391 
L 388.996747 175.667284 
L 389.214574 173.212943 
L 389.432401 173.231774 
L 389.650228 172.660559 
L 390.085882 170.174832 
L 390.303709 169.8547 
L 390.521535 168.957077 
L 390.739362 169.923748 
L 390.957189 168.373307 
L 391.175016 167.695382 
L 391.392843 167.632611 
L 391.61067 167.990405 
L 391.828497 169.50946 
L 392.046324 169.289762 
L 392.917632 165.856195 
L 393.135459 166.188881 
L 393.353286 165.561172 
L 393.571113 165.944074 
L 393.788939 165.793424 
L 394.006766 165.28498 
L 394.224593 163.960514 
L 394.44242 164.324585 
L 394.660247 163.703153 
L 394.878074 164.330862 
L 395.095901 164.299477 
L 395.313728 165.102944 
L 395.531555 163.9919 
L 395.749382 162.202929 
L 395.967209 162.893409 
L 396.185036 162.573278 
L 396.402863 163.276311 
L 396.62069 164.839307 
L 397.27417 164.230429 
L 397.491997 163.784756 
L 397.709824 164.437573 
L 398.145478 162.428904 
L 398.363305 162.918517 
L 399.016786 159.6356 
L 399.234613 145.355223 
L 399.670267 154.287521 
L 399.888094 147.602421 
L 400.105921 148.587924 
L 400.323748 144.06842 
L 400.541574 142.737677 
L 400.759401 142.166462 
L 400.977228 140.320998 
L 401.195055 142.204125 
L 401.630709 138.532028 
L 401.848536 140.233119 
L 402.066363 139.191122 
L 402.28419 138.940039 
L 402.502017 138.35627 
L 402.719844 137.038081 
L 402.937671 137.577911 
L 403.155498 136.97531 
L 403.373325 138.230728 
L 403.591152 132.681781 
L 403.808979 130.497355 
L 404.026805 130.779824 
L 404.244632 130.189777 
L 404.462459 130.673113 
L 404.680286 129.574623 
L 404.898113 129.769212 
L 405.11594 129.762935 
L 405.333767 130.1835 
L 405.551594 132.123121 
L 405.769421 132.286325 
L 405.987248 136.686564 
L 406.205075 136.014916 
L 406.422902 135.933313 
L 406.640729 135.575519 
L 406.858556 137.314273 
L 407.076383 136.717949 
L 407.294209 134.941533 
L 407.512036 134.087849 
L 407.729863 133.95603 
L 407.94769 133.171394 
L 408.165517 133.817935 
L 408.601171 131.82182 
L 409.036825 132.90148 
L 409.254652 135.751278 
L 409.472479 135.217725 
L 409.908133 140.270782 
L 410.12596 141.532476 
L 410.561614 142.266896 
L 410.77944 141.306501 
L 411.215094 144.338335 
L 411.650748 145.769511 
L 411.868575 147.721686 
L 412.086402 147.92883 
L 412.304229 148.556539 
L 412.522056 147.608698 
L 412.739883 152.260021 
L 413.175537 151.029712 
L 413.611191 154.205918 
L 413.829018 155.122373 
L 414.482498 166.691048 
L 414.700325 165.153161 
L 415.135979 169.622448 
L 415.78946 159.710925 
L 416.007287 158.700314 
L 416.225114 158.549664 
L 416.442941 156.371514 
L 416.660768 156.679091 
L 417.096422 156.183201 
L 417.749902 152.147033 
L 417.967729 156.653983 
L 418.185556 157.3068 
L 418.403383 156.949006 
L 418.62121 157.771305 
L 419.056864 162.855747 
L 419.274691 161.324137 
L 420.145999 166.998625 
L 420.363826 166.822867 
L 420.581653 166.358362 
L 420.79948 166.622 
L 421.017306 164.010731 
L 421.235133 164.456404 
L 421.45296 162.880855 
L 421.670787 162.347302 
L 421.888614 162.767867 
L 422.324268 164.74515 
L 422.542095 166.873083 
L 422.759922 166.797758 
L 422.977749 172.629174 
L 423.413403 172.352982 
L 423.63123 172.704499 
L 423.849057 172.748438 
L 424.066884 173.438918 
L 424.28471 172.321596 
L 424.502537 169.183052 
L 424.720364 163.828695 
L 424.938191 164.607054 
L 425.156018 171.712719 
L 425.373845 170.331759 
L 425.591672 170.363145 
L 425.809499 169.89864 
L 426.027326 170.262711 
L 426.245153 170.156001 
L 426.46298 170.281542 
L 426.680807 171.480466 
L 426.898634 171.98891 
L 427.116461 170.827649 
L 427.552115 172.252548 
L 427.769941 170.00535 
L 428.423422 167.249709 
L 428.641249 167.356419 
L 428.859076 167.61378 
L 429.076903 168.448632 
L 429.29473 170.633059 
L 429.512557 170.752324 
L 429.730384 170.639336 
L 429.948211 171.568346 
L 430.819519 169.007293 
L 431.037345 169.321148 
L 431.255172 169.277208 
L 431.908653 163.483455 
L 432.12648 164.556838 
L 432.344307 163.935406 
L 432.779961 164.456404 
L 432.997788 165.787147 
L 433.215615 165.981737 
L 433.651269 166.904469 
L 433.869096 163.502287 
L 434.086923 163.207263 
L 434.740403 157.840353 
L 434.95823 158.367628 
L 435.176057 156.001166 
L 435.393884 157.821521 
L 435.611711 156.55355 
L 435.829538 156.515887 
L 436.047365 152.303961 
L 436.265192 153.013272 
L 436.483019 151.839456 
L 436.700846 152.109371 
L 436.918673 151.70136 
L 437.354327 153.182753 
L 437.572154 156.296189 
L 437.78998 156.082768 
L 438.225634 153.841847 
L 438.443461 154.0741 
L 438.661288 156.252249 
L 438.879115 156.898789 
L 439.096942 156.923898 
L 439.314769 157.149873 
L 439.750423 155.86307 
L 439.96825 155.869347 
L 440.186077 155.994889 
L 440.403904 147.439217 
L 440.621731 147.589867 
L 440.839558 150.584038 
L 441.057385 151.199193 
L 441.275211 153.069765 
L 441.493038 152.919115 
L 441.710865 153.057211 
L 441.928692 152.975609 
L 442.146519 155.316963 
L 442.364346 154.965446 
L 443.235654 158.355074 
L 443.453481 157.677148 
L 443.671308 158.028665 
L 443.889135 157.407234 
L 444.106962 159.641877 
L 444.324789 159.227589 
L 444.542615 159.227589 
L 444.760442 159.09577 
L 445.196096 157.20009 
L 445.413923 157.507667 
L 445.63175 158.135376 
L 445.849577 157.520221 
L 446.067404 158.235809 
L 446.285231 155.976057 
L 446.503058 156.308743 
L 447.592193 159.390794 
L 447.81002 159.422179 
L 448.027846 159.227589 
L 448.245673 156.139262 
L 448.681327 157.570438 
L 448.899154 156.089045 
L 449.116981 156.547272 
L 449.552635 161.035391 
L 449.770462 160.564609 
L 449.988289 158.386459 
L 450.206116 159.020445 
L 450.64177 156.402899 
L 451.077424 163.640383 
L 451.730904 162.642326 
L 451.948731 162.780421 
L 452.166558 160.734091 
L 452.384385 160.162876 
L 452.602212 160.43279 
L 452.820039 161.299029 
L 453.037866 164.726319 
L 453.255693 165.197101 
L 453.47352 166.490181 
L 453.691347 166.446241 
L 453.909174 168.975908 
L 454.344828 169.496906 
L 454.562655 171.254491 
L 454.998308 172.221163 
L 455.216135 172.37809 
L 455.433962 171.92614 
L 455.651789 171.951248 
L 456.30527 170.582843 
L 456.523097 171.298431 
L 456.740924 169.8547 
L 456.958751 170.331759 
L 457.394405 179.590465 
L 457.830059 195.226693 
L 458.047885 190.38078 
L 458.265712 205.941683 
L 458.483539 189.640084 
L 458.701366 186.702406 
L 459.13702 202.960066 
L 459.354847 295.233269 
L 459.572674 307.8 
L 459.790501 301.617068 
L 460.226155 276.910447 
L 460.443982 240.898789 
L 460.661809 247.841249 
L 461.533116 220.655179 
L 461.750943 214.221163 
L 461.96877 211.785652 
L 462.186597 211.628725 
L 462.404424 211.001016 
L 462.622251 214.139561 
L 462.840078 210.379585 
L 463.057905 211.628725 
L 463.275732 209.820924 
L 463.493559 206.05467 
L 463.711386 205.345359 
L 464.14704 202.847078 
L 464.364867 201.585383 
L 464.582694 201.271529 
L 464.80052 206.607054 
L 465.018347 198.176924 
L 465.236174 196.444448 
L 465.454001 193.312181 
L 465.671828 195.276909 
L 465.889655 193.148976 
L 466.107482 193.035989 
L 466.325309 190.713466 
L 466.543136 191.033597 
L 466.97879 187.342669 
L 467.196617 187.64397 
L 467.414444 186.350889 
L 467.632271 181.712121 
L 467.850098 180.054969 
L 468.067925 181.398266 
L 468.285751 187.574922 
L 468.721405 178.912539 
L 468.939232 185.183351 
L 469.592713 190.374503 
L 469.81054 189.753071 
L 470.028367 185.559976 
L 470.246194 186.95349 
L 470.464021 185.986818 
L 471.117502 190.23013 
L 471.335329 188.208907 
L 471.553155 187.612584 
L 471.770982 187.417994 
L 471.988809 187.612584 
L 472.206636 184.467763 
L 472.424463 187.417994 
L 472.64229 185.490928 
L 472.860117 189.665192 
L 473.077944 189.0877 
L 473.295771 191.021043 
L 473.513598 195.107428 
L 473.731425 195.458945 
L 473.949252 193.651143 
L 474.167079 193.017157 
L 474.384906 191.786848 
L 474.602733 188.014318 
L 474.82056 188.146137 
L 475.038386 183.927933 
L 475.256213 185.12058 
L 475.47404 182.528142 
L 475.909694 180.965147 
L 476.127521 180.776835 
L 476.998829 173.457749 
L 477.216656 172.516186 
L 477.65231 174.085458 
L 477.870137 174.173337 
L 478.087964 177.550411 
L 478.305791 184.342221 
L 478.523617 186.658467 
L 478.741444 185.804783 
L 478.959271 185.804783 
L 479.177098 190.61931 
L 479.394925 190.167359 
L 479.612752 189.351338 
L 479.830579 183.055418 
L 480.048406 184.938544 
L 480.266233 182.810611 
L 480.48406 183.808668 
L 480.701887 186.796563 
L 480.919714 187.769511 
L 481.791021 202.156598 
L 482.008848 202.363742 
L 482.226675 202.307249 
L 482.444502 200.606158 
L 482.880156 202.395128 
L 483.097983 200.210701 
L 483.31581 201.453564 
L 483.533637 206.462681 
L 483.751464 207.724376 
L 483.969291 205.910297 
L 484.187118 207.793424 
L 484.404945 213.323539 
L 484.622772 212.306651 
L 484.840599 214.754715 
L 485.058426 215.690001 
L 485.276252 213.185443 
L 485.494079 214.045404 
L 485.711906 210.90686 
L 486.14756 216.393035 
L 486.583214 218.288716 
L 486.801041 222.965147 
L 487.018868 221.483754 
L 487.236695 225.149574 
L 487.890176 216.675504 
L 488.108003 220.335047 
L 488.543656 216.637842 
L 489.197137 205.897743 
L 489.414964 206.236706 
L 489.850618 194.636646 
L 490.286272 171.072456 
L 490.504099 168.825258 
L 490.721926 167.91508 
L 490.939753 173.922254 
L 491.15758 170.168555 
L 491.375407 178.146734 
L 491.811061 169.923748 
L 492.028887 172.07679 
L 492.246714 163.929129 
L 492.464541 162.548169 
L 492.682368 163.79731 
L 493.335849 158.920012 
L 493.553676 155.731251 
L 493.98933 143.622747 
L 494.207157 145.192019 
L 494.424984 142.988761 
L 494.642811 138.594799 
L 494.860638 137.36449 
L 495.078465 135.1424 
L 495.296291 134.828546 
L 495.731945 130.67939 
L 495.949772 129.436527 
L 496.167599 131.495412 
L 496.385426 134.633956 
L 496.603253 131.746495 
L 496.82108 132.374204 
L 497.038907 130.936751 
L 497.256734 132.192169 
L 497.474561 129.367479 
L 498.563696 124.483904 
L 498.781522 124.490181 
L 498.999349 127.917471 
L 499.217176 128.54518 
L 499.435003 118.539501 
L 499.65283 116.813301 
L 499.870657 123.354028 
L 500.088484 122.09861 
L 500.306311 123.918966 
L 501.177619 113.166313 
L 501.395446 113.994889 
L 501.613273 113.524107 
L 501.8311 113.542938 
L 502.48458 117.497504 
L 502.702407 122.155104 
L 502.920234 120.479121 
L 503.355888 129.555791 
L 503.573715 128.796264 
L 503.791542 128.463578 
L 504.009369 129.5809 
L 504.227196 124.741264 
L 504.880677 132.600179 
L 505.098504 133.227888 
L 505.316331 134.564908 
L 505.534157 138.26839 
L 505.751984 137.232671 
L 505.969811 137.96709 
L 506.187638 137.433538 
L 506.841119 139.128352 
L 507.058946 139.322941 
L 507.276773 141.58897 
L 507.4946 145.342669 
L 507.930254 137.62185 
L 508.148081 139.511254 
L 508.583735 140.779226 
L 509.019388 144.903273 
L 509.455042 144.903273 
L 510.32635 140.923599 
L 510.544177 140.911045 
L 510.762004 140.565805 
L 510.979831 140.860828 
L 511.197658 141.488537 
L 511.415485 137.094575 
L 512.068966 140.860828 
L 512.286792 140.860828 
L 512.504619 139.442206 
L 512.722446 139.435929 
L 512.940273 140.691347 
L 513.375927 148.613032 
L 513.811581 160.162876 
L 514.029408 162.673711 
L 514.247235 160.470453 
L 514.465062 162.089942 
L 514.682889 159.48495 
L 514.900716 158.399014 
L 515.118543 156.051382 
L 515.33637 155.806576 
L 515.554196 153.923449 
L 515.772023 153.352234 
L 515.98985 152.316515 
L 516.207677 152.536213 
L 516.425504 149.724077 
L 516.643331 149.548319 
L 516.861158 152.548767 
L 517.078985 153.804185 
L 517.296812 152.548767 
L 517.514639 154.475833 
L 517.732466 154.601375 
L 517.950293 151.525602 
L 518.16812 154.984277 
L 518.385947 156.61632 
L 518.603774 159.754865 
L 518.821601 160.068719 
L 519.039427 160.068719 
L 519.257254 164.186489 
L 519.475081 164.173935 
L 519.692908 167.990405 
L 519.910735 168.505126 
L 520.128562 170.074398 
L 520.346389 172.497355 
L 520.564216 172.095621 
L 521.217697 167.011179 
L 521.435524 166.257929 
L 521.871178 162.479121 
L 522.089005 165.580003 
L 522.306831 165.881303 
L 522.524658 169.635002 
L 522.742485 168.687162 
L 522.960312 165.743207 
L 523.178139 165.699268 
L 523.83162 170.714661 
L 524.049447 169.848423 
L 524.267274 167.663996 
L 524.485101 169.89864 
L 524.920755 165.674159 
L 525.356409 167.965297 
L 525.792062 163.90402 
L 526.009889 164.261814 
L 526.227716 166.264206 
L 526.445543 166.873083 
L 526.881197 171.110118 
L 527.316851 171.631116 
L 527.970332 184.800448 
L 528.188159 187.800897 
L 528.405986 187.713017 
L 528.623813 190.223853 
L 528.84164 191.058706 
L 529.059466 190.839008 
L 529.277293 192.734688 
L 529.49512 192.740965 
L 529.712947 193.632312 
L 529.930774 193.305903 
L 530.148601 193.381229 
L 530.584255 193.983829 
L 530.802082 193.59465 
L 531.237736 198.735585 
L 531.455563 196.444448 
L 531.67339 199.815244 
L 531.891217 198.045105 
L 532.109044 191.17797 
L 532.326871 190.42472 
L 532.544697 188.604364 
L 532.762524 194.555044 
L 532.980351 194.812405 
L 533.198178 193.236855 
L 533.416005 190.022986 
L 533.633832 189.426663 
L 533.851659 190.914333 
L 534.069486 191.61109 
L 534.50514 189.658915 
L 534.722967 194.316515 
L 534.940794 196.023883 
L 535.158621 195.289463 
L 535.376448 187.857391 
L 535.594275 184.317113 
L 535.812101 183.526199 
L 536.029928 183.883993 
L 536.247755 187.267344 
L 536.465582 187.367778 
L 536.683409 186.658467 
L 536.901236 188.780123 
L 537.119063 192.897893 
L 537.33689 187.675355 
L 537.554717 187.60003 
L 537.772544 183.570139 
L 537.990371 186.746346 
L 538.208198 187.480765 
L 538.426025 186.175131 
L 538.861679 179.402152 
L 539.079506 176.100404 
L 539.297332 176.985473 
L 539.515159 188.824062 
L 539.732986 187.110417 
L 539.950813 184.097414 
L 540.16864 185.208459 
L 540.386467 183.953041 
L 540.604294 185.233567 
L 541.039948 201.616769 
L 541.257775 202.294694 
L 541.475602 200.392737 
L 541.693429 200.417845 
L 541.911256 202.752922 
L 542.129083 197.568047 
L 542.34691 199.237752 
L 542.564736 197.775191 
L 542.782563 197.461336 
L 543.00039 194.718248 
L 543.218217 194.485996 
L 543.436044 195.954835 
L 543.653871 196.387954 
L 543.871698 196.042714 
L 544.089525 196.0741 
L 544.307352 195.239247 
L 544.525179 195.722583 
L 544.960833 200.486893 
L 545.396487 194.467165 
L 545.614314 195.050934 
L 545.832141 197.178867 
L 546.049967 196.168256 
L 546.267794 194.605261 
L 546.485621 195.239247 
L 546.703448 194.617815 
L 546.921275 194.818682 
L 547.139102 190.179913 
L 547.574756 192.992049 
L 547.792583 195.440114 
L 548.01041 199.181258 
L 548.228237 194.762188 
L 548.446064 197.178867 
L 548.881718 194.021492 
L 549.099545 195.433836 
L 549.317372 197.593155 
L 549.535198 197.354626 
L 549.753025 197.436228 
L 549.970852 197.273023 
L 550.188679 196.469556 
L 550.406506 196.475833 
L 550.84216 193.425168 
L 551.059987 193.732745 
L 551.277814 196.513496 
L 551.713468 190.864116 
L 551.931295 193.707637 
L 552.149122 190.569093 
L 552.366949 189.727963 
L 552.584776 193.996383 
L 552.802602 192.276461 
L 553.020429 195.936004 
L 553.456083 192.797459 
L 553.67391 189.018652 
L 553.891737 188.221462 
L 554.109564 186.438768 
L 554.327391 186.815394 
L 554.763045 190.87667 
L 554.980872 191.140308 
L 555.198699 191.165416 
L 555.416526 191.705246 
L 555.634353 194.435779 
L 555.85218 194.617815 
L 556.070007 188.987266 
L 556.287833 189.489434 
L 556.723487 185.597639 
L 556.941314 184.92599 
L 557.376968 169.904917 
L 557.594795 171.744104 
L 557.812622 171.392587 
L 558.248276 178.67401 
L 558.466103 180.877268 
L 558.68393 180.393932 
L 558.901757 181.492423 
L 559.119584 180.230728 
L 559.337411 176.69045 
L 559.555237 175.541743 
L 559.773064 173.633508 
L 559.990891 169.082618 
L 560.208718 170.639336 
L 560.426545 169.409027 
L 560.644372 172.359259 
L 560.862199 165.448184 
L 561.080026 165.981737 
L 561.297853 156.227141 
L 561.51568 156.522164 
L 561.733507 159.189927 
L 562.169161 146.522762 
L 562.604815 130.660559 
L 562.822642 129.210551 
L 563.040468 125.149275 
L 563.258295 125.877417 
L 563.476122 127.007293 
L 563.693949 129.675056 
L 563.911776 127.923748 
L 564.129603 130.120729 
L 564.34743 116.781916 
L 564.565257 113.17259 
L 564.783084 114.107876 
L 565.218738 111.427559 
L 565.436565 113.448782 
L 565.654392 108.828845 
L 565.872219 107.56715 
L 566.090046 109.927335 
L 566.307872 106.142251 
L 566.525699 108.954386 
L 566.743526 101.290061 
L 567.17918 94.925093 
L 567.397007 94.021193 
L 567.832661 99.563862 
L 568.268315 104.102197 
L 568.486142 101.798505 
L 568.921796 100.687461 
L 569.139623 100.361052 
L 569.35745 99.174682 
L 569.575277 107.579704 
L 569.793103 109.688806 
L 570.01093 110.335346 
L 570.228757 111.979943 
L 570.882238 120.799253 
L 571.317892 136.215782 
L 571.753546 139.222508 
L 571.971373 136.680287 
L 572.1892 141.086803 
L 572.407027 142.417546 
L 572.842681 137.948259 
L 573.278334 127.735436 
L 573.496161 128.708384 
L 573.713988 124.942131 
L 574.149642 132.681781 
L 574.367469 133.861874 
L 574.803123 133.20278 
L 575.238777 129.844537 
L 575.456604 131.708833 
L 575.674431 126.982185 
L 576.110085 132.06035 
L 576.327912 129.976356 
L 576.545738 133.378538 
L 576.763565 131.118786 
L 576.981392 133.391093 
L 577.199219 132.989359 
L 577.417046 133.234165 
L 577.634873 137.232671 
L 577.8527 134.897594 
L 578.070527 133.874428 
L 578.506181 139.128352 
L 578.724008 142.81928 
L 578.941835 141.921656 
L 579.159662 146.089643 
L 579.377489 147.288567 
L 579.595316 146.566702 
L 579.813142 141.714512 
L 580.248796 143.095472 
L 580.466623 141.281393 
L 580.68445 141.501091 
L 580.902277 142.536811 
L 581.120104 140.113854 
L 581.337931 141.752175 
L 581.555758 141.143297 
L 581.773585 142.386161 
L 582.209239 146.629472 
L 582.427066 145.342669 
L 582.644893 144.928381 
L 582.86272 146.748737 
L 583.080547 146.566702 
L 583.298373 147.081423 
L 583.5162 146.880556 
L 583.734027 148.732297 
L 583.951854 146.347003 
L 584.169681 154.984277 
L 584.387508 154.752025 
L 584.605335 156.817187 
L 584.823162 160.734091 
L 585.040989 169.339979 
L 585.476643 163.998177 
L 585.69447 164.563115 
L 585.912297 168.743656 
L 586.130124 168.335645 
L 586.565777 169.691496 
L 587.001431 175.742609 
L 587.219258 173.721387 
L 587.437085 168.423524 
L 587.654912 168.737379 
L 588.52622 163.100553 
L 589.833182 174.945419 
L 590.051008 175.974862 
L 590.704489 173.300822 
L 590.922316 173.934808 
L 591.140143 174.926588 
L 591.35797 176.684173 
L 592.011451 178.793275 
L 592.229278 183.381826 
L 592.447105 183.017755 
L 592.664932 181.8 
L 592.882759 183.545031 
L 593.100586 180.130294 
L 593.318412 180.375101 
L 593.754066 178.680287 
L 593.971893 177.707338 
L 594.407547 173.438918 
L 594.843201 175.121178 
L 595.061028 175.014467 
L 596.150163 183.350441 
L 596.36799 181.517531 
L 596.585817 181.856494 
L 596.803643 181.228785 
L 597.02147 177.719892 
L 597.239297 177.092184 
L 597.457124 177.073352 
L 597.674951 175.799103 
L 597.892778 177.970976 
L 598.110605 181.279002 
L 598.328432 180.619907 
L 598.546259 180.965147 
L 598.981913 184.882051 
L 599.417567 180.437872 
L 599.635394 179.803886 
L 599.853221 178.617516 
L 600.071047 186.821671 
L 600.942355 174.506023 
L 601.160182 174.593902 
L 601.378009 175.271828 
L 601.595836 174.342819 
L 601.813663 174.844986 
L 602.249317 170.670722 
L 602.467144 174.957973 
L 602.684971 173.583291 
L 602.902798 173.583291 
L 603.120625 177.368375 
L 603.338452 176.112958 
L 603.556278 176.338933 
L 603.774105 175.070961 
L 603.991932 175.365984 
L 604.427586 163.941683 
L 604.645413 166.647108 
L 604.86324 164.933463 
L 605.081067 165.994291 
L 605.298894 162.435182 
L 605.516721 165.88758 
L 605.734548 166.540398 
L 606.388029 157.752473 
L 606.605856 156.798356 
L 606.823682 154.664146 
L 607.041509 155.486444 
L 607.259336 158.612435 
L 607.477163 156.089045 
L 608.130644 161.110716 
L 608.348471 161.104439 
L 608.566298 158.568495 
L 608.784125 160.231923 
L 609.001952 160.815693 
L 609.437606 162.617217 
L 609.87326 155.618263 
L 610.308913 160.489284 
L 610.52674 161.229981 
L 610.744567 160.08755 
L 610.962394 159.666986 
L 611.180221 161.418293 
L 611.398048 160.545778 
L 611.615875 159.039277 
L 612.051529 162.46029 
L 612.269356 162.598386 
L 612.487183 163.370468 
L 612.922837 161.587775 
L 613.140664 162.347302 
L 613.358491 161.16721 
L 613.576318 161.543835 
L 614.011971 166.684771 
L 614.229798 166.552952 
L 614.447625 166.873083 
L 614.665452 170.061844 
L 614.883279 169.132835 
L 615.101106 170.268988 
L 615.318933 169.05751 
L 615.53676 171.009685 
L 615.754587 169.823315 
L 615.972414 171.461635 
L 616.408068 169.164221 
L 616.625895 168.247766 
L 616.843722 168.643222 
L 617.061548 167.230877 
L 617.279375 167.37525 
L 617.715029 165.197101 
L 617.932856 165.222209 
L 618.150683 164.236706 
L 618.36851 165.190823 
L 618.586337 165.253594 
L 618.804164 164.569392 
L 619.239818 162.096219 
L 619.457645 162.968734 
L 619.893299 161.901629 
L 620.111126 161.863967 
L 620.328953 161.242535 
L 620.546779 160.257032 
L 620.764606 161.794919 
L 620.982433 162.271977 
L 621.418087 165.818532 
L 621.635914 166.019399 
L 621.853741 166.584337 
L 622.071568 165.517232 
L 622.289395 165.341474 
L 622.725049 165.875026 
L 622.942876 167.406636 
L 623.37853 173.212943 
L 623.596357 170.463578 
L 623.814183 170.746047 
L 624.249837 174.694336 
L 624.467664 172.616619 
L 624.685491 172.823763 
L 624.903318 174.644119 
L 625.121145 175.133732 
L 625.774626 172.67939 
L 625.992453 173.093678 
L 626.428107 171.806875 
L 626.645934 171.267045 
L 626.863761 171.179166 
L 627.299414 173.784158 
L 627.517241 173.018353 
L 627.735068 171.725273 
L 627.952895 172.72333 
L 628.170722 171.92614 
L 628.388549 172.993245 
L 628.606376 173.32593 
L 628.824203 172.949305 
L 629.04203 171.323539 
L 629.477684 170.714661 
L 629.695511 171.624839 
L 629.913338 170.664445 
L 630.131165 173.897145 
L 630.566818 174.85754 
L 630.784645 174.907757 
L 631.002472 175.69867 
L 631.438126 171.530683 
L 631.655953 171.643671 
L 631.87378 169.007293 
L 632.091607 169.164221 
L 632.309434 168.662054 
L 632.527261 167.645165 
L 632.745088 167.733044 
L 632.962915 169.427858 
L 633.180742 168.781318 
L 633.398569 165.893857 
L 633.616396 166.634554 
L 633.834223 166.201435 
L 634.052049 167.689105 
L 634.269876 166.697325 
L 634.487703 168.103393 
L 634.70553 166.119833 
L 634.923357 167.325034 
L 635.141184 166.559229 
L 635.359011 165.09039 
L 635.576838 166.691048 
L 635.794665 170.93436 
L 636.012492 171.022239 
L 636.230319 172.07679 
L 636.448146 172.459692 
L 636.665973 172.145838 
L 636.8838 169.860977 
L 637.101627 170.024182 
L 637.319453 171.260768 
L 637.53728 170.783709 
L 637.755107 170.576566 
L 637.972934 169.371365 
L 638.190761 170.369422 
L 638.626415 174.104289 
L 638.844242 173.438918 
L 639.062069 171.392587 
L 639.279896 168.078284 
L 639.497723 168.787595 
L 639.71555 165.667882 
L 639.933377 168.329368 
L 640.151204 167.61378 
L 640.369031 168.969631 
L 640.586858 168.969631 
L 640.804684 171.009685 
L 641.022511 170.030459 
L 641.458165 169.547123 
L 641.675992 169.860977 
L 641.893819 169.339979 
L 642.329473 166.421133 
L 642.5473 166.684771 
L 642.765127 167.400359 
L 642.982954 166.722433 
L 643.200781 166.691048 
L 643.854262 166.03823 
L 644.289915 162.202929 
L 644.507742 162.767867 
L 644.943396 160.58344 
L 645.161223 162.466567 
L 645.37905 165.605111 
L 645.596877 166.339531 
L 646.032531 168.944522 
L 646.250358 166.734987 
L 646.468185 169.434135 
L 646.686012 169.120281 
L 647.121666 175.949753 
L 647.339493 175.485249 
L 647.557319 172.120729 
L 647.775146 165.93152 
L 647.992973 168.536512 
L 648.2108 168.486295 
L 648.428627 170.212494 
L 648.646454 169.628725 
L 648.864281 162.033448 
L 649.082108 170.281542 
L 649.299935 171.643671 
L 649.517762 187.235959 
L 649.735589 194.624092 
L 649.953416 195.38362 
L 650.38907 204.039725 
L 650.606897 192.540099 
L 650.824723 193.858287 
L 651.04255 194.303961 
L 651.260377 196.205918 
L 651.478204 191.259573 
L 651.696031 190.305455 
L 651.913858 190.048094 
L 652.349512 179.056912 
L 652.567339 174.757107 
L 653.002993 178.021193 
L 653.438647 175.252997 
L 653.656474 174.788492 
L 653.874301 172.03285 
L 654.092128 167.745599 
L 654.745608 174.31771 
L 655.181262 167.080227 
L 655.399089 169.145389 
L 655.616916 166.477627 
L 656.05257 158.64382 
L 656.488224 162.65488 
L 656.706051 158.593603 
L 656.923878 160.865909 
L 657.141705 160.683874 
L 657.359532 165.052728 
L 657.577358 161.179764 
L 658.013012 161.719593 
L 658.448666 165.636497 
L 658.666493 164.556838 
L 659.319974 171.059901 
L 659.973455 168.643222 
L 660.191282 169.239546 
L 660.844763 165.63022 
L 661.062589 167.262263 
L 661.280416 167.87114 
L 661.498243 165.39169 
L 661.71607 166.42741 
L 661.933897 166.509012 
L 662.151724 167.601226 
L 662.587378 173.162726 
L 662.805205 175.014467 
L 663.023032 178.567299 
L 663.240859 177.920759 
L 663.676513 184.62469 
L 663.89434 185.020146 
L 664.112167 188.409774 
L 664.329993 189.552204 
L 664.54782 187.44938 
L 664.765647 189.6903 
L 664.983474 187.60003 
L 665.201301 187.713017 
L 665.419128 188.05198 
L 665.854782 185.258676 
L 666.072609 187.417994 
L 666.290436 187.367778 
L 666.508263 185.534868 
L 666.72609 185.001315 
L 667.161744 183.350441 
L 667.379571 179.879211 
L 667.597398 180.638739 
L 668.033051 178.956479 
L 668.468705 173.922254 
L 668.904359 179.402152 
L 669.340013 179.785055 
L 669.775667 179.056912 
L 669.993494 177.581796 
L 670.211321 178.97531 
L 670.429148 178.240891 
L 670.646975 175.340876 
L 670.864802 174.5123 
L 671.300455 179.916873 
L 671.518282 182.258227 
L 671.736109 181.379435 
L 672.171763 186.21907 
L 672.607417 184.047198 
L 672.825244 182.208011 
L 673.043071 187.267344 
L 673.260898 189.018652 
L 673.478725 188.554147 
L 673.696552 188.353281 
L 673.914379 187.493319 
L 674.132206 187.417994 
L 674.350033 194.128202 
L 674.567859 194.253744 
L 674.785686 193.443999 
L 675.003513 199.714811 
L 675.22134 201.29036 
L 675.656994 207.197101 
L 675.874821 208.609446 
L 676.092648 215.777881 
L 676.528302 212.218771 
L 676.746129 215.664893 
L 676.963956 216.449529 
L 678.05309 194.109371 
L 678.270917 189.407831 
L 678.924398 184.963653 
L 679.142225 187.311284 
L 679.360052 186.853056 
L 679.577879 185.27123 
L 679.795706 186.137468 
L 680.013533 185.522314 
L 680.449187 191.768017 
L 680.667014 191.096368 
L 680.884841 187.857391 
L 681.320494 180.092632 
L 681.538321 182.785503 
L 681.756148 183.865162 
L 681.973975 180.444149 
L 682.191802 181.417098 
L 682.627456 176.433089 
L 682.845283 175.610791 
L 683.06311 175.447586 
L 683.280937 170.375699 
L 683.716591 173.683724 
L 683.934418 170.921805 
L 684.152245 170.381976 
L 684.370072 166.239097 
L 684.805725 165.78087 
L 685.023552 166.954685 
L 685.677033 158.173038 
L 685.89486 162.830638 
L 686.112687 164.525452 
L 686.766168 162.993842 
L 686.983995 164.946017 
L 687.201822 163.213541 
L 687.419649 167.287371 
L 687.637476 164.820475 
L 687.855303 168.053176 
L 688.073129 177.299327 
L 688.72661 168.323091 
L 688.944437 166.722433 
L 689.380091 174.549963 
L 689.597918 173.118786 
L 690.251399 175.69867 
L 690.469226 177.500194 
L 690.687053 176.144343 
L 690.90488 175.761441 
L 691.122707 175.868151 
L 691.340534 178.196951 
L 691.55836 176.972919 
L 691.994014 178.799552 
L 692.211841 181.975758 
L 692.429668 179.119683 
L 692.647495 184.467763 
L 693.083149 184.492871 
L 693.300976 186.005649 
L 693.518803 185.490928 
L 693.954457 180.908653 
L 694.172284 183.362995 
L 694.390111 183.689404 
L 694.607938 179.979644 
L 694.825764 183.13702 
L 695.261418 185.72318 
L 695.697072 185.603916 
L 696.132726 186.595696 
L 696.350553 188.133582 
L 696.56838 184.574473 
L 697.004034 190.305455 
L 697.221861 190.029263 
L 697.439688 188.899387 
L 697.657515 189.19441 
L 697.875342 187.637692 
L 698.093169 192.025377 
L 698.528822 192.132088 
L 698.746649 189.100254 
L 698.964476 189.232073 
L 699.182303 193.519324 
L 699.40013 194.6492 
L 699.617957 198.974114 
L 699.835784 196.563712 
L 700.271438 194.404394 
L 700.489265 195.063488 
L 700.924919 206.889523 
L 701.796226 215.514243 
L 702.014053 215.307099 
L 702.23188 216.160783 
L 702.449707 217.598236 
L 702.667534 216.487192 
L 703.321015 214.974413 
L 703.756669 219.845434 
L 703.974496 217.981139 
L 704.192323 218.288716 
L 704.41015 217.322045 
L 704.627977 217.924645 
L 704.845804 217.340876 
L 705.06363 218.357764 
L 705.281457 218.244777 
L 705.499284 219.311882 
L 705.717111 218.464475 
L 705.934938 219.632013 
L 706.370592 213.298431 
L 706.806246 205.30142 
L 707.677554 174.40559 
L 708.113208 176.703004 
L 708.548861 175.54802 
L 708.766688 174.085458 
L 708.984515 174.807323 
L 709.202342 176.025078 
L 709.420169 175.001913 
L 709.637996 175.271828 
L 709.855823 175.836766 
L 710.07365 177.154954 
L 710.291477 175.058407 
L 710.509304 175.736332 
L 710.727131 173.97247 
L 710.944958 173.959916 
L 711.380612 176.031356 
L 711.598439 179.107129 
L 711.816265 173.005799 
L 712.034092 173.765327 
L 712.251919 173.401255 
L 712.469746 174.267494 
L 712.687573 173.809266 
L 712.9054 172.265102 
L 713.123227 174.323987 
L 713.341054 174.612734 
L 713.558881 173.495412 
L 713.776708 171.078733 
L 713.994535 171.486743 
L 714.212362 170.281542 
L 714.430189 170.607951 
L 714.648016 171.762935 
L 714.865843 171.73155 
L 715.301496 177.1424 
L 715.519323 172.252548 
L 715.73715 171.618562 
L 715.954977 173.577014 
L 716.390631 174.229831 
L 716.608458 169.409027 
L 717.044112 171.053624 
L 717.261939 169.653834 
L 717.479766 170.633059 
L 717.91542 168.693439 
L 718.133247 168.680885 
L 718.351074 169.835869 
L 718.5689 169.798207 
L 719.004554 166.075893 
L 719.440208 168.523958 
L 719.875862 163.979345 
L 720.093689 163.640383 
L 720.311516 158.122822 
L 720.529343 158.581049 
L 720.74717 159.999671 
L 720.964997 152.580152 
L 721.182824 151.324735 
L 721.400651 152.159588 
L 721.836304 148.751128 
L 722.054131 152.423225 
L 722.271958 152.291406 
L 722.489785 150.157196 
L 722.707612 152.975609 
L 723.143266 155.794022 
L 723.361093 160.426513 
L 724.014574 153.465222 
L 724.232401 153.107428 
L 724.450228 152.373009 
L 724.668055 152.73708 
L 725.103709 149.893559 
L 725.321535 147.891167 
L 725.757189 152.900284 
L 725.975016 150.954386 
L 726.192843 151.858287 
L 726.41067 153.797908 
L 726.628497 152.774742 
L 726.846324 154.507219 
L 727.064151 152.291406 
L 727.281978 157.35074 
L 727.935459 159.955732 
L 728.371113 169.283485 
L 728.588939 170.174832 
L 728.806766 169.365087 
L 729.024593 167.5259 
L 729.24242 173.985025 
L 729.460247 170.946914 
L 729.678074 170.702107 
L 729.895901 170.877866 
L 730.113728 170.388253 
L 730.549382 167.695382 
L 730.767209 166.358362 
L 730.985036 170.256434 
L 731.202863 171.436527 
L 731.42069 171.957525 
L 732.07417 183.218622 
L 732.291997 180.444149 
L 732.509824 180.337438 
L 733.163305 187.769511 
L 733.381132 183.814945 
L 733.816786 163.596443 
L 734.034613 159.6356 
L 734.25244 159.742311 
L 734.470267 145.053923 
L 734.905921 143.390495 
L 735.341574 146.497654 
L 735.559401 150.722134 
L 735.777228 152.661755 
L 735.995055 150.948109 
L 736.212882 154.337737 
L 736.430709 155.737528 
L 736.648536 147.426663 
L 736.866363 147.23835 
L 737.08419 145.524705 
L 737.519844 134.859931 
L 737.737671 135.977253 
L 737.955498 135.537857 
L 738.173325 138.95887 
L 738.391152 139.065581 
L 738.608979 135.801495 
L 739.480286 114.603766 
L 739.698113 112.946615 
L 739.91594 113.279301 
L 740.133767 107.937498 
L 740.351594 113.260469 
L 740.569421 113.850516 
L 741.005075 116.455507 
L 741.440729 123.680436 
L 741.658556 125.193215 
L 742.094209 121.571335 
L 742.312036 119.487341 
L 742.529863 121.10683 
L 742.74769 120.943626 
L 742.965517 122.676102 
L 743.401171 120.937349 
L 743.618998 120.629771 
L 743.836825 120.667434 
L 744.054652 120.108773 
L 744.272479 118.92868 
L 744.708133 116.047497 
L 744.92596 118.464176 
L 745.143787 118.338634 
L 745.361614 118.639934 
L 745.57944 116.957674 
L 745.797267 117.302914 
L 746.015094 114.566104 
L 746.232921 109.475385 
L 746.450748 112.356569 
L 746.668575 113.342071 
L 746.886402 115.061994 
L 747.104229 118.683874 
L 747.322056 125.287371 
L 747.539883 125.783261 
L 747.75771 125.852309 
L 748.193364 103.581199 
L 748.411191 100.480317 
L 748.846845 108.941832 
L 749.064671 108.841399 
L 749.500325 114.026274 
L 749.718152 124.42741 
L 750.153806 129.825706 
L 750.371633 131.156449 
L 750.58946 135.594351 
L 750.807287 133.723778 
L 751.025114 133.102346 
L 751.242941 135.908205 
L 751.460768 133.246719 
L 751.678595 138.368824 
L 751.896422 138.695232 
L 752.114249 134.533523 
L 752.332075 134.376595 
L 752.767729 137.439815 
L 752.985556 137.251502 
L 753.203383 135.996084 
L 753.42121 132.305156 
L 753.639037 133.246719 
L 754.074691 141.576416 
L 754.292518 141.639187 
L 754.945999 147.834673 
L 755.163826 147.966492 
L 755.381653 143.522314 
L 755.59948 144.319504 
L 755.817306 145.55609 
L 756.25296 153.609595 
L 756.470787 150.979495 
L 756.688614 150.565207 
L 757.342095 157.564161 
L 757.559922 157.394679 
L 757.777749 161.951846 
L 757.995576 162.742759 
L 758.213403 165.705545 
L 758.43123 161.995785 
L 758.649057 163.044059 
L 758.866884 161.506172 
L 759.08471 162.661157 
L 759.302537 168.247766 
L 759.520364 176.960365 
L 759.738191 179.151069 
L 759.956018 178.153012 
L 760.173845 180.500643 
L 760.391672 180.142849 
L 760.609499 181.385712 
L 760.827326 174.914034 
L 761.045153 174.537408 
L 761.480807 174.537408 
L 761.916461 170.840203 
L 762.134288 161.041668 
L 762.352115 162.07111 
L 762.569941 162.089942 
L 762.787768 164.776536 
L 763.005595 165.912689 
L 763.223422 160.338634 
L 763.441249 160.903572 
L 763.659076 160.231923 
L 763.876903 165.529786 
L 764.09473 164.682379 
L 764.312557 162.774144 
L 764.530384 165.297534 
L 765.401692 159.252698 
L 765.619519 158.857241 
L 765.837345 155.674757 
L 766.055172 157.69598 
L 766.272999 156.497056 
L 766.490826 156.597489 
L 766.708653 156.936452 
L 766.92648 157.0055 
L 767.144307 158.737976 
L 767.362134 157.068271 
L 767.579961 156.61632 
L 767.797788 155.86307 
L 768.015615 145.512151 
L 768.233442 147.19441 
L 768.451269 145.989209 
L 768.669096 146.459991 
L 769.322576 142.210402 
L 769.540403 150.163473 
L 769.976057 147.715409 
L 770.193884 139.034195 
L 770.411711 135.111015 
L 770.629538 138.35627 
L 770.847365 137.527694 
L 771.283019 138.306053 
L 771.500846 137.12596 
L 771.718673 141.570139 
L 771.9365 141.563862 
L 772.154327 150.640532 
L 772.807807 151.889673 
L 773.025634 150.715857 
L 773.461288 152.429502 
L 773.679115 151.582095 
L 773.896942 151.902227 
L 774.114769 152.711971 
L 774.332596 155.649649 
L 774.550423 154.802242 
L 774.76825 145.047646 
L 774.986077 144.765177 
L 775.421731 137.803886 
L 775.639558 144.426214 
L 775.857385 142.022089 
L 776.075211 142.568196 
L 776.293038 143.66041 
L 776.510865 135.883097 
L 776.728692 139.354327 
L 776.946519 137.12596 
L 777.164346 138.004753 
L 777.382173 141.833777 
L 777.6 138.387655 
L 777.6 138.387655 
" style="fill:none;stroke:#1f77b4;stroke-linecap:square;stroke-width:1.5;"/>
   </g>
   <g id="patch_3">
    <path d="M 108 320.4 
L 108 43.2 
" style="fill:none;stroke:#000000;stroke-linecap:square;stroke-linejoin:miter;stroke-width:0.8;"/>
   </g>
   <g id="patch_4">
    <path d="M 777.6 320.4 
L 777.6 43.2 
" style="fill:none;stroke:#000000;stroke-linecap:square;stroke-linejoin:miter;stroke-width:0.8;"/>
   </g>
   <g id="patch_5">
    <path d="M 108 320.4 
L 777.6 320.4 
" style="fill:none;stroke:#000000;stroke-linecap:square;stroke-linejoin:miter;stroke-width:0.8;"/>
   </g>
   <g id="patch_6">
    <path d="M 108 43.2 
L 777.6 43.2 
" style="fill:none;stroke:#000000;stroke-linecap:square;stroke-linejoin:miter;stroke-width:0.8;"/>
   </g>
   <g id="text_18">
    <!-- 中债国债收益率利差 -->
    <defs>
     <path d="M 8.203125 62.0625 
L 45.796875 62.0625 
L 45.796875 83.34375 
L 54.203125 83.34375 
L 54.203125 62.0625 
L 92.1875 62.0625 
L 92.1875 17.53125 
L 84.1875 17.53125 
L 84.1875 22.796875 
L 54.203125 22.796875 
L 54.203125 -13.53125 
L 45.796875 -13.53125 
L 45.796875 22.796875 
L 16.21875 22.796875 
L 16.21875 17.53125 
L 8.203125 17.53125 
z
M 84.1875 54.828125 
L 54.203125 54.828125 
L 54.203125 30.03125 
L 84.1875 30.03125 
z
M 16.21875 30.03125 
L 45.796875 30.03125 
L 45.796875 54.828125 
L 16.21875 54.828125 
z
" id="MicrosoftYaHei-4e2d"/>
     <path d="M 26.859375 47.40625 
L 58.984375 47.40625 
L 58.984375 54.34375 
L 34.1875 54.34375 
L 34.1875 60.5 
L 58.984375 60.5 
L 58.984375 67.328125 
L 31.0625 67.328125 
L 31.0625 73.484375 
L 58.984375 73.484375 
L 58.984375 82.171875 
L 66.3125 82.171875 
L 66.3125 73.484375 
L 95.125 73.484375 
L 95.125 67.328125 
L 66.3125 67.328125 
L 66.3125 60.5 
L 90.328125 60.5 
L 90.328125 54.34375 
L 66.3125 54.34375 
L 66.3125 47.40625 
L 97.953125 47.40625 
L 97.953125 41.265625 
L 26.859375 41.265625 
z
M 1.265625 35.203125 
Q 12.890625 54.25 19.34375 82.375 
L 26.46875 81.109375 
Q 23.640625 70.65625 20.40625 61.375 
L 20.40625 -13.71875 
L 13.28125 -13.71875 
L 13.28125 44.09375 
Q 8.890625 35.015625 3.90625 27.390625 
Q 2.734375 31.390625 1.265625 35.203125 
z
M 34.859375 34.625 
L 89.15625 34.625 
L 89.15625 4.4375 
L 82.03125 4.4375 
L 82.03125 28.265625 
L 42 28.265625 
L 42 3.953125 
L 34.859375 3.953125 
z
M 58.5 25.140625 
L 65.625 25.140625 
Q 65.625 17.046875 64.0625 10.984375 
Q 80.5625 2.78125 97.265625 -7.765625 
L 92.875 -14.015625 
Q 77.546875 -3.953125 61.921875 4.9375 
Q 60.546875 2.09375 58.6875 0.046875 
Q 50.875 -8.9375 31.453125 -13.921875 
Q 28.515625 -8.453125 27.25 -6.890625 
Q 45.90625 -2.875 52.25 3.859375 
Q 58.5 9.8125 58.5 25.140625 
z
" id="MicrosoftYaHei-503a"/>
     <path d="M 7.328125 78.078125 
L 92.78125 78.078125 
L 92.78125 -13.03125 
L 85.25 -13.03125 
L 85.25 -8.15625 
L 14.84375 -8.15625 
L 14.84375 -13.140625 
L 7.328125 -13.140625 
z
M 85.25 71.140625 
L 14.84375 71.140625 
L 14.84375 -1.21875 
L 85.25 -1.21875 
z
M 19.34375 15.765625 
L 46.296875 15.765625 
L 46.296875 35.109375 
L 22.75 35.109375 
L 22.75 41.75 
L 46.296875 41.75 
L 46.296875 54.828125 
L 20.90625 54.828125 
L 20.90625 61.46875 
L 79.109375 61.46875 
L 79.109375 54.828125 
L 53.515625 54.828125 
L 53.515625 41.75 
L 77.15625 41.75 
L 77.15625 35.109375 
L 53.515625 35.109375 
L 53.515625 15.765625 
L 80.671875 15.765625 
L 80.671875 9.125 
L 19.34375 9.125 
z
M 58.59375 28.859375 
L 64.0625 32.953125 
Q 69.4375 27.390625 73.25 22.515625 
L 67.484375 18.109375 
Q 62.796875 24.46875 58.59375 28.859375 
z
" id="MicrosoftYaHei-56fd"/>
     <path d="M 35.0625 41.546875 
Q 47.5625 63.234375 53.125 83.453125 
L 61.03125 81.203125 
Q 57.90625 72.171875 54.5 63.921875 
L 97.078125 63.921875 
L 97.078125 56.6875 
L 85.59375 56.6875 
Q 84.125 28.421875 71.09375 10.640625 
Q 81 1.859375 99.21875 -4.640625 
Q 96.1875 -8.453125 93.65625 -12.453125 
Q 76.265625 -5.03125 65.921875 4.6875 
Q 56.5 -4.59375 39.84375 -13.328125 
Q 37.796875 -10.109375 34.859375 -6.78125 
Q 51.515625 1.5625 60.59375 10.5 
Q 49.3125 24.609375 46 45.5625 
Q 43.265625 40.234375 40.328125 35.296875 
Q 38.484375 38.140625 35.0625 41.546875 
z
M 26.265625 82.671875 
L 33.6875 82.671875 
L 33.6875 -12.75 
L 26.265625 -12.75 
L 26.265625 17.390625 
Q 20.3125 14.0625 14.15625 10.015625 
Q 11.625 8.15625 9.1875 5.609375 
L 3.609375 12.15625 
Q 6.640625 15.375 6.640625 20.5625 
L 6.640625 69 
L 14.0625 69 
L 14.0625 19 
Q 19.875 22.078125 26.265625 25.53125 
z
M 77.875 56.6875 
L 51.90625 56.6875 
Q 53.328125 32.859375 65.671875 16.546875 
Q 76.8125 32.234375 77.875 56.6875 
z
" id="MicrosoftYaHei-6536"/>
     <path d="M 1.765625 -1.609375 
L 15.921875 -1.609375 
L 15.921875 31.203125 
L 84.46875 31.203125 
L 84.46875 -1.609375 
L 97.953125 -1.609375 
L 97.953125 -8.453125 
L 1.765625 -8.453125 
z
M 4.109375 64.3125 
L 57.375 64.3125 
Q 66.015625 72.65625 74.125 83.34375 
L 81.25 78.859375 
Q 74.609375 71.140625 67.671875 64.3125 
L 96.484375 64.3125 
L 96.484375 57.46875 
L 4.109375 57.46875 
z
M 77.4375 24.5625 
L 63.765625 24.5625 
L 63.765625 -1.609375 
L 77.4375 -1.609375 
z
M 22.953125 -1.609375 
L 36.53125 -1.609375 
L 36.53125 24.5625 
L 22.953125 24.5625 
z
M 43.359375 -1.609375 
L 56.9375 -1.609375 
L 56.9375 24.5625 
L 43.359375 24.5625 
z
M 36.53125 54.4375 
L 41.3125 48.09375 
Q 26.078125 38.8125 7.125 29.25 
Q 5.171875 33.0625 3.125 36.078125 
Q 21.390625 44.875 36.53125 54.4375 
z
M 59.28125 48.296875 
L 63.28125 54.25 
Q 82.8125 45.0625 97.078125 37.25 
L 92.78125 30.03125 
Q 73.53125 41.15625 59.28125 48.296875 
z
M 19.34375 78.375 
L 24.421875 83.453125 
Q 32.8125 77.390625 39.546875 71.625 
L 33.984375 65.765625 
Q 27.640625 71.828125 19.34375 78.375 
z
" id="MicrosoftYaHei-76ca"/>
     <path d="M 39.453125 31.390625 
Q 40.96875 31.5 61.375 32.515625 
Q 58.9375 35.9375 56.640625 38.921875 
L 61.921875 42.234375 
Q 68.953125 34.421875 74.90625 25.828125 
L 68.65625 21.921875 
Q 66.9375 24.515625 65.28125 26.953125 
Q 46.734375 25.921875 34.578125 24.953125 
Q 32.421875 24.75 29.390625 24.078125 
L 26.953125 30.71875 
Q 29.890625 31.6875 31.34375 32.5625 
Q 39.59375 38.140625 47.65625 45.515625 
Q 40.578125 45.21875 35.546875 44.78125 
Q 33.5 44.484375 31.0625 43.890625 
L 28.125 49.859375 
Q 30.5625 50.734375 32.625 52.59375 
Q 39.203125 58.15625 44.921875 66.0625 
L 3.609375 66.0625 
L 3.609375 72.90625 
L 47.359375 72.90625 
Q 44.96875 77.25 42.875 80.515625 
L 49.90625 83.9375 
Q 53.71875 78.125 56.5 72.90625 
L 96.484375 72.90625 
L 96.484375 66.0625 
L 47.703125 66.0625 
L 52.34375 63.625 
Q 44.4375 55.515625 38.96875 50.734375 
Q 44.53125 50.875 53.515625 51.078125 
Q 57.421875 54.984375 61.328125 59.328125 
L 68.0625 55.421875 
Q 52.546875 40.671875 39.453125 31.390625 
z
M 2.25 15.484375 
L 46.78125 15.484375 
L 46.78125 24.078125 
L 54.5 24.078125 
L 54.5 15.484375 
L 98.046875 15.484375 
L 98.046875 8.640625 
L 54.5 8.640625 
L 54.5 -13.328125 
L 46.78125 -13.328125 
L 46.78125 8.640625 
L 2.25 8.640625 
z
M 26.859375 41.75 
L 30.375 35.984375 
Q 18.75 29.15625 6.640625 22.015625 
L 2.546875 28.5625 
Q 12.703125 33.34375 26.859375 41.75 
z
M 75.875 41.84375 
Q 89.84375 33.9375 97.65625 28.375 
L 93.359375 22.015625 
Q 83.296875 29.828125 71.875 36.578125 
z
M 93.65625 56.109375 
Q 86.234375 49.65625 77.546875 43.890625 
L 72.5625 49.078125 
Q 81.9375 55.21875 88.09375 61.375 
z
M 5.671875 56.78125 
L 10.640625 61.578125 
Q 18.75 55.125 24.8125 49.359375 
L 19.34375 44 
Q 13.671875 49.953125 5.671875 56.78125 
z
" id="MicrosoftYaHei-7387"/>
     <path d="M 1.171875 11.578125 
Q 14.265625 25.828125 23.25 46.828125 
L 1.65625 46.828125 
L 1.65625 53.953125 
L 25.09375 53.953125 
L 25.09375 68.609375 
Q 15.046875 67.625 5.171875 66.75 
Q 4.5 70.359375 3.21875 74.171875 
Q 26.65625 76.03125 51.078125 79.15625 
L 53.03125 71.734375 
Q 42.671875 70.453125 32.515625 69.390625 
L 32.515625 53.953125 
L 54.6875 53.953125 
L 54.6875 46.828125 
L 32.515625 46.828125 
L 32.515625 33.734375 
L 36.8125 37.84375 
Q 46 30.03125 55.078125 21.046875 
L 49.125 14.984375 
Q 43.171875 21.921875 32.515625 32.078125 
L 32.515625 -12.9375 
L 25.09375 -12.9375 
L 25.09375 35.890625 
Q 16.703125 16.9375 5.078125 2.78125 
Q 2.4375 9.125 1.171875 11.578125 
z
M 85.0625 81.203125 
L 92.78125 81.203125 
L 92.78125 -0.140625 
Q 92.78125 -12.546875 80.28125 -12.453125 
Q 76.265625 -12.453125 67.28125 -12.359375 
Q 66.703125 -8.34375 65.828125 -3.5625 
Q 73.734375 -4.4375 77.828125 -4.4375 
Q 85.0625 -4.546875 85.0625 2.875 
z
M 61.921875 71.4375 
L 69.34375 71.4375 
L 69.34375 9.71875 
L 61.921875 9.71875 
z
" id="MicrosoftYaHei-5229"/>
     <path d="M 17.09375 -2.6875 
L 53.421875 -2.6875 
L 53.421875 13.921875 
L 28.328125 13.921875 
L 28.328125 17 
Q 18.75 6.15625 5.171875 -3.078125 
Q 3.21875 0.046875 0.484375 3.859375 
Q 18.953125 16.0625 29.046875 31 
L 3.125 31 
L 3.125 37.640625 
L 33.109375 37.640625 
Q 35.546875 42.09375 37.640625 47.3125 
L 9.96875 47.3125 
L 9.96875 53.859375 
L 40.140625 53.859375 
Q 41.65625 58.25 42.96875 63.140625 
L 7.625 63.140625 
L 7.625 69.78125 
L 32.421875 69.78125 
Q 28.328125 74.953125 23.640625 80.03125 
L 29.203125 84.328125 
Q 34.859375 78.859375 40.046875 73 
L 35.59375 69.78125 
L 65.921875 69.78125 
L 62.109375 73.1875 
Q 67.875 78.859375 72.359375 84.421875 
L 79 80.03125 
Q 74.03125 74.5625 68.953125 69.78125 
L 94.53125 69.78125 
L 94.53125 63.140625 
L 51.421875 63.140625 
Q 50.09375 58.296875 48.578125 53.859375 
L 90.828125 53.859375 
L 90.828125 47.3125 
L 46.296875 47.3125 
Q 44.34375 42.1875 42.140625 37.640625 
L 98.34375 37.640625 
L 98.34375 31 
L 38.578125 31 
Q 35.296875 25.53125 31.203125 20.453125 
L 87.703125 20.453125 
L 87.703125 13.921875 
L 61.328125 13.921875 
L 61.328125 -2.6875 
L 97.078125 -2.6875 
L 97.078125 -9.328125 
L 17.09375 -9.328125 
z
" id="MicrosoftYaHei-5dee"/>
    </defs>
    <g transform="translate(388.8 37.2)scale(0.12 -0.12)">
     <use xlink:href="#MicrosoftYaHei-4e2d"/>
     <use x="100" xlink:href="#MicrosoftYaHei-503a"/>
     <use x="200" xlink:href="#MicrosoftYaHei-56fd"/>
     <use x="300" xlink:href="#MicrosoftYaHei-503a"/>
     <use x="400" xlink:href="#MicrosoftYaHei-6536"/>
     <use x="500" xlink:href="#MicrosoftYaHei-76ca"/>
     <use x="600" xlink:href="#MicrosoftYaHei-7387"/>
     <use x="700" xlink:href="#MicrosoftYaHei-5229"/>
     <use x="800" xlink:href="#MicrosoftYaHei-5dee"/>
    </g>
   </g>
   <g id="legend_1">
    <g id="patch_7">
     <path d="M 690.7625 66.679688 
L 770.6 66.679688 
Q 772.6 66.679688 772.6 64.679688 
L 772.6 50.2 
Q 772.6 48.2 770.6 48.2 
L 690.7625 48.2 
Q 688.7625 48.2 688.7625 50.2 
L 688.7625 64.679688 
Q 688.7625 66.679688 690.7625 66.679688 
z
" style="fill:#ffffff;opacity:0.8;stroke:#cccccc;stroke-linejoin:miter;"/>
    </g>
    <g id="line2d_34">
     <path d="M 692.7625 56.69375 
L 712.7625 56.69375 
" style="fill:none;stroke:#1f77b4;stroke-linecap:square;stroke-width:1.5;"/>
    </g>
    <g id="line2d_35"/>
    <g id="text_19">
     <!-- 10年 - 3月 -->
     <defs>
      <path d="M 1.859375 19.96875 
L 17.578125 19.96875 
L 17.578125 47.90625 
L 52.15625 47.90625 
L 52.15625 65.28125 
L 23.4375 65.28125 
Q 16.84375 53.421875 8.6875 43.40625 
Q 6.15625 46.140625 2.640625 48.875 
Q 16.5 64.5 23.4375 83.9375 
L 31.453125 81.6875 
Q 29.390625 76.859375 27.15625 72.3125 
L 94.34375 72.3125 
L 94.34375 65.28125 
L 60.0625 65.28125 
L 60.0625 47.90625 
L 92.671875 47.90625 
L 92.671875 41.0625 
L 60.0625 41.0625 
L 60.0625 19.96875 
L 98.734375 19.96875 
L 98.734375 12.9375 
L 60.0625 12.9375 
L 60.0625 -13.421875 
L 52.15625 -13.421875 
L 52.15625 12.9375 
L 1.859375 12.9375 
z
M 25.296875 19.96875 
L 52.15625 19.96875 
L 52.15625 41.0625 
L 25.296875 41.0625 
z
" id="MicrosoftYaHei-5e74"/>
      <path id="MicrosoftYaHei-20"/>
      <path d="M 25.046875 20.0625 
Q 22.859375 1.21875 10.359375 -14.015625 
Q 7.234375 -10.984375 3.609375 -8.15625 
Q 13.09375 2.09375 16.3125 16.265625 
Q 18.5625 26.703125 18.5625 45.171875 
L 18.5625 78.953125 
L 83.796875 78.953125 
L 83.796875 2.78125 
Q 83.796875 -11.671875 70.015625 -11.671875 
Q 64.265625 -11.671875 55.171875 -11.46875 
Q 54.6875 -7.953125 53.71875 -3.265625 
Q 62.703125 -3.859375 67.875 -3.859375 
Q 75.78125 -3.859375 75.78125 3.859375 
L 75.78125 20.0625 
z
M 25.828125 27.203125 
L 75.78125 27.203125 
L 75.78125 45.953125 
L 26.5625 45.953125 
Q 26.5625 36.1875 25.828125 27.203125 
z
M 26.5625 71.625 
L 26.5625 53.078125 
L 75.78125 53.078125 
L 75.78125 71.625 
z
" id="MicrosoftYaHei-6708"/>
     </defs>
     <g transform="translate(720.7625 60.19375)scale(0.1 -0.1)">
      <use xlink:href="#MicrosoftYaHei-31"/>
      <use x="58.642578" xlink:href="#MicrosoftYaHei-30"/>
      <use x="117.285156" xlink:href="#MicrosoftYaHei-5e74"/>
      <use x="217.285156" xlink:href="#MicrosoftYaHei-20"/>
      <use x="246.875" xlink:href="#MicrosoftYaHei-2d"/>
      <use x="290.136719" xlink:href="#MicrosoftYaHei-20"/>
      <use x="319.726562" xlink:href="#MicrosoftYaHei-33"/>
      <use x="378.369141" xlink:href="#MicrosoftYaHei-6708"/>
     </g>
    </g>
   </g>
  </g>
 </g>
 <defs>
  <clipPath id="p8ce9e57a37">
   <rect height="277.2" width="669.6" x="108" y="43.2"/>
  </clipPath>
 </defs>
</svg>
