<?xml version="1.0" encoding="utf-8" standalone="no"?>
<!DOCTYPE svg PUBLIC "-//W3C//DTD SVG 1.1//EN"
  "http://www.w3.org/Graphics/SVG/1.1/DTD/svg11.dtd">
<!-- Created with matplotlib (http://matplotlib.org/) -->
<svg height="432pt" version="1.1" viewBox="0 0 864 432" width="864pt" xmlns="http://www.w3.org/2000/svg" xmlns:xlink="http://www.w3.org/1999/xlink">
 <defs>
  <style type="text/css">
*{stroke-linecap:butt;stroke-linejoin:round;}
  </style>
 </defs>
 <g id="figure_1">
  <g id="patch_1">
   <path d="M 0 432 
L 864 432 
L 864 0 
L 0 0 
z
" style="fill:#ffffff;"/>
  </g>
  <g id="axes_1">
   <g id="patch_2">
    <path d="M 108 384.48 
L 777.6 384.48 
L 777.6 51.84 
L 108 51.84 
z
" style="fill:#ffffff;"/>
   </g>
   <g id="matplotlib.axis_1">
    <g id="xtick_1">
     <g id="line2d_1">
      <defs>
       <path d="M 0 0 
L 0 3.5 
" id="mef394469dc" style="stroke:#000000;stroke-width:0.8;"/>
      </defs>
      <g>
       <use style="stroke:#000000;stroke-width:0.8;" x="108" xlink:href="#mef394469dc" y="384.48"/>
      </g>
     </g>
     <g id="text_1">
      <!-- 2018-09-05 -->
      <defs>
       <path d="M 51.171875 0 
L 5.171875 0 
L 5.171875 8.296875 
L 27.15625 30.21875 
Q 36.234375 39.3125 39.3125 44.609375 
Q 42.390625 49.90625 42.390625 55.5625 
Q 42.390625 62.015625 38.765625 65.453125 
Q 35.15625 68.890625 28.328125 68.890625 
Q 18.21875 68.890625 9.03125 60.296875 
L 9.03125 70.015625 
Q 17.96875 76.90625 29.828125 76.90625 
Q 40.046875 76.90625 45.953125 71.390625 
Q 51.859375 65.875 51.859375 56.546875 
Q 51.859375 49.515625 48.0625 42.75 
Q 44.28125 35.984375 33.734375 25.53125 
L 16.5 8.6875 
L 16.5 8.5 
L 51.171875 8.5 
z
" id="MicrosoftYaHei-32"/>
       <path d="M 4.4375 36.328125 
Q 4.4375 56.34375 11.078125 66.625 
Q 17.71875 76.90625 30.328125 76.90625 
Q 54.34375 76.90625 54.34375 38.140625 
Q 54.34375 19 47.578125 8.859375 
Q 40.828125 -1.265625 28.609375 -1.265625 
Q 17.09375 -1.265625 10.765625 8.34375 
Q 4.4375 17.96875 4.4375 36.328125 
z
M 14.203125 36.765625 
Q 14.203125 6.640625 29.5 6.640625 
Q 44.53125 6.640625 44.53125 37.25 
Q 44.53125 68.953125 29.78125 68.953125 
Q 14.203125 68.953125 14.203125 36.765625 
z
" id="MicrosoftYaHei-30"/>
       <path d="M 52.59375 0 
L 9.234375 0 
L 9.234375 8.25 
L 26.171875 8.25 
L 26.171875 65.671875 
L 8.796875 60.640625 
L 8.796875 69.4375 
L 35.6875 77.25 
L 35.6875 8.25 
L 52.59375 8.25 
z
" id="MicrosoftYaHei-31"/>
       <path d="M 21.390625 39.796875 
Q 7.859375 46.09375 7.859375 58.0625 
Q 7.859375 66.40625 14.203125 71.65625 
Q 20.5625 76.90625 30.421875 76.90625 
Q 39.453125 76.90625 45.3125 71.96875 
Q 51.171875 67.046875 51.171875 59.234375 
Q 51.171875 46.625 37.0625 39.84375 
L 37.0625 39.65625 
Q 53.609375 33.6875 53.609375 19.34375 
Q 53.609375 9.90625 46.796875 4.3125 
Q 39.984375 -1.265625 27.78125 -1.265625 
Q 17.78125 -1.265625 11.46875 4.25 
Q 5.171875 9.765625 5.171875 18.5625 
Q 5.171875 33.015625 21.390625 39.59375 
z
M 41.5 58.109375 
Q 41.5 63.1875 38.328125 66.109375 
Q 35.15625 69.046875 29.734375 69.046875 
Q 24.65625 69.046875 21.09375 65.984375 
Q 17.53125 62.9375 17.53125 58.203125 
Q 17.53125 48.734375 29.390625 43.796875 
Q 41.5 48.828125 41.5 58.109375 
z
M 28.8125 35.25 
Q 14.796875 29.59375 14.796875 19.046875 
Q 14.796875 13.578125 18.890625 10.0625 
Q 23 6.546875 29.59375 6.546875 
Q 35.984375 6.546875 39.984375 10.03125 
Q 44 13.53125 44 18.75 
Q 44 29.734375 28.8125 35.25 
z
" id="MicrosoftYaHei-38"/>
       <path d="M 36.375 26.265625 
L 7.625 26.265625 
L 7.625 33.640625 
L 36.375 33.640625 
z
" id="MicrosoftYaHei-2d"/>
       <path d="M 9.03125 10.25 
Q 15.28125 6.640625 22.515625 6.640625 
Q 32.671875 6.640625 38.25 14.640625 
Q 43.84375 22.65625 43.84375 37.40625 
Q 43.75 37.3125 43.65625 37.40625 
Q 38.671875 27.9375 26.90625 27.9375 
Q 17.390625 27.9375 11.140625 34.46875 
Q 4.890625 41.015625 4.890625 51.46875 
Q 4.890625 62.59375 11.71875 69.75 
Q 18.5625 76.90625 29.4375 76.90625 
Q 40.71875 76.90625 47.0625 68.046875 
Q 53.421875 59.1875 53.421875 42.234375 
Q 53.421875 21.296875 45.21875 10.015625 
Q 37.015625 -1.265625 22.515625 -1.265625 
Q 14.546875 -1.265625 9.03125 1.3125 
z
M 14.546875 52.6875 
Q 14.546875 45.0625 18.453125 40.59375 
Q 22.359375 36.140625 29.25 36.140625 
Q 35.203125 36.140625 39.25 40.203125 
Q 43.3125 44.28125 43.3125 50.09375 
Q 43.3125 58.25 39.28125 63.59375 
Q 35.25 68.953125 28.65625 68.953125 
Q 22.5625 68.953125 18.546875 64.3125 
Q 14.546875 59.671875 14.546875 52.6875 
z
" id="MicrosoftYaHei-39"/>
       <path d="M 8.640625 11.625 
Q 16.265625 6.640625 24.515625 6.640625 
Q 32.328125 6.640625 37.109375 11 
Q 41.890625 15.375 41.890625 22.609375 
Q 41.890625 29.890625 37.03125 33.890625 
Q 32.171875 37.890625 22.953125 37.890625 
Q 18.5 37.890625 10.984375 37.203125 
L 10.984375 75.640625 
L 48.1875 75.640625 
L 48.1875 67.1875 
L 19.875 67.1875 
L 19.875 45.796875 
Q 24.125 46.046875 26.265625 46.046875 
Q 38.234375 46.046875 44.921875 39.984375 
Q 51.609375 33.9375 51.609375 23.296875 
Q 51.609375 12.3125 44.421875 5.515625 
Q 37.25 -1.265625 24.609375 -1.265625 
Q 14.015625 -1.265625 8.640625 1.859375 
z
" id="MicrosoftYaHei-35"/>
      </defs>
      <g transform="translate(80.217187 399.47375)scale(0.1 -0.1)">
       <use xlink:href="#MicrosoftYaHei-32"/>
       <use x="58.642578" xlink:href="#MicrosoftYaHei-30"/>
       <use x="117.285156" xlink:href="#MicrosoftYaHei-31"/>
       <use x="175.927734" xlink:href="#MicrosoftYaHei-38"/>
       <use x="234.570312" xlink:href="#MicrosoftYaHei-2d"/>
       <use x="277.832031" xlink:href="#MicrosoftYaHei-30"/>
       <use x="336.474609" xlink:href="#MicrosoftYaHei-39"/>
       <use x="395.117188" xlink:href="#MicrosoftYaHei-2d"/>
       <use x="438.378906" xlink:href="#MicrosoftYaHei-30"/>
       <use x="497.021484" xlink:href="#MicrosoftYaHei-35"/>
      </g>
     </g>
    </g>
    <g id="xtick_2">
     <g id="line2d_2">
      <g>
       <use style="stroke:#000000;stroke-width:0.8;" x="219.786311" xlink:href="#mef394469dc" y="384.48"/>
      </g>
     </g>
     <g id="text_2">
      <!-- 2019-03-08 -->
      <defs>
       <path d="M 6.984375 12.640625 
Q 14.75 6.640625 24.515625 6.640625 
Q 32.328125 6.640625 36.890625 10.46875 
Q 41.453125 14.3125 41.453125 20.75 
Q 41.453125 35.109375 20.90625 35.109375 
L 14.59375 35.109375 
L 14.59375 43.015625 
L 20.609375 43.015625 
Q 38.8125 43.015625 38.8125 56.5 
Q 38.8125 68.953125 24.90625 68.953125 
Q 16.9375 68.953125 9.90625 63.578125 
L 9.90625 72.609375 
Q 17.328125 76.90625 27.25 76.90625 
Q 36.921875 76.90625 42.78125 71.84375 
Q 48.640625 66.796875 48.640625 58.734375 
Q 48.640625 43.890625 33.5 39.65625 
L 33.5 39.453125 
Q 41.703125 38.578125 46.453125 33.671875 
Q 51.21875 28.765625 51.21875 21.4375 
Q 51.21875 11.234375 43.875 4.984375 
Q 36.53125 -1.265625 24.3125 -1.265625 
Q 13.578125 -1.265625 6.984375 2.734375 
z
" id="MicrosoftYaHei-33"/>
      </defs>
      <g transform="translate(192.003498 399.47375)scale(0.1 -0.1)">
       <use xlink:href="#MicrosoftYaHei-32"/>
       <use x="58.642578" xlink:href="#MicrosoftYaHei-30"/>
       <use x="117.285156" xlink:href="#MicrosoftYaHei-31"/>
       <use x="175.927734" xlink:href="#MicrosoftYaHei-39"/>
       <use x="234.570312" xlink:href="#MicrosoftYaHei-2d"/>
       <use x="277.832031" xlink:href="#MicrosoftYaHei-30"/>
       <use x="336.474609" xlink:href="#MicrosoftYaHei-33"/>
       <use x="395.117188" xlink:href="#MicrosoftYaHei-2d"/>
       <use x="438.378906" xlink:href="#MicrosoftYaHei-30"/>
       <use x="497.021484" xlink:href="#MicrosoftYaHei-38"/>
      </g>
     </g>
    </g>
    <g id="xtick_3">
     <g id="line2d_3">
      <g>
       <use style="stroke:#000000;stroke-width:0.8;" x="331.572621" xlink:href="#mef394469dc" y="384.48"/>
      </g>
     </g>
     <g id="text_3">
      <!-- 2019-08-09 -->
      <g transform="translate(303.789809 399.47375)scale(0.1 -0.1)">
       <use xlink:href="#MicrosoftYaHei-32"/>
       <use x="58.642578" xlink:href="#MicrosoftYaHei-30"/>
       <use x="117.285156" xlink:href="#MicrosoftYaHei-31"/>
       <use x="175.927734" xlink:href="#MicrosoftYaHei-39"/>
       <use x="234.570312" xlink:href="#MicrosoftYaHei-2d"/>
       <use x="277.832031" xlink:href="#MicrosoftYaHei-30"/>
       <use x="336.474609" xlink:href="#MicrosoftYaHei-38"/>
       <use x="395.117188" xlink:href="#MicrosoftYaHei-2d"/>
       <use x="438.378906" xlink:href="#MicrosoftYaHei-30"/>
       <use x="497.021484" xlink:href="#MicrosoftYaHei-39"/>
      </g>
     </g>
    </g>
    <g id="xtick_4">
     <g id="line2d_4">
      <g>
       <use style="stroke:#000000;stroke-width:0.8;" x="443.358932" xlink:href="#mef394469dc" y="384.48"/>
      </g>
     </g>
     <g id="text_4">
      <!-- 2020-01-07 -->
      <defs>
       <path d="M 53.765625 72.3125 
L 24.171875 0 
L 14.265625 0 
L 42.390625 67.1875 
L 4.59375 67.1875 
L 4.59375 75.640625 
L 53.765625 75.640625 
z
" id="MicrosoftYaHei-37"/>
      </defs>
      <g transform="translate(415.576119 399.47375)scale(0.1 -0.1)">
       <use xlink:href="#MicrosoftYaHei-32"/>
       <use x="58.642578" xlink:href="#MicrosoftYaHei-30"/>
       <use x="117.285156" xlink:href="#MicrosoftYaHei-32"/>
       <use x="175.927734" xlink:href="#MicrosoftYaHei-30"/>
       <use x="234.570312" xlink:href="#MicrosoftYaHei-2d"/>
       <use x="277.832031" xlink:href="#MicrosoftYaHei-30"/>
       <use x="336.474609" xlink:href="#MicrosoftYaHei-31"/>
       <use x="395.117188" xlink:href="#MicrosoftYaHei-2d"/>
       <use x="438.378906" xlink:href="#MicrosoftYaHei-30"/>
       <use x="497.021484" xlink:href="#MicrosoftYaHei-37"/>
      </g>
     </g>
    </g>
    <g id="xtick_5">
     <g id="line2d_5">
      <g>
       <use style="stroke:#000000;stroke-width:0.8;" x="555.145242" xlink:href="#mef394469dc" y="384.48"/>
      </g>
     </g>
     <g id="text_5">
      <!-- 2020-06-09 -->
      <defs>
       <path d="M 49.703125 65.921875 
Q 43.796875 68.953125 37.359375 68.953125 
Q 27.546875 68.953125 21.578125 60.40625 
Q 15.625 51.859375 15.53125 37.0625 
L 15.765625 37.0625 
Q 21.140625 47.46875 32.90625 47.46875 
Q 42.71875 47.46875 48.578125 41.0625 
Q 54.4375 34.671875 54.4375 24.078125 
Q 54.4375 12.984375 47.671875 5.859375 
Q 40.921875 -1.265625 30.421875 -1.265625 
Q 18.890625 -1.265625 12.328125 7.734375 
Q 5.765625 16.75 5.765625 33.296875 
Q 5.765625 53.328125 14.375 65.109375 
Q 23 76.90625 37.0625 76.90625 
Q 45.125 76.90625 49.703125 74.703125 
z
M 16.109375 24.75 
Q 16.109375 17.28125 20.09375 11.953125 
Q 24.078125 6.640625 30.671875 6.640625 
Q 36.921875 6.640625 40.828125 11.234375 
Q 44.734375 15.828125 44.734375 23.046875 
Q 44.734375 30.859375 41.046875 35.203125 
Q 37.359375 39.546875 30.5625 39.546875 
Q 24.125 39.546875 20.109375 35.15625 
Q 16.109375 30.765625 16.109375 24.75 
z
" id="MicrosoftYaHei-36"/>
      </defs>
      <g transform="translate(527.36243 399.47375)scale(0.1 -0.1)">
       <use xlink:href="#MicrosoftYaHei-32"/>
       <use x="58.642578" xlink:href="#MicrosoftYaHei-30"/>
       <use x="117.285156" xlink:href="#MicrosoftYaHei-32"/>
       <use x="175.927734" xlink:href="#MicrosoftYaHei-30"/>
       <use x="234.570312" xlink:href="#MicrosoftYaHei-2d"/>
       <use x="277.832031" xlink:href="#MicrosoftYaHei-30"/>
       <use x="336.474609" xlink:href="#MicrosoftYaHei-36"/>
       <use x="395.117188" xlink:href="#MicrosoftYaHei-2d"/>
       <use x="438.378906" xlink:href="#MicrosoftYaHei-30"/>
       <use x="497.021484" xlink:href="#MicrosoftYaHei-39"/>
      </g>
     </g>
    </g>
    <g id="xtick_6">
     <g id="line2d_6">
      <g>
       <use style="stroke:#000000;stroke-width:0.8;" x="666.931553" xlink:href="#mef394469dc" y="384.48"/>
      </g>
     </g>
     <g id="text_6">
      <!-- 2020-11-06 -->
      <g transform="translate(639.14874 399.47375)scale(0.1 -0.1)">
       <use xlink:href="#MicrosoftYaHei-32"/>
       <use x="58.642578" xlink:href="#MicrosoftYaHei-30"/>
       <use x="117.285156" xlink:href="#MicrosoftYaHei-32"/>
       <use x="175.927734" xlink:href="#MicrosoftYaHei-30"/>
       <use x="234.570312" xlink:href="#MicrosoftYaHei-2d"/>
       <use x="277.832031" xlink:href="#MicrosoftYaHei-31"/>
       <use x="336.474609" xlink:href="#MicrosoftYaHei-31"/>
       <use x="395.117188" xlink:href="#MicrosoftYaHei-2d"/>
       <use x="438.378906" xlink:href="#MicrosoftYaHei-30"/>
       <use x="497.021484" xlink:href="#MicrosoftYaHei-36"/>
      </g>
     </g>
    </g>
    <g id="text_7">
     <!-- date -->
     <defs>
      <path d="M 55.421875 0 
L 45.84375 0 
L 45.84375 8.984375 
L 45.65625 8.984375 
Q 39.75 -1.265625 27.296875 -1.265625 
Q 17.046875 -1.265625 10.984375 6.03125 
Q 4.9375 13.328125 4.9375 25.734375 
Q 4.9375 39.109375 11.765625 47.1875 
Q 18.609375 55.28125 29.640625 55.28125 
Q 40.671875 55.28125 45.65625 46.6875 
L 45.84375 46.6875 
L 45.84375 79.9375 
L 55.421875 79.9375 
z
M 45.90625 32.125 
Q 45.90625 38.625 41.625 42.984375 
Q 37.359375 47.359375 31.109375 47.359375 
Q 23.484375 47.359375 19.09375 41.671875 
Q 14.703125 35.984375 14.703125 26.171875 
Q 14.703125 17.140625 18.921875 11.890625 
Q 23.140625 6.640625 30.171875 6.640625 
Q 37.109375 6.640625 41.5 11.78125 
Q 45.90625 16.9375 45.90625 24.609375 
z
" id="MicrosoftYaHei-64"/>
      <path d="M 9.8125 50.25 
Q 17.875 55.28125 28.421875 55.28125 
Q 47.953125 55.28125 47.953125 34.765625 
L 47.953125 0 
L 38.484375 0 
L 38.484375 8.34375 
L 38.234375 8.34375 
Q 32.625 -1.265625 21.6875 -1.265625 
Q 13.8125 -1.265625 9.171875 2.984375 
Q 4.546875 7.234375 4.546875 14.453125 
Q 4.546875 29.59375 22.46875 32.078125 
L 38.484375 34.328125 
Q 38.484375 47.5625 27.546875 47.5625 
Q 17.828125 47.5625 9.8125 41.015625 
z
M 25.828125 25.390625 
Q 19.1875 24.515625 16.671875 22.0625 
Q 14.15625 19.625 14.15625 15.234375 
Q 14.15625 11.375 16.890625 8.9375 
Q 19.625 6.5 24.125 6.5 
Q 30.375 6.5 34.421875 10.890625 
Q 38.484375 15.28125 38.484375 21.921875 
L 38.484375 27.09375 
z
" id="MicrosoftYaHei-61"/>
      <path d="M 34.46875 0.53125 
Q 31.34375 -1.171875 26.03125 -1.171875 
Q 11.53125 -1.171875 11.53125 14.890625 
L 11.53125 46.09375 
L 2.25 46.09375 
L 2.25 54 
L 11.53125 54 
L 11.53125 67 
L 21.046875 70.015625 
L 21.046875 54 
L 34.46875 54 
L 34.46875 46.09375 
L 21.046875 46.09375 
L 21.046875 16.609375 
Q 21.046875 11.28125 22.84375 8.984375 
Q 24.65625 6.6875 28.859375 6.6875 
Q 32.078125 6.6875 34.46875 8.5 
z
" id="MicrosoftYaHei-74"/>
      <path d="M 52.546875 24.5625 
L 14.75 24.5625 
Q 14.984375 15.921875 19.46875 11.203125 
Q 23.96875 6.5 32.03125 6.5 
Q 41.109375 6.5 48.6875 12.3125 
L 48.6875 3.765625 
Q 41.546875 -1.265625 29.78125 -1.265625 
Q 18.0625 -1.265625 11.5 6.15625 
Q 4.9375 13.578125 4.9375 26.765625 
Q 4.9375 39.15625 12.140625 47.21875 
Q 19.34375 55.28125 30.03125 55.28125 
Q 40.625 55.28125 46.578125 48.46875 
Q 52.546875 41.65625 52.546875 29.390625 
z
M 42.96875 32.234375 
Q 42.921875 39.546875 39.5 43.546875 
Q 36.078125 47.5625 29.890625 47.5625 
Q 24.171875 47.5625 20 43.3125 
Q 15.828125 39.0625 14.75 32.234375 
z
" id="MicrosoftYaHei-65"/>
     </defs>
     <g transform="translate(432.138281 413.953438)scale(0.1 -0.1)">
      <use xlink:href="#MicrosoftYaHei-64"/>
      <use x="63.964844" xlink:href="#MicrosoftYaHei-61"/>
      <use x="119.238281" xlink:href="#MicrosoftYaHei-74"/>
      <use x="156.494141" xlink:href="#MicrosoftYaHei-65"/>
     </g>
    </g>
   </g>
   <g id="matplotlib.axis_2">
    <g id="ytick_1">
     <g id="line2d_7">
      <defs>
       <path d="M 0 0 
L -3.5 0 
" id="meef279c770" style="stroke:#000000;stroke-width:0.8;"/>
      </defs>
      <g>
       <use style="stroke:#000000;stroke-width:0.8;" x="108" xlink:href="#meef279c770" y="360.075179"/>
      </g>
     </g>
     <g id="text_8">
      <!-- 1.0 -->
      <defs>
       <path d="M 5.8125 5.03125 
Q 5.8125 7.671875 7.609375 9.46875 
Q 9.421875 11.28125 12.109375 11.28125 
Q 14.84375 11.28125 16.640625 9.453125 
Q 18.453125 7.625 18.453125 5.03125 
Q 18.453125 2.484375 16.640625 0.65625 
Q 14.84375 -1.171875 12.0625 -1.171875 
Q 9.375 -1.171875 7.59375 0.65625 
Q 5.8125 2.484375 5.8125 5.03125 
z
" id="MicrosoftYaHei-2e"/>
      </defs>
      <g transform="translate(86.864063 364.072054)scale(0.1 -0.1)">
       <use xlink:href="#MicrosoftYaHei-31"/>
       <use x="58.642578" xlink:href="#MicrosoftYaHei-2e"/>
       <use x="82.714844" xlink:href="#MicrosoftYaHei-30"/>
      </g>
     </g>
    </g>
    <g id="ytick_2">
     <g id="line2d_8">
      <g>
       <use style="stroke:#000000;stroke-width:0.8;" x="108" xlink:href="#meef279c770" y="302.117498"/>
      </g>
     </g>
     <g id="text_9">
      <!-- 1.5 -->
      <g transform="translate(86.864063 306.114373)scale(0.1 -0.1)">
       <use xlink:href="#MicrosoftYaHei-31"/>
       <use x="58.642578" xlink:href="#MicrosoftYaHei-2e"/>
       <use x="82.714844" xlink:href="#MicrosoftYaHei-35"/>
      </g>
     </g>
    </g>
    <g id="ytick_3">
     <g id="line2d_9">
      <g>
       <use style="stroke:#000000;stroke-width:0.8;" x="108" xlink:href="#meef279c770" y="244.159816"/>
      </g>
     </g>
     <g id="text_10">
      <!-- 2.0 -->
      <g transform="translate(86.864063 248.156691)scale(0.1 -0.1)">
       <use xlink:href="#MicrosoftYaHei-32"/>
       <use x="58.642578" xlink:href="#MicrosoftYaHei-2e"/>
       <use x="82.714844" xlink:href="#MicrosoftYaHei-30"/>
      </g>
     </g>
    </g>
    <g id="ytick_4">
     <g id="line2d_10">
      <g>
       <use style="stroke:#000000;stroke-width:0.8;" x="108" xlink:href="#meef279c770" y="186.202134"/>
      </g>
     </g>
     <g id="text_11">
      <!-- 2.5 -->
      <g transform="translate(86.864063 190.199009)scale(0.1 -0.1)">
       <use xlink:href="#MicrosoftYaHei-32"/>
       <use x="58.642578" xlink:href="#MicrosoftYaHei-2e"/>
       <use x="82.714844" xlink:href="#MicrosoftYaHei-35"/>
      </g>
     </g>
    </g>
    <g id="ytick_5">
     <g id="line2d_11">
      <g>
       <use style="stroke:#000000;stroke-width:0.8;" x="108" xlink:href="#meef279c770" y="128.244453"/>
      </g>
     </g>
     <g id="text_12">
      <!-- 3.0 -->
      <g transform="translate(86.864063 132.241328)scale(0.1 -0.1)">
       <use xlink:href="#MicrosoftYaHei-33"/>
       <use x="58.642578" xlink:href="#MicrosoftYaHei-2e"/>
       <use x="82.714844" xlink:href="#MicrosoftYaHei-30"/>
      </g>
     </g>
    </g>
    <g id="ytick_6">
     <g id="line2d_12">
      <g>
       <use style="stroke:#000000;stroke-width:0.8;" x="108" xlink:href="#meef279c770" y="70.286771"/>
      </g>
     </g>
     <g id="text_13">
      <!-- 3.5 -->
      <g transform="translate(86.864063 74.283646)scale(0.1 -0.1)">
       <use xlink:href="#MicrosoftYaHei-33"/>
       <use x="58.642578" xlink:href="#MicrosoftYaHei-2e"/>
       <use x="82.714844" xlink:href="#MicrosoftYaHei-35"/>
      </g>
     </g>
    </g>
   </g>
   <g id="line2d_13">
    <path clip-path="url(#p9a0b3e43b2)" d="M 108 360.075179 
L 109.117863 360.237461 
L 110.235726 360.249052 
L 111.353589 358.41759 
L 112.471452 357.849604 
L 113.589316 360.399742 
L 114.707179 360.422925 
L 115.825042 361.408206 
L 116.942905 363.193303 
L 118.060768 361.558896 
L 119.178631 362.161656 
L 120.296494 362.474627 
L 121.414357 363.483091 
L 122.53222 361.755952 
L 123.650083 359.10149 
L 124.767947 362.045741 
L 125.88581 362.996247 
L 127.003673 364.445189 
L 128.121536 365.534793 
L 129.239399 368.815198 
L 130.357262 369.336817 
L 131.475125 367.331481 
L 132.592988 365.836173 
L 133.710851 361.315474 
L 134.828715 363.239669 
L 135.946578 363.714922 
L 137.064441 363.935161 
L 138.182304 363.691739 
L 139.300167 364.688611 
L 140.41803 364.792935 
L 141.535893 363.70333 
L 142.653756 364.60747 
L 143.771619 364.039485 
L 144.889482 363.900386 
L 146.007346 362.996247 
L 147.125209 364.723385 
L 148.243072 363.784471 
L 149.360935 363.633781 
L 150.478798 364.642245 
L 151.596661 364.514738 
L 152.714524 364.653836 
L 153.832387 363.749696 
L 154.95025 364.236541 
L 156.068114 363.4715 
L 157.185977 360.967728 
L 158.30384 360.782263 
L 159.421703 361.187967 
L 160.539566 364.120626 
L 161.657429 364.317682 
L 162.775292 365.071132 
L 163.893155 364.364048 
L 165.011018 363.807654 
L 166.128881 362.532585 
L 167.246745 363.691739 
L 169.482471 364.816118 
L 170.600334 365.708666 
L 171.718197 366.11437 
L 172.83606 366.983735 
L 173.953923 366.207102 
L 175.071786 368.119706 
L 176.189649 369.36 
L 177.307513 368.560184 
L 178.425376 368.015382 
L 179.543239 367.818326 
L 180.661102 366.183919 
L 181.778965 365.870948 
L 182.896828 365.21023 
L 184.014691 366.879411 
L 185.132554 363.691739 
L 186.250417 363.343993 
L 187.36828 363.494683 
L 188.486144 360.863404 
L 189.604007 360.225869 
L 190.72187 361.837093 
L 191.839733 362.196431 
L 192.957596 361.825501 
L 194.075459 360.364968 
L 195.193322 360.283827 
L 196.311185 359.785391 
L 197.429048 360.60839 
L 198.546912 354.5692 
L 199.664775 353.479595 
L 200.782638 351.914738 
L 201.900501 351.509034 
L 203.018364 354.175087 
L 204.136227 351.114922 
L 205.25409 352.042245 
L 206.371953 351.764048 
L 207.489816 351.729273 
L 208.607679 350.57012 
L 209.725543 347.973615 
L 210.843406 349.677571 
L 211.961269 350.465796 
L 213.079132 349.434149 
L 214.196995 345.887139 
L 215.314858 344.194775 
L 216.432721 343.928169 
L 217.550584 344.426605 
L 218.668447 347.776559 
L 219.786311 350.465796 
L 220.904174 346.408758 
L 222.022037 345.51621 
L 223.1399 345.690083 
L 224.257763 345.261196 
L 225.375626 343.093579 
L 226.493489 337.726697 
L 227.611352 338.630837 
L 228.729215 339.361104 
L 229.847078 340.276835 
L 230.964942 339.25678 
L 232.082805 342.711058 
L 233.200668 342.316946 
L 234.318531 340.4623 
L 235.436394 339.766808 
L 236.554257 336.358896 
L 237.67212 334.95632 
L 238.789983 335.883643 
L 239.907846 334.539025 
L 241.02571 333.495787 
L 243.261436 329.508298 
L 244.379299 328.488243 
L 245.497162 332.197534 
L 246.615025 332.394591 
L 247.732888 333.855124 
L 248.850751 331.536817 
L 249.968614 331.096339 
L 251.086477 331.745465 
L 252.204341 330.308114 
L 253.322204 330.80655 
L 254.440067 333.240773 
L 255.55793 332.707562 
L 256.675793 330.006734 
L 257.793656 337.21667 
L 258.911519 334.921546 
L 260.029382 336.01115 
L 261.147245 340.578215 
L 262.265109 334.782447 
L 263.382972 336.741417 
L 264.500835 331.177479 
L 265.618698 329.705354 
L 267.854424 335.976375 
L 268.972287 335.280883 
L 270.09015 335.593855 
L 271.208013 339.477019 
L 272.325876 338.619246 
L 273.44374 337.436909 
L 274.561603 335.211334 
L 275.679466 335.617038 
L 277.915192 337.274627 
L 279.033055 337.042797 
L 280.150918 339.349512 
L 281.268781 340.61299 
L 282.386644 341.470764 
L 283.504508 337.784655 
L 284.622371 333.484195 
L 285.740234 335.396799 
L 286.858097 335.872052 
L 287.97596 336.579135 
L 289.093823 336.497994 
L 290.211686 334.80563 
L 291.329549 331.71069 
L 292.447412 327.723201 
L 293.565275 327.584103 
L 294.683139 326.030837 
L 295.801002 326.65678 
L 296.918865 326.65678 
L 298.036728 323.573431 
L 299.154591 323.167728 
L 300.272454 323.179319 
L 301.390317 318.05586 
L 302.50818 320.038013 
L 303.626043 321.22035 
L 304.743907 318.113818 
L 305.86177 320.640773 
L 306.979633 321.197167 
L 308.097496 319.840957 
L 309.215359 320.605998 
L 310.333222 319.86414 
L 311.451085 319.782999 
L 312.568948 321.034885 
L 313.686811 320.942153 
L 314.804674 322.472236 
L 315.922538 321.289899 
L 318.158264 322.50701 
L 319.276127 322.414278 
L 320.39399 320.745097 
L 321.511853 320.826237 
L 322.629716 319.933689 
L 323.747579 320.293027 
L 324.865442 322.611334 
L 325.983306 325.265796 
L 327.101169 328.244821 
L 328.219032 327.329089 
L 329.336895 327.224765 
L 330.454758 325.138289 
L 331.572621 326.691555 
L 332.690484 323.364784 
L 333.808347 324.581895 
L 334.92621 322.622925 
L 336.044073 322.877939 
L 337.161937 320.942153 
L 338.2798 318.252916 
L 339.397663 317.893579 
L 340.515526 317.90517 
L 342.751252 313.697443 
L 343.869115 316.444637 
L 344.986978 314.126329 
L 346.104841 315.470948 
L 348.340568 309.443349 
L 349.458431 307.797351 
L 350.576294 308.956504 
L 351.694157 308.631941 
L 352.81202 307.600294 
L 353.929883 307.125041 
L 356.165609 310.231573 
L 357.283472 313.709034 
L 358.401336 312.306458 
L 359.519199 313.30333 
L 360.637062 313.616302 
L 361.754925 311.448684 
L 362.872788 312.46874 
L 363.990651 312.120994 
L 365.108514 313.894499 
L 366.226377 311.854388 
L 367.34424 313.709034 
L 368.462104 313.732217 
L 369.579967 313.882907 
L 370.69783 314.369752 
L 371.815693 312.607838 
L 372.933556 313.848132 
L 374.051419 311.622557 
L 375.169282 310.301122 
L 376.287145 309.883827 
L 377.405008 308.434885 
L 378.522871 309.165152 
L 379.640735 309.269476 
L 380.758598 310.440221 
L 381.876461 310.892291 
L 382.994324 310.648868 
L 384.112187 312.433965 
L 385.23005 313.639485 
L 386.347913 311.077755 
L 387.465776 308.991279 
L 388.583639 308.527617 
L 389.701503 309.15356 
L 390.819366 307.785759 
L 391.937229 307.078675 
L 393.055092 305.734057 
L 394.172955 306.116578 
L 395.290818 307.067084 
L 396.408681 306.035437 
L 397.526544 306.36 
L 398.644407 309.049236 
L 400.880134 308.087139 
L 401.997997 308.156688 
L 403.11586 309.026053 
L 404.233723 308.678307 
L 405.351586 305.641325 
L 406.469449 305.989071 
L 407.587312 307.26414 
L 408.705175 309.141969 
L 409.823038 309.988151 
L 410.940902 309.234701 
L 413.176628 310.150432 
L 414.294491 314.937737 
L 415.412354 315.331849 
L 416.530217 315.992567 
L 417.64808 315.772328 
L 418.765943 314.497259 
L 419.883806 311.935529 
L 421.001669 314.114738 
L 423.237396 313.581527 
L 424.355259 312.897626 
L 425.473122 310.312714 
L 426.590985 311.100938 
L 427.708848 307.774167 
L 428.826711 307.762576 
L 429.944574 308.46966 
L 431.062437 308.504434 
L 432.180301 307.959632 
L 433.298164 308.029181 
L 434.416027 308.886955 
L 435.53389 308.562392 
L 436.651753 306.870028 
L 437.769616 305.75724 
L 438.887479 305.699282 
L 440.005342 305.942705 
L 441.123205 306.870028 
L 442.241068 309.941785 
L 443.358932 307.959632 
L 444.476795 309.188335 
L 445.594658 305.780423 
L 446.712521 304.714002 
L 447.830384 301.885667 
L 448.948247 304.064876 
L 450.06611 303.809862 
L 451.183973 301.90885 
L 452.301836 300.819246 
L 453.419699 300.355584 
L 454.537563 303.578031 
L 455.655426 302.534793 
L 456.773289 307.136633 
L 457.891152 314.914554 
L 459.009015 311.483459 
L 460.126878 308.631941 
L 461.244741 304.77196 
L 463.480467 304.667636 
L 464.598331 302.013174 
L 465.716194 301.433597 
L 466.834057 301.491555 
L 467.95192 299.973063 
L 469.069783 299.810782 
L 470.187646 301.584287 
L 471.305509 301.248132 
L 472.423372 298.547305 
L 473.541235 299.660092 
L 474.659098 303.033229 
L 475.776962 302.140681 
L 476.894825 304.55172 
L 478.012688 302.917314 
L 479.130551 307.380055 
L 481.366277 302.105906 
L 482.48414 301.375639 
L 483.602003 295.440773 
L 484.719866 297.979319 
L 485.83773 304.192383 
L 486.955593 301.595879 
L 488.073456 302.140681 
L 489.191319 307.484379 
L 490.309182 308.423293 
L 491.427045 317.012622 
L 492.544908 316.154848 
L 494.780634 325.694683 
L 495.898497 317.766072 
L 497.016361 322.518602 
L 499.252087 309.895419 
L 500.36995 309.327433 
L 501.487813 309.849052 
L 502.605676 312.364416 
L 503.723539 309.930193 
L 504.841402 310.474995 
L 505.959265 307.368464 
L 507.077129 306.464324 
L 508.194992 301.433597 
L 509.312855 303.033229 
L 510.430718 300.633781 
L 511.548581 300.668556 
L 512.666444 301.085851 
L 513.784307 299.451444 
L 514.90217 299.683275 
L 516.020033 298.953008 
L 517.137896 297.225869 
L 518.25576 296.32173 
L 519.373623 300.529457 
L 520.491486 297.051996 
L 521.609349 295.429181 
L 522.727212 297.109954 
L 523.845075 295.2669 
L 524.962938 291.163496 
L 526.080801 292.484931 
L 527.198664 292.774719 
L 528.316528 290.978031 
L 529.434391 290.039117 
L 530.552254 288.485851 
L 531.670117 287.987415 
L 532.78798 286.445741 
L 533.905843 282.133689 
L 535.023706 282.6669 
L 536.141569 284.081067 
L 537.259432 279.815382 
L 538.377295 277.207286 
L 539.495159 277.021822 
L 540.613022 277.242061 
L 541.730885 284.950432 
L 542.848748 280.279043 
L 543.966611 276.222006 
L 545.084474 278.459172 
L 546.202337 280.070396 
L 547.3202 275.410598 
L 548.438063 267.922466 
L 549.555927 269.139577 
L 550.67379 267.493579 
L 551.791653 264.445005 
L 552.909516 262.868556 
L 554.027379 264.317498 
L 555.145242 263.946569 
L 556.263105 260.805262 
L 557.380968 262.184655 
L 558.498831 260.758896 
L 559.616694 265.360736 
L 560.734558 260.538657 
L 561.852421 258.788335 
L 562.970284 258.092843 
L 564.088147 254.012622 
L 565.20601 254.383551 
L 566.323873 248.471868 
L 567.441736 249.410782 
L 568.559599 249.793303 
L 569.677462 247.903882 
L 570.795326 243.302042 
L 571.913189 235.825501 
L 573.031052 233.55356 
L 574.148915 230.122466 
L 576.384641 224.512162 
L 577.502504 218.484563 
L 578.620367 219.133689 
L 579.73823 213.789991 
L 580.856093 216.479227 
L 581.973957 212.665612 
L 583.09182 230.922282 
L 584.209683 227.375271 
L 585.327546 229.148776 
L 586.445409 219.632125 
L 587.563272 220.87242 
L 588.681135 216.015566 
L 589.798998 227.931665 
L 590.916861 225.149696 
L 592.034725 220.373983 
L 593.152588 218.229549 
L 594.270451 217.615198 
L 595.388314 217.835437 
L 598.741903 212.584471 
L 599.859766 217.197902 
L 600.977629 221.162208 
L 602.095492 222.634333 
L 603.213356 220.999926 
L 604.331219 224.732401 
L 605.449082 224.964232 
L 607.684808 217.151536 
L 608.802671 214.798454 
L 609.920534 216.629917 
L 611.038397 219.446661 
L 612.15626 216.003974 
L 613.274124 209.315658 
L 614.391987 206.31345 
L 615.50985 205.617958 
L 616.627713 203.914002 
L 617.745576 199.265796 
L 618.863439 200.900202 
L 619.981302 200.714738 
L 622.217028 198.941233 
L 623.334891 203.346017 
L 625.570618 213.882723 
L 626.688481 217.337001 
L 627.806344 215.957608 
L 628.924207 210.776191 
L 630.04207 208.782447 
L 631.159933 207.97104 
L 632.277796 210.266164 
L 633.395659 215.482355 
L 634.513523 213.40747 
L 635.631386 216.896523 
L 636.749249 218.415014 
L 637.867112 217.000846 
L 638.984975 221.579503 
L 640.102838 221.962024 
L 641.220701 219.180055 
L 642.338564 219.910322 
L 643.456427 217.592015 
L 644.57429 211.74988 
L 645.692154 203.624213 
L 646.810017 200.424949 
L 647.92788 200.668372 
L 649.045743 204.0531 
L 650.163606 204.968832 
L 651.281469 206.267084 
L 652.399332 201.387047 
L 653.517195 200.297443 
L 654.635058 198.326881 
L 655.752922 202.61575 
L 656.870785 202.291187 
L 657.988648 199.022374 
L 659.106511 191.592199 
L 660.224374 185.587783 
L 661.342237 192.148592 
L 662.4601 188.833413 
L 664.695826 184.428629 
L 665.813689 178.435805 
L 666.931553 180.997534 
L 668.049416 175.433597 
L 669.167279 176.836173 
L 670.285142 183.930193 
L 671.403005 179.142889 
L 672.520868 178.818326 
L 673.638731 172.222741 
L 674.756594 178.366256 
L 675.874457 180.765704 
L 676.992321 180.36 
L 678.110184 174.842429 
L 679.228047 173.41667 
L 680.34591 171.562024 
L 681.463773 180.290451 
L 682.581636 177.369384 
L 683.699499 174.807654 
L 684.817362 182.539209 
L 685.935225 178.493763 
L 687.053088 181.449604 
L 688.170952 177.786679 
L 689.288815 170.889715 
L 690.406678 173.080515 
L 691.524541 171.596799 
L 692.642404 172.582079 
L 693.760267 171.00563 
L 694.87813 169.776927 
L 695.995993 168.780055 
L 697.113856 171.017222 
L 698.23172 166.948592 
L 699.349583 161.57012 
L 700.467446 163.633413 
L 701.585309 160.81667 
L 702.703172 159.622741 
L 703.821035 157.918786 
L 704.938898 159.553192 
L 706.056761 159.205446 
L 707.174624 158.370856 
L 708.292487 156.794407 
L 709.410351 148.97012 
L 710.528214 143.76552 
L 711.646077 137.494499 
L 712.76394 126.575271 
L 713.881803 123.005078 
L 714.999666 122.553008 
L 716.117529 124.697443 
L 717.235392 129.426789 
L 718.353255 124.361288 
L 719.471119 128.279227 
L 720.588982 128.418326 
L 721.706845 130.342521 
L 722.824708 126.586863 
L 723.942571 124.732217 
L 725.060434 118.182999 
L 726.178297 113.152272 
L 727.29616 109.095235 
L 728.414023 90.57196 
L 729.531886 100.505906 
L 730.64975 106.34804 
L 731.767613 114.635989 
L 732.885476 112.862484 
L 735.121202 97.040037 
L 736.239065 92.403422 
L 737.356928 92.496155 
L 738.474791 87.674075 
L 739.592654 84.115474 
L 740.710518 79.386127 
L 741.828381 66.96 
L 742.946244 74.80747 
L 744.064107 72.952824 
L 745.18197 93.295971 
L 746.299833 93.713266 
L 747.417696 113.326145 
L 748.535559 115.238749 
L 749.653422 129.728169 
L 750.771285 120.651996 
L 751.889149 126.888243 
L 753.007012 117.081803 
L 754.124875 132.336265 
L 755.242738 133.228813 
L 756.360601 152.911242 
L 757.478464 158.927249 
L 758.596327 152.59827 
L 759.71419 138.421822 
L 760.832053 141.702226 
L 761.949917 151.102962 
L 763.06778 144.785575 
L 764.185643 144.681251 
L 765.303506 137.309034 
L 766.421369 145.399926 
L 767.539232 144.889899 
L 768.657095 147.741417 
L 769.774958 154.035621 
L 770.892821 156.249604 
L 772.010684 145.909954 
L 773.128548 147.961656 
L 774.246411 143.580055 
L 775.364274 146.176559 
L 776.482137 135.813726 
L 777.6 129.925225 
L 777.6 129.925225 
" style="fill:none;stroke:#1f77b4;stroke-linecap:square;stroke-width:1.5;"/>
   </g>
   <g id="patch_3">
    <path d="M 108 384.48 
L 108 51.84 
" style="fill:none;stroke:#000000;stroke-linecap:square;stroke-linejoin:miter;stroke-width:0.8;"/>
   </g>
   <g id="patch_4">
    <path d="M 777.6 384.48 
L 777.6 51.84 
" style="fill:none;stroke:#000000;stroke-linecap:square;stroke-linejoin:miter;stroke-width:0.8;"/>
   </g>
   <g id="patch_5">
    <path d="M 108 384.48 
L 777.6 384.48 
" style="fill:none;stroke:#000000;stroke-linecap:square;stroke-linejoin:miter;stroke-width:0.8;"/>
   </g>
   <g id="patch_6">
    <path d="M 108 51.84 
L 777.6 51.84 
" style="fill:none;stroke:#000000;stroke-linecap:square;stroke-linejoin:miter;stroke-width:0.8;"/>
   </g>
   <g id="legend_1">
    <g id="patch_7">
     <path d="M 115 75.319687 
L 187 75.319687 
Q 189 75.319687 189 73.319687 
L 189 58.84 
Q 189 56.84 187 56.84 
L 115 56.84 
Q 113 56.84 113 58.84 
L 113 73.319687 
Q 113 75.319687 115 75.319687 
z
" style="fill:#ffffff;opacity:0.8;stroke:#cccccc;stroke-linejoin:miter;"/>
    </g>
    <g id="line2d_14">
     <path d="M 117 65.33375 
L 137 65.33375 
" style="fill:none;stroke:#1f77b4;stroke-linecap:square;stroke-width:1.5;"/>
    </g>
    <g id="line2d_15"/>
    <g id="text_14">
     <!-- 蓝筹精选 -->
     <defs>
      <path d="M 2.4375 -2.78125 
L 14.453125 -2.78125 
L 14.453125 22.796875 
L 86.53125 22.796875 
L 86.53125 -2.78125 
L 97.859375 -2.78125 
L 97.859375 -9.625 
L 2.4375 -9.625 
z
M 2.640625 75.140625 
L 30.859375 75.140625 
L 30.859375 83.25 
L 38.09375 83.25 
L 38.09375 75.140625 
L 62.5 75.140625 
L 62.5 83.25 
L 69.734375 83.25 
L 69.734375 75.140625 
L 97.65625 75.140625 
L 97.65625 68.3125 
L 69.734375 68.3125 
L 69.734375 62.84375 
L 62.5 62.84375 
L 62.5 68.3125 
L 38.09375 68.3125 
L 38.09375 62.84375 
L 30.859375 62.84375 
L 30.859375 68.3125 
L 2.640625 68.3125 
z
M 44.046875 31.203125 
Q 52.9375 44.484375 57.328125 61.46875 
L 64.65625 59.625 
Q 63.578125 56.15625 62.453125 52.984375 
L 96.09375 52.984375 
L 96.09375 46.34375 
L 60.015625 46.34375 
Q 55.71875 35.296875 50.59375 27.09375 
Q 46 30.21875 44.046875 31.203125 
z
M 79.5 16.15625 
L 64.65625 16.15625 
L 64.65625 -2.78125 
L 79.5 -2.78125 
z
M 43.0625 -2.78125 
L 57.8125 -2.78125 
L 57.8125 16.15625 
L 43.0625 16.15625 
z
M 21.484375 -2.78125 
L 36.234375 -2.78125 
L 36.234375 16.15625 
L 21.484375 16.15625 
z
M 32.71875 60.203125 
L 39.9375 60.203125 
L 39.9375 26.8125 
L 32.71875 26.8125 
z
M 12.203125 58.0625 
L 19.4375 58.0625 
L 19.4375 27.984375 
L 12.203125 27.984375 
z
M 64.0625 38.53125 
L 68.453125 43.703125 
Q 78.515625 37.15625 86.625 30.8125 
L 81.84375 25.140625 
Q 73.640625 32.078125 64.0625 38.53125 
z
" id="MicrosoftYaHei-84dd"/>
      <path d="M 72.46875 22.21875 
L 80.078125 22.21875 
L 80.078125 16.0625 
L 97.859375 16.0625 
L 97.859375 10.203125 
L 80.078125 10.203125 
L 80.078125 -1.515625 
Q 80.078125 -11.859375 67.578125 -11.859375 
Q 60.359375 -11.859375 52.34375 -11.671875 
Q 51.859375 -7.859375 51.078125 -4.25 
Q 59.28125 -4.828125 66.703125 -4.828125 
Q 72.46875 -4.828125 72.46875 -0.140625 
L 72.46875 10.203125 
L 27.046875 10.203125 
Q 18.453125 1.421875 6.640625 -6.59375 
Q 4.5 -3.375 1.46875 -0.640625 
Q 19.53125 10.109375 29.78125 24.078125 
L 2.828125 24.078125 
L 2.828125 29.9375 
L 33.59375 29.9375 
Q 35.640625 33.25 37.203125 36.765625 
L 11.921875 36.765625 
L 11.921875 42.4375 
L 39.359375 42.4375 
Q 40.4375 45.5625 41.21875 48.875 
L 5.671875 48.875 
L 5.671875 54.734375 
L 42.390625 54.734375 
Q 42.96875 58.34375 43.171875 62.15625 
L 50.6875 62.15625 
Q 50.296875 58.34375 49.609375 54.734375 
L 95.125 54.734375 
L 95.125 48.875 
L 48.53125 48.875 
Q 47.859375 45.5625 46.875 42.4375 
L 89.15625 42.4375 
L 89.15625 36.765625 
L 44.921875 36.765625 
Q 43.5625 33.34375 41.796875 29.9375 
L 97.5625 29.9375 
L 97.5625 24.078125 
L 38.28125 24.078125 
Q 35.640625 19.96875 32.328125 16.0625 
L 72.46875 16.0625 
z
M 31.15625 56 
Q 27.546875 60.796875 23.046875 65.96875 
L 27.15625 68.890625 
L 19.734375 68.890625 
Q 13.875 61.28125 6.453125 55.421875 
Q 4.5 57.765625 1.5625 60.890625 
Q 13.28125 69.875 20.21875 83.25 
L 28.609375 83.25 
Q 26.46875 78.859375 23.921875 74.953125 
L 52.046875 74.953125 
L 52.046875 68.890625 
L 28.8125 68.890625 
Q 33.015625 64.703125 36.921875 60.40625 
z
M 76.953125 56.109375 
Q 72.859375 61.375 68.65625 66.0625 
L 72.65625 68.890625 
L 64.15625 68.890625 
Q 60.75 63.328125 56.734375 58.34375 
Q 54.59375 60.5 50.78125 63.140625 
Q 58.40625 71.734375 63.28125 83.25 
L 71.6875 83.25 
Q 69.828125 78.953125 67.671875 74.953125 
L 98.53125 74.953125 
L 98.53125 68.890625 
L 74.515625 68.890625 
Q 78.609375 64.984375 82.71875 60.5 
z
M 31.453125 3.765625 
L 35.359375 9.03125 
Q 44.4375 5.21875 52.34375 1.03125 
L 47.953125 -4.640625 
Q 40.4375 -0.34375 31.453125 3.765625 
z
" id="MicrosoftYaHei-7b79"/>
      <path d="M 50.390625 -12.84375 
L 43.359375 -12.84375 
L 43.359375 36.671875 
L 92.484375 36.671875 
L 92.484375 -1.421875 
Q 92.484375 -12.0625 81.546875 -12.0625 
L 65.625 -12.0625 
Q 65.140625 -8.9375 64.15625 -4.546875 
Q 73.25 -5.125 79.109375 -5.125 
Q 85.453125 -5.125 85.453125 0.140625 
L 85.453125 4.640625 
L 50.390625 4.640625 
z
M 38.875 48.78125 
L 64.15625 48.78125 
L 64.15625 55.515625 
L 42.96875 55.515625 
L 42.96875 61.671875 
L 64.15625 61.671875 
L 64.15625 68.21875 
L 40.4375 68.21875 
L 40.4375 74.359375 
L 64.15625 74.359375 
L 64.15625 83.15625 
L 71.1875 83.15625 
L 71.1875 74.359375 
L 96.875 74.359375 
L 96.875 68.21875 
L 71.1875 68.21875 
L 71.1875 61.671875 
L 93.953125 61.671875 
L 93.953125 55.515625 
L 71.1875 55.515625 
L 71.1875 48.78125 
L 98.25 48.78125 
L 98.25 42.625 
L 38.875 42.625 
z
M 0.875 9.03125 
Q 10.359375 23.390625 16.3125 41.0625 
L 2.15625 41.0625 
L 2.15625 47.3125 
L 17.09375 47.3125 
L 17.09375 82.859375 
L 23.53125 82.859375 
L 23.53125 47.3125 
L 36.140625 47.3125 
L 36.140625 41.0625 
L 23.53125 41.0625 
L 23.53125 28.953125 
L 27.15625 31.890625 
Q 35.359375 23.96875 40.328125 18.21875 
L 35.25 13.53125 
Q 29.109375 21.046875 23.53125 26.90625 
L 23.53125 -13.234375 
L 17.09375 -13.234375 
L 17.09375 27.875 
Q 11.421875 13.140625 3.90625 1.125 
Q 2.34375 5.515625 0.875 9.03125 
z
M 85.453125 30.421875 
L 50.390625 30.421875 
L 50.390625 23.578125 
L 85.453125 23.578125 
z
M 50.390625 10.6875 
L 85.453125 10.6875 
L 85.453125 17.53125 
L 50.390625 17.53125 
z
M 25.390625 55.609375 
Q 29.6875 65.09375 32.515625 75.53125 
L 38.765625 73.296875 
Q 35.15625 62.453125 31.15625 53.078125 
z
M 2.34375 73.578125 
L 8.109375 75.640625 
Q 11.625 65.765625 14.75 55.8125 
L 8.59375 53.265625 
Q 5.28125 65.1875 2.34375 73.578125 
z
" id="MicrosoftYaHei-7cbe"/>
      <path d="M 27.4375 43.015625 
L 59.765625 43.015625 
L 59.765625 59.328125 
L 43.3125 59.328125 
Q 40.375 51.90625 37.203125 46.046875 
Q 34.671875 47.703125 30.375 49.5625 
Q 37.984375 62.9375 41.703125 79.25 
L 49.3125 77.59375 
Q 47.609375 71.484375 45.75 66.0625 
L 59.765625 66.0625 
L 59.765625 83.0625 
L 67.390625 83.0625 
L 67.390625 66.0625 
L 92.875 66.0625 
L 92.875 59.328125 
L 67.390625 59.328125 
L 67.390625 43.015625 
L 97.5625 43.015625 
L 97.5625 36.28125 
L 74.515625 36.28125 
L 74.515625 15.375 
Q 74.515625 10.203125 78.8125 10.203125 
L 83.5 10.203125 
Q 87.984375 10.203125 88.671875 14.890625 
Q 89.265625 18.703125 89.75 26.421875 
Q 92.78125 25.046875 97.171875 23.578125 
Q 96.390625 16.84375 95.515625 12.25 
Q 93.953125 3.5625 84.375 3.5625 
L 77.15625 3.5625 
Q 67 3.5625 67 14.59375 
L 67 36.28125 
L 53.859375 36.28125 
Q 53.8125 31.84375 53.609375 28.375 
Q 53.03125 10.109375 33.109375 1.3125 
Q 31.15625 4.15625 28.21875 7.859375 
Q 45.40625 14.984375 46.09375 28.375 
Q 46.296875 31.296875 46.4375 36.28125 
L 27.4375 36.28125 
z
M 42.09375 -3.078125 
L 62.5 -3.265625 
L 98.4375 -2.59375 
Q 97.359375 -5.8125 95.703125 -10.296875 
L 61.671875 -10.6875 
L 41.21875 -10.40625 
Q 23.640625 -9.8125 16.890625 1.421875 
Q 12.890625 -2.296875 5.171875 -11.671875 
L 1.171875 -3.5625 
Q 9.8125 4.78125 13.671875 8.40625 
L 13.671875 41.265625 
L 2.046875 41.265625 
L 2.046875 48.484375 
L 21.1875 48.484375 
L 21.1875 6.734375 
Q 27.203125 -2.875 42.09375 -3.078125 
z
M 13.375 81.296875 
Q 18.359375 75.25 27.046875 62.84375 
L 20.125 57.953125 
Q 12.203125 70.359375 7.125 77.09375 
z
" id="MicrosoftYaHei-9009"/>
     </defs>
     <g transform="translate(145 68.83375)scale(0.1 -0.1)">
      <use xlink:href="#MicrosoftYaHei-84dd"/>
      <use x="100" xlink:href="#MicrosoftYaHei-7b79"/>
      <use x="200" xlink:href="#MicrosoftYaHei-7cbe"/>
      <use x="300" xlink:href="#MicrosoftYaHei-9009"/>
     </g>
    </g>
   </g>
  </g>
 </g>
 <defs>
  <clipPath id="p9a0b3e43b2">
   <rect height="332.64" width="669.6" x="108" y="51.84"/>
  </clipPath>
 </defs>
</svg>
