<?xml version="1.0" encoding="utf-8" standalone="no"?>
<!DOCTYPE svg PUBLIC "-//W3C//DTD SVG 1.1//EN"
  "http://www.w3.org/Graphics/SVG/1.1/DTD/svg11.dtd">
<!-- Created with matplotlib (http://matplotlib.org/) -->
<svg height="432pt" version="1.1" viewBox="0 0 864 432" width="864pt" xmlns="http://www.w3.org/2000/svg" xmlns:xlink="http://www.w3.org/1999/xlink">
 <defs>
  <style type="text/css">
*{stroke-linecap:butt;stroke-linejoin:round;}
  </style>
 </defs>
 <g id="figure_1">
  <g id="patch_1">
   <path d="M 0 432 
L 864 432 
L 864 0 
L 0 0 
z
" style="fill:#ffffff;"/>
  </g>
  <g id="axes_1">
   <g id="patch_2">
    <path d="M 108 384.48 
L 777.6 384.48 
L 777.6 51.84 
L 108 51.84 
z
" style="fill:#ffffff;"/>
   </g>
   <g id="matplotlib.axis_1">
    <g id="xtick_1">
     <g id="line2d_1">
      <path clip-path="url(#p028423b314)" d="M 108 384.48 
L 108 51.84 
" style="fill:none;stroke:#b0b0b0;stroke-linecap:square;stroke-width:0.8;"/>
     </g>
     <g id="line2d_2">
      <defs>
       <path d="M 0 0 
L 0 3.5 
" id="m16ba215167" style="stroke:#000000;stroke-width:0.8;"/>
      </defs>
      <g>
       <use style="stroke:#000000;stroke-width:0.8;" x="108" xlink:href="#m16ba215167" y="384.48"/>
      </g>
     </g>
     <g id="text_1">
      <!-- 2017-09-15 -->
      <defs>
       <path d="M 51.171875 0 
L 5.171875 0 
L 5.171875 8.296875 
L 27.15625 30.21875 
Q 36.234375 39.3125 39.3125 44.609375 
Q 42.390625 49.90625 42.390625 55.5625 
Q 42.390625 62.015625 38.765625 65.453125 
Q 35.15625 68.890625 28.328125 68.890625 
Q 18.21875 68.890625 9.03125 60.296875 
L 9.03125 70.015625 
Q 17.96875 76.90625 29.828125 76.90625 
Q 40.046875 76.90625 45.953125 71.390625 
Q 51.859375 65.875 51.859375 56.546875 
Q 51.859375 49.515625 48.0625 42.75 
Q 44.28125 35.984375 33.734375 25.53125 
L 16.5 8.6875 
L 16.5 8.5 
L 51.171875 8.5 
z
" id="MicrosoftYaHei-32"/>
       <path d="M 4.4375 36.328125 
Q 4.4375 56.34375 11.078125 66.625 
Q 17.71875 76.90625 30.328125 76.90625 
Q 54.34375 76.90625 54.34375 38.140625 
Q 54.34375 19 47.578125 8.859375 
Q 40.828125 -1.265625 28.609375 -1.265625 
Q 17.09375 -1.265625 10.765625 8.34375 
Q 4.4375 17.96875 4.4375 36.328125 
z
M 14.203125 36.765625 
Q 14.203125 6.640625 29.5 6.640625 
Q 44.53125 6.640625 44.53125 37.25 
Q 44.53125 68.953125 29.78125 68.953125 
Q 14.203125 68.953125 14.203125 36.765625 
z
" id="MicrosoftYaHei-30"/>
       <path d="M 52.59375 0 
L 9.234375 0 
L 9.234375 8.25 
L 26.171875 8.25 
L 26.171875 65.671875 
L 8.796875 60.640625 
L 8.796875 69.4375 
L 35.6875 77.25 
L 35.6875 8.25 
L 52.59375 8.25 
z
" id="MicrosoftYaHei-31"/>
       <path d="M 53.765625 72.3125 
L 24.171875 0 
L 14.265625 0 
L 42.390625 67.1875 
L 4.59375 67.1875 
L 4.59375 75.640625 
L 53.765625 75.640625 
z
" id="MicrosoftYaHei-37"/>
       <path d="M 36.375 26.265625 
L 7.625 26.265625 
L 7.625 33.640625 
L 36.375 33.640625 
z
" id="MicrosoftYaHei-2d"/>
       <path d="M 9.03125 10.25 
Q 15.28125 6.640625 22.515625 6.640625 
Q 32.671875 6.640625 38.25 14.640625 
Q 43.84375 22.65625 43.84375 37.40625 
Q 43.75 37.3125 43.65625 37.40625 
Q 38.671875 27.9375 26.90625 27.9375 
Q 17.390625 27.9375 11.140625 34.46875 
Q 4.890625 41.015625 4.890625 51.46875 
Q 4.890625 62.59375 11.71875 69.75 
Q 18.5625 76.90625 29.4375 76.90625 
Q 40.71875 76.90625 47.0625 68.046875 
Q 53.421875 59.1875 53.421875 42.234375 
Q 53.421875 21.296875 45.21875 10.015625 
Q 37.015625 -1.265625 22.515625 -1.265625 
Q 14.546875 -1.265625 9.03125 1.3125 
z
M 14.546875 52.6875 
Q 14.546875 45.0625 18.453125 40.59375 
Q 22.359375 36.140625 29.25 36.140625 
Q 35.203125 36.140625 39.25 40.203125 
Q 43.3125 44.28125 43.3125 50.09375 
Q 43.3125 58.25 39.28125 63.59375 
Q 35.25 68.953125 28.65625 68.953125 
Q 22.5625 68.953125 18.546875 64.3125 
Q 14.546875 59.671875 14.546875 52.6875 
z
" id="MicrosoftYaHei-39"/>
       <path d="M 8.640625 11.625 
Q 16.265625 6.640625 24.515625 6.640625 
Q 32.328125 6.640625 37.109375 11 
Q 41.890625 15.375 41.890625 22.609375 
Q 41.890625 29.890625 37.03125 33.890625 
Q 32.171875 37.890625 22.953125 37.890625 
Q 18.5 37.890625 10.984375 37.203125 
L 10.984375 75.640625 
L 48.1875 75.640625 
L 48.1875 67.1875 
L 19.875 67.1875 
L 19.875 45.796875 
Q 24.125 46.046875 26.265625 46.046875 
Q 38.234375 46.046875 44.921875 39.984375 
Q 51.609375 33.9375 51.609375 23.296875 
Q 51.609375 12.3125 44.421875 5.515625 
Q 37.25 -1.265625 24.609375 -1.265625 
Q 14.015625 -1.265625 8.640625 1.859375 
z
" id="MicrosoftYaHei-35"/>
      </defs>
      <g transform="translate(80.217187 399.47375)scale(0.1 -0.1)">
       <use xlink:href="#MicrosoftYaHei-32"/>
       <use x="58.642578" xlink:href="#MicrosoftYaHei-30"/>
       <use x="117.285156" xlink:href="#MicrosoftYaHei-31"/>
       <use x="175.927734" xlink:href="#MicrosoftYaHei-37"/>
       <use x="234.570312" xlink:href="#MicrosoftYaHei-2d"/>
       <use x="277.832031" xlink:href="#MicrosoftYaHei-30"/>
       <use x="336.474609" xlink:href="#MicrosoftYaHei-39"/>
       <use x="395.117188" xlink:href="#MicrosoftYaHei-2d"/>
       <use x="438.378906" xlink:href="#MicrosoftYaHei-31"/>
       <use x="497.021484" xlink:href="#MicrosoftYaHei-35"/>
      </g>
     </g>
    </g>
    <g id="xtick_2">
     <g id="line2d_3">
      <path clip-path="url(#p028423b314)" d="M 199.978022 384.48 
L 199.978022 51.84 
" style="fill:none;stroke:#b0b0b0;stroke-linecap:square;stroke-width:0.8;"/>
     </g>
     <g id="line2d_4">
      <g>
       <use style="stroke:#000000;stroke-width:0.8;" x="199.978022" xlink:href="#m16ba215167" y="384.48"/>
      </g>
     </g>
     <g id="text_2">
      <!-- 2017-11-30 -->
      <defs>
       <path d="M 6.984375 12.640625 
Q 14.75 6.640625 24.515625 6.640625 
Q 32.328125 6.640625 36.890625 10.46875 
Q 41.453125 14.3125 41.453125 20.75 
Q 41.453125 35.109375 20.90625 35.109375 
L 14.59375 35.109375 
L 14.59375 43.015625 
L 20.609375 43.015625 
Q 38.8125 43.015625 38.8125 56.5 
Q 38.8125 68.953125 24.90625 68.953125 
Q 16.9375 68.953125 9.90625 63.578125 
L 9.90625 72.609375 
Q 17.328125 76.90625 27.25 76.90625 
Q 36.921875 76.90625 42.78125 71.84375 
Q 48.640625 66.796875 48.640625 58.734375 
Q 48.640625 43.890625 33.5 39.65625 
L 33.5 39.453125 
Q 41.703125 38.578125 46.453125 33.671875 
Q 51.21875 28.765625 51.21875 21.4375 
Q 51.21875 11.234375 43.875 4.984375 
Q 36.53125 -1.265625 24.3125 -1.265625 
Q 13.578125 -1.265625 6.984375 2.734375 
z
" id="MicrosoftYaHei-33"/>
      </defs>
      <g transform="translate(172.195209 399.47375)scale(0.1 -0.1)">
       <use xlink:href="#MicrosoftYaHei-32"/>
       <use x="58.642578" xlink:href="#MicrosoftYaHei-30"/>
       <use x="117.285156" xlink:href="#MicrosoftYaHei-31"/>
       <use x="175.927734" xlink:href="#MicrosoftYaHei-37"/>
       <use x="234.570312" xlink:href="#MicrosoftYaHei-2d"/>
       <use x="277.832031" xlink:href="#MicrosoftYaHei-31"/>
       <use x="336.474609" xlink:href="#MicrosoftYaHei-31"/>
       <use x="395.117188" xlink:href="#MicrosoftYaHei-2d"/>
       <use x="438.378906" xlink:href="#MicrosoftYaHei-33"/>
       <use x="497.021484" xlink:href="#MicrosoftYaHei-30"/>
      </g>
     </g>
    </g>
    <g id="xtick_3">
     <g id="line2d_5">
      <path clip-path="url(#p028423b314)" d="M 291.956044 384.48 
L 291.956044 51.84 
" style="fill:none;stroke:#b0b0b0;stroke-linecap:square;stroke-width:0.8;"/>
     </g>
     <g id="line2d_6">
      <g>
       <use style="stroke:#000000;stroke-width:0.8;" x="291.956044" xlink:href="#m16ba215167" y="384.48"/>
      </g>
     </g>
     <g id="text_3">
      <!-- 2018-02-11 -->
      <defs>
       <path d="M 21.390625 39.796875 
Q 7.859375 46.09375 7.859375 58.0625 
Q 7.859375 66.40625 14.203125 71.65625 
Q 20.5625 76.90625 30.421875 76.90625 
Q 39.453125 76.90625 45.3125 71.96875 
Q 51.171875 67.046875 51.171875 59.234375 
Q 51.171875 46.625 37.0625 39.84375 
L 37.0625 39.65625 
Q 53.609375 33.6875 53.609375 19.34375 
Q 53.609375 9.90625 46.796875 4.3125 
Q 39.984375 -1.265625 27.78125 -1.265625 
Q 17.78125 -1.265625 11.46875 4.25 
Q 5.171875 9.765625 5.171875 18.5625 
Q 5.171875 33.015625 21.390625 39.59375 
z
M 41.5 58.109375 
Q 41.5 63.1875 38.328125 66.109375 
Q 35.15625 69.046875 29.734375 69.046875 
Q 24.65625 69.046875 21.09375 65.984375 
Q 17.53125 62.9375 17.53125 58.203125 
Q 17.53125 48.734375 29.390625 43.796875 
Q 41.5 48.828125 41.5 58.109375 
z
M 28.8125 35.25 
Q 14.796875 29.59375 14.796875 19.046875 
Q 14.796875 13.578125 18.890625 10.0625 
Q 23 6.546875 29.59375 6.546875 
Q 35.984375 6.546875 39.984375 10.03125 
Q 44 13.53125 44 18.75 
Q 44 29.734375 28.8125 35.25 
z
" id="MicrosoftYaHei-38"/>
      </defs>
      <g transform="translate(264.173231 399.47375)scale(0.1 -0.1)">
       <use xlink:href="#MicrosoftYaHei-32"/>
       <use x="58.642578" xlink:href="#MicrosoftYaHei-30"/>
       <use x="117.285156" xlink:href="#MicrosoftYaHei-31"/>
       <use x="175.927734" xlink:href="#MicrosoftYaHei-38"/>
       <use x="234.570312" xlink:href="#MicrosoftYaHei-2d"/>
       <use x="277.832031" xlink:href="#MicrosoftYaHei-30"/>
       <use x="336.474609" xlink:href="#MicrosoftYaHei-32"/>
       <use x="395.117188" xlink:href="#MicrosoftYaHei-2d"/>
       <use x="438.378906" xlink:href="#MicrosoftYaHei-31"/>
       <use x="497.021484" xlink:href="#MicrosoftYaHei-31"/>
      </g>
     </g>
    </g>
    <g id="xtick_4">
     <g id="line2d_7">
      <path clip-path="url(#p028423b314)" d="M 383.934066 384.48 
L 383.934066 51.84 
" style="fill:none;stroke:#b0b0b0;stroke-linecap:square;stroke-width:0.8;"/>
     </g>
     <g id="line2d_8">
      <g>
       <use style="stroke:#000000;stroke-width:0.8;" x="383.934066" xlink:href="#m16ba215167" y="384.48"/>
      </g>
     </g>
     <g id="text_4">
      <!-- 2018-04-27 -->
      <defs>
       <path d="M 55.078125 19.625 
L 45.40625 19.625 
L 45.40625 0 
L 36.140625 0 
L 36.140625 19.625 
L 0.875 19.625 
L 0.875 25.828125 
L 34.328125 75.640625 
L 45.40625 75.640625 
L 45.40625 27.203125 
L 55.078125 27.203125 
z
M 36.140625 27.203125 
L 36.140625 58.890625 
Q 36.140625 62.25 36.328125 66.65625 
L 36.140625 66.65625 
Q 35.453125 64.796875 33.25 60.84375 
L 10.75 27.203125 
z
" id="MicrosoftYaHei-34"/>
      </defs>
      <g transform="translate(356.151253 399.47375)scale(0.1 -0.1)">
       <use xlink:href="#MicrosoftYaHei-32"/>
       <use x="58.642578" xlink:href="#MicrosoftYaHei-30"/>
       <use x="117.285156" xlink:href="#MicrosoftYaHei-31"/>
       <use x="175.927734" xlink:href="#MicrosoftYaHei-38"/>
       <use x="234.570312" xlink:href="#MicrosoftYaHei-2d"/>
       <use x="277.832031" xlink:href="#MicrosoftYaHei-30"/>
       <use x="336.474609" xlink:href="#MicrosoftYaHei-34"/>
       <use x="395.117188" xlink:href="#MicrosoftYaHei-2d"/>
       <use x="438.378906" xlink:href="#MicrosoftYaHei-32"/>
       <use x="497.021484" xlink:href="#MicrosoftYaHei-37"/>
      </g>
     </g>
    </g>
    <g id="xtick_5">
     <g id="line2d_9">
      <path clip-path="url(#p028423b314)" d="M 475.912088 384.48 
L 475.912088 51.84 
" style="fill:none;stroke:#b0b0b0;stroke-linecap:square;stroke-width:0.8;"/>
     </g>
     <g id="line2d_10">
      <g>
       <use style="stroke:#000000;stroke-width:0.8;" x="475.912088" xlink:href="#m16ba215167" y="384.48"/>
      </g>
     </g>
     <g id="text_5">
      <!-- 2018-07-10 -->
      <g transform="translate(448.129275 399.47375)scale(0.1 -0.1)">
       <use xlink:href="#MicrosoftYaHei-32"/>
       <use x="58.642578" xlink:href="#MicrosoftYaHei-30"/>
       <use x="117.285156" xlink:href="#MicrosoftYaHei-31"/>
       <use x="175.927734" xlink:href="#MicrosoftYaHei-38"/>
       <use x="234.570312" xlink:href="#MicrosoftYaHei-2d"/>
       <use x="277.832031" xlink:href="#MicrosoftYaHei-30"/>
       <use x="336.474609" xlink:href="#MicrosoftYaHei-37"/>
       <use x="395.117188" xlink:href="#MicrosoftYaHei-2d"/>
       <use x="438.378906" xlink:href="#MicrosoftYaHei-31"/>
       <use x="497.021484" xlink:href="#MicrosoftYaHei-30"/>
      </g>
     </g>
    </g>
    <g id="xtick_6">
     <g id="line2d_11">
      <path clip-path="url(#p028423b314)" d="M 567.89011 384.48 
L 567.89011 51.84 
" style="fill:none;stroke:#b0b0b0;stroke-linecap:square;stroke-width:0.8;"/>
     </g>
     <g id="line2d_12">
      <g>
       <use style="stroke:#000000;stroke-width:0.8;" x="567.89011" xlink:href="#m16ba215167" y="384.48"/>
      </g>
     </g>
     <g id="text_6">
      <!-- 2018-09-18 -->
      <g transform="translate(540.107297 399.47375)scale(0.1 -0.1)">
       <use xlink:href="#MicrosoftYaHei-32"/>
       <use x="58.642578" xlink:href="#MicrosoftYaHei-30"/>
       <use x="117.285156" xlink:href="#MicrosoftYaHei-31"/>
       <use x="175.927734" xlink:href="#MicrosoftYaHei-38"/>
       <use x="234.570312" xlink:href="#MicrosoftYaHei-2d"/>
       <use x="277.832031" xlink:href="#MicrosoftYaHei-30"/>
       <use x="336.474609" xlink:href="#MicrosoftYaHei-39"/>
       <use x="395.117188" xlink:href="#MicrosoftYaHei-2d"/>
       <use x="438.378906" xlink:href="#MicrosoftYaHei-31"/>
       <use x="497.021484" xlink:href="#MicrosoftYaHei-38"/>
      </g>
     </g>
    </g>
    <g id="xtick_7">
     <g id="line2d_13">
      <path clip-path="url(#p028423b314)" d="M 659.868132 384.48 
L 659.868132 51.84 
" style="fill:none;stroke:#b0b0b0;stroke-linecap:square;stroke-width:0.8;"/>
     </g>
     <g id="line2d_14">
      <g>
       <use style="stroke:#000000;stroke-width:0.8;" x="659.868132" xlink:href="#m16ba215167" y="384.48"/>
      </g>
     </g>
     <g id="text_7">
      <!-- 2018-12-03 -->
      <g transform="translate(632.085319 399.47375)scale(0.1 -0.1)">
       <use xlink:href="#MicrosoftYaHei-32"/>
       <use x="58.642578" xlink:href="#MicrosoftYaHei-30"/>
       <use x="117.285156" xlink:href="#MicrosoftYaHei-31"/>
       <use x="175.927734" xlink:href="#MicrosoftYaHei-38"/>
       <use x="234.570312" xlink:href="#MicrosoftYaHei-2d"/>
       <use x="277.832031" xlink:href="#MicrosoftYaHei-31"/>
       <use x="336.474609" xlink:href="#MicrosoftYaHei-32"/>
       <use x="395.117188" xlink:href="#MicrosoftYaHei-2d"/>
       <use x="438.378906" xlink:href="#MicrosoftYaHei-30"/>
       <use x="497.021484" xlink:href="#MicrosoftYaHei-33"/>
      </g>
     </g>
    </g>
    <g id="xtick_8">
     <g id="line2d_15">
      <path clip-path="url(#p028423b314)" d="M 751.846154 384.48 
L 751.846154 51.84 
" style="fill:none;stroke:#b0b0b0;stroke-linecap:square;stroke-width:0.8;"/>
     </g>
     <g id="line2d_16">
      <g>
       <use style="stroke:#000000;stroke-width:0.8;" x="751.846154" xlink:href="#m16ba215167" y="384.48"/>
      </g>
     </g>
     <g id="text_8">
      <!-- 2019-02-18 -->
      <g transform="translate(724.063341 399.47375)scale(0.1 -0.1)">
       <use xlink:href="#MicrosoftYaHei-32"/>
       <use x="58.642578" xlink:href="#MicrosoftYaHei-30"/>
       <use x="117.285156" xlink:href="#MicrosoftYaHei-31"/>
       <use x="175.927734" xlink:href="#MicrosoftYaHei-39"/>
       <use x="234.570312" xlink:href="#MicrosoftYaHei-2d"/>
       <use x="277.832031" xlink:href="#MicrosoftYaHei-30"/>
       <use x="336.474609" xlink:href="#MicrosoftYaHei-32"/>
       <use x="395.117188" xlink:href="#MicrosoftYaHei-2d"/>
       <use x="438.378906" xlink:href="#MicrosoftYaHei-31"/>
       <use x="497.021484" xlink:href="#MicrosoftYaHei-38"/>
      </g>
     </g>
    </g>
    <g id="text_9">
     <!-- 日期 -->
     <defs>
      <path d="M 15.234375 76.703125 
L 84.859375 76.703125 
L 84.859375 -11.96875 
L 76.5625 -11.96875 
L 76.5625 -5.03125 
L 23.53125 -5.03125 
L 23.53125 -11.96875 
L 15.234375 -11.96875 
z
M 23.53125 32.859375 
L 23.53125 2.09375 
L 76.5625 2.09375 
L 76.5625 32.859375 
z
M 23.53125 69.390625 
L 23.53125 40.1875 
L 76.5625 40.1875 
L 76.5625 69.390625 
z
" id="MicrosoftYaHei-65e5"/>
      <path d="M 58.890625 79.15625 
L 93.453125 79.15625 
L 93.453125 -0.046875 
Q 93.453125 -11.578125 82.515625 -11.578125 
Q 77.046875 -11.578125 71.78125 -11.28125 
Q 71.390625 -8.0625 70.609375 -3.765625 
Q 77.734375 -4.4375 80.859375 -4.4375 
Q 86.234375 -4.4375 86.234375 0.921875 
L 86.234375 21.4375 
L 65.328125 21.4375 
Q 64.265625 0.046875 52.34375 -14.109375 
Q 49.703125 -11.375 46.484375 -8.640625 
Q 54.390625 0.4375 56.546875 10.203125 
Q 58.890625 19.578125 58.890625 42.828125 
z
M 1.953125 17.828125 
L 11.140625 17.828125 
L 11.140625 62.9375 
L 3.125 62.9375 
L 3.125 69.578125 
L 11.140625 69.578125 
L 11.140625 81.5 
L 18.359375 81.5 
L 18.359375 69.578125 
L 38.671875 69.578125 
L 38.671875 81.890625 
L 45.90625 81.890625 
L 45.90625 69.578125 
L 53.8125 69.578125 
L 53.8125 62.9375 
L 45.90625 62.9375 
L 45.90625 17.828125 
L 53.71875 17.828125 
L 53.71875 11.1875 
L 1.953125 11.1875 
z
M 65.765625 27.875 
L 86.234375 27.875 
L 86.234375 47.015625 
L 66.109375 47.015625 
Q 66.21875 34.421875 65.765625 27.875 
z
M 86.234375 72.515625 
L 66.109375 72.515625 
L 66.109375 53.46875 
L 86.234375 53.46875 
z
M 18.359375 17.828125 
L 38.671875 17.828125 
L 38.671875 28.765625 
L 18.359375 28.765625 
z
M 18.359375 35.015625 
L 38.671875 35.015625 
L 38.671875 45.84375 
L 18.359375 45.84375 
z
M 18.359375 52.09375 
L 38.671875 52.09375 
L 38.671875 62.9375 
L 18.359375 62.9375 
z
M 18.359375 9.328125 
L 24.3125 4.640625 
Q 14.453125 -6 6.34375 -13.234375 
Q 4.296875 -10.890625 1.171875 -8.0625 
Q 10.453125 -0.140625 18.359375 9.328125 
z
M 31.15625 4.734375 
L 35.84375 9.515625 
Q 42.671875 4.4375 48.734375 -0.734375 
L 43.5625 -6.296875 
Q 38.09375 -0.828125 31.15625 4.734375 
z
" id="MicrosoftYaHei-671f"/>
     </defs>
     <g transform="translate(432.8 413.953438)scale(0.1 -0.1)">
      <use xlink:href="#MicrosoftYaHei-65e5"/>
      <use x="100" xlink:href="#MicrosoftYaHei-671f"/>
     </g>
    </g>
   </g>
   <g id="matplotlib.axis_2">
    <g id="ytick_1">
     <g id="line2d_17">
      <path clip-path="url(#p028423b314)" d="M 108 375.112809 
L 777.6 375.112809 
" style="fill:none;stroke:#b0b0b0;stroke-linecap:square;stroke-width:0.8;"/>
     </g>
     <g id="line2d_18">
      <defs>
       <path d="M 0 0 
L -3.5 0 
" id="med329ee6e5" style="stroke:#000000;stroke-width:0.8;"/>
      </defs>
      <g>
       <use style="stroke:#000000;stroke-width:0.8;" x="108" xlink:href="#med329ee6e5" y="375.112809"/>
      </g>
     </g>
     <g id="text_10">
      <!-- 1.5 -->
      <defs>
       <path d="M 5.8125 5.03125 
Q 5.8125 7.671875 7.609375 9.46875 
Q 9.421875 11.28125 12.109375 11.28125 
Q 14.84375 11.28125 16.640625 9.453125 
Q 18.453125 7.625 18.453125 5.03125 
Q 18.453125 2.484375 16.640625 0.65625 
Q 14.84375 -1.171875 12.0625 -1.171875 
Q 9.375 -1.171875 7.59375 0.65625 
Q 5.8125 2.484375 5.8125 5.03125 
z
" id="MicrosoftYaHei-2e"/>
      </defs>
      <g transform="translate(86.864063 379.109684)scale(0.1 -0.1)">
       <use xlink:href="#MicrosoftYaHei-31"/>
       <use x="58.642578" xlink:href="#MicrosoftYaHei-2e"/>
       <use x="82.714844" xlink:href="#MicrosoftYaHei-35"/>
      </g>
     </g>
    </g>
    <g id="ytick_2">
     <g id="line2d_19">
      <path clip-path="url(#p028423b314)" d="M 108 330.168989 
L 777.6 330.168989 
" style="fill:none;stroke:#b0b0b0;stroke-linecap:square;stroke-width:0.8;"/>
     </g>
     <g id="line2d_20">
      <g>
       <use style="stroke:#000000;stroke-width:0.8;" x="108" xlink:href="#med329ee6e5" y="330.168989"/>
      </g>
     </g>
     <g id="text_11">
      <!-- 2.0 -->
      <g transform="translate(86.864063 334.165864)scale(0.1 -0.1)">
       <use xlink:href="#MicrosoftYaHei-32"/>
       <use x="58.642578" xlink:href="#MicrosoftYaHei-2e"/>
       <use x="82.714844" xlink:href="#MicrosoftYaHei-30"/>
      </g>
     </g>
    </g>
    <g id="ytick_3">
     <g id="line2d_21">
      <path clip-path="url(#p028423b314)" d="M 108 285.225169 
L 777.6 285.225169 
" style="fill:none;stroke:#b0b0b0;stroke-linecap:square;stroke-width:0.8;"/>
     </g>
     <g id="line2d_22">
      <g>
       <use style="stroke:#000000;stroke-width:0.8;" x="108" xlink:href="#med329ee6e5" y="285.225169"/>
      </g>
     </g>
     <g id="text_12">
      <!-- 2.5 -->
      <g transform="translate(86.864063 289.222044)scale(0.1 -0.1)">
       <use xlink:href="#MicrosoftYaHei-32"/>
       <use x="58.642578" xlink:href="#MicrosoftYaHei-2e"/>
       <use x="82.714844" xlink:href="#MicrosoftYaHei-35"/>
      </g>
     </g>
    </g>
    <g id="ytick_4">
     <g id="line2d_23">
      <path clip-path="url(#p028423b314)" d="M 108 240.281348 
L 777.6 240.281348 
" style="fill:none;stroke:#b0b0b0;stroke-linecap:square;stroke-width:0.8;"/>
     </g>
     <g id="line2d_24">
      <g>
       <use style="stroke:#000000;stroke-width:0.8;" x="108" xlink:href="#med329ee6e5" y="240.281348"/>
      </g>
     </g>
     <g id="text_13">
      <!-- 3.0 -->
      <g transform="translate(86.864063 244.278223)scale(0.1 -0.1)">
       <use xlink:href="#MicrosoftYaHei-33"/>
       <use x="58.642578" xlink:href="#MicrosoftYaHei-2e"/>
       <use x="82.714844" xlink:href="#MicrosoftYaHei-30"/>
      </g>
     </g>
    </g>
    <g id="ytick_5">
     <g id="line2d_25">
      <path clip-path="url(#p028423b314)" d="M 108 195.337528 
L 777.6 195.337528 
" style="fill:none;stroke:#b0b0b0;stroke-linecap:square;stroke-width:0.8;"/>
     </g>
     <g id="line2d_26">
      <g>
       <use style="stroke:#000000;stroke-width:0.8;" x="108" xlink:href="#med329ee6e5" y="195.337528"/>
      </g>
     </g>
     <g id="text_14">
      <!-- 3.5 -->
      <g transform="translate(86.864063 199.334403)scale(0.1 -0.1)">
       <use xlink:href="#MicrosoftYaHei-33"/>
       <use x="58.642578" xlink:href="#MicrosoftYaHei-2e"/>
       <use x="82.714844" xlink:href="#MicrosoftYaHei-35"/>
      </g>
     </g>
    </g>
    <g id="ytick_6">
     <g id="line2d_27">
      <path clip-path="url(#p028423b314)" d="M 108 150.393708 
L 777.6 150.393708 
" style="fill:none;stroke:#b0b0b0;stroke-linecap:square;stroke-width:0.8;"/>
     </g>
     <g id="line2d_28">
      <g>
       <use style="stroke:#000000;stroke-width:0.8;" x="108" xlink:href="#med329ee6e5" y="150.393708"/>
      </g>
     </g>
     <g id="text_15">
      <!-- 4.0 -->
      <g transform="translate(86.864063 154.390583)scale(0.1 -0.1)">
       <use xlink:href="#MicrosoftYaHei-34"/>
       <use x="58.642578" xlink:href="#MicrosoftYaHei-2e"/>
       <use x="82.714844" xlink:href="#MicrosoftYaHei-30"/>
      </g>
     </g>
    </g>
    <g id="ytick_7">
     <g id="line2d_29">
      <path clip-path="url(#p028423b314)" d="M 108 105.449888 
L 777.6 105.449888 
" style="fill:none;stroke:#b0b0b0;stroke-linecap:square;stroke-width:0.8;"/>
     </g>
     <g id="line2d_30">
      <g>
       <use style="stroke:#000000;stroke-width:0.8;" x="108" xlink:href="#med329ee6e5" y="105.449888"/>
      </g>
     </g>
     <g id="text_16">
      <!-- 4.5 -->
      <g transform="translate(86.864063 109.446763)scale(0.1 -0.1)">
       <use xlink:href="#MicrosoftYaHei-34"/>
       <use x="58.642578" xlink:href="#MicrosoftYaHei-2e"/>
       <use x="82.714844" xlink:href="#MicrosoftYaHei-35"/>
      </g>
     </g>
    </g>
    <g id="ytick_8">
     <g id="line2d_31">
      <path clip-path="url(#p028423b314)" d="M 108 60.506067 
L 777.6 60.506067 
" style="fill:none;stroke:#b0b0b0;stroke-linecap:square;stroke-width:0.8;"/>
     </g>
     <g id="line2d_32">
      <g>
       <use style="stroke:#000000;stroke-width:0.8;" x="108" xlink:href="#med329ee6e5" y="60.506067"/>
      </g>
     </g>
     <g id="text_17">
      <!-- 5.0 -->
      <g transform="translate(86.864063 64.502942)scale(0.1 -0.1)">
       <use xlink:href="#MicrosoftYaHei-35"/>
       <use x="58.642578" xlink:href="#MicrosoftYaHei-2e"/>
       <use x="82.714844" xlink:href="#MicrosoftYaHei-30"/>
      </g>
     </g>
    </g>
   </g>
   <g id="line2d_33">
    <path clip-path="url(#p028423b314)" d="M 108 270.501573 
L 109.83956 268.48809 
L 111.679121 265.180225 
L 113.518681 262.663371 
L 115.358242 260.425169 
L 117.197802 259.346517 
L 120.876923 259.220674 
L 122.716484 257.908315 
L 124.556044 255.90382 
L 126.395604 255.040899 
L 128.235165 251.804944 
L 130.074725 253.548764 
L 131.914286 255.795955 
L 133.753846 258.96 
L 135.593407 261.602697 
L 137.432967 267.589213 
L 142.951648 275.292584 
L 144.791209 276.461124 
L 146.630769 276.946517 
L 148.47033 276.551011 
L 150.30989 275.948764 
L 152.149451 274.726292 
L 153.989011 272.892584 
L 155.828571 270.37573 
L 159.507692 266.67236 
L 161.347253 265.324045 
L 163.186813 266.546517 
L 165.026374 269.081348 
L 166.865934 272.820674 
L 168.705495 276.128539 
L 170.545055 278.717303 
L 172.384615 278.357753 
L 174.224176 275.840899 
L 177.903297 265.953258 
L 179.742857 262.16 
L 181.582418 259.391461 
L 183.421978 259.013933 
L 185.261538 259.03191 
L 187.101099 259.373483 
L 190.78022 259.265618 
L 192.61978 258.204944 
L 194.459341 257.611685 
L 196.298901 257.773483 
L 198.138462 260.038652 
L 199.978022 260.308315 
L 201.817582 263.094831 
L 205.496703 270.986966 
L 207.336264 272.964494 
L 209.175824 276.613933 
L 211.015385 277.225169 
L 212.854945 275.643146 
L 214.694505 273.000449 
L 218.373626 265.21618 
L 220.213187 263.130787 
L 222.052747 262.501573 
L 223.892308 262.23191 
L 225.731868 263.274607 
L 227.571429 265.755506 
L 229.410989 267.768989 
L 233.09011 273.270112 
L 234.92967 274.420674 
L 236.769231 274.294831 
L 238.608791 270.195955 
L 240.448352 269.07236 
L 242.287912 271.966742 
L 244.127473 275.346517 
L 245.967033 282.16 
L 247.806593 284.461124 
L 249.646154 283.03191 
L 253.325275 270.933034 
L 255.164835 264.946517 
L 257.004396 260.34427 
L 258.843956 258.151011 
L 260.683516 259.346517 
L 262.523077 259.238652 
L 264.362637 259.652135 
L 268.041758 266.37573 
L 269.881319 270.007191 
L 271.720879 275.139775 
L 273.56044 278.825169 
L 275.4 279.68809 
L 277.23956 279.328539 
L 279.079121 280.191461 
L 282.758242 281.43191 
L 284.597802 281.701573 
L 286.437363 282.115056 
L 288.276923 281.090337 
L 291.956044 278.411685 
L 293.795604 277.584719 
L 295.635165 277.297079 
L 297.474725 274.582472 
L 299.314286 273.827416 
L 301.153846 274.025169 
L 302.993407 274.474607 
L 304.832967 274.762247 
L 306.672527 277.674607 
L 308.512088 276.290337 
L 310.351648 274.600449 
L 312.191209 270.771236 
L 314.030769 269.315056 
L 315.87033 268.308315 
L 319.549451 272.568989 
L 321.389011 276.164494 
L 323.228571 277.351011 
L 325.068132 276.991461 
L 326.907692 276.254382 
L 328.747253 275.139775 
L 330.586813 274.906067 
L 332.426374 275.355506 
L 337.945055 279.598202 
L 339.784615 280.335281 
L 341.624176 280.658876 
L 347.142857 278.852135 
L 348.982418 276.245393 
L 350.821978 274.825169 
L 352.661538 275.17573 
L 354.501099 277.386966 
L 356.340659 279.813933 
L 358.18022 282.726292 
L 360.01978 284.002697 
L 361.859341 284.236404 
L 363.698901 282.654382 
L 365.538462 280.658876 
L 367.378022 279.68809 
L 371.057143 275.517303 
L 372.896703 272.353258 
L 374.736264 268.937528 
L 376.575824 266.384719 
L 378.415385 265.108315 
L 380.254945 264.227416 
L 382.094505 263.652135 
L 383.934066 260.524045 
L 385.773626 258.726292 
L 387.613187 259.013933 
L 389.452747 259.858876 
L 391.292308 262.933034 
L 393.131868 269.027416 
L 394.971429 273.50382 
L 396.810989 277.099326 
L 398.650549 280.191461 
L 400.49011 282.115056 
L 402.32967 282.151011 
L 404.169231 280.964494 
L 406.008791 276.542022 
L 407.848352 274.96 
L 409.687912 273.593708 
L 411.527473 274.546517 
L 413.367033 276.63191 
L 415.206593 280.874607 
L 417.046154 282.079101 
L 418.885714 282.708315 
L 420.725275 282.600449 
L 422.564835 278.699326 
L 424.404396 272.335281 
L 426.243956 266.924045 
L 428.083516 262.01618 
L 429.923077 260.829663 
L 431.762637 263.670112 
L 433.602198 269.458876 
L 435.441758 274.420674 
L 437.281319 278.699326 
L 439.120879 279.166742 
L 440.96044 279.166742 
L 442.8 278.681348 
L 444.63956 278.034157 
L 446.479121 277.512809 
L 448.318681 277.207191 
L 450.158242 276.577978 
L 451.997802 276.506067 
L 453.837363 276.595955 
L 455.676923 277.099326 
L 457.516484 278.393708 
L 459.356044 281.521798 
L 461.195604 286.986966 
L 463.035165 286.23191 
L 464.874725 287.040899 
L 466.714286 288.802697 
L 468.553846 293.225169 
L 470.393407 296.04764 
L 472.232967 307.930787 
L 474.072527 317.422921 
L 475.912088 319.436404 
L 477.751648 315.715056 
L 479.591209 309.333034 
L 481.430769 300.110562 
L 483.27033 289.935281 
L 485.10989 284.84764 
L 486.949451 282.708315 
L 488.789011 283.984719 
L 490.628571 286.393708 
L 492.468132 289.899326 
L 494.307692 294.177978 
L 496.147253 297.342022 
L 497.986813 299.049888 
L 499.826374 300.164494 
L 501.665934 303.112809 
L 503.505495 308.27236 
L 505.345055 314.043146 
L 507.184615 320.353258 
L 509.024176 328.173483 
L 510.863736 334.986966 
L 512.703297 343.130787 
L 514.542857 354.025169 
L 516.382418 360.281348 
L 518.221978 360.694831 
L 520.061538 355.409438 
L 521.901099 342.555506 
L 525.58022 309.980225 
L 527.41978 296.425169 
L 529.259341 287.220674 
L 531.098901 281.683596 
L 532.938462 278.213933 
L 534.778022 279.238652 
L 538.457143 285.94427 
L 540.296703 289.728539 
L 542.136264 292.398202 
L 543.975824 295.580225 
L 545.815385 297.07236 
L 547.654945 300.002697 
L 551.334066 308.200449 
L 553.173626 304.299326 
L 556.852747 293.908315 
L 560.531868 279.742022 
L 562.371429 279.094831 
L 566.050549 282.852135 
L 567.89011 281.701573 
L 569.72967 281.611685 
L 571.569231 281.809438 
L 573.408791 281.36 
L 575.248352 279.97573 
L 578.927473 283.625169 
L 580.767033 284.955506 
L 582.606593 292.883596 
L 584.446154 290.906067 
L 586.285714 291.211685 
L 588.125275 290.456629 
L 589.964835 291.301573 
L 591.804396 286.142022 
L 593.643956 289.989213 
L 595.483516 292.84764 
L 597.323077 295.166742 
L 599.162637 295.97573 
L 601.002198 294.771236 
L 602.841758 294.663371 
L 604.681319 292.901573 
L 606.520879 291.499326 
L 608.36044 290.780225 
L 610.2 294.591461 
L 612.03956 301.386966 
L 613.879121 312.586966 
L 615.718681 328.497079 
L 617.558242 328.910562 
L 619.397802 322.942022 
L 621.237363 315.571236 
L 623.076923 305.099326 
L 624.916484 292.443146 
L 626.756044 297.467865 
L 628.595604 307.697079 
L 630.435165 315.589213 
L 632.274725 317.845393 
L 634.114286 314.285843 
L 635.953846 310.070112 
L 637.793407 303.580225 
L 639.632967 298.061124 
L 641.472527 293.710562 
L 643.312088 291.17573 
L 645.151648 286.609438 
L 646.991209 284.506067 
L 648.830769 284.308315 
L 652.50989 286.213933 
L 654.349451 286.933034 
L 656.189011 290.420674 
L 658.028571 285.279101 
L 659.868132 284.973483 
L 661.707692 286.968989 
L 663.547253 291.858876 
L 665.386813 289.054382 
L 667.226374 293.117303 
L 669.065934 294.23191 
L 670.905495 293.908315 
L 672.745055 291.085843 
L 674.584615 289.270112 
L 676.424176 284.973483 
L 678.263736 281.881348 
L 680.103297 278.177978 
L 681.942857 274.043146 
L 683.782418 273.180225 
L 685.621978 276.218427 
L 687.461538 281.773483 
L 691.140659 304.533034 
L 692.98022 318.44764 
L 694.81978 336.712809 
L 696.659341 332.434157 
L 698.498901 328.640899 
L 700.338462 331.229663 
L 702.178022 331.643146 
L 704.017582 352.137528 
L 705.857143 365.315056 
L 707.696703 369.36 
L 709.536264 368.299326 
L 711.375824 360.551011 
L 713.215385 345.611685 
L 715.054945 332.326292 
L 716.894505 323.049888 
L 718.734066 314.591461 
L 720.573626 308.083596 
L 722.413187 308.119551 
L 724.252747 309.234157 
L 726.092308 309.162247 
L 727.931868 305.863371 
L 729.771429 306.690337 
L 731.610989 309.656629 
L 733.450549 314.007191 
L 735.29011 314.456629 
L 737.12967 319.166742 
L 738.969231 317.908315 
L 740.808791 317.764494 
L 742.648352 313.036404 
L 744.487912 317.009438 
L 746.327473 323.804944 
L 748.167033 333.566742 
L 750.006593 340.27236 
L 751.846154 348.227416 
L 753.685714 349.126292 
L 755.525275 346.753258 
L 757.364835 341.198202 
L 759.204396 328.290337 
L 764.723077 286.573483 
L 766.562637 276.613933 
L 768.402198 281.57573 
L 770.241758 293.656629 
L 772.081319 301.548764 
L 773.920879 311.97573 
L 775.76044 321.395955 
L 777.6 323.337528 
L 777.6 323.337528 
" style="fill:none;stroke:#1f77b4;stroke-linecap:square;stroke-width:1.5;"/>
   </g>
   <g id="line2d_34">
    <path clip-path="url(#p028423b314)" d="M 108 257.063371 
L 109.83956 256.299326 
L 113.518681 253.998202 
L 115.358242 253.189213 
L 117.197802 252.721798 
L 120.876923 250.636404 
L 122.716484 249.198202 
L 126.395604 245.521798 
L 128.235165 244.290337 
L 131.914286 244.640899 
L 133.753846 245.404944 
L 135.593407 246.807191 
L 137.432967 248.883596 
L 139.272527 250.177978 
L 141.112088 251.813933 
L 142.951648 253.21618 
L 144.791209 254.034157 
L 150.30989 254.780225 
L 152.149451 254.555506 
L 153.989011 254.025169 
L 155.828571 253.28809 
L 159.507692 251.24764 
L 161.347253 250.627416 
L 163.186813 250.81618 
L 165.026374 251.786966 
L 166.865934 253.422921 
L 170.545055 257.21618 
L 172.384615 258.079101 
L 174.224176 257.710562 
L 176.063736 256.595955 
L 181.582418 251.912809 
L 183.421978 251.562247 
L 185.261538 251.562247 
L 190.78022 252.434157 
L 192.61978 252.290337 
L 196.298901 251.463371 
L 198.138462 251.301573 
L 199.978022 250.81618 
L 201.817582 251.211685 
L 203.657143 252.41618 
L 207.336264 255.54427 
L 209.175824 257.467865 
L 211.015385 258.402697 
L 212.854945 258.366742 
L 214.694505 257.809438 
L 216.534066 256.658876 
L 220.213187 253.980225 
L 222.052747 253.027416 
L 223.892308 252.254382 
L 225.731868 251.840899 
L 227.571429 251.786966 
L 229.410989 251.858876 
L 231.250549 251.679101 
L 233.09011 251.337528 
L 234.92967 250.780225 
L 236.769231 249.809438 
L 238.608791 248.245393 
L 242.287912 253.530787 
L 244.127473 256.766742 
L 245.967033 260.667865 
L 247.806593 262.37573 
L 249.646154 262.537528 
L 251.485714 261.243146 
L 255.164835 256.892584 
L 257.004396 254.465618 
L 258.843956 252.63191 
L 260.683516 251.804944 
L 264.362637 250.798202 
L 266.202198 251.085843 
L 268.041758 251.912809 
L 269.881319 252.41618 
L 273.56044 254.142022 
L 275.4 254.591461 
L 277.23956 254.636404 
L 282.758242 257.827416 
L 284.597802 259.040899 
L 286.437363 260.092584 
L 288.276923 258.08809 
L 290.116484 255.751011 
L 293.795604 250.564494 
L 295.635165 247.742022 
L 297.474725 247.634157 
L 299.314286 248.119551 
L 302.993407 249.521798 
L 304.832967 250.564494 
L 306.672527 251.445393 
L 312.191209 250.528539 
L 315.87033 249.64764 
L 319.549451 250.852135 
L 323.228571 252.218427 
L 325.068132 252.506067 
L 326.907692 252.577978 
L 332.426374 252.27236 
L 337.945055 252.84764 
L 339.784615 253.189213 
L 341.624176 253.207191 
L 343.463736 252.973483 
L 345.303297 252.41618 
L 347.142857 251.661124 
L 348.982418 250.393708 
L 350.821978 250.01618 
L 352.661538 250.08809 
L 354.501099 251.148764 
L 356.340659 252.658876 
L 358.18022 254.645393 
L 360.01978 256.011685 
L 361.859341 257.198202 
L 363.698901 257.737528 
L 365.538462 257.989213 
L 367.378022 258.061124 
L 369.217582 257.413933 
L 371.057143 256.443146 
L 372.896703 254.933034 
L 376.575824 251.463371 
L 378.415385 250.312809 
L 380.254945 249.36 
L 382.094505 248.622921 
L 383.934066 247.094831 
L 385.773626 245.800449 
L 387.613187 246.070112 
L 389.452747 247.130787 
L 391.292308 249.270112 
L 394.971429 257.018427 
L 396.810989 259.858876 
L 398.650549 262.177978 
L 400.49011 263.849888 
L 402.32967 264.389213 
L 404.169231 263.993708 
L 406.008791 262.177978 
L 407.848352 260.739775 
L 409.687912 259.751011 
L 411.527473 259.427416 
L 413.367033 259.751011 
L 415.206593 261.243146 
L 417.046154 262.177978 
L 418.885714 261.710562 
L 420.725275 260.811685 
L 422.564835 259.139775 
L 426.243956 253.926292 
L 428.083516 252.074607 
L 429.923077 251.858876 
L 431.762637 252.685843 
L 433.602198 254.537528 
L 435.441758 256.604944 
L 437.281319 258.852135 
L 439.120879 259.607191 
L 440.96044 259.840899 
L 442.8 259.697079 
L 444.63956 259.229663 
L 448.318681 257.953258 
L 450.158242 257.36 
L 451.997802 256.910562 
L 455.676923 256.443146 
L 457.516484 256.04764 
L 461.195604 255.54427 
L 463.035165 254.771236 
L 464.874725 255.598202 
L 466.714286 257.611685 
L 468.553846 260.70382 
L 470.393407 264.946517 
L 472.232967 269.87236 
L 474.072527 273.07236 
L 475.912088 274.186966 
L 477.751648 273.881348 
L 479.591209 272.425169 
L 483.27033 268.919551 
L 485.10989 268.092584 
L 486.949451 267.679101 
L 488.789011 267.733034 
L 490.628571 267.930787 
L 492.468132 268.667865 
L 494.307692 269.530787 
L 496.147253 270.16 
L 499.826374 270.951011 
L 503.505495 271.202697 
L 505.345055 272.011685 
L 507.184615 273.377978 
L 509.024176 275.697079 
L 510.863736 278.968989 
L 514.542857 288.658876 
L 516.382418 291.067865 
L 518.221978 292.84764 
L 520.061538 292.452135 
L 521.901099 288.802697 
L 523.740659 284.002697 
L 525.58022 280.640899 
L 527.41978 276.613933 
L 529.259341 273.324045 
L 531.098901 271.670112 
L 532.938462 270.771236 
L 534.778022 270.555506 
L 538.457143 271.813933 
L 540.296703 272.425169 
L 542.136264 272.712809 
L 543.975824 272.874607 
L 545.815385 272.497079 
L 547.654945 272.874607 
L 549.494505 273.719551 
L 551.334066 275.409438 
L 553.173626 275.535281 
L 555.013187 274.81618 
L 556.852747 273.773483 
L 558.692308 272.227416 
L 560.531868 270.01618 
L 562.371429 269.476854 
L 564.210989 269.980225 
L 566.050549 270.699326 
L 569.72967 270.843146 
L 571.569231 270.915056 
L 573.408791 270.753258 
L 575.248352 269.800449 
L 577.087912 269.333034 
L 578.927473 268.362247 
L 580.767033 267.085843 
L 582.606593 264.766742 
L 584.446154 263.436404 
L 586.285714 264.407191 
L 588.125275 266.007191 
L 589.964835 268.020674 
L 591.804396 271.112809 
L 593.643956 273.827416 
L 595.483516 274.636404 
L 597.323077 275.17573 
L 599.162637 275.427416 
L 601.002198 275.427416 
L 602.841758 275.301573 
L 604.681319 274.942022 
L 608.36044 273.881348 
L 610.2 273.539775 
L 612.03956 273.611685 
L 613.879121 274.025169 
L 615.718681 274.690337 
L 617.558242 273.180225 
L 619.397802 272.407191 
L 623.076923 271.328539 
L 624.916484 271.058876 
L 626.756044 273.21618 
L 628.595604 274.528539 
L 630.435165 275.427416 
L 632.274725 275.679101 
L 634.114286 275.319551 
L 635.953846 274.654382 
L 639.632967 273.593708 
L 641.472527 273.252135 
L 643.312088 272.676854 
L 645.151648 272.245393 
L 646.991209 272.011685 
L 650.67033 272.011685 
L 652.50989 272.407191 
L 654.349451 272.515056 
L 656.189011 272.371236 
L 658.028571 271.634157 
L 661.707692 272.497079 
L 663.547253 273.737528 
L 665.386813 274.636404 
L 667.226374 275.679101 
L 670.905495 275.679101 
L 672.745055 274.870112 
L 674.584615 274.222921 
L 676.424176 272.928539 
L 678.263736 271.454382 
L 681.942857 269.045393 
L 683.782418 268.326292 
L 687.461538 269.620674 
L 689.301099 270.357753 
L 691.140659 270.681348 
L 692.98022 270.339775 
L 694.81978 269.045393 
L 696.659341 264.658876 
L 698.498901 267.24764 
L 700.338462 269.620674 
L 702.178022 274.043146 
L 704.017582 283.589213 
L 705.857143 286.44764 
L 707.696703 285.728539 
L 709.536264 285.87236 
L 711.375824 283.10382 
L 713.215385 278.070112 
L 715.054945 275.10382 
L 716.894505 274.67236 
L 718.734066 273.539775 
L 720.573626 274.168989 
L 722.413187 275.499326 
L 724.252747 276.506067 
L 727.931868 276.27236 
L 729.771429 275.085843 
L 733.450549 268.452135 
L 735.29011 265.935281 
L 737.12967 264.209438 
L 738.969231 269.386966 
L 740.808791 277.153258 
L 742.648352 280.191461 
L 744.487912 284.56 
L 746.327473 291.03191 
L 748.167033 291.786966 
L 750.006593 291.481348 
L 751.846154 295.094831 
L 753.685714 297.162247 
L 755.525275 296.892584 
L 757.364835 295.652135 
L 761.043956 286.44764 
L 762.883516 280.209438 
L 764.723077 273.50382 
L 766.562637 268.84764 
L 768.402198 270.44764 
L 770.241758 275.445393 
L 772.081319 278.519551 
L 773.920879 283.229663 
L 775.76044 285.764494 
L 777.6 287.97573 
L 777.6 287.97573 
" style="fill:none;stroke:#ff7f0e;stroke-linecap:square;stroke-width:1.5;"/>
   </g>
   <g id="line2d_35">
    <path clip-path="url(#p028423b314)" d="M 108 176.245393 
L 109.83956 175.733034 
L 113.518681 174.08809 
L 115.358242 173.171236 
L 117.197802 172.380225 
L 120.876923 171.229663 
L 126.395604 169.368989 
L 128.235165 168.515056 
L 130.074725 167.849888 
L 133.753846 167.148764 
L 135.593407 167.310562 
L 137.432967 167.795955 
L 142.951648 169.908315 
L 144.791209 170.321798 
L 146.630769 170.519551 
L 148.47033 170.348764 
L 150.30989 169.953258 
L 153.989011 168.856629 
L 155.828571 168.146517 
L 161.347253 165.530787 
L 163.186813 165.009438 
L 165.026374 164.865618 
L 166.865934 165.261124 
L 172.384615 167.670112 
L 174.224176 167.97573 
L 176.063736 167.786966 
L 177.903297 167.184719 
L 181.582418 165.656629 
L 183.421978 165.045393 
L 185.261538 164.56 
L 188.940659 163.840899 
L 196.298901 161.971236 
L 198.138462 161.593708 
L 199.978022 161.342022 
L 201.817582 161.270112 
L 203.657143 161.539775 
L 207.336264 162.582472 
L 209.175824 163.17573 
L 211.015385 163.625169 
L 212.854945 163.786966 
L 214.694505 163.715056 
L 218.373626 163.121798 
L 220.213187 162.762247 
L 225.731868 160.946517 
L 231.250549 158.995955 
L 233.09011 158.204944 
L 234.92967 157.14427 
L 236.769231 155.921798 
L 238.608791 154.483596 
L 240.448352 155.229663 
L 242.287912 158.01618 
L 244.127473 162.025169 
L 245.967033 166.861124 
L 247.806593 171.265618 
L 249.646154 174.213933 
L 251.485714 174.681348 
L 253.325275 173.620674 
L 255.164835 171.894831 
L 258.843956 167.202697 
L 260.683516 165.998202 
L 266.202198 164.056629 
L 268.041758 163.589213 
L 271.720879 163.03191 
L 273.56044 162.870112 
L 279.079121 162.968989 
L 282.758242 162.681348 
L 284.597802 162.37573 
L 286.437363 161.881348 
L 290.116484 161.054382 
L 291.956044 160.407191 
L 293.795604 159.61618 
L 295.635165 158.44764 
L 297.474725 158.609438 
L 299.314286 159.274607 
L 301.153846 160.083596 
L 302.993407 161.180225 
L 304.832967 163.013933 
L 306.672527 163.786966 
L 308.512088 164.020674 
L 312.191209 164.811685 
L 314.030769 164.919551 
L 315.87033 164.811685 
L 321.389011 165.189213 
L 326.907692 165.764494 
L 330.586813 165.926292 
L 334.265934 165.998202 
L 336.105495 165.836404 
L 339.784615 164.937528 
L 341.624176 164.398202 
L 343.463736 163.724045 
L 345.303297 163.193708 
L 348.982418 162.312809 
L 350.821978 162.465618 
L 352.661538 162.96 
L 354.501099 164.479101 
L 356.340659 166.780225 
L 360.01978 172.48809 
L 361.859341 175.238652 
L 363.698901 177.162247 
L 365.538462 178.456629 
L 367.378022 179.193708 
L 369.217582 178.798202 
L 371.057143 177.64764 
L 372.896703 175.706067 
L 376.575824 171.03191 
L 378.415385 169.162247 
L 380.254945 167.849888 
L 382.094505 167.022921 
L 385.773626 164.84764 
L 387.613187 164.757753 
L 389.452747 165.440899 
L 391.292308 167.10382 
L 393.131868 170.124045 
L 394.971429 173.809438 
L 396.810989 177.135281 
L 398.650549 180.04764 
L 400.49011 182.37573 
L 402.32967 184.137528 
L 404.169231 185.07236 
L 406.008791 184.892584 
L 407.848352 184.389213 
L 409.687912 183.490337 
L 411.527473 182.142022 
L 413.367033 181.027416 
L 418.885714 179.373483 
L 420.725275 178.995955 
L 422.564835 178.240899 
L 428.083516 175.436404 
L 429.923077 174.771236 
L 431.762637 174.807191 
L 433.602198 175.526292 
L 435.441758 176.604944 
L 439.120879 179.24764 
L 440.96044 180.218427 
L 442.8 180.811685 
L 444.63956 180.991461 
L 446.479121 180.973483 
L 448.318681 180.362247 
L 450.158242 179.391461 
L 453.837363 176.425169 
L 457.516484 173.063371 
L 461.195604 170.258876 
L 463.035165 168.928539 
L 464.874725 168.604944 
L 466.714286 170.798202 
L 468.553846 176.191461 
L 470.393407 185.521798 
L 475.912088 219.912809 
L 477.751648 227.966742 
L 479.591209 232.658876 
L 481.430769 235.337528 
L 483.27033 236.883596 
L 486.949451 238.951011 
L 488.789011 239.993708 
L 490.628571 241.180225 
L 492.468132 242.654382 
L 497.986813 247.742022 
L 501.665934 251.571236 
L 503.505495 253.386966 
L 505.345055 255.562247 
L 507.184615 258.402697 
L 509.024176 261.584719 
L 510.863736 265.629663 
L 512.703297 270.897079 
L 514.542857 276.70382 
L 516.382418 281.413933 
L 518.221978 285.189213 
L 520.061538 287.61618 
L 521.901099 288.04764 
L 523.740659 286.933034 
L 525.58022 285.099326 
L 527.41978 282.600449 
L 529.259341 278.663371 
L 532.938462 270.052135 
L 534.778022 266.546517 
L 536.617582 263.97573 
L 538.457143 262.951011 
L 540.296703 263.148764 
L 542.136264 264.011685 
L 545.815385 266.474607 
L 551.334066 270.843146 
L 553.173626 271.706067 
L 555.013187 271.256629 
L 556.852747 270.357753 
L 558.692308 268.757753 
L 560.531868 266.762247 
L 562.371429 265.07236 
L 564.210989 264.910562 
L 566.050549 265.07236 
L 569.72967 265.629663 
L 571.569231 265.611685 
L 573.408791 265.036404 
L 575.248352 263.508315 
L 577.087912 260.63191 
L 578.927473 255.83191 
L 580.767033 248.748764 
L 582.606593 238.609438 
L 584.446154 226.348764 
L 586.285714 228.380225 
L 588.125275 233.467865 
L 589.964835 241.629663 
L 591.804396 253.494831 
L 593.643956 268.398202 
L 595.483516 270.717303 
L 597.323077 271.97573 
L 599.162637 272.712809 
L 601.002198 272.946517 
L 602.841758 272.874607 
L 604.681319 272.640899 
L 610.2 271.652135 
L 613.879121 271.598202 
L 615.718681 271.83191 
L 617.558242 270.44764 
L 619.397802 269.728539 
L 621.237363 269.512809 
L 624.916484 269.386966 
L 626.756044 271.256629 
L 628.595604 272.551011 
L 630.435165 273.36 
L 632.274725 273.809438 
L 634.114286 273.989213 
L 635.953846 273.773483 
L 639.632967 273.000449 
L 641.472527 272.586966 
L 645.151648 271.130787 
L 646.991209 270.591461 
L 650.67033 270.142022 
L 656.189011 270.735281 
L 658.028571 270.411685 
L 659.868132 270.645393 
L 661.707692 271.058876 
L 667.226374 273.863371 
L 669.065934 274.330787 
L 670.905495 274.618427 
L 672.745055 274.294831 
L 674.584615 273.827416 
L 676.424176 272.784719 
L 678.263736 270.897079 
L 680.103297 268.34427 
L 681.942857 265.521798 
L 685.621978 258.852135 
L 687.461538 253.404944 
L 689.301099 246.879101 
L 691.140659 238.879101 
L 694.81978 220.811685 
L 696.659341 214.177978 
L 698.498901 230.142022 
L 700.338462 242.852135 
L 702.178022 257.719551 
L 704.017582 274.115056 
L 705.857143 279.957753 
L 707.696703 283.03191 
L 709.536264 284.829663 
L 711.375824 284.829663 
L 713.215385 283.337528 
L 715.054945 281.557753 
L 716.894505 280.353258 
L 718.734066 279.580225 
L 720.573626 277.854382 
L 724.252747 273.21618 
L 726.092308 270.573483 
L 727.931868 267.157753 
L 729.771429 262.753258 
L 733.450549 252.41618 
L 735.29011 247.68809 
L 737.12967 245.980225 
L 738.969231 251.571236 
L 740.808791 260.77573 
L 744.487912 277.980225 
L 746.327473 285.189213 
L 748.167033 288.317303 
L 750.006593 289.701573 
L 751.846154 291.930787 
L 753.685714 293.602697 
L 755.525275 294.393708 
L 757.364835 294.177978 
L 759.204396 291.930787 
L 761.043956 287.795955 
L 762.883516 279.562247 
L 764.723077 270.771236 
L 766.562637 265.000449 
L 768.402198 264.155506 
L 770.241758 267.822921 
L 772.081319 274.510562 
L 773.920879 281.683596 
L 775.76044 286.052135 
L 777.6 288.155506 
L 777.6 288.155506 
" style="fill:none;stroke:#2ca02c;stroke-linecap:square;stroke-width:1.5;"/>
   </g>
   <g id="line2d_36">
    <path clip-path="url(#p028423b314)" d="M 108 156.020674 
L 109.83956 155.436404 
L 111.679121 154.600449 
L 115.358242 152.649888 
L 117.197802 151.939775 
L 122.716484 150.429663 
L 124.556044 149.225169 
L 126.395604 147.724045 
L 128.235165 146.37573 
L 130.074725 145.377978 
L 131.914286 144.685843 
L 133.753846 144.766742 
L 137.432967 145.548764 
L 144.791209 146.977978 
L 148.47033 147.840899 
L 152.149451 148.425169 
L 155.828571 148.667865 
L 157.668132 148.667865 
L 163.186813 148.155506 
L 165.026374 148.27236 
L 166.865934 148.524045 
L 172.384615 150.151011 
L 174.224176 150.204944 
L 176.063736 150.070112 
L 179.742857 149.351011 
L 183.421978 148.568989 
L 187.101099 147.885843 
L 188.940659 147.508315 
L 192.61978 147.166742 
L 196.298901 147.013933 
L 198.138462 147.03191 
L 199.978022 146.429663 
L 201.817582 144.182472 
L 203.657143 140.551011 
L 205.496703 135.751011 
L 207.336264 130.312809 
L 209.175824 124.506067 
L 211.015385 119.652135 
L 212.854945 115.715056 
L 216.534066 109.054382 
L 220.213187 103.54427 
L 222.052747 100.290337 
L 223.892308 96.748764 
L 227.571429 88.982472 
L 229.410989 84.326292 
L 231.250549 79.328539 
L 233.09011 75.004944 
L 234.92967 71.54427 
L 236.769231 68.667865 
L 238.608791 66.96 
L 242.287912 83.733034 
L 244.127473 93.728539 
L 245.967033 105.36 
L 247.806593 114.74427 
L 249.646154 122.654382 
L 251.485714 128.27236 
L 253.325275 132.991461 
L 255.164835 136.551011 
L 257.004396 138.834157 
L 258.843956 140.479101 
L 260.683516 141.755506 
L 262.523077 141.791461 
L 268.041758 140.577978 
L 269.881319 139.948764 
L 277.23956 138.924045 
L 280.918681 138.753258 
L 282.758242 139.121798 
L 284.597802 139.840899 
L 286.437363 140.70382 
L 290.116484 142.690337 
L 291.956044 143.364494 
L 295.635165 143.795955 
L 299.314286 143.984719 
L 301.153846 144.227416 
L 304.832967 145.099326 
L 306.672527 145.773483 
L 308.512088 146.195955 
L 310.351648 146.474607 
L 312.191209 146.609438 
L 314.030769 146.097079 
L 315.87033 144.173483 
L 317.70989 141.458876 
L 319.549451 137.611685 
L 325.068132 122.483596 
L 326.907692 117.737528 
L 328.747253 113.485843 
L 330.586813 110.186966 
L 332.426374 107.643146 
L 334.265934 105.809438 
L 336.105495 104.973483 
L 337.945055 105.413933 
L 339.784615 106.74427 
L 341.624176 108.586966 
L 343.463736 110.717303 
L 347.142857 116.380225 
L 348.982418 119.040899 
L 350.821978 123.022921 
L 352.661538 127.768989 
L 354.501099 132.84764 
L 360.01978 148.910562 
L 361.859341 153.50382 
L 363.698901 157.422921 
L 365.538462 160.766742 
L 367.378022 163.445393 
L 369.217582 164.901573 
L 372.896703 166.717303 
L 376.575824 169.126292 
L 378.415385 170.67236 
L 380.254945 171.409438 
L 382.094505 170.079101 
L 383.934066 167.598202 
L 387.613187 162.312809 
L 389.452747 160.694831 
L 391.292308 160.946517 
L 393.131868 162.007191 
L 398.650549 165.818427 
L 400.49011 166.753258 
L 402.32967 167.454382 
L 404.169231 167.742022 
L 406.008791 167.580225 
L 407.848352 167.130787 
L 411.527473 165.962247 
L 413.367033 165.512809 
L 418.885714 164.721798 
L 422.564835 164.362247 
L 424.404396 163.804944 
L 426.243956 162.726292 
L 428.083516 160.586966 
L 429.923077 157.836404 
L 433.602198 151.634157 
L 435.441758 149.027416 
L 439.120879 145.827416 
L 442.8 143.652135 
L 444.63956 142.627416 
L 446.479121 141.333034 
L 448.318681 140.236404 
L 450.158242 138.977978 
L 451.997802 137.971236 
L 453.837363 137.180225 
L 455.676923 137.036404 
L 457.516484 137.377978 
L 459.356044 138.456629 
L 461.195604 140.128539 
L 463.035165 142.285843 
L 464.874725 144.622921 
L 466.714286 148.982472 
L 468.553846 155.54427 
L 470.393407 164.407191 
L 472.232967 174.924045 
L 474.072527 186.861124 
L 475.912088 197.602697 
L 477.751648 206.429663 
L 479.591209 212.70382 
L 481.430769 216.982472 
L 483.27033 219.319551 
L 485.10989 220.577978 
L 490.628571 221.94427 
L 492.468132 222.807191 
L 494.307692 224.497079 
L 496.147253 226.492584 
L 497.986813 228.77573 
L 499.826374 231.436404 
L 501.665934 234.456629 
L 503.505495 237.261124 
L 505.345055 240.281348 
L 509.024176 247.202697 
L 510.863736 250.852135 
L 512.703297 255.112809 
L 516.382418 264.065618 
L 518.221978 268.038652 
L 520.061538 271.418427 
L 521.901099 273.485843 
L 523.740659 274.330787 
L 525.58022 274.402697 
L 527.41978 273.737528 
L 529.259341 272.425169 
L 531.098901 270.968989 
L 532.938462 269.710562 
L 536.617582 266.528539 
L 538.457143 265.180225 
L 540.296703 264.173483 
L 542.136264 263.436404 
L 543.975824 263.508315 
L 545.815385 263.83191 
L 547.654945 264.461124 
L 551.334066 266.079101 
L 553.173626 266.564494 
L 555.013187 266.708315 
L 556.852747 266.582472 
L 558.692308 266.061124 
L 564.210989 263.202697 
L 566.050549 262.735281 
L 567.89011 262.411685 
L 569.72967 262.411685 
L 573.408791 262.573483 
L 575.248352 262.177978 
L 577.087912 261.602697 
L 582.606593 259.03191 
L 584.446154 258.474607 
L 586.285714 258.546517 
L 588.125275 259.715056 
L 589.964835 261.422921 
L 591.804396 263.400449 
L 595.483516 267.589213 
L 597.323077 268.955506 
L 599.162637 269.926292 
L 601.002198 270.663371 
L 602.841758 271.148764 
L 604.681319 271.238652 
L 606.520879 270.986966 
L 612.03956 269.800449 
L 613.879121 269.638652 
L 615.718681 269.800449 
L 617.558242 269.548764 
L 624.916484 268.074607 
L 626.756044 268.236404 
L 632.274725 269.261124 
L 635.953846 269.153258 
L 639.632967 268.793708 
L 650.67033 267.715056 
L 656.189011 267.661124 
L 658.028571 267.481348 
L 659.868132 267.10382 
L 661.707692 266.240899 
L 663.547253 264.748764 
L 665.386813 262.717303 
L 669.065934 258.204944 
L 670.905495 256.353258 
L 674.584615 253.081348 
L 676.424176 250.600449 
L 678.263736 247.652135 
L 680.103297 244.308315 
L 681.942857 241.198202 
L 683.782418 237.386966 
L 685.621978 234.007191 
L 687.461538 229.87236 
L 689.301099 225.054382 
L 694.81978 206.249888 
L 696.659341 201.935281 
L 698.498901 209.395955 
L 700.338462 217.665618 
L 702.178022 228.146517 
L 704.017582 239.777978 
L 705.857143 247.148764 
L 707.696703 252.595955 
L 709.536264 256.874607 
L 711.375824 259.283596 
L 713.215385 260.146517 
L 715.054945 260.380225 
L 716.894505 260.452135 
L 720.573626 260.164494 
L 722.413187 259.804944 
L 726.092308 258.67236 
L 731.610989 256.479101 
L 735.29011 255.364494 
L 737.12967 255.076854 
L 738.969231 255.238652 
L 740.808791 255.724045 
L 742.648352 256.712809 
L 744.487912 258.133034 
L 748.167033 261.87236 
L 750.006593 263.849888 
L 751.846154 265.611685 
L 755.525275 268.506067 
L 757.364835 269.638652 
L 759.204396 270.393708 
L 761.043956 270.897079 
L 762.883516 270.807191 
L 764.723077 270.249888 
L 770.241758 268.020674 
L 773.920879 267.391461 
L 777.6 266.977978 
L 777.6 266.977978 
" style="fill:none;stroke:#d62728;stroke-linecap:square;stroke-width:1.5;"/>
   </g>
   <g id="line2d_37">
    <path clip-path="url(#p028423b314)" d="M 108 114.339775 
L 111.679121 114.330787 
L 122.716484 114.115056 
L 130.074725 114.061124 
L 144.791209 114.294831 
L 157.668132 113.998202 
L 161.347253 113.36 
L 165.026374 112.407191 
L 168.705495 111.535281 
L 174.224176 110.37573 
L 176.063736 109.845393 
L 177.903297 109.171236 
L 179.742857 108.101573 
L 181.582418 106.420674 
L 185.261538 102.429663 
L 187.101099 100.524045 
L 188.940659 98.933034 
L 190.78022 97.962247 
L 207.336264 92.964494 
L 216.534066 90.968989 
L 218.373626 90.348764 
L 220.213187 89.566742 
L 223.892308 88.317303 
L 229.410989 85.593708 
L 233.09011 83.292584 
L 234.92967 82.618427 
L 236.769231 82.204944 
L 238.608791 82.043146 
L 240.448352 82.771236 
L 244.127473 83.97573 
L 245.967033 84.658876 
L 247.806593 85.14427 
L 249.646154 85.43191 
L 253.325275 85.557753 
L 257.004396 85.297079 
L 262.523077 84.622921 
L 266.202198 84.074607 
L 269.881319 83.733034 
L 273.56044 83.670112 
L 279.079121 83.598202 
L 288.276923 83.382472 
L 301.153846 83.508315 
L 308.512088 83.697079 
L 337.945055 83.804944 
L 341.624176 84.443146 
L 345.303297 85.342022 
L 347.142857 86.402697 
L 348.982418 87.733034 
L 350.821978 89.494831 
L 352.661538 91.571236 
L 354.501099 93.998202 
L 356.340659 96.137528 
L 358.18022 97.971236 
L 360.01978 99.463371 
L 361.859341 100.63191 
L 363.698901 101.422921 
L 365.538462 101.854382 
L 367.378022 102.124045 
L 369.217582 102.213933 
L 371.057143 102.897079 
L 372.896703 104.479101 
L 376.575824 108.811685 
L 378.415385 111.382472 
L 380.254945 113.539775 
L 382.094505 114.708315 
L 383.934066 115.319551 
L 385.773626 115.804944 
L 391.292308 116.883596 
L 394.971429 118.142022 
L 396.810989 118.681348 
L 398.650549 119.004944 
L 400.49011 119.166742 
L 404.169231 118.968989 
L 407.848352 118.30382 
L 411.527473 117.584719 
L 415.206593 117.117303 
L 422.564835 116.70382 
L 426.243956 116.182472 
L 431.762637 115.319551 
L 437.281319 114.924045 
L 448.318681 114.474607 
L 453.837363 114.492584 
L 457.516484 115.085843 
L 459.356044 115.625169 
L 461.195604 116.48809 
L 463.035165 117.692584 
L 464.874725 119.256629 
L 466.714286 122.079101 
L 468.553846 126.052135 
L 470.393407 130.906067 
L 474.072527 141.351011 
L 475.912088 145.485843 
L 477.751648 148.595955 
L 479.591209 150.627416 
L 481.430769 152.029663 
L 483.27033 152.874607 
L 485.10989 153.324045 
L 490.628571 153.719551 
L 492.468132 154.420674 
L 494.307692 155.715056 
L 496.147253 157.836404 
L 497.986813 160.533034 
L 499.826374 163.625169 
L 503.505495 170.294831 
L 505.345055 173.333034 
L 507.184615 176.676854 
L 509.024176 180.811685 
L 510.863736 185.521798 
L 512.703297 191.220674 
L 516.382418 204.48809 
L 518.221978 210.007191 
L 520.061538 214.321798 
L 521.901099 216.658876 
L 523.740659 217.180225 
L 525.58022 215.867865 
L 527.41978 213.710562 
L 531.098901 207.382472 
L 532.938462 203.679101 
L 534.778022 200.389213 
L 536.617582 197.746517 
L 538.457143 195.840899 
L 540.296703 194.618427 
L 542.136264 194.294831 
L 547.654945 194.726292 
L 551.334066 195.139775 
L 555.013187 195.301573 
L 558.692308 195.319551 
L 560.531868 195.085843 
L 566.050549 194.01618 
L 567.89011 193.782472 
L 569.72967 193.782472 
L 573.408791 194.061124 
L 577.087912 193.827416 
L 582.606593 193.234157 
L 584.446154 193.21618 
L 586.285714 193.413933 
L 591.804396 194.528539 
L 593.643956 194.81618 
L 595.483516 194.942022 
L 602.841758 194.870112 
L 604.681319 194.67236 
L 606.520879 194.186966 
L 608.36044 193.485843 
L 612.03956 191.849888 
L 613.879121 191.238652 
L 615.718681 190.915056 
L 617.558242 190.807191 
L 624.916484 190.843146 
L 632.274725 190.735281 
L 635.953846 190.537528 
L 641.472527 190.555506 
L 648.830769 191.706067 
L 650.67033 192.173483 
L 654.349451 192.748764 
L 658.028571 192.910562 
L 663.547253 192.910562 
L 676.424176 193.377978 
L 678.263736 193.485843 
L 687.461538 193.467865 
L 692.98022 193.683596 
L 696.659341 193.593708 
L 700.338462 194.366742 
L 702.178022 195.355506 
L 704.017582 196.919551 
L 705.857143 198.897079 
L 707.696703 201.234157 
L 709.536264 203.876854 
L 711.375824 206.195955 
L 713.215385 208.119551 
L 715.054945 209.683596 
L 716.894505 210.995955 
L 718.734066 211.858876 
L 720.573626 212.524045 
L 722.413187 212.955506 
L 724.252747 213.207191 
L 727.931868 213.422921 
L 729.771429 213.584719 
L 731.610989 213.908315 
L 733.450549 214.429663 
L 737.12967 216.245393 
L 742.648352 220.308315 
L 744.487912 221.746517 
L 748.167033 225.234157 
L 750.006593 227.157753 
L 751.846154 229.261124 
L 753.685714 231.040899 
L 755.525275 232.425169 
L 757.364835 233.43191 
L 759.204396 234.007191 
L 761.043956 234.402697 
L 764.723077 234.798202 
L 773.920879 235.157753 
L 777.6 235.301573 
L 777.6 235.301573 
" style="fill:none;stroke:#9467bd;stroke-linecap:square;stroke-width:1.5;"/>
   </g>
   <g id="patch_3">
    <path d="M 108 384.48 
L 108 51.84 
" style="fill:none;stroke:#000000;stroke-linecap:square;stroke-linejoin:miter;stroke-width:0.8;"/>
   </g>
   <g id="patch_4">
    <path d="M 777.6 384.48 
L 777.6 51.84 
" style="fill:none;stroke:#000000;stroke-linecap:square;stroke-linejoin:miter;stroke-width:0.8;"/>
   </g>
   <g id="patch_5">
    <path d="M 108 384.48 
L 777.6 384.48 
" style="fill:none;stroke:#000000;stroke-linecap:square;stroke-linejoin:miter;stroke-width:0.8;"/>
   </g>
   <g id="patch_6">
    <path d="M 108 51.84 
L 777.6 51.84 
" style="fill:none;stroke:#000000;stroke-linecap:square;stroke-linejoin:miter;stroke-width:0.8;"/>
   </g>
   <g id="legend_1">
    <g id="patch_7">
     <path d="M 678.409375 137.238438 
L 770.6 137.238438 
Q 772.6 137.238438 772.6 135.238438 
L 772.6 58.84 
Q 772.6 56.84 770.6 56.84 
L 678.409375 56.84 
Q 676.409375 56.84 676.409375 58.84 
L 676.409375 135.238438 
Q 676.409375 137.238438 678.409375 137.238438 
z
" style="fill:#ffffff;opacity:0.8;stroke:#cccccc;stroke-linejoin:miter;"/>
    </g>
    <g id="line2d_38">
     <path d="M 680.409375 65.33375 
L 700.409375 65.33375 
" style="fill:none;stroke:#1f77b4;stroke-linecap:square;stroke-width:1.5;"/>
    </g>
    <g id="line2d_39"/>
    <g id="text_18">
     <!-- 隔夜-5日均值 -->
     <defs>
      <path d="M 32.90625 28.5625 
Q 35.25 10.296875 24.21875 7.953125 
Q 20.40625 7.28125 15.328125 7.859375 
Q 14.546875 11.671875 13.28125 15.28125 
L 13.28125 -13.03125 
L 6.25 -13.03125 
L 6.25 78.65625 
L 32.8125 78.65625 
L 32.8125 72.125 
Q 28.03125 55.71875 24.90625 46.234375 
Q 31.9375 36.578125 32.90625 28.5625 
z
M 44.53125 -13.234375 
L 37.703125 -13.234375 
L 37.703125 37.453125 
L 94.34375 37.453125 
L 94.34375 -3.65625 
Q 94.34375 -12.84375 85.25 -12.84375 
Q 80.953125 -12.84375 74.609375 -12.75 
Q 74.125 -10.5 73.140625 -5.421875 
Q 79 -5.8125 83.5 -5.8125 
Q 87.5 -5.8125 87.5 -1.703125 
L 87.5 31.390625 
L 44.53125 31.390625 
z
M 43.359375 65.765625 
L 88.484375 65.765625 
L 88.484375 41.75 
L 81.453125 41.75 
L 81.453125 44.28125 
L 50.390625 44.28125 
L 50.390625 41.75 
L 43.359375 41.75 
z
M 21.484375 14.890625 
Q 27.734375 15.578125 25.6875 28.265625 
Q 24.421875 36.46875 17.671875 44.96875 
Q 21.875 57.46875 25.78125 72.125 
L 13.28125 72.125 
L 13.28125 15.671875 
Q 17.671875 14.5 21.484375 14.890625 
z
M 47.859375 15.28125 
L 67.578125 15.28125 
Q 72.515625 24.21875 75.296875 30.515625 
L 81.734375 27 
Q 78.078125 20.90625 74.46875 15.28125 
L 84.1875 15.28125 
L 84.1875 9.421875 
L 69.234375 9.421875 
L 69.234375 -11.671875 
L 62.59375 -11.671875 
L 62.59375 9.421875 
L 47.859375 9.421875 
z
M 37.109375 78.765625 
L 96.296875 78.765625 
L 96.296875 72.40625 
L 37.109375 72.40625 
z
M 81.453125 59.90625 
L 50.390625 59.90625 
L 50.390625 50.140625 
L 81.453125 50.140625 
z
M 50.390625 27.296875 
L 55.765625 30.421875 
Q 59.96875 24.859375 62.890625 19.390625 
L 57.03125 15.96875 
Q 54.296875 21.234375 50.390625 27.296875 
z
" id="MicrosoftYaHei-9694"/>
      <path d="M 27.828125 23.578125 
Q 42.578125 39.40625 51.265625 60.890625 
L 58.6875 58.34375 
Q 56.9375 54.34375 55.03125 50.53125 
L 89.15625 50.53125 
L 89.15625 43.5 
Q 82.125 21.625 69.1875 8.15625 
Q 81.453125 -0.390625 98.640625 -4.734375 
Q 95.703125 -9.03125 93.5625 -12.9375 
Q 75.390625 -7.078125 62.984375 2.484375 
Q 51.3125 -6.84375 34.375 -13.53125 
Q 32.515625 -10.5 29.5 -6.6875 
Q 45.515625 -0.484375 56.78125 7.953125 
Q 48.578125 16.359375 42.28125 29.15625 
Q 38.28125 23.53125 33.796875 18.40625 
Q 30.5625 21.4375 27.828125 23.578125 
z
M 2.9375 69.09375 
L 50.734375 69.09375 
Q 47.703125 74.265625 43.65625 79.734375 
L 49.8125 83.734375 
Q 53.8125 78.65625 58.015625 72.015625 
L 53.421875 69.09375 
L 97.5625 69.09375 
L 97.5625 61.859375 
L 2.9375 61.859375 
z
M 1.5625 23 
Q 18.265625 40.484375 26.46875 60.984375 
L 33.984375 58.453125 
Q 28.90625 47.859375 23.640625 39.203125 
L 23.640625 -13.03125 
L 16.21875 -13.03125 
L 16.21875 28.078125 
Q 10.5 20.359375 4.59375 14.796875 
Q 3.21875 18.703125 1.5625 23 
z
M 81.15625 43.5 
L 51.3125 43.5 
Q 49.171875 39.546875 46.78125 35.84375 
Q 53.421875 22.078125 62.9375 13.234375 
Q 75 24.953125 81.15625 43.5 
z
M 54.203125 35.296875 
L 58.890625 39.890625 
Q 64.546875 35.109375 69.734375 29.640625 
L 64.453125 24.5625 
Q 60.453125 29.34375 54.203125 35.296875 
z
" id="MicrosoftYaHei-591c"/>
      <path d="M 35.0625 43.796875 
Q 45.796875 61.765625 52.15625 83.15625 
L 59.96875 80.8125 
Q 57.671875 74.125 55.171875 67.921875 
L 93.953125 67.921875 
Q 92.578125 16.453125 91.796875 4.640625 
Q 91.109375 -10.890625 75.09375 -10.890625 
Q 65.4375 -10.890625 57.90625 -10.5 
Q 57.328125 -6.59375 56.34375 -2.203125 
L 56.640625 -2.203125 
Q 66.40625 -3.265625 74.609375 -3.265625 
Q 83.59375 -3.265625 84.28125 5.90625 
Q 85.25 22.609375 86.140625 60.796875 
L 52.203125 60.796875 
Q 47.3125 49.5625 41.796875 40.1875 
Q 38.765625 42.046875 35.0625 43.796875 
z
M 1.265625 6.6875 
Q 8.734375 9.375 15.71875 12.015625 
L 15.71875 50.828125 
L 2.640625 50.828125 
L 2.640625 57.765625 
L 15.71875 57.765625 
L 15.71875 82.171875 
L 22.953125 82.171875 
L 22.953125 57.765625 
L 35.640625 57.765625 
L 35.640625 50.828125 
L 22.953125 50.828125 
L 22.953125 14.796875 
Q 30.03125 17.578125 36.53125 20.359375 
Q 36.71875 15.484375 37.015625 12.25 
Q 21.296875 6.296875 3.90625 -0.828125 
z
M 39.265625 13.328125 
Q 58.890625 21.140625 79.984375 30.21875 
Q 80.46875 25.640625 81.0625 22.40625 
Q 62.984375 14.796875 42.28125 5.609375 
z
M 49.03125 45.453125 
L 54.390625 50.25 
Q 62.890625 42.4375 70.796875 34.625 
L 64.453125 29.046875 
Q 56.9375 37.640625 49.03125 45.453125 
z
" id="MicrosoftYaHei-5747"/>
      <path d="M 25.296875 -3.375 
L 35.15625 -3.375 
L 35.15625 57.078125 
L 58.203125 57.078125 
L 58.203125 65.96875 
L 29.890625 65.96875 
L 29.890625 72.609375 
L 58.203125 72.609375 
L 58.203125 82.953125 
L 65.625 82.953125 
L 65.625 72.609375 
L 96.390625 72.609375 
L 96.390625 65.96875 
L 65.625 65.96875 
L 65.625 57.078125 
L 89.265625 57.078125 
L 89.265625 -3.375 
L 98.53125 -3.375 
L 98.53125 -10.015625 
L 25.296875 -10.015625 
z
M 1.078125 35.109375 
Q 14.15625 54.640625 21.390625 82.46875 
L 28.609375 80.328125 
Q 24.703125 67.71875 20.125 56.6875 
L 20.125 -12.75 
L 12.984375 -12.75 
L 12.984375 41.65625 
Q 8.796875 33.84375 4.109375 27.09375 
Q 2.734375 31.203125 1.078125 35.109375 
z
M 42.390625 -3.375 
L 82.03125 -3.375 
L 82.03125 5.515625 
L 42.390625 5.515625 
z
M 82.03125 50.640625 
L 42.390625 50.640625 
L 42.390625 41.84375 
L 82.03125 41.84375 
z
M 42.390625 26.8125 
L 82.03125 26.8125 
L 82.03125 35.59375 
L 42.390625 35.59375 
z
M 42.390625 11.765625 
L 82.03125 11.765625 
L 82.03125 20.5625 
L 42.390625 20.5625 
z
" id="MicrosoftYaHei-503c"/>
     </defs>
     <g transform="translate(708.409375 68.83375)scale(0.1 -0.1)">
      <use xlink:href="#MicrosoftYaHei-9694"/>
      <use x="100" xlink:href="#MicrosoftYaHei-591c"/>
      <use x="200" xlink:href="#MicrosoftYaHei-2d"/>
      <use x="243.261719" xlink:href="#MicrosoftYaHei-35"/>
      <use x="301.904297" xlink:href="#MicrosoftYaHei-65e5"/>
      <use x="401.904297" xlink:href="#MicrosoftYaHei-5747"/>
      <use x="501.904297" xlink:href="#MicrosoftYaHei-503c"/>
     </g>
    </g>
    <g id="line2d_40">
     <path d="M 680.409375 80.813438 
L 700.409375 80.813438 
" style="fill:none;stroke:#ff7f0e;stroke-linecap:square;stroke-width:1.5;"/>
    </g>
    <g id="line2d_41"/>
    <g id="text_19">
     <!-- 1W-5日均值 -->
     <defs>
      <path d="M 100.484375 75.640625 
L 79.296875 0 
L 67.921875 0 
L 52.6875 54.5 
Q 51.65625 58.203125 51.46875 62.3125 
L 51.265625 62.3125 
Q 50.984375 58.25 49.90625 54.59375 
L 34.515625 0 
L 23.25 0 
L 1.3125 75.640625 
L 12.109375 75.640625 
L 27.546875 18.5 
Q 28.5625 14.65625 28.765625 10.75 
L 29.046875 10.75 
Q 29.296875 13.671875 30.671875 18.5 
L 47.015625 75.640625 
L 56.640625 75.640625 
L 72.265625 18.0625 
Q 73.046875 15.234375 73.53125 10.84375 
L 73.734375 10.84375 
Q 73.96875 14.015625 75.140625 18.265625 
L 89.984375 75.640625 
z
" id="MicrosoftYaHei-57"/>
     </defs>
     <g transform="translate(708.409375 84.313438)scale(0.1 -0.1)">
      <use xlink:href="#MicrosoftYaHei-31"/>
      <use x="58.642578" xlink:href="#MicrosoftYaHei-57"/>
      <use x="160.400391" xlink:href="#MicrosoftYaHei-2d"/>
      <use x="203.662109" xlink:href="#MicrosoftYaHei-35"/>
      <use x="262.304688" xlink:href="#MicrosoftYaHei-65e5"/>
      <use x="362.304688" xlink:href="#MicrosoftYaHei-5747"/>
      <use x="462.304688" xlink:href="#MicrosoftYaHei-503c"/>
     </g>
    </g>
    <g id="line2d_42">
     <path d="M 680.409375 96.293125 
L 700.409375 96.293125 
" style="fill:none;stroke:#2ca02c;stroke-linecap:square;stroke-width:1.5;"/>
    </g>
    <g id="line2d_43"/>
    <g id="text_20">
     <!-- 2W-5日均值 -->
     <g transform="translate(708.409375 99.793125)scale(0.1 -0.1)">
      <use xlink:href="#MicrosoftYaHei-32"/>
      <use x="58.642578" xlink:href="#MicrosoftYaHei-57"/>
      <use x="160.400391" xlink:href="#MicrosoftYaHei-2d"/>
      <use x="203.662109" xlink:href="#MicrosoftYaHei-35"/>
      <use x="262.304688" xlink:href="#MicrosoftYaHei-65e5"/>
      <use x="362.304688" xlink:href="#MicrosoftYaHei-5747"/>
      <use x="462.304688" xlink:href="#MicrosoftYaHei-503c"/>
     </g>
    </g>
    <g id="line2d_44">
     <path d="M 680.409375 111.772812 
L 700.409375 111.772812 
" style="fill:none;stroke:#d62728;stroke-linecap:square;stroke-width:1.5;"/>
    </g>
    <g id="line2d_45"/>
    <g id="text_21">
     <!-- 1M-5日均值 -->
     <defs>
      <path d="M 78.171875 0 
L 78.171875 50.09375 
Q 78.171875 56.296875 78.90625 64.984375 
L 78.65625 64.984375 
Q 77.390625 59.515625 76.421875 57.375 
L 51.46875 0 
L 46.046875 0 
L 21.140625 56.9375 
Q 20.265625 58.890625 18.890625 64.984375 
L 18.609375 64.984375 
Q 19.09375 59.71875 19.09375 49.65625 
L 19.09375 0 
L 9.765625 0 
L 9.765625 75.640625 
L 23 75.640625 
L 45.3125 23.78125 
Q 47.859375 17.828125 48.6875 14.5 
L 49.03125 14.5 
Q 51.5625 21.484375 52.59375 23.96875 
L 75.296875 75.640625 
L 87.890625 75.640625 
L 87.890625 0 
z
" id="MicrosoftYaHei-4d"/>
     </defs>
     <g transform="translate(708.409375 115.272812)scale(0.1 -0.1)">
      <use xlink:href="#MicrosoftYaHei-31"/>
      <use x="58.642578" xlink:href="#MicrosoftYaHei-4d"/>
      <use x="156.347656" xlink:href="#MicrosoftYaHei-2d"/>
      <use x="199.609375" xlink:href="#MicrosoftYaHei-35"/>
      <use x="258.251953" xlink:href="#MicrosoftYaHei-65e5"/>
      <use x="358.251953" xlink:href="#MicrosoftYaHei-5747"/>
      <use x="458.251953" xlink:href="#MicrosoftYaHei-503c"/>
     </g>
    </g>
    <g id="line2d_46">
     <path d="M 680.409375 127.2525 
L 700.409375 127.2525 
" style="fill:none;stroke:#9467bd;stroke-linecap:square;stroke-width:1.5;"/>
    </g>
    <g id="line2d_47"/>
    <g id="text_22">
     <!-- 1Y-5日均值 -->
     <defs>
      <path d="M 59.8125 75.640625 
L 34.90625 27.828125 
L 34.90625 0 
L 25.09375 0 
L 25.09375 27.59375 
L 0.828125 75.640625 
L 12.015625 75.640625 
L 28.375 42.140625 
Q 28.421875 42.09375 30.171875 37.3125 
L 30.328125 37.3125 
Q 30.90625 39.359375 32.328125 42.09375 
L 49.421875 75.640625 
z
" id="MicrosoftYaHei-59"/>
     </defs>
     <g transform="translate(708.409375 130.7525)scale(0.1 -0.1)">
      <use xlink:href="#MicrosoftYaHei-31"/>
      <use x="58.642578" xlink:href="#MicrosoftYaHei-59"/>
      <use x="118.994141" xlink:href="#MicrosoftYaHei-2d"/>
      <use x="162.255859" xlink:href="#MicrosoftYaHei-35"/>
      <use x="220.898438" xlink:href="#MicrosoftYaHei-65e5"/>
      <use x="320.898438" xlink:href="#MicrosoftYaHei-5747"/>
      <use x="420.898438" xlink:href="#MicrosoftYaHei-503c"/>
     </g>
    </g>
   </g>
  </g>
 </g>
 <defs>
  <clipPath id="p028423b314">
   <rect height="332.64" width="669.6" x="108" y="51.84"/>
  </clipPath>
 </defs>
</svg>
