<?xml version="1.0" encoding="utf-8" standalone="no"?>
<!DOCTYPE svg PUBLIC "-//W3C//DTD SVG 1.1//EN"
  "http://www.w3.org/Graphics/SVG/1.1/DTD/svg11.dtd">
<!-- Created with matplotlib (http://matplotlib.org/) -->
<svg height="432pt" version="1.1" viewBox="0 0 864 432" width="864pt" xmlns="http://www.w3.org/2000/svg" xmlns:xlink="http://www.w3.org/1999/xlink">
 <defs>
  <style type="text/css">
*{stroke-linecap:butt;stroke-linejoin:round;}
  </style>
 </defs>
 <g id="figure_1">
  <g id="patch_1">
   <path d="M 0 432 
L 864 432 
L 864 0 
L 0 0 
z
" style="fill:#ffffff;"/>
  </g>
  <g id="axes_1">
   <g id="patch_2">
    <path d="M 108 384.48 
L 777.6 384.48 
L 777.6 51.84 
L 108 51.84 
z
" style="fill:#ffffff;"/>
   </g>
   <g id="matplotlib.axis_1">
    <g id="xtick_1">
     <g id="line2d_1">
      <path clip-path="url(#pbeaee73061)" d="M 108 384.48 
L 108 51.84 
" style="fill:none;stroke:#b0b0b0;stroke-linecap:square;stroke-width:0.8;"/>
     </g>
     <g id="line2d_2">
      <defs>
       <path d="M 0 0 
L 0 3.5 
" id="m698bf5cd0f" style="stroke:#000000;stroke-width:0.8;"/>
      </defs>
      <g>
       <use style="stroke:#000000;stroke-width:0.8;" x="108" xlink:href="#m698bf5cd0f" y="384.48"/>
      </g>
     </g>
     <g id="text_1">
      <!-- 2017-08-02 -->
      <defs>
       <path d="M 51.171875 0 
L 5.171875 0 
L 5.171875 8.296875 
L 27.15625 30.21875 
Q 36.234375 39.3125 39.3125 44.609375 
Q 42.390625 49.90625 42.390625 55.5625 
Q 42.390625 62.015625 38.765625 65.453125 
Q 35.15625 68.890625 28.328125 68.890625 
Q 18.21875 68.890625 9.03125 60.296875 
L 9.03125 70.015625 
Q 17.96875 76.90625 29.828125 76.90625 
Q 40.046875 76.90625 45.953125 71.390625 
Q 51.859375 65.875 51.859375 56.546875 
Q 51.859375 49.515625 48.0625 42.75 
Q 44.28125 35.984375 33.734375 25.53125 
L 16.5 8.6875 
L 16.5 8.5 
L 51.171875 8.5 
z
" id="MicrosoftYaHei-32"/>
       <path d="M 4.4375 36.328125 
Q 4.4375 56.34375 11.078125 66.625 
Q 17.71875 76.90625 30.328125 76.90625 
Q 54.34375 76.90625 54.34375 38.140625 
Q 54.34375 19 47.578125 8.859375 
Q 40.828125 -1.265625 28.609375 -1.265625 
Q 17.09375 -1.265625 10.765625 8.34375 
Q 4.4375 17.96875 4.4375 36.328125 
z
M 14.203125 36.765625 
Q 14.203125 6.640625 29.5 6.640625 
Q 44.53125 6.640625 44.53125 37.25 
Q 44.53125 68.953125 29.78125 68.953125 
Q 14.203125 68.953125 14.203125 36.765625 
z
" id="MicrosoftYaHei-30"/>
       <path d="M 52.59375 0 
L 9.234375 0 
L 9.234375 8.25 
L 26.171875 8.25 
L 26.171875 65.671875 
L 8.796875 60.640625 
L 8.796875 69.4375 
L 35.6875 77.25 
L 35.6875 8.25 
L 52.59375 8.25 
z
" id="MicrosoftYaHei-31"/>
       <path d="M 53.765625 72.3125 
L 24.171875 0 
L 14.265625 0 
L 42.390625 67.1875 
L 4.59375 67.1875 
L 4.59375 75.640625 
L 53.765625 75.640625 
z
" id="MicrosoftYaHei-37"/>
       <path d="M 36.375 26.265625 
L 7.625 26.265625 
L 7.625 33.640625 
L 36.375 33.640625 
z
" id="MicrosoftYaHei-2d"/>
       <path d="M 21.390625 39.796875 
Q 7.859375 46.09375 7.859375 58.0625 
Q 7.859375 66.40625 14.203125 71.65625 
Q 20.5625 76.90625 30.421875 76.90625 
Q 39.453125 76.90625 45.3125 71.96875 
Q 51.171875 67.046875 51.171875 59.234375 
Q 51.171875 46.625 37.0625 39.84375 
L 37.0625 39.65625 
Q 53.609375 33.6875 53.609375 19.34375 
Q 53.609375 9.90625 46.796875 4.3125 
Q 39.984375 -1.265625 27.78125 -1.265625 
Q 17.78125 -1.265625 11.46875 4.25 
Q 5.171875 9.765625 5.171875 18.5625 
Q 5.171875 33.015625 21.390625 39.59375 
z
M 41.5 58.109375 
Q 41.5 63.1875 38.328125 66.109375 
Q 35.15625 69.046875 29.734375 69.046875 
Q 24.65625 69.046875 21.09375 65.984375 
Q 17.53125 62.9375 17.53125 58.203125 
Q 17.53125 48.734375 29.390625 43.796875 
Q 41.5 48.828125 41.5 58.109375 
z
M 28.8125 35.25 
Q 14.796875 29.59375 14.796875 19.046875 
Q 14.796875 13.578125 18.890625 10.0625 
Q 23 6.546875 29.59375 6.546875 
Q 35.984375 6.546875 39.984375 10.03125 
Q 44 13.53125 44 18.75 
Q 44 29.734375 28.8125 35.25 
z
" id="MicrosoftYaHei-38"/>
      </defs>
      <g transform="translate(80.217187 399.47375)scale(0.1 -0.1)">
       <use xlink:href="#MicrosoftYaHei-32"/>
       <use x="58.642578" xlink:href="#MicrosoftYaHei-30"/>
       <use x="117.285156" xlink:href="#MicrosoftYaHei-31"/>
       <use x="175.927734" xlink:href="#MicrosoftYaHei-37"/>
       <use x="234.570312" xlink:href="#MicrosoftYaHei-2d"/>
       <use x="277.832031" xlink:href="#MicrosoftYaHei-30"/>
       <use x="336.474609" xlink:href="#MicrosoftYaHei-38"/>
       <use x="395.117188" xlink:href="#MicrosoftYaHei-2d"/>
       <use x="438.378906" xlink:href="#MicrosoftYaHei-30"/>
       <use x="497.021484" xlink:href="#MicrosoftYaHei-32"/>
      </g>
     </g>
    </g>
    <g id="xtick_2">
     <g id="line2d_3">
      <path clip-path="url(#pbeaee73061)" d="M 199.978022 384.48 
L 199.978022 51.84 
" style="fill:none;stroke:#b0b0b0;stroke-linecap:square;stroke-width:0.8;"/>
     </g>
     <g id="line2d_4">
      <g>
       <use style="stroke:#000000;stroke-width:0.8;" x="199.978022" xlink:href="#m698bf5cd0f" y="384.48"/>
      </g>
     </g>
     <g id="text_2">
      <!-- 2017-10-17 -->
      <g transform="translate(172.195209 399.47375)scale(0.1 -0.1)">
       <use xlink:href="#MicrosoftYaHei-32"/>
       <use x="58.642578" xlink:href="#MicrosoftYaHei-30"/>
       <use x="117.285156" xlink:href="#MicrosoftYaHei-31"/>
       <use x="175.927734" xlink:href="#MicrosoftYaHei-37"/>
       <use x="234.570312" xlink:href="#MicrosoftYaHei-2d"/>
       <use x="277.832031" xlink:href="#MicrosoftYaHei-31"/>
       <use x="336.474609" xlink:href="#MicrosoftYaHei-30"/>
       <use x="395.117188" xlink:href="#MicrosoftYaHei-2d"/>
       <use x="438.378906" xlink:href="#MicrosoftYaHei-31"/>
       <use x="497.021484" xlink:href="#MicrosoftYaHei-37"/>
      </g>
     </g>
    </g>
    <g id="xtick_3">
     <g id="line2d_5">
      <path clip-path="url(#pbeaee73061)" d="M 291.956044 384.48 
L 291.956044 51.84 
" style="fill:none;stroke:#b0b0b0;stroke-linecap:square;stroke-width:0.8;"/>
     </g>
     <g id="line2d_6">
      <g>
       <use style="stroke:#000000;stroke-width:0.8;" x="291.956044" xlink:href="#m698bf5cd0f" y="384.48"/>
      </g>
     </g>
     <g id="text_3">
      <!-- 2017-12-26 -->
      <defs>
       <path d="M 49.703125 65.921875 
Q 43.796875 68.953125 37.359375 68.953125 
Q 27.546875 68.953125 21.578125 60.40625 
Q 15.625 51.859375 15.53125 37.0625 
L 15.765625 37.0625 
Q 21.140625 47.46875 32.90625 47.46875 
Q 42.71875 47.46875 48.578125 41.0625 
Q 54.4375 34.671875 54.4375 24.078125 
Q 54.4375 12.984375 47.671875 5.859375 
Q 40.921875 -1.265625 30.421875 -1.265625 
Q 18.890625 -1.265625 12.328125 7.734375 
Q 5.765625 16.75 5.765625 33.296875 
Q 5.765625 53.328125 14.375 65.109375 
Q 23 76.90625 37.0625 76.90625 
Q 45.125 76.90625 49.703125 74.703125 
z
M 16.109375 24.75 
Q 16.109375 17.28125 20.09375 11.953125 
Q 24.078125 6.640625 30.671875 6.640625 
Q 36.921875 6.640625 40.828125 11.234375 
Q 44.734375 15.828125 44.734375 23.046875 
Q 44.734375 30.859375 41.046875 35.203125 
Q 37.359375 39.546875 30.5625 39.546875 
Q 24.125 39.546875 20.109375 35.15625 
Q 16.109375 30.765625 16.109375 24.75 
z
" id="MicrosoftYaHei-36"/>
      </defs>
      <g transform="translate(264.173231 399.47375)scale(0.1 -0.1)">
       <use xlink:href="#MicrosoftYaHei-32"/>
       <use x="58.642578" xlink:href="#MicrosoftYaHei-30"/>
       <use x="117.285156" xlink:href="#MicrosoftYaHei-31"/>
       <use x="175.927734" xlink:href="#MicrosoftYaHei-37"/>
       <use x="234.570312" xlink:href="#MicrosoftYaHei-2d"/>
       <use x="277.832031" xlink:href="#MicrosoftYaHei-31"/>
       <use x="336.474609" xlink:href="#MicrosoftYaHei-32"/>
       <use x="395.117188" xlink:href="#MicrosoftYaHei-2d"/>
       <use x="438.378906" xlink:href="#MicrosoftYaHei-32"/>
       <use x="497.021484" xlink:href="#MicrosoftYaHei-36"/>
      </g>
     </g>
    </g>
    <g id="xtick_4">
     <g id="line2d_7">
      <path clip-path="url(#pbeaee73061)" d="M 383.934066 384.48 
L 383.934066 51.84 
" style="fill:none;stroke:#b0b0b0;stroke-linecap:square;stroke-width:0.8;"/>
     </g>
     <g id="line2d_8">
      <g>
       <use style="stroke:#000000;stroke-width:0.8;" x="383.934066" xlink:href="#m698bf5cd0f" y="384.48"/>
      </g>
     </g>
     <g id="text_4">
      <!-- 2018-03-13 -->
      <defs>
       <path d="M 6.984375 12.640625 
Q 14.75 6.640625 24.515625 6.640625 
Q 32.328125 6.640625 36.890625 10.46875 
Q 41.453125 14.3125 41.453125 20.75 
Q 41.453125 35.109375 20.90625 35.109375 
L 14.59375 35.109375 
L 14.59375 43.015625 
L 20.609375 43.015625 
Q 38.8125 43.015625 38.8125 56.5 
Q 38.8125 68.953125 24.90625 68.953125 
Q 16.9375 68.953125 9.90625 63.578125 
L 9.90625 72.609375 
Q 17.328125 76.90625 27.25 76.90625 
Q 36.921875 76.90625 42.78125 71.84375 
Q 48.640625 66.796875 48.640625 58.734375 
Q 48.640625 43.890625 33.5 39.65625 
L 33.5 39.453125 
Q 41.703125 38.578125 46.453125 33.671875 
Q 51.21875 28.765625 51.21875 21.4375 
Q 51.21875 11.234375 43.875 4.984375 
Q 36.53125 -1.265625 24.3125 -1.265625 
Q 13.578125 -1.265625 6.984375 2.734375 
z
" id="MicrosoftYaHei-33"/>
      </defs>
      <g transform="translate(356.151253 399.47375)scale(0.1 -0.1)">
       <use xlink:href="#MicrosoftYaHei-32"/>
       <use x="58.642578" xlink:href="#MicrosoftYaHei-30"/>
       <use x="117.285156" xlink:href="#MicrosoftYaHei-31"/>
       <use x="175.927734" xlink:href="#MicrosoftYaHei-38"/>
       <use x="234.570312" xlink:href="#MicrosoftYaHei-2d"/>
       <use x="277.832031" xlink:href="#MicrosoftYaHei-30"/>
       <use x="336.474609" xlink:href="#MicrosoftYaHei-33"/>
       <use x="395.117188" xlink:href="#MicrosoftYaHei-2d"/>
       <use x="438.378906" xlink:href="#MicrosoftYaHei-31"/>
       <use x="497.021484" xlink:href="#MicrosoftYaHei-33"/>
      </g>
     </g>
    </g>
    <g id="xtick_5">
     <g id="line2d_9">
      <path clip-path="url(#pbeaee73061)" d="M 475.912088 384.48 
L 475.912088 51.84 
" style="fill:none;stroke:#b0b0b0;stroke-linecap:square;stroke-width:0.8;"/>
     </g>
     <g id="line2d_10">
      <g>
       <use style="stroke:#000000;stroke-width:0.8;" x="475.912088" xlink:href="#m698bf5cd0f" y="384.48"/>
      </g>
     </g>
     <g id="text_5">
      <!-- 2018-05-24 -->
      <defs>
       <path d="M 8.640625 11.625 
Q 16.265625 6.640625 24.515625 6.640625 
Q 32.328125 6.640625 37.109375 11 
Q 41.890625 15.375 41.890625 22.609375 
Q 41.890625 29.890625 37.03125 33.890625 
Q 32.171875 37.890625 22.953125 37.890625 
Q 18.5 37.890625 10.984375 37.203125 
L 10.984375 75.640625 
L 48.1875 75.640625 
L 48.1875 67.1875 
L 19.875 67.1875 
L 19.875 45.796875 
Q 24.125 46.046875 26.265625 46.046875 
Q 38.234375 46.046875 44.921875 39.984375 
Q 51.609375 33.9375 51.609375 23.296875 
Q 51.609375 12.3125 44.421875 5.515625 
Q 37.25 -1.265625 24.609375 -1.265625 
Q 14.015625 -1.265625 8.640625 1.859375 
z
" id="MicrosoftYaHei-35"/>
       <path d="M 55.078125 19.625 
L 45.40625 19.625 
L 45.40625 0 
L 36.140625 0 
L 36.140625 19.625 
L 0.875 19.625 
L 0.875 25.828125 
L 34.328125 75.640625 
L 45.40625 75.640625 
L 45.40625 27.203125 
L 55.078125 27.203125 
z
M 36.140625 27.203125 
L 36.140625 58.890625 
Q 36.140625 62.25 36.328125 66.65625 
L 36.140625 66.65625 
Q 35.453125 64.796875 33.25 60.84375 
L 10.75 27.203125 
z
" id="MicrosoftYaHei-34"/>
      </defs>
      <g transform="translate(448.129275 399.47375)scale(0.1 -0.1)">
       <use xlink:href="#MicrosoftYaHei-32"/>
       <use x="58.642578" xlink:href="#MicrosoftYaHei-30"/>
       <use x="117.285156" xlink:href="#MicrosoftYaHei-31"/>
       <use x="175.927734" xlink:href="#MicrosoftYaHei-38"/>
       <use x="234.570312" xlink:href="#MicrosoftYaHei-2d"/>
       <use x="277.832031" xlink:href="#MicrosoftYaHei-30"/>
       <use x="336.474609" xlink:href="#MicrosoftYaHei-35"/>
       <use x="395.117188" xlink:href="#MicrosoftYaHei-2d"/>
       <use x="438.378906" xlink:href="#MicrosoftYaHei-32"/>
       <use x="497.021484" xlink:href="#MicrosoftYaHei-34"/>
      </g>
     </g>
    </g>
    <g id="xtick_6">
     <g id="line2d_11">
      <path clip-path="url(#pbeaee73061)" d="M 567.89011 384.48 
L 567.89011 51.84 
" style="fill:none;stroke:#b0b0b0;stroke-linecap:square;stroke-width:0.8;"/>
     </g>
     <g id="line2d_12">
      <g>
       <use style="stroke:#000000;stroke-width:0.8;" x="567.89011" xlink:href="#m698bf5cd0f" y="384.48"/>
      </g>
     </g>
     <g id="text_6">
      <!-- 2018-08-03 -->
      <g transform="translate(540.107297 399.47375)scale(0.1 -0.1)">
       <use xlink:href="#MicrosoftYaHei-32"/>
       <use x="58.642578" xlink:href="#MicrosoftYaHei-30"/>
       <use x="117.285156" xlink:href="#MicrosoftYaHei-31"/>
       <use x="175.927734" xlink:href="#MicrosoftYaHei-38"/>
       <use x="234.570312" xlink:href="#MicrosoftYaHei-2d"/>
       <use x="277.832031" xlink:href="#MicrosoftYaHei-30"/>
       <use x="336.474609" xlink:href="#MicrosoftYaHei-38"/>
       <use x="395.117188" xlink:href="#MicrosoftYaHei-2d"/>
       <use x="438.378906" xlink:href="#MicrosoftYaHei-30"/>
       <use x="497.021484" xlink:href="#MicrosoftYaHei-33"/>
      </g>
     </g>
    </g>
    <g id="xtick_7">
     <g id="line2d_13">
      <path clip-path="url(#pbeaee73061)" d="M 659.868132 384.48 
L 659.868132 51.84 
" style="fill:none;stroke:#b0b0b0;stroke-linecap:square;stroke-width:0.8;"/>
     </g>
     <g id="line2d_14">
      <g>
       <use style="stroke:#000000;stroke-width:0.8;" x="659.868132" xlink:href="#m698bf5cd0f" y="384.48"/>
      </g>
     </g>
     <g id="text_7">
      <!-- 2018-10-18 -->
      <g transform="translate(632.085319 399.47375)scale(0.1 -0.1)">
       <use xlink:href="#MicrosoftYaHei-32"/>
       <use x="58.642578" xlink:href="#MicrosoftYaHei-30"/>
       <use x="117.285156" xlink:href="#MicrosoftYaHei-31"/>
       <use x="175.927734" xlink:href="#MicrosoftYaHei-38"/>
       <use x="234.570312" xlink:href="#MicrosoftYaHei-2d"/>
       <use x="277.832031" xlink:href="#MicrosoftYaHei-31"/>
       <use x="336.474609" xlink:href="#MicrosoftYaHei-30"/>
       <use x="395.117188" xlink:href="#MicrosoftYaHei-2d"/>
       <use x="438.378906" xlink:href="#MicrosoftYaHei-31"/>
       <use x="497.021484" xlink:href="#MicrosoftYaHei-38"/>
      </g>
     </g>
    </g>
    <g id="xtick_8">
     <g id="line2d_15">
      <path clip-path="url(#pbeaee73061)" d="M 751.846154 384.48 
L 751.846154 51.84 
" style="fill:none;stroke:#b0b0b0;stroke-linecap:square;stroke-width:0.8;"/>
     </g>
     <g id="line2d_16">
      <g>
       <use style="stroke:#000000;stroke-width:0.8;" x="751.846154" xlink:href="#m698bf5cd0f" y="384.48"/>
      </g>
     </g>
     <g id="text_8">
      <!-- 2018-12-27 -->
      <g transform="translate(724.063341 399.47375)scale(0.1 -0.1)">
       <use xlink:href="#MicrosoftYaHei-32"/>
       <use x="58.642578" xlink:href="#MicrosoftYaHei-30"/>
       <use x="117.285156" xlink:href="#MicrosoftYaHei-31"/>
       <use x="175.927734" xlink:href="#MicrosoftYaHei-38"/>
       <use x="234.570312" xlink:href="#MicrosoftYaHei-2d"/>
       <use x="277.832031" xlink:href="#MicrosoftYaHei-31"/>
       <use x="336.474609" xlink:href="#MicrosoftYaHei-32"/>
       <use x="395.117188" xlink:href="#MicrosoftYaHei-2d"/>
       <use x="438.378906" xlink:href="#MicrosoftYaHei-32"/>
       <use x="497.021484" xlink:href="#MicrosoftYaHei-37"/>
      </g>
     </g>
    </g>
    <g id="text_9">
     <!-- 日期 -->
     <defs>
      <path d="M 15.234375 76.703125 
L 84.859375 76.703125 
L 84.859375 -11.96875 
L 76.5625 -11.96875 
L 76.5625 -5.03125 
L 23.53125 -5.03125 
L 23.53125 -11.96875 
L 15.234375 -11.96875 
z
M 23.53125 32.859375 
L 23.53125 2.09375 
L 76.5625 2.09375 
L 76.5625 32.859375 
z
M 23.53125 69.390625 
L 23.53125 40.1875 
L 76.5625 40.1875 
L 76.5625 69.390625 
z
" id="MicrosoftYaHei-65e5"/>
      <path d="M 58.890625 79.15625 
L 93.453125 79.15625 
L 93.453125 -0.046875 
Q 93.453125 -11.578125 82.515625 -11.578125 
Q 77.046875 -11.578125 71.78125 -11.28125 
Q 71.390625 -8.0625 70.609375 -3.765625 
Q 77.734375 -4.4375 80.859375 -4.4375 
Q 86.234375 -4.4375 86.234375 0.921875 
L 86.234375 21.4375 
L 65.328125 21.4375 
Q 64.265625 0.046875 52.34375 -14.109375 
Q 49.703125 -11.375 46.484375 -8.640625 
Q 54.390625 0.4375 56.546875 10.203125 
Q 58.890625 19.578125 58.890625 42.828125 
z
M 1.953125 17.828125 
L 11.140625 17.828125 
L 11.140625 62.9375 
L 3.125 62.9375 
L 3.125 69.578125 
L 11.140625 69.578125 
L 11.140625 81.5 
L 18.359375 81.5 
L 18.359375 69.578125 
L 38.671875 69.578125 
L 38.671875 81.890625 
L 45.90625 81.890625 
L 45.90625 69.578125 
L 53.8125 69.578125 
L 53.8125 62.9375 
L 45.90625 62.9375 
L 45.90625 17.828125 
L 53.71875 17.828125 
L 53.71875 11.1875 
L 1.953125 11.1875 
z
M 65.765625 27.875 
L 86.234375 27.875 
L 86.234375 47.015625 
L 66.109375 47.015625 
Q 66.21875 34.421875 65.765625 27.875 
z
M 86.234375 72.515625 
L 66.109375 72.515625 
L 66.109375 53.46875 
L 86.234375 53.46875 
z
M 18.359375 17.828125 
L 38.671875 17.828125 
L 38.671875 28.765625 
L 18.359375 28.765625 
z
M 18.359375 35.015625 
L 38.671875 35.015625 
L 38.671875 45.84375 
L 18.359375 45.84375 
z
M 18.359375 52.09375 
L 38.671875 52.09375 
L 38.671875 62.9375 
L 18.359375 62.9375 
z
M 18.359375 9.328125 
L 24.3125 4.640625 
Q 14.453125 -6 6.34375 -13.234375 
Q 4.296875 -10.890625 1.171875 -8.0625 
Q 10.453125 -0.140625 18.359375 9.328125 
z
M 31.15625 4.734375 
L 35.84375 9.515625 
Q 42.671875 4.4375 48.734375 -0.734375 
L 43.5625 -6.296875 
Q 38.09375 -0.828125 31.15625 4.734375 
z
" id="MicrosoftYaHei-671f"/>
     </defs>
     <g transform="translate(432.8 413.953438)scale(0.1 -0.1)">
      <use xlink:href="#MicrosoftYaHei-65e5"/>
      <use x="100" xlink:href="#MicrosoftYaHei-671f"/>
     </g>
    </g>
   </g>
   <g id="matplotlib.axis_2">
    <g id="ytick_1">
     <g id="line2d_17">
      <path clip-path="url(#pbeaee73061)" d="M 108 375.112809 
L 777.6 375.112809 
" style="fill:none;stroke:#b0b0b0;stroke-linecap:square;stroke-width:0.8;"/>
     </g>
     <g id="line2d_18">
      <defs>
       <path d="M 0 0 
L -3.5 0 
" id="mc169931b57" style="stroke:#000000;stroke-width:0.8;"/>
      </defs>
      <g>
       <use style="stroke:#000000;stroke-width:0.8;" x="108" xlink:href="#mc169931b57" y="375.112809"/>
      </g>
     </g>
     <g id="text_10">
      <!-- 1.5 -->
      <defs>
       <path d="M 5.8125 5.03125 
Q 5.8125 7.671875 7.609375 9.46875 
Q 9.421875 11.28125 12.109375 11.28125 
Q 14.84375 11.28125 16.640625 9.453125 
Q 18.453125 7.625 18.453125 5.03125 
Q 18.453125 2.484375 16.640625 0.65625 
Q 14.84375 -1.171875 12.0625 -1.171875 
Q 9.375 -1.171875 7.59375 0.65625 
Q 5.8125 2.484375 5.8125 5.03125 
z
" id="MicrosoftYaHei-2e"/>
      </defs>
      <g transform="translate(86.864063 379.109684)scale(0.1 -0.1)">
       <use xlink:href="#MicrosoftYaHei-31"/>
       <use x="58.642578" xlink:href="#MicrosoftYaHei-2e"/>
       <use x="82.714844" xlink:href="#MicrosoftYaHei-35"/>
      </g>
     </g>
    </g>
    <g id="ytick_2">
     <g id="line2d_19">
      <path clip-path="url(#pbeaee73061)" d="M 108 330.168989 
L 777.6 330.168989 
" style="fill:none;stroke:#b0b0b0;stroke-linecap:square;stroke-width:0.8;"/>
     </g>
     <g id="line2d_20">
      <g>
       <use style="stroke:#000000;stroke-width:0.8;" x="108" xlink:href="#mc169931b57" y="330.168989"/>
      </g>
     </g>
     <g id="text_11">
      <!-- 2.0 -->
      <g transform="translate(86.864063 334.165864)scale(0.1 -0.1)">
       <use xlink:href="#MicrosoftYaHei-32"/>
       <use x="58.642578" xlink:href="#MicrosoftYaHei-2e"/>
       <use x="82.714844" xlink:href="#MicrosoftYaHei-30"/>
      </g>
     </g>
    </g>
    <g id="ytick_3">
     <g id="line2d_21">
      <path clip-path="url(#pbeaee73061)" d="M 108 285.225169 
L 777.6 285.225169 
" style="fill:none;stroke:#b0b0b0;stroke-linecap:square;stroke-width:0.8;"/>
     </g>
     <g id="line2d_22">
      <g>
       <use style="stroke:#000000;stroke-width:0.8;" x="108" xlink:href="#mc169931b57" y="285.225169"/>
      </g>
     </g>
     <g id="text_12">
      <!-- 2.5 -->
      <g transform="translate(86.864063 289.222044)scale(0.1 -0.1)">
       <use xlink:href="#MicrosoftYaHei-32"/>
       <use x="58.642578" xlink:href="#MicrosoftYaHei-2e"/>
       <use x="82.714844" xlink:href="#MicrosoftYaHei-35"/>
      </g>
     </g>
    </g>
    <g id="ytick_4">
     <g id="line2d_23">
      <path clip-path="url(#pbeaee73061)" d="M 108 240.281348 
L 777.6 240.281348 
" style="fill:none;stroke:#b0b0b0;stroke-linecap:square;stroke-width:0.8;"/>
     </g>
     <g id="line2d_24">
      <g>
       <use style="stroke:#000000;stroke-width:0.8;" x="108" xlink:href="#mc169931b57" y="240.281348"/>
      </g>
     </g>
     <g id="text_13">
      <!-- 3.0 -->
      <g transform="translate(86.864063 244.278223)scale(0.1 -0.1)">
       <use xlink:href="#MicrosoftYaHei-33"/>
       <use x="58.642578" xlink:href="#MicrosoftYaHei-2e"/>
       <use x="82.714844" xlink:href="#MicrosoftYaHei-30"/>
      </g>
     </g>
    </g>
    <g id="ytick_5">
     <g id="line2d_25">
      <path clip-path="url(#pbeaee73061)" d="M 108 195.337528 
L 777.6 195.337528 
" style="fill:none;stroke:#b0b0b0;stroke-linecap:square;stroke-width:0.8;"/>
     </g>
     <g id="line2d_26">
      <g>
       <use style="stroke:#000000;stroke-width:0.8;" x="108" xlink:href="#mc169931b57" y="195.337528"/>
      </g>
     </g>
     <g id="text_14">
      <!-- 3.5 -->
      <g transform="translate(86.864063 199.334403)scale(0.1 -0.1)">
       <use xlink:href="#MicrosoftYaHei-33"/>
       <use x="58.642578" xlink:href="#MicrosoftYaHei-2e"/>
       <use x="82.714844" xlink:href="#MicrosoftYaHei-35"/>
      </g>
     </g>
    </g>
    <g id="ytick_6">
     <g id="line2d_27">
      <path clip-path="url(#pbeaee73061)" d="M 108 150.393708 
L 777.6 150.393708 
" style="fill:none;stroke:#b0b0b0;stroke-linecap:square;stroke-width:0.8;"/>
     </g>
     <g id="line2d_28">
      <g>
       <use style="stroke:#000000;stroke-width:0.8;" x="108" xlink:href="#mc169931b57" y="150.393708"/>
      </g>
     </g>
     <g id="text_15">
      <!-- 4.0 -->
      <g transform="translate(86.864063 154.390583)scale(0.1 -0.1)">
       <use xlink:href="#MicrosoftYaHei-34"/>
       <use x="58.642578" xlink:href="#MicrosoftYaHei-2e"/>
       <use x="82.714844" xlink:href="#MicrosoftYaHei-30"/>
      </g>
     </g>
    </g>
    <g id="ytick_7">
     <g id="line2d_29">
      <path clip-path="url(#pbeaee73061)" d="M 108 105.449888 
L 777.6 105.449888 
" style="fill:none;stroke:#b0b0b0;stroke-linecap:square;stroke-width:0.8;"/>
     </g>
     <g id="line2d_30">
      <g>
       <use style="stroke:#000000;stroke-width:0.8;" x="108" xlink:href="#mc169931b57" y="105.449888"/>
      </g>
     </g>
     <g id="text_16">
      <!-- 4.5 -->
      <g transform="translate(86.864063 109.446763)scale(0.1 -0.1)">
       <use xlink:href="#MicrosoftYaHei-34"/>
       <use x="58.642578" xlink:href="#MicrosoftYaHei-2e"/>
       <use x="82.714844" xlink:href="#MicrosoftYaHei-35"/>
      </g>
     </g>
    </g>
    <g id="ytick_8">
     <g id="line2d_31">
      <path clip-path="url(#pbeaee73061)" d="M 108 60.506067 
L 777.6 60.506067 
" style="fill:none;stroke:#b0b0b0;stroke-linecap:square;stroke-width:0.8;"/>
     </g>
     <g id="line2d_32">
      <g>
       <use style="stroke:#000000;stroke-width:0.8;" x="108" xlink:href="#mc169931b57" y="60.506067"/>
      </g>
     </g>
     <g id="text_17">
      <!-- 5.0 -->
      <g transform="translate(86.864063 64.502942)scale(0.1 -0.1)">
       <use xlink:href="#MicrosoftYaHei-35"/>
       <use x="58.642578" xlink:href="#MicrosoftYaHei-2e"/>
       <use x="82.714844" xlink:href="#MicrosoftYaHei-30"/>
      </g>
     </g>
    </g>
   </g>
   <g id="line2d_33">
    <path clip-path="url(#pbeaee73061)" d="M 108 257.386966 
L 109.83956 257.009438 
L 111.679121 258.699326 
L 113.518681 259.957753 
L 117.197802 260.955506 
L 119.037363 261.135281 
L 120.876923 259.894831 
L 122.716484 259.211685 
L 126.395604 258.609438 
L 128.235165 257.917303 
L 130.074725 257.099326 
L 131.914286 255.777978 
L 139.272527 254.420674 
L 141.112088 254.366742 
L 142.951648 252.48809 
L 144.791209 251.076854 
L 146.630769 251.382472 
L 148.47033 252.137528 
L 150.30989 253.953258 
L 152.149451 258.573483 
L 153.989011 263.652135 
L 155.828571 267.076854 
L 157.668132 270.258876 
L 159.507692 272.164494 
L 161.347253 272.461124 
L 163.186813 272.299326 
L 165.026374 271.571236 
L 166.865934 270.501573 
L 168.705495 268.48809 
L 170.545055 265.180225 
L 172.384615 262.663371 
L 174.224176 260.425169 
L 176.063736 259.346517 
L 179.742857 259.220674 
L 181.582418 257.908315 
L 183.421978 255.90382 
L 185.261538 255.040899 
L 187.101099 251.804944 
L 188.940659 253.548764 
L 190.78022 255.795955 
L 192.61978 258.96 
L 194.459341 261.602697 
L 196.298901 267.589213 
L 201.817582 275.292584 
L 203.657143 276.461124 
L 205.496703 276.946517 
L 207.336264 276.551011 
L 209.175824 275.948764 
L 211.015385 274.726292 
L 212.854945 272.892584 
L 214.694505 270.37573 
L 218.373626 266.67236 
L 220.213187 265.324045 
L 222.052747 266.546517 
L 223.892308 269.081348 
L 225.731868 272.820674 
L 227.571429 276.128539 
L 229.410989 278.717303 
L 231.250549 278.357753 
L 233.09011 275.840899 
L 236.769231 265.953258 
L 238.608791 262.16 
L 240.448352 259.391461 
L 242.287912 259.013933 
L 244.127473 259.03191 
L 245.967033 259.373483 
L 249.646154 259.265618 
L 251.485714 258.204944 
L 253.325275 257.611685 
L 255.164835 257.773483 
L 257.004396 260.038652 
L 258.843956 260.308315 
L 260.683516 263.094831 
L 264.362637 270.986966 
L 266.202198 272.964494 
L 268.041758 276.613933 
L 269.881319 277.225169 
L 271.720879 275.643146 
L 273.56044 273.000449 
L 277.23956 265.21618 
L 279.079121 263.130787 
L 280.918681 262.501573 
L 282.758242 262.23191 
L 284.597802 263.274607 
L 286.437363 265.755506 
L 288.276923 267.768989 
L 291.956044 273.270112 
L 293.795604 274.420674 
L 295.635165 274.294831 
L 297.474725 270.195955 
L 299.314286 269.07236 
L 301.153846 271.966742 
L 302.993407 275.346517 
L 304.832967 282.16 
L 306.672527 284.461124 
L 308.512088 283.03191 
L 312.191209 270.933034 
L 314.030769 264.946517 
L 315.87033 260.34427 
L 317.70989 258.151011 
L 319.549451 259.346517 
L 321.389011 259.238652 
L 323.228571 259.652135 
L 326.907692 266.37573 
L 328.747253 270.007191 
L 330.586813 275.139775 
L 332.426374 278.825169 
L 334.265934 279.68809 
L 336.105495 279.328539 
L 337.945055 280.191461 
L 341.624176 281.43191 
L 343.463736 281.701573 
L 345.303297 282.115056 
L 347.142857 281.090337 
L 350.821978 278.411685 
L 352.661538 277.584719 
L 354.501099 277.297079 
L 356.340659 274.582472 
L 358.18022 273.827416 
L 360.01978 274.025169 
L 361.859341 274.474607 
L 363.698901 274.762247 
L 365.538462 277.674607 
L 367.378022 276.290337 
L 369.217582 274.600449 
L 371.057143 270.771236 
L 372.896703 269.315056 
L 374.736264 268.308315 
L 378.415385 272.568989 
L 380.254945 276.164494 
L 382.094505 277.351011 
L 383.934066 276.991461 
L 385.773626 276.254382 
L 387.613187 275.139775 
L 389.452747 274.906067 
L 391.292308 275.355506 
L 396.810989 279.598202 
L 398.650549 280.335281 
L 400.49011 280.658876 
L 406.008791 278.852135 
L 407.848352 276.245393 
L 409.687912 274.825169 
L 411.527473 275.17573 
L 413.367033 277.386966 
L 415.206593 279.813933 
L 417.046154 282.726292 
L 418.885714 284.002697 
L 420.725275 284.236404 
L 422.564835 282.654382 
L 424.404396 280.658876 
L 426.243956 279.68809 
L 429.923077 275.517303 
L 431.762637 272.353258 
L 433.602198 268.937528 
L 435.441758 266.384719 
L 437.281319 265.108315 
L 439.120879 264.227416 
L 440.96044 263.652135 
L 442.8 260.524045 
L 444.63956 258.726292 
L 446.479121 259.013933 
L 448.318681 259.858876 
L 450.158242 262.933034 
L 451.997802 269.027416 
L 453.837363 273.50382 
L 455.676923 277.099326 
L 457.516484 280.191461 
L 459.356044 282.115056 
L 461.195604 282.151011 
L 463.035165 280.964494 
L 464.874725 276.542022 
L 466.714286 274.96 
L 468.553846 273.593708 
L 470.393407 274.546517 
L 472.232967 276.63191 
L 474.072527 280.874607 
L 475.912088 282.079101 
L 477.751648 282.708315 
L 479.591209 282.600449 
L 481.430769 278.699326 
L 483.27033 272.335281 
L 485.10989 266.924045 
L 486.949451 262.01618 
L 488.789011 260.829663 
L 490.628571 263.670112 
L 492.468132 269.458876 
L 494.307692 274.420674 
L 496.147253 278.699326 
L 497.986813 279.166742 
L 499.826374 279.166742 
L 501.665934 278.681348 
L 503.505495 278.034157 
L 505.345055 277.512809 
L 507.184615 277.207191 
L 509.024176 276.577978 
L 510.863736 276.506067 
L 512.703297 276.595955 
L 514.542857 277.099326 
L 516.382418 278.393708 
L 518.221978 281.521798 
L 520.061538 286.986966 
L 521.901099 286.23191 
L 523.740659 287.040899 
L 525.58022 288.802697 
L 527.41978 293.225169 
L 529.259341 296.04764 
L 531.098901 307.930787 
L 532.938462 317.422921 
L 534.778022 319.436404 
L 536.617582 315.715056 
L 538.457143 309.333034 
L 540.296703 300.110562 
L 542.136264 289.935281 
L 543.975824 284.84764 
L 545.815385 282.708315 
L 547.654945 283.984719 
L 549.494505 286.393708 
L 551.334066 289.899326 
L 553.173626 294.177978 
L 555.013187 297.342022 
L 556.852747 299.049888 
L 558.692308 300.164494 
L 560.531868 303.112809 
L 562.371429 308.27236 
L 564.210989 314.043146 
L 566.050549 320.353258 
L 567.89011 328.173483 
L 569.72967 334.986966 
L 571.569231 343.130787 
L 573.408791 354.025169 
L 575.248352 360.281348 
L 577.087912 360.694831 
L 578.927473 355.409438 
L 580.767033 342.555506 
L 584.446154 309.980225 
L 586.285714 296.425169 
L 588.125275 287.220674 
L 589.964835 281.683596 
L 591.804396 278.213933 
L 593.643956 279.238652 
L 597.323077 285.94427 
L 599.162637 289.728539 
L 601.002198 292.398202 
L 602.841758 295.580225 
L 604.681319 297.07236 
L 606.520879 300.002697 
L 610.2 308.200449 
L 612.03956 304.299326 
L 615.718681 293.908315 
L 619.397802 279.742022 
L 621.237363 279.094831 
L 624.916484 282.852135 
L 626.756044 281.701573 
L 628.595604 281.611685 
L 630.435165 281.809438 
L 632.274725 281.36 
L 634.114286 279.97573 
L 637.793407 283.625169 
L 639.632967 284.955506 
L 641.472527 292.883596 
L 643.312088 290.906067 
L 645.151648 291.211685 
L 646.991209 290.456629 
L 648.830769 291.301573 
L 650.67033 286.142022 
L 652.50989 289.989213 
L 654.349451 292.84764 
L 656.189011 295.166742 
L 658.028571 295.97573 
L 659.868132 294.771236 
L 661.707692 294.663371 
L 663.547253 292.901573 
L 665.386813 291.499326 
L 667.226374 290.780225 
L 669.065934 294.591461 
L 670.905495 301.386966 
L 672.745055 312.586966 
L 674.584615 328.497079 
L 676.424176 328.910562 
L 678.263736 322.942022 
L 680.103297 315.571236 
L 681.942857 305.099326 
L 683.782418 292.443146 
L 685.621978 297.467865 
L 687.461538 307.697079 
L 689.301099 315.589213 
L 691.140659 317.845393 
L 692.98022 314.285843 
L 694.81978 310.070112 
L 696.659341 303.580225 
L 698.498901 298.061124 
L 700.338462 293.710562 
L 702.178022 291.17573 
L 704.017582 286.609438 
L 705.857143 284.506067 
L 707.696703 284.308315 
L 711.375824 286.213933 
L 713.215385 286.933034 
L 715.054945 290.420674 
L 716.894505 285.279101 
L 718.734066 284.973483 
L 720.573626 286.968989 
L 722.413187 291.858876 
L 724.252747 289.054382 
L 726.092308 293.117303 
L 727.931868 294.23191 
L 729.771429 293.908315 
L 731.610989 291.085843 
L 733.450549 289.270112 
L 735.29011 284.973483 
L 737.12967 281.881348 
L 738.969231 278.177978 
L 740.808791 274.043146 
L 742.648352 273.180225 
L 744.487912 276.218427 
L 746.327473 281.773483 
L 750.006593 304.533034 
L 751.846154 318.44764 
L 753.685714 336.712809 
L 755.525275 332.434157 
L 757.364835 328.640899 
L 759.204396 331.229663 
L 761.043956 331.643146 
L 762.883516 352.137528 
L 764.723077 365.315056 
L 766.562637 369.36 
L 768.402198 368.299326 
L 770.241758 360.551011 
L 772.081319 345.611685 
L 773.920879 332.326292 
L 775.76044 323.049888 
L 777.6 314.591461 
L 777.6 314.591461 
" style="fill:none;stroke:#1f77b4;stroke-linecap:square;stroke-width:1.5;"/>
   </g>
   <g id="line2d_34">
    <path clip-path="url(#pbeaee73061)" d="M 108 251.076854 
L 109.83956 250.690337 
L 113.518681 251.202697 
L 117.197802 251.643146 
L 119.037363 251.777978 
L 122.716484 251.598202 
L 126.395604 251.589213 
L 130.074725 250.915056 
L 133.753846 249.953258 
L 135.593407 249.539775 
L 141.112088 248.883596 
L 144.791209 248.04764 
L 146.630769 248.34427 
L 148.47033 248.937528 
L 150.30989 249.827416 
L 152.149451 251.634157 
L 153.989011 253.746517 
L 155.828571 255.229663 
L 157.668132 256.56 
L 159.507692 257.566742 
L 161.347253 257.863371 
L 163.186813 257.926292 
L 165.026374 257.593708 
L 166.865934 257.063371 
L 168.705495 256.299326 
L 172.384615 253.998202 
L 174.224176 253.189213 
L 176.063736 252.721798 
L 179.742857 250.636404 
L 181.582418 249.198202 
L 185.261538 245.521798 
L 187.101099 244.290337 
L 190.78022 244.640899 
L 192.61978 245.404944 
L 194.459341 246.807191 
L 196.298901 248.883596 
L 198.138462 250.177978 
L 199.978022 251.813933 
L 201.817582 253.21618 
L 203.657143 254.034157 
L 209.175824 254.780225 
L 211.015385 254.555506 
L 212.854945 254.025169 
L 214.694505 253.28809 
L 218.373626 251.24764 
L 220.213187 250.627416 
L 222.052747 250.81618 
L 223.892308 251.786966 
L 225.731868 253.422921 
L 229.410989 257.21618 
L 231.250549 258.079101 
L 233.09011 257.710562 
L 234.92967 256.595955 
L 240.448352 251.912809 
L 242.287912 251.562247 
L 244.127473 251.562247 
L 249.646154 252.434157 
L 251.485714 252.290337 
L 255.164835 251.463371 
L 257.004396 251.301573 
L 258.843956 250.81618 
L 260.683516 251.211685 
L 262.523077 252.41618 
L 266.202198 255.54427 
L 268.041758 257.467865 
L 269.881319 258.402697 
L 271.720879 258.366742 
L 273.56044 257.809438 
L 275.4 256.658876 
L 279.079121 253.980225 
L 280.918681 253.027416 
L 282.758242 252.254382 
L 284.597802 251.840899 
L 286.437363 251.786966 
L 288.276923 251.858876 
L 290.116484 251.679101 
L 291.956044 251.337528 
L 293.795604 250.780225 
L 295.635165 249.809438 
L 297.474725 248.245393 
L 301.153846 253.530787 
L 302.993407 256.766742 
L 304.832967 260.667865 
L 306.672527 262.37573 
L 308.512088 262.537528 
L 310.351648 261.243146 
L 314.030769 256.892584 
L 315.87033 254.465618 
L 317.70989 252.63191 
L 319.549451 251.804944 
L 323.228571 250.798202 
L 325.068132 251.085843 
L 326.907692 251.912809 
L 328.747253 252.41618 
L 332.426374 254.142022 
L 334.265934 254.591461 
L 336.105495 254.636404 
L 341.624176 257.827416 
L 343.463736 259.040899 
L 345.303297 260.092584 
L 347.142857 258.08809 
L 348.982418 255.751011 
L 352.661538 250.564494 
L 354.501099 247.742022 
L 356.340659 247.634157 
L 358.18022 248.119551 
L 361.859341 249.521798 
L 363.698901 250.564494 
L 365.538462 251.445393 
L 371.057143 250.528539 
L 374.736264 249.64764 
L 378.415385 250.852135 
L 382.094505 252.218427 
L 383.934066 252.506067 
L 385.773626 252.577978 
L 391.292308 252.27236 
L 396.810989 252.84764 
L 398.650549 253.189213 
L 400.49011 253.207191 
L 402.32967 252.973483 
L 404.169231 252.41618 
L 406.008791 251.661124 
L 407.848352 250.393708 
L 409.687912 250.01618 
L 411.527473 250.08809 
L 413.367033 251.148764 
L 415.206593 252.658876 
L 417.046154 254.645393 
L 418.885714 256.011685 
L 420.725275 257.198202 
L 422.564835 257.737528 
L 424.404396 257.989213 
L 426.243956 258.061124 
L 428.083516 257.413933 
L 429.923077 256.443146 
L 431.762637 254.933034 
L 435.441758 251.463371 
L 437.281319 250.312809 
L 439.120879 249.36 
L 440.96044 248.622921 
L 442.8 247.094831 
L 444.63956 245.800449 
L 446.479121 246.070112 
L 448.318681 247.130787 
L 450.158242 249.270112 
L 453.837363 257.018427 
L 455.676923 259.858876 
L 457.516484 262.177978 
L 459.356044 263.849888 
L 461.195604 264.389213 
L 463.035165 263.993708 
L 464.874725 262.177978 
L 466.714286 260.739775 
L 468.553846 259.751011 
L 470.393407 259.427416 
L 472.232967 259.751011 
L 474.072527 261.243146 
L 475.912088 262.177978 
L 477.751648 261.710562 
L 479.591209 260.811685 
L 481.430769 259.139775 
L 485.10989 253.926292 
L 486.949451 252.074607 
L 488.789011 251.858876 
L 490.628571 252.685843 
L 492.468132 254.537528 
L 494.307692 256.604944 
L 496.147253 258.852135 
L 497.986813 259.607191 
L 499.826374 259.840899 
L 501.665934 259.697079 
L 503.505495 259.229663 
L 507.184615 257.953258 
L 509.024176 257.36 
L 510.863736 256.910562 
L 514.542857 256.443146 
L 516.382418 256.04764 
L 520.061538 255.54427 
L 521.901099 254.771236 
L 523.740659 255.598202 
L 525.58022 257.611685 
L 527.41978 260.70382 
L 529.259341 264.946517 
L 531.098901 269.87236 
L 532.938462 273.07236 
L 534.778022 274.186966 
L 536.617582 273.881348 
L 538.457143 272.425169 
L 542.136264 268.919551 
L 543.975824 268.092584 
L 545.815385 267.679101 
L 547.654945 267.733034 
L 549.494505 267.930787 
L 551.334066 268.667865 
L 553.173626 269.530787 
L 555.013187 270.16 
L 558.692308 270.951011 
L 562.371429 271.202697 
L 564.210989 272.011685 
L 566.050549 273.377978 
L 567.89011 275.697079 
L 569.72967 278.968989 
L 573.408791 288.658876 
L 575.248352 291.067865 
L 577.087912 292.84764 
L 578.927473 292.452135 
L 580.767033 288.802697 
L 582.606593 284.002697 
L 584.446154 280.640899 
L 586.285714 276.613933 
L 588.125275 273.324045 
L 589.964835 271.670112 
L 591.804396 270.771236 
L 593.643956 270.555506 
L 597.323077 271.813933 
L 599.162637 272.425169 
L 601.002198 272.712809 
L 602.841758 272.874607 
L 604.681319 272.497079 
L 606.520879 272.874607 
L 608.36044 273.719551 
L 610.2 275.409438 
L 612.03956 275.535281 
L 613.879121 274.81618 
L 615.718681 273.773483 
L 617.558242 272.227416 
L 619.397802 270.01618 
L 621.237363 269.476854 
L 623.076923 269.980225 
L 624.916484 270.699326 
L 628.595604 270.843146 
L 630.435165 270.915056 
L 632.274725 270.753258 
L 634.114286 269.800449 
L 635.953846 269.333034 
L 637.793407 268.362247 
L 639.632967 267.085843 
L 641.472527 264.766742 
L 643.312088 263.436404 
L 645.151648 264.407191 
L 646.991209 266.007191 
L 648.830769 268.020674 
L 650.67033 271.112809 
L 652.50989 273.827416 
L 654.349451 274.636404 
L 656.189011 275.17573 
L 658.028571 275.427416 
L 659.868132 275.427416 
L 661.707692 275.301573 
L 663.547253 274.942022 
L 667.226374 273.881348 
L 669.065934 273.539775 
L 670.905495 273.611685 
L 672.745055 274.025169 
L 674.584615 274.690337 
L 676.424176 273.180225 
L 678.263736 272.407191 
L 681.942857 271.328539 
L 683.782418 271.058876 
L 685.621978 273.21618 
L 687.461538 274.528539 
L 689.301099 275.427416 
L 691.140659 275.679101 
L 692.98022 275.319551 
L 694.81978 274.654382 
L 698.498901 273.593708 
L 700.338462 273.252135 
L 702.178022 272.676854 
L 704.017582 272.245393 
L 705.857143 272.011685 
L 709.536264 272.011685 
L 711.375824 272.407191 
L 713.215385 272.515056 
L 715.054945 272.371236 
L 716.894505 271.634157 
L 720.573626 272.497079 
L 722.413187 273.737528 
L 724.252747 274.636404 
L 726.092308 275.679101 
L 729.771429 275.679101 
L 731.610989 274.870112 
L 733.450549 274.222921 
L 735.29011 272.928539 
L 737.12967 271.454382 
L 740.808791 269.045393 
L 742.648352 268.326292 
L 746.327473 269.620674 
L 748.167033 270.357753 
L 750.006593 270.681348 
L 751.846154 270.339775 
L 753.685714 269.045393 
L 755.525275 264.658876 
L 757.364835 267.24764 
L 759.204396 269.620674 
L 761.043956 274.043146 
L 762.883516 283.589213 
L 764.723077 286.44764 
L 766.562637 285.728539 
L 768.402198 285.87236 
L 770.241758 283.10382 
L 772.081319 278.070112 
L 773.920879 275.10382 
L 775.76044 274.67236 
L 777.6 273.539775 
L 777.6 273.539775 
" style="fill:none;stroke:#ff7f0e;stroke-linecap:square;stroke-width:1.5;"/>
   </g>
   <g id="line2d_35">
    <path clip-path="url(#pbeaee73061)" d="M 108 176.892584 
L 111.679121 176.937528 
L 119.037363 177.28809 
L 128.235165 177.180225 
L 130.074725 176.901573 
L 133.753846 175.957753 
L 137.432967 174.861124 
L 139.272527 174.438652 
L 144.791209 173.548764 
L 146.630769 173.638652 
L 150.30989 174.151011 
L 152.149451 174.690337 
L 153.989011 175.355506 
L 157.668132 176.074607 
L 159.507692 176.34427 
L 163.186813 176.515056 
L 165.026374 176.479101 
L 166.865934 176.245393 
L 168.705495 175.733034 
L 172.384615 174.08809 
L 174.224176 173.171236 
L 176.063736 172.380225 
L 179.742857 171.229663 
L 185.261538 169.368989 
L 187.101099 168.515056 
L 188.940659 167.849888 
L 192.61978 167.148764 
L 194.459341 167.310562 
L 196.298901 167.795955 
L 201.817582 169.908315 
L 203.657143 170.321798 
L 205.496703 170.519551 
L 207.336264 170.348764 
L 209.175824 169.953258 
L 212.854945 168.856629 
L 214.694505 168.146517 
L 220.213187 165.530787 
L 222.052747 165.009438 
L 223.892308 164.865618 
L 225.731868 165.261124 
L 231.250549 167.670112 
L 233.09011 167.97573 
L 234.92967 167.786966 
L 236.769231 167.184719 
L 240.448352 165.656629 
L 242.287912 165.045393 
L 244.127473 164.56 
L 247.806593 163.840899 
L 255.164835 161.971236 
L 257.004396 161.593708 
L 258.843956 161.342022 
L 260.683516 161.270112 
L 262.523077 161.539775 
L 266.202198 162.582472 
L 268.041758 163.17573 
L 269.881319 163.625169 
L 271.720879 163.786966 
L 273.56044 163.715056 
L 277.23956 163.121798 
L 279.079121 162.762247 
L 284.597802 160.946517 
L 290.116484 158.995955 
L 291.956044 158.204944 
L 293.795604 157.14427 
L 295.635165 155.921798 
L 297.474725 154.483596 
L 299.314286 155.229663 
L 301.153846 158.01618 
L 302.993407 162.025169 
L 304.832967 166.861124 
L 306.672527 171.265618 
L 308.512088 174.213933 
L 310.351648 174.681348 
L 312.191209 173.620674 
L 314.030769 171.894831 
L 317.70989 167.202697 
L 319.549451 165.998202 
L 325.068132 164.056629 
L 326.907692 163.589213 
L 330.586813 163.03191 
L 332.426374 162.870112 
L 337.945055 162.968989 
L 341.624176 162.681348 
L 343.463736 162.37573 
L 345.303297 161.881348 
L 348.982418 161.054382 
L 350.821978 160.407191 
L 352.661538 159.61618 
L 354.501099 158.44764 
L 356.340659 158.609438 
L 358.18022 159.274607 
L 360.01978 160.083596 
L 361.859341 161.180225 
L 363.698901 163.013933 
L 365.538462 163.786966 
L 367.378022 164.020674 
L 371.057143 164.811685 
L 372.896703 164.919551 
L 374.736264 164.811685 
L 380.254945 165.189213 
L 385.773626 165.764494 
L 389.452747 165.926292 
L 393.131868 165.998202 
L 394.971429 165.836404 
L 398.650549 164.937528 
L 400.49011 164.398202 
L 402.32967 163.724045 
L 404.169231 163.193708 
L 407.848352 162.312809 
L 409.687912 162.465618 
L 411.527473 162.96 
L 413.367033 164.479101 
L 415.206593 166.780225 
L 418.885714 172.48809 
L 420.725275 175.238652 
L 422.564835 177.162247 
L 424.404396 178.456629 
L 426.243956 179.193708 
L 428.083516 178.798202 
L 429.923077 177.64764 
L 431.762637 175.706067 
L 435.441758 171.03191 
L 437.281319 169.162247 
L 439.120879 167.849888 
L 440.96044 167.022921 
L 444.63956 164.84764 
L 446.479121 164.757753 
L 448.318681 165.440899 
L 450.158242 167.10382 
L 451.997802 170.124045 
L 453.837363 173.809438 
L 455.676923 177.135281 
L 457.516484 180.04764 
L 459.356044 182.37573 
L 461.195604 184.137528 
L 463.035165 185.07236 
L 464.874725 184.892584 
L 466.714286 184.389213 
L 468.553846 183.490337 
L 470.393407 182.142022 
L 472.232967 181.027416 
L 477.751648 179.373483 
L 479.591209 178.995955 
L 481.430769 178.240899 
L 486.949451 175.436404 
L 488.789011 174.771236 
L 490.628571 174.807191 
L 492.468132 175.526292 
L 494.307692 176.604944 
L 497.986813 179.24764 
L 499.826374 180.218427 
L 501.665934 180.811685 
L 503.505495 180.991461 
L 505.345055 180.973483 
L 507.184615 180.362247 
L 509.024176 179.391461 
L 512.703297 176.425169 
L 516.382418 173.063371 
L 520.061538 170.258876 
L 521.901099 168.928539 
L 523.740659 168.604944 
L 525.58022 170.798202 
L 527.41978 176.191461 
L 529.259341 185.521798 
L 534.778022 219.912809 
L 536.617582 227.966742 
L 538.457143 232.658876 
L 540.296703 235.337528 
L 542.136264 236.883596 
L 545.815385 238.951011 
L 547.654945 239.993708 
L 549.494505 241.180225 
L 551.334066 242.654382 
L 556.852747 247.742022 
L 560.531868 251.571236 
L 562.371429 253.386966 
L 564.210989 255.562247 
L 566.050549 258.402697 
L 567.89011 261.584719 
L 569.72967 265.629663 
L 571.569231 270.897079 
L 573.408791 276.70382 
L 575.248352 281.413933 
L 577.087912 285.189213 
L 578.927473 287.61618 
L 580.767033 288.04764 
L 582.606593 286.933034 
L 584.446154 285.099326 
L 586.285714 282.600449 
L 588.125275 278.663371 
L 591.804396 270.052135 
L 593.643956 266.546517 
L 595.483516 263.97573 
L 597.323077 262.951011 
L 599.162637 263.148764 
L 601.002198 264.011685 
L 604.681319 266.474607 
L 610.2 270.843146 
L 612.03956 271.706067 
L 613.879121 271.256629 
L 615.718681 270.357753 
L 617.558242 268.757753 
L 619.397802 266.762247 
L 621.237363 265.07236 
L 623.076923 264.910562 
L 624.916484 265.07236 
L 628.595604 265.629663 
L 630.435165 265.611685 
L 632.274725 265.036404 
L 634.114286 263.508315 
L 635.953846 260.63191 
L 637.793407 255.83191 
L 639.632967 248.748764 
L 641.472527 238.609438 
L 643.312088 226.348764 
L 645.151648 228.380225 
L 646.991209 233.467865 
L 648.830769 241.629663 
L 650.67033 253.494831 
L 652.50989 268.398202 
L 654.349451 270.717303 
L 656.189011 271.97573 
L 658.028571 272.712809 
L 659.868132 272.946517 
L 661.707692 272.874607 
L 663.547253 272.640899 
L 669.065934 271.652135 
L 672.745055 271.598202 
L 674.584615 271.83191 
L 676.424176 270.44764 
L 678.263736 269.728539 
L 680.103297 269.512809 
L 683.782418 269.386966 
L 685.621978 271.256629 
L 687.461538 272.551011 
L 689.301099 273.36 
L 691.140659 273.809438 
L 692.98022 273.989213 
L 694.81978 273.773483 
L 698.498901 273.000449 
L 700.338462 272.586966 
L 704.017582 271.130787 
L 705.857143 270.591461 
L 709.536264 270.142022 
L 715.054945 270.735281 
L 716.894505 270.411685 
L 718.734066 270.645393 
L 720.573626 271.058876 
L 726.092308 273.863371 
L 727.931868 274.330787 
L 729.771429 274.618427 
L 731.610989 274.294831 
L 733.450549 273.827416 
L 735.29011 272.784719 
L 737.12967 270.897079 
L 738.969231 268.34427 
L 740.808791 265.521798 
L 744.487912 258.852135 
L 746.327473 253.404944 
L 748.167033 246.879101 
L 750.006593 238.879101 
L 753.685714 220.811685 
L 755.525275 214.177978 
L 757.364835 230.142022 
L 759.204396 242.852135 
L 761.043956 257.719551 
L 762.883516 274.115056 
L 764.723077 279.957753 
L 766.562637 283.03191 
L 768.402198 284.829663 
L 770.241758 284.829663 
L 772.081319 283.337528 
L 773.920879 281.557753 
L 775.76044 280.353258 
L 777.6 279.580225 
L 777.6 279.580225 
" style="fill:none;stroke:#2ca02c;stroke-linecap:square;stroke-width:1.5;"/>
   </g>
   <g id="line2d_36">
    <path clip-path="url(#pbeaee73061)" d="M 108 160.173483 
L 117.197802 161.171236 
L 120.876923 161.881348 
L 126.395604 163.319551 
L 128.235165 163.517303 
L 130.074725 163.481348 
L 131.914286 163.202697 
L 142.951648 160.56 
L 144.791209 160.020674 
L 152.149451 159.346517 
L 153.989011 159.10382 
L 157.668132 157.548764 
L 161.347253 156.524045 
L 163.186813 156.317303 
L 165.026374 156.27236 
L 166.865934 156.020674 
L 168.705495 155.436404 
L 170.545055 154.600449 
L 174.224176 152.649888 
L 176.063736 151.939775 
L 181.582418 150.429663 
L 183.421978 149.225169 
L 185.261538 147.724045 
L 187.101099 146.37573 
L 188.940659 145.377978 
L 190.78022 144.685843 
L 192.61978 144.766742 
L 196.298901 145.548764 
L 203.657143 146.977978 
L 207.336264 147.840899 
L 211.015385 148.425169 
L 214.694505 148.667865 
L 216.534066 148.667865 
L 222.052747 148.155506 
L 223.892308 148.27236 
L 225.731868 148.524045 
L 231.250549 150.151011 
L 233.09011 150.204944 
L 234.92967 150.070112 
L 238.608791 149.351011 
L 242.287912 148.568989 
L 245.967033 147.885843 
L 247.806593 147.508315 
L 251.485714 147.166742 
L 255.164835 147.013933 
L 257.004396 147.03191 
L 258.843956 146.429663 
L 260.683516 144.182472 
L 262.523077 140.551011 
L 264.362637 135.751011 
L 266.202198 130.312809 
L 268.041758 124.506067 
L 269.881319 119.652135 
L 271.720879 115.715056 
L 275.4 109.054382 
L 279.079121 103.54427 
L 280.918681 100.290337 
L 282.758242 96.748764 
L 286.437363 88.982472 
L 288.276923 84.326292 
L 290.116484 79.328539 
L 291.956044 75.004944 
L 293.795604 71.54427 
L 295.635165 68.667865 
L 297.474725 66.96 
L 301.153846 83.733034 
L 302.993407 93.728539 
L 304.832967 105.36 
L 306.672527 114.74427 
L 308.512088 122.654382 
L 310.351648 128.27236 
L 312.191209 132.991461 
L 314.030769 136.551011 
L 315.87033 138.834157 
L 317.70989 140.479101 
L 319.549451 141.755506 
L 321.389011 141.791461 
L 326.907692 140.577978 
L 328.747253 139.948764 
L 336.105495 138.924045 
L 339.784615 138.753258 
L 341.624176 139.121798 
L 343.463736 139.840899 
L 345.303297 140.70382 
L 348.982418 142.690337 
L 350.821978 143.364494 
L 354.501099 143.795955 
L 358.18022 143.984719 
L 360.01978 144.227416 
L 363.698901 145.099326 
L 365.538462 145.773483 
L 367.378022 146.195955 
L 369.217582 146.474607 
L 371.057143 146.609438 
L 372.896703 146.097079 
L 374.736264 144.173483 
L 376.575824 141.458876 
L 378.415385 137.611685 
L 383.934066 122.483596 
L 385.773626 117.737528 
L 387.613187 113.485843 
L 389.452747 110.186966 
L 391.292308 107.643146 
L 393.131868 105.809438 
L 394.971429 104.973483 
L 396.810989 105.413933 
L 398.650549 106.74427 
L 400.49011 108.586966 
L 402.32967 110.717303 
L 406.008791 116.380225 
L 407.848352 119.040899 
L 409.687912 123.022921 
L 411.527473 127.768989 
L 413.367033 132.84764 
L 418.885714 148.910562 
L 420.725275 153.50382 
L 422.564835 157.422921 
L 424.404396 160.766742 
L 426.243956 163.445393 
L 428.083516 164.901573 
L 431.762637 166.717303 
L 435.441758 169.126292 
L 437.281319 170.67236 
L 439.120879 171.409438 
L 440.96044 170.079101 
L 442.8 167.598202 
L 446.479121 162.312809 
L 448.318681 160.694831 
L 450.158242 160.946517 
L 451.997802 162.007191 
L 457.516484 165.818427 
L 459.356044 166.753258 
L 461.195604 167.454382 
L 463.035165 167.742022 
L 464.874725 167.580225 
L 466.714286 167.130787 
L 470.393407 165.962247 
L 472.232967 165.512809 
L 477.751648 164.721798 
L 481.430769 164.362247 
L 483.27033 163.804944 
L 485.10989 162.726292 
L 486.949451 160.586966 
L 488.789011 157.836404 
L 492.468132 151.634157 
L 494.307692 149.027416 
L 497.986813 145.827416 
L 501.665934 143.652135 
L 503.505495 142.627416 
L 505.345055 141.333034 
L 507.184615 140.236404 
L 509.024176 138.977978 
L 510.863736 137.971236 
L 512.703297 137.180225 
L 514.542857 137.036404 
L 516.382418 137.377978 
L 518.221978 138.456629 
L 520.061538 140.128539 
L 521.901099 142.285843 
L 523.740659 144.622921 
L 525.58022 148.982472 
L 527.41978 155.54427 
L 529.259341 164.407191 
L 531.098901 174.924045 
L 532.938462 186.861124 
L 534.778022 197.602697 
L 536.617582 206.429663 
L 538.457143 212.70382 
L 540.296703 216.982472 
L 542.136264 219.319551 
L 543.975824 220.577978 
L 549.494505 221.94427 
L 551.334066 222.807191 
L 553.173626 224.497079 
L 555.013187 226.492584 
L 556.852747 228.77573 
L 558.692308 231.436404 
L 560.531868 234.456629 
L 562.371429 237.261124 
L 564.210989 240.281348 
L 567.89011 247.202697 
L 569.72967 250.852135 
L 571.569231 255.112809 
L 575.248352 264.065618 
L 577.087912 268.038652 
L 578.927473 271.418427 
L 580.767033 273.485843 
L 582.606593 274.330787 
L 584.446154 274.402697 
L 586.285714 273.737528 
L 588.125275 272.425169 
L 589.964835 270.968989 
L 591.804396 269.710562 
L 595.483516 266.528539 
L 597.323077 265.180225 
L 599.162637 264.173483 
L 601.002198 263.436404 
L 602.841758 263.508315 
L 604.681319 263.83191 
L 606.520879 264.461124 
L 610.2 266.079101 
L 612.03956 266.564494 
L 613.879121 266.708315 
L 615.718681 266.582472 
L 617.558242 266.061124 
L 623.076923 263.202697 
L 624.916484 262.735281 
L 626.756044 262.411685 
L 628.595604 262.411685 
L 632.274725 262.573483 
L 634.114286 262.177978 
L 635.953846 261.602697 
L 641.472527 259.03191 
L 643.312088 258.474607 
L 645.151648 258.546517 
L 646.991209 259.715056 
L 648.830769 261.422921 
L 650.67033 263.400449 
L 654.349451 267.589213 
L 656.189011 268.955506 
L 658.028571 269.926292 
L 659.868132 270.663371 
L 661.707692 271.148764 
L 663.547253 271.238652 
L 665.386813 270.986966 
L 670.905495 269.800449 
L 672.745055 269.638652 
L 674.584615 269.800449 
L 676.424176 269.548764 
L 683.782418 268.074607 
L 685.621978 268.236404 
L 691.140659 269.261124 
L 694.81978 269.153258 
L 698.498901 268.793708 
L 709.536264 267.715056 
L 715.054945 267.661124 
L 716.894505 267.481348 
L 718.734066 267.10382 
L 720.573626 266.240899 
L 722.413187 264.748764 
L 724.252747 262.717303 
L 727.931868 258.204944 
L 729.771429 256.353258 
L 733.450549 253.081348 
L 735.29011 250.600449 
L 737.12967 247.652135 
L 738.969231 244.308315 
L 740.808791 241.198202 
L 742.648352 237.386966 
L 744.487912 234.007191 
L 746.327473 229.87236 
L 748.167033 225.054382 
L 753.685714 206.249888 
L 755.525275 201.935281 
L 757.364835 209.395955 
L 759.204396 217.665618 
L 761.043956 228.146517 
L 762.883516 239.777978 
L 764.723077 247.148764 
L 766.562637 252.595955 
L 768.402198 256.874607 
L 770.241758 259.283596 
L 772.081319 260.146517 
L 773.920879 260.380225 
L 775.76044 260.452135 
L 777.6 260.362247 
L 777.6 260.362247 
" style="fill:none;stroke:#d62728;stroke-linecap:square;stroke-width:1.5;"/>
   </g>
   <g id="line2d_37">
    <path clip-path="url(#pbeaee73061)" d="M 108 115.202697 
L 117.197802 114.636404 
L 128.235165 114.501573 
L 135.593407 114.249888 
L 142.951648 113.818427 
L 144.791209 113.656629 
L 148.47033 113.755506 
L 155.828571 114.151011 
L 159.507692 114.052135 
L 172.384615 114.276854 
L 177.903297 114.142022 
L 192.61978 114.133034 
L 199.978022 114.294831 
L 205.496703 114.267865 
L 216.534066 113.998202 
L 220.213187 113.36 
L 223.892308 112.407191 
L 227.571429 111.535281 
L 233.09011 110.37573 
L 234.92967 109.845393 
L 236.769231 109.171236 
L 238.608791 108.101573 
L 240.448352 106.420674 
L 244.127473 102.429663 
L 245.967033 100.524045 
L 247.806593 98.933034 
L 249.646154 97.962247 
L 266.202198 92.964494 
L 275.4 90.968989 
L 277.23956 90.348764 
L 279.079121 89.566742 
L 282.758242 88.317303 
L 288.276923 85.593708 
L 291.956044 83.292584 
L 293.795604 82.618427 
L 295.635165 82.204944 
L 297.474725 82.043146 
L 299.314286 82.771236 
L 302.993407 83.97573 
L 304.832967 84.658876 
L 306.672527 85.14427 
L 308.512088 85.43191 
L 312.191209 85.557753 
L 315.87033 85.297079 
L 321.389011 84.622921 
L 325.068132 84.074607 
L 328.747253 83.733034 
L 332.426374 83.670112 
L 337.945055 83.598202 
L 347.142857 83.382472 
L 360.01978 83.508315 
L 367.378022 83.697079 
L 396.810989 83.804944 
L 400.49011 84.443146 
L 404.169231 85.342022 
L 406.008791 86.402697 
L 407.848352 87.733034 
L 409.687912 89.494831 
L 411.527473 91.571236 
L 413.367033 93.998202 
L 415.206593 96.137528 
L 417.046154 97.971236 
L 418.885714 99.463371 
L 420.725275 100.63191 
L 422.564835 101.422921 
L 424.404396 101.854382 
L 426.243956 102.124045 
L 428.083516 102.213933 
L 429.923077 102.897079 
L 431.762637 104.479101 
L 435.441758 108.811685 
L 437.281319 111.382472 
L 439.120879 113.539775 
L 440.96044 114.708315 
L 442.8 115.319551 
L 444.63956 115.804944 
L 450.158242 116.883596 
L 453.837363 118.142022 
L 455.676923 118.681348 
L 457.516484 119.004944 
L 459.356044 119.166742 
L 463.035165 118.968989 
L 466.714286 118.30382 
L 470.393407 117.584719 
L 474.072527 117.117303 
L 481.430769 116.70382 
L 485.10989 116.182472 
L 490.628571 115.319551 
L 496.147253 114.924045 
L 507.184615 114.474607 
L 512.703297 114.492584 
L 516.382418 115.085843 
L 518.221978 115.625169 
L 520.061538 116.48809 
L 521.901099 117.692584 
L 523.740659 119.256629 
L 525.58022 122.079101 
L 527.41978 126.052135 
L 529.259341 130.906067 
L 532.938462 141.351011 
L 534.778022 145.485843 
L 536.617582 148.595955 
L 538.457143 150.627416 
L 540.296703 152.029663 
L 542.136264 152.874607 
L 543.975824 153.324045 
L 549.494505 153.719551 
L 551.334066 154.420674 
L 553.173626 155.715056 
L 555.013187 157.836404 
L 556.852747 160.533034 
L 558.692308 163.625169 
L 562.371429 170.294831 
L 564.210989 173.333034 
L 566.050549 176.676854 
L 567.89011 180.811685 
L 569.72967 185.521798 
L 571.569231 191.220674 
L 575.248352 204.48809 
L 577.087912 210.007191 
L 578.927473 214.321798 
L 580.767033 216.658876 
L 582.606593 217.180225 
L 584.446154 215.867865 
L 586.285714 213.710562 
L 589.964835 207.382472 
L 591.804396 203.679101 
L 593.643956 200.389213 
L 595.483516 197.746517 
L 597.323077 195.840899 
L 599.162637 194.618427 
L 601.002198 194.294831 
L 606.520879 194.726292 
L 610.2 195.139775 
L 613.879121 195.301573 
L 617.558242 195.319551 
L 619.397802 195.085843 
L 624.916484 194.01618 
L 626.756044 193.782472 
L 628.595604 193.782472 
L 632.274725 194.061124 
L 635.953846 193.827416 
L 641.472527 193.234157 
L 643.312088 193.21618 
L 645.151648 193.413933 
L 650.67033 194.528539 
L 652.50989 194.81618 
L 654.349451 194.942022 
L 661.707692 194.870112 
L 663.547253 194.67236 
L 665.386813 194.186966 
L 667.226374 193.485843 
L 670.905495 191.849888 
L 672.745055 191.238652 
L 674.584615 190.915056 
L 676.424176 190.807191 
L 683.782418 190.843146 
L 691.140659 190.735281 
L 694.81978 190.537528 
L 700.338462 190.555506 
L 707.696703 191.706067 
L 709.536264 192.173483 
L 713.215385 192.748764 
L 716.894505 192.910562 
L 722.413187 192.910562 
L 735.29011 193.377978 
L 737.12967 193.485843 
L 746.327473 193.467865 
L 751.846154 193.683596 
L 755.525275 193.593708 
L 759.204396 194.366742 
L 761.043956 195.355506 
L 762.883516 196.919551 
L 764.723077 198.897079 
L 766.562637 201.234157 
L 768.402198 203.876854 
L 770.241758 206.195955 
L 772.081319 208.119551 
L 773.920879 209.683596 
L 775.76044 210.995955 
L 777.6 211.858876 
L 777.6 211.858876 
" style="fill:none;stroke:#9467bd;stroke-linecap:square;stroke-width:1.5;"/>
   </g>
   <g id="patch_3">
    <path d="M 108 384.48 
L 108 51.84 
" style="fill:none;stroke:#000000;stroke-linecap:square;stroke-linejoin:miter;stroke-width:0.8;"/>
   </g>
   <g id="patch_4">
    <path d="M 777.6 384.48 
L 777.6 51.84 
" style="fill:none;stroke:#000000;stroke-linecap:square;stroke-linejoin:miter;stroke-width:0.8;"/>
   </g>
   <g id="patch_5">
    <path d="M 108 384.48 
L 777.6 384.48 
" style="fill:none;stroke:#000000;stroke-linecap:square;stroke-linejoin:miter;stroke-width:0.8;"/>
   </g>
   <g id="patch_6">
    <path d="M 108 51.84 
L 777.6 51.84 
" style="fill:none;stroke:#000000;stroke-linecap:square;stroke-linejoin:miter;stroke-width:0.8;"/>
   </g>
   <g id="legend_1">
    <g id="patch_7">
     <path d="M 678.409375 137.238438 
L 770.6 137.238438 
Q 772.6 137.238438 772.6 135.238438 
L 772.6 58.84 
Q 772.6 56.84 770.6 56.84 
L 678.409375 56.84 
Q 676.409375 56.84 676.409375 58.84 
L 676.409375 135.238438 
Q 676.409375 137.238438 678.409375 137.238438 
z
" style="fill:#ffffff;opacity:0.8;stroke:#cccccc;stroke-linejoin:miter;"/>
    </g>
    <g id="line2d_38">
     <path d="M 680.409375 65.33375 
L 700.409375 65.33375 
" style="fill:none;stroke:#1f77b4;stroke-linecap:square;stroke-width:1.5;"/>
    </g>
    <g id="line2d_39"/>
    <g id="text_18">
     <!-- 隔夜-5日均值 -->
     <defs>
      <path d="M 32.90625 28.5625 
Q 35.25 10.296875 24.21875 7.953125 
Q 20.40625 7.28125 15.328125 7.859375 
Q 14.546875 11.671875 13.28125 15.28125 
L 13.28125 -13.03125 
L 6.25 -13.03125 
L 6.25 78.65625 
L 32.8125 78.65625 
L 32.8125 72.125 
Q 28.03125 55.71875 24.90625 46.234375 
Q 31.9375 36.578125 32.90625 28.5625 
z
M 44.53125 -13.234375 
L 37.703125 -13.234375 
L 37.703125 37.453125 
L 94.34375 37.453125 
L 94.34375 -3.65625 
Q 94.34375 -12.84375 85.25 -12.84375 
Q 80.953125 -12.84375 74.609375 -12.75 
Q 74.125 -10.5 73.140625 -5.421875 
Q 79 -5.8125 83.5 -5.8125 
Q 87.5 -5.8125 87.5 -1.703125 
L 87.5 31.390625 
L 44.53125 31.390625 
z
M 43.359375 65.765625 
L 88.484375 65.765625 
L 88.484375 41.75 
L 81.453125 41.75 
L 81.453125 44.28125 
L 50.390625 44.28125 
L 50.390625 41.75 
L 43.359375 41.75 
z
M 21.484375 14.890625 
Q 27.734375 15.578125 25.6875 28.265625 
Q 24.421875 36.46875 17.671875 44.96875 
Q 21.875 57.46875 25.78125 72.125 
L 13.28125 72.125 
L 13.28125 15.671875 
Q 17.671875 14.5 21.484375 14.890625 
z
M 47.859375 15.28125 
L 67.578125 15.28125 
Q 72.515625 24.21875 75.296875 30.515625 
L 81.734375 27 
Q 78.078125 20.90625 74.46875 15.28125 
L 84.1875 15.28125 
L 84.1875 9.421875 
L 69.234375 9.421875 
L 69.234375 -11.671875 
L 62.59375 -11.671875 
L 62.59375 9.421875 
L 47.859375 9.421875 
z
M 37.109375 78.765625 
L 96.296875 78.765625 
L 96.296875 72.40625 
L 37.109375 72.40625 
z
M 81.453125 59.90625 
L 50.390625 59.90625 
L 50.390625 50.140625 
L 81.453125 50.140625 
z
M 50.390625 27.296875 
L 55.765625 30.421875 
Q 59.96875 24.859375 62.890625 19.390625 
L 57.03125 15.96875 
Q 54.296875 21.234375 50.390625 27.296875 
z
" id="MicrosoftYaHei-9694"/>
      <path d="M 27.828125 23.578125 
Q 42.578125 39.40625 51.265625 60.890625 
L 58.6875 58.34375 
Q 56.9375 54.34375 55.03125 50.53125 
L 89.15625 50.53125 
L 89.15625 43.5 
Q 82.125 21.625 69.1875 8.15625 
Q 81.453125 -0.390625 98.640625 -4.734375 
Q 95.703125 -9.03125 93.5625 -12.9375 
Q 75.390625 -7.078125 62.984375 2.484375 
Q 51.3125 -6.84375 34.375 -13.53125 
Q 32.515625 -10.5 29.5 -6.6875 
Q 45.515625 -0.484375 56.78125 7.953125 
Q 48.578125 16.359375 42.28125 29.15625 
Q 38.28125 23.53125 33.796875 18.40625 
Q 30.5625 21.4375 27.828125 23.578125 
z
M 2.9375 69.09375 
L 50.734375 69.09375 
Q 47.703125 74.265625 43.65625 79.734375 
L 49.8125 83.734375 
Q 53.8125 78.65625 58.015625 72.015625 
L 53.421875 69.09375 
L 97.5625 69.09375 
L 97.5625 61.859375 
L 2.9375 61.859375 
z
M 1.5625 23 
Q 18.265625 40.484375 26.46875 60.984375 
L 33.984375 58.453125 
Q 28.90625 47.859375 23.640625 39.203125 
L 23.640625 -13.03125 
L 16.21875 -13.03125 
L 16.21875 28.078125 
Q 10.5 20.359375 4.59375 14.796875 
Q 3.21875 18.703125 1.5625 23 
z
M 81.15625 43.5 
L 51.3125 43.5 
Q 49.171875 39.546875 46.78125 35.84375 
Q 53.421875 22.078125 62.9375 13.234375 
Q 75 24.953125 81.15625 43.5 
z
M 54.203125 35.296875 
L 58.890625 39.890625 
Q 64.546875 35.109375 69.734375 29.640625 
L 64.453125 24.5625 
Q 60.453125 29.34375 54.203125 35.296875 
z
" id="MicrosoftYaHei-591c"/>
      <path d="M 35.0625 43.796875 
Q 45.796875 61.765625 52.15625 83.15625 
L 59.96875 80.8125 
Q 57.671875 74.125 55.171875 67.921875 
L 93.953125 67.921875 
Q 92.578125 16.453125 91.796875 4.640625 
Q 91.109375 -10.890625 75.09375 -10.890625 
Q 65.4375 -10.890625 57.90625 -10.5 
Q 57.328125 -6.59375 56.34375 -2.203125 
L 56.640625 -2.203125 
Q 66.40625 -3.265625 74.609375 -3.265625 
Q 83.59375 -3.265625 84.28125 5.90625 
Q 85.25 22.609375 86.140625 60.796875 
L 52.203125 60.796875 
Q 47.3125 49.5625 41.796875 40.1875 
Q 38.765625 42.046875 35.0625 43.796875 
z
M 1.265625 6.6875 
Q 8.734375 9.375 15.71875 12.015625 
L 15.71875 50.828125 
L 2.640625 50.828125 
L 2.640625 57.765625 
L 15.71875 57.765625 
L 15.71875 82.171875 
L 22.953125 82.171875 
L 22.953125 57.765625 
L 35.640625 57.765625 
L 35.640625 50.828125 
L 22.953125 50.828125 
L 22.953125 14.796875 
Q 30.03125 17.578125 36.53125 20.359375 
Q 36.71875 15.484375 37.015625 12.25 
Q 21.296875 6.296875 3.90625 -0.828125 
z
M 39.265625 13.328125 
Q 58.890625 21.140625 79.984375 30.21875 
Q 80.46875 25.640625 81.0625 22.40625 
Q 62.984375 14.796875 42.28125 5.609375 
z
M 49.03125 45.453125 
L 54.390625 50.25 
Q 62.890625 42.4375 70.796875 34.625 
L 64.453125 29.046875 
Q 56.9375 37.640625 49.03125 45.453125 
z
" id="MicrosoftYaHei-5747"/>
      <path d="M 25.296875 -3.375 
L 35.15625 -3.375 
L 35.15625 57.078125 
L 58.203125 57.078125 
L 58.203125 65.96875 
L 29.890625 65.96875 
L 29.890625 72.609375 
L 58.203125 72.609375 
L 58.203125 82.953125 
L 65.625 82.953125 
L 65.625 72.609375 
L 96.390625 72.609375 
L 96.390625 65.96875 
L 65.625 65.96875 
L 65.625 57.078125 
L 89.265625 57.078125 
L 89.265625 -3.375 
L 98.53125 -3.375 
L 98.53125 -10.015625 
L 25.296875 -10.015625 
z
M 1.078125 35.109375 
Q 14.15625 54.640625 21.390625 82.46875 
L 28.609375 80.328125 
Q 24.703125 67.71875 20.125 56.6875 
L 20.125 -12.75 
L 12.984375 -12.75 
L 12.984375 41.65625 
Q 8.796875 33.84375 4.109375 27.09375 
Q 2.734375 31.203125 1.078125 35.109375 
z
M 42.390625 -3.375 
L 82.03125 -3.375 
L 82.03125 5.515625 
L 42.390625 5.515625 
z
M 82.03125 50.640625 
L 42.390625 50.640625 
L 42.390625 41.84375 
L 82.03125 41.84375 
z
M 42.390625 26.8125 
L 82.03125 26.8125 
L 82.03125 35.59375 
L 42.390625 35.59375 
z
M 42.390625 11.765625 
L 82.03125 11.765625 
L 82.03125 20.5625 
L 42.390625 20.5625 
z
" id="MicrosoftYaHei-503c"/>
     </defs>
     <g transform="translate(708.409375 68.83375)scale(0.1 -0.1)">
      <use xlink:href="#MicrosoftYaHei-9694"/>
      <use x="100" xlink:href="#MicrosoftYaHei-591c"/>
      <use x="200" xlink:href="#MicrosoftYaHei-2d"/>
      <use x="243.261719" xlink:href="#MicrosoftYaHei-35"/>
      <use x="301.904297" xlink:href="#MicrosoftYaHei-65e5"/>
      <use x="401.904297" xlink:href="#MicrosoftYaHei-5747"/>
      <use x="501.904297" xlink:href="#MicrosoftYaHei-503c"/>
     </g>
    </g>
    <g id="line2d_40">
     <path d="M 680.409375 80.813438 
L 700.409375 80.813438 
" style="fill:none;stroke:#ff7f0e;stroke-linecap:square;stroke-width:1.5;"/>
    </g>
    <g id="line2d_41"/>
    <g id="text_19">
     <!-- 1W-5日均值 -->
     <defs>
      <path d="M 100.484375 75.640625 
L 79.296875 0 
L 67.921875 0 
L 52.6875 54.5 
Q 51.65625 58.203125 51.46875 62.3125 
L 51.265625 62.3125 
Q 50.984375 58.25 49.90625 54.59375 
L 34.515625 0 
L 23.25 0 
L 1.3125 75.640625 
L 12.109375 75.640625 
L 27.546875 18.5 
Q 28.5625 14.65625 28.765625 10.75 
L 29.046875 10.75 
Q 29.296875 13.671875 30.671875 18.5 
L 47.015625 75.640625 
L 56.640625 75.640625 
L 72.265625 18.0625 
Q 73.046875 15.234375 73.53125 10.84375 
L 73.734375 10.84375 
Q 73.96875 14.015625 75.140625 18.265625 
L 89.984375 75.640625 
z
" id="MicrosoftYaHei-57"/>
     </defs>
     <g transform="translate(708.409375 84.313438)scale(0.1 -0.1)">
      <use xlink:href="#MicrosoftYaHei-31"/>
      <use x="58.642578" xlink:href="#MicrosoftYaHei-57"/>
      <use x="160.400391" xlink:href="#MicrosoftYaHei-2d"/>
      <use x="203.662109" xlink:href="#MicrosoftYaHei-35"/>
      <use x="262.304688" xlink:href="#MicrosoftYaHei-65e5"/>
      <use x="362.304688" xlink:href="#MicrosoftYaHei-5747"/>
      <use x="462.304688" xlink:href="#MicrosoftYaHei-503c"/>
     </g>
    </g>
    <g id="line2d_42">
     <path d="M 680.409375 96.293125 
L 700.409375 96.293125 
" style="fill:none;stroke:#2ca02c;stroke-linecap:square;stroke-width:1.5;"/>
    </g>
    <g id="line2d_43"/>
    <g id="text_20">
     <!-- 2W-5日均值 -->
     <g transform="translate(708.409375 99.793125)scale(0.1 -0.1)">
      <use xlink:href="#MicrosoftYaHei-32"/>
      <use x="58.642578" xlink:href="#MicrosoftYaHei-57"/>
      <use x="160.400391" xlink:href="#MicrosoftYaHei-2d"/>
      <use x="203.662109" xlink:href="#MicrosoftYaHei-35"/>
      <use x="262.304688" xlink:href="#MicrosoftYaHei-65e5"/>
      <use x="362.304688" xlink:href="#MicrosoftYaHei-5747"/>
      <use x="462.304688" xlink:href="#MicrosoftYaHei-503c"/>
     </g>
    </g>
    <g id="line2d_44">
     <path d="M 680.409375 111.772812 
L 700.409375 111.772812 
" style="fill:none;stroke:#d62728;stroke-linecap:square;stroke-width:1.5;"/>
    </g>
    <g id="line2d_45"/>
    <g id="text_21">
     <!-- 1M-5日均值 -->
     <defs>
      <path d="M 78.171875 0 
L 78.171875 50.09375 
Q 78.171875 56.296875 78.90625 64.984375 
L 78.65625 64.984375 
Q 77.390625 59.515625 76.421875 57.375 
L 51.46875 0 
L 46.046875 0 
L 21.140625 56.9375 
Q 20.265625 58.890625 18.890625 64.984375 
L 18.609375 64.984375 
Q 19.09375 59.71875 19.09375 49.65625 
L 19.09375 0 
L 9.765625 0 
L 9.765625 75.640625 
L 23 75.640625 
L 45.3125 23.78125 
Q 47.859375 17.828125 48.6875 14.5 
L 49.03125 14.5 
Q 51.5625 21.484375 52.59375 23.96875 
L 75.296875 75.640625 
L 87.890625 75.640625 
L 87.890625 0 
z
" id="MicrosoftYaHei-4d"/>
     </defs>
     <g transform="translate(708.409375 115.272812)scale(0.1 -0.1)">
      <use xlink:href="#MicrosoftYaHei-31"/>
      <use x="58.642578" xlink:href="#MicrosoftYaHei-4d"/>
      <use x="156.347656" xlink:href="#MicrosoftYaHei-2d"/>
      <use x="199.609375" xlink:href="#MicrosoftYaHei-35"/>
      <use x="258.251953" xlink:href="#MicrosoftYaHei-65e5"/>
      <use x="358.251953" xlink:href="#MicrosoftYaHei-5747"/>
      <use x="458.251953" xlink:href="#MicrosoftYaHei-503c"/>
     </g>
    </g>
    <g id="line2d_46">
     <path d="M 680.409375 127.2525 
L 700.409375 127.2525 
" style="fill:none;stroke:#9467bd;stroke-linecap:square;stroke-width:1.5;"/>
    </g>
    <g id="line2d_47"/>
    <g id="text_22">
     <!-- 1Y-5日均值 -->
     <defs>
      <path d="M 59.8125 75.640625 
L 34.90625 27.828125 
L 34.90625 0 
L 25.09375 0 
L 25.09375 27.59375 
L 0.828125 75.640625 
L 12.015625 75.640625 
L 28.375 42.140625 
Q 28.421875 42.09375 30.171875 37.3125 
L 30.328125 37.3125 
Q 30.90625 39.359375 32.328125 42.09375 
L 49.421875 75.640625 
z
" id="MicrosoftYaHei-59"/>
     </defs>
     <g transform="translate(708.409375 130.7525)scale(0.1 -0.1)">
      <use xlink:href="#MicrosoftYaHei-31"/>
      <use x="58.642578" xlink:href="#MicrosoftYaHei-59"/>
      <use x="118.994141" xlink:href="#MicrosoftYaHei-2d"/>
      <use x="162.255859" xlink:href="#MicrosoftYaHei-35"/>
      <use x="220.898438" xlink:href="#MicrosoftYaHei-65e5"/>
      <use x="320.898438" xlink:href="#MicrosoftYaHei-5747"/>
      <use x="420.898438" xlink:href="#MicrosoftYaHei-503c"/>
     </g>
    </g>
   </g>
  </g>
 </g>
 <defs>
  <clipPath id="pbeaee73061">
   <rect height="332.64" width="669.6" x="108" y="51.84"/>
  </clipPath>
 </defs>
</svg>
