<?xml version="1.0" encoding="utf-8" standalone="no"?>
<!DOCTYPE svg PUBLIC "-//W3C//DTD SVG 1.1//EN"
  "http://www.w3.org/Graphics/SVG/1.1/DTD/svg11.dtd">
<!-- Created with matplotlib (http://matplotlib.org/) -->
<svg height="432pt" version="1.1" viewBox="0 0 864 432" width="864pt" xmlns="http://www.w3.org/2000/svg" xmlns:xlink="http://www.w3.org/1999/xlink">
 <defs>
  <style type="text/css">
*{stroke-linecap:butt;stroke-linejoin:round;}
  </style>
 </defs>
 <g id="figure_1">
  <g id="patch_1">
   <path d="M 0 432 
L 864 432 
L 864 0 
L 0 0 
z
" style="fill:#ffffff;"/>
  </g>
  <g id="axes_1">
   <g id="patch_2">
    <path d="M 108 384.48 
L 777.6 384.48 
L 777.6 51.84 
L 108 51.84 
z
" style="fill:#ffffff;"/>
   </g>
   <g id="matplotlib.axis_1">
    <g id="xtick_1">
     <g id="line2d_1">
      <path clip-path="url(#pde4b39e420)" d="M 108 384.48 
L 108 51.84 
" style="fill:none;stroke:#b0b0b0;stroke-linecap:square;stroke-width:0.8;"/>
     </g>
     <g id="line2d_2">
      <defs>
       <path d="M 0 0 
L 0 3.5 
" id="md905a04060" style="stroke:#000000;stroke-width:0.8;"/>
      </defs>
      <g>
       <use style="stroke:#000000;stroke-width:0.8;" x="108" xlink:href="#md905a04060" y="384.48"/>
      </g>
     </g>
     <g id="text_1">
      <!-- 2017-07-19 -->
      <defs>
       <path d="M 51.171875 0 
L 5.171875 0 
L 5.171875 8.296875 
L 27.15625 30.21875 
Q 36.234375 39.3125 39.3125 44.609375 
Q 42.390625 49.90625 42.390625 55.5625 
Q 42.390625 62.015625 38.765625 65.453125 
Q 35.15625 68.890625 28.328125 68.890625 
Q 18.21875 68.890625 9.03125 60.296875 
L 9.03125 70.015625 
Q 17.96875 76.90625 29.828125 76.90625 
Q 40.046875 76.90625 45.953125 71.390625 
Q 51.859375 65.875 51.859375 56.546875 
Q 51.859375 49.515625 48.0625 42.75 
Q 44.28125 35.984375 33.734375 25.53125 
L 16.5 8.6875 
L 16.5 8.5 
L 51.171875 8.5 
z
" id="MicrosoftYaHei-32"/>
       <path d="M 4.4375 36.328125 
Q 4.4375 56.34375 11.078125 66.625 
Q 17.71875 76.90625 30.328125 76.90625 
Q 54.34375 76.90625 54.34375 38.140625 
Q 54.34375 19 47.578125 8.859375 
Q 40.828125 -1.265625 28.609375 -1.265625 
Q 17.09375 -1.265625 10.765625 8.34375 
Q 4.4375 17.96875 4.4375 36.328125 
z
M 14.203125 36.765625 
Q 14.203125 6.640625 29.5 6.640625 
Q 44.53125 6.640625 44.53125 37.25 
Q 44.53125 68.953125 29.78125 68.953125 
Q 14.203125 68.953125 14.203125 36.765625 
z
" id="MicrosoftYaHei-30"/>
       <path d="M 52.59375 0 
L 9.234375 0 
L 9.234375 8.25 
L 26.171875 8.25 
L 26.171875 65.671875 
L 8.796875 60.640625 
L 8.796875 69.4375 
L 35.6875 77.25 
L 35.6875 8.25 
L 52.59375 8.25 
z
" id="MicrosoftYaHei-31"/>
       <path d="M 53.765625 72.3125 
L 24.171875 0 
L 14.265625 0 
L 42.390625 67.1875 
L 4.59375 67.1875 
L 4.59375 75.640625 
L 53.765625 75.640625 
z
" id="MicrosoftYaHei-37"/>
       <path d="M 36.375 26.265625 
L 7.625 26.265625 
L 7.625 33.640625 
L 36.375 33.640625 
z
" id="MicrosoftYaHei-2d"/>
       <path d="M 9.03125 10.25 
Q 15.28125 6.640625 22.515625 6.640625 
Q 32.671875 6.640625 38.25 14.640625 
Q 43.84375 22.65625 43.84375 37.40625 
Q 43.75 37.3125 43.65625 37.40625 
Q 38.671875 27.9375 26.90625 27.9375 
Q 17.390625 27.9375 11.140625 34.46875 
Q 4.890625 41.015625 4.890625 51.46875 
Q 4.890625 62.59375 11.71875 69.75 
Q 18.5625 76.90625 29.4375 76.90625 
Q 40.71875 76.90625 47.0625 68.046875 
Q 53.421875 59.1875 53.421875 42.234375 
Q 53.421875 21.296875 45.21875 10.015625 
Q 37.015625 -1.265625 22.515625 -1.265625 
Q 14.546875 -1.265625 9.03125 1.3125 
z
M 14.546875 52.6875 
Q 14.546875 45.0625 18.453125 40.59375 
Q 22.359375 36.140625 29.25 36.140625 
Q 35.203125 36.140625 39.25 40.203125 
Q 43.3125 44.28125 43.3125 50.09375 
Q 43.3125 58.25 39.28125 63.59375 
Q 35.25 68.953125 28.65625 68.953125 
Q 22.5625 68.953125 18.546875 64.3125 
Q 14.546875 59.671875 14.546875 52.6875 
z
" id="MicrosoftYaHei-39"/>
      </defs>
      <g transform="translate(80.217187 399.47375)scale(0.1 -0.1)">
       <use xlink:href="#MicrosoftYaHei-32"/>
       <use x="58.642578" xlink:href="#MicrosoftYaHei-30"/>
       <use x="117.285156" xlink:href="#MicrosoftYaHei-31"/>
       <use x="175.927734" xlink:href="#MicrosoftYaHei-37"/>
       <use x="234.570312" xlink:href="#MicrosoftYaHei-2d"/>
       <use x="277.832031" xlink:href="#MicrosoftYaHei-30"/>
       <use x="336.474609" xlink:href="#MicrosoftYaHei-37"/>
       <use x="395.117188" xlink:href="#MicrosoftYaHei-2d"/>
       <use x="438.378906" xlink:href="#MicrosoftYaHei-31"/>
       <use x="497.021484" xlink:href="#MicrosoftYaHei-39"/>
      </g>
     </g>
    </g>
    <g id="xtick_2">
     <g id="line2d_3">
      <path clip-path="url(#pde4b39e420)" d="M 199.978022 384.48 
L 199.978022 51.84 
" style="fill:none;stroke:#b0b0b0;stroke-linecap:square;stroke-width:0.8;"/>
     </g>
     <g id="line2d_4">
      <g>
       <use style="stroke:#000000;stroke-width:0.8;" x="199.978022" xlink:href="#md905a04060" y="384.48"/>
      </g>
     </g>
     <g id="text_2">
      <!-- 2017-09-27 -->
      <g transform="translate(172.195209 399.47375)scale(0.1 -0.1)">
       <use xlink:href="#MicrosoftYaHei-32"/>
       <use x="58.642578" xlink:href="#MicrosoftYaHei-30"/>
       <use x="117.285156" xlink:href="#MicrosoftYaHei-31"/>
       <use x="175.927734" xlink:href="#MicrosoftYaHei-37"/>
       <use x="234.570312" xlink:href="#MicrosoftYaHei-2d"/>
       <use x="277.832031" xlink:href="#MicrosoftYaHei-30"/>
       <use x="336.474609" xlink:href="#MicrosoftYaHei-39"/>
       <use x="395.117188" xlink:href="#MicrosoftYaHei-2d"/>
       <use x="438.378906" xlink:href="#MicrosoftYaHei-32"/>
       <use x="497.021484" xlink:href="#MicrosoftYaHei-37"/>
      </g>
     </g>
    </g>
    <g id="xtick_3">
     <g id="line2d_5">
      <path clip-path="url(#pde4b39e420)" d="M 291.956044 384.48 
L 291.956044 51.84 
" style="fill:none;stroke:#b0b0b0;stroke-linecap:square;stroke-width:0.8;"/>
     </g>
     <g id="line2d_6">
      <g>
       <use style="stroke:#000000;stroke-width:0.8;" x="291.956044" xlink:href="#md905a04060" y="384.48"/>
      </g>
     </g>
     <g id="text_3">
      <!-- 2017-12-12 -->
      <g transform="translate(264.173231 399.47375)scale(0.1 -0.1)">
       <use xlink:href="#MicrosoftYaHei-32"/>
       <use x="58.642578" xlink:href="#MicrosoftYaHei-30"/>
       <use x="117.285156" xlink:href="#MicrosoftYaHei-31"/>
       <use x="175.927734" xlink:href="#MicrosoftYaHei-37"/>
       <use x="234.570312" xlink:href="#MicrosoftYaHei-2d"/>
       <use x="277.832031" xlink:href="#MicrosoftYaHei-31"/>
       <use x="336.474609" xlink:href="#MicrosoftYaHei-32"/>
       <use x="395.117188" xlink:href="#MicrosoftYaHei-2d"/>
       <use x="438.378906" xlink:href="#MicrosoftYaHei-31"/>
       <use x="497.021484" xlink:href="#MicrosoftYaHei-32"/>
      </g>
     </g>
    </g>
    <g id="xtick_4">
     <g id="line2d_7">
      <path clip-path="url(#pde4b39e420)" d="M 383.934066 384.48 
L 383.934066 51.84 
" style="fill:none;stroke:#b0b0b0;stroke-linecap:square;stroke-width:0.8;"/>
     </g>
     <g id="line2d_8">
      <g>
       <use style="stroke:#000000;stroke-width:0.8;" x="383.934066" xlink:href="#md905a04060" y="384.48"/>
      </g>
     </g>
     <g id="text_4">
      <!-- 2018-02-27 -->
      <defs>
       <path d="M 21.390625 39.796875 
Q 7.859375 46.09375 7.859375 58.0625 
Q 7.859375 66.40625 14.203125 71.65625 
Q 20.5625 76.90625 30.421875 76.90625 
Q 39.453125 76.90625 45.3125 71.96875 
Q 51.171875 67.046875 51.171875 59.234375 
Q 51.171875 46.625 37.0625 39.84375 
L 37.0625 39.65625 
Q 53.609375 33.6875 53.609375 19.34375 
Q 53.609375 9.90625 46.796875 4.3125 
Q 39.984375 -1.265625 27.78125 -1.265625 
Q 17.78125 -1.265625 11.46875 4.25 
Q 5.171875 9.765625 5.171875 18.5625 
Q 5.171875 33.015625 21.390625 39.59375 
z
M 41.5 58.109375 
Q 41.5 63.1875 38.328125 66.109375 
Q 35.15625 69.046875 29.734375 69.046875 
Q 24.65625 69.046875 21.09375 65.984375 
Q 17.53125 62.9375 17.53125 58.203125 
Q 17.53125 48.734375 29.390625 43.796875 
Q 41.5 48.828125 41.5 58.109375 
z
M 28.8125 35.25 
Q 14.796875 29.59375 14.796875 19.046875 
Q 14.796875 13.578125 18.890625 10.0625 
Q 23 6.546875 29.59375 6.546875 
Q 35.984375 6.546875 39.984375 10.03125 
Q 44 13.53125 44 18.75 
Q 44 29.734375 28.8125 35.25 
z
" id="MicrosoftYaHei-38"/>
      </defs>
      <g transform="translate(356.151253 399.47375)scale(0.1 -0.1)">
       <use xlink:href="#MicrosoftYaHei-32"/>
       <use x="58.642578" xlink:href="#MicrosoftYaHei-30"/>
       <use x="117.285156" xlink:href="#MicrosoftYaHei-31"/>
       <use x="175.927734" xlink:href="#MicrosoftYaHei-38"/>
       <use x="234.570312" xlink:href="#MicrosoftYaHei-2d"/>
       <use x="277.832031" xlink:href="#MicrosoftYaHei-30"/>
       <use x="336.474609" xlink:href="#MicrosoftYaHei-32"/>
       <use x="395.117188" xlink:href="#MicrosoftYaHei-2d"/>
       <use x="438.378906" xlink:href="#MicrosoftYaHei-32"/>
       <use x="497.021484" xlink:href="#MicrosoftYaHei-37"/>
      </g>
     </g>
    </g>
    <g id="xtick_5">
     <g id="line2d_9">
      <path clip-path="url(#pde4b39e420)" d="M 475.912088 384.48 
L 475.912088 51.84 
" style="fill:none;stroke:#b0b0b0;stroke-linecap:square;stroke-width:0.8;"/>
     </g>
     <g id="line2d_10">
      <g>
       <use style="stroke:#000000;stroke-width:0.8;" x="475.912088" xlink:href="#md905a04060" y="384.48"/>
      </g>
     </g>
     <g id="text_5">
      <!-- 2018-05-10 -->
      <defs>
       <path d="M 8.640625 11.625 
Q 16.265625 6.640625 24.515625 6.640625 
Q 32.328125 6.640625 37.109375 11 
Q 41.890625 15.375 41.890625 22.609375 
Q 41.890625 29.890625 37.03125 33.890625 
Q 32.171875 37.890625 22.953125 37.890625 
Q 18.5 37.890625 10.984375 37.203125 
L 10.984375 75.640625 
L 48.1875 75.640625 
L 48.1875 67.1875 
L 19.875 67.1875 
L 19.875 45.796875 
Q 24.125 46.046875 26.265625 46.046875 
Q 38.234375 46.046875 44.921875 39.984375 
Q 51.609375 33.9375 51.609375 23.296875 
Q 51.609375 12.3125 44.421875 5.515625 
Q 37.25 -1.265625 24.609375 -1.265625 
Q 14.015625 -1.265625 8.640625 1.859375 
z
" id="MicrosoftYaHei-35"/>
      </defs>
      <g transform="translate(448.129275 399.47375)scale(0.1 -0.1)">
       <use xlink:href="#MicrosoftYaHei-32"/>
       <use x="58.642578" xlink:href="#MicrosoftYaHei-30"/>
       <use x="117.285156" xlink:href="#MicrosoftYaHei-31"/>
       <use x="175.927734" xlink:href="#MicrosoftYaHei-38"/>
       <use x="234.570312" xlink:href="#MicrosoftYaHei-2d"/>
       <use x="277.832031" xlink:href="#MicrosoftYaHei-30"/>
       <use x="336.474609" xlink:href="#MicrosoftYaHei-35"/>
       <use x="395.117188" xlink:href="#MicrosoftYaHei-2d"/>
       <use x="438.378906" xlink:href="#MicrosoftYaHei-31"/>
       <use x="497.021484" xlink:href="#MicrosoftYaHei-30"/>
      </g>
     </g>
    </g>
    <g id="xtick_6">
     <g id="line2d_11">
      <path clip-path="url(#pde4b39e420)" d="M 567.89011 384.48 
L 567.89011 51.84 
" style="fill:none;stroke:#b0b0b0;stroke-linecap:square;stroke-width:0.8;"/>
     </g>
     <g id="line2d_12">
      <g>
       <use style="stroke:#000000;stroke-width:0.8;" x="567.89011" xlink:href="#md905a04060" y="384.48"/>
      </g>
     </g>
     <g id="text_6">
      <!-- 2018-07-20 -->
      <g transform="translate(540.107297 399.47375)scale(0.1 -0.1)">
       <use xlink:href="#MicrosoftYaHei-32"/>
       <use x="58.642578" xlink:href="#MicrosoftYaHei-30"/>
       <use x="117.285156" xlink:href="#MicrosoftYaHei-31"/>
       <use x="175.927734" xlink:href="#MicrosoftYaHei-38"/>
       <use x="234.570312" xlink:href="#MicrosoftYaHei-2d"/>
       <use x="277.832031" xlink:href="#MicrosoftYaHei-30"/>
       <use x="336.474609" xlink:href="#MicrosoftYaHei-37"/>
       <use x="395.117188" xlink:href="#MicrosoftYaHei-2d"/>
       <use x="438.378906" xlink:href="#MicrosoftYaHei-32"/>
       <use x="497.021484" xlink:href="#MicrosoftYaHei-30"/>
      </g>
     </g>
    </g>
    <g id="xtick_7">
     <g id="line2d_13">
      <path clip-path="url(#pde4b39e420)" d="M 659.868132 384.48 
L 659.868132 51.84 
" style="fill:none;stroke:#b0b0b0;stroke-linecap:square;stroke-width:0.8;"/>
     </g>
     <g id="line2d_14">
      <g>
       <use style="stroke:#000000;stroke-width:0.8;" x="659.868132" xlink:href="#md905a04060" y="384.48"/>
      </g>
     </g>
     <g id="text_7">
      <!-- 2018-09-29 -->
      <g transform="translate(632.085319 399.47375)scale(0.1 -0.1)">
       <use xlink:href="#MicrosoftYaHei-32"/>
       <use x="58.642578" xlink:href="#MicrosoftYaHei-30"/>
       <use x="117.285156" xlink:href="#MicrosoftYaHei-31"/>
       <use x="175.927734" xlink:href="#MicrosoftYaHei-38"/>
       <use x="234.570312" xlink:href="#MicrosoftYaHei-2d"/>
       <use x="277.832031" xlink:href="#MicrosoftYaHei-30"/>
       <use x="336.474609" xlink:href="#MicrosoftYaHei-39"/>
       <use x="395.117188" xlink:href="#MicrosoftYaHei-2d"/>
       <use x="438.378906" xlink:href="#MicrosoftYaHei-32"/>
       <use x="497.021484" xlink:href="#MicrosoftYaHei-39"/>
      </g>
     </g>
    </g>
    <g id="xtick_8">
     <g id="line2d_15">
      <path clip-path="url(#pde4b39e420)" d="M 751.846154 384.48 
L 751.846154 51.84 
" style="fill:none;stroke:#b0b0b0;stroke-linecap:square;stroke-width:0.8;"/>
     </g>
     <g id="line2d_16">
      <g>
       <use style="stroke:#000000;stroke-width:0.8;" x="751.846154" xlink:href="#md905a04060" y="384.48"/>
      </g>
     </g>
     <g id="text_8">
      <!-- 2018-12-13 -->
      <defs>
       <path d="M 6.984375 12.640625 
Q 14.75 6.640625 24.515625 6.640625 
Q 32.328125 6.640625 36.890625 10.46875 
Q 41.453125 14.3125 41.453125 20.75 
Q 41.453125 35.109375 20.90625 35.109375 
L 14.59375 35.109375 
L 14.59375 43.015625 
L 20.609375 43.015625 
Q 38.8125 43.015625 38.8125 56.5 
Q 38.8125 68.953125 24.90625 68.953125 
Q 16.9375 68.953125 9.90625 63.578125 
L 9.90625 72.609375 
Q 17.328125 76.90625 27.25 76.90625 
Q 36.921875 76.90625 42.78125 71.84375 
Q 48.640625 66.796875 48.640625 58.734375 
Q 48.640625 43.890625 33.5 39.65625 
L 33.5 39.453125 
Q 41.703125 38.578125 46.453125 33.671875 
Q 51.21875 28.765625 51.21875 21.4375 
Q 51.21875 11.234375 43.875 4.984375 
Q 36.53125 -1.265625 24.3125 -1.265625 
Q 13.578125 -1.265625 6.984375 2.734375 
z
" id="MicrosoftYaHei-33"/>
      </defs>
      <g transform="translate(724.063341 399.47375)scale(0.1 -0.1)">
       <use xlink:href="#MicrosoftYaHei-32"/>
       <use x="58.642578" xlink:href="#MicrosoftYaHei-30"/>
       <use x="117.285156" xlink:href="#MicrosoftYaHei-31"/>
       <use x="175.927734" xlink:href="#MicrosoftYaHei-38"/>
       <use x="234.570312" xlink:href="#MicrosoftYaHei-2d"/>
       <use x="277.832031" xlink:href="#MicrosoftYaHei-31"/>
       <use x="336.474609" xlink:href="#MicrosoftYaHei-32"/>
       <use x="395.117188" xlink:href="#MicrosoftYaHei-2d"/>
       <use x="438.378906" xlink:href="#MicrosoftYaHei-31"/>
       <use x="497.021484" xlink:href="#MicrosoftYaHei-33"/>
      </g>
     </g>
    </g>
    <g id="text_9">
     <!-- 日期 -->
     <defs>
      <path d="M 15.234375 76.703125 
L 84.859375 76.703125 
L 84.859375 -11.96875 
L 76.5625 -11.96875 
L 76.5625 -5.03125 
L 23.53125 -5.03125 
L 23.53125 -11.96875 
L 15.234375 -11.96875 
z
M 23.53125 32.859375 
L 23.53125 2.09375 
L 76.5625 2.09375 
L 76.5625 32.859375 
z
M 23.53125 69.390625 
L 23.53125 40.1875 
L 76.5625 40.1875 
L 76.5625 69.390625 
z
" id="MicrosoftYaHei-65e5"/>
      <path d="M 58.890625 79.15625 
L 93.453125 79.15625 
L 93.453125 -0.046875 
Q 93.453125 -11.578125 82.515625 -11.578125 
Q 77.046875 -11.578125 71.78125 -11.28125 
Q 71.390625 -8.0625 70.609375 -3.765625 
Q 77.734375 -4.4375 80.859375 -4.4375 
Q 86.234375 -4.4375 86.234375 0.921875 
L 86.234375 21.4375 
L 65.328125 21.4375 
Q 64.265625 0.046875 52.34375 -14.109375 
Q 49.703125 -11.375 46.484375 -8.640625 
Q 54.390625 0.4375 56.546875 10.203125 
Q 58.890625 19.578125 58.890625 42.828125 
z
M 1.953125 17.828125 
L 11.140625 17.828125 
L 11.140625 62.9375 
L 3.125 62.9375 
L 3.125 69.578125 
L 11.140625 69.578125 
L 11.140625 81.5 
L 18.359375 81.5 
L 18.359375 69.578125 
L 38.671875 69.578125 
L 38.671875 81.890625 
L 45.90625 81.890625 
L 45.90625 69.578125 
L 53.8125 69.578125 
L 53.8125 62.9375 
L 45.90625 62.9375 
L 45.90625 17.828125 
L 53.71875 17.828125 
L 53.71875 11.1875 
L 1.953125 11.1875 
z
M 65.765625 27.875 
L 86.234375 27.875 
L 86.234375 47.015625 
L 66.109375 47.015625 
Q 66.21875 34.421875 65.765625 27.875 
z
M 86.234375 72.515625 
L 66.109375 72.515625 
L 66.109375 53.46875 
L 86.234375 53.46875 
z
M 18.359375 17.828125 
L 38.671875 17.828125 
L 38.671875 28.765625 
L 18.359375 28.765625 
z
M 18.359375 35.015625 
L 38.671875 35.015625 
L 38.671875 45.84375 
L 18.359375 45.84375 
z
M 18.359375 52.09375 
L 38.671875 52.09375 
L 38.671875 62.9375 
L 18.359375 62.9375 
z
M 18.359375 9.328125 
L 24.3125 4.640625 
Q 14.453125 -6 6.34375 -13.234375 
Q 4.296875 -10.890625 1.171875 -8.0625 
Q 10.453125 -0.140625 18.359375 9.328125 
z
M 31.15625 4.734375 
L 35.84375 9.515625 
Q 42.671875 4.4375 48.734375 -0.734375 
L 43.5625 -6.296875 
Q 38.09375 -0.828125 31.15625 4.734375 
z
" id="MicrosoftYaHei-671f"/>
     </defs>
     <g transform="translate(432.8 413.953438)scale(0.1 -0.1)">
      <use xlink:href="#MicrosoftYaHei-65e5"/>
      <use x="100" xlink:href="#MicrosoftYaHei-671f"/>
     </g>
    </g>
   </g>
   <g id="matplotlib.axis_2">
    <g id="ytick_1">
     <g id="line2d_17">
      <path clip-path="url(#pde4b39e420)" d="M 108 384.203307 
L 777.6 384.203307 
" style="fill:none;stroke:#b0b0b0;stroke-linecap:square;stroke-width:0.8;"/>
     </g>
     <g id="line2d_18">
      <defs>
       <path d="M 0 0 
L -3.5 0 
" id="m0ec183444a" style="stroke:#000000;stroke-width:0.8;"/>
      </defs>
      <g>
       <use style="stroke:#000000;stroke-width:0.8;" x="108" xlink:href="#m0ec183444a" y="384.203307"/>
      </g>
     </g>
     <g id="text_10">
      <!-- 1.5 -->
      <defs>
       <path d="M 5.8125 5.03125 
Q 5.8125 7.671875 7.609375 9.46875 
Q 9.421875 11.28125 12.109375 11.28125 
Q 14.84375 11.28125 16.640625 9.453125 
Q 18.453125 7.625 18.453125 5.03125 
Q 18.453125 2.484375 16.640625 0.65625 
Q 14.84375 -1.171875 12.0625 -1.171875 
Q 9.375 -1.171875 7.59375 0.65625 
Q 5.8125 2.484375 5.8125 5.03125 
z
" id="MicrosoftYaHei-2e"/>
      </defs>
      <g transform="translate(86.864063 388.200182)scale(0.1 -0.1)">
       <use xlink:href="#MicrosoftYaHei-31"/>
       <use x="58.642578" xlink:href="#MicrosoftYaHei-2e"/>
       <use x="82.714844" xlink:href="#MicrosoftYaHei-35"/>
      </g>
     </g>
    </g>
    <g id="ytick_2">
     <g id="line2d_19">
      <path clip-path="url(#pde4b39e420)" d="M 108 337.933646 
L 777.6 337.933646 
" style="fill:none;stroke:#b0b0b0;stroke-linecap:square;stroke-width:0.8;"/>
     </g>
     <g id="line2d_20">
      <g>
       <use style="stroke:#000000;stroke-width:0.8;" x="108" xlink:href="#m0ec183444a" y="337.933646"/>
      </g>
     </g>
     <g id="text_11">
      <!-- 2.0 -->
      <g transform="translate(86.864063 341.930521)scale(0.1 -0.1)">
       <use xlink:href="#MicrosoftYaHei-32"/>
       <use x="58.642578" xlink:href="#MicrosoftYaHei-2e"/>
       <use x="82.714844" xlink:href="#MicrosoftYaHei-30"/>
      </g>
     </g>
    </g>
    <g id="ytick_3">
     <g id="line2d_21">
      <path clip-path="url(#pde4b39e420)" d="M 108 291.663984 
L 777.6 291.663984 
" style="fill:none;stroke:#b0b0b0;stroke-linecap:square;stroke-width:0.8;"/>
     </g>
     <g id="line2d_22">
      <g>
       <use style="stroke:#000000;stroke-width:0.8;" x="108" xlink:href="#m0ec183444a" y="291.663984"/>
      </g>
     </g>
     <g id="text_12">
      <!-- 2.5 -->
      <g transform="translate(86.864063 295.660859)scale(0.1 -0.1)">
       <use xlink:href="#MicrosoftYaHei-32"/>
       <use x="58.642578" xlink:href="#MicrosoftYaHei-2e"/>
       <use x="82.714844" xlink:href="#MicrosoftYaHei-35"/>
      </g>
     </g>
    </g>
    <g id="ytick_4">
     <g id="line2d_23">
      <path clip-path="url(#pde4b39e420)" d="M 108 245.394323 
L 777.6 245.394323 
" style="fill:none;stroke:#b0b0b0;stroke-linecap:square;stroke-width:0.8;"/>
     </g>
     <g id="line2d_24">
      <g>
       <use style="stroke:#000000;stroke-width:0.8;" x="108" xlink:href="#m0ec183444a" y="245.394323"/>
      </g>
     </g>
     <g id="text_13">
      <!-- 3.0 -->
      <g transform="translate(86.864063 249.391198)scale(0.1 -0.1)">
       <use xlink:href="#MicrosoftYaHei-33"/>
       <use x="58.642578" xlink:href="#MicrosoftYaHei-2e"/>
       <use x="82.714844" xlink:href="#MicrosoftYaHei-30"/>
      </g>
     </g>
    </g>
    <g id="ytick_5">
     <g id="line2d_25">
      <path clip-path="url(#pde4b39e420)" d="M 108 199.124661 
L 777.6 199.124661 
" style="fill:none;stroke:#b0b0b0;stroke-linecap:square;stroke-width:0.8;"/>
     </g>
     <g id="line2d_26">
      <g>
       <use style="stroke:#000000;stroke-width:0.8;" x="108" xlink:href="#m0ec183444a" y="199.124661"/>
      </g>
     </g>
     <g id="text_14">
      <!-- 3.5 -->
      <g transform="translate(86.864063 203.121536)scale(0.1 -0.1)">
       <use xlink:href="#MicrosoftYaHei-33"/>
       <use x="58.642578" xlink:href="#MicrosoftYaHei-2e"/>
       <use x="82.714844" xlink:href="#MicrosoftYaHei-35"/>
      </g>
     </g>
    </g>
    <g id="ytick_6">
     <g id="line2d_27">
      <path clip-path="url(#pde4b39e420)" d="M 108 152.855 
L 777.6 152.855 
" style="fill:none;stroke:#b0b0b0;stroke-linecap:square;stroke-width:0.8;"/>
     </g>
     <g id="line2d_28">
      <g>
       <use style="stroke:#000000;stroke-width:0.8;" x="108" xlink:href="#m0ec183444a" y="152.855"/>
      </g>
     </g>
     <g id="text_15">
      <!-- 4.0 -->
      <defs>
       <path d="M 55.078125 19.625 
L 45.40625 19.625 
L 45.40625 0 
L 36.140625 0 
L 36.140625 19.625 
L 0.875 19.625 
L 0.875 25.828125 
L 34.328125 75.640625 
L 45.40625 75.640625 
L 45.40625 27.203125 
L 55.078125 27.203125 
z
M 36.140625 27.203125 
L 36.140625 58.890625 
Q 36.140625 62.25 36.328125 66.65625 
L 36.140625 66.65625 
Q 35.453125 64.796875 33.25 60.84375 
L 10.75 27.203125 
z
" id="MicrosoftYaHei-34"/>
      </defs>
      <g transform="translate(86.864063 156.851875)scale(0.1 -0.1)">
       <use xlink:href="#MicrosoftYaHei-34"/>
       <use x="58.642578" xlink:href="#MicrosoftYaHei-2e"/>
       <use x="82.714844" xlink:href="#MicrosoftYaHei-30"/>
      </g>
     </g>
    </g>
    <g id="ytick_7">
     <g id="line2d_29">
      <path clip-path="url(#pde4b39e420)" d="M 108 106.585338 
L 777.6 106.585338 
" style="fill:none;stroke:#b0b0b0;stroke-linecap:square;stroke-width:0.8;"/>
     </g>
     <g id="line2d_30">
      <g>
       <use style="stroke:#000000;stroke-width:0.8;" x="108" xlink:href="#m0ec183444a" y="106.585338"/>
      </g>
     </g>
     <g id="text_16">
      <!-- 4.5 -->
      <g transform="translate(86.864063 110.582213)scale(0.1 -0.1)">
       <use xlink:href="#MicrosoftYaHei-34"/>
       <use x="58.642578" xlink:href="#MicrosoftYaHei-2e"/>
       <use x="82.714844" xlink:href="#MicrosoftYaHei-35"/>
      </g>
     </g>
    </g>
    <g id="ytick_8">
     <g id="line2d_31">
      <path clip-path="url(#pde4b39e420)" d="M 108 60.315677 
L 777.6 60.315677 
" style="fill:none;stroke:#b0b0b0;stroke-linecap:square;stroke-width:0.8;"/>
     </g>
     <g id="line2d_32">
      <g>
       <use style="stroke:#000000;stroke-width:0.8;" x="108" xlink:href="#m0ec183444a" y="60.315677"/>
      </g>
     </g>
     <g id="text_17">
      <!-- 5.0 -->
      <g transform="translate(86.864063 64.312552)scale(0.1 -0.1)">
       <use xlink:href="#MicrosoftYaHei-35"/>
       <use x="58.642578" xlink:href="#MicrosoftYaHei-2e"/>
       <use x="82.714844" xlink:href="#MicrosoftYaHei-30"/>
      </g>
     </g>
    </g>
   </g>
   <g id="line2d_33">
    <path clip-path="url(#pde4b39e420)" d="M 108 276.080362 
L 109.83956 274.331369 
L 111.679121 272.369535 
L 113.518681 270.981446 
L 115.358242 270.731589 
L 117.197802 270.676066 
L 119.037363 270.07456 
L 120.876923 268.547661 
L 126.395604 263.004556 
L 128.235165 262.615891 
L 130.074725 264.35563 
L 131.914286 265.651181 
L 135.593407 266.678367 
L 137.432967 266.863446 
L 139.272527 265.586403 
L 141.112088 264.883104 
L 144.791209 264.263091 
L 146.630769 263.550538 
L 148.47033 262.70843 
L 150.30989 261.348102 
L 157.668132 259.950758 
L 159.507692 259.895235 
L 161.347253 257.961163 
L 163.186813 256.508295 
L 165.026374 256.822929 
L 166.865934 257.60026 
L 168.705495 259.469554 
L 170.545055 264.226075 
L 172.384615 269.454547 
L 174.224176 272.980295 
L 176.063736 276.256187 
L 177.903297 278.218021 
L 179.742857 278.5234 
L 181.582418 278.35683 
L 183.421978 277.607261 
L 185.261538 276.506043 
L 187.101099 274.433162 
L 188.940659 271.027715 
L 190.78022 268.436614 
L 192.61978 266.132385 
L 194.459341 265.021913 
L 198.138462 264.892358 
L 199.978022 263.541284 
L 201.817582 261.477657 
L 203.657143 260.58928 
L 205.496703 257.257864 
L 207.336264 259.053127 
L 209.175824 261.36661 
L 211.015385 264.623994 
L 212.854945 267.34465 
L 214.694505 273.507769 
L 220.213187 281.438389 
L 222.052747 282.6414 
L 223.892308 283.141113 
L 225.731868 282.73394 
L 227.571429 282.113926 
L 229.410989 280.855391 
L 231.250549 278.967589 
L 233.09011 276.376488 
L 236.769231 272.563868 
L 238.608791 271.175778 
L 240.448352 272.434313 
L 242.287912 275.043922 
L 244.127473 278.893558 
L 245.967033 282.299005 
L 247.806593 284.964137 
L 249.646154 284.59398 
L 251.485714 282.002879 
L 255.164835 271.823553 
L 257.004396 267.918394 
L 258.843956 265.068183 
L 260.683516 264.679518 
L 262.523077 264.698026 
L 264.362637 265.049675 
L 268.041758 264.938628 
L 269.881319 263.846664 
L 271.720879 263.235904 
L 273.56044 263.402475 
L 275.4 265.734466 
L 277.23956 266.012084 
L 279.079121 268.880803 
L 282.758242 277.005756 
L 284.597802 279.041621 
L 286.437363 282.798717 
L 288.276923 283.427985 
L 290.116484 281.799292 
L 291.956044 279.078636 
L 295.635165 271.064731 
L 297.474725 268.917819 
L 299.314286 268.270043 
L 301.153846 267.992425 
L 302.993407 269.065882 
L 304.832967 271.619967 
L 306.672527 273.692848 
L 310.351648 279.356254 
L 312.191209 280.540758 
L 314.030769 280.411203 
L 315.87033 276.19141 
L 317.70989 275.034668 
L 319.549451 278.014434 
L 321.389011 281.493913 
L 323.228571 288.508393 
L 325.068132 290.8774 
L 326.907692 289.406025 
L 330.586813 276.950232 
L 332.426374 270.787113 
L 334.265934 266.0491 
L 336.105495 263.79114 
L 337.945055 265.021913 
L 339.784615 264.910866 
L 341.624176 265.336547 
L 345.303297 272.258488 
L 347.142857 275.997077 
L 348.982418 281.281072 
L 350.821978 285.075185 
L 352.661538 285.963562 
L 354.501099 285.593405 
L 356.340659 286.481782 
L 360.01978 287.758825 
L 361.859341 288.036443 
L 363.698901 288.462124 
L 365.538462 287.407175 
L 369.217582 284.649504 
L 371.057143 283.798142 
L 372.896703 283.502016 
L 374.736264 280.707328 
L 376.575824 279.929998 
L 378.415385 280.133585 
L 380.254945 280.596281 
L 382.094505 280.892407 
L 383.934066 283.890681 
L 385.773626 282.465576 
L 387.613187 280.725836 
L 389.452747 276.783661 
L 391.292308 275.284524 
L 393.131868 274.248084 
L 396.810989 278.634448 
L 398.650549 282.336021 
L 400.49011 283.55754 
L 402.32967 283.187382 
L 404.169231 282.42856 
L 406.008791 281.281072 
L 407.848352 281.04047 
L 409.687912 281.503167 
L 415.206593 285.871023 
L 417.046154 286.629845 
L 418.885714 286.962987 
L 424.404396 285.102946 
L 426.243956 282.419306 
L 428.083516 280.957185 
L 429.923077 281.318088 
L 431.762637 283.594555 
L 433.602198 286.093117 
L 435.441758 289.091391 
L 437.281319 290.40545 
L 439.120879 290.646052 
L 440.96044 289.01736 
L 442.8 286.962987 
L 444.63956 285.963562 
L 448.318681 281.669737 
L 450.158242 278.412353 
L 451.997802 274.895859 
L 453.837363 272.267742 
L 455.676923 270.953684 
L 457.516484 270.046798 
L 459.356044 269.454547 
L 461.195604 266.234178 
L 463.035165 264.383392 
L 464.874725 264.679518 
L 466.714286 265.549387 
L 468.553846 268.714232 
L 470.393407 274.988398 
L 472.232967 279.596857 
L 474.072527 283.29843 
L 475.912088 286.481782 
L 477.751648 288.462124 
L 479.591209 288.499139 
L 481.430769 287.27762 
L 483.27033 282.724686 
L 485.10989 281.095994 
L 486.949451 279.689396 
L 488.789011 280.670313 
L 490.628571 282.817225 
L 492.468132 287.185081 
L 494.307692 288.425108 
L 496.147253 289.072883 
L 497.986813 288.961836 
L 499.826374 284.945629 
L 501.665934 278.393845 
L 503.505495 272.822978 
L 505.345055 267.770331 
L 507.184615 266.548812 
L 509.024176 269.473055 
L 510.863736 275.432587 
L 512.703297 280.540758 
L 514.542857 284.945629 
L 516.382418 285.426834 
L 518.221978 285.426834 
L 520.061538 284.927122 
L 521.901099 284.260838 
L 523.740659 283.72411 
L 525.58022 283.409477 
L 527.41978 282.761701 
L 529.259341 282.68767 
L 531.098901 282.780209 
L 532.938462 283.29843 
L 534.778022 284.630996 
L 536.617582 287.851364 
L 538.457143 293.477755 
L 540.296703 292.700425 
L 542.136264 293.533279 
L 543.975824 295.347049 
L 545.815385 299.899984 
L 547.654945 302.805719 
L 549.494505 315.039417 
L 551.334066 324.81157 
L 553.173626 326.884451 
L 555.013187 323.053323 
L 556.852747 316.483031 
L 558.692308 306.988496 
L 560.531868 296.513045 
L 562.371429 291.275319 
L 564.210989 289.072883 
L 566.050549 290.386942 
L 567.89011 292.866996 
L 569.72967 296.476029 
L 571.569231 300.880901 
L 573.408791 304.138285 
L 575.248352 305.896532 
L 577.087912 307.04402 
L 578.927473 310.07931 
L 580.767033 315.391067 
L 582.606593 321.332091 
L 584.446154 327.828352 
L 586.285714 335.879273 
L 588.125275 342.893754 
L 589.964835 351.277816 
L 591.804396 362.493582 
L 593.643956 368.934319 
L 595.483516 369.36 
L 597.323077 363.918688 
L 599.162637 350.685565 
L 602.841758 317.149314 
L 604.681319 303.194384 
L 606.520879 293.718357 
L 608.36044 288.017935 
L 610.2 284.445917 
L 612.03956 285.500865 
L 615.718681 292.404299 
L 617.558242 296.300204 
L 619.397802 299.048622 
L 621.237363 302.324514 
L 623.076923 303.860667 
L 624.916484 306.877449 
L 628.595604 315.317035 
L 630.435165 311.300829 
L 634.114286 300.603283 
L 637.793407 286.019086 
L 639.632967 285.352802 
L 643.312088 289.220946 
L 645.151648 288.036443 
L 646.991209 287.943904 
L 648.830769 288.14749 
L 650.67033 287.684793 
L 652.50989 286.259688 
L 656.189011 290.016784 
L 658.028571 291.386366 
L 659.868132 299.548335 
L 661.707692 297.51247 
L 663.547253 297.827103 
L 665.386813 297.049773 
L 667.226374 297.919643 
L 669.065934 292.607885 
L 670.905495 296.568568 
L 672.745055 299.511319 
L 674.584615 301.898833 
L 676.424176 302.731687 
L 678.263736 301.49166 
L 680.103297 301.380613 
L 681.942857 299.566843 
L 683.782418 298.123229 
L 685.621978 297.382914 
L 687.461538 301.306582 
L 689.301099 308.302555 
L 691.140659 319.832954 
L 692.98022 336.212414 
L 694.81978 336.638095 
L 696.659341 330.493484 
L 698.498901 322.90526 
L 700.338462 312.124429 
L 702.178022 299.094892 
L 704.017582 304.26784 
L 705.857143 314.798815 
L 707.696703 322.923768 
L 709.536264 325.246505 
L 711.375824 321.581947 
L 713.215385 317.241853 
L 715.054945 310.560514 
L 716.894505 304.8786 
L 718.734066 300.399696 
L 720.573626 297.790088 
L 722.413187 293.08909 
L 724.252747 290.92367 
L 726.092308 290.720083 
L 729.771429 292.681917 
L 731.610989 293.422231 
L 733.450549 297.012757 
L 735.29011 291.719508 
L 737.12967 291.404874 
L 738.969231 293.459247 
L 740.808791 298.493386 
L 742.648352 295.606159 
L 744.487912 299.788937 
L 746.327473 300.936425 
L 748.167033 300.603283 
L 750.006593 297.697548 
L 751.846154 295.828254 
L 753.685714 291.404874 
L 755.525275 288.221522 
L 757.364835 284.408901 
L 759.204396 280.152093 
L 761.043956 279.263715 
L 762.883516 282.391544 
L 764.723077 288.110474 
L 768.402198 311.541431 
L 770.241758 325.866518 
L 772.081319 344.670509 
L 773.920879 340.265637 
L 775.76044 336.360477 
L 777.6 339.02561 
L 777.6 339.02561 
" style="fill:none;stroke:#1f77b4;stroke-linecap:square;stroke-width:1.5;"/>
   </g>
   <g id="line2d_34">
    <path clip-path="url(#pde4b39e420)" d="M 108 262.079163 
L 109.83956 261.440641 
L 113.518681 259.895235 
L 115.358242 259.534331 
L 119.037363 259.228952 
L 120.876923 258.673716 
L 126.395604 256.508295 
L 128.235165 256.110376 
L 131.914286 256.637851 
L 135.593407 257.091293 
L 137.432967 257.230102 
L 141.112088 257.045024 
L 144.791209 257.03577 
L 148.47033 256.341725 
L 152.149451 255.351554 
L 153.989011 254.925873 
L 159.507692 254.250336 
L 163.186813 253.38972 
L 165.026374 253.6951 
L 166.865934 254.30586 
L 168.705495 255.221999 
L 170.545055 257.082039 
L 172.384615 259.256713 
L 174.224176 260.783612 
L 176.063736 262.153194 
L 177.903297 263.189635 
L 179.742857 263.495014 
L 181.582418 263.559792 
L 183.421978 263.217396 
L 185.261538 262.671414 
L 187.101099 261.88483 
L 190.78022 259.515823 
L 192.61978 258.68297 
L 194.459341 258.201765 
L 196.298901 257.193086 
L 198.138462 256.054853 
L 199.978022 254.574224 
L 203.657143 250.789365 
L 205.496703 249.521577 
L 209.175824 249.88248 
L 211.015385 250.669064 
L 212.854945 252.112678 
L 214.694505 254.250336 
L 216.534066 255.582902 
L 218.373626 257.267118 
L 220.213187 258.710731 
L 222.052747 259.552839 
L 227.571429 260.320916 
L 229.410989 260.089567 
L 231.250549 259.543585 
L 233.09011 258.784763 
L 236.769231 256.68412 
L 238.608791 256.045599 
L 240.448352 256.239931 
L 242.287912 257.239356 
L 244.127473 258.923572 
L 247.806593 262.828731 
L 249.646154 263.717109 
L 251.485714 263.337698 
L 253.325275 262.19021 
L 258.843956 257.368911 
L 260.683516 257.008008 
L 262.523077 257.008008 
L 268.041758 257.905639 
L 269.881319 257.757576 
L 273.56044 256.906215 
L 275.4 256.739644 
L 277.23956 256.239931 
L 279.079121 256.647104 
L 280.918681 257.887131 
L 284.597802 261.1075 
L 286.437363 263.087841 
L 288.276923 264.05025 
L 290.116484 264.013235 
L 291.956044 263.439491 
L 293.795604 262.254987 
L 297.474725 259.497316 
L 299.314286 258.516399 
L 301.153846 257.720561 
L 302.993407 257.29488 
L 304.832967 257.239356 
L 306.672527 257.313388 
L 308.512088 257.128309 
L 310.351648 256.77666 
L 312.191209 256.202916 
L 314.030769 255.203491 
L 315.87033 253.593307 
L 319.549451 259.034619 
L 321.389011 262.366035 
L 323.228571 266.382241 
L 325.068132 268.140488 
L 326.907692 268.307059 
L 328.747253 266.974493 
L 332.426374 262.49559 
L 334.265934 259.997028 
L 336.105495 258.109226 
L 337.945055 257.257864 
L 341.624176 256.221424 
L 343.463736 256.517549 
L 345.303297 257.368911 
L 347.142857 257.887131 
L 350.821978 259.663886 
L 352.661538 260.126583 
L 354.501099 260.172853 
L 360.01978 263.457999 
L 361.859341 264.70728 
L 363.698901 265.78999 
L 365.538462 263.726363 
L 367.378022 261.32034 
L 371.057143 255.980821 
L 372.896703 253.075087 
L 374.736264 252.964039 
L 376.575824 253.463752 
L 380.254945 254.907365 
L 382.094505 255.980821 
L 383.934066 256.887707 
L 389.452747 255.943806 
L 393.131868 255.03692 
L 396.810989 256.276947 
L 400.49011 257.683545 
L 402.32967 257.979671 
L 404.169231 258.053702 
L 409.687912 257.739068 
L 415.206593 258.33132 
L 417.046154 258.68297 
L 418.885714 258.701477 
L 420.725275 258.460875 
L 422.564835 257.887131 
L 424.404396 257.109801 
L 426.243956 255.804997 
L 428.083516 255.416331 
L 429.923077 255.490363 
L 431.762637 256.582327 
L 433.602198 258.136988 
L 435.441758 260.182107 
L 437.281319 261.588704 
L 439.120879 262.810223 
L 440.96044 263.365459 
L 442.8 263.624569 
L 444.63956 263.698601 
L 446.479121 263.032318 
L 448.318681 262.032893 
L 450.158242 260.478232 
L 453.837363 256.906215 
L 455.676923 255.721711 
L 457.516484 254.740794 
L 459.356044 253.981972 
L 461.195604 252.408803 
L 463.035165 251.076237 
L 464.874725 251.353855 
L 466.714286 252.445819 
L 468.553846 254.648255 
L 472.232967 262.625145 
L 474.072527 265.549387 
L 475.912088 267.936902 
L 477.751648 269.658133 
L 479.591209 270.213369 
L 481.430769 269.806196 
L 483.27033 267.936902 
L 485.10989 266.456273 
L 486.949451 265.43834 
L 488.789011 265.105199 
L 490.628571 265.43834 
L 492.468132 266.974493 
L 494.307692 267.936902 
L 496.147253 267.455697 
L 497.986813 266.530304 
L 499.826374 264.809073 
L 503.505495 259.441792 
L 505.345055 257.535482 
L 507.184615 257.313388 
L 509.024176 258.164749 
L 510.863736 260.071059 
L 512.703297 262.199464 
L 514.542857 264.512947 
L 516.382418 265.290277 
L 518.221978 265.530879 
L 520.061538 265.382817 
L 521.901099 264.901612 
L 525.58022 263.587554 
L 527.41978 262.976794 
L 529.259341 262.514098 
L 532.938462 262.032893 
L 534.778022 261.62572 
L 538.457143 261.1075 
L 540.296703 260.311662 
L 542.136264 261.163023 
L 543.975824 263.235904 
L 545.815385 266.419257 
L 547.654945 270.787113 
L 549.494505 275.858268 
L 551.334066 279.152668 
L 553.173626 280.300155 
L 555.013187 279.985522 
L 556.852747 278.486385 
L 560.531868 274.877351 
L 562.371429 274.025989 
L 564.210989 273.600308 
L 566.050549 273.655832 
L 567.89011 273.859419 
L 569.72967 274.618241 
L 571.569231 275.506619 
L 573.408791 276.154394 
L 577.087912 276.96874 
L 580.767033 277.22785 
L 582.606593 278.060704 
L 584.446154 279.467302 
L 586.285714 281.854816 
L 588.125275 285.223247 
L 591.804396 295.198986 
L 593.643956 297.67904 
L 595.483516 299.511319 
L 597.323077 299.104146 
L 599.162637 295.347049 
L 601.002198 290.40545 
L 602.841758 286.944479 
L 604.681319 282.798717 
L 606.520879 279.411778 
L 608.36044 277.709054 
L 610.2 276.783661 
L 612.03956 276.561567 
L 615.718681 277.857117 
L 617.558242 278.486385 
L 619.397802 278.782511 
L 621.237363 278.949081 
L 623.076923 278.560416 
L 624.916484 278.949081 
L 626.756044 279.818951 
L 628.595604 281.55869 
L 630.435165 281.688245 
L 632.274725 280.947931 
L 634.114286 279.874475 
L 635.953846 278.282798 
L 637.793407 276.006331 
L 639.632967 275.451095 
L 641.472527 275.969315 
L 643.312088 276.70963 
L 646.991209 276.857693 
L 648.830769 276.931724 
L 650.67033 276.765153 
L 652.50989 275.784236 
L 654.349451 275.303032 
L 656.189011 274.303607 
L 658.028571 272.989549 
L 659.868132 270.602034 
L 661.707692 269.232452 
L 663.547253 270.231877 
L 665.386813 271.879077 
L 667.226374 273.951958 
L 669.065934 277.135311 
L 670.905495 279.929998 
L 672.745055 280.762852 
L 674.584615 281.318088 
L 676.424176 281.577198 
L 678.263736 281.577198 
L 680.103297 281.447643 
L 681.942857 281.077486 
L 685.621978 279.985522 
L 687.461538 279.633872 
L 689.301099 279.707904 
L 691.140659 280.133585 
L 692.98022 280.818376 
L 694.81978 279.263715 
L 696.659341 278.467877 
L 700.338462 277.357405 
L 702.178022 277.079787 
L 704.017582 279.300731 
L 705.857143 280.651805 
L 707.696703 281.577198 
L 709.536264 281.836308 
L 711.375824 281.466151 
L 713.215385 280.78136 
L 716.894505 279.689396 
L 718.734066 279.337746 
L 720.573626 278.745495 
L 722.413187 278.301306 
L 724.252747 278.060704 
L 727.931868 278.060704 
L 729.771429 278.467877 
L 731.610989 278.578924 
L 733.450549 278.430861 
L 735.29011 277.672039 
L 738.969231 278.560416 
L 740.808791 279.837459 
L 742.648352 280.762852 
L 744.487912 281.836308 
L 748.167033 281.836308 
L 750.006593 281.003454 
L 751.846154 280.337171 
L 753.685714 279.004605 
L 755.525275 277.48696 
L 759.204396 275.006906 
L 761.043956 274.266592 
L 764.723077 275.599158 
L 766.562637 276.35798 
L 768.402198 276.691122 
L 770.241758 276.339472 
L 772.081319 275.006906 
L 773.920879 270.490987 
L 775.76044 273.15612 
L 777.6 275.599158 
L 777.6 275.599158 
" style="fill:none;stroke:#ff7f0e;stroke-linecap:square;stroke-width:1.5;"/>
   </g>
   <g id="line2d_35">
    <path clip-path="url(#pde4b39e420)" d="M 108 181.523682 
L 111.679121 181.02397 
L 113.518681 180.690828 
L 117.197802 180.552019 
L 120.876923 180.570527 
L 128.235165 180.126338 
L 131.914286 180.292909 
L 135.593407 180.515003 
L 144.791209 180.542765 
L 146.630769 180.431718 
L 148.47033 180.144846 
L 152.149451 179.173183 
L 155.828571 178.044203 
L 157.668132 177.609269 
L 163.186813 176.693129 
L 165.026374 176.785669 
L 168.705495 177.313143 
L 170.545055 177.868379 
L 172.384615 178.55317 
L 176.063736 179.293484 
L 177.903297 179.571102 
L 181.582418 179.746927 
L 183.421978 179.709911 
L 185.261538 179.469309 
L 187.101099 178.941835 
L 190.78022 177.248365 
L 192.61978 176.304464 
L 194.459341 175.490118 
L 198.138462 174.305615 
L 203.657143 172.390051 
L 205.496703 171.510927 
L 207.336264 170.826136 
L 211.015385 170.10433 
L 212.854945 170.2709 
L 214.694505 170.770613 
L 220.213187 172.945287 
L 222.052747 173.370968 
L 223.892308 173.574554 
L 225.731868 173.398729 
L 227.571429 172.991556 
L 231.250549 171.862577 
L 233.09011 171.131516 
L 238.608791 168.438622 
L 240.448352 167.901894 
L 242.287912 167.753831 
L 244.127473 168.161004 
L 249.646154 170.641058 
L 251.485714 170.955691 
L 253.325275 170.761359 
L 255.164835 170.141345 
L 258.843956 168.568177 
L 260.683516 167.938909 
L 262.523077 167.439197 
L 266.202198 166.698882 
L 273.56044 164.774065 
L 275.4 164.385399 
L 277.23956 164.126289 
L 279.079121 164.052258 
L 280.918681 164.329876 
L 284.597802 165.403332 
L 286.437363 166.014091 
L 288.276923 166.476788 
L 290.116484 166.643359 
L 291.956044 166.569327 
L 295.635165 165.958568 
L 297.474725 165.588411 
L 302.993407 163.719116 
L 306.672527 162.38655 
L 308.512088 161.711013 
L 310.351648 160.896667 
L 312.191209 159.804703 
L 314.030769 158.546168 
L 315.87033 157.065539 
L 317.70989 157.833615 
L 319.549451 160.702334 
L 321.389011 164.829588 
L 323.228571 169.808204 
L 325.068132 174.342631 
L 326.907692 177.37792 
L 328.747253 177.859125 
L 330.586813 176.767161 
L 332.426374 174.990406 
L 336.105495 170.159853 
L 337.945055 168.919826 
L 343.463736 166.920977 
L 345.303297 166.439772 
L 348.982418 165.866029 
L 350.821978 165.699458 
L 356.340659 165.801251 
L 360.01978 165.505125 
L 361.859341 165.190491 
L 363.698901 164.681525 
L 367.378022 163.830163 
L 369.217582 163.16388 
L 371.057143 162.349534 
L 372.896703 161.146523 
L 374.736264 161.313094 
L 376.575824 161.997885 
L 378.415385 162.830739 
L 380.254945 163.959718 
L 382.094505 165.847521 
L 383.934066 166.643359 
L 385.773626 166.883961 
L 389.452747 167.698307 
L 391.292308 167.809354 
L 393.131868 167.698307 
L 398.650549 168.086972 
L 404.169231 168.679224 
L 407.848352 168.845795 
L 411.527473 168.919826 
L 413.367033 168.753255 
L 417.046154 167.827862 
L 418.885714 167.272626 
L 420.725275 166.578581 
L 422.564835 166.032599 
L 426.243956 165.125714 
L 428.083516 165.283031 
L 429.923077 165.791997 
L 431.762637 167.355912 
L 433.602198 169.724918 
L 437.281319 175.601165 
L 439.120879 178.432869 
L 440.96044 180.41321 
L 442.8 181.745776 
L 444.63956 182.504599 
L 446.479121 182.097426 
L 448.318681 180.912922 
L 450.158242 178.914073 
L 453.837363 174.102028 
L 455.676923 172.17721 
L 457.516484 170.826136 
L 459.356044 169.974774 
L 463.035165 167.735323 
L 464.874725 167.642784 
L 466.714286 168.346082 
L 468.553846 170.05806 
L 470.393407 173.167381 
L 472.232967 176.961493 
L 474.072527 180.385448 
L 475.912088 183.383722 
L 477.751648 185.780491 
L 479.591209 187.594262 
L 481.430769 188.556671 
L 483.27033 188.371592 
L 485.10989 187.853372 
L 486.949451 186.927978 
L 488.789011 185.539889 
L 490.628571 184.392401 
L 496.147253 182.689677 
L 497.986813 182.301012 
L 499.826374 181.523682 
L 505.345055 178.636455 
L 507.184615 177.951664 
L 509.024176 177.98868 
L 510.863736 178.728994 
L 512.703297 179.839466 
L 516.382418 182.560122 
L 518.221978 183.559547 
L 520.061538 184.170307 
L 521.901099 184.355385 
L 523.740659 184.336877 
L 525.58022 183.70761 
L 527.41978 182.708185 
L 531.098901 179.654388 
L 534.778022 176.193417 
L 538.457143 173.30619 
L 540.296703 171.936608 
L 542.136264 171.603467 
L 543.975824 173.861426 
L 545.815385 179.413785 
L 547.654945 189.019367 
L 553.173626 224.424912 
L 555.013187 232.716436 
L 556.852747 237.546988 
L 558.692308 240.30466 
L 560.531868 241.896336 
L 564.210989 244.024741 
L 566.050549 245.098197 
L 567.89011 246.319716 
L 569.72967 247.837361 
L 575.248352 253.075087 
L 578.927473 257.017262 
L 580.767033 258.886556 
L 582.606593 261.126008 
L 584.446154 264.05025 
L 586.285714 267.326142 
L 588.125275 271.490412 
L 589.964835 276.913216 
L 591.804396 282.891257 
L 593.643956 287.740317 
L 595.483516 291.626969 
L 597.323077 294.12553 
L 599.162637 294.569719 
L 601.002198 293.422231 
L 602.841758 291.534429 
L 604.681319 288.961836 
L 606.520879 284.908614 
L 610.2 276.043347 
L 612.03956 272.434313 
L 613.879121 269.787688 
L 615.718681 268.73274 
L 617.558242 268.936327 
L 619.397802 269.824704 
L 623.076923 272.360282 
L 628.595604 276.857693 
L 630.435165 277.74607 
L 632.274725 277.283374 
L 634.114286 276.35798 
L 635.953846 274.71078 
L 637.793407 272.656407 
L 639.632967 270.916668 
L 641.472527 270.750097 
L 643.312088 270.916668 
L 646.991209 271.490412 
L 648.830769 271.471904 
L 650.67033 270.879652 
L 652.50989 269.306484 
L 654.349451 266.345226 
L 656.189011 261.403626 
L 658.028571 254.111527 
L 659.868132 243.673091 
L 661.707692 231.050728 
L 663.547253 233.142116 
L 665.386813 238.379842 
L 667.226374 246.782413 
L 669.065934 258.997603 
L 670.905495 274.340623 
L 672.745055 276.728138 
L 674.584615 278.023688 
L 676.424176 278.782511 
L 678.263736 279.023113 
L 680.103297 278.949081 
L 681.942857 278.708479 
L 687.461538 277.690547 
L 691.140659 277.635023 
L 692.98022 277.875625 
L 694.81978 276.45052 
L 696.659341 275.710205 
L 698.498901 275.488111 
L 702.178022 275.358556 
L 704.017582 277.283374 
L 705.857143 278.61594 
L 707.696703 279.448794 
L 709.536264 279.91149 
L 711.375824 280.096569 
L 713.215385 279.874475 
L 716.894505 279.078636 
L 718.734066 278.652956 
L 722.413187 277.153818 
L 724.252747 276.598583 
L 727.931868 276.135886 
L 733.450549 276.746645 
L 735.29011 276.413504 
L 737.12967 276.654106 
L 738.969231 277.079787 
L 744.487912 279.967014 
L 746.327473 280.448218 
L 748.167033 280.744344 
L 750.006593 280.411203 
L 751.846154 279.929998 
L 753.685714 278.856542 
L 755.525275 276.913216 
L 757.364835 274.285099 
L 759.204396 271.379365 
L 762.883516 264.512947 
L 764.723077 258.905064 
L 766.562637 252.186709 
L 768.402198 243.950709 
L 772.081319 225.350305 
L 773.920879 218.520903 
L 775.76044 234.955887 
L 777.6 248.040947 
L 777.6 248.040947 
" style="fill:none;stroke:#2ca02c;stroke-linecap:square;stroke-width:1.5;"/>
   </g>
   <g id="line2d_36">
    <path clip-path="url(#pde4b39e420)" d="M 108 150.819135 
L 113.518681 155.631179 
L 119.037363 160.110083 
L 120.876923 161.183539 
L 122.716484 161.942361 
L 124.556044 162.534613 
L 126.395604 162.923278 
L 135.593407 163.950465 
L 139.272527 164.681525 
L 144.791209 166.162154 
L 146.630769 166.365741 
L 148.47033 166.328725 
L 150.30989 166.041853 
L 161.347253 163.321197 
L 163.186813 162.765961 
L 170.545055 162.071916 
L 172.384615 161.82206 
L 176.063736 160.22113 
L 179.742857 159.166182 
L 181.582418 158.953341 
L 183.421978 158.907071 
L 185.261538 158.647961 
L 187.101099 158.046456 
L 188.940659 157.18584 
L 192.61978 155.177737 
L 194.459341 154.446676 
L 199.978022 152.892015 
L 201.817582 151.651988 
L 203.657143 150.106582 
L 205.496703 148.718492 
L 207.336264 147.691305 
L 209.175824 146.978753 
L 211.015385 147.062038 
L 214.694505 147.86713 
L 222.052747 149.338505 
L 225.731868 150.226883 
L 229.410989 150.828389 
L 233.09011 151.078245 
L 234.92967 151.078245 
L 240.448352 150.550771 
L 242.287912 150.671072 
L 244.127473 150.930182 
L 249.646154 152.605144 
L 251.485714 152.660667 
L 253.325275 152.521858 
L 257.004396 151.781544 
L 260.683516 150.976451 
L 264.362637 150.273153 
L 266.202198 149.884487 
L 269.881319 149.532838 
L 273.56044 149.375521 
L 275.4 149.394029 
L 277.23956 148.774016 
L 279.079121 146.460532 
L 280.918681 142.721944 
L 282.758242 137.780344 
L 284.597802 132.181715 
L 286.437363 126.203675 
L 288.276923 121.206551 
L 290.116484 117.153329 
L 293.795604 110.296165 
L 297.474725 104.623504 
L 299.314286 101.273581 
L 301.153846 97.627532 
L 304.832967 89.632134 
L 306.672527 84.838597 
L 308.512088 79.693411 
L 310.351648 75.242269 
L 312.191209 71.679505 
L 314.030769 68.718247 
L 315.87033 66.96 
L 319.549451 84.227838 
L 321.389011 94.51821 
L 323.228571 106.492799 
L 325.068132 116.153904 
L 326.907692 124.297365 
L 328.747253 130.081072 
L 330.586813 134.939387 
L 332.426374 138.603944 
L 334.265934 140.954443 
L 336.105495 142.647912 
L 337.945055 143.961971 
L 339.784615 143.998986 
L 345.303297 142.749706 
L 347.142857 142.10193 
L 354.501099 141.046982 
L 358.18022 140.871157 
L 360.01978 141.250569 
L 361.859341 141.990883 
L 363.698901 142.879261 
L 367.378022 144.92438 
L 369.217582 145.618425 
L 372.896703 146.062613 
L 376.575824 146.256946 
L 378.415385 146.506802 
L 382.094505 147.404434 
L 383.934066 148.098478 
L 385.773626 148.533413 
L 387.613187 148.820285 
L 389.452747 148.959094 
L 391.292308 148.43162 
L 393.131868 146.451279 
L 394.971429 143.656591 
L 396.810989 139.695908 
L 402.32967 124.12154 
L 404.169231 119.235464 
L 406.008791 114.858354 
L 407.848352 111.46216 
L 409.687912 108.843298 
L 411.527473 106.955495 
L 413.367033 106.09488 
L 415.206593 106.548322 
L 417.046154 107.917904 
L 418.885714 109.814961 
L 420.725275 112.008142 
L 424.404396 117.83812 
L 426.243956 120.577284 
L 428.083516 124.676776 
L 429.923077 129.562852 
L 431.762637 134.791324 
L 437.281319 151.328101 
L 439.120879 156.05686 
L 440.96044 160.091575 
L 442.8 163.534038 
L 444.63956 166.291709 
L 446.479121 167.790846 
L 450.158242 169.660141 
L 453.837363 172.140195 
L 455.676923 173.731871 
L 457.516484 174.490693 
L 459.356044 173.121111 
L 461.195604 170.567026 
L 464.874725 165.125714 
L 466.714286 163.460006 
L 468.553846 163.719116 
L 470.393407 164.81108 
L 475.912088 168.734748 
L 477.751648 169.697156 
L 479.591209 170.418963 
L 481.430769 170.715089 
L 483.27033 170.548518 
L 485.10989 170.085822 
L 488.789011 168.88281 
L 490.628571 168.420114 
L 496.147253 167.605768 
L 499.826374 167.235611 
L 501.665934 166.661867 
L 503.505495 165.551395 
L 505.345055 163.348959 
L 507.184615 160.517256 
L 510.863736 154.132042 
L 512.703297 151.448402 
L 516.382418 148.154002 
L 520.061538 145.91455 
L 521.901099 144.859602 
L 523.740659 143.527036 
L 525.58022 142.398056 
L 527.41978 141.102506 
L 529.259341 140.066065 
L 531.098901 139.251719 
L 532.938462 139.103656 
L 534.778022 139.455306 
L 536.617582 140.565778 
L 538.457143 142.287009 
L 540.296703 144.507953 
L 542.136264 146.913975 
L 543.975824 151.402132 
L 545.815385 158.157503 
L 547.654945 167.28188 
L 549.494505 178.108981 
L 551.334066 190.398203 
L 553.173626 201.456652 
L 555.013187 210.544014 
L 556.852747 217.003258 
L 558.692308 221.40813 
L 560.531868 223.814153 
L 562.371429 225.109703 
L 567.89011 226.516301 
L 569.72967 227.404678 
L 571.569231 229.144418 
L 573.408791 231.198791 
L 575.248352 233.549289 
L 577.087912 236.288453 
L 578.927473 239.397775 
L 580.767033 242.285002 
L 582.606593 245.394323 
L 586.285714 252.519851 
L 588.125275 256.276947 
L 589.964835 260.663311 
L 593.643956 269.880228 
L 595.483516 273.970466 
L 597.323077 277.449944 
L 599.162637 279.578349 
L 601.002198 280.448218 
L 602.841758 280.52225 
L 604.681319 279.837459 
L 606.520879 278.486385 
L 608.36044 276.987248 
L 610.2 275.691697 
L 613.879121 272.415805 
L 615.718681 271.027715 
L 617.558242 269.991275 
L 619.397802 269.232452 
L 621.237363 269.306484 
L 623.076923 269.639625 
L 624.916484 270.287401 
L 628.595604 271.953109 
L 630.435165 272.452821 
L 632.274725 272.600884 
L 634.114286 272.471329 
L 635.953846 271.934601 
L 641.472527 268.99185 
L 643.312088 268.510646 
L 645.151648 268.177504 
L 646.991209 268.177504 
L 650.67033 268.344075 
L 652.50989 267.936902 
L 654.349451 267.34465 
L 659.868132 264.698026 
L 661.707692 264.124282 
L 663.547253 264.198313 
L 665.386813 265.401324 
L 667.226374 267.159572 
L 669.065934 269.195437 
L 672.745055 273.507769 
L 674.584615 274.914367 
L 676.424176 275.913792 
L 678.263736 276.672614 
L 680.103297 277.172326 
L 681.942857 277.264866 
L 683.782418 277.005756 
L 689.301099 275.784236 
L 691.140659 275.617666 
L 692.98022 275.784236 
L 694.81978 275.525126 
L 702.178022 274.007481 
L 704.017582 274.174052 
L 709.536264 275.229001 
L 713.215385 275.117953 
L 716.894505 274.747796 
L 727.931868 273.637324 
L 733.450549 273.581801 
L 735.29011 273.396722 
L 737.12967 273.008057 
L 738.969231 272.119679 
L 740.808791 270.583527 
L 742.648352 268.492138 
L 746.327473 263.846664 
L 748.167033 261.940354 
L 751.846154 258.571922 
L 753.685714 256.017837 
L 755.525275 252.982547 
L 757.364835 249.540084 
L 759.204396 246.338224 
L 761.043956 242.414557 
L 762.883516 238.935078 
L 764.723077 234.678269 
L 766.562637 229.718161 
L 772.081319 210.358935 
L 773.920879 205.917048 
L 775.76044 213.597811 
L 777.6 222.111429 
L 777.6 222.111429 
" style="fill:none;stroke:#d62728;stroke-linecap:square;stroke-width:1.5;"/>
   </g>
   <g id="line2d_37">
    <path clip-path="url(#pde4b39e420)" d="M 108 115.441351 
L 120.876923 116.579585 
L 122.716484 116.727648 
L 124.556044 116.736902 
L 130.074725 116.329729 
L 131.914286 116.14465 
L 137.432967 116.033603 
L 146.630769 115.904048 
L 153.989011 115.644938 
L 161.347253 115.200749 
L 163.186813 115.034178 
L 166.865934 115.135972 
L 174.224176 115.543145 
L 177.903297 115.441351 
L 190.78022 115.6727 
L 196.298901 115.533891 
L 211.015385 115.524637 
L 218.373626 115.691208 
L 223.892308 115.663446 
L 234.92967 115.385828 
L 238.608791 114.728799 
L 242.287912 113.747882 
L 245.967033 112.85025 
L 251.485714 111.656493 
L 253.325275 111.110511 
L 255.164835 110.416466 
L 257.004396 109.315248 
L 258.843956 107.584763 
L 262.523077 103.476017 
L 264.362637 101.514183 
L 266.202198 99.876237 
L 268.041758 98.876813 
L 284.597802 93.731626 
L 293.795604 91.677253 
L 295.635165 91.038732 
L 297.474725 90.23364 
L 301.153846 88.947343 
L 306.672527 86.143402 
L 310.351648 83.774395 
L 312.191209 83.08035 
L 314.030769 82.654669 
L 315.87033 82.488098 
L 317.70989 83.237667 
L 321.389011 84.477694 
L 323.228571 85.180993 
L 325.068132 85.680705 
L 326.907692 85.976831 
L 330.586813 86.106386 
L 334.265934 85.838022 
L 339.784615 85.143977 
L 343.463736 84.579487 
L 347.142857 84.227838 
L 350.821978 84.16306 
L 356.340659 84.089029 
L 365.538462 83.866934 
L 378.415385 83.996489 
L 385.773626 84.190822 
L 415.206593 84.301869 
L 418.885714 84.958898 
L 422.564835 85.884292 
L 424.404396 86.976256 
L 426.243956 88.345838 
L 428.083516 90.159608 
L 429.923077 92.297267 
L 431.762637 94.795828 
L 433.602198 96.998264 
L 435.441758 98.886066 
L 437.281319 100.422219 
L 439.120879 101.62523 
L 440.96044 102.439576 
L 442.8 102.883765 
L 444.63956 103.161383 
L 446.479121 103.253923 
L 448.318681 103.957221 
L 450.158242 105.585913 
L 453.837363 110.046309 
L 455.676923 112.692933 
L 457.516484 114.913877 
L 459.356044 116.116888 
L 461.195604 116.746156 
L 463.035165 117.245868 
L 468.553846 118.35634 
L 472.232967 119.651891 
L 474.072527 120.207127 
L 475.912088 120.540268 
L 477.751648 120.706839 
L 481.430769 120.503252 
L 485.10989 119.818461 
L 488.789011 119.078147 
L 492.468132 118.596942 
L 499.826374 118.171261 
L 503.505495 117.634533 
L 509.024176 116.746156 
L 514.542857 116.338983 
L 525.58022 115.876286 
L 531.098901 115.894794 
L 534.778022 116.505554 
L 536.617582 117.06079 
L 538.457143 117.949167 
L 540.296703 119.189194 
L 542.136264 120.799378 
L 543.975824 123.705113 
L 545.815385 127.795351 
L 547.654945 132.792474 
L 551.334066 143.545544 
L 553.173626 147.802353 
L 555.013187 151.004213 
L 556.852747 153.095602 
L 558.692308 154.539215 
L 560.531868 155.409085 
L 562.371429 155.871782 
L 567.89011 156.278955 
L 569.72967 157.000761 
L 571.569231 158.333328 
L 573.408791 160.517256 
L 575.248352 163.293435 
L 577.087912 166.476788 
L 580.767033 173.343206 
L 582.606593 176.471035 
L 584.446154 179.913498 
L 586.285714 184.170307 
L 588.125275 189.019367 
L 589.964835 194.88636 
L 593.643956 208.545164 
L 595.483516 214.227079 
L 597.323077 218.668966 
L 599.162637 221.074989 
L 601.002198 221.611717 
L 602.841758 220.260643 
L 604.681319 218.039699 
L 608.36044 211.524931 
L 610.2 207.71231 
L 612.03956 204.325371 
L 613.879121 201.604715 
L 615.718681 199.642881 
L 617.558242 198.384347 
L 619.397802 198.051205 
L 624.916484 198.495394 
L 628.595604 198.921075 
L 632.274725 199.087646 
L 635.953846 199.106153 
L 637.793407 198.865551 
L 643.312088 197.764333 
L 645.151648 197.523731 
L 646.991209 197.523731 
L 650.67033 197.810603 
L 654.349451 197.570001 
L 659.868132 196.959241 
L 661.707692 196.940733 
L 663.547253 197.14432 
L 669.065934 198.291807 
L 670.905495 198.587933 
L 672.745055 198.717488 
L 680.103297 198.643457 
L 681.942857 198.43987 
L 683.782418 197.940158 
L 685.621978 197.218351 
L 689.301099 195.534136 
L 691.140659 194.904868 
L 692.98022 194.571727 
L 694.81978 194.460679 
L 702.178022 194.497695 
L 709.536264 194.386648 
L 713.215385 194.183061 
L 718.734066 194.201569 
L 726.092308 195.386073 
L 727.931868 195.867277 
L 731.610989 196.459529 
L 735.29011 196.6261 
L 740.808791 196.6261 
L 753.685714 197.107304 
L 755.525275 197.218351 
L 764.723077 197.199843 
L 770.241758 197.421938 
L 773.920879 197.329398 
L 777.6 198.125237 
L 777.6 198.125237 
" style="fill:none;stroke:#9467bd;stroke-linecap:square;stroke-width:1.5;"/>
   </g>
   <g id="patch_3">
    <path d="M 108 384.48 
L 108 51.84 
" style="fill:none;stroke:#000000;stroke-linecap:square;stroke-linejoin:miter;stroke-width:0.8;"/>
   </g>
   <g id="patch_4">
    <path d="M 777.6 384.48 
L 777.6 51.84 
" style="fill:none;stroke:#000000;stroke-linecap:square;stroke-linejoin:miter;stroke-width:0.8;"/>
   </g>
   <g id="patch_5">
    <path d="M 108 384.48 
L 777.6 384.48 
" style="fill:none;stroke:#000000;stroke-linecap:square;stroke-linejoin:miter;stroke-width:0.8;"/>
   </g>
   <g id="patch_6">
    <path d="M 108 51.84 
L 777.6 51.84 
" style="fill:none;stroke:#000000;stroke-linecap:square;stroke-linejoin:miter;stroke-width:0.8;"/>
   </g>
   <g id="legend_1">
    <g id="patch_7">
     <path d="M 678.409375 137.238438 
L 770.6 137.238438 
Q 772.6 137.238438 772.6 135.238438 
L 772.6 58.84 
Q 772.6 56.84 770.6 56.84 
L 678.409375 56.84 
Q 676.409375 56.84 676.409375 58.84 
L 676.409375 135.238438 
Q 676.409375 137.238438 678.409375 137.238438 
z
" style="fill:#ffffff;opacity:0.8;stroke:#cccccc;stroke-linejoin:miter;"/>
    </g>
    <g id="line2d_38">
     <path d="M 680.409375 65.33375 
L 700.409375 65.33375 
" style="fill:none;stroke:#1f77b4;stroke-linecap:square;stroke-width:1.5;"/>
    </g>
    <g id="line2d_39"/>
    <g id="text_18">
     <!-- 隔夜-5日均值 -->
     <defs>
      <path d="M 32.90625 28.5625 
Q 35.25 10.296875 24.21875 7.953125 
Q 20.40625 7.28125 15.328125 7.859375 
Q 14.546875 11.671875 13.28125 15.28125 
L 13.28125 -13.03125 
L 6.25 -13.03125 
L 6.25 78.65625 
L 32.8125 78.65625 
L 32.8125 72.125 
Q 28.03125 55.71875 24.90625 46.234375 
Q 31.9375 36.578125 32.90625 28.5625 
z
M 44.53125 -13.234375 
L 37.703125 -13.234375 
L 37.703125 37.453125 
L 94.34375 37.453125 
L 94.34375 -3.65625 
Q 94.34375 -12.84375 85.25 -12.84375 
Q 80.953125 -12.84375 74.609375 -12.75 
Q 74.125 -10.5 73.140625 -5.421875 
Q 79 -5.8125 83.5 -5.8125 
Q 87.5 -5.8125 87.5 -1.703125 
L 87.5 31.390625 
L 44.53125 31.390625 
z
M 43.359375 65.765625 
L 88.484375 65.765625 
L 88.484375 41.75 
L 81.453125 41.75 
L 81.453125 44.28125 
L 50.390625 44.28125 
L 50.390625 41.75 
L 43.359375 41.75 
z
M 21.484375 14.890625 
Q 27.734375 15.578125 25.6875 28.265625 
Q 24.421875 36.46875 17.671875 44.96875 
Q 21.875 57.46875 25.78125 72.125 
L 13.28125 72.125 
L 13.28125 15.671875 
Q 17.671875 14.5 21.484375 14.890625 
z
M 47.859375 15.28125 
L 67.578125 15.28125 
Q 72.515625 24.21875 75.296875 30.515625 
L 81.734375 27 
Q 78.078125 20.90625 74.46875 15.28125 
L 84.1875 15.28125 
L 84.1875 9.421875 
L 69.234375 9.421875 
L 69.234375 -11.671875 
L 62.59375 -11.671875 
L 62.59375 9.421875 
L 47.859375 9.421875 
z
M 37.109375 78.765625 
L 96.296875 78.765625 
L 96.296875 72.40625 
L 37.109375 72.40625 
z
M 81.453125 59.90625 
L 50.390625 59.90625 
L 50.390625 50.140625 
L 81.453125 50.140625 
z
M 50.390625 27.296875 
L 55.765625 30.421875 
Q 59.96875 24.859375 62.890625 19.390625 
L 57.03125 15.96875 
Q 54.296875 21.234375 50.390625 27.296875 
z
" id="MicrosoftYaHei-9694"/>
      <path d="M 27.828125 23.578125 
Q 42.578125 39.40625 51.265625 60.890625 
L 58.6875 58.34375 
Q 56.9375 54.34375 55.03125 50.53125 
L 89.15625 50.53125 
L 89.15625 43.5 
Q 82.125 21.625 69.1875 8.15625 
Q 81.453125 -0.390625 98.640625 -4.734375 
Q 95.703125 -9.03125 93.5625 -12.9375 
Q 75.390625 -7.078125 62.984375 2.484375 
Q 51.3125 -6.84375 34.375 -13.53125 
Q 32.515625 -10.5 29.5 -6.6875 
Q 45.515625 -0.484375 56.78125 7.953125 
Q 48.578125 16.359375 42.28125 29.15625 
Q 38.28125 23.53125 33.796875 18.40625 
Q 30.5625 21.4375 27.828125 23.578125 
z
M 2.9375 69.09375 
L 50.734375 69.09375 
Q 47.703125 74.265625 43.65625 79.734375 
L 49.8125 83.734375 
Q 53.8125 78.65625 58.015625 72.015625 
L 53.421875 69.09375 
L 97.5625 69.09375 
L 97.5625 61.859375 
L 2.9375 61.859375 
z
M 1.5625 23 
Q 18.265625 40.484375 26.46875 60.984375 
L 33.984375 58.453125 
Q 28.90625 47.859375 23.640625 39.203125 
L 23.640625 -13.03125 
L 16.21875 -13.03125 
L 16.21875 28.078125 
Q 10.5 20.359375 4.59375 14.796875 
Q 3.21875 18.703125 1.5625 23 
z
M 81.15625 43.5 
L 51.3125 43.5 
Q 49.171875 39.546875 46.78125 35.84375 
Q 53.421875 22.078125 62.9375 13.234375 
Q 75 24.953125 81.15625 43.5 
z
M 54.203125 35.296875 
L 58.890625 39.890625 
Q 64.546875 35.109375 69.734375 29.640625 
L 64.453125 24.5625 
Q 60.453125 29.34375 54.203125 35.296875 
z
" id="MicrosoftYaHei-591c"/>
      <path d="M 35.0625 43.796875 
Q 45.796875 61.765625 52.15625 83.15625 
L 59.96875 80.8125 
Q 57.671875 74.125 55.171875 67.921875 
L 93.953125 67.921875 
Q 92.578125 16.453125 91.796875 4.640625 
Q 91.109375 -10.890625 75.09375 -10.890625 
Q 65.4375 -10.890625 57.90625 -10.5 
Q 57.328125 -6.59375 56.34375 -2.203125 
L 56.640625 -2.203125 
Q 66.40625 -3.265625 74.609375 -3.265625 
Q 83.59375 -3.265625 84.28125 5.90625 
Q 85.25 22.609375 86.140625 60.796875 
L 52.203125 60.796875 
Q 47.3125 49.5625 41.796875 40.1875 
Q 38.765625 42.046875 35.0625 43.796875 
z
M 1.265625 6.6875 
Q 8.734375 9.375 15.71875 12.015625 
L 15.71875 50.828125 
L 2.640625 50.828125 
L 2.640625 57.765625 
L 15.71875 57.765625 
L 15.71875 82.171875 
L 22.953125 82.171875 
L 22.953125 57.765625 
L 35.640625 57.765625 
L 35.640625 50.828125 
L 22.953125 50.828125 
L 22.953125 14.796875 
Q 30.03125 17.578125 36.53125 20.359375 
Q 36.71875 15.484375 37.015625 12.25 
Q 21.296875 6.296875 3.90625 -0.828125 
z
M 39.265625 13.328125 
Q 58.890625 21.140625 79.984375 30.21875 
Q 80.46875 25.640625 81.0625 22.40625 
Q 62.984375 14.796875 42.28125 5.609375 
z
M 49.03125 45.453125 
L 54.390625 50.25 
Q 62.890625 42.4375 70.796875 34.625 
L 64.453125 29.046875 
Q 56.9375 37.640625 49.03125 45.453125 
z
" id="MicrosoftYaHei-5747"/>
      <path d="M 25.296875 -3.375 
L 35.15625 -3.375 
L 35.15625 57.078125 
L 58.203125 57.078125 
L 58.203125 65.96875 
L 29.890625 65.96875 
L 29.890625 72.609375 
L 58.203125 72.609375 
L 58.203125 82.953125 
L 65.625 82.953125 
L 65.625 72.609375 
L 96.390625 72.609375 
L 96.390625 65.96875 
L 65.625 65.96875 
L 65.625 57.078125 
L 89.265625 57.078125 
L 89.265625 -3.375 
L 98.53125 -3.375 
L 98.53125 -10.015625 
L 25.296875 -10.015625 
z
M 1.078125 35.109375 
Q 14.15625 54.640625 21.390625 82.46875 
L 28.609375 80.328125 
Q 24.703125 67.71875 20.125 56.6875 
L 20.125 -12.75 
L 12.984375 -12.75 
L 12.984375 41.65625 
Q 8.796875 33.84375 4.109375 27.09375 
Q 2.734375 31.203125 1.078125 35.109375 
z
M 42.390625 -3.375 
L 82.03125 -3.375 
L 82.03125 5.515625 
L 42.390625 5.515625 
z
M 82.03125 50.640625 
L 42.390625 50.640625 
L 42.390625 41.84375 
L 82.03125 41.84375 
z
M 42.390625 26.8125 
L 82.03125 26.8125 
L 82.03125 35.59375 
L 42.390625 35.59375 
z
M 42.390625 11.765625 
L 82.03125 11.765625 
L 82.03125 20.5625 
L 42.390625 20.5625 
z
" id="MicrosoftYaHei-503c"/>
     </defs>
     <g transform="translate(708.409375 68.83375)scale(0.1 -0.1)">
      <use xlink:href="#MicrosoftYaHei-9694"/>
      <use x="100" xlink:href="#MicrosoftYaHei-591c"/>
      <use x="200" xlink:href="#MicrosoftYaHei-2d"/>
      <use x="243.261719" xlink:href="#MicrosoftYaHei-35"/>
      <use x="301.904297" xlink:href="#MicrosoftYaHei-65e5"/>
      <use x="401.904297" xlink:href="#MicrosoftYaHei-5747"/>
      <use x="501.904297" xlink:href="#MicrosoftYaHei-503c"/>
     </g>
    </g>
    <g id="line2d_40">
     <path d="M 680.409375 80.813438 
L 700.409375 80.813438 
" style="fill:none;stroke:#ff7f0e;stroke-linecap:square;stroke-width:1.5;"/>
    </g>
    <g id="line2d_41"/>
    <g id="text_19">
     <!-- 1W-5日均值 -->
     <defs>
      <path d="M 100.484375 75.640625 
L 79.296875 0 
L 67.921875 0 
L 52.6875 54.5 
Q 51.65625 58.203125 51.46875 62.3125 
L 51.265625 62.3125 
Q 50.984375 58.25 49.90625 54.59375 
L 34.515625 0 
L 23.25 0 
L 1.3125 75.640625 
L 12.109375 75.640625 
L 27.546875 18.5 
Q 28.5625 14.65625 28.765625 10.75 
L 29.046875 10.75 
Q 29.296875 13.671875 30.671875 18.5 
L 47.015625 75.640625 
L 56.640625 75.640625 
L 72.265625 18.0625 
Q 73.046875 15.234375 73.53125 10.84375 
L 73.734375 10.84375 
Q 73.96875 14.015625 75.140625 18.265625 
L 89.984375 75.640625 
z
" id="MicrosoftYaHei-57"/>
     </defs>
     <g transform="translate(708.409375 84.313438)scale(0.1 -0.1)">
      <use xlink:href="#MicrosoftYaHei-31"/>
      <use x="58.642578" xlink:href="#MicrosoftYaHei-57"/>
      <use x="160.400391" xlink:href="#MicrosoftYaHei-2d"/>
      <use x="203.662109" xlink:href="#MicrosoftYaHei-35"/>
      <use x="262.304688" xlink:href="#MicrosoftYaHei-65e5"/>
      <use x="362.304688" xlink:href="#MicrosoftYaHei-5747"/>
      <use x="462.304688" xlink:href="#MicrosoftYaHei-503c"/>
     </g>
    </g>
    <g id="line2d_42">
     <path d="M 680.409375 96.293125 
L 700.409375 96.293125 
" style="fill:none;stroke:#2ca02c;stroke-linecap:square;stroke-width:1.5;"/>
    </g>
    <g id="line2d_43"/>
    <g id="text_20">
     <!-- 2W-5日均值 -->
     <g transform="translate(708.409375 99.793125)scale(0.1 -0.1)">
      <use xlink:href="#MicrosoftYaHei-32"/>
      <use x="58.642578" xlink:href="#MicrosoftYaHei-57"/>
      <use x="160.400391" xlink:href="#MicrosoftYaHei-2d"/>
      <use x="203.662109" xlink:href="#MicrosoftYaHei-35"/>
      <use x="262.304688" xlink:href="#MicrosoftYaHei-65e5"/>
      <use x="362.304688" xlink:href="#MicrosoftYaHei-5747"/>
      <use x="462.304688" xlink:href="#MicrosoftYaHei-503c"/>
     </g>
    </g>
    <g id="line2d_44">
     <path d="M 680.409375 111.772812 
L 700.409375 111.772812 
" style="fill:none;stroke:#d62728;stroke-linecap:square;stroke-width:1.5;"/>
    </g>
    <g id="line2d_45"/>
    <g id="text_21">
     <!-- 1M-5日均值 -->
     <defs>
      <path d="M 78.171875 0 
L 78.171875 50.09375 
Q 78.171875 56.296875 78.90625 64.984375 
L 78.65625 64.984375 
Q 77.390625 59.515625 76.421875 57.375 
L 51.46875 0 
L 46.046875 0 
L 21.140625 56.9375 
Q 20.265625 58.890625 18.890625 64.984375 
L 18.609375 64.984375 
Q 19.09375 59.71875 19.09375 49.65625 
L 19.09375 0 
L 9.765625 0 
L 9.765625 75.640625 
L 23 75.640625 
L 45.3125 23.78125 
Q 47.859375 17.828125 48.6875 14.5 
L 49.03125 14.5 
Q 51.5625 21.484375 52.59375 23.96875 
L 75.296875 75.640625 
L 87.890625 75.640625 
L 87.890625 0 
z
" id="MicrosoftYaHei-4d"/>
     </defs>
     <g transform="translate(708.409375 115.272812)scale(0.1 -0.1)">
      <use xlink:href="#MicrosoftYaHei-31"/>
      <use x="58.642578" xlink:href="#MicrosoftYaHei-4d"/>
      <use x="156.347656" xlink:href="#MicrosoftYaHei-2d"/>
      <use x="199.609375" xlink:href="#MicrosoftYaHei-35"/>
      <use x="258.251953" xlink:href="#MicrosoftYaHei-65e5"/>
      <use x="358.251953" xlink:href="#MicrosoftYaHei-5747"/>
      <use x="458.251953" xlink:href="#MicrosoftYaHei-503c"/>
     </g>
    </g>
    <g id="line2d_46">
     <path d="M 680.409375 127.2525 
L 700.409375 127.2525 
" style="fill:none;stroke:#9467bd;stroke-linecap:square;stroke-width:1.5;"/>
    </g>
    <g id="line2d_47"/>
    <g id="text_22">
     <!-- 1Y-5日均值 -->
     <defs>
      <path d="M 59.8125 75.640625 
L 34.90625 27.828125 
L 34.90625 0 
L 25.09375 0 
L 25.09375 27.59375 
L 0.828125 75.640625 
L 12.015625 75.640625 
L 28.375 42.140625 
Q 28.421875 42.09375 30.171875 37.3125 
L 30.328125 37.3125 
Q 30.90625 39.359375 32.328125 42.09375 
L 49.421875 75.640625 
z
" id="MicrosoftYaHei-59"/>
     </defs>
     <g transform="translate(708.409375 130.7525)scale(0.1 -0.1)">
      <use xlink:href="#MicrosoftYaHei-31"/>
      <use x="58.642578" xlink:href="#MicrosoftYaHei-59"/>
      <use x="118.994141" xlink:href="#MicrosoftYaHei-2d"/>
      <use x="162.255859" xlink:href="#MicrosoftYaHei-35"/>
      <use x="220.898438" xlink:href="#MicrosoftYaHei-65e5"/>
      <use x="320.898438" xlink:href="#MicrosoftYaHei-5747"/>
      <use x="420.898438" xlink:href="#MicrosoftYaHei-503c"/>
     </g>
    </g>
   </g>
  </g>
 </g>
 <defs>
  <clipPath id="pde4b39e420">
   <rect height="332.64" width="669.6" x="108" y="51.84"/>
  </clipPath>
 </defs>
</svg>
