<?xml version="1.0" encoding="utf-8" standalone="no"?>
<!DOCTYPE svg PUBLIC "-//W3C//DTD SVG 1.1//EN"
  "http://www.w3.org/Graphics/SVG/1.1/DTD/svg11.dtd">
<!-- Created with matplotlib (http://matplotlib.org/) -->
<svg height="432pt" version="1.1" viewBox="0 0 864 432" width="864pt" xmlns="http://www.w3.org/2000/svg" xmlns:xlink="http://www.w3.org/1999/xlink">
 <defs>
  <style type="text/css">
*{stroke-linecap:butt;stroke-linejoin:round;}
  </style>
 </defs>
 <g id="figure_1">
  <g id="patch_1">
   <path d="M 0 432 
L 864 432 
L 864 0 
L 0 0 
z
" style="fill:#ffffff;"/>
  </g>
  <g id="axes_1">
   <g id="patch_2">
    <path d="M 108 384.48 
L 777.6 384.48 
L 777.6 51.84 
L 108 51.84 
z
" style="fill:#ffffff;"/>
   </g>
   <g id="matplotlib.axis_1">
    <g id="xtick_1">
     <g id="line2d_1">
      <path clip-path="url(#p80b44a949f)" d="M 108 384.48 
L 108 51.84 
" style="fill:none;stroke:#b0b0b0;stroke-linecap:square;stroke-width:0.8;"/>
     </g>
     <g id="line2d_2">
      <defs>
       <path d="M 0 0 
L 0 3.5 
" id="m5deb8f1f61" style="stroke:#000000;stroke-width:0.8;"/>
      </defs>
      <g>
       <use style="stroke:#000000;stroke-width:0.8;" x="108" xlink:href="#m5deb8f1f61" y="384.48"/>
      </g>
     </g>
     <g id="text_1">
      <!-- 2018-02-07 -->
      <defs>
       <path d="M 51.171875 0 
L 5.171875 0 
L 5.171875 8.296875 
L 27.15625 30.21875 
Q 36.234375 39.3125 39.3125 44.609375 
Q 42.390625 49.90625 42.390625 55.5625 
Q 42.390625 62.015625 38.765625 65.453125 
Q 35.15625 68.890625 28.328125 68.890625 
Q 18.21875 68.890625 9.03125 60.296875 
L 9.03125 70.015625 
Q 17.96875 76.90625 29.828125 76.90625 
Q 40.046875 76.90625 45.953125 71.390625 
Q 51.859375 65.875 51.859375 56.546875 
Q 51.859375 49.515625 48.0625 42.75 
Q 44.28125 35.984375 33.734375 25.53125 
L 16.5 8.6875 
L 16.5 8.5 
L 51.171875 8.5 
z
" id="MicrosoftYaHei-32"/>
       <path d="M 4.4375 36.328125 
Q 4.4375 56.34375 11.078125 66.625 
Q 17.71875 76.90625 30.328125 76.90625 
Q 54.34375 76.90625 54.34375 38.140625 
Q 54.34375 19 47.578125 8.859375 
Q 40.828125 -1.265625 28.609375 -1.265625 
Q 17.09375 -1.265625 10.765625 8.34375 
Q 4.4375 17.96875 4.4375 36.328125 
z
M 14.203125 36.765625 
Q 14.203125 6.640625 29.5 6.640625 
Q 44.53125 6.640625 44.53125 37.25 
Q 44.53125 68.953125 29.78125 68.953125 
Q 14.203125 68.953125 14.203125 36.765625 
z
" id="MicrosoftYaHei-30"/>
       <path d="M 52.59375 0 
L 9.234375 0 
L 9.234375 8.25 
L 26.171875 8.25 
L 26.171875 65.671875 
L 8.796875 60.640625 
L 8.796875 69.4375 
L 35.6875 77.25 
L 35.6875 8.25 
L 52.59375 8.25 
z
" id="MicrosoftYaHei-31"/>
       <path d="M 21.390625 39.796875 
Q 7.859375 46.09375 7.859375 58.0625 
Q 7.859375 66.40625 14.203125 71.65625 
Q 20.5625 76.90625 30.421875 76.90625 
Q 39.453125 76.90625 45.3125 71.96875 
Q 51.171875 67.046875 51.171875 59.234375 
Q 51.171875 46.625 37.0625 39.84375 
L 37.0625 39.65625 
Q 53.609375 33.6875 53.609375 19.34375 
Q 53.609375 9.90625 46.796875 4.3125 
Q 39.984375 -1.265625 27.78125 -1.265625 
Q 17.78125 -1.265625 11.46875 4.25 
Q 5.171875 9.765625 5.171875 18.5625 
Q 5.171875 33.015625 21.390625 39.59375 
z
M 41.5 58.109375 
Q 41.5 63.1875 38.328125 66.109375 
Q 35.15625 69.046875 29.734375 69.046875 
Q 24.65625 69.046875 21.09375 65.984375 
Q 17.53125 62.9375 17.53125 58.203125 
Q 17.53125 48.734375 29.390625 43.796875 
Q 41.5 48.828125 41.5 58.109375 
z
M 28.8125 35.25 
Q 14.796875 29.59375 14.796875 19.046875 
Q 14.796875 13.578125 18.890625 10.0625 
Q 23 6.546875 29.59375 6.546875 
Q 35.984375 6.546875 39.984375 10.03125 
Q 44 13.53125 44 18.75 
Q 44 29.734375 28.8125 35.25 
z
" id="MicrosoftYaHei-38"/>
       <path d="M 36.375 26.265625 
L 7.625 26.265625 
L 7.625 33.640625 
L 36.375 33.640625 
z
" id="MicrosoftYaHei-2d"/>
       <path d="M 53.765625 72.3125 
L 24.171875 0 
L 14.265625 0 
L 42.390625 67.1875 
L 4.59375 67.1875 
L 4.59375 75.640625 
L 53.765625 75.640625 
z
" id="MicrosoftYaHei-37"/>
      </defs>
      <g transform="translate(80.217187 399.47375)scale(0.1 -0.1)">
       <use xlink:href="#MicrosoftYaHei-32"/>
       <use x="58.642578" xlink:href="#MicrosoftYaHei-30"/>
       <use x="117.285156" xlink:href="#MicrosoftYaHei-31"/>
       <use x="175.927734" xlink:href="#MicrosoftYaHei-38"/>
       <use x="234.570312" xlink:href="#MicrosoftYaHei-2d"/>
       <use x="277.832031" xlink:href="#MicrosoftYaHei-30"/>
       <use x="336.474609" xlink:href="#MicrosoftYaHei-32"/>
       <use x="395.117188" xlink:href="#MicrosoftYaHei-2d"/>
       <use x="438.378906" xlink:href="#MicrosoftYaHei-30"/>
       <use x="497.021484" xlink:href="#MicrosoftYaHei-37"/>
      </g>
     </g>
    </g>
    <g id="xtick_2">
     <g id="line2d_3">
      <path clip-path="url(#p80b44a949f)" d="M 199.978022 384.48 
L 199.978022 51.84 
" style="fill:none;stroke:#b0b0b0;stroke-linecap:square;stroke-width:0.8;"/>
     </g>
     <g id="line2d_4">
      <g>
       <use style="stroke:#000000;stroke-width:0.8;" x="199.978022" xlink:href="#m5deb8f1f61" y="384.48"/>
      </g>
     </g>
     <g id="text_2">
      <!-- 2018-04-24 -->
      <defs>
       <path d="M 55.078125 19.625 
L 45.40625 19.625 
L 45.40625 0 
L 36.140625 0 
L 36.140625 19.625 
L 0.875 19.625 
L 0.875 25.828125 
L 34.328125 75.640625 
L 45.40625 75.640625 
L 45.40625 27.203125 
L 55.078125 27.203125 
z
M 36.140625 27.203125 
L 36.140625 58.890625 
Q 36.140625 62.25 36.328125 66.65625 
L 36.140625 66.65625 
Q 35.453125 64.796875 33.25 60.84375 
L 10.75 27.203125 
z
" id="MicrosoftYaHei-34"/>
      </defs>
      <g transform="translate(172.195209 399.47375)scale(0.1 -0.1)">
       <use xlink:href="#MicrosoftYaHei-32"/>
       <use x="58.642578" xlink:href="#MicrosoftYaHei-30"/>
       <use x="117.285156" xlink:href="#MicrosoftYaHei-31"/>
       <use x="175.927734" xlink:href="#MicrosoftYaHei-38"/>
       <use x="234.570312" xlink:href="#MicrosoftYaHei-2d"/>
       <use x="277.832031" xlink:href="#MicrosoftYaHei-30"/>
       <use x="336.474609" xlink:href="#MicrosoftYaHei-34"/>
       <use x="395.117188" xlink:href="#MicrosoftYaHei-2d"/>
       <use x="438.378906" xlink:href="#MicrosoftYaHei-32"/>
       <use x="497.021484" xlink:href="#MicrosoftYaHei-34"/>
      </g>
     </g>
    </g>
    <g id="xtick_3">
     <g id="line2d_5">
      <path clip-path="url(#p80b44a949f)" d="M 291.956044 384.48 
L 291.956044 51.84 
" style="fill:none;stroke:#b0b0b0;stroke-linecap:square;stroke-width:0.8;"/>
     </g>
     <g id="line2d_6">
      <g>
       <use style="stroke:#000000;stroke-width:0.8;" x="291.956044" xlink:href="#m5deb8f1f61" y="384.48"/>
      </g>
     </g>
     <g id="text_3">
      <!-- 2018-07-05 -->
      <defs>
       <path d="M 8.640625 11.625 
Q 16.265625 6.640625 24.515625 6.640625 
Q 32.328125 6.640625 37.109375 11 
Q 41.890625 15.375 41.890625 22.609375 
Q 41.890625 29.890625 37.03125 33.890625 
Q 32.171875 37.890625 22.953125 37.890625 
Q 18.5 37.890625 10.984375 37.203125 
L 10.984375 75.640625 
L 48.1875 75.640625 
L 48.1875 67.1875 
L 19.875 67.1875 
L 19.875 45.796875 
Q 24.125 46.046875 26.265625 46.046875 
Q 38.234375 46.046875 44.921875 39.984375 
Q 51.609375 33.9375 51.609375 23.296875 
Q 51.609375 12.3125 44.421875 5.515625 
Q 37.25 -1.265625 24.609375 -1.265625 
Q 14.015625 -1.265625 8.640625 1.859375 
z
" id="MicrosoftYaHei-35"/>
      </defs>
      <g transform="translate(264.173231 399.47375)scale(0.1 -0.1)">
       <use xlink:href="#MicrosoftYaHei-32"/>
       <use x="58.642578" xlink:href="#MicrosoftYaHei-30"/>
       <use x="117.285156" xlink:href="#MicrosoftYaHei-31"/>
       <use x="175.927734" xlink:href="#MicrosoftYaHei-38"/>
       <use x="234.570312" xlink:href="#MicrosoftYaHei-2d"/>
       <use x="277.832031" xlink:href="#MicrosoftYaHei-30"/>
       <use x="336.474609" xlink:href="#MicrosoftYaHei-37"/>
       <use x="395.117188" xlink:href="#MicrosoftYaHei-2d"/>
       <use x="438.378906" xlink:href="#MicrosoftYaHei-30"/>
       <use x="497.021484" xlink:href="#MicrosoftYaHei-35"/>
      </g>
     </g>
    </g>
    <g id="xtick_4">
     <g id="line2d_7">
      <path clip-path="url(#p80b44a949f)" d="M 383.934066 384.48 
L 383.934066 51.84 
" style="fill:none;stroke:#b0b0b0;stroke-linecap:square;stroke-width:0.8;"/>
     </g>
     <g id="line2d_8">
      <g>
       <use style="stroke:#000000;stroke-width:0.8;" x="383.934066" xlink:href="#m5deb8f1f61" y="384.48"/>
      </g>
     </g>
     <g id="text_4">
      <!-- 2018-09-13 -->
      <defs>
       <path d="M 9.03125 10.25 
Q 15.28125 6.640625 22.515625 6.640625 
Q 32.671875 6.640625 38.25 14.640625 
Q 43.84375 22.65625 43.84375 37.40625 
Q 43.75 37.3125 43.65625 37.40625 
Q 38.671875 27.9375 26.90625 27.9375 
Q 17.390625 27.9375 11.140625 34.46875 
Q 4.890625 41.015625 4.890625 51.46875 
Q 4.890625 62.59375 11.71875 69.75 
Q 18.5625 76.90625 29.4375 76.90625 
Q 40.71875 76.90625 47.0625 68.046875 
Q 53.421875 59.1875 53.421875 42.234375 
Q 53.421875 21.296875 45.21875 10.015625 
Q 37.015625 -1.265625 22.515625 -1.265625 
Q 14.546875 -1.265625 9.03125 1.3125 
z
M 14.546875 52.6875 
Q 14.546875 45.0625 18.453125 40.59375 
Q 22.359375 36.140625 29.25 36.140625 
Q 35.203125 36.140625 39.25 40.203125 
Q 43.3125 44.28125 43.3125 50.09375 
Q 43.3125 58.25 39.28125 63.59375 
Q 35.25 68.953125 28.65625 68.953125 
Q 22.5625 68.953125 18.546875 64.3125 
Q 14.546875 59.671875 14.546875 52.6875 
z
" id="MicrosoftYaHei-39"/>
       <path d="M 6.984375 12.640625 
Q 14.75 6.640625 24.515625 6.640625 
Q 32.328125 6.640625 36.890625 10.46875 
Q 41.453125 14.3125 41.453125 20.75 
Q 41.453125 35.109375 20.90625 35.109375 
L 14.59375 35.109375 
L 14.59375 43.015625 
L 20.609375 43.015625 
Q 38.8125 43.015625 38.8125 56.5 
Q 38.8125 68.953125 24.90625 68.953125 
Q 16.9375 68.953125 9.90625 63.578125 
L 9.90625 72.609375 
Q 17.328125 76.90625 27.25 76.90625 
Q 36.921875 76.90625 42.78125 71.84375 
Q 48.640625 66.796875 48.640625 58.734375 
Q 48.640625 43.890625 33.5 39.65625 
L 33.5 39.453125 
Q 41.703125 38.578125 46.453125 33.671875 
Q 51.21875 28.765625 51.21875 21.4375 
Q 51.21875 11.234375 43.875 4.984375 
Q 36.53125 -1.265625 24.3125 -1.265625 
Q 13.578125 -1.265625 6.984375 2.734375 
z
" id="MicrosoftYaHei-33"/>
      </defs>
      <g transform="translate(356.151253 399.47375)scale(0.1 -0.1)">
       <use xlink:href="#MicrosoftYaHei-32"/>
       <use x="58.642578" xlink:href="#MicrosoftYaHei-30"/>
       <use x="117.285156" xlink:href="#MicrosoftYaHei-31"/>
       <use x="175.927734" xlink:href="#MicrosoftYaHei-38"/>
       <use x="234.570312" xlink:href="#MicrosoftYaHei-2d"/>
       <use x="277.832031" xlink:href="#MicrosoftYaHei-30"/>
       <use x="336.474609" xlink:href="#MicrosoftYaHei-39"/>
       <use x="395.117188" xlink:href="#MicrosoftYaHei-2d"/>
       <use x="438.378906" xlink:href="#MicrosoftYaHei-31"/>
       <use x="497.021484" xlink:href="#MicrosoftYaHei-33"/>
      </g>
     </g>
    </g>
    <g id="xtick_5">
     <g id="line2d_9">
      <path clip-path="url(#p80b44a949f)" d="M 475.912088 384.48 
L 475.912088 51.84 
" style="fill:none;stroke:#b0b0b0;stroke-linecap:square;stroke-width:0.8;"/>
     </g>
     <g id="line2d_10">
      <g>
       <use style="stroke:#000000;stroke-width:0.8;" x="475.912088" xlink:href="#m5deb8f1f61" y="384.48"/>
      </g>
     </g>
     <g id="text_5">
      <!-- 2018-11-28 -->
      <g transform="translate(448.129275 399.47375)scale(0.1 -0.1)">
       <use xlink:href="#MicrosoftYaHei-32"/>
       <use x="58.642578" xlink:href="#MicrosoftYaHei-30"/>
       <use x="117.285156" xlink:href="#MicrosoftYaHei-31"/>
       <use x="175.927734" xlink:href="#MicrosoftYaHei-38"/>
       <use x="234.570312" xlink:href="#MicrosoftYaHei-2d"/>
       <use x="277.832031" xlink:href="#MicrosoftYaHei-31"/>
       <use x="336.474609" xlink:href="#MicrosoftYaHei-31"/>
       <use x="395.117188" xlink:href="#MicrosoftYaHei-2d"/>
       <use x="438.378906" xlink:href="#MicrosoftYaHei-32"/>
       <use x="497.021484" xlink:href="#MicrosoftYaHei-38"/>
      </g>
     </g>
    </g>
    <g id="xtick_6">
     <g id="line2d_11">
      <path clip-path="url(#p80b44a949f)" d="M 567.89011 384.48 
L 567.89011 51.84 
" style="fill:none;stroke:#b0b0b0;stroke-linecap:square;stroke-width:0.8;"/>
     </g>
     <g id="line2d_12">
      <g>
       <use style="stroke:#000000;stroke-width:0.8;" x="567.89011" xlink:href="#m5deb8f1f61" y="384.48"/>
      </g>
     </g>
     <g id="text_6">
      <!-- 2019-02-13 -->
      <g transform="translate(540.107297 399.47375)scale(0.1 -0.1)">
       <use xlink:href="#MicrosoftYaHei-32"/>
       <use x="58.642578" xlink:href="#MicrosoftYaHei-30"/>
       <use x="117.285156" xlink:href="#MicrosoftYaHei-31"/>
       <use x="175.927734" xlink:href="#MicrosoftYaHei-39"/>
       <use x="234.570312" xlink:href="#MicrosoftYaHei-2d"/>
       <use x="277.832031" xlink:href="#MicrosoftYaHei-30"/>
       <use x="336.474609" xlink:href="#MicrosoftYaHei-32"/>
       <use x="395.117188" xlink:href="#MicrosoftYaHei-2d"/>
       <use x="438.378906" xlink:href="#MicrosoftYaHei-31"/>
       <use x="497.021484" xlink:href="#MicrosoftYaHei-33"/>
      </g>
     </g>
    </g>
    <g id="xtick_7">
     <g id="line2d_13">
      <path clip-path="url(#p80b44a949f)" d="M 659.868132 384.48 
L 659.868132 51.84 
" style="fill:none;stroke:#b0b0b0;stroke-linecap:square;stroke-width:0.8;"/>
     </g>
     <g id="line2d_14">
      <g>
       <use style="stroke:#000000;stroke-width:0.8;" x="659.868132" xlink:href="#m5deb8f1f61" y="384.48"/>
      </g>
     </g>
     <g id="text_7">
      <!-- 2019-04-25 -->
      <g transform="translate(632.085319 399.47375)scale(0.1 -0.1)">
       <use xlink:href="#MicrosoftYaHei-32"/>
       <use x="58.642578" xlink:href="#MicrosoftYaHei-30"/>
       <use x="117.285156" xlink:href="#MicrosoftYaHei-31"/>
       <use x="175.927734" xlink:href="#MicrosoftYaHei-39"/>
       <use x="234.570312" xlink:href="#MicrosoftYaHei-2d"/>
       <use x="277.832031" xlink:href="#MicrosoftYaHei-30"/>
       <use x="336.474609" xlink:href="#MicrosoftYaHei-34"/>
       <use x="395.117188" xlink:href="#MicrosoftYaHei-2d"/>
       <use x="438.378906" xlink:href="#MicrosoftYaHei-32"/>
       <use x="497.021484" xlink:href="#MicrosoftYaHei-35"/>
      </g>
     </g>
    </g>
    <g id="xtick_8">
     <g id="line2d_15">
      <path clip-path="url(#p80b44a949f)" d="M 751.846154 384.48 
L 751.846154 51.84 
" style="fill:none;stroke:#b0b0b0;stroke-linecap:square;stroke-width:0.8;"/>
     </g>
     <g id="line2d_16">
      <g>
       <use style="stroke:#000000;stroke-width:0.8;" x="751.846154" xlink:href="#m5deb8f1f61" y="384.48"/>
      </g>
     </g>
     <g id="text_8">
      <!-- 2019-07-08 -->
      <g transform="translate(724.063341 399.47375)scale(0.1 -0.1)">
       <use xlink:href="#MicrosoftYaHei-32"/>
       <use x="58.642578" xlink:href="#MicrosoftYaHei-30"/>
       <use x="117.285156" xlink:href="#MicrosoftYaHei-31"/>
       <use x="175.927734" xlink:href="#MicrosoftYaHei-39"/>
       <use x="234.570312" xlink:href="#MicrosoftYaHei-2d"/>
       <use x="277.832031" xlink:href="#MicrosoftYaHei-30"/>
       <use x="336.474609" xlink:href="#MicrosoftYaHei-37"/>
       <use x="395.117188" xlink:href="#MicrosoftYaHei-2d"/>
       <use x="438.378906" xlink:href="#MicrosoftYaHei-30"/>
       <use x="497.021484" xlink:href="#MicrosoftYaHei-38"/>
      </g>
     </g>
    </g>
    <g id="text_9">
     <!-- 日期 -->
     <defs>
      <path d="M 15.234375 76.703125 
L 84.859375 76.703125 
L 84.859375 -11.96875 
L 76.5625 -11.96875 
L 76.5625 -5.03125 
L 23.53125 -5.03125 
L 23.53125 -11.96875 
L 15.234375 -11.96875 
z
M 23.53125 32.859375 
L 23.53125 2.09375 
L 76.5625 2.09375 
L 76.5625 32.859375 
z
M 23.53125 69.390625 
L 23.53125 40.1875 
L 76.5625 40.1875 
L 76.5625 69.390625 
z
" id="MicrosoftYaHei-65e5"/>
      <path d="M 58.890625 79.15625 
L 93.453125 79.15625 
L 93.453125 -0.046875 
Q 93.453125 -11.578125 82.515625 -11.578125 
Q 77.046875 -11.578125 71.78125 -11.28125 
Q 71.390625 -8.0625 70.609375 -3.765625 
Q 77.734375 -4.4375 80.859375 -4.4375 
Q 86.234375 -4.4375 86.234375 0.921875 
L 86.234375 21.4375 
L 65.328125 21.4375 
Q 64.265625 0.046875 52.34375 -14.109375 
Q 49.703125 -11.375 46.484375 -8.640625 
Q 54.390625 0.4375 56.546875 10.203125 
Q 58.890625 19.578125 58.890625 42.828125 
z
M 1.953125 17.828125 
L 11.140625 17.828125 
L 11.140625 62.9375 
L 3.125 62.9375 
L 3.125 69.578125 
L 11.140625 69.578125 
L 11.140625 81.5 
L 18.359375 81.5 
L 18.359375 69.578125 
L 38.671875 69.578125 
L 38.671875 81.890625 
L 45.90625 81.890625 
L 45.90625 69.578125 
L 53.8125 69.578125 
L 53.8125 62.9375 
L 45.90625 62.9375 
L 45.90625 17.828125 
L 53.71875 17.828125 
L 53.71875 11.1875 
L 1.953125 11.1875 
z
M 65.765625 27.875 
L 86.234375 27.875 
L 86.234375 47.015625 
L 66.109375 47.015625 
Q 66.21875 34.421875 65.765625 27.875 
z
M 86.234375 72.515625 
L 66.109375 72.515625 
L 66.109375 53.46875 
L 86.234375 53.46875 
z
M 18.359375 17.828125 
L 38.671875 17.828125 
L 38.671875 28.765625 
L 18.359375 28.765625 
z
M 18.359375 35.015625 
L 38.671875 35.015625 
L 38.671875 45.84375 
L 18.359375 45.84375 
z
M 18.359375 52.09375 
L 38.671875 52.09375 
L 38.671875 62.9375 
L 18.359375 62.9375 
z
M 18.359375 9.328125 
L 24.3125 4.640625 
Q 14.453125 -6 6.34375 -13.234375 
Q 4.296875 -10.890625 1.171875 -8.0625 
Q 10.453125 -0.140625 18.359375 9.328125 
z
M 31.15625 4.734375 
L 35.84375 9.515625 
Q 42.671875 4.4375 48.734375 -0.734375 
L 43.5625 -6.296875 
Q 38.09375 -0.828125 31.15625 4.734375 
z
" id="MicrosoftYaHei-671f"/>
     </defs>
     <g transform="translate(432.8 413.953438)scale(0.1 -0.1)">
      <use xlink:href="#MicrosoftYaHei-65e5"/>
      <use x="100" xlink:href="#MicrosoftYaHei-671f"/>
     </g>
    </g>
   </g>
   <g id="matplotlib.axis_2">
    <g id="ytick_1">
     <g id="line2d_17">
      <path clip-path="url(#p80b44a949f)" d="M 108 365.455082 
L 777.6 365.455082 
" style="fill:none;stroke:#b0b0b0;stroke-linecap:square;stroke-width:0.8;"/>
     </g>
     <g id="line2d_18">
      <defs>
       <path d="M 0 0 
L -3.5 0 
" id="m0668c8f5b9" style="stroke:#000000;stroke-width:0.8;"/>
      </defs>
      <g>
       <use style="stroke:#000000;stroke-width:0.8;" x="108" xlink:href="#m0668c8f5b9" y="365.455082"/>
      </g>
     </g>
     <g id="text_10">
      <!-- 1.0 -->
      <defs>
       <path d="M 5.8125 5.03125 
Q 5.8125 7.671875 7.609375 9.46875 
Q 9.421875 11.28125 12.109375 11.28125 
Q 14.84375 11.28125 16.640625 9.453125 
Q 18.453125 7.625 18.453125 5.03125 
Q 18.453125 2.484375 16.640625 0.65625 
Q 14.84375 -1.171875 12.0625 -1.171875 
Q 9.375 -1.171875 7.59375 0.65625 
Q 5.8125 2.484375 5.8125 5.03125 
z
" id="MicrosoftYaHei-2e"/>
      </defs>
      <g transform="translate(86.864063 369.451957)scale(0.1 -0.1)">
       <use xlink:href="#MicrosoftYaHei-31"/>
       <use x="58.642578" xlink:href="#MicrosoftYaHei-2e"/>
       <use x="82.714844" xlink:href="#MicrosoftYaHei-30"/>
      </g>
     </g>
    </g>
    <g id="ytick_2">
     <g id="line2d_19">
      <path clip-path="url(#p80b44a949f)" d="M 108 325.608985 
L 777.6 325.608985 
" style="fill:none;stroke:#b0b0b0;stroke-linecap:square;stroke-width:0.8;"/>
     </g>
     <g id="line2d_20">
      <g>
       <use style="stroke:#000000;stroke-width:0.8;" x="108" xlink:href="#m0668c8f5b9" y="325.608985"/>
      </g>
     </g>
     <g id="text_11">
      <!-- 1.5 -->
      <g transform="translate(86.864063 329.60586)scale(0.1 -0.1)">
       <use xlink:href="#MicrosoftYaHei-31"/>
       <use x="58.642578" xlink:href="#MicrosoftYaHei-2e"/>
       <use x="82.714844" xlink:href="#MicrosoftYaHei-35"/>
      </g>
     </g>
    </g>
    <g id="ytick_3">
     <g id="line2d_21">
      <path clip-path="url(#p80b44a949f)" d="M 108 285.762888 
L 777.6 285.762888 
" style="fill:none;stroke:#b0b0b0;stroke-linecap:square;stroke-width:0.8;"/>
     </g>
     <g id="line2d_22">
      <g>
       <use style="stroke:#000000;stroke-width:0.8;" x="108" xlink:href="#m0668c8f5b9" y="285.762888"/>
      </g>
     </g>
     <g id="text_12">
      <!-- 2.0 -->
      <g transform="translate(86.864063 289.759763)scale(0.1 -0.1)">
       <use xlink:href="#MicrosoftYaHei-32"/>
       <use x="58.642578" xlink:href="#MicrosoftYaHei-2e"/>
       <use x="82.714844" xlink:href="#MicrosoftYaHei-30"/>
      </g>
     </g>
    </g>
    <g id="ytick_4">
     <g id="line2d_23">
      <path clip-path="url(#p80b44a949f)" d="M 108 245.916791 
L 777.6 245.916791 
" style="fill:none;stroke:#b0b0b0;stroke-linecap:square;stroke-width:0.8;"/>
     </g>
     <g id="line2d_24">
      <g>
       <use style="stroke:#000000;stroke-width:0.8;" x="108" xlink:href="#m0668c8f5b9" y="245.916791"/>
      </g>
     </g>
     <g id="text_13">
      <!-- 2.5 -->
      <g transform="translate(86.864063 249.913666)scale(0.1 -0.1)">
       <use xlink:href="#MicrosoftYaHei-32"/>
       <use x="58.642578" xlink:href="#MicrosoftYaHei-2e"/>
       <use x="82.714844" xlink:href="#MicrosoftYaHei-35"/>
      </g>
     </g>
    </g>
    <g id="ytick_5">
     <g id="line2d_25">
      <path clip-path="url(#p80b44a949f)" d="M 108 206.070694 
L 777.6 206.070694 
" style="fill:none;stroke:#b0b0b0;stroke-linecap:square;stroke-width:0.8;"/>
     </g>
     <g id="line2d_26">
      <g>
       <use style="stroke:#000000;stroke-width:0.8;" x="108" xlink:href="#m0668c8f5b9" y="206.070694"/>
      </g>
     </g>
     <g id="text_14">
      <!-- 3.0 -->
      <g transform="translate(86.864063 210.067569)scale(0.1 -0.1)">
       <use xlink:href="#MicrosoftYaHei-33"/>
       <use x="58.642578" xlink:href="#MicrosoftYaHei-2e"/>
       <use x="82.714844" xlink:href="#MicrosoftYaHei-30"/>
      </g>
     </g>
    </g>
    <g id="ytick_6">
     <g id="line2d_27">
      <path clip-path="url(#p80b44a949f)" d="M 108 166.224597 
L 777.6 166.224597 
" style="fill:none;stroke:#b0b0b0;stroke-linecap:square;stroke-width:0.8;"/>
     </g>
     <g id="line2d_28">
      <g>
       <use style="stroke:#000000;stroke-width:0.8;" x="108" xlink:href="#m0668c8f5b9" y="166.224597"/>
      </g>
     </g>
     <g id="text_15">
      <!-- 3.5 -->
      <g transform="translate(86.864063 170.221472)scale(0.1 -0.1)">
       <use xlink:href="#MicrosoftYaHei-33"/>
       <use x="58.642578" xlink:href="#MicrosoftYaHei-2e"/>
       <use x="82.714844" xlink:href="#MicrosoftYaHei-35"/>
      </g>
     </g>
    </g>
    <g id="ytick_7">
     <g id="line2d_29">
      <path clip-path="url(#p80b44a949f)" d="M 108 126.3785 
L 777.6 126.3785 
" style="fill:none;stroke:#b0b0b0;stroke-linecap:square;stroke-width:0.8;"/>
     </g>
     <g id="line2d_30">
      <g>
       <use style="stroke:#000000;stroke-width:0.8;" x="108" xlink:href="#m0668c8f5b9" y="126.3785"/>
      </g>
     </g>
     <g id="text_16">
      <!-- 4.0 -->
      <g transform="translate(86.864063 130.375375)scale(0.1 -0.1)">
       <use xlink:href="#MicrosoftYaHei-34"/>
       <use x="58.642578" xlink:href="#MicrosoftYaHei-2e"/>
       <use x="82.714844" xlink:href="#MicrosoftYaHei-30"/>
      </g>
     </g>
    </g>
    <g id="ytick_8">
     <g id="line2d_31">
      <path clip-path="url(#p80b44a949f)" d="M 108 86.532403 
L 777.6 86.532403 
" style="fill:none;stroke:#b0b0b0;stroke-linecap:square;stroke-width:0.8;"/>
     </g>
     <g id="line2d_32">
      <g>
       <use style="stroke:#000000;stroke-width:0.8;" x="108" xlink:href="#m0668c8f5b9" y="86.532403"/>
      </g>
     </g>
     <g id="text_17">
      <!-- 4.5 -->
      <g transform="translate(86.864063 90.529278)scale(0.1 -0.1)">
       <use xlink:href="#MicrosoftYaHei-34"/>
       <use x="58.642578" xlink:href="#MicrosoftYaHei-2e"/>
       <use x="82.714844" xlink:href="#MicrosoftYaHei-35"/>
      </g>
     </g>
    </g>
   </g>
   <g id="line2d_33">
    <path clip-path="url(#p80b44a949f)" d="M 108 243.159441 
L 109.83956 242.25095 
L 113.518681 239.876123 
L 115.358242 239.142955 
L 117.197802 238.88794 
L 119.037363 236.481235 
L 120.876923 235.811821 
L 122.716484 235.987144 
L 124.556044 236.385605 
L 126.395604 236.64062 
L 128.235165 239.222647 
L 130.074725 237.995387 
L 131.914286 236.497174 
L 133.753846 233.102286 
L 135.593407 231.811273 
L 137.432967 230.91872 
L 141.112088 234.69613 
L 142.951648 237.883818 
L 144.791209 238.935755 
L 146.630769 238.616986 
L 148.47033 237.96351 
L 150.30989 236.975327 
L 152.149451 236.768127 
L 153.989011 237.166588 
L 159.507692 240.92806 
L 161.347253 241.581536 
L 163.186813 241.868428 
L 168.705495 240.266615 
L 170.545055 237.955541 
L 172.384615 236.696404 
L 174.224176 237.007204 
L 176.063736 238.967632 
L 177.903297 241.119321 
L 179.742857 243.701348 
L 181.582418 244.832977 
L 183.421978 245.040177 
L 185.261538 243.637594 
L 187.101099 241.868428 
L 188.940659 241.007752 
L 192.61978 237.310034 
L 194.459341 234.504869 
L 196.298901 231.476566 
L 198.138462 229.213307 
L 199.978022 228.081678 
L 201.817582 227.300695 
L 203.657143 226.790665 
L 205.496703 224.017376 
L 207.336264 222.423532 
L 209.175824 222.678547 
L 211.015385 223.427654 
L 212.854945 226.153127 
L 214.694505 231.556258 
L 216.534066 235.524929 
L 218.373626 238.712617 
L 220.213187 241.454028 
L 222.052747 243.159441 
L 223.892308 243.191318 
L 225.731868 242.139381 
L 227.571429 238.218525 
L 229.410989 236.815943 
L 231.250549 235.604621 
L 233.09011 236.449359 
L 234.92967 238.298217 
L 236.769231 242.059689 
L 238.608791 243.127564 
L 240.448352 243.68541 
L 242.287912 243.589779 
L 244.127473 240.131138 
L 245.967033 234.488931 
L 247.806593 229.69146 
L 249.646154 225.340267 
L 251.485714 224.28833 
L 253.325275 226.806603 
L 255.164835 231.93878 
L 257.004396 236.337789 
L 258.843956 240.131138 
L 260.683516 240.545537 
L 262.523077 240.545537 
L 264.362637 240.115199 
L 268.041758 239.079201 
L 269.881319 238.808248 
L 271.720879 238.250402 
L 273.56044 238.186648 
L 275.4 238.266341 
L 277.23956 238.712617 
L 279.079121 239.860184 
L 280.918681 242.633473 
L 282.758242 247.478758 
L 284.597802 246.809344 
L 286.437363 247.526574 
L 288.276923 249.088541 
L 290.116484 253.009397 
L 291.956044 255.511731 
L 293.795604 266.047039 
L 295.635165 274.462535 
L 297.474725 276.24764 
L 299.314286 272.948383 
L 301.153846 267.290238 
L 302.993407 259.113819 
L 304.832967 250.092662 
L 306.672527 245.582084 
L 308.512088 243.68541 
L 310.351648 244.817039 
L 312.191209 246.95279 
L 314.030769 250.060785 
L 315.87033 253.854134 
L 317.70989 256.659299 
L 319.549451 258.173451 
L 321.389011 259.161634 
L 323.228571 261.775538 
L 325.068132 266.34987 
L 326.907692 271.466109 
L 328.747253 277.060501 
L 330.586813 283.993722 
L 332.426374 290.03439 
L 334.265934 297.254503 
L 336.105495 306.913197 
L 337.945055 312.459773 
L 339.784615 312.826357 
L 341.624176 308.140456 
L 343.463736 296.744473 
L 347.142857 267.864022 
L 348.982418 255.846439 
L 350.821978 247.685958 
L 352.661538 242.776919 
L 354.501099 239.7008 
L 356.340659 240.609291 
L 360.01978 246.554329 
L 361.859341 249.90937 
L 363.698901 252.276228 
L 365.538462 255.097332 
L 367.378022 256.420222 
L 369.217582 259.018188 
L 372.896703 266.286116 
L 374.736264 262.827475 
L 378.415385 253.615057 
L 382.094505 241.055567 
L 383.934066 240.481784 
L 387.613187 243.812917 
L 389.452747 242.792857 
L 391.292308 242.713165 
L 393.131868 242.888488 
L 394.971429 242.490027 
L 396.810989 241.262767 
L 400.49011 244.49827 
L 402.32967 245.677715 
L 404.169231 252.706566 
L 406.008791 250.953338 
L 407.848352 251.224291 
L 409.687912 250.554877 
L 411.527473 251.303984 
L 413.367033 246.729652 
L 415.206593 250.140478 
L 417.046154 252.674689 
L 418.885714 254.730748 
L 420.725275 255.447978 
L 422.564835 254.380102 
L 424.404396 254.284472 
L 426.243956 252.722505 
L 428.083516 251.479306 
L 429.923077 250.841769 
L 431.762637 254.220718 
L 433.602198 260.245448 
L 435.441758 270.175095 
L 437.281319 284.280614 
L 439.120879 284.647198 
L 440.96044 279.355636 
L 442.8 272.820876 
L 444.63956 263.536735 
L 446.479121 252.316074 
L 448.318681 256.770868 
L 450.158242 265.83984 
L 451.997802 272.836814 
L 453.837363 274.837088 
L 455.676923 271.681278 
L 457.516484 267.943714 
L 459.356044 262.189937 
L 461.195604 257.296837 
L 463.035165 253.439734 
L 464.874725 251.192414 
L 466.714286 247.144051 
L 468.553846 245.279254 
L 470.393407 245.103931 
L 474.072527 246.793405 
L 475.912088 247.430943 
L 477.751648 250.523 
L 479.591209 245.964607 
L 481.430769 245.693653 
L 483.27033 247.46282 
L 485.10989 251.798075 
L 486.949451 249.311679 
L 488.789011 252.913766 
L 490.628571 253.901949 
L 492.468132 253.615057 
L 494.307692 251.112722 
L 496.147253 249.50294 
L 497.986813 245.693653 
L 499.826374 242.952242 
L 501.665934 239.668923 
L 503.505495 236.003082 
L 505.345055 235.238037 
L 507.184615 237.931633 
L 509.024176 242.856611 
L 512.703297 263.034675 
L 514.542857 275.371026 
L 516.382418 291.56448 
L 518.221978 287.771132 
L 520.061538 284.408121 
L 521.901099 286.703256 
L 523.740659 287.06984 
L 525.58022 305.239661 
L 527.41978 316.922536 
L 529.259341 320.508685 
L 531.098901 319.568317 
L 532.938462 312.69885 
L 534.778022 299.454007 
L 536.617582 287.675501 
L 538.457143 279.451267 
L 540.296703 271.952231 
L 542.136264 266.182516 
L 543.975824 266.214393 
L 545.815385 267.202576 
L 547.654945 267.138823 
L 549.494505 264.214119 
L 551.334066 264.947287 
L 553.173626 267.57713 
L 555.013187 271.434232 
L 556.852747 271.832693 
L 558.692308 276.008564 
L 560.531868 274.892873 
L 562.371429 274.765366 
L 564.210989 270.573556 
L 566.050549 274.095951 
L 567.89011 280.120681 
L 569.72967 288.775253 
L 571.569231 294.720291 
L 573.408791 301.77305 
L 575.248352 302.569972 
L 577.087912 300.466098 
L 578.927473 295.541121 
L 580.767033 284.097321 
L 586.285714 247.112174 
L 588.125275 238.282279 
L 589.964835 242.681288 
L 591.804396 253.391919 
L 593.643956 260.388894 
L 595.483516 269.633188 
L 597.323077 277.98493 
L 599.162637 279.706282 
L 601.002198 277.17207 
L 602.841758 275.594164 
L 604.681319 275.514472 
L 606.520879 271.529862 
L 608.36044 261.839292 
L 610.2 251.256168 
L 612.03956 246.458698 
L 613.879121 236.337789 
L 615.718681 230.743397 
L 617.558242 231.301243 
L 619.397802 234.823638 
L 621.237363 237.549111 
L 623.076923 244.370763 
L 624.916484 254.252595 
L 626.756044 256.388346 
L 628.595604 259.894802 
L 630.435165 268.485621 
L 634.114286 288.360854 
L 635.953846 305.223722 
L 637.793407 313.479833 
L 639.632967 308.347656 
L 641.472527 291.26165 
L 643.312088 271.577678 
L 645.151648 249.757955 
L 646.991209 232.44881 
L 648.830769 220.973134 
L 650.67033 219.745875 
L 652.50989 219.602429 
L 654.349451 223.427654 
L 656.189011 224.304268 
L 658.028571 228.225124 
L 659.868132 228.655462 
L 661.707692 231.285304 
L 663.547253 239.047324 
L 665.386813 257.025883 
L 667.226374 267.640883 
L 669.065934 283.49963 
L 670.905495 297.111057 
L 672.745055 307.933257 
L 676.424176 325.975569 
L 678.263736 325.401786 
L 680.103297 317.209428 
L 681.942857 300.928313 
L 683.782418 278.742006 
L 685.621978 266.501285 
L 687.461538 261.592246 
L 689.301099 254.762625 
L 691.140659 249.375432 
L 692.98022 247.948942 
L 694.81978 243.119595 
L 696.659341 239.8044 
L 698.498901 238.505417 
L 700.338462 238.346033 
L 702.178022 240.449907 
L 704.017582 248.69008 
L 705.857143 251.048969 
L 707.696703 261.616153 
L 709.536264 277.905238 
L 711.375824 292.217956 
L 713.215385 300.920344 
L 715.054945 306.435043 
L 716.894505 305.638122 
L 718.734066 302.434495 
L 720.573626 297.158872 
L 722.413187 293.939307 
L 724.252747 294.688414 
L 726.092308 301.892588 
L 727.931868 309.7343 
L 729.771429 320.428993 
L 731.610989 330.167379 
L 733.450549 342.934068 
L 735.29011 352.146486 
L 737.12967 359.414414 
L 738.969231 364.060469 
L 740.808791 359.940383 
L 742.648352 358.904384 
L 746.327473 362.458656 
L 748.167033 364.331423 
L 750.006593 369.36 
L 751.846154 363.303393 
L 753.685714 349.612274 
L 755.525275 334.677957 
L 761.043956 278.789821 
L 764.723077 249.319648 
L 766.562637 236.983296 
L 768.402198 227.54774 
L 770.241758 226.710972 
L 772.081319 229.308938 
L 773.920879 232.974779 
L 775.76044 235.269914 
L 777.6 238.314156 
L 777.6 238.314156 
" style="fill:none;stroke:#1f77b4;stroke-linecap:square;stroke-width:1.5;"/>
   </g>
   <g id="line2d_34">
    <path clip-path="url(#p80b44a949f)" d="M 108 223.634854 
L 109.83956 221.857718 
L 111.679121 219.785721 
L 115.358242 215.187481 
L 117.197802 212.685146 
L 119.037363 212.589516 
L 120.876923 213.019853 
L 124.556044 214.263052 
L 126.395604 215.187481 
L 128.235165 215.968465 
L 133.753846 215.155604 
L 137.432967 214.374621 
L 141.112088 215.442496 
L 144.791209 216.653818 
L 146.630769 216.908833 
L 148.47033 216.972586 
L 153.989011 216.701633 
L 159.507692 217.211663 
L 161.347253 217.514493 
L 163.186813 217.530432 
L 165.026374 217.323232 
L 166.865934 216.82914 
L 168.705495 216.159726 
L 170.545055 215.036066 
L 172.384615 214.701359 
L 174.224176 214.765113 
L 176.063736 215.70548 
L 177.903297 217.044309 
L 179.742857 218.805507 
L 181.582418 220.016828 
L 183.421978 221.068765 
L 185.261538 221.546918 
L 187.101099 221.770056 
L 188.940659 221.83381 
L 190.78022 221.260026 
L 192.61978 220.399351 
L 194.459341 219.060522 
L 198.138462 215.984403 
L 199.978022 214.964343 
L 201.817582 214.119606 
L 203.657143 213.46613 
L 205.496703 212.111362 
L 207.336264 210.963795 
L 209.175824 211.202871 
L 211.015385 212.143239 
L 212.854945 214.039914 
L 216.534066 220.909381 
L 218.373626 223.427654 
L 220.213187 225.483713 
L 222.052747 226.965987 
L 223.892308 227.444141 
L 225.731868 227.093495 
L 227.571429 225.483713 
L 229.410989 224.208638 
L 231.250549 223.332023 
L 233.09011 223.045132 
L 234.92967 223.332023 
L 236.769231 224.654914 
L 238.608791 225.483713 
L 240.448352 225.069313 
L 242.287912 224.272391 
L 244.127473 222.790116 
L 247.806593 218.167969 
L 249.646154 216.52631 
L 251.485714 216.335049 
L 253.325275 217.068217 
L 255.164835 218.709876 
L 257.004396 220.542797 
L 258.843956 222.535101 
L 260.683516 223.204516 
L 262.523077 223.411716 
L 264.362637 223.284208 
L 266.202198 222.869809 
L 269.881319 221.73818 
L 271.720879 221.212211 
L 273.56044 220.81375 
L 277.23956 220.399351 
L 279.079121 220.048705 
L 282.758242 219.602429 
L 284.597802 218.917076 
L 286.437363 219.650244 
L 288.276923 221.435349 
L 290.116484 224.176761 
L 291.956044 227.938232 
L 293.795604 232.305364 
L 295.635165 235.142407 
L 297.474725 236.13059 
L 299.314286 235.859636 
L 301.153846 234.568623 
L 304.832967 231.460627 
L 306.672527 230.727459 
L 308.512088 230.360875 
L 310.351648 230.40869 
L 312.191209 230.584013 
L 317.70989 232.560379 
L 321.389011 233.261671 
L 325.068132 233.484809 
L 326.907692 234.202039 
L 328.747253 235.41336 
L 330.586813 237.469419 
L 332.426374 240.370215 
L 336.105495 248.961033 
L 337.945055 251.096784 
L 339.784615 252.674689 
L 341.624176 252.324044 
L 343.463736 249.088541 
L 345.303297 244.832977 
L 347.142857 241.852489 
L 348.982418 238.282279 
L 350.821978 235.365545 
L 352.661538 233.899208 
L 354.501099 233.102286 
L 356.340659 232.911025 
L 360.01978 234.026716 
L 361.859341 234.568623 
L 365.538462 234.967084 
L 367.378022 234.632377 
L 369.217582 234.967084 
L 371.057143 235.71619 
L 372.896703 237.214404 
L 374.736264 237.325973 
L 376.575824 236.688435 
L 378.415385 235.764006 
L 380.254945 234.3933 
L 382.094505 232.432872 
L 383.934066 231.954719 
L 385.773626 232.400995 
L 387.613187 233.038533 
L 391.292308 233.16604 
L 393.131868 233.229794 
L 394.971429 233.086348 
L 396.810989 232.241611 
L 398.650549 231.827211 
L 400.49011 230.966536 
L 402.32967 229.834906 
L 404.169231 227.778848 
L 406.008791 226.599403 
L 407.848352 227.460079 
L 409.687912 228.8786 
L 411.527473 230.663705 
L 413.367033 233.405117 
L 415.206593 235.811821 
L 417.046154 236.529051 
L 418.885714 237.007204 
L 420.725275 237.230342 
L 422.564835 237.230342 
L 424.404396 237.118773 
L 426.243956 236.800004 
L 429.923077 235.859636 
L 431.762637 235.556806 
L 433.602198 235.62056 
L 435.441758 235.987144 
L 437.281319 236.576866 
L 439.120879 235.238037 
L 440.96044 234.552684 
L 444.63956 233.596378 
L 446.479121 233.357301 
L 448.318681 235.269914 
L 450.158242 236.43342 
L 451.997802 237.230342 
L 453.837363 237.45348 
L 455.676923 237.134711 
L 457.516484 236.544989 
L 461.195604 235.604621 
L 463.035165 235.301791 
L 464.874725 234.791761 
L 466.714286 234.409238 
L 468.553846 234.202039 
L 472.232967 234.202039 
L 474.072527 234.552684 
L 475.912088 234.648315 
L 477.751648 234.520807 
L 479.591209 233.867331 
L 483.27033 234.632377 
L 485.10989 235.732129 
L 486.949451 236.529051 
L 488.789011 237.45348 
L 492.468132 237.45348 
L 494.307692 236.73625 
L 496.147253 236.162467 
L 497.986813 235.014899 
L 499.826374 233.707947 
L 503.505495 231.572196 
L 505.345055 230.934659 
L 509.024176 232.082226 
L 510.863736 232.735702 
L 512.703297 233.022594 
L 514.542857 232.719764 
L 516.382418 231.572196 
L 518.221978 227.683217 
L 520.061538 229.978352 
L 521.901099 232.082226 
L 523.740659 236.003082 
L 525.58022 244.466393 
L 527.41978 247.000605 
L 529.259341 246.363068 
L 531.098901 246.490575 
L 532.938462 244.036055 
L 534.778022 239.573293 
L 536.617582 236.94345 
L 538.457143 236.560928 
L 540.296703 235.556806 
L 542.136264 236.114651 
L 543.975824 237.294096 
L 545.815385 238.186648 
L 549.494505 237.979449 
L 551.334066 236.927512 
L 555.013187 231.046228 
L 556.852747 228.814846 
L 558.692308 227.284756 
L 560.531868 231.875027 
L 562.371429 238.760432 
L 564.210989 241.454028 
L 566.050549 245.327069 
L 567.89011 251.064907 
L 569.72967 251.734321 
L 571.569231 251.463368 
L 573.408791 254.666994 
L 575.248352 256.499915 
L 577.087912 256.260838 
L 578.927473 255.161086 
L 582.606593 247.000605 
L 584.446154 241.469967 
L 586.285714 235.524929 
L 588.125275 231.396873 
L 589.964835 232.815395 
L 591.804396 237.246281 
L 593.643956 239.971754 
L 595.483516 244.147625 
L 597.323077 246.394944 
L 599.162637 248.355372 
L 601.002198 248.116296 
L 602.841758 247.685958 
L 604.681319 247.606266 
L 606.520879 246.315252 
L 608.36044 240.896183 
L 610.2 235.891513 
L 612.03956 233.851393 
L 613.879121 230.376813 
L 615.718681 229.006108 
L 617.558242 230.026168 
L 619.397802 230.679644 
L 621.237363 231.078105 
L 623.076923 229.707399 
L 624.916484 229.372692 
L 626.756044 228.830785 
L 628.595604 230.249306 
L 630.435165 234.249854 
L 632.274725 241.262767 
L 634.114286 245.837099 
L 635.953846 249.263863 
L 637.793407 251.017092 
L 639.632967 247.813465 
L 641.472527 243.031934 
L 643.312088 239.031386 
L 645.151648 234.425177 
L 646.991209 229.356753 
L 648.830769 227.221002 
L 650.67033 225.738728 
L 652.50989 225.372144 
L 654.349451 227.252879 
L 656.189011 228.639524 
L 658.028571 229.022046 
L 659.868132 228.464201 
L 661.707692 227.778848 
L 663.547253 226.965987 
L 665.386813 227.109433 
L 667.226374 228.400447 
L 669.065934 232.480687 
L 670.905495 235.771975 
L 672.745055 241.446059 
L 674.584615 247.901127 
L 676.424176 249.654355 
L 678.263736 249.032756 
L 680.103297 248.227865 
L 681.942857 243.430395 
L 683.782418 237.772249 
L 685.621978 237.230342 
L 687.461538 236.895635 
L 689.301099 235.317729 
L 692.98022 233.755762 
L 694.81978 233.102286 
L 696.659341 233.054471 
L 698.498901 232.528503 
L 700.338462 230.552136 
L 702.178022 229.037985 
L 704.017582 228.767031 
L 705.857143 227.842602 
L 707.696703 230.360875 
L 709.536264 237.118773 
L 711.375824 242.107504 
L 713.215385 243.589779 
L 715.054945 244.322947 
L 716.894505 243.749164 
L 718.734066 241.119321 
L 720.573626 239.350154 
L 722.413187 239.461724 
L 724.252747 241.262767 
L 727.931868 247.128113 
L 729.771429 249.279802 
L 731.610989 251.654629 
L 733.450549 254.284472 
L 735.29011 253.216596 
L 737.12967 252.722505 
L 738.969231 250.140478 
L 740.808791 247.144051 
L 742.648352 247.25562 
L 744.487912 254.172903 
L 746.327473 258.508158 
L 748.167033 266.015163 
L 750.006593 271.322663 
L 751.846154 269.250666 
L 753.685714 261.153939 
L 755.525275 254.81044 
L 757.364835 249.104479 
L 759.204396 244.514209 
L 761.043956 241.007752 
L 764.723077 235.030838 
L 766.562637 231.030289 
L 768.402198 227.938232 
L 770.241758 227.571648 
L 772.081319 229.006108 
L 773.920879 231.763458 
L 777.6 235.142407 
L 777.6 235.142407 
" style="fill:none;stroke:#ff7f0e;stroke-linecap:square;stroke-width:1.5;"/>
   </g>
   <g id="line2d_35">
    <path clip-path="url(#p80b44a949f)" d="M 108 136.563162 
L 111.679121 135.829994 
L 113.518681 135.25621 
L 115.358242 134.554919 
L 117.197802 133.518921 
L 119.037363 133.662367 
L 120.876923 134.252089 
L 122.716484 134.969319 
L 124.556044 135.941563 
L 126.395604 137.567284 
L 128.235165 138.252637 
L 130.074725 138.459837 
L 133.753846 139.161128 
L 135.593407 139.256759 
L 137.432967 139.161128 
L 142.951648 139.495835 
L 148.47033 140.005865 
L 152.149451 140.149311 
L 155.828571 140.213065 
L 157.668132 140.069619 
L 161.347253 139.272697 
L 163.186813 138.794544 
L 165.026374 138.196852 
L 168.705495 137.360084 
L 170.545055 136.945685 
L 172.384615 137.081162 
L 174.224176 137.519469 
L 176.063736 138.866267 
L 177.903297 140.906387 
L 181.582418 145.966841 
L 183.421978 148.405422 
L 185.261538 150.110835 
L 187.101099 151.258403 
L 188.940659 151.911879 
L 190.78022 151.561233 
L 192.61978 150.541173 
L 194.459341 148.819822 
L 198.138462 144.675828 
L 199.978022 143.01823 
L 201.817582 141.854724 
L 203.657143 141.121556 
L 207.336264 139.193005 
L 209.175824 139.113313 
L 211.015385 139.718973 
L 212.854945 141.193279 
L 214.694505 143.870937 
L 216.534066 147.138317 
L 218.373626 150.086928 
L 220.213187 152.668955 
L 222.052747 154.732983 
L 223.892308 156.29495 
L 225.731868 157.123748 
L 227.571429 156.964364 
L 229.410989 156.518088 
L 231.250549 155.721166 
L 233.09011 154.525783 
L 234.92967 153.5376 
L 244.127473 151.067142 
L 251.485714 147.991023 
L 253.325275 148.0229 
L 255.164835 148.660437 
L 257.004396 149.616744 
L 260.683516 151.959694 
L 262.523077 152.82037 
L 264.362637 153.346338 
L 266.202198 153.505723 
L 268.041758 153.489784 
L 269.881319 152.947878 
L 271.720879 152.087202 
L 275.4 149.457359 
L 279.079121 146.476871 
L 282.758242 143.990475 
L 284.597802 142.81103 
L 286.437363 142.524139 
L 288.276923 144.468628 
L 290.116484 149.25016 
L 291.956044 157.522209 
L 297.474725 188.012443 
L 299.314286 195.152864 
L 301.153846 199.312796 
L 302.993407 201.687623 
L 304.832967 203.058329 
L 308.512088 204.89125 
L 310.351648 205.815679 
L 312.191209 206.867616 
L 314.030769 208.174568 
L 319.549451 212.685146 
L 323.228571 216.080034 
L 325.068132 217.689816 
L 326.907692 219.618367 
L 328.747253 222.13664 
L 330.586813 224.957744 
L 332.426374 228.543893 
L 334.265934 233.213855 
L 336.105495 238.361971 
L 337.945055 242.537842 
L 339.784615 245.884914 
L 341.624176 248.036604 
L 343.463736 248.419126 
L 345.303297 247.430943 
L 347.142857 245.805222 
L 348.982418 243.589779 
L 350.821978 240.099261 
L 354.501099 232.464749 
L 356.340659 229.356753 
L 358.18022 227.077557 
L 360.01978 226.169066 
L 361.859341 226.344388 
L 363.698901 227.109433 
L 367.378022 229.293 
L 372.896703 233.16604 
L 374.736264 233.931085 
L 376.575824 233.532624 
L 378.415385 232.735702 
L 380.254945 231.317181 
L 382.094505 229.548015 
L 383.934066 228.049801 
L 385.773626 227.906355 
L 387.613187 228.049801 
L 391.292308 228.543893 
L 393.131868 228.527954 
L 394.971429 228.017924 
L 396.810989 226.663157 
L 398.650549 224.113007 
L 400.49011 219.857444 
L 402.32967 213.577699 
L 404.169231 204.588419 
L 406.008791 193.718404 
L 407.848352 195.519448 
L 409.687912 200.030026 
L 411.527473 207.266077 
L 413.367033 217.785447 
L 415.206593 230.998412 
L 417.046154 233.054471 
L 418.885714 234.170162 
L 420.725275 234.823638 
L 422.564835 235.030838 
L 424.404396 234.967084 
L 428.083516 234.441115 
L 431.762637 233.88327 
L 435.441758 233.835455 
L 437.281319 234.042654 
L 439.120879 232.815395 
L 440.96044 232.177857 
L 442.8 231.986596 
L 446.479121 231.875027 
L 448.318681 233.532624 
L 450.158242 234.680192 
L 451.997802 235.397422 
L 453.837363 235.795883 
L 455.676923 235.955267 
L 459.356044 235.461175 
L 463.035165 234.712069 
L 466.714286 233.421055 
L 468.553846 232.942902 
L 472.232967 232.544441 
L 477.751648 233.07041 
L 479.591209 232.783518 
L 481.430769 232.990717 
L 483.27033 233.357301 
L 488.789011 235.843698 
L 490.628571 236.258097 
L 492.468132 236.513112 
L 494.307692 236.22622 
L 496.147253 235.811821 
L 497.986813 234.887392 
L 499.826374 233.213855 
L 501.665934 230.950597 
L 503.505495 228.448262 
L 507.184615 222.535101 
L 509.024176 217.705754 
L 510.863736 211.920101 
L 512.703297 204.827496 
L 516.382418 188.809365 
L 518.221978 182.928081 
L 520.061538 197.081415 
L 521.901099 208.349891 
L 523.740659 221.53098 
L 525.58022 236.066836 
L 527.41978 241.246829 
L 529.259341 243.972302 
L 531.098901 245.566146 
L 532.938462 245.566146 
L 534.778022 244.243255 
L 536.617582 242.66535 
L 538.457143 241.597474 
L 540.296703 240.912121 
L 542.136264 239.382031 
L 545.815385 235.269914 
L 547.654945 232.926964 
L 549.494505 229.89866 
L 551.334066 225.993743 
L 555.013187 216.82914 
L 556.852747 212.637331 
L 558.692308 211.123179 
L 560.531868 216.080034 
L 562.371429 224.240514 
L 566.050549 239.4936 
L 567.89011 245.884914 
L 569.72967 248.658203 
L 571.569231 249.885462 
L 573.408791 251.861829 
L 575.248352 253.344104 
L 577.087912 254.045395 
L 578.927473 253.854134 
L 580.767033 251.861829 
L 582.606593 248.195988 
L 584.446154 240.896183 
L 586.285714 233.102286 
L 588.125275 227.986048 
L 589.964835 227.236941 
L 591.804396 230.488382 
L 593.643956 236.417482 
L 595.483516 242.776919 
L 597.323077 246.649959 
L 599.162637 248.514757 
L 601.002198 248.371311 
L 604.681319 249.311679 
L 606.520879 249.423248 
L 608.36044 246.729652 
L 610.2 239.908 
L 612.03956 231.412812 
L 615.718681 216.414741 
L 617.558242 210.788472 
L 619.397802 210.230627 
L 621.237363 211.665086 
L 624.916484 212.095424 
L 626.756044 213.035792 
L 628.595604 215.952526 
L 630.435165 221.913502 
L 635.953846 247.55845 
L 637.793407 251.75026 
L 639.632967 251.128661 
L 641.472527 245.135808 
L 643.312088 238.298217 
L 646.991209 221.467226 
L 648.830769 214.677451 
L 650.67033 211.027549 
L 652.50989 209.800289 
L 654.349451 209.895919 
L 656.189011 210.963795 
L 658.028571 211.362256 
L 659.868132 211.059425 
L 661.707692 208.987428 
L 663.547253 208.588967 
L 665.386813 208.907736 
L 667.226374 210.613149 
L 669.065934 217.482616 
L 670.905495 225.053375 
L 674.584615 241.661228 
L 676.424176 249.20011 
L 678.263736 252.196536 
L 680.103297 254.30041 
L 681.942857 253.551303 
L 683.782418 252.116844 
L 685.621978 251.272107 
L 687.461538 249.901401 
L 689.301099 245.374884 
L 694.81978 229.452384 
L 696.659341 225.260575 
L 698.498901 223.443592 
L 702.178022 217.976708 
L 704.017582 215.697511 
L 705.857143 214.99622 
L 707.696703 218.693938 
L 709.536264 227.316633 
L 711.375824 236.84782 
L 713.215385 245.167685 
L 715.054945 251.495245 
L 716.894505 253.774442 
L 718.734066 253.375981 
L 720.573626 252.46749 
L 722.413187 251.256168 
L 724.252747 247.032482 
L 726.092308 242.346581 
L 727.931868 236.800004 
L 729.771429 230.121798 
L 731.610989 224.495529 
L 733.450549 223.013255 
L 735.29011 223.188577 
L 737.12967 225.754666 
L 738.969231 230.344936 
L 740.808791 233.787639 
L 742.648352 240.131138 
L 750.006593 273.299029 
L 751.846154 277.379269 
L 753.685714 274.574104 
L 757.364835 266.381747 
L 759.204396 261.408954 
L 764.723077 236.194344 
L 768.402198 216.398803 
L 770.241758 212.462008 
L 772.081319 214.294929 
L 773.920879 218.486738 
L 777.6 227.874478 
L 777.6 227.874478 
" style="fill:none;stroke:#2ca02c;stroke-linecap:square;stroke-width:1.5;"/>
   </g>
   <g id="line2d_36">
    <path clip-path="url(#p80b44a949f)" d="M 108 117.787681 
L 111.679121 119.548879 
L 113.518681 120.14657 
L 117.197802 120.529093 
L 120.876923 120.696447 
L 122.716484 120.911615 
L 126.395604 121.68463 
L 128.235165 122.282321 
L 130.074725 122.656875 
L 131.914286 122.90392 
L 133.753846 123.023459 
L 135.593407 122.569213 
L 137.432967 120.8638 
L 139.272527 118.457096 
L 141.112088 115.04627 
L 146.630769 101.634074 
L 148.47033 97.426326 
L 150.30989 93.656885 
L 152.149451 90.732182 
L 153.989011 88.476892 
L 155.828571 86.851172 
L 157.668132 86.110034 
L 159.507692 86.500526 
L 161.347253 87.67997 
L 163.186813 89.31366 
L 165.026374 91.202365 
L 168.705495 96.222974 
L 170.545055 98.581863 
L 172.384615 102.112227 
L 174.224176 106.319975 
L 176.063736 110.822584 
L 181.582418 125.063579 
L 183.421978 129.13585 
L 185.261538 132.61043 
L 187.101099 135.574979 
L 188.940659 137.949807 
L 190.78022 139.24082 
L 194.459341 140.850602 
L 198.138462 142.986353 
L 199.978022 144.357059 
L 201.817582 145.010535 
L 203.657143 143.83109 
L 205.496703 141.631586 
L 209.175824 136.945685 
L 211.015385 135.511225 
L 212.854945 135.734364 
L 214.694505 136.674731 
L 220.213187 140.05368 
L 222.052747 140.882479 
L 223.892308 141.504078 
L 225.731868 141.759093 
L 227.571429 141.615647 
L 229.410989 141.217187 
L 233.09011 140.181188 
L 234.92967 139.782727 
L 240.448352 139.081436 
L 244.127473 138.762667 
L 245.967033 138.268575 
L 247.806593 137.312269 
L 249.646154 135.415595 
L 251.485714 132.977014 
L 255.164835 127.478252 
L 257.004396 125.167179 
L 260.683516 122.330137 
L 264.362637 120.401585 
L 266.202198 119.493094 
L 268.041758 118.345527 
L 269.881319 117.373282 
L 271.720879 116.257591 
L 273.56044 115.365039 
L 275.4 114.663747 
L 277.23956 114.53624 
L 279.079121 114.83907 
L 280.918681 115.795377 
L 282.758242 117.277651 
L 286.437363 121.262261 
L 288.276923 125.127333 
L 290.116484 130.944863 
L 291.956044 138.802513 
L 293.795604 148.1265 
L 295.635165 158.709623 
L 297.474725 168.23284 
L 299.314286 176.058614 
L 301.153846 181.621129 
L 302.993407 185.414477 
L 304.832967 187.486474 
L 306.672527 188.602165 
L 312.191209 189.813487 
L 314.030769 190.578532 
L 315.87033 192.076745 
L 317.70989 193.845912 
L 319.549451 195.870093 
L 321.389011 198.228982 
L 328.747253 209.051182 
L 332.426374 215.442496 
L 334.265934 219.219906 
L 337.945055 227.157249 
L 339.784615 230.679644 
L 341.624176 233.67607 
L 343.463736 235.508991 
L 345.303297 236.258097 
L 347.142857 236.321851 
L 348.982418 235.732129 
L 354.501099 232.161919 
L 358.18022 229.340815 
L 360.01978 228.145432 
L 361.859341 227.252879 
L 363.698901 226.599403 
L 365.538462 226.663157 
L 367.378022 226.950049 
L 369.217582 227.507894 
L 372.896703 228.942354 
L 374.736264 229.372692 
L 376.575824 229.500199 
L 378.415385 229.38863 
L 380.254945 228.926415 
L 385.773626 226.392204 
L 387.613187 225.977804 
L 389.452747 225.690912 
L 391.292308 225.690912 
L 394.971429 225.834358 
L 396.810989 225.483713 
L 398.650549 224.973683 
L 404.169231 222.694486 
L 406.008791 222.200394 
L 407.848352 222.264148 
L 409.687912 223.300147 
L 411.527473 224.814298 
L 413.367033 226.567526 
L 417.046154 230.281183 
L 418.885714 231.492504 
L 420.725275 232.35318 
L 422.564835 233.006656 
L 424.404396 233.436994 
L 426.243956 233.516686 
L 428.083516 233.293548 
L 433.602198 232.241611 
L 435.441758 232.098165 
L 437.281319 232.241611 
L 440.96044 231.683765 
L 446.479121 230.711521 
L 448.318681 230.854967 
L 453.837363 231.763458 
L 457.516484 231.667827 
L 461.195604 231.349058 
L 472.232967 230.392752 
L 477.751648 230.344936 
L 479.591209 230.185552 
L 481.430769 229.850845 
L 483.27033 229.0858 
L 485.10989 227.762909 
L 486.949451 225.961866 
L 490.628571 221.961318 
L 492.468132 220.319658 
L 496.147253 217.418863 
L 497.986813 215.219358 
L 499.826374 212.605454 
L 505.345055 203.504605 
L 507.184615 200.508179 
L 509.024176 196.842338 
L 510.863736 192.570836 
L 516.382418 175.899229 
L 518.221978 172.074004 
L 520.061538 178.688456 
L 521.901099 186.020138 
L 523.740659 195.312248 
L 525.58022 205.624418 
L 527.41978 212.159178 
L 529.259341 216.988525 
L 531.098901 220.781873 
L 532.938462 222.917624 
L 534.778022 223.682669 
L 536.617582 223.889869 
L 538.457143 223.953623 
L 542.136264 223.698607 
L 543.975824 223.379839 
L 547.654945 222.375717 
L 553.173626 220.431228 
L 556.852747 219.443044 
L 558.692308 219.188029 
L 560.531868 219.331475 
L 562.371429 219.761813 
L 564.210989 220.638427 
L 566.050549 221.897564 
L 573.408791 228.527954 
L 577.087912 231.094043 
L 578.927473 232.098165 
L 580.767033 232.767579 
L 582.606593 233.213855 
L 584.446154 233.134163 
L 586.285714 232.640072 
L 591.804396 230.663705 
L 595.483516 230.10586 
L 599.162637 229.739276 
L 601.002198 229.404569 
L 602.841758 228.8786 
L 604.681319 228.06574 
L 606.520879 226.965987 
L 608.36044 225.40402 
L 612.03956 221.658487 
L 613.879121 219.729936 
L 615.718681 217.976708 
L 617.558242 216.797263 
L 619.397802 216.048157 
L 621.237363 215.888772 
L 623.076923 216.398803 
L 626.756044 218.375169 
L 628.595604 219.921197 
L 630.435165 221.785995 
L 632.274725 224.113007 
L 635.953846 229.372692 
L 637.793407 231.540319 
L 639.632967 232.974779 
L 641.472527 233.421055 
L 643.312088 233.07041 
L 645.151648 232.002534 
L 646.991209 230.201491 
L 650.67033 226.216881 
L 652.50989 224.559283 
L 654.349451 223.379839 
L 658.028571 221.403472 
L 659.868132 220.51092 
L 663.547253 218.35923 
L 665.386813 217.833262 
L 667.226374 217.54637 
L 669.065934 217.833262 
L 670.905495 218.598307 
L 672.745055 219.937136 
L 674.584615 221.785995 
L 676.424176 223.826115 
L 678.263736 225.627159 
L 680.103297 227.157249 
L 681.942857 228.049801 
L 683.782418 228.496078 
L 687.461538 229.053923 
L 689.301099 229.022046 
L 691.140659 228.400447 
L 692.98022 227.491956 
L 698.498901 223.905807 
L 700.338462 222.949501 
L 702.178022 222.184456 
L 704.017582 221.722241 
L 705.857143 221.132519 
L 707.696703 220.861565 
L 709.536264 220.781873 
L 711.375824 220.558735 
L 713.215385 220.112459 
L 715.054945 219.522737 
L 718.734066 218.024523 
L 720.573626 217.291355 
L 722.413187 216.382864 
L 726.092308 215.059974 
L 727.931868 214.645574 
L 729.771429 214.677451 
L 731.610989 215.410619 
L 733.450549 216.892894 
L 735.29011 219.07646 
L 737.12967 221.62661 
L 740.808791 227.061618 
L 742.648352 230.281183 
L 746.327473 237.692557 
L 748.167033 241.485905 
L 750.006593 245.0083 
L 751.846154 247.175928 
L 753.685714 247.97285 
L 755.525275 248.06848 
L 759.204396 247.399066 
L 761.043956 246.904974 
L 762.883516 246.139929 
L 764.723077 245.0083 
L 766.562637 243.510087 
L 768.402198 241.852489 
L 770.241758 240.354276 
L 772.081319 239.413908 
L 773.920879 238.88794 
L 775.76044 238.616986 
L 777.6 238.521356 
L 777.6 238.521356 
" style="fill:none;stroke:#d62728;stroke-linecap:square;stroke-width:1.5;"/>
   </g>
   <g id="line2d_37">
    <path clip-path="url(#p80b44a949f)" d="M 108 66.96 
L 124.556044 67.135323 
L 130.074725 67.246892 
L 159.507692 67.342523 
L 163.186813 67.908337 
L 166.865934 68.705259 
L 168.705495 69.645627 
L 170.545055 70.825071 
L 172.384615 72.387038 
L 174.224176 74.227928 
L 176.063736 76.379617 
L 177.903297 78.276292 
L 179.742857 79.902012 
L 181.582418 81.224903 
L 183.421978 82.260901 
L 185.261538 82.962193 
L 187.101099 83.344715 
L 188.940659 83.583792 
L 190.78022 83.663484 
L 192.61978 84.269145 
L 194.459341 85.671727 
L 198.138462 89.512891 
L 199.978022 91.792088 
L 201.817582 93.7047 
L 203.657143 94.740699 
L 207.336264 95.712944 
L 212.854945 96.66925 
L 216.534066 97.784941 
L 218.373626 98.263094 
L 220.213187 98.549986 
L 222.052747 98.693432 
L 225.731868 98.518109 
L 229.410989 97.928387 
L 233.09011 97.290849 
L 236.769231 96.87645 
L 244.127473 96.509866 
L 247.806593 96.047651 
L 253.325275 95.282606 
L 258.843956 94.93196 
L 269.881319 94.533499 
L 275.4 94.549438 
L 279.079121 95.075406 
L 280.918681 95.553559 
L 282.758242 96.318604 
L 284.597802 97.38648 
L 286.437363 98.773124 
L 288.276923 101.275459 
L 290.116484 104.797854 
L 291.956044 109.101232 
L 295.635165 118.361465 
L 297.474725 122.027306 
L 299.314286 124.784656 
L 301.153846 126.5857 
L 302.993407 127.828898 
L 304.832967 128.578005 
L 306.672527 128.976466 
L 312.191209 129.327111 
L 314.030769 129.94871 
L 315.87033 131.096278 
L 317.70989 132.977014 
L 319.549451 135.367779 
L 321.389011 138.109191 
L 325.068132 144.022352 
L 326.907692 146.715948 
L 328.747253 149.680498 
L 330.586813 153.346338 
L 332.426374 157.522209 
L 334.265934 162.574695 
L 337.945055 174.337262 
L 339.784615 179.230363 
L 341.624176 183.055588 
L 343.463736 185.127586 
L 345.303297 185.5898 
L 347.142857 184.426294 
L 348.982418 182.513682 
L 352.661538 176.903351 
L 354.501099 173.620033 
L 356.340659 170.703298 
L 358.18022 168.360348 
L 360.01978 166.670873 
L 361.859341 165.58706 
L 363.698901 165.300168 
L 369.217582 165.68269 
L 372.896703 166.049274 
L 376.575824 166.19272 
L 380.254945 166.208659 
L 382.094505 166.001459 
L 387.613187 165.053122 
L 389.452747 164.845922 
L 391.292308 164.845922 
L 394.971429 165.092968 
L 398.650549 164.885768 
L 404.169231 164.3598 
L 406.008791 164.343861 
L 407.848352 164.519184 
L 413.367033 165.507367 
L 415.206593 165.762382 
L 417.046154 165.873951 
L 424.404396 165.810198 
L 426.243956 165.634875 
L 428.083516 165.204537 
L 429.923077 164.582938 
L 433.602198 163.13254 
L 435.441758 162.590633 
L 437.281319 162.303741 
L 439.120879 162.20811 
L 446.479121 162.239987 
L 453.837363 162.144357 
L 457.516484 161.969034 
L 463.035165 161.984972 
L 470.393407 163.005032 
L 472.232967 163.419432 
L 475.912088 163.929462 
L 479.591209 164.072908 
L 485.10989 164.072908 
L 497.986813 164.487307 
L 499.826374 164.582938 
L 509.024176 164.566999 
L 514.542857 164.758261 
L 518.221978 164.678568 
L 521.901099 165.363921 
L 523.740659 166.240535 
L 525.58022 167.62718 
L 527.41978 169.380408 
L 529.259341 171.452405 
L 531.098901 173.795356 
L 532.938462 175.851414 
L 534.778022 177.556827 
L 536.617582 178.943471 
L 538.457143 180.106977 
L 540.296703 180.872022 
L 542.136264 181.461745 
L 543.975824 181.844267 
L 545.815385 182.067405 
L 549.494505 182.258667 
L 551.334066 182.402112 
L 553.173626 182.689004 
L 555.013187 183.151219 
L 558.692308 184.761001 
L 564.210989 188.363089 
L 566.050549 189.638164 
L 569.72967 192.730221 
L 571.569231 194.435634 
L 573.408791 196.300431 
L 575.248352 197.878337 
L 577.087912 199.105596 
L 578.927473 199.998149 
L 580.767033 200.508179 
L 582.606593 200.858825 
L 586.285714 201.20947 
L 595.483516 201.528239 
L 599.162637 201.655747 
L 601.002198 201.62387 
L 604.681319 201.241347 
L 610.2 200.285041 
L 617.558242 199.073719 
L 619.397802 199.009966 
L 621.237363 199.105596 
L 623.076923 199.328735 
L 624.916484 199.790949 
L 630.435165 201.671685 
L 632.274725 202.149838 
L 634.114286 202.388915 
L 637.793407 202.452669 
L 641.472527 202.022331 
L 645.151648 201.305101 
L 646.991209 200.826948 
L 650.67033 199.647503 
L 656.189011 198.276798 
L 659.868132 197.63926 
L 663.547253 196.443877 
L 665.386813 195.790401 
L 667.226374 194.977541 
L 669.065934 194.340003 
L 670.905495 193.909665 
L 672.745055 193.718404 
L 674.584615 193.65465 
L 680.103297 193.973419 
L 683.782418 193.957481 
L 687.461538 193.686527 
L 689.301099 193.447451 
L 691.140659 193.064928 
L 696.659341 191.455146 
L 700.338462 190.451024 
L 704.017582 189.87724 
L 707.696703 189.654102 
L 713.215385 189.446902 
L 724.252747 188.490596 
L 726.092308 188.203704 
L 727.931868 188.187766 
L 729.771429 188.394965 
L 731.610989 188.952811 
L 733.450549 189.87724 
L 735.29011 191.359515 
L 738.969231 194.67471 
L 740.808791 196.061355 
L 742.648352 197.192984 
L 744.487912 197.862398 
L 751.846154 198.802766 
L 757.364835 199.153412 
L 764.723077 198.627443 
L 768.402198 198.260859 
L 772.081319 198.133352 
L 777.6 198.340551 
L 777.6 198.340551 
" style="fill:none;stroke:#9467bd;stroke-linecap:square;stroke-width:1.5;"/>
   </g>
   <g id="patch_3">
    <path d="M 108 384.48 
L 108 51.84 
" style="fill:none;stroke:#000000;stroke-linecap:square;stroke-linejoin:miter;stroke-width:0.8;"/>
   </g>
   <g id="patch_4">
    <path d="M 777.6 384.48 
L 777.6 51.84 
" style="fill:none;stroke:#000000;stroke-linecap:square;stroke-linejoin:miter;stroke-width:0.8;"/>
   </g>
   <g id="patch_5">
    <path d="M 108 384.48 
L 777.6 384.48 
" style="fill:none;stroke:#000000;stroke-linecap:square;stroke-linejoin:miter;stroke-width:0.8;"/>
   </g>
   <g id="patch_6">
    <path d="M 108 51.84 
L 777.6 51.84 
" style="fill:none;stroke:#000000;stroke-linecap:square;stroke-linejoin:miter;stroke-width:0.8;"/>
   </g>
   <g id="legend_1">
    <g id="patch_7">
     <path d="M 678.409375 137.238438 
L 770.6 137.238438 
Q 772.6 137.238438 772.6 135.238438 
L 772.6 58.84 
Q 772.6 56.84 770.6 56.84 
L 678.409375 56.84 
Q 676.409375 56.84 676.409375 58.84 
L 676.409375 135.238438 
Q 676.409375 137.238438 678.409375 137.238438 
z
" style="fill:#ffffff;opacity:0.8;stroke:#cccccc;stroke-linejoin:miter;"/>
    </g>
    <g id="line2d_38">
     <path d="M 680.409375 65.33375 
L 700.409375 65.33375 
" style="fill:none;stroke:#1f77b4;stroke-linecap:square;stroke-width:1.5;"/>
    </g>
    <g id="line2d_39"/>
    <g id="text_18">
     <!-- 隔夜-5日均值 -->
     <defs>
      <path d="M 32.90625 28.5625 
Q 35.25 10.296875 24.21875 7.953125 
Q 20.40625 7.28125 15.328125 7.859375 
Q 14.546875 11.671875 13.28125 15.28125 
L 13.28125 -13.03125 
L 6.25 -13.03125 
L 6.25 78.65625 
L 32.8125 78.65625 
L 32.8125 72.125 
Q 28.03125 55.71875 24.90625 46.234375 
Q 31.9375 36.578125 32.90625 28.5625 
z
M 44.53125 -13.234375 
L 37.703125 -13.234375 
L 37.703125 37.453125 
L 94.34375 37.453125 
L 94.34375 -3.65625 
Q 94.34375 -12.84375 85.25 -12.84375 
Q 80.953125 -12.84375 74.609375 -12.75 
Q 74.125 -10.5 73.140625 -5.421875 
Q 79 -5.8125 83.5 -5.8125 
Q 87.5 -5.8125 87.5 -1.703125 
L 87.5 31.390625 
L 44.53125 31.390625 
z
M 43.359375 65.765625 
L 88.484375 65.765625 
L 88.484375 41.75 
L 81.453125 41.75 
L 81.453125 44.28125 
L 50.390625 44.28125 
L 50.390625 41.75 
L 43.359375 41.75 
z
M 21.484375 14.890625 
Q 27.734375 15.578125 25.6875 28.265625 
Q 24.421875 36.46875 17.671875 44.96875 
Q 21.875 57.46875 25.78125 72.125 
L 13.28125 72.125 
L 13.28125 15.671875 
Q 17.671875 14.5 21.484375 14.890625 
z
M 47.859375 15.28125 
L 67.578125 15.28125 
Q 72.515625 24.21875 75.296875 30.515625 
L 81.734375 27 
Q 78.078125 20.90625 74.46875 15.28125 
L 84.1875 15.28125 
L 84.1875 9.421875 
L 69.234375 9.421875 
L 69.234375 -11.671875 
L 62.59375 -11.671875 
L 62.59375 9.421875 
L 47.859375 9.421875 
z
M 37.109375 78.765625 
L 96.296875 78.765625 
L 96.296875 72.40625 
L 37.109375 72.40625 
z
M 81.453125 59.90625 
L 50.390625 59.90625 
L 50.390625 50.140625 
L 81.453125 50.140625 
z
M 50.390625 27.296875 
L 55.765625 30.421875 
Q 59.96875 24.859375 62.890625 19.390625 
L 57.03125 15.96875 
Q 54.296875 21.234375 50.390625 27.296875 
z
" id="MicrosoftYaHei-9694"/>
      <path d="M 27.828125 23.578125 
Q 42.578125 39.40625 51.265625 60.890625 
L 58.6875 58.34375 
Q 56.9375 54.34375 55.03125 50.53125 
L 89.15625 50.53125 
L 89.15625 43.5 
Q 82.125 21.625 69.1875 8.15625 
Q 81.453125 -0.390625 98.640625 -4.734375 
Q 95.703125 -9.03125 93.5625 -12.9375 
Q 75.390625 -7.078125 62.984375 2.484375 
Q 51.3125 -6.84375 34.375 -13.53125 
Q 32.515625 -10.5 29.5 -6.6875 
Q 45.515625 -0.484375 56.78125 7.953125 
Q 48.578125 16.359375 42.28125 29.15625 
Q 38.28125 23.53125 33.796875 18.40625 
Q 30.5625 21.4375 27.828125 23.578125 
z
M 2.9375 69.09375 
L 50.734375 69.09375 
Q 47.703125 74.265625 43.65625 79.734375 
L 49.8125 83.734375 
Q 53.8125 78.65625 58.015625 72.015625 
L 53.421875 69.09375 
L 97.5625 69.09375 
L 97.5625 61.859375 
L 2.9375 61.859375 
z
M 1.5625 23 
Q 18.265625 40.484375 26.46875 60.984375 
L 33.984375 58.453125 
Q 28.90625 47.859375 23.640625 39.203125 
L 23.640625 -13.03125 
L 16.21875 -13.03125 
L 16.21875 28.078125 
Q 10.5 20.359375 4.59375 14.796875 
Q 3.21875 18.703125 1.5625 23 
z
M 81.15625 43.5 
L 51.3125 43.5 
Q 49.171875 39.546875 46.78125 35.84375 
Q 53.421875 22.078125 62.9375 13.234375 
Q 75 24.953125 81.15625 43.5 
z
M 54.203125 35.296875 
L 58.890625 39.890625 
Q 64.546875 35.109375 69.734375 29.640625 
L 64.453125 24.5625 
Q 60.453125 29.34375 54.203125 35.296875 
z
" id="MicrosoftYaHei-591c"/>
      <path d="M 35.0625 43.796875 
Q 45.796875 61.765625 52.15625 83.15625 
L 59.96875 80.8125 
Q 57.671875 74.125 55.171875 67.921875 
L 93.953125 67.921875 
Q 92.578125 16.453125 91.796875 4.640625 
Q 91.109375 -10.890625 75.09375 -10.890625 
Q 65.4375 -10.890625 57.90625 -10.5 
Q 57.328125 -6.59375 56.34375 -2.203125 
L 56.640625 -2.203125 
Q 66.40625 -3.265625 74.609375 -3.265625 
Q 83.59375 -3.265625 84.28125 5.90625 
Q 85.25 22.609375 86.140625 60.796875 
L 52.203125 60.796875 
Q 47.3125 49.5625 41.796875 40.1875 
Q 38.765625 42.046875 35.0625 43.796875 
z
M 1.265625 6.6875 
Q 8.734375 9.375 15.71875 12.015625 
L 15.71875 50.828125 
L 2.640625 50.828125 
L 2.640625 57.765625 
L 15.71875 57.765625 
L 15.71875 82.171875 
L 22.953125 82.171875 
L 22.953125 57.765625 
L 35.640625 57.765625 
L 35.640625 50.828125 
L 22.953125 50.828125 
L 22.953125 14.796875 
Q 30.03125 17.578125 36.53125 20.359375 
Q 36.71875 15.484375 37.015625 12.25 
Q 21.296875 6.296875 3.90625 -0.828125 
z
M 39.265625 13.328125 
Q 58.890625 21.140625 79.984375 30.21875 
Q 80.46875 25.640625 81.0625 22.40625 
Q 62.984375 14.796875 42.28125 5.609375 
z
M 49.03125 45.453125 
L 54.390625 50.25 
Q 62.890625 42.4375 70.796875 34.625 
L 64.453125 29.046875 
Q 56.9375 37.640625 49.03125 45.453125 
z
" id="MicrosoftYaHei-5747"/>
      <path d="M 25.296875 -3.375 
L 35.15625 -3.375 
L 35.15625 57.078125 
L 58.203125 57.078125 
L 58.203125 65.96875 
L 29.890625 65.96875 
L 29.890625 72.609375 
L 58.203125 72.609375 
L 58.203125 82.953125 
L 65.625 82.953125 
L 65.625 72.609375 
L 96.390625 72.609375 
L 96.390625 65.96875 
L 65.625 65.96875 
L 65.625 57.078125 
L 89.265625 57.078125 
L 89.265625 -3.375 
L 98.53125 -3.375 
L 98.53125 -10.015625 
L 25.296875 -10.015625 
z
M 1.078125 35.109375 
Q 14.15625 54.640625 21.390625 82.46875 
L 28.609375 80.328125 
Q 24.703125 67.71875 20.125 56.6875 
L 20.125 -12.75 
L 12.984375 -12.75 
L 12.984375 41.65625 
Q 8.796875 33.84375 4.109375 27.09375 
Q 2.734375 31.203125 1.078125 35.109375 
z
M 42.390625 -3.375 
L 82.03125 -3.375 
L 82.03125 5.515625 
L 42.390625 5.515625 
z
M 82.03125 50.640625 
L 42.390625 50.640625 
L 42.390625 41.84375 
L 82.03125 41.84375 
z
M 42.390625 26.8125 
L 82.03125 26.8125 
L 82.03125 35.59375 
L 42.390625 35.59375 
z
M 42.390625 11.765625 
L 82.03125 11.765625 
L 82.03125 20.5625 
L 42.390625 20.5625 
z
" id="MicrosoftYaHei-503c"/>
     </defs>
     <g transform="translate(708.409375 68.83375)scale(0.1 -0.1)">
      <use xlink:href="#MicrosoftYaHei-9694"/>
      <use x="100" xlink:href="#MicrosoftYaHei-591c"/>
      <use x="200" xlink:href="#MicrosoftYaHei-2d"/>
      <use x="243.261719" xlink:href="#MicrosoftYaHei-35"/>
      <use x="301.904297" xlink:href="#MicrosoftYaHei-65e5"/>
      <use x="401.904297" xlink:href="#MicrosoftYaHei-5747"/>
      <use x="501.904297" xlink:href="#MicrosoftYaHei-503c"/>
     </g>
    </g>
    <g id="line2d_40">
     <path d="M 680.409375 80.813438 
L 700.409375 80.813438 
" style="fill:none;stroke:#ff7f0e;stroke-linecap:square;stroke-width:1.5;"/>
    </g>
    <g id="line2d_41"/>
    <g id="text_19">
     <!-- 1W-5日均值 -->
     <defs>
      <path d="M 100.484375 75.640625 
L 79.296875 0 
L 67.921875 0 
L 52.6875 54.5 
Q 51.65625 58.203125 51.46875 62.3125 
L 51.265625 62.3125 
Q 50.984375 58.25 49.90625 54.59375 
L 34.515625 0 
L 23.25 0 
L 1.3125 75.640625 
L 12.109375 75.640625 
L 27.546875 18.5 
Q 28.5625 14.65625 28.765625 10.75 
L 29.046875 10.75 
Q 29.296875 13.671875 30.671875 18.5 
L 47.015625 75.640625 
L 56.640625 75.640625 
L 72.265625 18.0625 
Q 73.046875 15.234375 73.53125 10.84375 
L 73.734375 10.84375 
Q 73.96875 14.015625 75.140625 18.265625 
L 89.984375 75.640625 
z
" id="MicrosoftYaHei-57"/>
     </defs>
     <g transform="translate(708.409375 84.313438)scale(0.1 -0.1)">
      <use xlink:href="#MicrosoftYaHei-31"/>
      <use x="58.642578" xlink:href="#MicrosoftYaHei-57"/>
      <use x="160.400391" xlink:href="#MicrosoftYaHei-2d"/>
      <use x="203.662109" xlink:href="#MicrosoftYaHei-35"/>
      <use x="262.304688" xlink:href="#MicrosoftYaHei-65e5"/>
      <use x="362.304688" xlink:href="#MicrosoftYaHei-5747"/>
      <use x="462.304688" xlink:href="#MicrosoftYaHei-503c"/>
     </g>
    </g>
    <g id="line2d_42">
     <path d="M 680.409375 96.293125 
L 700.409375 96.293125 
" style="fill:none;stroke:#2ca02c;stroke-linecap:square;stroke-width:1.5;"/>
    </g>
    <g id="line2d_43"/>
    <g id="text_20">
     <!-- 2W-5日均值 -->
     <g transform="translate(708.409375 99.793125)scale(0.1 -0.1)">
      <use xlink:href="#MicrosoftYaHei-32"/>
      <use x="58.642578" xlink:href="#MicrosoftYaHei-57"/>
      <use x="160.400391" xlink:href="#MicrosoftYaHei-2d"/>
      <use x="203.662109" xlink:href="#MicrosoftYaHei-35"/>
      <use x="262.304688" xlink:href="#MicrosoftYaHei-65e5"/>
      <use x="362.304688" xlink:href="#MicrosoftYaHei-5747"/>
      <use x="462.304688" xlink:href="#MicrosoftYaHei-503c"/>
     </g>
    </g>
    <g id="line2d_44">
     <path d="M 680.409375 111.772812 
L 700.409375 111.772812 
" style="fill:none;stroke:#d62728;stroke-linecap:square;stroke-width:1.5;"/>
    </g>
    <g id="line2d_45"/>
    <g id="text_21">
     <!-- 1M-5日均值 -->
     <defs>
      <path d="M 78.171875 0 
L 78.171875 50.09375 
Q 78.171875 56.296875 78.90625 64.984375 
L 78.65625 64.984375 
Q 77.390625 59.515625 76.421875 57.375 
L 51.46875 0 
L 46.046875 0 
L 21.140625 56.9375 
Q 20.265625 58.890625 18.890625 64.984375 
L 18.609375 64.984375 
Q 19.09375 59.71875 19.09375 49.65625 
L 19.09375 0 
L 9.765625 0 
L 9.765625 75.640625 
L 23 75.640625 
L 45.3125 23.78125 
Q 47.859375 17.828125 48.6875 14.5 
L 49.03125 14.5 
Q 51.5625 21.484375 52.59375 23.96875 
L 75.296875 75.640625 
L 87.890625 75.640625 
L 87.890625 0 
z
" id="MicrosoftYaHei-4d"/>
     </defs>
     <g transform="translate(708.409375 115.272812)scale(0.1 -0.1)">
      <use xlink:href="#MicrosoftYaHei-31"/>
      <use x="58.642578" xlink:href="#MicrosoftYaHei-4d"/>
      <use x="156.347656" xlink:href="#MicrosoftYaHei-2d"/>
      <use x="199.609375" xlink:href="#MicrosoftYaHei-35"/>
      <use x="258.251953" xlink:href="#MicrosoftYaHei-65e5"/>
      <use x="358.251953" xlink:href="#MicrosoftYaHei-5747"/>
      <use x="458.251953" xlink:href="#MicrosoftYaHei-503c"/>
     </g>
    </g>
    <g id="line2d_46">
     <path d="M 680.409375 127.2525 
L 700.409375 127.2525 
" style="fill:none;stroke:#9467bd;stroke-linecap:square;stroke-width:1.5;"/>
    </g>
    <g id="line2d_47"/>
    <g id="text_22">
     <!-- 1Y-5日均值 -->
     <defs>
      <path d="M 59.8125 75.640625 
L 34.90625 27.828125 
L 34.90625 0 
L 25.09375 0 
L 25.09375 27.59375 
L 0.828125 75.640625 
L 12.015625 75.640625 
L 28.375 42.140625 
Q 28.421875 42.09375 30.171875 37.3125 
L 30.328125 37.3125 
Q 30.90625 39.359375 32.328125 42.09375 
L 49.421875 75.640625 
z
" id="MicrosoftYaHei-59"/>
     </defs>
     <g transform="translate(708.409375 130.7525)scale(0.1 -0.1)">
      <use xlink:href="#MicrosoftYaHei-31"/>
      <use x="58.642578" xlink:href="#MicrosoftYaHei-59"/>
      <use x="118.994141" xlink:href="#MicrosoftYaHei-2d"/>
      <use x="162.255859" xlink:href="#MicrosoftYaHei-35"/>
      <use x="220.898438" xlink:href="#MicrosoftYaHei-65e5"/>
      <use x="320.898438" xlink:href="#MicrosoftYaHei-5747"/>
      <use x="420.898438" xlink:href="#MicrosoftYaHei-503c"/>
     </g>
    </g>
   </g>
  </g>
 </g>
 <defs>
  <clipPath id="p80b44a949f">
   <rect height="332.64" width="669.6" x="108" y="51.84"/>
  </clipPath>
 </defs>
</svg>
