<?xml version="1.0" encoding="utf-8" standalone="no"?>
<!DOCTYPE svg PUBLIC "-//W3C//DTD SVG 1.1//EN"
  "http://www.w3.org/Graphics/SVG/1.1/DTD/svg11.dtd">
<!-- Created with matplotlib (http://matplotlib.org/) -->
<svg height="432pt" version="1.1" viewBox="0 0 864 432" width="864pt" xmlns="http://www.w3.org/2000/svg" xmlns:xlink="http://www.w3.org/1999/xlink">
 <defs>
  <style type="text/css">
*{stroke-linecap:butt;stroke-linejoin:round;}
  </style>
 </defs>
 <g id="figure_1">
  <g id="patch_1">
   <path d="M 0 432 
L 864 432 
L 864 0 
L 0 0 
z
" style="fill:#ffffff;"/>
  </g>
  <g id="axes_1">
   <g id="patch_2">
    <path d="M 108 384.48 
L 777.6 384.48 
L 777.6 51.84 
L 108 51.84 
z
" style="fill:#ffffff;"/>
   </g>
   <g id="matplotlib.axis_1">
    <g id="xtick_1">
     <g id="line2d_1">
      <path clip-path="url(#p05f6b83283)" d="M 108 384.48 
L 108 51.84 
" style="fill:none;stroke:#b0b0b0;stroke-linecap:square;stroke-width:0.8;"/>
     </g>
     <g id="line2d_2">
      <defs>
       <path d="M 0 0 
L 0 3.5 
" id="mdd894b60e6" style="stroke:#000000;stroke-width:0.8;"/>
      </defs>
      <g>
       <use style="stroke:#000000;stroke-width:0.8;" x="108" xlink:href="#mdd894b60e6" y="384.48"/>
      </g>
     </g>
     <g id="text_1">
      <!-- 2017-10-25 -->
      <defs>
       <path d="M 51.171875 0 
L 5.171875 0 
L 5.171875 8.296875 
L 27.15625 30.21875 
Q 36.234375 39.3125 39.3125 44.609375 
Q 42.390625 49.90625 42.390625 55.5625 
Q 42.390625 62.015625 38.765625 65.453125 
Q 35.15625 68.890625 28.328125 68.890625 
Q 18.21875 68.890625 9.03125 60.296875 
L 9.03125 70.015625 
Q 17.96875 76.90625 29.828125 76.90625 
Q 40.046875 76.90625 45.953125 71.390625 
Q 51.859375 65.875 51.859375 56.546875 
Q 51.859375 49.515625 48.0625 42.75 
Q 44.28125 35.984375 33.734375 25.53125 
L 16.5 8.6875 
L 16.5 8.5 
L 51.171875 8.5 
z
" id="MicrosoftYaHei-32"/>
       <path d="M 4.4375 36.328125 
Q 4.4375 56.34375 11.078125 66.625 
Q 17.71875 76.90625 30.328125 76.90625 
Q 54.34375 76.90625 54.34375 38.140625 
Q 54.34375 19 47.578125 8.859375 
Q 40.828125 -1.265625 28.609375 -1.265625 
Q 17.09375 -1.265625 10.765625 8.34375 
Q 4.4375 17.96875 4.4375 36.328125 
z
M 14.203125 36.765625 
Q 14.203125 6.640625 29.5 6.640625 
Q 44.53125 6.640625 44.53125 37.25 
Q 44.53125 68.953125 29.78125 68.953125 
Q 14.203125 68.953125 14.203125 36.765625 
z
" id="MicrosoftYaHei-30"/>
       <path d="M 52.59375 0 
L 9.234375 0 
L 9.234375 8.25 
L 26.171875 8.25 
L 26.171875 65.671875 
L 8.796875 60.640625 
L 8.796875 69.4375 
L 35.6875 77.25 
L 35.6875 8.25 
L 52.59375 8.25 
z
" id="MicrosoftYaHei-31"/>
       <path d="M 53.765625 72.3125 
L 24.171875 0 
L 14.265625 0 
L 42.390625 67.1875 
L 4.59375 67.1875 
L 4.59375 75.640625 
L 53.765625 75.640625 
z
" id="MicrosoftYaHei-37"/>
       <path d="M 36.375 26.265625 
L 7.625 26.265625 
L 7.625 33.640625 
L 36.375 33.640625 
z
" id="MicrosoftYaHei-2d"/>
       <path d="M 8.640625 11.625 
Q 16.265625 6.640625 24.515625 6.640625 
Q 32.328125 6.640625 37.109375 11 
Q 41.890625 15.375 41.890625 22.609375 
Q 41.890625 29.890625 37.03125 33.890625 
Q 32.171875 37.890625 22.953125 37.890625 
Q 18.5 37.890625 10.984375 37.203125 
L 10.984375 75.640625 
L 48.1875 75.640625 
L 48.1875 67.1875 
L 19.875 67.1875 
L 19.875 45.796875 
Q 24.125 46.046875 26.265625 46.046875 
Q 38.234375 46.046875 44.921875 39.984375 
Q 51.609375 33.9375 51.609375 23.296875 
Q 51.609375 12.3125 44.421875 5.515625 
Q 37.25 -1.265625 24.609375 -1.265625 
Q 14.015625 -1.265625 8.640625 1.859375 
z
" id="MicrosoftYaHei-35"/>
      </defs>
      <g transform="translate(80.217187 399.47375)scale(0.1 -0.1)">
       <use xlink:href="#MicrosoftYaHei-32"/>
       <use x="58.642578" xlink:href="#MicrosoftYaHei-30"/>
       <use x="117.285156" xlink:href="#MicrosoftYaHei-31"/>
       <use x="175.927734" xlink:href="#MicrosoftYaHei-37"/>
       <use x="234.570312" xlink:href="#MicrosoftYaHei-2d"/>
       <use x="277.832031" xlink:href="#MicrosoftYaHei-31"/>
       <use x="336.474609" xlink:href="#MicrosoftYaHei-30"/>
       <use x="395.117188" xlink:href="#MicrosoftYaHei-2d"/>
       <use x="438.378906" xlink:href="#MicrosoftYaHei-32"/>
       <use x="497.021484" xlink:href="#MicrosoftYaHei-35"/>
      </g>
     </g>
    </g>
    <g id="xtick_2">
     <g id="line2d_3">
      <path clip-path="url(#p05f6b83283)" d="M 199.978022 384.48 
L 199.978022 51.84 
" style="fill:none;stroke:#b0b0b0;stroke-linecap:square;stroke-width:0.8;"/>
     </g>
     <g id="line2d_4">
      <g>
       <use style="stroke:#000000;stroke-width:0.8;" x="199.978022" xlink:href="#mdd894b60e6" y="384.48"/>
      </g>
     </g>
     <g id="text_2">
      <!-- 2018-01-05 -->
      <defs>
       <path d="M 21.390625 39.796875 
Q 7.859375 46.09375 7.859375 58.0625 
Q 7.859375 66.40625 14.203125 71.65625 
Q 20.5625 76.90625 30.421875 76.90625 
Q 39.453125 76.90625 45.3125 71.96875 
Q 51.171875 67.046875 51.171875 59.234375 
Q 51.171875 46.625 37.0625 39.84375 
L 37.0625 39.65625 
Q 53.609375 33.6875 53.609375 19.34375 
Q 53.609375 9.90625 46.796875 4.3125 
Q 39.984375 -1.265625 27.78125 -1.265625 
Q 17.78125 -1.265625 11.46875 4.25 
Q 5.171875 9.765625 5.171875 18.5625 
Q 5.171875 33.015625 21.390625 39.59375 
z
M 41.5 58.109375 
Q 41.5 63.1875 38.328125 66.109375 
Q 35.15625 69.046875 29.734375 69.046875 
Q 24.65625 69.046875 21.09375 65.984375 
Q 17.53125 62.9375 17.53125 58.203125 
Q 17.53125 48.734375 29.390625 43.796875 
Q 41.5 48.828125 41.5 58.109375 
z
M 28.8125 35.25 
Q 14.796875 29.59375 14.796875 19.046875 
Q 14.796875 13.578125 18.890625 10.0625 
Q 23 6.546875 29.59375 6.546875 
Q 35.984375 6.546875 39.984375 10.03125 
Q 44 13.53125 44 18.75 
Q 44 29.734375 28.8125 35.25 
z
" id="MicrosoftYaHei-38"/>
      </defs>
      <g transform="translate(172.195209 399.47375)scale(0.1 -0.1)">
       <use xlink:href="#MicrosoftYaHei-32"/>
       <use x="58.642578" xlink:href="#MicrosoftYaHei-30"/>
       <use x="117.285156" xlink:href="#MicrosoftYaHei-31"/>
       <use x="175.927734" xlink:href="#MicrosoftYaHei-38"/>
       <use x="234.570312" xlink:href="#MicrosoftYaHei-2d"/>
       <use x="277.832031" xlink:href="#MicrosoftYaHei-30"/>
       <use x="336.474609" xlink:href="#MicrosoftYaHei-31"/>
       <use x="395.117188" xlink:href="#MicrosoftYaHei-2d"/>
       <use x="438.378906" xlink:href="#MicrosoftYaHei-30"/>
       <use x="497.021484" xlink:href="#MicrosoftYaHei-35"/>
      </g>
     </g>
    </g>
    <g id="xtick_3">
     <g id="line2d_5">
      <path clip-path="url(#p05f6b83283)" d="M 291.956044 384.48 
L 291.956044 51.84 
" style="fill:none;stroke:#b0b0b0;stroke-linecap:square;stroke-width:0.8;"/>
     </g>
     <g id="line2d_6">
      <g>
       <use style="stroke:#000000;stroke-width:0.8;" x="291.956044" xlink:href="#mdd894b60e6" y="384.48"/>
      </g>
     </g>
     <g id="text_3">
      <!-- 2018-03-21 -->
      <defs>
       <path d="M 6.984375 12.640625 
Q 14.75 6.640625 24.515625 6.640625 
Q 32.328125 6.640625 36.890625 10.46875 
Q 41.453125 14.3125 41.453125 20.75 
Q 41.453125 35.109375 20.90625 35.109375 
L 14.59375 35.109375 
L 14.59375 43.015625 
L 20.609375 43.015625 
Q 38.8125 43.015625 38.8125 56.5 
Q 38.8125 68.953125 24.90625 68.953125 
Q 16.9375 68.953125 9.90625 63.578125 
L 9.90625 72.609375 
Q 17.328125 76.90625 27.25 76.90625 
Q 36.921875 76.90625 42.78125 71.84375 
Q 48.640625 66.796875 48.640625 58.734375 
Q 48.640625 43.890625 33.5 39.65625 
L 33.5 39.453125 
Q 41.703125 38.578125 46.453125 33.671875 
Q 51.21875 28.765625 51.21875 21.4375 
Q 51.21875 11.234375 43.875 4.984375 
Q 36.53125 -1.265625 24.3125 -1.265625 
Q 13.578125 -1.265625 6.984375 2.734375 
z
" id="MicrosoftYaHei-33"/>
      </defs>
      <g transform="translate(264.173231 399.47375)scale(0.1 -0.1)">
       <use xlink:href="#MicrosoftYaHei-32"/>
       <use x="58.642578" xlink:href="#MicrosoftYaHei-30"/>
       <use x="117.285156" xlink:href="#MicrosoftYaHei-31"/>
       <use x="175.927734" xlink:href="#MicrosoftYaHei-38"/>
       <use x="234.570312" xlink:href="#MicrosoftYaHei-2d"/>
       <use x="277.832031" xlink:href="#MicrosoftYaHei-30"/>
       <use x="336.474609" xlink:href="#MicrosoftYaHei-33"/>
       <use x="395.117188" xlink:href="#MicrosoftYaHei-2d"/>
       <use x="438.378906" xlink:href="#MicrosoftYaHei-32"/>
       <use x="497.021484" xlink:href="#MicrosoftYaHei-31"/>
      </g>
     </g>
    </g>
    <g id="xtick_4">
     <g id="line2d_7">
      <path clip-path="url(#p05f6b83283)" d="M 383.934066 384.48 
L 383.934066 51.84 
" style="fill:none;stroke:#b0b0b0;stroke-linecap:square;stroke-width:0.8;"/>
     </g>
     <g id="line2d_8">
      <g>
       <use style="stroke:#000000;stroke-width:0.8;" x="383.934066" xlink:href="#mdd894b60e6" y="384.48"/>
      </g>
     </g>
     <g id="text_4">
      <!-- 2018-06-01 -->
      <defs>
       <path d="M 49.703125 65.921875 
Q 43.796875 68.953125 37.359375 68.953125 
Q 27.546875 68.953125 21.578125 60.40625 
Q 15.625 51.859375 15.53125 37.0625 
L 15.765625 37.0625 
Q 21.140625 47.46875 32.90625 47.46875 
Q 42.71875 47.46875 48.578125 41.0625 
Q 54.4375 34.671875 54.4375 24.078125 
Q 54.4375 12.984375 47.671875 5.859375 
Q 40.921875 -1.265625 30.421875 -1.265625 
Q 18.890625 -1.265625 12.328125 7.734375 
Q 5.765625 16.75 5.765625 33.296875 
Q 5.765625 53.328125 14.375 65.109375 
Q 23 76.90625 37.0625 76.90625 
Q 45.125 76.90625 49.703125 74.703125 
z
M 16.109375 24.75 
Q 16.109375 17.28125 20.09375 11.953125 
Q 24.078125 6.640625 30.671875 6.640625 
Q 36.921875 6.640625 40.828125 11.234375 
Q 44.734375 15.828125 44.734375 23.046875 
Q 44.734375 30.859375 41.046875 35.203125 
Q 37.359375 39.546875 30.5625 39.546875 
Q 24.125 39.546875 20.109375 35.15625 
Q 16.109375 30.765625 16.109375 24.75 
z
" id="MicrosoftYaHei-36"/>
      </defs>
      <g transform="translate(356.151253 399.47375)scale(0.1 -0.1)">
       <use xlink:href="#MicrosoftYaHei-32"/>
       <use x="58.642578" xlink:href="#MicrosoftYaHei-30"/>
       <use x="117.285156" xlink:href="#MicrosoftYaHei-31"/>
       <use x="175.927734" xlink:href="#MicrosoftYaHei-38"/>
       <use x="234.570312" xlink:href="#MicrosoftYaHei-2d"/>
       <use x="277.832031" xlink:href="#MicrosoftYaHei-30"/>
       <use x="336.474609" xlink:href="#MicrosoftYaHei-36"/>
       <use x="395.117188" xlink:href="#MicrosoftYaHei-2d"/>
       <use x="438.378906" xlink:href="#MicrosoftYaHei-30"/>
       <use x="497.021484" xlink:href="#MicrosoftYaHei-31"/>
      </g>
     </g>
    </g>
    <g id="xtick_5">
     <g id="line2d_9">
      <path clip-path="url(#p05f6b83283)" d="M 475.912088 384.48 
L 475.912088 51.84 
" style="fill:none;stroke:#b0b0b0;stroke-linecap:square;stroke-width:0.8;"/>
     </g>
     <g id="line2d_10">
      <g>
       <use style="stroke:#000000;stroke-width:0.8;" x="475.912088" xlink:href="#mdd894b60e6" y="384.48"/>
      </g>
     </g>
     <g id="text_5">
      <!-- 2018-08-13 -->
      <g transform="translate(448.129275 399.47375)scale(0.1 -0.1)">
       <use xlink:href="#MicrosoftYaHei-32"/>
       <use x="58.642578" xlink:href="#MicrosoftYaHei-30"/>
       <use x="117.285156" xlink:href="#MicrosoftYaHei-31"/>
       <use x="175.927734" xlink:href="#MicrosoftYaHei-38"/>
       <use x="234.570312" xlink:href="#MicrosoftYaHei-2d"/>
       <use x="277.832031" xlink:href="#MicrosoftYaHei-30"/>
       <use x="336.474609" xlink:href="#MicrosoftYaHei-38"/>
       <use x="395.117188" xlink:href="#MicrosoftYaHei-2d"/>
       <use x="438.378906" xlink:href="#MicrosoftYaHei-31"/>
       <use x="497.021484" xlink:href="#MicrosoftYaHei-33"/>
      </g>
     </g>
    </g>
    <g id="xtick_6">
     <g id="line2d_11">
      <path clip-path="url(#p05f6b83283)" d="M 567.89011 384.48 
L 567.89011 51.84 
" style="fill:none;stroke:#b0b0b0;stroke-linecap:square;stroke-width:0.8;"/>
     </g>
     <g id="line2d_12">
      <g>
       <use style="stroke:#000000;stroke-width:0.8;" x="567.89011" xlink:href="#mdd894b60e6" y="384.48"/>
      </g>
     </g>
     <g id="text_6">
      <!-- 2018-10-26 -->
      <g transform="translate(540.107297 399.47375)scale(0.1 -0.1)">
       <use xlink:href="#MicrosoftYaHei-32"/>
       <use x="58.642578" xlink:href="#MicrosoftYaHei-30"/>
       <use x="117.285156" xlink:href="#MicrosoftYaHei-31"/>
       <use x="175.927734" xlink:href="#MicrosoftYaHei-38"/>
       <use x="234.570312" xlink:href="#MicrosoftYaHei-2d"/>
       <use x="277.832031" xlink:href="#MicrosoftYaHei-31"/>
       <use x="336.474609" xlink:href="#MicrosoftYaHei-30"/>
       <use x="395.117188" xlink:href="#MicrosoftYaHei-2d"/>
       <use x="438.378906" xlink:href="#MicrosoftYaHei-32"/>
       <use x="497.021484" xlink:href="#MicrosoftYaHei-36"/>
      </g>
     </g>
    </g>
    <g id="xtick_7">
     <g id="line2d_13">
      <path clip-path="url(#p05f6b83283)" d="M 659.868132 384.48 
L 659.868132 51.84 
" style="fill:none;stroke:#b0b0b0;stroke-linecap:square;stroke-width:0.8;"/>
     </g>
     <g id="line2d_14">
      <g>
       <use style="stroke:#000000;stroke-width:0.8;" x="659.868132" xlink:href="#mdd894b60e6" y="384.48"/>
      </g>
     </g>
     <g id="text_7">
      <!-- 2019-01-08 -->
      <defs>
       <path d="M 9.03125 10.25 
Q 15.28125 6.640625 22.515625 6.640625 
Q 32.671875 6.640625 38.25 14.640625 
Q 43.84375 22.65625 43.84375 37.40625 
Q 43.75 37.3125 43.65625 37.40625 
Q 38.671875 27.9375 26.90625 27.9375 
Q 17.390625 27.9375 11.140625 34.46875 
Q 4.890625 41.015625 4.890625 51.46875 
Q 4.890625 62.59375 11.71875 69.75 
Q 18.5625 76.90625 29.4375 76.90625 
Q 40.71875 76.90625 47.0625 68.046875 
Q 53.421875 59.1875 53.421875 42.234375 
Q 53.421875 21.296875 45.21875 10.015625 
Q 37.015625 -1.265625 22.515625 -1.265625 
Q 14.546875 -1.265625 9.03125 1.3125 
z
M 14.546875 52.6875 
Q 14.546875 45.0625 18.453125 40.59375 
Q 22.359375 36.140625 29.25 36.140625 
Q 35.203125 36.140625 39.25 40.203125 
Q 43.3125 44.28125 43.3125 50.09375 
Q 43.3125 58.25 39.28125 63.59375 
Q 35.25 68.953125 28.65625 68.953125 
Q 22.5625 68.953125 18.546875 64.3125 
Q 14.546875 59.671875 14.546875 52.6875 
z
" id="MicrosoftYaHei-39"/>
      </defs>
      <g transform="translate(632.085319 399.47375)scale(0.1 -0.1)">
       <use xlink:href="#MicrosoftYaHei-32"/>
       <use x="58.642578" xlink:href="#MicrosoftYaHei-30"/>
       <use x="117.285156" xlink:href="#MicrosoftYaHei-31"/>
       <use x="175.927734" xlink:href="#MicrosoftYaHei-39"/>
       <use x="234.570312" xlink:href="#MicrosoftYaHei-2d"/>
       <use x="277.832031" xlink:href="#MicrosoftYaHei-30"/>
       <use x="336.474609" xlink:href="#MicrosoftYaHei-31"/>
       <use x="395.117188" xlink:href="#MicrosoftYaHei-2d"/>
       <use x="438.378906" xlink:href="#MicrosoftYaHei-30"/>
       <use x="497.021484" xlink:href="#MicrosoftYaHei-38"/>
      </g>
     </g>
    </g>
    <g id="xtick_8">
     <g id="line2d_15">
      <path clip-path="url(#p05f6b83283)" d="M 751.846154 384.48 
L 751.846154 51.84 
" style="fill:none;stroke:#b0b0b0;stroke-linecap:square;stroke-width:0.8;"/>
     </g>
     <g id="line2d_16">
      <g>
       <use style="stroke:#000000;stroke-width:0.8;" x="751.846154" xlink:href="#mdd894b60e6" y="384.48"/>
      </g>
     </g>
     <g id="text_8">
      <!-- 2019-03-22 -->
      <g transform="translate(724.063341 399.47375)scale(0.1 -0.1)">
       <use xlink:href="#MicrosoftYaHei-32"/>
       <use x="58.642578" xlink:href="#MicrosoftYaHei-30"/>
       <use x="117.285156" xlink:href="#MicrosoftYaHei-31"/>
       <use x="175.927734" xlink:href="#MicrosoftYaHei-39"/>
       <use x="234.570312" xlink:href="#MicrosoftYaHei-2d"/>
       <use x="277.832031" xlink:href="#MicrosoftYaHei-30"/>
       <use x="336.474609" xlink:href="#MicrosoftYaHei-33"/>
       <use x="395.117188" xlink:href="#MicrosoftYaHei-2d"/>
       <use x="438.378906" xlink:href="#MicrosoftYaHei-32"/>
       <use x="497.021484" xlink:href="#MicrosoftYaHei-32"/>
      </g>
     </g>
    </g>
    <g id="text_9">
     <!-- 日期 -->
     <defs>
      <path d="M 15.234375 76.703125 
L 84.859375 76.703125 
L 84.859375 -11.96875 
L 76.5625 -11.96875 
L 76.5625 -5.03125 
L 23.53125 -5.03125 
L 23.53125 -11.96875 
L 15.234375 -11.96875 
z
M 23.53125 32.859375 
L 23.53125 2.09375 
L 76.5625 2.09375 
L 76.5625 32.859375 
z
M 23.53125 69.390625 
L 23.53125 40.1875 
L 76.5625 40.1875 
L 76.5625 69.390625 
z
" id="MicrosoftYaHei-65e5"/>
      <path d="M 58.890625 79.15625 
L 93.453125 79.15625 
L 93.453125 -0.046875 
Q 93.453125 -11.578125 82.515625 -11.578125 
Q 77.046875 -11.578125 71.78125 -11.28125 
Q 71.390625 -8.0625 70.609375 -3.765625 
Q 77.734375 -4.4375 80.859375 -4.4375 
Q 86.234375 -4.4375 86.234375 0.921875 
L 86.234375 21.4375 
L 65.328125 21.4375 
Q 64.265625 0.046875 52.34375 -14.109375 
Q 49.703125 -11.375 46.484375 -8.640625 
Q 54.390625 0.4375 56.546875 10.203125 
Q 58.890625 19.578125 58.890625 42.828125 
z
M 1.953125 17.828125 
L 11.140625 17.828125 
L 11.140625 62.9375 
L 3.125 62.9375 
L 3.125 69.578125 
L 11.140625 69.578125 
L 11.140625 81.5 
L 18.359375 81.5 
L 18.359375 69.578125 
L 38.671875 69.578125 
L 38.671875 81.890625 
L 45.90625 81.890625 
L 45.90625 69.578125 
L 53.8125 69.578125 
L 53.8125 62.9375 
L 45.90625 62.9375 
L 45.90625 17.828125 
L 53.71875 17.828125 
L 53.71875 11.1875 
L 1.953125 11.1875 
z
M 65.765625 27.875 
L 86.234375 27.875 
L 86.234375 47.015625 
L 66.109375 47.015625 
Q 66.21875 34.421875 65.765625 27.875 
z
M 86.234375 72.515625 
L 66.109375 72.515625 
L 66.109375 53.46875 
L 86.234375 53.46875 
z
M 18.359375 17.828125 
L 38.671875 17.828125 
L 38.671875 28.765625 
L 18.359375 28.765625 
z
M 18.359375 35.015625 
L 38.671875 35.015625 
L 38.671875 45.84375 
L 18.359375 45.84375 
z
M 18.359375 52.09375 
L 38.671875 52.09375 
L 38.671875 62.9375 
L 18.359375 62.9375 
z
M 18.359375 9.328125 
L 24.3125 4.640625 
Q 14.453125 -6 6.34375 -13.234375 
Q 4.296875 -10.890625 1.171875 -8.0625 
Q 10.453125 -0.140625 18.359375 9.328125 
z
M 31.15625 4.734375 
L 35.84375 9.515625 
Q 42.671875 4.4375 48.734375 -0.734375 
L 43.5625 -6.296875 
Q 38.09375 -0.828125 31.15625 4.734375 
z
" id="MicrosoftYaHei-671f"/>
     </defs>
     <g transform="translate(432.8 413.953438)scale(0.1 -0.1)">
      <use xlink:href="#MicrosoftYaHei-65e5"/>
      <use x="100" xlink:href="#MicrosoftYaHei-671f"/>
     </g>
    </g>
   </g>
   <g id="matplotlib.axis_2">
    <g id="ytick_1">
     <g id="line2d_17">
      <path clip-path="url(#p05f6b83283)" d="M 108 375.112809 
L 777.6 375.112809 
" style="fill:none;stroke:#b0b0b0;stroke-linecap:square;stroke-width:0.8;"/>
     </g>
     <g id="line2d_18">
      <defs>
       <path d="M 0 0 
L -3.5 0 
" id="m7ddf400fd5" style="stroke:#000000;stroke-width:0.8;"/>
      </defs>
      <g>
       <use style="stroke:#000000;stroke-width:0.8;" x="108" xlink:href="#m7ddf400fd5" y="375.112809"/>
      </g>
     </g>
     <g id="text_10">
      <!-- 1.5 -->
      <defs>
       <path d="M 5.8125 5.03125 
Q 5.8125 7.671875 7.609375 9.46875 
Q 9.421875 11.28125 12.109375 11.28125 
Q 14.84375 11.28125 16.640625 9.453125 
Q 18.453125 7.625 18.453125 5.03125 
Q 18.453125 2.484375 16.640625 0.65625 
Q 14.84375 -1.171875 12.0625 -1.171875 
Q 9.375 -1.171875 7.59375 0.65625 
Q 5.8125 2.484375 5.8125 5.03125 
z
" id="MicrosoftYaHei-2e"/>
      </defs>
      <g transform="translate(86.864063 379.109684)scale(0.1 -0.1)">
       <use xlink:href="#MicrosoftYaHei-31"/>
       <use x="58.642578" xlink:href="#MicrosoftYaHei-2e"/>
       <use x="82.714844" xlink:href="#MicrosoftYaHei-35"/>
      </g>
     </g>
    </g>
    <g id="ytick_2">
     <g id="line2d_19">
      <path clip-path="url(#p05f6b83283)" d="M 108 330.168989 
L 777.6 330.168989 
" style="fill:none;stroke:#b0b0b0;stroke-linecap:square;stroke-width:0.8;"/>
     </g>
     <g id="line2d_20">
      <g>
       <use style="stroke:#000000;stroke-width:0.8;" x="108" xlink:href="#m7ddf400fd5" y="330.168989"/>
      </g>
     </g>
     <g id="text_11">
      <!-- 2.0 -->
      <g transform="translate(86.864063 334.165864)scale(0.1 -0.1)">
       <use xlink:href="#MicrosoftYaHei-32"/>
       <use x="58.642578" xlink:href="#MicrosoftYaHei-2e"/>
       <use x="82.714844" xlink:href="#MicrosoftYaHei-30"/>
      </g>
     </g>
    </g>
    <g id="ytick_3">
     <g id="line2d_21">
      <path clip-path="url(#p05f6b83283)" d="M 108 285.225169 
L 777.6 285.225169 
" style="fill:none;stroke:#b0b0b0;stroke-linecap:square;stroke-width:0.8;"/>
     </g>
     <g id="line2d_22">
      <g>
       <use style="stroke:#000000;stroke-width:0.8;" x="108" xlink:href="#m7ddf400fd5" y="285.225169"/>
      </g>
     </g>
     <g id="text_12">
      <!-- 2.5 -->
      <g transform="translate(86.864063 289.222044)scale(0.1 -0.1)">
       <use xlink:href="#MicrosoftYaHei-32"/>
       <use x="58.642578" xlink:href="#MicrosoftYaHei-2e"/>
       <use x="82.714844" xlink:href="#MicrosoftYaHei-35"/>
      </g>
     </g>
    </g>
    <g id="ytick_4">
     <g id="line2d_23">
      <path clip-path="url(#p05f6b83283)" d="M 108 240.281348 
L 777.6 240.281348 
" style="fill:none;stroke:#b0b0b0;stroke-linecap:square;stroke-width:0.8;"/>
     </g>
     <g id="line2d_24">
      <g>
       <use style="stroke:#000000;stroke-width:0.8;" x="108" xlink:href="#m7ddf400fd5" y="240.281348"/>
      </g>
     </g>
     <g id="text_13">
      <!-- 3.0 -->
      <g transform="translate(86.864063 244.278223)scale(0.1 -0.1)">
       <use xlink:href="#MicrosoftYaHei-33"/>
       <use x="58.642578" xlink:href="#MicrosoftYaHei-2e"/>
       <use x="82.714844" xlink:href="#MicrosoftYaHei-30"/>
      </g>
     </g>
    </g>
    <g id="ytick_5">
     <g id="line2d_25">
      <path clip-path="url(#p05f6b83283)" d="M 108 195.337528 
L 777.6 195.337528 
" style="fill:none;stroke:#b0b0b0;stroke-linecap:square;stroke-width:0.8;"/>
     </g>
     <g id="line2d_26">
      <g>
       <use style="stroke:#000000;stroke-width:0.8;" x="108" xlink:href="#m7ddf400fd5" y="195.337528"/>
      </g>
     </g>
     <g id="text_14">
      <!-- 3.5 -->
      <g transform="translate(86.864063 199.334403)scale(0.1 -0.1)">
       <use xlink:href="#MicrosoftYaHei-33"/>
       <use x="58.642578" xlink:href="#MicrosoftYaHei-2e"/>
       <use x="82.714844" xlink:href="#MicrosoftYaHei-35"/>
      </g>
     </g>
    </g>
    <g id="ytick_6">
     <g id="line2d_27">
      <path clip-path="url(#p05f6b83283)" d="M 108 150.393708 
L 777.6 150.393708 
" style="fill:none;stroke:#b0b0b0;stroke-linecap:square;stroke-width:0.8;"/>
     </g>
     <g id="line2d_28">
      <g>
       <use style="stroke:#000000;stroke-width:0.8;" x="108" xlink:href="#m7ddf400fd5" y="150.393708"/>
      </g>
     </g>
     <g id="text_15">
      <!-- 4.0 -->
      <defs>
       <path d="M 55.078125 19.625 
L 45.40625 19.625 
L 45.40625 0 
L 36.140625 0 
L 36.140625 19.625 
L 0.875 19.625 
L 0.875 25.828125 
L 34.328125 75.640625 
L 45.40625 75.640625 
L 45.40625 27.203125 
L 55.078125 27.203125 
z
M 36.140625 27.203125 
L 36.140625 58.890625 
Q 36.140625 62.25 36.328125 66.65625 
L 36.140625 66.65625 
Q 35.453125 64.796875 33.25 60.84375 
L 10.75 27.203125 
z
" id="MicrosoftYaHei-34"/>
      </defs>
      <g transform="translate(86.864063 154.390583)scale(0.1 -0.1)">
       <use xlink:href="#MicrosoftYaHei-34"/>
       <use x="58.642578" xlink:href="#MicrosoftYaHei-2e"/>
       <use x="82.714844" xlink:href="#MicrosoftYaHei-30"/>
      </g>
     </g>
    </g>
    <g id="ytick_7">
     <g id="line2d_29">
      <path clip-path="url(#p05f6b83283)" d="M 108 105.449888 
L 777.6 105.449888 
" style="fill:none;stroke:#b0b0b0;stroke-linecap:square;stroke-width:0.8;"/>
     </g>
     <g id="line2d_30">
      <g>
       <use style="stroke:#000000;stroke-width:0.8;" x="108" xlink:href="#m7ddf400fd5" y="105.449888"/>
      </g>
     </g>
     <g id="text_16">
      <!-- 4.5 -->
      <g transform="translate(86.864063 109.446763)scale(0.1 -0.1)">
       <use xlink:href="#MicrosoftYaHei-34"/>
       <use x="58.642578" xlink:href="#MicrosoftYaHei-2e"/>
       <use x="82.714844" xlink:href="#MicrosoftYaHei-35"/>
      </g>
     </g>
    </g>
    <g id="ytick_8">
     <g id="line2d_31">
      <path clip-path="url(#p05f6b83283)" d="M 108 60.506067 
L 777.6 60.506067 
" style="fill:none;stroke:#b0b0b0;stroke-linecap:square;stroke-width:0.8;"/>
     </g>
     <g id="line2d_32">
      <g>
       <use style="stroke:#000000;stroke-width:0.8;" x="108" xlink:href="#m7ddf400fd5" y="60.506067"/>
      </g>
     </g>
     <g id="text_17">
      <!-- 5.0 -->
      <g transform="translate(86.864063 64.502942)scale(0.1 -0.1)">
       <use xlink:href="#MicrosoftYaHei-35"/>
       <use x="58.642578" xlink:href="#MicrosoftYaHei-2e"/>
       <use x="82.714844" xlink:href="#MicrosoftYaHei-30"/>
      </g>
     </g>
    </g>
   </g>
   <g id="line2d_33">
    <path clip-path="url(#p05f6b83283)" d="M 108 274.726292 
L 109.83956 272.892584 
L 111.679121 270.37573 
L 115.358242 266.67236 
L 117.197802 265.324045 
L 119.037363 266.546517 
L 120.876923 269.081348 
L 122.716484 272.820674 
L 124.556044 276.128539 
L 126.395604 278.717303 
L 128.235165 278.357753 
L 130.074725 275.840899 
L 133.753846 265.953258 
L 135.593407 262.16 
L 137.432967 259.391461 
L 139.272527 259.013933 
L 141.112088 259.03191 
L 142.951648 259.373483 
L 146.630769 259.265618 
L 148.47033 258.204944 
L 150.30989 257.611685 
L 152.149451 257.773483 
L 153.989011 260.038652 
L 155.828571 260.308315 
L 157.668132 263.094831 
L 161.347253 270.986966 
L 163.186813 272.964494 
L 165.026374 276.613933 
L 166.865934 277.225169 
L 168.705495 275.643146 
L 170.545055 273.000449 
L 174.224176 265.21618 
L 176.063736 263.130787 
L 177.903297 262.501573 
L 179.742857 262.23191 
L 181.582418 263.274607 
L 183.421978 265.755506 
L 185.261538 267.768989 
L 188.940659 273.270112 
L 190.78022 274.420674 
L 192.61978 274.294831 
L 194.459341 270.195955 
L 196.298901 269.07236 
L 198.138462 271.966742 
L 199.978022 275.346517 
L 201.817582 282.16 
L 203.657143 284.461124 
L 205.496703 283.03191 
L 209.175824 270.933034 
L 211.015385 264.946517 
L 212.854945 260.34427 
L 214.694505 258.151011 
L 216.534066 259.346517 
L 218.373626 259.238652 
L 220.213187 259.652135 
L 223.892308 266.37573 
L 225.731868 270.007191 
L 227.571429 275.139775 
L 229.410989 278.825169 
L 231.250549 279.68809 
L 233.09011 279.328539 
L 234.92967 280.191461 
L 238.608791 281.43191 
L 240.448352 281.701573 
L 242.287912 282.115056 
L 244.127473 281.090337 
L 247.806593 278.411685 
L 249.646154 277.584719 
L 251.485714 277.297079 
L 253.325275 274.582472 
L 255.164835 273.827416 
L 257.004396 274.025169 
L 258.843956 274.474607 
L 260.683516 274.762247 
L 262.523077 277.674607 
L 264.362637 276.290337 
L 266.202198 274.600449 
L 268.041758 270.771236 
L 269.881319 269.315056 
L 271.720879 268.308315 
L 275.4 272.568989 
L 277.23956 276.164494 
L 279.079121 277.351011 
L 280.918681 276.991461 
L 282.758242 276.254382 
L 284.597802 275.139775 
L 286.437363 274.906067 
L 288.276923 275.355506 
L 293.795604 279.598202 
L 295.635165 280.335281 
L 297.474725 280.658876 
L 302.993407 278.852135 
L 304.832967 276.245393 
L 306.672527 274.825169 
L 308.512088 275.17573 
L 310.351648 277.386966 
L 312.191209 279.813933 
L 314.030769 282.726292 
L 315.87033 284.002697 
L 317.70989 284.236404 
L 319.549451 282.654382 
L 321.389011 280.658876 
L 323.228571 279.68809 
L 326.907692 275.517303 
L 328.747253 272.353258 
L 330.586813 268.937528 
L 332.426374 266.384719 
L 334.265934 265.108315 
L 336.105495 264.227416 
L 337.945055 263.652135 
L 339.784615 260.524045 
L 341.624176 258.726292 
L 343.463736 259.013933 
L 345.303297 259.858876 
L 347.142857 262.933034 
L 348.982418 269.027416 
L 350.821978 273.50382 
L 352.661538 277.099326 
L 354.501099 280.191461 
L 356.340659 282.115056 
L 358.18022 282.151011 
L 360.01978 280.964494 
L 361.859341 276.542022 
L 363.698901 274.96 
L 365.538462 273.593708 
L 367.378022 274.546517 
L 369.217582 276.63191 
L 371.057143 280.874607 
L 372.896703 282.079101 
L 374.736264 282.708315 
L 376.575824 282.600449 
L 378.415385 278.699326 
L 380.254945 272.335281 
L 382.094505 266.924045 
L 383.934066 262.01618 
L 385.773626 260.829663 
L 387.613187 263.670112 
L 389.452747 269.458876 
L 391.292308 274.420674 
L 393.131868 278.699326 
L 394.971429 279.166742 
L 396.810989 279.166742 
L 398.650549 278.681348 
L 400.49011 278.034157 
L 402.32967 277.512809 
L 404.169231 277.207191 
L 406.008791 276.577978 
L 407.848352 276.506067 
L 409.687912 276.595955 
L 411.527473 277.099326 
L 413.367033 278.393708 
L 415.206593 281.521798 
L 417.046154 286.986966 
L 418.885714 286.23191 
L 420.725275 287.040899 
L 422.564835 288.802697 
L 424.404396 293.225169 
L 426.243956 296.04764 
L 428.083516 307.930787 
L 429.923077 317.422921 
L 431.762637 319.436404 
L 433.602198 315.715056 
L 435.441758 309.333034 
L 437.281319 300.110562 
L 439.120879 289.935281 
L 440.96044 284.84764 
L 442.8 282.708315 
L 444.63956 283.984719 
L 446.479121 286.393708 
L 448.318681 289.899326 
L 450.158242 294.177978 
L 451.997802 297.342022 
L 453.837363 299.049888 
L 455.676923 300.164494 
L 457.516484 303.112809 
L 459.356044 308.27236 
L 461.195604 314.043146 
L 463.035165 320.353258 
L 464.874725 328.173483 
L 466.714286 334.986966 
L 468.553846 343.130787 
L 470.393407 354.025169 
L 472.232967 360.281348 
L 474.072527 360.694831 
L 475.912088 355.409438 
L 477.751648 342.555506 
L 481.430769 309.980225 
L 483.27033 296.425169 
L 485.10989 287.220674 
L 486.949451 281.683596 
L 488.789011 278.213933 
L 490.628571 279.238652 
L 494.307692 285.94427 
L 496.147253 289.728539 
L 497.986813 292.398202 
L 499.826374 295.580225 
L 501.665934 297.07236 
L 503.505495 300.002697 
L 507.184615 308.200449 
L 509.024176 304.299326 
L 512.703297 293.908315 
L 516.382418 279.742022 
L 518.221978 279.094831 
L 521.901099 282.852135 
L 523.740659 281.701573 
L 525.58022 281.611685 
L 527.41978 281.809438 
L 529.259341 281.36 
L 531.098901 279.97573 
L 534.778022 283.625169 
L 536.617582 284.955506 
L 538.457143 292.883596 
L 540.296703 290.906067 
L 542.136264 291.211685 
L 543.975824 290.456629 
L 545.815385 291.301573 
L 547.654945 286.142022 
L 549.494505 289.989213 
L 551.334066 292.84764 
L 553.173626 295.166742 
L 555.013187 295.97573 
L 556.852747 294.771236 
L 558.692308 294.663371 
L 560.531868 292.901573 
L 562.371429 291.499326 
L 564.210989 290.780225 
L 566.050549 294.591461 
L 567.89011 301.386966 
L 569.72967 312.586966 
L 571.569231 328.497079 
L 573.408791 328.910562 
L 575.248352 322.942022 
L 577.087912 315.571236 
L 578.927473 305.099326 
L 580.767033 292.443146 
L 582.606593 297.467865 
L 584.446154 307.697079 
L 586.285714 315.589213 
L 588.125275 317.845393 
L 589.964835 314.285843 
L 591.804396 310.070112 
L 593.643956 303.580225 
L 595.483516 298.061124 
L 597.323077 293.710562 
L 599.162637 291.17573 
L 601.002198 286.609438 
L 602.841758 284.506067 
L 604.681319 284.308315 
L 608.36044 286.213933 
L 610.2 286.933034 
L 612.03956 290.420674 
L 613.879121 285.279101 
L 615.718681 284.973483 
L 617.558242 286.968989 
L 619.397802 291.858876 
L 621.237363 289.054382 
L 623.076923 293.117303 
L 624.916484 294.23191 
L 626.756044 293.908315 
L 628.595604 291.085843 
L 630.435165 289.270112 
L 632.274725 284.973483 
L 634.114286 281.881348 
L 635.953846 278.177978 
L 637.793407 274.043146 
L 639.632967 273.180225 
L 641.472527 276.218427 
L 643.312088 281.773483 
L 646.991209 304.533034 
L 648.830769 318.44764 
L 650.67033 336.712809 
L 652.50989 332.434157 
L 654.349451 328.640899 
L 656.189011 331.229663 
L 658.028571 331.643146 
L 659.868132 352.137528 
L 661.707692 365.315056 
L 663.547253 369.36 
L 665.386813 368.299326 
L 667.226374 360.551011 
L 669.065934 345.611685 
L 670.905495 332.326292 
L 672.745055 323.049888 
L 674.584615 314.591461 
L 676.424176 308.083596 
L 678.263736 308.119551 
L 680.103297 309.234157 
L 681.942857 309.162247 
L 683.782418 305.863371 
L 685.621978 306.690337 
L 687.461538 309.656629 
L 689.301099 314.007191 
L 691.140659 314.456629 
L 692.98022 319.166742 
L 694.81978 317.908315 
L 696.659341 317.764494 
L 698.498901 313.036404 
L 700.338462 317.009438 
L 702.178022 323.804944 
L 704.017582 333.566742 
L 705.857143 340.27236 
L 707.696703 348.227416 
L 709.536264 349.126292 
L 711.375824 346.753258 
L 713.215385 341.198202 
L 715.054945 328.290337 
L 720.573626 286.573483 
L 722.413187 276.613933 
L 724.252747 281.57573 
L 726.092308 293.656629 
L 727.931868 301.548764 
L 729.771429 311.97573 
L 731.610989 321.395955 
L 733.450549 323.337528 
L 735.29011 320.479101 
L 737.12967 318.699326 
L 738.969231 318.609438 
L 740.808791 314.115056 
L 742.648352 303.184719 
L 744.487912 291.24764 
L 746.327473 285.836404 
L 748.167033 274.420674 
L 750.006593 268.110562 
L 751.846154 268.739775 
L 753.685714 272.712809 
L 755.525275 275.786966 
L 757.364835 283.481348 
L 759.204396 294.627416 
L 761.043956 297.036404 
L 762.883516 300.991461 
L 764.723077 310.681348 
L 768.402198 333.099326 
L 770.241758 352.119551 
L 772.081319 361.43191 
L 773.920879 355.643146 
L 775.76044 336.371236 
L 777.6 314.168989 
L 777.6 314.168989 
" style="fill:none;stroke:#1f77b4;stroke-linecap:square;stroke-width:1.5;"/>
   </g>
   <g id="line2d_34">
    <path clip-path="url(#p05f6b83283)" d="M 108 254.555506 
L 109.83956 254.025169 
L 111.679121 253.28809 
L 115.358242 251.24764 
L 117.197802 250.627416 
L 119.037363 250.81618 
L 120.876923 251.786966 
L 122.716484 253.422921 
L 126.395604 257.21618 
L 128.235165 258.079101 
L 130.074725 257.710562 
L 131.914286 256.595955 
L 137.432967 251.912809 
L 139.272527 251.562247 
L 141.112088 251.562247 
L 146.630769 252.434157 
L 148.47033 252.290337 
L 152.149451 251.463371 
L 153.989011 251.301573 
L 155.828571 250.81618 
L 157.668132 251.211685 
L 159.507692 252.41618 
L 163.186813 255.54427 
L 165.026374 257.467865 
L 166.865934 258.402697 
L 168.705495 258.366742 
L 170.545055 257.809438 
L 172.384615 256.658876 
L 176.063736 253.980225 
L 177.903297 253.027416 
L 179.742857 252.254382 
L 181.582418 251.840899 
L 183.421978 251.786966 
L 185.261538 251.858876 
L 187.101099 251.679101 
L 188.940659 251.337528 
L 190.78022 250.780225 
L 192.61978 249.809438 
L 194.459341 248.245393 
L 198.138462 253.530787 
L 199.978022 256.766742 
L 201.817582 260.667865 
L 203.657143 262.37573 
L 205.496703 262.537528 
L 207.336264 261.243146 
L 211.015385 256.892584 
L 212.854945 254.465618 
L 214.694505 252.63191 
L 216.534066 251.804944 
L 220.213187 250.798202 
L 222.052747 251.085843 
L 223.892308 251.912809 
L 225.731868 252.41618 
L 229.410989 254.142022 
L 231.250549 254.591461 
L 233.09011 254.636404 
L 238.608791 257.827416 
L 240.448352 259.040899 
L 242.287912 260.092584 
L 244.127473 258.08809 
L 245.967033 255.751011 
L 249.646154 250.564494 
L 251.485714 247.742022 
L 253.325275 247.634157 
L 255.164835 248.119551 
L 258.843956 249.521798 
L 260.683516 250.564494 
L 262.523077 251.445393 
L 268.041758 250.528539 
L 271.720879 249.64764 
L 275.4 250.852135 
L 279.079121 252.218427 
L 280.918681 252.506067 
L 282.758242 252.577978 
L 288.276923 252.27236 
L 293.795604 252.84764 
L 295.635165 253.189213 
L 297.474725 253.207191 
L 299.314286 252.973483 
L 301.153846 252.41618 
L 302.993407 251.661124 
L 304.832967 250.393708 
L 306.672527 250.01618 
L 308.512088 250.08809 
L 310.351648 251.148764 
L 312.191209 252.658876 
L 314.030769 254.645393 
L 315.87033 256.011685 
L 317.70989 257.198202 
L 319.549451 257.737528 
L 321.389011 257.989213 
L 323.228571 258.061124 
L 325.068132 257.413933 
L 326.907692 256.443146 
L 328.747253 254.933034 
L 332.426374 251.463371 
L 334.265934 250.312809 
L 336.105495 249.36 
L 337.945055 248.622921 
L 339.784615 247.094831 
L 341.624176 245.800449 
L 343.463736 246.070112 
L 345.303297 247.130787 
L 347.142857 249.270112 
L 350.821978 257.018427 
L 352.661538 259.858876 
L 354.501099 262.177978 
L 356.340659 263.849888 
L 358.18022 264.389213 
L 360.01978 263.993708 
L 361.859341 262.177978 
L 363.698901 260.739775 
L 365.538462 259.751011 
L 367.378022 259.427416 
L 369.217582 259.751011 
L 371.057143 261.243146 
L 372.896703 262.177978 
L 374.736264 261.710562 
L 376.575824 260.811685 
L 378.415385 259.139775 
L 382.094505 253.926292 
L 383.934066 252.074607 
L 385.773626 251.858876 
L 387.613187 252.685843 
L 389.452747 254.537528 
L 391.292308 256.604944 
L 393.131868 258.852135 
L 394.971429 259.607191 
L 396.810989 259.840899 
L 398.650549 259.697079 
L 400.49011 259.229663 
L 404.169231 257.953258 
L 406.008791 257.36 
L 407.848352 256.910562 
L 411.527473 256.443146 
L 413.367033 256.04764 
L 417.046154 255.54427 
L 418.885714 254.771236 
L 420.725275 255.598202 
L 422.564835 257.611685 
L 424.404396 260.70382 
L 426.243956 264.946517 
L 428.083516 269.87236 
L 429.923077 273.07236 
L 431.762637 274.186966 
L 433.602198 273.881348 
L 435.441758 272.425169 
L 439.120879 268.919551 
L 440.96044 268.092584 
L 442.8 267.679101 
L 444.63956 267.733034 
L 446.479121 267.930787 
L 448.318681 268.667865 
L 450.158242 269.530787 
L 451.997802 270.16 
L 455.676923 270.951011 
L 459.356044 271.202697 
L 461.195604 272.011685 
L 463.035165 273.377978 
L 464.874725 275.697079 
L 466.714286 278.968989 
L 470.393407 288.658876 
L 472.232967 291.067865 
L 474.072527 292.84764 
L 475.912088 292.452135 
L 477.751648 288.802697 
L 479.591209 284.002697 
L 481.430769 280.640899 
L 483.27033 276.613933 
L 485.10989 273.324045 
L 486.949451 271.670112 
L 488.789011 270.771236 
L 490.628571 270.555506 
L 494.307692 271.813933 
L 496.147253 272.425169 
L 497.986813 272.712809 
L 499.826374 272.874607 
L 501.665934 272.497079 
L 503.505495 272.874607 
L 505.345055 273.719551 
L 507.184615 275.409438 
L 509.024176 275.535281 
L 510.863736 274.81618 
L 512.703297 273.773483 
L 514.542857 272.227416 
L 516.382418 270.01618 
L 518.221978 269.476854 
L 520.061538 269.980225 
L 521.901099 270.699326 
L 525.58022 270.843146 
L 527.41978 270.915056 
L 529.259341 270.753258 
L 531.098901 269.800449 
L 532.938462 269.333034 
L 534.778022 268.362247 
L 536.617582 267.085843 
L 538.457143 264.766742 
L 540.296703 263.436404 
L 542.136264 264.407191 
L 543.975824 266.007191 
L 545.815385 268.020674 
L 547.654945 271.112809 
L 549.494505 273.827416 
L 551.334066 274.636404 
L 553.173626 275.17573 
L 555.013187 275.427416 
L 556.852747 275.427416 
L 558.692308 275.301573 
L 560.531868 274.942022 
L 564.210989 273.881348 
L 566.050549 273.539775 
L 567.89011 273.611685 
L 569.72967 274.025169 
L 571.569231 274.690337 
L 573.408791 273.180225 
L 575.248352 272.407191 
L 578.927473 271.328539 
L 580.767033 271.058876 
L 582.606593 273.21618 
L 584.446154 274.528539 
L 586.285714 275.427416 
L 588.125275 275.679101 
L 589.964835 275.319551 
L 591.804396 274.654382 
L 595.483516 273.593708 
L 597.323077 273.252135 
L 599.162637 272.676854 
L 601.002198 272.245393 
L 602.841758 272.011685 
L 606.520879 272.011685 
L 608.36044 272.407191 
L 610.2 272.515056 
L 612.03956 272.371236 
L 613.879121 271.634157 
L 617.558242 272.497079 
L 619.397802 273.737528 
L 621.237363 274.636404 
L 623.076923 275.679101 
L 626.756044 275.679101 
L 628.595604 274.870112 
L 630.435165 274.222921 
L 632.274725 272.928539 
L 634.114286 271.454382 
L 637.793407 269.045393 
L 639.632967 268.326292 
L 643.312088 269.620674 
L 645.151648 270.357753 
L 646.991209 270.681348 
L 648.830769 270.339775 
L 650.67033 269.045393 
L 652.50989 264.658876 
L 654.349451 267.24764 
L 656.189011 269.620674 
L 658.028571 274.043146 
L 659.868132 283.589213 
L 661.707692 286.44764 
L 663.547253 285.728539 
L 665.386813 285.87236 
L 667.226374 283.10382 
L 669.065934 278.070112 
L 670.905495 275.10382 
L 672.745055 274.67236 
L 674.584615 273.539775 
L 676.424176 274.168989 
L 678.263736 275.499326 
L 680.103297 276.506067 
L 683.782418 276.27236 
L 685.621978 275.085843 
L 689.301099 268.452135 
L 691.140659 265.935281 
L 692.98022 264.209438 
L 694.81978 269.386966 
L 696.659341 277.153258 
L 698.498901 280.191461 
L 700.338462 284.56 
L 702.178022 291.03191 
L 704.017582 291.786966 
L 705.857143 291.481348 
L 707.696703 295.094831 
L 709.536264 297.162247 
L 711.375824 296.892584 
L 713.215385 295.652135 
L 716.894505 286.44764 
L 718.734066 280.209438 
L 720.573626 273.50382 
L 722.413187 268.84764 
L 724.252747 270.44764 
L 726.092308 275.445393 
L 727.931868 278.519551 
L 729.771429 283.229663 
L 731.610989 285.764494 
L 733.450549 287.97573 
L 735.29011 287.706067 
L 737.12967 287.220674 
L 738.969231 287.130787 
L 740.808791 285.674607 
L 742.648352 279.562247 
L 744.487912 273.917303 
L 746.327473 271.61618 
L 748.167033 267.697079 
L 750.006593 266.151011 
L 751.846154 267.301573 
L 753.685714 268.038652 
L 755.525275 268.48809 
L 757.364835 266.942022 
L 759.204396 266.564494 
L 761.043956 265.953258 
L 762.883516 267.553258 
L 764.723077 272.065618 
L 766.562637 279.97573 
L 768.402198 285.135281 
L 770.241758 289.000449 
L 772.081319 290.977978 
L 773.920879 287.364494 
L 775.76044 281.971236 
L 777.6 277.458876 
L 777.6 277.458876 
" style="fill:none;stroke:#ff7f0e;stroke-linecap:square;stroke-width:1.5;"/>
   </g>
   <g id="line2d_35">
    <path clip-path="url(#p05f6b83283)" d="M 108 169.413933 
L 109.83956 168.856629 
L 111.679121 168.146517 
L 117.197802 165.530787 
L 119.037363 165.009438 
L 120.876923 164.865618 
L 122.716484 165.261124 
L 128.235165 167.670112 
L 130.074725 167.97573 
L 131.914286 167.786966 
L 133.753846 167.184719 
L 137.432967 165.656629 
L 139.272527 165.045393 
L 141.112088 164.56 
L 144.791209 163.840899 
L 152.149451 161.971236 
L 153.989011 161.593708 
L 155.828571 161.342022 
L 157.668132 161.270112 
L 159.507692 161.539775 
L 163.186813 162.582472 
L 165.026374 163.17573 
L 166.865934 163.625169 
L 168.705495 163.786966 
L 170.545055 163.715056 
L 174.224176 163.121798 
L 176.063736 162.762247 
L 181.582418 160.946517 
L 187.101099 158.995955 
L 188.940659 158.204944 
L 190.78022 157.14427 
L 192.61978 155.921798 
L 194.459341 154.483596 
L 196.298901 155.229663 
L 198.138462 158.01618 
L 199.978022 162.025169 
L 201.817582 166.861124 
L 203.657143 171.265618 
L 205.496703 174.213933 
L 207.336264 174.681348 
L 209.175824 173.620674 
L 211.015385 171.894831 
L 214.694505 167.202697 
L 216.534066 165.998202 
L 222.052747 164.056629 
L 223.892308 163.589213 
L 227.571429 163.03191 
L 229.410989 162.870112 
L 234.92967 162.968989 
L 238.608791 162.681348 
L 240.448352 162.37573 
L 242.287912 161.881348 
L 245.967033 161.054382 
L 247.806593 160.407191 
L 249.646154 159.61618 
L 251.485714 158.44764 
L 253.325275 158.609438 
L 255.164835 159.274607 
L 257.004396 160.083596 
L 258.843956 161.180225 
L 260.683516 163.013933 
L 262.523077 163.786966 
L 264.362637 164.020674 
L 268.041758 164.811685 
L 269.881319 164.919551 
L 271.720879 164.811685 
L 277.23956 165.189213 
L 282.758242 165.764494 
L 286.437363 165.926292 
L 290.116484 165.998202 
L 291.956044 165.836404 
L 295.635165 164.937528 
L 297.474725 164.398202 
L 299.314286 163.724045 
L 301.153846 163.193708 
L 304.832967 162.312809 
L 306.672527 162.465618 
L 308.512088 162.96 
L 310.351648 164.479101 
L 312.191209 166.780225 
L 315.87033 172.48809 
L 317.70989 175.238652 
L 319.549451 177.162247 
L 321.389011 178.456629 
L 323.228571 179.193708 
L 325.068132 178.798202 
L 326.907692 177.64764 
L 328.747253 175.706067 
L 332.426374 171.03191 
L 334.265934 169.162247 
L 336.105495 167.849888 
L 337.945055 167.022921 
L 341.624176 164.84764 
L 343.463736 164.757753 
L 345.303297 165.440899 
L 347.142857 167.10382 
L 348.982418 170.124045 
L 350.821978 173.809438 
L 352.661538 177.135281 
L 354.501099 180.04764 
L 356.340659 182.37573 
L 358.18022 184.137528 
L 360.01978 185.07236 
L 361.859341 184.892584 
L 363.698901 184.389213 
L 365.538462 183.490337 
L 367.378022 182.142022 
L 369.217582 181.027416 
L 374.736264 179.373483 
L 376.575824 178.995955 
L 378.415385 178.240899 
L 383.934066 175.436404 
L 385.773626 174.771236 
L 387.613187 174.807191 
L 389.452747 175.526292 
L 391.292308 176.604944 
L 394.971429 179.24764 
L 396.810989 180.218427 
L 398.650549 180.811685 
L 400.49011 180.991461 
L 402.32967 180.973483 
L 404.169231 180.362247 
L 406.008791 179.391461 
L 409.687912 176.425169 
L 413.367033 173.063371 
L 417.046154 170.258876 
L 418.885714 168.928539 
L 420.725275 168.604944 
L 422.564835 170.798202 
L 424.404396 176.191461 
L 426.243956 185.521798 
L 431.762637 219.912809 
L 433.602198 227.966742 
L 435.441758 232.658876 
L 437.281319 235.337528 
L 439.120879 236.883596 
L 442.8 238.951011 
L 444.63956 239.993708 
L 446.479121 241.180225 
L 448.318681 242.654382 
L 453.837363 247.742022 
L 457.516484 251.571236 
L 459.356044 253.386966 
L 461.195604 255.562247 
L 463.035165 258.402697 
L 464.874725 261.584719 
L 466.714286 265.629663 
L 468.553846 270.897079 
L 470.393407 276.70382 
L 472.232967 281.413933 
L 474.072527 285.189213 
L 475.912088 287.61618 
L 477.751648 288.04764 
L 479.591209 286.933034 
L 481.430769 285.099326 
L 483.27033 282.600449 
L 485.10989 278.663371 
L 488.789011 270.052135 
L 490.628571 266.546517 
L 492.468132 263.97573 
L 494.307692 262.951011 
L 496.147253 263.148764 
L 497.986813 264.011685 
L 501.665934 266.474607 
L 507.184615 270.843146 
L 509.024176 271.706067 
L 510.863736 271.256629 
L 512.703297 270.357753 
L 514.542857 268.757753 
L 516.382418 266.762247 
L 518.221978 265.07236 
L 520.061538 264.910562 
L 521.901099 265.07236 
L 525.58022 265.629663 
L 527.41978 265.611685 
L 529.259341 265.036404 
L 531.098901 263.508315 
L 532.938462 260.63191 
L 534.778022 255.83191 
L 536.617582 248.748764 
L 538.457143 238.609438 
L 540.296703 226.348764 
L 542.136264 228.380225 
L 543.975824 233.467865 
L 545.815385 241.629663 
L 547.654945 253.494831 
L 549.494505 268.398202 
L 551.334066 270.717303 
L 553.173626 271.97573 
L 555.013187 272.712809 
L 556.852747 272.946517 
L 558.692308 272.874607 
L 560.531868 272.640899 
L 566.050549 271.652135 
L 569.72967 271.598202 
L 571.569231 271.83191 
L 573.408791 270.44764 
L 575.248352 269.728539 
L 577.087912 269.512809 
L 580.767033 269.386966 
L 582.606593 271.256629 
L 584.446154 272.551011 
L 586.285714 273.36 
L 588.125275 273.809438 
L 589.964835 273.989213 
L 591.804396 273.773483 
L 595.483516 273.000449 
L 597.323077 272.586966 
L 601.002198 271.130787 
L 602.841758 270.591461 
L 606.520879 270.142022 
L 612.03956 270.735281 
L 613.879121 270.411685 
L 615.718681 270.645393 
L 617.558242 271.058876 
L 623.076923 273.863371 
L 624.916484 274.330787 
L 626.756044 274.618427 
L 628.595604 274.294831 
L 630.435165 273.827416 
L 632.274725 272.784719 
L 634.114286 270.897079 
L 635.953846 268.34427 
L 637.793407 265.521798 
L 641.472527 258.852135 
L 643.312088 253.404944 
L 645.151648 246.879101 
L 646.991209 238.879101 
L 650.67033 220.811685 
L 652.50989 214.177978 
L 654.349451 230.142022 
L 656.189011 242.852135 
L 658.028571 257.719551 
L 659.868132 274.115056 
L 661.707692 279.957753 
L 663.547253 283.03191 
L 665.386813 284.829663 
L 667.226374 284.829663 
L 669.065934 283.337528 
L 670.905495 281.557753 
L 672.745055 280.353258 
L 674.584615 279.580225 
L 676.424176 277.854382 
L 680.103297 273.21618 
L 681.942857 270.573483 
L 683.782418 267.157753 
L 685.621978 262.753258 
L 689.301099 252.41618 
L 691.140659 247.68809 
L 692.98022 245.980225 
L 694.81978 251.571236 
L 696.659341 260.77573 
L 700.338462 277.980225 
L 702.178022 285.189213 
L 704.017582 288.317303 
L 705.857143 289.701573 
L 707.696703 291.930787 
L 709.536264 293.602697 
L 711.375824 294.393708 
L 713.215385 294.177978 
L 715.054945 291.930787 
L 716.894505 287.795955 
L 718.734066 279.562247 
L 720.573626 270.771236 
L 722.413187 265.000449 
L 724.252747 264.155506 
L 726.092308 267.822921 
L 727.931868 274.510562 
L 729.771429 281.683596 
L 731.610989 286.052135 
L 733.450549 288.155506 
L 735.29011 287.993708 
L 738.969231 289.054382 
L 740.808791 289.180225 
L 742.648352 286.142022 
L 744.487912 278.44764 
L 746.327473 268.865618 
L 750.006593 251.948764 
L 751.846154 245.602697 
L 753.685714 244.973483 
L 755.525275 246.591461 
L 759.204396 247.076854 
L 761.043956 248.137528 
L 762.883516 251.427416 
L 764.723077 258.151011 
L 770.241758 287.076854 
L 772.081319 291.804944 
L 773.920879 291.10382 
L 775.76044 284.34427 
L 777.6 276.63191 
L 777.6 276.63191 
" style="fill:none;stroke:#2ca02c;stroke-linecap:square;stroke-width:1.5;"/>
   </g>
   <g id="line2d_36">
    <path clip-path="url(#p05f6b83283)" d="M 108 148.425169 
L 111.679121 148.667865 
L 113.518681 148.667865 
L 119.037363 148.155506 
L 120.876923 148.27236 
L 122.716484 148.524045 
L 128.235165 150.151011 
L 130.074725 150.204944 
L 131.914286 150.070112 
L 135.593407 149.351011 
L 139.272527 148.568989 
L 142.951648 147.885843 
L 144.791209 147.508315 
L 148.47033 147.166742 
L 152.149451 147.013933 
L 153.989011 147.03191 
L 155.828571 146.429663 
L 157.668132 144.182472 
L 159.507692 140.551011 
L 161.347253 135.751011 
L 163.186813 130.312809 
L 165.026374 124.506067 
L 166.865934 119.652135 
L 168.705495 115.715056 
L 172.384615 109.054382 
L 176.063736 103.54427 
L 177.903297 100.290337 
L 179.742857 96.748764 
L 183.421978 88.982472 
L 185.261538 84.326292 
L 187.101099 79.328539 
L 188.940659 75.004944 
L 190.78022 71.54427 
L 192.61978 68.667865 
L 194.459341 66.96 
L 198.138462 83.733034 
L 199.978022 93.728539 
L 201.817582 105.36 
L 203.657143 114.74427 
L 205.496703 122.654382 
L 207.336264 128.27236 
L 209.175824 132.991461 
L 211.015385 136.551011 
L 212.854945 138.834157 
L 214.694505 140.479101 
L 216.534066 141.755506 
L 218.373626 141.791461 
L 223.892308 140.577978 
L 225.731868 139.948764 
L 233.09011 138.924045 
L 236.769231 138.753258 
L 238.608791 139.121798 
L 240.448352 139.840899 
L 242.287912 140.70382 
L 245.967033 142.690337 
L 247.806593 143.364494 
L 251.485714 143.795955 
L 255.164835 143.984719 
L 257.004396 144.227416 
L 260.683516 145.099326 
L 262.523077 145.773483 
L 264.362637 146.195955 
L 266.202198 146.474607 
L 268.041758 146.609438 
L 269.881319 146.097079 
L 271.720879 144.173483 
L 273.56044 141.458876 
L 275.4 137.611685 
L 280.918681 122.483596 
L 282.758242 117.737528 
L 284.597802 113.485843 
L 286.437363 110.186966 
L 288.276923 107.643146 
L 290.116484 105.809438 
L 291.956044 104.973483 
L 293.795604 105.413933 
L 295.635165 106.74427 
L 297.474725 108.586966 
L 299.314286 110.717303 
L 302.993407 116.380225 
L 304.832967 119.040899 
L 306.672527 123.022921 
L 308.512088 127.768989 
L 310.351648 132.84764 
L 315.87033 148.910562 
L 317.70989 153.50382 
L 319.549451 157.422921 
L 321.389011 160.766742 
L 323.228571 163.445393 
L 325.068132 164.901573 
L 328.747253 166.717303 
L 332.426374 169.126292 
L 334.265934 170.67236 
L 336.105495 171.409438 
L 337.945055 170.079101 
L 339.784615 167.598202 
L 343.463736 162.312809 
L 345.303297 160.694831 
L 347.142857 160.946517 
L 348.982418 162.007191 
L 354.501099 165.818427 
L 356.340659 166.753258 
L 358.18022 167.454382 
L 360.01978 167.742022 
L 361.859341 167.580225 
L 363.698901 167.130787 
L 367.378022 165.962247 
L 369.217582 165.512809 
L 374.736264 164.721798 
L 378.415385 164.362247 
L 380.254945 163.804944 
L 382.094505 162.726292 
L 383.934066 160.586966 
L 385.773626 157.836404 
L 389.452747 151.634157 
L 391.292308 149.027416 
L 394.971429 145.827416 
L 398.650549 143.652135 
L 400.49011 142.627416 
L 402.32967 141.333034 
L 404.169231 140.236404 
L 406.008791 138.977978 
L 407.848352 137.971236 
L 409.687912 137.180225 
L 411.527473 137.036404 
L 413.367033 137.377978 
L 415.206593 138.456629 
L 417.046154 140.128539 
L 418.885714 142.285843 
L 420.725275 144.622921 
L 422.564835 148.982472 
L 424.404396 155.54427 
L 426.243956 164.407191 
L 428.083516 174.924045 
L 429.923077 186.861124 
L 431.762637 197.602697 
L 433.602198 206.429663 
L 435.441758 212.70382 
L 437.281319 216.982472 
L 439.120879 219.319551 
L 440.96044 220.577978 
L 446.479121 221.94427 
L 448.318681 222.807191 
L 450.158242 224.497079 
L 451.997802 226.492584 
L 453.837363 228.77573 
L 455.676923 231.436404 
L 457.516484 234.456629 
L 459.356044 237.261124 
L 461.195604 240.281348 
L 464.874725 247.202697 
L 466.714286 250.852135 
L 468.553846 255.112809 
L 472.232967 264.065618 
L 474.072527 268.038652 
L 475.912088 271.418427 
L 477.751648 273.485843 
L 479.591209 274.330787 
L 481.430769 274.402697 
L 483.27033 273.737528 
L 485.10989 272.425169 
L 486.949451 270.968989 
L 488.789011 269.710562 
L 492.468132 266.528539 
L 494.307692 265.180225 
L 496.147253 264.173483 
L 497.986813 263.436404 
L 499.826374 263.508315 
L 501.665934 263.83191 
L 503.505495 264.461124 
L 507.184615 266.079101 
L 509.024176 266.564494 
L 510.863736 266.708315 
L 512.703297 266.582472 
L 514.542857 266.061124 
L 520.061538 263.202697 
L 521.901099 262.735281 
L 523.740659 262.411685 
L 525.58022 262.411685 
L 529.259341 262.573483 
L 531.098901 262.177978 
L 532.938462 261.602697 
L 538.457143 259.03191 
L 540.296703 258.474607 
L 542.136264 258.546517 
L 543.975824 259.715056 
L 545.815385 261.422921 
L 547.654945 263.400449 
L 551.334066 267.589213 
L 553.173626 268.955506 
L 555.013187 269.926292 
L 556.852747 270.663371 
L 558.692308 271.148764 
L 560.531868 271.238652 
L 562.371429 270.986966 
L 567.89011 269.800449 
L 569.72967 269.638652 
L 571.569231 269.800449 
L 573.408791 269.548764 
L 580.767033 268.074607 
L 582.606593 268.236404 
L 588.125275 269.261124 
L 591.804396 269.153258 
L 595.483516 268.793708 
L 606.520879 267.715056 
L 612.03956 267.661124 
L 613.879121 267.481348 
L 615.718681 267.10382 
L 617.558242 266.240899 
L 619.397802 264.748764 
L 621.237363 262.717303 
L 624.916484 258.204944 
L 626.756044 256.353258 
L 630.435165 253.081348 
L 632.274725 250.600449 
L 634.114286 247.652135 
L 635.953846 244.308315 
L 637.793407 241.198202 
L 639.632967 237.386966 
L 641.472527 234.007191 
L 643.312088 229.87236 
L 645.151648 225.054382 
L 650.67033 206.249888 
L 652.50989 201.935281 
L 654.349451 209.395955 
L 656.189011 217.665618 
L 658.028571 228.146517 
L 659.868132 239.777978 
L 661.707692 247.148764 
L 663.547253 252.595955 
L 665.386813 256.874607 
L 667.226374 259.283596 
L 669.065934 260.146517 
L 670.905495 260.380225 
L 672.745055 260.452135 
L 676.424176 260.164494 
L 678.263736 259.804944 
L 681.942857 258.67236 
L 687.461538 256.479101 
L 691.140659 255.364494 
L 692.98022 255.076854 
L 694.81978 255.238652 
L 696.659341 255.724045 
L 698.498901 256.712809 
L 700.338462 258.133034 
L 704.017582 261.87236 
L 705.857143 263.849888 
L 707.696703 265.611685 
L 711.375824 268.506067 
L 713.215385 269.638652 
L 715.054945 270.393708 
L 716.894505 270.897079 
L 718.734066 270.807191 
L 720.573626 270.249888 
L 726.092308 268.020674 
L 729.771429 267.391461 
L 733.450549 266.977978 
L 735.29011 266.600449 
L 737.12967 266.007191 
L 738.969231 265.090337 
L 740.808791 263.849888 
L 742.648352 262.08809 
L 746.327473 257.863371 
L 748.167033 255.68809 
L 750.006593 253.710562 
L 751.846154 252.380225 
L 753.685714 251.535281 
L 755.525275 251.355506 
L 757.364835 251.930787 
L 761.043956 254.16 
L 762.883516 255.90382 
L 764.723077 258.007191 
L 766.562637 260.63191 
L 770.241758 266.564494 
L 772.081319 269.009438 
L 773.920879 270.627416 
L 775.76044 271.130787 
L 777.6 270.735281 
L 777.6 270.735281 
" style="fill:none;stroke:#d62728;stroke-linecap:square;stroke-width:1.5;"/>
   </g>
   <g id="line2d_37">
    <path clip-path="url(#p05f6b83283)" d="M 108 114.213933 
L 113.518681 113.998202 
L 117.197802 113.36 
L 120.876923 112.407191 
L 124.556044 111.535281 
L 130.074725 110.37573 
L 131.914286 109.845393 
L 133.753846 109.171236 
L 135.593407 108.101573 
L 137.432967 106.420674 
L 141.112088 102.429663 
L 142.951648 100.524045 
L 144.791209 98.933034 
L 146.630769 97.962247 
L 163.186813 92.964494 
L 172.384615 90.968989 
L 174.224176 90.348764 
L 176.063736 89.566742 
L 179.742857 88.317303 
L 185.261538 85.593708 
L 188.940659 83.292584 
L 190.78022 82.618427 
L 192.61978 82.204944 
L 194.459341 82.043146 
L 196.298901 82.771236 
L 199.978022 83.97573 
L 201.817582 84.658876 
L 203.657143 85.14427 
L 205.496703 85.43191 
L 209.175824 85.557753 
L 212.854945 85.297079 
L 218.373626 84.622921 
L 222.052747 84.074607 
L 225.731868 83.733034 
L 229.410989 83.670112 
L 234.92967 83.598202 
L 244.127473 83.382472 
L 257.004396 83.508315 
L 264.362637 83.697079 
L 293.795604 83.804944 
L 297.474725 84.443146 
L 301.153846 85.342022 
L 302.993407 86.402697 
L 304.832967 87.733034 
L 306.672527 89.494831 
L 308.512088 91.571236 
L 310.351648 93.998202 
L 312.191209 96.137528 
L 314.030769 97.971236 
L 315.87033 99.463371 
L 317.70989 100.63191 
L 319.549451 101.422921 
L 321.389011 101.854382 
L 323.228571 102.124045 
L 325.068132 102.213933 
L 326.907692 102.897079 
L 328.747253 104.479101 
L 332.426374 108.811685 
L 334.265934 111.382472 
L 336.105495 113.539775 
L 337.945055 114.708315 
L 339.784615 115.319551 
L 341.624176 115.804944 
L 347.142857 116.883596 
L 350.821978 118.142022 
L 352.661538 118.681348 
L 354.501099 119.004944 
L 356.340659 119.166742 
L 360.01978 118.968989 
L 363.698901 118.30382 
L 367.378022 117.584719 
L 371.057143 117.117303 
L 378.415385 116.70382 
L 382.094505 116.182472 
L 387.613187 115.319551 
L 393.131868 114.924045 
L 404.169231 114.474607 
L 409.687912 114.492584 
L 413.367033 115.085843 
L 415.206593 115.625169 
L 417.046154 116.48809 
L 418.885714 117.692584 
L 420.725275 119.256629 
L 422.564835 122.079101 
L 424.404396 126.052135 
L 426.243956 130.906067 
L 429.923077 141.351011 
L 431.762637 145.485843 
L 433.602198 148.595955 
L 435.441758 150.627416 
L 437.281319 152.029663 
L 439.120879 152.874607 
L 440.96044 153.324045 
L 446.479121 153.719551 
L 448.318681 154.420674 
L 450.158242 155.715056 
L 451.997802 157.836404 
L 453.837363 160.533034 
L 455.676923 163.625169 
L 459.356044 170.294831 
L 461.195604 173.333034 
L 463.035165 176.676854 
L 464.874725 180.811685 
L 466.714286 185.521798 
L 468.553846 191.220674 
L 472.232967 204.48809 
L 474.072527 210.007191 
L 475.912088 214.321798 
L 477.751648 216.658876 
L 479.591209 217.180225 
L 481.430769 215.867865 
L 483.27033 213.710562 
L 486.949451 207.382472 
L 488.789011 203.679101 
L 490.628571 200.389213 
L 492.468132 197.746517 
L 494.307692 195.840899 
L 496.147253 194.618427 
L 497.986813 194.294831 
L 503.505495 194.726292 
L 507.184615 195.139775 
L 510.863736 195.301573 
L 514.542857 195.319551 
L 516.382418 195.085843 
L 521.901099 194.01618 
L 523.740659 193.782472 
L 525.58022 193.782472 
L 529.259341 194.061124 
L 532.938462 193.827416 
L 538.457143 193.234157 
L 540.296703 193.21618 
L 542.136264 193.413933 
L 547.654945 194.528539 
L 549.494505 194.81618 
L 551.334066 194.942022 
L 558.692308 194.870112 
L 560.531868 194.67236 
L 562.371429 194.186966 
L 564.210989 193.485843 
L 567.89011 191.849888 
L 569.72967 191.238652 
L 571.569231 190.915056 
L 573.408791 190.807191 
L 580.767033 190.843146 
L 588.125275 190.735281 
L 591.804396 190.537528 
L 597.323077 190.555506 
L 604.681319 191.706067 
L 606.520879 192.173483 
L 610.2 192.748764 
L 613.879121 192.910562 
L 619.397802 192.910562 
L 632.274725 193.377978 
L 634.114286 193.485843 
L 643.312088 193.467865 
L 648.830769 193.683596 
L 652.50989 193.593708 
L 656.189011 194.366742 
L 658.028571 195.355506 
L 659.868132 196.919551 
L 661.707692 198.897079 
L 663.547253 201.234157 
L 665.386813 203.876854 
L 667.226374 206.195955 
L 669.065934 208.119551 
L 670.905495 209.683596 
L 672.745055 210.995955 
L 674.584615 211.858876 
L 676.424176 212.524045 
L 678.263736 212.955506 
L 680.103297 213.207191 
L 683.782418 213.422921 
L 685.621978 213.584719 
L 687.461538 213.908315 
L 689.301099 214.429663 
L 692.98022 216.245393 
L 698.498901 220.308315 
L 700.338462 221.746517 
L 704.017582 225.234157 
L 705.857143 227.157753 
L 707.696703 229.261124 
L 709.536264 231.040899 
L 711.375824 232.425169 
L 713.215385 233.43191 
L 715.054945 234.007191 
L 716.894505 234.402697 
L 720.573626 234.798202 
L 729.771429 235.157753 
L 733.450549 235.301573 
L 735.29011 235.265618 
L 738.969231 234.834157 
L 744.487912 233.755506 
L 751.846154 232.389213 
L 753.685714 232.317303 
L 755.525275 232.425169 
L 757.364835 232.676854 
L 759.204396 233.198202 
L 764.723077 235.319551 
L 766.562637 235.858876 
L 768.402198 236.128539 
L 772.081319 236.200449 
L 775.76044 235.715056 
L 777.6 235.355506 
L 777.6 235.355506 
" style="fill:none;stroke:#9467bd;stroke-linecap:square;stroke-width:1.5;"/>
   </g>
   <g id="patch_3">
    <path d="M 108 384.48 
L 108 51.84 
" style="fill:none;stroke:#000000;stroke-linecap:square;stroke-linejoin:miter;stroke-width:0.8;"/>
   </g>
   <g id="patch_4">
    <path d="M 777.6 384.48 
L 777.6 51.84 
" style="fill:none;stroke:#000000;stroke-linecap:square;stroke-linejoin:miter;stroke-width:0.8;"/>
   </g>
   <g id="patch_5">
    <path d="M 108 384.48 
L 777.6 384.48 
" style="fill:none;stroke:#000000;stroke-linecap:square;stroke-linejoin:miter;stroke-width:0.8;"/>
   </g>
   <g id="patch_6">
    <path d="M 108 51.84 
L 777.6 51.84 
" style="fill:none;stroke:#000000;stroke-linecap:square;stroke-linejoin:miter;stroke-width:0.8;"/>
   </g>
   <g id="legend_1">
    <g id="patch_7">
     <path d="M 678.409375 137.238438 
L 770.6 137.238438 
Q 772.6 137.238438 772.6 135.238438 
L 772.6 58.84 
Q 772.6 56.84 770.6 56.84 
L 678.409375 56.84 
Q 676.409375 56.84 676.409375 58.84 
L 676.409375 135.238438 
Q 676.409375 137.238438 678.409375 137.238438 
z
" style="fill:#ffffff;opacity:0.8;stroke:#cccccc;stroke-linejoin:miter;"/>
    </g>
    <g id="line2d_38">
     <path d="M 680.409375 65.33375 
L 700.409375 65.33375 
" style="fill:none;stroke:#1f77b4;stroke-linecap:square;stroke-width:1.5;"/>
    </g>
    <g id="line2d_39"/>
    <g id="text_18">
     <!-- 隔夜-5日均值 -->
     <defs>
      <path d="M 32.90625 28.5625 
Q 35.25 10.296875 24.21875 7.953125 
Q 20.40625 7.28125 15.328125 7.859375 
Q 14.546875 11.671875 13.28125 15.28125 
L 13.28125 -13.03125 
L 6.25 -13.03125 
L 6.25 78.65625 
L 32.8125 78.65625 
L 32.8125 72.125 
Q 28.03125 55.71875 24.90625 46.234375 
Q 31.9375 36.578125 32.90625 28.5625 
z
M 44.53125 -13.234375 
L 37.703125 -13.234375 
L 37.703125 37.453125 
L 94.34375 37.453125 
L 94.34375 -3.65625 
Q 94.34375 -12.84375 85.25 -12.84375 
Q 80.953125 -12.84375 74.609375 -12.75 
Q 74.125 -10.5 73.140625 -5.421875 
Q 79 -5.8125 83.5 -5.8125 
Q 87.5 -5.8125 87.5 -1.703125 
L 87.5 31.390625 
L 44.53125 31.390625 
z
M 43.359375 65.765625 
L 88.484375 65.765625 
L 88.484375 41.75 
L 81.453125 41.75 
L 81.453125 44.28125 
L 50.390625 44.28125 
L 50.390625 41.75 
L 43.359375 41.75 
z
M 21.484375 14.890625 
Q 27.734375 15.578125 25.6875 28.265625 
Q 24.421875 36.46875 17.671875 44.96875 
Q 21.875 57.46875 25.78125 72.125 
L 13.28125 72.125 
L 13.28125 15.671875 
Q 17.671875 14.5 21.484375 14.890625 
z
M 47.859375 15.28125 
L 67.578125 15.28125 
Q 72.515625 24.21875 75.296875 30.515625 
L 81.734375 27 
Q 78.078125 20.90625 74.46875 15.28125 
L 84.1875 15.28125 
L 84.1875 9.421875 
L 69.234375 9.421875 
L 69.234375 -11.671875 
L 62.59375 -11.671875 
L 62.59375 9.421875 
L 47.859375 9.421875 
z
M 37.109375 78.765625 
L 96.296875 78.765625 
L 96.296875 72.40625 
L 37.109375 72.40625 
z
M 81.453125 59.90625 
L 50.390625 59.90625 
L 50.390625 50.140625 
L 81.453125 50.140625 
z
M 50.390625 27.296875 
L 55.765625 30.421875 
Q 59.96875 24.859375 62.890625 19.390625 
L 57.03125 15.96875 
Q 54.296875 21.234375 50.390625 27.296875 
z
" id="MicrosoftYaHei-9694"/>
      <path d="M 27.828125 23.578125 
Q 42.578125 39.40625 51.265625 60.890625 
L 58.6875 58.34375 
Q 56.9375 54.34375 55.03125 50.53125 
L 89.15625 50.53125 
L 89.15625 43.5 
Q 82.125 21.625 69.1875 8.15625 
Q 81.453125 -0.390625 98.640625 -4.734375 
Q 95.703125 -9.03125 93.5625 -12.9375 
Q 75.390625 -7.078125 62.984375 2.484375 
Q 51.3125 -6.84375 34.375 -13.53125 
Q 32.515625 -10.5 29.5 -6.6875 
Q 45.515625 -0.484375 56.78125 7.953125 
Q 48.578125 16.359375 42.28125 29.15625 
Q 38.28125 23.53125 33.796875 18.40625 
Q 30.5625 21.4375 27.828125 23.578125 
z
M 2.9375 69.09375 
L 50.734375 69.09375 
Q 47.703125 74.265625 43.65625 79.734375 
L 49.8125 83.734375 
Q 53.8125 78.65625 58.015625 72.015625 
L 53.421875 69.09375 
L 97.5625 69.09375 
L 97.5625 61.859375 
L 2.9375 61.859375 
z
M 1.5625 23 
Q 18.265625 40.484375 26.46875 60.984375 
L 33.984375 58.453125 
Q 28.90625 47.859375 23.640625 39.203125 
L 23.640625 -13.03125 
L 16.21875 -13.03125 
L 16.21875 28.078125 
Q 10.5 20.359375 4.59375 14.796875 
Q 3.21875 18.703125 1.5625 23 
z
M 81.15625 43.5 
L 51.3125 43.5 
Q 49.171875 39.546875 46.78125 35.84375 
Q 53.421875 22.078125 62.9375 13.234375 
Q 75 24.953125 81.15625 43.5 
z
M 54.203125 35.296875 
L 58.890625 39.890625 
Q 64.546875 35.109375 69.734375 29.640625 
L 64.453125 24.5625 
Q 60.453125 29.34375 54.203125 35.296875 
z
" id="MicrosoftYaHei-591c"/>
      <path d="M 35.0625 43.796875 
Q 45.796875 61.765625 52.15625 83.15625 
L 59.96875 80.8125 
Q 57.671875 74.125 55.171875 67.921875 
L 93.953125 67.921875 
Q 92.578125 16.453125 91.796875 4.640625 
Q 91.109375 -10.890625 75.09375 -10.890625 
Q 65.4375 -10.890625 57.90625 -10.5 
Q 57.328125 -6.59375 56.34375 -2.203125 
L 56.640625 -2.203125 
Q 66.40625 -3.265625 74.609375 -3.265625 
Q 83.59375 -3.265625 84.28125 5.90625 
Q 85.25 22.609375 86.140625 60.796875 
L 52.203125 60.796875 
Q 47.3125 49.5625 41.796875 40.1875 
Q 38.765625 42.046875 35.0625 43.796875 
z
M 1.265625 6.6875 
Q 8.734375 9.375 15.71875 12.015625 
L 15.71875 50.828125 
L 2.640625 50.828125 
L 2.640625 57.765625 
L 15.71875 57.765625 
L 15.71875 82.171875 
L 22.953125 82.171875 
L 22.953125 57.765625 
L 35.640625 57.765625 
L 35.640625 50.828125 
L 22.953125 50.828125 
L 22.953125 14.796875 
Q 30.03125 17.578125 36.53125 20.359375 
Q 36.71875 15.484375 37.015625 12.25 
Q 21.296875 6.296875 3.90625 -0.828125 
z
M 39.265625 13.328125 
Q 58.890625 21.140625 79.984375 30.21875 
Q 80.46875 25.640625 81.0625 22.40625 
Q 62.984375 14.796875 42.28125 5.609375 
z
M 49.03125 45.453125 
L 54.390625 50.25 
Q 62.890625 42.4375 70.796875 34.625 
L 64.453125 29.046875 
Q 56.9375 37.640625 49.03125 45.453125 
z
" id="MicrosoftYaHei-5747"/>
      <path d="M 25.296875 -3.375 
L 35.15625 -3.375 
L 35.15625 57.078125 
L 58.203125 57.078125 
L 58.203125 65.96875 
L 29.890625 65.96875 
L 29.890625 72.609375 
L 58.203125 72.609375 
L 58.203125 82.953125 
L 65.625 82.953125 
L 65.625 72.609375 
L 96.390625 72.609375 
L 96.390625 65.96875 
L 65.625 65.96875 
L 65.625 57.078125 
L 89.265625 57.078125 
L 89.265625 -3.375 
L 98.53125 -3.375 
L 98.53125 -10.015625 
L 25.296875 -10.015625 
z
M 1.078125 35.109375 
Q 14.15625 54.640625 21.390625 82.46875 
L 28.609375 80.328125 
Q 24.703125 67.71875 20.125 56.6875 
L 20.125 -12.75 
L 12.984375 -12.75 
L 12.984375 41.65625 
Q 8.796875 33.84375 4.109375 27.09375 
Q 2.734375 31.203125 1.078125 35.109375 
z
M 42.390625 -3.375 
L 82.03125 -3.375 
L 82.03125 5.515625 
L 42.390625 5.515625 
z
M 82.03125 50.640625 
L 42.390625 50.640625 
L 42.390625 41.84375 
L 82.03125 41.84375 
z
M 42.390625 26.8125 
L 82.03125 26.8125 
L 82.03125 35.59375 
L 42.390625 35.59375 
z
M 42.390625 11.765625 
L 82.03125 11.765625 
L 82.03125 20.5625 
L 42.390625 20.5625 
z
" id="MicrosoftYaHei-503c"/>
     </defs>
     <g transform="translate(708.409375 68.83375)scale(0.1 -0.1)">
      <use xlink:href="#MicrosoftYaHei-9694"/>
      <use x="100" xlink:href="#MicrosoftYaHei-591c"/>
      <use x="200" xlink:href="#MicrosoftYaHei-2d"/>
      <use x="243.261719" xlink:href="#MicrosoftYaHei-35"/>
      <use x="301.904297" xlink:href="#MicrosoftYaHei-65e5"/>
      <use x="401.904297" xlink:href="#MicrosoftYaHei-5747"/>
      <use x="501.904297" xlink:href="#MicrosoftYaHei-503c"/>
     </g>
    </g>
    <g id="line2d_40">
     <path d="M 680.409375 80.813438 
L 700.409375 80.813438 
" style="fill:none;stroke:#ff7f0e;stroke-linecap:square;stroke-width:1.5;"/>
    </g>
    <g id="line2d_41"/>
    <g id="text_19">
     <!-- 1W-5日均值 -->
     <defs>
      <path d="M 100.484375 75.640625 
L 79.296875 0 
L 67.921875 0 
L 52.6875 54.5 
Q 51.65625 58.203125 51.46875 62.3125 
L 51.265625 62.3125 
Q 50.984375 58.25 49.90625 54.59375 
L 34.515625 0 
L 23.25 0 
L 1.3125 75.640625 
L 12.109375 75.640625 
L 27.546875 18.5 
Q 28.5625 14.65625 28.765625 10.75 
L 29.046875 10.75 
Q 29.296875 13.671875 30.671875 18.5 
L 47.015625 75.640625 
L 56.640625 75.640625 
L 72.265625 18.0625 
Q 73.046875 15.234375 73.53125 10.84375 
L 73.734375 10.84375 
Q 73.96875 14.015625 75.140625 18.265625 
L 89.984375 75.640625 
z
" id="MicrosoftYaHei-57"/>
     </defs>
     <g transform="translate(708.409375 84.313438)scale(0.1 -0.1)">
      <use xlink:href="#MicrosoftYaHei-31"/>
      <use x="58.642578" xlink:href="#MicrosoftYaHei-57"/>
      <use x="160.400391" xlink:href="#MicrosoftYaHei-2d"/>
      <use x="203.662109" xlink:href="#MicrosoftYaHei-35"/>
      <use x="262.304688" xlink:href="#MicrosoftYaHei-65e5"/>
      <use x="362.304688" xlink:href="#MicrosoftYaHei-5747"/>
      <use x="462.304688" xlink:href="#MicrosoftYaHei-503c"/>
     </g>
    </g>
    <g id="line2d_42">
     <path d="M 680.409375 96.293125 
L 700.409375 96.293125 
" style="fill:none;stroke:#2ca02c;stroke-linecap:square;stroke-width:1.5;"/>
    </g>
    <g id="line2d_43"/>
    <g id="text_20">
     <!-- 2W-5日均值 -->
     <g transform="translate(708.409375 99.793125)scale(0.1 -0.1)">
      <use xlink:href="#MicrosoftYaHei-32"/>
      <use x="58.642578" xlink:href="#MicrosoftYaHei-57"/>
      <use x="160.400391" xlink:href="#MicrosoftYaHei-2d"/>
      <use x="203.662109" xlink:href="#MicrosoftYaHei-35"/>
      <use x="262.304688" xlink:href="#MicrosoftYaHei-65e5"/>
      <use x="362.304688" xlink:href="#MicrosoftYaHei-5747"/>
      <use x="462.304688" xlink:href="#MicrosoftYaHei-503c"/>
     </g>
    </g>
    <g id="line2d_44">
     <path d="M 680.409375 111.772812 
L 700.409375 111.772812 
" style="fill:none;stroke:#d62728;stroke-linecap:square;stroke-width:1.5;"/>
    </g>
    <g id="line2d_45"/>
    <g id="text_21">
     <!-- 1M-5日均值 -->
     <defs>
      <path d="M 78.171875 0 
L 78.171875 50.09375 
Q 78.171875 56.296875 78.90625 64.984375 
L 78.65625 64.984375 
Q 77.390625 59.515625 76.421875 57.375 
L 51.46875 0 
L 46.046875 0 
L 21.140625 56.9375 
Q 20.265625 58.890625 18.890625 64.984375 
L 18.609375 64.984375 
Q 19.09375 59.71875 19.09375 49.65625 
L 19.09375 0 
L 9.765625 0 
L 9.765625 75.640625 
L 23 75.640625 
L 45.3125 23.78125 
Q 47.859375 17.828125 48.6875 14.5 
L 49.03125 14.5 
Q 51.5625 21.484375 52.59375 23.96875 
L 75.296875 75.640625 
L 87.890625 75.640625 
L 87.890625 0 
z
" id="MicrosoftYaHei-4d"/>
     </defs>
     <g transform="translate(708.409375 115.272812)scale(0.1 -0.1)">
      <use xlink:href="#MicrosoftYaHei-31"/>
      <use x="58.642578" xlink:href="#MicrosoftYaHei-4d"/>
      <use x="156.347656" xlink:href="#MicrosoftYaHei-2d"/>
      <use x="199.609375" xlink:href="#MicrosoftYaHei-35"/>
      <use x="258.251953" xlink:href="#MicrosoftYaHei-65e5"/>
      <use x="358.251953" xlink:href="#MicrosoftYaHei-5747"/>
      <use x="458.251953" xlink:href="#MicrosoftYaHei-503c"/>
     </g>
    </g>
    <g id="line2d_46">
     <path d="M 680.409375 127.2525 
L 700.409375 127.2525 
" style="fill:none;stroke:#9467bd;stroke-linecap:square;stroke-width:1.5;"/>
    </g>
    <g id="line2d_47"/>
    <g id="text_22">
     <!-- 1Y-5日均值 -->
     <defs>
      <path d="M 59.8125 75.640625 
L 34.90625 27.828125 
L 34.90625 0 
L 25.09375 0 
L 25.09375 27.59375 
L 0.828125 75.640625 
L 12.015625 75.640625 
L 28.375 42.140625 
Q 28.421875 42.09375 30.171875 37.3125 
L 30.328125 37.3125 
Q 30.90625 39.359375 32.328125 42.09375 
L 49.421875 75.640625 
z
" id="MicrosoftYaHei-59"/>
     </defs>
     <g transform="translate(708.409375 130.7525)scale(0.1 -0.1)">
      <use xlink:href="#MicrosoftYaHei-31"/>
      <use x="58.642578" xlink:href="#MicrosoftYaHei-59"/>
      <use x="118.994141" xlink:href="#MicrosoftYaHei-2d"/>
      <use x="162.255859" xlink:href="#MicrosoftYaHei-35"/>
      <use x="220.898438" xlink:href="#MicrosoftYaHei-65e5"/>
      <use x="320.898438" xlink:href="#MicrosoftYaHei-5747"/>
      <use x="420.898438" xlink:href="#MicrosoftYaHei-503c"/>
     </g>
    </g>
   </g>
  </g>
 </g>
 <defs>
  <clipPath id="p05f6b83283">
   <rect height="332.64" width="669.6" x="108" y="51.84"/>
  </clipPath>
 </defs>
</svg>
