<?xml version="1.0" encoding="utf-8" standalone="no"?>
<!DOCTYPE svg PUBLIC "-//W3C//DTD SVG 1.1//EN"
  "http://www.w3.org/Graphics/SVG/1.1/DTD/svg11.dtd">
<!-- Created with matplotlib (http://matplotlib.org/) -->
<svg height="432pt" version="1.1" viewBox="0 0 864 432" width="864pt" xmlns="http://www.w3.org/2000/svg" xmlns:xlink="http://www.w3.org/1999/xlink">
 <defs>
  <style type="text/css">
*{stroke-linecap:butt;stroke-linejoin:round;}
  </style>
 </defs>
 <g id="figure_1">
  <g id="patch_1">
   <path d="M 0 432 
L 864 432 
L 864 0 
L 0 0 
z
" style="fill:#ffffff;"/>
  </g>
  <g id="axes_1">
   <g id="patch_2">
    <path d="M 108 384.48 
L 777.6 384.48 
L 777.6 51.84 
L 108 51.84 
z
" style="fill:#ffffff;"/>
   </g>
   <g id="matplotlib.axis_1">
    <g id="xtick_1">
     <g id="line2d_1">
      <path clip-path="url(#p30163bef22)" d="M 108 384.48 
L 108 51.84 
" style="fill:none;stroke:#b0b0b0;stroke-linecap:square;stroke-width:0.8;"/>
     </g>
     <g id="line2d_2">
      <defs>
       <path d="M 0 0 
L 0 3.5 
" id="me1d7e1c708" style="stroke:#000000;stroke-width:0.8;"/>
      </defs>
      <g>
       <use style="stroke:#000000;stroke-width:0.8;" x="108" xlink:href="#me1d7e1c708" y="384.48"/>
      </g>
     </g>
     <g id="text_1">
      <!-- 2018-01-17 -->
      <defs>
       <path d="M 51.171875 0 
L 5.171875 0 
L 5.171875 8.296875 
L 27.15625 30.21875 
Q 36.234375 39.3125 39.3125 44.609375 
Q 42.390625 49.90625 42.390625 55.5625 
Q 42.390625 62.015625 38.765625 65.453125 
Q 35.15625 68.890625 28.328125 68.890625 
Q 18.21875 68.890625 9.03125 60.296875 
L 9.03125 70.015625 
Q 17.96875 76.90625 29.828125 76.90625 
Q 40.046875 76.90625 45.953125 71.390625 
Q 51.859375 65.875 51.859375 56.546875 
Q 51.859375 49.515625 48.0625 42.75 
Q 44.28125 35.984375 33.734375 25.53125 
L 16.5 8.6875 
L 16.5 8.5 
L 51.171875 8.5 
z
" id="MicrosoftYaHei-32"/>
       <path d="M 4.4375 36.328125 
Q 4.4375 56.34375 11.078125 66.625 
Q 17.71875 76.90625 30.328125 76.90625 
Q 54.34375 76.90625 54.34375 38.140625 
Q 54.34375 19 47.578125 8.859375 
Q 40.828125 -1.265625 28.609375 -1.265625 
Q 17.09375 -1.265625 10.765625 8.34375 
Q 4.4375 17.96875 4.4375 36.328125 
z
M 14.203125 36.765625 
Q 14.203125 6.640625 29.5 6.640625 
Q 44.53125 6.640625 44.53125 37.25 
Q 44.53125 68.953125 29.78125 68.953125 
Q 14.203125 68.953125 14.203125 36.765625 
z
" id="MicrosoftYaHei-30"/>
       <path d="M 52.59375 0 
L 9.234375 0 
L 9.234375 8.25 
L 26.171875 8.25 
L 26.171875 65.671875 
L 8.796875 60.640625 
L 8.796875 69.4375 
L 35.6875 77.25 
L 35.6875 8.25 
L 52.59375 8.25 
z
" id="MicrosoftYaHei-31"/>
       <path d="M 21.390625 39.796875 
Q 7.859375 46.09375 7.859375 58.0625 
Q 7.859375 66.40625 14.203125 71.65625 
Q 20.5625 76.90625 30.421875 76.90625 
Q 39.453125 76.90625 45.3125 71.96875 
Q 51.171875 67.046875 51.171875 59.234375 
Q 51.171875 46.625 37.0625 39.84375 
L 37.0625 39.65625 
Q 53.609375 33.6875 53.609375 19.34375 
Q 53.609375 9.90625 46.796875 4.3125 
Q 39.984375 -1.265625 27.78125 -1.265625 
Q 17.78125 -1.265625 11.46875 4.25 
Q 5.171875 9.765625 5.171875 18.5625 
Q 5.171875 33.015625 21.390625 39.59375 
z
M 41.5 58.109375 
Q 41.5 63.1875 38.328125 66.109375 
Q 35.15625 69.046875 29.734375 69.046875 
Q 24.65625 69.046875 21.09375 65.984375 
Q 17.53125 62.9375 17.53125 58.203125 
Q 17.53125 48.734375 29.390625 43.796875 
Q 41.5 48.828125 41.5 58.109375 
z
M 28.8125 35.25 
Q 14.796875 29.59375 14.796875 19.046875 
Q 14.796875 13.578125 18.890625 10.0625 
Q 23 6.546875 29.59375 6.546875 
Q 35.984375 6.546875 39.984375 10.03125 
Q 44 13.53125 44 18.75 
Q 44 29.734375 28.8125 35.25 
z
" id="MicrosoftYaHei-38"/>
       <path d="M 36.375 26.265625 
L 7.625 26.265625 
L 7.625 33.640625 
L 36.375 33.640625 
z
" id="MicrosoftYaHei-2d"/>
       <path d="M 53.765625 72.3125 
L 24.171875 0 
L 14.265625 0 
L 42.390625 67.1875 
L 4.59375 67.1875 
L 4.59375 75.640625 
L 53.765625 75.640625 
z
" id="MicrosoftYaHei-37"/>
      </defs>
      <g transform="translate(80.217187 399.47375)scale(0.1 -0.1)">
       <use xlink:href="#MicrosoftYaHei-32"/>
       <use x="58.642578" xlink:href="#MicrosoftYaHei-30"/>
       <use x="117.285156" xlink:href="#MicrosoftYaHei-31"/>
       <use x="175.927734" xlink:href="#MicrosoftYaHei-38"/>
       <use x="234.570312" xlink:href="#MicrosoftYaHei-2d"/>
       <use x="277.832031" xlink:href="#MicrosoftYaHei-30"/>
       <use x="336.474609" xlink:href="#MicrosoftYaHei-31"/>
       <use x="395.117188" xlink:href="#MicrosoftYaHei-2d"/>
       <use x="438.378906" xlink:href="#MicrosoftYaHei-31"/>
       <use x="497.021484" xlink:href="#MicrosoftYaHei-37"/>
      </g>
     </g>
    </g>
    <g id="xtick_2">
     <g id="line2d_3">
      <path clip-path="url(#p30163bef22)" d="M 199.978022 384.48 
L 199.978022 51.84 
" style="fill:none;stroke:#b0b0b0;stroke-linecap:square;stroke-width:0.8;"/>
     </g>
     <g id="line2d_4">
      <g>
       <use style="stroke:#000000;stroke-width:0.8;" x="199.978022" xlink:href="#me1d7e1c708" y="384.48"/>
      </g>
     </g>
     <g id="text_2">
      <!-- 2018-04-02 -->
      <defs>
       <path d="M 55.078125 19.625 
L 45.40625 19.625 
L 45.40625 0 
L 36.140625 0 
L 36.140625 19.625 
L 0.875 19.625 
L 0.875 25.828125 
L 34.328125 75.640625 
L 45.40625 75.640625 
L 45.40625 27.203125 
L 55.078125 27.203125 
z
M 36.140625 27.203125 
L 36.140625 58.890625 
Q 36.140625 62.25 36.328125 66.65625 
L 36.140625 66.65625 
Q 35.453125 64.796875 33.25 60.84375 
L 10.75 27.203125 
z
" id="MicrosoftYaHei-34"/>
      </defs>
      <g transform="translate(172.195209 399.47375)scale(0.1 -0.1)">
       <use xlink:href="#MicrosoftYaHei-32"/>
       <use x="58.642578" xlink:href="#MicrosoftYaHei-30"/>
       <use x="117.285156" xlink:href="#MicrosoftYaHei-31"/>
       <use x="175.927734" xlink:href="#MicrosoftYaHei-38"/>
       <use x="234.570312" xlink:href="#MicrosoftYaHei-2d"/>
       <use x="277.832031" xlink:href="#MicrosoftYaHei-30"/>
       <use x="336.474609" xlink:href="#MicrosoftYaHei-34"/>
       <use x="395.117188" xlink:href="#MicrosoftYaHei-2d"/>
       <use x="438.378906" xlink:href="#MicrosoftYaHei-30"/>
       <use x="497.021484" xlink:href="#MicrosoftYaHei-32"/>
      </g>
     </g>
    </g>
    <g id="xtick_3">
     <g id="line2d_5">
      <path clip-path="url(#p30163bef22)" d="M 291.956044 384.48 
L 291.956044 51.84 
" style="fill:none;stroke:#b0b0b0;stroke-linecap:square;stroke-width:0.8;"/>
     </g>
     <g id="line2d_6">
      <g>
       <use style="stroke:#000000;stroke-width:0.8;" x="291.956044" xlink:href="#me1d7e1c708" y="384.48"/>
      </g>
     </g>
     <g id="text_3">
      <!-- 2018-06-13 -->
      <defs>
       <path d="M 49.703125 65.921875 
Q 43.796875 68.953125 37.359375 68.953125 
Q 27.546875 68.953125 21.578125 60.40625 
Q 15.625 51.859375 15.53125 37.0625 
L 15.765625 37.0625 
Q 21.140625 47.46875 32.90625 47.46875 
Q 42.71875 47.46875 48.578125 41.0625 
Q 54.4375 34.671875 54.4375 24.078125 
Q 54.4375 12.984375 47.671875 5.859375 
Q 40.921875 -1.265625 30.421875 -1.265625 
Q 18.890625 -1.265625 12.328125 7.734375 
Q 5.765625 16.75 5.765625 33.296875 
Q 5.765625 53.328125 14.375 65.109375 
Q 23 76.90625 37.0625 76.90625 
Q 45.125 76.90625 49.703125 74.703125 
z
M 16.109375 24.75 
Q 16.109375 17.28125 20.09375 11.953125 
Q 24.078125 6.640625 30.671875 6.640625 
Q 36.921875 6.640625 40.828125 11.234375 
Q 44.734375 15.828125 44.734375 23.046875 
Q 44.734375 30.859375 41.046875 35.203125 
Q 37.359375 39.546875 30.5625 39.546875 
Q 24.125 39.546875 20.109375 35.15625 
Q 16.109375 30.765625 16.109375 24.75 
z
" id="MicrosoftYaHei-36"/>
       <path d="M 6.984375 12.640625 
Q 14.75 6.640625 24.515625 6.640625 
Q 32.328125 6.640625 36.890625 10.46875 
Q 41.453125 14.3125 41.453125 20.75 
Q 41.453125 35.109375 20.90625 35.109375 
L 14.59375 35.109375 
L 14.59375 43.015625 
L 20.609375 43.015625 
Q 38.8125 43.015625 38.8125 56.5 
Q 38.8125 68.953125 24.90625 68.953125 
Q 16.9375 68.953125 9.90625 63.578125 
L 9.90625 72.609375 
Q 17.328125 76.90625 27.25 76.90625 
Q 36.921875 76.90625 42.78125 71.84375 
Q 48.640625 66.796875 48.640625 58.734375 
Q 48.640625 43.890625 33.5 39.65625 
L 33.5 39.453125 
Q 41.703125 38.578125 46.453125 33.671875 
Q 51.21875 28.765625 51.21875 21.4375 
Q 51.21875 11.234375 43.875 4.984375 
Q 36.53125 -1.265625 24.3125 -1.265625 
Q 13.578125 -1.265625 6.984375 2.734375 
z
" id="MicrosoftYaHei-33"/>
      </defs>
      <g transform="translate(264.173231 399.47375)scale(0.1 -0.1)">
       <use xlink:href="#MicrosoftYaHei-32"/>
       <use x="58.642578" xlink:href="#MicrosoftYaHei-30"/>
       <use x="117.285156" xlink:href="#MicrosoftYaHei-31"/>
       <use x="175.927734" xlink:href="#MicrosoftYaHei-38"/>
       <use x="234.570312" xlink:href="#MicrosoftYaHei-2d"/>
       <use x="277.832031" xlink:href="#MicrosoftYaHei-30"/>
       <use x="336.474609" xlink:href="#MicrosoftYaHei-36"/>
       <use x="395.117188" xlink:href="#MicrosoftYaHei-2d"/>
       <use x="438.378906" xlink:href="#MicrosoftYaHei-31"/>
       <use x="497.021484" xlink:href="#MicrosoftYaHei-33"/>
      </g>
     </g>
    </g>
    <g id="xtick_4">
     <g id="line2d_7">
      <path clip-path="url(#p30163bef22)" d="M 383.934066 384.48 
L 383.934066 51.84 
" style="fill:none;stroke:#b0b0b0;stroke-linecap:square;stroke-width:0.8;"/>
     </g>
     <g id="line2d_8">
      <g>
       <use style="stroke:#000000;stroke-width:0.8;" x="383.934066" xlink:href="#me1d7e1c708" y="384.48"/>
      </g>
     </g>
     <g id="text_4">
      <!-- 2018-08-23 -->
      <g transform="translate(356.151253 399.47375)scale(0.1 -0.1)">
       <use xlink:href="#MicrosoftYaHei-32"/>
       <use x="58.642578" xlink:href="#MicrosoftYaHei-30"/>
       <use x="117.285156" xlink:href="#MicrosoftYaHei-31"/>
       <use x="175.927734" xlink:href="#MicrosoftYaHei-38"/>
       <use x="234.570312" xlink:href="#MicrosoftYaHei-2d"/>
       <use x="277.832031" xlink:href="#MicrosoftYaHei-30"/>
       <use x="336.474609" xlink:href="#MicrosoftYaHei-38"/>
       <use x="395.117188" xlink:href="#MicrosoftYaHei-2d"/>
       <use x="438.378906" xlink:href="#MicrosoftYaHei-32"/>
       <use x="497.021484" xlink:href="#MicrosoftYaHei-33"/>
      </g>
     </g>
    </g>
    <g id="xtick_5">
     <g id="line2d_9">
      <path clip-path="url(#p30163bef22)" d="M 475.912088 384.48 
L 475.912088 51.84 
" style="fill:none;stroke:#b0b0b0;stroke-linecap:square;stroke-width:0.8;"/>
     </g>
     <g id="line2d_10">
      <g>
       <use style="stroke:#000000;stroke-width:0.8;" x="475.912088" xlink:href="#me1d7e1c708" y="384.48"/>
      </g>
     </g>
     <g id="text_5">
      <!-- 2018-11-07 -->
      <g transform="translate(448.129275 399.47375)scale(0.1 -0.1)">
       <use xlink:href="#MicrosoftYaHei-32"/>
       <use x="58.642578" xlink:href="#MicrosoftYaHei-30"/>
       <use x="117.285156" xlink:href="#MicrosoftYaHei-31"/>
       <use x="175.927734" xlink:href="#MicrosoftYaHei-38"/>
       <use x="234.570312" xlink:href="#MicrosoftYaHei-2d"/>
       <use x="277.832031" xlink:href="#MicrosoftYaHei-31"/>
       <use x="336.474609" xlink:href="#MicrosoftYaHei-31"/>
       <use x="395.117188" xlink:href="#MicrosoftYaHei-2d"/>
       <use x="438.378906" xlink:href="#MicrosoftYaHei-30"/>
       <use x="497.021484" xlink:href="#MicrosoftYaHei-37"/>
      </g>
     </g>
    </g>
    <g id="xtick_6">
     <g id="line2d_11">
      <path clip-path="url(#p30163bef22)" d="M 567.89011 384.48 
L 567.89011 51.84 
" style="fill:none;stroke:#b0b0b0;stroke-linecap:square;stroke-width:0.8;"/>
     </g>
     <g id="line2d_12">
      <g>
       <use style="stroke:#000000;stroke-width:0.8;" x="567.89011" xlink:href="#me1d7e1c708" y="384.48"/>
      </g>
     </g>
     <g id="text_6">
      <!-- 2019-01-18 -->
      <defs>
       <path d="M 9.03125 10.25 
Q 15.28125 6.640625 22.515625 6.640625 
Q 32.671875 6.640625 38.25 14.640625 
Q 43.84375 22.65625 43.84375 37.40625 
Q 43.75 37.3125 43.65625 37.40625 
Q 38.671875 27.9375 26.90625 27.9375 
Q 17.390625 27.9375 11.140625 34.46875 
Q 4.890625 41.015625 4.890625 51.46875 
Q 4.890625 62.59375 11.71875 69.75 
Q 18.5625 76.90625 29.4375 76.90625 
Q 40.71875 76.90625 47.0625 68.046875 
Q 53.421875 59.1875 53.421875 42.234375 
Q 53.421875 21.296875 45.21875 10.015625 
Q 37.015625 -1.265625 22.515625 -1.265625 
Q 14.546875 -1.265625 9.03125 1.3125 
z
M 14.546875 52.6875 
Q 14.546875 45.0625 18.453125 40.59375 
Q 22.359375 36.140625 29.25 36.140625 
Q 35.203125 36.140625 39.25 40.203125 
Q 43.3125 44.28125 43.3125 50.09375 
Q 43.3125 58.25 39.28125 63.59375 
Q 35.25 68.953125 28.65625 68.953125 
Q 22.5625 68.953125 18.546875 64.3125 
Q 14.546875 59.671875 14.546875 52.6875 
z
" id="MicrosoftYaHei-39"/>
      </defs>
      <g transform="translate(540.107297 399.47375)scale(0.1 -0.1)">
       <use xlink:href="#MicrosoftYaHei-32"/>
       <use x="58.642578" xlink:href="#MicrosoftYaHei-30"/>
       <use x="117.285156" xlink:href="#MicrosoftYaHei-31"/>
       <use x="175.927734" xlink:href="#MicrosoftYaHei-39"/>
       <use x="234.570312" xlink:href="#MicrosoftYaHei-2d"/>
       <use x="277.832031" xlink:href="#MicrosoftYaHei-30"/>
       <use x="336.474609" xlink:href="#MicrosoftYaHei-31"/>
       <use x="395.117188" xlink:href="#MicrosoftYaHei-2d"/>
       <use x="438.378906" xlink:href="#MicrosoftYaHei-31"/>
       <use x="497.021484" xlink:href="#MicrosoftYaHei-38"/>
      </g>
     </g>
    </g>
    <g id="xtick_7">
     <g id="line2d_13">
      <path clip-path="url(#p30163bef22)" d="M 659.868132 384.48 
L 659.868132 51.84 
" style="fill:none;stroke:#b0b0b0;stroke-linecap:square;stroke-width:0.8;"/>
     </g>
     <g id="line2d_14">
      <g>
       <use style="stroke:#000000;stroke-width:0.8;" x="659.868132" xlink:href="#me1d7e1c708" y="384.48"/>
      </g>
     </g>
     <g id="text_7">
      <!-- 2019-04-03 -->
      <g transform="translate(632.085319 399.47375)scale(0.1 -0.1)">
       <use xlink:href="#MicrosoftYaHei-32"/>
       <use x="58.642578" xlink:href="#MicrosoftYaHei-30"/>
       <use x="117.285156" xlink:href="#MicrosoftYaHei-31"/>
       <use x="175.927734" xlink:href="#MicrosoftYaHei-39"/>
       <use x="234.570312" xlink:href="#MicrosoftYaHei-2d"/>
       <use x="277.832031" xlink:href="#MicrosoftYaHei-30"/>
       <use x="336.474609" xlink:href="#MicrosoftYaHei-34"/>
       <use x="395.117188" xlink:href="#MicrosoftYaHei-2d"/>
       <use x="438.378906" xlink:href="#MicrosoftYaHei-30"/>
       <use x="497.021484" xlink:href="#MicrosoftYaHei-33"/>
      </g>
     </g>
    </g>
    <g id="xtick_8">
     <g id="line2d_15">
      <path clip-path="url(#p30163bef22)" d="M 751.846154 384.48 
L 751.846154 51.84 
" style="fill:none;stroke:#b0b0b0;stroke-linecap:square;stroke-width:0.8;"/>
     </g>
     <g id="line2d_16">
      <g>
       <use style="stroke:#000000;stroke-width:0.8;" x="751.846154" xlink:href="#me1d7e1c708" y="384.48"/>
      </g>
     </g>
     <g id="text_8">
      <!-- 2019-06-17 -->
      <g transform="translate(724.063341 399.47375)scale(0.1 -0.1)">
       <use xlink:href="#MicrosoftYaHei-32"/>
       <use x="58.642578" xlink:href="#MicrosoftYaHei-30"/>
       <use x="117.285156" xlink:href="#MicrosoftYaHei-31"/>
       <use x="175.927734" xlink:href="#MicrosoftYaHei-39"/>
       <use x="234.570312" xlink:href="#MicrosoftYaHei-2d"/>
       <use x="277.832031" xlink:href="#MicrosoftYaHei-30"/>
       <use x="336.474609" xlink:href="#MicrosoftYaHei-36"/>
       <use x="395.117188" xlink:href="#MicrosoftYaHei-2d"/>
       <use x="438.378906" xlink:href="#MicrosoftYaHei-31"/>
       <use x="497.021484" xlink:href="#MicrosoftYaHei-37"/>
      </g>
     </g>
    </g>
    <g id="text_9">
     <!-- 日期 -->
     <defs>
      <path d="M 15.234375 76.703125 
L 84.859375 76.703125 
L 84.859375 -11.96875 
L 76.5625 -11.96875 
L 76.5625 -5.03125 
L 23.53125 -5.03125 
L 23.53125 -11.96875 
L 15.234375 -11.96875 
z
M 23.53125 32.859375 
L 23.53125 2.09375 
L 76.5625 2.09375 
L 76.5625 32.859375 
z
M 23.53125 69.390625 
L 23.53125 40.1875 
L 76.5625 40.1875 
L 76.5625 69.390625 
z
" id="MicrosoftYaHei-65e5"/>
      <path d="M 58.890625 79.15625 
L 93.453125 79.15625 
L 93.453125 -0.046875 
Q 93.453125 -11.578125 82.515625 -11.578125 
Q 77.046875 -11.578125 71.78125 -11.28125 
Q 71.390625 -8.0625 70.609375 -3.765625 
Q 77.734375 -4.4375 80.859375 -4.4375 
Q 86.234375 -4.4375 86.234375 0.921875 
L 86.234375 21.4375 
L 65.328125 21.4375 
Q 64.265625 0.046875 52.34375 -14.109375 
Q 49.703125 -11.375 46.484375 -8.640625 
Q 54.390625 0.4375 56.546875 10.203125 
Q 58.890625 19.578125 58.890625 42.828125 
z
M 1.953125 17.828125 
L 11.140625 17.828125 
L 11.140625 62.9375 
L 3.125 62.9375 
L 3.125 69.578125 
L 11.140625 69.578125 
L 11.140625 81.5 
L 18.359375 81.5 
L 18.359375 69.578125 
L 38.671875 69.578125 
L 38.671875 81.890625 
L 45.90625 81.890625 
L 45.90625 69.578125 
L 53.8125 69.578125 
L 53.8125 62.9375 
L 45.90625 62.9375 
L 45.90625 17.828125 
L 53.71875 17.828125 
L 53.71875 11.1875 
L 1.953125 11.1875 
z
M 65.765625 27.875 
L 86.234375 27.875 
L 86.234375 47.015625 
L 66.109375 47.015625 
Q 66.21875 34.421875 65.765625 27.875 
z
M 86.234375 72.515625 
L 66.109375 72.515625 
L 66.109375 53.46875 
L 86.234375 53.46875 
z
M 18.359375 17.828125 
L 38.671875 17.828125 
L 38.671875 28.765625 
L 18.359375 28.765625 
z
M 18.359375 35.015625 
L 38.671875 35.015625 
L 38.671875 45.84375 
L 18.359375 45.84375 
z
M 18.359375 52.09375 
L 38.671875 52.09375 
L 38.671875 62.9375 
L 18.359375 62.9375 
z
M 18.359375 9.328125 
L 24.3125 4.640625 
Q 14.453125 -6 6.34375 -13.234375 
Q 4.296875 -10.890625 1.171875 -8.0625 
Q 10.453125 -0.140625 18.359375 9.328125 
z
M 31.15625 4.734375 
L 35.84375 9.515625 
Q 42.671875 4.4375 48.734375 -0.734375 
L 43.5625 -6.296875 
Q 38.09375 -0.828125 31.15625 4.734375 
z
" id="MicrosoftYaHei-671f"/>
     </defs>
     <g transform="translate(432.8 413.953438)scale(0.1 -0.1)">
      <use xlink:href="#MicrosoftYaHei-65e5"/>
      <use x="100" xlink:href="#MicrosoftYaHei-671f"/>
     </g>
    </g>
   </g>
   <g id="matplotlib.axis_2">
    <g id="ytick_1">
     <g id="line2d_17">
      <path clip-path="url(#p30163bef22)" d="M 108 365.455082 
L 777.6 365.455082 
" style="fill:none;stroke:#b0b0b0;stroke-linecap:square;stroke-width:0.8;"/>
     </g>
     <g id="line2d_18">
      <defs>
       <path d="M 0 0 
L -3.5 0 
" id="m0230015f5e" style="stroke:#000000;stroke-width:0.8;"/>
      </defs>
      <g>
       <use style="stroke:#000000;stroke-width:0.8;" x="108" xlink:href="#m0230015f5e" y="365.455082"/>
      </g>
     </g>
     <g id="text_10">
      <!-- 1.0 -->
      <defs>
       <path d="M 5.8125 5.03125 
Q 5.8125 7.671875 7.609375 9.46875 
Q 9.421875 11.28125 12.109375 11.28125 
Q 14.84375 11.28125 16.640625 9.453125 
Q 18.453125 7.625 18.453125 5.03125 
Q 18.453125 2.484375 16.640625 0.65625 
Q 14.84375 -1.171875 12.0625 -1.171875 
Q 9.375 -1.171875 7.59375 0.65625 
Q 5.8125 2.484375 5.8125 5.03125 
z
" id="MicrosoftYaHei-2e"/>
      </defs>
      <g transform="translate(86.864063 369.451957)scale(0.1 -0.1)">
       <use xlink:href="#MicrosoftYaHei-31"/>
       <use x="58.642578" xlink:href="#MicrosoftYaHei-2e"/>
       <use x="82.714844" xlink:href="#MicrosoftYaHei-30"/>
      </g>
     </g>
    </g>
    <g id="ytick_2">
     <g id="line2d_19">
      <path clip-path="url(#p30163bef22)" d="M 108 325.608985 
L 777.6 325.608985 
" style="fill:none;stroke:#b0b0b0;stroke-linecap:square;stroke-width:0.8;"/>
     </g>
     <g id="line2d_20">
      <g>
       <use style="stroke:#000000;stroke-width:0.8;" x="108" xlink:href="#m0230015f5e" y="325.608985"/>
      </g>
     </g>
     <g id="text_11">
      <!-- 1.5 -->
      <defs>
       <path d="M 8.640625 11.625 
Q 16.265625 6.640625 24.515625 6.640625 
Q 32.328125 6.640625 37.109375 11 
Q 41.890625 15.375 41.890625 22.609375 
Q 41.890625 29.890625 37.03125 33.890625 
Q 32.171875 37.890625 22.953125 37.890625 
Q 18.5 37.890625 10.984375 37.203125 
L 10.984375 75.640625 
L 48.1875 75.640625 
L 48.1875 67.1875 
L 19.875 67.1875 
L 19.875 45.796875 
Q 24.125 46.046875 26.265625 46.046875 
Q 38.234375 46.046875 44.921875 39.984375 
Q 51.609375 33.9375 51.609375 23.296875 
Q 51.609375 12.3125 44.421875 5.515625 
Q 37.25 -1.265625 24.609375 -1.265625 
Q 14.015625 -1.265625 8.640625 1.859375 
z
" id="MicrosoftYaHei-35"/>
      </defs>
      <g transform="translate(86.864063 329.60586)scale(0.1 -0.1)">
       <use xlink:href="#MicrosoftYaHei-31"/>
       <use x="58.642578" xlink:href="#MicrosoftYaHei-2e"/>
       <use x="82.714844" xlink:href="#MicrosoftYaHei-35"/>
      </g>
     </g>
    </g>
    <g id="ytick_3">
     <g id="line2d_21">
      <path clip-path="url(#p30163bef22)" d="M 108 285.762888 
L 777.6 285.762888 
" style="fill:none;stroke:#b0b0b0;stroke-linecap:square;stroke-width:0.8;"/>
     </g>
     <g id="line2d_22">
      <g>
       <use style="stroke:#000000;stroke-width:0.8;" x="108" xlink:href="#m0230015f5e" y="285.762888"/>
      </g>
     </g>
     <g id="text_12">
      <!-- 2.0 -->
      <g transform="translate(86.864063 289.759763)scale(0.1 -0.1)">
       <use xlink:href="#MicrosoftYaHei-32"/>
       <use x="58.642578" xlink:href="#MicrosoftYaHei-2e"/>
       <use x="82.714844" xlink:href="#MicrosoftYaHei-30"/>
      </g>
     </g>
    </g>
    <g id="ytick_4">
     <g id="line2d_23">
      <path clip-path="url(#p30163bef22)" d="M 108 245.916791 
L 777.6 245.916791 
" style="fill:none;stroke:#b0b0b0;stroke-linecap:square;stroke-width:0.8;"/>
     </g>
     <g id="line2d_24">
      <g>
       <use style="stroke:#000000;stroke-width:0.8;" x="108" xlink:href="#m0230015f5e" y="245.916791"/>
      </g>
     </g>
     <g id="text_13">
      <!-- 2.5 -->
      <g transform="translate(86.864063 249.913666)scale(0.1 -0.1)">
       <use xlink:href="#MicrosoftYaHei-32"/>
       <use x="58.642578" xlink:href="#MicrosoftYaHei-2e"/>
       <use x="82.714844" xlink:href="#MicrosoftYaHei-35"/>
      </g>
     </g>
    </g>
    <g id="ytick_5">
     <g id="line2d_25">
      <path clip-path="url(#p30163bef22)" d="M 108 206.070694 
L 777.6 206.070694 
" style="fill:none;stroke:#b0b0b0;stroke-linecap:square;stroke-width:0.8;"/>
     </g>
     <g id="line2d_26">
      <g>
       <use style="stroke:#000000;stroke-width:0.8;" x="108" xlink:href="#m0230015f5e" y="206.070694"/>
      </g>
     </g>
     <g id="text_14">
      <!-- 3.0 -->
      <g transform="translate(86.864063 210.067569)scale(0.1 -0.1)">
       <use xlink:href="#MicrosoftYaHei-33"/>
       <use x="58.642578" xlink:href="#MicrosoftYaHei-2e"/>
       <use x="82.714844" xlink:href="#MicrosoftYaHei-30"/>
      </g>
     </g>
    </g>
    <g id="ytick_6">
     <g id="line2d_27">
      <path clip-path="url(#p30163bef22)" d="M 108 166.224597 
L 777.6 166.224597 
" style="fill:none;stroke:#b0b0b0;stroke-linecap:square;stroke-width:0.8;"/>
     </g>
     <g id="line2d_28">
      <g>
       <use style="stroke:#000000;stroke-width:0.8;" x="108" xlink:href="#m0230015f5e" y="166.224597"/>
      </g>
     </g>
     <g id="text_15">
      <!-- 3.5 -->
      <g transform="translate(86.864063 170.221472)scale(0.1 -0.1)">
       <use xlink:href="#MicrosoftYaHei-33"/>
       <use x="58.642578" xlink:href="#MicrosoftYaHei-2e"/>
       <use x="82.714844" xlink:href="#MicrosoftYaHei-35"/>
      </g>
     </g>
    </g>
    <g id="ytick_7">
     <g id="line2d_29">
      <path clip-path="url(#p30163bef22)" d="M 108 126.3785 
L 777.6 126.3785 
" style="fill:none;stroke:#b0b0b0;stroke-linecap:square;stroke-width:0.8;"/>
     </g>
     <g id="line2d_30">
      <g>
       <use style="stroke:#000000;stroke-width:0.8;" x="108" xlink:href="#m0230015f5e" y="126.3785"/>
      </g>
     </g>
     <g id="text_16">
      <!-- 4.0 -->
      <g transform="translate(86.864063 130.375375)scale(0.1 -0.1)">
       <use xlink:href="#MicrosoftYaHei-34"/>
       <use x="58.642578" xlink:href="#MicrosoftYaHei-2e"/>
       <use x="82.714844" xlink:href="#MicrosoftYaHei-30"/>
      </g>
     </g>
    </g>
    <g id="ytick_8">
     <g id="line2d_31">
      <path clip-path="url(#p30163bef22)" d="M 108 86.532403 
L 777.6 86.532403 
" style="fill:none;stroke:#b0b0b0;stroke-linecap:square;stroke-width:0.8;"/>
     </g>
     <g id="line2d_32">
      <g>
       <use style="stroke:#000000;stroke-width:0.8;" x="108" xlink:href="#m0230015f5e" y="86.532403"/>
      </g>
     </g>
     <g id="text_17">
      <!-- 4.5 -->
      <g transform="translate(86.864063 90.529278)scale(0.1 -0.1)">
       <use xlink:href="#MicrosoftYaHei-34"/>
       <use x="58.642578" xlink:href="#MicrosoftYaHei-2e"/>
       <use x="82.714844" xlink:href="#MicrosoftYaHei-35"/>
      </g>
     </g>
    </g>
   </g>
   <g id="line2d_33">
    <path clip-path="url(#p30163bef22)" d="M 108 221.913502 
L 109.83956 222.973409 
L 111.679121 222.877778 
L 113.518681 223.244362 
L 117.197802 229.205338 
L 119.037363 232.424903 
L 120.876923 236.975327 
L 122.716484 240.242707 
L 124.556044 241.007752 
L 126.395604 240.688983 
L 128.235165 241.454028 
L 131.914286 242.553781 
L 133.753846 242.792857 
L 135.593407 243.159441 
L 137.432967 242.25095 
L 141.112088 239.876123 
L 142.951648 239.142955 
L 144.791209 238.88794 
L 146.630769 236.481235 
L 148.47033 235.811821 
L 150.30989 235.987144 
L 152.149451 236.385605 
L 153.989011 236.64062 
L 155.828571 239.222647 
L 157.668132 237.995387 
L 159.507692 236.497174 
L 161.347253 233.102286 
L 163.186813 231.811273 
L 165.026374 230.91872 
L 168.705495 234.69613 
L 170.545055 237.883818 
L 172.384615 238.935755 
L 174.224176 238.616986 
L 176.063736 237.96351 
L 177.903297 236.975327 
L 179.742857 236.768127 
L 181.582418 237.166588 
L 187.101099 240.92806 
L 188.940659 241.581536 
L 190.78022 241.868428 
L 196.298901 240.266615 
L 198.138462 237.955541 
L 199.978022 236.696404 
L 201.817582 237.007204 
L 203.657143 238.967632 
L 205.496703 241.119321 
L 207.336264 243.701348 
L 209.175824 244.832977 
L 211.015385 245.040177 
L 212.854945 243.637594 
L 214.694505 241.868428 
L 216.534066 241.007752 
L 220.213187 237.310034 
L 222.052747 234.504869 
L 223.892308 231.476566 
L 225.731868 229.213307 
L 227.571429 228.081678 
L 229.410989 227.300695 
L 231.250549 226.790665 
L 233.09011 224.017376 
L 234.92967 222.423532 
L 236.769231 222.678547 
L 238.608791 223.427654 
L 240.448352 226.153127 
L 242.287912 231.556258 
L 244.127473 235.524929 
L 245.967033 238.712617 
L 247.806593 241.454028 
L 249.646154 243.159441 
L 251.485714 243.191318 
L 253.325275 242.139381 
L 255.164835 238.218525 
L 257.004396 236.815943 
L 258.843956 235.604621 
L 260.683516 236.449359 
L 262.523077 238.298217 
L 264.362637 242.059689 
L 266.202198 243.127564 
L 268.041758 243.68541 
L 269.881319 243.589779 
L 271.720879 240.131138 
L 273.56044 234.488931 
L 275.4 229.69146 
L 277.23956 225.340267 
L 279.079121 224.28833 
L 280.918681 226.806603 
L 282.758242 231.93878 
L 284.597802 236.337789 
L 286.437363 240.131138 
L 288.276923 240.545537 
L 290.116484 240.545537 
L 291.956044 240.115199 
L 295.635165 239.079201 
L 297.474725 238.808248 
L 299.314286 238.250402 
L 301.153846 238.186648 
L 302.993407 238.266341 
L 304.832967 238.712617 
L 306.672527 239.860184 
L 308.512088 242.633473 
L 310.351648 247.478758 
L 312.191209 246.809344 
L 314.030769 247.526574 
L 315.87033 249.088541 
L 317.70989 253.009397 
L 319.549451 255.511731 
L 321.389011 266.047039 
L 323.228571 274.462535 
L 325.068132 276.24764 
L 326.907692 272.948383 
L 328.747253 267.290238 
L 330.586813 259.113819 
L 332.426374 250.092662 
L 334.265934 245.582084 
L 336.105495 243.68541 
L 337.945055 244.817039 
L 339.784615 246.95279 
L 341.624176 250.060785 
L 343.463736 253.854134 
L 345.303297 256.659299 
L 347.142857 258.173451 
L 348.982418 259.161634 
L 350.821978 261.775538 
L 352.661538 266.34987 
L 354.501099 271.466109 
L 356.340659 277.060501 
L 358.18022 283.993722 
L 360.01978 290.03439 
L 361.859341 297.254503 
L 363.698901 306.913197 
L 365.538462 312.459773 
L 367.378022 312.826357 
L 369.217582 308.140456 
L 371.057143 296.744473 
L 374.736264 267.864022 
L 376.575824 255.846439 
L 378.415385 247.685958 
L 380.254945 242.776919 
L 382.094505 239.7008 
L 383.934066 240.609291 
L 387.613187 246.554329 
L 389.452747 249.90937 
L 391.292308 252.276228 
L 393.131868 255.097332 
L 394.971429 256.420222 
L 396.810989 259.018188 
L 400.49011 266.286116 
L 402.32967 262.827475 
L 406.008791 253.615057 
L 409.687912 241.055567 
L 411.527473 240.481784 
L 415.206593 243.812917 
L 417.046154 242.792857 
L 418.885714 242.713165 
L 420.725275 242.888488 
L 422.564835 242.490027 
L 424.404396 241.262767 
L 428.083516 244.49827 
L 429.923077 245.677715 
L 431.762637 252.706566 
L 433.602198 250.953338 
L 435.441758 251.224291 
L 437.281319 250.554877 
L 439.120879 251.303984 
L 440.96044 246.729652 
L 442.8 250.140478 
L 444.63956 252.674689 
L 446.479121 254.730748 
L 448.318681 255.447978 
L 450.158242 254.380102 
L 451.997802 254.284472 
L 453.837363 252.722505 
L 455.676923 251.479306 
L 457.516484 250.841769 
L 459.356044 254.220718 
L 461.195604 260.245448 
L 463.035165 270.175095 
L 464.874725 284.280614 
L 466.714286 284.647198 
L 468.553846 279.355636 
L 470.393407 272.820876 
L 472.232967 263.536735 
L 474.072527 252.316074 
L 475.912088 256.770868 
L 477.751648 265.83984 
L 479.591209 272.836814 
L 481.430769 274.837088 
L 483.27033 271.681278 
L 485.10989 267.943714 
L 486.949451 262.189937 
L 488.789011 257.296837 
L 490.628571 253.439734 
L 492.468132 251.192414 
L 494.307692 247.144051 
L 496.147253 245.279254 
L 497.986813 245.103931 
L 501.665934 246.793405 
L 503.505495 247.430943 
L 505.345055 250.523 
L 507.184615 245.964607 
L 509.024176 245.693653 
L 510.863736 247.46282 
L 512.703297 251.798075 
L 514.542857 249.311679 
L 516.382418 252.913766 
L 518.221978 253.901949 
L 520.061538 253.615057 
L 521.901099 251.112722 
L 523.740659 249.50294 
L 525.58022 245.693653 
L 527.41978 242.952242 
L 529.259341 239.668923 
L 531.098901 236.003082 
L 532.938462 235.238037 
L 534.778022 237.931633 
L 536.617582 242.856611 
L 540.296703 263.034675 
L 542.136264 275.371026 
L 543.975824 291.56448 
L 545.815385 287.771132 
L 547.654945 284.408121 
L 549.494505 286.703256 
L 551.334066 287.06984 
L 553.173626 305.239661 
L 555.013187 316.922536 
L 556.852747 320.508685 
L 558.692308 319.568317 
L 560.531868 312.69885 
L 562.371429 299.454007 
L 564.210989 287.675501 
L 566.050549 279.451267 
L 567.89011 271.952231 
L 569.72967 266.182516 
L 571.569231 266.214393 
L 573.408791 267.202576 
L 575.248352 267.138823 
L 577.087912 264.214119 
L 578.927473 264.947287 
L 580.767033 267.57713 
L 582.606593 271.434232 
L 584.446154 271.832693 
L 586.285714 276.008564 
L 588.125275 274.892873 
L 589.964835 274.765366 
L 591.804396 270.573556 
L 593.643956 274.095951 
L 595.483516 280.120681 
L 597.323077 288.775253 
L 599.162637 294.720291 
L 601.002198 301.77305 
L 602.841758 302.569972 
L 604.681319 300.466098 
L 606.520879 295.541121 
L 608.36044 284.097321 
L 613.879121 247.112174 
L 615.718681 238.282279 
L 617.558242 242.681288 
L 619.397802 253.391919 
L 621.237363 260.388894 
L 623.076923 269.633188 
L 624.916484 277.98493 
L 626.756044 279.706282 
L 628.595604 277.17207 
L 630.435165 275.594164 
L 632.274725 275.514472 
L 634.114286 271.529862 
L 635.953846 261.839292 
L 637.793407 251.256168 
L 639.632967 246.458698 
L 641.472527 236.337789 
L 643.312088 230.743397 
L 645.151648 231.301243 
L 646.991209 234.823638 
L 648.830769 237.549111 
L 650.67033 244.370763 
L 652.50989 254.252595 
L 654.349451 256.388346 
L 656.189011 259.894802 
L 658.028571 268.485621 
L 661.707692 288.360854 
L 663.547253 305.223722 
L 665.386813 313.479833 
L 667.226374 308.347656 
L 669.065934 291.26165 
L 670.905495 271.577678 
L 672.745055 249.757955 
L 674.584615 232.44881 
L 676.424176 220.973134 
L 678.263736 219.745875 
L 680.103297 219.602429 
L 681.942857 223.427654 
L 683.782418 224.304268 
L 685.621978 228.225124 
L 687.461538 228.655462 
L 689.301099 231.285304 
L 691.140659 239.047324 
L 692.98022 257.025883 
L 694.81978 267.640883 
L 696.659341 283.49963 
L 698.498901 297.111057 
L 700.338462 307.933257 
L 704.017582 325.975569 
L 705.857143 325.401786 
L 707.696703 317.209428 
L 709.536264 300.928313 
L 711.375824 278.742006 
L 713.215385 266.501285 
L 715.054945 261.592246 
L 716.894505 254.762625 
L 718.734066 249.375432 
L 720.573626 247.948942 
L 722.413187 243.119595 
L 724.252747 239.8044 
L 726.092308 238.505417 
L 727.931868 238.346033 
L 729.771429 240.449907 
L 731.610989 248.69008 
L 733.450549 251.048969 
L 735.29011 261.616153 
L 737.12967 277.905238 
L 738.969231 292.217956 
L 740.808791 300.920344 
L 742.648352 306.435043 
L 744.487912 305.638122 
L 746.327473 302.434495 
L 748.167033 297.158872 
L 750.006593 293.939307 
L 751.846154 294.688414 
L 753.685714 301.892588 
L 755.525275 309.7343 
L 757.364835 320.428993 
L 759.204396 330.167379 
L 761.043956 342.934068 
L 762.883516 352.146486 
L 764.723077 359.414414 
L 766.562637 364.060469 
L 768.402198 359.940383 
L 770.241758 358.904384 
L 773.920879 362.458656 
L 775.76044 364.331423 
L 777.6 369.36 
L 777.6 369.36 
" style="fill:none;stroke:#1f77b4;stroke-linecap:square;stroke-width:1.5;"/>
   </g>
   <g id="line2d_34">
    <path clip-path="url(#p30163bef22)" d="M 108 217.020402 
L 109.83956 216.287233 
L 113.518681 215.394681 
L 115.358242 215.649696 
L 117.197802 216.382864 
L 119.037363 216.82914 
L 122.716484 218.35923 
L 124.556044 218.757691 
L 126.395604 218.797538 
L 131.914286 221.62661 
L 133.753846 222.702455 
L 135.593407 223.634854 
L 137.432967 221.857718 
L 139.272527 219.785721 
L 142.951648 215.187481 
L 144.791209 212.685146 
L 146.630769 212.589516 
L 148.47033 213.019853 
L 152.149451 214.263052 
L 153.989011 215.187481 
L 155.828571 215.968465 
L 161.347253 215.155604 
L 165.026374 214.374621 
L 168.705495 215.442496 
L 172.384615 216.653818 
L 174.224176 216.908833 
L 176.063736 216.972586 
L 181.582418 216.701633 
L 187.101099 217.211663 
L 188.940659 217.514493 
L 190.78022 217.530432 
L 192.61978 217.323232 
L 194.459341 216.82914 
L 196.298901 216.159726 
L 198.138462 215.036066 
L 199.978022 214.701359 
L 201.817582 214.765113 
L 203.657143 215.70548 
L 205.496703 217.044309 
L 207.336264 218.805507 
L 209.175824 220.016828 
L 211.015385 221.068765 
L 212.854945 221.546918 
L 214.694505 221.770056 
L 216.534066 221.83381 
L 218.373626 221.260026 
L 220.213187 220.399351 
L 222.052747 219.060522 
L 225.731868 215.984403 
L 227.571429 214.964343 
L 229.410989 214.119606 
L 231.250549 213.46613 
L 233.09011 212.111362 
L 234.92967 210.963795 
L 236.769231 211.202871 
L 238.608791 212.143239 
L 240.448352 214.039914 
L 244.127473 220.909381 
L 245.967033 223.427654 
L 247.806593 225.483713 
L 249.646154 226.965987 
L 251.485714 227.444141 
L 253.325275 227.093495 
L 255.164835 225.483713 
L 257.004396 224.208638 
L 258.843956 223.332023 
L 260.683516 223.045132 
L 262.523077 223.332023 
L 264.362637 224.654914 
L 266.202198 225.483713 
L 268.041758 225.069313 
L 269.881319 224.272391 
L 271.720879 222.790116 
L 275.4 218.167969 
L 277.23956 216.52631 
L 279.079121 216.335049 
L 280.918681 217.068217 
L 282.758242 218.709876 
L 284.597802 220.542797 
L 286.437363 222.535101 
L 288.276923 223.204516 
L 290.116484 223.411716 
L 291.956044 223.284208 
L 293.795604 222.869809 
L 297.474725 221.73818 
L 299.314286 221.212211 
L 301.153846 220.81375 
L 304.832967 220.399351 
L 306.672527 220.048705 
L 310.351648 219.602429 
L 312.191209 218.917076 
L 314.030769 219.650244 
L 315.87033 221.435349 
L 317.70989 224.176761 
L 319.549451 227.938232 
L 321.389011 232.305364 
L 323.228571 235.142407 
L 325.068132 236.13059 
L 326.907692 235.859636 
L 328.747253 234.568623 
L 332.426374 231.460627 
L 334.265934 230.727459 
L 336.105495 230.360875 
L 337.945055 230.40869 
L 339.784615 230.584013 
L 345.303297 232.560379 
L 348.982418 233.261671 
L 352.661538 233.484809 
L 354.501099 234.202039 
L 356.340659 235.41336 
L 358.18022 237.469419 
L 360.01978 240.370215 
L 363.698901 248.961033 
L 365.538462 251.096784 
L 367.378022 252.674689 
L 369.217582 252.324044 
L 371.057143 249.088541 
L 372.896703 244.832977 
L 374.736264 241.852489 
L 376.575824 238.282279 
L 378.415385 235.365545 
L 380.254945 233.899208 
L 382.094505 233.102286 
L 383.934066 232.911025 
L 387.613187 234.026716 
L 389.452747 234.568623 
L 393.131868 234.967084 
L 394.971429 234.632377 
L 396.810989 234.967084 
L 398.650549 235.71619 
L 400.49011 237.214404 
L 402.32967 237.325973 
L 404.169231 236.688435 
L 406.008791 235.764006 
L 407.848352 234.3933 
L 409.687912 232.432872 
L 411.527473 231.954719 
L 413.367033 232.400995 
L 415.206593 233.038533 
L 418.885714 233.16604 
L 420.725275 233.229794 
L 422.564835 233.086348 
L 424.404396 232.241611 
L 426.243956 231.827211 
L 428.083516 230.966536 
L 429.923077 229.834906 
L 431.762637 227.778848 
L 433.602198 226.599403 
L 435.441758 227.460079 
L 437.281319 228.8786 
L 439.120879 230.663705 
L 440.96044 233.405117 
L 442.8 235.811821 
L 444.63956 236.529051 
L 446.479121 237.007204 
L 448.318681 237.230342 
L 450.158242 237.230342 
L 451.997802 237.118773 
L 453.837363 236.800004 
L 457.516484 235.859636 
L 459.356044 235.556806 
L 461.195604 235.62056 
L 463.035165 235.987144 
L 464.874725 236.576866 
L 466.714286 235.238037 
L 468.553846 234.552684 
L 472.232967 233.596378 
L 474.072527 233.357301 
L 475.912088 235.269914 
L 477.751648 236.43342 
L 479.591209 237.230342 
L 481.430769 237.45348 
L 483.27033 237.134711 
L 485.10989 236.544989 
L 488.789011 235.604621 
L 490.628571 235.301791 
L 492.468132 234.791761 
L 494.307692 234.409238 
L 496.147253 234.202039 
L 499.826374 234.202039 
L 501.665934 234.552684 
L 503.505495 234.648315 
L 505.345055 234.520807 
L 507.184615 233.867331 
L 510.863736 234.632377 
L 512.703297 235.732129 
L 514.542857 236.529051 
L 516.382418 237.45348 
L 520.061538 237.45348 
L 521.901099 236.73625 
L 523.740659 236.162467 
L 525.58022 235.014899 
L 527.41978 233.707947 
L 531.098901 231.572196 
L 532.938462 230.934659 
L 536.617582 232.082226 
L 538.457143 232.735702 
L 540.296703 233.022594 
L 542.136264 232.719764 
L 543.975824 231.572196 
L 545.815385 227.683217 
L 547.654945 229.978352 
L 549.494505 232.082226 
L 551.334066 236.003082 
L 553.173626 244.466393 
L 555.013187 247.000605 
L 556.852747 246.363068 
L 558.692308 246.490575 
L 560.531868 244.036055 
L 562.371429 239.573293 
L 564.210989 236.94345 
L 566.050549 236.560928 
L 567.89011 235.556806 
L 569.72967 236.114651 
L 571.569231 237.294096 
L 573.408791 238.186648 
L 577.087912 237.979449 
L 578.927473 236.927512 
L 582.606593 231.046228 
L 584.446154 228.814846 
L 586.285714 227.284756 
L 588.125275 231.875027 
L 589.964835 238.760432 
L 591.804396 241.454028 
L 593.643956 245.327069 
L 595.483516 251.064907 
L 597.323077 251.734321 
L 599.162637 251.463368 
L 601.002198 254.666994 
L 602.841758 256.499915 
L 604.681319 256.260838 
L 606.520879 255.161086 
L 610.2 247.000605 
L 612.03956 241.469967 
L 613.879121 235.524929 
L 615.718681 231.396873 
L 617.558242 232.815395 
L 619.397802 237.246281 
L 621.237363 239.971754 
L 623.076923 244.147625 
L 624.916484 246.394944 
L 626.756044 248.355372 
L 628.595604 248.116296 
L 630.435165 247.685958 
L 632.274725 247.606266 
L 634.114286 246.315252 
L 635.953846 240.896183 
L 637.793407 235.891513 
L 639.632967 233.851393 
L 641.472527 230.376813 
L 643.312088 229.006108 
L 645.151648 230.026168 
L 646.991209 230.679644 
L 648.830769 231.078105 
L 650.67033 229.707399 
L 652.50989 229.372692 
L 654.349451 228.830785 
L 656.189011 230.249306 
L 658.028571 234.249854 
L 659.868132 241.262767 
L 661.707692 245.837099 
L 663.547253 249.263863 
L 665.386813 251.017092 
L 667.226374 247.813465 
L 669.065934 243.031934 
L 670.905495 239.031386 
L 672.745055 234.425177 
L 674.584615 229.356753 
L 676.424176 227.221002 
L 678.263736 225.738728 
L 680.103297 225.372144 
L 681.942857 227.252879 
L 683.782418 228.639524 
L 685.621978 229.022046 
L 687.461538 228.464201 
L 689.301099 227.778848 
L 691.140659 226.965987 
L 692.98022 227.109433 
L 694.81978 228.400447 
L 696.659341 232.480687 
L 698.498901 235.771975 
L 700.338462 241.446059 
L 702.178022 247.901127 
L 704.017582 249.654355 
L 705.857143 249.032756 
L 707.696703 248.227865 
L 709.536264 243.430395 
L 711.375824 237.772249 
L 713.215385 237.230342 
L 715.054945 236.895635 
L 716.894505 235.317729 
L 720.573626 233.755762 
L 722.413187 233.102286 
L 724.252747 233.054471 
L 726.092308 232.528503 
L 727.931868 230.552136 
L 729.771429 229.037985 
L 731.610989 228.767031 
L 733.450549 227.842602 
L 735.29011 230.360875 
L 737.12967 237.118773 
L 738.969231 242.107504 
L 740.808791 243.589779 
L 742.648352 244.322947 
L 744.487912 243.749164 
L 746.327473 241.119321 
L 748.167033 239.350154 
L 750.006593 239.461724 
L 751.846154 241.262767 
L 755.525275 247.128113 
L 757.364835 249.279802 
L 759.204396 251.654629 
L 761.043956 254.284472 
L 762.883516 253.216596 
L 764.723077 252.722505 
L 766.562637 250.140478 
L 768.402198 247.144051 
L 770.241758 247.25562 
L 772.081319 254.172903 
L 773.920879 258.508158 
L 775.76044 266.015163 
L 777.6 271.322663 
L 777.6 271.322663 
" style="fill:none;stroke:#ff7f0e;stroke-linecap:square;stroke-width:1.5;"/>
   </g>
   <g id="line2d_35">
    <path clip-path="url(#p30163bef22)" d="M 108 141.28094 
L 109.83956 140.213065 
L 115.358242 138.491713 
L 117.197802 138.077314 
L 120.876923 137.583222 
L 122.716484 137.439777 
L 128.235165 137.527438 
L 131.914286 137.272423 
L 133.753846 137.001469 
L 137.432967 136.228455 
L 139.272527 135.829994 
L 141.112088 135.25621 
L 142.951648 134.554919 
L 144.791209 133.518921 
L 146.630769 133.662367 
L 148.47033 134.252089 
L 150.30989 134.969319 
L 152.149451 135.941563 
L 153.989011 137.567284 
L 155.828571 138.252637 
L 157.668132 138.459837 
L 161.347253 139.161128 
L 163.186813 139.256759 
L 165.026374 139.161128 
L 170.545055 139.495835 
L 176.063736 140.005865 
L 179.742857 140.149311 
L 183.421978 140.213065 
L 185.261538 140.069619 
L 188.940659 139.272697 
L 190.78022 138.794544 
L 192.61978 138.196852 
L 196.298901 137.360084 
L 198.138462 136.945685 
L 199.978022 137.081162 
L 201.817582 137.519469 
L 203.657143 138.866267 
L 205.496703 140.906387 
L 209.175824 145.966841 
L 211.015385 148.405422 
L 212.854945 150.110835 
L 214.694505 151.258403 
L 216.534066 151.911879 
L 218.373626 151.561233 
L 220.213187 150.541173 
L 222.052747 148.819822 
L 225.731868 144.675828 
L 227.571429 143.01823 
L 229.410989 141.854724 
L 231.250549 141.121556 
L 234.92967 139.193005 
L 236.769231 139.113313 
L 238.608791 139.718973 
L 240.448352 141.193279 
L 242.287912 143.870937 
L 244.127473 147.138317 
L 245.967033 150.086928 
L 247.806593 152.668955 
L 249.646154 154.732983 
L 251.485714 156.29495 
L 253.325275 157.123748 
L 255.164835 156.964364 
L 257.004396 156.518088 
L 258.843956 155.721166 
L 260.683516 154.525783 
L 262.523077 153.5376 
L 271.720879 151.067142 
L 279.079121 147.991023 
L 280.918681 148.0229 
L 282.758242 148.660437 
L 284.597802 149.616744 
L 288.276923 151.959694 
L 290.116484 152.82037 
L 291.956044 153.346338 
L 293.795604 153.505723 
L 295.635165 153.489784 
L 297.474725 152.947878 
L 299.314286 152.087202 
L 302.993407 149.457359 
L 306.672527 146.476871 
L 310.351648 143.990475 
L 312.191209 142.81103 
L 314.030769 142.524139 
L 315.87033 144.468628 
L 317.70989 149.25016 
L 319.549451 157.522209 
L 325.068132 188.012443 
L 326.907692 195.152864 
L 328.747253 199.312796 
L 330.586813 201.687623 
L 332.426374 203.058329 
L 336.105495 204.89125 
L 337.945055 205.815679 
L 339.784615 206.867616 
L 341.624176 208.174568 
L 347.142857 212.685146 
L 350.821978 216.080034 
L 352.661538 217.689816 
L 354.501099 219.618367 
L 356.340659 222.13664 
L 358.18022 224.957744 
L 360.01978 228.543893 
L 361.859341 233.213855 
L 363.698901 238.361971 
L 365.538462 242.537842 
L 367.378022 245.884914 
L 369.217582 248.036604 
L 371.057143 248.419126 
L 372.896703 247.430943 
L 374.736264 245.805222 
L 376.575824 243.589779 
L 378.415385 240.099261 
L 382.094505 232.464749 
L 383.934066 229.356753 
L 385.773626 227.077557 
L 387.613187 226.169066 
L 389.452747 226.344388 
L 391.292308 227.109433 
L 394.971429 229.293 
L 400.49011 233.16604 
L 402.32967 233.931085 
L 404.169231 233.532624 
L 406.008791 232.735702 
L 407.848352 231.317181 
L 409.687912 229.548015 
L 411.527473 228.049801 
L 413.367033 227.906355 
L 415.206593 228.049801 
L 418.885714 228.543893 
L 420.725275 228.527954 
L 422.564835 228.017924 
L 424.404396 226.663157 
L 426.243956 224.113007 
L 428.083516 219.857444 
L 429.923077 213.577699 
L 431.762637 204.588419 
L 433.602198 193.718404 
L 435.441758 195.519448 
L 437.281319 200.030026 
L 439.120879 207.266077 
L 440.96044 217.785447 
L 442.8 230.998412 
L 444.63956 233.054471 
L 446.479121 234.170162 
L 448.318681 234.823638 
L 450.158242 235.030838 
L 451.997802 234.967084 
L 455.676923 234.441115 
L 459.356044 233.88327 
L 463.035165 233.835455 
L 464.874725 234.042654 
L 466.714286 232.815395 
L 468.553846 232.177857 
L 470.393407 231.986596 
L 474.072527 231.875027 
L 475.912088 233.532624 
L 477.751648 234.680192 
L 479.591209 235.397422 
L 481.430769 235.795883 
L 483.27033 235.955267 
L 486.949451 235.461175 
L 490.628571 234.712069 
L 494.307692 233.421055 
L 496.147253 232.942902 
L 499.826374 232.544441 
L 505.345055 233.07041 
L 507.184615 232.783518 
L 509.024176 232.990717 
L 510.863736 233.357301 
L 516.382418 235.843698 
L 518.221978 236.258097 
L 520.061538 236.513112 
L 521.901099 236.22622 
L 523.740659 235.811821 
L 525.58022 234.887392 
L 527.41978 233.213855 
L 529.259341 230.950597 
L 531.098901 228.448262 
L 534.778022 222.535101 
L 536.617582 217.705754 
L 538.457143 211.920101 
L 540.296703 204.827496 
L 543.975824 188.809365 
L 545.815385 182.928081 
L 547.654945 197.081415 
L 549.494505 208.349891 
L 551.334066 221.53098 
L 553.173626 236.066836 
L 555.013187 241.246829 
L 556.852747 243.972302 
L 558.692308 245.566146 
L 560.531868 245.566146 
L 562.371429 244.243255 
L 564.210989 242.66535 
L 566.050549 241.597474 
L 567.89011 240.912121 
L 569.72967 239.382031 
L 573.408791 235.269914 
L 575.248352 232.926964 
L 577.087912 229.89866 
L 578.927473 225.993743 
L 582.606593 216.82914 
L 584.446154 212.637331 
L 586.285714 211.123179 
L 588.125275 216.080034 
L 589.964835 224.240514 
L 593.643956 239.4936 
L 595.483516 245.884914 
L 597.323077 248.658203 
L 599.162637 249.885462 
L 601.002198 251.861829 
L 602.841758 253.344104 
L 604.681319 254.045395 
L 606.520879 253.854134 
L 608.36044 251.861829 
L 610.2 248.195988 
L 612.03956 240.896183 
L 613.879121 233.102286 
L 615.718681 227.986048 
L 617.558242 227.236941 
L 619.397802 230.488382 
L 621.237363 236.417482 
L 623.076923 242.776919 
L 624.916484 246.649959 
L 626.756044 248.514757 
L 628.595604 248.371311 
L 632.274725 249.311679 
L 634.114286 249.423248 
L 635.953846 246.729652 
L 637.793407 239.908 
L 639.632967 231.412812 
L 643.312088 216.414741 
L 645.151648 210.788472 
L 646.991209 210.230627 
L 648.830769 211.665086 
L 652.50989 212.095424 
L 654.349451 213.035792 
L 656.189011 215.952526 
L 658.028571 221.913502 
L 663.547253 247.55845 
L 665.386813 251.75026 
L 667.226374 251.128661 
L 669.065934 245.135808 
L 670.905495 238.298217 
L 674.584615 221.467226 
L 676.424176 214.677451 
L 678.263736 211.027549 
L 680.103297 209.800289 
L 681.942857 209.895919 
L 683.782418 210.963795 
L 685.621978 211.362256 
L 687.461538 211.059425 
L 689.301099 208.987428 
L 691.140659 208.588967 
L 692.98022 208.907736 
L 694.81978 210.613149 
L 696.659341 217.482616 
L 698.498901 225.053375 
L 702.178022 241.661228 
L 704.017582 249.20011 
L 705.857143 252.196536 
L 707.696703 254.30041 
L 709.536264 253.551303 
L 711.375824 252.116844 
L 713.215385 251.272107 
L 715.054945 249.901401 
L 716.894505 245.374884 
L 722.413187 229.452384 
L 724.252747 225.260575 
L 726.092308 223.443592 
L 729.771429 217.976708 
L 731.610989 215.697511 
L 733.450549 214.99622 
L 735.29011 218.693938 
L 737.12967 227.316633 
L 738.969231 236.84782 
L 740.808791 245.167685 
L 742.648352 251.495245 
L 744.487912 253.774442 
L 746.327473 253.375981 
L 748.167033 252.46749 
L 750.006593 251.256168 
L 751.846154 247.032482 
L 753.685714 242.346581 
L 755.525275 236.800004 
L 757.364835 230.121798 
L 759.204396 224.495529 
L 761.043956 223.013255 
L 762.883516 223.188577 
L 764.723077 225.754666 
L 766.562637 230.344936 
L 768.402198 233.787639 
L 770.241758 240.131138 
L 777.6 273.299029 
L 777.6 273.299029 
" style="fill:none;stroke:#2ca02c;stroke-linecap:square;stroke-width:1.5;"/>
   </g>
   <g id="line2d_36">
    <path clip-path="url(#p30163bef22)" d="M 108 117.588451 
L 109.83956 118.72008 
L 111.679121 118.751957 
L 117.197802 117.676112 
L 119.037363 117.118267 
L 126.395604 116.209776 
L 130.074725 116.058361 
L 131.914286 116.385099 
L 133.753846 117.022636 
L 137.432967 118.664296 
L 139.272527 119.548879 
L 141.112088 120.14657 
L 144.791209 120.529093 
L 148.47033 120.696447 
L 150.30989 120.911615 
L 153.989011 121.68463 
L 155.828571 122.282321 
L 157.668132 122.656875 
L 159.507692 122.90392 
L 161.347253 123.023459 
L 163.186813 122.569213 
L 165.026374 120.8638 
L 166.865934 118.457096 
L 168.705495 115.04627 
L 174.224176 101.634074 
L 176.063736 97.426326 
L 177.903297 93.656885 
L 179.742857 90.732182 
L 181.582418 88.476892 
L 183.421978 86.851172 
L 185.261538 86.110034 
L 187.101099 86.500526 
L 188.940659 87.67997 
L 190.78022 89.31366 
L 192.61978 91.202365 
L 196.298901 96.222974 
L 198.138462 98.581863 
L 199.978022 102.112227 
L 201.817582 106.319975 
L 203.657143 110.822584 
L 209.175824 125.063579 
L 211.015385 129.13585 
L 212.854945 132.61043 
L 214.694505 135.574979 
L 216.534066 137.949807 
L 218.373626 139.24082 
L 222.052747 140.850602 
L 225.731868 142.986353 
L 227.571429 144.357059 
L 229.410989 145.010535 
L 231.250549 143.83109 
L 233.09011 141.631586 
L 236.769231 136.945685 
L 238.608791 135.511225 
L 240.448352 135.734364 
L 242.287912 136.674731 
L 247.806593 140.05368 
L 249.646154 140.882479 
L 251.485714 141.504078 
L 253.325275 141.759093 
L 255.164835 141.615647 
L 257.004396 141.217187 
L 260.683516 140.181188 
L 262.523077 139.782727 
L 268.041758 139.081436 
L 271.720879 138.762667 
L 273.56044 138.268575 
L 275.4 137.312269 
L 277.23956 135.415595 
L 279.079121 132.977014 
L 282.758242 127.478252 
L 284.597802 125.167179 
L 288.276923 122.330137 
L 291.956044 120.401585 
L 293.795604 119.493094 
L 295.635165 118.345527 
L 297.474725 117.373282 
L 299.314286 116.257591 
L 301.153846 115.365039 
L 302.993407 114.663747 
L 304.832967 114.53624 
L 306.672527 114.83907 
L 308.512088 115.795377 
L 310.351648 117.277651 
L 314.030769 121.262261 
L 315.87033 125.127333 
L 317.70989 130.944863 
L 319.549451 138.802513 
L 321.389011 148.1265 
L 323.228571 158.709623 
L 325.068132 168.23284 
L 326.907692 176.058614 
L 328.747253 181.621129 
L 330.586813 185.414477 
L 332.426374 187.486474 
L 334.265934 188.602165 
L 339.784615 189.813487 
L 341.624176 190.578532 
L 343.463736 192.076745 
L 345.303297 193.845912 
L 347.142857 195.870093 
L 348.982418 198.228982 
L 356.340659 209.051182 
L 360.01978 215.442496 
L 361.859341 219.219906 
L 365.538462 227.157249 
L 367.378022 230.679644 
L 369.217582 233.67607 
L 371.057143 235.508991 
L 372.896703 236.258097 
L 374.736264 236.321851 
L 376.575824 235.732129 
L 382.094505 232.161919 
L 385.773626 229.340815 
L 387.613187 228.145432 
L 389.452747 227.252879 
L 391.292308 226.599403 
L 393.131868 226.663157 
L 394.971429 226.950049 
L 396.810989 227.507894 
L 400.49011 228.942354 
L 402.32967 229.372692 
L 404.169231 229.500199 
L 406.008791 229.38863 
L 407.848352 228.926415 
L 413.367033 226.392204 
L 415.206593 225.977804 
L 417.046154 225.690912 
L 418.885714 225.690912 
L 422.564835 225.834358 
L 424.404396 225.483713 
L 426.243956 224.973683 
L 431.762637 222.694486 
L 433.602198 222.200394 
L 435.441758 222.264148 
L 437.281319 223.300147 
L 439.120879 224.814298 
L 440.96044 226.567526 
L 444.63956 230.281183 
L 446.479121 231.492504 
L 448.318681 232.35318 
L 450.158242 233.006656 
L 451.997802 233.436994 
L 453.837363 233.516686 
L 455.676923 233.293548 
L 461.195604 232.241611 
L 463.035165 232.098165 
L 464.874725 232.241611 
L 468.553846 231.683765 
L 474.072527 230.711521 
L 475.912088 230.854967 
L 481.430769 231.763458 
L 485.10989 231.667827 
L 488.789011 231.349058 
L 499.826374 230.392752 
L 505.345055 230.344936 
L 507.184615 230.185552 
L 509.024176 229.850845 
L 510.863736 229.0858 
L 512.703297 227.762909 
L 514.542857 225.961866 
L 518.221978 221.961318 
L 520.061538 220.319658 
L 523.740659 217.418863 
L 525.58022 215.219358 
L 527.41978 212.605454 
L 532.938462 203.504605 
L 534.778022 200.508179 
L 536.617582 196.842338 
L 538.457143 192.570836 
L 543.975824 175.899229 
L 545.815385 172.074004 
L 547.654945 178.688456 
L 549.494505 186.020138 
L 551.334066 195.312248 
L 553.173626 205.624418 
L 555.013187 212.159178 
L 556.852747 216.988525 
L 558.692308 220.781873 
L 560.531868 222.917624 
L 562.371429 223.682669 
L 564.210989 223.889869 
L 566.050549 223.953623 
L 569.72967 223.698607 
L 571.569231 223.379839 
L 575.248352 222.375717 
L 580.767033 220.431228 
L 584.446154 219.443044 
L 586.285714 219.188029 
L 588.125275 219.331475 
L 589.964835 219.761813 
L 591.804396 220.638427 
L 593.643956 221.897564 
L 601.002198 228.527954 
L 604.681319 231.094043 
L 606.520879 232.098165 
L 608.36044 232.767579 
L 610.2 233.213855 
L 612.03956 233.134163 
L 613.879121 232.640072 
L 619.397802 230.663705 
L 623.076923 230.10586 
L 626.756044 229.739276 
L 628.595604 229.404569 
L 630.435165 228.8786 
L 632.274725 228.06574 
L 634.114286 226.965987 
L 635.953846 225.40402 
L 639.632967 221.658487 
L 641.472527 219.729936 
L 643.312088 217.976708 
L 645.151648 216.797263 
L 646.991209 216.048157 
L 648.830769 215.888772 
L 650.67033 216.398803 
L 654.349451 218.375169 
L 656.189011 219.921197 
L 658.028571 221.785995 
L 659.868132 224.113007 
L 663.547253 229.372692 
L 665.386813 231.540319 
L 667.226374 232.974779 
L 669.065934 233.421055 
L 670.905495 233.07041 
L 672.745055 232.002534 
L 674.584615 230.201491 
L 678.263736 226.216881 
L 680.103297 224.559283 
L 681.942857 223.379839 
L 685.621978 221.403472 
L 687.461538 220.51092 
L 691.140659 218.35923 
L 692.98022 217.833262 
L 694.81978 217.54637 
L 696.659341 217.833262 
L 698.498901 218.598307 
L 700.338462 219.937136 
L 702.178022 221.785995 
L 704.017582 223.826115 
L 705.857143 225.627159 
L 707.696703 227.157249 
L 709.536264 228.049801 
L 711.375824 228.496078 
L 715.054945 229.053923 
L 716.894505 229.022046 
L 718.734066 228.400447 
L 720.573626 227.491956 
L 726.092308 223.905807 
L 727.931868 222.949501 
L 729.771429 222.184456 
L 731.610989 221.722241 
L 733.450549 221.132519 
L 735.29011 220.861565 
L 737.12967 220.781873 
L 738.969231 220.558735 
L 740.808791 220.112459 
L 742.648352 219.522737 
L 746.327473 218.024523 
L 748.167033 217.291355 
L 750.006593 216.382864 
L 753.685714 215.059974 
L 755.525275 214.645574 
L 757.364835 214.677451 
L 759.204396 215.410619 
L 761.043956 216.892894 
L 762.883516 219.07646 
L 764.723077 221.62661 
L 768.402198 227.061618 
L 770.241758 230.281183 
L 773.920879 237.692557 
L 775.76044 241.485905 
L 777.6 245.0083 
L 777.6 245.0083 
" style="fill:none;stroke:#d62728;stroke-linecap:square;stroke-width:1.5;"/>
   </g>
   <g id="line2d_37">
    <path clip-path="url(#p30163bef22)" d="M 108 68.474152 
L 111.679121 68.067721 
L 115.358242 67.581599 
L 119.037363 67.278769 
L 122.716484 67.222984 
L 128.235165 67.15923 
L 137.432967 66.967969 
L 152.149451 67.135323 
L 157.668132 67.246892 
L 187.101099 67.342523 
L 190.78022 67.908337 
L 194.459341 68.705259 
L 196.298901 69.645627 
L 198.138462 70.825071 
L 199.978022 72.387038 
L 201.817582 74.227928 
L 203.657143 76.379617 
L 205.496703 78.276292 
L 207.336264 79.902012 
L 209.175824 81.224903 
L 211.015385 82.260901 
L 212.854945 82.962193 
L 214.694505 83.344715 
L 216.534066 83.583792 
L 218.373626 83.663484 
L 220.213187 84.269145 
L 222.052747 85.671727 
L 225.731868 89.512891 
L 227.571429 91.792088 
L 229.410989 93.7047 
L 231.250549 94.740699 
L 234.92967 95.712944 
L 240.448352 96.66925 
L 244.127473 97.784941 
L 245.967033 98.263094 
L 247.806593 98.549986 
L 249.646154 98.693432 
L 253.325275 98.518109 
L 257.004396 97.928387 
L 260.683516 97.290849 
L 264.362637 96.87645 
L 271.720879 96.509866 
L 275.4 96.047651 
L 280.918681 95.282606 
L 286.437363 94.93196 
L 297.474725 94.533499 
L 302.993407 94.549438 
L 306.672527 95.075406 
L 308.512088 95.553559 
L 310.351648 96.318604 
L 312.191209 97.38648 
L 314.030769 98.773124 
L 315.87033 101.275459 
L 317.70989 104.797854 
L 319.549451 109.101232 
L 323.228571 118.361465 
L 325.068132 122.027306 
L 326.907692 124.784656 
L 328.747253 126.5857 
L 330.586813 127.828898 
L 332.426374 128.578005 
L 334.265934 128.976466 
L 339.784615 129.327111 
L 341.624176 129.94871 
L 343.463736 131.096278 
L 345.303297 132.977014 
L 347.142857 135.367779 
L 348.982418 138.109191 
L 352.661538 144.022352 
L 354.501099 146.715948 
L 356.340659 149.680498 
L 358.18022 153.346338 
L 360.01978 157.522209 
L 361.859341 162.574695 
L 365.538462 174.337262 
L 367.378022 179.230363 
L 369.217582 183.055588 
L 371.057143 185.127586 
L 372.896703 185.5898 
L 374.736264 184.426294 
L 376.575824 182.513682 
L 380.254945 176.903351 
L 382.094505 173.620033 
L 383.934066 170.703298 
L 385.773626 168.360348 
L 387.613187 166.670873 
L 389.452747 165.58706 
L 391.292308 165.300168 
L 396.810989 165.68269 
L 400.49011 166.049274 
L 404.169231 166.19272 
L 407.848352 166.208659 
L 409.687912 166.001459 
L 415.206593 165.053122 
L 417.046154 164.845922 
L 418.885714 164.845922 
L 422.564835 165.092968 
L 426.243956 164.885768 
L 431.762637 164.3598 
L 433.602198 164.343861 
L 435.441758 164.519184 
L 440.96044 165.507367 
L 442.8 165.762382 
L 444.63956 165.873951 
L 451.997802 165.810198 
L 453.837363 165.634875 
L 455.676923 165.204537 
L 457.516484 164.582938 
L 461.195604 163.13254 
L 463.035165 162.590633 
L 464.874725 162.303741 
L 466.714286 162.20811 
L 474.072527 162.239987 
L 481.430769 162.144357 
L 485.10989 161.969034 
L 490.628571 161.984972 
L 497.986813 163.005032 
L 499.826374 163.419432 
L 503.505495 163.929462 
L 507.184615 164.072908 
L 512.703297 164.072908 
L 525.58022 164.487307 
L 527.41978 164.582938 
L 536.617582 164.566999 
L 542.136264 164.758261 
L 545.815385 164.678568 
L 549.494505 165.363921 
L 551.334066 166.240535 
L 553.173626 167.62718 
L 555.013187 169.380408 
L 556.852747 171.452405 
L 558.692308 173.795356 
L 560.531868 175.851414 
L 562.371429 177.556827 
L 564.210989 178.943471 
L 566.050549 180.106977 
L 567.89011 180.872022 
L 569.72967 181.461745 
L 571.569231 181.844267 
L 573.408791 182.067405 
L 577.087912 182.258667 
L 578.927473 182.402112 
L 580.767033 182.689004 
L 582.606593 183.151219 
L 586.285714 184.761001 
L 591.804396 188.363089 
L 593.643956 189.638164 
L 597.323077 192.730221 
L 599.162637 194.435634 
L 601.002198 196.300431 
L 602.841758 197.878337 
L 604.681319 199.105596 
L 606.520879 199.998149 
L 608.36044 200.508179 
L 610.2 200.858825 
L 613.879121 201.20947 
L 623.076923 201.528239 
L 626.756044 201.655747 
L 628.595604 201.62387 
L 632.274725 201.241347 
L 637.793407 200.285041 
L 645.151648 199.073719 
L 646.991209 199.009966 
L 648.830769 199.105596 
L 650.67033 199.328735 
L 652.50989 199.790949 
L 658.028571 201.671685 
L 659.868132 202.149838 
L 661.707692 202.388915 
L 665.386813 202.452669 
L 669.065934 202.022331 
L 672.745055 201.305101 
L 674.584615 200.826948 
L 678.263736 199.647503 
L 683.782418 198.276798 
L 687.461538 197.63926 
L 691.140659 196.443877 
L 692.98022 195.790401 
L 694.81978 194.977541 
L 696.659341 194.340003 
L 698.498901 193.909665 
L 700.338462 193.718404 
L 702.178022 193.65465 
L 707.696703 193.973419 
L 711.375824 193.957481 
L 715.054945 193.686527 
L 716.894505 193.447451 
L 718.734066 193.064928 
L 724.252747 191.455146 
L 727.931868 190.451024 
L 731.610989 189.87724 
L 735.29011 189.654102 
L 740.808791 189.446902 
L 751.846154 188.490596 
L 753.685714 188.203704 
L 755.525275 188.187766 
L 757.364835 188.394965 
L 759.204396 188.952811 
L 761.043956 189.87724 
L 762.883516 191.359515 
L 766.562637 194.67471 
L 768.402198 196.061355 
L 770.241758 197.192984 
L 772.081319 197.862398 
L 777.6 198.595566 
L 777.6 198.595566 
" style="fill:none;stroke:#9467bd;stroke-linecap:square;stroke-width:1.5;"/>
   </g>
   <g id="patch_3">
    <path d="M 108 384.48 
L 108 51.84 
" style="fill:none;stroke:#000000;stroke-linecap:square;stroke-linejoin:miter;stroke-width:0.8;"/>
   </g>
   <g id="patch_4">
    <path d="M 777.6 384.48 
L 777.6 51.84 
" style="fill:none;stroke:#000000;stroke-linecap:square;stroke-linejoin:miter;stroke-width:0.8;"/>
   </g>
   <g id="patch_5">
    <path d="M 108 384.48 
L 777.6 384.48 
" style="fill:none;stroke:#000000;stroke-linecap:square;stroke-linejoin:miter;stroke-width:0.8;"/>
   </g>
   <g id="patch_6">
    <path d="M 108 51.84 
L 777.6 51.84 
" style="fill:none;stroke:#000000;stroke-linecap:square;stroke-linejoin:miter;stroke-width:0.8;"/>
   </g>
   <g id="legend_1">
    <g id="patch_7">
     <path d="M 678.409375 137.238438 
L 770.6 137.238438 
Q 772.6 137.238438 772.6 135.238438 
L 772.6 58.84 
Q 772.6 56.84 770.6 56.84 
L 678.409375 56.84 
Q 676.409375 56.84 676.409375 58.84 
L 676.409375 135.238438 
Q 676.409375 137.238438 678.409375 137.238438 
z
" style="fill:#ffffff;opacity:0.8;stroke:#cccccc;stroke-linejoin:miter;"/>
    </g>
    <g id="line2d_38">
     <path d="M 680.409375 65.33375 
L 700.409375 65.33375 
" style="fill:none;stroke:#1f77b4;stroke-linecap:square;stroke-width:1.5;"/>
    </g>
    <g id="line2d_39"/>
    <g id="text_18">
     <!-- 隔夜-5日均值 -->
     <defs>
      <path d="M 32.90625 28.5625 
Q 35.25 10.296875 24.21875 7.953125 
Q 20.40625 7.28125 15.328125 7.859375 
Q 14.546875 11.671875 13.28125 15.28125 
L 13.28125 -13.03125 
L 6.25 -13.03125 
L 6.25 78.65625 
L 32.8125 78.65625 
L 32.8125 72.125 
Q 28.03125 55.71875 24.90625 46.234375 
Q 31.9375 36.578125 32.90625 28.5625 
z
M 44.53125 -13.234375 
L 37.703125 -13.234375 
L 37.703125 37.453125 
L 94.34375 37.453125 
L 94.34375 -3.65625 
Q 94.34375 -12.84375 85.25 -12.84375 
Q 80.953125 -12.84375 74.609375 -12.75 
Q 74.125 -10.5 73.140625 -5.421875 
Q 79 -5.8125 83.5 -5.8125 
Q 87.5 -5.8125 87.5 -1.703125 
L 87.5 31.390625 
L 44.53125 31.390625 
z
M 43.359375 65.765625 
L 88.484375 65.765625 
L 88.484375 41.75 
L 81.453125 41.75 
L 81.453125 44.28125 
L 50.390625 44.28125 
L 50.390625 41.75 
L 43.359375 41.75 
z
M 21.484375 14.890625 
Q 27.734375 15.578125 25.6875 28.265625 
Q 24.421875 36.46875 17.671875 44.96875 
Q 21.875 57.46875 25.78125 72.125 
L 13.28125 72.125 
L 13.28125 15.671875 
Q 17.671875 14.5 21.484375 14.890625 
z
M 47.859375 15.28125 
L 67.578125 15.28125 
Q 72.515625 24.21875 75.296875 30.515625 
L 81.734375 27 
Q 78.078125 20.90625 74.46875 15.28125 
L 84.1875 15.28125 
L 84.1875 9.421875 
L 69.234375 9.421875 
L 69.234375 -11.671875 
L 62.59375 -11.671875 
L 62.59375 9.421875 
L 47.859375 9.421875 
z
M 37.109375 78.765625 
L 96.296875 78.765625 
L 96.296875 72.40625 
L 37.109375 72.40625 
z
M 81.453125 59.90625 
L 50.390625 59.90625 
L 50.390625 50.140625 
L 81.453125 50.140625 
z
M 50.390625 27.296875 
L 55.765625 30.421875 
Q 59.96875 24.859375 62.890625 19.390625 
L 57.03125 15.96875 
Q 54.296875 21.234375 50.390625 27.296875 
z
" id="MicrosoftYaHei-9694"/>
      <path d="M 27.828125 23.578125 
Q 42.578125 39.40625 51.265625 60.890625 
L 58.6875 58.34375 
Q 56.9375 54.34375 55.03125 50.53125 
L 89.15625 50.53125 
L 89.15625 43.5 
Q 82.125 21.625 69.1875 8.15625 
Q 81.453125 -0.390625 98.640625 -4.734375 
Q 95.703125 -9.03125 93.5625 -12.9375 
Q 75.390625 -7.078125 62.984375 2.484375 
Q 51.3125 -6.84375 34.375 -13.53125 
Q 32.515625 -10.5 29.5 -6.6875 
Q 45.515625 -0.484375 56.78125 7.953125 
Q 48.578125 16.359375 42.28125 29.15625 
Q 38.28125 23.53125 33.796875 18.40625 
Q 30.5625 21.4375 27.828125 23.578125 
z
M 2.9375 69.09375 
L 50.734375 69.09375 
Q 47.703125 74.265625 43.65625 79.734375 
L 49.8125 83.734375 
Q 53.8125 78.65625 58.015625 72.015625 
L 53.421875 69.09375 
L 97.5625 69.09375 
L 97.5625 61.859375 
L 2.9375 61.859375 
z
M 1.5625 23 
Q 18.265625 40.484375 26.46875 60.984375 
L 33.984375 58.453125 
Q 28.90625 47.859375 23.640625 39.203125 
L 23.640625 -13.03125 
L 16.21875 -13.03125 
L 16.21875 28.078125 
Q 10.5 20.359375 4.59375 14.796875 
Q 3.21875 18.703125 1.5625 23 
z
M 81.15625 43.5 
L 51.3125 43.5 
Q 49.171875 39.546875 46.78125 35.84375 
Q 53.421875 22.078125 62.9375 13.234375 
Q 75 24.953125 81.15625 43.5 
z
M 54.203125 35.296875 
L 58.890625 39.890625 
Q 64.546875 35.109375 69.734375 29.640625 
L 64.453125 24.5625 
Q 60.453125 29.34375 54.203125 35.296875 
z
" id="MicrosoftYaHei-591c"/>
      <path d="M 35.0625 43.796875 
Q 45.796875 61.765625 52.15625 83.15625 
L 59.96875 80.8125 
Q 57.671875 74.125 55.171875 67.921875 
L 93.953125 67.921875 
Q 92.578125 16.453125 91.796875 4.640625 
Q 91.109375 -10.890625 75.09375 -10.890625 
Q 65.4375 -10.890625 57.90625 -10.5 
Q 57.328125 -6.59375 56.34375 -2.203125 
L 56.640625 -2.203125 
Q 66.40625 -3.265625 74.609375 -3.265625 
Q 83.59375 -3.265625 84.28125 5.90625 
Q 85.25 22.609375 86.140625 60.796875 
L 52.203125 60.796875 
Q 47.3125 49.5625 41.796875 40.1875 
Q 38.765625 42.046875 35.0625 43.796875 
z
M 1.265625 6.6875 
Q 8.734375 9.375 15.71875 12.015625 
L 15.71875 50.828125 
L 2.640625 50.828125 
L 2.640625 57.765625 
L 15.71875 57.765625 
L 15.71875 82.171875 
L 22.953125 82.171875 
L 22.953125 57.765625 
L 35.640625 57.765625 
L 35.640625 50.828125 
L 22.953125 50.828125 
L 22.953125 14.796875 
Q 30.03125 17.578125 36.53125 20.359375 
Q 36.71875 15.484375 37.015625 12.25 
Q 21.296875 6.296875 3.90625 -0.828125 
z
M 39.265625 13.328125 
Q 58.890625 21.140625 79.984375 30.21875 
Q 80.46875 25.640625 81.0625 22.40625 
Q 62.984375 14.796875 42.28125 5.609375 
z
M 49.03125 45.453125 
L 54.390625 50.25 
Q 62.890625 42.4375 70.796875 34.625 
L 64.453125 29.046875 
Q 56.9375 37.640625 49.03125 45.453125 
z
" id="MicrosoftYaHei-5747"/>
      <path d="M 25.296875 -3.375 
L 35.15625 -3.375 
L 35.15625 57.078125 
L 58.203125 57.078125 
L 58.203125 65.96875 
L 29.890625 65.96875 
L 29.890625 72.609375 
L 58.203125 72.609375 
L 58.203125 82.953125 
L 65.625 82.953125 
L 65.625 72.609375 
L 96.390625 72.609375 
L 96.390625 65.96875 
L 65.625 65.96875 
L 65.625 57.078125 
L 89.265625 57.078125 
L 89.265625 -3.375 
L 98.53125 -3.375 
L 98.53125 -10.015625 
L 25.296875 -10.015625 
z
M 1.078125 35.109375 
Q 14.15625 54.640625 21.390625 82.46875 
L 28.609375 80.328125 
Q 24.703125 67.71875 20.125 56.6875 
L 20.125 -12.75 
L 12.984375 -12.75 
L 12.984375 41.65625 
Q 8.796875 33.84375 4.109375 27.09375 
Q 2.734375 31.203125 1.078125 35.109375 
z
M 42.390625 -3.375 
L 82.03125 -3.375 
L 82.03125 5.515625 
L 42.390625 5.515625 
z
M 82.03125 50.640625 
L 42.390625 50.640625 
L 42.390625 41.84375 
L 82.03125 41.84375 
z
M 42.390625 26.8125 
L 82.03125 26.8125 
L 82.03125 35.59375 
L 42.390625 35.59375 
z
M 42.390625 11.765625 
L 82.03125 11.765625 
L 82.03125 20.5625 
L 42.390625 20.5625 
z
" id="MicrosoftYaHei-503c"/>
     </defs>
     <g transform="translate(708.409375 68.83375)scale(0.1 -0.1)">
      <use xlink:href="#MicrosoftYaHei-9694"/>
      <use x="100" xlink:href="#MicrosoftYaHei-591c"/>
      <use x="200" xlink:href="#MicrosoftYaHei-2d"/>
      <use x="243.261719" xlink:href="#MicrosoftYaHei-35"/>
      <use x="301.904297" xlink:href="#MicrosoftYaHei-65e5"/>
      <use x="401.904297" xlink:href="#MicrosoftYaHei-5747"/>
      <use x="501.904297" xlink:href="#MicrosoftYaHei-503c"/>
     </g>
    </g>
    <g id="line2d_40">
     <path d="M 680.409375 80.813438 
L 700.409375 80.813438 
" style="fill:none;stroke:#ff7f0e;stroke-linecap:square;stroke-width:1.5;"/>
    </g>
    <g id="line2d_41"/>
    <g id="text_19">
     <!-- 1W-5日均值 -->
     <defs>
      <path d="M 100.484375 75.640625 
L 79.296875 0 
L 67.921875 0 
L 52.6875 54.5 
Q 51.65625 58.203125 51.46875 62.3125 
L 51.265625 62.3125 
Q 50.984375 58.25 49.90625 54.59375 
L 34.515625 0 
L 23.25 0 
L 1.3125 75.640625 
L 12.109375 75.640625 
L 27.546875 18.5 
Q 28.5625 14.65625 28.765625 10.75 
L 29.046875 10.75 
Q 29.296875 13.671875 30.671875 18.5 
L 47.015625 75.640625 
L 56.640625 75.640625 
L 72.265625 18.0625 
Q 73.046875 15.234375 73.53125 10.84375 
L 73.734375 10.84375 
Q 73.96875 14.015625 75.140625 18.265625 
L 89.984375 75.640625 
z
" id="MicrosoftYaHei-57"/>
     </defs>
     <g transform="translate(708.409375 84.313438)scale(0.1 -0.1)">
      <use xlink:href="#MicrosoftYaHei-31"/>
      <use x="58.642578" xlink:href="#MicrosoftYaHei-57"/>
      <use x="160.400391" xlink:href="#MicrosoftYaHei-2d"/>
      <use x="203.662109" xlink:href="#MicrosoftYaHei-35"/>
      <use x="262.304688" xlink:href="#MicrosoftYaHei-65e5"/>
      <use x="362.304688" xlink:href="#MicrosoftYaHei-5747"/>
      <use x="462.304688" xlink:href="#MicrosoftYaHei-503c"/>
     </g>
    </g>
    <g id="line2d_42">
     <path d="M 680.409375 96.293125 
L 700.409375 96.293125 
" style="fill:none;stroke:#2ca02c;stroke-linecap:square;stroke-width:1.5;"/>
    </g>
    <g id="line2d_43"/>
    <g id="text_20">
     <!-- 2W-5日均值 -->
     <g transform="translate(708.409375 99.793125)scale(0.1 -0.1)">
      <use xlink:href="#MicrosoftYaHei-32"/>
      <use x="58.642578" xlink:href="#MicrosoftYaHei-57"/>
      <use x="160.400391" xlink:href="#MicrosoftYaHei-2d"/>
      <use x="203.662109" xlink:href="#MicrosoftYaHei-35"/>
      <use x="262.304688" xlink:href="#MicrosoftYaHei-65e5"/>
      <use x="362.304688" xlink:href="#MicrosoftYaHei-5747"/>
      <use x="462.304688" xlink:href="#MicrosoftYaHei-503c"/>
     </g>
    </g>
    <g id="line2d_44">
     <path d="M 680.409375 111.772812 
L 700.409375 111.772812 
" style="fill:none;stroke:#d62728;stroke-linecap:square;stroke-width:1.5;"/>
    </g>
    <g id="line2d_45"/>
    <g id="text_21">
     <!-- 1M-5日均值 -->
     <defs>
      <path d="M 78.171875 0 
L 78.171875 50.09375 
Q 78.171875 56.296875 78.90625 64.984375 
L 78.65625 64.984375 
Q 77.390625 59.515625 76.421875 57.375 
L 51.46875 0 
L 46.046875 0 
L 21.140625 56.9375 
Q 20.265625 58.890625 18.890625 64.984375 
L 18.609375 64.984375 
Q 19.09375 59.71875 19.09375 49.65625 
L 19.09375 0 
L 9.765625 0 
L 9.765625 75.640625 
L 23 75.640625 
L 45.3125 23.78125 
Q 47.859375 17.828125 48.6875 14.5 
L 49.03125 14.5 
Q 51.5625 21.484375 52.59375 23.96875 
L 75.296875 75.640625 
L 87.890625 75.640625 
L 87.890625 0 
z
" id="MicrosoftYaHei-4d"/>
     </defs>
     <g transform="translate(708.409375 115.272812)scale(0.1 -0.1)">
      <use xlink:href="#MicrosoftYaHei-31"/>
      <use x="58.642578" xlink:href="#MicrosoftYaHei-4d"/>
      <use x="156.347656" xlink:href="#MicrosoftYaHei-2d"/>
      <use x="199.609375" xlink:href="#MicrosoftYaHei-35"/>
      <use x="258.251953" xlink:href="#MicrosoftYaHei-65e5"/>
      <use x="358.251953" xlink:href="#MicrosoftYaHei-5747"/>
      <use x="458.251953" xlink:href="#MicrosoftYaHei-503c"/>
     </g>
    </g>
    <g id="line2d_46">
     <path d="M 680.409375 127.2525 
L 700.409375 127.2525 
" style="fill:none;stroke:#9467bd;stroke-linecap:square;stroke-width:1.5;"/>
    </g>
    <g id="line2d_47"/>
    <g id="text_22">
     <!-- 1Y-5日均值 -->
     <defs>
      <path d="M 59.8125 75.640625 
L 34.90625 27.828125 
L 34.90625 0 
L 25.09375 0 
L 25.09375 27.59375 
L 0.828125 75.640625 
L 12.015625 75.640625 
L 28.375 42.140625 
Q 28.421875 42.09375 30.171875 37.3125 
L 30.328125 37.3125 
Q 30.90625 39.359375 32.328125 42.09375 
L 49.421875 75.640625 
z
" id="MicrosoftYaHei-59"/>
     </defs>
     <g transform="translate(708.409375 130.7525)scale(0.1 -0.1)">
      <use xlink:href="#MicrosoftYaHei-31"/>
      <use x="58.642578" xlink:href="#MicrosoftYaHei-59"/>
      <use x="118.994141" xlink:href="#MicrosoftYaHei-2d"/>
      <use x="162.255859" xlink:href="#MicrosoftYaHei-35"/>
      <use x="220.898438" xlink:href="#MicrosoftYaHei-65e5"/>
      <use x="320.898438" xlink:href="#MicrosoftYaHei-5747"/>
      <use x="420.898438" xlink:href="#MicrosoftYaHei-503c"/>
     </g>
    </g>
   </g>
  </g>
 </g>
 <defs>
  <clipPath id="p30163bef22">
   <rect height="332.64" width="669.6" x="108" y="51.84"/>
  </clipPath>
 </defs>
</svg>
