<?xml version="1.0" encoding="utf-8" standalone="no"?>
<!DOCTYPE svg PUBLIC "-//W3C//DTD SVG 1.1//EN"
  "http://www.w3.org/Graphics/SVG/1.1/DTD/svg11.dtd">
<!-- Created with matplotlib (http://matplotlib.org/) -->
<svg height="432pt" version="1.1" viewBox="0 0 864 432" width="864pt" xmlns="http://www.w3.org/2000/svg" xmlns:xlink="http://www.w3.org/1999/xlink">
 <defs>
  <style type="text/css">
*{stroke-linecap:butt;stroke-linejoin:round;}
  </style>
 </defs>
 <g id="figure_1">
  <g id="patch_1">
   <path d="M 0 432 
L 864 432 
L 864 0 
L 0 0 
z
" style="fill:#ffffff;"/>
  </g>
  <g id="axes_1">
   <g id="patch_2">
    <path d="M 108 384.48 
L 777.6 384.48 
L 777.6 51.84 
L 108 51.84 
z
" style="fill:#ffffff;"/>
   </g>
   <g id="matplotlib.axis_1">
    <g id="xtick_1">
     <g id="line2d_1">
      <path clip-path="url(#pdd2c3208f2)" d="M 108 384.48 
L 108 51.84 
" style="fill:none;stroke:#b0b0b0;stroke-linecap:square;stroke-width:0.8;"/>
     </g>
     <g id="line2d_2">
      <defs>
       <path d="M 0 0 
L 0 3.5 
" id="m0be23526a4" style="stroke:#000000;stroke-width:0.8;"/>
      </defs>
      <g>
       <use style="stroke:#000000;stroke-width:0.8;" x="108" xlink:href="#m0be23526a4" y="384.48"/>
      </g>
     </g>
     <g id="text_1">
      <!-- 2017-10-12 -->
      <defs>
       <path d="M 51.171875 0 
L 5.171875 0 
L 5.171875 8.296875 
L 27.15625 30.21875 
Q 36.234375 39.3125 39.3125 44.609375 
Q 42.390625 49.90625 42.390625 55.5625 
Q 42.390625 62.015625 38.765625 65.453125 
Q 35.15625 68.890625 28.328125 68.890625 
Q 18.21875 68.890625 9.03125 60.296875 
L 9.03125 70.015625 
Q 17.96875 76.90625 29.828125 76.90625 
Q 40.046875 76.90625 45.953125 71.390625 
Q 51.859375 65.875 51.859375 56.546875 
Q 51.859375 49.515625 48.0625 42.75 
Q 44.28125 35.984375 33.734375 25.53125 
L 16.5 8.6875 
L 16.5 8.5 
L 51.171875 8.5 
z
" id="MicrosoftYaHei-32"/>
       <path d="M 4.4375 36.328125 
Q 4.4375 56.34375 11.078125 66.625 
Q 17.71875 76.90625 30.328125 76.90625 
Q 54.34375 76.90625 54.34375 38.140625 
Q 54.34375 19 47.578125 8.859375 
Q 40.828125 -1.265625 28.609375 -1.265625 
Q 17.09375 -1.265625 10.765625 8.34375 
Q 4.4375 17.96875 4.4375 36.328125 
z
M 14.203125 36.765625 
Q 14.203125 6.640625 29.5 6.640625 
Q 44.53125 6.640625 44.53125 37.25 
Q 44.53125 68.953125 29.78125 68.953125 
Q 14.203125 68.953125 14.203125 36.765625 
z
" id="MicrosoftYaHei-30"/>
       <path d="M 52.59375 0 
L 9.234375 0 
L 9.234375 8.25 
L 26.171875 8.25 
L 26.171875 65.671875 
L 8.796875 60.640625 
L 8.796875 69.4375 
L 35.6875 77.25 
L 35.6875 8.25 
L 52.59375 8.25 
z
" id="MicrosoftYaHei-31"/>
       <path d="M 53.765625 72.3125 
L 24.171875 0 
L 14.265625 0 
L 42.390625 67.1875 
L 4.59375 67.1875 
L 4.59375 75.640625 
L 53.765625 75.640625 
z
" id="MicrosoftYaHei-37"/>
       <path d="M 36.375 26.265625 
L 7.625 26.265625 
L 7.625 33.640625 
L 36.375 33.640625 
z
" id="MicrosoftYaHei-2d"/>
      </defs>
      <g transform="translate(80.217187 399.47375)scale(0.1 -0.1)">
       <use xlink:href="#MicrosoftYaHei-32"/>
       <use x="58.642578" xlink:href="#MicrosoftYaHei-30"/>
       <use x="117.285156" xlink:href="#MicrosoftYaHei-31"/>
       <use x="175.927734" xlink:href="#MicrosoftYaHei-37"/>
       <use x="234.570312" xlink:href="#MicrosoftYaHei-2d"/>
       <use x="277.832031" xlink:href="#MicrosoftYaHei-31"/>
       <use x="336.474609" xlink:href="#MicrosoftYaHei-30"/>
       <use x="395.117188" xlink:href="#MicrosoftYaHei-2d"/>
       <use x="438.378906" xlink:href="#MicrosoftYaHei-31"/>
       <use x="497.021484" xlink:href="#MicrosoftYaHei-32"/>
      </g>
     </g>
    </g>
    <g id="xtick_2">
     <g id="line2d_3">
      <path clip-path="url(#pdd2c3208f2)" d="M 199.978022 384.48 
L 199.978022 51.84 
" style="fill:none;stroke:#b0b0b0;stroke-linecap:square;stroke-width:0.8;"/>
     </g>
     <g id="line2d_4">
      <g>
       <use style="stroke:#000000;stroke-width:0.8;" x="199.978022" xlink:href="#m0be23526a4" y="384.48"/>
      </g>
     </g>
     <g id="text_2">
      <!-- 2017-12-21 -->
      <g transform="translate(172.195209 399.47375)scale(0.1 -0.1)">
       <use xlink:href="#MicrosoftYaHei-32"/>
       <use x="58.642578" xlink:href="#MicrosoftYaHei-30"/>
       <use x="117.285156" xlink:href="#MicrosoftYaHei-31"/>
       <use x="175.927734" xlink:href="#MicrosoftYaHei-37"/>
       <use x="234.570312" xlink:href="#MicrosoftYaHei-2d"/>
       <use x="277.832031" xlink:href="#MicrosoftYaHei-31"/>
       <use x="336.474609" xlink:href="#MicrosoftYaHei-32"/>
       <use x="395.117188" xlink:href="#MicrosoftYaHei-2d"/>
       <use x="438.378906" xlink:href="#MicrosoftYaHei-32"/>
       <use x="497.021484" xlink:href="#MicrosoftYaHei-31"/>
      </g>
     </g>
    </g>
    <g id="xtick_3">
     <g id="line2d_5">
      <path clip-path="url(#pdd2c3208f2)" d="M 291.956044 384.48 
L 291.956044 51.84 
" style="fill:none;stroke:#b0b0b0;stroke-linecap:square;stroke-width:0.8;"/>
     </g>
     <g id="line2d_6">
      <g>
       <use style="stroke:#000000;stroke-width:0.8;" x="291.956044" xlink:href="#m0be23526a4" y="384.48"/>
      </g>
     </g>
     <g id="text_3">
      <!-- 2018-03-08 -->
      <defs>
       <path d="M 21.390625 39.796875 
Q 7.859375 46.09375 7.859375 58.0625 
Q 7.859375 66.40625 14.203125 71.65625 
Q 20.5625 76.90625 30.421875 76.90625 
Q 39.453125 76.90625 45.3125 71.96875 
Q 51.171875 67.046875 51.171875 59.234375 
Q 51.171875 46.625 37.0625 39.84375 
L 37.0625 39.65625 
Q 53.609375 33.6875 53.609375 19.34375 
Q 53.609375 9.90625 46.796875 4.3125 
Q 39.984375 -1.265625 27.78125 -1.265625 
Q 17.78125 -1.265625 11.46875 4.25 
Q 5.171875 9.765625 5.171875 18.5625 
Q 5.171875 33.015625 21.390625 39.59375 
z
M 41.5 58.109375 
Q 41.5 63.1875 38.328125 66.109375 
Q 35.15625 69.046875 29.734375 69.046875 
Q 24.65625 69.046875 21.09375 65.984375 
Q 17.53125 62.9375 17.53125 58.203125 
Q 17.53125 48.734375 29.390625 43.796875 
Q 41.5 48.828125 41.5 58.109375 
z
M 28.8125 35.25 
Q 14.796875 29.59375 14.796875 19.046875 
Q 14.796875 13.578125 18.890625 10.0625 
Q 23 6.546875 29.59375 6.546875 
Q 35.984375 6.546875 39.984375 10.03125 
Q 44 13.53125 44 18.75 
Q 44 29.734375 28.8125 35.25 
z
" id="MicrosoftYaHei-38"/>
       <path d="M 6.984375 12.640625 
Q 14.75 6.640625 24.515625 6.640625 
Q 32.328125 6.640625 36.890625 10.46875 
Q 41.453125 14.3125 41.453125 20.75 
Q 41.453125 35.109375 20.90625 35.109375 
L 14.59375 35.109375 
L 14.59375 43.015625 
L 20.609375 43.015625 
Q 38.8125 43.015625 38.8125 56.5 
Q 38.8125 68.953125 24.90625 68.953125 
Q 16.9375 68.953125 9.90625 63.578125 
L 9.90625 72.609375 
Q 17.328125 76.90625 27.25 76.90625 
Q 36.921875 76.90625 42.78125 71.84375 
Q 48.640625 66.796875 48.640625 58.734375 
Q 48.640625 43.890625 33.5 39.65625 
L 33.5 39.453125 
Q 41.703125 38.578125 46.453125 33.671875 
Q 51.21875 28.765625 51.21875 21.4375 
Q 51.21875 11.234375 43.875 4.984375 
Q 36.53125 -1.265625 24.3125 -1.265625 
Q 13.578125 -1.265625 6.984375 2.734375 
z
" id="MicrosoftYaHei-33"/>
      </defs>
      <g transform="translate(264.173231 399.47375)scale(0.1 -0.1)">
       <use xlink:href="#MicrosoftYaHei-32"/>
       <use x="58.642578" xlink:href="#MicrosoftYaHei-30"/>
       <use x="117.285156" xlink:href="#MicrosoftYaHei-31"/>
       <use x="175.927734" xlink:href="#MicrosoftYaHei-38"/>
       <use x="234.570312" xlink:href="#MicrosoftYaHei-2d"/>
       <use x="277.832031" xlink:href="#MicrosoftYaHei-30"/>
       <use x="336.474609" xlink:href="#MicrosoftYaHei-33"/>
       <use x="395.117188" xlink:href="#MicrosoftYaHei-2d"/>
       <use x="438.378906" xlink:href="#MicrosoftYaHei-30"/>
       <use x="497.021484" xlink:href="#MicrosoftYaHei-38"/>
      </g>
     </g>
    </g>
    <g id="xtick_4">
     <g id="line2d_7">
      <path clip-path="url(#pdd2c3208f2)" d="M 383.934066 384.48 
L 383.934066 51.84 
" style="fill:none;stroke:#b0b0b0;stroke-linecap:square;stroke-width:0.8;"/>
     </g>
     <g id="line2d_8">
      <g>
       <use style="stroke:#000000;stroke-width:0.8;" x="383.934066" xlink:href="#m0be23526a4" y="384.48"/>
      </g>
     </g>
     <g id="text_4">
      <!-- 2018-05-21 -->
      <defs>
       <path d="M 8.640625 11.625 
Q 16.265625 6.640625 24.515625 6.640625 
Q 32.328125 6.640625 37.109375 11 
Q 41.890625 15.375 41.890625 22.609375 
Q 41.890625 29.890625 37.03125 33.890625 
Q 32.171875 37.890625 22.953125 37.890625 
Q 18.5 37.890625 10.984375 37.203125 
L 10.984375 75.640625 
L 48.1875 75.640625 
L 48.1875 67.1875 
L 19.875 67.1875 
L 19.875 45.796875 
Q 24.125 46.046875 26.265625 46.046875 
Q 38.234375 46.046875 44.921875 39.984375 
Q 51.609375 33.9375 51.609375 23.296875 
Q 51.609375 12.3125 44.421875 5.515625 
Q 37.25 -1.265625 24.609375 -1.265625 
Q 14.015625 -1.265625 8.640625 1.859375 
z
" id="MicrosoftYaHei-35"/>
      </defs>
      <g transform="translate(356.151253 399.47375)scale(0.1 -0.1)">
       <use xlink:href="#MicrosoftYaHei-32"/>
       <use x="58.642578" xlink:href="#MicrosoftYaHei-30"/>
       <use x="117.285156" xlink:href="#MicrosoftYaHei-31"/>
       <use x="175.927734" xlink:href="#MicrosoftYaHei-38"/>
       <use x="234.570312" xlink:href="#MicrosoftYaHei-2d"/>
       <use x="277.832031" xlink:href="#MicrosoftYaHei-30"/>
       <use x="336.474609" xlink:href="#MicrosoftYaHei-35"/>
       <use x="395.117188" xlink:href="#MicrosoftYaHei-2d"/>
       <use x="438.378906" xlink:href="#MicrosoftYaHei-32"/>
       <use x="497.021484" xlink:href="#MicrosoftYaHei-31"/>
      </g>
     </g>
    </g>
    <g id="xtick_5">
     <g id="line2d_9">
      <path clip-path="url(#pdd2c3208f2)" d="M 475.912088 384.48 
L 475.912088 51.84 
" style="fill:none;stroke:#b0b0b0;stroke-linecap:square;stroke-width:0.8;"/>
     </g>
     <g id="line2d_10">
      <g>
       <use style="stroke:#000000;stroke-width:0.8;" x="475.912088" xlink:href="#m0be23526a4" y="384.48"/>
      </g>
     </g>
     <g id="text_5">
      <!-- 2018-07-31 -->
      <g transform="translate(448.129275 399.47375)scale(0.1 -0.1)">
       <use xlink:href="#MicrosoftYaHei-32"/>
       <use x="58.642578" xlink:href="#MicrosoftYaHei-30"/>
       <use x="117.285156" xlink:href="#MicrosoftYaHei-31"/>
       <use x="175.927734" xlink:href="#MicrosoftYaHei-38"/>
       <use x="234.570312" xlink:href="#MicrosoftYaHei-2d"/>
       <use x="277.832031" xlink:href="#MicrosoftYaHei-30"/>
       <use x="336.474609" xlink:href="#MicrosoftYaHei-37"/>
       <use x="395.117188" xlink:href="#MicrosoftYaHei-2d"/>
       <use x="438.378906" xlink:href="#MicrosoftYaHei-33"/>
       <use x="497.021484" xlink:href="#MicrosoftYaHei-31"/>
      </g>
     </g>
    </g>
    <g id="xtick_6">
     <g id="line2d_11">
      <path clip-path="url(#pdd2c3208f2)" d="M 567.89011 384.48 
L 567.89011 51.84 
" style="fill:none;stroke:#b0b0b0;stroke-linecap:square;stroke-width:0.8;"/>
     </g>
     <g id="line2d_12">
      <g>
       <use style="stroke:#000000;stroke-width:0.8;" x="567.89011" xlink:href="#m0be23526a4" y="384.48"/>
      </g>
     </g>
     <g id="text_6">
      <!-- 2018-10-15 -->
      <g transform="translate(540.107297 399.47375)scale(0.1 -0.1)">
       <use xlink:href="#MicrosoftYaHei-32"/>
       <use x="58.642578" xlink:href="#MicrosoftYaHei-30"/>
       <use x="117.285156" xlink:href="#MicrosoftYaHei-31"/>
       <use x="175.927734" xlink:href="#MicrosoftYaHei-38"/>
       <use x="234.570312" xlink:href="#MicrosoftYaHei-2d"/>
       <use x="277.832031" xlink:href="#MicrosoftYaHei-31"/>
       <use x="336.474609" xlink:href="#MicrosoftYaHei-30"/>
       <use x="395.117188" xlink:href="#MicrosoftYaHei-2d"/>
       <use x="438.378906" xlink:href="#MicrosoftYaHei-31"/>
       <use x="497.021484" xlink:href="#MicrosoftYaHei-35"/>
      </g>
     </g>
    </g>
    <g id="xtick_7">
     <g id="line2d_13">
      <path clip-path="url(#pdd2c3208f2)" d="M 659.868132 384.48 
L 659.868132 51.84 
" style="fill:none;stroke:#b0b0b0;stroke-linecap:square;stroke-width:0.8;"/>
     </g>
     <g id="line2d_14">
      <g>
       <use style="stroke:#000000;stroke-width:0.8;" x="659.868132" xlink:href="#m0be23526a4" y="384.48"/>
      </g>
     </g>
     <g id="text_7">
      <!-- 2018-12-24 -->
      <defs>
       <path d="M 55.078125 19.625 
L 45.40625 19.625 
L 45.40625 0 
L 36.140625 0 
L 36.140625 19.625 
L 0.875 19.625 
L 0.875 25.828125 
L 34.328125 75.640625 
L 45.40625 75.640625 
L 45.40625 27.203125 
L 55.078125 27.203125 
z
M 36.140625 27.203125 
L 36.140625 58.890625 
Q 36.140625 62.25 36.328125 66.65625 
L 36.140625 66.65625 
Q 35.453125 64.796875 33.25 60.84375 
L 10.75 27.203125 
z
" id="MicrosoftYaHei-34"/>
      </defs>
      <g transform="translate(632.085319 399.47375)scale(0.1 -0.1)">
       <use xlink:href="#MicrosoftYaHei-32"/>
       <use x="58.642578" xlink:href="#MicrosoftYaHei-30"/>
       <use x="117.285156" xlink:href="#MicrosoftYaHei-31"/>
       <use x="175.927734" xlink:href="#MicrosoftYaHei-38"/>
       <use x="234.570312" xlink:href="#MicrosoftYaHei-2d"/>
       <use x="277.832031" xlink:href="#MicrosoftYaHei-31"/>
       <use x="336.474609" xlink:href="#MicrosoftYaHei-32"/>
       <use x="395.117188" xlink:href="#MicrosoftYaHei-2d"/>
       <use x="438.378906" xlink:href="#MicrosoftYaHei-32"/>
       <use x="497.021484" xlink:href="#MicrosoftYaHei-34"/>
      </g>
     </g>
    </g>
    <g id="xtick_8">
     <g id="line2d_15">
      <path clip-path="url(#pdd2c3208f2)" d="M 751.846154 384.48 
L 751.846154 51.84 
" style="fill:none;stroke:#b0b0b0;stroke-linecap:square;stroke-width:0.8;"/>
     </g>
     <g id="line2d_16">
      <g>
       <use style="stroke:#000000;stroke-width:0.8;" x="751.846154" xlink:href="#m0be23526a4" y="384.48"/>
      </g>
     </g>
     <g id="text_8">
      <!-- 2019-03-11 -->
      <defs>
       <path d="M 9.03125 10.25 
Q 15.28125 6.640625 22.515625 6.640625 
Q 32.671875 6.640625 38.25 14.640625 
Q 43.84375 22.65625 43.84375 37.40625 
Q 43.75 37.3125 43.65625 37.40625 
Q 38.671875 27.9375 26.90625 27.9375 
Q 17.390625 27.9375 11.140625 34.46875 
Q 4.890625 41.015625 4.890625 51.46875 
Q 4.890625 62.59375 11.71875 69.75 
Q 18.5625 76.90625 29.4375 76.90625 
Q 40.71875 76.90625 47.0625 68.046875 
Q 53.421875 59.1875 53.421875 42.234375 
Q 53.421875 21.296875 45.21875 10.015625 
Q 37.015625 -1.265625 22.515625 -1.265625 
Q 14.546875 -1.265625 9.03125 1.3125 
z
M 14.546875 52.6875 
Q 14.546875 45.0625 18.453125 40.59375 
Q 22.359375 36.140625 29.25 36.140625 
Q 35.203125 36.140625 39.25 40.203125 
Q 43.3125 44.28125 43.3125 50.09375 
Q 43.3125 58.25 39.28125 63.59375 
Q 35.25 68.953125 28.65625 68.953125 
Q 22.5625 68.953125 18.546875 64.3125 
Q 14.546875 59.671875 14.546875 52.6875 
z
" id="MicrosoftYaHei-39"/>
      </defs>
      <g transform="translate(724.063341 399.47375)scale(0.1 -0.1)">
       <use xlink:href="#MicrosoftYaHei-32"/>
       <use x="58.642578" xlink:href="#MicrosoftYaHei-30"/>
       <use x="117.285156" xlink:href="#MicrosoftYaHei-31"/>
       <use x="175.927734" xlink:href="#MicrosoftYaHei-39"/>
       <use x="234.570312" xlink:href="#MicrosoftYaHei-2d"/>
       <use x="277.832031" xlink:href="#MicrosoftYaHei-30"/>
       <use x="336.474609" xlink:href="#MicrosoftYaHei-33"/>
       <use x="395.117188" xlink:href="#MicrosoftYaHei-2d"/>
       <use x="438.378906" xlink:href="#MicrosoftYaHei-31"/>
       <use x="497.021484" xlink:href="#MicrosoftYaHei-31"/>
      </g>
     </g>
    </g>
    <g id="text_9">
     <!-- 日期 -->
     <defs>
      <path d="M 15.234375 76.703125 
L 84.859375 76.703125 
L 84.859375 -11.96875 
L 76.5625 -11.96875 
L 76.5625 -5.03125 
L 23.53125 -5.03125 
L 23.53125 -11.96875 
L 15.234375 -11.96875 
z
M 23.53125 32.859375 
L 23.53125 2.09375 
L 76.5625 2.09375 
L 76.5625 32.859375 
z
M 23.53125 69.390625 
L 23.53125 40.1875 
L 76.5625 40.1875 
L 76.5625 69.390625 
z
" id="MicrosoftYaHei-65e5"/>
      <path d="M 58.890625 79.15625 
L 93.453125 79.15625 
L 93.453125 -0.046875 
Q 93.453125 -11.578125 82.515625 -11.578125 
Q 77.046875 -11.578125 71.78125 -11.28125 
Q 71.390625 -8.0625 70.609375 -3.765625 
Q 77.734375 -4.4375 80.859375 -4.4375 
Q 86.234375 -4.4375 86.234375 0.921875 
L 86.234375 21.4375 
L 65.328125 21.4375 
Q 64.265625 0.046875 52.34375 -14.109375 
Q 49.703125 -11.375 46.484375 -8.640625 
Q 54.390625 0.4375 56.546875 10.203125 
Q 58.890625 19.578125 58.890625 42.828125 
z
M 1.953125 17.828125 
L 11.140625 17.828125 
L 11.140625 62.9375 
L 3.125 62.9375 
L 3.125 69.578125 
L 11.140625 69.578125 
L 11.140625 81.5 
L 18.359375 81.5 
L 18.359375 69.578125 
L 38.671875 69.578125 
L 38.671875 81.890625 
L 45.90625 81.890625 
L 45.90625 69.578125 
L 53.8125 69.578125 
L 53.8125 62.9375 
L 45.90625 62.9375 
L 45.90625 17.828125 
L 53.71875 17.828125 
L 53.71875 11.1875 
L 1.953125 11.1875 
z
M 65.765625 27.875 
L 86.234375 27.875 
L 86.234375 47.015625 
L 66.109375 47.015625 
Q 66.21875 34.421875 65.765625 27.875 
z
M 86.234375 72.515625 
L 66.109375 72.515625 
L 66.109375 53.46875 
L 86.234375 53.46875 
z
M 18.359375 17.828125 
L 38.671875 17.828125 
L 38.671875 28.765625 
L 18.359375 28.765625 
z
M 18.359375 35.015625 
L 38.671875 35.015625 
L 38.671875 45.84375 
L 18.359375 45.84375 
z
M 18.359375 52.09375 
L 38.671875 52.09375 
L 38.671875 62.9375 
L 18.359375 62.9375 
z
M 18.359375 9.328125 
L 24.3125 4.640625 
Q 14.453125 -6 6.34375 -13.234375 
Q 4.296875 -10.890625 1.171875 -8.0625 
Q 10.453125 -0.140625 18.359375 9.328125 
z
M 31.15625 4.734375 
L 35.84375 9.515625 
Q 42.671875 4.4375 48.734375 -0.734375 
L 43.5625 -6.296875 
Q 38.09375 -0.828125 31.15625 4.734375 
z
" id="MicrosoftYaHei-671f"/>
     </defs>
     <g transform="translate(432.8 413.953438)scale(0.1 -0.1)">
      <use xlink:href="#MicrosoftYaHei-65e5"/>
      <use x="100" xlink:href="#MicrosoftYaHei-671f"/>
     </g>
    </g>
   </g>
   <g id="matplotlib.axis_2">
    <g id="ytick_1">
     <g id="line2d_17">
      <path clip-path="url(#pdd2c3208f2)" d="M 108 375.112809 
L 777.6 375.112809 
" style="fill:none;stroke:#b0b0b0;stroke-linecap:square;stroke-width:0.8;"/>
     </g>
     <g id="line2d_18">
      <defs>
       <path d="M 0 0 
L -3.5 0 
" id="me3abe59af1" style="stroke:#000000;stroke-width:0.8;"/>
      </defs>
      <g>
       <use style="stroke:#000000;stroke-width:0.8;" x="108" xlink:href="#me3abe59af1" y="375.112809"/>
      </g>
     </g>
     <g id="text_10">
      <!-- 1.5 -->
      <defs>
       <path d="M 5.8125 5.03125 
Q 5.8125 7.671875 7.609375 9.46875 
Q 9.421875 11.28125 12.109375 11.28125 
Q 14.84375 11.28125 16.640625 9.453125 
Q 18.453125 7.625 18.453125 5.03125 
Q 18.453125 2.484375 16.640625 0.65625 
Q 14.84375 -1.171875 12.0625 -1.171875 
Q 9.375 -1.171875 7.59375 0.65625 
Q 5.8125 2.484375 5.8125 5.03125 
z
" id="MicrosoftYaHei-2e"/>
      </defs>
      <g transform="translate(86.864063 379.109684)scale(0.1 -0.1)">
       <use xlink:href="#MicrosoftYaHei-31"/>
       <use x="58.642578" xlink:href="#MicrosoftYaHei-2e"/>
       <use x="82.714844" xlink:href="#MicrosoftYaHei-35"/>
      </g>
     </g>
    </g>
    <g id="ytick_2">
     <g id="line2d_19">
      <path clip-path="url(#pdd2c3208f2)" d="M 108 330.168989 
L 777.6 330.168989 
" style="fill:none;stroke:#b0b0b0;stroke-linecap:square;stroke-width:0.8;"/>
     </g>
     <g id="line2d_20">
      <g>
       <use style="stroke:#000000;stroke-width:0.8;" x="108" xlink:href="#me3abe59af1" y="330.168989"/>
      </g>
     </g>
     <g id="text_11">
      <!-- 2.0 -->
      <g transform="translate(86.864063 334.165864)scale(0.1 -0.1)">
       <use xlink:href="#MicrosoftYaHei-32"/>
       <use x="58.642578" xlink:href="#MicrosoftYaHei-2e"/>
       <use x="82.714844" xlink:href="#MicrosoftYaHei-30"/>
      </g>
     </g>
    </g>
    <g id="ytick_3">
     <g id="line2d_21">
      <path clip-path="url(#pdd2c3208f2)" d="M 108 285.225169 
L 777.6 285.225169 
" style="fill:none;stroke:#b0b0b0;stroke-linecap:square;stroke-width:0.8;"/>
     </g>
     <g id="line2d_22">
      <g>
       <use style="stroke:#000000;stroke-width:0.8;" x="108" xlink:href="#me3abe59af1" y="285.225169"/>
      </g>
     </g>
     <g id="text_12">
      <!-- 2.5 -->
      <g transform="translate(86.864063 289.222044)scale(0.1 -0.1)">
       <use xlink:href="#MicrosoftYaHei-32"/>
       <use x="58.642578" xlink:href="#MicrosoftYaHei-2e"/>
       <use x="82.714844" xlink:href="#MicrosoftYaHei-35"/>
      </g>
     </g>
    </g>
    <g id="ytick_4">
     <g id="line2d_23">
      <path clip-path="url(#pdd2c3208f2)" d="M 108 240.281348 
L 777.6 240.281348 
" style="fill:none;stroke:#b0b0b0;stroke-linecap:square;stroke-width:0.8;"/>
     </g>
     <g id="line2d_24">
      <g>
       <use style="stroke:#000000;stroke-width:0.8;" x="108" xlink:href="#me3abe59af1" y="240.281348"/>
      </g>
     </g>
     <g id="text_13">
      <!-- 3.0 -->
      <g transform="translate(86.864063 244.278223)scale(0.1 -0.1)">
       <use xlink:href="#MicrosoftYaHei-33"/>
       <use x="58.642578" xlink:href="#MicrosoftYaHei-2e"/>
       <use x="82.714844" xlink:href="#MicrosoftYaHei-30"/>
      </g>
     </g>
    </g>
    <g id="ytick_5">
     <g id="line2d_25">
      <path clip-path="url(#pdd2c3208f2)" d="M 108 195.337528 
L 777.6 195.337528 
" style="fill:none;stroke:#b0b0b0;stroke-linecap:square;stroke-width:0.8;"/>
     </g>
     <g id="line2d_26">
      <g>
       <use style="stroke:#000000;stroke-width:0.8;" x="108" xlink:href="#me3abe59af1" y="195.337528"/>
      </g>
     </g>
     <g id="text_14">
      <!-- 3.5 -->
      <g transform="translate(86.864063 199.334403)scale(0.1 -0.1)">
       <use xlink:href="#MicrosoftYaHei-33"/>
       <use x="58.642578" xlink:href="#MicrosoftYaHei-2e"/>
       <use x="82.714844" xlink:href="#MicrosoftYaHei-35"/>
      </g>
     </g>
    </g>
    <g id="ytick_6">
     <g id="line2d_27">
      <path clip-path="url(#pdd2c3208f2)" d="M 108 150.393708 
L 777.6 150.393708 
" style="fill:none;stroke:#b0b0b0;stroke-linecap:square;stroke-width:0.8;"/>
     </g>
     <g id="line2d_28">
      <g>
       <use style="stroke:#000000;stroke-width:0.8;" x="108" xlink:href="#me3abe59af1" y="150.393708"/>
      </g>
     </g>
     <g id="text_15">
      <!-- 4.0 -->
      <g transform="translate(86.864063 154.390583)scale(0.1 -0.1)">
       <use xlink:href="#MicrosoftYaHei-34"/>
       <use x="58.642578" xlink:href="#MicrosoftYaHei-2e"/>
       <use x="82.714844" xlink:href="#MicrosoftYaHei-30"/>
      </g>
     </g>
    </g>
    <g id="ytick_7">
     <g id="line2d_29">
      <path clip-path="url(#pdd2c3208f2)" d="M 108 105.449888 
L 777.6 105.449888 
" style="fill:none;stroke:#b0b0b0;stroke-linecap:square;stroke-width:0.8;"/>
     </g>
     <g id="line2d_30">
      <g>
       <use style="stroke:#000000;stroke-width:0.8;" x="108" xlink:href="#me3abe59af1" y="105.449888"/>
      </g>
     </g>
     <g id="text_16">
      <!-- 4.5 -->
      <g transform="translate(86.864063 109.446763)scale(0.1 -0.1)">
       <use xlink:href="#MicrosoftYaHei-34"/>
       <use x="58.642578" xlink:href="#MicrosoftYaHei-2e"/>
       <use x="82.714844" xlink:href="#MicrosoftYaHei-35"/>
      </g>
     </g>
    </g>
    <g id="ytick_8">
     <g id="line2d_31">
      <path clip-path="url(#pdd2c3208f2)" d="M 108 60.506067 
L 777.6 60.506067 
" style="fill:none;stroke:#b0b0b0;stroke-linecap:square;stroke-width:0.8;"/>
     </g>
     <g id="line2d_32">
      <g>
       <use style="stroke:#000000;stroke-width:0.8;" x="108" xlink:href="#me3abe59af1" y="60.506067"/>
      </g>
     </g>
     <g id="text_17">
      <!-- 5.0 -->
      <g transform="translate(86.864063 64.502942)scale(0.1 -0.1)">
       <use xlink:href="#MicrosoftYaHei-35"/>
       <use x="58.642578" xlink:href="#MicrosoftYaHei-2e"/>
       <use x="82.714844" xlink:href="#MicrosoftYaHei-30"/>
      </g>
     </g>
    </g>
   </g>
   <g id="line2d_33">
    <path clip-path="url(#pdd2c3208f2)" d="M 108 261.602697 
L 109.83956 267.589213 
L 115.358242 275.292584 
L 117.197802 276.461124 
L 119.037363 276.946517 
L 120.876923 276.551011 
L 122.716484 275.948764 
L 124.556044 274.726292 
L 126.395604 272.892584 
L 128.235165 270.37573 
L 131.914286 266.67236 
L 133.753846 265.324045 
L 135.593407 266.546517 
L 137.432967 269.081348 
L 139.272527 272.820674 
L 141.112088 276.128539 
L 142.951648 278.717303 
L 144.791209 278.357753 
L 146.630769 275.840899 
L 150.30989 265.953258 
L 152.149451 262.16 
L 153.989011 259.391461 
L 155.828571 259.013933 
L 157.668132 259.03191 
L 159.507692 259.373483 
L 163.186813 259.265618 
L 165.026374 258.204944 
L 166.865934 257.611685 
L 168.705495 257.773483 
L 170.545055 260.038652 
L 172.384615 260.308315 
L 174.224176 263.094831 
L 177.903297 270.986966 
L 179.742857 272.964494 
L 181.582418 276.613933 
L 183.421978 277.225169 
L 185.261538 275.643146 
L 187.101099 273.000449 
L 190.78022 265.21618 
L 192.61978 263.130787 
L 194.459341 262.501573 
L 196.298901 262.23191 
L 198.138462 263.274607 
L 199.978022 265.755506 
L 201.817582 267.768989 
L 205.496703 273.270112 
L 207.336264 274.420674 
L 209.175824 274.294831 
L 211.015385 270.195955 
L 212.854945 269.07236 
L 214.694505 271.966742 
L 216.534066 275.346517 
L 218.373626 282.16 
L 220.213187 284.461124 
L 222.052747 283.03191 
L 225.731868 270.933034 
L 227.571429 264.946517 
L 229.410989 260.34427 
L 231.250549 258.151011 
L 233.09011 259.346517 
L 234.92967 259.238652 
L 236.769231 259.652135 
L 240.448352 266.37573 
L 242.287912 270.007191 
L 244.127473 275.139775 
L 245.967033 278.825169 
L 247.806593 279.68809 
L 249.646154 279.328539 
L 251.485714 280.191461 
L 255.164835 281.43191 
L 257.004396 281.701573 
L 258.843956 282.115056 
L 260.683516 281.090337 
L 264.362637 278.411685 
L 266.202198 277.584719 
L 268.041758 277.297079 
L 269.881319 274.582472 
L 271.720879 273.827416 
L 273.56044 274.025169 
L 275.4 274.474607 
L 277.23956 274.762247 
L 279.079121 277.674607 
L 280.918681 276.290337 
L 282.758242 274.600449 
L 284.597802 270.771236 
L 286.437363 269.315056 
L 288.276923 268.308315 
L 291.956044 272.568989 
L 293.795604 276.164494 
L 295.635165 277.351011 
L 297.474725 276.991461 
L 299.314286 276.254382 
L 301.153846 275.139775 
L 302.993407 274.906067 
L 304.832967 275.355506 
L 310.351648 279.598202 
L 312.191209 280.335281 
L 314.030769 280.658876 
L 319.549451 278.852135 
L 321.389011 276.245393 
L 323.228571 274.825169 
L 325.068132 275.17573 
L 326.907692 277.386966 
L 328.747253 279.813933 
L 330.586813 282.726292 
L 332.426374 284.002697 
L 334.265934 284.236404 
L 336.105495 282.654382 
L 337.945055 280.658876 
L 339.784615 279.68809 
L 343.463736 275.517303 
L 345.303297 272.353258 
L 347.142857 268.937528 
L 348.982418 266.384719 
L 350.821978 265.108315 
L 352.661538 264.227416 
L 354.501099 263.652135 
L 356.340659 260.524045 
L 358.18022 258.726292 
L 360.01978 259.013933 
L 361.859341 259.858876 
L 363.698901 262.933034 
L 365.538462 269.027416 
L 367.378022 273.50382 
L 369.217582 277.099326 
L 371.057143 280.191461 
L 372.896703 282.115056 
L 374.736264 282.151011 
L 376.575824 280.964494 
L 378.415385 276.542022 
L 380.254945 274.96 
L 382.094505 273.593708 
L 383.934066 274.546517 
L 385.773626 276.63191 
L 387.613187 280.874607 
L 389.452747 282.079101 
L 391.292308 282.708315 
L 393.131868 282.600449 
L 394.971429 278.699326 
L 396.810989 272.335281 
L 398.650549 266.924045 
L 400.49011 262.01618 
L 402.32967 260.829663 
L 404.169231 263.670112 
L 406.008791 269.458876 
L 407.848352 274.420674 
L 409.687912 278.699326 
L 411.527473 279.166742 
L 413.367033 279.166742 
L 415.206593 278.681348 
L 417.046154 278.034157 
L 418.885714 277.512809 
L 420.725275 277.207191 
L 422.564835 276.577978 
L 424.404396 276.506067 
L 426.243956 276.595955 
L 428.083516 277.099326 
L 429.923077 278.393708 
L 431.762637 281.521798 
L 433.602198 286.986966 
L 435.441758 286.23191 
L 437.281319 287.040899 
L 439.120879 288.802697 
L 440.96044 293.225169 
L 442.8 296.04764 
L 444.63956 307.930787 
L 446.479121 317.422921 
L 448.318681 319.436404 
L 450.158242 315.715056 
L 451.997802 309.333034 
L 453.837363 300.110562 
L 455.676923 289.935281 
L 457.516484 284.84764 
L 459.356044 282.708315 
L 461.195604 283.984719 
L 463.035165 286.393708 
L 464.874725 289.899326 
L 466.714286 294.177978 
L 468.553846 297.342022 
L 470.393407 299.049888 
L 472.232967 300.164494 
L 474.072527 303.112809 
L 475.912088 308.27236 
L 477.751648 314.043146 
L 479.591209 320.353258 
L 481.430769 328.173483 
L 483.27033 334.986966 
L 485.10989 343.130787 
L 486.949451 354.025169 
L 488.789011 360.281348 
L 490.628571 360.694831 
L 492.468132 355.409438 
L 494.307692 342.555506 
L 497.986813 309.980225 
L 499.826374 296.425169 
L 501.665934 287.220674 
L 503.505495 281.683596 
L 505.345055 278.213933 
L 507.184615 279.238652 
L 510.863736 285.94427 
L 512.703297 289.728539 
L 514.542857 292.398202 
L 516.382418 295.580225 
L 518.221978 297.07236 
L 520.061538 300.002697 
L 523.740659 308.200449 
L 525.58022 304.299326 
L 529.259341 293.908315 
L 532.938462 279.742022 
L 534.778022 279.094831 
L 538.457143 282.852135 
L 540.296703 281.701573 
L 542.136264 281.611685 
L 543.975824 281.809438 
L 545.815385 281.36 
L 547.654945 279.97573 
L 551.334066 283.625169 
L 553.173626 284.955506 
L 555.013187 292.883596 
L 556.852747 290.906067 
L 558.692308 291.211685 
L 560.531868 290.456629 
L 562.371429 291.301573 
L 564.210989 286.142022 
L 566.050549 289.989213 
L 567.89011 292.84764 
L 569.72967 295.166742 
L 571.569231 295.97573 
L 573.408791 294.771236 
L 575.248352 294.663371 
L 577.087912 292.901573 
L 578.927473 291.499326 
L 580.767033 290.780225 
L 582.606593 294.591461 
L 584.446154 301.386966 
L 586.285714 312.586966 
L 588.125275 328.497079 
L 589.964835 328.910562 
L 591.804396 322.942022 
L 593.643956 315.571236 
L 595.483516 305.099326 
L 597.323077 292.443146 
L 599.162637 297.467865 
L 601.002198 307.697079 
L 602.841758 315.589213 
L 604.681319 317.845393 
L 606.520879 314.285843 
L 608.36044 310.070112 
L 610.2 303.580225 
L 612.03956 298.061124 
L 613.879121 293.710562 
L 615.718681 291.17573 
L 617.558242 286.609438 
L 619.397802 284.506067 
L 621.237363 284.308315 
L 624.916484 286.213933 
L 626.756044 286.933034 
L 628.595604 290.420674 
L 630.435165 285.279101 
L 632.274725 284.973483 
L 634.114286 286.968989 
L 635.953846 291.858876 
L 637.793407 289.054382 
L 639.632967 293.117303 
L 641.472527 294.23191 
L 643.312088 293.908315 
L 645.151648 291.085843 
L 646.991209 289.270112 
L 648.830769 284.973483 
L 650.67033 281.881348 
L 652.50989 278.177978 
L 654.349451 274.043146 
L 656.189011 273.180225 
L 658.028571 276.218427 
L 659.868132 281.773483 
L 663.547253 304.533034 
L 665.386813 318.44764 
L 667.226374 336.712809 
L 669.065934 332.434157 
L 670.905495 328.640899 
L 672.745055 331.229663 
L 674.584615 331.643146 
L 676.424176 352.137528 
L 678.263736 365.315056 
L 680.103297 369.36 
L 681.942857 368.299326 
L 683.782418 360.551011 
L 685.621978 345.611685 
L 687.461538 332.326292 
L 689.301099 323.049888 
L 691.140659 314.591461 
L 692.98022 308.083596 
L 694.81978 308.119551 
L 696.659341 309.234157 
L 698.498901 309.162247 
L 700.338462 305.863371 
L 702.178022 306.690337 
L 704.017582 309.656629 
L 705.857143 314.007191 
L 707.696703 314.456629 
L 709.536264 319.166742 
L 711.375824 317.908315 
L 713.215385 317.764494 
L 715.054945 313.036404 
L 716.894505 317.009438 
L 718.734066 323.804944 
L 720.573626 333.566742 
L 722.413187 340.27236 
L 724.252747 348.227416 
L 726.092308 349.126292 
L 727.931868 346.753258 
L 729.771429 341.198202 
L 731.610989 328.290337 
L 737.12967 286.573483 
L 738.969231 276.613933 
L 740.808791 281.57573 
L 742.648352 293.656629 
L 744.487912 301.548764 
L 746.327473 311.97573 
L 748.167033 321.395955 
L 750.006593 323.337528 
L 751.846154 320.479101 
L 753.685714 318.699326 
L 755.525275 318.609438 
L 757.364835 314.115056 
L 759.204396 303.184719 
L 761.043956 291.24764 
L 762.883516 285.836404 
L 764.723077 274.420674 
L 766.562637 268.110562 
L 768.402198 268.739775 
L 770.241758 272.712809 
L 772.081319 275.786966 
L 773.920879 283.481348 
L 775.76044 294.627416 
L 777.6 297.036404 
L 777.6 297.036404 
" style="fill:none;stroke:#1f77b4;stroke-linecap:square;stroke-width:1.5;"/>
   </g>
   <g id="line2d_34">
    <path clip-path="url(#pdd2c3208f2)" d="M 108 246.807191 
L 109.83956 248.883596 
L 111.679121 250.177978 
L 113.518681 251.813933 
L 115.358242 253.21618 
L 117.197802 254.034157 
L 122.716484 254.780225 
L 124.556044 254.555506 
L 126.395604 254.025169 
L 128.235165 253.28809 
L 131.914286 251.24764 
L 133.753846 250.627416 
L 135.593407 250.81618 
L 137.432967 251.786966 
L 139.272527 253.422921 
L 142.951648 257.21618 
L 144.791209 258.079101 
L 146.630769 257.710562 
L 148.47033 256.595955 
L 153.989011 251.912809 
L 155.828571 251.562247 
L 157.668132 251.562247 
L 163.186813 252.434157 
L 165.026374 252.290337 
L 168.705495 251.463371 
L 170.545055 251.301573 
L 172.384615 250.81618 
L 174.224176 251.211685 
L 176.063736 252.41618 
L 179.742857 255.54427 
L 181.582418 257.467865 
L 183.421978 258.402697 
L 185.261538 258.366742 
L 187.101099 257.809438 
L 188.940659 256.658876 
L 192.61978 253.980225 
L 194.459341 253.027416 
L 196.298901 252.254382 
L 198.138462 251.840899 
L 199.978022 251.786966 
L 201.817582 251.858876 
L 203.657143 251.679101 
L 205.496703 251.337528 
L 207.336264 250.780225 
L 209.175824 249.809438 
L 211.015385 248.245393 
L 214.694505 253.530787 
L 216.534066 256.766742 
L 218.373626 260.667865 
L 220.213187 262.37573 
L 222.052747 262.537528 
L 223.892308 261.243146 
L 227.571429 256.892584 
L 229.410989 254.465618 
L 231.250549 252.63191 
L 233.09011 251.804944 
L 236.769231 250.798202 
L 238.608791 251.085843 
L 240.448352 251.912809 
L 242.287912 252.41618 
L 245.967033 254.142022 
L 247.806593 254.591461 
L 249.646154 254.636404 
L 255.164835 257.827416 
L 257.004396 259.040899 
L 258.843956 260.092584 
L 260.683516 258.08809 
L 262.523077 255.751011 
L 266.202198 250.564494 
L 268.041758 247.742022 
L 269.881319 247.634157 
L 271.720879 248.119551 
L 275.4 249.521798 
L 277.23956 250.564494 
L 279.079121 251.445393 
L 284.597802 250.528539 
L 288.276923 249.64764 
L 291.956044 250.852135 
L 295.635165 252.218427 
L 297.474725 252.506067 
L 299.314286 252.577978 
L 304.832967 252.27236 
L 310.351648 252.84764 
L 312.191209 253.189213 
L 314.030769 253.207191 
L 315.87033 252.973483 
L 317.70989 252.41618 
L 319.549451 251.661124 
L 321.389011 250.393708 
L 323.228571 250.01618 
L 325.068132 250.08809 
L 326.907692 251.148764 
L 328.747253 252.658876 
L 330.586813 254.645393 
L 332.426374 256.011685 
L 334.265934 257.198202 
L 336.105495 257.737528 
L 337.945055 257.989213 
L 339.784615 258.061124 
L 341.624176 257.413933 
L 343.463736 256.443146 
L 345.303297 254.933034 
L 348.982418 251.463371 
L 350.821978 250.312809 
L 352.661538 249.36 
L 354.501099 248.622921 
L 356.340659 247.094831 
L 358.18022 245.800449 
L 360.01978 246.070112 
L 361.859341 247.130787 
L 363.698901 249.270112 
L 367.378022 257.018427 
L 369.217582 259.858876 
L 371.057143 262.177978 
L 372.896703 263.849888 
L 374.736264 264.389213 
L 376.575824 263.993708 
L 378.415385 262.177978 
L 380.254945 260.739775 
L 382.094505 259.751011 
L 383.934066 259.427416 
L 385.773626 259.751011 
L 387.613187 261.243146 
L 389.452747 262.177978 
L 391.292308 261.710562 
L 393.131868 260.811685 
L 394.971429 259.139775 
L 398.650549 253.926292 
L 400.49011 252.074607 
L 402.32967 251.858876 
L 404.169231 252.685843 
L 406.008791 254.537528 
L 407.848352 256.604944 
L 409.687912 258.852135 
L 411.527473 259.607191 
L 413.367033 259.840899 
L 415.206593 259.697079 
L 417.046154 259.229663 
L 420.725275 257.953258 
L 422.564835 257.36 
L 424.404396 256.910562 
L 428.083516 256.443146 
L 429.923077 256.04764 
L 433.602198 255.54427 
L 435.441758 254.771236 
L 437.281319 255.598202 
L 439.120879 257.611685 
L 440.96044 260.70382 
L 442.8 264.946517 
L 444.63956 269.87236 
L 446.479121 273.07236 
L 448.318681 274.186966 
L 450.158242 273.881348 
L 451.997802 272.425169 
L 455.676923 268.919551 
L 457.516484 268.092584 
L 459.356044 267.679101 
L 461.195604 267.733034 
L 463.035165 267.930787 
L 464.874725 268.667865 
L 466.714286 269.530787 
L 468.553846 270.16 
L 472.232967 270.951011 
L 475.912088 271.202697 
L 477.751648 272.011685 
L 479.591209 273.377978 
L 481.430769 275.697079 
L 483.27033 278.968989 
L 486.949451 288.658876 
L 488.789011 291.067865 
L 490.628571 292.84764 
L 492.468132 292.452135 
L 494.307692 288.802697 
L 496.147253 284.002697 
L 497.986813 280.640899 
L 499.826374 276.613933 
L 501.665934 273.324045 
L 503.505495 271.670112 
L 505.345055 270.771236 
L 507.184615 270.555506 
L 510.863736 271.813933 
L 512.703297 272.425169 
L 514.542857 272.712809 
L 516.382418 272.874607 
L 518.221978 272.497079 
L 520.061538 272.874607 
L 521.901099 273.719551 
L 523.740659 275.409438 
L 525.58022 275.535281 
L 527.41978 274.81618 
L 529.259341 273.773483 
L 531.098901 272.227416 
L 532.938462 270.01618 
L 534.778022 269.476854 
L 536.617582 269.980225 
L 538.457143 270.699326 
L 542.136264 270.843146 
L 543.975824 270.915056 
L 545.815385 270.753258 
L 547.654945 269.800449 
L 549.494505 269.333034 
L 551.334066 268.362247 
L 553.173626 267.085843 
L 555.013187 264.766742 
L 556.852747 263.436404 
L 558.692308 264.407191 
L 560.531868 266.007191 
L 562.371429 268.020674 
L 564.210989 271.112809 
L 566.050549 273.827416 
L 567.89011 274.636404 
L 569.72967 275.17573 
L 571.569231 275.427416 
L 573.408791 275.427416 
L 575.248352 275.301573 
L 577.087912 274.942022 
L 580.767033 273.881348 
L 582.606593 273.539775 
L 584.446154 273.611685 
L 586.285714 274.025169 
L 588.125275 274.690337 
L 589.964835 273.180225 
L 591.804396 272.407191 
L 595.483516 271.328539 
L 597.323077 271.058876 
L 599.162637 273.21618 
L 601.002198 274.528539 
L 602.841758 275.427416 
L 604.681319 275.679101 
L 606.520879 275.319551 
L 608.36044 274.654382 
L 612.03956 273.593708 
L 613.879121 273.252135 
L 615.718681 272.676854 
L 617.558242 272.245393 
L 619.397802 272.011685 
L 623.076923 272.011685 
L 624.916484 272.407191 
L 626.756044 272.515056 
L 628.595604 272.371236 
L 630.435165 271.634157 
L 634.114286 272.497079 
L 635.953846 273.737528 
L 637.793407 274.636404 
L 639.632967 275.679101 
L 643.312088 275.679101 
L 645.151648 274.870112 
L 646.991209 274.222921 
L 648.830769 272.928539 
L 650.67033 271.454382 
L 654.349451 269.045393 
L 656.189011 268.326292 
L 659.868132 269.620674 
L 661.707692 270.357753 
L 663.547253 270.681348 
L 665.386813 270.339775 
L 667.226374 269.045393 
L 669.065934 264.658876 
L 670.905495 267.24764 
L 672.745055 269.620674 
L 674.584615 274.043146 
L 676.424176 283.589213 
L 678.263736 286.44764 
L 680.103297 285.728539 
L 681.942857 285.87236 
L 683.782418 283.10382 
L 685.621978 278.070112 
L 687.461538 275.10382 
L 689.301099 274.67236 
L 691.140659 273.539775 
L 692.98022 274.168989 
L 694.81978 275.499326 
L 696.659341 276.506067 
L 700.338462 276.27236 
L 702.178022 275.085843 
L 705.857143 268.452135 
L 707.696703 265.935281 
L 709.536264 264.209438 
L 711.375824 269.386966 
L 713.215385 277.153258 
L 715.054945 280.191461 
L 716.894505 284.56 
L 718.734066 291.03191 
L 720.573626 291.786966 
L 722.413187 291.481348 
L 724.252747 295.094831 
L 726.092308 297.162247 
L 727.931868 296.892584 
L 729.771429 295.652135 
L 733.450549 286.44764 
L 735.29011 280.209438 
L 737.12967 273.50382 
L 738.969231 268.84764 
L 740.808791 270.44764 
L 742.648352 275.445393 
L 744.487912 278.519551 
L 746.327473 283.229663 
L 748.167033 285.764494 
L 750.006593 287.97573 
L 751.846154 287.706067 
L 753.685714 287.220674 
L 755.525275 287.130787 
L 757.364835 285.674607 
L 759.204396 279.562247 
L 761.043956 273.917303 
L 762.883516 271.61618 
L 764.723077 267.697079 
L 766.562637 266.151011 
L 768.402198 267.301573 
L 770.241758 268.038652 
L 772.081319 268.48809 
L 773.920879 266.942022 
L 775.76044 266.564494 
L 777.6 265.953258 
L 777.6 265.953258 
" style="fill:none;stroke:#ff7f0e;stroke-linecap:square;stroke-width:1.5;"/>
   </g>
   <g id="line2d_35">
    <path clip-path="url(#pdd2c3208f2)" d="M 108 167.310562 
L 109.83956 167.795955 
L 115.358242 169.908315 
L 117.197802 170.321798 
L 119.037363 170.519551 
L 120.876923 170.348764 
L 122.716484 169.953258 
L 126.395604 168.856629 
L 128.235165 168.146517 
L 133.753846 165.530787 
L 135.593407 165.009438 
L 137.432967 164.865618 
L 139.272527 165.261124 
L 144.791209 167.670112 
L 146.630769 167.97573 
L 148.47033 167.786966 
L 150.30989 167.184719 
L 153.989011 165.656629 
L 155.828571 165.045393 
L 157.668132 164.56 
L 161.347253 163.840899 
L 168.705495 161.971236 
L 170.545055 161.593708 
L 172.384615 161.342022 
L 174.224176 161.270112 
L 176.063736 161.539775 
L 179.742857 162.582472 
L 181.582418 163.17573 
L 183.421978 163.625169 
L 185.261538 163.786966 
L 187.101099 163.715056 
L 190.78022 163.121798 
L 192.61978 162.762247 
L 198.138462 160.946517 
L 203.657143 158.995955 
L 205.496703 158.204944 
L 207.336264 157.14427 
L 209.175824 155.921798 
L 211.015385 154.483596 
L 212.854945 155.229663 
L 214.694505 158.01618 
L 216.534066 162.025169 
L 218.373626 166.861124 
L 220.213187 171.265618 
L 222.052747 174.213933 
L 223.892308 174.681348 
L 225.731868 173.620674 
L 227.571429 171.894831 
L 231.250549 167.202697 
L 233.09011 165.998202 
L 238.608791 164.056629 
L 240.448352 163.589213 
L 244.127473 163.03191 
L 245.967033 162.870112 
L 251.485714 162.968989 
L 255.164835 162.681348 
L 257.004396 162.37573 
L 258.843956 161.881348 
L 262.523077 161.054382 
L 264.362637 160.407191 
L 266.202198 159.61618 
L 268.041758 158.44764 
L 269.881319 158.609438 
L 271.720879 159.274607 
L 273.56044 160.083596 
L 275.4 161.180225 
L 277.23956 163.013933 
L 279.079121 163.786966 
L 280.918681 164.020674 
L 284.597802 164.811685 
L 286.437363 164.919551 
L 288.276923 164.811685 
L 293.795604 165.189213 
L 299.314286 165.764494 
L 302.993407 165.926292 
L 306.672527 165.998202 
L 308.512088 165.836404 
L 312.191209 164.937528 
L 314.030769 164.398202 
L 315.87033 163.724045 
L 317.70989 163.193708 
L 321.389011 162.312809 
L 323.228571 162.465618 
L 325.068132 162.96 
L 326.907692 164.479101 
L 328.747253 166.780225 
L 332.426374 172.48809 
L 334.265934 175.238652 
L 336.105495 177.162247 
L 337.945055 178.456629 
L 339.784615 179.193708 
L 341.624176 178.798202 
L 343.463736 177.64764 
L 345.303297 175.706067 
L 348.982418 171.03191 
L 350.821978 169.162247 
L 352.661538 167.849888 
L 354.501099 167.022921 
L 358.18022 164.84764 
L 360.01978 164.757753 
L 361.859341 165.440899 
L 363.698901 167.10382 
L 365.538462 170.124045 
L 367.378022 173.809438 
L 369.217582 177.135281 
L 371.057143 180.04764 
L 372.896703 182.37573 
L 374.736264 184.137528 
L 376.575824 185.07236 
L 378.415385 184.892584 
L 380.254945 184.389213 
L 382.094505 183.490337 
L 383.934066 182.142022 
L 385.773626 181.027416 
L 391.292308 179.373483 
L 393.131868 178.995955 
L 394.971429 178.240899 
L 400.49011 175.436404 
L 402.32967 174.771236 
L 404.169231 174.807191 
L 406.008791 175.526292 
L 407.848352 176.604944 
L 411.527473 179.24764 
L 413.367033 180.218427 
L 415.206593 180.811685 
L 417.046154 180.991461 
L 418.885714 180.973483 
L 420.725275 180.362247 
L 422.564835 179.391461 
L 426.243956 176.425169 
L 429.923077 173.063371 
L 433.602198 170.258876 
L 435.441758 168.928539 
L 437.281319 168.604944 
L 439.120879 170.798202 
L 440.96044 176.191461 
L 442.8 185.521798 
L 448.318681 219.912809 
L 450.158242 227.966742 
L 451.997802 232.658876 
L 453.837363 235.337528 
L 455.676923 236.883596 
L 459.356044 238.951011 
L 461.195604 239.993708 
L 463.035165 241.180225 
L 464.874725 242.654382 
L 470.393407 247.742022 
L 474.072527 251.571236 
L 475.912088 253.386966 
L 477.751648 255.562247 
L 479.591209 258.402697 
L 481.430769 261.584719 
L 483.27033 265.629663 
L 485.10989 270.897079 
L 486.949451 276.70382 
L 488.789011 281.413933 
L 490.628571 285.189213 
L 492.468132 287.61618 
L 494.307692 288.04764 
L 496.147253 286.933034 
L 497.986813 285.099326 
L 499.826374 282.600449 
L 501.665934 278.663371 
L 505.345055 270.052135 
L 507.184615 266.546517 
L 509.024176 263.97573 
L 510.863736 262.951011 
L 512.703297 263.148764 
L 514.542857 264.011685 
L 518.221978 266.474607 
L 523.740659 270.843146 
L 525.58022 271.706067 
L 527.41978 271.256629 
L 529.259341 270.357753 
L 531.098901 268.757753 
L 532.938462 266.762247 
L 534.778022 265.07236 
L 536.617582 264.910562 
L 538.457143 265.07236 
L 542.136264 265.629663 
L 543.975824 265.611685 
L 545.815385 265.036404 
L 547.654945 263.508315 
L 549.494505 260.63191 
L 551.334066 255.83191 
L 553.173626 248.748764 
L 555.013187 238.609438 
L 556.852747 226.348764 
L 558.692308 228.380225 
L 560.531868 233.467865 
L 562.371429 241.629663 
L 564.210989 253.494831 
L 566.050549 268.398202 
L 567.89011 270.717303 
L 569.72967 271.97573 
L 571.569231 272.712809 
L 573.408791 272.946517 
L 575.248352 272.874607 
L 577.087912 272.640899 
L 582.606593 271.652135 
L 586.285714 271.598202 
L 588.125275 271.83191 
L 589.964835 270.44764 
L 591.804396 269.728539 
L 593.643956 269.512809 
L 597.323077 269.386966 
L 599.162637 271.256629 
L 601.002198 272.551011 
L 602.841758 273.36 
L 604.681319 273.809438 
L 606.520879 273.989213 
L 608.36044 273.773483 
L 612.03956 273.000449 
L 613.879121 272.586966 
L 617.558242 271.130787 
L 619.397802 270.591461 
L 623.076923 270.142022 
L 628.595604 270.735281 
L 630.435165 270.411685 
L 632.274725 270.645393 
L 634.114286 271.058876 
L 639.632967 273.863371 
L 641.472527 274.330787 
L 643.312088 274.618427 
L 645.151648 274.294831 
L 646.991209 273.827416 
L 648.830769 272.784719 
L 650.67033 270.897079 
L 652.50989 268.34427 
L 654.349451 265.521798 
L 658.028571 258.852135 
L 659.868132 253.404944 
L 661.707692 246.879101 
L 663.547253 238.879101 
L 667.226374 220.811685 
L 669.065934 214.177978 
L 670.905495 230.142022 
L 672.745055 242.852135 
L 674.584615 257.719551 
L 676.424176 274.115056 
L 678.263736 279.957753 
L 680.103297 283.03191 
L 681.942857 284.829663 
L 683.782418 284.829663 
L 685.621978 283.337528 
L 687.461538 281.557753 
L 689.301099 280.353258 
L 691.140659 279.580225 
L 692.98022 277.854382 
L 696.659341 273.21618 
L 698.498901 270.573483 
L 700.338462 267.157753 
L 702.178022 262.753258 
L 705.857143 252.41618 
L 707.696703 247.68809 
L 709.536264 245.980225 
L 711.375824 251.571236 
L 713.215385 260.77573 
L 716.894505 277.980225 
L 718.734066 285.189213 
L 720.573626 288.317303 
L 722.413187 289.701573 
L 724.252747 291.930787 
L 726.092308 293.602697 
L 727.931868 294.393708 
L 729.771429 294.177978 
L 731.610989 291.930787 
L 733.450549 287.795955 
L 735.29011 279.562247 
L 737.12967 270.771236 
L 738.969231 265.000449 
L 740.808791 264.155506 
L 742.648352 267.822921 
L 744.487912 274.510562 
L 746.327473 281.683596 
L 748.167033 286.052135 
L 750.006593 288.155506 
L 751.846154 287.993708 
L 755.525275 289.054382 
L 757.364835 289.180225 
L 759.204396 286.142022 
L 761.043956 278.44764 
L 762.883516 268.865618 
L 766.562637 251.948764 
L 768.402198 245.602697 
L 770.241758 244.973483 
L 772.081319 246.591461 
L 775.76044 247.076854 
L 777.6 248.137528 
L 777.6 248.137528 
" style="fill:none;stroke:#2ca02c;stroke-linecap:square;stroke-width:1.5;"/>
   </g>
   <g id="line2d_36">
    <path clip-path="url(#pdd2c3208f2)" d="M 108 145.180225 
L 124.556044 148.425169 
L 128.235165 148.667865 
L 130.074725 148.667865 
L 135.593407 148.155506 
L 137.432967 148.27236 
L 139.272527 148.524045 
L 144.791209 150.151011 
L 146.630769 150.204944 
L 148.47033 150.070112 
L 152.149451 149.351011 
L 155.828571 148.568989 
L 159.507692 147.885843 
L 161.347253 147.508315 
L 165.026374 147.166742 
L 168.705495 147.013933 
L 170.545055 147.03191 
L 172.384615 146.429663 
L 174.224176 144.182472 
L 176.063736 140.551011 
L 177.903297 135.751011 
L 179.742857 130.312809 
L 181.582418 124.506067 
L 183.421978 119.652135 
L 185.261538 115.715056 
L 188.940659 109.054382 
L 192.61978 103.54427 
L 194.459341 100.290337 
L 196.298901 96.748764 
L 199.978022 88.982472 
L 201.817582 84.326292 
L 203.657143 79.328539 
L 205.496703 75.004944 
L 207.336264 71.54427 
L 209.175824 68.667865 
L 211.015385 66.96 
L 214.694505 83.733034 
L 216.534066 93.728539 
L 218.373626 105.36 
L 220.213187 114.74427 
L 222.052747 122.654382 
L 223.892308 128.27236 
L 225.731868 132.991461 
L 227.571429 136.551011 
L 229.410989 138.834157 
L 231.250549 140.479101 
L 233.09011 141.755506 
L 234.92967 141.791461 
L 240.448352 140.577978 
L 242.287912 139.948764 
L 249.646154 138.924045 
L 253.325275 138.753258 
L 255.164835 139.121798 
L 257.004396 139.840899 
L 258.843956 140.70382 
L 262.523077 142.690337 
L 264.362637 143.364494 
L 268.041758 143.795955 
L 271.720879 143.984719 
L 273.56044 144.227416 
L 277.23956 145.099326 
L 279.079121 145.773483 
L 280.918681 146.195955 
L 282.758242 146.474607 
L 284.597802 146.609438 
L 286.437363 146.097079 
L 288.276923 144.173483 
L 290.116484 141.458876 
L 291.956044 137.611685 
L 297.474725 122.483596 
L 299.314286 117.737528 
L 301.153846 113.485843 
L 302.993407 110.186966 
L 304.832967 107.643146 
L 306.672527 105.809438 
L 308.512088 104.973483 
L 310.351648 105.413933 
L 312.191209 106.74427 
L 314.030769 108.586966 
L 315.87033 110.717303 
L 319.549451 116.380225 
L 321.389011 119.040899 
L 323.228571 123.022921 
L 325.068132 127.768989 
L 326.907692 132.84764 
L 332.426374 148.910562 
L 334.265934 153.50382 
L 336.105495 157.422921 
L 337.945055 160.766742 
L 339.784615 163.445393 
L 341.624176 164.901573 
L 345.303297 166.717303 
L 348.982418 169.126292 
L 350.821978 170.67236 
L 352.661538 171.409438 
L 354.501099 170.079101 
L 356.340659 167.598202 
L 360.01978 162.312809 
L 361.859341 160.694831 
L 363.698901 160.946517 
L 365.538462 162.007191 
L 371.057143 165.818427 
L 372.896703 166.753258 
L 374.736264 167.454382 
L 376.575824 167.742022 
L 378.415385 167.580225 
L 380.254945 167.130787 
L 383.934066 165.962247 
L 385.773626 165.512809 
L 391.292308 164.721798 
L 394.971429 164.362247 
L 396.810989 163.804944 
L 398.650549 162.726292 
L 400.49011 160.586966 
L 402.32967 157.836404 
L 406.008791 151.634157 
L 407.848352 149.027416 
L 411.527473 145.827416 
L 415.206593 143.652135 
L 417.046154 142.627416 
L 418.885714 141.333034 
L 420.725275 140.236404 
L 422.564835 138.977978 
L 424.404396 137.971236 
L 426.243956 137.180225 
L 428.083516 137.036404 
L 429.923077 137.377978 
L 431.762637 138.456629 
L 433.602198 140.128539 
L 435.441758 142.285843 
L 437.281319 144.622921 
L 439.120879 148.982472 
L 440.96044 155.54427 
L 442.8 164.407191 
L 444.63956 174.924045 
L 446.479121 186.861124 
L 448.318681 197.602697 
L 450.158242 206.429663 
L 451.997802 212.70382 
L 453.837363 216.982472 
L 455.676923 219.319551 
L 457.516484 220.577978 
L 463.035165 221.94427 
L 464.874725 222.807191 
L 466.714286 224.497079 
L 468.553846 226.492584 
L 470.393407 228.77573 
L 472.232967 231.436404 
L 474.072527 234.456629 
L 475.912088 237.261124 
L 477.751648 240.281348 
L 481.430769 247.202697 
L 483.27033 250.852135 
L 485.10989 255.112809 
L 488.789011 264.065618 
L 490.628571 268.038652 
L 492.468132 271.418427 
L 494.307692 273.485843 
L 496.147253 274.330787 
L 497.986813 274.402697 
L 499.826374 273.737528 
L 501.665934 272.425169 
L 503.505495 270.968989 
L 505.345055 269.710562 
L 509.024176 266.528539 
L 510.863736 265.180225 
L 512.703297 264.173483 
L 514.542857 263.436404 
L 516.382418 263.508315 
L 518.221978 263.83191 
L 520.061538 264.461124 
L 523.740659 266.079101 
L 525.58022 266.564494 
L 527.41978 266.708315 
L 529.259341 266.582472 
L 531.098901 266.061124 
L 536.617582 263.202697 
L 538.457143 262.735281 
L 540.296703 262.411685 
L 542.136264 262.411685 
L 545.815385 262.573483 
L 547.654945 262.177978 
L 549.494505 261.602697 
L 555.013187 259.03191 
L 556.852747 258.474607 
L 558.692308 258.546517 
L 560.531868 259.715056 
L 562.371429 261.422921 
L 564.210989 263.400449 
L 567.89011 267.589213 
L 569.72967 268.955506 
L 571.569231 269.926292 
L 573.408791 270.663371 
L 575.248352 271.148764 
L 577.087912 271.238652 
L 578.927473 270.986966 
L 584.446154 269.800449 
L 586.285714 269.638652 
L 588.125275 269.800449 
L 589.964835 269.548764 
L 597.323077 268.074607 
L 599.162637 268.236404 
L 604.681319 269.261124 
L 608.36044 269.153258 
L 612.03956 268.793708 
L 623.076923 267.715056 
L 628.595604 267.661124 
L 630.435165 267.481348 
L 632.274725 267.10382 
L 634.114286 266.240899 
L 635.953846 264.748764 
L 637.793407 262.717303 
L 641.472527 258.204944 
L 643.312088 256.353258 
L 646.991209 253.081348 
L 648.830769 250.600449 
L 650.67033 247.652135 
L 652.50989 244.308315 
L 654.349451 241.198202 
L 656.189011 237.386966 
L 658.028571 234.007191 
L 659.868132 229.87236 
L 661.707692 225.054382 
L 667.226374 206.249888 
L 669.065934 201.935281 
L 670.905495 209.395955 
L 672.745055 217.665618 
L 674.584615 228.146517 
L 676.424176 239.777978 
L 678.263736 247.148764 
L 680.103297 252.595955 
L 681.942857 256.874607 
L 683.782418 259.283596 
L 685.621978 260.146517 
L 687.461538 260.380225 
L 689.301099 260.452135 
L 692.98022 260.164494 
L 694.81978 259.804944 
L 698.498901 258.67236 
L 704.017582 256.479101 
L 707.696703 255.364494 
L 709.536264 255.076854 
L 711.375824 255.238652 
L 713.215385 255.724045 
L 715.054945 256.712809 
L 716.894505 258.133034 
L 720.573626 261.87236 
L 722.413187 263.849888 
L 724.252747 265.611685 
L 727.931868 268.506067 
L 729.771429 269.638652 
L 731.610989 270.393708 
L 733.450549 270.897079 
L 735.29011 270.807191 
L 737.12967 270.249888 
L 742.648352 268.020674 
L 746.327473 267.391461 
L 750.006593 266.977978 
L 751.846154 266.600449 
L 753.685714 266.007191 
L 755.525275 265.090337 
L 757.364835 263.849888 
L 759.204396 262.08809 
L 762.883516 257.863371 
L 764.723077 255.68809 
L 766.562637 253.710562 
L 768.402198 252.380225 
L 770.241758 251.535281 
L 772.081319 251.355506 
L 773.920879 251.930787 
L 777.6 254.16 
L 777.6 254.16 
" style="fill:none;stroke:#d62728;stroke-linecap:square;stroke-width:1.5;"/>
   </g>
   <g id="line2d_37">
    <path clip-path="url(#pdd2c3208f2)" d="M 108 114.195955 
L 115.358242 114.312809 
L 128.235165 114.133034 
L 130.074725 113.998202 
L 133.753846 113.36 
L 137.432967 112.407191 
L 141.112088 111.535281 
L 146.630769 110.37573 
L 148.47033 109.845393 
L 150.30989 109.171236 
L 152.149451 108.101573 
L 153.989011 106.420674 
L 157.668132 102.429663 
L 159.507692 100.524045 
L 161.347253 98.933034 
L 163.186813 97.962247 
L 179.742857 92.964494 
L 188.940659 90.968989 
L 190.78022 90.348764 
L 192.61978 89.566742 
L 196.298901 88.317303 
L 201.817582 85.593708 
L 205.496703 83.292584 
L 207.336264 82.618427 
L 209.175824 82.204944 
L 211.015385 82.043146 
L 212.854945 82.771236 
L 216.534066 83.97573 
L 218.373626 84.658876 
L 220.213187 85.14427 
L 222.052747 85.43191 
L 225.731868 85.557753 
L 229.410989 85.297079 
L 234.92967 84.622921 
L 238.608791 84.074607 
L 242.287912 83.733034 
L 245.967033 83.670112 
L 251.485714 83.598202 
L 260.683516 83.382472 
L 273.56044 83.508315 
L 280.918681 83.697079 
L 310.351648 83.804944 
L 314.030769 84.443146 
L 317.70989 85.342022 
L 319.549451 86.402697 
L 321.389011 87.733034 
L 323.228571 89.494831 
L 325.068132 91.571236 
L 326.907692 93.998202 
L 328.747253 96.137528 
L 330.586813 97.971236 
L 332.426374 99.463371 
L 334.265934 100.63191 
L 336.105495 101.422921 
L 337.945055 101.854382 
L 339.784615 102.124045 
L 341.624176 102.213933 
L 343.463736 102.897079 
L 345.303297 104.479101 
L 348.982418 108.811685 
L 350.821978 111.382472 
L 352.661538 113.539775 
L 354.501099 114.708315 
L 356.340659 115.319551 
L 358.18022 115.804944 
L 363.698901 116.883596 
L 367.378022 118.142022 
L 369.217582 118.681348 
L 371.057143 119.004944 
L 372.896703 119.166742 
L 376.575824 118.968989 
L 380.254945 118.30382 
L 383.934066 117.584719 
L 387.613187 117.117303 
L 394.971429 116.70382 
L 398.650549 116.182472 
L 404.169231 115.319551 
L 409.687912 114.924045 
L 420.725275 114.474607 
L 426.243956 114.492584 
L 429.923077 115.085843 
L 431.762637 115.625169 
L 433.602198 116.48809 
L 435.441758 117.692584 
L 437.281319 119.256629 
L 439.120879 122.079101 
L 440.96044 126.052135 
L 442.8 130.906067 
L 446.479121 141.351011 
L 448.318681 145.485843 
L 450.158242 148.595955 
L 451.997802 150.627416 
L 453.837363 152.029663 
L 455.676923 152.874607 
L 457.516484 153.324045 
L 463.035165 153.719551 
L 464.874725 154.420674 
L 466.714286 155.715056 
L 468.553846 157.836404 
L 470.393407 160.533034 
L 472.232967 163.625169 
L 475.912088 170.294831 
L 477.751648 173.333034 
L 479.591209 176.676854 
L 481.430769 180.811685 
L 483.27033 185.521798 
L 485.10989 191.220674 
L 488.789011 204.48809 
L 490.628571 210.007191 
L 492.468132 214.321798 
L 494.307692 216.658876 
L 496.147253 217.180225 
L 497.986813 215.867865 
L 499.826374 213.710562 
L 503.505495 207.382472 
L 505.345055 203.679101 
L 507.184615 200.389213 
L 509.024176 197.746517 
L 510.863736 195.840899 
L 512.703297 194.618427 
L 514.542857 194.294831 
L 520.061538 194.726292 
L 523.740659 195.139775 
L 527.41978 195.301573 
L 531.098901 195.319551 
L 532.938462 195.085843 
L 538.457143 194.01618 
L 540.296703 193.782472 
L 542.136264 193.782472 
L 545.815385 194.061124 
L 549.494505 193.827416 
L 555.013187 193.234157 
L 556.852747 193.21618 
L 558.692308 193.413933 
L 564.210989 194.528539 
L 566.050549 194.81618 
L 567.89011 194.942022 
L 575.248352 194.870112 
L 577.087912 194.67236 
L 578.927473 194.186966 
L 580.767033 193.485843 
L 584.446154 191.849888 
L 586.285714 191.238652 
L 588.125275 190.915056 
L 589.964835 190.807191 
L 597.323077 190.843146 
L 604.681319 190.735281 
L 608.36044 190.537528 
L 613.879121 190.555506 
L 621.237363 191.706067 
L 623.076923 192.173483 
L 626.756044 192.748764 
L 630.435165 192.910562 
L 635.953846 192.910562 
L 648.830769 193.377978 
L 650.67033 193.485843 
L 659.868132 193.467865 
L 665.386813 193.683596 
L 669.065934 193.593708 
L 672.745055 194.366742 
L 674.584615 195.355506 
L 676.424176 196.919551 
L 678.263736 198.897079 
L 680.103297 201.234157 
L 681.942857 203.876854 
L 683.782418 206.195955 
L 685.621978 208.119551 
L 687.461538 209.683596 
L 689.301099 210.995955 
L 691.140659 211.858876 
L 692.98022 212.524045 
L 694.81978 212.955506 
L 696.659341 213.207191 
L 700.338462 213.422921 
L 702.178022 213.584719 
L 704.017582 213.908315 
L 705.857143 214.429663 
L 709.536264 216.245393 
L 715.054945 220.308315 
L 716.894505 221.746517 
L 720.573626 225.234157 
L 722.413187 227.157753 
L 724.252747 229.261124 
L 726.092308 231.040899 
L 727.931868 232.425169 
L 729.771429 233.43191 
L 731.610989 234.007191 
L 733.450549 234.402697 
L 737.12967 234.798202 
L 746.327473 235.157753 
L 750.006593 235.301573 
L 751.846154 235.265618 
L 755.525275 234.834157 
L 761.043956 233.755506 
L 768.402198 232.389213 
L 770.241758 232.317303 
L 772.081319 232.425169 
L 773.920879 232.676854 
L 775.76044 233.198202 
L 777.6 233.935281 
L 777.6 233.935281 
" style="fill:none;stroke:#9467bd;stroke-linecap:square;stroke-width:1.5;"/>
   </g>
   <g id="patch_3">
    <path d="M 108 384.48 
L 108 51.84 
" style="fill:none;stroke:#000000;stroke-linecap:square;stroke-linejoin:miter;stroke-width:0.8;"/>
   </g>
   <g id="patch_4">
    <path d="M 777.6 384.48 
L 777.6 51.84 
" style="fill:none;stroke:#000000;stroke-linecap:square;stroke-linejoin:miter;stroke-width:0.8;"/>
   </g>
   <g id="patch_5">
    <path d="M 108 384.48 
L 777.6 384.48 
" style="fill:none;stroke:#000000;stroke-linecap:square;stroke-linejoin:miter;stroke-width:0.8;"/>
   </g>
   <g id="patch_6">
    <path d="M 108 51.84 
L 777.6 51.84 
" style="fill:none;stroke:#000000;stroke-linecap:square;stroke-linejoin:miter;stroke-width:0.8;"/>
   </g>
   <g id="legend_1">
    <g id="patch_7">
     <path d="M 678.409375 137.238438 
L 770.6 137.238438 
Q 772.6 137.238438 772.6 135.238438 
L 772.6 58.84 
Q 772.6 56.84 770.6 56.84 
L 678.409375 56.84 
Q 676.409375 56.84 676.409375 58.84 
L 676.409375 135.238438 
Q 676.409375 137.238438 678.409375 137.238438 
z
" style="fill:#ffffff;opacity:0.8;stroke:#cccccc;stroke-linejoin:miter;"/>
    </g>
    <g id="line2d_38">
     <path d="M 680.409375 65.33375 
L 700.409375 65.33375 
" style="fill:none;stroke:#1f77b4;stroke-linecap:square;stroke-width:1.5;"/>
    </g>
    <g id="line2d_39"/>
    <g id="text_18">
     <!-- 隔夜-5日均值 -->
     <defs>
      <path d="M 32.90625 28.5625 
Q 35.25 10.296875 24.21875 7.953125 
Q 20.40625 7.28125 15.328125 7.859375 
Q 14.546875 11.671875 13.28125 15.28125 
L 13.28125 -13.03125 
L 6.25 -13.03125 
L 6.25 78.65625 
L 32.8125 78.65625 
L 32.8125 72.125 
Q 28.03125 55.71875 24.90625 46.234375 
Q 31.9375 36.578125 32.90625 28.5625 
z
M 44.53125 -13.234375 
L 37.703125 -13.234375 
L 37.703125 37.453125 
L 94.34375 37.453125 
L 94.34375 -3.65625 
Q 94.34375 -12.84375 85.25 -12.84375 
Q 80.953125 -12.84375 74.609375 -12.75 
Q 74.125 -10.5 73.140625 -5.421875 
Q 79 -5.8125 83.5 -5.8125 
Q 87.5 -5.8125 87.5 -1.703125 
L 87.5 31.390625 
L 44.53125 31.390625 
z
M 43.359375 65.765625 
L 88.484375 65.765625 
L 88.484375 41.75 
L 81.453125 41.75 
L 81.453125 44.28125 
L 50.390625 44.28125 
L 50.390625 41.75 
L 43.359375 41.75 
z
M 21.484375 14.890625 
Q 27.734375 15.578125 25.6875 28.265625 
Q 24.421875 36.46875 17.671875 44.96875 
Q 21.875 57.46875 25.78125 72.125 
L 13.28125 72.125 
L 13.28125 15.671875 
Q 17.671875 14.5 21.484375 14.890625 
z
M 47.859375 15.28125 
L 67.578125 15.28125 
Q 72.515625 24.21875 75.296875 30.515625 
L 81.734375 27 
Q 78.078125 20.90625 74.46875 15.28125 
L 84.1875 15.28125 
L 84.1875 9.421875 
L 69.234375 9.421875 
L 69.234375 -11.671875 
L 62.59375 -11.671875 
L 62.59375 9.421875 
L 47.859375 9.421875 
z
M 37.109375 78.765625 
L 96.296875 78.765625 
L 96.296875 72.40625 
L 37.109375 72.40625 
z
M 81.453125 59.90625 
L 50.390625 59.90625 
L 50.390625 50.140625 
L 81.453125 50.140625 
z
M 50.390625 27.296875 
L 55.765625 30.421875 
Q 59.96875 24.859375 62.890625 19.390625 
L 57.03125 15.96875 
Q 54.296875 21.234375 50.390625 27.296875 
z
" id="MicrosoftYaHei-9694"/>
      <path d="M 27.828125 23.578125 
Q 42.578125 39.40625 51.265625 60.890625 
L 58.6875 58.34375 
Q 56.9375 54.34375 55.03125 50.53125 
L 89.15625 50.53125 
L 89.15625 43.5 
Q 82.125 21.625 69.1875 8.15625 
Q 81.453125 -0.390625 98.640625 -4.734375 
Q 95.703125 -9.03125 93.5625 -12.9375 
Q 75.390625 -7.078125 62.984375 2.484375 
Q 51.3125 -6.84375 34.375 -13.53125 
Q 32.515625 -10.5 29.5 -6.6875 
Q 45.515625 -0.484375 56.78125 7.953125 
Q 48.578125 16.359375 42.28125 29.15625 
Q 38.28125 23.53125 33.796875 18.40625 
Q 30.5625 21.4375 27.828125 23.578125 
z
M 2.9375 69.09375 
L 50.734375 69.09375 
Q 47.703125 74.265625 43.65625 79.734375 
L 49.8125 83.734375 
Q 53.8125 78.65625 58.015625 72.015625 
L 53.421875 69.09375 
L 97.5625 69.09375 
L 97.5625 61.859375 
L 2.9375 61.859375 
z
M 1.5625 23 
Q 18.265625 40.484375 26.46875 60.984375 
L 33.984375 58.453125 
Q 28.90625 47.859375 23.640625 39.203125 
L 23.640625 -13.03125 
L 16.21875 -13.03125 
L 16.21875 28.078125 
Q 10.5 20.359375 4.59375 14.796875 
Q 3.21875 18.703125 1.5625 23 
z
M 81.15625 43.5 
L 51.3125 43.5 
Q 49.171875 39.546875 46.78125 35.84375 
Q 53.421875 22.078125 62.9375 13.234375 
Q 75 24.953125 81.15625 43.5 
z
M 54.203125 35.296875 
L 58.890625 39.890625 
Q 64.546875 35.109375 69.734375 29.640625 
L 64.453125 24.5625 
Q 60.453125 29.34375 54.203125 35.296875 
z
" id="MicrosoftYaHei-591c"/>
      <path d="M 35.0625 43.796875 
Q 45.796875 61.765625 52.15625 83.15625 
L 59.96875 80.8125 
Q 57.671875 74.125 55.171875 67.921875 
L 93.953125 67.921875 
Q 92.578125 16.453125 91.796875 4.640625 
Q 91.109375 -10.890625 75.09375 -10.890625 
Q 65.4375 -10.890625 57.90625 -10.5 
Q 57.328125 -6.59375 56.34375 -2.203125 
L 56.640625 -2.203125 
Q 66.40625 -3.265625 74.609375 -3.265625 
Q 83.59375 -3.265625 84.28125 5.90625 
Q 85.25 22.609375 86.140625 60.796875 
L 52.203125 60.796875 
Q 47.3125 49.5625 41.796875 40.1875 
Q 38.765625 42.046875 35.0625 43.796875 
z
M 1.265625 6.6875 
Q 8.734375 9.375 15.71875 12.015625 
L 15.71875 50.828125 
L 2.640625 50.828125 
L 2.640625 57.765625 
L 15.71875 57.765625 
L 15.71875 82.171875 
L 22.953125 82.171875 
L 22.953125 57.765625 
L 35.640625 57.765625 
L 35.640625 50.828125 
L 22.953125 50.828125 
L 22.953125 14.796875 
Q 30.03125 17.578125 36.53125 20.359375 
Q 36.71875 15.484375 37.015625 12.25 
Q 21.296875 6.296875 3.90625 -0.828125 
z
M 39.265625 13.328125 
Q 58.890625 21.140625 79.984375 30.21875 
Q 80.46875 25.640625 81.0625 22.40625 
Q 62.984375 14.796875 42.28125 5.609375 
z
M 49.03125 45.453125 
L 54.390625 50.25 
Q 62.890625 42.4375 70.796875 34.625 
L 64.453125 29.046875 
Q 56.9375 37.640625 49.03125 45.453125 
z
" id="MicrosoftYaHei-5747"/>
      <path d="M 25.296875 -3.375 
L 35.15625 -3.375 
L 35.15625 57.078125 
L 58.203125 57.078125 
L 58.203125 65.96875 
L 29.890625 65.96875 
L 29.890625 72.609375 
L 58.203125 72.609375 
L 58.203125 82.953125 
L 65.625 82.953125 
L 65.625 72.609375 
L 96.390625 72.609375 
L 96.390625 65.96875 
L 65.625 65.96875 
L 65.625 57.078125 
L 89.265625 57.078125 
L 89.265625 -3.375 
L 98.53125 -3.375 
L 98.53125 -10.015625 
L 25.296875 -10.015625 
z
M 1.078125 35.109375 
Q 14.15625 54.640625 21.390625 82.46875 
L 28.609375 80.328125 
Q 24.703125 67.71875 20.125 56.6875 
L 20.125 -12.75 
L 12.984375 -12.75 
L 12.984375 41.65625 
Q 8.796875 33.84375 4.109375 27.09375 
Q 2.734375 31.203125 1.078125 35.109375 
z
M 42.390625 -3.375 
L 82.03125 -3.375 
L 82.03125 5.515625 
L 42.390625 5.515625 
z
M 82.03125 50.640625 
L 42.390625 50.640625 
L 42.390625 41.84375 
L 82.03125 41.84375 
z
M 42.390625 26.8125 
L 82.03125 26.8125 
L 82.03125 35.59375 
L 42.390625 35.59375 
z
M 42.390625 11.765625 
L 82.03125 11.765625 
L 82.03125 20.5625 
L 42.390625 20.5625 
z
" id="MicrosoftYaHei-503c"/>
     </defs>
     <g transform="translate(708.409375 68.83375)scale(0.1 -0.1)">
      <use xlink:href="#MicrosoftYaHei-9694"/>
      <use x="100" xlink:href="#MicrosoftYaHei-591c"/>
      <use x="200" xlink:href="#MicrosoftYaHei-2d"/>
      <use x="243.261719" xlink:href="#MicrosoftYaHei-35"/>
      <use x="301.904297" xlink:href="#MicrosoftYaHei-65e5"/>
      <use x="401.904297" xlink:href="#MicrosoftYaHei-5747"/>
      <use x="501.904297" xlink:href="#MicrosoftYaHei-503c"/>
     </g>
    </g>
    <g id="line2d_40">
     <path d="M 680.409375 80.813438 
L 700.409375 80.813438 
" style="fill:none;stroke:#ff7f0e;stroke-linecap:square;stroke-width:1.5;"/>
    </g>
    <g id="line2d_41"/>
    <g id="text_19">
     <!-- 1W-5日均值 -->
     <defs>
      <path d="M 100.484375 75.640625 
L 79.296875 0 
L 67.921875 0 
L 52.6875 54.5 
Q 51.65625 58.203125 51.46875 62.3125 
L 51.265625 62.3125 
Q 50.984375 58.25 49.90625 54.59375 
L 34.515625 0 
L 23.25 0 
L 1.3125 75.640625 
L 12.109375 75.640625 
L 27.546875 18.5 
Q 28.5625 14.65625 28.765625 10.75 
L 29.046875 10.75 
Q 29.296875 13.671875 30.671875 18.5 
L 47.015625 75.640625 
L 56.640625 75.640625 
L 72.265625 18.0625 
Q 73.046875 15.234375 73.53125 10.84375 
L 73.734375 10.84375 
Q 73.96875 14.015625 75.140625 18.265625 
L 89.984375 75.640625 
z
" id="MicrosoftYaHei-57"/>
     </defs>
     <g transform="translate(708.409375 84.313438)scale(0.1 -0.1)">
      <use xlink:href="#MicrosoftYaHei-31"/>
      <use x="58.642578" xlink:href="#MicrosoftYaHei-57"/>
      <use x="160.400391" xlink:href="#MicrosoftYaHei-2d"/>
      <use x="203.662109" xlink:href="#MicrosoftYaHei-35"/>
      <use x="262.304688" xlink:href="#MicrosoftYaHei-65e5"/>
      <use x="362.304688" xlink:href="#MicrosoftYaHei-5747"/>
      <use x="462.304688" xlink:href="#MicrosoftYaHei-503c"/>
     </g>
    </g>
    <g id="line2d_42">
     <path d="M 680.409375 96.293125 
L 700.409375 96.293125 
" style="fill:none;stroke:#2ca02c;stroke-linecap:square;stroke-width:1.5;"/>
    </g>
    <g id="line2d_43"/>
    <g id="text_20">
     <!-- 2W-5日均值 -->
     <g transform="translate(708.409375 99.793125)scale(0.1 -0.1)">
      <use xlink:href="#MicrosoftYaHei-32"/>
      <use x="58.642578" xlink:href="#MicrosoftYaHei-57"/>
      <use x="160.400391" xlink:href="#MicrosoftYaHei-2d"/>
      <use x="203.662109" xlink:href="#MicrosoftYaHei-35"/>
      <use x="262.304688" xlink:href="#MicrosoftYaHei-65e5"/>
      <use x="362.304688" xlink:href="#MicrosoftYaHei-5747"/>
      <use x="462.304688" xlink:href="#MicrosoftYaHei-503c"/>
     </g>
    </g>
    <g id="line2d_44">
     <path d="M 680.409375 111.772812 
L 700.409375 111.772812 
" style="fill:none;stroke:#d62728;stroke-linecap:square;stroke-width:1.5;"/>
    </g>
    <g id="line2d_45"/>
    <g id="text_21">
     <!-- 1M-5日均值 -->
     <defs>
      <path d="M 78.171875 0 
L 78.171875 50.09375 
Q 78.171875 56.296875 78.90625 64.984375 
L 78.65625 64.984375 
Q 77.390625 59.515625 76.421875 57.375 
L 51.46875 0 
L 46.046875 0 
L 21.140625 56.9375 
Q 20.265625 58.890625 18.890625 64.984375 
L 18.609375 64.984375 
Q 19.09375 59.71875 19.09375 49.65625 
L 19.09375 0 
L 9.765625 0 
L 9.765625 75.640625 
L 23 75.640625 
L 45.3125 23.78125 
Q 47.859375 17.828125 48.6875 14.5 
L 49.03125 14.5 
Q 51.5625 21.484375 52.59375 23.96875 
L 75.296875 75.640625 
L 87.890625 75.640625 
L 87.890625 0 
z
" id="MicrosoftYaHei-4d"/>
     </defs>
     <g transform="translate(708.409375 115.272812)scale(0.1 -0.1)">
      <use xlink:href="#MicrosoftYaHei-31"/>
      <use x="58.642578" xlink:href="#MicrosoftYaHei-4d"/>
      <use x="156.347656" xlink:href="#MicrosoftYaHei-2d"/>
      <use x="199.609375" xlink:href="#MicrosoftYaHei-35"/>
      <use x="258.251953" xlink:href="#MicrosoftYaHei-65e5"/>
      <use x="358.251953" xlink:href="#MicrosoftYaHei-5747"/>
      <use x="458.251953" xlink:href="#MicrosoftYaHei-503c"/>
     </g>
    </g>
    <g id="line2d_46">
     <path d="M 680.409375 127.2525 
L 700.409375 127.2525 
" style="fill:none;stroke:#9467bd;stroke-linecap:square;stroke-width:1.5;"/>
    </g>
    <g id="line2d_47"/>
    <g id="text_22">
     <!-- 1Y-5日均值 -->
     <defs>
      <path d="M 59.8125 75.640625 
L 34.90625 27.828125 
L 34.90625 0 
L 25.09375 0 
L 25.09375 27.59375 
L 0.828125 75.640625 
L 12.015625 75.640625 
L 28.375 42.140625 
Q 28.421875 42.09375 30.171875 37.3125 
L 30.328125 37.3125 
Q 30.90625 39.359375 32.328125 42.09375 
L 49.421875 75.640625 
z
" id="MicrosoftYaHei-59"/>
     </defs>
     <g transform="translate(708.409375 130.7525)scale(0.1 -0.1)">
      <use xlink:href="#MicrosoftYaHei-31"/>
      <use x="58.642578" xlink:href="#MicrosoftYaHei-59"/>
      <use x="118.994141" xlink:href="#MicrosoftYaHei-2d"/>
      <use x="162.255859" xlink:href="#MicrosoftYaHei-35"/>
      <use x="220.898438" xlink:href="#MicrosoftYaHei-65e5"/>
      <use x="320.898438" xlink:href="#MicrosoftYaHei-5747"/>
      <use x="420.898438" xlink:href="#MicrosoftYaHei-503c"/>
     </g>
    </g>
   </g>
  </g>
 </g>
 <defs>
  <clipPath id="pdd2c3208f2">
   <rect height="332.64" width="669.6" x="108" y="51.84"/>
  </clipPath>
 </defs>
</svg>
