<?xml version="1.0" encoding="utf-8" standalone="no"?>
<!DOCTYPE svg PUBLIC "-//W3C//DTD SVG 1.1//EN"
  "http://www.w3.org/Graphics/SVG/1.1/DTD/svg11.dtd">
<!-- Created with matplotlib (http://matplotlib.org/) -->
<svg height="432pt" version="1.1" viewBox="0 0 864 432" width="864pt" xmlns="http://www.w3.org/2000/svg" xmlns:xlink="http://www.w3.org/1999/xlink">
 <defs>
  <style type="text/css">
*{stroke-linecap:butt;stroke-linejoin:round;}
  </style>
 </defs>
 <g id="figure_1">
  <g id="patch_1">
   <path d="M 0 432 
L 864 432 
L 864 0 
L 0 0 
z
" style="fill:#ffffff;"/>
  </g>
  <g id="axes_1">
   <g id="patch_2">
    <path d="M 108 384.48 
L 777.6 384.48 
L 777.6 51.84 
L 108 51.84 
z
" style="fill:#ffffff;"/>
   </g>
   <g id="matplotlib.axis_1">
    <g id="xtick_1">
     <g id="line2d_1">
      <path clip-path="url(#p52e35cde09)" d="M 108 384.48 
L 108 51.84 
" style="fill:none;stroke:#b0b0b0;stroke-linecap:square;stroke-width:0.8;"/>
     </g>
     <g id="line2d_2">
      <defs>
       <path d="M 0 0 
L 0 3.5 
" id="mb83b013db6" style="stroke:#000000;stroke-width:0.8;"/>
      </defs>
      <g>
       <use style="stroke:#000000;stroke-width:0.8;" x="108" xlink:href="#mb83b013db6" y="384.48"/>
      </g>
     </g>
     <g id="text_1">
      <!-- 2008-02-29 -->
      <defs>
       <path d="M 51.171875 0 
L 5.171875 0 
L 5.171875 8.296875 
L 27.15625 30.21875 
Q 36.234375 39.3125 39.3125 44.609375 
Q 42.390625 49.90625 42.390625 55.5625 
Q 42.390625 62.015625 38.765625 65.453125 
Q 35.15625 68.890625 28.328125 68.890625 
Q 18.21875 68.890625 9.03125 60.296875 
L 9.03125 70.015625 
Q 17.96875 76.90625 29.828125 76.90625 
Q 40.046875 76.90625 45.953125 71.390625 
Q 51.859375 65.875 51.859375 56.546875 
Q 51.859375 49.515625 48.0625 42.75 
Q 44.28125 35.984375 33.734375 25.53125 
L 16.5 8.6875 
L 16.5 8.5 
L 51.171875 8.5 
z
" id="MicrosoftYaHei-32"/>
       <path d="M 4.4375 36.328125 
Q 4.4375 56.34375 11.078125 66.625 
Q 17.71875 76.90625 30.328125 76.90625 
Q 54.34375 76.90625 54.34375 38.140625 
Q 54.34375 19 47.578125 8.859375 
Q 40.828125 -1.265625 28.609375 -1.265625 
Q 17.09375 -1.265625 10.765625 8.34375 
Q 4.4375 17.96875 4.4375 36.328125 
z
M 14.203125 36.765625 
Q 14.203125 6.640625 29.5 6.640625 
Q 44.53125 6.640625 44.53125 37.25 
Q 44.53125 68.953125 29.78125 68.953125 
Q 14.203125 68.953125 14.203125 36.765625 
z
" id="MicrosoftYaHei-30"/>
       <path d="M 21.390625 39.796875 
Q 7.859375 46.09375 7.859375 58.0625 
Q 7.859375 66.40625 14.203125 71.65625 
Q 20.5625 76.90625 30.421875 76.90625 
Q 39.453125 76.90625 45.3125 71.96875 
Q 51.171875 67.046875 51.171875 59.234375 
Q 51.171875 46.625 37.0625 39.84375 
L 37.0625 39.65625 
Q 53.609375 33.6875 53.609375 19.34375 
Q 53.609375 9.90625 46.796875 4.3125 
Q 39.984375 -1.265625 27.78125 -1.265625 
Q 17.78125 -1.265625 11.46875 4.25 
Q 5.171875 9.765625 5.171875 18.5625 
Q 5.171875 33.015625 21.390625 39.59375 
z
M 41.5 58.109375 
Q 41.5 63.1875 38.328125 66.109375 
Q 35.15625 69.046875 29.734375 69.046875 
Q 24.65625 69.046875 21.09375 65.984375 
Q 17.53125 62.9375 17.53125 58.203125 
Q 17.53125 48.734375 29.390625 43.796875 
Q 41.5 48.828125 41.5 58.109375 
z
M 28.8125 35.25 
Q 14.796875 29.59375 14.796875 19.046875 
Q 14.796875 13.578125 18.890625 10.0625 
Q 23 6.546875 29.59375 6.546875 
Q 35.984375 6.546875 39.984375 10.03125 
Q 44 13.53125 44 18.75 
Q 44 29.734375 28.8125 35.25 
z
" id="MicrosoftYaHei-38"/>
       <path d="M 36.375 26.265625 
L 7.625 26.265625 
L 7.625 33.640625 
L 36.375 33.640625 
z
" id="MicrosoftYaHei-2d"/>
       <path d="M 9.03125 10.25 
Q 15.28125 6.640625 22.515625 6.640625 
Q 32.671875 6.640625 38.25 14.640625 
Q 43.84375 22.65625 43.84375 37.40625 
Q 43.75 37.3125 43.65625 37.40625 
Q 38.671875 27.9375 26.90625 27.9375 
Q 17.390625 27.9375 11.140625 34.46875 
Q 4.890625 41.015625 4.890625 51.46875 
Q 4.890625 62.59375 11.71875 69.75 
Q 18.5625 76.90625 29.4375 76.90625 
Q 40.71875 76.90625 47.0625 68.046875 
Q 53.421875 59.1875 53.421875 42.234375 
Q 53.421875 21.296875 45.21875 10.015625 
Q 37.015625 -1.265625 22.515625 -1.265625 
Q 14.546875 -1.265625 9.03125 1.3125 
z
M 14.546875 52.6875 
Q 14.546875 45.0625 18.453125 40.59375 
Q 22.359375 36.140625 29.25 36.140625 
Q 35.203125 36.140625 39.25 40.203125 
Q 43.3125 44.28125 43.3125 50.09375 
Q 43.3125 58.25 39.28125 63.59375 
Q 35.25 68.953125 28.65625 68.953125 
Q 22.5625 68.953125 18.546875 64.3125 
Q 14.546875 59.671875 14.546875 52.6875 
z
" id="MicrosoftYaHei-39"/>
      </defs>
      <g transform="translate(80.217187 399.47375)scale(0.1 -0.1)">
       <use xlink:href="#MicrosoftYaHei-32"/>
       <use x="58.642578" xlink:href="#MicrosoftYaHei-30"/>
       <use x="117.285156" xlink:href="#MicrosoftYaHei-30"/>
       <use x="175.927734" xlink:href="#MicrosoftYaHei-38"/>
       <use x="234.570312" xlink:href="#MicrosoftYaHei-2d"/>
       <use x="277.832031" xlink:href="#MicrosoftYaHei-30"/>
       <use x="336.474609" xlink:href="#MicrosoftYaHei-32"/>
       <use x="395.117188" xlink:href="#MicrosoftYaHei-2d"/>
       <use x="438.378906" xlink:href="#MicrosoftYaHei-32"/>
       <use x="497.021484" xlink:href="#MicrosoftYaHei-39"/>
      </g>
     </g>
    </g>
    <g id="xtick_2">
     <g id="line2d_3">
      <path clip-path="url(#p52e35cde09)" d="M 227.785331 384.48 
L 227.785331 51.84 
" style="fill:none;stroke:#b0b0b0;stroke-linecap:square;stroke-width:0.8;"/>
     </g>
     <g id="line2d_4">
      <g>
       <use style="stroke:#000000;stroke-width:0.8;" x="227.785331" xlink:href="#mb83b013db6" y="384.48"/>
      </g>
     </g>
     <g id="text_2">
      <!-- 2010-02-12 -->
      <defs>
       <path d="M 52.59375 0 
L 9.234375 0 
L 9.234375 8.25 
L 26.171875 8.25 
L 26.171875 65.671875 
L 8.796875 60.640625 
L 8.796875 69.4375 
L 35.6875 77.25 
L 35.6875 8.25 
L 52.59375 8.25 
z
" id="MicrosoftYaHei-31"/>
      </defs>
      <g transform="translate(200.002518 399.47375)scale(0.1 -0.1)">
       <use xlink:href="#MicrosoftYaHei-32"/>
       <use x="58.642578" xlink:href="#MicrosoftYaHei-30"/>
       <use x="117.285156" xlink:href="#MicrosoftYaHei-31"/>
       <use x="175.927734" xlink:href="#MicrosoftYaHei-30"/>
       <use x="234.570312" xlink:href="#MicrosoftYaHei-2d"/>
       <use x="277.832031" xlink:href="#MicrosoftYaHei-30"/>
       <use x="336.474609" xlink:href="#MicrosoftYaHei-32"/>
       <use x="395.117188" xlink:href="#MicrosoftYaHei-2d"/>
       <use x="438.378906" xlink:href="#MicrosoftYaHei-31"/>
       <use x="497.021484" xlink:href="#MicrosoftYaHei-32"/>
      </g>
     </g>
    </g>
    <g id="xtick_3">
     <g id="line2d_5">
      <path clip-path="url(#p52e35cde09)" d="M 347.570662 384.48 
L 347.570662 51.84 
" style="fill:none;stroke:#b0b0b0;stroke-linecap:square;stroke-width:0.8;"/>
     </g>
     <g id="line2d_6">
      <g>
       <use style="stroke:#000000;stroke-width:0.8;" x="347.570662" xlink:href="#mb83b013db6" y="384.48"/>
      </g>
     </g>
     <g id="text_3">
      <!-- 2012-01-20 -->
      <g transform="translate(319.787849 399.47375)scale(0.1 -0.1)">
       <use xlink:href="#MicrosoftYaHei-32"/>
       <use x="58.642578" xlink:href="#MicrosoftYaHei-30"/>
       <use x="117.285156" xlink:href="#MicrosoftYaHei-31"/>
       <use x="175.927734" xlink:href="#MicrosoftYaHei-32"/>
       <use x="234.570312" xlink:href="#MicrosoftYaHei-2d"/>
       <use x="277.832031" xlink:href="#MicrosoftYaHei-30"/>
       <use x="336.474609" xlink:href="#MicrosoftYaHei-31"/>
       <use x="395.117188" xlink:href="#MicrosoftYaHei-2d"/>
       <use x="438.378906" xlink:href="#MicrosoftYaHei-32"/>
       <use x="497.021484" xlink:href="#MicrosoftYaHei-30"/>
      </g>
     </g>
    </g>
    <g id="xtick_4">
     <g id="line2d_7">
      <path clip-path="url(#p52e35cde09)" d="M 467.355993 384.48 
L 467.355993 51.84 
" style="fill:none;stroke:#b0b0b0;stroke-linecap:square;stroke-width:0.8;"/>
     </g>
     <g id="line2d_8">
      <g>
       <use style="stroke:#000000;stroke-width:0.8;" x="467.355993" xlink:href="#mb83b013db6" y="384.48"/>
      </g>
     </g>
     <g id="text_4">
      <!-- 2014-01-10 -->
      <defs>
       <path d="M 55.078125 19.625 
L 45.40625 19.625 
L 45.40625 0 
L 36.140625 0 
L 36.140625 19.625 
L 0.875 19.625 
L 0.875 25.828125 
L 34.328125 75.640625 
L 45.40625 75.640625 
L 45.40625 27.203125 
L 55.078125 27.203125 
z
M 36.140625 27.203125 
L 36.140625 58.890625 
Q 36.140625 62.25 36.328125 66.65625 
L 36.140625 66.65625 
Q 35.453125 64.796875 33.25 60.84375 
L 10.75 27.203125 
z
" id="MicrosoftYaHei-34"/>
      </defs>
      <g transform="translate(439.57318 399.47375)scale(0.1 -0.1)">
       <use xlink:href="#MicrosoftYaHei-32"/>
       <use x="58.642578" xlink:href="#MicrosoftYaHei-30"/>
       <use x="117.285156" xlink:href="#MicrosoftYaHei-31"/>
       <use x="175.927734" xlink:href="#MicrosoftYaHei-34"/>
       <use x="234.570312" xlink:href="#MicrosoftYaHei-2d"/>
       <use x="277.832031" xlink:href="#MicrosoftYaHei-30"/>
       <use x="336.474609" xlink:href="#MicrosoftYaHei-31"/>
       <use x="395.117188" xlink:href="#MicrosoftYaHei-2d"/>
       <use x="438.378906" xlink:href="#MicrosoftYaHei-31"/>
       <use x="497.021484" xlink:href="#MicrosoftYaHei-30"/>
      </g>
     </g>
    </g>
    <g id="xtick_5">
     <g id="line2d_9">
      <path clip-path="url(#p52e35cde09)" d="M 587.141324 384.48 
L 587.141324 51.84 
" style="fill:none;stroke:#b0b0b0;stroke-linecap:square;stroke-width:0.8;"/>
     </g>
     <g id="line2d_10">
      <g>
       <use style="stroke:#000000;stroke-width:0.8;" x="587.141324" xlink:href="#mb83b013db6" y="384.48"/>
      </g>
     </g>
     <g id="text_5">
      <!-- 2015-12-11 -->
      <defs>
       <path d="M 8.640625 11.625 
Q 16.265625 6.640625 24.515625 6.640625 
Q 32.328125 6.640625 37.109375 11 
Q 41.890625 15.375 41.890625 22.609375 
Q 41.890625 29.890625 37.03125 33.890625 
Q 32.171875 37.890625 22.953125 37.890625 
Q 18.5 37.890625 10.984375 37.203125 
L 10.984375 75.640625 
L 48.1875 75.640625 
L 48.1875 67.1875 
L 19.875 67.1875 
L 19.875 45.796875 
Q 24.125 46.046875 26.265625 46.046875 
Q 38.234375 46.046875 44.921875 39.984375 
Q 51.609375 33.9375 51.609375 23.296875 
Q 51.609375 12.3125 44.421875 5.515625 
Q 37.25 -1.265625 24.609375 -1.265625 
Q 14.015625 -1.265625 8.640625 1.859375 
z
" id="MicrosoftYaHei-35"/>
      </defs>
      <g transform="translate(559.358511 399.47375)scale(0.1 -0.1)">
       <use xlink:href="#MicrosoftYaHei-32"/>
       <use x="58.642578" xlink:href="#MicrosoftYaHei-30"/>
       <use x="117.285156" xlink:href="#MicrosoftYaHei-31"/>
       <use x="175.927734" xlink:href="#MicrosoftYaHei-35"/>
       <use x="234.570312" xlink:href="#MicrosoftYaHei-2d"/>
       <use x="277.832031" xlink:href="#MicrosoftYaHei-31"/>
       <use x="336.474609" xlink:href="#MicrosoftYaHei-32"/>
       <use x="395.117188" xlink:href="#MicrosoftYaHei-2d"/>
       <use x="438.378906" xlink:href="#MicrosoftYaHei-31"/>
       <use x="497.021484" xlink:href="#MicrosoftYaHei-31"/>
      </g>
     </g>
    </g>
    <g id="xtick_6">
     <g id="line2d_11">
      <path clip-path="url(#p52e35cde09)" d="M 706.926655 384.48 
L 706.926655 51.84 
" style="fill:none;stroke:#b0b0b0;stroke-linecap:square;stroke-width:0.8;"/>
     </g>
     <g id="line2d_12">
      <g>
       <use style="stroke:#000000;stroke-width:0.8;" x="706.926655" xlink:href="#mb83b013db6" y="384.48"/>
      </g>
     </g>
     <g id="text_6">
      <!-- 2017-12-15 -->
      <defs>
       <path d="M 53.765625 72.3125 
L 24.171875 0 
L 14.265625 0 
L 42.390625 67.1875 
L 4.59375 67.1875 
L 4.59375 75.640625 
L 53.765625 75.640625 
z
" id="MicrosoftYaHei-37"/>
      </defs>
      <g transform="translate(679.143842 399.47375)scale(0.1 -0.1)">
       <use xlink:href="#MicrosoftYaHei-32"/>
       <use x="58.642578" xlink:href="#MicrosoftYaHei-30"/>
       <use x="117.285156" xlink:href="#MicrosoftYaHei-31"/>
       <use x="175.927734" xlink:href="#MicrosoftYaHei-37"/>
       <use x="234.570312" xlink:href="#MicrosoftYaHei-2d"/>
       <use x="277.832031" xlink:href="#MicrosoftYaHei-31"/>
       <use x="336.474609" xlink:href="#MicrosoftYaHei-32"/>
       <use x="395.117188" xlink:href="#MicrosoftYaHei-2d"/>
       <use x="438.378906" xlink:href="#MicrosoftYaHei-31"/>
       <use x="497.021484" xlink:href="#MicrosoftYaHei-35"/>
      </g>
     </g>
    </g>
    <g id="text_7">
     <!-- date -->
     <defs>
      <path d="M 55.421875 0 
L 45.84375 0 
L 45.84375 8.984375 
L 45.65625 8.984375 
Q 39.75 -1.265625 27.296875 -1.265625 
Q 17.046875 -1.265625 10.984375 6.03125 
Q 4.9375 13.328125 4.9375 25.734375 
Q 4.9375 39.109375 11.765625 47.1875 
Q 18.609375 55.28125 29.640625 55.28125 
Q 40.671875 55.28125 45.65625 46.6875 
L 45.84375 46.6875 
L 45.84375 79.9375 
L 55.421875 79.9375 
z
M 45.90625 32.125 
Q 45.90625 38.625 41.625 42.984375 
Q 37.359375 47.359375 31.109375 47.359375 
Q 23.484375 47.359375 19.09375 41.671875 
Q 14.703125 35.984375 14.703125 26.171875 
Q 14.703125 17.140625 18.921875 11.890625 
Q 23.140625 6.640625 30.171875 6.640625 
Q 37.109375 6.640625 41.5 11.78125 
Q 45.90625 16.9375 45.90625 24.609375 
z
" id="MicrosoftYaHei-64"/>
      <path d="M 9.8125 50.25 
Q 17.875 55.28125 28.421875 55.28125 
Q 47.953125 55.28125 47.953125 34.765625 
L 47.953125 0 
L 38.484375 0 
L 38.484375 8.34375 
L 38.234375 8.34375 
Q 32.625 -1.265625 21.6875 -1.265625 
Q 13.8125 -1.265625 9.171875 2.984375 
Q 4.546875 7.234375 4.546875 14.453125 
Q 4.546875 29.59375 22.46875 32.078125 
L 38.484375 34.328125 
Q 38.484375 47.5625 27.546875 47.5625 
Q 17.828125 47.5625 9.8125 41.015625 
z
M 25.828125 25.390625 
Q 19.1875 24.515625 16.671875 22.0625 
Q 14.15625 19.625 14.15625 15.234375 
Q 14.15625 11.375 16.890625 8.9375 
Q 19.625 6.5 24.125 6.5 
Q 30.375 6.5 34.421875 10.890625 
Q 38.484375 15.28125 38.484375 21.921875 
L 38.484375 27.09375 
z
" id="MicrosoftYaHei-61"/>
      <path d="M 34.46875 0.53125 
Q 31.34375 -1.171875 26.03125 -1.171875 
Q 11.53125 -1.171875 11.53125 14.890625 
L 11.53125 46.09375 
L 2.25 46.09375 
L 2.25 54 
L 11.53125 54 
L 11.53125 67 
L 21.046875 70.015625 
L 21.046875 54 
L 34.46875 54 
L 34.46875 46.09375 
L 21.046875 46.09375 
L 21.046875 16.609375 
Q 21.046875 11.28125 22.84375 8.984375 
Q 24.65625 6.6875 28.859375 6.6875 
Q 32.078125 6.6875 34.46875 8.5 
z
" id="MicrosoftYaHei-74"/>
      <path d="M 52.546875 24.5625 
L 14.75 24.5625 
Q 14.984375 15.921875 19.46875 11.203125 
Q 23.96875 6.5 32.03125 6.5 
Q 41.109375 6.5 48.6875 12.3125 
L 48.6875 3.765625 
Q 41.546875 -1.265625 29.78125 -1.265625 
Q 18.0625 -1.265625 11.5 6.15625 
Q 4.9375 13.578125 4.9375 26.765625 
Q 4.9375 39.15625 12.140625 47.21875 
Q 19.34375 55.28125 30.03125 55.28125 
Q 40.625 55.28125 46.578125 48.46875 
Q 52.546875 41.65625 52.546875 29.390625 
z
M 42.96875 32.234375 
Q 42.921875 39.546875 39.5 43.546875 
Q 36.078125 47.5625 29.890625 47.5625 
Q 24.171875 47.5625 20 43.3125 
Q 15.828125 39.0625 14.75 32.234375 
z
" id="MicrosoftYaHei-65"/>
     </defs>
     <g transform="translate(432.138281 413.953438)scale(0.1 -0.1)">
      <use xlink:href="#MicrosoftYaHei-64"/>
      <use x="63.964844" xlink:href="#MicrosoftYaHei-61"/>
      <use x="119.238281" xlink:href="#MicrosoftYaHei-74"/>
      <use x="156.494141" xlink:href="#MicrosoftYaHei-65"/>
     </g>
    </g>
   </g>
   <g id="matplotlib.axis_2">
    <g id="ytick_1">
     <g id="line2d_13">
      <path clip-path="url(#p52e35cde09)" d="M 108 370.539005 
L 777.6 370.539005 
" style="fill:none;stroke:#b0b0b0;stroke-linecap:square;stroke-width:0.8;"/>
     </g>
     <g id="line2d_14">
      <defs>
       <path d="M 0 0 
L -3.5 0 
" id="m2a74744fc1" style="stroke:#000000;stroke-width:0.8;"/>
      </defs>
      <g>
       <use style="stroke:#000000;stroke-width:0.8;" x="108" xlink:href="#m2a74744fc1" y="370.539005"/>
      </g>
     </g>
     <g id="text_8">
      <!-- 0 -->
      <g transform="translate(95.135937 374.53588)scale(0.1 -0.1)">
       <use xlink:href="#MicrosoftYaHei-30"/>
      </g>
     </g>
    </g>
    <g id="ytick_2">
     <g id="line2d_15">
      <path clip-path="url(#p52e35cde09)" d="M 108 297.185867 
L 777.6 297.185867 
" style="fill:none;stroke:#b0b0b0;stroke-linecap:square;stroke-width:0.8;"/>
     </g>
     <g id="line2d_16">
      <g>
       <use style="stroke:#000000;stroke-width:0.8;" x="108" xlink:href="#m2a74744fc1" y="297.185867"/>
      </g>
     </g>
     <g id="text_9">
      <!-- 100 -->
      <g transform="translate(83.407813 301.182742)scale(0.1 -0.1)">
       <use xlink:href="#MicrosoftYaHei-31"/>
       <use x="58.642578" xlink:href="#MicrosoftYaHei-30"/>
       <use x="117.285156" xlink:href="#MicrosoftYaHei-30"/>
      </g>
     </g>
    </g>
    <g id="ytick_3">
     <g id="line2d_17">
      <path clip-path="url(#p52e35cde09)" d="M 108 223.832728 
L 777.6 223.832728 
" style="fill:none;stroke:#b0b0b0;stroke-linecap:square;stroke-width:0.8;"/>
     </g>
     <g id="line2d_18">
      <g>
       <use style="stroke:#000000;stroke-width:0.8;" x="108" xlink:href="#m2a74744fc1" y="223.832728"/>
      </g>
     </g>
     <g id="text_10">
      <!-- 200 -->
      <g transform="translate(83.407813 227.829603)scale(0.1 -0.1)">
       <use xlink:href="#MicrosoftYaHei-32"/>
       <use x="58.642578" xlink:href="#MicrosoftYaHei-30"/>
       <use x="117.285156" xlink:href="#MicrosoftYaHei-30"/>
      </g>
     </g>
    </g>
    <g id="ytick_4">
     <g id="line2d_19">
      <path clip-path="url(#p52e35cde09)" d="M 108 150.47959 
L 777.6 150.47959 
" style="fill:none;stroke:#b0b0b0;stroke-linecap:square;stroke-width:0.8;"/>
     </g>
     <g id="line2d_20">
      <g>
       <use style="stroke:#000000;stroke-width:0.8;" x="108" xlink:href="#m2a74744fc1" y="150.47959"/>
      </g>
     </g>
     <g id="text_11">
      <!-- 300 -->
      <defs>
       <path d="M 6.984375 12.640625 
Q 14.75 6.640625 24.515625 6.640625 
Q 32.328125 6.640625 36.890625 10.46875 
Q 41.453125 14.3125 41.453125 20.75 
Q 41.453125 35.109375 20.90625 35.109375 
L 14.59375 35.109375 
L 14.59375 43.015625 
L 20.609375 43.015625 
Q 38.8125 43.015625 38.8125 56.5 
Q 38.8125 68.953125 24.90625 68.953125 
Q 16.9375 68.953125 9.90625 63.578125 
L 9.90625 72.609375 
Q 17.328125 76.90625 27.25 76.90625 
Q 36.921875 76.90625 42.78125 71.84375 
Q 48.640625 66.796875 48.640625 58.734375 
Q 48.640625 43.890625 33.5 39.65625 
L 33.5 39.453125 
Q 41.703125 38.578125 46.453125 33.671875 
Q 51.21875 28.765625 51.21875 21.4375 
Q 51.21875 11.234375 43.875 4.984375 
Q 36.53125 -1.265625 24.3125 -1.265625 
Q 13.578125 -1.265625 6.984375 2.734375 
z
" id="MicrosoftYaHei-33"/>
      </defs>
      <g transform="translate(83.407813 154.476465)scale(0.1 -0.1)">
       <use xlink:href="#MicrosoftYaHei-33"/>
       <use x="58.642578" xlink:href="#MicrosoftYaHei-30"/>
       <use x="117.285156" xlink:href="#MicrosoftYaHei-30"/>
      </g>
     </g>
    </g>
    <g id="ytick_5">
     <g id="line2d_21">
      <path clip-path="url(#p52e35cde09)" d="M 108 77.126452 
L 777.6 77.126452 
" style="fill:none;stroke:#b0b0b0;stroke-linecap:square;stroke-width:0.8;"/>
     </g>
     <g id="line2d_22">
      <g>
       <use style="stroke:#000000;stroke-width:0.8;" x="108" xlink:href="#m2a74744fc1" y="77.126452"/>
      </g>
     </g>
     <g id="text_12">
      <!-- 400 -->
      <g transform="translate(83.407813 81.123327)scale(0.1 -0.1)">
       <use xlink:href="#MicrosoftYaHei-34"/>
       <use x="58.642578" xlink:href="#MicrosoftYaHei-30"/>
       <use x="117.285156" xlink:href="#MicrosoftYaHei-30"/>
      </g>
     </g>
    </g>
    <g id="text_13">
     <!-- 万人 -->
     <defs>
      <path d="M 2.9375 75.046875 
L 97.078125 75.046875 
L 97.078125 67.53125 
L 41.15625 67.53125 
Q 40.765625 56.640625 40.140625 47.125 
L 85.453125 47.125 
Q 84.46875 27.203125 83.203125 9.328125 
Q 82.328125 -1.515625 78.21875 -6.296875 
Q 74.3125 -10.6875 64.0625 -10.796875 
Q 58.6875 -10.984375 45.90625 -10.015625 
Q 45.40625 -6.296875 44.4375 -1.03125 
Q 56.84375 -2.6875 63.375 -2.6875 
Q 73.828125 -3.46875 74.90625 10.5 
Q 76.078125 24.171875 76.65625 39.703125 
L 39.546875 39.703125 
Q 35.890625 3.953125 7.515625 -13.421875 
Q 5.28125 -10.40625 1.765625 -6.5 
Q 29.203125 10.203125 31.15625 43.3125 
Q 32.078125 54 32.375 67.53125 
L 2.9375 67.53125 
z
" id="MicrosoftYaHei-4e07"/>
      <path d="M 1.5625 -4.734375 
Q 44.140625 19.875 46.578125 81.59375 
L 55.171875 81.59375 
Q 54.640625 71.140625 53.125 61.671875 
Q 65.234375 12.84375 98.640625 -2.59375 
Q 94.53125 -7.078125 91.40625 -11.078125 
Q 62.40625 5.328125 50.046875 46.96875 
Q 39.359375 6.734375 7.71875 -12.15625 
Q 5.078125 -8.546875 1.5625 -4.734375 
z
" id="MicrosoftYaHei-4eba"/>
     </defs>
     <g transform="translate(76.921875 228.16)rotate(-90)scale(0.1 -0.1)">
      <use xlink:href="#MicrosoftYaHei-4e07"/>
      <use x="100" xlink:href="#MicrosoftYaHei-4eba"/>
     </g>
    </g>
   </g>
   <g id="line2d_23">
    <path clip-path="url(#p52e35cde09)" d="M 108 338.524174 
L 109.197853 337.510434 
L 110.395707 341.040994 
L 111.59356 337.228831 
L 112.791413 336.931531 
L 113.989267 348.692607 
L 115.18712 343.164347 
L 116.384973 351.046729 
L 117.582826 339.422897 
L 118.78068 350.775909 
L 119.978533 344.481403 
L 121.176386 351.002644 
L 122.37424 354.585138 
L 123.572093 354.640959 
L 124.769946 357.455299 
L 125.9678 358.623668 
L 127.165653 351.076143 
L 128.363506 348.462571 
L 129.56136 354.836665 
L 130.759213 352.983105 
L 131.957066 356.562298 
L 133.154919 356.230302 
L 134.352773 357.153011 
L 135.550626 359.552245 
L 136.748479 359.453512 
L 137.946333 357.230252 
L 139.144186 356.40789 
L 140.342039 359.33644 
L 141.539893 358.984712 
L 142.737746 356.973589 
L 143.935599 343.664029 
L 145.133453 357.904294 
L 146.331306 358.439478 
L 147.529159 358.656237 
L 148.727013 356.164797 
L 149.924866 358.143865 
L 151.122719 351.331779 
L 152.320572 345.438808 
L 153.518426 353.592523 
L 154.716279 355.725999 
L 155.914132 351.721211 
L 157.111986 355.820258 
L 158.309839 358.287857 
L 159.507692 364.318879 
L 160.705546 362.985466 
L 161.903399 362.411184 
L 163.101252 362.440892 
L 164.299106 354.118245 
L 165.496959 339.183472 
L 166.694812 334.998676 
L 167.892665 341.783328 
L 169.090519 347.510667 
L 170.288372 350.207862 
L 171.486225 349.145929 
L 172.684079 342.430449 
L 173.881932 344.021772 
L 175.079785 352.997922 
L 176.277639 343.783081 
L 177.475492 345.692903 
L 178.673345 354.028534 
L 179.871199 348.755177 
L 181.069052 348.176421 
L 182.266905 348.269872 
L 183.464758 357.583594 
L 184.662612 347.248723 
L 185.860465 346.306136 
L 187.058318 345.780047 
L 188.256172 337.091514 
L 189.454025 340.477862 
L 190.651878 341.22511 
L 193.047585 328.952397 
L 194.245438 319.146549 
L 195.443292 321.9259 
L 196.641145 335.022516 
L 197.838998 335.29737 
L 199.036852 337.583861 
L 200.234705 343.704593 
L 201.432558 346.709798 
L 202.630411 345.170262 
L 203.828265 344.837386 
L 205.026118 357.970165 
L 206.223971 366.647914 
L 207.421825 352.418946 
L 208.619678 350.942201 
L 209.817531 348.738746 
L 211.015385 348.48157 
L 212.213238 348.08825 
L 213.411091 343.725572 
L 214.608945 337.2347 
L 215.806798 340.971675 
L 217.004651 342.823182 
L 218.202504 345.724225 
L 219.400358 348.052307 
L 220.598211 352.649422 
L 221.796064 353.243949 
L 222.993918 349.591403 
L 224.191771 346.656984 
L 225.389624 347.768577 
L 226.587478 351.226444 
L 227.785331 356.495473 
L 228.983184 346.268285 
L 230.181038 345.945238 
L 231.378891 344.70381 
L 232.576744 341.535908 
L 233.774597 338.784651 
L 234.972451 341.055811 
L 236.170304 352.864493 
L 237.368157 347.701386 
L 238.566011 347.607274 
L 239.763864 347.786842 
L 240.961717 356.035916 
L 242.159571 349.322783 
L 243.357424 349.687789 
L 244.555277 348.160063 
L 245.753131 352.550101 
L 246.950984 351.491762 
L 248.148837 362.327268 
L 249.346691 349.060839 
L 250.544544 350.159083 
L 251.742397 354.580516 
L 252.94025 353.6314 
L 254.138104 351.834321 
L 255.335957 349.388434 
L 256.53381 353.288181 
L 257.731664 351.969365 
L 258.929517 351.264514 
L 260.12737 350.968021 
L 261.325224 351.492863 
L 262.523077 351.499684 
L 263.72093 350.270139 
L 264.918784 362.172713 
L 266.116637 353.207419 
L 267.31449 366.876703 
L 268.512343 347.934942 
L 269.710197 342.006761 
L 270.90805 338.95065 
L 272.105903 337.537061 
L 273.303757 329.023183 
L 274.50161 338.527989 
L 275.699463 342.070139 
L 276.897317 346.436484 
L 278.09517 349.969025 
L 279.293023 349.470737 
L 280.490877 348.845695 
L 281.68873 350.159889 
L 282.886583 359.831721 
L 284.084436 356.474494 
L 285.28229 355.749619 
L 286.480143 355.252064 
L 287.677996 365.843817 
L 288.87585 360.878103 
L 290.073703 346.029448 
L 291.271556 341.979107 
L 292.46941 344.690533 
L 293.667263 341.326191 
L 294.865116 341.852426 
L 296.06297 340.61782 
L 297.260823 339.734575 
L 298.458676 360.252034 
L 299.65653 351.91589 
L 300.854383 351.295396 
L 302.052236 352.265785 
L 303.250089 360.208903 
L 304.447943 356.564425 
L 305.645796 355.655507 
L 306.843649 353.91557 
L 308.041503 356.060342 
L 309.239356 360.758831 
L 310.437209 355.616116 
L 311.635063 352.229622 
L 312.832916 350.098053 
L 314.030769 358.172619 
L 315.228623 357.160713 
L 316.426476 355.580099 
L 317.624329 355.072863 
L 318.822182 358.460531 
L 320.020036 355.534841 
L 321.217889 355.461634 
L 322.415742 354.958945 
L 323.613596 356.539338 
L 324.811449 358.906738 
L 326.009302 362.765993 
L 327.207156 360.887346 
L 328.405009 355.217368 
L 329.602862 353.853807 
L 330.800716 360.582857 
L 331.998569 359.426738 
L 333.196422 357.119342 
L 334.394275 357.324144 
L 335.592129 358.194039 
L 336.789982 357.918818 
L 337.987835 358.05298 
L 339.185689 358.408743 
L 340.383542 360.322453 
L 341.581395 358.896028 
L 342.779249 357.909135 
L 343.977102 358.578482 
L 345.174955 366.975876 
L 346.372809 362.142931 
L 347.570662 363.240148 
L 348.768515 361.412994 
L 349.966369 358.945615 
L 352.362075 354.369993 
L 353.559928 353.121669 
L 354.757782 355.818717 
L 355.955635 353.922612 
L 357.153488 354.032642 
L 358.351342 352.603282 
L 359.549195 367.848559 
L 360.747048 364.418713 
L 361.944902 363.675278 
L 363.142755 362.237117 
L 364.340608 366.602582 
L 365.538462 363.677039 
L 366.736315 363.694937 
L 369.132021 362.482043 
L 370.329875 363.709094 
L 371.527728 362.698141 
L 372.725581 362.886512 
L 373.923435 359.292135 
L 375.121288 365.240634 
L 378.714848 364.03999 
L 379.912701 364.703103 
L 381.110555 364.254695 
L 382.308408 364.061043 
L 384.704114 363.214621 
L 385.901968 364.479082 
L 387.099821 362.765993 
L 388.297674 363.115081 
L 389.495528 361.868224 
L 390.693381 365.774279 
L 391.891234 365.220022 
L 393.089088 364.320713 
L 394.286941 364.644567 
L 395.484794 365.224277 
L 397.880501 364.452675 
L 399.078354 363.648725 
L 400.276208 364.295993 
L 401.474061 363.075837 
L 402.671914 362.326901 
L 403.869767 362.640412 
L 405.067621 367.563582 
L 406.265474 363.606987 
L 407.463327 361.871892 
L 408.661181 361.366048 
L 409.859034 361.504759 
L 411.056887 364.395313 
L 412.254741 359.767097 
L 413.452594 359.028284 
L 414.650447 358.005668 
L 415.848301 358.503956 
L 417.046154 357.978234 
L 418.244007 356.748395 
L 419.44186 366.925263 
L 420.639714 364.955731 
L 421.837567 364.811519 
L 423.03542 363.526005 
L 424.233274 368.193832 
L 425.431127 364.411744 
L 426.62898 364.191978 
L 427.826834 362.443239 
L 429.024687 362.406856 
L 430.22254 363.859468 
L 431.420394 367.764936 
L 432.618247 363.436441 
L 433.8161 360.096892 
L 435.013953 364.488251 
L 436.211807 365.022556 
L 438.607513 364.503655 
L 439.805367 365.062166 
L 441.00322 365.125323 
L 442.201073 364.945975 
L 443.398927 364.616766 
L 444.59678 363.658921 
L 445.794633 364.529989 
L 446.992487 362.994561 
L 448.19034 365.851373 
L 449.388193 361.809761 
L 450.586047 368.621994 
L 451.7839 364.738606 
L 452.981753 362.362551 
L 454.179606 363.054197 
L 456.575313 364.711758 
L 457.773166 364.819808 
L 458.97102 361.401918 
L 460.168873 362.852916 
L 461.366726 363.070188 
L 462.56458 363.683054 
L 463.762433 364.511798 
L 464.960286 364.380642 
L 466.15814 365.647891 
L 467.355993 365.167135 
L 468.553846 364.879517 
L 469.751699 363.749072 
L 470.949553 366.077374 
L 472.147406 369.36 
L 473.345259 360.007402 
L 474.543113 357.838129 
L 475.740966 357.538995 
L 476.938819 359.256045 
L 479.334526 359.527085 
L 480.532379 358.388204 
L 481.730233 363.971112 
L 482.928086 365.5807 
L 484.125939 364.320933 
L 485.323792 364.79384 
L 486.521646 367.026343 
L 487.719499 365.833621 
L 488.917352 365.242908 
L 490.115206 365.167428 
L 491.313059 364.836459 
L 492.510912 366.319072 
L 493.708766 363.221149 
L 494.906619 361.683154 
L 496.104472 360.348567 
L 497.302326 361.536594 
L 498.500179 360.778636 
L 499.698032 362.712225 
L 500.895886 363.726479 
L 502.093739 360.877223 
L 503.291592 360.867174 
L 505.687299 357.796171 
L 506.885152 358.801696 
L 508.083005 358.425614 
L 509.280859 357.533053 
L 510.478712 354.617633 
L 511.676565 354.422147 
L 512.874419 363.480819 
L 514.072272 359.175504 
L 515.270125 352.715366 
L 516.467979 355.106018 
L 517.665832 354.577289 
L 518.863685 353.244756 
L 520.061538 352.669667 
L 521.259392 353.369603 
L 522.457245 343.393136 
L 523.655098 326.654683 
L 524.852952 305.090107 
L 526.050805 324.142118 
L 527.248658 330.370386 
L 528.446512 347.739823 
L 529.644365 330.133969 
L 530.842218 337.762182 
L 532.040072 333.740963 
L 533.237925 335.70558 
L 534.435778 342.30993 
L 535.633631 345.655787 
L 536.831485 361.528305 
L 538.029338 350.591499 
L 539.227191 321.934189 
L 540.425045 317.611488 
L 541.622898 286.973129 
L 542.820751 248.092885 
L 544.018605 255.917391 
L 545.216458 247.003664 
L 546.414311 129.643044 
L 547.612165 66.96 
L 548.810018 153.839897 
L 550.007871 310.338084 
L 551.205725 312.076554 
L 552.403578 304.770581 
L 553.601431 249.917104 
L 554.799284 260.575315 
L 555.997138 266.854344 
L 557.194991 297.780027 
L 558.392844 333.921118 
L 559.590698 332.91618 
L 560.788551 332.908845 
L 561.986404 331.713189 
L 563.184258 341.821251 
L 564.382111 345.562261 
L 565.579964 351.071082 
L 566.777818 346.948636 
L 567.975671 346.354475 
L 569.173524 344.777383 
L 570.371377 355.919725 
L 571.569231 348.80447 
L 572.767084 349.926773 
L 573.964937 350.851023 
L 575.162791 360.357589 
L 576.360644 362.93962 
L 577.558497 348.863153 
L 578.756351 346.310463 
L 579.954204 345.789656 
L 581.152057 348.518393 
L 582.349911 344.601335 
L 583.547764 344.175887 
L 584.745617 344.021845 
L 585.94347 345.613609 
L 587.141324 344.880077 
L 588.339177 346.669894 
L 589.53703 348.10028 
L 590.734884 356.330502 
L 591.932737 348.503722 
L 594.328444 343.88981 
L 595.526297 344.505976 
L 596.72415 351.298477 
L 597.922004 344.410617 
L 599.119857 339.466616 
L 600.31771 336.693867 
L 601.515564 335.7036 
L 602.713417 331.881901 
L 603.91127 331.295076 
L 605.109123 336.29776 
L 606.306977 349.075877 
L 607.50483 341.674545 
L 608.702683 341.366462 
L 609.900537 340.691613 
L 611.09839 351.313147 
L 612.296243 346.339805 
L 613.494097 345.591603 
L 614.69195 345.811662 
L 615.889803 346.581943 
L 617.087657 355.443002 
L 618.28551 342.672148 
L 619.483363 344.337264 
L 620.681216 344.579329 
L 621.87907 348.885159 
L 623.076923 347.337407 
L 625.47263 346.787259 
L 626.670483 348.202974 
L 627.868336 348.202974 
L 629.06619 340.830984 
L 630.264043 324.02578 
L 631.461896 324.02578 
L 632.65975 337.288027 
L 633.857603 347.315401 
L 635.055456 333.099563 
L 636.253309 339.56931 
L 637.451163 341.769904 
L 638.649016 340.933678 
L 639.846869 340.933678 
L 641.044723 343.339661 
L 642.242576 342.173346 
L 643.440429 339.261227 
L 644.638283 341.579259 
L 645.836136 341.065714 
L 647.033989 344.960766 
L 648.231843 345.349537 
L 649.429696 347.608814 
L 650.627549 350.90237 
L 651.825403 355.538288 
L 653.023256 349.72872 
L 654.221109 349.083212 
L 655.418962 354.459997 
L 656.616816 335.278151 
L 657.814669 333.407646 
L 659.012522 332.850163 
L 660.210376 329.593283 
L 661.408229 332.402708 
L 662.606082 335.997012 
L 663.803936 353.777813 
L 665.001789 344.674688 
L 666.199642 345.048789 
L 667.397496 344.527982 
L 668.595349 353.212994 
L 669.793202 347.462108 
L 670.991055 347.924232 
L 672.188909 348.621087 
L 673.386762 357.33544 
L 674.584615 348.899829 
L 675.782469 346.537858 
L 676.980322 347.572137 
L 678.178175 348.44504 
L 679.376029 353.763142 
L 680.573882 349.068541 
L 681.771735 348.657764 
L 682.969589 348.056268 
L 684.167442 348.056268 
L 685.365295 347.021989 
L 687.761002 346.083069 
L 688.958855 346.537858 
L 690.156708 345.635615 
L 691.354562 346.413158 
L 692.552415 345.789656 
L 693.750268 347.17603 
L 694.948122 348.995188 
L 696.145975 349.941444 
L 697.343828 350.550275 
L 698.541682 349.956114 
L 700.937388 349.207912 
L 702.135242 348.709111 
L 703.333095 350.887699 
L 704.530948 352.222726 
L 705.728801 352.868234 
L 706.926655 353.080958 
L 708.124508 353.763142 
L 709.322361 354.093231 
L 710.520215 357.452805 
L 711.718068 350.997729 
L 712.915921 348.232316 
L 714.113775 348.481716 
L 716.509481 352.18605 
L 717.707335 362.169412 
L 718.905188 347.968244 
L 720.103041 346.105075 
L 721.300894 342.444753 
L 722.498748 342.796848 
L 723.696601 344.535317 
L 724.894454 358.96388 
L 726.092308 349.325277 
L 727.290161 351.195782 
L 728.488014 351.599225 
L 729.685868 358.97855 
L 730.883721 352.802216 
L 733.279428 352.083355 
L 734.477281 352.413445 
L 735.675134 352.428115 
L 736.872987 350.990394 
L 738.070841 354.900116 
L 739.268694 351.24713 
L 740.466547 353.374371 
L 741.664401 351.870631 
L 742.862254 352.266738 
L 744.060107 352.413445 
L 745.257961 352.772875 
L 746.455814 352.963593 
L 747.653667 353.638442 
L 748.851521 353.579759 
L 750.049374 352.89024 
L 751.247227 353.242408 
L 752.445081 352.875643 
L 753.642934 353.491809 
L 754.840787 355.802359 
L 756.03864 351.980661 
L 757.236494 352.838893 
L 758.434347 351.467189 
L 759.6322 352.956258 
L 760.830054 352.853563 
L 762.027907 352.516139 
L 763.22576 352.816887 
L 764.423614 353.257006 
L 765.621467 354.195926 
L 766.81932 354.980804 
L 769.215027 355.274217 
L 770.41288 361.736628 
L 771.610733 353.205658 
L 772.808587 352.010002 
L 774.00644 352.222726 
L 775.204293 356.667927 
L 776.402147 355.384247 
L 777.6 347.352078 
L 777.6 347.352078 
" style="fill:none;stroke:#1f77b4;stroke-linecap:square;stroke-width:1.5;"/>
   </g>
   <g id="patch_3">
    <path d="M 108 384.48 
L 108 51.84 
" style="fill:none;stroke:#000000;stroke-linecap:square;stroke-linejoin:miter;stroke-width:0.8;"/>
   </g>
   <g id="patch_4">
    <path d="M 777.6 384.48 
L 777.6 51.84 
" style="fill:none;stroke:#000000;stroke-linecap:square;stroke-linejoin:miter;stroke-width:0.8;"/>
   </g>
   <g id="patch_5">
    <path d="M 108 384.48 
L 777.6 384.48 
" style="fill:none;stroke:#000000;stroke-linecap:square;stroke-linejoin:miter;stroke-width:0.8;"/>
   </g>
   <g id="patch_6">
    <path d="M 108 51.84 
L 777.6 51.84 
" style="fill:none;stroke:#000000;stroke-linecap:square;stroke-linejoin:miter;stroke-width:0.8;"/>
   </g>
   <g id="legend_1">
    <g id="patch_7">
     <path d="M 688.6 90.799375 
L 770.6 90.799375 
Q 772.6 90.799375 772.6 88.799375 
L 772.6 58.84 
Q 772.6 56.84 770.6 56.84 
L 688.6 56.84 
Q 686.6 56.84 686.6 58.84 
L 686.6 88.799375 
Q 686.6 90.799375 688.6 90.799375 
z
" style="fill:#ffffff;opacity:0.8;stroke:#cccccc;stroke-linejoin:miter;"/>
    </g>
    <g id="line2d_24">
     <path d="M 690.6 65.33375 
L 710.6 65.33375 
" style="fill:none;stroke:#1f77b4;stroke-linecap:square;stroke-width:1.5;"/>
    </g>
    <g id="line2d_25"/>
    <g id="text_14">
     <!-- 新增开户数 -->
     <defs>
      <path d="M 56.15625 74.953125 
Q 76.375 75.140625 93.453125 78.953125 
L 96 71.4375 
Q 76.65625 68.890625 63.09375 68.109375 
L 63.09375 45.359375 
L 98.734375 45.359375 
L 98.734375 38.71875 
L 84.765625 38.71875 
L 84.765625 -12.453125 
L 77.546875 -12.453125 
L 77.546875 38.71875 
L 63.09375 38.71875 
L 63.09375 33.9375 
Q 63.09375 3.953125 48.734375 -12.75 
Q 46.390625 -9.71875 43.5625 -6.5 
Q 56.15625 7.28125 56.15625 34.234375 
z
M 4.109375 31.109375 
L 24.03125 31.109375 
L 24.03125 40.375 
L 31.0625 40.375 
L 31.0625 31.109375 
L 50.203125 31.109375 
L 50.203125 24.859375 
L 31.0625 24.859375 
L 31.0625 -0.640625 
Q 31.0625 -10.984375 21.09375 -10.984375 
Q 16.890625 -10.984375 11.625 -10.890625 
Q 11.234375 -7.671875 10.546875 -3.46875 
Q 16.21875 -4.046875 19.4375 -4.046875 
Q 24.03125 -4.046875 24.03125 0.921875 
L 24.03125 24.859375 
L 4.109375 24.859375 
z
M 1.375 49.359375 
L 17.09375 49.359375 
Q 12.9375 55.953125 9.28125 60.6875 
L 14.546875 64.40625 
Q 17.78125 60.5 22.859375 53.375 
L 17.328125 49.359375 
L 30.21875 49.359375 
Q 35.546875 57.03125 40.046875 64.5 
L 46.96875 60.59375 
Q 42.234375 54.5 37.9375 49.359375 
L 52.734375 49.359375 
L 52.734375 43.109375 
L 1.375 43.109375 
z
M 4.5 72.015625 
L 25.59375 72.015625 
Q 23.484375 76.03125 20.796875 80.71875 
L 27.046875 83.640625 
Q 30.078125 78.65625 32.71875 73.578125 
L 29.4375 72.015625 
L 50.203125 72.015625 
L 50.203125 65.765625 
L 4.5 65.765625 
z
M 11.625 20.453125 
L 18.265625 17.328125 
Q 12.984375 6.296875 7.8125 -2.59375 
Q 4.984375 -0.828125 1.375 0.921875 
Q 6.15625 8.34375 11.625 20.453125 
z
M 39.75 19.96875 
Q 45.21875 12.546875 49.3125 6.296875 
L 43.0625 2 
Q 38.765625 9.515625 33.984375 16.15625 
z
" id="MicrosoftYaHei-65b0"/>
      <path d="M 34.1875 69.671875 
L 50.921875 69.671875 
Q 47.515625 74.703125 43.359375 79.9375 
L 48.921875 83.84375 
Q 54 77.984375 57.71875 72.90625 
L 53.171875 69.671875 
L 69.578125 69.671875 
Q 74.359375 76.375 78.90625 83.9375 
L 85.9375 79.9375 
Q 81.78125 74.5625 77.78125 69.671875 
L 94.34375 69.671875 
L 94.34375 33.15625 
L 87.5 33.15625 
L 87.5 36.078125 
L 41.015625 36.078125 
L 41.015625 33.15625 
L 34.1875 33.15625 
z
M 38.09375 28.078125 
L 90.4375 28.078125 
L 90.4375 -13.234375 
L 83.40625 -13.234375 
L 83.40625 -8.546875 
L 45.125 -8.546875 
L 45.125 -13.234375 
L 38.09375 -13.234375 
z
M 1.265625 6.6875 
Q 7.28125 8.40625 13.96875 10.5 
L 13.96875 50.828125 
L 2.25 50.828125 
L 2.25 57.765625 
L 13.96875 57.765625 
L 13.96875 82.171875 
L 21.1875 82.171875 
L 21.1875 57.765625 
L 31.25 57.765625 
L 31.25 50.828125 
L 21.1875 50.828125 
L 21.1875 12.796875 
Q 26.703125 14.546875 32.71875 16.546875 
Q 32.90625 11.859375 33.203125 8.640625 
Q 20.40625 4.9375 3.90625 -0.828125 
z
M 87.5 63.8125 
L 67.578125 63.8125 
L 67.578125 41.9375 
L 87.5 41.9375 
z
M 41.015625 41.9375 
L 60.84375 41.9375 
L 60.84375 63.8125 
L 41.015625 63.8125 
z
M 83.40625 22.015625 
L 45.125 22.015625 
L 45.125 12.640625 
L 83.40625 12.640625 
z
M 45.125 -2.484375 
L 83.40625 -2.484375 
L 83.40625 6.78125 
L 45.125 6.78125 
z
M 83.59375 56.390625 
Q 78.21875 47.90625 75.875 45.0625 
L 70.609375 48.1875 
Q 74.125 52.984375 77.828125 59.8125 
z
M 44.734375 56.203125 
L 49.703125 59.421875 
Q 54.109375 53.765625 57.328125 48.78125 
L 51.859375 45.265625 
Q 48.734375 50.4375 44.734375 56.203125 
z
" id="MicrosoftYaHei-589e"/>
      <path d="M 1.953125 39.890625 
L 27.4375 39.890625 
L 27.4375 68.3125 
L 6.25 68.3125 
L 6.25 76.03125 
L 93.84375 76.03125 
L 93.84375 68.3125 
L 73.921875 68.3125 
L 73.921875 39.890625 
L 98.046875 39.890625 
L 98.046875 32.171875 
L 73.921875 32.171875 
L 73.921875 -12.359375 
L 65.921875 -12.359375 
L 65.921875 32.171875 
L 35.40625 32.171875 
Q 35.0625 14.3125 30.28125 5.609375 
Q 25.484375 -3.953125 8.296875 -13.625 
Q 5.765625 -10.109375 2.734375 -6.78125 
Q 17.671875 0.828125 22.65625 9.125 
Q 27.09375 15.828125 27.390625 32.171875 
L 1.953125 32.171875 
z
M 35.453125 39.890625 
L 65.921875 39.890625 
L 65.921875 68.3125 
L 35.453125 68.3125 
z
" id="MicrosoftYaHei-5f00"/>
      <path d="M 42.578125 79.9375 
L 49.609375 84.125 
Q 54.296875 78.5625 58.890625 72.015625 
L 54.109375 69 
L 90.53125 69 
L 90.53125 25.734375 
L 82.71875 25.734375 
L 82.71875 30.8125 
L 21.046875 30.8125 
Q 19.734375 2.6875 6.546875 -14.109375 
Q 3.90625 -10.890625 0.875 -7.671875 
Q 13.375 7.5625 13.375 38.03125 
L 13.375 69 
L 50.640625 69 
Q 47.078125 74.46875 42.578125 79.9375 
z
M 21.1875 61.96875 
L 21.1875 37.84375 
L 82.71875 37.84375 
L 82.71875 61.96875 
z
" id="MicrosoftYaHei-6237"/>
      <path d="M 65.234375 82.859375 
L 73.046875 81.6875 
Q 71 72.21875 68.265625 64.015625 
L 98.140625 64.015625 
L 98.140625 57.375 
L 92 57.375 
Q 89.546875 28.65625 79.5 11.765625 
Q 87.40625 1.03125 99.609375 -5.8125 
Q 96.484375 -10.109375 94.34375 -13.53125 
Q 82.421875 -5.8125 74.515625 4.828125 
Q 65.53125 -6.296875 53.125 -14.5 
Q 50.984375 -11.671875 47.5625 -8.34375 
Q 61.234375 0.640625 69.734375 12.0625 
Q 61.8125 25.734375 59.28125 43.609375 
Q 57.234375 39.984375 54.984375 36.859375 
Q 53.03125 39.703125 50.09375 43.109375 
Q 61.421875 59.421875 65.234375 82.859375 
z
M 2.34375 26.515625 
L 17.1875 26.515625 
Q 19.34375 30.21875 21.390625 34.125 
L 28.421875 31.890625 
Q 26.859375 29.15625 25.296875 26.515625 
L 49.21875 26.515625 
L 49.21875 20.171875 
Q 45.515625 10.59375 37.984375 3.375 
Q 43.359375 0.828125 48.921875 -1.703125 
L 44.625 -8.453125 
Q 38.578125 -5.03125 32.03125 -1.609375 
Q 21 -9.515625 4.203125 -14.109375 
Q 2.640625 -10.984375 0.875 -7.28125 
Q 15.140625 -4.046875 25 2 
Q 16.609375 6.296875 7.421875 10.796875 
Q 10.546875 15.28125 13.484375 20.0625 
L 2.34375 20.0625 
z
M 3.421875 60.109375 
L 25.875 60.109375 
L 25.875 81.984375 
L 33.109375 81.984375 
L 33.109375 60.109375 
L 51.859375 60.109375 
L 51.859375 53.65625 
L 33.109375 53.65625 
L 33.109375 47.703125 
L 36.03125 51.03125 
Q 45.125 44.390625 51.265625 39.3125 
L 46.578125 33.84375 
Q 41.21875 38.921875 33.109375 45.265625 
L 33.109375 34.125 
L 25.875 34.125 
L 25.875 47.796875 
Q 17 38.53125 5.171875 31.5 
Q 3.328125 34.328125 0.984375 37.453125 
Q 13.28125 44.09375 23.53125 53.65625 
L 3.421875 53.65625 
z
M 84.1875 57.375 
L 65.921875 57.375 
Q 65.4375 56.109375 64.84375 54.9375 
Q 66.609375 34.234375 74.609375 19.484375 
Q 82.421875 33.734375 84.1875 57.375 
z
M 17 13.03125 
Q 23.921875 9.90625 31.25 6.5 
Q 37.984375 12.25 41.796875 20.0625 
L 21.484375 20.0625 
Q 19.234375 16.453125 17 13.03125 
z
M 47.46875 79.546875 
L 53.515625 75.53125 
Q 48.140625 68.5 42.78125 62.546875 
Q 40.53125 64.5 37.5 66.65625 
Q 42.578125 72.609375 47.46875 79.546875 
z
M 5.953125 75.25 
L 11.53125 79.046875 
Q 15.921875 73.6875 20.609375 67.53125 
L 14.546875 63.234375 
Q 10.25 69.578125 5.953125 75.25 
z
" id="MicrosoftYaHei-6570"/>
     </defs>
     <g transform="translate(718.6 68.83375)scale(0.1 -0.1)">
      <use xlink:href="#MicrosoftYaHei-65b0"/>
      <use x="100" xlink:href="#MicrosoftYaHei-589e"/>
      <use x="200" xlink:href="#MicrosoftYaHei-5f00"/>
      <use x="300" xlink:href="#MicrosoftYaHei-6237"/>
      <use x="400" xlink:href="#MicrosoftYaHei-6570"/>
     </g>
    </g>
    <g id="line2d_26">
     <path d="M 690.6 80.813438 
L 710.6 80.813438 
" style="fill:none;stroke:#ff0000;stroke-linecap:square;stroke-width:1.5;"/>
    </g>
    <g id="line2d_27"/>
    <g id="text_15">
     <!-- 上证指数 -->
     <defs>
      <path d="M 2.546875 0.734375 
L 40.828125 0.734375 
L 40.828125 81.390625 
L 49.703125 81.390625 
L 49.703125 52 
L 89.84375 52 
L 89.84375 44.1875 
L 49.703125 44.1875 
L 49.703125 0.734375 
L 97.5625 0.734375 
L 97.5625 -7.078125 
L 2.546875 -7.078125 
z
" id="MicrosoftYaHei-4e0a"/>
      <path d="M 26.265625 -0.53125 
L 39.84375 -0.53125 
L 39.84375 53.46875 
L 47.359375 53.46875 
L 47.359375 -0.53125 
L 62.890625 -0.53125 
L 62.890625 70.84375 
L 31.640625 70.84375 
L 31.640625 78.078125 
L 96.875 78.078125 
L 96.875 70.84375 
L 70.703125 70.84375 
L 70.703125 41.453125 
L 93.359375 41.453125 
L 93.359375 34.234375 
L 70.703125 34.234375 
L 70.703125 -0.53125 
L 98.4375 -0.53125 
L 98.4375 -7.765625 
L 26.265625 -7.765625 
z
M 32.03125 23.96875 
Q 32.421875 20.5625 33.890625 15.484375 
Q 22.078125 3.765625 16.015625 -3.171875 
L 10.453125 3.171875 
Q 13.375 7.28125 13.375 12.9375 
L 13.375 43.5 
L 1.5625 43.5 
L 1.5625 50.53125 
L 20.90625 50.53125 
L 20.90625 12.453125 
Q 25.390625 16.75 32.03125 23.96875 
z
M 11.03125 81.59375 
Q 22.46875 69.96875 27.046875 64.796875 
L 20.21875 59.03125 
Q 14.0625 67.046875 5.078125 76.421875 
z
" id="MicrosoftYaHei-8bc1"/>
      <path d="M 39.9375 36.1875 
L 91.5 36.1875 
L 91.5 -12.84375 
L 84.078125 -12.84375 
L 84.078125 -6.890625 
L 47.359375 -6.890625 
L 47.359375 -12.84375 
L 39.9375 -12.84375 
z
M 1.375 30.90625 
Q 8.59375 32.625 15.234375 34.28125 
L 15.234375 56.984375 
L 2.25 56.984375 
L 2.25 64.015625 
L 15.234375 64.015625 
L 15.234375 82.953125 
L 22.5625 82.953125 
L 22.5625 64.015625 
L 35.15625 64.015625 
L 35.15625 56.984375 
L 22.5625 56.984375 
L 22.5625 36.234375 
Q 27.78125 37.640625 32.625 39.109375 
Q 32.8125 34.625 33.296875 31.5 
Q 27.734375 29.9375 22.5625 28.46875 
L 22.5625 -0.921875 
Q 22.5625 -11.765625 12.890625 -11.859375 
Q 9.28125 -11.96875 3.421875 -11.671875 
Q 3.03125 -7.765625 2.15625 -3.953125 
Q 7.515625 -4.640625 10.84375 -4.640625 
Q 15.234375 -4.640625 15.234375 0.25 
L 15.234375 26.3125 
Q 8.34375 24.3125 2.34375 22.515625 
z
M 38.96875 83.15625 
L 46.390625 83.15625 
L 46.390625 68.109375 
Q 69.734375 72.515625 92.78125 79.4375 
L 95.40625 72.515625 
Q 76.375 66.609375 46.390625 61.1875 
L 46.390625 57.953125 
Q 46.390625 50.921875 53.609375 50.921875 
L 80.5625 50.921875 
Q 87.703125 50.921875 89.0625 57.171875 
Q 89.9375 60.796875 90.828125 67.046875 
Q 94.34375 65.578125 98.140625 64.40625 
Q 97.078125 58.0625 96 54.15625 
Q 93.75 44.28125 81.9375 44.28125 
L 51.375 44.28125 
Q 38.96875 44.28125 38.96875 57.46875 
z
M 84.078125 29.546875 
L 47.359375 29.546875 
L 47.359375 17.71875 
L 84.078125 17.71875 
z
M 47.359375 -0.25 
L 84.078125 -0.25 
L 84.078125 11.46875 
L 47.359375 11.46875 
z
" id="MicrosoftYaHei-6307"/>
     </defs>
     <g transform="translate(718.6 84.313438)scale(0.1 -0.1)">
      <use xlink:href="#MicrosoftYaHei-4e0a"/>
      <use x="100" xlink:href="#MicrosoftYaHei-8bc1"/>
      <use x="200" xlink:href="#MicrosoftYaHei-6307"/>
      <use x="300" xlink:href="#MicrosoftYaHei-6570"/>
     </g>
    </g>
   </g>
  </g>
  <g id="axes_2">
   <g id="matplotlib.axis_3">
    <g id="ytick_6">
     <g id="line2d_28">
      <defs>
       <path d="M 0 0 
L 3.5 0 
" id="m527b629387" style="stroke:#000000;stroke-width:0.8;"/>
      </defs>
      <g>
       <use style="stroke:#000000;stroke-width:0.8;" x="777.6" xlink:href="#m527b629387" y="345.501826"/>
      </g>
     </g>
     <g id="text_16">
      <!-- 2000 -->
      <g transform="translate(784.6 349.498701)scale(0.1 -0.1)">
       <use xlink:href="#MicrosoftYaHei-32"/>
       <use x="58.642578" xlink:href="#MicrosoftYaHei-30"/>
       <use x="117.285156" xlink:href="#MicrosoftYaHei-30"/>
       <use x="175.927734" xlink:href="#MicrosoftYaHei-30"/>
      </g>
     </g>
    </g>
    <g id="ytick_7">
     <g id="line2d_29">
      <g>
       <use style="stroke:#000000;stroke-width:0.8;" x="777.6" xlink:href="#m527b629387" y="301.517139"/>
      </g>
     </g>
     <g id="text_17">
      <!-- 2500 -->
      <g transform="translate(784.6 305.514014)scale(0.1 -0.1)">
       <use xlink:href="#MicrosoftYaHei-32"/>
       <use x="58.642578" xlink:href="#MicrosoftYaHei-35"/>
       <use x="117.285156" xlink:href="#MicrosoftYaHei-30"/>
       <use x="175.927734" xlink:href="#MicrosoftYaHei-30"/>
      </g>
     </g>
    </g>
    <g id="ytick_8">
     <g id="line2d_30">
      <g>
       <use style="stroke:#000000;stroke-width:0.8;" x="777.6" xlink:href="#m527b629387" y="257.532453"/>
      </g>
     </g>
     <g id="text_18">
      <!-- 3000 -->
      <g transform="translate(784.6 261.529328)scale(0.1 -0.1)">
       <use xlink:href="#MicrosoftYaHei-33"/>
       <use x="58.642578" xlink:href="#MicrosoftYaHei-30"/>
       <use x="117.285156" xlink:href="#MicrosoftYaHei-30"/>
       <use x="175.927734" xlink:href="#MicrosoftYaHei-30"/>
      </g>
     </g>
    </g>
    <g id="ytick_9">
     <g id="line2d_31">
      <g>
       <use style="stroke:#000000;stroke-width:0.8;" x="777.6" xlink:href="#m527b629387" y="213.547766"/>
      </g>
     </g>
     <g id="text_19">
      <!-- 3500 -->
      <g transform="translate(784.6 217.544641)scale(0.1 -0.1)">
       <use xlink:href="#MicrosoftYaHei-33"/>
       <use x="58.642578" xlink:href="#MicrosoftYaHei-35"/>
       <use x="117.285156" xlink:href="#MicrosoftYaHei-30"/>
       <use x="175.927734" xlink:href="#MicrosoftYaHei-30"/>
      </g>
     </g>
    </g>
    <g id="ytick_10">
     <g id="line2d_32">
      <g>
       <use style="stroke:#000000;stroke-width:0.8;" x="777.6" xlink:href="#m527b629387" y="169.563079"/>
      </g>
     </g>
     <g id="text_20">
      <!-- 4000 -->
      <g transform="translate(784.6 173.559954)scale(0.1 -0.1)">
       <use xlink:href="#MicrosoftYaHei-34"/>
       <use x="58.642578" xlink:href="#MicrosoftYaHei-30"/>
       <use x="117.285156" xlink:href="#MicrosoftYaHei-30"/>
       <use x="175.927734" xlink:href="#MicrosoftYaHei-30"/>
      </g>
     </g>
    </g>
    <g id="ytick_11">
     <g id="line2d_33">
      <g>
       <use style="stroke:#000000;stroke-width:0.8;" x="777.6" xlink:href="#m527b629387" y="125.578392"/>
      </g>
     </g>
     <g id="text_21">
      <!-- 4500 -->
      <g transform="translate(784.6 129.575267)scale(0.1 -0.1)">
       <use xlink:href="#MicrosoftYaHei-34"/>
       <use x="58.642578" xlink:href="#MicrosoftYaHei-35"/>
       <use x="117.285156" xlink:href="#MicrosoftYaHei-30"/>
       <use x="175.927734" xlink:href="#MicrosoftYaHei-30"/>
      </g>
     </g>
    </g>
    <g id="ytick_12">
     <g id="line2d_34">
      <g>
       <use style="stroke:#000000;stroke-width:0.8;" x="777.6" xlink:href="#m527b629387" y="81.593705"/>
      </g>
     </g>
     <g id="text_22">
      <!-- 5000 -->
      <g transform="translate(784.6 85.59058)scale(0.1 -0.1)">
       <use xlink:href="#MicrosoftYaHei-35"/>
       <use x="58.642578" xlink:href="#MicrosoftYaHei-30"/>
       <use x="117.285156" xlink:href="#MicrosoftYaHei-30"/>
       <use x="175.927734" xlink:href="#MicrosoftYaHei-30"/>
      </g>
     </g>
    </g>
   </g>
   <g id="line2d_35">
    <path clip-path="url(#p52e35cde09)" d="M 108 138.902233 
L 109.197853 143.126523 
L 110.395707 172.846976 
L 111.59356 187.457809 
L 112.791413 206.49702 
L 113.989267 218.276999 
L 115.18712 214.173228 
L 116.384973 249.204392 
L 117.582826 208.467534 
L 118.78068 196.56 
L 119.978533 203.564122 
L 121.176386 202.61933 
L 122.37424 215.915022 
L 123.572093 219.410924 
L 124.769946 228.531589 
L 125.9678 269.074034 
L 127.165653 272.334179 
L 129.56136 286.572022 
L 130.759213 270.144622 
L 131.957066 277.029105 
L 133.154919 269.399521 
L 134.352773 274.966223 
L 135.550626 292.217017 
L 136.748479 305.861947 
L 137.946333 309.853997 
L 139.144186 310.545436 
L 140.342039 327.692426 
L 141.539893 338.493306 
L 142.737746 338.896206 
L 143.935599 319.658184 
L 145.133453 345.451684 
L 146.331306 351.602502 
L 147.529159 359.610354 
L 148.727013 369.36 
L 149.924866 367.695619 
L 151.122719 346.694691 
L 152.320572 348.194569 
L 153.518426 356.8358 
L 154.716279 343.860318 
L 155.914132 349.529944 
L 157.111986 343.877912 
L 158.309839 358.563519 
L 159.507692 361.265058 
L 160.705546 353.871232 
L 161.903399 349.509711 
L 163.101252 346.32346 
L 164.299106 329.558257 
L 165.496959 317.282131 
L 166.694812 322.499594 
L 167.892665 338.213564 
L 169.090519 328.522857 
L 170.288372 334.166972 
L 171.486225 320.774515 
L 172.684079 312.562574 
L 173.881932 308.574043 
L 175.079785 306.423191 
L 176.277639 301.17054 
L 177.475492 306.039645 
L 178.673345 303.490292 
L 179.871199 290.463788 
L 181.069052 288.738708 
L 182.266905 292.931329 
L 183.464758 289.823371 
L 184.662612 279.182595 
L 185.860465 280.073725 
L 187.058318 268.045672 
L 188.256172 263.847774 
L 189.454025 249.758599 
L 190.651878 247.510102 
L 191.849732 240.841144 
L 193.047585 224.755064 
L 194.245438 221.283792 
L 195.443292 234.599717 
L 196.641145 253.400531 
L 197.838998 260.983491 
L 199.036852 269.787466 
L 200.234705 269.706534 
L 201.432558 258.43062 
L 202.630411 260.816349 
L 203.828265 271.709597 
L 205.026118 276.935857 
L 206.223971 265.298389 
L 207.421825 259.588297 
L 208.619678 248.044956 
L 209.817531 257.897525 
L 211.015385 243.101957 
L 212.213238 241.025 
L 213.411091 230.407096 
L 214.608945 249.063641 
L 215.806798 229.642642 
L 217.004651 235.775867 
L 218.202504 247.513621 
L 219.400358 245.097982 
L 220.598211 233.15262 
L 221.796064 240.290455 
L 222.993918 237.814117 
L 224.191771 246.220471 
L 225.389624 258.474605 
L 226.587478 262.863397 
L 227.785331 255.937568 
L 228.983184 252.963323 
L 230.181038 254.800124 
L 231.378891 256.352783 
L 232.576744 251.572527 
L 233.774597 252.278922 
L 234.972451 243.63681 
L 236.170304 244.746104 
L 237.368157 246.070043 
L 238.566011 258.980428 
L 239.763864 268.91481 
L 240.961717 284.945469 
L 242.159571 284.219721 
L 243.357424 294.169937 
L 244.555277 287.81415 
L 245.753131 296.802861 
L 246.950984 295.364561 
L 248.148837 300.354184 
L 249.346691 296.870597 
L 250.544544 311.818353 
L 251.742397 304.075289 
L 252.94025 308.17906 
L 254.138104 295.180705 
L 255.335957 289.42135 
L 256.53381 287.58367 
L 257.731664 292.130807 
L 258.929517 288.998218 
L 260.12737 291.775411 
L 261.325224 287.847578 
L 262.523077 287.159658 
L 263.72093 292.835442 
L 264.918784 293.463543 
L 266.116637 287.823827 
L 267.31449 280.515331 
L 268.512343 260.069489 
L 270.90805 259.394764 
L 272.105903 246.140419 
L 273.303757 258.814166 
L 274.50161 267.33488 
L 275.699463 268.818923 
L 276.897317 271.393787 
L 278.09517 271.516064 
L 279.293023 266.880078 
L 280.490877 272.033324 
L 281.68873 274.415535 
L 282.886583 271.713116 
L 284.084436 275.888142 
L 285.28229 282.578213 
L 286.480143 279.28288 
L 287.677996 275.217815 
L 288.87585 272.722124 
L 290.073703 266.347863 
L 291.271556 268.214574 
L 292.46941 262.607406 
L 293.667263 263.356025 
L 294.865116 265.723281 
L 296.06297 259.484493 
L 297.260823 260.399374 
L 298.458676 254.891612 
L 299.65653 253.08736 
L 300.854383 256.607015 
L 302.052236 265.316862 
L 303.250089 269.505964 
L 304.447943 268.877863 
L 305.645796 269.983638 
L 306.843649 283.047969 
L 308.041503 281.458363 
L 309.239356 283.471102 
L 310.437209 288.953353 
L 311.635063 279.8582 
L 312.832916 278.701403 
L 314.030769 275.322499 
L 315.228623 273.351985 
L 316.426476 277.695913 
L 318.822182 290.396051 
L 320.020036 293.321033 
L 321.217889 298.494512 
L 322.415742 291.647855 
L 323.613596 299.029365 
L 324.811449 301.71507 
L 326.009302 302.851635 
L 327.207156 303.070679 
L 328.405009 307.397012 
L 329.602862 313.901468 
L 330.800716 307.554477 
L 331.998569 317.590903 
L 333.196422 303.856245 
L 334.394275 299.028486 
L 335.592129 303.18152 
L 336.789982 308.857304 
L 337.987835 312.054111 
L 339.185689 313.774792 
L 340.383542 317.767722 
L 341.581395 325.722792 
L 342.779249 327.487458 
L 343.977102 327.958974 
L 345.174955 331.12851 
L 347.570662 317.42904 
L 348.768515 316.436745 
L 349.966369 314.538366 
L 351.164222 314.080925 
L 352.362075 306.82785 
L 353.559928 304.975215 
L 354.757782 306.842805 
L 355.955635 309.897102 
L 357.153488 314.753011 
L 358.351342 322.384354 
L 359.549195 318.534815 
L 361.944902 309.710607 
L 363.142755 310.637804 
L 364.340608 305.73879 
L 365.538462 310.755683 
L 366.736315 315.194618 
L 367.934168 316.159642 
L 369.132021 312.650543 
L 370.329875 320.742846 
L 371.527728 318.508424 
L 372.725581 322.552376 
L 373.923435 325.67089 
L 375.121288 325.833634 
L 376.319141 329.14832 
L 377.516995 330.666671 
L 378.714848 334.17489 
L 379.912701 333.819493 
L 381.110555 330.651716 
L 382.308408 335.395025 
L 383.506261 337.399847 
L 384.704114 341.321522 
L 385.901968 334.262859 
L 387.099821 334.606819 
L 388.297674 343.153924 
L 389.495528 337.921505 
L 390.693381 336.2712 
L 391.891234 334.215356 
L 393.089088 339.677374 
L 394.286941 335.205011 
L 395.484794 339.425782 
L 396.682648 344.206037 
L 397.880501 343.093225 
L 399.078354 347.250657 
L 401.474061 332.250999 
L 402.671914 332.015242 
L 403.869767 324.98297 
L 405.067621 321.135189 
L 406.265474 324.125268 
L 407.463327 317.609377 
L 408.661181 319.876348 
L 409.859034 308.640899 
L 411.056887 307.463869 
L 412.254741 317.865368 
L 413.452594 313.875957 
L 415.848301 321.011153 
L 417.046154 316.62324 
L 418.244007 324.686513 
L 419.44186 325.683206 
L 420.639714 327.311519 
L 421.837567 323.980999 
L 423.03542 329.851195 
L 424.233274 327.42412 
L 425.431127 323.788346 
L 426.62898 320.617929 
L 427.826834 320.120023 
L 429.024687 319.058232 
L 430.22254 326.949085 
L 431.420394 331.247269 
L 433.8161 347.330709 
L 435.013953 344.868447 
L 436.211807 342.027916 
L 437.40966 346.148401 
L 439.805367 342.913767 
L 441.00322 340.906306 
L 442.201073 339.480323 
L 443.398927 340.447106 
L 445.794633 333.186994 
L 446.992487 324.721701 
L 448.19034 328.624902 
L 449.388193 331.424087 
L 450.586047 330.136216 
L 451.7839 325.431614 
L 452.981753 328.455121 
L 454.179606 333.805418 
L 455.37746 332.345127 
L 456.575313 336.165637 
L 457.773166 333.552946 
L 458.97102 328.226401 
L 460.168873 326.104579 
L 461.366726 324.643408 
L 462.56458 328.253671 
L 463.762433 338.042903 
L 464.960286 336.594927 
L 466.15814 338.188052 
L 467.355993 344.331834 
L 468.553846 345.066378 
L 469.751699 340.717172 
L 470.949553 342.591799 
L 472.147406 341.587189 
L 473.345259 335.310574 
L 474.543113 335.500588 
L 475.740966 340.54915 
L 476.938819 340.40752 
L 478.136673 345.120039 
L 479.334526 341.312725 
L 480.532379 341.832624 
L 481.730233 340.326588 
L 482.928086 334.018304 
L 484.125939 336.90282 
L 485.323792 342.289185 
L 486.521646 343.182953 
L 487.719499 344.522727 
L 488.917352 343.170638 
L 490.115206 342.460725 
L 491.313059 342.052547 
L 492.510912 342.866264 
L 493.708766 339.281512 
L 494.906619 343.155683 
L 496.104472 342.290064 
L 497.302326 340.279084 
L 498.500179 341.370784 
L 499.698032 340.305475 
L 500.895886 334.364024 
L 502.093739 329.201101 
L 503.291592 328.398821 
L 504.489445 325.55653 
L 505.687299 324.317921 
L 506.885152 326.394878 
L 508.083005 316.785984 
L 509.280859 316.300393 
L 510.478712 316.520316 
L 511.676565 314.913116 
L 512.874419 313.49241 
L 514.072272 312.553777 
L 515.270125 315.488435 
L 516.467979 318.910444 
L 517.665832 308.538855 
L 518.863685 308.715673 
L 520.061538 303.380331 
L 521.259392 302.679215 
L 522.457245 285.433699 
L 523.655098 263.017343 
L 524.852952 262.971599 
L 526.050805 247.978979 
L 527.248658 243.668479 
L 528.446512 236.8878 
L 529.644365 232.425114 
L 530.842218 224.411983 
L 532.040072 226.588346 
L 534.435778 250.854697 
L 535.633631 239.601655 
L 536.831485 235.811935 
L 538.029338 230.235556 
L 539.227191 236.315119 
L 540.425045 224.727793 
L 541.622898 203.227199 
L 542.820751 196.736818 
L 545.216458 166.54485 
L 546.414311 144.289478 
L 547.612165 134.930416 
L 548.810018 130.711405 
L 550.007871 151.448426 
L 551.205725 142.407813 
L 552.403578 111.714419 
L 553.601431 115.748694 
L 554.799284 79.561613 
L 555.997138 66.96 
L 557.194991 127.482049 
L 558.392844 152.596426 
L 559.590698 197.10453 
L 560.788551 180.312936 
L 561.986404 173.314973 
L 563.184258 163.325171 
L 564.382111 199.14454 
L 565.579964 192.065645 
L 566.777818 172.612977 
L 567.975671 212.866883 
L 569.173524 237.092769 
L 570.371377 243.442398 
L 571.569231 239.918345 
L 572.767084 248.918491 
L 573.964937 249.408481 
L 575.162791 252.889429 
L 576.360644 241.420862 
L 577.558497 223.105638 
L 578.756351 221.251244 
L 579.954204 223.878889 
L 581.152057 205.627883 
L 582.349911 206.436322 
L 583.547764 202.067762 
L 584.745617 219.151415 
L 585.94347 211.349411 
L 587.141324 219.302722 
L 588.339177 206.601704 
L 589.53703 202.295603 
L 590.734884 210.101126 
L 591.932737 241.134082 
L 593.13059 266.24406 
L 594.328444 264.872617 
L 595.526297 280.615616 
L 596.72415 278.338089 
L 597.922004 269.846405 
L 599.119857 278.010843 
L 600.31771 268.603398 
L 601.515564 274.219363 
L 602.713417 261.477879 
L 603.91127 259.341983 
L 605.109123 256.694104 
L 606.306977 258.855512 
L 607.50483 250.660285 
L 608.702683 261.118084 
L 609.900537 262.958404 
L 611.09839 265.163796 
L 612.296243 272.741478 
L 613.494097 272.884868 
L 614.69195 273.274572 
L 615.889803 262.926735 
L 617.087657 263.940142 
L 618.28551 267.639254 
L 619.483363 270.35047 
L 620.681216 263.472145 
L 621.87907 258.580168 
L 623.076923 252.755716 
L 624.274776 256.404685 
L 625.47263 259.3499 
L 626.670483 259.582139 
L 627.868336 253.075044 
L 629.06619 248.022963 
L 630.264043 251.347326 
L 631.461896 251.607715 
L 632.65975 250.596067 
L 633.857603 257.28174 
L 635.055456 254.550291 
L 636.253309 257.118996 
L 637.451163 251.919127 
L 638.649016 249.532518 
L 639.846869 248.359886 
L 641.044723 246.508131 
L 642.242576 240.286937 
L 643.440429 240.566679 
L 644.638283 234.489755 
L 645.836136 236.082 
L 647.033989 237.046145 
L 648.231843 246.713979 
L 649.429696 247.842626 
L 650.627549 248.415307 
L 651.825403 243.957019 
L 653.023256 247.613026 
L 654.221109 246.699904 
L 655.418962 245.201785 
L 656.616816 235.238374 
L 657.814669 238.327859 
L 659.012522 238.816089 
L 660.210376 236.644125 
L 661.408229 233.829105 
L 662.606082 237.958387 
L 663.803936 232.318671 
L 665.001789 235.885829 
L 666.199642 242.300556 
L 667.397496 243.927109 
L 668.595349 248.468088 
L 669.793202 250.18613 
L 670.991055 249.559788 
L 672.188909 247.850543 
L 673.386762 248.248165 
L 674.584615 243.598104 
L 675.782469 246.697265 
L 678.178175 240.604506 
L 679.376029 238.358648 
L 680.573882 237.966304 
L 682.969589 235.255088 
L 684.167442 233.514174 
L 685.365295 234.477439 
L 686.563148 239.187319 
L 688.958855 228.368846 
L 690.156708 225.237136 
L 691.354562 225.402519 
L 692.552415 226.424723 
L 693.750268 226.520609 
L 694.948122 226.836419 
L 696.145975 223.178653 
L 697.343828 224.222849 
L 698.541682 220.865938 
L 699.739535 224.830718 
L 700.937388 219.470744 
L 702.135242 223.8481 
L 703.333095 226.407129 
L 704.530948 229.59162 
L 705.728801 232.022214 
L 706.926655 234.120283 
L 708.124508 231.40027 
L 709.322361 230.5109 
L 710.520215 223.07045 
L 711.718068 219.798869 
L 712.915921 214.615714 
L 714.113775 208.434106 
L 715.311628 216.883564 
L 716.509481 246.109629 
L 717.707335 240.012472 
L 720.103041 230.5109 
L 721.300894 233.791278 
L 722.498748 244.094251 
L 723.696601 242.674425 
L 724.894454 245.998788 
L 726.092308 243.540924 
L 727.290161 251.239124 
L 728.488014 250.298731 
L 729.685868 249.5246 
L 730.883721 243.170573 
L 732.081574 240.527973 
L 733.279428 245.10238 
L 734.477281 250.922434 
L 735.675134 251.625309 
L 736.872987 255.605923 
L 738.070841 267.230196 
L 739.268694 270.95482 
L 740.466547 279.768471 
L 741.664401 272.383442 
L 742.862254 272.551464 
L 744.060107 268.652661 
L 745.257961 280.365783 
L 746.455814 275.538904 
L 747.653667 286.652954 
L 748.851521 281.334326 
L 750.049374 281.702038 
L 752.445081 285.538382 
L 753.642934 275.34801 
L 754.840787 273.248181 
L 756.03864 292.112334 
L 757.236494 297.077325 
L 758.434347 292.821367 
L 759.6322 285.992304 
L 760.830054 292.819607 
L 762.027907 285.760945 
L 763.22576 294.525334 
L 764.423614 293.75912 
L 765.621467 292.202062 
L 766.81932 293.27089 
L 768.017174 300.087637 
L 769.215027 302.053753 
L 770.41288 300.209035 
L 772.808587 293.0712 
L 774.00644 292.568895 
L 775.204293 291.11652 
L 776.402147 285.472405 
L 777.6 274.754217 
L 777.6 274.754217 
" style="fill:none;stroke:#ff0000;stroke-linecap:square;stroke-width:1.5;"/>
   </g>
   <g id="patch_8">
    <path d="M 108 384.48 
L 108 51.84 
" style="fill:none;stroke:#000000;stroke-linecap:square;stroke-linejoin:miter;stroke-width:0.8;"/>
   </g>
   <g id="patch_9">
    <path d="M 777.6 384.48 
L 777.6 51.84 
" style="fill:none;stroke:#000000;stroke-linecap:square;stroke-linejoin:miter;stroke-width:0.8;"/>
   </g>
   <g id="patch_10">
    <path d="M 108 384.48 
L 777.6 384.48 
" style="fill:none;stroke:#000000;stroke-linecap:square;stroke-linejoin:miter;stroke-width:0.8;"/>
   </g>
   <g id="patch_11">
    <path d="M 108 51.84 
L 777.6 51.84 
" style="fill:none;stroke:#000000;stroke-linecap:square;stroke-linejoin:miter;stroke-width:0.8;"/>
   </g>
  </g>
 </g>
 <defs>
  <clipPath id="p52e35cde09">
   <rect height="332.64" width="669.6" x="108" y="51.84"/>
  </clipPath>
 </defs>
</svg>
