<?xml version="1.0" encoding="utf-8" standalone="no"?>
<!DOCTYPE svg PUBLIC "-//W3C//DTD SVG 1.1//EN"
  "http://www.w3.org/Graphics/SVG/1.1/DTD/svg11.dtd">
<!-- Created with matplotlib (http://matplotlib.org/) -->
<svg height="432pt" version="1.1" viewBox="0 0 864 432" width="864pt" xmlns="http://www.w3.org/2000/svg" xmlns:xlink="http://www.w3.org/1999/xlink">
 <defs>
  <style type="text/css">
*{stroke-linecap:butt;stroke-linejoin:round;}
  </style>
 </defs>
 <g id="figure_1">
  <g id="patch_1">
   <path d="M 0 432 
L 864 432 
L 864 0 
L 0 0 
z
" style="fill:#ffffff;"/>
  </g>
  <g id="axes_1">
   <g id="patch_2">
    <path d="M 108 384.48 
L 777.6 384.48 
L 777.6 51.84 
L 108 51.84 
z
" style="fill:#ffffff;"/>
   </g>
   <g id="matplotlib.axis_1">
    <g id="xtick_1">
     <g id="line2d_1">
      <path clip-path="url(#p7797de2b2a)" d="M 108 384.48 
L 108 51.84 
" style="fill:none;stroke:#b0b0b0;stroke-linecap:square;stroke-width:0.8;"/>
     </g>
     <g id="line2d_2">
      <defs>
       <path d="M 0 0 
L 0 3.5 
" id="m263419e106" style="stroke:#000000;stroke-width:0.8;"/>
      </defs>
      <g>
       <use style="stroke:#000000;stroke-width:0.8;" x="108" xlink:href="#m263419e106" y="384.48"/>
      </g>
     </g>
     <g id="text_1">
      <!-- 2018-02-09 -->
      <defs>
       <path d="M 51.171875 0 
L 5.171875 0 
L 5.171875 8.296875 
L 27.15625 30.21875 
Q 36.234375 39.3125 39.3125 44.609375 
Q 42.390625 49.90625 42.390625 55.5625 
Q 42.390625 62.015625 38.765625 65.453125 
Q 35.15625 68.890625 28.328125 68.890625 
Q 18.21875 68.890625 9.03125 60.296875 
L 9.03125 70.015625 
Q 17.96875 76.90625 29.828125 76.90625 
Q 40.046875 76.90625 45.953125 71.390625 
Q 51.859375 65.875 51.859375 56.546875 
Q 51.859375 49.515625 48.0625 42.75 
Q 44.28125 35.984375 33.734375 25.53125 
L 16.5 8.6875 
L 16.5 8.5 
L 51.171875 8.5 
z
" id="MicrosoftYaHei-32"/>
       <path d="M 4.4375 36.328125 
Q 4.4375 56.34375 11.078125 66.625 
Q 17.71875 76.90625 30.328125 76.90625 
Q 54.34375 76.90625 54.34375 38.140625 
Q 54.34375 19 47.578125 8.859375 
Q 40.828125 -1.265625 28.609375 -1.265625 
Q 17.09375 -1.265625 10.765625 8.34375 
Q 4.4375 17.96875 4.4375 36.328125 
z
M 14.203125 36.765625 
Q 14.203125 6.640625 29.5 6.640625 
Q 44.53125 6.640625 44.53125 37.25 
Q 44.53125 68.953125 29.78125 68.953125 
Q 14.203125 68.953125 14.203125 36.765625 
z
" id="MicrosoftYaHei-30"/>
       <path d="M 52.59375 0 
L 9.234375 0 
L 9.234375 8.25 
L 26.171875 8.25 
L 26.171875 65.671875 
L 8.796875 60.640625 
L 8.796875 69.4375 
L 35.6875 77.25 
L 35.6875 8.25 
L 52.59375 8.25 
z
" id="MicrosoftYaHei-31"/>
       <path d="M 21.390625 39.796875 
Q 7.859375 46.09375 7.859375 58.0625 
Q 7.859375 66.40625 14.203125 71.65625 
Q 20.5625 76.90625 30.421875 76.90625 
Q 39.453125 76.90625 45.3125 71.96875 
Q 51.171875 67.046875 51.171875 59.234375 
Q 51.171875 46.625 37.0625 39.84375 
L 37.0625 39.65625 
Q 53.609375 33.6875 53.609375 19.34375 
Q 53.609375 9.90625 46.796875 4.3125 
Q 39.984375 -1.265625 27.78125 -1.265625 
Q 17.78125 -1.265625 11.46875 4.25 
Q 5.171875 9.765625 5.171875 18.5625 
Q 5.171875 33.015625 21.390625 39.59375 
z
M 41.5 58.109375 
Q 41.5 63.1875 38.328125 66.109375 
Q 35.15625 69.046875 29.734375 69.046875 
Q 24.65625 69.046875 21.09375 65.984375 
Q 17.53125 62.9375 17.53125 58.203125 
Q 17.53125 48.734375 29.390625 43.796875 
Q 41.5 48.828125 41.5 58.109375 
z
M 28.8125 35.25 
Q 14.796875 29.59375 14.796875 19.046875 
Q 14.796875 13.578125 18.890625 10.0625 
Q 23 6.546875 29.59375 6.546875 
Q 35.984375 6.546875 39.984375 10.03125 
Q 44 13.53125 44 18.75 
Q 44 29.734375 28.8125 35.25 
z
" id="MicrosoftYaHei-38"/>
       <path d="M 36.375 26.265625 
L 7.625 26.265625 
L 7.625 33.640625 
L 36.375 33.640625 
z
" id="MicrosoftYaHei-2d"/>
       <path d="M 9.03125 10.25 
Q 15.28125 6.640625 22.515625 6.640625 
Q 32.671875 6.640625 38.25 14.640625 
Q 43.84375 22.65625 43.84375 37.40625 
Q 43.75 37.3125 43.65625 37.40625 
Q 38.671875 27.9375 26.90625 27.9375 
Q 17.390625 27.9375 11.140625 34.46875 
Q 4.890625 41.015625 4.890625 51.46875 
Q 4.890625 62.59375 11.71875 69.75 
Q 18.5625 76.90625 29.4375 76.90625 
Q 40.71875 76.90625 47.0625 68.046875 
Q 53.421875 59.1875 53.421875 42.234375 
Q 53.421875 21.296875 45.21875 10.015625 
Q 37.015625 -1.265625 22.515625 -1.265625 
Q 14.546875 -1.265625 9.03125 1.3125 
z
M 14.546875 52.6875 
Q 14.546875 45.0625 18.453125 40.59375 
Q 22.359375 36.140625 29.25 36.140625 
Q 35.203125 36.140625 39.25 40.203125 
Q 43.3125 44.28125 43.3125 50.09375 
Q 43.3125 58.25 39.28125 63.59375 
Q 35.25 68.953125 28.65625 68.953125 
Q 22.5625 68.953125 18.546875 64.3125 
Q 14.546875 59.671875 14.546875 52.6875 
z
" id="MicrosoftYaHei-39"/>
      </defs>
      <g transform="translate(80.217187 399.47375)scale(0.1 -0.1)">
       <use xlink:href="#MicrosoftYaHei-32"/>
       <use x="58.642578" xlink:href="#MicrosoftYaHei-30"/>
       <use x="117.285156" xlink:href="#MicrosoftYaHei-31"/>
       <use x="175.927734" xlink:href="#MicrosoftYaHei-38"/>
       <use x="234.570312" xlink:href="#MicrosoftYaHei-2d"/>
       <use x="277.832031" xlink:href="#MicrosoftYaHei-30"/>
       <use x="336.474609" xlink:href="#MicrosoftYaHei-32"/>
       <use x="395.117188" xlink:href="#MicrosoftYaHei-2d"/>
       <use x="438.378906" xlink:href="#MicrosoftYaHei-30"/>
       <use x="497.021484" xlink:href="#MicrosoftYaHei-39"/>
      </g>
     </g>
    </g>
    <g id="xtick_2">
     <g id="line2d_3">
      <path clip-path="url(#p7797de2b2a)" d="M 239.294118 384.48 
L 239.294118 51.84 
" style="fill:none;stroke:#b0b0b0;stroke-linecap:square;stroke-width:0.8;"/>
     </g>
     <g id="line2d_4">
      <g>
       <use style="stroke:#000000;stroke-width:0.8;" x="239.294118" xlink:href="#m263419e106" y="384.48"/>
      </g>
     </g>
     <g id="text_2">
      <!-- 2018-04-27 -->
      <defs>
       <path d="M 55.078125 19.625 
L 45.40625 19.625 
L 45.40625 0 
L 36.140625 0 
L 36.140625 19.625 
L 0.875 19.625 
L 0.875 25.828125 
L 34.328125 75.640625 
L 45.40625 75.640625 
L 45.40625 27.203125 
L 55.078125 27.203125 
z
M 36.140625 27.203125 
L 36.140625 58.890625 
Q 36.140625 62.25 36.328125 66.65625 
L 36.140625 66.65625 
Q 35.453125 64.796875 33.25 60.84375 
L 10.75 27.203125 
z
" id="MicrosoftYaHei-34"/>
       <path d="M 53.765625 72.3125 
L 24.171875 0 
L 14.265625 0 
L 42.390625 67.1875 
L 4.59375 67.1875 
L 4.59375 75.640625 
L 53.765625 75.640625 
z
" id="MicrosoftYaHei-37"/>
      </defs>
      <g transform="translate(211.511305 399.47375)scale(0.1 -0.1)">
       <use xlink:href="#MicrosoftYaHei-32"/>
       <use x="58.642578" xlink:href="#MicrosoftYaHei-30"/>
       <use x="117.285156" xlink:href="#MicrosoftYaHei-31"/>
       <use x="175.927734" xlink:href="#MicrosoftYaHei-38"/>
       <use x="234.570312" xlink:href="#MicrosoftYaHei-2d"/>
       <use x="277.832031" xlink:href="#MicrosoftYaHei-30"/>
       <use x="336.474609" xlink:href="#MicrosoftYaHei-34"/>
       <use x="395.117188" xlink:href="#MicrosoftYaHei-2d"/>
       <use x="438.378906" xlink:href="#MicrosoftYaHei-32"/>
       <use x="497.021484" xlink:href="#MicrosoftYaHei-37"/>
      </g>
     </g>
    </g>
    <g id="xtick_3">
     <g id="line2d_5">
      <path clip-path="url(#p7797de2b2a)" d="M 370.588235 384.48 
L 370.588235 51.84 
" style="fill:none;stroke:#b0b0b0;stroke-linecap:square;stroke-width:0.8;"/>
     </g>
     <g id="line2d_6">
      <g>
       <use style="stroke:#000000;stroke-width:0.8;" x="370.588235" xlink:href="#m263419e106" y="384.48"/>
      </g>
     </g>
     <g id="text_3">
      <!-- 2018-07-06 -->
      <defs>
       <path d="M 49.703125 65.921875 
Q 43.796875 68.953125 37.359375 68.953125 
Q 27.546875 68.953125 21.578125 60.40625 
Q 15.625 51.859375 15.53125 37.0625 
L 15.765625 37.0625 
Q 21.140625 47.46875 32.90625 47.46875 
Q 42.71875 47.46875 48.578125 41.0625 
Q 54.4375 34.671875 54.4375 24.078125 
Q 54.4375 12.984375 47.671875 5.859375 
Q 40.921875 -1.265625 30.421875 -1.265625 
Q 18.890625 -1.265625 12.328125 7.734375 
Q 5.765625 16.75 5.765625 33.296875 
Q 5.765625 53.328125 14.375 65.109375 
Q 23 76.90625 37.0625 76.90625 
Q 45.125 76.90625 49.703125 74.703125 
z
M 16.109375 24.75 
Q 16.109375 17.28125 20.09375 11.953125 
Q 24.078125 6.640625 30.671875 6.640625 
Q 36.921875 6.640625 40.828125 11.234375 
Q 44.734375 15.828125 44.734375 23.046875 
Q 44.734375 30.859375 41.046875 35.203125 
Q 37.359375 39.546875 30.5625 39.546875 
Q 24.125 39.546875 20.109375 35.15625 
Q 16.109375 30.765625 16.109375 24.75 
z
" id="MicrosoftYaHei-36"/>
      </defs>
      <g transform="translate(342.805423 399.47375)scale(0.1 -0.1)">
       <use xlink:href="#MicrosoftYaHei-32"/>
       <use x="58.642578" xlink:href="#MicrosoftYaHei-30"/>
       <use x="117.285156" xlink:href="#MicrosoftYaHei-31"/>
       <use x="175.927734" xlink:href="#MicrosoftYaHei-38"/>
       <use x="234.570312" xlink:href="#MicrosoftYaHei-2d"/>
       <use x="277.832031" xlink:href="#MicrosoftYaHei-30"/>
       <use x="336.474609" xlink:href="#MicrosoftYaHei-37"/>
       <use x="395.117188" xlink:href="#MicrosoftYaHei-2d"/>
       <use x="438.378906" xlink:href="#MicrosoftYaHei-30"/>
       <use x="497.021484" xlink:href="#MicrosoftYaHei-36"/>
      </g>
     </g>
    </g>
    <g id="xtick_4">
     <g id="line2d_7">
      <path clip-path="url(#p7797de2b2a)" d="M 501.882353 384.48 
L 501.882353 51.84 
" style="fill:none;stroke:#b0b0b0;stroke-linecap:square;stroke-width:0.8;"/>
     </g>
     <g id="line2d_8">
      <g>
       <use style="stroke:#000000;stroke-width:0.8;" x="501.882353" xlink:href="#m263419e106" y="384.48"/>
      </g>
     </g>
     <g id="text_4">
      <!-- 2018-09-14 -->
      <g transform="translate(474.09954 399.47375)scale(0.1 -0.1)">
       <use xlink:href="#MicrosoftYaHei-32"/>
       <use x="58.642578" xlink:href="#MicrosoftYaHei-30"/>
       <use x="117.285156" xlink:href="#MicrosoftYaHei-31"/>
       <use x="175.927734" xlink:href="#MicrosoftYaHei-38"/>
       <use x="234.570312" xlink:href="#MicrosoftYaHei-2d"/>
       <use x="277.832031" xlink:href="#MicrosoftYaHei-30"/>
       <use x="336.474609" xlink:href="#MicrosoftYaHei-39"/>
       <use x="395.117188" xlink:href="#MicrosoftYaHei-2d"/>
       <use x="438.378906" xlink:href="#MicrosoftYaHei-31"/>
       <use x="497.021484" xlink:href="#MicrosoftYaHei-34"/>
      </g>
     </g>
    </g>
    <g id="xtick_5">
     <g id="line2d_9">
      <path clip-path="url(#p7797de2b2a)" d="M 633.176471 384.48 
L 633.176471 51.84 
" style="fill:none;stroke:#b0b0b0;stroke-linecap:square;stroke-width:0.8;"/>
     </g>
     <g id="line2d_10">
      <g>
       <use style="stroke:#000000;stroke-width:0.8;" x="633.176471" xlink:href="#m263419e106" y="384.48"/>
      </g>
     </g>
     <g id="text_5">
      <!-- 2018-11-30 -->
      <defs>
       <path d="M 6.984375 12.640625 
Q 14.75 6.640625 24.515625 6.640625 
Q 32.328125 6.640625 36.890625 10.46875 
Q 41.453125 14.3125 41.453125 20.75 
Q 41.453125 35.109375 20.90625 35.109375 
L 14.59375 35.109375 
L 14.59375 43.015625 
L 20.609375 43.015625 
Q 38.8125 43.015625 38.8125 56.5 
Q 38.8125 68.953125 24.90625 68.953125 
Q 16.9375 68.953125 9.90625 63.578125 
L 9.90625 72.609375 
Q 17.328125 76.90625 27.25 76.90625 
Q 36.921875 76.90625 42.78125 71.84375 
Q 48.640625 66.796875 48.640625 58.734375 
Q 48.640625 43.890625 33.5 39.65625 
L 33.5 39.453125 
Q 41.703125 38.578125 46.453125 33.671875 
Q 51.21875 28.765625 51.21875 21.4375 
Q 51.21875 11.234375 43.875 4.984375 
Q 36.53125 -1.265625 24.3125 -1.265625 
Q 13.578125 -1.265625 6.984375 2.734375 
z
" id="MicrosoftYaHei-33"/>
      </defs>
      <g transform="translate(605.393658 399.47375)scale(0.1 -0.1)">
       <use xlink:href="#MicrosoftYaHei-32"/>
       <use x="58.642578" xlink:href="#MicrosoftYaHei-30"/>
       <use x="117.285156" xlink:href="#MicrosoftYaHei-31"/>
       <use x="175.927734" xlink:href="#MicrosoftYaHei-38"/>
       <use x="234.570312" xlink:href="#MicrosoftYaHei-2d"/>
       <use x="277.832031" xlink:href="#MicrosoftYaHei-31"/>
       <use x="336.474609" xlink:href="#MicrosoftYaHei-31"/>
       <use x="395.117188" xlink:href="#MicrosoftYaHei-2d"/>
       <use x="438.378906" xlink:href="#MicrosoftYaHei-33"/>
       <use x="497.021484" xlink:href="#MicrosoftYaHei-30"/>
      </g>
     </g>
    </g>
    <g id="xtick_6">
     <g id="line2d_11">
      <path clip-path="url(#p7797de2b2a)" d="M 764.470588 384.48 
L 764.470588 51.84 
" style="fill:none;stroke:#b0b0b0;stroke-linecap:square;stroke-width:0.8;"/>
     </g>
     <g id="line2d_12">
      <g>
       <use style="stroke:#000000;stroke-width:0.8;" x="764.470588" xlink:href="#m263419e106" y="384.48"/>
      </g>
     </g>
     <g id="text_6">
      <!-- 2019-02-15 -->
      <defs>
       <path d="M 8.640625 11.625 
Q 16.265625 6.640625 24.515625 6.640625 
Q 32.328125 6.640625 37.109375 11 
Q 41.890625 15.375 41.890625 22.609375 
Q 41.890625 29.890625 37.03125 33.890625 
Q 32.171875 37.890625 22.953125 37.890625 
Q 18.5 37.890625 10.984375 37.203125 
L 10.984375 75.640625 
L 48.1875 75.640625 
L 48.1875 67.1875 
L 19.875 67.1875 
L 19.875 45.796875 
Q 24.125 46.046875 26.265625 46.046875 
Q 38.234375 46.046875 44.921875 39.984375 
Q 51.609375 33.9375 51.609375 23.296875 
Q 51.609375 12.3125 44.421875 5.515625 
Q 37.25 -1.265625 24.609375 -1.265625 
Q 14.015625 -1.265625 8.640625 1.859375 
z
" id="MicrosoftYaHei-35"/>
      </defs>
      <g transform="translate(736.687776 399.47375)scale(0.1 -0.1)">
       <use xlink:href="#MicrosoftYaHei-32"/>
       <use x="58.642578" xlink:href="#MicrosoftYaHei-30"/>
       <use x="117.285156" xlink:href="#MicrosoftYaHei-31"/>
       <use x="175.927734" xlink:href="#MicrosoftYaHei-39"/>
       <use x="234.570312" xlink:href="#MicrosoftYaHei-2d"/>
       <use x="277.832031" xlink:href="#MicrosoftYaHei-30"/>
       <use x="336.474609" xlink:href="#MicrosoftYaHei-32"/>
       <use x="395.117188" xlink:href="#MicrosoftYaHei-2d"/>
       <use x="438.378906" xlink:href="#MicrosoftYaHei-31"/>
       <use x="497.021484" xlink:href="#MicrosoftYaHei-35"/>
      </g>
     </g>
    </g>
    <g id="text_7">
     <!-- date -->
     <defs>
      <path d="M 55.421875 0 
L 45.84375 0 
L 45.84375 8.984375 
L 45.65625 8.984375 
Q 39.75 -1.265625 27.296875 -1.265625 
Q 17.046875 -1.265625 10.984375 6.03125 
Q 4.9375 13.328125 4.9375 25.734375 
Q 4.9375 39.109375 11.765625 47.1875 
Q 18.609375 55.28125 29.640625 55.28125 
Q 40.671875 55.28125 45.65625 46.6875 
L 45.84375 46.6875 
L 45.84375 79.9375 
L 55.421875 79.9375 
z
M 45.90625 32.125 
Q 45.90625 38.625 41.625 42.984375 
Q 37.359375 47.359375 31.109375 47.359375 
Q 23.484375 47.359375 19.09375 41.671875 
Q 14.703125 35.984375 14.703125 26.171875 
Q 14.703125 17.140625 18.921875 11.890625 
Q 23.140625 6.640625 30.171875 6.640625 
Q 37.109375 6.640625 41.5 11.78125 
Q 45.90625 16.9375 45.90625 24.609375 
z
" id="MicrosoftYaHei-64"/>
      <path d="M 9.8125 50.25 
Q 17.875 55.28125 28.421875 55.28125 
Q 47.953125 55.28125 47.953125 34.765625 
L 47.953125 0 
L 38.484375 0 
L 38.484375 8.34375 
L 38.234375 8.34375 
Q 32.625 -1.265625 21.6875 -1.265625 
Q 13.8125 -1.265625 9.171875 2.984375 
Q 4.546875 7.234375 4.546875 14.453125 
Q 4.546875 29.59375 22.46875 32.078125 
L 38.484375 34.328125 
Q 38.484375 47.5625 27.546875 47.5625 
Q 17.828125 47.5625 9.8125 41.015625 
z
M 25.828125 25.390625 
Q 19.1875 24.515625 16.671875 22.0625 
Q 14.15625 19.625 14.15625 15.234375 
Q 14.15625 11.375 16.890625 8.9375 
Q 19.625 6.5 24.125 6.5 
Q 30.375 6.5 34.421875 10.890625 
Q 38.484375 15.28125 38.484375 21.921875 
L 38.484375 27.09375 
z
" id="MicrosoftYaHei-61"/>
      <path d="M 34.46875 0.53125 
Q 31.34375 -1.171875 26.03125 -1.171875 
Q 11.53125 -1.171875 11.53125 14.890625 
L 11.53125 46.09375 
L 2.25 46.09375 
L 2.25 54 
L 11.53125 54 
L 11.53125 67 
L 21.046875 70.015625 
L 21.046875 54 
L 34.46875 54 
L 34.46875 46.09375 
L 21.046875 46.09375 
L 21.046875 16.609375 
Q 21.046875 11.28125 22.84375 8.984375 
Q 24.65625 6.6875 28.859375 6.6875 
Q 32.078125 6.6875 34.46875 8.5 
z
" id="MicrosoftYaHei-74"/>
      <path d="M 52.546875 24.5625 
L 14.75 24.5625 
Q 14.984375 15.921875 19.46875 11.203125 
Q 23.96875 6.5 32.03125 6.5 
Q 41.109375 6.5 48.6875 12.3125 
L 48.6875 3.765625 
Q 41.546875 -1.265625 29.78125 -1.265625 
Q 18.0625 -1.265625 11.5 6.15625 
Q 4.9375 13.578125 4.9375 26.765625 
Q 4.9375 39.15625 12.140625 47.21875 
Q 19.34375 55.28125 30.03125 55.28125 
Q 40.625 55.28125 46.578125 48.46875 
Q 52.546875 41.65625 52.546875 29.390625 
z
M 42.96875 32.234375 
Q 42.921875 39.546875 39.5 43.546875 
Q 36.078125 47.5625 29.890625 47.5625 
Q 24.171875 47.5625 20 43.3125 
Q 15.828125 39.0625 14.75 32.234375 
z
" id="MicrosoftYaHei-65"/>
     </defs>
     <g transform="translate(432.138281 413.953438)scale(0.1 -0.1)">
      <use xlink:href="#MicrosoftYaHei-64"/>
      <use x="63.964844" xlink:href="#MicrosoftYaHei-61"/>
      <use x="119.238281" xlink:href="#MicrosoftYaHei-74"/>
      <use x="156.494141" xlink:href="#MicrosoftYaHei-65"/>
     </g>
    </g>
   </g>
   <g id="matplotlib.axis_2">
    <g id="ytick_1">
     <g id="line2d_13">
      <path clip-path="url(#p7797de2b2a)" d="M 108 328.98752 
L 777.6 328.98752 
" style="fill:none;stroke:#b0b0b0;stroke-linecap:square;stroke-width:0.8;"/>
     </g>
     <g id="line2d_14">
      <defs>
       <path d="M 0 0 
L -3.5 0 
" id="m90e2b136f4" style="stroke:#000000;stroke-width:0.8;"/>
      </defs>
      <g>
       <use style="stroke:#000000;stroke-width:0.8;" x="108" xlink:href="#m90e2b136f4" y="328.98752"/>
      </g>
     </g>
     <g id="text_8">
      <!-- 15 -->
      <g transform="translate(89.271875 332.984395)scale(0.1 -0.1)">
       <use xlink:href="#MicrosoftYaHei-31"/>
       <use x="58.642578" xlink:href="#MicrosoftYaHei-35"/>
      </g>
     </g>
    </g>
    <g id="ytick_2">
     <g id="line2d_15">
      <path clip-path="url(#p7797de2b2a)" d="M 108 272.758438 
L 777.6 272.758438 
" style="fill:none;stroke:#b0b0b0;stroke-linecap:square;stroke-width:0.8;"/>
     </g>
     <g id="line2d_16">
      <g>
       <use style="stroke:#000000;stroke-width:0.8;" x="108" xlink:href="#m90e2b136f4" y="272.758438"/>
      </g>
     </g>
     <g id="text_9">
      <!-- 20 -->
      <g transform="translate(89.271875 276.755313)scale(0.1 -0.1)">
       <use xlink:href="#MicrosoftYaHei-32"/>
       <use x="58.642578" xlink:href="#MicrosoftYaHei-30"/>
      </g>
     </g>
    </g>
    <g id="ytick_3">
     <g id="line2d_17">
      <path clip-path="url(#p7797de2b2a)" d="M 108 216.529357 
L 777.6 216.529357 
" style="fill:none;stroke:#b0b0b0;stroke-linecap:square;stroke-width:0.8;"/>
     </g>
     <g id="line2d_18">
      <g>
       <use style="stroke:#000000;stroke-width:0.8;" x="108" xlink:href="#m90e2b136f4" y="216.529357"/>
      </g>
     </g>
     <g id="text_10">
      <!-- 25 -->
      <g transform="translate(89.271875 220.526232)scale(0.1 -0.1)">
       <use xlink:href="#MicrosoftYaHei-32"/>
       <use x="58.642578" xlink:href="#MicrosoftYaHei-35"/>
      </g>
     </g>
    </g>
    <g id="ytick_4">
     <g id="line2d_19">
      <path clip-path="url(#p7797de2b2a)" d="M 108 160.300275 
L 777.6 160.300275 
" style="fill:none;stroke:#b0b0b0;stroke-linecap:square;stroke-width:0.8;"/>
     </g>
     <g id="line2d_20">
      <g>
       <use style="stroke:#000000;stroke-width:0.8;" x="108" xlink:href="#m90e2b136f4" y="160.300275"/>
      </g>
     </g>
     <g id="text_11">
      <!-- 30 -->
      <g transform="translate(89.271875 164.29715)scale(0.1 -0.1)">
       <use xlink:href="#MicrosoftYaHei-33"/>
       <use x="58.642578" xlink:href="#MicrosoftYaHei-30"/>
      </g>
     </g>
    </g>
    <g id="ytick_5">
     <g id="line2d_21">
      <path clip-path="url(#p7797de2b2a)" d="M 108 104.071194 
L 777.6 104.071194 
" style="fill:none;stroke:#b0b0b0;stroke-linecap:square;stroke-width:0.8;"/>
     </g>
     <g id="line2d_22">
      <g>
       <use style="stroke:#000000;stroke-width:0.8;" x="108" xlink:href="#m90e2b136f4" y="104.071194"/>
      </g>
     </g>
     <g id="text_12">
      <!-- 35 -->
      <g transform="translate(89.271875 108.068069)scale(0.1 -0.1)">
       <use xlink:href="#MicrosoftYaHei-33"/>
       <use x="58.642578" xlink:href="#MicrosoftYaHei-35"/>
      </g>
     </g>
    </g>
    <g id="text_13">
     <!-- 万人 -->
     <defs>
      <path d="M 2.9375 75.046875 
L 97.078125 75.046875 
L 97.078125 67.53125 
L 41.15625 67.53125 
Q 40.765625 56.640625 40.140625 47.125 
L 85.453125 47.125 
Q 84.46875 27.203125 83.203125 9.328125 
Q 82.328125 -1.515625 78.21875 -6.296875 
Q 74.3125 -10.6875 64.0625 -10.796875 
Q 58.6875 -10.984375 45.90625 -10.015625 
Q 45.40625 -6.296875 44.4375 -1.03125 
Q 56.84375 -2.6875 63.375 -2.6875 
Q 73.828125 -3.46875 74.90625 10.5 
Q 76.078125 24.171875 76.65625 39.703125 
L 39.546875 39.703125 
Q 35.890625 3.953125 7.515625 -13.421875 
Q 5.28125 -10.40625 1.765625 -6.5 
Q 29.203125 10.203125 31.15625 43.3125 
Q 32.078125 54 32.375 67.53125 
L 2.9375 67.53125 
z
" id="MicrosoftYaHei-4e07"/>
      <path d="M 1.5625 -4.734375 
Q 44.140625 19.875 46.578125 81.59375 
L 55.171875 81.59375 
Q 54.640625 71.140625 53.125 61.671875 
Q 65.234375 12.84375 98.640625 -2.59375 
Q 94.53125 -7.078125 91.40625 -11.078125 
Q 62.40625 5.328125 50.046875 46.96875 
Q 39.359375 6.734375 7.71875 -12.15625 
Q 5.078125 -8.546875 1.5625 -4.734375 
z
" id="MicrosoftYaHei-4eba"/>
     </defs>
     <g transform="translate(82.785937 228.16)rotate(-90)scale(0.1 -0.1)">
      <use xlink:href="#MicrosoftYaHei-4e07"/>
      <use x="100" xlink:href="#MicrosoftYaHei-4eba"/>
     </g>
    </g>
   </g>
   <g id="line2d_23">
    <path clip-path="url(#p7797de2b2a)" d="M 108 216.30444 
L 121.129412 369.36 
L 134.258824 151.640997 
L 147.388235 123.076623 
L 160.517647 66.96 
L 173.647059 72.357992 
L 186.776471 99.010576 
L 199.905882 320.215783 
L 213.035294 172.445757 
L 226.164706 201.122588 
L 239.294118 207.307787 
L 252.423529 320.440699 
L 265.552941 225.750926 
L 278.682353 220.915225 
L 291.811765 214.730026 
L 304.941176 219.790643 
L 318.070588 220.01556 
L 331.2 197.97376 
L 344.329412 257.913961 
L 357.458824 201.909795 
L 370.588235 234.522663 
L 383.717647 211.468739 
L 396.847059 217.54148 
L 409.976471 219.790643 
L 423.105882 225.301093 
L 436.235294 228.225006 
L 449.364706 238.571157 
L 462.494118 237.671491 
L 475.623529 227.100424 
L 488.752941 232.49954 
L 501.882353 226.876632 
L 515.011765 236.323118 
L 528.141176 271.746315 
L 541.270588 213.155612 
L 554.4 226.313217 
L 567.529412 205.28354 
L 580.658824 228.112547 
L 593.788235 226.538133 
L 606.917647 221.365058 
L 620.047059 225.975842 
L 633.176471 232.723332 
L 646.305882 247.117977 
L 659.435294 259.151 
L 672.564706 261.062789 
L 685.694118 263.649327 
L 698.823529 362.724968 
L 711.952941 231.936125 
L 725.082353 213.605444 
L 738.211765 216.866731 
L 751.341176 285.016378 
L 764.470588 265.336199 
L 777.6 142.194511 
" style="fill:none;stroke:#1f77b4;stroke-linecap:square;stroke-width:1.5;"/>
    <defs>
     <path d="M 0 1.5 
C 0.397805 1.5 0.77937 1.341951 1.06066 1.06066 
C 1.341951 0.77937 1.5 0.397805 1.5 0 
C 1.5 -0.397805 1.341951 -0.77937 1.06066 -1.06066 
C 0.77937 -1.341951 0.397805 -1.5 0 -1.5 
C -0.397805 -1.5 -0.77937 -1.341951 -1.06066 -1.06066 
C -1.341951 -0.77937 -1.5 -0.397805 -1.5 0 
C -1.5 0.397805 -1.341951 0.77937 -1.06066 1.06066 
C -0.77937 1.341951 -0.397805 1.5 0 1.5 
z
" id="m0ae4be3531" style="stroke:#1f77b4;"/>
    </defs>
    <g clip-path="url(#p7797de2b2a)">
     <use style="fill:#1f77b4;stroke:#1f77b4;" x="108" xlink:href="#m0ae4be3531" y="216.30444"/>
     <use style="fill:#1f77b4;stroke:#1f77b4;" x="121.129412" xlink:href="#m0ae4be3531" y="369.36"/>
     <use style="fill:#1f77b4;stroke:#1f77b4;" x="134.258824" xlink:href="#m0ae4be3531" y="151.640997"/>
     <use style="fill:#1f77b4;stroke:#1f77b4;" x="147.388235" xlink:href="#m0ae4be3531" y="123.076623"/>
     <use style="fill:#1f77b4;stroke:#1f77b4;" x="160.517647" xlink:href="#m0ae4be3531" y="66.96"/>
     <use style="fill:#1f77b4;stroke:#1f77b4;" x="173.647059" xlink:href="#m0ae4be3531" y="72.357992"/>
     <use style="fill:#1f77b4;stroke:#1f77b4;" x="186.776471" xlink:href="#m0ae4be3531" y="99.010576"/>
     <use style="fill:#1f77b4;stroke:#1f77b4;" x="199.905882" xlink:href="#m0ae4be3531" y="320.215783"/>
     <use style="fill:#1f77b4;stroke:#1f77b4;" x="213.035294" xlink:href="#m0ae4be3531" y="172.445757"/>
     <use style="fill:#1f77b4;stroke:#1f77b4;" x="226.164706" xlink:href="#m0ae4be3531" y="201.122588"/>
     <use style="fill:#1f77b4;stroke:#1f77b4;" x="239.294118" xlink:href="#m0ae4be3531" y="207.307787"/>
     <use style="fill:#1f77b4;stroke:#1f77b4;" x="252.423529" xlink:href="#m0ae4be3531" y="320.440699"/>
     <use style="fill:#1f77b4;stroke:#1f77b4;" x="265.552941" xlink:href="#m0ae4be3531" y="225.750926"/>
     <use style="fill:#1f77b4;stroke:#1f77b4;" x="278.682353" xlink:href="#m0ae4be3531" y="220.915225"/>
     <use style="fill:#1f77b4;stroke:#1f77b4;" x="291.811765" xlink:href="#m0ae4be3531" y="214.730026"/>
     <use style="fill:#1f77b4;stroke:#1f77b4;" x="304.941176" xlink:href="#m0ae4be3531" y="219.790643"/>
     <use style="fill:#1f77b4;stroke:#1f77b4;" x="318.070588" xlink:href="#m0ae4be3531" y="220.01556"/>
     <use style="fill:#1f77b4;stroke:#1f77b4;" x="331.2" xlink:href="#m0ae4be3531" y="197.97376"/>
     <use style="fill:#1f77b4;stroke:#1f77b4;" x="344.329412" xlink:href="#m0ae4be3531" y="257.913961"/>
     <use style="fill:#1f77b4;stroke:#1f77b4;" x="357.458824" xlink:href="#m0ae4be3531" y="201.909795"/>
     <use style="fill:#1f77b4;stroke:#1f77b4;" x="370.588235" xlink:href="#m0ae4be3531" y="234.522663"/>
     <use style="fill:#1f77b4;stroke:#1f77b4;" x="383.717647" xlink:href="#m0ae4be3531" y="211.468739"/>
     <use style="fill:#1f77b4;stroke:#1f77b4;" x="396.847059" xlink:href="#m0ae4be3531" y="217.54148"/>
     <use style="fill:#1f77b4;stroke:#1f77b4;" x="409.976471" xlink:href="#m0ae4be3531" y="219.790643"/>
     <use style="fill:#1f77b4;stroke:#1f77b4;" x="423.105882" xlink:href="#m0ae4be3531" y="225.301093"/>
     <use style="fill:#1f77b4;stroke:#1f77b4;" x="436.235294" xlink:href="#m0ae4be3531" y="228.225006"/>
     <use style="fill:#1f77b4;stroke:#1f77b4;" x="449.364706" xlink:href="#m0ae4be3531" y="238.571157"/>
     <use style="fill:#1f77b4;stroke:#1f77b4;" x="462.494118" xlink:href="#m0ae4be3531" y="237.671491"/>
     <use style="fill:#1f77b4;stroke:#1f77b4;" x="475.623529" xlink:href="#m0ae4be3531" y="227.100424"/>
     <use style="fill:#1f77b4;stroke:#1f77b4;" x="488.752941" xlink:href="#m0ae4be3531" y="232.49954"/>
     <use style="fill:#1f77b4;stroke:#1f77b4;" x="501.882353" xlink:href="#m0ae4be3531" y="226.876632"/>
     <use style="fill:#1f77b4;stroke:#1f77b4;" x="515.011765" xlink:href="#m0ae4be3531" y="236.323118"/>
     <use style="fill:#1f77b4;stroke:#1f77b4;" x="528.141176" xlink:href="#m0ae4be3531" y="271.746315"/>
     <use style="fill:#1f77b4;stroke:#1f77b4;" x="541.270588" xlink:href="#m0ae4be3531" y="213.155612"/>
     <use style="fill:#1f77b4;stroke:#1f77b4;" x="554.4" xlink:href="#m0ae4be3531" y="226.313217"/>
     <use style="fill:#1f77b4;stroke:#1f77b4;" x="567.529412" xlink:href="#m0ae4be3531" y="205.28354"/>
     <use style="fill:#1f77b4;stroke:#1f77b4;" x="580.658824" xlink:href="#m0ae4be3531" y="228.112547"/>
     <use style="fill:#1f77b4;stroke:#1f77b4;" x="593.788235" xlink:href="#m0ae4be3531" y="226.538133"/>
     <use style="fill:#1f77b4;stroke:#1f77b4;" x="606.917647" xlink:href="#m0ae4be3531" y="221.365058"/>
     <use style="fill:#1f77b4;stroke:#1f77b4;" x="620.047059" xlink:href="#m0ae4be3531" y="225.975842"/>
     <use style="fill:#1f77b4;stroke:#1f77b4;" x="633.176471" xlink:href="#m0ae4be3531" y="232.723332"/>
     <use style="fill:#1f77b4;stroke:#1f77b4;" x="646.305882" xlink:href="#m0ae4be3531" y="247.117977"/>
     <use style="fill:#1f77b4;stroke:#1f77b4;" x="659.435294" xlink:href="#m0ae4be3531" y="259.151"/>
     <use style="fill:#1f77b4;stroke:#1f77b4;" x="672.564706" xlink:href="#m0ae4be3531" y="261.062789"/>
     <use style="fill:#1f77b4;stroke:#1f77b4;" x="685.694118" xlink:href="#m0ae4be3531" y="263.649327"/>
     <use style="fill:#1f77b4;stroke:#1f77b4;" x="698.823529" xlink:href="#m0ae4be3531" y="362.724968"/>
     <use style="fill:#1f77b4;stroke:#1f77b4;" x="711.952941" xlink:href="#m0ae4be3531" y="231.936125"/>
     <use style="fill:#1f77b4;stroke:#1f77b4;" x="725.082353" xlink:href="#m0ae4be3531" y="213.605444"/>
     <use style="fill:#1f77b4;stroke:#1f77b4;" x="738.211765" xlink:href="#m0ae4be3531" y="216.866731"/>
     <use style="fill:#1f77b4;stroke:#1f77b4;" x="751.341176" xlink:href="#m0ae4be3531" y="285.016378"/>
     <use style="fill:#1f77b4;stroke:#1f77b4;" x="764.470588" xlink:href="#m0ae4be3531" y="265.336199"/>
     <use style="fill:#1f77b4;stroke:#1f77b4;" x="777.6" xlink:href="#m0ae4be3531" y="142.194511"/>
    </g>
   </g>
   <g id="patch_3">
    <path d="M 108 384.48 
L 108 51.84 
" style="fill:none;stroke:#000000;stroke-linecap:square;stroke-linejoin:miter;stroke-width:0.8;"/>
   </g>
   <g id="patch_4">
    <path d="M 777.6 384.48 
L 777.6 51.84 
" style="fill:none;stroke:#000000;stroke-linecap:square;stroke-linejoin:miter;stroke-width:0.8;"/>
   </g>
   <g id="patch_5">
    <path d="M 108 384.48 
L 777.6 384.48 
" style="fill:none;stroke:#000000;stroke-linecap:square;stroke-linejoin:miter;stroke-width:0.8;"/>
   </g>
   <g id="patch_6">
    <path d="M 108 51.84 
L 777.6 51.84 
" style="fill:none;stroke:#000000;stroke-linecap:square;stroke-linejoin:miter;stroke-width:0.8;"/>
   </g>
   <g id="legend_1">
    <g id="patch_7">
     <path d="M 688.6 90.799375 
L 770.6 90.799375 
Q 772.6 90.799375 772.6 88.799375 
L 772.6 58.84 
Q 772.6 56.84 770.6 56.84 
L 688.6 56.84 
Q 686.6 56.84 686.6 58.84 
L 686.6 88.799375 
Q 686.6 90.799375 688.6 90.799375 
z
" style="fill:#ffffff;opacity:0.8;stroke:#cccccc;stroke-linejoin:miter;"/>
    </g>
    <g id="line2d_24">
     <path d="M 690.6 65.33375 
L 710.6 65.33375 
" style="fill:none;stroke:#1f77b4;stroke-linecap:square;stroke-width:1.5;"/>
    </g>
    <g id="line2d_25">
     <g>
      <use style="fill:#1f77b4;stroke:#1f77b4;" x="700.6" xlink:href="#m0ae4be3531" y="65.33375"/>
     </g>
    </g>
    <g id="text_14">
     <!-- 新增开户数 -->
     <defs>
      <path d="M 56.15625 74.953125 
Q 76.375 75.140625 93.453125 78.953125 
L 96 71.4375 
Q 76.65625 68.890625 63.09375 68.109375 
L 63.09375 45.359375 
L 98.734375 45.359375 
L 98.734375 38.71875 
L 84.765625 38.71875 
L 84.765625 -12.453125 
L 77.546875 -12.453125 
L 77.546875 38.71875 
L 63.09375 38.71875 
L 63.09375 33.9375 
Q 63.09375 3.953125 48.734375 -12.75 
Q 46.390625 -9.71875 43.5625 -6.5 
Q 56.15625 7.28125 56.15625 34.234375 
z
M 4.109375 31.109375 
L 24.03125 31.109375 
L 24.03125 40.375 
L 31.0625 40.375 
L 31.0625 31.109375 
L 50.203125 31.109375 
L 50.203125 24.859375 
L 31.0625 24.859375 
L 31.0625 -0.640625 
Q 31.0625 -10.984375 21.09375 -10.984375 
Q 16.890625 -10.984375 11.625 -10.890625 
Q 11.234375 -7.671875 10.546875 -3.46875 
Q 16.21875 -4.046875 19.4375 -4.046875 
Q 24.03125 -4.046875 24.03125 0.921875 
L 24.03125 24.859375 
L 4.109375 24.859375 
z
M 1.375 49.359375 
L 17.09375 49.359375 
Q 12.9375 55.953125 9.28125 60.6875 
L 14.546875 64.40625 
Q 17.78125 60.5 22.859375 53.375 
L 17.328125 49.359375 
L 30.21875 49.359375 
Q 35.546875 57.03125 40.046875 64.5 
L 46.96875 60.59375 
Q 42.234375 54.5 37.9375 49.359375 
L 52.734375 49.359375 
L 52.734375 43.109375 
L 1.375 43.109375 
z
M 4.5 72.015625 
L 25.59375 72.015625 
Q 23.484375 76.03125 20.796875 80.71875 
L 27.046875 83.640625 
Q 30.078125 78.65625 32.71875 73.578125 
L 29.4375 72.015625 
L 50.203125 72.015625 
L 50.203125 65.765625 
L 4.5 65.765625 
z
M 11.625 20.453125 
L 18.265625 17.328125 
Q 12.984375 6.296875 7.8125 -2.59375 
Q 4.984375 -0.828125 1.375 0.921875 
Q 6.15625 8.34375 11.625 20.453125 
z
M 39.75 19.96875 
Q 45.21875 12.546875 49.3125 6.296875 
L 43.0625 2 
Q 38.765625 9.515625 33.984375 16.15625 
z
" id="MicrosoftYaHei-65b0"/>
      <path d="M 34.1875 69.671875 
L 50.921875 69.671875 
Q 47.515625 74.703125 43.359375 79.9375 
L 48.921875 83.84375 
Q 54 77.984375 57.71875 72.90625 
L 53.171875 69.671875 
L 69.578125 69.671875 
Q 74.359375 76.375 78.90625 83.9375 
L 85.9375 79.9375 
Q 81.78125 74.5625 77.78125 69.671875 
L 94.34375 69.671875 
L 94.34375 33.15625 
L 87.5 33.15625 
L 87.5 36.078125 
L 41.015625 36.078125 
L 41.015625 33.15625 
L 34.1875 33.15625 
z
M 38.09375 28.078125 
L 90.4375 28.078125 
L 90.4375 -13.234375 
L 83.40625 -13.234375 
L 83.40625 -8.546875 
L 45.125 -8.546875 
L 45.125 -13.234375 
L 38.09375 -13.234375 
z
M 1.265625 6.6875 
Q 7.28125 8.40625 13.96875 10.5 
L 13.96875 50.828125 
L 2.25 50.828125 
L 2.25 57.765625 
L 13.96875 57.765625 
L 13.96875 82.171875 
L 21.1875 82.171875 
L 21.1875 57.765625 
L 31.25 57.765625 
L 31.25 50.828125 
L 21.1875 50.828125 
L 21.1875 12.796875 
Q 26.703125 14.546875 32.71875 16.546875 
Q 32.90625 11.859375 33.203125 8.640625 
Q 20.40625 4.9375 3.90625 -0.828125 
z
M 87.5 63.8125 
L 67.578125 63.8125 
L 67.578125 41.9375 
L 87.5 41.9375 
z
M 41.015625 41.9375 
L 60.84375 41.9375 
L 60.84375 63.8125 
L 41.015625 63.8125 
z
M 83.40625 22.015625 
L 45.125 22.015625 
L 45.125 12.640625 
L 83.40625 12.640625 
z
M 45.125 -2.484375 
L 83.40625 -2.484375 
L 83.40625 6.78125 
L 45.125 6.78125 
z
M 83.59375 56.390625 
Q 78.21875 47.90625 75.875 45.0625 
L 70.609375 48.1875 
Q 74.125 52.984375 77.828125 59.8125 
z
M 44.734375 56.203125 
L 49.703125 59.421875 
Q 54.109375 53.765625 57.328125 48.78125 
L 51.859375 45.265625 
Q 48.734375 50.4375 44.734375 56.203125 
z
" id="MicrosoftYaHei-589e"/>
      <path d="M 1.953125 39.890625 
L 27.4375 39.890625 
L 27.4375 68.3125 
L 6.25 68.3125 
L 6.25 76.03125 
L 93.84375 76.03125 
L 93.84375 68.3125 
L 73.921875 68.3125 
L 73.921875 39.890625 
L 98.046875 39.890625 
L 98.046875 32.171875 
L 73.921875 32.171875 
L 73.921875 -12.359375 
L 65.921875 -12.359375 
L 65.921875 32.171875 
L 35.40625 32.171875 
Q 35.0625 14.3125 30.28125 5.609375 
Q 25.484375 -3.953125 8.296875 -13.625 
Q 5.765625 -10.109375 2.734375 -6.78125 
Q 17.671875 0.828125 22.65625 9.125 
Q 27.09375 15.828125 27.390625 32.171875 
L 1.953125 32.171875 
z
M 35.453125 39.890625 
L 65.921875 39.890625 
L 65.921875 68.3125 
L 35.453125 68.3125 
z
" id="MicrosoftYaHei-5f00"/>
      <path d="M 42.578125 79.9375 
L 49.609375 84.125 
Q 54.296875 78.5625 58.890625 72.015625 
L 54.109375 69 
L 90.53125 69 
L 90.53125 25.734375 
L 82.71875 25.734375 
L 82.71875 30.8125 
L 21.046875 30.8125 
Q 19.734375 2.6875 6.546875 -14.109375 
Q 3.90625 -10.890625 0.875 -7.671875 
Q 13.375 7.5625 13.375 38.03125 
L 13.375 69 
L 50.640625 69 
Q 47.078125 74.46875 42.578125 79.9375 
z
M 21.1875 61.96875 
L 21.1875 37.84375 
L 82.71875 37.84375 
L 82.71875 61.96875 
z
" id="MicrosoftYaHei-6237"/>
      <path d="M 65.234375 82.859375 
L 73.046875 81.6875 
Q 71 72.21875 68.265625 64.015625 
L 98.140625 64.015625 
L 98.140625 57.375 
L 92 57.375 
Q 89.546875 28.65625 79.5 11.765625 
Q 87.40625 1.03125 99.609375 -5.8125 
Q 96.484375 -10.109375 94.34375 -13.53125 
Q 82.421875 -5.8125 74.515625 4.828125 
Q 65.53125 -6.296875 53.125 -14.5 
Q 50.984375 -11.671875 47.5625 -8.34375 
Q 61.234375 0.640625 69.734375 12.0625 
Q 61.8125 25.734375 59.28125 43.609375 
Q 57.234375 39.984375 54.984375 36.859375 
Q 53.03125 39.703125 50.09375 43.109375 
Q 61.421875 59.421875 65.234375 82.859375 
z
M 2.34375 26.515625 
L 17.1875 26.515625 
Q 19.34375 30.21875 21.390625 34.125 
L 28.421875 31.890625 
Q 26.859375 29.15625 25.296875 26.515625 
L 49.21875 26.515625 
L 49.21875 20.171875 
Q 45.515625 10.59375 37.984375 3.375 
Q 43.359375 0.828125 48.921875 -1.703125 
L 44.625 -8.453125 
Q 38.578125 -5.03125 32.03125 -1.609375 
Q 21 -9.515625 4.203125 -14.109375 
Q 2.640625 -10.984375 0.875 -7.28125 
Q 15.140625 -4.046875 25 2 
Q 16.609375 6.296875 7.421875 10.796875 
Q 10.546875 15.28125 13.484375 20.0625 
L 2.34375 20.0625 
z
M 3.421875 60.109375 
L 25.875 60.109375 
L 25.875 81.984375 
L 33.109375 81.984375 
L 33.109375 60.109375 
L 51.859375 60.109375 
L 51.859375 53.65625 
L 33.109375 53.65625 
L 33.109375 47.703125 
L 36.03125 51.03125 
Q 45.125 44.390625 51.265625 39.3125 
L 46.578125 33.84375 
Q 41.21875 38.921875 33.109375 45.265625 
L 33.109375 34.125 
L 25.875 34.125 
L 25.875 47.796875 
Q 17 38.53125 5.171875 31.5 
Q 3.328125 34.328125 0.984375 37.453125 
Q 13.28125 44.09375 23.53125 53.65625 
L 3.421875 53.65625 
z
M 84.1875 57.375 
L 65.921875 57.375 
Q 65.4375 56.109375 64.84375 54.9375 
Q 66.609375 34.234375 74.609375 19.484375 
Q 82.421875 33.734375 84.1875 57.375 
z
M 17 13.03125 
Q 23.921875 9.90625 31.25 6.5 
Q 37.984375 12.25 41.796875 20.0625 
L 21.484375 20.0625 
Q 19.234375 16.453125 17 13.03125 
z
M 47.46875 79.546875 
L 53.515625 75.53125 
Q 48.140625 68.5 42.78125 62.546875 
Q 40.53125 64.5 37.5 66.65625 
Q 42.578125 72.609375 47.46875 79.546875 
z
M 5.953125 75.25 
L 11.53125 79.046875 
Q 15.921875 73.6875 20.609375 67.53125 
L 14.546875 63.234375 
Q 10.25 69.578125 5.953125 75.25 
z
" id="MicrosoftYaHei-6570"/>
     </defs>
     <g transform="translate(718.6 68.83375)scale(0.1 -0.1)">
      <use xlink:href="#MicrosoftYaHei-65b0"/>
      <use x="100" xlink:href="#MicrosoftYaHei-589e"/>
      <use x="200" xlink:href="#MicrosoftYaHei-5f00"/>
      <use x="300" xlink:href="#MicrosoftYaHei-6237"/>
      <use x="400" xlink:href="#MicrosoftYaHei-6570"/>
     </g>
    </g>
    <g id="line2d_26">
     <path d="M 690.6 80.813438 
L 710.6 80.813438 
" style="fill:none;stroke:#ff0000;stroke-linecap:square;stroke-width:1.5;"/>
    </g>
    <g id="line2d_27">
     <defs>
      <path d="M 0 1.5 
C 0.397805 1.5 0.77937 1.341951 1.06066 1.06066 
C 1.341951 0.77937 1.5 0.397805 1.5 0 
C 1.5 -0.397805 1.341951 -0.77937 1.06066 -1.06066 
C 0.77937 -1.341951 0.397805 -1.5 0 -1.5 
C -0.397805 -1.5 -0.77937 -1.341951 -1.06066 -1.06066 
C -1.341951 -0.77937 -1.5 -0.397805 -1.5 0 
C -1.5 0.397805 -1.341951 0.77937 -1.06066 1.06066 
C -0.77937 1.341951 -0.397805 1.5 0 1.5 
z
" id="m6d59b123db" style="stroke:#ff0000;"/>
     </defs>
     <g>
      <use style="fill:#ff0000;stroke:#ff0000;" x="700.6" xlink:href="#m6d59b123db" y="80.813438"/>
     </g>
    </g>
    <g id="text_15">
     <!-- 上证指数 -->
     <defs>
      <path d="M 2.546875 0.734375 
L 40.828125 0.734375 
L 40.828125 81.390625 
L 49.703125 81.390625 
L 49.703125 52 
L 89.84375 52 
L 89.84375 44.1875 
L 49.703125 44.1875 
L 49.703125 0.734375 
L 97.5625 0.734375 
L 97.5625 -7.078125 
L 2.546875 -7.078125 
z
" id="MicrosoftYaHei-4e0a"/>
      <path d="M 26.265625 -0.53125 
L 39.84375 -0.53125 
L 39.84375 53.46875 
L 47.359375 53.46875 
L 47.359375 -0.53125 
L 62.890625 -0.53125 
L 62.890625 70.84375 
L 31.640625 70.84375 
L 31.640625 78.078125 
L 96.875 78.078125 
L 96.875 70.84375 
L 70.703125 70.84375 
L 70.703125 41.453125 
L 93.359375 41.453125 
L 93.359375 34.234375 
L 70.703125 34.234375 
L 70.703125 -0.53125 
L 98.4375 -0.53125 
L 98.4375 -7.765625 
L 26.265625 -7.765625 
z
M 32.03125 23.96875 
Q 32.421875 20.5625 33.890625 15.484375 
Q 22.078125 3.765625 16.015625 -3.171875 
L 10.453125 3.171875 
Q 13.375 7.28125 13.375 12.9375 
L 13.375 43.5 
L 1.5625 43.5 
L 1.5625 50.53125 
L 20.90625 50.53125 
L 20.90625 12.453125 
Q 25.390625 16.75 32.03125 23.96875 
z
M 11.03125 81.59375 
Q 22.46875 69.96875 27.046875 64.796875 
L 20.21875 59.03125 
Q 14.0625 67.046875 5.078125 76.421875 
z
" id="MicrosoftYaHei-8bc1"/>
      <path d="M 39.9375 36.1875 
L 91.5 36.1875 
L 91.5 -12.84375 
L 84.078125 -12.84375 
L 84.078125 -6.890625 
L 47.359375 -6.890625 
L 47.359375 -12.84375 
L 39.9375 -12.84375 
z
M 1.375 30.90625 
Q 8.59375 32.625 15.234375 34.28125 
L 15.234375 56.984375 
L 2.25 56.984375 
L 2.25 64.015625 
L 15.234375 64.015625 
L 15.234375 82.953125 
L 22.5625 82.953125 
L 22.5625 64.015625 
L 35.15625 64.015625 
L 35.15625 56.984375 
L 22.5625 56.984375 
L 22.5625 36.234375 
Q 27.78125 37.640625 32.625 39.109375 
Q 32.8125 34.625 33.296875 31.5 
Q 27.734375 29.9375 22.5625 28.46875 
L 22.5625 -0.921875 
Q 22.5625 -11.765625 12.890625 -11.859375 
Q 9.28125 -11.96875 3.421875 -11.671875 
Q 3.03125 -7.765625 2.15625 -3.953125 
Q 7.515625 -4.640625 10.84375 -4.640625 
Q 15.234375 -4.640625 15.234375 0.25 
L 15.234375 26.3125 
Q 8.34375 24.3125 2.34375 22.515625 
z
M 38.96875 83.15625 
L 46.390625 83.15625 
L 46.390625 68.109375 
Q 69.734375 72.515625 92.78125 79.4375 
L 95.40625 72.515625 
Q 76.375 66.609375 46.390625 61.1875 
L 46.390625 57.953125 
Q 46.390625 50.921875 53.609375 50.921875 
L 80.5625 50.921875 
Q 87.703125 50.921875 89.0625 57.171875 
Q 89.9375 60.796875 90.828125 67.046875 
Q 94.34375 65.578125 98.140625 64.40625 
Q 97.078125 58.0625 96 54.15625 
Q 93.75 44.28125 81.9375 44.28125 
L 51.375 44.28125 
Q 38.96875 44.28125 38.96875 57.46875 
z
M 84.078125 29.546875 
L 47.359375 29.546875 
L 47.359375 17.71875 
L 84.078125 17.71875 
z
M 47.359375 -0.25 
L 84.078125 -0.25 
L 84.078125 11.46875 
L 47.359375 11.46875 
z
" id="MicrosoftYaHei-6307"/>
     </defs>
     <g transform="translate(718.6 84.313438)scale(0.1 -0.1)">
      <use xlink:href="#MicrosoftYaHei-4e0a"/>
      <use x="100" xlink:href="#MicrosoftYaHei-8bc1"/>
      <use x="200" xlink:href="#MicrosoftYaHei-6307"/>
      <use x="300" xlink:href="#MicrosoftYaHei-6570"/>
     </g>
    </g>
   </g>
  </g>
  <g id="axes_2">
   <g id="matplotlib.axis_3">
    <g id="ytick_6">
     <g id="line2d_28">
      <defs>
       <path d="M 0 0 
L 3.5 0 
" id="m216e4f8bd5" style="stroke:#000000;stroke-width:0.8;"/>
      </defs>
      <g>
       <use style="stroke:#000000;stroke-width:0.8;" x="777.6" xlink:href="#m216e4f8bd5" y="367.091823"/>
      </g>
     </g>
     <g id="text_16">
      <!-- 2500 -->
      <g transform="translate(784.6 371.088698)scale(0.1 -0.1)">
       <use xlink:href="#MicrosoftYaHei-32"/>
       <use x="58.642578" xlink:href="#MicrosoftYaHei-35"/>
       <use x="117.285156" xlink:href="#MicrosoftYaHei-30"/>
       <use x="175.927734" xlink:href="#MicrosoftYaHei-30"/>
      </g>
     </g>
    </g>
    <g id="ytick_7">
     <g id="line2d_29">
      <g>
       <use style="stroke:#000000;stroke-width:0.8;" x="777.6" xlink:href="#m216e4f8bd5" y="329.9086"/>
      </g>
     </g>
     <g id="text_17">
      <!-- 2600 -->
      <g transform="translate(784.6 333.905475)scale(0.1 -0.1)">
       <use xlink:href="#MicrosoftYaHei-32"/>
       <use x="58.642578" xlink:href="#MicrosoftYaHei-36"/>
       <use x="117.285156" xlink:href="#MicrosoftYaHei-30"/>
       <use x="175.927734" xlink:href="#MicrosoftYaHei-30"/>
      </g>
     </g>
    </g>
    <g id="ytick_8">
     <g id="line2d_30">
      <g>
       <use style="stroke:#000000;stroke-width:0.8;" x="777.6" xlink:href="#m216e4f8bd5" y="292.725377"/>
      </g>
     </g>
     <g id="text_18">
      <!-- 2700 -->
      <g transform="translate(784.6 296.722252)scale(0.1 -0.1)">
       <use xlink:href="#MicrosoftYaHei-32"/>
       <use x="58.642578" xlink:href="#MicrosoftYaHei-37"/>
       <use x="117.285156" xlink:href="#MicrosoftYaHei-30"/>
       <use x="175.927734" xlink:href="#MicrosoftYaHei-30"/>
      </g>
     </g>
    </g>
    <g id="ytick_9">
     <g id="line2d_31">
      <g>
       <use style="stroke:#000000;stroke-width:0.8;" x="777.6" xlink:href="#m216e4f8bd5" y="255.542154"/>
      </g>
     </g>
     <g id="text_19">
      <!-- 2800 -->
      <g transform="translate(784.6 259.539029)scale(0.1 -0.1)">
       <use xlink:href="#MicrosoftYaHei-32"/>
       <use x="58.642578" xlink:href="#MicrosoftYaHei-38"/>
       <use x="117.285156" xlink:href="#MicrosoftYaHei-30"/>
       <use x="175.927734" xlink:href="#MicrosoftYaHei-30"/>
      </g>
     </g>
    </g>
    <g id="ytick_10">
     <g id="line2d_32">
      <g>
       <use style="stroke:#000000;stroke-width:0.8;" x="777.6" xlink:href="#m216e4f8bd5" y="218.35893"/>
      </g>
     </g>
     <g id="text_20">
      <!-- 2900 -->
      <g transform="translate(784.6 222.355805)scale(0.1 -0.1)">
       <use xlink:href="#MicrosoftYaHei-32"/>
       <use x="58.642578" xlink:href="#MicrosoftYaHei-39"/>
       <use x="117.285156" xlink:href="#MicrosoftYaHei-30"/>
       <use x="175.927734" xlink:href="#MicrosoftYaHei-30"/>
      </g>
     </g>
    </g>
    <g id="ytick_11">
     <g id="line2d_33">
      <g>
       <use style="stroke:#000000;stroke-width:0.8;" x="777.6" xlink:href="#m216e4f8bd5" y="181.175707"/>
      </g>
     </g>
     <g id="text_21">
      <!-- 3000 -->
      <g transform="translate(784.6 185.172582)scale(0.1 -0.1)">
       <use xlink:href="#MicrosoftYaHei-33"/>
       <use x="58.642578" xlink:href="#MicrosoftYaHei-30"/>
       <use x="117.285156" xlink:href="#MicrosoftYaHei-30"/>
       <use x="175.927734" xlink:href="#MicrosoftYaHei-30"/>
      </g>
     </g>
    </g>
    <g id="ytick_12">
     <g id="line2d_34">
      <g>
       <use style="stroke:#000000;stroke-width:0.8;" x="777.6" xlink:href="#m216e4f8bd5" y="143.992484"/>
      </g>
     </g>
     <g id="text_22">
      <!-- 3100 -->
      <g transform="translate(784.6 147.989359)scale(0.1 -0.1)">
       <use xlink:href="#MicrosoftYaHei-33"/>
       <use x="58.642578" xlink:href="#MicrosoftYaHei-31"/>
       <use x="117.285156" xlink:href="#MicrosoftYaHei-30"/>
       <use x="175.927734" xlink:href="#MicrosoftYaHei-30"/>
      </g>
     </g>
    </g>
    <g id="ytick_13">
     <g id="line2d_35">
      <g>
       <use style="stroke:#000000;stroke-width:0.8;" x="777.6" xlink:href="#m216e4f8bd5" y="106.80926"/>
      </g>
     </g>
     <g id="text_23">
      <!-- 3200 -->
      <g transform="translate(784.6 110.806135)scale(0.1 -0.1)">
       <use xlink:href="#MicrosoftYaHei-33"/>
       <use x="58.642578" xlink:href="#MicrosoftYaHei-32"/>
       <use x="117.285156" xlink:href="#MicrosoftYaHei-30"/>
       <use x="175.927734" xlink:href="#MicrosoftYaHei-30"/>
      </g>
     </g>
    </g>
    <g id="ytick_14">
     <g id="line2d_36">
      <g>
       <use style="stroke:#000000;stroke-width:0.8;" x="777.6" xlink:href="#m216e4f8bd5" y="69.626037"/>
      </g>
     </g>
     <g id="text_24">
      <!-- 3300 -->
      <g transform="translate(784.6 73.622912)scale(0.1 -0.1)">
       <use xlink:href="#MicrosoftYaHei-33"/>
       <use x="58.642578" xlink:href="#MicrosoftYaHei-33"/>
       <use x="117.285156" xlink:href="#MicrosoftYaHei-30"/>
       <use x="175.927734" xlink:href="#MicrosoftYaHei-30"/>
      </g>
     </g>
    </g>
   </g>
   <g id="line2d_37">
    <path clip-path="url(#p7797de2b2a)" d="M 108 132.893292 
L 121.129412 107.121599 
L 134.258824 86.533249 
L 147.388235 66.96 
L 160.517647 80.825624 
L 173.647059 124.374615 
L 186.776471 118.373243 
L 199.905882 132.424783 
L 213.035294 122.03579 
L 226.164706 154.574829 
L 239.294118 150.599942 
L 252.423529 147.327819 
L 265.552941 120.470377 
L 278.682353 109.300536 
L 291.811765 128.635812 
L 304.941176 153.236233 
L 318.070588 156.207173 
L 331.2 173.032581 
L 344.329412 222.166492 
L 357.458824 237.909869 
L 370.588235 275.16374 
L 383.717647 243.948425 
L 396.847059 244.658624 
L 409.976471 228.17902 
L 423.105882 277.688481 
L 436.235294 257.286047 
L 449.364706 304.263331 
L 462.494118 281.782354 
L 475.623529 283.336613 
L 488.752941 291.870163 
L 501.882353 299.552217 
L 515.011765 256.479171 
L 528.141176 247.603535 
L 541.270588 327.339239 
L 554.4 348.325451 
L 567.529412 330.336207 
L 580.658824 301.470871 
L 593.788235 330.328771 
L 606.917647 300.492952 
L 620.047059 337.538598 
L 633.176471 334.299939 
L 646.305882 327.718508 
L 659.435294 332.23627 
L 672.564706 361.04955 
L 685.694118 369.36 
L 698.823529 361.562678 
L 711.952941 347.076094 
L 725.082353 331.392211 
L 738.211765 329.269049 
L 751.341176 323.130098 
L 764.470588 299.273342 
L 777.6 253.969303 
" style="fill:none;stroke:#ff0000;stroke-linecap:square;stroke-width:1.5;"/>
    <g clip-path="url(#p7797de2b2a)">
     <use style="fill:#ff0000;stroke:#ff0000;" x="108" xlink:href="#m6d59b123db" y="132.893292"/>
     <use style="fill:#ff0000;stroke:#ff0000;" x="121.129412" xlink:href="#m6d59b123db" y="107.121599"/>
     <use style="fill:#ff0000;stroke:#ff0000;" x="134.258824" xlink:href="#m6d59b123db" y="86.533249"/>
     <use style="fill:#ff0000;stroke:#ff0000;" x="147.388235" xlink:href="#m6d59b123db" y="66.96"/>
     <use style="fill:#ff0000;stroke:#ff0000;" x="160.517647" xlink:href="#m6d59b123db" y="80.825624"/>
     <use style="fill:#ff0000;stroke:#ff0000;" x="173.647059" xlink:href="#m6d59b123db" y="124.374615"/>
     <use style="fill:#ff0000;stroke:#ff0000;" x="186.776471" xlink:href="#m6d59b123db" y="118.373243"/>
     <use style="fill:#ff0000;stroke:#ff0000;" x="199.905882" xlink:href="#m6d59b123db" y="132.424783"/>
     <use style="fill:#ff0000;stroke:#ff0000;" x="213.035294" xlink:href="#m6d59b123db" y="122.03579"/>
     <use style="fill:#ff0000;stroke:#ff0000;" x="226.164706" xlink:href="#m6d59b123db" y="154.574829"/>
     <use style="fill:#ff0000;stroke:#ff0000;" x="239.294118" xlink:href="#m6d59b123db" y="150.599942"/>
     <use style="fill:#ff0000;stroke:#ff0000;" x="252.423529" xlink:href="#m6d59b123db" y="147.327819"/>
     <use style="fill:#ff0000;stroke:#ff0000;" x="265.552941" xlink:href="#m6d59b123db" y="120.470377"/>
     <use style="fill:#ff0000;stroke:#ff0000;" x="278.682353" xlink:href="#m6d59b123db" y="109.300536"/>
     <use style="fill:#ff0000;stroke:#ff0000;" x="291.811765" xlink:href="#m6d59b123db" y="128.635812"/>
     <use style="fill:#ff0000;stroke:#ff0000;" x="304.941176" xlink:href="#m6d59b123db" y="153.236233"/>
     <use style="fill:#ff0000;stroke:#ff0000;" x="318.070588" xlink:href="#m6d59b123db" y="156.207173"/>
     <use style="fill:#ff0000;stroke:#ff0000;" x="331.2" xlink:href="#m6d59b123db" y="173.032581"/>
     <use style="fill:#ff0000;stroke:#ff0000;" x="344.329412" xlink:href="#m6d59b123db" y="222.166492"/>
     <use style="fill:#ff0000;stroke:#ff0000;" x="357.458824" xlink:href="#m6d59b123db" y="237.909869"/>
     <use style="fill:#ff0000;stroke:#ff0000;" x="370.588235" xlink:href="#m6d59b123db" y="275.16374"/>
     <use style="fill:#ff0000;stroke:#ff0000;" x="383.717647" xlink:href="#m6d59b123db" y="243.948425"/>
     <use style="fill:#ff0000;stroke:#ff0000;" x="396.847059" xlink:href="#m6d59b123db" y="244.658624"/>
     <use style="fill:#ff0000;stroke:#ff0000;" x="409.976471" xlink:href="#m6d59b123db" y="228.17902"/>
     <use style="fill:#ff0000;stroke:#ff0000;" x="423.105882" xlink:href="#m6d59b123db" y="277.688481"/>
     <use style="fill:#ff0000;stroke:#ff0000;" x="436.235294" xlink:href="#m6d59b123db" y="257.286047"/>
     <use style="fill:#ff0000;stroke:#ff0000;" x="449.364706" xlink:href="#m6d59b123db" y="304.263331"/>
     <use style="fill:#ff0000;stroke:#ff0000;" x="462.494118" xlink:href="#m6d59b123db" y="281.782354"/>
     <use style="fill:#ff0000;stroke:#ff0000;" x="475.623529" xlink:href="#m6d59b123db" y="283.336613"/>
     <use style="fill:#ff0000;stroke:#ff0000;" x="488.752941" xlink:href="#m6d59b123db" y="291.870163"/>
     <use style="fill:#ff0000;stroke:#ff0000;" x="501.882353" xlink:href="#m6d59b123db" y="299.552217"/>
     <use style="fill:#ff0000;stroke:#ff0000;" x="515.011765" xlink:href="#m6d59b123db" y="256.479171"/>
     <use style="fill:#ff0000;stroke:#ff0000;" x="528.141176" xlink:href="#m6d59b123db" y="247.603535"/>
     <use style="fill:#ff0000;stroke:#ff0000;" x="541.270588" xlink:href="#m6d59b123db" y="327.339239"/>
     <use style="fill:#ff0000;stroke:#ff0000;" x="554.4" xlink:href="#m6d59b123db" y="348.325451"/>
     <use style="fill:#ff0000;stroke:#ff0000;" x="567.529412" xlink:href="#m6d59b123db" y="330.336207"/>
     <use style="fill:#ff0000;stroke:#ff0000;" x="580.658824" xlink:href="#m6d59b123db" y="301.470871"/>
     <use style="fill:#ff0000;stroke:#ff0000;" x="593.788235" xlink:href="#m6d59b123db" y="330.328771"/>
     <use style="fill:#ff0000;stroke:#ff0000;" x="606.917647" xlink:href="#m6d59b123db" y="300.492952"/>
     <use style="fill:#ff0000;stroke:#ff0000;" x="620.047059" xlink:href="#m6d59b123db" y="337.538598"/>
     <use style="fill:#ff0000;stroke:#ff0000;" x="633.176471" xlink:href="#m6d59b123db" y="334.299939"/>
     <use style="fill:#ff0000;stroke:#ff0000;" x="646.305882" xlink:href="#m6d59b123db" y="327.718508"/>
     <use style="fill:#ff0000;stroke:#ff0000;" x="659.435294" xlink:href="#m6d59b123db" y="332.23627"/>
     <use style="fill:#ff0000;stroke:#ff0000;" x="672.564706" xlink:href="#m6d59b123db" y="361.04955"/>
     <use style="fill:#ff0000;stroke:#ff0000;" x="685.694118" xlink:href="#m6d59b123db" y="369.36"/>
     <use style="fill:#ff0000;stroke:#ff0000;" x="698.823529" xlink:href="#m6d59b123db" y="361.562678"/>
     <use style="fill:#ff0000;stroke:#ff0000;" x="711.952941" xlink:href="#m6d59b123db" y="347.076094"/>
     <use style="fill:#ff0000;stroke:#ff0000;" x="725.082353" xlink:href="#m6d59b123db" y="331.392211"/>
     <use style="fill:#ff0000;stroke:#ff0000;" x="738.211765" xlink:href="#m6d59b123db" y="329.269049"/>
     <use style="fill:#ff0000;stroke:#ff0000;" x="751.341176" xlink:href="#m6d59b123db" y="323.130098"/>
     <use style="fill:#ff0000;stroke:#ff0000;" x="764.470588" xlink:href="#m6d59b123db" y="299.273342"/>
     <use style="fill:#ff0000;stroke:#ff0000;" x="777.6" xlink:href="#m6d59b123db" y="253.969303"/>
    </g>
   </g>
   <g id="patch_8">
    <path d="M 108 384.48 
L 108 51.84 
" style="fill:none;stroke:#000000;stroke-linecap:square;stroke-linejoin:miter;stroke-width:0.8;"/>
   </g>
   <g id="patch_9">
    <path d="M 777.6 384.48 
L 777.6 51.84 
" style="fill:none;stroke:#000000;stroke-linecap:square;stroke-linejoin:miter;stroke-width:0.8;"/>
   </g>
   <g id="patch_10">
    <path d="M 108 384.48 
L 777.6 384.48 
" style="fill:none;stroke:#000000;stroke-linecap:square;stroke-linejoin:miter;stroke-width:0.8;"/>
   </g>
   <g id="patch_11">
    <path d="M 108 51.84 
L 777.6 51.84 
" style="fill:none;stroke:#000000;stroke-linecap:square;stroke-linejoin:miter;stroke-width:0.8;"/>
   </g>
  </g>
 </g>
 <defs>
  <clipPath id="p7797de2b2a">
   <rect height="332.64" width="669.6" x="108" y="51.84"/>
  </clipPath>
 </defs>
</svg>
