<?xml version="1.0" encoding="utf-8" standalone="no"?>
<!DOCTYPE svg PUBLIC "-//W3C//DTD SVG 1.1//EN"
  "http://www.w3.org/Graphics/SVG/1.1/DTD/svg11.dtd">
<!-- Created with matplotlib (http://matplotlib.org/) -->
<svg height="360pt" version="1.1" viewBox="0 0 720 360" width="720pt" xmlns="http://www.w3.org/2000/svg" xmlns:xlink="http://www.w3.org/1999/xlink">
 <defs>
  <style type="text/css">
*{stroke-linecap:butt;stroke-linejoin:round;}
  </style>
 </defs>
 <g id="figure_1">
  <g id="patch_1">
   <path d="M 0 360 
L 720 360 
L 720 0 
L 0 0 
z
" style="fill:#ffffff;"/>
  </g>
  <g id="axes_1">
   <g id="patch_2">
    <path d="M 90 320.4 
L 648 320.4 
L 648 43.2 
L 90 43.2 
z
" style="fill:#ffffff;"/>
   </g>
   <g id="patch_3">
    <path clip-path="url(#pd5f03cd12a)" d="M 100.730769 320.4 
L 122.192308 320.4 
L 122.192308 56.4 
L 100.730769 56.4 
z
" style="fill:#1f77b4;"/>
   </g>
   <g id="patch_4">
    <path clip-path="url(#pd5f03cd12a)" d="M 143.653846 320.4 
L 165.115385 320.4 
L 165.115385 76.997186 
L 143.653846 76.997186 
z
" style="fill:#1f77b4;"/>
   </g>
   <g id="patch_5">
    <path clip-path="url(#pd5f03cd12a)" d="M 186.576923 320.4 
L 208.038462 320.4 
L 208.038462 97.438876 
L 186.576923 97.438876 
z
" style="fill:#1f77b4;"/>
   </g>
   <g id="patch_6">
    <path clip-path="url(#pd5f03cd12a)" d="M 229.5 320.4 
L 250.961538 320.4 
L 250.961538 109.700957 
L 229.5 109.700957 
z
" style="fill:#1f77b4;"/>
   </g>
   <g id="patch_7">
    <path clip-path="url(#pd5f03cd12a)" d="M 272.423077 320.4 
L 293.884615 320.4 
L 293.884615 145.284527 
L 272.423077 145.284527 
z
" style="fill:#1f77b4;"/>
   </g>
   <g id="patch_8">
    <path clip-path="url(#pd5f03cd12a)" d="M 315.346154 320.4 
L 336.807692 320.4 
L 336.807692 146.193496 
L 315.346154 146.193496 
z
" style="fill:#1f77b4;"/>
   </g>
   <g id="patch_9">
    <path clip-path="url(#pd5f03cd12a)" d="M 358.269231 320.4 
L 379.730769 320.4 
L 379.730769 154.451318 
L 358.269231 154.451318 
z
" style="fill:#1f77b4;"/>
   </g>
   <g id="patch_10">
    <path clip-path="url(#pd5f03cd12a)" d="M 401.192308 320.4 
L 422.653846 320.4 
L 422.653846 210.919032 
L 401.192308 210.919032 
z
" style="fill:#1f77b4;"/>
   </g>
   <g id="patch_11">
    <path clip-path="url(#pd5f03cd12a)" d="M 444.115385 320.4 
L 465.576923 320.4 
L 465.576923 227.169359 
L 444.115385 227.169359 
z
" style="fill:#1f77b4;"/>
   </g>
   <g id="patch_12">
    <path clip-path="url(#pd5f03cd12a)" d="M 487.038462 320.4 
L 508.5 320.4 
L 508.5 246.317031 
L 487.038462 246.317031 
z
" style="fill:#1f77b4;"/>
   </g>
   <g id="patch_13">
    <path clip-path="url(#pd5f03cd12a)" d="M 529.961538 320.4 
L 551.423077 320.4 
L 551.423077 293.932354 
L 529.961538 293.932354 
z
" style="fill:#1f77b4;"/>
   </g>
   <g id="patch_14">
    <path clip-path="url(#pd5f03cd12a)" d="M 572.884615 320.4 
L 594.346154 320.4 
L 594.346154 313.256146 
L 572.884615 313.256146 
z
" style="fill:#1f77b4;"/>
   </g>
   <g id="patch_15">
    <path clip-path="url(#pd5f03cd12a)" d="M 615.807692 320.4 
L 637.269231 320.4 
L 637.269231 319.089632 
L 615.807692 319.089632 
z
" style="fill:#1f77b4;"/>
   </g>
   <g id="matplotlib.axis_1">
    <g id="xtick_1">
     <g id="line2d_1">
      <defs>
       <path d="M 0 0 
L 0 3.5 
" id="m4e624f6d52" style="stroke:#000000;stroke-width:0.8;"/>
      </defs>
      <g>
       <use style="stroke:#000000;stroke-width:0.8;" x="111.461538" xlink:href="#m4e624f6d52" y="320.4"/>
      </g>
     </g>
     <g id="text_1">
      <!-- 易方达中概互联50ETF -->
      <defs>
       <path d="M 14.359375 78.46875 
L 86.234375 78.46875 
L 86.234375 37.84375 
L 78.609375 37.84375 
L 78.609375 41.75 
L 14.359375 41.75 
z
M 1.765625 17.046875 
Q 17.390625 25.53125 28.21875 40.09375 
L 35.15625 37.453125 
Q 33.203125 34.8125 31.25 32.375 
L 91.890625 32.375 
Q 91.015625 13.921875 90.046875 3.859375 
Q 88.765625 -11.859375 74.21875 -11.96875 
Q 66.109375 -12.0625 57.328125 -11.96875 
Q 56.734375 -7.765625 55.859375 -3.65625 
Q 64.359375 -4.4375 72.265625 -4.4375 
Q 81.453125 -4.4375 82.421875 4.734375 
Q 83.5 13.53125 83.890625 25.53125 
L 68.84375 25.53125 
Q 62.890625 -0.140625 34.1875 -13.921875 
Q 31.640625 -10.6875 28.71875 -7.28125 
Q 56.0625 3.953125 61.234375 25.53125 
L 46.390625 25.53125 
Q 39.265625 4.734375 8.6875 -7.078125 
Q 6.15625 -3.859375 3.21875 -0.53125 
Q 32.03125 10.203125 38.28125 25.53125 
L 25.09375 25.53125 
Q 16.796875 17.140625 6.640625 10.796875 
Q 4.59375 13.71875 1.765625 17.046875 
z
M 21.96875 48.578125 
L 78.609375 48.578125 
L 78.609375 56.78125 
L 21.96875 56.78125 
z
M 78.609375 71.625 
L 21.96875 71.625 
L 21.96875 63.625 
L 78.609375 63.625 
z
" id="MicrosoftYaHei-6613"/>
       <path d="M 3.03125 66.265625 
L 49.90625 66.265625 
Q 44.96875 75.640625 42.1875 79.9375 
L 49.8125 83.546875 
Q 52.546875 79.34375 58.015625 69.875 
L 50.875 66.265625 
L 97.171875 66.265625 
L 97.171875 58.84375 
L 37.9375 58.84375 
Q 37.59375 49.953125 37.203125 43.703125 
L 84.375 43.703125 
Q 83.203125 22.515625 81.84375 6.890625 
Q 80.765625 -10.796875 64.65625 -10.796875 
Q 57.234375 -10.796875 44.828125 -10.015625 
Q 44.34375 -6.296875 43.359375 -1.03125 
Q 55.765625 -2.6875 63.484375 -2.6875 
Q 72.46875 -2.6875 73.53125 7.953125 
Q 74.703125 19.578125 75.59375 36.375 
L 36.671875 36.375 
Q 33.9375 4.15625 6.84375 -13.625 
Q 4.203125 -10.5 0.875 -6.984375 
Q 26.65625 10.015625 28.515625 38.53125 
Q 29.203125 46.234375 29.640625 58.84375 
L 3.03125 58.84375 
z
" id="MicrosoftYaHei-65b9"/>
       <path d="M 42.484375 -3.765625 
Q 69.53125 -4.046875 98.734375 -3.375 
Q 97.078125 -7.28125 95.515625 -10.890625 
Q 68.75 -11.28125 41.21875 -10.796875 
Q 24.90625 -10.59375 17 0.34375 
Q 14.15625 -1.90625 5.5625 -12.15625 
L 1.375 -3.859375 
Q 7.421875 1.609375 13.484375 6.78125 
L 13.484375 40.875 
L 2.34375 40.875 
L 2.34375 48 
L 21.09375 48 
L 21.09375 5.328125 
Q 28.21875 -3.375 42.484375 -3.765625 
z
M 29.296875 59.234375 
L 56.25 59.234375 
L 56.25 82.28125 
L 64.0625 82.28125 
L 64.0625 59.234375 
L 94.53125 59.234375 
L 94.53125 52.09375 
L 63.875 52.09375 
Q 63.484375 44.96875 61.921875 38.625 
Q 78.8125 25.046875 93.84375 9.625 
L 87.984375 3.078125 
Q 74.8125 18.015625 59.765625 31.59375 
Q 52.546875 12.15625 32.515625 1.125 
Q 29.890625 4.734375 27.046875 7.5625 
Q 53.90625 21.921875 56.0625 52.09375 
L 29.296875 52.09375 
z
M 11.421875 81.890625 
Q 20.015625 71.625 26.265625 63.03125 
L 19.4375 58.15625 
Q 12.984375 67.921875 5.375 77.484375 
z
" id="MicrosoftYaHei-8fbe"/>
       <path d="M 8.203125 62.0625 
L 45.796875 62.0625 
L 45.796875 83.34375 
L 54.203125 83.34375 
L 54.203125 62.0625 
L 92.1875 62.0625 
L 92.1875 17.53125 
L 84.1875 17.53125 
L 84.1875 22.796875 
L 54.203125 22.796875 
L 54.203125 -13.53125 
L 45.796875 -13.53125 
L 45.796875 22.796875 
L 16.21875 22.796875 
L 16.21875 17.53125 
L 8.203125 17.53125 
z
M 84.1875 54.828125 
L 54.203125 54.828125 
L 54.203125 30.03125 
L 84.1875 30.03125 
z
M 16.21875 30.03125 
L 45.796875 30.03125 
L 45.796875 54.828125 
L 16.21875 54.828125 
z
" id="MicrosoftYaHei-4e2d"/>
       <path d="M 45.3125 21.234375 
L 50.984375 24.359375 
Q 54.984375 17.828125 60.453125 7.28125 
L 54.59375 3.46875 
Q 53.375 6 52.25 8.25 
Q 47.515625 5.078125 39.75 -0.34375 
Q 37.796875 -1.609375 34.671875 -5.03125 
L 29.203125 1.421875 
Q 32.234375 4.734375 32.234375 10.296875 
L 32.234375 77.59375 
L 56.34375 77.59375 
L 56.34375 28.171875 
L 50.09375 28.171875 
L 50.09375 31.390625 
L 38.578125 31.390625 
L 38.578125 7.5625 
Q 43.453125 10.453125 49.171875 14.3125 
Q 47.015625 18.40625 45.3125 21.234375 
z
M 67.390625 40.375 
L 75.78125 40.375 
Q 77.34375 51.5625 77.34375 71.34375 
L 60.9375 71.34375 
L 60.9375 77.59375 
L 95.3125 77.59375 
L 95.3125 71.34375 
L 83.796875 71.34375 
Q 83.890625 52.25 82.375 40.375 
L 95.90625 40.375 
L 95.90625 34.125 
L 81.390625 34.125 
Q 80.5625 29.640625 79.296875 25.4375 
L 82.515625 25.4375 
L 82.515625 0.921875 
Q 82.515625 -3.5625 85.9375 -3.5625 
L 87.796875 -3.5625 
Q 90.328125 -3.5625 91.3125 0.34375 
Q 92.390625 4.4375 92.1875 13.328125 
Q 95.796875 11.671875 98.734375 10.796875 
Q 98.53125 2.203125 97.078125 -3.375 
Q 95.015625 -10.203125 89.75 -10.203125 
L 83.890625 -10.203125 
Q 76.078125 -10.203125 76.078125 -0.046875 
L 76.078125 16.75 
Q 68.21875 -0.640625 51.265625 -13.140625 
Q 49.21875 -10.109375 46.296875 -7.5625 
Q 69.140625 8.34375 74.65625 34.125 
L 60.84375 34.125 
L 63.484375 66.453125 
L 69.53125 66.453125 
z
M 1.171875 21.625 
Q 8.890625 37.015625 13.375 56.5 
L 2.640625 56.5 
L 2.640625 62.546875 
L 14.265625 62.546875 
L 14.265625 83.15625 
L 20.703125 83.15625 
L 20.703125 62.546875 
L 29.890625 62.546875 
L 29.890625 56.5 
L 20.703125 56.5 
L 20.703125 43.359375 
L 23.34375 45.65625 
Q 28.421875 40.28125 31.546875 36.078125 
L 26.953125 32.171875 
Q 23.96875 36.578125 20.703125 40.4375 
L 20.703125 -12.84375 
L 14.265625 -12.84375 
L 14.265625 42.046875 
Q 9.71875 23.921875 4 13.140625 
Q 2.734375 17.234375 1.171875 21.625 
z
M 38.578125 37.453125 
L 50.09375 37.453125 
L 50.09375 51.515625 
L 38.578125 51.515625 
z
M 50.09375 71.53125 
L 38.578125 71.53125 
L 38.578125 57.5625 
L 50.09375 57.5625 
z
" id="MicrosoftYaHei-6982"/>
       <path d="M 3.71875 1.125 
L 69.875 1.125 
L 71.09375 17.921875 
L 16.015625 17.921875 
L 16.015625 24.859375 
L 22.171875 67.828125 
L 7.234375 67.828125 
L 7.234375 74.859375 
L 92.96875 74.859375 
L 92.96875 67.828125 
L 30.375 67.828125 
L 28.265625 53.46875 
L 81.84375 53.46875 
L 78.078125 1.125 
L 96.6875 1.125 
L 96.6875 -5.71875 
L 3.71875 -5.71875 
z
M 73.140625 46.4375 
L 27.296875 46.4375 
L 24.21875 24.953125 
L 71.578125 24.953125 
z
" id="MicrosoftYaHei-4e92"/>
       <path d="M 1.265625 8.640625 
Q 4.984375 9.234375 8.6875 9.859375 
L 8.6875 69.1875 
L 2.34375 69.1875 
L 2.34375 76.03125 
L 44.53125 76.03125 
L 44.53125 69.1875 
L 37.203125 69.1875 
L 37.203125 14.890625 
Q 41.65625 15.71875 46.09375 16.546875 
Q 46.296875 12.546875 46.78125 9.71875 
Q 42.140625 8.796875 37.203125 7.8125 
L 37.203125 -12.84375 
L 30.078125 -12.84375 
L 30.078125 6.34375 
Q 17.53125 3.8125 3.125 0.828125 
z
M 40.625 37.453125 
L 63.1875 37.453125 
Q 63.578125 44.578125 63.53125 55.125 
L 43.359375 55.125 
L 43.359375 62.359375 
L 69.734375 62.359375 
Q 74.125 69.390625 81.25 82.953125 
L 88.875 79.34375 
Q 82.8125 69.921875 77.59375 62.359375 
L 93.953125 62.359375 
L 93.953125 55.125 
L 71.09375 55.125 
Q 71.09375 44.53125 70.75 37.453125 
L 97.265625 37.453125 
L 97.265625 30.21875 
L 71.734375 30.21875 
Q 79.203125 6.890625 98.640625 -4.4375 
Q 95.125 -7.953125 92.390625 -11.765625 
Q 75.046875 1.375 67.96875 21.140625 
Q 62.59375 0.203125 44.234375 -12.75 
Q 41.21875 -8.9375 38.765625 -6.390625 
Q 59.125 6.453125 62.59375 30.21875 
L 40.625 30.21875 
z
M 30.078125 13.578125 
L 30.078125 27.390625 
L 15.828125 27.390625 
L 15.828125 11.078125 
Q 23 12.3125 30.078125 13.578125 
z
M 15.828125 34.03125 
L 30.078125 34.03125 
L 30.078125 48.296875 
L 15.828125 48.296875 
z
M 15.828125 54.9375 
L 30.078125 54.9375 
L 30.078125 69.1875 
L 15.828125 69.1875 
z
M 47.078125 78.953125 
L 52.734375 82.953125 
Q 58.59375 76.3125 63.765625 68.40625 
L 57.421875 64.015625 
Q 53.328125 70.75 47.078125 78.953125 
z
" id="MicrosoftYaHei-8054"/>
       <path d="M 8.640625 11.625 
Q 16.265625 6.640625 24.515625 6.640625 
Q 32.328125 6.640625 37.109375 11 
Q 41.890625 15.375 41.890625 22.609375 
Q 41.890625 29.890625 37.03125 33.890625 
Q 32.171875 37.890625 22.953125 37.890625 
Q 18.5 37.890625 10.984375 37.203125 
L 10.984375 75.640625 
L 48.1875 75.640625 
L 48.1875 67.1875 
L 19.875 67.1875 
L 19.875 45.796875 
Q 24.125 46.046875 26.265625 46.046875 
Q 38.234375 46.046875 44.921875 39.984375 
Q 51.609375 33.9375 51.609375 23.296875 
Q 51.609375 12.3125 44.421875 5.515625 
Q 37.25 -1.265625 24.609375 -1.265625 
Q 14.015625 -1.265625 8.640625 1.859375 
z
" id="MicrosoftYaHei-35"/>
       <path d="M 4.4375 36.328125 
Q 4.4375 56.34375 11.078125 66.625 
Q 17.71875 76.90625 30.328125 76.90625 
Q 54.34375 76.90625 54.34375 38.140625 
Q 54.34375 19 47.578125 8.859375 
Q 40.828125 -1.265625 28.609375 -1.265625 
Q 17.09375 -1.265625 10.765625 8.34375 
Q 4.4375 17.96875 4.4375 36.328125 
z
M 14.203125 36.765625 
Q 14.203125 6.640625 29.5 6.640625 
Q 44.53125 6.640625 44.53125 37.25 
Q 44.53125 68.953125 29.78125 68.953125 
Q 14.203125 68.953125 14.203125 36.765625 
z
" id="MicrosoftYaHei-30"/>
       <path d="M 50.4375 0 
L 9.765625 0 
L 9.765625 75.640625 
L 48.734375 75.640625 
L 48.734375 66.9375 
L 19.53125 66.9375 
L 19.53125 42.71875 
L 46.578125 42.71875 
L 46.578125 34.078125 
L 19.53125 34.078125 
L 19.53125 8.640625 
L 50.4375 8.640625 
z
" id="MicrosoftYaHei-45"/>
       <path d="M 55.46875 66.9375 
L 33.640625 66.9375 
L 33.640625 0 
L 23.828125 0 
L 23.828125 66.9375 
L 2.09375 66.9375 
L 2.09375 75.640625 
L 55.46875 75.640625 
z
" id="MicrosoftYaHei-54"/>
       <path d="M 48.734375 66.9375 
L 19.53125 66.9375 
L 19.53125 41.65625 
L 46.578125 41.65625 
L 46.578125 33.0625 
L 19.53125 33.0625 
L 19.53125 0 
L 9.765625 0 
L 9.765625 75.640625 
L 48.734375 75.640625 
z
" id="MicrosoftYaHei-46"/>
      </defs>
      <g transform="translate(114.215445 425.671875)rotate(-90)scale(0.1 -0.1)">
       <use xlink:href="#MicrosoftYaHei-6613"/>
       <use x="100" xlink:href="#MicrosoftYaHei-65b9"/>
       <use x="200" xlink:href="#MicrosoftYaHei-8fbe"/>
       <use x="300" xlink:href="#MicrosoftYaHei-4e2d"/>
       <use x="400" xlink:href="#MicrosoftYaHei-6982"/>
       <use x="500" xlink:href="#MicrosoftYaHei-4e92"/>
       <use x="600" xlink:href="#MicrosoftYaHei-8054"/>
       <use x="700" xlink:href="#MicrosoftYaHei-35"/>
       <use x="758.642578" xlink:href="#MicrosoftYaHei-30"/>
       <use x="817.285156" xlink:href="#MicrosoftYaHei-45"/>
       <use x="872.265625" xlink:href="#MicrosoftYaHei-54"/>
       <use x="929.589844" xlink:href="#MicrosoftYaHei-46"/>
      </g>
     </g>
    </g>
    <g id="xtick_2">
     <g id="line2d_2">
      <g>
       <use style="stroke:#000000;stroke-width:0.8;" x="154.384615" xlink:href="#m4e624f6d52" y="320.4"/>
      </g>
     </g>
     <g id="text_2">
      <!-- 易方达沪深300医药ETF -->
      <defs>
       <path d="M 55.46875 79.34375 
L 61.921875 83.453125 
Q 66.3125 78.171875 70.703125 72.125 
L 64.9375 68.40625 
L 93.75 68.40625 
L 93.75 24.265625 
L 86.234375 24.265625 
L 86.234375 28.953125 
L 42.484375 28.953125 
Q 41.890625 3.375 28.71875 -13.71875 
Q 25.6875 -10.6875 22.359375 -8.15625 
Q 35.359375 7.078125 35.25 36.859375 
L 35.25 68.40625 
L 63.09375 68.40625 
Q 59.859375 73.6875 55.46875 79.34375 
z
M 42.875 61.375 
Q 42.875 42.4375 42.78125 35.984375 
L 86.234375 35.984375 
L 86.234375 61.375 
z
M 15.921875 27.203125 
Q 20.21875 24.953125 24.21875 23.296875 
Q 19.140625 6.890625 12.984375 -12.640625 
L 4.296875 -8.640625 
Q 11.140625 8.0625 15.921875 27.203125 
z
M 5.375 56.109375 
Q 15.828125 49.859375 24.03125 43.609375 
L 18.65625 36.578125 
Q 8.890625 44.484375 0.6875 49.859375 
z
M 10.640625 81.59375 
Q 20.609375 74.75 28.21875 68.5 
L 22.859375 61.859375 
Q 13.484375 69.96875 5.765625 75.828125 
z
" id="MicrosoftYaHei-6caa"/>
       <path d="M 98.734375 2.203125 
Q 95.90625 -1.3125 93.171875 -4.734375 
Q 76.65625 6.0625 66.40625 23.046875 
L 66.40625 -12.75 
L 58.6875 -12.75 
L 58.6875 23.34375 
Q 47.65625 6.453125 29.78125 -5.8125 
Q 26.265625 -1.8125 23.921875 0.34375 
Q 45.0625 12.640625 56.640625 28.5625 
L 29.203125 28.5625 
L 29.203125 35.6875 
L 58.6875 35.6875 
L 58.6875 47.90625 
L 66.40625 47.90625 
L 66.40625 35.6875 
L 96.578125 35.6875 
L 96.578125 28.5625 
L 67.96875 28.5625 
Q 80.46875 11.671875 98.734375 2.203125 
z
M 31.84375 76.609375 
L 94.734375 76.609375 
L 94.734375 60.40625 
L 86.921875 60.40625 
L 86.921875 69.1875 
L 39.65625 69.1875 
L 39.65625 60.109375 
L 31.84375 60.109375 
z
M 15.328125 28.953125 
Q 19.4375 27.09375 23.34375 25.53125 
Q 18.75 9.625 11.921875 -11.96875 
L 3.609375 -8.84375 
Q 10.453125 9.421875 15.328125 28.953125 
z
M 53.21875 63.234375 
L 58.40625 57.953125 
Q 46.296875 47.3125 35.25 39.796875 
Q 33.203125 42.921875 30.46875 46.046875 
Q 43.359375 54.046875 53.21875 63.234375 
z
M 67 58.0625 
L 71.6875 63.234375 
Q 84.078125 54.828125 95.015625 46.046875 
L 89.84375 39.984375 
Q 79.109375 49.5625 67 58.0625 
z
M 10.359375 81.390625 
Q 21.1875 73.96875 29.59375 67.328125 
Q 26.46875 63.71875 24.125 60.984375 
Q 13.28125 70.265625 5.5625 75.828125 
z
M 6.34375 56.984375 
Q 17.09375 50.140625 25.390625 43.796875 
Q 23.921875 42.328125 20.125 37.359375 
Q 12.015625 44.09375 1.5625 51.421875 
z
" id="MicrosoftYaHei-6df1"/>
       <path d="M 6.984375 12.640625 
Q 14.75 6.640625 24.515625 6.640625 
Q 32.328125 6.640625 36.890625 10.46875 
Q 41.453125 14.3125 41.453125 20.75 
Q 41.453125 35.109375 20.90625 35.109375 
L 14.59375 35.109375 
L 14.59375 43.015625 
L 20.609375 43.015625 
Q 38.8125 43.015625 38.8125 56.5 
Q 38.8125 68.953125 24.90625 68.953125 
Q 16.9375 68.953125 9.90625 63.578125 
L 9.90625 72.609375 
Q 17.328125 76.90625 27.25 76.90625 
Q 36.921875 76.90625 42.78125 71.84375 
Q 48.640625 66.796875 48.640625 58.734375 
Q 48.640625 43.890625 33.5 39.65625 
L 33.5 39.453125 
Q 41.703125 38.578125 46.453125 33.671875 
Q 51.21875 28.765625 51.21875 21.4375 
Q 51.21875 11.234375 43.875 4.984375 
Q 36.53125 -1.265625 24.3125 -1.265625 
Q 13.578125 -1.265625 6.984375 2.734375 
z
" id="MicrosoftYaHei-33"/>
       <path d="M 9.078125 77.984375 
L 96 77.984375 
L 96 70.5625 
L 17.09375 70.5625 
L 17.09375 -1.609375 
L 97.078125 -1.609375 
L 97.078125 -9.03125 
L 9.078125 -9.03125 
z
M 22.359375 35.984375 
L 53.21875 35.984375 
Q 54.78125 42.625 54.890625 51.421875 
L 38.765625 51.421875 
Q 34.28125 43.703125 29.203125 37.546875 
Q 26.375 39.984375 22.859375 42.625 
Q 33.203125 54.046875 39.359375 69.578125 
L 46.6875 66.9375 
Q 44.734375 62.453125 42.578125 58.453125 
L 90.328125 58.453125 
L 90.328125 51.421875 
L 62.703125 51.421875 
Q 62.59375 42.828125 61.328125 35.984375 
L 94.828125 35.984375 
L 94.828125 28.953125 
L 59.671875 28.953125 
Q 59.078125 27 58.5 25.34375 
Q 74.515625 17.828125 92.28125 7.5625 
L 87.5 0.140625 
Q 72.953125 9.421875 55.28125 19.28125 
Q 46.96875 6.890625 26.5625 -0.828125 
Q 24.3125 2.390625 21.296875 5.8125 
Q 46.484375 15.28125 51.078125 28.953125 
L 22.359375 28.953125 
z
" id="MicrosoftYaHei-533b"/>
       <path d="M 37.796875 29.828125 
Q 48.734375 44.484375 55.078125 59.8125 
L 62.59375 57.375 
Q 60.84375 53.65625 59.078125 50.25 
L 92.390625 50.25 
Q 91.890625 20.265625 91.21875 5.90625 
Q 90.71875 -10.984375 73.921875 -10.984375 
Q 65.140625 -10.984375 57.125 -10.890625 
Q 56.453125 -7.078125 55.375 -2.390625 
Q 64.359375 -3.265625 73.53125 -3.265625 
Q 82.328125 -3.265625 83.203125 6 
Q 84.078125 17.234375 84.375 43.21875 
L 55.375 43.21875 
Q 50.09375 33.640625 44.921875 26.3125 
Q 41.703125 28.171875 37.796875 29.828125 
z
M 62.109375 82.859375 
L 69.625 82.859375 
L 69.625 72.90625 
L 97.5625 72.90625 
L 97.5625 65.875 
L 69.625 65.875 
L 69.625 59.234375 
L 62.109375 59.234375 
L 62.109375 65.875 
L 38.578125 65.875 
L 38.578125 58.734375 
L 31.0625 58.734375 
L 31.0625 65.875 
L 2.828125 65.875 
L 2.828125 72.90625 
L 31.0625 72.90625 
L 31.0625 82.859375 
L 38.578125 82.859375 
L 38.578125 72.90625 
L 62.109375 72.90625 
z
M 17.484375 17.828125 
Q 29.296875 19.1875 39.84375 20.84375 
Q 39.15625 16.65625 38.96875 13.921875 
Q 25.484375 12.0625 8.015625 9.125 
L 5.859375 16.15625 
Q 14.0625 22.703125 22.265625 32.5625 
Q 11.8125 31.984375 6.640625 31.5 
L 4.78125 37.9375 
Q 13.28125 46.921875 21.09375 61.375 
L 28.328125 58.0625 
Q 20.40625 46.625 13.671875 38.53125 
Q 19.734375 38.625 27.25 38.921875 
Q 31.25 44.1875 35.25 50.34375 
L 41.890625 46.625 
Q 31.734375 32.5625 17.484375 17.828125 
z
M 5.28125 -1.03125 
Q 25.09375 1.609375 42.578125 4.828125 
Q 42.1875 0.921875 42 -2.390625 
Q 21.1875 -5.90625 7.125 -8.84375 
z
M 51.171875 28.65625 
L 56.546875 33.34375 
Q 63.375 26.125 71.484375 16.546875 
L 65.328125 11.375 
Q 58.59375 20.5625 51.171875 28.65625 
z
" id="MicrosoftYaHei-836f"/>
      </defs>
      <g transform="translate(157.138522 431.535938)rotate(-90)scale(0.1 -0.1)">
       <use xlink:href="#MicrosoftYaHei-6613"/>
       <use x="100" xlink:href="#MicrosoftYaHei-65b9"/>
       <use x="200" xlink:href="#MicrosoftYaHei-8fbe"/>
       <use x="300" xlink:href="#MicrosoftYaHei-6caa"/>
       <use x="400" xlink:href="#MicrosoftYaHei-6df1"/>
       <use x="500" xlink:href="#MicrosoftYaHei-33"/>
       <use x="558.642578" xlink:href="#MicrosoftYaHei-30"/>
       <use x="617.285156" xlink:href="#MicrosoftYaHei-30"/>
       <use x="675.927734" xlink:href="#MicrosoftYaHei-533b"/>
       <use x="775.927734" xlink:href="#MicrosoftYaHei-836f"/>
       <use x="875.927734" xlink:href="#MicrosoftYaHei-45"/>
       <use x="930.908203" xlink:href="#MicrosoftYaHei-54"/>
       <use x="988.232422" xlink:href="#MicrosoftYaHei-46"/>
      </g>
     </g>
    </g>
    <g id="xtick_3">
     <g id="line2d_3">
      <g>
       <use style="stroke:#000000;stroke-width:0.8;" x="197.307692" xlink:href="#m4e624f6d52" y="320.4"/>
      </g>
     </g>
     <g id="text_3">
      <!-- 中欧医疗健康混合A -->
      <defs>
       <path d="M 6.25 74.859375 
L 47.46875 74.859375 
L 47.46875 67.625 
L 13.484375 67.625 
L 13.484375 4.9375 
L 45.703125 4.9375 
L 45.703125 -2.296875 
L 6.25 -2.296875 
z
M 67.28125 57.5625 
L 74.609375 57.5625 
Q 74.65625 50.78125 74.421875 45.171875 
Q 78.078125 6.109375 98.734375 -5.90625 
Q 95.609375 -9.328125 92.671875 -12.640625 
Q 76.375 -0.734375 71.390625 25.828125 
Q 66.359375 1.3125 46.390625 -13.140625 
Q 43.359375 -9.328125 41.015625 -6.78125 
Q 63.875 8.640625 66.796875 37.0625 
Q 67.28125 42.71875 67.28125 57.5625 
z
M 82.90625 42.328125 
Q 86.921875 54.828125 89.15625 62.359375 
L 61.71875 62.359375 
Q 57.8125 50.046875 53.125 39.796875 
Q 50 41.453125 46.578125 42.828125 
Q 55.28125 61.1875 59.578125 83.0625 
L 67 81.59375 
Q 65.53125 75.390625 63.875 69.578125 
L 96.78125 69.578125 
L 96.78125 61.96875 
Q 93.5625 51.703125 90.046875 40.1875 
Q 86.234375 41.546875 82.90625 42.328125 
z
M 17.1875 56.296875 
L 23.046875 59.515625 
Q 28.078125 51.46875 32.46875 44.390625 
Q 36.859375 53.609375 40.71875 62.9375 
L 47.5625 59.8125 
Q 42.140625 47.65625 36.921875 37.25 
Q 44.625 24.8125 50.203125 15.765625 
L 43.65625 11.859375 
Q 38.8125 20.21875 33.109375 29.78125 
Q 27.640625 19.4375 22.46875 11.078125 
Q 19.4375 13.03125 16.5 14.5 
Q 23.09375 25.6875 28.8125 36.96875 
Q 23.390625 46.140625 17.1875 56.296875 
z
" id="MicrosoftYaHei-6b27"/>
       <path d="M 50.6875 80.125 
L 57.71875 83.546875 
Q 61.234375 77.484375 64.15625 71.625 
L 98.4375 71.625 
L 98.4375 64.59375 
L 24.90625 64.59375 
L 24.90625 37.25 
Q 24.90625 2.203125 11.71875 -13.921875 
Q 8.890625 -10.203125 5.859375 -7.28125 
Q 15.234375 5.125 17.09375 26.125 
Q 8.203125 20.65625 3.328125 17.625 
L 1.46875 25.828125 
Q 9.375 29.640625 17.578125 34.234375 
L 17.578125 71.625 
L 55.46875 71.625 
Q 52.9375 76.609375 50.6875 80.125 
z
M 58.796875 32.375 
L 79.109375 45.953125 
L 31.0625 45.953125 
L 31.0625 52.875 
L 91.21875 52.875 
L 91.21875 45.84375 
L 66.40625 28.65625 
L 66.40625 0.4375 
Q 66.40625 -11.1875 55.171875 -11.1875 
Q 51.265625 -11.1875 38.875 -10.984375 
Q 38.578125 -6.78125 37.703125 -2.6875 
Q 47.359375 -3.65625 53.125 -3.65625 
Q 58.796875 -3.65625 58.796875 2.09375 
z
M 1.859375 59.03125 
L 8.015625 61.375 
Q 11.53125 53.5625 15.234375 42.71875 
L 8.40625 40.1875 
Q 5.375 50.4375 1.859375 59.03125 
z
" id="MicrosoftYaHei-7597"/>
       <path d="M 47.953125 15.578125 
L 65.53125 15.578125 
L 65.53125 24.171875 
L 50.203125 24.171875 
L 50.203125 29.640625 
L 65.53125 29.640625 
L 65.53125 38.234375 
L 51.5625 38.234375 
L 51.5625 43.703125 
L 65.53125 43.703125 
L 65.53125 52.203125 
L 46.6875 52.203125 
L 46.6875 57.859375 
L 65.53125 57.859375 
L 65.53125 66.359375 
L 51.765625 66.359375 
L 51.765625 71.828125 
L 65.53125 71.828125 
L 65.53125 81.984375 
L 72.171875 81.984375 
L 72.171875 71.828125 
L 89.75 71.828125 
L 89.75 57.859375 
L 97.859375 57.859375 
L 97.859375 52.203125 
L 89.75 52.203125 
L 89.75 35.890625 
L 83.203125 35.890625 
L 83.203125 38.234375 
L 72.171875 38.234375 
L 72.171875 29.640625 
L 91.40625 29.640625 
L 91.40625 24.171875 
L 72.171875 24.171875 
L 72.171875 15.578125 
L 92.875 15.578125 
L 92.875 10.109375 
L 72.171875 10.109375 
L 72.171875 -0.046875 
L 65.53125 -0.046875 
L 65.53125 10.109375 
L 47.953125 10.109375 
z
M 28.90625 30.609375 
Q 31.15625 20.265625 35.640625 13.140625 
Q 39.9375 23.96875 40.140625 37.0625 
L 25.59375 37.0625 
L 25.59375 43.5 
L 39.0625 65.96875 
L 26.171875 65.96875 
L 26.171875 72.21875 
L 46.875 72.21875 
L 46.875 65.875 
L 33.296875 43.3125 
L 46.875 43.3125 
L 46.875 36.578125 
Q 46.484375 20.265625 40.53125 6.984375 
Q 50.984375 -3.375 69.234375 -2.78125 
Q 83.40625 -2.984375 98.734375 -2.203125 
Q 97.265625 -5.90625 95.703125 -10.015625 
Q 82.234375 -10.015625 68.453125 -9.8125 
Q 48.828125 -10.109375 37.203125 0.53125 
Q 32.8125 -6.984375 26.375 -13.53125 
Q 23.640625 -10.296875 21.1875 -8.15625 
Q 27.9375 -1.609375 32.328125 6.109375 
Q 25.984375 14.796875 23.140625 28.171875 
z
M 0.875 35.296875 
Q 13.578125 56.296875 19.140625 82.671875 
L 25.875 81 
Q 23.25 69 19.140625 57.953125 
L 19.140625 -12.75 
L 12.703125 -12.75 
L 12.703125 43.015625 
Q 8.6875 35.015625 3.90625 27.59375 
Q 2.640625 31.78125 0.875 35.296875 
z
M 83.203125 43.703125 
L 83.203125 52.203125 
L 72.171875 52.203125 
L 72.171875 43.703125 
z
M 83.203125 66.359375 
L 72.171875 66.359375 
L 72.171875 57.859375 
L 83.203125 57.859375 
z
" id="MicrosoftYaHei-5065"/>
       <path d="M 48.4375 79.9375 
L 55.171875 83.546875 
Q 58.109375 78.859375 61.421875 73 
L 96.78125 73 
L 96.78125 66.546875 
L 18.953125 66.546875 
L 18.953125 44.78125 
L 51.859375 44.78125 
L 51.859375 52.09375 
L 25.09375 52.09375 
L 25.09375 57.953125 
L 51.859375 57.953125 
L 51.859375 64.40625 
L 58.890625 64.40625 
L 58.890625 57.953125 
L 87.015625 57.953125 
L 87.015625 44.78125 
L 98.046875 44.78125 
L 98.046875 38.8125 
L 87.015625 38.8125 
L 87.015625 23.484375 
L 80.375 23.484375 
L 80.375 25.53125 
L 58.890625 25.53125 
L 58.890625 23.390625 
Q 63.671875 17.53125 69.140625 12.75 
Q 79.109375 17.921875 86.921875 22.90625 
L 91.5 17.140625 
Q 83.6875 12.9375 74.421875 8.546875 
Q 84.671875 0.828125 97.078125 -3.171875 
Q 94.140625 -7.078125 92.1875 -10.015625 
Q 70.609375 -0.53125 58.890625 13.921875 
L 58.890625 -2.09375 
Q 58.890625 -12.453125 48.140625 -12.453125 
Q 43.65625 -12.453125 36.328125 -12.25 
Q 35.9375 -8.25 35.15625 -4.546875 
Q 43.0625 -5.21875 46.96875 -5.21875 
Q 51.65625 -5.21875 51.859375 -0.34375 
L 51.859375 5.515625 
Q 36.71875 0.4375 19.140625 -5.515625 
L 17.28125 1.421875 
Q 37.40625 7.28125 51.859375 12.25 
L 51.859375 25.53125 
L 24.515625 25.53125 
L 24.515625 31.390625 
L 51.859375 31.390625 
L 51.859375 38.8125 
L 18.953125 38.8125 
L 18.953125 36.375 
Q 18.953125 5.125 6.734375 -13.328125 
Q 4.296875 -10.015625 1.375 -6.6875 
Q 11.53125 9.421875 11.53125 35.984375 
L 11.53125 73 
L 52.640625 73 
Q 50.6875 76.21875 48.4375 79.9375 
z
M 80.375 31.390625 
L 80.375 38.8125 
L 58.890625 38.8125 
L 58.890625 31.390625 
z
M 80.375 52.09375 
L 58.890625 52.09375 
L 58.890625 44.78125 
L 80.375 44.78125 
z
M 23.921875 18.3125 
L 27.828125 23.09375 
Q 35.546875 18.703125 41.40625 14.40625 
L 36.921875 8.9375 
Q 31.0625 13.8125 23.921875 18.3125 
z
" id="MicrosoftYaHei-5eb7"/>
       <path d="M 38.28125 35.984375 
L 30.859375 35.984375 
L 30.859375 78.171875 
L 89.84375 78.171875 
L 89.84375 35.40625 
L 82.421875 35.40625 
L 82.421875 39.40625 
L 38.28125 39.40625 
z
M 62.3125 34.234375 
L 69.53125 34.234375 
L 69.53125 18.359375 
Q 81.984375 25.046875 91.40625 31.59375 
L 96.09375 25.140625 
Q 86.1875 19.09375 69.53125 10.5 
L 69.53125 3.171875 
Q 69.53125 -3.078125 75 -3.078125 
L 82.125 -3.078125 
Q 86.921875 -3.078125 87.890625 0.140625 
Q 89.359375 5.125 90.53125 14.109375 
Q 94.046875 12.546875 97.859375 11.375 
Q 95.90625 0.921875 94.828125 -2.78125 
Q 92.875 -10.5 83.015625 -10.5 
L 74.03125 -10.5 
Q 62.3125 -10.5 62.3125 1.703125 
z
M 58.40625 6.109375 
Q 58.296875 1.90625 58.40625 -1.3125 
Q 47.65625 -5.609375 40.625 -8.640625 
Q 36.421875 -10.5 33.59375 -12.453125 
L 29.203125 -6.109375 
Q 31.640625 -4.828125 31.640625 0.53125 
L 31.640625 33.453125 
L 38.875 33.453125 
L 38.875 23.875 
L 59.1875 23.875 
L 59.1875 17.046875 
L 38.875 17.046875 
L 38.875 -1.515625 
Q 48.4375 2.09375 58.40625 6.109375 
z
M 82.421875 71.4375 
L 38.28125 71.4375 
L 38.28125 62.15625 
L 82.421875 62.15625 
z
M 38.28125 46.140625 
L 82.421875 46.140625 
L 82.421875 55.421875 
L 38.28125 55.421875 
z
M 15.328125 28.953125 
Q 19.4375 27.09375 23.34375 25.53125 
Q 18.75 9.625 11.921875 -11.96875 
L 3.609375 -8.84375 
Q 10.453125 9.421875 15.328125 28.953125 
z
M 6.34375 56.984375 
Q 16.109375 51.03125 23.921875 45.0625 
Q 22.46875 43.609375 18.65625 38.625 
Q 11.71875 44.484375 1.5625 51.421875 
z
M 10.15625 81.390625 
Q 22.171875 73.1875 27.546875 69 
Q 24.515625 65.484375 22.265625 62.84375 
Q 13.765625 70.0625 5.5625 76.03125 
z
" id="MicrosoftYaHei-6df7"/>
       <path d="M 16.015625 29.828125 
L 84.078125 29.828125 
L 84.078125 -13.53125 
L 76.265625 -13.53125 
L 76.265625 -6.984375 
L 23.828125 -6.984375 
L 23.828125 -13.71875 
L 16.015625 -13.71875 
z
M 57.8125 81.78125 
L 55.46875 78.953125 
Q 71.78125 57.765625 98.734375 47.015625 
Q 95.703125 42.71875 93.5625 39.203125 
Q 85.640625 43.015625 78.515625 47.796875 
L 78.515625 42.234375 
L 21.390625 42.234375 
L 21.390625 47.125 
Q 14.265625 42.4375 6.15625 37.9375 
Q 4.203125 41.265625 1.265625 45.265625 
Q 31.453125 60.40625 46.875 81.78125 
z
M 76.265625 22.703125 
L 23.828125 22.703125 
L 23.828125 -0.046875 
L 76.265625 -0.046875 
z
M 50.296875 73.296875 
Q 40.328125 60.5 24.21875 49.171875 
L 76.46875 49.171875 
Q 61.625 59.328125 50.296875 73.296875 
z
" id="MicrosoftYaHei-5408"/>
       <path d="M 69.1875 0 
L 58.40625 0 
L 50.6875 20.703125 
L 19.1875 20.703125 
L 11.921875 0 
L 1.125 0 
L 29.9375 75.640625 
L 40.375 75.640625 
z
M 47.65625 29.25 
L 36.234375 60.6875 
Q 35.6875 62.203125 35.0625 65.96875 
L 34.8125 65.96875 
Q 34.28125 62.546875 33.59375 60.6875 
L 22.265625 29.25 
z
" id="MicrosoftYaHei-41"/>
      </defs>
      <g transform="translate(200.061599 414.435938)rotate(-90)scale(0.1 -0.1)">
       <use xlink:href="#MicrosoftYaHei-4e2d"/>
       <use x="100" xlink:href="#MicrosoftYaHei-6b27"/>
       <use x="200" xlink:href="#MicrosoftYaHei-533b"/>
       <use x="300" xlink:href="#MicrosoftYaHei-7597"/>
       <use x="400" xlink:href="#MicrosoftYaHei-5065"/>
       <use x="500" xlink:href="#MicrosoftYaHei-5eb7"/>
       <use x="600" xlink:href="#MicrosoftYaHei-6df7"/>
       <use x="700" xlink:href="#MicrosoftYaHei-5408"/>
       <use x="800" xlink:href="#MicrosoftYaHei-41"/>
      </g>
     </g>
    </g>
    <g id="xtick_4">
     <g id="line2d_4">
      <g>
       <use style="stroke:#000000;stroke-width:0.8;" x="240.230769" xlink:href="#m4e624f6d52" y="320.4"/>
      </g>
     </g>
     <g id="text_4">
      <!-- 汇添富中证主要消费ETF -->
      <defs>
       <path d="M 33.890625 77.203125 
L 96.296875 77.203125 
L 96.296875 69.578125 
L 42.1875 69.578125 
L 42.1875 -1.3125 
L 97.65625 -1.3125 
L 97.65625 -8.9375 
L 33.890625 -8.9375 
z
M 15.921875 27.59375 
Q 20.703125 25.046875 24.03125 23.78125 
Q 18.75 6.59375 12.796875 -11.96875 
L 4.296875 -8.0625 
Q 11.140625 8.453125 15.921875 27.59375 
z
M 10.0625 81.890625 
Q 19.234375 75.640625 27.640625 68.796875 
Q 25 65.671875 22.265625 62.15625 
Q 13.578125 69.78125 5.171875 76.125 
z
M 5.375 56.5 
Q 15.4375 50.34375 24.03125 44 
Q 21.09375 40.1875 18.65625 36.96875 
Q 9.96875 44.1875 0.6875 50.25 
z
" id="MicrosoftYaHei-6c47"/>
       <path d="M 23.34375 27.390625 
Q 40.71875 37.453125 47.75 48.484375 
L 27.734375 48.484375 
L 27.734375 55.328125 
L 51.078125 55.328125 
Q 53.71875 62.15625 54.890625 70.265625 
L 32.8125 70.265625 
L 32.8125 77.09375 
L 91.40625 77.09375 
L 91.40625 70.265625 
L 62.5 70.265625 
Q 61.375 61.765625 59.28125 55.328125 
L 96.09375 55.328125 
L 96.09375 48.484375 
L 72.859375 48.484375 
Q 82.46875 34.96875 99.03125 29.9375 
Q 95.703125 26.21875 93.171875 22.40625 
Q 73.921875 31.78125 64.546875 48.484375 
L 56.5 48.484375 
Q 48.96875 33.5 28.515625 21.140625 
Q 26.46875 23.875 23.34375 27.390625 
z
M 54.390625 35.59375 
L 61.8125 35.59375 
L 61.8125 -0.921875 
Q 61.8125 -11.765625 50.390625 -11.765625 
Q 44.53125 -11.765625 39.84375 -11.671875 
Q 39.265625 -8.0625 38.28125 -3.765625 
Q 43.265625 -4.546875 48.140625 -4.546875 
Q 54.390625 -4.546875 54.390625 1.421875 
z
M 13.09375 28.265625 
Q 16.890625 26.8125 20.90625 25.4375 
Q 15.921875 4.734375 12.015625 -12.25 
L 3.609375 -9.71875 
Q 8.796875 6.984375 13.09375 28.265625 
z
M 77.046875 23.09375 
L 83.203125 26.03125 
Q 90.4375 14.59375 96.390625 2.6875 
L 89.65625 -0.640625 
Q 84.859375 9.421875 77.046875 23.09375 
z
M 39.75 25.046875 
L 46.578125 22.21875 
Q 41.21875 8.734375 34.96875 -1.515625 
Q 31.546875 0.25 28.03125 1.609375 
Q 35.15625 12.25 39.75 25.046875 
z
M 64.65625 20.953125 
L 71.09375 23.296875 
Q 75.390625 12.359375 79.296875 -0.640625 
L 71.96875 -3.078125 
Q 68.84375 9.234375 64.65625 20.953125 
z
M 6.15625 56.5 
Q 13.1875 51.609375 23.4375 43.21875 
Q 19.828125 39.109375 17.671875 36.859375 
Q 7.421875 46.234375 1.265625 50.921875 
z
M 9.96875 81.890625 
Q 18.65625 75.046875 26.859375 67.625 
Q 23.53125 64.3125 21 61.671875 
Q 11.8125 70.75 4.984375 76.515625 
z
" id="MicrosoftYaHei-6dfb"/>
       <path d="M 12.3125 25.046875 
L 87.703125 25.046875 
L 87.703125 -12.25 
L 80.671875 -12.25 
L 80.671875 -8.546875 
L 19.34375 -8.546875 
L 19.34375 -12.25 
L 12.3125 -12.25 
z
M 21 49.65625 
L 79 49.65625 
L 79 28.5625 
L 72.171875 28.5625 
L 72.171875 31.296875 
L 27.828125 31.296875 
L 27.828125 28.5625 
L 21 28.5625 
z
M 5.671875 73 
L 47.015625 73 
Q 44.875 76.703125 42.390625 80.421875 
L 49.125 83.84375 
Q 52.546875 78.765625 55.765625 73 
L 94.234375 73 
L 94.234375 53.265625 
L 86.921875 53.265625 
L 86.921875 66.9375 
L 12.984375 66.9375 
L 12.984375 53.265625 
L 5.671875 53.265625 
z
M 18.75 61.078125 
L 81.15625 61.078125 
L 81.15625 55.421875 
L 18.75 55.421875 
z
M 72.171875 44 
L 27.828125 44 
L 27.828125 36.96875 
L 72.171875 36.96875 
z
M 19.34375 -2.6875 
L 46.484375 -2.6875 
L 46.484375 5.421875 
L 19.34375 5.421875 
z
M 53.515625 -2.6875 
L 80.671875 -2.6875 
L 80.671875 5.421875 
L 53.515625 5.421875 
z
M 19.34375 11.078125 
L 46.484375 11.078125 
L 46.484375 19.1875 
L 19.34375 19.1875 
z
M 80.671875 19.1875 
L 53.515625 19.1875 
L 53.515625 11.078125 
L 80.671875 11.078125 
z
" id="MicrosoftYaHei-5bcc"/>
       <path d="M 26.265625 -0.53125 
L 39.84375 -0.53125 
L 39.84375 53.46875 
L 47.359375 53.46875 
L 47.359375 -0.53125 
L 62.890625 -0.53125 
L 62.890625 70.84375 
L 31.640625 70.84375 
L 31.640625 78.078125 
L 96.875 78.078125 
L 96.875 70.84375 
L 70.703125 70.84375 
L 70.703125 41.453125 
L 93.359375 41.453125 
L 93.359375 34.234375 
L 70.703125 34.234375 
L 70.703125 -0.53125 
L 98.4375 -0.53125 
L 98.4375 -7.765625 
L 26.265625 -7.765625 
z
M 32.03125 23.96875 
Q 32.421875 20.5625 33.890625 15.484375 
Q 22.078125 3.765625 16.015625 -3.171875 
L 10.453125 3.171875 
Q 13.375 7.28125 13.375 12.9375 
L 13.375 43.5 
L 1.5625 43.5 
L 1.5625 50.53125 
L 20.90625 50.53125 
L 20.90625 12.453125 
Q 25.390625 16.75 32.03125 23.96875 
z
M 11.03125 81.59375 
Q 22.46875 69.96875 27.046875 64.796875 
L 20.21875 59.03125 
Q 14.0625 67.046875 5.078125 76.421875 
z
" id="MicrosoftYaHei-8bc1"/>
       <path d="M 2.34375 0.140625 
L 45.796875 0.140625 
L 45.796875 28.265625 
L 10.0625 28.265625 
L 10.0625 35.6875 
L 45.796875 35.6875 
L 45.796875 57.953125 
L 6.25 57.953125 
L 6.25 65.375 
L 93.359375 65.375 
L 93.359375 57.953125 
L 54.203125 57.953125 
L 54.203125 35.6875 
L 89.9375 35.6875 
L 89.9375 28.265625 
L 54.203125 28.265625 
L 54.203125 0.140625 
L 97.65625 0.140625 
L 97.65625 -7.078125 
L 2.34375 -7.078125 
z
M 42.09375 79.828125 
L 49.3125 83.546875 
Q 55.28125 74.65625 57.90625 69.78125 
L 50.203125 65.671875 
Q 44.921875 75.4375 42.09375 79.828125 
z
" id="MicrosoftYaHei-4e3b"/>
       <path d="M 9.578125 62.15625 
L 34.078125 62.15625 
L 34.078125 72.796875 
L 4.890625 72.796875 
L 4.890625 79.4375 
L 95.125 79.4375 
L 95.125 72.796875 
L 65.828125 72.796875 
L 65.828125 62.15625 
L 90.328125 62.15625 
L 90.328125 33.0625 
L 83.109375 33.0625 
L 83.109375 36.765625 
L 16.796875 36.765625 
L 16.796875 33.0625 
L 9.578125 33.0625 
z
M 1.46875 27.203125 
L 30.609375 27.203125 
Q 33.59375 31.84375 36.234375 36.578125 
L 43.75 33.546875 
Q 41.609375 30.328125 39.5 27.203125 
L 98.4375 27.203125 
L 98.4375 20.5625 
L 75.875 20.5625 
Q 70.265625 10.640625 61.328125 3.859375 
Q 75.828125 -0.484375 91.796875 -5.421875 
L 87.5 -13.03125 
Q 71.09375 -7.328125 53.03125 -1.265625 
Q 35.9375 -10.15625 8.296875 -13.625 
Q 6.546875 -10.015625 4.5 -6.109375 
Q 28.265625 -3.953125 42.96875 2.09375 
Q 31.109375 6.0625 18.5625 10.203125 
Q 22.609375 15.328125 26.171875 20.5625 
L 1.46875 20.5625 
z
M 29.6875 13.328125 
Q 40.375 10.15625 52 6.6875 
Q 61.53125 12.453125 66.703125 20.5625 
L 34.859375 20.5625 
Q 32.28125 16.84375 29.6875 13.328125 
z
M 41.3125 43.015625 
L 58.59375 43.015625 
L 58.59375 55.90625 
L 41.3125 55.90625 
z
M 83.109375 55.90625 
L 65.828125 55.90625 
L 65.828125 43.015625 
L 83.109375 43.015625 
z
M 16.796875 43.015625 
L 34.078125 43.015625 
L 34.078125 55.90625 
L 16.796875 55.90625 
z
M 41.3125 62.15625 
L 58.59375 62.15625 
L 58.59375 72.796875 
L 41.3125 72.796875 
z
" id="MicrosoftYaHei-8981"/>
       <path d="M 39.265625 -12.546875 
L 31.546875 -12.546875 
L 31.546875 55.71875 
L 58.296875 55.71875 
L 58.296875 83.34375 
L 66.40625 83.34375 
L 66.40625 55.71875 
L 92.578125 55.71875 
L 92.578125 -0.734375 
Q 92.578125 -12.15625 81.640625 -12.15625 
Q 75.296875 -12.15625 64.75 -11.859375 
Q 64.15625 -8.25 63.28125 -3.859375 
Q 72.953125 -4.4375 78.609375 -4.4375 
Q 84.859375 -4.4375 84.859375 0.921875 
L 84.859375 10.203125 
L 39.265625 10.203125 
z
M 39.265625 17.234375 
L 84.859375 17.234375 
L 84.859375 29.34375 
L 39.265625 29.34375 
z
M 84.859375 48.390625 
L 39.265625 48.390625 
L 39.265625 36.375 
L 84.859375 36.375 
z
M 13.1875 28.375 
Q 17.1875 26.8125 21.1875 25.4375 
Q 16.40625 6 12.203125 -12.25 
L 3.609375 -9.71875 
Q 8.890625 7.671875 13.1875 28.375 
z
M 74.21875 64.015625 
Q 81.640625 71.53125 88.1875 80.609375 
L 95.21875 75.25 
Q 89.0625 68.015625 79.984375 58.9375 
z
M 6.25 56.59375 
Q 13.578125 51.421875 23.4375 43.3125 
Q 19.828125 39.203125 17.78125 36.96875 
Q 6.734375 46.828125 1.375 50.921875 
z
M 9.96875 81.890625 
Q 17.390625 76.03125 26.765625 67.625 
Q 23.4375 64.203125 21 61.578125 
Q 10.453125 71.828125 4.984375 76.515625 
z
M 30.171875 76.125 
L 35.84375 80.609375 
Q 40.328125 76.515625 50.78125 64.703125 
L 44.140625 59.625 
Q 34.578125 71.625 30.171875 76.125 
z
" id="MicrosoftYaHei-6d88"/>
       <path d="M 8.203125 74.265625 
L 36.234375 74.265625 
Q 36.421875 78.65625 36.421875 82.46875 
L 43.453125 82.46875 
Q 43.453125 78.65625 43.265625 74.265625 
L 60.25 74.265625 
L 60.25 82.46875 
L 67.28125 82.46875 
L 67.28125 74.265625 
L 90.828125 74.265625 
L 90.828125 52 
L 83.796875 52 
L 83.796875 54.4375 
L 67.28125 54.4375 
L 67.28125 45.65625 
L 95.21875 45.65625 
Q 95.015625 38.625 94.140625 33.640625 
Q 93.0625 26.8125 85.359375 26.8125 
Q 84.1875 26.8125 82.421875 26.8125 
L 82.421875 2.984375 
L 75.390625 2.984375 
L 75.390625 22.90625 
L 26.375 22.90625 
L 26.375 1.8125 
L 19.34375 1.8125 
L 19.34375 22.90625 
Q 13.375 20.265625 5.765625 18.015625 
Q 4.5 20.84375 1.5625 24.75 
Q 23.828125 29.546875 30.953125 39.984375 
L 9.46875 39.984375 
L 12.59375 60.109375 
L 35.84375 60.109375 
Q 36.140625 63.921875 36.140625 68.609375 
L 8.203125 68.609375 
z
M 74.125 33.640625 
Q 79.59375 33.0625 83.203125 33.0625 
Q 87.109375 33.0625 87.703125 35.984375 
Q 88.09375 38.140625 88.1875 39.984375 
L 67.28125 39.984375 
L 67.28125 30.421875 
L 60.25 30.421875 
L 60.25 39.984375 
L 39.265625 39.984375 
Q 36.625 34.03125 30.078125 29.15625 
L 75.484375 29.15625 
Q 75 31 74.125 33.640625 
z
M 47.359375 17.4375 
L 54.296875 17.4375 
Q 54.296875 11.1875 52.9375 6.390625 
Q 75.203125 -0.140625 93.359375 -6.59375 
L 89.75 -13.625 
Q 70.015625 -6.296875 50.484375 0.140625 
Q 44.4375 -9.71875 10.453125 -13.71875 
Q 8.59375 -9.03125 7.125 -6.6875 
Q 29.6875 -4.546875 41.015625 0.828125 
Q 47.5625 4.046875 47.359375 17.4375 
z
M 41.109375 45.65625 
L 60.25 45.65625 
L 60.25 54.4375 
L 42.484375 54.4375 
Q 42 49.265625 41.109375 45.65625 
z
M 17.390625 45.65625 
L 33.6875 45.65625 
Q 34.765625 49.078125 35.359375 54.4375 
L 18.5625 54.4375 
z
M 42.875 60.109375 
L 60.25 60.109375 
L 60.25 68.609375 
L 43.171875 68.609375 
Q 43.171875 64.015625 42.875 60.109375 
z
M 83.796875 68.609375 
L 67.28125 68.609375 
L 67.28125 60.109375 
L 83.796875 60.109375 
z
" id="MicrosoftYaHei-8d39"/>
      </defs>
      <g transform="translate(242.984675 433.94375)rotate(-90)scale(0.1 -0.1)">
       <use xlink:href="#MicrosoftYaHei-6c47"/>
       <use x="100" xlink:href="#MicrosoftYaHei-6dfb"/>
       <use x="200" xlink:href="#MicrosoftYaHei-5bcc"/>
       <use x="300" xlink:href="#MicrosoftYaHei-4e2d"/>
       <use x="400" xlink:href="#MicrosoftYaHei-8bc1"/>
       <use x="500" xlink:href="#MicrosoftYaHei-4e3b"/>
       <use x="600" xlink:href="#MicrosoftYaHei-8981"/>
       <use x="700" xlink:href="#MicrosoftYaHei-6d88"/>
       <use x="800" xlink:href="#MicrosoftYaHei-8d39"/>
       <use x="900" xlink:href="#MicrosoftYaHei-45"/>
       <use x="954.980469" xlink:href="#MicrosoftYaHei-54"/>
       <use x="1012.304688" xlink:href="#MicrosoftYaHei-46"/>
      </g>
     </g>
    </g>
    <g id="xtick_5">
     <g id="line2d_5">
      <g>
       <use style="stroke:#000000;stroke-width:0.8;" x="283.153846" xlink:href="#m4e624f6d52" y="320.4"/>
      </g>
     </g>
     <g id="text_5">
      <!-- 华泰柏瑞沪深300ETF -->
      <defs>
       <path d="M 30.46875 49.265625 
Q 43.0625 52.59375 54 57.234375 
L 54 81.78125 
L 61.625 81.78125 
L 61.625 60.6875 
Q 75.921875 67.78125 87.015625 77.296875 
L 92.1875 71.4375 
Q 79.109375 61.28125 61.625 52.875 
L 61.625 44.875 
Q 61.625 38.328125 69.734375 38.328125 
L 80.078125 38.328125 
Q 87.5 38.328125 88.578125 44.671875 
Q 89.65625 50.140625 89.9375 56 
Q 94.734375 53.953125 97.5625 53.078125 
Q 96.6875 46.734375 95.703125 42.140625 
Q 93.84375 31.390625 81.734375 31.390625 
L 67 31.390625 
Q 54 31.390625 54 43.5 
L 54 49.421875 
Q 44.921875 45.453125 34.765625 41.9375 
Q 33.015625 45.5625 30.46875 49.265625 
z
M 2.828125 18.40625 
L 46 18.40625 
L 46 31.390625 
L 53.8125 31.390625 
L 53.8125 18.40625 
L 97.078125 18.40625 
L 97.078125 11.375 
L 53.8125 11.375 
L 53.8125 -13.53125 
L 46 -13.53125 
L 46 11.375 
L 2.828125 11.375 
z
M 2.15625 53.65625 
Q 19.53125 65.765625 29.78125 83.546875 
L 36.71875 80.03125 
Q 32.421875 73.09375 27.4375 66.890625 
L 27.4375 28.765625 
L 19.828125 28.765625 
L 19.828125 58.34375 
Q 13.375 51.8125 5.953125 46.34375 
Q 4.203125 50.046875 2.15625 53.65625 
z
" id="MicrosoftYaHei-534e"/>
       <path d="M 58.015625 20.171875 
Q 64.890625 23.4375 71 27.25 
Q 65.765625 32.171875 62.203125 38.140625 
L 37.15625 38.140625 
Q 32.90625 32.671875 27.390625 27.6875 
Q 34.1875 23.78125 40.71875 19.578125 
L 36.03125 13.625 
Q 29.34375 18.359375 21.921875 23.046875 
Q 14.5 17.28125 5.171875 12.15625 
Q 3.21875 15.28125 0.484375 19 
Q 16.890625 26.859375 27.25 38.140625 
L 2.4375 38.140625 
L 2.4375 44.390625 
L 32.328125 44.390625 
Q 35.546875 48.828125 37.9375 53.765625 
L 9.765625 53.765625 
L 9.765625 60.015625 
L 40.578125 60.015625 
Q 42 63.8125 43.109375 68.109375 
L 6.25 68.109375 
L 6.25 74.359375 
L 44.53125 74.359375 
Q 45.40625 78.65625 46 83.453125 
L 53.90625 82.375 
Q 53.171875 78.125 52.390625 74.359375 
L 93.5625 74.359375 
L 93.5625 68.109375 
L 50.984375 68.109375 
Q 49.859375 63.625 48.640625 60.015625 
L 90.234375 60.015625 
L 90.234375 53.765625 
L 46.296875 53.765625 
Q 44.28125 48.921875 41.5 44.390625 
L 97.5625 44.390625 
L 97.5625 38.140625 
L 70.21875 38.140625 
Q 80.03125 26.078125 99.3125 20.75 
Q 96.578125 16.546875 94.4375 12.9375 
Q 84.1875 17 76.515625 22.609375 
Q 70.171875 18.609375 62.015625 14.40625 
Q 60.546875 16.75 58.015625 20.171875 
z
M 46.875 33.25 
L 54.5 33.25 
L 54.5 -0.25 
Q 54.5 -11.671875 42.578125 -11.671875 
Q 37.59375 -11.671875 30.671875 -11.46875 
Q 30.28125 -8.15625 29.5 -3.375 
Q 36.8125 -4.15625 41.3125 -4.15625 
Q 46.875 -4.15625 46.875 1.03125 
z
M 55.859375 7.078125 
L 58.890625 13.03125 
Q 76.46875 7.671875 92.1875 2 
L 88.671875 -5.328125 
Q 72.75 1.421875 55.859375 7.078125 
z
M 42.578125 13.03125 
Q 43.359375 9.125 44.234375 6.5 
Q 24.125 0.53125 10.546875 -3.765625 
L 8.109375 3.265625 
Q 22.953125 6.984375 42.578125 13.03125 
z
" id="MicrosoftYaHei-6cf0"/>
       <path d="M 42.1875 67.625 
L 59.578125 67.625 
Q 62.109375 74.171875 64.65625 82.953125 
L 72.859375 80.90625 
Q 70.015625 73.578125 67.484375 67.625 
L 93.171875 67.625 
L 93.171875 -12.84375 
L 85.453125 -12.84375 
L 85.453125 -6.203125 
L 49.90625 -6.203125 
L 49.90625 -12.84375 
L 42.1875 -12.84375 
z
M 1.375 21.53125 
Q 10.9375 37.84375 15.234375 56.203125 
L 2.25 56.203125 
L 2.25 62.75 
L 16.015625 62.75 
L 16.015625 82.28125 
L 23.25 82.28125 
L 23.25 62.75 
L 36.421875 62.75 
L 36.421875 56.203125 
L 23.25 56.203125 
L 23.25 42.921875 
L 26.46875 45.953125 
Q 34.859375 37.84375 39.75 32.765625 
L 34.46875 27.484375 
Q 27.9375 35.203125 23.25 40.09375 
L 23.25 -13.140625 
L 16.015625 -13.140625 
L 16.015625 39.40625 
Q 11.140625 23.09375 4.390625 12.9375 
Q 3.125 17.140625 1.375 21.53125 
z
M 49.90625 0.828125 
L 85.453125 0.828125 
L 85.453125 27.390625 
L 49.90625 27.390625 
z
M 85.453125 60.59375 
L 49.90625 60.59375 
L 49.90625 34.421875 
L 85.453125 34.421875 
z
" id="MicrosoftYaHei-67cf"/>
       <path d="M 36.71875 30.90625 
L 55.5625 30.90625 
Q 56.84375 35.640625 57.859375 40.09375 
L 34.671875 40.09375 
L 34.671875 46.734375 
L 98.4375 46.734375 
L 98.4375 40.09375 
L 65.578125 40.09375 
Q 64.0625 35.453125 62.546875 30.90625 
L 94.4375 30.90625 
L 94.4375 -0.25 
Q 94.4375 -12.15625 83.6875 -12.15625 
Q 80.5625 -12.15625 75.59375 -11.96875 
Q 75.046875 -8.984375 74.421875 -6 
L 70.21875 -6 
L 70.21875 24.265625 
L 60.453125 24.265625 
L 60.453125 -7.078125 
L 53.609375 -7.078125 
L 53.609375 24.265625 
L 43.75 24.265625 
L 43.75 -12.9375 
L 36.71875 -12.9375 
z
M 1.171875 6.5 
Q 7.765625 7.90625 14.0625 9.328125 
L 14.0625 36.96875 
L 2.9375 36.96875 
L 2.9375 43.890625 
L 14.0625 43.890625 
L 14.0625 67.140625 
L 1.765625 67.140625 
L 1.765625 74.078125 
L 33.796875 74.078125 
L 33.796875 67.140625 
L 21.296875 67.140625 
L 21.296875 43.890625 
L 31.734375 43.890625 
L 31.734375 36.96875 
L 21.296875 36.96875 
L 21.296875 10.984375 
Q 27.59375 12.453125 33.59375 13.921875 
Q 33.59375 11.765625 33.890625 6.109375 
Q 21.390625 3.265625 3.03125 -1.21875 
z
M 84.1875 52.296875 
L 84.1875 55.125 
L 38.484375 55.125 
L 38.484375 76.703125 
L 45.703125 76.703125 
L 45.703125 61.765625 
L 61.328125 61.765625 
L 61.328125 83.0625 
L 68.5625 83.0625 
L 68.5625 61.765625 
L 84.1875 61.765625 
L 84.1875 76.703125 
L 91.40625 76.703125 
L 91.40625 52.296875 
z
M 82.90625 -5.03125 
Q 87.40625 -5.03125 87.40625 0.34375 
L 87.40625 24.265625 
L 77.046875 24.265625 
L 77.046875 -4.546875 
Q 80.328125 -5.03125 82.90625 -5.03125 
z
" id="MicrosoftYaHei-745e"/>
      </defs>
      <g transform="translate(285.907752 421.535938)rotate(-90)scale(0.1 -0.1)">
       <use xlink:href="#MicrosoftYaHei-534e"/>
       <use x="100" xlink:href="#MicrosoftYaHei-6cf0"/>
       <use x="200" xlink:href="#MicrosoftYaHei-67cf"/>
       <use x="300" xlink:href="#MicrosoftYaHei-745e"/>
       <use x="400" xlink:href="#MicrosoftYaHei-6caa"/>
       <use x="500" xlink:href="#MicrosoftYaHei-6df1"/>
       <use x="600" xlink:href="#MicrosoftYaHei-33"/>
       <use x="658.642578" xlink:href="#MicrosoftYaHei-30"/>
       <use x="717.285156" xlink:href="#MicrosoftYaHei-30"/>
       <use x="775.927734" xlink:href="#MicrosoftYaHei-45"/>
       <use x="830.908203" xlink:href="#MicrosoftYaHei-54"/>
       <use x="888.232422" xlink:href="#MicrosoftYaHei-46"/>
      </g>
     </g>
    </g>
    <g id="xtick_6">
     <g id="line2d_6">
      <g>
       <use style="stroke:#000000;stroke-width:0.8;" x="326.076923" xlink:href="#m4e624f6d52" y="320.4"/>
      </g>
     </g>
     <g id="text_6">
      <!-- 易方达蓝筹精选 -->
      <defs>
       <path d="M 2.4375 -2.78125 
L 14.453125 -2.78125 
L 14.453125 22.796875 
L 86.53125 22.796875 
L 86.53125 -2.78125 
L 97.859375 -2.78125 
L 97.859375 -9.625 
L 2.4375 -9.625 
z
M 2.640625 75.140625 
L 30.859375 75.140625 
L 30.859375 83.25 
L 38.09375 83.25 
L 38.09375 75.140625 
L 62.5 75.140625 
L 62.5 83.25 
L 69.734375 83.25 
L 69.734375 75.140625 
L 97.65625 75.140625 
L 97.65625 68.3125 
L 69.734375 68.3125 
L 69.734375 62.84375 
L 62.5 62.84375 
L 62.5 68.3125 
L 38.09375 68.3125 
L 38.09375 62.84375 
L 30.859375 62.84375 
L 30.859375 68.3125 
L 2.640625 68.3125 
z
M 44.046875 31.203125 
Q 52.9375 44.484375 57.328125 61.46875 
L 64.65625 59.625 
Q 63.578125 56.15625 62.453125 52.984375 
L 96.09375 52.984375 
L 96.09375 46.34375 
L 60.015625 46.34375 
Q 55.71875 35.296875 50.59375 27.09375 
Q 46 30.21875 44.046875 31.203125 
z
M 79.5 16.15625 
L 64.65625 16.15625 
L 64.65625 -2.78125 
L 79.5 -2.78125 
z
M 43.0625 -2.78125 
L 57.8125 -2.78125 
L 57.8125 16.15625 
L 43.0625 16.15625 
z
M 21.484375 -2.78125 
L 36.234375 -2.78125 
L 36.234375 16.15625 
L 21.484375 16.15625 
z
M 32.71875 60.203125 
L 39.9375 60.203125 
L 39.9375 26.8125 
L 32.71875 26.8125 
z
M 12.203125 58.0625 
L 19.4375 58.0625 
L 19.4375 27.984375 
L 12.203125 27.984375 
z
M 64.0625 38.53125 
L 68.453125 43.703125 
Q 78.515625 37.15625 86.625 30.8125 
L 81.84375 25.140625 
Q 73.640625 32.078125 64.0625 38.53125 
z
" id="MicrosoftYaHei-84dd"/>
       <path d="M 72.46875 22.21875 
L 80.078125 22.21875 
L 80.078125 16.0625 
L 97.859375 16.0625 
L 97.859375 10.203125 
L 80.078125 10.203125 
L 80.078125 -1.515625 
Q 80.078125 -11.859375 67.578125 -11.859375 
Q 60.359375 -11.859375 52.34375 -11.671875 
Q 51.859375 -7.859375 51.078125 -4.25 
Q 59.28125 -4.828125 66.703125 -4.828125 
Q 72.46875 -4.828125 72.46875 -0.140625 
L 72.46875 10.203125 
L 27.046875 10.203125 
Q 18.453125 1.421875 6.640625 -6.59375 
Q 4.5 -3.375 1.46875 -0.640625 
Q 19.53125 10.109375 29.78125 24.078125 
L 2.828125 24.078125 
L 2.828125 29.9375 
L 33.59375 29.9375 
Q 35.640625 33.25 37.203125 36.765625 
L 11.921875 36.765625 
L 11.921875 42.4375 
L 39.359375 42.4375 
Q 40.4375 45.5625 41.21875 48.875 
L 5.671875 48.875 
L 5.671875 54.734375 
L 42.390625 54.734375 
Q 42.96875 58.34375 43.171875 62.15625 
L 50.6875 62.15625 
Q 50.296875 58.34375 49.609375 54.734375 
L 95.125 54.734375 
L 95.125 48.875 
L 48.53125 48.875 
Q 47.859375 45.5625 46.875 42.4375 
L 89.15625 42.4375 
L 89.15625 36.765625 
L 44.921875 36.765625 
Q 43.5625 33.34375 41.796875 29.9375 
L 97.5625 29.9375 
L 97.5625 24.078125 
L 38.28125 24.078125 
Q 35.640625 19.96875 32.328125 16.0625 
L 72.46875 16.0625 
z
M 31.15625 56 
Q 27.546875 60.796875 23.046875 65.96875 
L 27.15625 68.890625 
L 19.734375 68.890625 
Q 13.875 61.28125 6.453125 55.421875 
Q 4.5 57.765625 1.5625 60.890625 
Q 13.28125 69.875 20.21875 83.25 
L 28.609375 83.25 
Q 26.46875 78.859375 23.921875 74.953125 
L 52.046875 74.953125 
L 52.046875 68.890625 
L 28.8125 68.890625 
Q 33.015625 64.703125 36.921875 60.40625 
z
M 76.953125 56.109375 
Q 72.859375 61.375 68.65625 66.0625 
L 72.65625 68.890625 
L 64.15625 68.890625 
Q 60.75 63.328125 56.734375 58.34375 
Q 54.59375 60.5 50.78125 63.140625 
Q 58.40625 71.734375 63.28125 83.25 
L 71.6875 83.25 
Q 69.828125 78.953125 67.671875 74.953125 
L 98.53125 74.953125 
L 98.53125 68.890625 
L 74.515625 68.890625 
Q 78.609375 64.984375 82.71875 60.5 
z
M 31.453125 3.765625 
L 35.359375 9.03125 
Q 44.4375 5.21875 52.34375 1.03125 
L 47.953125 -4.640625 
Q 40.4375 -0.34375 31.453125 3.765625 
z
" id="MicrosoftYaHei-7b79"/>
       <path d="M 50.390625 -12.84375 
L 43.359375 -12.84375 
L 43.359375 36.671875 
L 92.484375 36.671875 
L 92.484375 -1.421875 
Q 92.484375 -12.0625 81.546875 -12.0625 
L 65.625 -12.0625 
Q 65.140625 -8.9375 64.15625 -4.546875 
Q 73.25 -5.125 79.109375 -5.125 
Q 85.453125 -5.125 85.453125 0.140625 
L 85.453125 4.640625 
L 50.390625 4.640625 
z
M 38.875 48.78125 
L 64.15625 48.78125 
L 64.15625 55.515625 
L 42.96875 55.515625 
L 42.96875 61.671875 
L 64.15625 61.671875 
L 64.15625 68.21875 
L 40.4375 68.21875 
L 40.4375 74.359375 
L 64.15625 74.359375 
L 64.15625 83.15625 
L 71.1875 83.15625 
L 71.1875 74.359375 
L 96.875 74.359375 
L 96.875 68.21875 
L 71.1875 68.21875 
L 71.1875 61.671875 
L 93.953125 61.671875 
L 93.953125 55.515625 
L 71.1875 55.515625 
L 71.1875 48.78125 
L 98.25 48.78125 
L 98.25 42.625 
L 38.875 42.625 
z
M 0.875 9.03125 
Q 10.359375 23.390625 16.3125 41.0625 
L 2.15625 41.0625 
L 2.15625 47.3125 
L 17.09375 47.3125 
L 17.09375 82.859375 
L 23.53125 82.859375 
L 23.53125 47.3125 
L 36.140625 47.3125 
L 36.140625 41.0625 
L 23.53125 41.0625 
L 23.53125 28.953125 
L 27.15625 31.890625 
Q 35.359375 23.96875 40.328125 18.21875 
L 35.25 13.53125 
Q 29.109375 21.046875 23.53125 26.90625 
L 23.53125 -13.234375 
L 17.09375 -13.234375 
L 17.09375 27.875 
Q 11.421875 13.140625 3.90625 1.125 
Q 2.34375 5.515625 0.875 9.03125 
z
M 85.453125 30.421875 
L 50.390625 30.421875 
L 50.390625 23.578125 
L 85.453125 23.578125 
z
M 50.390625 10.6875 
L 85.453125 10.6875 
L 85.453125 17.53125 
L 50.390625 17.53125 
z
M 25.390625 55.609375 
Q 29.6875 65.09375 32.515625 75.53125 
L 38.765625 73.296875 
Q 35.15625 62.453125 31.15625 53.078125 
z
M 2.34375 73.578125 
L 8.109375 75.640625 
Q 11.625 65.765625 14.75 55.8125 
L 8.59375 53.265625 
Q 5.28125 65.1875 2.34375 73.578125 
z
" id="MicrosoftYaHei-7cbe"/>
       <path d="M 27.4375 43.015625 
L 59.765625 43.015625 
L 59.765625 59.328125 
L 43.3125 59.328125 
Q 40.375 51.90625 37.203125 46.046875 
Q 34.671875 47.703125 30.375 49.5625 
Q 37.984375 62.9375 41.703125 79.25 
L 49.3125 77.59375 
Q 47.609375 71.484375 45.75 66.0625 
L 59.765625 66.0625 
L 59.765625 83.0625 
L 67.390625 83.0625 
L 67.390625 66.0625 
L 92.875 66.0625 
L 92.875 59.328125 
L 67.390625 59.328125 
L 67.390625 43.015625 
L 97.5625 43.015625 
L 97.5625 36.28125 
L 74.515625 36.28125 
L 74.515625 15.375 
Q 74.515625 10.203125 78.8125 10.203125 
L 83.5 10.203125 
Q 87.984375 10.203125 88.671875 14.890625 
Q 89.265625 18.703125 89.75 26.421875 
Q 92.78125 25.046875 97.171875 23.578125 
Q 96.390625 16.84375 95.515625 12.25 
Q 93.953125 3.5625 84.375 3.5625 
L 77.15625 3.5625 
Q 67 3.5625 67 14.59375 
L 67 36.28125 
L 53.859375 36.28125 
Q 53.8125 31.84375 53.609375 28.375 
Q 53.03125 10.109375 33.109375 1.3125 
Q 31.15625 4.15625 28.21875 7.859375 
Q 45.40625 14.984375 46.09375 28.375 
Q 46.296875 31.296875 46.4375 36.28125 
L 27.4375 36.28125 
z
M 42.09375 -3.078125 
L 62.5 -3.265625 
L 98.4375 -2.59375 
Q 97.359375 -5.8125 95.703125 -10.296875 
L 61.671875 -10.6875 
L 41.21875 -10.40625 
Q 23.640625 -9.8125 16.890625 1.421875 
Q 12.890625 -2.296875 5.171875 -11.671875 
L 1.171875 -3.5625 
Q 9.8125 4.78125 13.671875 8.40625 
L 13.671875 41.265625 
L 2.046875 41.265625 
L 2.046875 48.484375 
L 21.1875 48.484375 
L 21.1875 6.734375 
Q 27.203125 -2.875 42.09375 -3.078125 
z
M 13.375 81.296875 
Q 18.359375 75.25 27.046875 62.84375 
L 20.125 57.953125 
Q 12.203125 70.359375 7.125 77.09375 
z
" id="MicrosoftYaHei-9009"/>
      </defs>
      <g transform="translate(328.830829 397.4)rotate(-90)scale(0.1 -0.1)">
       <use xlink:href="#MicrosoftYaHei-6613"/>
       <use x="100" xlink:href="#MicrosoftYaHei-65b9"/>
       <use x="200" xlink:href="#MicrosoftYaHei-8fbe"/>
       <use x="300" xlink:href="#MicrosoftYaHei-84dd"/>
       <use x="400" xlink:href="#MicrosoftYaHei-7b79"/>
       <use x="500" xlink:href="#MicrosoftYaHei-7cbe"/>
       <use x="600" xlink:href="#MicrosoftYaHei-9009"/>
      </g>
     </g>
    </g>
    <g id="xtick_7">
     <g id="line2d_7">
      <g>
       <use style="stroke:#000000;stroke-width:0.8;" x="369" xlink:href="#m4e624f6d52" y="320.4"/>
      </g>
     </g>
     <g id="text_7">
      <!-- 国泰纳斯达克100ETF -->
      <defs>
       <path d="M 7.328125 78.078125 
L 92.78125 78.078125 
L 92.78125 -13.03125 
L 85.25 -13.03125 
L 85.25 -8.15625 
L 14.84375 -8.15625 
L 14.84375 -13.140625 
L 7.328125 -13.140625 
z
M 85.25 71.140625 
L 14.84375 71.140625 
L 14.84375 -1.21875 
L 85.25 -1.21875 
z
M 19.34375 15.765625 
L 46.296875 15.765625 
L 46.296875 35.109375 
L 22.75 35.109375 
L 22.75 41.75 
L 46.296875 41.75 
L 46.296875 54.828125 
L 20.90625 54.828125 
L 20.90625 61.46875 
L 79.109375 61.46875 
L 79.109375 54.828125 
L 53.515625 54.828125 
L 53.515625 41.75 
L 77.15625 41.75 
L 77.15625 35.109375 
L 53.515625 35.109375 
L 53.515625 15.765625 
L 80.671875 15.765625 
L 80.671875 9.125 
L 19.34375 9.125 
z
M 58.59375 28.859375 
L 64.0625 32.953125 
Q 69.4375 27.390625 73.25 22.515625 
L 67.484375 18.109375 
Q 62.796875 24.46875 58.59375 28.859375 
z
" id="MicrosoftYaHei-56fd"/>
       <path d="M 46.390625 -12.359375 
L 38.96875 -12.359375 
L 38.96875 65.578125 
L 63.421875 65.578125 
Q 63.484375 73.6875 63.484375 82.953125 
L 71 82.953125 
Q 71 73.53125 70.90625 65.578125 
L 95.125 65.578125 
L 95.125 -0.4375 
Q 95.125 -11.28125 84.671875 -11.28125 
L 70.21875 -11.28125 
Q 69.734375 -8.0625 68.75 -3.65625 
Q 77.25 -4.25 81.734375 -4.25 
Q 87.703125 -4.25 87.703125 0.921875 
L 87.703125 17.625 
Q 84.90625 15.375 81.84375 12.640625 
Q 74.125 23.734375 66.609375 32.953125 
Q 61.46875 18.5 50.09375 9.125 
Q 48.4375 11.328125 46.390625 13.875 
z
M 13.96875 24.46875 
Q 23.53125 25.828125 34.671875 27.78125 
Q 34.078125 24.171875 33.796875 20.265625 
Q 25 19 4.984375 15.671875 
L 3.421875 23 
Q 10.40625 30.375 18.5 43.609375 
Q 11.53125 43.21875 3.421875 42.53125 
L 1.5625 49.171875 
Q 10.546875 61.1875 20.21875 83.84375 
L 27.640625 80.90625 
Q 17.09375 60.203125 10.359375 49.75 
Q 16.9375 49.90625 22.3125 50.046875 
Q 25.640625 55.8125 29.109375 62.453125 
L 36.328125 58.84375 
Q 25.203125 40.28125 13.96875 24.46875 
z
M 63.375 58.9375 
L 46.390625 58.9375 
L 46.390625 16.546875 
Q 62.9375 30.171875 63.375 58.9375 
z
M 68.953125 41.3125 
Q 78.515625 30.421875 87.703125 18.84375 
L 87.703125 58.9375 
L 70.796875 58.9375 
Q 70.703125 49.421875 68.953125 41.3125 
z
M 1.375 1.703125 
Q 17.09375 4.640625 34.96875 8.546875 
Q 34.671875 4.640625 34.671875 1.21875 
Q 19.4375 -1.703125 3.515625 -5.609375 
z
" id="MicrosoftYaHei-7eb3"/>
       <path d="M 2.046875 19 
L 9.578125 19 
L 9.578125 64.109375 
L 2.734375 64.109375 
L 2.734375 70.75 
L 9.578125 70.75 
L 9.578125 82.375 
L 16.796875 82.375 
L 16.796875 70.75 
L 37.109375 70.75 
L 37.109375 82.375 
L 44.34375 82.375 
L 44.34375 70.75 
L 51.5625 70.75 
L 51.5625 64.109375 
L 44.34375 64.109375 
L 44.34375 19 
L 51.65625 19 
L 51.65625 12.359375 
L 2.046875 12.359375 
z
M 57.03125 74.265625 
Q 77.9375 76.3125 93.265625 80.03125 
L 96.296875 72.796875 
Q 80.859375 69.875 64.265625 68.21875 
L 64.265625 47.125 
L 98.046875 47.125 
L 98.046875 40.28125 
L 86.921875 40.28125 
L 86.921875 -12.75 
L 79.6875 -12.75 
L 79.6875 40.28125 
L 64.265625 40.28125 
Q 64.109375 6.6875 52.4375 -12.15625 
Q 49.8125 -9.421875 46.296875 -6.6875 
Q 57.03125 9.625 57.03125 39.59375 
z
M 16.796875 19 
L 37.109375 19 
L 37.109375 29.9375 
L 16.796875 29.9375 
z
M 16.796875 53.265625 
L 37.109375 53.265625 
L 37.109375 64.109375 
L 16.796875 64.109375 
z
M 16.796875 36.1875 
L 37.109375 36.1875 
L 37.109375 47.015625 
L 16.796875 47.015625 
z
M 17.1875 10.109375 
L 23.140625 5.421875 
Q 13.96875 -5.90625 6.546875 -12.640625 
Q 4.5 -10.296875 1.171875 -7.46875 
Q 10.359375 0.640625 17.1875 10.109375 
z
M 30.171875 6.109375 
L 35.25 10.59375 
Q 41.21875 5.125 46.96875 -0.921875 
L 41.40625 -6 
Q 36.140625 0.140625 30.171875 6.109375 
z
" id="MicrosoftYaHei-65af"/>
       <path d="M 15.046875 54.828125 
L 46.1875 54.828125 
L 46.1875 65.1875 
L 2.546875 65.1875 
L 2.546875 72.015625 
L 46.1875 72.015625 
L 46.1875 83.34375 
L 54 83.34375 
L 54 72.015625 
L 97.171875 72.015625 
L 97.171875 65.1875 
L 54 65.1875 
L 54 54.828125 
L 85.9375 54.828125 
L 85.9375 18.890625 
L 78.515625 18.890625 
L 78.515625 22.515625 
L 65.140625 22.515625 
L 65.140625 2.296875 
Q 65.140625 -4.046875 71.09375 -4.046875 
L 82.125 -4.046875 
Q 88.671875 -4.046875 89.265625 0.734375 
Q 90.046875 5.8125 90.328125 13.421875 
Q 93.84375 12.0625 98.4375 10.5 
Q 97.953125 4.734375 96.6875 -2.484375 
Q 95.3125 -11.078125 82.625 -11.078125 
L 69.625 -11.078125 
Q 57.234375 -11.078125 57.234375 1.3125 
L 57.234375 22.515625 
L 42.28125 22.515625 
Q 40.875 7.03125 33.796875 -0.140625 
Q 25.09375 -8.9375 6.453125 -13.328125 
Q 4.5 -10.203125 1.859375 -6.203125 
Q 20.703125 -2.296875 27.640625 4.734375 
Q 33.640625 10.40625 34.578125 22.515625 
L 22.46875 22.515625 
L 22.46875 18.890625 
L 15.046875 18.890625 
z
M 78.515625 48 
L 22.46875 48 
L 22.46875 29.34375 
L 78.515625 29.34375 
z
" id="MicrosoftYaHei-514b"/>
       <path d="M 52.59375 0 
L 9.234375 0 
L 9.234375 8.25 
L 26.171875 8.25 
L 26.171875 65.671875 
L 8.796875 60.640625 
L 8.796875 69.4375 
L 35.6875 77.25 
L 35.6875 8.25 
L 52.59375 8.25 
z
" id="MicrosoftYaHei-31"/>
      </defs>
      <g transform="translate(371.753906 421.535938)rotate(-90)scale(0.1 -0.1)">
       <use xlink:href="#MicrosoftYaHei-56fd"/>
       <use x="100" xlink:href="#MicrosoftYaHei-6cf0"/>
       <use x="200" xlink:href="#MicrosoftYaHei-7eb3"/>
       <use x="300" xlink:href="#MicrosoftYaHei-65af"/>
       <use x="400" xlink:href="#MicrosoftYaHei-8fbe"/>
       <use x="500" xlink:href="#MicrosoftYaHei-514b"/>
       <use x="600" xlink:href="#MicrosoftYaHei-31"/>
       <use x="658.642578" xlink:href="#MicrosoftYaHei-30"/>
       <use x="717.285156" xlink:href="#MicrosoftYaHei-30"/>
       <use x="775.927734" xlink:href="#MicrosoftYaHei-45"/>
       <use x="830.908203" xlink:href="#MicrosoftYaHei-54"/>
       <use x="888.232422" xlink:href="#MicrosoftYaHei-46"/>
      </g>
     </g>
    </g>
    <g id="xtick_8">
     <g id="line2d_8">
      <g>
       <use style="stroke:#000000;stroke-width:0.8;" x="411.923077" xlink:href="#m4e624f6d52" y="320.4"/>
      </g>
     </g>
     <g id="text_8">
      <!-- 组合1 -->
      <defs>
       <path d="M 31.15625 -8.0625 
L 31.15625 -1.03125 
L 42.78125 -1.03125 
L 42.78125 77.203125 
L 90.046875 77.203125 
L 90.046875 -1.03125 
L 98.640625 -1.03125 
L 98.640625 -8.0625 
z
M 15.140625 26.609375 
Q 25.09375 27.875 35.9375 29.25 
Q 35.546875 25.046875 35.25 22.609375 
Q 20.796875 20.75 6.25 18.609375 
L 4.6875 25.734375 
Q 10.890625 30.5625 20.0625 45.953125 
Q 9.328125 45.265625 4 44.78125 
L 2.046875 51.21875 
Q 9.671875 60.40625 18.75 82.671875 
L 26.65625 79.9375 
Q 18.171875 63.921875 10.640625 51.8125 
Q 18.703125 51.859375 23.53125 52 
Q 27.4375 58.984375 31.84375 67.71875 
L 39.359375 64.40625 
Q 28.21875 44.671875 15.140625 26.609375 
z
M 82.625 70.171875 
L 50.203125 70.171875 
L 50.203125 50.921875 
L 82.625 50.921875 
z
M 50.203125 -1.03125 
L 82.625 -1.03125 
L 82.625 18.21875 
L 50.203125 18.21875 
z
M 50.203125 24.953125 
L 82.625 24.953125 
L 82.625 44.1875 
L 50.203125 44.1875 
z
M 2.828125 4.546875 
Q 17 7.171875 36.8125 11.578125 
Q 36.421875 7.078125 36.421875 4.15625 
Q 16.109375 -0.046875 4.984375 -2.875 
z
" id="MicrosoftYaHei-7ec4"/>
      </defs>
      <g transform="translate(414.676983 353.264063)rotate(-90)scale(0.1 -0.1)">
       <use xlink:href="#MicrosoftYaHei-7ec4"/>
       <use x="100" xlink:href="#MicrosoftYaHei-5408"/>
       <use x="200" xlink:href="#MicrosoftYaHei-31"/>
      </g>
     </g>
    </g>
    <g id="xtick_9">
     <g id="line2d_9">
      <g>
       <use style="stroke:#000000;stroke-width:0.8;" x="454.846154" xlink:href="#m4e624f6d52" y="320.4"/>
      </g>
     </g>
     <g id="text_9">
      <!-- 我的组合 -->
      <defs>
       <path d="M 35.75 -0.140625 
Q 49.703125 6.5 60.984375 15.1875 
Q 56.9375 28.125 55.71875 46.53125 
L 30.28125 46.53125 
L 30.28125 30.375 
Q 39.9375 32.078125 50.296875 34.03125 
Q 50.484375 29.640625 50.59375 26.3125 
Q 40.328125 24.359375 30.28125 22.40625 
L 30.28125 -0.53125 
Q 30.28125 -11.671875 19.625 -11.765625 
Q 13.09375 -11.859375 6.546875 -11.46875 
Q 6.0625 -7.078125 4.890625 -3.171875 
Q 12.015625 -4.15625 17.671875 -4.15625 
Q 22.265625 -4.25 22.265625 0.53125 
L 22.265625 20.84375 
Q 12.59375 18.953125 3.125 17.046875 
L 1.171875 25.4375 
Q 11.28125 27.046875 22.265625 28.953125 
L 22.265625 46.53125 
L 1.265625 46.53125 
L 1.265625 53.765625 
L 22.265625 53.765625 
L 22.265625 68.5 
Q 14.546875 67.484375 5.671875 66.453125 
Q 4.984375 70.171875 3.515625 74.265625 
Q 27.546875 76.515625 44.828125 80.125 
L 47.171875 72.3125 
Q 39.796875 71 30.28125 69.578125 
L 30.28125 53.765625 
L 55.28125 53.765625 
Q 54.59375 65.71875 53.8125 82.671875 
L 62.015625 82.671875 
Q 62.359375 67.046875 63.03125 53.765625 
L 98.734375 53.765625 
L 98.734375 46.53125 
L 63.484375 46.53125 
Q 64.59375 31.453125 67.484375 20.5625 
Q 78.265625 30.125 86.140625 41.84375 
L 93.171875 37.15625 
Q 82.953125 23.34375 70.125 12.59375 
Q 72.859375 5.671875 76.65625 1.21875 
Q 81.640625 -4.640625 85.359375 -4.640625 
Q 87.40625 -4.640625 88.28125 -1.421875 
Q 89.65625 3.65625 91.109375 15.09375 
Q 95.21875 13.234375 98.640625 12.25 
Q 96.875 1.3125 95.125 -4.734375 
Q 92.875 -12.546875 85.546875 -12.640625 
Q 77.15625 -12.546875 69.625 -2.59375 
Q 66.3125 1.765625 63.765625 7.625 
Q 53.078125 -0.296875 40.71875 -6.296875 
Q 38.1875 -2.484375 35.75 -0.140625 
z
M 69.828125 73.96875 
L 74.90625 79.15625 
Q 83.5 72.609375 92.484375 64.59375 
L 86.53125 58.546875 
Q 78.515625 66.65625 69.828125 73.96875 
z
" id="MicrosoftYaHei-6211"/>
       <path d="M 5.5625 66.9375 
L 15.4375 66.9375 
Q 19.046875 75.828125 21.390625 83.15625 
L 29.59375 80.8125 
Q 26.515625 73.34375 23.640625 66.9375 
L 43.171875 66.9375 
L 43.171875 -10.796875 
L 35.359375 -10.796875 
L 35.359375 -3.171875 
L 13.375 -3.171875 
L 13.375 -11.46875 
L 5.5625 -11.46875 
z
M 44.625 46.921875 
Q 53.8125 61.46875 60.15625 83.15625 
L 68.359375 81.109375 
Q 65.875 73.734375 63.28125 67.234375 
L 94.734375 67.234375 
Q 93.5625 17.046875 92.78125 4.046875 
Q 92.09375 -11.28125 76.65625 -11.28125 
Q 67.78125 -11.28125 58.59375 -10.6875 
Q 58.015625 -5.8125 57.03125 -2 
L 57.328125 -2 
Q 67.09375 -3.375 75.203125 -3.375 
Q 84.078125 -3.375 84.765625 6 
Q 85.84375 20.5625 86.328125 59.90625 
L 60.15625 59.90625 
Q 55.90625 50.484375 51.375 43.3125 
Q 48.734375 45.171875 44.625 46.921875 
z
M 13.375 4.15625 
L 35.359375 4.15625 
L 35.359375 28.859375 
L 13.375 28.859375 
z
M 35.359375 59.625 
L 13.375 59.625 
L 13.375 35.890625 
L 35.359375 35.890625 
z
M 53.21875 40.28125 
L 59.1875 44.671875 
Q 70.015625 31.890625 76.46875 22.515625 
L 69.234375 17.4375 
Q 62.3125 28.765625 53.21875 40.28125 
z
" id="MicrosoftYaHei-7684"/>
      </defs>
      <g transform="translate(457.60006 367.4)rotate(-90)scale(0.1 -0.1)">
       <use xlink:href="#MicrosoftYaHei-6211"/>
       <use x="100" xlink:href="#MicrosoftYaHei-7684"/>
       <use x="200" xlink:href="#MicrosoftYaHei-7ec4"/>
       <use x="300" xlink:href="#MicrosoftYaHei-5408"/>
      </g>
     </g>
    </g>
    <g id="xtick_10">
     <g id="line2d_10">
      <g>
       <use style="stroke:#000000;stroke-width:0.8;" x="497.769231" xlink:href="#m4e624f6d52" y="320.4"/>
      </g>
     </g>
     <g id="text_10">
      <!-- 易方达安心回馈混合 -->
      <defs>
       <path d="M 5.078125 -5.03125 
Q 29.59375 -1.265625 45.125 7.46875 
Q 32.375 13.421875 18.171875 19.78125 
Q 22.796875 26.703125 27.296875 34.234375 
L 1.65625 34.234375 
L 1.65625 41.453125 
L 31.546875 41.453125 
Q 36.46875 50.09375 41.3125 59.421875 
L 49.03125 56.203125 
Q 44.734375 48.640625 40.578125 41.453125 
L 98.53125 41.453125 
L 98.53125 34.234375 
L 77.59375 34.234375 
Q 72.703125 19.4375 60.75 8.9375 
Q 76.125 2 91.40625 -5.125 
L 86.625 -12.9375 
Q 71.734375 -5.125 53.65625 3.421875 
Q 36.671875 -8.015625 9.1875 -13.03125 
Q 7.421875 -9.328125 5.078125 -5.03125 
z
M 6.453125 68.703125 
L 50.4375 68.703125 
Q 46.734375 74.078125 41.890625 79.734375 
L 48.4375 84.125 
Q 54.390625 77.6875 58.5 71.734375 
L 54 68.703125 
L 93.953125 68.703125 
L 93.953125 50.140625 
L 86.03125 50.140625 
L 86.03125 61.46875 
L 14.265625 61.46875 
L 14.265625 50.140625 
L 6.453125 50.140625 
z
M 29.390625 22.703125 
Q 41.109375 17.671875 52.734375 12.5 
Q 64.40625 21.390625 69.09375 34.234375 
L 36.328125 34.234375 
Q 32.8125 28.328125 29.390625 22.703125 
z
" id="MicrosoftYaHei-5b89"/>
       <path d="M 26.65625 64.3125 
L 34.765625 64.3125 
L 34.765625 7.078125 
Q 34.765625 -1.8125 42.671875 -1.8125 
L 63.671875 -1.8125 
Q 72.078125 -1.8125 73.140625 5.21875 
Q 74.21875 11.375 75 19.96875 
Q 79.109375 18.3125 83.40625 16.84375 
Q 81.9375 6.59375 80.671875 1.515625 
Q 78.03125 -9.421875 65.234375 -9.421875 
L 40.71875 -9.421875 
Q 26.65625 -9.421875 26.65625 5.21875 
z
M 81.734375 56.890625 
Q 90.046875 41.15625 99.03125 21.140625 
L 90.921875 17.140625 
Q 83.40625 36.078125 74.421875 53.46875 
z
M 12.3125 53.859375 
L 20.125 51.703125 
Q 15.625 30.90625 9.375 11.28125 
L 1.5625 14.3125 
Q 8.015625 32.671875 12.3125 53.859375 
z
M 48.140625 83.9375 
Q 57.421875 68.5 63.875 56.109375 
Q 59.28125 53.765625 56.0625 51.90625 
Q 49.21875 67.046875 41.3125 80.421875 
z
" id="MicrosoftYaHei-5fc3"/>
       <path d="M 7.421875 77.296875 
L 92.78125 77.296875 
L 92.78125 -12.15625 
L 84.578125 -12.15625 
L 84.578125 -5.90625 
L 15.625 -5.90625 
L 15.625 -12.15625 
L 7.421875 -12.15625 
z
M 84.578125 70.0625 
L 15.625 70.0625 
L 15.625 1.125 
L 84.578125 1.125 
z
M 29.296875 55.125 
L 70.796875 55.125 
L 70.796875 12.453125 
L 63.1875 12.453125 
L 63.1875 17.921875 
L 36.921875 17.921875 
L 36.921875 12.453125 
L 29.296875 12.453125 
z
M 63.1875 48.296875 
L 36.921875 48.296875 
L 36.921875 24.75 
L 63.1875 24.75 
z
" id="MicrosoftYaHei-56de"/>
       <path d="M 32.625 45.171875 
L 61.71875 45.171875 
L 61.71875 53.171875 
L 44.53125 53.171875 
L 44.53125 50.734375 
L 38.28125 50.734375 
L 38.28125 74.265625 
L 61.71875 74.265625 
L 61.71875 82.078125 
L 68.171875 82.078125 
L 68.171875 74.265625 
L 91.703125 74.265625 
L 91.703125 50.734375 
L 85.453125 50.734375 
L 85.453125 53.171875 
L 68.171875 53.171875 
L 68.171875 45.171875 
L 98.34375 45.171875 
L 98.34375 38.921875 
L 32.625 38.921875 
z
M 45.125 4.734375 
L 38.484375 4.734375 
L 38.484375 31.890625 
L 92.1875 31.890625 
L 92.1875 4.734375 
L 85.546875 4.734375 
L 85.546875 25.828125 
L 45.125 25.828125 
z
M 68.359375 22.515625 
Q 68.609375 14.40625 66.890625 8.890625 
Q 80.03125 2.09375 95.90625 -6.390625 
L 91.5 -13.03125 
Q 77.09375 -4.203125 64.015625 2.984375 
Q 55.28125 -7.765625 34.765625 -13.234375 
Q 33.015625 -9.8125 30.671875 -6.203125 
Q 51.375 -1.703125 57.90625 6.5 
Q 61.921875 11.078125 61.53125 22.515625 
z
M 13.375 49.265625 
L 20.015625 49.265625 
L 20.015625 4.25 
Q 26.078125 9.625 31.9375 15.1875 
Q 32.625 11.375 33.796875 7.171875 
Q 25.78125 0.4375 20.3125 -4.640625 
Q 17.578125 -7.46875 15.4375 -9.625 
L 10.25 -3.65625 
Q 13.375 -0.53125 13.375 5.03125 
z
M 1.171875 46.234375 
Q 9.375 60.109375 13.1875 81.890625 
L 20.21875 80.515625 
Q 18.609375 73.34375 16.609375 66.75 
L 34.078125 66.75 
L 34.078125 60.6875 
L 28.609375 43.109375 
Q 25.203125 44.390625 22.265625 44.96875 
L 27.15625 60.109375 
L 14.5 60.109375 
Q 10.796875 49.078125 6.0625 39.703125 
Q 3.125 44 1.171875 46.234375 
z
M 85.453125 68.40625 
L 68.171875 68.40625 
L 68.171875 59.03125 
L 85.453125 59.03125 
z
M 44.53125 59.03125 
L 61.71875 59.03125 
L 61.71875 68.40625 
L 44.53125 68.40625 
z
" id="MicrosoftYaHei-9988"/>
      </defs>
      <g transform="translate(500.523137 417.4)rotate(-90)scale(0.1 -0.1)">
       <use xlink:href="#MicrosoftYaHei-6613"/>
       <use x="100" xlink:href="#MicrosoftYaHei-65b9"/>
       <use x="200" xlink:href="#MicrosoftYaHei-8fbe"/>
       <use x="300" xlink:href="#MicrosoftYaHei-5b89"/>
       <use x="400" xlink:href="#MicrosoftYaHei-5fc3"/>
       <use x="500" xlink:href="#MicrosoftYaHei-56de"/>
       <use x="600" xlink:href="#MicrosoftYaHei-9988"/>
       <use x="700" xlink:href="#MicrosoftYaHei-6df7"/>
       <use x="800" xlink:href="#MicrosoftYaHei-5408"/>
      </g>
     </g>
    </g>
    <g id="xtick_11">
     <g id="line2d_11">
      <g>
       <use style="stroke:#000000;stroke-width:0.8;" x="540.692308" xlink:href="#m4e624f6d52" y="320.4"/>
      </g>
     </g>
     <g id="text_11">
      <!-- 易方达裕丰回报债券 -->
      <defs>
       <path d="M 73.640625 60.984375 
L 72.078125 58.453125 
Q 80.953125 39.703125 99.3125 31.203125 
Q 96.875 28.171875 94.734375 24.359375 
Q 92.671875 25.53125 90.71875 26.703125 
L 90.71875 -13.03125 
L 83.6875 -13.03125 
L 83.6875 -6.6875 
L 52.640625 -6.6875 
L 52.640625 -13.140625 
L 45.609375 -13.140625 
L 45.609375 26.8125 
Q 42.96875 24.75 40.140625 22.90625 
Q 38.28125 25.828125 35.359375 29.4375 
Q 55.46875 41.359375 64.84375 60.984375 
z
M 2.734375 56.78125 
L 2.734375 63.625 
L 32.234375 63.625 
L 32.234375 56.890625 
Q 28.21875 48.1875 22.265625 39.890625 
L 22.265625 32.46875 
L 23.640625 31.5 
Q 27.828125 37.15625 31.34375 43.3125 
L 37.40625 39.109375 
Q 32.03125 32.765625 28.125 28.171875 
Q 32.625 24.953125 37.203125 21.625 
L 32.625 15.484375 
Q 27.34375 20.5625 22.265625 24.953125 
L 22.265625 -13.140625 
L 15.046875 -13.140625 
L 15.046875 30.71875 
Q 9.96875 24.859375 3.90625 19.1875 
Q 2.4375 24.859375 1.375 27.78125 
Q 15.828125 39.703125 24.03125 56.78125 
z
M 83.6875 20.359375 
L 52.640625 20.359375 
L 52.640625 0.140625 
L 83.6875 0.140625 
z
M 67.96875 52 
Q 60.15625 38.140625 46.09375 27.203125 
L 90.046875 27.203125 
Q 76.078125 36.578125 67.96875 52 
z
M 57.421875 80.609375 
L 63.28125 76.21875 
Q 52.046875 61.1875 42.390625 51.609375 
Q 40.140625 54.4375 37.109375 57.28125 
Q 48.734375 67.921875 57.421875 80.609375 
z
M 73.34375 76.125 
L 78.90625 80.328125 
Q 88.484375 69.875 98.140625 58.34375 
L 92.484375 53.265625 
Q 81.15625 67.625 73.34375 76.125 
z
M 11.328125 80.125 
L 17.875 83.640625 
Q 20.703125 79.15625 25.78125 70.171875 
L 18.75 66.359375 
Q 14.546875 74.953125 11.328125 80.125 
z
" id="MicrosoftYaHei-88d5"/>
       <path d="M 2.4375 20.75 
L 45.90625 20.75 
L 45.90625 36.96875 
L 11.625 36.96875 
L 11.625 44.1875 
L 45.90625 44.1875 
L 45.90625 60.203125 
L 5.375 60.203125 
L 5.375 67.4375 
L 45.90625 67.4375 
L 45.90625 83.15625 
L 54.109375 83.15625 
L 54.109375 67.4375 
L 94.625 67.4375 
L 94.625 60.203125 
L 54.109375 60.203125 
L 54.109375 44.1875 
L 88.28125 44.1875 
L 88.28125 36.96875 
L 54.109375 36.96875 
L 54.109375 20.75 
L 97.5625 20.75 
L 97.5625 13.53125 
L 54.109375 13.53125 
L 54.109375 -13.328125 
L 45.90625 -13.328125 
L 45.90625 13.53125 
L 2.4375 13.53125 
z
" id="MicrosoftYaHei-4e30"/>
       <path d="M 38.578125 77.875 
L 92.578125 77.875 
Q 92.09375 67.921875 91.703125 62.84375 
Q 91.015625 50.734375 77.4375 50.734375 
Q 71.78125 50.734375 60.9375 50.921875 
Q 60.25 54.640625 59.375 58.734375 
Q 70.125 57.765625 76.5625 57.765625 
Q 83.890625 57.765625 84.375 63.71875 
Q 84.671875 66.84375 84.765625 71.046875 
L 46.1875 71.046875 
L 46.1875 43.109375 
L 93.171875 43.109375 
L 93.171875 36.375 
Q 88.421875 18.890625 77.296875 6.890625 
Q 86.234375 -0.390625 98.828125 -4.734375 
Q 95.40625 -9.03125 93.171875 -11.96875 
Q 80.671875 -5.953125 71.734375 1.703125 
Q 62.59375 -5.859375 50.6875 -12.75 
Q 48.921875 -9.8125 46.390625 -6.109375 
Q 57.90625 0.140625 66.265625 6.984375 
Q 56.203125 18.265625 52.09375 36.28125 
L 46.1875 36.28125 
L 46.1875 -13.421875 
L 38.578125 -13.421875 
z
M 1.46875 31.203125 
Q 8.84375 33.25 15.71875 35.25 
L 15.71875 56.390625 
L 2.734375 56.390625 
L 2.734375 63.140625 
L 15.71875 63.140625 
L 15.71875 82.171875 
L 23.25 82.171875 
L 23.25 63.140625 
L 34.859375 63.140625 
L 34.859375 56.390625 
L 23.25 56.390625 
L 23.25 37.546875 
Q 29.15625 39.40625 34.671875 41.265625 
Q 34.671875 36.578125 34.859375 33.640625 
Q 29.203125 31.84375 23.25 29.890625 
L 23.25 -1.03125 
Q 23.25 -11.578125 13.765625 -11.765625 
Q 9.859375 -11.859375 4.109375 -11.765625 
Q 3.515625 -7.671875 2.828125 -3.46875 
Q 8.59375 -4.046875 11.53125 -4.046875 
Q 15.71875 -4.046875 15.71875 0.734375 
L 15.71875 27.4375 
Q 9.234375 25.34375 2.4375 23.09375 
z
M 85.25 36.28125 
L 58.984375 36.28125 
Q 62.3125 22.015625 71.734375 11.96875 
Q 81.453125 22.171875 85.25 36.28125 
z
" id="MicrosoftYaHei-62a5"/>
       <path d="M 26.859375 47.40625 
L 58.984375 47.40625 
L 58.984375 54.34375 
L 34.1875 54.34375 
L 34.1875 60.5 
L 58.984375 60.5 
L 58.984375 67.328125 
L 31.0625 67.328125 
L 31.0625 73.484375 
L 58.984375 73.484375 
L 58.984375 82.171875 
L 66.3125 82.171875 
L 66.3125 73.484375 
L 95.125 73.484375 
L 95.125 67.328125 
L 66.3125 67.328125 
L 66.3125 60.5 
L 90.328125 60.5 
L 90.328125 54.34375 
L 66.3125 54.34375 
L 66.3125 47.40625 
L 97.953125 47.40625 
L 97.953125 41.265625 
L 26.859375 41.265625 
z
M 1.265625 35.203125 
Q 12.890625 54.25 19.34375 82.375 
L 26.46875 81.109375 
Q 23.640625 70.65625 20.40625 61.375 
L 20.40625 -13.71875 
L 13.28125 -13.71875 
L 13.28125 44.09375 
Q 8.890625 35.015625 3.90625 27.390625 
Q 2.734375 31.390625 1.265625 35.203125 
z
M 34.859375 34.625 
L 89.15625 34.625 
L 89.15625 4.4375 
L 82.03125 4.4375 
L 82.03125 28.265625 
L 42 28.265625 
L 42 3.953125 
L 34.859375 3.953125 
z
M 58.5 25.140625 
L 65.625 25.140625 
Q 65.625 17.046875 64.0625 10.984375 
Q 80.5625 2.78125 97.265625 -7.765625 
L 92.875 -14.015625 
Q 77.546875 -3.953125 61.921875 4.9375 
Q 60.546875 2.09375 58.6875 0.046875 
Q 50.875 -8.9375 31.453125 -13.921875 
Q 28.515625 -8.453125 27.25 -6.890625 
Q 45.90625 -2.875 52.25 3.859375 
Q 58.5 9.8125 58.5 25.140625 
z
" id="MicrosoftYaHei-503a"/>
       <path d="M 2.734375 44.671875 
L 31.0625 44.671875 
Q 35.15625 50.046875 38.09375 56.109375 
L 6.9375 56.109375 
L 6.9375 62.75 
L 41.015625 62.75 
Q 44.625 72.015625 46.96875 83.0625 
L 54.78125 81.390625 
Q 52.15625 71.34375 49.125 62.75 
L 92.578125 62.75 
L 92.578125 56.109375 
L 46.578125 56.109375 
Q 43.953125 50.140625 40.234375 44.671875 
L 97.5625 44.671875 
L 97.5625 38.03125 
L 71 38.03125 
Q 81.640625 26.515625 98.734375 23 
Q 96 19.484375 93.359375 15.578125 
Q 84.96875 18.40625 78.125 22.90625 
Q 76.765625 11.28125 75.484375 1.8125 
Q 73.4375 -11.578125 60.359375 -11.46875 
Q 56.0625 -11.46875 44.34375 -11.28125 
Q 43.65625 -7.375 42.28125 -3.265625 
Q 50.984375 -3.953125 58.109375 -3.953125 
Q 66.703125 -3.953125 67.875 3.078125 
Q 68.75 8.546875 69.828125 18.21875 
L 40.71875 18.21875 
Q 38.875 5.125 32.90625 -1.421875 
Q 26.46875 -8.84375 9.1875 -14.109375 
Q 6.84375 -9.90625 4.890625 -6.984375 
Q 21 -2.875 26.953125 3.953125 
Q 31.640625 9.125 33.015625 18.21875 
L 19.53125 18.21875 
L 19.53125 23.296875 
Q 13.375 18.703125 6.25 14.703125 
Q 4.203125 18.015625 1.375 21.234375 
Q 15.625 28.171875 25.296875 38.03125 
L 2.734375 38.03125 
z
M 21.484375 24.859375 
L 75.203125 24.859375 
Q 67.78125 30.328125 62.3125 38.03125 
L 35.15625 38.03125 
Q 29.296875 30.90625 21.484375 24.859375 
z
M 66.015625 67.53125 
Q 72.5625 74.265625 77.4375 81.6875 
L 84.1875 77.484375 
Q 78.609375 70.0625 71.875 63.140625 
z
M 14.359375 77.09375 
L 19.921875 81.59375 
Q 26.953125 75.046875 32.515625 68.890625 
L 26.265625 63.71875 
Q 20.796875 70.359375 14.359375 77.09375 
z
" id="MicrosoftYaHei-5238"/>
      </defs>
      <g transform="translate(543.446214 417.4)rotate(-90)scale(0.1 -0.1)">
       <use xlink:href="#MicrosoftYaHei-6613"/>
       <use x="100" xlink:href="#MicrosoftYaHei-65b9"/>
       <use x="200" xlink:href="#MicrosoftYaHei-8fbe"/>
       <use x="300" xlink:href="#MicrosoftYaHei-88d5"/>
       <use x="400" xlink:href="#MicrosoftYaHei-4e30"/>
       <use x="500" xlink:href="#MicrosoftYaHei-56de"/>
       <use x="600" xlink:href="#MicrosoftYaHei-62a5"/>
       <use x="700" xlink:href="#MicrosoftYaHei-503a"/>
       <use x="800" xlink:href="#MicrosoftYaHei-5238"/>
      </g>
     </g>
    </g>
    <g id="xtick_12">
     <g id="line2d_12">
      <g>
       <use style="stroke:#000000;stroke-width:0.8;" x="583.615385" xlink:href="#m4e624f6d52" y="320.4"/>
      </g>
     </g>
     <g id="text_12">
      <!-- 招商产业债券A -->
      <defs>
       <path d="M 39.453125 30.609375 
L 91.609375 30.609375 
L 91.609375 -12.9375 
L 84.1875 -12.9375 
L 84.1875 -6.203125 
L 46.875 -6.203125 
L 46.875 -13.03125 
L 39.453125 -13.03125 
z
M 36.328125 77.875 
L 93.65625 77.875 
Q 93.453125 66.0625 92.78125 53.65625 
Q 91.890625 39.203125 78.328125 38.921875 
Q 71.296875 38.71875 61.234375 38.921875 
Q 60.546875 43.796875 59.859375 47.015625 
Q 69.046875 46.234375 76.46875 46.234375 
Q 84.765625 46.234375 85.25 54.734375 
Q 85.84375 61.859375 85.9375 70.953125 
L 60.0625 70.953125 
Q 59.625 58.59375 55.953125 51.703125 
Q 50.984375 42.328125 37.59375 34.515625 
Q 35.546875 37.359375 32.515625 40.96875 
Q 44.734375 47.609375 48.734375 54.546875 
Q 52.09375 59.71875 52.4375 70.953125 
L 36.328125 70.953125 
z
M 1.375 30.515625 
Q 8.546875 32.171875 15.140625 33.796875 
L 15.140625 57.078125 
L 2.25 57.078125 
L 2.25 63.921875 
L 15.140625 63.921875 
L 15.140625 82.859375 
L 22.359375 82.859375 
L 22.359375 63.921875 
L 35.15625 63.921875 
L 35.15625 57.078125 
L 22.359375 57.078125 
L 22.359375 35.59375 
Q 27.640625 36.96875 32.515625 38.328125 
Q 32.90625 33.34375 33.203125 31.109375 
Q 27.59375 29.59375 22.359375 28.171875 
L 22.359375 -1.125 
Q 22.359375 -11.859375 12.59375 -11.859375 
Q 9.28125 -11.859375 3.421875 -11.671875 
Q 3.03125 -7.671875 2.15625 -3.953125 
Q 7.8125 -4.640625 10.84375 -4.640625 
Q 15.140625 -4.640625 15.140625 0.34375 
L 15.140625 26.171875 
Q 8.40625 24.265625 2.34375 22.515625 
z
M 84.1875 23.6875 
L 46.875 23.6875 
L 46.875 0.53125 
L 84.1875 0.53125 
z
" id="MicrosoftYaHei-62db"/>
       <path d="M 9.375 51.703125 
L 33.109375 51.703125 
Q 29.734375 56.640625 25.78125 61.46875 
L 31.734375 65.484375 
Q 36.421875 60.015625 40.234375 55.328125 
L 34.96875 51.703125 
L 57.125 51.703125 
Q 62.0625 58.0625 66.21875 65.09375 
L 73.640625 60.796875 
Q 69 55.28125 65.828125 51.703125 
L 90.140625 51.703125 
L 90.140625 0.53125 
Q 90.140625 -11.765625 78.90625 -11.859375 
Q 72.859375 -11.96875 65.234375 -11.765625 
Q 64.453125 -6.109375 63.765625 -3.5625 
Q 71.484375 -4.34375 76.46875 -4.34375 
Q 82.8125 -4.34375 82.8125 2.6875 
L 82.8125 44.96875 
L 16.703125 44.96875 
L 16.703125 -13.03125 
L 9.375 -13.03125 
z
M 30.46875 -3.375 
L 30.46875 28.078125 
L 69.625 28.078125 
L 69.625 1.8125 
L 37.5 1.8125 
L 37.5 -3.375 
z
M 2.25 72.609375 
L 46.828125 72.609375 
Q 44.96875 76.078125 42.28125 80.328125 
L 49.8125 83.734375 
Q 52.734375 78.71875 55.953125 72.609375 
L 98.046875 72.609375 
L 98.046875 65.671875 
L 2.25 65.671875 
z
M 62.59375 8.0625 
L 62.59375 21.828125 
L 37.5 21.828125 
L 37.5 8.0625 
z
M 37.984375 43.890625 
L 43.265625 38.8125 
Q 31.84375 29.046875 21.875 21.625 
Q 18.953125 25.640625 17.28125 27.390625 
Q 28.03125 34.515625 37.984375 43.890625 
z
M 55.171875 38.53125 
L 59.46875 43.890625 
Q 73.921875 34.8125 81.34375 29.34375 
L 76.46875 23.1875 
Q 66.796875 31 55.171875 38.53125 
z
" id="MicrosoftYaHei-5546"/>
       <path d="M 11.625 43.890625 
L 57.8125 43.890625 
Q 64.40625 53.609375 69.625 63.234375 
L 77.15625 58.453125 
Q 71.96875 51.171875 66.3125 43.890625 
L 95.21875 43.890625 
L 95.21875 37.0625 
L 19.53125 37.0625 
L 19.53125 30.21875 
Q 19.53125 12.9375 16.890625 4.4375 
Q 14.15625 -5.03125 6.546875 -13.328125 
Q 4 -10.203125 1.265625 -6.6875 
Q 7.03125 -0.53125 9.375 7.765625 
Q 11.625 15.875 11.625 30.21875 
z
M 3.609375 71.828125 
L 48.1875 71.828125 
Q 46.046875 75.828125 43.453125 80.03125 
L 50.6875 83.640625 
Q 53.859375 78.46875 57.171875 71.828125 
L 97.75 71.828125 
L 97.75 64.890625 
L 3.609375 64.890625 
z
M 24.03125 59.328125 
L 30.46875 63.625 
Q 36.53125 56 41.21875 49.171875 
L 34.28125 44.390625 
Q 30.46875 50.828125 24.03125 59.328125 
z
" id="MicrosoftYaHei-4ea7"/>
       <path d="M 1.859375 0.734375 
L 33.203125 0.734375 
L 33.203125 81.390625 
L 41.40625 81.390625 
L 41.40625 0.734375 
L 58.5 0.734375 
L 58.5 81.390625 
L 66.703125 81.390625 
L 66.703125 0.734375 
L 98.34375 0.734375 
L 98.34375 -6.5 
L 1.859375 -6.5 
z
M 13.1875 62.25 
Q 21.1875 43.40625 28.71875 22.21875 
L 20.703125 18.609375 
Q 14.15625 39.203125 6.0625 59.125 
z
M 70.21875 21.34375 
Q 79.984375 42.046875 86.625 61.375 
L 94.53125 58.25 
Q 85.453125 34.90625 77.25 18.109375 
z
" id="MicrosoftYaHei-4e1a"/>
      </defs>
      <g transform="translate(586.369291 394.435938)rotate(-90)scale(0.1 -0.1)">
       <use xlink:href="#MicrosoftYaHei-62db"/>
       <use x="100" xlink:href="#MicrosoftYaHei-5546"/>
       <use x="200" xlink:href="#MicrosoftYaHei-4ea7"/>
       <use x="300" xlink:href="#MicrosoftYaHei-4e1a"/>
       <use x="400" xlink:href="#MicrosoftYaHei-503a"/>
       <use x="500" xlink:href="#MicrosoftYaHei-5238"/>
       <use x="600" xlink:href="#MicrosoftYaHei-41"/>
      </g>
     </g>
    </g>
    <g id="xtick_13">
     <g id="line2d_13">
      <g>
       <use style="stroke:#000000;stroke-width:0.8;" x="626.538462" xlink:href="#m4e624f6d52" y="320.4"/>
      </g>
     </g>
     <g id="text_13">
      <!-- 嘉实超短债债券C -->
      <defs>
       <path d="M 14.75 53.5625 
L 85.25 53.5625 
L 85.25 33.640625 
L 78.421875 33.640625 
L 78.421875 36.46875 
L 21.578125 36.46875 
L 21.578125 33.640625 
L 14.75 33.640625 
z
M 11.234375 64.796875 
L 46.484375 64.796875 
L 46.484375 70.65625 
L 4.78125 70.65625 
L 4.78125 76.125 
L 46.484375 76.125 
L 46.484375 82.5625 
L 53.421875 82.5625 
L 53.421875 76.125 
L 95.515625 76.125 
L 95.515625 70.65625 
L 53.421875 70.65625 
L 53.421875 64.796875 
L 88.875 64.796875 
L 88.875 59.421875 
L 11.234375 59.421875 
z
M 56.0625 15.671875 
L 92.390625 15.671875 
L 92.390625 -12.25 
L 85.359375 -12.25 
L 85.359375 -7.953125 
L 63.09375 -7.953125 
L 63.09375 -12.25 
L 56.0625 -12.25 
z
M 5.671875 13.625 
L 19.234375 13.625 
Q 19.625 16.65625 19.625 20.265625 
L 26.65625 20.265625 
Q 26.65625 16.65625 26.375 13.625 
L 48.53125 13.625 
Q 48.140625 4.546875 47.75 -1.03125 
Q 47.265625 -6.59375 44.53125 -9.328125 
Q 41.703125 -12.15625 34.375 -12.15625 
Q 31.15625 -12.15625 26.765625 -12.0625 
Q 26.265625 -8.734375 25.203125 -5.421875 
Q 30.953125 -5.90625 33.40625 -5.90625 
Q 37.40625 -5.90625 39.0625 -4.34375 
Q 40.53125 -2.984375 40.828125 0.4375 
Q 41.109375 3.46875 41.3125 8.15625 
L 25.484375 8.15625 
Q 23.25 -4.546875 6.734375 -14.109375 
Q 4.390625 -10.59375 1.859375 -8.25 
Q 16.609375 -0.640625 18.265625 8.15625 
L 5.671875 8.15625 
z
M 2.640625 27.484375 
L 31.734375 27.484375 
Q 29.296875 30.515625 26.65625 33.25 
L 32.421875 36.078125 
Q 36.140625 32.28125 39.84375 27.484375 
L 61.03125 27.484375 
Q 64.75 31.984375 67.671875 36.1875 
L 74.21875 32.859375 
Q 71.875 30.21875 69.234375 27.484375 
L 97.65625 27.484375 
L 97.65625 22.015625 
L 2.640625 22.015625 
z
M 78.421875 48.296875 
L 21.578125 48.296875 
L 21.578125 41.75 
L 78.421875 41.75 
z
M 85.359375 10.203125 
L 63.09375 10.203125 
L 63.09375 -2.484375 
L 85.359375 -2.484375 
z
" id="MicrosoftYaHei-5609"/>
       <path d="M 1.765625 -6.203125 
Q 37.796875 0.53125 48.140625 15.1875 
L 3.328125 15.1875 
L 3.328125 22.40625 
L 51.765625 22.40625 
Q 55.078125 32.5625 54.78125 57.859375 
L 62.984375 57.859375 
Q 62.984375 32.765625 60.25 22.40625 
L 97.265625 22.40625 
L 97.265625 15.1875 
L 57.515625 15.1875 
Q 56.734375 13.625 55.671875 11.859375 
Q 76.5625 3.078125 96.578125 -6.296875 
L 92.28125 -13.71875 
Q 71.390625 -3.078125 50.984375 6.109375 
Q 37.703125 -6.890625 6.453125 -13.921875 
Q 4.203125 -9.625 1.765625 -6.203125 
z
M 5.171875 69.09375 
L 49.90625 69.09375 
Q 47.46875 73.484375 43.359375 79.34375 
L 50.484375 83.34375 
Q 53.71875 79.046875 58.296875 72.015625 
L 52.9375 69.09375 
L 94.734375 69.09375 
L 94.734375 51.609375 
L 86.921875 51.609375 
L 86.921875 61.859375 
L 12.984375 61.859375 
L 12.984375 51.609375 
L 5.171875 51.609375 
z
M 17.1875 42.71875 
Q 28.421875 37.640625 38.28125 32.078125 
L 34.078125 25.34375 
Q 24.3125 31.296875 13.484375 36.46875 
z
M 25.984375 57.671875 
Q 37.3125 52.203125 46.578125 46.625 
L 42.1875 39.984375 
Q 33.109375 45.84375 22.171875 51.90625 
z
" id="MicrosoftYaHei-5b9e"/>
       <path d="M 1.65625 -4.15625 
Q 9.078125 8.84375 9.671875 35.015625 
L 16.890625 34.625 
Q 16.546875 25.09375 15.484375 17.046875 
Q 18.953125 9.421875 24.703125 4.78125 
L 24.703125 40.875 
L 2.15625 40.875 
L 2.15625 48 
L 21.6875 48 
L 21.6875 61.96875 
L 5.5625 61.96875 
L 5.5625 69.09375 
L 21.6875 69.09375 
L 21.6875 82.953125 
L 29.296875 82.953125 
L 29.296875 69.09375 
L 43.84375 69.09375 
L 43.84375 61.96875 
L 29.296875 61.96875 
L 29.296875 48 
L 45.125 48 
L 45.125 40.875 
L 32.03125 40.875 
L 32.03125 25.734375 
L 46 25.734375 
L 46 18.703125 
L 32.03125 18.703125 
L 32.03125 0.4375 
Q 39.0625 -2.484375 48.34375 -2.59375 
Q 66.890625 -2.875 98.640625 -2.203125 
Q 96.875 -6.59375 95.90625 -9.90625 
Q 66.40625 -10.015625 45.90625 -9.625 
Q 22.3125 -9.125 13.8125 7.375 
Q 11.03125 -5.328125 5.953125 -13.328125 
Q 4 -8.734375 1.65625 -4.15625 
z
M 51.171875 38.234375 
L 92 38.234375 
L 92 3.265625 
L 84.765625 3.265625 
L 84.765625 7.46875 
L 58.40625 7.46875 
L 58.40625 2.6875 
L 51.171875 2.6875 
z
M 46.390625 72.125 
L 46.390625 78.765625 
L 93.0625 78.765625 
Q 92.578125 65.375 91.703125 56.296875 
Q 90.625 45.0625 80.078125 44.78125 
Q 74.8125 44.671875 67.875 45.0625 
Q 67.28125 48.6875 66.40625 52.875 
Q 73.640625 51.703125 78.609375 51.8125 
Q 84.1875 51.8125 84.765625 58.0625 
Q 85.453125 63.625 85.75 72.125 
L 67.234375 72.125 
Q 66.40625 50.046875 50.78125 41.265625 
Q 48.921875 44.28125 46 47.515625 
Q 59.578125 54.9375 59.859375 72.125 
z
M 84.765625 31.59375 
L 58.40625 31.59375 
L 58.40625 14.109375 
L 84.765625 14.109375 
z
" id="MicrosoftYaHei-8d85"/>
       <path d="M 42.484375 59.625 
L 91.3125 59.625 
L 91.3125 24.078125 
L 84.1875 24.078125 
L 84.1875 26.8125 
L 49.609375 26.8125 
L 49.609375 24.078125 
L 42.484375 24.078125 
z
M 1.265625 40.484375 
L 17.671875 40.484375 
L 17.671875 61.671875 
L 12.796875 61.671875 
Q 10.40625 54.5 7.8125 48.6875 
Q 3.71875 50.34375 0.984375 51.21875 
Q 7.328125 65.28125 11.53125 83.453125 
L 18.5625 81.984375 
Q 16.796875 74.75 14.890625 68.40625 
L 37.3125 68.40625 
L 37.3125 61.671875 
L 24.703125 61.671875 
L 24.703125 40.484375 
L 38.671875 40.484375 
L 38.671875 33.734375 
L 24.5625 33.734375 
Q 24.3125 28.078125 23.53125 22.90625 
L 28.421875 25.53125 
Q 34.28125 16.265625 40.328125 4.734375 
L 33.203125 0.828125 
Q 28.90625 10.25 23.09375 20.3125 
Q 19.28125 -0.4375 6.34375 -13.03125 
Q 4.390625 -10.40625 1.375 -6.890625 
Q 16.0625 8.15625 17.484375 33.734375 
L 1.265625 33.734375 
z
M 84.1875 52.875 
L 49.609375 52.875 
L 49.609375 33.546875 
L 84.1875 33.546875 
z
M 34.96875 -2.390625 
L 69.734375 -2.390625 
Q 76.609375 10.59375 81.25 21.734375 
L 89.265625 18.015625 
Q 83.296875 7.171875 77.734375 -2.390625 
L 97.953125 -2.390625 
L 97.953125 -9.234375 
L 34.96875 -9.234375 
z
M 38.09375 78.265625 
L 96.78125 78.265625 
L 96.78125 71.4375 
L 38.09375 71.4375 
z
M 45.40625 18.5 
L 51.953125 22.015625 
Q 57.71875 12.640625 62.3125 3.765625 
L 54.984375 -0.046875 
Q 50.203125 10.109375 45.40625 18.5 
z
" id="MicrosoftYaHei-77ed"/>
       <path d="M 61.53125 3.125 
Q 53.171875 -1.265625 40.578125 -1.265625 
Q 24.3125 -1.265625 14.59375 9.0625 
Q 4.890625 19.390625 4.890625 36.375 
Q 4.890625 54.640625 15.828125 65.765625 
Q 26.765625 76.90625 43.609375 76.90625 
Q 54.4375 76.90625 61.53125 73.828125 
L 61.53125 63.625 
Q 53.421875 68.109375 43.703125 68.109375 
Q 31.0625 68.109375 23.09375 59.6875 
Q 15.140625 51.265625 15.140625 36.96875 
Q 15.140625 23.390625 22.5625 15.40625 
Q 29.984375 7.421875 42 7.421875 
Q 53.21875 7.421875 61.53125 12.5 
z
" id="MicrosoftYaHei-43"/>
      </defs>
      <g transform="translate(629.292368 404.089063)rotate(-90)scale(0.1 -0.1)">
       <use xlink:href="#MicrosoftYaHei-5609"/>
       <use x="100" xlink:href="#MicrosoftYaHei-5b9e"/>
       <use x="200" xlink:href="#MicrosoftYaHei-8d85"/>
       <use x="300" xlink:href="#MicrosoftYaHei-77ed"/>
       <use x="400" xlink:href="#MicrosoftYaHei-503a"/>
       <use x="500" xlink:href="#MicrosoftYaHei-503a"/>
       <use x="600" xlink:href="#MicrosoftYaHei-5238"/>
       <use x="700" xlink:href="#MicrosoftYaHei-43"/>
      </g>
     </g>
    </g>
   </g>
   <g id="matplotlib.axis_2">
    <g id="ytick_1">
     <g id="line2d_14">
      <defs>
       <path d="M 0 0 
L -3.5 0 
" id="md4650cace0" style="stroke:#000000;stroke-width:0.8;"/>
      </defs>
      <g>
       <use style="stroke:#000000;stroke-width:0.8;" x="90" xlink:href="#md4650cace0" y="320.4"/>
      </g>
     </g>
     <g id="text_14">
      <!-- 0.0 -->
      <defs>
       <path d="M 5.8125 5.03125 
Q 5.8125 7.671875 7.609375 9.46875 
Q 9.421875 11.28125 12.109375 11.28125 
Q 14.84375 11.28125 16.640625 9.453125 
Q 18.453125 7.625 18.453125 5.03125 
Q 18.453125 2.484375 16.640625 0.65625 
Q 14.84375 -1.171875 12.0625 -1.171875 
Q 9.375 -1.171875 7.59375 0.65625 
Q 5.8125 2.484375 5.8125 5.03125 
z
" id="MicrosoftYaHei-2e"/>
      </defs>
      <g transform="translate(68.864063 324.396875)scale(0.1 -0.1)">
       <use xlink:href="#MicrosoftYaHei-30"/>
       <use x="58.642578" xlink:href="#MicrosoftYaHei-2e"/>
       <use x="82.714844" xlink:href="#MicrosoftYaHei-30"/>
      </g>
     </g>
    </g>
    <g id="ytick_2">
     <g id="line2d_15">
      <g>
       <use style="stroke:#000000;stroke-width:0.8;" x="90" xlink:href="#md4650cace0" y="260.833867"/>
      </g>
     </g>
     <g id="text_15">
      <!-- 0.1 -->
      <g transform="translate(68.864063 264.830742)scale(0.1 -0.1)">
       <use xlink:href="#MicrosoftYaHei-30"/>
       <use x="58.642578" xlink:href="#MicrosoftYaHei-2e"/>
       <use x="82.714844" xlink:href="#MicrosoftYaHei-31"/>
      </g>
     </g>
    </g>
    <g id="ytick_3">
     <g id="line2d_16">
      <g>
       <use style="stroke:#000000;stroke-width:0.8;" x="90" xlink:href="#md4650cace0" y="201.267735"/>
      </g>
     </g>
     <g id="text_16">
      <!-- 0.2 -->
      <defs>
       <path d="M 51.171875 0 
L 5.171875 0 
L 5.171875 8.296875 
L 27.15625 30.21875 
Q 36.234375 39.3125 39.3125 44.609375 
Q 42.390625 49.90625 42.390625 55.5625 
Q 42.390625 62.015625 38.765625 65.453125 
Q 35.15625 68.890625 28.328125 68.890625 
Q 18.21875 68.890625 9.03125 60.296875 
L 9.03125 70.015625 
Q 17.96875 76.90625 29.828125 76.90625 
Q 40.046875 76.90625 45.953125 71.390625 
Q 51.859375 65.875 51.859375 56.546875 
Q 51.859375 49.515625 48.0625 42.75 
Q 44.28125 35.984375 33.734375 25.53125 
L 16.5 8.6875 
L 16.5 8.5 
L 51.171875 8.5 
z
" id="MicrosoftYaHei-32"/>
      </defs>
      <g transform="translate(68.864063 205.26461)scale(0.1 -0.1)">
       <use xlink:href="#MicrosoftYaHei-30"/>
       <use x="58.642578" xlink:href="#MicrosoftYaHei-2e"/>
       <use x="82.714844" xlink:href="#MicrosoftYaHei-32"/>
      </g>
     </g>
    </g>
    <g id="ytick_4">
     <g id="line2d_17">
      <g>
       <use style="stroke:#000000;stroke-width:0.8;" x="90" xlink:href="#md4650cace0" y="141.701602"/>
      </g>
     </g>
     <g id="text_17">
      <!-- 0.3 -->
      <g transform="translate(68.864063 145.698477)scale(0.1 -0.1)">
       <use xlink:href="#MicrosoftYaHei-30"/>
       <use x="58.642578" xlink:href="#MicrosoftYaHei-2e"/>
       <use x="82.714844" xlink:href="#MicrosoftYaHei-33"/>
      </g>
     </g>
    </g>
    <g id="ytick_5">
     <g id="line2d_18">
      <g>
       <use style="stroke:#000000;stroke-width:0.8;" x="90" xlink:href="#md4650cace0" y="82.135469"/>
      </g>
     </g>
     <g id="text_18">
      <!-- 0.4 -->
      <defs>
       <path d="M 55.078125 19.625 
L 45.40625 19.625 
L 45.40625 0 
L 36.140625 0 
L 36.140625 19.625 
L 0.875 19.625 
L 0.875 25.828125 
L 34.328125 75.640625 
L 45.40625 75.640625 
L 45.40625 27.203125 
L 55.078125 27.203125 
z
M 36.140625 27.203125 
L 36.140625 58.890625 
Q 36.140625 62.25 36.328125 66.65625 
L 36.140625 66.65625 
Q 35.453125 64.796875 33.25 60.84375 
L 10.75 27.203125 
z
" id="MicrosoftYaHei-34"/>
      </defs>
      <g transform="translate(68.864063 86.132344)scale(0.1 -0.1)">
       <use xlink:href="#MicrosoftYaHei-30"/>
       <use x="58.642578" xlink:href="#MicrosoftYaHei-2e"/>
       <use x="82.714844" xlink:href="#MicrosoftYaHei-34"/>
      </g>
     </g>
    </g>
   </g>
   <g id="patch_16">
    <path d="M 90 320.4 
L 90 43.2 
" style="fill:none;stroke:#000000;stroke-linecap:square;stroke-linejoin:miter;stroke-width:0.8;"/>
   </g>
   <g id="patch_17">
    <path d="M 648 320.4 
L 648 43.2 
" style="fill:none;stroke:#000000;stroke-linecap:square;stroke-linejoin:miter;stroke-width:0.8;"/>
   </g>
   <g id="patch_18">
    <path d="M 90 320.4 
L 648 320.4 
" style="fill:none;stroke:#000000;stroke-linecap:square;stroke-linejoin:miter;stroke-width:0.8;"/>
   </g>
   <g id="patch_19">
    <path d="M 90 43.2 
L 648 43.2 
" style="fill:none;stroke:#000000;stroke-linecap:square;stroke-linejoin:miter;stroke-width:0.8;"/>
   </g>
  </g>
 </g>
 <defs>
  <clipPath id="pd5f03cd12a">
   <rect height="277.2" width="558" x="90" y="43.2"/>
  </clipPath>
 </defs>
</svg>
