<?xml version="1.0" encoding="utf-8" standalone="no"?>
<!DOCTYPE svg PUBLIC "-//W3C//DTD SVG 1.1//EN"
  "http://www.w3.org/Graphics/SVG/1.1/DTD/svg11.dtd">
<!-- Created with matplotlib (http://matplotlib.org/) -->
<svg height="360pt" version="1.1" viewBox="0 0 720 360" width="720pt" xmlns="http://www.w3.org/2000/svg" xmlns:xlink="http://www.w3.org/1999/xlink">
 <defs>
  <style type="text/css">
*{stroke-linecap:butt;stroke-linejoin:round;}
  </style>
 </defs>
 <g id="figure_1">
  <g id="patch_1">
   <path d="M 0 360 
L 720 360 
L 720 0 
L 0 0 
z
" style="fill:#ffffff;"/>
  </g>
  <g id="axes_1">
   <g id="patch_2">
    <path d="M 90 320.4 
L 648 320.4 
L 648 43.2 
L 90 43.2 
z
" style="fill:#ffffff;"/>
   </g>
   <g id="matplotlib.axis_1">
    <g id="xtick_1">
     <g id="line2d_1">
      <path clip-path="url(#p95730bef95)" d="M 90 320.4 
L 90 43.2 
" style="fill:none;stroke:#b0b0b0;stroke-linecap:square;stroke-width:0.8;"/>
     </g>
     <g id="line2d_2">
      <defs>
       <path d="M 0 0 
L 0 3.5 
" id="m1e69e3deef" style="stroke:#000000;stroke-width:0.8;"/>
      </defs>
      <g>
       <use style="stroke:#000000;stroke-width:0.8;" x="90" xlink:href="#m1e69e3deef" y="320.4"/>
      </g>
     </g>
     <g id="text_1">
      <!-- 2017-03-24 -->
      <defs>
       <path d="M 51.171875 0 
L 5.171875 0 
L 5.171875 8.296875 
L 27.15625 30.21875 
Q 36.234375 39.3125 39.3125 44.609375 
Q 42.390625 49.90625 42.390625 55.5625 
Q 42.390625 62.015625 38.765625 65.453125 
Q 35.15625 68.890625 28.328125 68.890625 
Q 18.21875 68.890625 9.03125 60.296875 
L 9.03125 70.015625 
Q 17.96875 76.90625 29.828125 76.90625 
Q 40.046875 76.90625 45.953125 71.390625 
Q 51.859375 65.875 51.859375 56.546875 
Q 51.859375 49.515625 48.0625 42.75 
Q 44.28125 35.984375 33.734375 25.53125 
L 16.5 8.6875 
L 16.5 8.5 
L 51.171875 8.5 
z
" id="MicrosoftYaHei-32"/>
       <path d="M 4.4375 36.328125 
Q 4.4375 56.34375 11.078125 66.625 
Q 17.71875 76.90625 30.328125 76.90625 
Q 54.34375 76.90625 54.34375 38.140625 
Q 54.34375 19 47.578125 8.859375 
Q 40.828125 -1.265625 28.609375 -1.265625 
Q 17.09375 -1.265625 10.765625 8.34375 
Q 4.4375 17.96875 4.4375 36.328125 
z
M 14.203125 36.765625 
Q 14.203125 6.640625 29.5 6.640625 
Q 44.53125 6.640625 44.53125 37.25 
Q 44.53125 68.953125 29.78125 68.953125 
Q 14.203125 68.953125 14.203125 36.765625 
z
" id="MicrosoftYaHei-30"/>
       <path d="M 52.59375 0 
L 9.234375 0 
L 9.234375 8.25 
L 26.171875 8.25 
L 26.171875 65.671875 
L 8.796875 60.640625 
L 8.796875 69.4375 
L 35.6875 77.25 
L 35.6875 8.25 
L 52.59375 8.25 
z
" id="MicrosoftYaHei-31"/>
       <path d="M 53.765625 72.3125 
L 24.171875 0 
L 14.265625 0 
L 42.390625 67.1875 
L 4.59375 67.1875 
L 4.59375 75.640625 
L 53.765625 75.640625 
z
" id="MicrosoftYaHei-37"/>
       <path d="M 36.375 26.265625 
L 7.625 26.265625 
L 7.625 33.640625 
L 36.375 33.640625 
z
" id="MicrosoftYaHei-2d"/>
       <path d="M 6.984375 12.640625 
Q 14.75 6.640625 24.515625 6.640625 
Q 32.328125 6.640625 36.890625 10.46875 
Q 41.453125 14.3125 41.453125 20.75 
Q 41.453125 35.109375 20.90625 35.109375 
L 14.59375 35.109375 
L 14.59375 43.015625 
L 20.609375 43.015625 
Q 38.8125 43.015625 38.8125 56.5 
Q 38.8125 68.953125 24.90625 68.953125 
Q 16.9375 68.953125 9.90625 63.578125 
L 9.90625 72.609375 
Q 17.328125 76.90625 27.25 76.90625 
Q 36.921875 76.90625 42.78125 71.84375 
Q 48.640625 66.796875 48.640625 58.734375 
Q 48.640625 43.890625 33.5 39.65625 
L 33.5 39.453125 
Q 41.703125 38.578125 46.453125 33.671875 
Q 51.21875 28.765625 51.21875 21.4375 
Q 51.21875 11.234375 43.875 4.984375 
Q 36.53125 -1.265625 24.3125 -1.265625 
Q 13.578125 -1.265625 6.984375 2.734375 
z
" id="MicrosoftYaHei-33"/>
       <path d="M 55.078125 19.625 
L 45.40625 19.625 
L 45.40625 0 
L 36.140625 0 
L 36.140625 19.625 
L 0.875 19.625 
L 0.875 25.828125 
L 34.328125 75.640625 
L 45.40625 75.640625 
L 45.40625 27.203125 
L 55.078125 27.203125 
z
M 36.140625 27.203125 
L 36.140625 58.890625 
Q 36.140625 62.25 36.328125 66.65625 
L 36.140625 66.65625 
Q 35.453125 64.796875 33.25 60.84375 
L 10.75 27.203125 
z
" id="MicrosoftYaHei-34"/>
      </defs>
      <g transform="translate(62.217187 335.39375)scale(0.1 -0.1)">
       <use xlink:href="#MicrosoftYaHei-32"/>
       <use x="58.642578" xlink:href="#MicrosoftYaHei-30"/>
       <use x="117.285156" xlink:href="#MicrosoftYaHei-31"/>
       <use x="175.927734" xlink:href="#MicrosoftYaHei-37"/>
       <use x="234.570312" xlink:href="#MicrosoftYaHei-2d"/>
       <use x="277.832031" xlink:href="#MicrosoftYaHei-30"/>
       <use x="336.474609" xlink:href="#MicrosoftYaHei-33"/>
       <use x="395.117188" xlink:href="#MicrosoftYaHei-2d"/>
       <use x="438.378906" xlink:href="#MicrosoftYaHei-32"/>
       <use x="497.021484" xlink:href="#MicrosoftYaHei-34"/>
      </g>
     </g>
    </g>
    <g id="xtick_2">
     <g id="line2d_3">
      <path clip-path="url(#p95730bef95)" d="M 195.781991 320.4 
L 195.781991 43.2 
" style="fill:none;stroke:#b0b0b0;stroke-linecap:square;stroke-width:0.8;"/>
     </g>
     <g id="line2d_4">
      <g>
       <use style="stroke:#000000;stroke-width:0.8;" x="195.781991" xlink:href="#m1e69e3deef" y="320.4"/>
      </g>
     </g>
     <g id="text_2">
      <!-- 2018-01-22 -->
      <defs>
       <path d="M 21.390625 39.796875 
Q 7.859375 46.09375 7.859375 58.0625 
Q 7.859375 66.40625 14.203125 71.65625 
Q 20.5625 76.90625 30.421875 76.90625 
Q 39.453125 76.90625 45.3125 71.96875 
Q 51.171875 67.046875 51.171875 59.234375 
Q 51.171875 46.625 37.0625 39.84375 
L 37.0625 39.65625 
Q 53.609375 33.6875 53.609375 19.34375 
Q 53.609375 9.90625 46.796875 4.3125 
Q 39.984375 -1.265625 27.78125 -1.265625 
Q 17.78125 -1.265625 11.46875 4.25 
Q 5.171875 9.765625 5.171875 18.5625 
Q 5.171875 33.015625 21.390625 39.59375 
z
M 41.5 58.109375 
Q 41.5 63.1875 38.328125 66.109375 
Q 35.15625 69.046875 29.734375 69.046875 
Q 24.65625 69.046875 21.09375 65.984375 
Q 17.53125 62.9375 17.53125 58.203125 
Q 17.53125 48.734375 29.390625 43.796875 
Q 41.5 48.828125 41.5 58.109375 
z
M 28.8125 35.25 
Q 14.796875 29.59375 14.796875 19.046875 
Q 14.796875 13.578125 18.890625 10.0625 
Q 23 6.546875 29.59375 6.546875 
Q 35.984375 6.546875 39.984375 10.03125 
Q 44 13.53125 44 18.75 
Q 44 29.734375 28.8125 35.25 
z
" id="MicrosoftYaHei-38"/>
      </defs>
      <g transform="translate(167.999178 335.39375)scale(0.1 -0.1)">
       <use xlink:href="#MicrosoftYaHei-32"/>
       <use x="58.642578" xlink:href="#MicrosoftYaHei-30"/>
       <use x="117.285156" xlink:href="#MicrosoftYaHei-31"/>
       <use x="175.927734" xlink:href="#MicrosoftYaHei-38"/>
       <use x="234.570312" xlink:href="#MicrosoftYaHei-2d"/>
       <use x="277.832031" xlink:href="#MicrosoftYaHei-30"/>
       <use x="336.474609" xlink:href="#MicrosoftYaHei-31"/>
       <use x="395.117188" xlink:href="#MicrosoftYaHei-2d"/>
       <use x="438.378906" xlink:href="#MicrosoftYaHei-32"/>
       <use x="497.021484" xlink:href="#MicrosoftYaHei-32"/>
      </g>
     </g>
    </g>
    <g id="xtick_3">
     <g id="line2d_5">
      <path clip-path="url(#p95730bef95)" d="M 301.563981 320.4 
L 301.563981 43.2 
" style="fill:none;stroke:#b0b0b0;stroke-linecap:square;stroke-width:0.8;"/>
     </g>
     <g id="line2d_6">
      <g>
       <use style="stroke:#000000;stroke-width:0.8;" x="301.563981" xlink:href="#m1e69e3deef" y="320.4"/>
      </g>
     </g>
     <g id="text_3">
      <!-- 2018-11-26 -->
      <defs>
       <path d="M 49.703125 65.921875 
Q 43.796875 68.953125 37.359375 68.953125 
Q 27.546875 68.953125 21.578125 60.40625 
Q 15.625 51.859375 15.53125 37.0625 
L 15.765625 37.0625 
Q 21.140625 47.46875 32.90625 47.46875 
Q 42.71875 47.46875 48.578125 41.0625 
Q 54.4375 34.671875 54.4375 24.078125 
Q 54.4375 12.984375 47.671875 5.859375 
Q 40.921875 -1.265625 30.421875 -1.265625 
Q 18.890625 -1.265625 12.328125 7.734375 
Q 5.765625 16.75 5.765625 33.296875 
Q 5.765625 53.328125 14.375 65.109375 
Q 23 76.90625 37.0625 76.90625 
Q 45.125 76.90625 49.703125 74.703125 
z
M 16.109375 24.75 
Q 16.109375 17.28125 20.09375 11.953125 
Q 24.078125 6.640625 30.671875 6.640625 
Q 36.921875 6.640625 40.828125 11.234375 
Q 44.734375 15.828125 44.734375 23.046875 
Q 44.734375 30.859375 41.046875 35.203125 
Q 37.359375 39.546875 30.5625 39.546875 
Q 24.125 39.546875 20.109375 35.15625 
Q 16.109375 30.765625 16.109375 24.75 
z
" id="MicrosoftYaHei-36"/>
      </defs>
      <g transform="translate(273.781169 335.39375)scale(0.1 -0.1)">
       <use xlink:href="#MicrosoftYaHei-32"/>
       <use x="58.642578" xlink:href="#MicrosoftYaHei-30"/>
       <use x="117.285156" xlink:href="#MicrosoftYaHei-31"/>
       <use x="175.927734" xlink:href="#MicrosoftYaHei-38"/>
       <use x="234.570312" xlink:href="#MicrosoftYaHei-2d"/>
       <use x="277.832031" xlink:href="#MicrosoftYaHei-31"/>
       <use x="336.474609" xlink:href="#MicrosoftYaHei-31"/>
       <use x="395.117188" xlink:href="#MicrosoftYaHei-2d"/>
       <use x="438.378906" xlink:href="#MicrosoftYaHei-32"/>
       <use x="497.021484" xlink:href="#MicrosoftYaHei-36"/>
      </g>
     </g>
    </g>
    <g id="xtick_4">
     <g id="line2d_7">
      <path clip-path="url(#p95730bef95)" d="M 407.345972 320.4 
L 407.345972 43.2 
" style="fill:none;stroke:#b0b0b0;stroke-linecap:square;stroke-width:0.8;"/>
     </g>
     <g id="line2d_8">
      <g>
       <use style="stroke:#000000;stroke-width:0.8;" x="407.345972" xlink:href="#m1e69e3deef" y="320.4"/>
      </g>
     </g>
     <g id="text_4">
      <!-- 2019-09-19 -->
      <defs>
       <path d="M 9.03125 10.25 
Q 15.28125 6.640625 22.515625 6.640625 
Q 32.671875 6.640625 38.25 14.640625 
Q 43.84375 22.65625 43.84375 37.40625 
Q 43.75 37.3125 43.65625 37.40625 
Q 38.671875 27.9375 26.90625 27.9375 
Q 17.390625 27.9375 11.140625 34.46875 
Q 4.890625 41.015625 4.890625 51.46875 
Q 4.890625 62.59375 11.71875 69.75 
Q 18.5625 76.90625 29.4375 76.90625 
Q 40.71875 76.90625 47.0625 68.046875 
Q 53.421875 59.1875 53.421875 42.234375 
Q 53.421875 21.296875 45.21875 10.015625 
Q 37.015625 -1.265625 22.515625 -1.265625 
Q 14.546875 -1.265625 9.03125 1.3125 
z
M 14.546875 52.6875 
Q 14.546875 45.0625 18.453125 40.59375 
Q 22.359375 36.140625 29.25 36.140625 
Q 35.203125 36.140625 39.25 40.203125 
Q 43.3125 44.28125 43.3125 50.09375 
Q 43.3125 58.25 39.28125 63.59375 
Q 35.25 68.953125 28.65625 68.953125 
Q 22.5625 68.953125 18.546875 64.3125 
Q 14.546875 59.671875 14.546875 52.6875 
z
" id="MicrosoftYaHei-39"/>
      </defs>
      <g transform="translate(379.563159 335.39375)scale(0.1 -0.1)">
       <use xlink:href="#MicrosoftYaHei-32"/>
       <use x="58.642578" xlink:href="#MicrosoftYaHei-30"/>
       <use x="117.285156" xlink:href="#MicrosoftYaHei-31"/>
       <use x="175.927734" xlink:href="#MicrosoftYaHei-39"/>
       <use x="234.570312" xlink:href="#MicrosoftYaHei-2d"/>
       <use x="277.832031" xlink:href="#MicrosoftYaHei-30"/>
       <use x="336.474609" xlink:href="#MicrosoftYaHei-39"/>
       <use x="395.117188" xlink:href="#MicrosoftYaHei-2d"/>
       <use x="438.378906" xlink:href="#MicrosoftYaHei-31"/>
       <use x="497.021484" xlink:href="#MicrosoftYaHei-39"/>
      </g>
     </g>
    </g>
    <g id="xtick_5">
     <g id="line2d_9">
      <path clip-path="url(#p95730bef95)" d="M 513.127962 320.4 
L 513.127962 43.2 
" style="fill:none;stroke:#b0b0b0;stroke-linecap:square;stroke-width:0.8;"/>
     </g>
     <g id="line2d_10">
      <g>
       <use style="stroke:#000000;stroke-width:0.8;" x="513.127962" xlink:href="#m1e69e3deef" y="320.4"/>
      </g>
     </g>
     <g id="text_5">
      <!-- 2020-07-21 -->
      <g transform="translate(485.34515 335.39375)scale(0.1 -0.1)">
       <use xlink:href="#MicrosoftYaHei-32"/>
       <use x="58.642578" xlink:href="#MicrosoftYaHei-30"/>
       <use x="117.285156" xlink:href="#MicrosoftYaHei-32"/>
       <use x="175.927734" xlink:href="#MicrosoftYaHei-30"/>
       <use x="234.570312" xlink:href="#MicrosoftYaHei-2d"/>
       <use x="277.832031" xlink:href="#MicrosoftYaHei-30"/>
       <use x="336.474609" xlink:href="#MicrosoftYaHei-37"/>
       <use x="395.117188" xlink:href="#MicrosoftYaHei-2d"/>
       <use x="438.378906" xlink:href="#MicrosoftYaHei-32"/>
       <use x="497.021484" xlink:href="#MicrosoftYaHei-31"/>
      </g>
     </g>
    </g>
    <g id="xtick_6">
     <g id="line2d_11">
      <path clip-path="url(#p95730bef95)" d="M 618.909953 320.4 
L 618.909953 43.2 
" style="fill:none;stroke:#b0b0b0;stroke-linecap:square;stroke-width:0.8;"/>
     </g>
     <g id="line2d_12">
      <g>
       <use style="stroke:#000000;stroke-width:0.8;" x="618.909953" xlink:href="#m1e69e3deef" y="320.4"/>
      </g>
     </g>
     <g id="text_6">
      <!-- 2021-05-21 -->
      <defs>
       <path d="M 8.640625 11.625 
Q 16.265625 6.640625 24.515625 6.640625 
Q 32.328125 6.640625 37.109375 11 
Q 41.890625 15.375 41.890625 22.609375 
Q 41.890625 29.890625 37.03125 33.890625 
Q 32.171875 37.890625 22.953125 37.890625 
Q 18.5 37.890625 10.984375 37.203125 
L 10.984375 75.640625 
L 48.1875 75.640625 
L 48.1875 67.1875 
L 19.875 67.1875 
L 19.875 45.796875 
Q 24.125 46.046875 26.265625 46.046875 
Q 38.234375 46.046875 44.921875 39.984375 
Q 51.609375 33.9375 51.609375 23.296875 
Q 51.609375 12.3125 44.421875 5.515625 
Q 37.25 -1.265625 24.609375 -1.265625 
Q 14.015625 -1.265625 8.640625 1.859375 
z
" id="MicrosoftYaHei-35"/>
      </defs>
      <g transform="translate(591.12714 335.39375)scale(0.1 -0.1)">
       <use xlink:href="#MicrosoftYaHei-32"/>
       <use x="58.642578" xlink:href="#MicrosoftYaHei-30"/>
       <use x="117.285156" xlink:href="#MicrosoftYaHei-32"/>
       <use x="175.927734" xlink:href="#MicrosoftYaHei-31"/>
       <use x="234.570312" xlink:href="#MicrosoftYaHei-2d"/>
       <use x="277.832031" xlink:href="#MicrosoftYaHei-30"/>
       <use x="336.474609" xlink:href="#MicrosoftYaHei-35"/>
       <use x="395.117188" xlink:href="#MicrosoftYaHei-2d"/>
       <use x="438.378906" xlink:href="#MicrosoftYaHei-32"/>
       <use x="497.021484" xlink:href="#MicrosoftYaHei-31"/>
      </g>
     </g>
    </g>
   </g>
   <g id="matplotlib.axis_2">
    <g id="ytick_1">
     <g id="line2d_13">
      <path clip-path="url(#p95730bef95)" d="M 90 306.04186 
L 648 306.04186 
" style="fill:none;stroke:#b0b0b0;stroke-linecap:square;stroke-width:0.8;"/>
     </g>
     <g id="line2d_14">
      <defs>
       <path d="M 0 0 
L -3.5 0 
" id="mbfc134a64d" style="stroke:#000000;stroke-width:0.8;"/>
      </defs>
      <g>
       <use style="stroke:#000000;stroke-width:0.8;" x="90" xlink:href="#mbfc134a64d" y="306.04186"/>
      </g>
     </g>
     <g id="text_7">
      <!-- 1.0 -->
      <defs>
       <path d="M 5.8125 5.03125 
Q 5.8125 7.671875 7.609375 9.46875 
Q 9.421875 11.28125 12.109375 11.28125 
Q 14.84375 11.28125 16.640625 9.453125 
Q 18.453125 7.625 18.453125 5.03125 
Q 18.453125 2.484375 16.640625 0.65625 
Q 14.84375 -1.171875 12.0625 -1.171875 
Q 9.375 -1.171875 7.59375 0.65625 
Q 5.8125 2.484375 5.8125 5.03125 
z
" id="MicrosoftYaHei-2e"/>
      </defs>
      <g transform="translate(68.864063 310.038735)scale(0.1 -0.1)">
       <use xlink:href="#MicrosoftYaHei-31"/>
       <use x="58.642578" xlink:href="#MicrosoftYaHei-2e"/>
       <use x="82.714844" xlink:href="#MicrosoftYaHei-30"/>
      </g>
     </g>
    </g>
    <g id="ytick_2">
     <g id="line2d_15">
      <path clip-path="url(#p95730bef95)" d="M 90 269.230814 
L 648 269.230814 
" style="fill:none;stroke:#b0b0b0;stroke-linecap:square;stroke-width:0.8;"/>
     </g>
     <g id="line2d_16">
      <g>
       <use style="stroke:#000000;stroke-width:0.8;" x="90" xlink:href="#mbfc134a64d" y="269.230814"/>
      </g>
     </g>
     <g id="text_8">
      <!-- 1.5 -->
      <g transform="translate(68.864063 273.227689)scale(0.1 -0.1)">
       <use xlink:href="#MicrosoftYaHei-31"/>
       <use x="58.642578" xlink:href="#MicrosoftYaHei-2e"/>
       <use x="82.714844" xlink:href="#MicrosoftYaHei-35"/>
      </g>
     </g>
    </g>
    <g id="ytick_3">
     <g id="line2d_17">
      <path clip-path="url(#p95730bef95)" d="M 90 232.419767 
L 648 232.419767 
" style="fill:none;stroke:#b0b0b0;stroke-linecap:square;stroke-width:0.8;"/>
     </g>
     <g id="line2d_18">
      <g>
       <use style="stroke:#000000;stroke-width:0.8;" x="90" xlink:href="#mbfc134a64d" y="232.419767"/>
      </g>
     </g>
     <g id="text_9">
      <!-- 2.0 -->
      <g transform="translate(68.864063 236.416642)scale(0.1 -0.1)">
       <use xlink:href="#MicrosoftYaHei-32"/>
       <use x="58.642578" xlink:href="#MicrosoftYaHei-2e"/>
       <use x="82.714844" xlink:href="#MicrosoftYaHei-30"/>
      </g>
     </g>
    </g>
    <g id="ytick_4">
     <g id="line2d_19">
      <path clip-path="url(#p95730bef95)" d="M 90 195.608721 
L 648 195.608721 
" style="fill:none;stroke:#b0b0b0;stroke-linecap:square;stroke-width:0.8;"/>
     </g>
     <g id="line2d_20">
      <g>
       <use style="stroke:#000000;stroke-width:0.8;" x="90" xlink:href="#mbfc134a64d" y="195.608721"/>
      </g>
     </g>
     <g id="text_10">
      <!-- 2.5 -->
      <g transform="translate(68.864063 199.605596)scale(0.1 -0.1)">
       <use xlink:href="#MicrosoftYaHei-32"/>
       <use x="58.642578" xlink:href="#MicrosoftYaHei-2e"/>
       <use x="82.714844" xlink:href="#MicrosoftYaHei-35"/>
      </g>
     </g>
    </g>
    <g id="ytick_5">
     <g id="line2d_21">
      <path clip-path="url(#p95730bef95)" d="M 90 158.797674 
L 648 158.797674 
" style="fill:none;stroke:#b0b0b0;stroke-linecap:square;stroke-width:0.8;"/>
     </g>
     <g id="line2d_22">
      <g>
       <use style="stroke:#000000;stroke-width:0.8;" x="90" xlink:href="#mbfc134a64d" y="158.797674"/>
      </g>
     </g>
     <g id="text_11">
      <!-- 3.0 -->
      <g transform="translate(68.864063 162.794549)scale(0.1 -0.1)">
       <use xlink:href="#MicrosoftYaHei-33"/>
       <use x="58.642578" xlink:href="#MicrosoftYaHei-2e"/>
       <use x="82.714844" xlink:href="#MicrosoftYaHei-30"/>
      </g>
     </g>
    </g>
    <g id="ytick_6">
     <g id="line2d_23">
      <path clip-path="url(#p95730bef95)" d="M 90 121.986628 
L 648 121.986628 
" style="fill:none;stroke:#b0b0b0;stroke-linecap:square;stroke-width:0.8;"/>
     </g>
     <g id="line2d_24">
      <g>
       <use style="stroke:#000000;stroke-width:0.8;" x="90" xlink:href="#mbfc134a64d" y="121.986628"/>
      </g>
     </g>
     <g id="text_12">
      <!-- 3.5 -->
      <g transform="translate(68.864063 125.983503)scale(0.1 -0.1)">
       <use xlink:href="#MicrosoftYaHei-33"/>
       <use x="58.642578" xlink:href="#MicrosoftYaHei-2e"/>
       <use x="82.714844" xlink:href="#MicrosoftYaHei-35"/>
      </g>
     </g>
    </g>
    <g id="ytick_7">
     <g id="line2d_25">
      <path clip-path="url(#p95730bef95)" d="M 90 85.175581 
L 648 85.175581 
" style="fill:none;stroke:#b0b0b0;stroke-linecap:square;stroke-width:0.8;"/>
     </g>
     <g id="line2d_26">
      <g>
       <use style="stroke:#000000;stroke-width:0.8;" x="90" xlink:href="#mbfc134a64d" y="85.175581"/>
      </g>
     </g>
     <g id="text_13">
      <!-- 4.0 -->
      <g transform="translate(68.864063 89.172456)scale(0.1 -0.1)">
       <use xlink:href="#MicrosoftYaHei-34"/>
       <use x="58.642578" xlink:href="#MicrosoftYaHei-2e"/>
       <use x="82.714844" xlink:href="#MicrosoftYaHei-30"/>
      </g>
     </g>
    </g>
    <g id="ytick_8">
     <g id="line2d_27">
      <path clip-path="url(#p95730bef95)" d="M 90 48.364535 
L 648 48.364535 
" style="fill:none;stroke:#b0b0b0;stroke-linecap:square;stroke-width:0.8;"/>
     </g>
     <g id="line2d_28">
      <g>
       <use style="stroke:#000000;stroke-width:0.8;" x="90" xlink:href="#mbfc134a64d" y="48.364535"/>
      </g>
     </g>
     <g id="text_14">
      <!-- 4.5 -->
      <g transform="translate(68.864063 52.36141)scale(0.1 -0.1)">
       <use xlink:href="#MicrosoftYaHei-34"/>
       <use x="58.642578" xlink:href="#MicrosoftYaHei-2e"/>
       <use x="82.714844" xlink:href="#MicrosoftYaHei-35"/>
      </g>
     </g>
    </g>
   </g>
   <g id="line2d_29">
    <path clip-path="url(#p95730bef95)" d="M 90 306.04186 
L 90.52891 306.774419 
L 91.05782 306.554651 
L 91.58673 307.140698 
L 92.11564 307.433721 
L 93.17346 305.016279 
L 93.70237 304.943023 
L 94.23128 305.382558 
L 94.76019 306.554651 
L 95.2891 307.067442 
L 95.818009 306.847674 
L 96.346919 305.822093 
L 96.875829 306.481395 
L 97.404739 305.822093 
L 97.933649 305.968605 
L 98.462559 304.356977 
L 98.991469 305.236047 
L 99.520379 306.774419 
L 100.049289 306.554651 
L 100.578199 306.188372 
L 101.107109 305.382558 
L 101.636019 306.261628 
L 102.164929 306.115116 
L 102.693839 306.334884 
L 103.751659 306.994186 
L 104.280569 307.8 
L 104.809479 307.726744 
L 105.338389 307.506977 
L 106.396209 306.334884 
L 107.454028 303.404651 
L 107.982938 304.430233 
L 108.511848 304.430233 
L 110.098578 303.331395 
L 110.627488 303.624419 
L 111.156398 303.77093 
L 111.685308 304.503488 
L 112.214218 304.283721 
L 112.743128 303.77093 
L 113.800948 305.162791 
L 114.329858 304.063953 
L 115.387678 301.426744 
L 116.445498 300.327907 
L 116.974408 300.10814 
L 117.503318 301.573256 
L 118.561137 302.452326 
L 119.090047 301.5 
L 119.618957 302.086047 
L 120.147867 300.474419 
L 120.676777 301.646512 
L 121.205687 300.694186 
L 121.734597 299.22907 
L 122.263507 298.936047 
L 122.792417 300.254651 
L 123.850237 299.375581 
L 124.379147 300.401163 
L 124.908057 300.10814 
L 126.494787 302.745349 
L 127.023697 302.452326 
L 127.552607 302.818605 
L 128.081517 303.404651 
L 128.610427 303.184884 
L 129.139336 304.283721 
L 129.668246 304.869767 
L 130.197156 303.844186 
L 130.726066 303.404651 
L 131.254976 303.844186 
L 131.783886 303.77093 
L 132.312796 304.210465 
L 132.841706 305.089535 
L 133.370616 305.089535 
L 133.899526 304.503488 
L 134.957346 304.796512 
L 135.486256 305.236047 
L 136.015166 306.04186 
L 136.544076 306.188372 
L 137.072986 305.52907 
L 137.601896 305.089535 
L 138.130806 303.77093 
L 138.659716 303.624419 
L 139.188626 303.990698 
L 139.717536 303.038372 
L 140.246445 303.551163 
L 140.775355 303.77093 
L 141.304265 304.137209 
L 141.833175 303.844186 
L 142.362085 303.25814 
L 142.890995 303.697674 
L 143.419905 303.917442 
L 143.948815 304.576744 
L 144.477725 304.503488 
L 145.006635 304.210465 
L 145.535545 304.503488 
L 146.064455 303.990698 
L 146.593365 304.210465 
L 147.651185 302.818605 
L 148.180095 303.404651 
L 148.709005 303.25814 
L 149.766825 302.672093 
L 150.295735 302.89186 
L 150.824645 302.159302 
L 151.353555 302.452326 
L 151.882464 302.598837 
L 152.411374 302.159302 
L 152.940284 302.672093 
L 153.469194 301.793023 
L 153.998104 302.232558 
L 154.527014 302.086047 
L 155.055924 301.426744 
L 155.584834 301.719767 
L 156.113744 301.573256 
L 156.642654 300.474419 
L 157.171564 300.547674 
L 158.758294 296.884884 
L 159.816114 295.786047 
L 160.345024 296.152326 
L 160.873934 295.932558 
L 161.931754 294.247674 
L 162.460664 294.687209 
L 162.989573 293.295349 
L 163.518483 293.002326 
L 164.047393 291.756977 
L 164.576303 292.269767 
L 165.105213 291.463953 
L 165.634123 292.416279 
L 166.691943 292.636047 
L 167.220853 292.05 
L 167.749763 291.17093 
L 168.278673 288.387209 
L 168.807583 288.826744 
L 169.336493 290.072093 
L 169.865403 289.486047 
L 170.394313 288.606977 
L 170.923223 288.240698 
L 171.452133 290.584884 
L 171.981043 291.17093 
L 172.509953 289.119767 
L 173.038863 291.610465 
L 173.567773 290.145349 
L 174.096682 290.438372 
L 174.625592 291.830233 
L 175.154502 295.566279 
L 175.683412 296.95814 
L 176.212322 295.712791 
L 176.741232 296.445349 
L 177.270142 296.518605 
L 177.799052 296.07907 
L 178.327962 294.906977 
L 178.856872 295.859302 
L 179.385782 295.419767 
L 179.914692 295.712791 
L 180.443602 294.467442 
L 180.972512 290.877907 
L 181.501422 290.877907 
L 182.559242 289.998837 
L 183.088152 291.244186 
L 183.617062 291.17093 
L 184.145972 290.145349 
L 184.674882 289.486047 
L 185.203791 287.801163 
L 186.261611 289.119767 
L 186.790521 290.877907 
L 187.848341 288.826744 
L 188.377251 288.826744 
L 188.906161 289.193023 
L 189.435071 288.826744 
L 189.963981 287.947674 
L 190.492891 288.094186 
L 191.021801 287.947674 
L 191.550711 285.969767 
L 192.608531 286.262791 
L 193.137441 284.944186 
L 193.666351 284.651163 
L 194.195261 286.116279 
L 194.724171 286.702326 
L 195.253081 286.922093 
L 195.781991 285.310465 
L 196.83981 284.797674 
L 197.36872 286.702326 
L 197.89763 286.62907 
L 198.42654 290.218605 
L 198.95545 290.511628 
L 199.48436 290.145349 
L 200.01327 291.903488 
L 200.54218 291.683721 
L 201.07109 293.661628 
L 201.6 296.95814 
L 202.12891 297.763953 
L 202.65782 296.665116 
L 203.18673 298.789535 
L 203.71564 295.053488 
L 204.77346 293.148837 
L 205.30237 291.097674 
L 205.83128 291.683721 
L 206.36019 290.29186 
L 207.418009 291.610465 
L 207.946919 290.29186 
L 208.475829 290.951163 
L 209.004739 290.29186 
L 209.533649 288.240698 
L 210.062559 288.387209 
L 210.591469 285.456977 
L 211.120379 284.944186 
L 211.649289 284.138372 
L 212.178199 285.75 
L 212.707109 286.775581 
L 213.236019 285.676744 
L 213.764929 286.409302 
L 214.293839 283.186047 
L 214.822749 281.061628 
L 215.351659 281.574419 
L 215.880569 282.306977 
L 216.409479 284.211628 
L 216.938389 280.84186 
L 217.467299 279.523256 
L 218.525118 283.186047 
L 219.054028 279.743023 
L 219.582938 279.889535 
L 220.111848 281.061628 
L 220.640758 280.915116 
L 221.169668 279.596512 
L 221.698578 279.596512 
L 222.227488 277.545349 
L 222.756398 280.109302 
L 223.285308 278.497674 
L 223.814218 281.647674 
L 224.872038 279.596512 
L 225.400948 279.376744 
L 225.929858 279.523256 
L 226.458768 278.05814 
L 226.987678 274.02907 
L 227.516588 276.153488 
L 228.045498 273.223256 
L 228.574408 272.563953 
L 229.103318 273.296512 
L 230.161137 268.974419 
L 230.690047 270.293023 
L 231.218957 270.146512 
L 231.747867 266.703488 
L 232.276777 270.366279 
L 232.805687 270.366279 
L 233.334597 267.216279 
L 233.863507 266.263953 
L 234.392417 268.315116 
L 234.921327 267.802326 
L 235.450237 267.875581 
L 235.979147 265.384884 
L 236.508057 265.604651 
L 237.036967 264.725581 
L 237.565877 262.674419 
L 238.094787 267.509302 
L 238.623697 268.168605 
L 239.152607 264.945349 
L 239.681517 270.366279 
L 240.210427 270.146512 
L 240.739336 266.044186 
L 241.268246 263.626744 
L 241.797156 265.165116 
L 242.326066 265.09186 
L 242.854976 268.827907 
L 243.383886 266.044186 
L 243.912796 267.655814 
L 244.441706 268.681395 
L 245.499526 272.490698 
L 246.028436 268.461628 
L 246.557346 268.461628 
L 247.615166 266.776744 
L 248.144076 267.143023 
L 248.672986 271.025581 
L 249.201896 272.124419 
L 249.730806 267.436047 
L 250.259716 267.436047 
L 250.788626 266.263953 
L 251.317536 267.72907 
L 251.846445 272.417442 
L 252.375355 272.417442 
L 252.904265 268.534884 
L 253.433175 267.655814 
L 253.962085 267.289535 
L 254.490995 263.773256 
L 255.019905 261.722093 
L 255.548815 260.476744 
L 256.077725 261.868605 
L 256.606635 261.795349 
L 257.135545 265.677907 
L 257.664455 265.97093 
L 258.193365 273.809302 
L 258.722275 274.248837 
L 259.251185 271.538372 
L 259.780095 272.710465 
L 260.309005 274.175581 
L 260.837915 278.05814 
L 261.366825 277.325581 
L 261.895735 279.303488 
L 262.424645 278.644186 
L 262.953555 282.013953 
L 263.482464 286.62907 
L 264.011374 283.918605 
L 264.540284 285.823256 
L 265.069194 281.72093 
L 265.598104 279.156977 
L 266.127014 277.325581 
L 266.655924 277.69186 
L 267.184834 281.427907 
L 267.713744 281.281395 
L 268.242654 285.676744 
L 268.771564 287.215116 
L 269.300474 282.233721 
L 269.829384 282.233721 
L 270.358294 281.061628 
L 270.887204 280.32907 
L 271.416114 277.252326 
L 271.945024 277.911628 
L 273.002844 280.109302 
L 273.531754 282.453488 
L 274.060664 282.746512 
L 274.589573 284.138372 
L 275.118483 285.017442 
L 275.647393 282.819767 
L 276.176303 284.577907 
L 276.705213 283.845349 
L 277.234123 287.14186 
L 278.820853 291.17093 
L 279.349763 288.9 
L 279.878673 287.654651 
L 280.407583 288.167442 
L 280.936493 286.043023 
L 281.465403 285.530233 
L 281.994313 283.625581 
L 282.523223 283.039535 
L 283.052133 281.794186 
L 283.581043 286.62907 
L 284.109953 287.727907 
L 284.638863 289.632558 
L 285.167773 294.101163 
L 285.696682 293.661628 
L 286.225592 294.540698 
L 287.283412 296.884884 
L 287.812322 300.327907 
L 288.870142 292.123256 
L 289.927962 296.005814 
L 290.456872 296.95814 
L 291.514692 300.10814 
L 292.043602 298.936047 
L 292.572512 296.518605 
L 293.101422 296.005814 
L 293.630332 291.537209 
L 294.159242 292.562791 
L 294.688152 291.976744 
L 295.217062 292.269767 
L 295.745972 292.123256 
L 296.274882 293.002326 
L 297.332701 290.145349 
L 297.861611 290.951163 
L 298.390521 290.145349 
L 298.919431 291.830233 
L 299.448341 291.830233 
L 299.977251 293.148837 
L 300.506161 291.463953 
L 301.035071 293.44186 
L 302.092891 293.661628 
L 302.621801 292.709302 
L 303.150711 293.661628 
L 303.679621 292.709302 
L 304.208531 289.852326 
L 304.737441 288.606977 
L 305.795261 294.174419 
L 306.324171 295.419767 
L 306.853081 294.32093 
L 307.381991 295.639535 
L 307.9109 294.467442 
L 308.43981 296.95814 
L 308.96872 298.423256 
L 309.49763 298.789535 
L 310.02654 301.133721 
L 310.55545 301.939535 
L 311.08436 303.25814 
L 311.61327 301.646512 
L 312.14218 301.573256 
L 312.67109 302.012791 
L 313.2 301.719767 
L 313.72891 301.719767 
L 314.25782 304.210465 
L 314.78673 305.089535 
L 315.31564 303.404651 
L 315.84455 303.111628 
L 316.37346 303.038372 
L 316.90237 302.672093 
L 317.43128 303.111628 
L 317.96019 303.038372 
L 318.4891 303.990698 
L 319.546919 301.866279 
L 320.075829 302.37907 
L 320.604739 300.767442 
L 321.133649 299.815116 
L 321.662559 301.060465 
L 322.720379 300.840698 
L 323.249289 300.10814 
L 323.778199 300.10814 
L 324.307109 300.254651 
L 324.836019 301.133721 
L 325.364929 300.62093 
L 325.893839 298.35 
L 326.422749 296.95814 
L 326.951659 296.225581 
L 327.480569 295.126744 
L 328.009479 294.906977 
L 328.538389 295.639535 
L 329.067299 292.123256 
L 330.125118 294.027907 
L 330.654028 294.247674 
L 331.182938 293.148837 
L 331.711848 290.29186 
L 332.240758 289.705814 
L 332.769668 290.511628 
L 333.298578 287.727907 
L 333.827488 287.215116 
L 334.356398 285.75 
L 334.885308 285.383721 
L 335.414218 285.969767 
L 335.943128 287.654651 
L 336.472038 288.240698 
L 337.000948 283.99186 
L 337.529858 283.845349 
L 338.058768 283.405814 
L 338.587678 283.918605 
L 339.116588 281.281395 
L 339.645498 277.17907 
L 340.174408 278.937209 
L 340.703318 279.596512 
L 341.232227 279.962791 
L 341.761137 279.523256 
L 342.818957 281.867442 
L 343.347867 279.010465 
L 343.876777 279.45 
L 344.405687 276.080233 
L 344.934597 274.615116 
L 345.463507 276.593023 
L 345.992417 276.812791 
L 346.521327 277.252326 
L 347.050237 278.863953 
L 347.579147 277.252326 
L 348.108057 276.080233 
L 348.636967 279.376744 
L 349.165877 279.523256 
L 349.694787 280.475581 
L 350.223697 279.303488 
L 350.752607 279.156977 
L 351.281517 279.45 
L 351.810427 279.083721 
L 352.339336 279.303488 
L 352.868246 279.303488 
L 353.397156 278.717442 
L 354.454976 278.497674 
L 354.983886 276.739535 
L 355.512796 277.17907 
L 356.041706 281.940698 
L 356.570616 278.790698 
L 357.099526 280.475581 
L 357.628436 282.966279 
L 358.157346 279.669767 
L 358.686256 278.937209 
L 359.215166 279.45 
L 359.744076 276.739535 
L 360.272986 275.787209 
L 361.330806 279.816279 
L 361.859716 278.57093 
L 362.388626 278.644186 
L 362.917536 280.915116 
L 363.446445 280.915116 
L 363.975355 279.816279 
L 364.504265 278.277907 
L 365.033175 278.717442 
L 365.562085 278.204651 
L 366.090995 277.17907 
L 366.619905 277.838372 
L 367.677725 281.574419 
L 368.206635 282.233721 
L 368.735545 280.768605 
L 369.264455 277.765116 
L 369.793365 277.838372 
L 370.322275 276.666279 
L 370.851185 276.886047 
L 371.380095 277.765116 
L 372.437915 275.860465 
L 372.966825 273.443023 
L 373.495735 273.443023 
L 374.024645 272.930233 
L 374.553555 273.076744 
L 375.082464 269.633721 
L 375.611374 268.534884 
L 376.140284 269.194186 
L 376.669194 269.194186 
L 377.198104 266.85 
L 377.727014 265.45814 
L 378.784834 270.219767 
L 379.313744 268.168605 
L 379.842654 270.586047 
L 380.371564 270.146512 
L 380.900474 270 
L 381.429384 270.073256 
L 381.958294 269.926744 
L 382.487204 270.952326 
L 383.016114 272.490698 
L 383.545024 273.076744 
L 384.073934 274.54186 
L 384.602844 274.102326 
L 385.660664 274.102326 
L 386.189573 273.369767 
L 386.718483 273.516279 
L 387.247393 271.39186 
L 387.776303 272.344186 
L 388.305213 272.27093 
L 389.363033 273.296512 
L 389.891943 272.417442 
L 390.420853 274.322093 
L 390.949763 274.102326 
L 392.007583 270.146512 
L 392.536493 270.293023 
L 393.065403 269.194186 
L 393.594313 269.12093 
L 394.123223 266.776744 
L 394.652133 266.776744 
L 395.709953 265.165116 
L 396.238863 264.945349 
L 396.767773 266.117442 
L 397.296682 265.09186 
L 397.825592 261.575581 
L 398.354502 261.722093 
L 398.883412 261.282558 
L 399.412322 261.722093 
L 399.941232 262.015116 
L 400.470142 261.282558 
L 400.999052 259.231395 
L 401.527962 259.817442 
L 402.056872 259.963953 
L 402.585782 260.769767 
L 403.114692 260.037209 
L 403.643602 259.67093 
L 404.172512 258.645349 
L 404.701422 261.136047 
L 405.230332 260.696512 
L 405.759242 260.696512 
L 406.288152 261.136047 
L 406.817062 258.718605 
L 407.345972 257.326744 
L 407.874882 256.374419 
L 408.403791 257.546512 
L 408.932701 254.616279 
L 409.461611 254.323256 
L 409.990521 255.275581 
L 410.519431 254.982558 
L 411.048341 254.25 
L 411.577251 253.151163 
L 412.106161 253.663953 
L 412.635071 248.536047 
L 413.163981 248.023256 
L 413.692891 248.096512 
L 414.221801 248.023256 
L 414.750711 245.532558 
L 415.279621 245.312791 
L 415.808531 245.532558 
L 416.337441 248.609302 
L 416.866351 246.924419 
L 417.395261 249.268605 
L 417.924171 249.34186 
L 418.453081 247.95 
L 418.981991 245.898837 
L 419.5109 244.506977 
L 420.03981 245.386047 
L 420.56872 243.701163 
L 421.62654 239.452326 
L 422.68436 240.917442 
L 423.21327 239.965116 
L 423.74218 240.77093 
L 424.27109 243.627907 
L 424.8 242.309302 
L 425.32891 238.426744 
L 425.85782 236.522093 
L 426.38673 237.913953 
L 426.91564 237.694186 
L 427.44455 234.251163 
L 427.97346 234.177907 
L 428.50237 236.595349 
L 429.03128 243.188372 
L 429.56019 245.239535 
L 430.0891 244.213953 
L 430.618009 245.093023 
L 431.146919 244.287209 
L 431.675829 247.730233 
L 432.204739 249.122093 
L 432.733649 249.488372 
L 433.262559 248.316279 
L 433.791469 246.704651 
L 434.320379 245.605814 
L 434.849289 248.609302 
L 435.378199 247.290698 
L 436.436019 247.656977 
L 436.964929 244.873256 
L 437.493839 244.873256 
L 438.022749 244.360465 
L 438.551659 246.777907 
L 439.080569 247.510465 
L 439.609479 248.755814 
L 440.138389 249.195349 
L 440.667299 248.82907 
L 441.196209 248.975581 
L 441.725118 248.536047 
L 442.254028 249.268605 
L 442.782938 249.195349 
L 443.311848 247.217442 
L 443.840758 247.583721 
L 444.898578 249.634884 
L 445.427488 247.217442 
L 445.956398 247.583721 
L 446.485308 243.04186 
L 447.014218 242.382558 
L 447.543128 241.210465 
L 448.072038 242.675581 
L 450.187678 233.738372 
L 451.245498 233.518605 
L 451.774408 237.474419 
L 452.303318 244.067442 
L 452.832227 238.793023 
L 453.361137 237.034884 
L 453.890047 232.346512 
L 454.418957 233.884884 
L 454.947867 233.225581 
L 455.476777 232.2 
L 456.005687 229.636047 
L 456.534597 230.881395 
L 457.063507 230.002326 
L 457.592417 226.266279 
L 458.121327 226.925581 
L 458.650237 229.196512 
L 459.179147 227.365116 
L 459.708057 226.193023 
L 460.236967 225.387209 
L 460.765877 223.995349 
L 461.294787 228.17093 
L 461.823697 225.826744 
L 462.352607 229.636047 
L 462.881517 226.77907 
L 463.410427 223.043023 
L 463.939336 222.310465 
L 464.468246 218.72093 
L 464.997156 218.281395 
L 465.526066 221.211628 
L 466.054976 221.577907 
L 466.583886 223.922093 
L 467.112796 228.903488 
L 467.641706 231.540698 
L 468.170616 238.133721 
L 468.699526 238.280233 
L 469.228436 239.305814 
L 469.757346 241.943023 
L 470.286256 237.547674 
L 470.815166 240.697674 
L 471.344076 236.815116 
L 471.872986 231.467442 
L 472.401896 228.976744 
L 472.930806 228.17093 
L 473.459716 230.881395 
L 473.988626 227.511628 
L 474.517536 229.562791 
L 475.046445 227.804651 
L 475.575355 226.705814 
L 476.104265 222.383721 
L 476.633175 223.262791 
L 477.162085 216.523256 
L 477.690995 218.794186 
L 478.219905 217.695349 
L 478.748815 215.05814 
L 479.277725 217.036047 
L 479.806635 215.717442 
L 480.335545 216.45 
L 480.864455 214.105814 
L 481.393365 215.131395 
L 481.922275 211.90814 
L 482.451185 211.688372 
L 482.980095 214.765116 
L 483.509005 211.54186 
L 484.037915 209.417442 
L 484.566825 211.615116 
L 485.095735 214.398837 
L 485.624645 211.90814 
L 486.682464 209.783721 
L 487.211374 212.274419 
L 487.740284 207.219767 
L 488.269194 200.919767 
L 488.798104 201.359302 
L 489.327014 202.97093 
L 489.855924 198.868605 
L 490.384834 197.403488 
L 490.913744 200.553488 
L 491.442654 198.795349 
L 491.971564 201.872093 
L 492.500474 199.381395 
L 493.029384 194.546512 
L 493.558294 198.209302 
L 494.087204 199.674419 
L 494.616114 193.154651 
L 495.145024 190.224419 
L 495.673934 194.180233 
L 496.202844 192.715116 
L 496.731754 190.663953 
L 497.260664 187.587209 
L 497.789573 190.663953 
L 498.318483 188.539535 
L 498.847393 183.704651 
L 499.376303 184.656977 
L 499.905213 181.653488 
L 500.434123 179.52907 
L 500.963033 175.573256 
L 501.491943 172.862791 
L 502.020853 178.210465 
L 502.549763 172.130233 
L 503.078673 171.910465 
L 503.607583 165.903488 
L 504.136493 167.588372 
L 505.194313 161.361628 
L 505.723223 166.269767 
L 506.252133 169.053488 
L 506.781043 166.196512 
L 507.309953 168.32093 
L 507.838863 164.072093 
L 508.367773 163.852326 
L 508.896682 156.673256 
L 509.425592 153.45 
L 509.954502 146.563953 
L 510.483412 147.736047 
L 511.012322 144.366279 
L 511.541232 158.284884 
L 512.070142 154.32907 
L 512.599052 157.772093 
L 513.127962 148.761628 
L 513.656872 145.025581 
L 514.185782 138.945349 
L 514.714692 153.010465 
L 515.243602 150.226744 
L 515.772512 149.787209 
L 516.301422 143.12093 
L 516.830332 143.267442 
L 517.888152 134.476744 
L 518.417062 138.652326 
L 518.945972 134.55 
L 519.474882 140.630233 
L 520.003791 142.901163 
L 520.532701 143.413953 
L 521.061611 146.417442 
L 521.590521 153.45 
L 522.119431 157.186047 
L 522.648341 156.306977 
L 523.706161 151.325581 
L 524.235071 157.772093 
L 524.763981 158.065116 
L 525.292891 155.647674 
L 525.821801 155.647674 
L 526.350711 152.790698 
L 526.879621 152.790698 
L 527.408531 149.127907 
L 527.937441 142.168605 
L 528.466351 143.047674 
L 528.995261 143.267442 
L 530.053081 145.025581 
L 530.581991 149.713953 
L 531.1109 158.797674 
L 531.63981 159.090698 
L 532.16872 167.881395 
L 532.69763 167.515116 
L 533.22654 164.218605 
L 533.75545 166.855814 
L 534.28436 163.998837 
L 534.81327 168.613953 
L 535.34218 171.837209 
L 535.87109 169.346512 
L 536.4 171.031395 
L 536.92891 170.152326 
L 537.45782 162.240698 
L 537.98673 164.877907 
L 538.51564 162.973256 
L 539.04455 166.416279 
L 539.57346 164.65814 
L 540.10237 160.848837 
L 540.63128 154.988372 
L 541.16019 147.003488 
L 541.6891 143.487209 
L 542.218009 143.633721 
L 542.746919 145.831395 
L 543.275829 145.172093 
L 543.804739 150.666279 
L 544.333649 147.809302 
L 544.862559 148.102326 
L 545.391469 151.032558 
L 545.920379 159.456977 
L 546.449289 157.552326 
L 546.978199 149.933721 
L 547.507109 148.468605 
L 548.036019 143.780233 
L 548.564929 147.589535 
L 549.093839 147.443023 
L 550.151659 143.853488 
L 550.680569 144.146512 
L 551.209479 149.347674 
L 551.738389 142.974419 
L 552.267299 147.516279 
L 552.796209 154.988372 
L 553.325118 152.05814 
L 553.854028 152.57093 
L 554.382938 150.886047 
L 555.440758 165.317442 
L 555.969668 163.046512 
L 556.498578 161.361628 
L 557.027488 162.533721 
L 557.556398 163.412791 
L 558.085308 167.734884 
L 558.614218 168.027907 
L 559.143128 166.782558 
L 559.672038 165.976744 
L 560.200948 159.090698 
L 560.729858 159.090698 
L 561.787678 150.373256 
L 562.316588 148.834884 
L 562.845498 148.102326 
L 563.374408 151.545349 
L 563.903318 147.076744 
L 564.432227 148.248837 
L 564.961137 143.194186 
L 565.490047 140.410465 
L 566.018957 138.286047 
L 566.547867 133.597674 
L 567.076777 134.989535 
L 567.605687 130.081395 
L 568.134597 131.912791 
L 568.663507 131.473256 
L 569.192417 129.568605 
L 569.721327 125.026744 
L 570.779147 127.956977 
L 571.308057 124.660465 
L 571.836967 124.294186 
L 572.894787 115.063953 
L 573.423697 111.913953 
L 573.952607 113.745349 
L 574.481517 113.305814 
L 575.010427 110.22907 
L 576.068246 117.40814 
L 576.597156 117.261628 
L 577.126066 114.404651 
L 577.654976 119.898837 
L 578.183886 105.906977 
L 578.712796 100.705814 
L 579.241706 85.90814 
L 579.770616 79.901163 
L 580.299526 90.376744 
L 580.828436 91.84186 
L 581.357346 100.193023 
L 581.886256 100.998837 
L 582.415166 96.163953 
L 582.944076 93.673256 
L 583.472986 89.204651 
L 584.001896 92.354651 
L 584.530806 88.105814 
L 585.059716 82.245349 
L 585.588626 77.996512 
L 586.117536 88.472093 
L 586.646445 87.006977 
L 587.175355 102.463953 
L 587.704265 103.782558 
L 588.233175 114.477907 
L 588.762085 113.452326 
L 589.290995 119.605814 
L 589.819905 116.016279 
L 590.348815 120.924419 
L 590.877725 116.968605 
L 591.406635 128.836047 
L 591.935545 129.422093 
L 592.464455 144.073256 
L 592.993365 149.860465 
L 594.051185 133.817442 
L 594.580095 132.27907 
L 595.109005 145.245349 
L 595.637915 143.047674 
L 596.166825 140.044186 
L 596.695735 134.55 
L 597.224645 141.143023 
L 597.753555 140.703488 
L 598.282464 140.85 
L 598.811374 140.703488 
L 599.340284 136.747674 
L 599.869194 127.663953 
L 600.398104 127.737209 
L 600.927014 121.95 
L 601.455924 124.806977 
L 601.984834 117.261628 
L 602.513744 115.063953 
L 603.042654 119.166279 
L 603.571564 120.851163 
L 604.100474 115.430233 
L 604.629384 119.166279 
L 605.158294 127.810465 
L 605.687204 124.513953 
L 606.216114 123.781395 
L 606.745024 124.147674 
L 607.273934 126.272093 
L 607.802844 118.580233 
L 608.331754 115.576744 
L 608.860664 111.62093 
L 609.389573 112.573256 
L 609.918483 102.830233 
L 610.447393 107.665116 
L 610.976303 98.947674 
L 611.505213 92.574419 
L 612.034123 93.087209 
L 612.563033 91.475581 
L 613.620853 110.595349 
L 614.149763 105.980233 
L 615.207583 93.893023 
L 615.736493 92.574419 
L 616.265403 89.424419 
L 616.794313 81.073256 
L 617.323223 84.809302 
L 617.852133 87.080233 
L 618.381043 82.611628 
L 618.909953 83.637209 
L 619.438863 83.637209 
L 619.967773 76.45814 
L 620.496682 79.974419 
L 621.025592 76.897674 
L 621.554502 85.102326 
L 622.083412 79.388372 
L 622.612322 71.843023 
L 623.141232 79.24186 
L 623.670142 80.047674 
L 624.199052 76.384884 
L 624.727962 74.993023 
L 625.256872 78.436047 
L 625.785782 75.798837 
L 626.314692 70.890698 
L 627.372512 73.601163 
L 627.901422 85.54186 
L 628.430332 81.439535 
L 628.959242 74.919767 
L 629.488152 70.304651 
L 630.017062 63.418605 
L 630.545972 64.663953 
L 631.074882 72.648837 
L 631.603791 63.784884 
L 632.132701 61.147674 
L 632.661611 63.49186 
L 633.190521 62.832558 
L 633.719431 55.8 
L 634.248341 74.773256 
L 634.777251 77.703488 
L 635.306161 92.134884 
L 635.835071 80.853488 
L 636.363981 88.472093 
L 636.892891 88.105814 
L 637.421801 76.604651 
L 637.950711 75.945349 
L 638.479621 72.575581 
L 639.008531 70.744186 
L 639.537441 80.194186 
L 640.066351 73.454651 
L 640.595261 72.502326 
L 641.124171 68.253488 
L 642.181991 87.812791 
L 642.7109 102.17093 
L 643.23981 106.712791 
L 643.76872 96.017442 
L 644.29763 88.765116 
L 644.82654 97.409302 
L 645.35545 93.673256 
L 645.88436 83.637209 
L 646.41327 82.465116 
L 646.94218 81.87907 
L 647.47109 90.303488 
L 648 89.424419 
L 648 89.424419 
" style="fill:none;stroke:#1f77b4;stroke-linecap:square;stroke-width:1.5;"/>
   </g>
   <g id="line2d_30">
    <path clip-path="url(#p95730bef95)" d="M 90 306.04186 
L 90.52891 306.079751 
L 91.58673 305.094587 
L 92.64455 304.943023 
L 93.17346 305.246151 
L 94.76019 305.094587 
L 95.818009 305.814515 
L 96.346919 306.42077 
L 96.875829 305.662951 
L 97.933649 305.814515 
L 98.462559 305.094587 
L 98.991469 305.056696 
L 100.049289 303.61684 
L 100.578199 303.692622 
L 101.107109 303.237931 
L 101.636019 303.048476 
L 102.164929 302.176985 
L 102.693839 302.518003 
L 103.751659 302.214876 
L 104.280569 301.98753 
L 104.809479 301.608621 
L 105.338389 301.532839 
L 105.867299 301.608621 
L 106.396209 301.57073 
L 107.454028 301.19182 
L 107.982938 303.313713 
L 109.569668 301.684403 
L 110.098578 301.646512 
L 111.156398 300.585565 
L 111.685308 300.434002 
L 112.214218 300.547674 
L 112.743128 300.77502 
L 113.272038 299.903528 
L 114.329858 300.434002 
L 115.387678 300.055092 
L 115.916588 301.911748 
L 116.445498 302.366439 
L 116.974408 301.798075 
L 118.561137 302.745349 
L 119.090047 301.532839 
L 119.618957 302.025421 
L 120.147867 301.153929 
L 120.676777 301.19182 
L 121.205687 300.812911 
L 121.734597 301.153929 
L 122.263507 302.518003 
L 122.792417 301.646512 
L 123.321327 303.124258 
L 123.850237 303.389495 
L 124.379147 304.033641 
L 124.908057 303.162149 
L 125.436967 303.844186 
L 126.494787 302.518003 
L 127.023697 302.290658 
L 127.552607 301.457057 
L 128.081517 301.343384 
L 128.610427 300.77502 
L 129.139336 301.002366 
L 129.668246 300.434002 
L 130.197156 300.130874 
L 130.726066 300.055092 
L 131.254976 300.130874 
L 131.783886 299.865638 
L 132.312796 299.903528 
L 132.841706 299.600401 
L 133.370616 300.320329 
L 133.899526 300.35822 
L 134.428436 300.812911 
L 134.957346 300.77502 
L 135.486256 300.471893 
L 136.015166 300.737129 
L 136.544076 300.737129 
L 137.072986 300.168765 
L 138.130806 300.547674 
L 138.659716 302.593785 
L 139.188626 302.176985 
L 139.717536 301.229711 
L 140.775355 300.850802 
L 141.304265 302.518003 
L 142.362085 302.669567 
L 142.890995 301.646512 
L 144.477725 302.328549 
L 145.006635 302.40433 
L 145.535545 302.139094 
L 146.593365 300.77502 
L 147.122275 300.926584 
L 147.651185 302.290658 
L 148.709005 301.98753 
L 149.237915 302.896913 
L 149.766825 302.101203 
L 150.295735 301.57073 
L 150.824645 301.305493 
L 151.353555 301.684403 
L 151.882464 301.494948 
L 152.411374 301.608621 
L 152.940284 301.343384 
L 153.469194 301.381275 
L 153.998104 301.646512 
L 154.527014 301.684403 
L 155.055924 302.40433 
L 155.584834 302.101203 
L 156.113744 301.229711 
L 156.642654 301.19182 
L 157.171564 300.471893 
L 157.700474 299.297273 
L 159.287204 299.941419 
L 160.345024 299.335164 
L 161.402844 299.14571 
L 161.931754 299.335164 
L 162.460664 299.107819 
L 162.989573 299.524619 
L 163.518483 299.297273 
L 164.576303 299.865638 
L 165.105213 297.402727 
L 166.163033 297.023817 
L 166.691943 297.13749 
L 167.220853 297.478508 
L 167.749763 296.834362 
L 168.278673 296.379671 
L 168.807583 296.34178 
L 169.336493 295.962871 
L 169.865403 296.303889 
L 170.394313 296.379671 
L 170.923223 296.190217 
L 171.452133 296.455453 
L 171.981043 297.023817 
L 172.509953 295.887089 
L 173.038863 296.228107 
L 173.567773 296.303889 
L 174.096682 295.280834 
L 174.625592 295.280834 
L 175.154502 295.583962 
L 175.683412 295.546071 
L 176.212322 295.242943 
L 176.741232 296.569126 
L 177.270142 295.849198 
L 177.799052 296.190217 
L 178.327962 297.099599 
L 178.856872 297.061708 
L 180.972512 295.318725 
L 181.501422 295.432398 
L 182.030332 295.205052 
L 182.559242 295.50818 
L 183.088152 294.409342 
L 183.617062 293.689415 
L 184.145972 294.219888 
L 184.674882 294.371451 
L 185.203791 294.674579 
L 185.732701 294.750361 
L 186.261611 295.697634 
L 187.319431 295.621852 
L 187.848341 296.265998 
L 188.377251 296.265998 
L 188.906161 295.167161 
L 189.435071 294.560906 
L 189.963981 294.29567 
L 190.492891 293.575742 
L 192.079621 293.121051 
L 192.608531 292.590577 
L 193.137441 292.249559 
L 193.666351 293.272614 
L 194.195261 292.363232 
L 194.724171 292.249559 
L 195.253081 292.249559 
L 195.781991 291.415958 
L 196.3109 290.809703 
L 196.83981 291.49174 
L 197.36872 291.832759 
L 197.89763 290.847594 
L 198.95545 292.211668 
L 199.48436 291.90854 
L 200.01327 292.893705 
L 200.54218 294.901925 
L 201.07109 298.046872 
L 201.6 295.811307 
L 202.12891 297.099599 
L 202.65782 300.661347 
L 203.18673 298.842582 
L 203.71564 297.705854 
L 204.24455 297.023817 
L 204.77346 295.205052 
L 205.30237 293.954651 
L 205.83128 292.249559 
L 206.36019 291.226504 
L 206.8891 292.70425 
L 207.418009 293.08316 
L 207.946919 294.371451 
L 208.475829 293.613633 
L 209.004739 292.552686 
L 209.533649 292.211668 
L 210.062559 292.135886 
L 210.591469 291.719086 
L 211.120379 289.672975 
L 211.649289 289.48352 
L 212.178199 290.733921 
L 213.236019 291.037049 
L 213.764929 290.923376 
L 214.293839 292.969487 
L 214.822749 292.817923 
L 215.351659 293.045269 
L 216.409479 297.592181 
L 216.938389 294.636688 
L 217.467299 297.9332 
L 217.996209 298.7668 
L 218.525118 296.948035 
L 219.054028 299.676183 
L 219.582938 298.7668 
L 220.111848 297.364836 
L 220.640758 298.198436 
L 221.169668 296.455453 
L 221.698578 297.099599 
L 222.227488 296.303889 
L 222.756398 296.607017 
L 223.285308 296.038653 
L 223.814218 294.447233 
L 224.343128 294.144106 
L 224.872038 294.826143 
L 225.400948 296.114435 
L 225.929858 296.152326 
L 226.458768 297.705854 
L 226.987678 297.819527 
L 227.516588 295.811307 
L 228.574408 295.470289 
L 229.103318 295.394507 
L 229.632227 294.030433 
L 230.161137 293.310505 
L 230.690047 293.310505 
L 231.747867 291.302285 
L 232.276777 291.681195 
L 232.805687 291.756977 
L 233.334597 292.552686 
L 233.863507 291.643304 
L 234.921327 292.363232 
L 235.450237 291.794868 
L 235.979147 292.022213 
L 236.508057 291.340176 
L 237.036967 291.378067 
L 237.565877 291.188613 
L 238.094787 291.415958 
L 238.623697 290.544467 
L 239.152607 290.733921 
L 239.681517 289.407739 
L 240.210427 288.460465 
L 240.739336 288.233119 
L 241.268246 287.816319 
L 241.797156 288.725702 
L 242.326066 288.574138 
L 242.854976 288.27101 
L 243.383886 287.664755 
L 243.912796 287.702646 
L 244.441706 286.944828 
L 244.970616 286.755373 
L 245.499526 287.247955 
L 246.028436 286.073336 
L 246.557346 286.717482 
L 247.086256 286.793264 
L 247.615166 288.687811 
L 248.144076 287.929992 
L 248.672986 288.725702 
L 249.201896 287.43741 
L 249.730806 287.020609 
L 250.259716 287.020609 
L 250.788626 286.300682 
L 251.317536 286.906937 
L 251.846445 286.187009 
L 252.375355 284.519808 
L 252.904265 283.572534 
L 253.433175 283.686207 
L 253.962085 284.254571 
L 254.490995 281.981115 
L 255.019905 281.867442 
L 255.548815 282.170569 
L 256.077725 281.37486 
L 256.606635 281.488532 
L 257.135545 281.753769 
L 257.664455 280.958059 
L 258.193365 280.654932 
L 258.722275 279.859222 
L 259.251185 278.343585 
L 259.780095 280.124459 
L 260.837915 282.284242 
L 261.895735 280.99595 
L 263.482464 278.419366 
L 264.011374 278.192021 
L 265.069194 278.381476 
L 265.598104 278.94984 
L 266.127014 278.760385 
L 266.655924 278.078348 
L 267.184834 279.101403 
L 267.713744 278.722494 
L 268.242654 278.760385 
L 268.771564 279.063512 
L 269.300474 279.215076 
L 269.829384 278.94984 
L 270.358294 278.94984 
L 270.887204 277.472093 
L 271.416114 276.752165 
L 271.945024 277.282638 
L 272.473934 276.032237 
L 273.002844 276.221692 
L 273.531754 275.842783 
L 274.060664 276.373256 
L 275.118483 278.646712 
L 275.647393 278.94984 
L 276.176303 278.457257 
L 276.705213 277.509984 
L 277.234123 277.699439 
L 277.763033 276.790056 
L 278.291943 277.168966 
L 278.820853 278.457257 
L 279.349763 277.585766 
L 279.878673 277.623657 
L 280.407583 276.562711 
L 280.936493 277.396311 
L 281.465403 276.790056 
L 281.994313 276.638492 
L 282.523223 275.615437 
L 283.052133 275.425982 
L 283.581043 278.874058 
L 284.109953 278.57093 
L 284.638863 283.042061 
L 285.167773 284.027225 
L 285.696682 281.450642 
L 286.225592 282.625261 
L 286.754502 279.745549 
L 287.283412 279.78344 
L 287.812322 281.79166 
L 288.341232 281.79166 
L 288.870142 281.526423 
L 289.399052 281.753769 
L 289.927962 286.187009 
L 290.456872 283.155734 
L 291.514692 287.361628 
L 292.043602 285.770209 
L 292.572512 283.496752 
L 293.101422 281.981115 
L 293.630332 283.79988 
L 294.159242 284.785044 
L 294.688152 283.913553 
L 295.217062 281.033841 
L 295.745972 281.488532 
L 296.274882 282.890497 
L 296.803791 285.542863 
L 297.332701 285.315517 
L 297.861611 286.452245 
L 298.390521 284.785044 
L 298.919431 285.201844 
L 299.448341 288.498356 
L 299.977251 289.938212 
L 300.506161 289.06672 
L 301.035071 289.938212 
L 301.563981 287.664755 
L 302.092891 287.361628 
L 302.621801 284.368244 
L 303.150711 284.860826 
L 303.679621 284.103007 
L 304.208531 282.360024 
L 304.737441 286.717482 
L 305.266351 286.603809 
L 305.795261 289.559302 
L 306.324171 288.574138 
L 306.853081 287.892101 
L 307.381991 286.982719 
L 307.9109 287.323737 
L 308.43981 289.672975 
L 308.96872 291.415958 
L 309.49763 290.923376 
L 310.02654 292.893705 
L 310.55545 294.106215 
L 311.08436 296.910144 
L 311.61327 298.691018 
L 312.14218 293.992542 
L 312.67109 293.575742 
L 313.2 293.992542 
L 313.72891 293.386287 
L 314.25782 293.121051 
L 314.78673 295.92498 
L 315.31564 292.325341 
L 316.90237 290.089775 
L 317.43128 290.317121 
L 317.96019 290.923376 
L 318.4891 292.173777 
L 319.018009 290.506576 
L 319.546919 290.430794 
L 320.075829 289.786648 
L 320.604739 288.801484 
L 321.133649 288.687811 
L 321.662559 290.392903 
L 322.720379 289.748757 
L 323.249289 288.422574 
L 323.778199 290.241339 
L 324.307109 291.264395 
L 324.836019 288.915156 
L 325.364929 288.043665 
L 325.893839 288.384683 
L 326.422749 287.361628 
L 326.951659 285.580754 
L 327.480569 285.694427 
L 328.538389 285.201844 
L 330.125118 285.163953 
L 330.654028 285.997554 
L 331.182938 285.391299 
L 331.711848 285.088172 
L 333.298578 285.656536 
L 333.827488 284.860826 
L 334.885308 284.785044 
L 335.414218 285.277626 
L 335.943128 286.338573 
L 336.472038 286.300682 
L 337.000948 284.368244 
L 337.529858 283.989334 
L 338.058768 283.269407 
L 338.587678 283.610425 
L 339.116588 282.511588 
L 339.645498 282.397915 
L 340.174408 282.132678 
L 340.703318 281.677987 
L 341.232227 280.57915 
L 341.761137 282.625261 
L 342.290047 282.549479 
L 342.818957 282.170569 
L 343.347867 282.58737 
L 343.876777 282.246351 
L 344.405687 281.37486 
L 344.934597 280.276022 
L 345.463507 280.048677 
L 345.992417 279.36664 
L 346.521327 279.631877 
L 347.050237 278.646712 
L 347.579147 279.139294 
L 348.108057 278.646712 
L 348.636967 278.911949 
L 349.165877 278.192021 
L 349.694787 278.381476 
L 350.752607 277.699439 
L 351.281517 277.851002 
L 352.339336 277.396311 
L 352.868246 276.032237 
L 353.397156 276.14591 
L 353.926066 275.653328 
L 354.983886 275.388091 
L 355.512796 276.108019 
L 356.041706 275.842783 
L 356.570616 277.434202 
L 357.628436 278.116239 
L 358.157346 277.661548 
L 358.686256 281.261187 
L 360.272986 276.827947 
L 360.801896 277.661548 
L 361.330806 279.215076 
L 361.859716 278.229912 
L 362.388626 278.646712 
L 362.917536 280.16235 
L 363.975355 280.351804 
L 364.504265 280.57915 
L 365.033175 281.412751 
L 365.562085 280.99595 
L 366.090995 282.58737 
L 366.619905 284.785044 
L 367.148815 282.397915 
L 368.206635 280.730714 
L 368.735545 277.699439 
L 369.264455 277.547875 
L 369.793365 278.116239 
L 370.322275 277.547875 
L 370.851185 278.002566 
L 371.380095 277.35842 
L 371.909005 275.880674 
L 372.437915 275.501764 
L 372.966825 274.668164 
L 373.495735 275.31231 
L 374.024645 275.3502 
L 374.553555 277.017402 
L 375.611374 275.842783 
L 376.140284 275.72911 
L 376.669194 275.72911 
L 377.198104 274.478709 
L 377.727014 274.327145 
L 378.255924 273.341981 
L 378.784834 273.228308 
L 379.313744 273.493545 
L 379.842654 273.986127 
L 380.371564 273.455654 
L 380.900474 272.432598 
L 381.429384 272.773617 
L 381.958294 272.205253 
L 382.487204 271.864234 
L 383.545024 272.697835 
L 384.073934 272.584162 
L 384.602844 273.72089 
L 385.131754 272.584162 
L 386.189573 271.030634 
L 386.718483 272.281034 
L 387.247393 271.068524 
L 388.305213 271.826343 
L 388.834123 273.266199 
L 389.363033 273.796672 
L 389.891943 275.160746 
L 390.420853 278.646712 
L 390.949763 276.52482 
L 391.478673 275.653328 
L 392.007583 273.190417 
L 393.065403 275.160746 
L 393.594313 272.697835 
L 394.123223 275.994346 
L 394.652133 276.108019 
L 395.709953 272.735726 
L 396.238863 273.379872 
L 396.767773 272.432598 
L 397.296682 272.735726 
L 397.825592 275.956455 
L 398.354502 274.440818 
L 398.883412 274.251363 
L 399.412322 273.910345 
L 399.941232 272.281034 
L 400.470142 272.394707 
L 400.999052 272.394707 
L 401.527962 273.531435 
L 402.056872 272.015798 
L 402.585782 270.08336 
L 403.114692 270.197033 
L 404.172512 270.765397 
L 404.701422 269.742342 
L 405.230332 269.325541 
L 405.759242 270.50016 
L 406.288152 269.893905 
L 406.817062 269.893905 
L 407.345972 269.742342 
L 407.874882 270.841179 
L 408.403791 270.87907 
L 408.932701 272.394707 
L 409.461611 271.106415 
L 409.990521 271.561107 
L 410.519431 272.773617 
L 411.048341 271.864234 
L 411.577251 273.872454 
L 412.106161 272.659944 
L 412.635071 271.977907 
L 413.163981 270.538051 
L 413.692891 270.575942 
L 414.221801 269.211868 
L 414.750711 269.439214 
L 415.279621 269.098196 
L 415.808531 270.272815 
L 416.337441 269.325541 
L 416.866351 270.272815 
L 417.395261 269.893905 
L 418.981991 266.824739 
L 419.5109 267.923577 
L 420.03981 267.468885 
L 420.56872 267.506776 
L 421.09763 266.597394 
L 421.62654 266.02903 
L 422.15545 266.02903 
L 422.68436 266.673176 
L 423.21327 266.44583 
L 423.74218 266.02903 
L 424.27109 266.256375 
L 424.8 265.839575 
L 425.85782 265.763793 
L 426.38673 264.968083 
L 427.44455 264.778629 
L 427.97346 265.346993 
L 428.50237 265.422775 
L 429.03128 265.195429 
L 429.56019 263.679791 
L 430.0891 263.566119 
L 430.618009 262.732518 
L 431.146919 262.846191 
L 431.675829 263.376664 
L 432.204739 264.778629 
L 432.733649 265.612229 
L 433.262559 264.778629 
L 433.791469 264.361828 
L 434.320379 263.376664 
L 434.849289 263.831355 
L 435.378199 263.945028 
L 436.436019 262.618845 
L 436.964929 262.467281 
L 437.493839 261.747354 
L 438.551659 261.520008 
L 439.080569 260.610626 
L 440.138389 259.663352 
L 440.667299 259.625461 
L 441.196209 259.701243 
L 441.725118 259.019206 
L 442.254028 258.981315 
L 442.782938 259.928589 
L 443.311848 259.701243 
L 443.840758 258.034042 
L 444.369668 258.981315 
L 444.898578 258.185605 
L 445.427488 258.261387 
L 445.956398 257.730914 
L 446.485308 256.632077 
L 447.014218 257.200441 
L 447.543128 255.912149 
L 448.072038 256.935204 
L 448.600948 257.086768 
L 449.129858 255.95004 
L 449.658768 255.192221 
L 450.187678 255.571131 
L 450.716588 255.722694 
L 451.245498 255.002767 
L 451.774408 254.548075 
L 452.303318 255.230112 
L 452.832227 251.592582 
L 453.361137 251.062109 
L 453.890047 249.698035 
L 454.418957 250.645309 
L 454.947867 248.864435 
L 455.476777 248.826544 
L 456.005687 247.803488 
L 456.534597 247.917161 
L 457.063507 247.46247 
L 457.592417 247.538252 
L 458.121327 247.424579 
L 458.650237 245.83316 
L 459.179147 247.083561 
L 459.708057 249.243344 
L 460.236967 254.282839 
L 460.765877 257.655132 
L 461.294787 257.352005 
L 461.823697 263.300882 
L 462.352607 263.149318 
L 462.881517 258.109824 
L 463.410427 262.353609 
L 463.939336 257.54146 
L 464.468246 261.482117 
L 464.997156 263.528228 
L 465.526066 271.447434 
L 466.054976 265.725902 
L 466.583886 270.197033 
L 467.112796 280.086568 
L 467.641706 269.66656 
L 468.170616 283.117843 
L 468.699526 276.979511 
L 469.228436 280.57915 
L 469.757346 278.836167 
L 470.286256 282.132678 
L 470.815166 282.094787 
L 471.344076 274.743945 
L 471.872986 276.259583 
L 472.401896 270.613833 
L 472.930806 275.122855 
L 473.459716 271.030634 
L 473.988626 271.447434 
L 474.517536 276.108019 
L 475.046445 273.72089 
L 475.575355 275.047073 
L 476.104265 268.07514 
L 476.633175 266.294266 
L 477.162085 266.104812 
L 477.690995 266.370048 
L 478.219905 265.157538 
L 478.748815 260.00437 
L 479.277725 261.406335 
L 479.806635 258.602406 
L 480.335545 257.617241 
L 480.864455 259.17077 
L 481.393365 263.490337 
L 481.922275 259.663352 
L 482.451185 260.00437 
L 482.980095 258.147715 
L 483.509005 257.655132 
L 484.037915 259.852807 
L 484.566825 255.646913 
L 485.095735 255.571131 
L 485.624645 255.609022 
L 486.153555 253.562911 
L 486.682464 252.160946 
L 487.211374 251.1 
L 487.740284 253.449238 
L 488.269194 255.078549 
L 488.798104 253.638693 
L 489.327014 252.842983 
L 489.855924 250.228508 
L 490.384834 250.872654 
L 490.913744 248.182398 
L 491.442654 249.811708 
L 491.971564 249.167562 
L 492.500474 248.712871 
L 493.029384 248.902326 
L 493.558294 248.561307 
L 494.087204 248.599198 
L 494.616114 246.628869 
L 495.673934 245.492141 
L 496.202844 245.03745 
L 496.731754 246.136287 
L 497.260664 243.559703 
L 497.789573 242.650321 
L 498.318483 242.006175 
L 498.847393 240.301083 
L 499.376303 247.424579 
L 500.434123 244.355413 
L 500.963033 242.23352 
L 501.491943 241.551484 
L 502.020853 241.134683 
L 502.549763 241.134683 
L 503.078673 239.581155 
L 503.607583 238.823336 
L 504.136493 241.892502 
L 504.665403 242.044066 
L 505.194313 239.353809 
L 505.723223 237.838172 
L 506.252133 237.269808 
L 506.781043 237.118244 
L 507.309953 233.480714 
L 507.838863 235.261588 
L 508.367773 233.518605 
L 509.425592 231.737731 
L 509.954502 234.882678 
L 510.483412 233.632277 
L 511.012322 233.518605 
L 511.541232 234.693224 
L 512.070142 234.162751 
L 512.599052 230.184202 
L 513.127962 231.927185 
L 513.656872 231.737731 
L 514.185782 235.299479 
L 514.714692 236.587771 
L 515.243602 233.821732 
L 515.772512 236.019407 
L 516.301422 234.12486 
L 516.830332 233.518605 
L 517.888152 228.706455 
L 518.945972 228.251764 
L 519.474882 226.963472 
L 520.003791 228.744346 
L 520.532701 228.971692 
L 521.061611 231.661949 
L 521.590521 228.1002 
L 522.119431 228.175982 
L 522.648341 228.403328 
L 523.706161 225.372053 
L 524.235071 226.774018 
L 524.763981 224.424779 
L 525.292891 223.742743 
L 526.350711 221.317723 
L 526.879621 218.172775 
L 527.408531 219.19583 
L 528.466351 217.452847 
L 528.995261 215.255172 
L 529.524171 213.815317 
L 530.053081 222.606014 
L 530.581991 224.500561 
L 531.1109 224.424779 
L 531.63981 231.813512 
L 532.16872 227.418164 
L 532.69763 230.752566 
L 533.22654 231.548276 
L 533.75545 229.085365 
L 534.28436 227.2666 
L 534.81327 230.676784 
L 535.87109 235.299479 
L 536.4 234.731115 
L 536.92891 231.434603 
L 537.45782 235.867843 
L 537.98673 234.920569 
L 539.04455 228.251764 
L 539.57346 228.971692 
L 540.10237 227.872855 
L 541.16019 221.279832 
L 541.6891 220.976704 
L 542.218009 221.848196 
L 542.746919 223.212269 
L 543.275829 223.970088 
L 543.804739 227.531836 
L 544.333649 227.152927 
L 545.391469 228.213873 
L 545.920379 227.493945 
L 546.449289 229.881075 
L 546.978199 228.06231 
L 547.507109 233.632277 
L 548.036019 230.752566 
L 548.564929 234.693224 
L 549.093839 234.731115 
L 549.622749 232.381877 
L 550.151659 226.319326 
L 550.680569 222.075541 
L 551.209479 223.288051 
L 552.267299 230.222093 
L 552.796209 226.395108 
L 553.325118 226.88769 
L 553.854028 225.334162 
L 554.382938 224.879471 
L 554.911848 225.978308 
L 555.440758 227.380273 
L 555.969668 226.47089 
L 556.498578 226.811909 
L 557.027488 227.001363 
L 557.556398 224.614234 
L 558.085308 223.780634 
L 558.614218 223.742743 
L 559.143128 222.41656 
L 559.672038 222.227105 
L 560.200948 219.536848 
L 560.729858 220.256776 
L 561.258768 220.143103 
L 562.316588 219.044266 
L 562.845498 218.665357 
L 563.374408 222.151323 
L 563.903318 221.279832 
L 564.432227 221.772414 
L 564.961137 220.787249 
L 565.490047 218.892702 
L 566.018957 218.172775 
L 566.547867 217.111828 
L 567.076777 217.414956 
L 567.605687 217.528629 
L 568.134597 217.452847 
L 568.663507 217.907538 
L 569.192417 217.642302 
L 569.721327 217.718083 
L 570.250237 216.278228 
L 570.779147 215.709864 
L 571.308057 216.012991 
L 571.836967 217.755974 
L 572.365877 217.945429 
L 572.894787 220.597795 
L 573.423697 216.619246 
L 573.952607 214.307899 
L 574.481517 216.732919 
L 575.010427 216.77081 
L 575.539336 216.240337 
L 576.068246 216.846592 
L 576.597156 218.324338 
L 577.126066 217.831756 
L 577.654976 215.330954 
L 578.183886 211.617642 
L 578.712796 210.594587 
L 579.241706 211.314515 
L 579.770616 209.306295 
L 580.299526 209.154731 
L 580.828436 214.383681 
L 581.357346 212.830152 
L 581.886256 216.619246 
L 582.415166 212.792261 
L 582.944076 209.91255 
L 583.472986 210.746151 
L 584.001896 208.889495 
L 584.530806 208.055894 
L 585.059716 206.994948 
L 585.588626 207.449639 
L 586.646445 208.548476 
L 587.175355 213.209062 
L 587.704265 213.739535 
L 588.233175 212.110225 
L 588.762085 218.324338 
L 589.290995 216.846592 
L 589.819905 212.072334 
L 590.348815 215.217281 
L 590.877725 220.067322 
L 591.406635 222.340778 
L 591.935545 219.423176 
L 592.464455 224.348998 
L 592.993365 216.884483 
L 593.522275 217.98332 
L 594.051185 214.535245 
L 594.580095 216.278228 
L 595.109005 214.080553 
L 595.637915 213.13328 
L 596.166825 212.602807 
L 596.695735 218.172775 
L 597.224645 216.619246 
L 597.753555 213.625862 
L 598.282464 214.838372 
L 598.811374 217.149719 
L 599.340284 217.263392 
L 599.869194 214.535245 
L 600.398104 214.611026 
L 600.927014 214.952045 
L 601.984834 209.609423 
L 602.513744 209.457859 
L 603.042654 206.540257 
L 603.571564 206.388693 
L 604.100474 204.418364 
L 604.629384 203.4332 
L 605.158294 203.319527 
L 605.687204 201.576544 
L 606.216114 204.115237 
L 606.745024 201.462871 
L 607.273934 201.273416 
L 608.331754 204.759383 
L 608.860664 203.319527 
L 609.389573 205.896111 
L 609.918483 203.584763 
L 610.447393 202.561708 
L 611.505213 204.304691 
L 612.034123 203.812109 
L 612.563033 205.289856 
L 613.091943 207.828549 
L 613.620853 207.032839 
L 614.149763 212.223897 
L 614.678673 212.75437 
L 615.207583 217.073937 
L 615.736493 214.876263 
L 616.265403 211.579751 
L 616.794313 213.13328 
L 617.323223 214.194226 
L 617.852133 214.156335 
L 618.381043 210.443023 
L 618.909953 211.882879 
L 619.438863 208.737931 
L 619.967773 208.851604 
L 620.496682 208.775822 
L 621.025592 209.533641 
L 621.554502 209.609423 
L 622.083412 210.064114 
L 622.612322 210.746151 
L 623.141232 209.988332 
L 623.670142 211.693424 
L 624.199052 208.018003 
L 624.727962 207.90433 
L 625.256872 207.942221 
L 625.785782 207.790658 
L 626.314692 205.934002 
L 626.843602 205.782438 
L 627.372512 204.797273 
L 627.901422 205.365638 
L 628.430332 202.561708 
L 628.959242 203.812109 
L 630.017062 200.364034 
L 630.545972 200.288252 
L 631.074882 198.58316 
L 631.603791 199.075742 
L 632.132701 197.294868 
L 632.661611 196.726504 
L 633.190521 196.840176 
L 633.719431 196.499158 
L 634.248341 194.339374 
L 634.777251 194.415156 
L 635.306161 193.884683 
L 635.835071 193.164755 
L 636.363981 194.453047 
L 636.892891 193.013192 
L 637.421801 192.293264 
L 637.950711 192.406937 
L 638.479621 191.952245 
L 639.008531 193.733119 
L 639.537441 194.98352 
L 640.066351 196.650722 
L 640.595261 193.998356 
L 641.124171 192.634282 
L 641.653081 191.914354 
L 642.181991 189.71668 
L 642.7109 189.224098 
L 643.23981 191.421772 
L 643.76872 190.13348 
L 644.29763 189.71668 
L 644.82654 191.762791 
L 645.35545 191.611227 
L 645.88436 190.51239 
L 646.41327 190.095589 
L 646.94218 188.731516 
L 647.47109 189.830353 
L 648 188.883079 
L 648 188.883079 
" style="fill:none;stroke:#ff7f0e;stroke-linecap:square;stroke-width:1.5;"/>
   </g>
   <g id="patch_3">
    <path d="M 90 320.4 
L 90 43.2 
" style="fill:none;stroke:#000000;stroke-linecap:square;stroke-linejoin:miter;stroke-width:0.8;"/>
   </g>
   <g id="patch_4">
    <path d="M 648 320.4 
L 648 43.2 
" style="fill:none;stroke:#000000;stroke-linecap:square;stroke-linejoin:miter;stroke-width:0.8;"/>
   </g>
   <g id="patch_5">
    <path d="M 90 320.4 
L 648 320.4 
" style="fill:none;stroke:#000000;stroke-linecap:square;stroke-linejoin:miter;stroke-width:0.8;"/>
   </g>
   <g id="patch_6">
    <path d="M 90 43.2 
L 648 43.2 
" style="fill:none;stroke:#000000;stroke-linecap:square;stroke-linejoin:miter;stroke-width:0.8;"/>
   </g>
   <g id="text_15">
    <!--  -->
    <defs>
     <path d="M 98.734375 10.890625 
Q 95.515625 6.890625 93.453125 3.859375 
Q 84.46875 8.109375 76.953125 14.015625 
L 76.953125 8.640625 
L 53.609375 8.640625 
L 53.609375 -1.515625 
L 91.796875 -1.515625 
L 91.796875 -7.859375 
L 8.109375 -7.859375 
L 8.109375 -1.515625 
L 46.296875 -1.515625 
L 46.296875 8.640625 
L 22.65625 8.640625 
L 22.65625 13.96875 
Q 14.890625 7.46875 6.453125 2.6875 
Q 4.59375 5.328125 1.375 8.84375 
Q 16.40625 16.15625 27.390625 27.390625 
L 2.4375 27.390625 
L 2.4375 33.734375 
L 21.875 33.734375 
L 21.875 66.453125 
L 5.46875 66.453125 
L 5.46875 72.796875 
L 21.875 72.796875 
L 21.875 83.34375 
L 29.203125 83.34375 
L 29.203125 72.796875 
L 71.09375 72.796875 
L 71.09375 83.34375 
L 78.421875 83.34375 
L 78.421875 72.796875 
L 94.828125 72.796875 
L 94.828125 66.453125 
L 78.421875 66.453125 
L 78.421875 33.734375 
L 97.5625 33.734375 
L 97.5625 27.390625 
L 71.875 27.390625 
Q 82.859375 16.453125 98.734375 10.890625 
z
M 46.296875 24.265625 
L 53.609375 24.265625 
L 53.609375 14.796875 
L 75.984375 14.796875 
Q 69 20.40625 63.234375 27.390625 
L 36.328125 27.390625 
Q 30.21875 20.453125 23.640625 14.796875 
L 46.296875 14.796875 
z
M 29.203125 33.734375 
L 71.09375 33.734375 
L 71.09375 40.671875 
L 29.203125 40.671875 
z
M 29.203125 46.734375 
L 71.09375 46.734375 
L 71.09375 53.5625 
L 29.203125 53.5625 
z
M 29.203125 59.625 
L 71.09375 59.625 
L 71.09375 66.453125 
L 29.203125 66.453125 
z
" id="MicrosoftYaHei-57fa"/>
     <path d="M 4.6875 -2.203125 
L 46.09375 -2.203125 
L 46.09375 21.625 
L 11.140625 21.625 
L 11.140625 28.765625 
L 46.09375 28.765625 
L 46.09375 42.4375 
L 20.703125 42.4375 
L 20.703125 49.265625 
Q 13.765625 44.875 5.671875 40.484375 
Q 3.609375 44.1875 0.78125 47.796875 
Q 33.296875 63.03125 46.78125 82.765625 
L 57.421875 82.765625 
L 55.171875 80.03125 
Q 70.703125 60.203125 99.125 49.171875 
Q 96.484375 45.453125 93.953125 41.359375 
Q 86.328125 44.578125 79.203125 49.078125 
L 79.203125 42.4375 
L 53.90625 42.4375 
L 53.90625 28.765625 
L 88.671875 28.765625 
L 88.671875 21.625 
L 53.90625 21.625 
L 53.90625 -2.203125 
L 95.515625 -2.203125 
L 95.515625 -9.421875 
L 4.6875 -9.421875 
z
M 50.09375 74.46875 
Q 40.046875 61.765625 21.09375 49.5625 
L 78.421875 49.5625 
Q 63.1875 59.234375 50.09375 74.46875 
z
M 63.96875 4.4375 
Q 71.875 12.640625 77.34375 20.453125 
L 84.1875 16.0625 
Q 77.34375 7.5625 69.828125 -0.25 
z
M 15.625 15.671875 
L 21.390625 20.265625 
Q 28.515625 13.03125 35.359375 5.21875 
L 28.71875 -0.046875 
Q 22.859375 7.671875 15.625 15.671875 
z
" id="MicrosoftYaHei-91d1"/>
     <path d="M 71.09375 31.109375 
Q 84.765625 19.96875 92.875 12.0625 
L 87.5 6.59375 
Q 83.6875 10.546875 79.640625 14.40625 
Q 67.71875 13.921875 55.5625 13.375 
L 55.5625 0.34375 
Q 55.5625 -11.765625 43.359375 -11.765625 
Q 37.109375 -11.765625 29.390625 -11.671875 
Q 28.8125 -7.765625 27.9375 -3.5625 
Q 35.453125 -4.25 41.40625 -4.25 
Q 47.953125 -4.25 47.953125 2.875 
L 47.953125 13.03125 
Q 34.859375 12.40625 21.484375 11.765625 
Q 17.1875 11.578125 13.1875 10.984375 
L 10.546875 18.40625 
Q 16.5 19.09375 23.921875 21.921875 
Q 33.9375 25.78125 45.5625 31 
Q 33.40625 30.609375 23.921875 30.03125 
Q 19.234375 29.734375 16.890625 29.4375 
L 14.359375 35.890625 
Q 19.234375 36.859375 24.21875 39.109375 
Q 30.765625 42.046875 37.15625 45.453125 
L 18.84375 45.453125 
L 18.84375 42.625 
L 11.421875 42.625 
L 11.421875 79.734375 
L 88.671875 79.734375 
L 88.671875 42.625 
L 81.25 42.625 
L 81.25 45.453125 
L 48.828125 45.453125 
Q 38.03125 39.984375 27.546875 35.5 
Q 40.328125 35.84375 57.328125 36.46875 
Q 64.0625 39.65625 71.296875 43.3125 
L 76.375 38.03125 
Q 53.03125 27 28.515625 17.921875 
Q 53.171875 19 73.1875 20.265625 
Q 69.625 23.4375 65.921875 26.515625 
z
M 53.609375 51.125 
L 81.25 51.125 
L 81.25 60.015625 
L 53.609375 60.015625 
z
M 18.84375 51.125 
L 46.390625 51.125 
L 46.390625 60.015625 
L 18.84375 60.015625 
z
M 81.25 74.078125 
L 53.609375 74.078125 
L 53.609375 65.28125 
L 81.25 65.28125 
z
M 18.84375 65.28125 
L 46.390625 65.28125 
L 46.390625 74.078125 
L 18.84375 74.078125 
z
M 29.59375 8.9375 
L 33.984375 2.875 
Q 19.734375 -4.25 5.953125 -9.625 
Q 4.5 -6.59375 2.546875 -3.078125 
Q 17.09375 2.59375 29.59375 8.9375 
z
M 69.234375 8.546875 
Q 83.796875 3.65625 97.171875 -2.296875 
L 94.140625 -8.9375 
Q 81.0625 -2.984375 65.921875 2.09375 
z
" id="MicrosoftYaHei-7d2f"/>
     <path d="M 43.953125 74.75 
L 93.359375 74.75 
L 93.359375 23.875 
L 85.9375 23.875 
L 85.9375 28.5625 
L 51.375 28.5625 
L 51.375 23.875 
L 43.953125 23.875 
z
M 1.375 13.328125 
Q 10.453125 27 16.5 46.046875 
L 1.859375 46.046875 
L 1.859375 52.875 
L 17.484375 52.875 
L 17.484375 68.40625 
Q 11.140625 67.921875 3.8125 67.4375 
Q 3.328125 70.953125 2.34375 74.5625 
Q 22.265625 75.640625 37.109375 77.78125 
L 38.875 70.359375 
Q 32.90625 69.671875 24.703125 69 
L 24.703125 52.875 
L 39.265625 52.875 
L 39.265625 46.046875 
L 24.703125 46.046875 
L 24.703125 32.28125 
L 28.609375 35.890625 
Q 34.578125 30.03125 41.3125 22.515625 
L 35.75 17.625 
Q 30.46875 24.078125 24.703125 30.21875 
L 24.703125 -13.328125 
L 17.484375 -13.328125 
L 17.484375 30.125 
Q 12.203125 15.578125 4.78125 4.9375 
Q 3.21875 9.234375 1.375 13.328125 
z
M 85.9375 68.109375 
L 51.375 68.109375 
L 51.375 35.203125 
L 85.9375 35.203125 
z
M 54.296875 17.625 
L 60.75 13.03125 
Q 49.609375 -1.03125 39.359375 -11.859375 
Q 37.015625 -9.328125 33.796875 -6.5 
Q 45.703125 5.515625 54.296875 17.625 
z
M 74.609375 12.9375 
L 80.671875 17.140625 
Q 89.65625 6.890625 99.3125 -5.8125 
L 92.484375 -10.984375 
Q 83.890625 1.703125 74.609375 12.9375 
z
" id="MicrosoftYaHei-79ef"/>
     <path d="M 31.453125 19.96875 
L 55.859375 19.96875 
L 55.859375 30.421875 
L 26.65625 30.421875 
L 26.65625 37.453125 
L 55.859375 37.453125 
L 55.859375 47.796875 
L 33.203125 47.796875 
L 33.203125 51.515625 
Q 31.390625 49.65625 29.59375 47.90625 
Q 27.9375 49.65625 24.3125 53.375 
Q 36.71875 65.09375 47.65625 83.640625 
L 55.078125 81.6875 
Q 53.125 78.125 51.03125 74.75 
L 80.375 74.75 
L 80.375 68.21875 
L 69.046875 54.640625 
L 89.0625 54.640625 
L 89.0625 37.453125 
L 97.953125 37.453125 
L 97.953125 30.421875 
L 89.0625 30.421875 
L 89.0625 9.125 
L 81.640625 9.125 
L 81.640625 13.140625 
L 63.484375 13.140625 
L 63.484375 0.046875 
Q 63.484375 -11.96875 51.171875 -12.0625 
Q 44.734375 -12.0625 38.875 -12.0625 
Q 38.1875 -7.859375 37.3125 -3.953125 
Q 43.453125 -4.640625 49.421875 -4.640625 
Q 55.859375 -4.640625 55.859375 1.8125 
L 55.859375 13.140625 
L 31.453125 13.140625 
z
M 70.90625 68.015625 
L 46.625 68.015625 
Q 41.703125 60.890625 36.078125 54.640625 
L 60.109375 54.640625 
z
M 14.453125 36.46875 
Q 17.96875 34.71875 21.78125 33.15625 
Q 16.609375 15.484375 11.140625 -3.765625 
L 3.21875 -0.734375 
Q 9.96875 18.109375 14.453125 36.46875 
z
M 63.484375 19.96875 
L 81.640625 19.96875 
L 81.640625 30.421875 
L 63.484375 30.421875 
z
M 10.359375 76.421875 
Q 16.609375 65.671875 21.96875 54.828125 
Q 17.96875 52.6875 14.65625 51.125 
Q 9.671875 62.359375 4 73.09375 
z
M 81.640625 47.796875 
L 63.484375 47.796875 
L 63.484375 37.453125 
L 81.640625 37.453125 
z
" id="MicrosoftYaHei-51c0"/>
     <path d="M 25.296875 -3.375 
L 35.15625 -3.375 
L 35.15625 57.078125 
L 58.203125 57.078125 
L 58.203125 65.96875 
L 29.890625 65.96875 
L 29.890625 72.609375 
L 58.203125 72.609375 
L 58.203125 82.953125 
L 65.625 82.953125 
L 65.625 72.609375 
L 96.390625 72.609375 
L 96.390625 65.96875 
L 65.625 65.96875 
L 65.625 57.078125 
L 89.265625 57.078125 
L 89.265625 -3.375 
L 98.53125 -3.375 
L 98.53125 -10.015625 
L 25.296875 -10.015625 
z
M 1.078125 35.109375 
Q 14.15625 54.640625 21.390625 82.46875 
L 28.609375 80.328125 
Q 24.703125 67.71875 20.125 56.6875 
L 20.125 -12.75 
L 12.984375 -12.75 
L 12.984375 41.65625 
Q 8.796875 33.84375 4.109375 27.09375 
Q 2.734375 31.203125 1.078125 35.109375 
z
M 42.390625 -3.375 
L 82.03125 -3.375 
L 82.03125 5.515625 
L 42.390625 5.515625 
z
M 82.03125 50.640625 
L 42.390625 50.640625 
L 42.390625 41.84375 
L 82.03125 41.84375 
z
M 42.390625 26.8125 
L 82.03125 26.8125 
L 82.03125 35.59375 
L 42.390625 35.59375 
z
M 42.390625 11.765625 
L 82.03125 11.765625 
L 82.03125 20.5625 
L 42.390625 20.5625 
z
" id="MicrosoftYaHei-503c"/>
    </defs>
    <g transform="translate(333 37.2)scale(0.12 -0.12)">
     <use xlink:href="#MicrosoftYaHei-57fa"/>
     <use x="100" xlink:href="#MicrosoftYaHei-91d1"/>
     <use x="200" xlink:href="#MicrosoftYaHei-7d2f"/>
     <use x="300" xlink:href="#MicrosoftYaHei-79ef"/>
     <use x="400" xlink:href="#MicrosoftYaHei-51c0"/>
     <use x="500" xlink:href="#MicrosoftYaHei-503c"/>
    </g>
   </g>
   <g id="legend_1">
    <g id="patch_7">
     <path d="M 97 82.159375 
L 223.135938 82.159375 
Q 225.135938 82.159375 225.135938 80.159375 
L 225.135938 50.2 
Q 225.135938 48.2 223.135938 48.2 
L 97 48.2 
Q 95 48.2 95 50.2 
L 95 80.159375 
Q 95 82.159375 97 82.159375 
z
" style="fill:#ffffff;opacity:0.8;stroke:#cccccc;stroke-linejoin:miter;"/>
    </g>
    <g id="line2d_31">
     <path d="M 99 56.69375 
L 119 56.69375 
" style="fill:none;stroke:#1f77b4;stroke-linecap:square;stroke-width:1.5;"/>
    </g>
    <g id="line2d_32"/>
    <g id="text_16">
     <!-- A -->
     <defs>
      <path d="M 8.203125 62.0625 
L 45.796875 62.0625 
L 45.796875 83.34375 
L 54.203125 83.34375 
L 54.203125 62.0625 
L 92.1875 62.0625 
L 92.1875 17.53125 
L 84.1875 17.53125 
L 84.1875 22.796875 
L 54.203125 22.796875 
L 54.203125 -13.53125 
L 45.796875 -13.53125 
L 45.796875 22.796875 
L 16.21875 22.796875 
L 16.21875 17.53125 
L 8.203125 17.53125 
z
M 84.1875 54.828125 
L 54.203125 54.828125 
L 54.203125 30.03125 
L 84.1875 30.03125 
z
M 16.21875 30.03125 
L 45.796875 30.03125 
L 45.796875 54.828125 
L 16.21875 54.828125 
z
" id="MicrosoftYaHei-4e2d"/>
      <path d="M 6.25 74.859375 
L 47.46875 74.859375 
L 47.46875 67.625 
L 13.484375 67.625 
L 13.484375 4.9375 
L 45.703125 4.9375 
L 45.703125 -2.296875 
L 6.25 -2.296875 
z
M 67.28125 57.5625 
L 74.609375 57.5625 
Q 74.65625 50.78125 74.421875 45.171875 
Q 78.078125 6.109375 98.734375 -5.90625 
Q 95.609375 -9.328125 92.671875 -12.640625 
Q 76.375 -0.734375 71.390625 25.828125 
Q 66.359375 1.3125 46.390625 -13.140625 
Q 43.359375 -9.328125 41.015625 -6.78125 
Q 63.875 8.640625 66.796875 37.0625 
Q 67.28125 42.71875 67.28125 57.5625 
z
M 82.90625 42.328125 
Q 86.921875 54.828125 89.15625 62.359375 
L 61.71875 62.359375 
Q 57.8125 50.046875 53.125 39.796875 
Q 50 41.453125 46.578125 42.828125 
Q 55.28125 61.1875 59.578125 83.0625 
L 67 81.59375 
Q 65.53125 75.390625 63.875 69.578125 
L 96.78125 69.578125 
L 96.78125 61.96875 
Q 93.5625 51.703125 90.046875 40.1875 
Q 86.234375 41.546875 82.90625 42.328125 
z
M 17.1875 56.296875 
L 23.046875 59.515625 
Q 28.078125 51.46875 32.46875 44.390625 
Q 36.859375 53.609375 40.71875 62.9375 
L 47.5625 59.8125 
Q 42.140625 47.65625 36.921875 37.25 
Q 44.625 24.8125 50.203125 15.765625 
L 43.65625 11.859375 
Q 38.8125 20.21875 33.109375 29.78125 
Q 27.640625 19.4375 22.46875 11.078125 
Q 19.4375 13.03125 16.5 14.5 
Q 23.09375 25.6875 28.8125 36.96875 
Q 23.390625 46.140625 17.1875 56.296875 
z
" id="MicrosoftYaHei-6b27"/>
      <path d="M 9.078125 77.984375 
L 96 77.984375 
L 96 70.5625 
L 17.09375 70.5625 
L 17.09375 -1.609375 
L 97.078125 -1.609375 
L 97.078125 -9.03125 
L 9.078125 -9.03125 
z
M 22.359375 35.984375 
L 53.21875 35.984375 
Q 54.78125 42.625 54.890625 51.421875 
L 38.765625 51.421875 
Q 34.28125 43.703125 29.203125 37.546875 
Q 26.375 39.984375 22.859375 42.625 
Q 33.203125 54.046875 39.359375 69.578125 
L 46.6875 66.9375 
Q 44.734375 62.453125 42.578125 58.453125 
L 90.328125 58.453125 
L 90.328125 51.421875 
L 62.703125 51.421875 
Q 62.59375 42.828125 61.328125 35.984375 
L 94.828125 35.984375 
L 94.828125 28.953125 
L 59.671875 28.953125 
Q 59.078125 27 58.5 25.34375 
Q 74.515625 17.828125 92.28125 7.5625 
L 87.5 0.140625 
Q 72.953125 9.421875 55.28125 19.28125 
Q 46.96875 6.890625 26.5625 -0.828125 
Q 24.3125 2.390625 21.296875 5.8125 
Q 46.484375 15.28125 51.078125 28.953125 
L 22.359375 28.953125 
z
" id="MicrosoftYaHei-533b"/>
      <path d="M 50.6875 80.125 
L 57.71875 83.546875 
Q 61.234375 77.484375 64.15625 71.625 
L 98.4375 71.625 
L 98.4375 64.59375 
L 24.90625 64.59375 
L 24.90625 37.25 
Q 24.90625 2.203125 11.71875 -13.921875 
Q 8.890625 -10.203125 5.859375 -7.28125 
Q 15.234375 5.125 17.09375 26.125 
Q 8.203125 20.65625 3.328125 17.625 
L 1.46875 25.828125 
Q 9.375 29.640625 17.578125 34.234375 
L 17.578125 71.625 
L 55.46875 71.625 
Q 52.9375 76.609375 50.6875 80.125 
z
M 58.796875 32.375 
L 79.109375 45.953125 
L 31.0625 45.953125 
L 31.0625 52.875 
L 91.21875 52.875 
L 91.21875 45.84375 
L 66.40625 28.65625 
L 66.40625 0.4375 
Q 66.40625 -11.1875 55.171875 -11.1875 
Q 51.265625 -11.1875 38.875 -10.984375 
Q 38.578125 -6.78125 37.703125 -2.6875 
Q 47.359375 -3.65625 53.125 -3.65625 
Q 58.796875 -3.65625 58.796875 2.09375 
z
M 1.859375 59.03125 
L 8.015625 61.375 
Q 11.53125 53.5625 15.234375 42.71875 
L 8.40625 40.1875 
Q 5.375 50.4375 1.859375 59.03125 
z
" id="MicrosoftYaHei-7597"/>
      <path d="M 47.953125 15.578125 
L 65.53125 15.578125 
L 65.53125 24.171875 
L 50.203125 24.171875 
L 50.203125 29.640625 
L 65.53125 29.640625 
L 65.53125 38.234375 
L 51.5625 38.234375 
L 51.5625 43.703125 
L 65.53125 43.703125 
L 65.53125 52.203125 
L 46.6875 52.203125 
L 46.6875 57.859375 
L 65.53125 57.859375 
L 65.53125 66.359375 
L 51.765625 66.359375 
L 51.765625 71.828125 
L 65.53125 71.828125 
L 65.53125 81.984375 
L 72.171875 81.984375 
L 72.171875 71.828125 
L 89.75 71.828125 
L 89.75 57.859375 
L 97.859375 57.859375 
L 97.859375 52.203125 
L 89.75 52.203125 
L 89.75 35.890625 
L 83.203125 35.890625 
L 83.203125 38.234375 
L 72.171875 38.234375 
L 72.171875 29.640625 
L 91.40625 29.640625 
L 91.40625 24.171875 
L 72.171875 24.171875 
L 72.171875 15.578125 
L 92.875 15.578125 
L 92.875 10.109375 
L 72.171875 10.109375 
L 72.171875 -0.046875 
L 65.53125 -0.046875 
L 65.53125 10.109375 
L 47.953125 10.109375 
z
M 28.90625 30.609375 
Q 31.15625 20.265625 35.640625 13.140625 
Q 39.9375 23.96875 40.140625 37.0625 
L 25.59375 37.0625 
L 25.59375 43.5 
L 39.0625 65.96875 
L 26.171875 65.96875 
L 26.171875 72.21875 
L 46.875 72.21875 
L 46.875 65.875 
L 33.296875 43.3125 
L 46.875 43.3125 
L 46.875 36.578125 
Q 46.484375 20.265625 40.53125 6.984375 
Q 50.984375 -3.375 69.234375 -2.78125 
Q 83.40625 -2.984375 98.734375 -2.203125 
Q 97.265625 -5.90625 95.703125 -10.015625 
Q 82.234375 -10.015625 68.453125 -9.8125 
Q 48.828125 -10.109375 37.203125 0.53125 
Q 32.8125 -6.984375 26.375 -13.53125 
Q 23.640625 -10.296875 21.1875 -8.15625 
Q 27.9375 -1.609375 32.328125 6.109375 
Q 25.984375 14.796875 23.140625 28.171875 
z
M 0.875 35.296875 
Q 13.578125 56.296875 19.140625 82.671875 
L 25.875 81 
Q 23.25 69 19.140625 57.953125 
L 19.140625 -12.75 
L 12.703125 -12.75 
L 12.703125 43.015625 
Q 8.6875 35.015625 3.90625 27.59375 
Q 2.640625 31.78125 0.875 35.296875 
z
M 83.203125 43.703125 
L 83.203125 52.203125 
L 72.171875 52.203125 
L 72.171875 43.703125 
z
M 83.203125 66.359375 
L 72.171875 66.359375 
L 72.171875 57.859375 
L 83.203125 57.859375 
z
" id="MicrosoftYaHei-5065"/>
      <path d="M 48.4375 79.9375 
L 55.171875 83.546875 
Q 58.109375 78.859375 61.421875 73 
L 96.78125 73 
L 96.78125 66.546875 
L 18.953125 66.546875 
L 18.953125 44.78125 
L 51.859375 44.78125 
L 51.859375 52.09375 
L 25.09375 52.09375 
L 25.09375 57.953125 
L 51.859375 57.953125 
L 51.859375 64.40625 
L 58.890625 64.40625 
L 58.890625 57.953125 
L 87.015625 57.953125 
L 87.015625 44.78125 
L 98.046875 44.78125 
L 98.046875 38.8125 
L 87.015625 38.8125 
L 87.015625 23.484375 
L 80.375 23.484375 
L 80.375 25.53125 
L 58.890625 25.53125 
L 58.890625 23.390625 
Q 63.671875 17.53125 69.140625 12.75 
Q 79.109375 17.921875 86.921875 22.90625 
L 91.5 17.140625 
Q 83.6875 12.9375 74.421875 8.546875 
Q 84.671875 0.828125 97.078125 -3.171875 
Q 94.140625 -7.078125 92.1875 -10.015625 
Q 70.609375 -0.53125 58.890625 13.921875 
L 58.890625 -2.09375 
Q 58.890625 -12.453125 48.140625 -12.453125 
Q 43.65625 -12.453125 36.328125 -12.25 
Q 35.9375 -8.25 35.15625 -4.546875 
Q 43.0625 -5.21875 46.96875 -5.21875 
Q 51.65625 -5.21875 51.859375 -0.34375 
L 51.859375 5.515625 
Q 36.71875 0.4375 19.140625 -5.515625 
L 17.28125 1.421875 
Q 37.40625 7.28125 51.859375 12.25 
L 51.859375 25.53125 
L 24.515625 25.53125 
L 24.515625 31.390625 
L 51.859375 31.390625 
L 51.859375 38.8125 
L 18.953125 38.8125 
L 18.953125 36.375 
Q 18.953125 5.125 6.734375 -13.328125 
Q 4.296875 -10.015625 1.375 -6.6875 
Q 11.53125 9.421875 11.53125 35.984375 
L 11.53125 73 
L 52.640625 73 
Q 50.6875 76.21875 48.4375 79.9375 
z
M 80.375 31.390625 
L 80.375 38.8125 
L 58.890625 38.8125 
L 58.890625 31.390625 
z
M 80.375 52.09375 
L 58.890625 52.09375 
L 58.890625 44.78125 
L 80.375 44.78125 
z
M 23.921875 18.3125 
L 27.828125 23.09375 
Q 35.546875 18.703125 41.40625 14.40625 
L 36.921875 8.9375 
Q 31.0625 13.8125 23.921875 18.3125 
z
" id="MicrosoftYaHei-5eb7"/>
      <path d="M 38.28125 35.984375 
L 30.859375 35.984375 
L 30.859375 78.171875 
L 89.84375 78.171875 
L 89.84375 35.40625 
L 82.421875 35.40625 
L 82.421875 39.40625 
L 38.28125 39.40625 
z
M 62.3125 34.234375 
L 69.53125 34.234375 
L 69.53125 18.359375 
Q 81.984375 25.046875 91.40625 31.59375 
L 96.09375 25.140625 
Q 86.1875 19.09375 69.53125 10.5 
L 69.53125 3.171875 
Q 69.53125 -3.078125 75 -3.078125 
L 82.125 -3.078125 
Q 86.921875 -3.078125 87.890625 0.140625 
Q 89.359375 5.125 90.53125 14.109375 
Q 94.046875 12.546875 97.859375 11.375 
Q 95.90625 0.921875 94.828125 -2.78125 
Q 92.875 -10.5 83.015625 -10.5 
L 74.03125 -10.5 
Q 62.3125 -10.5 62.3125 1.703125 
z
M 58.40625 6.109375 
Q 58.296875 1.90625 58.40625 -1.3125 
Q 47.65625 -5.609375 40.625 -8.640625 
Q 36.421875 -10.5 33.59375 -12.453125 
L 29.203125 -6.109375 
Q 31.640625 -4.828125 31.640625 0.53125 
L 31.640625 33.453125 
L 38.875 33.453125 
L 38.875 23.875 
L 59.1875 23.875 
L 59.1875 17.046875 
L 38.875 17.046875 
L 38.875 -1.515625 
Q 48.4375 2.09375 58.40625 6.109375 
z
M 82.421875 71.4375 
L 38.28125 71.4375 
L 38.28125 62.15625 
L 82.421875 62.15625 
z
M 38.28125 46.140625 
L 82.421875 46.140625 
L 82.421875 55.421875 
L 38.28125 55.421875 
z
M 15.328125 28.953125 
Q 19.4375 27.09375 23.34375 25.53125 
Q 18.75 9.625 11.921875 -11.96875 
L 3.609375 -8.84375 
Q 10.453125 9.421875 15.328125 28.953125 
z
M 6.34375 56.984375 
Q 16.109375 51.03125 23.921875 45.0625 
Q 22.46875 43.609375 18.65625 38.625 
Q 11.71875 44.484375 1.5625 51.421875 
z
M 10.15625 81.390625 
Q 22.171875 73.1875 27.546875 69 
Q 24.515625 65.484375 22.265625 62.84375 
Q 13.765625 70.0625 5.5625 76.03125 
z
" id="MicrosoftYaHei-6df7"/>
      <path d="M 16.015625 29.828125 
L 84.078125 29.828125 
L 84.078125 -13.53125 
L 76.265625 -13.53125 
L 76.265625 -6.984375 
L 23.828125 -6.984375 
L 23.828125 -13.71875 
L 16.015625 -13.71875 
z
M 57.8125 81.78125 
L 55.46875 78.953125 
Q 71.78125 57.765625 98.734375 47.015625 
Q 95.703125 42.71875 93.5625 39.203125 
Q 85.640625 43.015625 78.515625 47.796875 
L 78.515625 42.234375 
L 21.390625 42.234375 
L 21.390625 47.125 
Q 14.265625 42.4375 6.15625 37.9375 
Q 4.203125 41.265625 1.265625 45.265625 
Q 31.453125 60.40625 46.875 81.78125 
z
M 76.265625 22.703125 
L 23.828125 22.703125 
L 23.828125 -0.046875 
L 76.265625 -0.046875 
z
M 50.296875 73.296875 
Q 40.328125 60.5 24.21875 49.171875 
L 76.46875 49.171875 
Q 61.625 59.328125 50.296875 73.296875 
z
" id="MicrosoftYaHei-5408"/>
      <path d="M 69.1875 0 
L 58.40625 0 
L 50.6875 20.703125 
L 19.1875 20.703125 
L 11.921875 0 
L 1.125 0 
L 29.9375 75.640625 
L 40.375 75.640625 
z
M 47.65625 29.25 
L 36.234375 60.6875 
Q 35.6875 62.203125 35.0625 65.96875 
L 34.8125 65.96875 
Q 34.28125 62.546875 33.59375 60.6875 
L 22.265625 29.25 
z
" id="MicrosoftYaHei-41"/>
     </defs>
     <g transform="translate(127 60.19375)scale(0.1 -0.1)">
      <use xlink:href="#MicrosoftYaHei-4e2d"/>
      <use x="100" xlink:href="#MicrosoftYaHei-6b27"/>
      <use x="200" xlink:href="#MicrosoftYaHei-533b"/>
      <use x="300" xlink:href="#MicrosoftYaHei-7597"/>
      <use x="400" xlink:href="#MicrosoftYaHei-5065"/>
      <use x="500" xlink:href="#MicrosoftYaHei-5eb7"/>
      <use x="600" xlink:href="#MicrosoftYaHei-6df7"/>
      <use x="700" xlink:href="#MicrosoftYaHei-5408"/>
      <use x="800" xlink:href="#MicrosoftYaHei-41"/>
     </g>
    </g>
    <g id="line2d_33">
     <path d="M 99 72.173437 
L 119 72.173437 
" style="fill:none;stroke:#ff7f0e;stroke-linecap:square;stroke-width:1.5;"/>
    </g>
    <g id="line2d_34"/>
    <g id="text_17">
     <!-- 100ETF -->
     <defs>
      <path d="M 7.328125 78.078125 
L 92.78125 78.078125 
L 92.78125 -13.03125 
L 85.25 -13.03125 
L 85.25 -8.15625 
L 14.84375 -8.15625 
L 14.84375 -13.140625 
L 7.328125 -13.140625 
z
M 85.25 71.140625 
L 14.84375 71.140625 
L 14.84375 -1.21875 
L 85.25 -1.21875 
z
M 19.34375 15.765625 
L 46.296875 15.765625 
L 46.296875 35.109375 
L 22.75 35.109375 
L 22.75 41.75 
L 46.296875 41.75 
L 46.296875 54.828125 
L 20.90625 54.828125 
L 20.90625 61.46875 
L 79.109375 61.46875 
L 79.109375 54.828125 
L 53.515625 54.828125 
L 53.515625 41.75 
L 77.15625 41.75 
L 77.15625 35.109375 
L 53.515625 35.109375 
L 53.515625 15.765625 
L 80.671875 15.765625 
L 80.671875 9.125 
L 19.34375 9.125 
z
M 58.59375 28.859375 
L 64.0625 32.953125 
Q 69.4375 27.390625 73.25 22.515625 
L 67.484375 18.109375 
Q 62.796875 24.46875 58.59375 28.859375 
z
" id="MicrosoftYaHei-56fd"/>
      <path d="M 58.015625 20.171875 
Q 64.890625 23.4375 71 27.25 
Q 65.765625 32.171875 62.203125 38.140625 
L 37.15625 38.140625 
Q 32.90625 32.671875 27.390625 27.6875 
Q 34.1875 23.78125 40.71875 19.578125 
L 36.03125 13.625 
Q 29.34375 18.359375 21.921875 23.046875 
Q 14.5 17.28125 5.171875 12.15625 
Q 3.21875 15.28125 0.484375 19 
Q 16.890625 26.859375 27.25 38.140625 
L 2.4375 38.140625 
L 2.4375 44.390625 
L 32.328125 44.390625 
Q 35.546875 48.828125 37.9375 53.765625 
L 9.765625 53.765625 
L 9.765625 60.015625 
L 40.578125 60.015625 
Q 42 63.8125 43.109375 68.109375 
L 6.25 68.109375 
L 6.25 74.359375 
L 44.53125 74.359375 
Q 45.40625 78.65625 46 83.453125 
L 53.90625 82.375 
Q 53.171875 78.125 52.390625 74.359375 
L 93.5625 74.359375 
L 93.5625 68.109375 
L 50.984375 68.109375 
Q 49.859375 63.625 48.640625 60.015625 
L 90.234375 60.015625 
L 90.234375 53.765625 
L 46.296875 53.765625 
Q 44.28125 48.921875 41.5 44.390625 
L 97.5625 44.390625 
L 97.5625 38.140625 
L 70.21875 38.140625 
Q 80.03125 26.078125 99.3125 20.75 
Q 96.578125 16.546875 94.4375 12.9375 
Q 84.1875 17 76.515625 22.609375 
Q 70.171875 18.609375 62.015625 14.40625 
Q 60.546875 16.75 58.015625 20.171875 
z
M 46.875 33.25 
L 54.5 33.25 
L 54.5 -0.25 
Q 54.5 -11.671875 42.578125 -11.671875 
Q 37.59375 -11.671875 30.671875 -11.46875 
Q 30.28125 -8.15625 29.5 -3.375 
Q 36.8125 -4.15625 41.3125 -4.15625 
Q 46.875 -4.15625 46.875 1.03125 
z
M 55.859375 7.078125 
L 58.890625 13.03125 
Q 76.46875 7.671875 92.1875 2 
L 88.671875 -5.328125 
Q 72.75 1.421875 55.859375 7.078125 
z
M 42.578125 13.03125 
Q 43.359375 9.125 44.234375 6.5 
Q 24.125 0.53125 10.546875 -3.765625 
L 8.109375 3.265625 
Q 22.953125 6.984375 42.578125 13.03125 
z
" id="MicrosoftYaHei-6cf0"/>
      <path d="M 46.390625 -12.359375 
L 38.96875 -12.359375 
L 38.96875 65.578125 
L 63.421875 65.578125 
Q 63.484375 73.6875 63.484375 82.953125 
L 71 82.953125 
Q 71 73.53125 70.90625 65.578125 
L 95.125 65.578125 
L 95.125 -0.4375 
Q 95.125 -11.28125 84.671875 -11.28125 
L 70.21875 -11.28125 
Q 69.734375 -8.0625 68.75 -3.65625 
Q 77.25 -4.25 81.734375 -4.25 
Q 87.703125 -4.25 87.703125 0.921875 
L 87.703125 17.625 
Q 84.90625 15.375 81.84375 12.640625 
Q 74.125 23.734375 66.609375 32.953125 
Q 61.46875 18.5 50.09375 9.125 
Q 48.4375 11.328125 46.390625 13.875 
z
M 13.96875 24.46875 
Q 23.53125 25.828125 34.671875 27.78125 
Q 34.078125 24.171875 33.796875 20.265625 
Q 25 19 4.984375 15.671875 
L 3.421875 23 
Q 10.40625 30.375 18.5 43.609375 
Q 11.53125 43.21875 3.421875 42.53125 
L 1.5625 49.171875 
Q 10.546875 61.1875 20.21875 83.84375 
L 27.640625 80.90625 
Q 17.09375 60.203125 10.359375 49.75 
Q 16.9375 49.90625 22.3125 50.046875 
Q 25.640625 55.8125 29.109375 62.453125 
L 36.328125 58.84375 
Q 25.203125 40.28125 13.96875 24.46875 
z
M 63.375 58.9375 
L 46.390625 58.9375 
L 46.390625 16.546875 
Q 62.9375 30.171875 63.375 58.9375 
z
M 68.953125 41.3125 
Q 78.515625 30.421875 87.703125 18.84375 
L 87.703125 58.9375 
L 70.796875 58.9375 
Q 70.703125 49.421875 68.953125 41.3125 
z
M 1.375 1.703125 
Q 17.09375 4.640625 34.96875 8.546875 
Q 34.671875 4.640625 34.671875 1.21875 
Q 19.4375 -1.703125 3.515625 -5.609375 
z
" id="MicrosoftYaHei-7eb3"/>
      <path d="M 2.046875 19 
L 9.578125 19 
L 9.578125 64.109375 
L 2.734375 64.109375 
L 2.734375 70.75 
L 9.578125 70.75 
L 9.578125 82.375 
L 16.796875 82.375 
L 16.796875 70.75 
L 37.109375 70.75 
L 37.109375 82.375 
L 44.34375 82.375 
L 44.34375 70.75 
L 51.5625 70.75 
L 51.5625 64.109375 
L 44.34375 64.109375 
L 44.34375 19 
L 51.65625 19 
L 51.65625 12.359375 
L 2.046875 12.359375 
z
M 57.03125 74.265625 
Q 77.9375 76.3125 93.265625 80.03125 
L 96.296875 72.796875 
Q 80.859375 69.875 64.265625 68.21875 
L 64.265625 47.125 
L 98.046875 47.125 
L 98.046875 40.28125 
L 86.921875 40.28125 
L 86.921875 -12.75 
L 79.6875 -12.75 
L 79.6875 40.28125 
L 64.265625 40.28125 
Q 64.109375 6.6875 52.4375 -12.15625 
Q 49.8125 -9.421875 46.296875 -6.6875 
Q 57.03125 9.625 57.03125 39.59375 
z
M 16.796875 19 
L 37.109375 19 
L 37.109375 29.9375 
L 16.796875 29.9375 
z
M 16.796875 53.265625 
L 37.109375 53.265625 
L 37.109375 64.109375 
L 16.796875 64.109375 
z
M 16.796875 36.1875 
L 37.109375 36.1875 
L 37.109375 47.015625 
L 16.796875 47.015625 
z
M 17.1875 10.109375 
L 23.140625 5.421875 
Q 13.96875 -5.90625 6.546875 -12.640625 
Q 4.5 -10.296875 1.171875 -7.46875 
Q 10.359375 0.640625 17.1875 10.109375 
z
M 30.171875 6.109375 
L 35.25 10.59375 
Q 41.21875 5.125 46.96875 -0.921875 
L 41.40625 -6 
Q 36.140625 0.140625 30.171875 6.109375 
z
" id="MicrosoftYaHei-65af"/>
      <path d="M 42.484375 -3.765625 
Q 69.53125 -4.046875 98.734375 -3.375 
Q 97.078125 -7.28125 95.515625 -10.890625 
Q 68.75 -11.28125 41.21875 -10.796875 
Q 24.90625 -10.59375 17 0.34375 
Q 14.15625 -1.90625 5.5625 -12.15625 
L 1.375 -3.859375 
Q 7.421875 1.609375 13.484375 6.78125 
L 13.484375 40.875 
L 2.34375 40.875 
L 2.34375 48 
L 21.09375 48 
L 21.09375 5.328125 
Q 28.21875 -3.375 42.484375 -3.765625 
z
M 29.296875 59.234375 
L 56.25 59.234375 
L 56.25 82.28125 
L 64.0625 82.28125 
L 64.0625 59.234375 
L 94.53125 59.234375 
L 94.53125 52.09375 
L 63.875 52.09375 
Q 63.484375 44.96875 61.921875 38.625 
Q 78.8125 25.046875 93.84375 9.625 
L 87.984375 3.078125 
Q 74.8125 18.015625 59.765625 31.59375 
Q 52.546875 12.15625 32.515625 1.125 
Q 29.890625 4.734375 27.046875 7.5625 
Q 53.90625 21.921875 56.0625 52.09375 
L 29.296875 52.09375 
z
M 11.421875 81.890625 
Q 20.015625 71.625 26.265625 63.03125 
L 19.4375 58.15625 
Q 12.984375 67.921875 5.375 77.484375 
z
" id="MicrosoftYaHei-8fbe"/>
      <path d="M 15.046875 54.828125 
L 46.1875 54.828125 
L 46.1875 65.1875 
L 2.546875 65.1875 
L 2.546875 72.015625 
L 46.1875 72.015625 
L 46.1875 83.34375 
L 54 83.34375 
L 54 72.015625 
L 97.171875 72.015625 
L 97.171875 65.1875 
L 54 65.1875 
L 54 54.828125 
L 85.9375 54.828125 
L 85.9375 18.890625 
L 78.515625 18.890625 
L 78.515625 22.515625 
L 65.140625 22.515625 
L 65.140625 2.296875 
Q 65.140625 -4.046875 71.09375 -4.046875 
L 82.125 -4.046875 
Q 88.671875 -4.046875 89.265625 0.734375 
Q 90.046875 5.8125 90.328125 13.421875 
Q 93.84375 12.0625 98.4375 10.5 
Q 97.953125 4.734375 96.6875 -2.484375 
Q 95.3125 -11.078125 82.625 -11.078125 
L 69.625 -11.078125 
Q 57.234375 -11.078125 57.234375 1.3125 
L 57.234375 22.515625 
L 42.28125 22.515625 
Q 40.875 7.03125 33.796875 -0.140625 
Q 25.09375 -8.9375 6.453125 -13.328125 
Q 4.5 -10.203125 1.859375 -6.203125 
Q 20.703125 -2.296875 27.640625 4.734375 
Q 33.640625 10.40625 34.578125 22.515625 
L 22.46875 22.515625 
L 22.46875 18.890625 
L 15.046875 18.890625 
z
M 78.515625 48 
L 22.46875 48 
L 22.46875 29.34375 
L 78.515625 29.34375 
z
" id="MicrosoftYaHei-514b"/>
      <path d="M 50.4375 0 
L 9.765625 0 
L 9.765625 75.640625 
L 48.734375 75.640625 
L 48.734375 66.9375 
L 19.53125 66.9375 
L 19.53125 42.71875 
L 46.578125 42.71875 
L 46.578125 34.078125 
L 19.53125 34.078125 
L 19.53125 8.640625 
L 50.4375 8.640625 
z
" id="MicrosoftYaHei-45"/>
      <path d="M 55.46875 66.9375 
L 33.640625 66.9375 
L 33.640625 0 
L 23.828125 0 
L 23.828125 66.9375 
L 2.09375 66.9375 
L 2.09375 75.640625 
L 55.46875 75.640625 
z
" id="MicrosoftYaHei-54"/>
      <path d="M 48.734375 66.9375 
L 19.53125 66.9375 
L 19.53125 41.65625 
L 46.578125 41.65625 
L 46.578125 33.0625 
L 19.53125 33.0625 
L 19.53125 0 
L 9.765625 0 
L 9.765625 75.640625 
L 48.734375 75.640625 
z
" id="MicrosoftYaHei-46"/>
     </defs>
     <g transform="translate(127 75.673437)scale(0.1 -0.1)">
      <use xlink:href="#MicrosoftYaHei-56fd"/>
      <use x="100" xlink:href="#MicrosoftYaHei-6cf0"/>
      <use x="200" xlink:href="#MicrosoftYaHei-7eb3"/>
      <use x="300" xlink:href="#MicrosoftYaHei-65af"/>
      <use x="400" xlink:href="#MicrosoftYaHei-8fbe"/>
      <use x="500" xlink:href="#MicrosoftYaHei-514b"/>
      <use x="600" xlink:href="#MicrosoftYaHei-31"/>
      <use x="658.642578" xlink:href="#MicrosoftYaHei-30"/>
      <use x="717.285156" xlink:href="#MicrosoftYaHei-30"/>
      <use x="775.927734" xlink:href="#MicrosoftYaHei-45"/>
      <use x="830.908203" xlink:href="#MicrosoftYaHei-54"/>
      <use x="888.232422" xlink:href="#MicrosoftYaHei-46"/>
     </g>
    </g>
   </g>
  </g>
 </g>
 <defs>
  <clipPath id="p95730bef95">
   <rect height="277.2" width="558" x="90" y="43.2"/>
  </clipPath>
 </defs>
</svg>
