<?xml version="1.0" encoding="utf-8" standalone="no"?>
<!DOCTYPE svg PUBLIC "-//W3C//DTD SVG 1.1//EN"
  "http://www.w3.org/Graphics/SVG/1.1/DTD/svg11.dtd">
<!-- Created with matplotlib (http://matplotlib.org/) -->
<svg height="360pt" version="1.1" viewBox="0 0 720 360" width="720pt" xmlns="http://www.w3.org/2000/svg" xmlns:xlink="http://www.w3.org/1999/xlink">
 <defs>
  <style type="text/css">
*{stroke-linecap:butt;stroke-linejoin:round;}
  </style>
 </defs>
 <g id="figure_1">
  <g id="patch_1">
   <path d="M 0 360 
L 720 360 
L 720 0 
L 0 0 
z
" style="fill:#ffffff;"/>
  </g>
  <g id="axes_1">
   <g id="patch_2">
    <path d="M 90 320.4 
L 648 320.4 
L 648 43.2 
L 90 43.2 
z
" style="fill:#ffffff;"/>
   </g>
   <g id="matplotlib.axis_1">
    <g id="xtick_1">
     <g id="line2d_1">
      <path clip-path="url(#p5a487c7e9f)" d="M 90 320.4 
L 90 43.2 
" style="fill:none;stroke:#b0b0b0;stroke-linecap:square;stroke-width:0.8;"/>
     </g>
     <g id="line2d_2">
      <defs>
       <path d="M 0 0 
L 0 3.5 
" id="mb74a1dd2d6" style="stroke:#000000;stroke-width:0.8;"/>
      </defs>
      <g>
       <use style="stroke:#000000;stroke-width:0.8;" x="90" xlink:href="#mb74a1dd2d6" y="320.4"/>
      </g>
     </g>
     <g id="text_1">
      <!-- 2017-03-24 -->
      <defs>
       <path d="M 51.171875 0 
L 5.171875 0 
L 5.171875 8.296875 
L 27.15625 30.21875 
Q 36.234375 39.3125 39.3125 44.609375 
Q 42.390625 49.90625 42.390625 55.5625 
Q 42.390625 62.015625 38.765625 65.453125 
Q 35.15625 68.890625 28.328125 68.890625 
Q 18.21875 68.890625 9.03125 60.296875 
L 9.03125 70.015625 
Q 17.96875 76.90625 29.828125 76.90625 
Q 40.046875 76.90625 45.953125 71.390625 
Q 51.859375 65.875 51.859375 56.546875 
Q 51.859375 49.515625 48.0625 42.75 
Q 44.28125 35.984375 33.734375 25.53125 
L 16.5 8.6875 
L 16.5 8.5 
L 51.171875 8.5 
z
" id="MicrosoftYaHei-32"/>
       <path d="M 4.4375 36.328125 
Q 4.4375 56.34375 11.078125 66.625 
Q 17.71875 76.90625 30.328125 76.90625 
Q 54.34375 76.90625 54.34375 38.140625 
Q 54.34375 19 47.578125 8.859375 
Q 40.828125 -1.265625 28.609375 -1.265625 
Q 17.09375 -1.265625 10.765625 8.34375 
Q 4.4375 17.96875 4.4375 36.328125 
z
M 14.203125 36.765625 
Q 14.203125 6.640625 29.5 6.640625 
Q 44.53125 6.640625 44.53125 37.25 
Q 44.53125 68.953125 29.78125 68.953125 
Q 14.203125 68.953125 14.203125 36.765625 
z
" id="MicrosoftYaHei-30"/>
       <path d="M 52.59375 0 
L 9.234375 0 
L 9.234375 8.25 
L 26.171875 8.25 
L 26.171875 65.671875 
L 8.796875 60.640625 
L 8.796875 69.4375 
L 35.6875 77.25 
L 35.6875 8.25 
L 52.59375 8.25 
z
" id="MicrosoftYaHei-31"/>
       <path d="M 53.765625 72.3125 
L 24.171875 0 
L 14.265625 0 
L 42.390625 67.1875 
L 4.59375 67.1875 
L 4.59375 75.640625 
L 53.765625 75.640625 
z
" id="MicrosoftYaHei-37"/>
       <path d="M 36.375 26.265625 
L 7.625 26.265625 
L 7.625 33.640625 
L 36.375 33.640625 
z
" id="MicrosoftYaHei-2d"/>
       <path d="M 6.984375 12.640625 
Q 14.75 6.640625 24.515625 6.640625 
Q 32.328125 6.640625 36.890625 10.46875 
Q 41.453125 14.3125 41.453125 20.75 
Q 41.453125 35.109375 20.90625 35.109375 
L 14.59375 35.109375 
L 14.59375 43.015625 
L 20.609375 43.015625 
Q 38.8125 43.015625 38.8125 56.5 
Q 38.8125 68.953125 24.90625 68.953125 
Q 16.9375 68.953125 9.90625 63.578125 
L 9.90625 72.609375 
Q 17.328125 76.90625 27.25 76.90625 
Q 36.921875 76.90625 42.78125 71.84375 
Q 48.640625 66.796875 48.640625 58.734375 
Q 48.640625 43.890625 33.5 39.65625 
L 33.5 39.453125 
Q 41.703125 38.578125 46.453125 33.671875 
Q 51.21875 28.765625 51.21875 21.4375 
Q 51.21875 11.234375 43.875 4.984375 
Q 36.53125 -1.265625 24.3125 -1.265625 
Q 13.578125 -1.265625 6.984375 2.734375 
z
" id="MicrosoftYaHei-33"/>
       <path d="M 55.078125 19.625 
L 45.40625 19.625 
L 45.40625 0 
L 36.140625 0 
L 36.140625 19.625 
L 0.875 19.625 
L 0.875 25.828125 
L 34.328125 75.640625 
L 45.40625 75.640625 
L 45.40625 27.203125 
L 55.078125 27.203125 
z
M 36.140625 27.203125 
L 36.140625 58.890625 
Q 36.140625 62.25 36.328125 66.65625 
L 36.140625 66.65625 
Q 35.453125 64.796875 33.25 60.84375 
L 10.75 27.203125 
z
" id="MicrosoftYaHei-34"/>
      </defs>
      <g transform="translate(62.217187 335.39375)scale(0.1 -0.1)">
       <use xlink:href="#MicrosoftYaHei-32"/>
       <use x="58.642578" xlink:href="#MicrosoftYaHei-30"/>
       <use x="117.285156" xlink:href="#MicrosoftYaHei-31"/>
       <use x="175.927734" xlink:href="#MicrosoftYaHei-37"/>
       <use x="234.570312" xlink:href="#MicrosoftYaHei-2d"/>
       <use x="277.832031" xlink:href="#MicrosoftYaHei-30"/>
       <use x="336.474609" xlink:href="#MicrosoftYaHei-33"/>
       <use x="395.117188" xlink:href="#MicrosoftYaHei-2d"/>
       <use x="438.378906" xlink:href="#MicrosoftYaHei-32"/>
       <use x="497.021484" xlink:href="#MicrosoftYaHei-34"/>
      </g>
     </g>
    </g>
    <g id="xtick_2">
     <g id="line2d_3">
      <path clip-path="url(#p5a487c7e9f)" d="M 195.681818 320.4 
L 195.681818 43.2 
" style="fill:none;stroke:#b0b0b0;stroke-linecap:square;stroke-width:0.8;"/>
     </g>
     <g id="line2d_4">
      <g>
       <use style="stroke:#000000;stroke-width:0.8;" x="195.681818" xlink:href="#mb74a1dd2d6" y="320.4"/>
      </g>
     </g>
     <g id="text_2">
      <!-- 2018-01-22 -->
      <defs>
       <path d="M 21.390625 39.796875 
Q 7.859375 46.09375 7.859375 58.0625 
Q 7.859375 66.40625 14.203125 71.65625 
Q 20.5625 76.90625 30.421875 76.90625 
Q 39.453125 76.90625 45.3125 71.96875 
Q 51.171875 67.046875 51.171875 59.234375 
Q 51.171875 46.625 37.0625 39.84375 
L 37.0625 39.65625 
Q 53.609375 33.6875 53.609375 19.34375 
Q 53.609375 9.90625 46.796875 4.3125 
Q 39.984375 -1.265625 27.78125 -1.265625 
Q 17.78125 -1.265625 11.46875 4.25 
Q 5.171875 9.765625 5.171875 18.5625 
Q 5.171875 33.015625 21.390625 39.59375 
z
M 41.5 58.109375 
Q 41.5 63.1875 38.328125 66.109375 
Q 35.15625 69.046875 29.734375 69.046875 
Q 24.65625 69.046875 21.09375 65.984375 
Q 17.53125 62.9375 17.53125 58.203125 
Q 17.53125 48.734375 29.390625 43.796875 
Q 41.5 48.828125 41.5 58.109375 
z
M 28.8125 35.25 
Q 14.796875 29.59375 14.796875 19.046875 
Q 14.796875 13.578125 18.890625 10.0625 
Q 23 6.546875 29.59375 6.546875 
Q 35.984375 6.546875 39.984375 10.03125 
Q 44 13.53125 44 18.75 
Q 44 29.734375 28.8125 35.25 
z
" id="MicrosoftYaHei-38"/>
      </defs>
      <g transform="translate(167.899006 335.39375)scale(0.1 -0.1)">
       <use xlink:href="#MicrosoftYaHei-32"/>
       <use x="58.642578" xlink:href="#MicrosoftYaHei-30"/>
       <use x="117.285156" xlink:href="#MicrosoftYaHei-31"/>
       <use x="175.927734" xlink:href="#MicrosoftYaHei-38"/>
       <use x="234.570312" xlink:href="#MicrosoftYaHei-2d"/>
       <use x="277.832031" xlink:href="#MicrosoftYaHei-30"/>
       <use x="336.474609" xlink:href="#MicrosoftYaHei-31"/>
       <use x="395.117188" xlink:href="#MicrosoftYaHei-2d"/>
       <use x="438.378906" xlink:href="#MicrosoftYaHei-32"/>
       <use x="497.021484" xlink:href="#MicrosoftYaHei-32"/>
      </g>
     </g>
    </g>
    <g id="xtick_3">
     <g id="line2d_5">
      <path clip-path="url(#p5a487c7e9f)" d="M 301.363636 320.4 
L 301.363636 43.2 
" style="fill:none;stroke:#b0b0b0;stroke-linecap:square;stroke-width:0.8;"/>
     </g>
     <g id="line2d_6">
      <g>
       <use style="stroke:#000000;stroke-width:0.8;" x="301.363636" xlink:href="#mb74a1dd2d6" y="320.4"/>
      </g>
     </g>
     <g id="text_3">
      <!-- 2018-11-26 -->
      <defs>
       <path d="M 49.703125 65.921875 
Q 43.796875 68.953125 37.359375 68.953125 
Q 27.546875 68.953125 21.578125 60.40625 
Q 15.625 51.859375 15.53125 37.0625 
L 15.765625 37.0625 
Q 21.140625 47.46875 32.90625 47.46875 
Q 42.71875 47.46875 48.578125 41.0625 
Q 54.4375 34.671875 54.4375 24.078125 
Q 54.4375 12.984375 47.671875 5.859375 
Q 40.921875 -1.265625 30.421875 -1.265625 
Q 18.890625 -1.265625 12.328125 7.734375 
Q 5.765625 16.75 5.765625 33.296875 
Q 5.765625 53.328125 14.375 65.109375 
Q 23 76.90625 37.0625 76.90625 
Q 45.125 76.90625 49.703125 74.703125 
z
M 16.109375 24.75 
Q 16.109375 17.28125 20.09375 11.953125 
Q 24.078125 6.640625 30.671875 6.640625 
Q 36.921875 6.640625 40.828125 11.234375 
Q 44.734375 15.828125 44.734375 23.046875 
Q 44.734375 30.859375 41.046875 35.203125 
Q 37.359375 39.546875 30.5625 39.546875 
Q 24.125 39.546875 20.109375 35.15625 
Q 16.109375 30.765625 16.109375 24.75 
z
" id="MicrosoftYaHei-36"/>
      </defs>
      <g transform="translate(273.580824 335.39375)scale(0.1 -0.1)">
       <use xlink:href="#MicrosoftYaHei-32"/>
       <use x="58.642578" xlink:href="#MicrosoftYaHei-30"/>
       <use x="117.285156" xlink:href="#MicrosoftYaHei-31"/>
       <use x="175.927734" xlink:href="#MicrosoftYaHei-38"/>
       <use x="234.570312" xlink:href="#MicrosoftYaHei-2d"/>
       <use x="277.832031" xlink:href="#MicrosoftYaHei-31"/>
       <use x="336.474609" xlink:href="#MicrosoftYaHei-31"/>
       <use x="395.117188" xlink:href="#MicrosoftYaHei-2d"/>
       <use x="438.378906" xlink:href="#MicrosoftYaHei-32"/>
       <use x="497.021484" xlink:href="#MicrosoftYaHei-36"/>
      </g>
     </g>
    </g>
    <g id="xtick_4">
     <g id="line2d_7">
      <path clip-path="url(#p5a487c7e9f)" d="M 407.045455 320.4 
L 407.045455 43.2 
" style="fill:none;stroke:#b0b0b0;stroke-linecap:square;stroke-width:0.8;"/>
     </g>
     <g id="line2d_8">
      <g>
       <use style="stroke:#000000;stroke-width:0.8;" x="407.045455" xlink:href="#mb74a1dd2d6" y="320.4"/>
      </g>
     </g>
     <g id="text_4">
      <!-- 2019-09-19 -->
      <defs>
       <path d="M 9.03125 10.25 
Q 15.28125 6.640625 22.515625 6.640625 
Q 32.671875 6.640625 38.25 14.640625 
Q 43.84375 22.65625 43.84375 37.40625 
Q 43.75 37.3125 43.65625 37.40625 
Q 38.671875 27.9375 26.90625 27.9375 
Q 17.390625 27.9375 11.140625 34.46875 
Q 4.890625 41.015625 4.890625 51.46875 
Q 4.890625 62.59375 11.71875 69.75 
Q 18.5625 76.90625 29.4375 76.90625 
Q 40.71875 76.90625 47.0625 68.046875 
Q 53.421875 59.1875 53.421875 42.234375 
Q 53.421875 21.296875 45.21875 10.015625 
Q 37.015625 -1.265625 22.515625 -1.265625 
Q 14.546875 -1.265625 9.03125 1.3125 
z
M 14.546875 52.6875 
Q 14.546875 45.0625 18.453125 40.59375 
Q 22.359375 36.140625 29.25 36.140625 
Q 35.203125 36.140625 39.25 40.203125 
Q 43.3125 44.28125 43.3125 50.09375 
Q 43.3125 58.25 39.28125 63.59375 
Q 35.25 68.953125 28.65625 68.953125 
Q 22.5625 68.953125 18.546875 64.3125 
Q 14.546875 59.671875 14.546875 52.6875 
z
" id="MicrosoftYaHei-39"/>
      </defs>
      <g transform="translate(379.262642 335.39375)scale(0.1 -0.1)">
       <use xlink:href="#MicrosoftYaHei-32"/>
       <use x="58.642578" xlink:href="#MicrosoftYaHei-30"/>
       <use x="117.285156" xlink:href="#MicrosoftYaHei-31"/>
       <use x="175.927734" xlink:href="#MicrosoftYaHei-39"/>
       <use x="234.570312" xlink:href="#MicrosoftYaHei-2d"/>
       <use x="277.832031" xlink:href="#MicrosoftYaHei-30"/>
       <use x="336.474609" xlink:href="#MicrosoftYaHei-39"/>
       <use x="395.117188" xlink:href="#MicrosoftYaHei-2d"/>
       <use x="438.378906" xlink:href="#MicrosoftYaHei-31"/>
       <use x="497.021484" xlink:href="#MicrosoftYaHei-39"/>
      </g>
     </g>
    </g>
    <g id="xtick_5">
     <g id="line2d_9">
      <path clip-path="url(#p5a487c7e9f)" d="M 512.727273 320.4 
L 512.727273 43.2 
" style="fill:none;stroke:#b0b0b0;stroke-linecap:square;stroke-width:0.8;"/>
     </g>
     <g id="line2d_10">
      <g>
       <use style="stroke:#000000;stroke-width:0.8;" x="512.727273" xlink:href="#mb74a1dd2d6" y="320.4"/>
      </g>
     </g>
     <g id="text_5">
      <!-- 2020-07-21 -->
      <g transform="translate(484.94446 335.39375)scale(0.1 -0.1)">
       <use xlink:href="#MicrosoftYaHei-32"/>
       <use x="58.642578" xlink:href="#MicrosoftYaHei-30"/>
       <use x="117.285156" xlink:href="#MicrosoftYaHei-32"/>
       <use x="175.927734" xlink:href="#MicrosoftYaHei-30"/>
       <use x="234.570312" xlink:href="#MicrosoftYaHei-2d"/>
       <use x="277.832031" xlink:href="#MicrosoftYaHei-30"/>
       <use x="336.474609" xlink:href="#MicrosoftYaHei-37"/>
       <use x="395.117188" xlink:href="#MicrosoftYaHei-2d"/>
       <use x="438.378906" xlink:href="#MicrosoftYaHei-32"/>
       <use x="497.021484" xlink:href="#MicrosoftYaHei-31"/>
      </g>
     </g>
    </g>
    <g id="xtick_6">
     <g id="line2d_11">
      <path clip-path="url(#p5a487c7e9f)" d="M 618.409091 320.4 
L 618.409091 43.2 
" style="fill:none;stroke:#b0b0b0;stroke-linecap:square;stroke-width:0.8;"/>
     </g>
     <g id="line2d_12">
      <g>
       <use style="stroke:#000000;stroke-width:0.8;" x="618.409091" xlink:href="#mb74a1dd2d6" y="320.4"/>
      </g>
     </g>
     <g id="text_6">
      <!-- 2021-05-19 -->
      <defs>
       <path d="M 8.640625 11.625 
Q 16.265625 6.640625 24.515625 6.640625 
Q 32.328125 6.640625 37.109375 11 
Q 41.890625 15.375 41.890625 22.609375 
Q 41.890625 29.890625 37.03125 33.890625 
Q 32.171875 37.890625 22.953125 37.890625 
Q 18.5 37.890625 10.984375 37.203125 
L 10.984375 75.640625 
L 48.1875 75.640625 
L 48.1875 67.1875 
L 19.875 67.1875 
L 19.875 45.796875 
Q 24.125 46.046875 26.265625 46.046875 
Q 38.234375 46.046875 44.921875 39.984375 
Q 51.609375 33.9375 51.609375 23.296875 
Q 51.609375 12.3125 44.421875 5.515625 
Q 37.25 -1.265625 24.609375 -1.265625 
Q 14.015625 -1.265625 8.640625 1.859375 
z
" id="MicrosoftYaHei-35"/>
      </defs>
      <g transform="translate(590.626278 335.39375)scale(0.1 -0.1)">
       <use xlink:href="#MicrosoftYaHei-32"/>
       <use x="58.642578" xlink:href="#MicrosoftYaHei-30"/>
       <use x="117.285156" xlink:href="#MicrosoftYaHei-32"/>
       <use x="175.927734" xlink:href="#MicrosoftYaHei-31"/>
       <use x="234.570312" xlink:href="#MicrosoftYaHei-2d"/>
       <use x="277.832031" xlink:href="#MicrosoftYaHei-30"/>
       <use x="336.474609" xlink:href="#MicrosoftYaHei-35"/>
       <use x="395.117188" xlink:href="#MicrosoftYaHei-2d"/>
       <use x="438.378906" xlink:href="#MicrosoftYaHei-31"/>
       <use x="497.021484" xlink:href="#MicrosoftYaHei-39"/>
      </g>
     </g>
    </g>
   </g>
   <g id="matplotlib.axis_2">
    <g id="ytick_1">
     <g id="line2d_13">
      <path clip-path="url(#p5a487c7e9f)" d="M 90 298.471984 
L 648 298.471984 
" style="fill:none;stroke:#b0b0b0;stroke-linecap:square;stroke-width:0.8;"/>
     </g>
     <g id="line2d_14">
      <defs>
       <path d="M 0 0 
L -3.5 0 
" id="m7f7d8932da" style="stroke:#000000;stroke-width:0.8;"/>
      </defs>
      <g>
       <use style="stroke:#000000;stroke-width:0.8;" x="90" xlink:href="#m7f7d8932da" y="298.471984"/>
      </g>
     </g>
     <g id="text_7">
      <!-- 1.0 -->
      <defs>
       <path d="M 5.8125 5.03125 
Q 5.8125 7.671875 7.609375 9.46875 
Q 9.421875 11.28125 12.109375 11.28125 
Q 14.84375 11.28125 16.640625 9.453125 
Q 18.453125 7.625 18.453125 5.03125 
Q 18.453125 2.484375 16.640625 0.65625 
Q 14.84375 -1.171875 12.0625 -1.171875 
Q 9.375 -1.171875 7.59375 0.65625 
Q 5.8125 2.484375 5.8125 5.03125 
z
" id="MicrosoftYaHei-2e"/>
      </defs>
      <g transform="translate(68.864063 302.468859)scale(0.1 -0.1)">
       <use xlink:href="#MicrosoftYaHei-31"/>
       <use x="58.642578" xlink:href="#MicrosoftYaHei-2e"/>
       <use x="82.714844" xlink:href="#MicrosoftYaHei-30"/>
      </g>
     </g>
    </g>
    <g id="ytick_2">
     <g id="line2d_15">
      <path clip-path="url(#p5a487c7e9f)" d="M 90 262.774481 
L 648 262.774481 
" style="fill:none;stroke:#b0b0b0;stroke-linecap:square;stroke-width:0.8;"/>
     </g>
     <g id="line2d_16">
      <g>
       <use style="stroke:#000000;stroke-width:0.8;" x="90" xlink:href="#m7f7d8932da" y="262.774481"/>
      </g>
     </g>
     <g id="text_8">
      <!-- 1.5 -->
      <g transform="translate(68.864063 266.771356)scale(0.1 -0.1)">
       <use xlink:href="#MicrosoftYaHei-31"/>
       <use x="58.642578" xlink:href="#MicrosoftYaHei-2e"/>
       <use x="82.714844" xlink:href="#MicrosoftYaHei-35"/>
      </g>
     </g>
    </g>
    <g id="ytick_3">
     <g id="line2d_17">
      <path clip-path="url(#p5a487c7e9f)" d="M 90 227.076977 
L 648 227.076977 
" style="fill:none;stroke:#b0b0b0;stroke-linecap:square;stroke-width:0.8;"/>
     </g>
     <g id="line2d_18">
      <g>
       <use style="stroke:#000000;stroke-width:0.8;" x="90" xlink:href="#m7f7d8932da" y="227.076977"/>
      </g>
     </g>
     <g id="text_9">
      <!-- 2.0 -->
      <g transform="translate(68.864063 231.073852)scale(0.1 -0.1)">
       <use xlink:href="#MicrosoftYaHei-32"/>
       <use x="58.642578" xlink:href="#MicrosoftYaHei-2e"/>
       <use x="82.714844" xlink:href="#MicrosoftYaHei-30"/>
      </g>
     </g>
    </g>
    <g id="ytick_4">
     <g id="line2d_19">
      <path clip-path="url(#p5a487c7e9f)" d="M 90 191.379474 
L 648 191.379474 
" style="fill:none;stroke:#b0b0b0;stroke-linecap:square;stroke-width:0.8;"/>
     </g>
     <g id="line2d_20">
      <g>
       <use style="stroke:#000000;stroke-width:0.8;" x="90" xlink:href="#m7f7d8932da" y="191.379474"/>
      </g>
     </g>
     <g id="text_10">
      <!-- 2.5 -->
      <g transform="translate(68.864063 195.376349)scale(0.1 -0.1)">
       <use xlink:href="#MicrosoftYaHei-32"/>
       <use x="58.642578" xlink:href="#MicrosoftYaHei-2e"/>
       <use x="82.714844" xlink:href="#MicrosoftYaHei-35"/>
      </g>
     </g>
    </g>
    <g id="ytick_5">
     <g id="line2d_21">
      <path clip-path="url(#p5a487c7e9f)" d="M 90 155.68197 
L 648 155.68197 
" style="fill:none;stroke:#b0b0b0;stroke-linecap:square;stroke-width:0.8;"/>
     </g>
     <g id="line2d_22">
      <g>
       <use style="stroke:#000000;stroke-width:0.8;" x="90" xlink:href="#m7f7d8932da" y="155.68197"/>
      </g>
     </g>
     <g id="text_11">
      <!-- 3.0 -->
      <g transform="translate(68.864063 159.678845)scale(0.1 -0.1)">
       <use xlink:href="#MicrosoftYaHei-33"/>
       <use x="58.642578" xlink:href="#MicrosoftYaHei-2e"/>
       <use x="82.714844" xlink:href="#MicrosoftYaHei-30"/>
      </g>
     </g>
    </g>
    <g id="ytick_6">
     <g id="line2d_23">
      <path clip-path="url(#p5a487c7e9f)" d="M 90 119.984467 
L 648 119.984467 
" style="fill:none;stroke:#b0b0b0;stroke-linecap:square;stroke-width:0.8;"/>
     </g>
     <g id="line2d_24">
      <g>
       <use style="stroke:#000000;stroke-width:0.8;" x="90" xlink:href="#m7f7d8932da" y="119.984467"/>
      </g>
     </g>
     <g id="text_12">
      <!-- 3.5 -->
      <g transform="translate(68.864063 123.981342)scale(0.1 -0.1)">
       <use xlink:href="#MicrosoftYaHei-33"/>
       <use x="58.642578" xlink:href="#MicrosoftYaHei-2e"/>
       <use x="82.714844" xlink:href="#MicrosoftYaHei-35"/>
      </g>
     </g>
    </g>
    <g id="ytick_7">
     <g id="line2d_25">
      <path clip-path="url(#p5a487c7e9f)" d="M 90 84.286963 
L 648 84.286963 
" style="fill:none;stroke:#b0b0b0;stroke-linecap:square;stroke-width:0.8;"/>
     </g>
     <g id="line2d_26">
      <g>
       <use style="stroke:#000000;stroke-width:0.8;" x="90" xlink:href="#m7f7d8932da" y="84.286963"/>
      </g>
     </g>
     <g id="text_13">
      <!-- 4.0 -->
      <g transform="translate(68.864063 88.283838)scale(0.1 -0.1)">
       <use xlink:href="#MicrosoftYaHei-34"/>
       <use x="58.642578" xlink:href="#MicrosoftYaHei-2e"/>
       <use x="82.714844" xlink:href="#MicrosoftYaHei-30"/>
      </g>
     </g>
    </g>
    <g id="ytick_8">
     <g id="line2d_27">
      <path clip-path="url(#p5a487c7e9f)" d="M 90 48.589459 
L 648 48.589459 
" style="fill:none;stroke:#b0b0b0;stroke-linecap:square;stroke-width:0.8;"/>
     </g>
     <g id="line2d_28">
      <g>
       <use style="stroke:#000000;stroke-width:0.8;" x="90" xlink:href="#m7f7d8932da" y="48.589459"/>
      </g>
     </g>
     <g id="text_14">
      <!-- 4.5 -->
      <g transform="translate(68.864063 52.586334)scale(0.1 -0.1)">
       <use xlink:href="#MicrosoftYaHei-34"/>
       <use x="58.642578" xlink:href="#MicrosoftYaHei-2e"/>
       <use x="82.714844" xlink:href="#MicrosoftYaHei-35"/>
      </g>
     </g>
    </g>
   </g>
   <g id="line2d_29">
    <path clip-path="url(#p5a487c7e9f)" d="M 90 298.471984 
L 90.528409 299.182382 
L 91.056818 298.969263 
L 91.585227 299.537581 
L 92.113636 299.82174 
L 93.170455 297.477427 
L 93.698864 297.406387 
L 94.227273 297.832626 
L 94.755682 298.969263 
L 95.284091 299.466541 
L 95.8125 299.253422 
L 96.340909 298.258865 
L 96.869318 298.898223 
L 97.397727 298.258865 
L 97.926136 298.400944 
L 98.454545 296.838068 
L 98.982955 297.690546 
L 99.511364 299.182382 
L 100.039773 298.969263 
L 100.568182 298.614064 
L 101.096591 297.832626 
L 101.625 298.685103 
L 102.153409 298.543024 
L 102.681818 298.756143 
L 103.738636 299.395502 
L 104.267045 300.176939 
L 104.795455 300.1059 
L 105.323864 299.89278 
L 106.380682 298.756143 
L 107.4375 295.914551 
L 107.965909 296.909108 
L 108.494318 296.909108 
L 110.079545 295.843511 
L 110.607955 296.12767 
L 111.136364 296.26975 
L 111.664773 296.980148 
L 112.193182 296.767029 
L 112.721591 296.26975 
L 113.778409 297.619506 
L 114.306818 296.553909 
L 115.363636 293.996476 
L 116.420455 292.930879 
L 116.948864 292.71776 
L 117.477273 294.138556 
L 118.534091 294.991033 
L 119.0625 294.067516 
L 119.590909 294.635834 
L 120.119318 293.072959 
L 120.647727 294.209596 
L 121.176136 293.286078 
L 121.704545 291.865282 
L 122.232955 291.581123 
L 122.761364 292.859839 
L 123.818182 292.007362 
L 124.346591 293.001919 
L 124.875 292.71776 
L 126.460227 295.275193 
L 126.988636 294.991033 
L 127.517045 295.346233 
L 128.045455 295.914551 
L 128.573864 295.701432 
L 129.102273 296.767029 
L 129.630682 297.335347 
L 130.159091 296.34079 
L 130.6875 295.914551 
L 131.215909 296.34079 
L 131.744318 296.26975 
L 132.272727 296.695989 
L 132.801136 297.548467 
L 133.329545 297.548467 
L 133.857955 296.980148 
L 134.914773 297.264307 
L 135.443182 297.690546 
L 135.971591 298.471984 
L 136.5 298.614064 
L 137.028409 297.974705 
L 137.556818 297.548467 
L 138.085227 296.26975 
L 138.613636 296.12767 
L 139.142045 296.482869 
L 139.670455 295.559352 
L 140.198864 296.056631 
L 140.727273 296.26975 
L 141.255682 296.624949 
L 141.784091 296.34079 
L 142.3125 295.772471 
L 142.840909 296.19871 
L 143.369318 296.41183 
L 143.897727 297.051188 
L 144.426136 296.980148 
L 144.954545 296.695989 
L 145.482955 296.980148 
L 146.011364 296.482869 
L 146.539773 296.695989 
L 147.596591 295.346233 
L 148.125 295.914551 
L 148.653409 295.772471 
L 149.710227 295.204153 
L 150.238636 295.417272 
L 150.767045 294.706874 
L 151.295455 294.991033 
L 151.823864 295.133113 
L 152.352273 294.706874 
L 152.880682 295.204153 
L 153.409091 294.351675 
L 153.9375 294.777914 
L 154.465909 294.635834 
L 154.994318 293.996476 
L 155.522727 294.280635 
L 156.051136 294.138556 
L 156.579545 293.072959 
L 157.107955 293.143998 
L 158.693182 289.592008 
L 159.75 288.526411 
L 160.278409 288.88161 
L 160.806818 288.668491 
L 161.863636 287.034575 
L 162.392045 287.460814 
L 162.920455 286.111057 
L 163.448864 285.826898 
L 163.977273 284.619221 
L 164.505682 285.1165 
L 165.034091 284.335062 
L 165.5625 285.25858 
L 166.619318 285.471699 
L 167.147727 284.903381 
L 167.676136 284.050903 
L 168.204545 281.35139 
L 168.732955 281.777629 
L 169.261364 282.985306 
L 169.789773 282.416987 
L 170.318182 281.56451 
L 170.846591 281.209311 
L 171.375 283.482585 
L 171.903409 284.050903 
L 172.431818 282.061788 
L 172.960227 284.477142 
L 173.488636 283.056346 
L 174.017045 283.340505 
L 174.545455 284.690261 
L 175.073864 288.313292 
L 175.602273 289.663048 
L 176.130682 288.455371 
L 176.659091 289.165769 
L 177.1875 289.236809 
L 177.715909 288.81057 
L 178.244318 287.673933 
L 178.772727 288.597451 
L 179.301136 288.171212 
L 179.829545 288.455371 
L 180.357955 287.247694 
L 180.886364 283.766744 
L 181.414773 283.766744 
L 182.471591 282.914266 
L 183 284.121943 
L 183.528409 284.050903 
L 184.056818 283.056346 
L 184.585227 282.416987 
L 185.113636 280.783072 
L 186.170455 282.061788 
L 186.698864 283.766744 
L 187.755682 281.777629 
L 188.284091 281.777629 
L 188.8125 282.132828 
L 189.340909 281.777629 
L 189.869318 280.925151 
L 190.397727 281.067231 
L 190.926136 280.925151 
L 191.454545 279.007077 
L 192.511364 279.291236 
L 193.039773 278.012519 
L 193.568182 277.72836 
L 194.096591 279.149156 
L 194.625 279.717475 
L 195.153409 279.930594 
L 195.681818 278.367718 
L 196.738636 277.87044 
L 197.267045 279.717475 
L 197.795455 279.646435 
L 198.323864 283.127386 
L 198.852273 283.411545 
L 199.380682 283.056346 
L 199.909091 284.761301 
L 200.4375 284.548182 
L 200.965909 286.466257 
L 201.494318 289.663048 
L 202.022727 290.444486 
L 202.551136 289.378889 
L 203.079545 291.439043 
L 203.607955 287.816013 
L 204.664773 285.968978 
L 205.193182 283.979863 
L 205.721591 284.548182 
L 206.25 283.198425 
L 207.306818 284.477142 
L 207.835227 283.198425 
L 208.363636 283.837784 
L 208.892045 283.198425 
L 209.420455 281.209311 
L 209.948864 281.35139 
L 210.477273 278.509798 
L 211.005682 278.012519 
L 211.534091 277.231081 
L 212.0625 278.793957 
L 212.590909 279.788515 
L 213.119318 278.722917 
L 213.647727 279.433316 
L 214.176136 276.307564 
L 214.704545 274.24741 
L 215.232955 274.744688 
L 215.761364 275.455086 
L 216.289773 277.302121 
L 216.818182 274.03429 
L 217.346591 272.755574 
L 218.403409 276.307564 
L 218.931818 272.968693 
L 219.460227 273.110773 
L 219.988636 274.24741 
L 220.517045 274.10533 
L 221.045455 272.826613 
L 221.573864 272.826613 
L 222.102273 270.837499 
L 222.630682 273.323892 
L 223.159091 271.761016 
L 223.6875 274.815728 
L 224.744318 272.826613 
L 225.272727 272.613494 
L 225.801136 272.755574 
L 226.329545 271.334777 
L 226.857955 267.427588 
L 227.386364 269.487742 
L 227.914773 266.64615 
L 228.443182 266.006792 
L 228.971591 266.71719 
L 230.028409 262.525841 
L 230.556818 263.804558 
L 231.085227 263.662478 
L 231.613636 260.323607 
L 232.142045 263.875598 
L 232.670455 263.875598 
L 233.198864 260.820886 
L 233.727273 259.897368 
L 234.255682 261.886483 
L 234.784091 261.389204 
L 235.3125 261.460244 
L 235.840909 259.044891 
L 236.369318 259.25801 
L 236.897727 258.405532 
L 237.426136 256.416418 
L 237.954545 261.105045 
L 238.482955 261.744403 
L 239.011364 258.618652 
L 239.539773 263.875598 
L 240.068182 263.662478 
L 240.596591 259.684249 
L 241.125 257.339935 
L 241.653409 258.831771 
L 242.181818 258.760731 
L 242.710227 262.383762 
L 243.238636 259.684249 
L 243.767045 261.247125 
L 244.295455 262.241682 
L 245.352273 265.935752 
L 245.880682 262.028563 
L 246.409091 262.028563 
L 247.465909 260.394647 
L 247.994318 260.749846 
L 248.522727 264.514956 
L 249.051136 265.580553 
L 249.579545 261.034005 
L 250.107955 261.034005 
L 250.636364 259.897368 
L 251.164773 261.318164 
L 251.693182 265.864712 
L 252.221591 265.864712 
L 252.75 262.099602 
L 253.278409 261.247125 
L 253.806818 260.891926 
L 254.335227 257.482015 
L 254.863636 255.4929 
L 255.392045 254.285223 
L 255.920455 255.63498 
L 256.448864 255.56394 
L 256.977273 259.32905 
L 257.505682 259.613209 
L 258.034091 267.214469 
L 258.5625 267.640707 
L 259.090909 265.012234 
L 259.619318 266.148871 
L 260.147727 267.569668 
L 260.676136 271.334777 
L 261.204545 270.624379 
L 261.732955 272.542454 
L 262.261364 271.903096 
L 262.789773 275.170927 
L 263.318182 279.646435 
L 263.846591 277.017962 
L 264.375 278.864997 
L 264.903409 274.886768 
L 265.431818 272.400375 
L 265.960227 270.624379 
L 266.488636 270.979578 
L 267.017045 274.602609 
L 267.545455 274.460529 
L 268.073864 278.722917 
L 268.602273 280.214753 
L 269.130682 275.384046 
L 269.659091 275.384046 
L 270.1875 274.24741 
L 270.715909 273.537011 
L 271.244318 270.55334 
L 271.772727 271.192698 
L 272.829545 273.323892 
L 273.357955 275.597166 
L 273.886364 275.881325 
L 274.414773 277.231081 
L 274.943182 278.083559 
L 275.471591 275.952365 
L 276 277.65732 
L 276.528409 276.946922 
L 277.056818 280.143714 
L 278.642045 284.050903 
L 279.170455 281.848669 
L 279.698864 280.640992 
L 280.227273 281.138271 
L 280.755682 279.078116 
L 281.284091 278.580838 
L 281.8125 276.733803 
L 282.340909 276.165484 
L 282.869318 274.957808 
L 283.397727 279.646435 
L 283.926136 280.712032 
L 284.454545 282.559067 
L 284.982955 286.892495 
L 285.511364 286.466257 
L 286.039773 287.318734 
L 287.096591 289.592008 
L 287.625 292.930879 
L 288.681818 284.974421 
L 289.738636 288.73953 
L 290.267045 289.663048 
L 291.323864 292.71776 
L 291.852273 291.581123 
L 292.380682 289.236809 
L 292.909091 288.73953 
L 293.4375 284.406102 
L 293.965909 285.400659 
L 294.494318 284.832341 
L 295.022727 285.1165 
L 295.551136 284.974421 
L 296.079545 285.826898 
L 297.136364 283.056346 
L 297.664773 283.837784 
L 298.193182 283.056346 
L 298.721591 284.690261 
L 299.25 284.690261 
L 299.778409 285.968978 
L 300.306818 284.335062 
L 300.835227 286.253137 
L 301.892045 286.466257 
L 302.420455 285.542739 
L 302.948864 286.466257 
L 303.477273 285.542739 
L 304.005682 282.772186 
L 304.534091 281.56451 
L 305.590909 286.963535 
L 306.119318 288.171212 
L 306.647727 287.105615 
L 307.176136 288.384331 
L 307.704545 287.247694 
L 308.232955 289.663048 
L 308.761364 291.083844 
L 309.289773 291.439043 
L 309.818182 293.712317 
L 310.346591 294.493755 
L 310.875 295.772471 
L 311.403409 294.209596 
L 311.931818 294.138556 
L 312.460227 294.564795 
L 312.988636 294.280635 
L 313.517045 294.280635 
L 314.045455 296.695989 
L 314.573864 297.548467 
L 315.102273 295.914551 
L 315.630682 295.630392 
L 316.159091 295.559352 
L 316.6875 295.204153 
L 317.215909 295.630392 
L 317.744318 295.559352 
L 318.272727 296.482869 
L 319.329545 294.422715 
L 319.857955 294.919994 
L 320.386364 293.357118 
L 320.914773 292.4336 
L 321.443182 293.641277 
L 322.5 293.428158 
L 323.028409 292.71776 
L 323.556818 292.71776 
L 324.085227 292.859839 
L 324.613636 293.712317 
L 325.142045 293.215038 
L 325.670455 291.012804 
L 326.198864 289.663048 
L 326.727273 288.95265 
L 327.255682 287.887053 
L 327.784091 287.673933 
L 328.3125 288.384331 
L 328.840909 284.974421 
L 329.897727 286.821456 
L 330.426136 287.034575 
L 330.954545 285.968978 
L 331.482955 283.198425 
L 332.011364 282.630107 
L 332.539773 283.411545 
L 333.068182 280.712032 
L 333.596591 280.214753 
L 334.125 278.793957 
L 334.653409 278.438758 
L 335.181818 279.007077 
L 335.710227 280.640992 
L 336.238636 281.209311 
L 336.767045 277.089002 
L 337.295455 276.946922 
L 337.823864 276.520683 
L 338.352273 277.017962 
L 338.880682 274.460529 
L 339.409091 270.4823 
L 339.9375 272.187255 
L 340.465909 272.826613 
L 340.994318 273.181812 
L 341.522727 272.755574 
L 342.579545 275.028847 
L 343.107955 272.258295 
L 343.636364 272.684534 
L 344.164773 269.416703 
L 344.693182 267.995906 
L 345.221591 269.913981 
L 345.75 270.127101 
L 346.278409 270.55334 
L 346.806818 272.116215 
L 347.335227 270.55334 
L 347.863636 269.416703 
L 348.392045 272.613494 
L 348.920455 272.755574 
L 349.448864 273.679091 
L 349.977273 272.542454 
L 350.505682 272.400375 
L 351.034091 272.684534 
L 351.5625 272.329335 
L 352.090909 272.542454 
L 352.619318 272.542454 
L 353.147727 271.974136 
L 354.204545 271.761016 
L 354.732955 270.056061 
L 355.261364 270.4823 
L 355.789773 275.099887 
L 356.318182 272.045175 
L 356.846591 273.679091 
L 357.375 276.094445 
L 357.903409 272.897653 
L 358.431818 272.187255 
L 358.960227 272.684534 
L 359.488636 270.056061 
L 360.017045 269.132543 
L 361.073864 273.039733 
L 361.602273 271.832056 
L 362.130682 271.903096 
L 362.659091 274.10533 
L 363.1875 274.10533 
L 363.715909 273.039733 
L 364.244318 271.547897 
L 364.772727 271.974136 
L 365.301136 271.476857 
L 365.829545 270.4823 
L 366.357955 271.121658 
L 367.414773 274.744688 
L 367.943182 275.384046 
L 368.471591 273.96325 
L 369 271.050618 
L 369.528409 271.121658 
L 370.056818 269.985021 
L 370.585227 270.19814 
L 371.113636 271.050618 
L 372.170455 269.203583 
L 372.698864 266.85927 
L 373.227273 266.85927 
L 373.755682 266.361991 
L 374.284091 266.50407 
L 374.8125 263.165199 
L 375.340909 262.099602 
L 375.869318 262.738961 
L 376.397727 262.738961 
L 376.926136 260.465687 
L 377.454545 259.11593 
L 378.511364 263.733518 
L 379.039773 261.744403 
L 379.568182 264.088717 
L 380.096591 263.662478 
L 380.625 263.520399 
L 381.153409 263.591438 
L 381.681818 263.449359 
L 382.210227 264.443916 
L 382.738636 265.935752 
L 383.267045 266.50407 
L 383.795455 267.924867 
L 384.323864 267.498628 
L 385.380682 267.498628 
L 385.909091 266.78823 
L 386.4375 266.930309 
L 386.965909 264.870155 
L 387.494318 265.793672 
L 388.022727 265.722633 
L 389.079545 266.71719 
L 389.607955 265.864712 
L 390.136364 267.711747 
L 390.664773 267.498628 
L 391.721591 263.662478 
L 392.25 263.804558 
L 392.778409 262.738961 
L 393.306818 262.667921 
L 393.835227 260.394647 
L 394.363636 260.394647 
L 395.420455 258.831771 
L 395.948864 258.618652 
L 396.477273 259.755289 
L 397.005682 258.760731 
L 397.534091 255.350821 
L 398.0625 255.4929 
L 398.590909 255.066661 
L 399.647727 255.777059 
L 400.176136 255.066661 
L 400.704545 253.077547 
L 401.232955 253.645865 
L 401.761364 253.787945 
L 402.289773 254.569383 
L 402.818182 253.858985 
L 403.346591 253.503786 
L 403.875 252.509228 
L 404.403409 254.924582 
L 404.931818 254.498343 
L 405.460227 254.498343 
L 405.988636 254.924582 
L 406.517045 252.580268 
L 407.045455 251.230512 
L 407.573864 250.306994 
L 408.102273 251.443631 
L 408.630682 248.602039 
L 409.159091 248.31788 
L 409.6875 249.241397 
L 410.215909 248.957238 
L 410.744318 248.24684 
L 411.272727 247.181243 
L 411.801136 247.678521 
L 412.329545 242.705735 
L 412.857955 242.208456 
L 413.386364 242.279496 
L 413.914773 242.208456 
L 414.443182 239.793103 
L 414.971591 239.579983 
L 415.5 239.793103 
L 416.028409 242.776775 
L 416.556818 241.142859 
L 417.085227 243.416133 
L 417.613636 243.487173 
L 418.142045 242.137416 
L 418.670455 240.148302 
L 419.198864 238.798545 
L 419.727273 239.651023 
L 420.255682 238.017107 
L 421.3125 233.896799 
L 422.369318 235.317595 
L 422.897727 234.394077 
L 423.426136 235.175515 
L 423.954545 237.946068 
L 424.482955 236.667351 
L 425.011364 232.902241 
L 425.539773 231.055206 
L 426.068182 232.404963 
L 426.596591 232.191843 
L 427.125 228.852972 
L 427.653409 228.781932 
L 428.181818 231.126246 
L 428.710227 237.519829 
L 429.238636 239.508943 
L 429.767045 238.514386 
L 430.295455 239.366864 
L 430.823864 238.585426 
L 431.352273 241.924297 
L 431.880682 243.274053 
L 432.409091 243.629252 
L 432.9375 242.492615 
L 433.465909 240.92974 
L 433.994318 239.864142 
L 434.522727 242.776775 
L 435.051136 241.498058 
L 436.107955 241.853257 
L 436.636364 239.153744 
L 437.164773 239.153744 
L 437.693182 238.656466 
L 438.221591 241.000779 
L 438.75 241.711177 
L 439.278409 242.918854 
L 439.806818 243.345093 
L 440.335227 242.989894 
L 440.863636 243.131974 
L 441.392045 242.705735 
L 441.920455 243.416133 
L 442.448864 243.345093 
L 442.977273 241.427018 
L 443.505682 241.782217 
L 444.5625 243.771332 
L 445.090909 241.427018 
L 445.619318 241.782217 
L 446.147727 237.377749 
L 446.676136 236.738391 
L 447.204545 235.601754 
L 447.732955 237.02255 
L 449.846591 228.355694 
L 450.903409 228.142574 
L 451.431818 231.978724 
L 451.960227 238.372307 
L 452.488636 233.25744 
L 453.017045 231.552485 
L 453.545455 227.005937 
L 454.073864 228.497773 
L 454.602273 227.858415 
L 455.130682 226.863858 
L 455.659091 224.377464 
L 456.1875 225.585141 
L 456.715909 224.732663 
L 457.244318 221.109633 
L 457.772727 221.748991 
L 458.301136 223.951225 
L 458.829545 222.17523 
L 459.357955 221.038593 
L 459.886364 220.257155 
L 460.414773 218.907399 
L 460.943182 222.956668 
L 461.471591 220.683394 
L 462 224.377464 
L 462.528409 221.606912 
L 463.056818 217.983882 
L 463.585227 217.273484 
L 464.113636 213.792533 
L 464.642045 213.366294 
L 465.170455 216.207886 
L 465.698864 216.563085 
L 466.227273 218.836359 
L 466.755682 223.667066 
L 467.284091 226.224499 
L 467.8125 232.618082 
L 468.340909 232.760162 
L 468.869318 233.754719 
L 469.397727 236.312152 
L 469.926136 232.049764 
L 470.454545 235.104475 
L 470.982955 231.339366 
L 471.511364 226.15346 
L 472.039773 223.738106 
L 472.568182 222.956668 
L 473.096591 225.585141 
L 473.625 222.31731 
L 474.153409 224.306425 
L 474.681818 222.601469 
L 475.210227 221.535872 
L 475.738636 217.344523 
L 476.267045 218.197001 
L 476.795455 211.661339 
L 477.323864 213.863573 
L 477.852273 212.797976 
L 478.380682 210.240543 
L 478.909091 212.158617 
L 479.4375 210.879901 
L 479.965909 211.590299 
L 480.494318 209.317025 
L 481.022727 210.311582 
L 481.551136 207.185831 
L 482.079545 206.972711 
L 482.607955 209.956383 
L 483.136364 206.830632 
L 483.664773 204.770477 
L 484.193182 206.901672 
L 484.721591 209.601184 
L 485.25 207.185831 
L 486.306818 205.125676 
L 486.835227 207.54103 
L 487.363636 202.639283 
L 487.892045 196.52986 
L 488.420455 196.956098 
L 488.948864 198.518974 
L 489.477273 194.540745 
L 490.005682 193.119949 
L 490.534091 196.174661 
L 491.0625 194.469705 
L 491.590909 197.453377 
L 492.119318 195.038024 
L 492.647727 190.349396 
L 493.176136 193.901387 
L 493.704545 195.322183 
L 494.232955 188.99964 
L 494.761364 186.158048 
L 495.289773 189.994197 
L 495.818182 188.573401 
L 496.346591 186.584286 
L 496.875 183.600615 
L 497.403409 186.584286 
L 497.931818 184.524132 
L 498.460227 179.835505 
L 498.988636 180.759022 
L 499.517045 177.84639 
L 500.045455 175.786236 
L 500.573864 171.950086 
L 501.102273 169.321613 
L 501.630682 174.507519 
L 502.159091 168.611215 
L 502.6875 168.398096 
L 503.215909 162.572831 
L 503.744318 164.206747 
L 504.801136 158.168363 
L 505.329545 162.92803 
L 505.857955 165.627543 
L 506.386364 162.856991 
L 506.914773 164.917145 
L 507.443182 160.796836 
L 507.971591 160.583717 
L 508.5 153.621816 
L 509.028409 150.496064 
L 509.556818 143.818322 
L 510.085227 144.954959 
L 510.613636 141.687128 
L 511.142045 155.184691 
L 511.670455 151.348542 
L 512.198864 154.687413 
L 512.727273 145.949516 
L 513.255682 142.326486 
L 513.784091 136.430182 
L 514.3125 150.069825 
L 514.840909 147.370312 
L 515.369318 146.944074 
L 515.897727 140.479451 
L 516.426136 140.621531 
L 517.482955 132.096754 
L 518.011364 136.146023 
L 518.539773 132.167794 
L 519.068182 138.064098 
L 519.596591 140.266332 
L 520.125 140.76361 
L 520.653409 143.676242 
L 521.181818 150.496064 
L 521.710227 154.119094 
L 522.238636 153.266617 
L 523.295455 148.43591 
L 523.823864 154.687413 
L 524.352273 154.971572 
L 524.880682 152.627258 
L 525.409091 152.627258 
L 525.9375 149.856706 
L 526.465909 149.856706 
L 526.994318 146.304715 
L 527.522727 139.555934 
L 528.051136 140.408411 
L 528.579545 140.621531 
L 529.636364 142.326486 
L 530.164773 146.873034 
L 530.693182 155.68197 
L 531.221591 155.966129 
L 531.75 164.490906 
L 532.278409 164.135707 
L 532.806818 160.938916 
L 533.335227 163.496349 
L 533.863636 160.725796 
L 534.392045 165.201304 
L 534.920455 168.327056 
L 535.448864 165.911702 
L 535.977273 167.545618 
L 536.505682 166.69314 
L 537.034091 159.020841 
L 537.5625 161.578274 
L 538.090909 159.731239 
L 538.619318 163.07011 
L 539.147727 161.365155 
L 539.676136 157.671085 
L 540.204545 151.9879 
L 540.732955 144.244561 
L 541.261364 140.83465 
L 541.789773 140.97673 
L 542.318182 143.107924 
L 542.846591 142.468566 
L 543.375 147.796551 
L 543.903409 145.025999 
L 544.431818 145.310158 
L 544.960227 148.15175 
L 545.488636 156.321328 
L 546.017045 154.474293 
L 546.545455 147.086153 
L 547.073864 145.665357 
L 547.602273 141.118809 
L 548.130682 144.812879 
L 548.659091 144.6708 
L 549.715909 141.189849 
L 550.244318 141.474008 
L 550.772727 146.517835 
L 551.301136 140.337371 
L 551.829545 144.74184 
L 552.357955 151.9879 
L 552.886364 149.146308 
L 553.414773 149.643586 
L 553.943182 148.009671 
L 555 162.004513 
L 555.528409 159.802279 
L 556.056818 158.168363 
L 556.585227 159.305 
L 557.113636 160.157478 
L 557.642045 164.348827 
L 558.170455 164.632986 
L 558.698864 163.425309 
L 559.227273 162.643871 
L 559.755682 155.966129 
L 560.284091 155.966129 
L 561.340909 147.512392 
L 561.869318 146.020556 
L 562.397727 145.310158 
L 562.926136 148.649029 
L 563.454545 144.315601 
L 563.982955 145.452238 
L 564.511364 140.550491 
L 565.039773 137.850978 
L 565.568182 135.790824 
L 566.096591 131.244276 
L 566.625 132.594032 
L 567.153409 127.834365 
L 567.681818 129.61036 
L 568.210227 129.184122 
L 568.738636 127.337087 
L 569.267045 122.932619 
L 570.323864 125.774211 
L 571.380682 119.735827 
L 571.909091 122.22222 
L 572.965909 113.271205 
L 573.494318 110.216493 
L 574.022727 111.992488 
L 574.551136 111.566249 
L 575.079545 108.582577 
L 576.136364 115.544479 
L 576.664773 115.402399 
L 577.193182 112.631846 
L 577.721591 117.959832 
L 578.25 104.391229 
L 578.778409 99.347402 
L 579.306818 84.997361 
L 579.835227 79.172097 
L 580.363636 89.330789 
L 580.892045 90.751586 
L 581.420455 98.850124 
L 581.948864 99.631562 
L 582.477273 94.942934 
L 583.005682 92.527581 
L 583.534091 88.194152 
L 584.0625 91.248864 
L 584.590909 87.128555 
L 585.119318 81.445371 
L 585.647727 77.325062 
L 586.176136 71.073559 
L 586.704545 87.483754 
L 587.232955 86.062958 
L 587.761364 101.052358 
L 588.289773 102.331074 
L 588.818182 112.702886 
L 589.346591 111.708329 
L 589.875 117.675673 
L 590.403409 114.194722 
L 590.931818 118.954389 
L 591.460227 115.11824 
L 591.988636 126.626689 
L 592.517045 127.195007 
L 593.045455 141.402969 
L 593.573864 147.015113 
L 594.630682 131.457395 
L 595.159091 129.96556 
L 595.6875 142.539606 
L 596.215909 140.408411 
L 596.744318 137.495779 
L 597.272727 132.167794 
L 597.801136 138.561376 
L 598.329545 138.135137 
L 598.857955 138.277217 
L 599.386364 138.135137 
L 599.914773 134.298988 
L 600.443182 125.490052 
L 600.971591 125.561091 
L 601.5 119.948947 
L 602.028409 122.719499 
L 602.556818 115.402399 
L 603.085227 113.271205 
L 603.613636 117.249434 
L 604.142045 118.883349 
L 604.670455 113.626404 
L 605.198864 117.249434 
L 605.727273 125.632131 
L 606.255682 122.43534 
L 606.784091 121.724942 
L 607.3125 122.080141 
L 607.840909 124.140295 
L 608.369318 116.681115 
L 608.897727 113.768483 
L 609.426136 109.932334 
L 609.954545 110.855851 
L 610.482955 101.407557 
L 611.011364 106.096184 
L 611.539773 97.642447 
L 612.068182 91.461984 
L 612.596591 91.959262 
L 613.125 90.396386 
L 614.181818 108.937776 
L 614.710227 104.462268 
L 615.767045 92.7407 
L 616.295455 91.461984 
L 616.823864 88.407272 
L 617.352273 80.308734 
L 617.880682 83.931764 
L 618.409091 86.133998 
L 618.9375 81.80057 
L 619.465909 82.795127 
L 619.994318 82.795127 
L 620.522727 75.833226 
L 621.051136 79.243137 
L 621.579545 76.259465 
L 622.107955 84.215923 
L 622.636364 78.674818 
L 623.164773 71.357718 
L 623.693182 78.532739 
L 624.221591 79.314176 
L 624.75 75.762186 
L 625.278409 74.41243 
L 625.806818 77.751301 
L 626.335227 75.193868 
L 626.863636 70.4342 
L 627.920455 73.062673 
L 628.448864 84.642162 
L 628.977273 80.663933 
L 629.505682 74.34139 
L 630.034091 69.865882 
L 630.5625 63.18814 
L 631.090909 64.395817 
L 631.619318 72.139156 
L 632.147727 63.543339 
L 632.676136 60.985906 
L 633.204545 63.25918 
L 633.732955 62.619822 
L 634.261364 55.8 
L 634.789773 74.19931 
L 635.318182 77.040903 
L 635.846591 91.035745 
L 636.375 80.095614 
L 636.903409 87.483754 
L 637.431818 87.128555 
L 637.960227 75.975305 
L 638.488636 75.335947 
L 639.017045 72.068116 
L 639.545455 70.292121 
L 640.073864 79.456256 
L 640.602273 72.920594 
L 641.130682 71.997076 
L 641.659091 67.876767 
L 642.715909 86.844396 
L 643.244318 100.768198 
L 643.772727 105.172667 
L 644.301136 94.800855 
L 644.829545 87.767914 
L 645.357955 96.150611 
L 645.886364 92.527581 
L 646.414773 82.795127 
L 646.943182 81.65849 
L 647.471591 81.090172 
L 648 89.25975 
L 648 89.25975 
" style="fill:none;stroke:#1f77b4;stroke-linecap:square;stroke-width:1.5;"/>
   </g>
   <g id="line2d_30">
    <path clip-path="url(#p5a487c7e9f)" d="M 90 298.471984 
L 90.528409 299.030966 
L 91.056818 298.88623 
L 91.585227 299.065903 
L 92.113636 299.500112 
L 92.642045 298.656648 
L 94.227273 298.427066 
L 94.755682 299.280512 
L 95.284091 299.889403 
L 95.8125 299.784594 
L 96.340909 298.896212 
L 96.869318 298.986048 
L 97.397727 298.28732 
L 97.926136 298.282329 
L 98.454545 296.350846 
L 98.982955 296.585419 
L 99.511364 297.089501 
L 100.039773 297.398938 
L 100.568182 297.523711 
L 101.096591 297.428883 
L 101.625 298.322257 
L 102.153409 298.696575 
L 103.738636 298.681602 
L 104.267045 298.911184 
L 104.795455 299.535048 
L 105.852273 298.66663 
L 106.380682 298.022802 
L 107.4375 296.116273 
L 107.965909 297.024619 
L 110.079545 295.187963 
L 111.664773 296.246037 
L 112.721591 294.953391 
L 113.25 295.612191 
L 113.778409 296.595401 
L 114.306818 296.086328 
L 114.835227 294.953391 
L 115.363636 293.491053 
L 115.892045 293.511017 
L 116.420455 292.797316 
L 116.948864 292.637607 
L 117.477273 293.610835 
L 118.005682 293.880344 
L 118.534091 293.935244 
L 119.0625 293.830435 
L 119.590909 294.609018 
L 120.119318 293.226535 
L 120.647727 294.079981 
L 121.704545 292.068643 
L 122.232955 292.128534 
L 122.761364 293.121726 
L 123.818182 292.437971 
L 125.931818 294.78869 
L 126.460227 295.043227 
L 126.988636 295.053209 
L 127.517045 296.106291 
L 128.045455 295.846764 
L 128.573864 295.856746 
L 129.102273 296.750119 
L 129.630682 297.044583 
L 130.159091 296.42571 
L 130.6875 296.011464 
L 131.215909 296.290955 
L 131.744318 296.385783 
L 132.272727 296.665274 
L 132.801136 297.563638 
L 133.329545 297.229247 
L 133.857955 297.089501 
L 134.386364 296.735146 
L 134.914773 296.854928 
L 135.443182 297.558647 
L 136.5 298.172529 
L 137.028409 297.473802 
L 137.556818 297.254201 
L 138.085227 295.707018 
L 139.142045 296.04141 
L 139.670455 295.008291 
L 140.727273 295.801846 
L 141.255682 295.7719 
L 141.784091 295.871719 
L 142.3125 295.322718 
L 143.369318 295.642137 
L 143.897727 296.111282 
L 144.426136 295.851755 
L 144.954545 295.766909 
L 145.482955 296.001482 
L 146.011364 295.976528 
L 146.539773 296.280973 
L 147.068182 296.056382 
L 147.596591 294.978345 
L 148.125 295.407564 
L 148.653409 295.427527 
L 149.181818 295.232882 
L 149.710227 295.761918 
L 150.238636 295.856746 
L 150.767045 295.692046 
L 151.295455 295.801846 
L 152.352273 295.247854 
L 152.880682 295.6072 
L 153.409091 295.492409 
L 153.9375 295.726982 
L 154.465909 295.647127 
L 154.994318 294.7837 
L 155.522727 295.023263 
L 156.051136 295.053209 
L 156.579545 294.194772 
L 157.107955 294.035063 
L 157.636364 293.03688 
L 158.164773 292.617643 
L 158.693182 291.674361 
L 159.221591 291.419824 
L 159.75 291.589515 
L 160.278409 291.634434 
L 160.806818 291.429806 
L 161.335227 289.81275 
L 161.863636 288.55504 
L 162.392045 289.04415 
L 162.920455 288.180722 
L 163.448864 287.701594 
L 163.977273 286.918021 
L 164.505682 287.84134 
L 165.034091 287.472012 
L 165.5625 287.516931 
L 166.090909 287.811394 
L 166.619318 287.861304 
L 167.147727 287.496967 
L 167.676136 286.733357 
L 168.204545 283.908501 
L 168.732955 284.926647 
L 169.261364 286.239257 
L 169.789773 285.92982 
L 170.318182 285.480638 
L 170.846591 286.089529 
L 171.375 287.462031 
L 171.903409 286.992885 
L 172.431818 285.610402 
L 172.960227 286.379002 
L 174.017045 285.510584 
L 174.545455 286.169384 
L 175.073864 289.408486 
L 175.602273 290.376724 
L 176.130682 289.762841 
L 176.659091 290.940697 
L 177.1875 291.409842 
L 178.244318 290.207033 
L 178.772727 290.092242 
L 179.301136 290.376724 
L 179.829545 290.945688 
L 180.357955 290.251951 
L 180.886364 288.22564 
L 181.414773 289.029177 
L 181.943182 288.475186 
L 182.471591 288.579995 
L 183 289.628087 
L 183.528409 289.453405 
L 184.056818 288.639886 
L 184.585227 288.260577 
L 185.113636 287.252412 
L 185.642045 287.147603 
L 186.170455 287.377185 
L 186.698864 288.984259 
L 187.755682 287.73154 
L 188.8125 287.626731 
L 189.340909 287.611758 
L 189.869318 286.883085 
L 190.397727 286.908039 
L 190.926136 286.339075 
L 191.454545 284.347701 
L 191.982955 284.557319 
L 192.511364 284.896701 
L 193.568182 283.863582 
L 194.096591 284.607228 
L 194.625 285.131274 
L 195.153409 285.176192 
L 195.681818 283.693891 
L 196.210227 283.663946 
L 196.738636 283.149882 
L 197.267045 284.247883 
L 197.795455 284.008319 
L 198.323864 286.518748 
L 198.852273 286.538712 
L 199.380682 286.244248 
L 199.909091 287.357221 
L 200.4375 287.227458 
L 200.965909 288.325458 
L 201.494318 291.060479 
L 202.022727 292.083616 
L 202.551136 291.080442 
L 203.079545 293.196589 
L 203.607955 290.775997 
L 204.136364 290.222005 
L 205.193182 288.375368 
L 205.721591 288.33544 
L 206.25 287.102685 
L 206.778409 287.936167 
L 207.306818 288.240613 
L 207.835227 287.162576 
L 208.363636 287.546876 
L 208.892045 286.678457 
L 209.420455 284.89171 
L 209.948864 285.570475 
L 210.477273 283.159864 
L 211.005682 282.261499 
L 211.534091 281.767399 
L 212.0625 283.119936 
L 212.590909 283.264673 
L 213.119318 282.186636 
L 213.647727 282.4811 
L 214.176136 279.80597 
L 214.704545 277.83456 
L 215.232955 278.468406 
L 215.761364 279.396715 
L 216.289773 280.609507 
L 216.818182 278.213869 
L 217.346591 277.789642 
L 217.875 279.661234 
L 218.403409 280.774207 
L 218.931818 279.266952 
L 219.460227 279.122215 
L 219.988636 279.241997 
L 220.517045 279.072306 
L 221.045455 278.094087 
L 221.573864 278.543269 
L 222.102273 277.844542 
L 222.630682 280.205243 
L 223.159091 279.676207 
L 223.6875 281.897163 
L 224.215909 281.562772 
L 224.744318 280.759235 
L 225.272727 280.739271 
L 225.801136 281.108599 
L 226.329545 280.015589 
L 226.857955 278.049169 
L 227.386364 279.746079 
L 227.914773 278.034196 
L 228.443182 277.580023 
L 228.971591 277.380387 
L 229.5 276.332295 
L 230.028409 273.996548 
L 230.556818 274.131303 
L 231.085227 273.881757 
L 231.613636 270.982037 
L 232.142045 273.113156 
L 232.670455 272.269692 
L 233.198864 269.684399 
L 233.727273 268.591389 
L 234.255682 269.809172 
L 234.784091 268.81598 
L 235.3125 269.130408 
L 235.840909 266.869524 
L 236.369318 267.029234 
L 236.897727 266.799652 
L 237.426136 265.09775 
L 237.954545 268.127234 
L 238.482955 268.696199 
L 239.011364 265.536951 
L 239.539773 269.389935 
L 240.068182 269.215253 
L 240.596591 265.886315 
L 241.125 264.913087 
L 241.653409 266.605006 
L 242.181818 267.248834 
L 242.710227 269.90899 
L 243.238636 268.227053 
L 243.767045 270.063709 
L 244.295455 271.071873 
L 244.823864 272.399456 
L 245.352273 274.310975 
L 245.880682 271.536028 
L 246.409091 272.189837 
L 246.9375 271.401273 
L 247.465909 270.952091 
L 247.994318 271.60091 
L 248.522727 274.505621 
L 249.051136 275.967958 
L 249.579545 272.773774 
L 250.107955 272.773774 
L 250.636364 273.138111 
L 251.164773 274.700267 
L 251.693182 278.178933 
L 252.221591 277.195723 
L 252.75 274.056439 
L 253.278409 273.472502 
L 253.806818 273.657166 
L 254.863636 269.809172 
L 255.392045 269.055544 
L 255.920455 270.867246 
L 256.448864 270.717518 
L 256.977273 272.459347 
L 257.505682 272.109983 
L 258.034091 276.057795 
L 258.5625 275.094549 
L 259.090909 273.79192 
L 260.147727 275.778304 
L 260.676136 278.393542 
L 261.204545 278.158969 
L 261.732955 279.681198 
L 262.261364 279.58637 
L 263.318182 285.98472 
L 263.846591 284.063219 
L 264.375 285.944793 
L 264.903409 282.7556 
L 265.431818 280.674389 
L 265.960227 280.374934 
L 266.488636 280.464771 
L 267.017045 283.833637 
L 267.545455 284.138083 
L 268.073864 286.848148 
L 268.602273 288.44524 
L 269.130682 284.931638 
L 269.659091 285.49062 
L 270.1875 284.831819 
L 270.715909 284.667119 
L 271.244318 281.408053 
L 271.772727 281.632644 
L 272.301136 282.096799 
L 272.829545 283.214764 
L 273.357955 285.176192 
L 273.886364 284.986538 
L 274.414773 285.864938 
L 274.943182 287.017839 
L 275.471591 285.480638 
L 276 287.027821 
L 276.528409 286.568657 
L 277.056818 288.919377 
L 277.585227 290.396687 
L 278.113636 290.915742 
L 278.642045 292.832253 
L 279.170455 291.150315 
L 279.698864 289.842696 
L 280.227273 290.162114 
L 280.755682 288.315477 
L 281.284091 288.235622 
L 281.8125 286.763303 
L 282.340909 286.194339 
L 282.869318 285.266029 
L 283.397727 289.143968 
L 283.926136 289.183895 
L 284.454545 290.127178 
L 284.982955 292.902125 
L 285.511364 291.829079 
L 286.039773 292.298225 
L 286.568182 293.665735 
L 287.096591 294.384427 
L 287.625 297.294129 
L 288.153409 296.226073 
L 288.681818 292.492871 
L 289.210227 294.464281 
L 290.267045 296.929792 
L 290.795455 297.583602 
L 291.323864 299.480148 
L 291.852273 298.292311 
L 292.380682 296.086328 
L 292.909091 295.347673 
L 293.4375 291.479715 
L 293.965909 292.298225 
L 294.494318 292.063652 
L 295.022727 292.477898 
L 295.551136 292.368098 
L 296.079545 292.947044 
L 297.136364 291.220188 
L 297.664773 291.993779 
L 298.193182 291.764197 
L 298.721591 292.986971 
L 299.25 292.143507 
L 299.778409 293.206571 
L 300.306818 292.008752 
L 300.835227 293.63579 
L 301.363636 293.890326 
L 301.892045 293.710653 
L 302.420455 293.376262 
L 302.948864 293.785517 
L 303.477273 292.797316 
L 304.005682 290.376724 
L 304.534091 289.673005 
L 305.590909 295.846764 
L 306.119318 297.014638 
L 306.647727 296.226073 
L 307.176136 297.039592 
L 307.704545 296.275982 
L 308.232955 298.382148 
L 308.761364 299.604921 
L 309.289773 300.243758 
L 309.818182 302.479687 
L 310.346591 303.328142 
L 310.875 304.860352 
L 311.403409 303.228324 
L 311.931818 303.457906 
L 312.460227 304.031861 
L 312.988636 303.537761 
L 313.517045 303.542751 
L 314.045455 306.023235 
L 314.573864 307.8 
L 315.102273 305.868517 
L 316.159091 305.464253 
L 316.6875 304.595834 
L 317.744318 305.069971 
L 318.272727 306.482399 
L 318.801136 304.52097 
L 319.329545 303.502824 
L 319.857955 303.757361 
L 320.386364 301.890759 
L 320.914773 301.636223 
L 321.443182 302.998742 
L 321.971591 302.903915 
L 322.5 302.534587 
L 323.028409 302.634405 
L 323.556818 303.852188 
L 324.085227 303.253278 
L 324.613636 303.75237 
L 325.142045 303.597651 
L 325.670455 301.366713 
L 326.198864 299.849476 
L 326.727273 297.913002 
L 327.255682 296.884874 
L 327.784091 296.705201 
L 328.3125 297.898029 
L 328.840909 295.063191 
L 329.897727 296.944765 
L 330.426136 297.209283 
L 330.954545 296.345855 
L 331.482955 293.880344 
L 332.011364 293.056844 
L 332.539773 293.565917 
L 333.068182 291.784161 
L 333.596591 291.364924 
L 334.125 290.541424 
L 334.653409 290.017378 
L 335.181818 290.172096 
L 335.710227 290.980624 
L 336.238636 292.293234 
L 336.767045 290.007396 
L 337.295455 289.942514 
L 337.823864 290.19206 
L 338.352273 290.711115 
L 338.880682 289.563205 
L 339.409091 286.114484 
L 339.9375 287.317294 
L 340.465909 287.581812 
L 340.994318 287.576822 
L 341.522727 286.578639 
L 342.051136 288.475186 
L 342.579545 289.64805 
L 343.107955 287.107676 
L 343.636364 286.723375 
L 344.693182 282.9203 
L 345.221591 283.634 
L 346.278409 283.114945 
L 346.806818 284.023292 
L 347.335227 282.476109 
L 347.863636 281.27829 
L 348.392045 283.868573 
L 348.920455 284.262855 
L 349.448864 285.295974 
L 349.977273 283.778737 
L 350.505682 283.828646 
L 351.034091 284.352692 
L 351.5625 283.978373 
L 352.090909 285.181183 
L 352.619318 285.171202 
L 353.147727 284.851783 
L 353.676136 285.560493 
L 354.204545 287.147603 
L 354.732955 285.450693 
L 355.261364 285.360856 
L 355.789773 289.822732 
L 356.318182 288.300504 
L 356.846591 289.31865 
L 357.375 291.624452 
L 357.903409 289.503314 
L 358.431818 289.762841 
L 358.960227 290.516469 
L 359.488636 288.340431 
L 360.017045 287.881267 
L 360.545455 289.957487 
L 361.073864 291.44977 
L 361.602273 290.222005 
L 362.130682 290.436615 
L 362.659091 292.308207 
L 363.1875 292.37808 
L 363.715909 291.574543 
L 364.244318 290.476542 
L 365.301136 291.619461 
L 365.829545 291.310024 
L 366.357955 291.255124 
L 366.886364 292.562743 
L 367.414773 295.432518 
L 367.943182 296.221082 
L 368.471591 295.522355 
L 369 293.371271 
L 369.528409 293.630799 
L 370.056818 293.296408 
L 370.585227 293.331344 
L 371.113636 293.026898 
L 371.642045 292.587698 
L 372.170455 291.419824 
L 372.698864 289.957487 
L 373.755682 289.338614 
L 374.284091 289.448414 
L 375.340909 287.961122 
L 375.869318 288.260577 
L 376.397727 288.265567 
L 376.926136 285.760129 
L 377.454545 284.667119 
L 378.511364 287.631722 
L 379.039773 286.209311 
L 379.568182 287.826367 
L 380.096591 288.055949 
L 380.625 287.62174 
L 381.153409 287.851322 
L 382.210227 287.192521 
L 382.738636 287.861304 
L 383.267045 287.796422 
L 383.795455 288.739704 
L 384.323864 288.809577 
L 384.852273 289.223823 
L 386.965909 287.197512 
L 387.494318 287.796422 
L 388.022727 287.332267 
L 388.551136 287.84134 
L 389.607955 289.26375 
L 390.136364 291.030533 
L 390.664773 291.275088 
L 391.193182 290.676178 
L 391.721591 289.348596 
L 392.25 289.388523 
L 392.778409 288.520104 
L 393.306818 288.684804 
L 393.835227 287.357221 
L 394.363636 287.122648 
L 394.892045 286.523739 
L 395.420455 284.722019 
L 395.948864 285.141256 
L 396.477273 285.770111 
L 397.005682 284.856774 
L 397.534091 282.121754 
L 398.590909 281.06368 
L 399.119318 281.777381 
L 399.647727 281.922117 
L 400.704545 280.629471 
L 401.232955 281.44299 
L 401.761364 281.482917 
L 402.289773 281.018762 
L 402.818182 280.070489 
L 403.346591 279.91078 
L 403.875 278.887642 
L 404.403409 280.769216 
L 404.931818 280.529653 
L 405.460227 280.110416 
L 405.988636 281.178471 
L 406.517045 280.519671 
L 407.045455 280.140361 
L 407.573864 279.157152 
L 408.102273 280.564589 
L 408.630682 279.626297 
L 409.159091 280.275116 
L 409.6875 281.532826 
L 410.215909 281.557781 
L 410.744318 281.847254 
L 411.272727 281.752426 
L 411.801136 282.396254 
L 412.329545 279.601343 
L 412.857955 279.346806 
L 413.386364 278.453433 
L 414.443182 277.335469 
L 415.5 277.994269 
L 416.028409 279.087279 
L 416.556818 277.879478 
L 417.085227 279.286915 
L 417.613636 279.671216 
L 418.670455 275.97794 
L 419.198864 275.48384 
L 419.727273 276.037831 
L 420.255682 275.119503 
L 420.784091 273.562338 
L 421.3125 273.222956 
L 422.369318 273.477493 
L 422.897727 272.928493 
L 423.426136 272.733847 
L 423.954545 274.735203 
L 424.482955 274.091375 
L 425.539773 271.431219 
L 426.068182 272.429401 
L 426.596591 271.720692 
L 427.125 269.68939 
L 427.653409 270.098645 
L 428.181818 271.940292 
L 428.710227 274.874949 
L 429.238636 275.468867 
L 429.767045 274.475676 
L 430.295455 275.059612 
L 430.823864 275.059612 
L 431.352273 277.659878 
L 431.880682 279.197079 
L 432.409091 279.237006 
L 432.9375 278.692997 
L 433.994318 277.110877 
L 434.522727 279.112233 
L 435.051136 278.233833 
L 435.579545 278.303706 
L 436.107955 278.508333 
L 436.636364 277.150805 
L 437.164773 276.791459 
L 437.693182 276.027849 
L 438.221591 277.270587 
L 438.75 277.150805 
L 439.278409 277.709787 
L 439.806818 278.049169 
L 440.863636 278.178933 
L 441.392045 277.300532 
L 441.920455 277.879478 
L 442.448864 277.56006 
L 442.977273 275.458885 
L 443.505682 275.478849 
L 444.034091 275.778304 
L 444.5625 276.801441 
L 445.090909 275.503804 
L 445.619318 276.422131 
L 446.147727 274.031484 
L 447.204545 272.888565 
L 447.732955 273.831848 
L 448.261364 273.522411 
L 448.789773 273.367693 
L 449.318182 271.87541 
L 449.846591 271.196646 
L 450.375 270.223418 
L 450.903409 271.181673 
L 451.431818 273.607257 
L 451.960227 278.124033 
L 453.545455 269.529681 
L 454.602273 271.680764 
L 455.130682 271.301455 
L 455.659091 269.79919 
L 456.1875 270.772418 
L 456.715909 270.597736 
L 457.244318 269.150372 
L 457.772727 269.764254 
L 458.301136 271.346373 
L 458.829545 270.103636 
L 459.357955 269.759263 
L 459.886364 270.148554 
L 460.414773 269.444835 
L 460.943182 272.304628 
L 461.471591 271.580946 
L 462 274.630394 
L 462.528409 272.574138 
L 463.056818 270.053727 
L 463.585227 269.809172 
L 464.113636 267.039215 
L 464.642045 266.909452 
L 465.170455 269.584581 
L 465.698864 268.925781 
L 466.227273 270.198463 
L 466.755682 273.51742 
L 467.284091 275.289194 
L 467.8125 278.343633 
L 468.340909 278.473397 
L 468.869318 279.232015 
L 469.397727 280.574571 
L 469.926136 278.568224 
L 470.454545 279.850889 
L 471.511364 273.771957 
L 472.039773 272.100001 
L 472.568182 272.334574 
L 473.096591 273.382666 
L 473.625 272.055083 
L 474.153409 273.51742 
L 474.681818 272.114974 
L 475.210227 271.131764 
L 475.738636 268.571426 
L 476.267045 268.990662 
L 476.795455 266.360451 
L 477.323864 267.453461 
L 477.852273 267.034225 
L 478.380682 265.117714 
L 478.909091 266.011087 
L 479.4375 265.591851 
L 479.965909 266.330506 
L 480.494318 265.511996 
L 481.022727 266.550106 
L 481.551136 264.448932 
L 482.079545 264.463905 
L 482.607955 266.051015 
L 483.136364 263.94984 
L 483.664773 263.685322 
L 484.193182 265.047841 
L 484.721591 265.591851 
L 485.25 263.355922 
L 485.778409 263.335958 
L 486.306818 262.477521 
L 486.835227 264.174432 
L 487.892045 261.249757 
L 488.420455 261.364548 
L 488.948864 262.52743 
L 489.477273 260.561011 
L 490.005682 259.787419 
L 490.534091 261.055111 
L 491.0625 259.967092 
L 491.590909 263.086413 
L 492.119318 261.574166 
L 492.647727 259.657656 
L 493.176136 261.783784 
L 493.704545 263.350931 
L 494.761364 259.972083 
L 495.289773 260.975256 
L 495.818182 260.316456 
L 496.875 258.439873 
L 497.403409 259.942138 
L 498.460227 255.794689 
L 498.988636 256.463471 
L 499.517045 255.310571 
L 500.045455 255.36048 
L 501.102273 249.78563 
L 501.630682 251.242977 
L 502.159091 247.200337 
L 502.6875 246.426746 
L 503.215909 243.961235 
L 503.744318 245.368672 
L 504.272727 244.75479 
L 504.801136 243.55198 
L 505.329545 245.02929 
L 505.857955 245.802882 
L 506.386364 243.956244 
L 506.914773 243.437189 
L 507.443182 239.843732 
L 507.971591 239.629123 
L 508.5 235.476683 
L 509.028409 233.849646 
L 509.556818 228.649115 
L 510.085227 227.960369 
L 510.613636 225.200394 
L 511.142045 234.688119 
L 511.670455 233.031136 
L 512.198864 233.370518 
L 512.727273 227.990314 
L 513.255682 226.842404 
L 513.784091 223.31882 
L 514.3125 231.389126 
L 514.840909 228.254832 
L 515.369318 228.469442 
L 515.897727 222.77481 
L 516.426136 222.091055 
L 516.954545 219.98489 
L 517.482955 216.630997 
L 518.011364 217.324734 
L 518.539773 215.238532 
L 519.068182 219.565653 
L 519.596591 221.567009 
L 520.125 222.440419 
L 520.653409 223.792956 
L 521.181818 228.394578 
L 521.710227 231.054735 
L 522.238636 229.876879 
L 523.295455 225.909103 
L 523.823864 230.575607 
L 524.352273 231.648653 
L 524.880682 230.450834 
L 526.465909 228.718987 
L 526.994318 227.680877 
L 527.522727 223.204029 
L 528.051136 224.511648 
L 528.579545 224.990776 
L 529.107955 224.267093 
L 529.636364 225.065639 
L 530.164773 227.341495 
L 530.693182 232.092844 
L 531.221591 231.439035 
L 531.75 237.937203 
L 532.278409 237.368239 
L 532.806818 235.017519 
L 533.335227 236.82423 
L 533.863636 235.272056 
L 534.920455 240.397723 
L 535.448864 238.416331 
L 535.977273 239.204895 
L 536.505682 239.234841 
L 537.034091 235.346919 
L 537.5625 237.517967 
L 538.090909 237.178584 
L 538.619318 238.775677 
L 539.147727 237.20853 
L 539.676136 236.265247 
L 540.732955 227.615996 
L 541.261364 226.498031 
L 542.318182 228.010278 
L 542.846591 227.64095 
L 543.375 231.114625 
L 543.903409 229.901834 
L 544.431818 229.996661 
L 544.960227 232.257544 
L 545.488636 236.904084 
L 546.017045 235.985756 
L 546.545455 232.317435 
L 547.073864 230.775243 
L 547.602273 228.179969 
L 548.130682 230.580598 
L 548.659091 232.007999 
L 549.1875 230.635498 
L 549.715909 229.797024 
L 550.244318 229.677243 
L 550.772727 233.510264 
L 551.301136 230.835134 
L 551.829545 232.23259 
L 552.357955 235.596465 
L 552.886364 234.004364 
L 553.414773 235.012528 
L 553.943182 233.664982 
L 554.471591 237.26343 
L 555 239.219868 
L 555.528409 238.526131 
L 556.056818 238.056985 
L 556.585227 238.171776 
L 557.113636 239.254804 
L 557.642045 242.059697 
L 558.170455 242.648625 
L 558.698864 241.575579 
L 559.227273 241.101442 
L 559.755682 237.058803 
L 560.284091 237.59283 
L 560.8125 234.054273 
L 561.340909 232.292481 
L 561.869318 234.543383 
L 562.397727 234.777955 
L 562.926136 236.295193 
L 563.454545 235.167247 
L 563.982955 235.865974 
L 564.511364 234.14411 
L 565.039773 230.715352 
L 565.568182 229.49757 
L 566.096591 224.945857 
L 566.625 224.880975 
L 567.153409 223.174083 
L 567.681818 224.03252 
L 568.210227 224.336966 
L 568.738636 223.498493 
L 569.267045 219.860117 
L 570.323864 223.912738 
L 570.852273 221.272545 
L 571.380682 219.905035 
L 571.909091 219.790244 
L 572.965909 213.721294 
L 573.494318 211.660048 
L 574.022727 211.914584 
L 574.551136 215.003959 
L 575.079545 212.029375 
L 576.136364 217.46947 
L 576.664773 217.833807 
L 577.193182 217.549325 
L 577.721591 220.434072 
L 578.25 215.143705 
L 578.778409 211.924566 
L 579.306818 204.857433 
L 579.835227 204.113787 
L 580.363636 209.129655 
L 580.892045 209.993083 
L 581.420455 214.619659 
L 581.948864 215.428187 
L 583.005682 208.735373 
L 583.534091 207.317953 
L 584.0625 209.274391 
L 585.119318 200.784849 
L 585.647727 197.226328 
L 586.176136 192.569806 
L 586.704545 200.096103 
L 587.232955 200.285757 
L 587.761364 208.954973 
L 588.289773 209.668673 
L 588.818182 216.675915 
L 589.346591 216.491251 
L 589.875 218.856944 
L 590.403409 216.880542 
L 590.931818 220.334254 
L 591.460227 217.24987 
L 591.988636 223.378711 
L 592.517045 223.268911 
L 593.045455 232.512081 
L 593.573864 236.55472 
L 594.630682 229.352833 
L 595.159091 229.00846 
L 595.6875 234.872783 
L 596.215909 233.585127 
L 596.744318 232.921336 
L 597.272727 229.841943 
L 597.801136 233.395473 
L 598.329545 232.482136 
L 598.857955 232.651827 
L 599.386364 233.260718 
L 599.914773 231.788399 
L 600.443182 226.483058 
L 600.971591 226.977159 
L 601.5 224.546584 
L 602.028409 226.073804 
L 602.556818 222.724901 
L 603.085227 221.821546 
L 603.613636 224.341957 
L 604.142045 224.761194 
L 604.670455 222.255755 
L 605.198864 224.950848 
L 605.727273 229.233051 
L 606.255682 227.521168 
L 606.784091 227.810641 
L 607.840909 229.77207 
L 608.369318 225.295221 
L 608.897727 224.910921 
L 609.426136 221.761655 
L 609.954545 221.876446 
L 610.482955 218.442698 
L 611.011364 219.226271 
L 612.068182 212.293893 
L 612.596591 212.558412 
L 613.125 210.357419 
L 613.653409 216.855588 
L 614.181818 221.1328 
L 615.767045 212.578375 
L 616.295455 211.665038 
L 617.352273 204.153715 
L 617.880682 206.085198 
L 618.9375 207.173217 
L 619.465909 209.479019 
L 619.994318 210.317492 
L 620.522727 205.481298 
L 621.051136 205.581116 
L 621.579545 204.597906 
L 622.107955 207.557517 
L 623.164773 202.646459 
L 623.693182 205.695907 
L 624.221591 207.727208 
L 624.75 206.788917 
L 625.278409 206.140098 
L 625.806818 208.580654 
L 626.335227 208.306154 
L 626.863636 205.376488 
L 627.392045 206.090189 
L 627.920455 209.3243 
L 628.448864 214.08064 
L 628.977273 213.426831 
L 629.505682 212.039357 
L 630.034091 211.076111 
L 630.5625 207.278026 
L 631.090909 207.173217 
L 631.619318 209.858328 
L 632.676136 202.631486 
L 633.204545 204.228578 
L 633.732955 204.028942 
L 634.261364 200.894649 
L 634.789773 208.101527 
L 635.318182 209.698619 
L 635.846591 215.60786 
L 636.375 211.714948 
L 636.903409 214.829277 
L 637.431818 214.988986 
L 637.960227 211.215856 
L 638.488636 210.856511 
L 639.545455 208.600618 
L 640.073864 209.798437 
L 640.602273 206.165053 
L 641.130682 204.94727 
L 641.659091 202.990832 
L 642.715909 213.771204 
L 643.244318 222.275719 
L 643.772727 227.985323 
L 644.829545 220.359208 
L 645.357955 221.916373 
L 645.886364 220.059754 
L 646.414773 214.390077 
L 646.943182 215.248514 
L 647.471591 215.82746 
L 648 221.537064 
L 648 221.537064 
" style="fill:none;stroke:#ff7f0e;stroke-linecap:square;stroke-width:1.5;"/>
   </g>
   <g id="patch_3">
    <path d="M 90 320.4 
L 90 43.2 
" style="fill:none;stroke:#000000;stroke-linecap:square;stroke-linejoin:miter;stroke-width:0.8;"/>
   </g>
   <g id="patch_4">
    <path d="M 648 320.4 
L 648 43.2 
" style="fill:none;stroke:#000000;stroke-linecap:square;stroke-linejoin:miter;stroke-width:0.8;"/>
   </g>
   <g id="patch_5">
    <path d="M 90 320.4 
L 648 320.4 
" style="fill:none;stroke:#000000;stroke-linecap:square;stroke-linejoin:miter;stroke-width:0.8;"/>
   </g>
   <g id="patch_6">
    <path d="M 90 43.2 
L 648 43.2 
" style="fill:none;stroke:#000000;stroke-linecap:square;stroke-linejoin:miter;stroke-width:0.8;"/>
   </g>
   <g id="text_15">
    <!--  -->
    <defs>
     <path d="M 98.734375 10.890625 
Q 95.515625 6.890625 93.453125 3.859375 
Q 84.46875 8.109375 76.953125 14.015625 
L 76.953125 8.640625 
L 53.609375 8.640625 
L 53.609375 -1.515625 
L 91.796875 -1.515625 
L 91.796875 -7.859375 
L 8.109375 -7.859375 
L 8.109375 -1.515625 
L 46.296875 -1.515625 
L 46.296875 8.640625 
L 22.65625 8.640625 
L 22.65625 13.96875 
Q 14.890625 7.46875 6.453125 2.6875 
Q 4.59375 5.328125 1.375 8.84375 
Q 16.40625 16.15625 27.390625 27.390625 
L 2.4375 27.390625 
L 2.4375 33.734375 
L 21.875 33.734375 
L 21.875 66.453125 
L 5.46875 66.453125 
L 5.46875 72.796875 
L 21.875 72.796875 
L 21.875 83.34375 
L 29.203125 83.34375 
L 29.203125 72.796875 
L 71.09375 72.796875 
L 71.09375 83.34375 
L 78.421875 83.34375 
L 78.421875 72.796875 
L 94.828125 72.796875 
L 94.828125 66.453125 
L 78.421875 66.453125 
L 78.421875 33.734375 
L 97.5625 33.734375 
L 97.5625 27.390625 
L 71.875 27.390625 
Q 82.859375 16.453125 98.734375 10.890625 
z
M 46.296875 24.265625 
L 53.609375 24.265625 
L 53.609375 14.796875 
L 75.984375 14.796875 
Q 69 20.40625 63.234375 27.390625 
L 36.328125 27.390625 
Q 30.21875 20.453125 23.640625 14.796875 
L 46.296875 14.796875 
z
M 29.203125 33.734375 
L 71.09375 33.734375 
L 71.09375 40.671875 
L 29.203125 40.671875 
z
M 29.203125 46.734375 
L 71.09375 46.734375 
L 71.09375 53.5625 
L 29.203125 53.5625 
z
M 29.203125 59.625 
L 71.09375 59.625 
L 71.09375 66.453125 
L 29.203125 66.453125 
z
" id="MicrosoftYaHei-57fa"/>
     <path d="M 4.6875 -2.203125 
L 46.09375 -2.203125 
L 46.09375 21.625 
L 11.140625 21.625 
L 11.140625 28.765625 
L 46.09375 28.765625 
L 46.09375 42.4375 
L 20.703125 42.4375 
L 20.703125 49.265625 
Q 13.765625 44.875 5.671875 40.484375 
Q 3.609375 44.1875 0.78125 47.796875 
Q 33.296875 63.03125 46.78125 82.765625 
L 57.421875 82.765625 
L 55.171875 80.03125 
Q 70.703125 60.203125 99.125 49.171875 
Q 96.484375 45.453125 93.953125 41.359375 
Q 86.328125 44.578125 79.203125 49.078125 
L 79.203125 42.4375 
L 53.90625 42.4375 
L 53.90625 28.765625 
L 88.671875 28.765625 
L 88.671875 21.625 
L 53.90625 21.625 
L 53.90625 -2.203125 
L 95.515625 -2.203125 
L 95.515625 -9.421875 
L 4.6875 -9.421875 
z
M 50.09375 74.46875 
Q 40.046875 61.765625 21.09375 49.5625 
L 78.421875 49.5625 
Q 63.1875 59.234375 50.09375 74.46875 
z
M 63.96875 4.4375 
Q 71.875 12.640625 77.34375 20.453125 
L 84.1875 16.0625 
Q 77.34375 7.5625 69.828125 -0.25 
z
M 15.625 15.671875 
L 21.390625 20.265625 
Q 28.515625 13.03125 35.359375 5.21875 
L 28.71875 -0.046875 
Q 22.859375 7.671875 15.625 15.671875 
z
" id="MicrosoftYaHei-91d1"/>
     <path d="M 71.09375 31.109375 
Q 84.765625 19.96875 92.875 12.0625 
L 87.5 6.59375 
Q 83.6875 10.546875 79.640625 14.40625 
Q 67.71875 13.921875 55.5625 13.375 
L 55.5625 0.34375 
Q 55.5625 -11.765625 43.359375 -11.765625 
Q 37.109375 -11.765625 29.390625 -11.671875 
Q 28.8125 -7.765625 27.9375 -3.5625 
Q 35.453125 -4.25 41.40625 -4.25 
Q 47.953125 -4.25 47.953125 2.875 
L 47.953125 13.03125 
Q 34.859375 12.40625 21.484375 11.765625 
Q 17.1875 11.578125 13.1875 10.984375 
L 10.546875 18.40625 
Q 16.5 19.09375 23.921875 21.921875 
Q 33.9375 25.78125 45.5625 31 
Q 33.40625 30.609375 23.921875 30.03125 
Q 19.234375 29.734375 16.890625 29.4375 
L 14.359375 35.890625 
Q 19.234375 36.859375 24.21875 39.109375 
Q 30.765625 42.046875 37.15625 45.453125 
L 18.84375 45.453125 
L 18.84375 42.625 
L 11.421875 42.625 
L 11.421875 79.734375 
L 88.671875 79.734375 
L 88.671875 42.625 
L 81.25 42.625 
L 81.25 45.453125 
L 48.828125 45.453125 
Q 38.03125 39.984375 27.546875 35.5 
Q 40.328125 35.84375 57.328125 36.46875 
Q 64.0625 39.65625 71.296875 43.3125 
L 76.375 38.03125 
Q 53.03125 27 28.515625 17.921875 
Q 53.171875 19 73.1875 20.265625 
Q 69.625 23.4375 65.921875 26.515625 
z
M 53.609375 51.125 
L 81.25 51.125 
L 81.25 60.015625 
L 53.609375 60.015625 
z
M 18.84375 51.125 
L 46.390625 51.125 
L 46.390625 60.015625 
L 18.84375 60.015625 
z
M 81.25 74.078125 
L 53.609375 74.078125 
L 53.609375 65.28125 
L 81.25 65.28125 
z
M 18.84375 65.28125 
L 46.390625 65.28125 
L 46.390625 74.078125 
L 18.84375 74.078125 
z
M 29.59375 8.9375 
L 33.984375 2.875 
Q 19.734375 -4.25 5.953125 -9.625 
Q 4.5 -6.59375 2.546875 -3.078125 
Q 17.09375 2.59375 29.59375 8.9375 
z
M 69.234375 8.546875 
Q 83.796875 3.65625 97.171875 -2.296875 
L 94.140625 -8.9375 
Q 81.0625 -2.984375 65.921875 2.09375 
z
" id="MicrosoftYaHei-7d2f"/>
     <path d="M 43.953125 74.75 
L 93.359375 74.75 
L 93.359375 23.875 
L 85.9375 23.875 
L 85.9375 28.5625 
L 51.375 28.5625 
L 51.375 23.875 
L 43.953125 23.875 
z
M 1.375 13.328125 
Q 10.453125 27 16.5 46.046875 
L 1.859375 46.046875 
L 1.859375 52.875 
L 17.484375 52.875 
L 17.484375 68.40625 
Q 11.140625 67.921875 3.8125 67.4375 
Q 3.328125 70.953125 2.34375 74.5625 
Q 22.265625 75.640625 37.109375 77.78125 
L 38.875 70.359375 
Q 32.90625 69.671875 24.703125 69 
L 24.703125 52.875 
L 39.265625 52.875 
L 39.265625 46.046875 
L 24.703125 46.046875 
L 24.703125 32.28125 
L 28.609375 35.890625 
Q 34.578125 30.03125 41.3125 22.515625 
L 35.75 17.625 
Q 30.46875 24.078125 24.703125 30.21875 
L 24.703125 -13.328125 
L 17.484375 -13.328125 
L 17.484375 30.125 
Q 12.203125 15.578125 4.78125 4.9375 
Q 3.21875 9.234375 1.375 13.328125 
z
M 85.9375 68.109375 
L 51.375 68.109375 
L 51.375 35.203125 
L 85.9375 35.203125 
z
M 54.296875 17.625 
L 60.75 13.03125 
Q 49.609375 -1.03125 39.359375 -11.859375 
Q 37.015625 -9.328125 33.796875 -6.5 
Q 45.703125 5.515625 54.296875 17.625 
z
M 74.609375 12.9375 
L 80.671875 17.140625 
Q 89.65625 6.890625 99.3125 -5.8125 
L 92.484375 -10.984375 
Q 83.890625 1.703125 74.609375 12.9375 
z
" id="MicrosoftYaHei-79ef"/>
     <path d="M 31.453125 19.96875 
L 55.859375 19.96875 
L 55.859375 30.421875 
L 26.65625 30.421875 
L 26.65625 37.453125 
L 55.859375 37.453125 
L 55.859375 47.796875 
L 33.203125 47.796875 
L 33.203125 51.515625 
Q 31.390625 49.65625 29.59375 47.90625 
Q 27.9375 49.65625 24.3125 53.375 
Q 36.71875 65.09375 47.65625 83.640625 
L 55.078125 81.6875 
Q 53.125 78.125 51.03125 74.75 
L 80.375 74.75 
L 80.375 68.21875 
L 69.046875 54.640625 
L 89.0625 54.640625 
L 89.0625 37.453125 
L 97.953125 37.453125 
L 97.953125 30.421875 
L 89.0625 30.421875 
L 89.0625 9.125 
L 81.640625 9.125 
L 81.640625 13.140625 
L 63.484375 13.140625 
L 63.484375 0.046875 
Q 63.484375 -11.96875 51.171875 -12.0625 
Q 44.734375 -12.0625 38.875 -12.0625 
Q 38.1875 -7.859375 37.3125 -3.953125 
Q 43.453125 -4.640625 49.421875 -4.640625 
Q 55.859375 -4.640625 55.859375 1.8125 
L 55.859375 13.140625 
L 31.453125 13.140625 
z
M 70.90625 68.015625 
L 46.625 68.015625 
Q 41.703125 60.890625 36.078125 54.640625 
L 60.109375 54.640625 
z
M 14.453125 36.46875 
Q 17.96875 34.71875 21.78125 33.15625 
Q 16.609375 15.484375 11.140625 -3.765625 
L 3.21875 -0.734375 
Q 9.96875 18.109375 14.453125 36.46875 
z
M 63.484375 19.96875 
L 81.640625 19.96875 
L 81.640625 30.421875 
L 63.484375 30.421875 
z
M 10.359375 76.421875 
Q 16.609375 65.671875 21.96875 54.828125 
Q 17.96875 52.6875 14.65625 51.125 
Q 9.671875 62.359375 4 73.09375 
z
M 81.640625 47.796875 
L 63.484375 47.796875 
L 63.484375 37.453125 
L 81.640625 37.453125 
z
" id="MicrosoftYaHei-51c0"/>
     <path d="M 25.296875 -3.375 
L 35.15625 -3.375 
L 35.15625 57.078125 
L 58.203125 57.078125 
L 58.203125 65.96875 
L 29.890625 65.96875 
L 29.890625 72.609375 
L 58.203125 72.609375 
L 58.203125 82.953125 
L 65.625 82.953125 
L 65.625 72.609375 
L 96.390625 72.609375 
L 96.390625 65.96875 
L 65.625 65.96875 
L 65.625 57.078125 
L 89.265625 57.078125 
L 89.265625 -3.375 
L 98.53125 -3.375 
L 98.53125 -10.015625 
L 25.296875 -10.015625 
z
M 1.078125 35.109375 
Q 14.15625 54.640625 21.390625 82.46875 
L 28.609375 80.328125 
Q 24.703125 67.71875 20.125 56.6875 
L 20.125 -12.75 
L 12.984375 -12.75 
L 12.984375 41.65625 
Q 8.796875 33.84375 4.109375 27.09375 
Q 2.734375 31.203125 1.078125 35.109375 
z
M 42.390625 -3.375 
L 82.03125 -3.375 
L 82.03125 5.515625 
L 42.390625 5.515625 
z
M 82.03125 50.640625 
L 42.390625 50.640625 
L 42.390625 41.84375 
L 82.03125 41.84375 
z
M 42.390625 26.8125 
L 82.03125 26.8125 
L 82.03125 35.59375 
L 42.390625 35.59375 
z
M 42.390625 11.765625 
L 82.03125 11.765625 
L 82.03125 20.5625 
L 42.390625 20.5625 
z
" id="MicrosoftYaHei-503c"/>
    </defs>
    <g transform="translate(333 37.2)scale(0.12 -0.12)">
     <use xlink:href="#MicrosoftYaHei-57fa"/>
     <use x="100" xlink:href="#MicrosoftYaHei-91d1"/>
     <use x="200" xlink:href="#MicrosoftYaHei-7d2f"/>
     <use x="300" xlink:href="#MicrosoftYaHei-79ef"/>
     <use x="400" xlink:href="#MicrosoftYaHei-51c0"/>
     <use x="500" xlink:href="#MicrosoftYaHei-503c"/>
    </g>
   </g>
   <g id="legend_1">
    <g id="patch_7">
     <path d="M 97 82.159375 
L 233.135938 82.159375 
Q 235.135938 82.159375 235.135938 80.159375 
L 235.135938 50.2 
Q 235.135938 48.2 233.135938 48.2 
L 97 48.2 
Q 95 48.2 95 50.2 
L 95 80.159375 
Q 95 82.159375 97 82.159375 
z
" style="fill:#ffffff;opacity:0.8;stroke:#cccccc;stroke-linejoin:miter;"/>
    </g>
    <g id="line2d_31">
     <path d="M 99 56.69375 
L 119 56.69375 
" style="fill:none;stroke:#1f77b4;stroke-linecap:square;stroke-width:1.5;"/>
    </g>
    <g id="line2d_32"/>
    <g id="text_16">
     <!-- A -->
     <defs>
      <path d="M 8.203125 62.0625 
L 45.796875 62.0625 
L 45.796875 83.34375 
L 54.203125 83.34375 
L 54.203125 62.0625 
L 92.1875 62.0625 
L 92.1875 17.53125 
L 84.1875 17.53125 
L 84.1875 22.796875 
L 54.203125 22.796875 
L 54.203125 -13.53125 
L 45.796875 -13.53125 
L 45.796875 22.796875 
L 16.21875 22.796875 
L 16.21875 17.53125 
L 8.203125 17.53125 
z
M 84.1875 54.828125 
L 54.203125 54.828125 
L 54.203125 30.03125 
L 84.1875 30.03125 
z
M 16.21875 30.03125 
L 45.796875 30.03125 
L 45.796875 54.828125 
L 16.21875 54.828125 
z
" id="MicrosoftYaHei-4e2d"/>
      <path d="M 6.25 74.859375 
L 47.46875 74.859375 
L 47.46875 67.625 
L 13.484375 67.625 
L 13.484375 4.9375 
L 45.703125 4.9375 
L 45.703125 -2.296875 
L 6.25 -2.296875 
z
M 67.28125 57.5625 
L 74.609375 57.5625 
Q 74.65625 50.78125 74.421875 45.171875 
Q 78.078125 6.109375 98.734375 -5.90625 
Q 95.609375 -9.328125 92.671875 -12.640625 
Q 76.375 -0.734375 71.390625 25.828125 
Q 66.359375 1.3125 46.390625 -13.140625 
Q 43.359375 -9.328125 41.015625 -6.78125 
Q 63.875 8.640625 66.796875 37.0625 
Q 67.28125 42.71875 67.28125 57.5625 
z
M 82.90625 42.328125 
Q 86.921875 54.828125 89.15625 62.359375 
L 61.71875 62.359375 
Q 57.8125 50.046875 53.125 39.796875 
Q 50 41.453125 46.578125 42.828125 
Q 55.28125 61.1875 59.578125 83.0625 
L 67 81.59375 
Q 65.53125 75.390625 63.875 69.578125 
L 96.78125 69.578125 
L 96.78125 61.96875 
Q 93.5625 51.703125 90.046875 40.1875 
Q 86.234375 41.546875 82.90625 42.328125 
z
M 17.1875 56.296875 
L 23.046875 59.515625 
Q 28.078125 51.46875 32.46875 44.390625 
Q 36.859375 53.609375 40.71875 62.9375 
L 47.5625 59.8125 
Q 42.140625 47.65625 36.921875 37.25 
Q 44.625 24.8125 50.203125 15.765625 
L 43.65625 11.859375 
Q 38.8125 20.21875 33.109375 29.78125 
Q 27.640625 19.4375 22.46875 11.078125 
Q 19.4375 13.03125 16.5 14.5 
Q 23.09375 25.6875 28.8125 36.96875 
Q 23.390625 46.140625 17.1875 56.296875 
z
" id="MicrosoftYaHei-6b27"/>
      <path d="M 9.078125 77.984375 
L 96 77.984375 
L 96 70.5625 
L 17.09375 70.5625 
L 17.09375 -1.609375 
L 97.078125 -1.609375 
L 97.078125 -9.03125 
L 9.078125 -9.03125 
z
M 22.359375 35.984375 
L 53.21875 35.984375 
Q 54.78125 42.625 54.890625 51.421875 
L 38.765625 51.421875 
Q 34.28125 43.703125 29.203125 37.546875 
Q 26.375 39.984375 22.859375 42.625 
Q 33.203125 54.046875 39.359375 69.578125 
L 46.6875 66.9375 
Q 44.734375 62.453125 42.578125 58.453125 
L 90.328125 58.453125 
L 90.328125 51.421875 
L 62.703125 51.421875 
Q 62.59375 42.828125 61.328125 35.984375 
L 94.828125 35.984375 
L 94.828125 28.953125 
L 59.671875 28.953125 
Q 59.078125 27 58.5 25.34375 
Q 74.515625 17.828125 92.28125 7.5625 
L 87.5 0.140625 
Q 72.953125 9.421875 55.28125 19.28125 
Q 46.96875 6.890625 26.5625 -0.828125 
Q 24.3125 2.390625 21.296875 5.8125 
Q 46.484375 15.28125 51.078125 28.953125 
L 22.359375 28.953125 
z
" id="MicrosoftYaHei-533b"/>
      <path d="M 50.6875 80.125 
L 57.71875 83.546875 
Q 61.234375 77.484375 64.15625 71.625 
L 98.4375 71.625 
L 98.4375 64.59375 
L 24.90625 64.59375 
L 24.90625 37.25 
Q 24.90625 2.203125 11.71875 -13.921875 
Q 8.890625 -10.203125 5.859375 -7.28125 
Q 15.234375 5.125 17.09375 26.125 
Q 8.203125 20.65625 3.328125 17.625 
L 1.46875 25.828125 
Q 9.375 29.640625 17.578125 34.234375 
L 17.578125 71.625 
L 55.46875 71.625 
Q 52.9375 76.609375 50.6875 80.125 
z
M 58.796875 32.375 
L 79.109375 45.953125 
L 31.0625 45.953125 
L 31.0625 52.875 
L 91.21875 52.875 
L 91.21875 45.84375 
L 66.40625 28.65625 
L 66.40625 0.4375 
Q 66.40625 -11.1875 55.171875 -11.1875 
Q 51.265625 -11.1875 38.875 -10.984375 
Q 38.578125 -6.78125 37.703125 -2.6875 
Q 47.359375 -3.65625 53.125 -3.65625 
Q 58.796875 -3.65625 58.796875 2.09375 
z
M 1.859375 59.03125 
L 8.015625 61.375 
Q 11.53125 53.5625 15.234375 42.71875 
L 8.40625 40.1875 
Q 5.375 50.4375 1.859375 59.03125 
z
" id="MicrosoftYaHei-7597"/>
      <path d="M 47.953125 15.578125 
L 65.53125 15.578125 
L 65.53125 24.171875 
L 50.203125 24.171875 
L 50.203125 29.640625 
L 65.53125 29.640625 
L 65.53125 38.234375 
L 51.5625 38.234375 
L 51.5625 43.703125 
L 65.53125 43.703125 
L 65.53125 52.203125 
L 46.6875 52.203125 
L 46.6875 57.859375 
L 65.53125 57.859375 
L 65.53125 66.359375 
L 51.765625 66.359375 
L 51.765625 71.828125 
L 65.53125 71.828125 
L 65.53125 81.984375 
L 72.171875 81.984375 
L 72.171875 71.828125 
L 89.75 71.828125 
L 89.75 57.859375 
L 97.859375 57.859375 
L 97.859375 52.203125 
L 89.75 52.203125 
L 89.75 35.890625 
L 83.203125 35.890625 
L 83.203125 38.234375 
L 72.171875 38.234375 
L 72.171875 29.640625 
L 91.40625 29.640625 
L 91.40625 24.171875 
L 72.171875 24.171875 
L 72.171875 15.578125 
L 92.875 15.578125 
L 92.875 10.109375 
L 72.171875 10.109375 
L 72.171875 -0.046875 
L 65.53125 -0.046875 
L 65.53125 10.109375 
L 47.953125 10.109375 
z
M 28.90625 30.609375 
Q 31.15625 20.265625 35.640625 13.140625 
Q 39.9375 23.96875 40.140625 37.0625 
L 25.59375 37.0625 
L 25.59375 43.5 
L 39.0625 65.96875 
L 26.171875 65.96875 
L 26.171875 72.21875 
L 46.875 72.21875 
L 46.875 65.875 
L 33.296875 43.3125 
L 46.875 43.3125 
L 46.875 36.578125 
Q 46.484375 20.265625 40.53125 6.984375 
Q 50.984375 -3.375 69.234375 -2.78125 
Q 83.40625 -2.984375 98.734375 -2.203125 
Q 97.265625 -5.90625 95.703125 -10.015625 
Q 82.234375 -10.015625 68.453125 -9.8125 
Q 48.828125 -10.109375 37.203125 0.53125 
Q 32.8125 -6.984375 26.375 -13.53125 
Q 23.640625 -10.296875 21.1875 -8.15625 
Q 27.9375 -1.609375 32.328125 6.109375 
Q 25.984375 14.796875 23.140625 28.171875 
z
M 0.875 35.296875 
Q 13.578125 56.296875 19.140625 82.671875 
L 25.875 81 
Q 23.25 69 19.140625 57.953125 
L 19.140625 -12.75 
L 12.703125 -12.75 
L 12.703125 43.015625 
Q 8.6875 35.015625 3.90625 27.59375 
Q 2.640625 31.78125 0.875 35.296875 
z
M 83.203125 43.703125 
L 83.203125 52.203125 
L 72.171875 52.203125 
L 72.171875 43.703125 
z
M 83.203125 66.359375 
L 72.171875 66.359375 
L 72.171875 57.859375 
L 83.203125 57.859375 
z
" id="MicrosoftYaHei-5065"/>
      <path d="M 48.4375 79.9375 
L 55.171875 83.546875 
Q 58.109375 78.859375 61.421875 73 
L 96.78125 73 
L 96.78125 66.546875 
L 18.953125 66.546875 
L 18.953125 44.78125 
L 51.859375 44.78125 
L 51.859375 52.09375 
L 25.09375 52.09375 
L 25.09375 57.953125 
L 51.859375 57.953125 
L 51.859375 64.40625 
L 58.890625 64.40625 
L 58.890625 57.953125 
L 87.015625 57.953125 
L 87.015625 44.78125 
L 98.046875 44.78125 
L 98.046875 38.8125 
L 87.015625 38.8125 
L 87.015625 23.484375 
L 80.375 23.484375 
L 80.375 25.53125 
L 58.890625 25.53125 
L 58.890625 23.390625 
Q 63.671875 17.53125 69.140625 12.75 
Q 79.109375 17.921875 86.921875 22.90625 
L 91.5 17.140625 
Q 83.6875 12.9375 74.421875 8.546875 
Q 84.671875 0.828125 97.078125 -3.171875 
Q 94.140625 -7.078125 92.1875 -10.015625 
Q 70.609375 -0.53125 58.890625 13.921875 
L 58.890625 -2.09375 
Q 58.890625 -12.453125 48.140625 -12.453125 
Q 43.65625 -12.453125 36.328125 -12.25 
Q 35.9375 -8.25 35.15625 -4.546875 
Q 43.0625 -5.21875 46.96875 -5.21875 
Q 51.65625 -5.21875 51.859375 -0.34375 
L 51.859375 5.515625 
Q 36.71875 0.4375 19.140625 -5.515625 
L 17.28125 1.421875 
Q 37.40625 7.28125 51.859375 12.25 
L 51.859375 25.53125 
L 24.515625 25.53125 
L 24.515625 31.390625 
L 51.859375 31.390625 
L 51.859375 38.8125 
L 18.953125 38.8125 
L 18.953125 36.375 
Q 18.953125 5.125 6.734375 -13.328125 
Q 4.296875 -10.015625 1.375 -6.6875 
Q 11.53125 9.421875 11.53125 35.984375 
L 11.53125 73 
L 52.640625 73 
Q 50.6875 76.21875 48.4375 79.9375 
z
M 80.375 31.390625 
L 80.375 38.8125 
L 58.890625 38.8125 
L 58.890625 31.390625 
z
M 80.375 52.09375 
L 58.890625 52.09375 
L 58.890625 44.78125 
L 80.375 44.78125 
z
M 23.921875 18.3125 
L 27.828125 23.09375 
Q 35.546875 18.703125 41.40625 14.40625 
L 36.921875 8.9375 
Q 31.0625 13.8125 23.921875 18.3125 
z
" id="MicrosoftYaHei-5eb7"/>
      <path d="M 38.28125 35.984375 
L 30.859375 35.984375 
L 30.859375 78.171875 
L 89.84375 78.171875 
L 89.84375 35.40625 
L 82.421875 35.40625 
L 82.421875 39.40625 
L 38.28125 39.40625 
z
M 62.3125 34.234375 
L 69.53125 34.234375 
L 69.53125 18.359375 
Q 81.984375 25.046875 91.40625 31.59375 
L 96.09375 25.140625 
Q 86.1875 19.09375 69.53125 10.5 
L 69.53125 3.171875 
Q 69.53125 -3.078125 75 -3.078125 
L 82.125 -3.078125 
Q 86.921875 -3.078125 87.890625 0.140625 
Q 89.359375 5.125 90.53125 14.109375 
Q 94.046875 12.546875 97.859375 11.375 
Q 95.90625 0.921875 94.828125 -2.78125 
Q 92.875 -10.5 83.015625 -10.5 
L 74.03125 -10.5 
Q 62.3125 -10.5 62.3125 1.703125 
z
M 58.40625 6.109375 
Q 58.296875 1.90625 58.40625 -1.3125 
Q 47.65625 -5.609375 40.625 -8.640625 
Q 36.421875 -10.5 33.59375 -12.453125 
L 29.203125 -6.109375 
Q 31.640625 -4.828125 31.640625 0.53125 
L 31.640625 33.453125 
L 38.875 33.453125 
L 38.875 23.875 
L 59.1875 23.875 
L 59.1875 17.046875 
L 38.875 17.046875 
L 38.875 -1.515625 
Q 48.4375 2.09375 58.40625 6.109375 
z
M 82.421875 71.4375 
L 38.28125 71.4375 
L 38.28125 62.15625 
L 82.421875 62.15625 
z
M 38.28125 46.140625 
L 82.421875 46.140625 
L 82.421875 55.421875 
L 38.28125 55.421875 
z
M 15.328125 28.953125 
Q 19.4375 27.09375 23.34375 25.53125 
Q 18.75 9.625 11.921875 -11.96875 
L 3.609375 -8.84375 
Q 10.453125 9.421875 15.328125 28.953125 
z
M 6.34375 56.984375 
Q 16.109375 51.03125 23.921875 45.0625 
Q 22.46875 43.609375 18.65625 38.625 
Q 11.71875 44.484375 1.5625 51.421875 
z
M 10.15625 81.390625 
Q 22.171875 73.1875 27.546875 69 
Q 24.515625 65.484375 22.265625 62.84375 
Q 13.765625 70.0625 5.5625 76.03125 
z
" id="MicrosoftYaHei-6df7"/>
      <path d="M 16.015625 29.828125 
L 84.078125 29.828125 
L 84.078125 -13.53125 
L 76.265625 -13.53125 
L 76.265625 -6.984375 
L 23.828125 -6.984375 
L 23.828125 -13.71875 
L 16.015625 -13.71875 
z
M 57.8125 81.78125 
L 55.46875 78.953125 
Q 71.78125 57.765625 98.734375 47.015625 
Q 95.703125 42.71875 93.5625 39.203125 
Q 85.640625 43.015625 78.515625 47.796875 
L 78.515625 42.234375 
L 21.390625 42.234375 
L 21.390625 47.125 
Q 14.265625 42.4375 6.15625 37.9375 
Q 4.203125 41.265625 1.265625 45.265625 
Q 31.453125 60.40625 46.875 81.78125 
z
M 76.265625 22.703125 
L 23.828125 22.703125 
L 23.828125 -0.046875 
L 76.265625 -0.046875 
z
M 50.296875 73.296875 
Q 40.328125 60.5 24.21875 49.171875 
L 76.46875 49.171875 
Q 61.625 59.328125 50.296875 73.296875 
z
" id="MicrosoftYaHei-5408"/>
      <path d="M 69.1875 0 
L 58.40625 0 
L 50.6875 20.703125 
L 19.1875 20.703125 
L 11.921875 0 
L 1.125 0 
L 29.9375 75.640625 
L 40.375 75.640625 
z
M 47.65625 29.25 
L 36.234375 60.6875 
Q 35.6875 62.203125 35.0625 65.96875 
L 34.8125 65.96875 
Q 34.28125 62.546875 33.59375 60.6875 
L 22.265625 29.25 
z
" id="MicrosoftYaHei-41"/>
     </defs>
     <g transform="translate(127 60.19375)scale(0.1 -0.1)">
      <use xlink:href="#MicrosoftYaHei-4e2d"/>
      <use x="100" xlink:href="#MicrosoftYaHei-6b27"/>
      <use x="200" xlink:href="#MicrosoftYaHei-533b"/>
      <use x="300" xlink:href="#MicrosoftYaHei-7597"/>
      <use x="400" xlink:href="#MicrosoftYaHei-5065"/>
      <use x="500" xlink:href="#MicrosoftYaHei-5eb7"/>
      <use x="600" xlink:href="#MicrosoftYaHei-6df7"/>
      <use x="700" xlink:href="#MicrosoftYaHei-5408"/>
      <use x="800" xlink:href="#MicrosoftYaHei-41"/>
     </g>
    </g>
    <g id="line2d_33">
     <path d="M 99 72.173437 
L 119 72.173437 
" style="fill:none;stroke:#ff7f0e;stroke-linecap:square;stroke-width:1.5;"/>
    </g>
    <g id="line2d_34"/>
    <g id="text_17">
     <!-- 300ETF -->
     <defs>
      <path d="M 14.359375 78.46875 
L 86.234375 78.46875 
L 86.234375 37.84375 
L 78.609375 37.84375 
L 78.609375 41.75 
L 14.359375 41.75 
z
M 1.765625 17.046875 
Q 17.390625 25.53125 28.21875 40.09375 
L 35.15625 37.453125 
Q 33.203125 34.8125 31.25 32.375 
L 91.890625 32.375 
Q 91.015625 13.921875 90.046875 3.859375 
Q 88.765625 -11.859375 74.21875 -11.96875 
Q 66.109375 -12.0625 57.328125 -11.96875 
Q 56.734375 -7.765625 55.859375 -3.65625 
Q 64.359375 -4.4375 72.265625 -4.4375 
Q 81.453125 -4.4375 82.421875 4.734375 
Q 83.5 13.53125 83.890625 25.53125 
L 68.84375 25.53125 
Q 62.890625 -0.140625 34.1875 -13.921875 
Q 31.640625 -10.6875 28.71875 -7.28125 
Q 56.0625 3.953125 61.234375 25.53125 
L 46.390625 25.53125 
Q 39.265625 4.734375 8.6875 -7.078125 
Q 6.15625 -3.859375 3.21875 -0.53125 
Q 32.03125 10.203125 38.28125 25.53125 
L 25.09375 25.53125 
Q 16.796875 17.140625 6.640625 10.796875 
Q 4.59375 13.71875 1.765625 17.046875 
z
M 21.96875 48.578125 
L 78.609375 48.578125 
L 78.609375 56.78125 
L 21.96875 56.78125 
z
M 78.609375 71.625 
L 21.96875 71.625 
L 21.96875 63.625 
L 78.609375 63.625 
z
" id="MicrosoftYaHei-6613"/>
      <path d="M 3.03125 66.265625 
L 49.90625 66.265625 
Q 44.96875 75.640625 42.1875 79.9375 
L 49.8125 83.546875 
Q 52.546875 79.34375 58.015625 69.875 
L 50.875 66.265625 
L 97.171875 66.265625 
L 97.171875 58.84375 
L 37.9375 58.84375 
Q 37.59375 49.953125 37.203125 43.703125 
L 84.375 43.703125 
Q 83.203125 22.515625 81.84375 6.890625 
Q 80.765625 -10.796875 64.65625 -10.796875 
Q 57.234375 -10.796875 44.828125 -10.015625 
Q 44.34375 -6.296875 43.359375 -1.03125 
Q 55.765625 -2.6875 63.484375 -2.6875 
Q 72.46875 -2.6875 73.53125 7.953125 
Q 74.703125 19.578125 75.59375 36.375 
L 36.671875 36.375 
Q 33.9375 4.15625 6.84375 -13.625 
Q 4.203125 -10.5 0.875 -6.984375 
Q 26.65625 10.015625 28.515625 38.53125 
Q 29.203125 46.234375 29.640625 58.84375 
L 3.03125 58.84375 
z
" id="MicrosoftYaHei-65b9"/>
      <path d="M 42.484375 -3.765625 
Q 69.53125 -4.046875 98.734375 -3.375 
Q 97.078125 -7.28125 95.515625 -10.890625 
Q 68.75 -11.28125 41.21875 -10.796875 
Q 24.90625 -10.59375 17 0.34375 
Q 14.15625 -1.90625 5.5625 -12.15625 
L 1.375 -3.859375 
Q 7.421875 1.609375 13.484375 6.78125 
L 13.484375 40.875 
L 2.34375 40.875 
L 2.34375 48 
L 21.09375 48 
L 21.09375 5.328125 
Q 28.21875 -3.375 42.484375 -3.765625 
z
M 29.296875 59.234375 
L 56.25 59.234375 
L 56.25 82.28125 
L 64.0625 82.28125 
L 64.0625 59.234375 
L 94.53125 59.234375 
L 94.53125 52.09375 
L 63.875 52.09375 
Q 63.484375 44.96875 61.921875 38.625 
Q 78.8125 25.046875 93.84375 9.625 
L 87.984375 3.078125 
Q 74.8125 18.015625 59.765625 31.59375 
Q 52.546875 12.15625 32.515625 1.125 
Q 29.890625 4.734375 27.046875 7.5625 
Q 53.90625 21.921875 56.0625 52.09375 
L 29.296875 52.09375 
z
M 11.421875 81.890625 
Q 20.015625 71.625 26.265625 63.03125 
L 19.4375 58.15625 
Q 12.984375 67.921875 5.375 77.484375 
z
" id="MicrosoftYaHei-8fbe"/>
      <path d="M 55.46875 79.34375 
L 61.921875 83.453125 
Q 66.3125 78.171875 70.703125 72.125 
L 64.9375 68.40625 
L 93.75 68.40625 
L 93.75 24.265625 
L 86.234375 24.265625 
L 86.234375 28.953125 
L 42.484375 28.953125 
Q 41.890625 3.375 28.71875 -13.71875 
Q 25.6875 -10.6875 22.359375 -8.15625 
Q 35.359375 7.078125 35.25 36.859375 
L 35.25 68.40625 
L 63.09375 68.40625 
Q 59.859375 73.6875 55.46875 79.34375 
z
M 42.875 61.375 
Q 42.875 42.4375 42.78125 35.984375 
L 86.234375 35.984375 
L 86.234375 61.375 
z
M 15.921875 27.203125 
Q 20.21875 24.953125 24.21875 23.296875 
Q 19.140625 6.890625 12.984375 -12.640625 
L 4.296875 -8.640625 
Q 11.140625 8.0625 15.921875 27.203125 
z
M 5.375 56.109375 
Q 15.828125 49.859375 24.03125 43.609375 
L 18.65625 36.578125 
Q 8.890625 44.484375 0.6875 49.859375 
z
M 10.640625 81.59375 
Q 20.609375 74.75 28.21875 68.5 
L 22.859375 61.859375 
Q 13.484375 69.96875 5.765625 75.828125 
z
" id="MicrosoftYaHei-6caa"/>
      <path d="M 98.734375 2.203125 
Q 95.90625 -1.3125 93.171875 -4.734375 
Q 76.65625 6.0625 66.40625 23.046875 
L 66.40625 -12.75 
L 58.6875 -12.75 
L 58.6875 23.34375 
Q 47.65625 6.453125 29.78125 -5.8125 
Q 26.265625 -1.8125 23.921875 0.34375 
Q 45.0625 12.640625 56.640625 28.5625 
L 29.203125 28.5625 
L 29.203125 35.6875 
L 58.6875 35.6875 
L 58.6875 47.90625 
L 66.40625 47.90625 
L 66.40625 35.6875 
L 96.578125 35.6875 
L 96.578125 28.5625 
L 67.96875 28.5625 
Q 80.46875 11.671875 98.734375 2.203125 
z
M 31.84375 76.609375 
L 94.734375 76.609375 
L 94.734375 60.40625 
L 86.921875 60.40625 
L 86.921875 69.1875 
L 39.65625 69.1875 
L 39.65625 60.109375 
L 31.84375 60.109375 
z
M 15.328125 28.953125 
Q 19.4375 27.09375 23.34375 25.53125 
Q 18.75 9.625 11.921875 -11.96875 
L 3.609375 -8.84375 
Q 10.453125 9.421875 15.328125 28.953125 
z
M 53.21875 63.234375 
L 58.40625 57.953125 
Q 46.296875 47.3125 35.25 39.796875 
Q 33.203125 42.921875 30.46875 46.046875 
Q 43.359375 54.046875 53.21875 63.234375 
z
M 67 58.0625 
L 71.6875 63.234375 
Q 84.078125 54.828125 95.015625 46.046875 
L 89.84375 39.984375 
Q 79.109375 49.5625 67 58.0625 
z
M 10.359375 81.390625 
Q 21.1875 73.96875 29.59375 67.328125 
Q 26.46875 63.71875 24.125 60.984375 
Q 13.28125 70.265625 5.5625 75.828125 
z
M 6.34375 56.984375 
Q 17.09375 50.140625 25.390625 43.796875 
Q 23.921875 42.328125 20.125 37.359375 
Q 12.015625 44.09375 1.5625 51.421875 
z
" id="MicrosoftYaHei-6df1"/>
      <path d="M 37.796875 29.828125 
Q 48.734375 44.484375 55.078125 59.8125 
L 62.59375 57.375 
Q 60.84375 53.65625 59.078125 50.25 
L 92.390625 50.25 
Q 91.890625 20.265625 91.21875 5.90625 
Q 90.71875 -10.984375 73.921875 -10.984375 
Q 65.140625 -10.984375 57.125 -10.890625 
Q 56.453125 -7.078125 55.375 -2.390625 
Q 64.359375 -3.265625 73.53125 -3.265625 
Q 82.328125 -3.265625 83.203125 6 
Q 84.078125 17.234375 84.375 43.21875 
L 55.375 43.21875 
Q 50.09375 33.640625 44.921875 26.3125 
Q 41.703125 28.171875 37.796875 29.828125 
z
M 62.109375 82.859375 
L 69.625 82.859375 
L 69.625 72.90625 
L 97.5625 72.90625 
L 97.5625 65.875 
L 69.625 65.875 
L 69.625 59.234375 
L 62.109375 59.234375 
L 62.109375 65.875 
L 38.578125 65.875 
L 38.578125 58.734375 
L 31.0625 58.734375 
L 31.0625 65.875 
L 2.828125 65.875 
L 2.828125 72.90625 
L 31.0625 72.90625 
L 31.0625 82.859375 
L 38.578125 82.859375 
L 38.578125 72.90625 
L 62.109375 72.90625 
z
M 17.484375 17.828125 
Q 29.296875 19.1875 39.84375 20.84375 
Q 39.15625 16.65625 38.96875 13.921875 
Q 25.484375 12.0625 8.015625 9.125 
L 5.859375 16.15625 
Q 14.0625 22.703125 22.265625 32.5625 
Q 11.8125 31.984375 6.640625 31.5 
L 4.78125 37.9375 
Q 13.28125 46.921875 21.09375 61.375 
L 28.328125 58.0625 
Q 20.40625 46.625 13.671875 38.53125 
Q 19.734375 38.625 27.25 38.921875 
Q 31.25 44.1875 35.25 50.34375 
L 41.890625 46.625 
Q 31.734375 32.5625 17.484375 17.828125 
z
M 5.28125 -1.03125 
Q 25.09375 1.609375 42.578125 4.828125 
Q 42.1875 0.921875 42 -2.390625 
Q 21.1875 -5.90625 7.125 -8.84375 
z
M 51.171875 28.65625 
L 56.546875 33.34375 
Q 63.375 26.125 71.484375 16.546875 
L 65.328125 11.375 
Q 58.59375 20.5625 51.171875 28.65625 
z
" id="MicrosoftYaHei-836f"/>
      <path d="M 50.4375 0 
L 9.765625 0 
L 9.765625 75.640625 
L 48.734375 75.640625 
L 48.734375 66.9375 
L 19.53125 66.9375 
L 19.53125 42.71875 
L 46.578125 42.71875 
L 46.578125 34.078125 
L 19.53125 34.078125 
L 19.53125 8.640625 
L 50.4375 8.640625 
z
" id="MicrosoftYaHei-45"/>
      <path d="M 55.46875 66.9375 
L 33.640625 66.9375 
L 33.640625 0 
L 23.828125 0 
L 23.828125 66.9375 
L 2.09375 66.9375 
L 2.09375 75.640625 
L 55.46875 75.640625 
z
" id="MicrosoftYaHei-54"/>
      <path d="M 48.734375 66.9375 
L 19.53125 66.9375 
L 19.53125 41.65625 
L 46.578125 41.65625 
L 46.578125 33.0625 
L 19.53125 33.0625 
L 19.53125 0 
L 9.765625 0 
L 9.765625 75.640625 
L 48.734375 75.640625 
z
" id="MicrosoftYaHei-46"/>
     </defs>
     <g transform="translate(127 75.673437)scale(0.1 -0.1)">
      <use xlink:href="#MicrosoftYaHei-6613"/>
      <use x="100" xlink:href="#MicrosoftYaHei-65b9"/>
      <use x="200" xlink:href="#MicrosoftYaHei-8fbe"/>
      <use x="300" xlink:href="#MicrosoftYaHei-6caa"/>
      <use x="400" xlink:href="#MicrosoftYaHei-6df1"/>
      <use x="500" xlink:href="#MicrosoftYaHei-33"/>
      <use x="558.642578" xlink:href="#MicrosoftYaHei-30"/>
      <use x="617.285156" xlink:href="#MicrosoftYaHei-30"/>
      <use x="675.927734" xlink:href="#MicrosoftYaHei-533b"/>
      <use x="775.927734" xlink:href="#MicrosoftYaHei-836f"/>
      <use x="875.927734" xlink:href="#MicrosoftYaHei-45"/>
      <use x="930.908203" xlink:href="#MicrosoftYaHei-54"/>
      <use x="988.232422" xlink:href="#MicrosoftYaHei-46"/>
     </g>
    </g>
   </g>
  </g>
 </g>
 <defs>
  <clipPath id="p5a487c7e9f">
   <rect height="277.2" width="558" x="90" y="43.2"/>
  </clipPath>
 </defs>
</svg>
