<?xml version="1.0" encoding="utf-8" standalone="no"?>
<!DOCTYPE svg PUBLIC "-//W3C//DTD SVG 1.1//EN"
  "http://www.w3.org/Graphics/SVG/1.1/DTD/svg11.dtd">
<!-- Created with matplotlib (http://matplotlib.org/) -->
<svg height="360pt" version="1.1" viewBox="0 0 720 360" width="720pt" xmlns="http://www.w3.org/2000/svg" xmlns:xlink="http://www.w3.org/1999/xlink">
 <defs>
  <style type="text/css">
*{stroke-linecap:butt;stroke-linejoin:round;}
  </style>
 </defs>
 <g id="figure_1">
  <g id="patch_1">
   <path d="M 0 360 
L 720 360 
L 720 0 
L 0 0 
z
" style="fill:#ffffff;"/>
  </g>
  <g id="axes_1">
   <g id="patch_2">
    <path d="M 90 320.4 
L 648 320.4 
L 648 43.2 
L 90 43.2 
z
" style="fill:#ffffff;"/>
   </g>
   <g id="matplotlib.axis_1">
    <g id="xtick_1">
     <g id="line2d_1">
      <path clip-path="url(#p4fa4971b14)" d="M 110.187384 320.4 
L 110.187384 43.2 
" style="fill:none;stroke:#b0b0b0;stroke-linecap:square;stroke-width:0.8;"/>
     </g>
     <g id="line2d_2">
      <defs>
       <path d="M 0 0 
L 0 3.5 
" id="m7d1f5f1219" style="stroke:#000000;stroke-width:0.8;"/>
      </defs>
      <g>
       <use style="stroke:#000000;stroke-width:0.8;" x="110.187384" xlink:href="#m7d1f5f1219" y="320.4"/>
      </g>
     </g>
     <g id="text_1">
      <!-- 0 -->
      <defs>
       <path d="M 4.4375 36.328125 
Q 4.4375 56.34375 11.078125 66.625 
Q 17.71875 76.90625 30.328125 76.90625 
Q 54.34375 76.90625 54.34375 38.140625 
Q 54.34375 19 47.578125 8.859375 
Q 40.828125 -1.265625 28.609375 -1.265625 
Q 17.09375 -1.265625 10.765625 8.34375 
Q 4.4375 17.96875 4.4375 36.328125 
z
M 14.203125 36.765625 
Q 14.203125 6.640625 29.5 6.640625 
Q 44.53125 6.640625 44.53125 37.25 
Q 44.53125 68.953125 29.78125 68.953125 
Q 14.203125 68.953125 14.203125 36.765625 
z
" id="MicrosoftYaHei-30"/>
      </defs>
      <g transform="translate(107.255353 335.39375)scale(0.1 -0.1)">
       <use xlink:href="#MicrosoftYaHei-30"/>
      </g>
     </g>
    </g>
    <g id="xtick_2">
     <g id="line2d_3">
      <path clip-path="url(#p4fa4971b14)" d="M 213.71243 320.4 
L 213.71243 43.2 
" style="fill:none;stroke:#b0b0b0;stroke-linecap:square;stroke-width:0.8;"/>
     </g>
     <g id="line2d_4">
      <g>
       <use style="stroke:#000000;stroke-width:0.8;" x="213.71243" xlink:href="#m7d1f5f1219" y="320.4"/>
      </g>
     </g>
     <g id="text_2">
      <!-- 20 -->
      <defs>
       <path d="M 51.171875 0 
L 5.171875 0 
L 5.171875 8.296875 
L 27.15625 30.21875 
Q 36.234375 39.3125 39.3125 44.609375 
Q 42.390625 49.90625 42.390625 55.5625 
Q 42.390625 62.015625 38.765625 65.453125 
Q 35.15625 68.890625 28.328125 68.890625 
Q 18.21875 68.890625 9.03125 60.296875 
L 9.03125 70.015625 
Q 17.96875 76.90625 29.828125 76.90625 
Q 40.046875 76.90625 45.953125 71.390625 
Q 51.859375 65.875 51.859375 56.546875 
Q 51.859375 49.515625 48.0625 42.75 
Q 44.28125 35.984375 33.734375 25.53125 
L 16.5 8.6875 
L 16.5 8.5 
L 51.171875 8.5 
z
" id="MicrosoftYaHei-32"/>
      </defs>
      <g transform="translate(207.848368 335.39375)scale(0.1 -0.1)">
       <use xlink:href="#MicrosoftYaHei-32"/>
       <use x="58.642578" xlink:href="#MicrosoftYaHei-30"/>
      </g>
     </g>
    </g>
    <g id="xtick_3">
     <g id="line2d_5">
      <path clip-path="url(#p4fa4971b14)" d="M 317.237477 320.4 
L 317.237477 43.2 
" style="fill:none;stroke:#b0b0b0;stroke-linecap:square;stroke-width:0.8;"/>
     </g>
     <g id="line2d_6">
      <g>
       <use style="stroke:#000000;stroke-width:0.8;" x="317.237477" xlink:href="#m7d1f5f1219" y="320.4"/>
      </g>
     </g>
     <g id="text_3">
      <!-- 40 -->
      <defs>
       <path d="M 55.078125 19.625 
L 45.40625 19.625 
L 45.40625 0 
L 36.140625 0 
L 36.140625 19.625 
L 0.875 19.625 
L 0.875 25.828125 
L 34.328125 75.640625 
L 45.40625 75.640625 
L 45.40625 27.203125 
L 55.078125 27.203125 
z
M 36.140625 27.203125 
L 36.140625 58.890625 
Q 36.140625 62.25 36.328125 66.65625 
L 36.140625 66.65625 
Q 35.453125 64.796875 33.25 60.84375 
L 10.75 27.203125 
z
" id="MicrosoftYaHei-34"/>
      </defs>
      <g transform="translate(311.373414 335.39375)scale(0.1 -0.1)">
       <use xlink:href="#MicrosoftYaHei-34"/>
       <use x="58.642578" xlink:href="#MicrosoftYaHei-30"/>
      </g>
     </g>
    </g>
    <g id="xtick_4">
     <g id="line2d_7">
      <path clip-path="url(#p4fa4971b14)" d="M 420.762523 320.4 
L 420.762523 43.2 
" style="fill:none;stroke:#b0b0b0;stroke-linecap:square;stroke-width:0.8;"/>
     </g>
     <g id="line2d_8">
      <g>
       <use style="stroke:#000000;stroke-width:0.8;" x="420.762523" xlink:href="#m7d1f5f1219" y="320.4"/>
      </g>
     </g>
     <g id="text_4">
      <!-- 60 -->
      <defs>
       <path d="M 49.703125 65.921875 
Q 43.796875 68.953125 37.359375 68.953125 
Q 27.546875 68.953125 21.578125 60.40625 
Q 15.625 51.859375 15.53125 37.0625 
L 15.765625 37.0625 
Q 21.140625 47.46875 32.90625 47.46875 
Q 42.71875 47.46875 48.578125 41.0625 
Q 54.4375 34.671875 54.4375 24.078125 
Q 54.4375 12.984375 47.671875 5.859375 
Q 40.921875 -1.265625 30.421875 -1.265625 
Q 18.890625 -1.265625 12.328125 7.734375 
Q 5.765625 16.75 5.765625 33.296875 
Q 5.765625 53.328125 14.375 65.109375 
Q 23 76.90625 37.0625 76.90625 
Q 45.125 76.90625 49.703125 74.703125 
z
M 16.109375 24.75 
Q 16.109375 17.28125 20.09375 11.953125 
Q 24.078125 6.640625 30.671875 6.640625 
Q 36.921875 6.640625 40.828125 11.234375 
Q 44.734375 15.828125 44.734375 23.046875 
Q 44.734375 30.859375 41.046875 35.203125 
Q 37.359375 39.546875 30.5625 39.546875 
Q 24.125 39.546875 20.109375 35.15625 
Q 16.109375 30.765625 16.109375 24.75 
z
" id="MicrosoftYaHei-36"/>
      </defs>
      <g transform="translate(414.898461 335.39375)scale(0.1 -0.1)">
       <use xlink:href="#MicrosoftYaHei-36"/>
       <use x="58.642578" xlink:href="#MicrosoftYaHei-30"/>
      </g>
     </g>
    </g>
    <g id="xtick_5">
     <g id="line2d_9">
      <path clip-path="url(#p4fa4971b14)" d="M 524.28757 320.4 
L 524.28757 43.2 
" style="fill:none;stroke:#b0b0b0;stroke-linecap:square;stroke-width:0.8;"/>
     </g>
     <g id="line2d_10">
      <g>
       <use style="stroke:#000000;stroke-width:0.8;" x="524.28757" xlink:href="#m7d1f5f1219" y="320.4"/>
      </g>
     </g>
     <g id="text_5">
      <!-- 80 -->
      <defs>
       <path d="M 21.390625 39.796875 
Q 7.859375 46.09375 7.859375 58.0625 
Q 7.859375 66.40625 14.203125 71.65625 
Q 20.5625 76.90625 30.421875 76.90625 
Q 39.453125 76.90625 45.3125 71.96875 
Q 51.171875 67.046875 51.171875 59.234375 
Q 51.171875 46.625 37.0625 39.84375 
L 37.0625 39.65625 
Q 53.609375 33.6875 53.609375 19.34375 
Q 53.609375 9.90625 46.796875 4.3125 
Q 39.984375 -1.265625 27.78125 -1.265625 
Q 17.78125 -1.265625 11.46875 4.25 
Q 5.171875 9.765625 5.171875 18.5625 
Q 5.171875 33.015625 21.390625 39.59375 
z
M 41.5 58.109375 
Q 41.5 63.1875 38.328125 66.109375 
Q 35.15625 69.046875 29.734375 69.046875 
Q 24.65625 69.046875 21.09375 65.984375 
Q 17.53125 62.9375 17.53125 58.203125 
Q 17.53125 48.734375 29.390625 43.796875 
Q 41.5 48.828125 41.5 58.109375 
z
M 28.8125 35.25 
Q 14.796875 29.59375 14.796875 19.046875 
Q 14.796875 13.578125 18.890625 10.0625 
Q 23 6.546875 29.59375 6.546875 
Q 35.984375 6.546875 39.984375 10.03125 
Q 44 13.53125 44 18.75 
Q 44 29.734375 28.8125 35.25 
z
" id="MicrosoftYaHei-38"/>
      </defs>
      <g transform="translate(518.423507 335.39375)scale(0.1 -0.1)">
       <use xlink:href="#MicrosoftYaHei-38"/>
       <use x="58.642578" xlink:href="#MicrosoftYaHei-30"/>
      </g>
     </g>
    </g>
    <g id="xtick_6">
     <g id="line2d_11">
      <path clip-path="url(#p4fa4971b14)" d="M 627.812616 320.4 
L 627.812616 43.2 
" style="fill:none;stroke:#b0b0b0;stroke-linecap:square;stroke-width:0.8;"/>
     </g>
     <g id="line2d_12">
      <g>
       <use style="stroke:#000000;stroke-width:0.8;" x="627.812616" xlink:href="#m7d1f5f1219" y="320.4"/>
      </g>
     </g>
     <g id="text_6">
      <!-- 100 -->
      <defs>
       <path d="M 52.59375 0 
L 9.234375 0 
L 9.234375 8.25 
L 26.171875 8.25 
L 26.171875 65.671875 
L 8.796875 60.640625 
L 8.796875 69.4375 
L 35.6875 77.25 
L 35.6875 8.25 
L 52.59375 8.25 
z
" id="MicrosoftYaHei-31"/>
      </defs>
      <g transform="translate(619.016522 335.39375)scale(0.1 -0.1)">
       <use xlink:href="#MicrosoftYaHei-31"/>
       <use x="58.642578" xlink:href="#MicrosoftYaHei-30"/>
       <use x="117.285156" xlink:href="#MicrosoftYaHei-30"/>
      </g>
     </g>
    </g>
    <g id="text_7">
     <!-- diff days -->
     <defs>
      <path d="M 55.421875 0 
L 45.84375 0 
L 45.84375 8.984375 
L 45.65625 8.984375 
Q 39.75 -1.265625 27.296875 -1.265625 
Q 17.046875 -1.265625 10.984375 6.03125 
Q 4.9375 13.328125 4.9375 25.734375 
Q 4.9375 39.109375 11.765625 47.1875 
Q 18.609375 55.28125 29.640625 55.28125 
Q 40.671875 55.28125 45.65625 46.6875 
L 45.84375 46.6875 
L 45.84375 79.9375 
L 55.421875 79.9375 
z
M 45.90625 32.125 
Q 45.90625 38.625 41.625 42.984375 
Q 37.359375 47.359375 31.109375 47.359375 
Q 23.484375 47.359375 19.09375 41.671875 
Q 14.703125 35.984375 14.703125 26.171875 
Q 14.703125 17.140625 18.921875 11.890625 
Q 23.140625 6.640625 30.171875 6.640625 
Q 37.109375 6.640625 41.5 11.78125 
Q 45.90625 16.9375 45.90625 24.609375 
z
" id="MicrosoftYaHei-64"/>
      <path d="M 7.375 73.046875 
Q 7.375 75.59375 9.109375 77.3125 
Q 10.84375 79.046875 13.375 79.046875 
Q 15.96875 79.046875 17.75 77.34375 
Q 19.53125 75.640625 19.53125 73.046875 
Q 19.53125 70.515625 17.75 68.828125 
Q 15.96875 67.140625 13.375 67.140625 
Q 10.796875 67.140625 9.078125 68.828125 
Q 7.375 70.515625 7.375 73.046875 
z
M 8.5 0 
L 8.5 54 
L 18.0625 54 
L 18.0625 0 
z
" id="MicrosoftYaHei-69"/>
      <path d="M 36.234375 71.78125 
Q 33.546875 73.1875 30.421875 73.1875 
Q 21.4375 73.1875 21.4375 62.0625 
L 21.4375 54 
L 34.078125 54 
L 34.078125 46.09375 
L 21.4375 46.09375 
L 21.4375 0 
L 11.96875 0 
L 11.96875 46.09375 
L 2.734375 46.09375 
L 2.734375 54 
L 11.96875 54 
L 11.96875 62.5 
Q 11.96875 71.1875 16.96875 76.140625 
Q 21.96875 81.109375 29.6875 81.109375 
Q 33.796875 81.109375 36.234375 80.171875 
z
" id="MicrosoftYaHei-66"/>
      <path id="MicrosoftYaHei-20"/>
      <path d="M 9.8125 50.25 
Q 17.875 55.28125 28.421875 55.28125 
Q 47.953125 55.28125 47.953125 34.765625 
L 47.953125 0 
L 38.484375 0 
L 38.484375 8.34375 
L 38.234375 8.34375 
Q 32.625 -1.265625 21.6875 -1.265625 
Q 13.8125 -1.265625 9.171875 2.984375 
Q 4.546875 7.234375 4.546875 14.453125 
Q 4.546875 29.59375 22.46875 32.078125 
L 38.484375 34.328125 
Q 38.484375 47.5625 27.546875 47.5625 
Q 17.828125 47.5625 9.8125 41.015625 
z
M 25.828125 25.390625 
Q 19.1875 24.515625 16.671875 22.0625 
Q 14.15625 19.625 14.15625 15.234375 
Q 14.15625 11.375 16.890625 8.9375 
Q 19.625 6.5 24.125 6.5 
Q 30.375 6.5 34.421875 10.890625 
Q 38.484375 15.28125 38.484375 21.921875 
L 38.484375 27.09375 
z
" id="MicrosoftYaHei-61"/>
      <path d="M 52.484375 54 
L 27.984375 -8.15625 
Q 21.140625 -25.4375 8.6875 -25.4375 
Q 5.125 -25.4375 2.59375 -24.65625 
L 2.59375 -16.265625 
Q 5.375 -17.328125 7.953125 -17.328125 
Q 14.453125 -17.328125 17.671875 -9.71875 
L 21.828125 0.09375 
L 0.640625 54 
L 11.234375 54 
L 25.34375 13.421875 
L 26.515625 8.984375 
L 26.765625 8.984375 
Q 27.046875 10.5 27.9375 13.328125 
L 42.671875 54 
z
" id="MicrosoftYaHei-79"/>
      <path d="M 5.515625 11.671875 
Q 12.75 6.453125 21.09375 6.453125 
Q 32.28125 6.453125 32.28125 13.765625 
Q 32.28125 16.890625 29.828125 18.921875 
Q 27.390625 20.953125 19.921875 23.734375 
Q 10.9375 27.34375 8.25 30.875 
Q 5.5625 34.421875 5.5625 39.453125 
Q 5.5625 46.625 11.640625 50.953125 
Q 17.71875 55.28125 26.609375 55.28125 
Q 33.5 55.28125 39.40625 52.875 
L 39.40625 43.65625 
Q 33.34375 47.5625 25.6875 47.5625 
Q 21.09375 47.5625 18.203125 45.5625 
Q 15.328125 43.5625 15.328125 40.28125 
Q 15.328125 37.0625 17.40625 35.25 
Q 19.484375 33.453125 26.609375 30.609375 
Q 35.640625 27.25 38.8125 23.625 
Q 42 20.015625 42 14.703125 
Q 42 7.28125 35.90625 3 
Q 29.828125 -1.265625 20.171875 -1.265625 
Q 11.765625 -1.265625 5.515625 1.90625 
z
" id="MicrosoftYaHei-73"/>
     </defs>
     <g transform="translate(348.6 349.990625)scale(0.1 -0.1)">
      <use xlink:href="#MicrosoftYaHei-64"/>
      <use x="63.964844" xlink:href="#MicrosoftYaHei-69"/>
      <use x="90.576172" xlink:href="#MicrosoftYaHei-66"/>
      <use x="125.244141" xlink:href="#MicrosoftYaHei-66"/>
      <use x="159.912109" xlink:href="#MicrosoftYaHei-20"/>
      <use x="189.501953" xlink:href="#MicrosoftYaHei-64"/>
      <use x="253.466797" xlink:href="#MicrosoftYaHei-61"/>
      <use x="308.740234" xlink:href="#MicrosoftYaHei-79"/>
      <use x="361.669922" xlink:href="#MicrosoftYaHei-73"/>
     </g>
    </g>
   </g>
   <g id="matplotlib.axis_2">
    <g id="ytick_1">
     <g id="line2d_13">
      <path clip-path="url(#p4fa4971b14)" d="M 90 309.349331 
L 648 309.349331 
" style="fill:none;stroke:#b0b0b0;stroke-linecap:square;stroke-width:0.8;"/>
     </g>
     <g id="line2d_14">
      <defs>
       <path d="M 0 0 
L -3.5 0 
" id="m947113f608" style="stroke:#000000;stroke-width:0.8;"/>
      </defs>
      <g>
       <use style="stroke:#000000;stroke-width:0.8;" x="90" xlink:href="#m947113f608" y="309.349331"/>
      </g>
     </g>
     <g id="text_8">
      <!-- 0.1 -->
      <defs>
       <path d="M 5.8125 5.03125 
Q 5.8125 7.671875 7.609375 9.46875 
Q 9.421875 11.28125 12.109375 11.28125 
Q 14.84375 11.28125 16.640625 9.453125 
Q 18.453125 7.625 18.453125 5.03125 
Q 18.453125 2.484375 16.640625 0.65625 
Q 14.84375 -1.171875 12.0625 -1.171875 
Q 9.375 -1.171875 7.59375 0.65625 
Q 5.8125 2.484375 5.8125 5.03125 
z
" id="MicrosoftYaHei-2e"/>
      </defs>
      <g transform="translate(68.864063 313.346206)scale(0.1 -0.1)">
       <use xlink:href="#MicrosoftYaHei-30"/>
       <use x="58.642578" xlink:href="#MicrosoftYaHei-2e"/>
       <use x="82.714844" xlink:href="#MicrosoftYaHei-31"/>
      </g>
     </g>
    </g>
    <g id="ytick_2">
     <g id="line2d_15">
      <path clip-path="url(#p4fa4971b14)" d="M 90 264.548688 
L 648 264.548688 
" style="fill:none;stroke:#b0b0b0;stroke-linecap:square;stroke-width:0.8;"/>
     </g>
     <g id="line2d_16">
      <g>
       <use style="stroke:#000000;stroke-width:0.8;" x="90" xlink:href="#m947113f608" y="264.548688"/>
      </g>
     </g>
     <g id="text_9">
      <!-- 0.2 -->
      <g transform="translate(68.864063 268.545563)scale(0.1 -0.1)">
       <use xlink:href="#MicrosoftYaHei-30"/>
       <use x="58.642578" xlink:href="#MicrosoftYaHei-2e"/>
       <use x="82.714844" xlink:href="#MicrosoftYaHei-32"/>
      </g>
     </g>
    </g>
    <g id="ytick_3">
     <g id="line2d_17">
      <path clip-path="url(#p4fa4971b14)" d="M 90 219.748045 
L 648 219.748045 
" style="fill:none;stroke:#b0b0b0;stroke-linecap:square;stroke-width:0.8;"/>
     </g>
     <g id="line2d_18">
      <g>
       <use style="stroke:#000000;stroke-width:0.8;" x="90" xlink:href="#m947113f608" y="219.748045"/>
      </g>
     </g>
     <g id="text_10">
      <!-- 0.3 -->
      <defs>
       <path d="M 6.984375 12.640625 
Q 14.75 6.640625 24.515625 6.640625 
Q 32.328125 6.640625 36.890625 10.46875 
Q 41.453125 14.3125 41.453125 20.75 
Q 41.453125 35.109375 20.90625 35.109375 
L 14.59375 35.109375 
L 14.59375 43.015625 
L 20.609375 43.015625 
Q 38.8125 43.015625 38.8125 56.5 
Q 38.8125 68.953125 24.90625 68.953125 
Q 16.9375 68.953125 9.90625 63.578125 
L 9.90625 72.609375 
Q 17.328125 76.90625 27.25 76.90625 
Q 36.921875 76.90625 42.78125 71.84375 
Q 48.640625 66.796875 48.640625 58.734375 
Q 48.640625 43.890625 33.5 39.65625 
L 33.5 39.453125 
Q 41.703125 38.578125 46.453125 33.671875 
Q 51.21875 28.765625 51.21875 21.4375 
Q 51.21875 11.234375 43.875 4.984375 
Q 36.53125 -1.265625 24.3125 -1.265625 
Q 13.578125 -1.265625 6.984375 2.734375 
z
" id="MicrosoftYaHei-33"/>
      </defs>
      <g transform="translate(68.864063 223.74492)scale(0.1 -0.1)">
       <use xlink:href="#MicrosoftYaHei-30"/>
       <use x="58.642578" xlink:href="#MicrosoftYaHei-2e"/>
       <use x="82.714844" xlink:href="#MicrosoftYaHei-33"/>
      </g>
     </g>
    </g>
    <g id="ytick_4">
     <g id="line2d_19">
      <path clip-path="url(#p4fa4971b14)" d="M 90 174.947402 
L 648 174.947402 
" style="fill:none;stroke:#b0b0b0;stroke-linecap:square;stroke-width:0.8;"/>
     </g>
     <g id="line2d_20">
      <g>
       <use style="stroke:#000000;stroke-width:0.8;" x="90" xlink:href="#m947113f608" y="174.947402"/>
      </g>
     </g>
     <g id="text_11">
      <!-- 0.4 -->
      <g transform="translate(68.864063 178.944277)scale(0.1 -0.1)">
       <use xlink:href="#MicrosoftYaHei-30"/>
       <use x="58.642578" xlink:href="#MicrosoftYaHei-2e"/>
       <use x="82.714844" xlink:href="#MicrosoftYaHei-34"/>
      </g>
     </g>
    </g>
    <g id="ytick_5">
     <g id="line2d_21">
      <path clip-path="url(#p4fa4971b14)" d="M 90 130.146758 
L 648 130.146758 
" style="fill:none;stroke:#b0b0b0;stroke-linecap:square;stroke-width:0.8;"/>
     </g>
     <g id="line2d_22">
      <g>
       <use style="stroke:#000000;stroke-width:0.8;" x="90" xlink:href="#m947113f608" y="130.146758"/>
      </g>
     </g>
     <g id="text_12">
      <!-- 0.5 -->
      <defs>
       <path d="M 8.640625 11.625 
Q 16.265625 6.640625 24.515625 6.640625 
Q 32.328125 6.640625 37.109375 11 
Q 41.890625 15.375 41.890625 22.609375 
Q 41.890625 29.890625 37.03125 33.890625 
Q 32.171875 37.890625 22.953125 37.890625 
Q 18.5 37.890625 10.984375 37.203125 
L 10.984375 75.640625 
L 48.1875 75.640625 
L 48.1875 67.1875 
L 19.875 67.1875 
L 19.875 45.796875 
Q 24.125 46.046875 26.265625 46.046875 
Q 38.234375 46.046875 44.921875 39.984375 
Q 51.609375 33.9375 51.609375 23.296875 
Q 51.609375 12.3125 44.421875 5.515625 
Q 37.25 -1.265625 24.609375 -1.265625 
Q 14.015625 -1.265625 8.640625 1.859375 
z
" id="MicrosoftYaHei-35"/>
      </defs>
      <g transform="translate(68.864063 134.143633)scale(0.1 -0.1)">
       <use xlink:href="#MicrosoftYaHei-30"/>
       <use x="58.642578" xlink:href="#MicrosoftYaHei-2e"/>
       <use x="82.714844" xlink:href="#MicrosoftYaHei-35"/>
      </g>
     </g>
    </g>
    <g id="ytick_6">
     <g id="line2d_23">
      <path clip-path="url(#p4fa4971b14)" d="M 90 85.346115 
L 648 85.346115 
" style="fill:none;stroke:#b0b0b0;stroke-linecap:square;stroke-width:0.8;"/>
     </g>
     <g id="line2d_24">
      <g>
       <use style="stroke:#000000;stroke-width:0.8;" x="90" xlink:href="#m947113f608" y="85.346115"/>
      </g>
     </g>
     <g id="text_13">
      <!-- 0.6 -->
      <g transform="translate(68.864063 89.34299)scale(0.1 -0.1)">
       <use xlink:href="#MicrosoftYaHei-30"/>
       <use x="58.642578" xlink:href="#MicrosoftYaHei-2e"/>
       <use x="82.714844" xlink:href="#MicrosoftYaHei-36"/>
      </g>
     </g>
    </g>
    <g id="text_14">
     <!-- correlation -->
     <defs>
      <path d="M 45.84375 2.4375 
Q 39.65625 -1.265625 30.90625 -1.265625 
Q 19.1875 -1.265625 12.0625 6.25 
Q 4.9375 13.765625 4.9375 25.734375 
Q 4.9375 39.015625 12.625 47.140625 
Q 20.3125 55.28125 33.203125 55.28125 
Q 40.625 55.28125 45.90625 52.640625 
L 45.90625 43.171875 
Q 40.1875 47.359375 33.203125 47.359375 
Q 25 47.359375 19.84375 41.671875 
Q 14.703125 35.984375 14.703125 26.515625 
Q 14.703125 17.1875 19.5625 11.90625 
Q 24.421875 6.640625 32.671875 6.640625 
Q 39.65625 6.640625 45.84375 11.234375 
z
" id="MicrosoftYaHei-63"/>
      <path d="M 4.9375 26.421875 
Q 4.9375 39.796875 12.40625 47.53125 
Q 19.875 55.28125 32.671875 55.28125 
Q 44.828125 55.28125 51.734375 47.828125 
Q 58.640625 40.375 58.640625 27.25 
Q 58.640625 14.453125 51.265625 6.59375 
Q 43.890625 -1.265625 31.5 -1.265625 
Q 19.390625 -1.265625 12.15625 6.34375 
Q 4.9375 13.96875 4.9375 26.421875 
z
M 14.703125 26.703125 
Q 14.703125 17.390625 19.40625 12.015625 
Q 24.125 6.640625 32.078125 6.640625 
Q 40.28125 6.640625 44.578125 11.890625 
Q 48.875 17.140625 48.875 26.953125 
Q 48.875 36.8125 44.578125 42.078125 
Q 40.28125 47.359375 32.078125 47.359375 
Q 24.03125 47.359375 19.359375 41.84375 
Q 14.703125 36.328125 14.703125 26.703125 
z
" id="MicrosoftYaHei-6f"/>
      <path d="M 37.5 44.53125 
Q 35.109375 46.234375 30.90625 46.234375 
Q 25.34375 46.234375 21.71875 41.03125 
Q 18.109375 35.84375 18.109375 27.34375 
L 18.109375 0 
L 8.546875 0 
L 8.546875 54 
L 18.109375 54 
L 18.109375 43.015625 
L 18.3125 43.015625 
Q 22.40625 54.9375 32.46875 54.9375 
Q 35.75 54.9375 37.5 54.203125 
z
" id="MicrosoftYaHei-72"/>
      <path d="M 52.546875 24.5625 
L 14.75 24.5625 
Q 14.984375 15.921875 19.46875 11.203125 
Q 23.96875 6.5 32.03125 6.5 
Q 41.109375 6.5 48.6875 12.3125 
L 48.6875 3.765625 
Q 41.546875 -1.265625 29.78125 -1.265625 
Q 18.0625 -1.265625 11.5 6.15625 
Q 4.9375 13.578125 4.9375 26.765625 
Q 4.9375 39.15625 12.140625 47.21875 
Q 19.34375 55.28125 30.03125 55.28125 
Q 40.625 55.28125 46.578125 48.46875 
Q 52.546875 41.65625 52.546875 29.390625 
z
M 42.96875 32.234375 
Q 42.921875 39.546875 39.5 43.546875 
Q 36.078125 47.5625 29.890625 47.5625 
Q 24.171875 47.5625 20 43.3125 
Q 15.828125 39.0625 14.75 32.234375 
z
" id="MicrosoftYaHei-65"/>
      <path d="M 8.5 0 
L 8.5 79.9375 
L 18.0625 79.9375 
L 18.0625 0 
z
" id="MicrosoftYaHei-6c"/>
      <path d="M 34.46875 0.53125 
Q 31.34375 -1.171875 26.03125 -1.171875 
Q 11.53125 -1.171875 11.53125 14.890625 
L 11.53125 46.09375 
L 2.25 46.09375 
L 2.25 54 
L 11.53125 54 
L 11.53125 67 
L 21.046875 70.015625 
L 21.046875 54 
L 34.46875 54 
L 34.46875 46.09375 
L 21.046875 46.09375 
L 21.046875 16.609375 
Q 21.046875 11.28125 22.84375 8.984375 
Q 24.65625 6.6875 28.859375 6.6875 
Q 32.078125 6.6875 34.46875 8.5 
z
" id="MicrosoftYaHei-74"/>
      <path d="M 54.203125 0 
L 44.671875 0 
L 44.671875 30.71875 
Q 44.671875 47.359375 32.515625 47.359375 
Q 26.21875 47.359375 22.15625 42.671875 
Q 18.109375 37.984375 18.109375 30.8125 
L 18.109375 0 
L 8.546875 0 
L 8.546875 54 
L 18.109375 54 
L 18.109375 45.0625 
L 18.3125 45.0625 
Q 24.421875 55.28125 36.03125 55.28125 
Q 44.921875 55.28125 49.5625 49.578125 
Q 54.203125 43.890625 54.203125 33.015625 
z
" id="MicrosoftYaHei-6e"/>
     </defs>
     <g transform="translate(62.378125 207.688281)rotate(-90)scale(0.1 -0.1)">
      <use xlink:href="#MicrosoftYaHei-63"/>
      <use x="50.146484" xlink:href="#MicrosoftYaHei-6f"/>
      <use x="113.720703" xlink:href="#MicrosoftYaHei-72"/>
      <use x="151.904297" xlink:href="#MicrosoftYaHei-72"/>
      <use x="190.072266" xlink:href="#MicrosoftYaHei-65"/>
      <use x="246.810547" xlink:href="#MicrosoftYaHei-6c"/>
      <use x="273.421875" xlink:href="#MicrosoftYaHei-61"/>
      <use x="328.695312" xlink:href="#MicrosoftYaHei-74"/>
      <use x="365.951172" xlink:href="#MicrosoftYaHei-69"/>
      <use x="392.5625" xlink:href="#MicrosoftYaHei-6f"/>
      <use x="456.136719" xlink:href="#MicrosoftYaHei-6e"/>
     </g>
    </g>
   </g>
   <g id="line2d_25">
    <path clip-path="url(#p4fa4971b14)" d="M 115.363636 307.8 
L 120.539889 267.930254 
L 125.716141 239.525844 
L 130.892393 218.200535 
L 136.068646 206.830984 
L 141.244898 202.814093 
L 146.42115 200.820926 
L 151.597403 196.677085 
L 156.773655 192.462151 
L 161.949907 190.891528 
L 167.12616 192.10001 
L 172.302412 192.870859 
L 177.478664 189.97089 
L 182.654917 191.224521 
L 187.831169 194.068691 
L 193.007421 196.501135 
L 198.183673 194.836775 
L 203.359926 195.253719 
L 208.536178 195.872813 
L 213.71243 196.033019 
L 218.888683 195.217935 
L 224.064935 195.918473 
L 229.241187 197.091795 
L 234.41744 197.704691 
L 239.593692 197.914375 
L 244.769944 196.55884 
L 249.946197 196.145165 
L 255.122449 195.742285 
L 260.298701 196.791789 
L 265.474954 197.58803 
L 270.651206 197.471426 
L 275.827458 196.69699 
L 281.003711 195.793652 
L 286.179963 196.4439 
L 291.356215 195.271938 
L 296.532468 195.079758 
L 301.70872 194.766061 
L 306.884972 194.394508 
L 312.061224 192.777019 
L 317.237477 190.761632 
L 322.413729 188.489683 
L 327.589981 186.633312 
L 332.766234 183.687745 
L 337.942486 179.008898 
L 343.118738 174.574959 
L 348.294991 170.817681 
L 353.471243 167.130019 
L 358.647495 162.182439 
L 363.823748 155.744926 
L 369 150.230223 
L 374.176252 145.358255 
L 379.352505 138.912866 
L 384.528757 133.250388 
L 389.705009 127.595761 
L 394.881262 122.280158 
L 400.057514 117.108765 
L 405.233766 112.972712 
L 410.410019 108.485842 
L 415.586271 103.635119 
L 420.762523 99.245399 
L 425.938776 94.930324 
L 431.115028 91.173939 
L 436.29128 86.404615 
L 441.467532 83.661641 
L 446.643785 80.011708 
L 451.820037 76.575314 
L 456.996289 74.645273 
L 462.172542 72.686117 
L 467.348794 70.696585 
L 472.525046 67.859395 
L 477.701299 65.844836 
L 482.877551 63.842329 
L 488.053803 62.704997 
L 493.230056 61.580422 
L 498.406308 61.616382 
L 503.58256 62.113841 
L 508.758813 62.587598 
L 513.935065 61.340522 
L 519.111317 60.371145 
L 524.28757 59.233375 
L 529.463822 58.88246 
L 534.640074 58.813842 
L 539.816327 58.959017 
L 544.992579 58.836924 
L 550.168831 58.336992 
L 555.345083 58.878372 
L 560.521336 58.487779 
L 565.697588 57.467574 
L 570.87384 56.130388 
L 576.050093 55.8 
L 581.226345 56.24595 
L 586.402597 56.584229 
L 591.57885 56.899269 
L 596.755102 58.711618 
L 601.931354 60.524117 
L 607.107607 62.304333 
L 612.283859 63.949764 
L 617.460111 64.249426 
L 622.636364 64.695067 
" style="fill:none;stroke:#1f77b4;stroke-linecap:square;stroke-width:1.5;"/>
   </g>
   <g id="patch_3">
    <path d="M 90 320.4 
L 90 43.2 
" style="fill:none;stroke:#000000;stroke-linecap:square;stroke-linejoin:miter;stroke-width:0.8;"/>
   </g>
   <g id="patch_4">
    <path d="M 648 320.4 
L 648 43.2 
" style="fill:none;stroke:#000000;stroke-linecap:square;stroke-linejoin:miter;stroke-width:0.8;"/>
   </g>
   <g id="patch_5">
    <path d="M 90 320.4 
L 648 320.4 
" style="fill:none;stroke:#000000;stroke-linecap:square;stroke-linejoin:miter;stroke-width:0.8;"/>
   </g>
   <g id="patch_6">
    <path d="M 90 43.2 
L 648 43.2 
" style="fill:none;stroke:#000000;stroke-linecap:square;stroke-linejoin:miter;stroke-width:0.8;"/>
   </g>
   <g id="text_15">
    <!-- 国泰纳斯达克100ETF vs 中欧医疗健康混合A -->
    <defs>
     <path d="M 7.328125 78.078125 
L 92.78125 78.078125 
L 92.78125 -13.03125 
L 85.25 -13.03125 
L 85.25 -8.15625 
L 14.84375 -8.15625 
L 14.84375 -13.140625 
L 7.328125 -13.140625 
z
M 85.25 71.140625 
L 14.84375 71.140625 
L 14.84375 -1.21875 
L 85.25 -1.21875 
z
M 19.34375 15.765625 
L 46.296875 15.765625 
L 46.296875 35.109375 
L 22.75 35.109375 
L 22.75 41.75 
L 46.296875 41.75 
L 46.296875 54.828125 
L 20.90625 54.828125 
L 20.90625 61.46875 
L 79.109375 61.46875 
L 79.109375 54.828125 
L 53.515625 54.828125 
L 53.515625 41.75 
L 77.15625 41.75 
L 77.15625 35.109375 
L 53.515625 35.109375 
L 53.515625 15.765625 
L 80.671875 15.765625 
L 80.671875 9.125 
L 19.34375 9.125 
z
M 58.59375 28.859375 
L 64.0625 32.953125 
Q 69.4375 27.390625 73.25 22.515625 
L 67.484375 18.109375 
Q 62.796875 24.46875 58.59375 28.859375 
z
" id="MicrosoftYaHei-56fd"/>
     <path d="M 58.015625 20.171875 
Q 64.890625 23.4375 71 27.25 
Q 65.765625 32.171875 62.203125 38.140625 
L 37.15625 38.140625 
Q 32.90625 32.671875 27.390625 27.6875 
Q 34.1875 23.78125 40.71875 19.578125 
L 36.03125 13.625 
Q 29.34375 18.359375 21.921875 23.046875 
Q 14.5 17.28125 5.171875 12.15625 
Q 3.21875 15.28125 0.484375 19 
Q 16.890625 26.859375 27.25 38.140625 
L 2.4375 38.140625 
L 2.4375 44.390625 
L 32.328125 44.390625 
Q 35.546875 48.828125 37.9375 53.765625 
L 9.765625 53.765625 
L 9.765625 60.015625 
L 40.578125 60.015625 
Q 42 63.8125 43.109375 68.109375 
L 6.25 68.109375 
L 6.25 74.359375 
L 44.53125 74.359375 
Q 45.40625 78.65625 46 83.453125 
L 53.90625 82.375 
Q 53.171875 78.125 52.390625 74.359375 
L 93.5625 74.359375 
L 93.5625 68.109375 
L 50.984375 68.109375 
Q 49.859375 63.625 48.640625 60.015625 
L 90.234375 60.015625 
L 90.234375 53.765625 
L 46.296875 53.765625 
Q 44.28125 48.921875 41.5 44.390625 
L 97.5625 44.390625 
L 97.5625 38.140625 
L 70.21875 38.140625 
Q 80.03125 26.078125 99.3125 20.75 
Q 96.578125 16.546875 94.4375 12.9375 
Q 84.1875 17 76.515625 22.609375 
Q 70.171875 18.609375 62.015625 14.40625 
Q 60.546875 16.75 58.015625 20.171875 
z
M 46.875 33.25 
L 54.5 33.25 
L 54.5 -0.25 
Q 54.5 -11.671875 42.578125 -11.671875 
Q 37.59375 -11.671875 30.671875 -11.46875 
Q 30.28125 -8.15625 29.5 -3.375 
Q 36.8125 -4.15625 41.3125 -4.15625 
Q 46.875 -4.15625 46.875 1.03125 
z
M 55.859375 7.078125 
L 58.890625 13.03125 
Q 76.46875 7.671875 92.1875 2 
L 88.671875 -5.328125 
Q 72.75 1.421875 55.859375 7.078125 
z
M 42.578125 13.03125 
Q 43.359375 9.125 44.234375 6.5 
Q 24.125 0.53125 10.546875 -3.765625 
L 8.109375 3.265625 
Q 22.953125 6.984375 42.578125 13.03125 
z
" id="MicrosoftYaHei-6cf0"/>
     <path d="M 46.390625 -12.359375 
L 38.96875 -12.359375 
L 38.96875 65.578125 
L 63.421875 65.578125 
Q 63.484375 73.6875 63.484375 82.953125 
L 71 82.953125 
Q 71 73.53125 70.90625 65.578125 
L 95.125 65.578125 
L 95.125 -0.4375 
Q 95.125 -11.28125 84.671875 -11.28125 
L 70.21875 -11.28125 
Q 69.734375 -8.0625 68.75 -3.65625 
Q 77.25 -4.25 81.734375 -4.25 
Q 87.703125 -4.25 87.703125 0.921875 
L 87.703125 17.625 
Q 84.90625 15.375 81.84375 12.640625 
Q 74.125 23.734375 66.609375 32.953125 
Q 61.46875 18.5 50.09375 9.125 
Q 48.4375 11.328125 46.390625 13.875 
z
M 13.96875 24.46875 
Q 23.53125 25.828125 34.671875 27.78125 
Q 34.078125 24.171875 33.796875 20.265625 
Q 25 19 4.984375 15.671875 
L 3.421875 23 
Q 10.40625 30.375 18.5 43.609375 
Q 11.53125 43.21875 3.421875 42.53125 
L 1.5625 49.171875 
Q 10.546875 61.1875 20.21875 83.84375 
L 27.640625 80.90625 
Q 17.09375 60.203125 10.359375 49.75 
Q 16.9375 49.90625 22.3125 50.046875 
Q 25.640625 55.8125 29.109375 62.453125 
L 36.328125 58.84375 
Q 25.203125 40.28125 13.96875 24.46875 
z
M 63.375 58.9375 
L 46.390625 58.9375 
L 46.390625 16.546875 
Q 62.9375 30.171875 63.375 58.9375 
z
M 68.953125 41.3125 
Q 78.515625 30.421875 87.703125 18.84375 
L 87.703125 58.9375 
L 70.796875 58.9375 
Q 70.703125 49.421875 68.953125 41.3125 
z
M 1.375 1.703125 
Q 17.09375 4.640625 34.96875 8.546875 
Q 34.671875 4.640625 34.671875 1.21875 
Q 19.4375 -1.703125 3.515625 -5.609375 
z
" id="MicrosoftYaHei-7eb3"/>
     <path d="M 2.046875 19 
L 9.578125 19 
L 9.578125 64.109375 
L 2.734375 64.109375 
L 2.734375 70.75 
L 9.578125 70.75 
L 9.578125 82.375 
L 16.796875 82.375 
L 16.796875 70.75 
L 37.109375 70.75 
L 37.109375 82.375 
L 44.34375 82.375 
L 44.34375 70.75 
L 51.5625 70.75 
L 51.5625 64.109375 
L 44.34375 64.109375 
L 44.34375 19 
L 51.65625 19 
L 51.65625 12.359375 
L 2.046875 12.359375 
z
M 57.03125 74.265625 
Q 77.9375 76.3125 93.265625 80.03125 
L 96.296875 72.796875 
Q 80.859375 69.875 64.265625 68.21875 
L 64.265625 47.125 
L 98.046875 47.125 
L 98.046875 40.28125 
L 86.921875 40.28125 
L 86.921875 -12.75 
L 79.6875 -12.75 
L 79.6875 40.28125 
L 64.265625 40.28125 
Q 64.109375 6.6875 52.4375 -12.15625 
Q 49.8125 -9.421875 46.296875 -6.6875 
Q 57.03125 9.625 57.03125 39.59375 
z
M 16.796875 19 
L 37.109375 19 
L 37.109375 29.9375 
L 16.796875 29.9375 
z
M 16.796875 53.265625 
L 37.109375 53.265625 
L 37.109375 64.109375 
L 16.796875 64.109375 
z
M 16.796875 36.1875 
L 37.109375 36.1875 
L 37.109375 47.015625 
L 16.796875 47.015625 
z
M 17.1875 10.109375 
L 23.140625 5.421875 
Q 13.96875 -5.90625 6.546875 -12.640625 
Q 4.5 -10.296875 1.171875 -7.46875 
Q 10.359375 0.640625 17.1875 10.109375 
z
M 30.171875 6.109375 
L 35.25 10.59375 
Q 41.21875 5.125 46.96875 -0.921875 
L 41.40625 -6 
Q 36.140625 0.140625 30.171875 6.109375 
z
" id="MicrosoftYaHei-65af"/>
     <path d="M 42.484375 -3.765625 
Q 69.53125 -4.046875 98.734375 -3.375 
Q 97.078125 -7.28125 95.515625 -10.890625 
Q 68.75 -11.28125 41.21875 -10.796875 
Q 24.90625 -10.59375 17 0.34375 
Q 14.15625 -1.90625 5.5625 -12.15625 
L 1.375 -3.859375 
Q 7.421875 1.609375 13.484375 6.78125 
L 13.484375 40.875 
L 2.34375 40.875 
L 2.34375 48 
L 21.09375 48 
L 21.09375 5.328125 
Q 28.21875 -3.375 42.484375 -3.765625 
z
M 29.296875 59.234375 
L 56.25 59.234375 
L 56.25 82.28125 
L 64.0625 82.28125 
L 64.0625 59.234375 
L 94.53125 59.234375 
L 94.53125 52.09375 
L 63.875 52.09375 
Q 63.484375 44.96875 61.921875 38.625 
Q 78.8125 25.046875 93.84375 9.625 
L 87.984375 3.078125 
Q 74.8125 18.015625 59.765625 31.59375 
Q 52.546875 12.15625 32.515625 1.125 
Q 29.890625 4.734375 27.046875 7.5625 
Q 53.90625 21.921875 56.0625 52.09375 
L 29.296875 52.09375 
z
M 11.421875 81.890625 
Q 20.015625 71.625 26.265625 63.03125 
L 19.4375 58.15625 
Q 12.984375 67.921875 5.375 77.484375 
z
" id="MicrosoftYaHei-8fbe"/>
     <path d="M 15.046875 54.828125 
L 46.1875 54.828125 
L 46.1875 65.1875 
L 2.546875 65.1875 
L 2.546875 72.015625 
L 46.1875 72.015625 
L 46.1875 83.34375 
L 54 83.34375 
L 54 72.015625 
L 97.171875 72.015625 
L 97.171875 65.1875 
L 54 65.1875 
L 54 54.828125 
L 85.9375 54.828125 
L 85.9375 18.890625 
L 78.515625 18.890625 
L 78.515625 22.515625 
L 65.140625 22.515625 
L 65.140625 2.296875 
Q 65.140625 -4.046875 71.09375 -4.046875 
L 82.125 -4.046875 
Q 88.671875 -4.046875 89.265625 0.734375 
Q 90.046875 5.8125 90.328125 13.421875 
Q 93.84375 12.0625 98.4375 10.5 
Q 97.953125 4.734375 96.6875 -2.484375 
Q 95.3125 -11.078125 82.625 -11.078125 
L 69.625 -11.078125 
Q 57.234375 -11.078125 57.234375 1.3125 
L 57.234375 22.515625 
L 42.28125 22.515625 
Q 40.875 7.03125 33.796875 -0.140625 
Q 25.09375 -8.9375 6.453125 -13.328125 
Q 4.5 -10.203125 1.859375 -6.203125 
Q 20.703125 -2.296875 27.640625 4.734375 
Q 33.640625 10.40625 34.578125 22.515625 
L 22.46875 22.515625 
L 22.46875 18.890625 
L 15.046875 18.890625 
z
M 78.515625 48 
L 22.46875 48 
L 22.46875 29.34375 
L 78.515625 29.34375 
z
" id="MicrosoftYaHei-514b"/>
     <path d="M 50.4375 0 
L 9.765625 0 
L 9.765625 75.640625 
L 48.734375 75.640625 
L 48.734375 66.9375 
L 19.53125 66.9375 
L 19.53125 42.71875 
L 46.578125 42.71875 
L 46.578125 34.078125 
L 19.53125 34.078125 
L 19.53125 8.640625 
L 50.4375 8.640625 
z
" id="MicrosoftYaHei-45"/>
     <path d="M 55.46875 66.9375 
L 33.640625 66.9375 
L 33.640625 0 
L 23.828125 0 
L 23.828125 66.9375 
L 2.09375 66.9375 
L 2.09375 75.640625 
L 55.46875 75.640625 
z
" id="MicrosoftYaHei-54"/>
     <path d="M 48.734375 66.9375 
L 19.53125 66.9375 
L 19.53125 41.65625 
L 46.578125 41.65625 
L 46.578125 33.0625 
L 19.53125 33.0625 
L 19.53125 0 
L 9.765625 0 
L 9.765625 75.640625 
L 48.734375 75.640625 
z
" id="MicrosoftYaHei-46"/>
     <path d="M 52.046875 54 
L 30.671875 0 
L 21 0 
L 0.6875 54 
L 11.140625 54 
L 24.3125 15.4375 
Q 25.921875 10.796875 26.21875 7.671875 
L 26.46875 7.671875 
Q 26.953125 11.765625 28.171875 15.234375 
L 42 54 
z
" id="MicrosoftYaHei-76"/>
     <path d="M 8.203125 62.0625 
L 45.796875 62.0625 
L 45.796875 83.34375 
L 54.203125 83.34375 
L 54.203125 62.0625 
L 92.1875 62.0625 
L 92.1875 17.53125 
L 84.1875 17.53125 
L 84.1875 22.796875 
L 54.203125 22.796875 
L 54.203125 -13.53125 
L 45.796875 -13.53125 
L 45.796875 22.796875 
L 16.21875 22.796875 
L 16.21875 17.53125 
L 8.203125 17.53125 
z
M 84.1875 54.828125 
L 54.203125 54.828125 
L 54.203125 30.03125 
L 84.1875 30.03125 
z
M 16.21875 30.03125 
L 45.796875 30.03125 
L 45.796875 54.828125 
L 16.21875 54.828125 
z
" id="MicrosoftYaHei-4e2d"/>
     <path d="M 6.25 74.859375 
L 47.46875 74.859375 
L 47.46875 67.625 
L 13.484375 67.625 
L 13.484375 4.9375 
L 45.703125 4.9375 
L 45.703125 -2.296875 
L 6.25 -2.296875 
z
M 67.28125 57.5625 
L 74.609375 57.5625 
Q 74.65625 50.78125 74.421875 45.171875 
Q 78.078125 6.109375 98.734375 -5.90625 
Q 95.609375 -9.328125 92.671875 -12.640625 
Q 76.375 -0.734375 71.390625 25.828125 
Q 66.359375 1.3125 46.390625 -13.140625 
Q 43.359375 -9.328125 41.015625 -6.78125 
Q 63.875 8.640625 66.796875 37.0625 
Q 67.28125 42.71875 67.28125 57.5625 
z
M 82.90625 42.328125 
Q 86.921875 54.828125 89.15625 62.359375 
L 61.71875 62.359375 
Q 57.8125 50.046875 53.125 39.796875 
Q 50 41.453125 46.578125 42.828125 
Q 55.28125 61.1875 59.578125 83.0625 
L 67 81.59375 
Q 65.53125 75.390625 63.875 69.578125 
L 96.78125 69.578125 
L 96.78125 61.96875 
Q 93.5625 51.703125 90.046875 40.1875 
Q 86.234375 41.546875 82.90625 42.328125 
z
M 17.1875 56.296875 
L 23.046875 59.515625 
Q 28.078125 51.46875 32.46875 44.390625 
Q 36.859375 53.609375 40.71875 62.9375 
L 47.5625 59.8125 
Q 42.140625 47.65625 36.921875 37.25 
Q 44.625 24.8125 50.203125 15.765625 
L 43.65625 11.859375 
Q 38.8125 20.21875 33.109375 29.78125 
Q 27.640625 19.4375 22.46875 11.078125 
Q 19.4375 13.03125 16.5 14.5 
Q 23.09375 25.6875 28.8125 36.96875 
Q 23.390625 46.140625 17.1875 56.296875 
z
" id="MicrosoftYaHei-6b27"/>
     <path d="M 9.078125 77.984375 
L 96 77.984375 
L 96 70.5625 
L 17.09375 70.5625 
L 17.09375 -1.609375 
L 97.078125 -1.609375 
L 97.078125 -9.03125 
L 9.078125 -9.03125 
z
M 22.359375 35.984375 
L 53.21875 35.984375 
Q 54.78125 42.625 54.890625 51.421875 
L 38.765625 51.421875 
Q 34.28125 43.703125 29.203125 37.546875 
Q 26.375 39.984375 22.859375 42.625 
Q 33.203125 54.046875 39.359375 69.578125 
L 46.6875 66.9375 
Q 44.734375 62.453125 42.578125 58.453125 
L 90.328125 58.453125 
L 90.328125 51.421875 
L 62.703125 51.421875 
Q 62.59375 42.828125 61.328125 35.984375 
L 94.828125 35.984375 
L 94.828125 28.953125 
L 59.671875 28.953125 
Q 59.078125 27 58.5 25.34375 
Q 74.515625 17.828125 92.28125 7.5625 
L 87.5 0.140625 
Q 72.953125 9.421875 55.28125 19.28125 
Q 46.96875 6.890625 26.5625 -0.828125 
Q 24.3125 2.390625 21.296875 5.8125 
Q 46.484375 15.28125 51.078125 28.953125 
L 22.359375 28.953125 
z
" id="MicrosoftYaHei-533b"/>
     <path d="M 50.6875 80.125 
L 57.71875 83.546875 
Q 61.234375 77.484375 64.15625 71.625 
L 98.4375 71.625 
L 98.4375 64.59375 
L 24.90625 64.59375 
L 24.90625 37.25 
Q 24.90625 2.203125 11.71875 -13.921875 
Q 8.890625 -10.203125 5.859375 -7.28125 
Q 15.234375 5.125 17.09375 26.125 
Q 8.203125 20.65625 3.328125 17.625 
L 1.46875 25.828125 
Q 9.375 29.640625 17.578125 34.234375 
L 17.578125 71.625 
L 55.46875 71.625 
Q 52.9375 76.609375 50.6875 80.125 
z
M 58.796875 32.375 
L 79.109375 45.953125 
L 31.0625 45.953125 
L 31.0625 52.875 
L 91.21875 52.875 
L 91.21875 45.84375 
L 66.40625 28.65625 
L 66.40625 0.4375 
Q 66.40625 -11.1875 55.171875 -11.1875 
Q 51.265625 -11.1875 38.875 -10.984375 
Q 38.578125 -6.78125 37.703125 -2.6875 
Q 47.359375 -3.65625 53.125 -3.65625 
Q 58.796875 -3.65625 58.796875 2.09375 
z
M 1.859375 59.03125 
L 8.015625 61.375 
Q 11.53125 53.5625 15.234375 42.71875 
L 8.40625 40.1875 
Q 5.375 50.4375 1.859375 59.03125 
z
" id="MicrosoftYaHei-7597"/>
     <path d="M 47.953125 15.578125 
L 65.53125 15.578125 
L 65.53125 24.171875 
L 50.203125 24.171875 
L 50.203125 29.640625 
L 65.53125 29.640625 
L 65.53125 38.234375 
L 51.5625 38.234375 
L 51.5625 43.703125 
L 65.53125 43.703125 
L 65.53125 52.203125 
L 46.6875 52.203125 
L 46.6875 57.859375 
L 65.53125 57.859375 
L 65.53125 66.359375 
L 51.765625 66.359375 
L 51.765625 71.828125 
L 65.53125 71.828125 
L 65.53125 81.984375 
L 72.171875 81.984375 
L 72.171875 71.828125 
L 89.75 71.828125 
L 89.75 57.859375 
L 97.859375 57.859375 
L 97.859375 52.203125 
L 89.75 52.203125 
L 89.75 35.890625 
L 83.203125 35.890625 
L 83.203125 38.234375 
L 72.171875 38.234375 
L 72.171875 29.640625 
L 91.40625 29.640625 
L 91.40625 24.171875 
L 72.171875 24.171875 
L 72.171875 15.578125 
L 92.875 15.578125 
L 92.875 10.109375 
L 72.171875 10.109375 
L 72.171875 -0.046875 
L 65.53125 -0.046875 
L 65.53125 10.109375 
L 47.953125 10.109375 
z
M 28.90625 30.609375 
Q 31.15625 20.265625 35.640625 13.140625 
Q 39.9375 23.96875 40.140625 37.0625 
L 25.59375 37.0625 
L 25.59375 43.5 
L 39.0625 65.96875 
L 26.171875 65.96875 
L 26.171875 72.21875 
L 46.875 72.21875 
L 46.875 65.875 
L 33.296875 43.3125 
L 46.875 43.3125 
L 46.875 36.578125 
Q 46.484375 20.265625 40.53125 6.984375 
Q 50.984375 -3.375 69.234375 -2.78125 
Q 83.40625 -2.984375 98.734375 -2.203125 
Q 97.265625 -5.90625 95.703125 -10.015625 
Q 82.234375 -10.015625 68.453125 -9.8125 
Q 48.828125 -10.109375 37.203125 0.53125 
Q 32.8125 -6.984375 26.375 -13.53125 
Q 23.640625 -10.296875 21.1875 -8.15625 
Q 27.9375 -1.609375 32.328125 6.109375 
Q 25.984375 14.796875 23.140625 28.171875 
z
M 0.875 35.296875 
Q 13.578125 56.296875 19.140625 82.671875 
L 25.875 81 
Q 23.25 69 19.140625 57.953125 
L 19.140625 -12.75 
L 12.703125 -12.75 
L 12.703125 43.015625 
Q 8.6875 35.015625 3.90625 27.59375 
Q 2.640625 31.78125 0.875 35.296875 
z
M 83.203125 43.703125 
L 83.203125 52.203125 
L 72.171875 52.203125 
L 72.171875 43.703125 
z
M 83.203125 66.359375 
L 72.171875 66.359375 
L 72.171875 57.859375 
L 83.203125 57.859375 
z
" id="MicrosoftYaHei-5065"/>
     <path d="M 48.4375 79.9375 
L 55.171875 83.546875 
Q 58.109375 78.859375 61.421875 73 
L 96.78125 73 
L 96.78125 66.546875 
L 18.953125 66.546875 
L 18.953125 44.78125 
L 51.859375 44.78125 
L 51.859375 52.09375 
L 25.09375 52.09375 
L 25.09375 57.953125 
L 51.859375 57.953125 
L 51.859375 64.40625 
L 58.890625 64.40625 
L 58.890625 57.953125 
L 87.015625 57.953125 
L 87.015625 44.78125 
L 98.046875 44.78125 
L 98.046875 38.8125 
L 87.015625 38.8125 
L 87.015625 23.484375 
L 80.375 23.484375 
L 80.375 25.53125 
L 58.890625 25.53125 
L 58.890625 23.390625 
Q 63.671875 17.53125 69.140625 12.75 
Q 79.109375 17.921875 86.921875 22.90625 
L 91.5 17.140625 
Q 83.6875 12.9375 74.421875 8.546875 
Q 84.671875 0.828125 97.078125 -3.171875 
Q 94.140625 -7.078125 92.1875 -10.015625 
Q 70.609375 -0.53125 58.890625 13.921875 
L 58.890625 -2.09375 
Q 58.890625 -12.453125 48.140625 -12.453125 
Q 43.65625 -12.453125 36.328125 -12.25 
Q 35.9375 -8.25 35.15625 -4.546875 
Q 43.0625 -5.21875 46.96875 -5.21875 
Q 51.65625 -5.21875 51.859375 -0.34375 
L 51.859375 5.515625 
Q 36.71875 0.4375 19.140625 -5.515625 
L 17.28125 1.421875 
Q 37.40625 7.28125 51.859375 12.25 
L 51.859375 25.53125 
L 24.515625 25.53125 
L 24.515625 31.390625 
L 51.859375 31.390625 
L 51.859375 38.8125 
L 18.953125 38.8125 
L 18.953125 36.375 
Q 18.953125 5.125 6.734375 -13.328125 
Q 4.296875 -10.015625 1.375 -6.6875 
Q 11.53125 9.421875 11.53125 35.984375 
L 11.53125 73 
L 52.640625 73 
Q 50.6875 76.21875 48.4375 79.9375 
z
M 80.375 31.390625 
L 80.375 38.8125 
L 58.890625 38.8125 
L 58.890625 31.390625 
z
M 80.375 52.09375 
L 58.890625 52.09375 
L 58.890625 44.78125 
L 80.375 44.78125 
z
M 23.921875 18.3125 
L 27.828125 23.09375 
Q 35.546875 18.703125 41.40625 14.40625 
L 36.921875 8.9375 
Q 31.0625 13.8125 23.921875 18.3125 
z
" id="MicrosoftYaHei-5eb7"/>
     <path d="M 38.28125 35.984375 
L 30.859375 35.984375 
L 30.859375 78.171875 
L 89.84375 78.171875 
L 89.84375 35.40625 
L 82.421875 35.40625 
L 82.421875 39.40625 
L 38.28125 39.40625 
z
M 62.3125 34.234375 
L 69.53125 34.234375 
L 69.53125 18.359375 
Q 81.984375 25.046875 91.40625 31.59375 
L 96.09375 25.140625 
Q 86.1875 19.09375 69.53125 10.5 
L 69.53125 3.171875 
Q 69.53125 -3.078125 75 -3.078125 
L 82.125 -3.078125 
Q 86.921875 -3.078125 87.890625 0.140625 
Q 89.359375 5.125 90.53125 14.109375 
Q 94.046875 12.546875 97.859375 11.375 
Q 95.90625 0.921875 94.828125 -2.78125 
Q 92.875 -10.5 83.015625 -10.5 
L 74.03125 -10.5 
Q 62.3125 -10.5 62.3125 1.703125 
z
M 58.40625 6.109375 
Q 58.296875 1.90625 58.40625 -1.3125 
Q 47.65625 -5.609375 40.625 -8.640625 
Q 36.421875 -10.5 33.59375 -12.453125 
L 29.203125 -6.109375 
Q 31.640625 -4.828125 31.640625 0.53125 
L 31.640625 33.453125 
L 38.875 33.453125 
L 38.875 23.875 
L 59.1875 23.875 
L 59.1875 17.046875 
L 38.875 17.046875 
L 38.875 -1.515625 
Q 48.4375 2.09375 58.40625 6.109375 
z
M 82.421875 71.4375 
L 38.28125 71.4375 
L 38.28125 62.15625 
L 82.421875 62.15625 
z
M 38.28125 46.140625 
L 82.421875 46.140625 
L 82.421875 55.421875 
L 38.28125 55.421875 
z
M 15.328125 28.953125 
Q 19.4375 27.09375 23.34375 25.53125 
Q 18.75 9.625 11.921875 -11.96875 
L 3.609375 -8.84375 
Q 10.453125 9.421875 15.328125 28.953125 
z
M 6.34375 56.984375 
Q 16.109375 51.03125 23.921875 45.0625 
Q 22.46875 43.609375 18.65625 38.625 
Q 11.71875 44.484375 1.5625 51.421875 
z
M 10.15625 81.390625 
Q 22.171875 73.1875 27.546875 69 
Q 24.515625 65.484375 22.265625 62.84375 
Q 13.765625 70.0625 5.5625 76.03125 
z
" id="MicrosoftYaHei-6df7"/>
     <path d="M 16.015625 29.828125 
L 84.078125 29.828125 
L 84.078125 -13.53125 
L 76.265625 -13.53125 
L 76.265625 -6.984375 
L 23.828125 -6.984375 
L 23.828125 -13.71875 
L 16.015625 -13.71875 
z
M 57.8125 81.78125 
L 55.46875 78.953125 
Q 71.78125 57.765625 98.734375 47.015625 
Q 95.703125 42.71875 93.5625 39.203125 
Q 85.640625 43.015625 78.515625 47.796875 
L 78.515625 42.234375 
L 21.390625 42.234375 
L 21.390625 47.125 
Q 14.265625 42.4375 6.15625 37.9375 
Q 4.203125 41.265625 1.265625 45.265625 
Q 31.453125 60.40625 46.875 81.78125 
z
M 76.265625 22.703125 
L 23.828125 22.703125 
L 23.828125 -0.046875 
L 76.265625 -0.046875 
z
M 50.296875 73.296875 
Q 40.328125 60.5 24.21875 49.171875 
L 76.46875 49.171875 
Q 61.625 59.328125 50.296875 73.296875 
z
" id="MicrosoftYaHei-5408"/>
     <path d="M 69.1875 0 
L 58.40625 0 
L 50.6875 20.703125 
L 19.1875 20.703125 
L 11.921875 0 
L 1.125 0 
L 29.9375 75.640625 
L 40.375 75.640625 
z
M 47.65625 29.25 
L 36.234375 60.6875 
Q 35.6875 62.203125 35.0625 65.96875 
L 34.8125 65.96875 
Q 34.28125 62.546875 33.59375 60.6875 
L 22.265625 29.25 
z
" id="MicrosoftYaHei-41"/>
    </defs>
    <g transform="translate(250.81875 37.2)scale(0.12 -0.12)">
     <use xlink:href="#MicrosoftYaHei-56fd"/>
     <use x="100" xlink:href="#MicrosoftYaHei-6cf0"/>
     <use x="200" xlink:href="#MicrosoftYaHei-7eb3"/>
     <use x="300" xlink:href="#MicrosoftYaHei-65af"/>
     <use x="400" xlink:href="#MicrosoftYaHei-8fbe"/>
     <use x="500" xlink:href="#MicrosoftYaHei-514b"/>
     <use x="600" xlink:href="#MicrosoftYaHei-31"/>
     <use x="658.642578" xlink:href="#MicrosoftYaHei-30"/>
     <use x="717.285156" xlink:href="#MicrosoftYaHei-30"/>
     <use x="775.927734" xlink:href="#MicrosoftYaHei-45"/>
     <use x="830.908203" xlink:href="#MicrosoftYaHei-54"/>
     <use x="888.232422" xlink:href="#MicrosoftYaHei-46"/>
     <use x="941.357422" xlink:href="#MicrosoftYaHei-20"/>
     <use x="970.947266" xlink:href="#MicrosoftYaHei-76"/>
     <use x="1023.4375" xlink:href="#MicrosoftYaHei-73"/>
     <use x="1069.726562" xlink:href="#MicrosoftYaHei-20"/>
     <use x="1099.316406" xlink:href="#MicrosoftYaHei-4e2d"/>
     <use x="1199.316406" xlink:href="#MicrosoftYaHei-6b27"/>
     <use x="1299.316406" xlink:href="#MicrosoftYaHei-533b"/>
     <use x="1399.316406" xlink:href="#MicrosoftYaHei-7597"/>
     <use x="1499.316406" xlink:href="#MicrosoftYaHei-5065"/>
     <use x="1599.316406" xlink:href="#MicrosoftYaHei-5eb7"/>
     <use x="1699.316406" xlink:href="#MicrosoftYaHei-6df7"/>
     <use x="1799.316406" xlink:href="#MicrosoftYaHei-5408"/>
     <use x="1899.316406" xlink:href="#MicrosoftYaHei-41"/>
    </g>
   </g>
  </g>
 </g>
 <defs>
  <clipPath id="p4fa4971b14">
   <rect height="277.2" width="558" x="90" y="43.2"/>
  </clipPath>
 </defs>
</svg>
