<?xml version="1.0" encoding="utf-8" standalone="no"?>
<!DOCTYPE svg PUBLIC "-//W3C//DTD SVG 1.1//EN"
  "http://www.w3.org/Graphics/SVG/1.1/DTD/svg11.dtd">
<!-- Created with matplotlib (http://matplotlib.org/) -->
<svg height="432pt" version="1.1" viewBox="0 0 720 432" width="720pt" xmlns="http://www.w3.org/2000/svg" xmlns:xlink="http://www.w3.org/1999/xlink">
 <defs>
  <style type="text/css">
*{stroke-linecap:butt;stroke-linejoin:round;}
  </style>
 </defs>
 <g id="figure_1">
  <g id="patch_1">
   <path d="M 0 432 
L 720 432 
L 720 0 
L 0 0 
z
" style="fill:#ffffff;"/>
  </g>
  <g id="axes_1">
   <g id="patch_2">
    <path d="M 90 384.48 
L 648 384.48 
L 648 51.84 
L 90 51.84 
z
" style="fill:#ffffff;"/>
   </g>
   <g id="PathCollection_1">
    <defs>
     <path d="M 0 2.236068 
C 0.593012 2.236068 1.161816 2.000462 1.581139 1.581139 
C 2.000462 1.161816 2.236068 0.593012 2.236068 0 
C 2.236068 -0.593012 2.000462 -1.161816 1.581139 -1.581139 
C 1.161816 -2.000462 0.593012 -2.236068 0 -2.236068 
C -0.593012 -2.236068 -1.161816 -2.000462 -1.581139 -1.581139 
C -2.000462 -1.161816 -2.236068 -0.593012 -2.236068 0 
C -2.236068 0.593012 -2.000462 1.161816 -1.581139 1.581139 
C -1.161816 2.000462 -0.593012 2.236068 0 2.236068 
z
" id="m315e28723f" style="stroke:#1f77b4;"/>
    </defs>
    <g clip-path="url(#p6d7f533e62)">
     <use style="fill:#1f77b4;stroke:#1f77b4;" x="360.237194" xlink:href="#m315e28723f" y="283.26483"/>
     <use style="fill:#1f77b4;stroke:#1f77b4;" x="369.876127" xlink:href="#m315e28723f" y="296.094406"/>
     <use style="fill:#1f77b4;stroke:#1f77b4;" x="246.426552" xlink:href="#m315e28723f" y="261.359076"/>
     <use style="fill:#1f77b4;stroke:#1f77b4;" x="145.85249" xlink:href="#m315e28723f" y="351.018493"/>
     <use style="fill:#1f77b4;stroke:#1f77b4;" x="249.339673" xlink:href="#m315e28723f" y="250.085605"/>
     <use style="fill:#1f77b4;stroke:#1f77b4;" x="592.14751" xlink:href="#m315e28723f" y="85.301507"/>
     <use style="fill:#1f77b4;stroke:#1f77b4;" x="206.248528" xlink:href="#m315e28723f" y="325.257093"/>
     <use style="fill:#1f77b4;stroke:#1f77b4;" x="330.367193" xlink:href="#m315e28723f" y="244.416101"/>
    </g>
   </g>
   <g id="matplotlib.axis_1">
    <g id="xtick_1">
     <g id="line2d_1">
      <path clip-path="url(#p6d7f533e62)" d="M 122.606314 384.48 
L 122.606314 51.84 
" style="fill:none;stroke:#b0b0b0;stroke-linecap:square;stroke-width:0.8;"/>
     </g>
     <g id="line2d_2">
      <defs>
       <path d="M 0 0 
L 0 3.5 
" id="m4ef7e8c806" style="stroke:#000000;stroke-width:0.8;"/>
      </defs>
      <g>
       <use style="stroke:#000000;stroke-width:0.8;" x="122.606314" xlink:href="#m4ef7e8c806" y="384.48"/>
      </g>
     </g>
     <g id="text_1">
      <!-- 0.00 -->
      <defs>
       <path d="M 4.4375 36.328125 
Q 4.4375 56.34375 11.078125 66.625 
Q 17.71875 76.90625 30.328125 76.90625 
Q 54.34375 76.90625 54.34375 38.140625 
Q 54.34375 19 47.578125 8.859375 
Q 40.828125 -1.265625 28.609375 -1.265625 
Q 17.09375 -1.265625 10.765625 8.34375 
Q 4.4375 17.96875 4.4375 36.328125 
z
M 14.203125 36.765625 
Q 14.203125 6.640625 29.5 6.640625 
Q 44.53125 6.640625 44.53125 37.25 
Q 44.53125 68.953125 29.78125 68.953125 
Q 14.203125 68.953125 14.203125 36.765625 
z
" id="MicrosoftYaHei-30"/>
       <path d="M 5.8125 5.03125 
Q 5.8125 7.671875 7.609375 9.46875 
Q 9.421875 11.28125 12.109375 11.28125 
Q 14.84375 11.28125 16.640625 9.453125 
Q 18.453125 7.625 18.453125 5.03125 
Q 18.453125 2.484375 16.640625 0.65625 
Q 14.84375 -1.171875 12.0625 -1.171875 
Q 9.375 -1.171875 7.59375 0.65625 
Q 5.8125 2.484375 5.8125 5.03125 
z
" id="MicrosoftYaHei-2e"/>
      </defs>
      <g transform="translate(112.606314 399.47375)scale(0.1 -0.1)">
       <use xlink:href="#MicrosoftYaHei-30"/>
       <use x="58.642578" xlink:href="#MicrosoftYaHei-2e"/>
       <use x="82.714844" xlink:href="#MicrosoftYaHei-30"/>
       <use x="141.357422" xlink:href="#MicrosoftYaHei-30"/>
      </g>
     </g>
    </g>
    <g id="xtick_2">
     <g id="line2d_3">
      <path clip-path="url(#p6d7f533e62)" d="M 228.277796 384.48 
L 228.277796 51.84 
" style="fill:none;stroke:#b0b0b0;stroke-linecap:square;stroke-width:0.8;"/>
     </g>
     <g id="line2d_4">
      <g>
       <use style="stroke:#000000;stroke-width:0.8;" x="228.277796" xlink:href="#m4ef7e8c806" y="384.48"/>
      </g>
     </g>
     <g id="text_2">
      <!-- 0.01 -->
      <defs>
       <path d="M 52.59375 0 
L 9.234375 0 
L 9.234375 8.25 
L 26.171875 8.25 
L 26.171875 65.671875 
L 8.796875 60.640625 
L 8.796875 69.4375 
L 35.6875 77.25 
L 35.6875 8.25 
L 52.59375 8.25 
z
" id="MicrosoftYaHei-31"/>
      </defs>
      <g transform="translate(218.277796 399.47375)scale(0.1 -0.1)">
       <use xlink:href="#MicrosoftYaHei-30"/>
       <use x="58.642578" xlink:href="#MicrosoftYaHei-2e"/>
       <use x="82.714844" xlink:href="#MicrosoftYaHei-30"/>
       <use x="141.357422" xlink:href="#MicrosoftYaHei-31"/>
      </g>
     </g>
    </g>
    <g id="xtick_3">
     <g id="line2d_5">
      <path clip-path="url(#p6d7f533e62)" d="M 333.949277 384.48 
L 333.949277 51.84 
" style="fill:none;stroke:#b0b0b0;stroke-linecap:square;stroke-width:0.8;"/>
     </g>
     <g id="line2d_6">
      <g>
       <use style="stroke:#000000;stroke-width:0.8;" x="333.949277" xlink:href="#m4ef7e8c806" y="384.48"/>
      </g>
     </g>
     <g id="text_3">
      <!-- 0.02 -->
      <defs>
       <path d="M 51.171875 0 
L 5.171875 0 
L 5.171875 8.296875 
L 27.15625 30.21875 
Q 36.234375 39.3125 39.3125 44.609375 
Q 42.390625 49.90625 42.390625 55.5625 
Q 42.390625 62.015625 38.765625 65.453125 
Q 35.15625 68.890625 28.328125 68.890625 
Q 18.21875 68.890625 9.03125 60.296875 
L 9.03125 70.015625 
Q 17.96875 76.90625 29.828125 76.90625 
Q 40.046875 76.90625 45.953125 71.390625 
Q 51.859375 65.875 51.859375 56.546875 
Q 51.859375 49.515625 48.0625 42.75 
Q 44.28125 35.984375 33.734375 25.53125 
L 16.5 8.6875 
L 16.5 8.5 
L 51.171875 8.5 
z
" id="MicrosoftYaHei-32"/>
      </defs>
      <g transform="translate(323.949277 399.47375)scale(0.1 -0.1)">
       <use xlink:href="#MicrosoftYaHei-30"/>
       <use x="58.642578" xlink:href="#MicrosoftYaHei-2e"/>
       <use x="82.714844" xlink:href="#MicrosoftYaHei-30"/>
       <use x="141.357422" xlink:href="#MicrosoftYaHei-32"/>
      </g>
     </g>
    </g>
    <g id="xtick_4">
     <g id="line2d_7">
      <path clip-path="url(#p6d7f533e62)" d="M 439.620759 384.48 
L 439.620759 51.84 
" style="fill:none;stroke:#b0b0b0;stroke-linecap:square;stroke-width:0.8;"/>
     </g>
     <g id="line2d_8">
      <g>
       <use style="stroke:#000000;stroke-width:0.8;" x="439.620759" xlink:href="#m4ef7e8c806" y="384.48"/>
      </g>
     </g>
     <g id="text_4">
      <!-- 0.03 -->
      <defs>
       <path d="M 6.984375 12.640625 
Q 14.75 6.640625 24.515625 6.640625 
Q 32.328125 6.640625 36.890625 10.46875 
Q 41.453125 14.3125 41.453125 20.75 
Q 41.453125 35.109375 20.90625 35.109375 
L 14.59375 35.109375 
L 14.59375 43.015625 
L 20.609375 43.015625 
Q 38.8125 43.015625 38.8125 56.5 
Q 38.8125 68.953125 24.90625 68.953125 
Q 16.9375 68.953125 9.90625 63.578125 
L 9.90625 72.609375 
Q 17.328125 76.90625 27.25 76.90625 
Q 36.921875 76.90625 42.78125 71.84375 
Q 48.640625 66.796875 48.640625 58.734375 
Q 48.640625 43.890625 33.5 39.65625 
L 33.5 39.453125 
Q 41.703125 38.578125 46.453125 33.671875 
Q 51.21875 28.765625 51.21875 21.4375 
Q 51.21875 11.234375 43.875 4.984375 
Q 36.53125 -1.265625 24.3125 -1.265625 
Q 13.578125 -1.265625 6.984375 2.734375 
z
" id="MicrosoftYaHei-33"/>
      </defs>
      <g transform="translate(429.620759 399.47375)scale(0.1 -0.1)">
       <use xlink:href="#MicrosoftYaHei-30"/>
       <use x="58.642578" xlink:href="#MicrosoftYaHei-2e"/>
       <use x="82.714844" xlink:href="#MicrosoftYaHei-30"/>
       <use x="141.357422" xlink:href="#MicrosoftYaHei-33"/>
      </g>
     </g>
    </g>
    <g id="xtick_5">
     <g id="line2d_9">
      <path clip-path="url(#p6d7f533e62)" d="M 545.292241 384.48 
L 545.292241 51.84 
" style="fill:none;stroke:#b0b0b0;stroke-linecap:square;stroke-width:0.8;"/>
     </g>
     <g id="line2d_10">
      <g>
       <use style="stroke:#000000;stroke-width:0.8;" x="545.292241" xlink:href="#m4ef7e8c806" y="384.48"/>
      </g>
     </g>
     <g id="text_5">
      <!-- 0.04 -->
      <defs>
       <path d="M 55.078125 19.625 
L 45.40625 19.625 
L 45.40625 0 
L 36.140625 0 
L 36.140625 19.625 
L 0.875 19.625 
L 0.875 25.828125 
L 34.328125 75.640625 
L 45.40625 75.640625 
L 45.40625 27.203125 
L 55.078125 27.203125 
z
M 36.140625 27.203125 
L 36.140625 58.890625 
Q 36.140625 62.25 36.328125 66.65625 
L 36.140625 66.65625 
Q 35.453125 64.796875 33.25 60.84375 
L 10.75 27.203125 
z
" id="MicrosoftYaHei-34"/>
      </defs>
      <g transform="translate(535.292241 399.47375)scale(0.1 -0.1)">
       <use xlink:href="#MicrosoftYaHei-30"/>
       <use x="58.642578" xlink:href="#MicrosoftYaHei-2e"/>
       <use x="82.714844" xlink:href="#MicrosoftYaHei-30"/>
       <use x="141.357422" xlink:href="#MicrosoftYaHei-34"/>
      </g>
     </g>
    </g>
    <g id="text_6">
     <!-- max_drawdown -->
     <defs>
      <path d="M 86.28125 0 
L 76.703125 0 
L 76.703125 31 
Q 76.703125 39.796875 73.96875 43.578125 
Q 71.234375 47.359375 64.984375 47.359375 
Q 59.71875 47.359375 55.953125 42.421875 
Q 52.203125 37.5 52.203125 30.765625 
L 52.203125 0 
L 42.625 0 
L 42.625 31.984375 
Q 42.625 47.359375 30.765625 47.359375 
Q 25.296875 47.359375 21.703125 42.671875 
Q 18.109375 37.984375 18.109375 30.71875 
L 18.109375 0 
L 8.546875 0 
L 8.546875 54 
L 18.109375 54 
L 18.109375 45.453125 
L 18.3125 45.453125 
Q 24.078125 55.28125 35.15625 55.28125 
Q 40.578125 55.28125 44.71875 52.296875 
Q 48.875 49.3125 50.484375 44.234375 
Q 56.5 55.28125 68.453125 55.28125 
Q 86.28125 55.28125 86.28125 33.296875 
z
" id="MicrosoftYaHei-6d"/>
      <path d="M 9.8125 50.25 
Q 17.875 55.28125 28.421875 55.28125 
Q 47.953125 55.28125 47.953125 34.765625 
L 47.953125 0 
L 38.484375 0 
L 38.484375 8.34375 
L 38.234375 8.34375 
Q 32.625 -1.265625 21.6875 -1.265625 
Q 13.8125 -1.265625 9.171875 2.984375 
Q 4.546875 7.234375 4.546875 14.453125 
Q 4.546875 29.59375 22.46875 32.078125 
L 38.484375 34.328125 
Q 38.484375 47.5625 27.546875 47.5625 
Q 17.828125 47.5625 9.8125 41.015625 
z
M 25.828125 25.390625 
Q 19.1875 24.515625 16.671875 22.0625 
Q 14.15625 19.625 14.15625 15.234375 
Q 14.15625 11.375 16.890625 8.9375 
Q 19.625 6.5 24.125 6.5 
Q 30.375 6.5 34.421875 10.890625 
Q 38.484375 15.28125 38.484375 21.921875 
L 38.484375 27.09375 
z
" id="MicrosoftYaHei-61"/>
      <path d="M 49.421875 54 
L 31.34375 26.8125 
L 49.171875 0 
L 38.03125 0 
L 27.734375 17.1875 
Q 26.90625 18.5625 25.390625 21.390625 
L 25.203125 21.390625 
Q 25.140625 21.09375 22.75 17.1875 
L 12.25 0 
L 1.265625 0 
L 19.625 26.515625 
L 2.09375 54 
L 13.234375 54 
L 23.34375 35.9375 
Q 24.265625 34.28125 25.59375 31.640625 
L 25.78125 31.640625 
L 38.921875 54 
z
" id="MicrosoftYaHei-78"/>
      <path d="M 44.828125 -15.671875 
L 0 -15.671875 
L 0 -9.375 
L 44.828125 -9.375 
z
" id="MicrosoftYaHei-5f"/>
      <path d="M 55.421875 0 
L 45.84375 0 
L 45.84375 8.984375 
L 45.65625 8.984375 
Q 39.75 -1.265625 27.296875 -1.265625 
Q 17.046875 -1.265625 10.984375 6.03125 
Q 4.9375 13.328125 4.9375 25.734375 
Q 4.9375 39.109375 11.765625 47.1875 
Q 18.609375 55.28125 29.640625 55.28125 
Q 40.671875 55.28125 45.65625 46.6875 
L 45.84375 46.6875 
L 45.84375 79.9375 
L 55.421875 79.9375 
z
M 45.90625 32.125 
Q 45.90625 38.625 41.625 42.984375 
Q 37.359375 47.359375 31.109375 47.359375 
Q 23.484375 47.359375 19.09375 41.671875 
Q 14.703125 35.984375 14.703125 26.171875 
Q 14.703125 17.140625 18.921875 11.890625 
Q 23.140625 6.640625 30.171875 6.640625 
Q 37.109375 6.640625 41.5 11.78125 
Q 45.90625 16.9375 45.90625 24.609375 
z
" id="MicrosoftYaHei-64"/>
      <path d="M 37.5 44.53125 
Q 35.109375 46.234375 30.90625 46.234375 
Q 25.34375 46.234375 21.71875 41.03125 
Q 18.109375 35.84375 18.109375 27.34375 
L 18.109375 0 
L 8.546875 0 
L 8.546875 54 
L 18.109375 54 
L 18.109375 43.015625 
L 18.3125 43.015625 
Q 22.40625 54.9375 32.46875 54.9375 
Q 35.75 54.9375 37.5 54.203125 
z
" id="MicrosoftYaHei-72"/>
      <path d="M 77.734375 54 
L 61.625 0 
L 51.65625 0 
L 40.921875 37.890625 
Q 40.234375 40.328125 40.046875 43.0625 
L 39.84375 43.0625 
Q 39.703125 41.015625 38.71875 37.984375 
L 27.09375 0 
L 17.4375 0 
L 1.21875 54 
L 11.1875 54 
L 21.96875 13.96875 
Q 22.46875 12.15625 22.703125 9.03125 
L 23.09375 9.03125 
Q 23.296875 11.71875 24.03125 14.109375 
L 35.640625 54 
L 44.484375 54 
L 55.8125 13.921875 
Q 56.296875 12.15625 56.59375 8.9375 
L 57.03125 8.9375 
Q 57.125 11.078125 57.90625 13.921875 
L 68.453125 54 
z
" id="MicrosoftYaHei-77"/>
      <path d="M 4.9375 26.421875 
Q 4.9375 39.796875 12.40625 47.53125 
Q 19.875 55.28125 32.671875 55.28125 
Q 44.828125 55.28125 51.734375 47.828125 
Q 58.640625 40.375 58.640625 27.25 
Q 58.640625 14.453125 51.265625 6.59375 
Q 43.890625 -1.265625 31.5 -1.265625 
Q 19.390625 -1.265625 12.15625 6.34375 
Q 4.9375 13.96875 4.9375 26.421875 
z
M 14.703125 26.703125 
Q 14.703125 17.390625 19.40625 12.015625 
Q 24.125 6.640625 32.078125 6.640625 
Q 40.28125 6.640625 44.578125 11.890625 
Q 48.875 17.140625 48.875 26.953125 
Q 48.875 36.8125 44.578125 42.078125 
Q 40.28125 47.359375 32.078125 47.359375 
Q 24.03125 47.359375 19.359375 41.84375 
Q 14.703125 36.328125 14.703125 26.703125 
z
" id="MicrosoftYaHei-6f"/>
      <path d="M 54.203125 0 
L 44.671875 0 
L 44.671875 30.71875 
Q 44.671875 47.359375 32.515625 47.359375 
Q 26.21875 47.359375 22.15625 42.671875 
Q 18.109375 37.984375 18.109375 30.8125 
L 18.109375 0 
L 8.546875 0 
L 8.546875 54 
L 18.109375 54 
L 18.109375 45.0625 
L 18.3125 45.0625 
Q 24.421875 55.28125 36.03125 55.28125 
Q 44.921875 55.28125 49.5625 49.578125 
Q 54.203125 43.890625 54.203125 33.015625 
z
" id="MicrosoftYaHei-6e"/>
     </defs>
     <g transform="translate(331.549219 413.953438)scale(0.1 -0.1)">
      <use xlink:href="#MicrosoftYaHei-6d"/>
      <use x="93.701172" xlink:href="#MicrosoftYaHei-61"/>
      <use x="148.974609" xlink:href="#MicrosoftYaHei-78"/>
      <use x="199.658203" xlink:href="#MicrosoftYaHei-5f"/>
      <use x="244.482422" xlink:href="#MicrosoftYaHei-64"/>
      <use x="308.447266" xlink:href="#MicrosoftYaHei-72"/>
      <use x="346.630859" xlink:href="#MicrosoftYaHei-61"/>
      <use x="401.904297" xlink:href="#MicrosoftYaHei-77"/>
      <use x="480.859375" xlink:href="#MicrosoftYaHei-64"/>
      <use x="544.824219" xlink:href="#MicrosoftYaHei-6f"/>
      <use x="608.398438" xlink:href="#MicrosoftYaHei-77"/>
      <use x="687.353516" xlink:href="#MicrosoftYaHei-6e"/>
     </g>
    </g>
   </g>
   <g id="matplotlib.axis_2">
    <g id="ytick_1">
     <g id="line2d_11">
      <path clip-path="url(#p6d7f533e62)" d="M 90 373.579676 
L 648 373.579676 
" style="fill:none;stroke:#b0b0b0;stroke-linecap:square;stroke-width:0.8;"/>
     </g>
     <g id="line2d_12">
      <defs>
       <path d="M 0 0 
L -3.5 0 
" id="m9302b54ebc" style="stroke:#000000;stroke-width:0.8;"/>
      </defs>
      <g>
       <use style="stroke:#000000;stroke-width:0.8;" x="90" xlink:href="#m9302b54ebc" y="373.579676"/>
      </g>
     </g>
     <g id="text_7">
      <!-- 0.02 -->
      <g transform="translate(63 377.576551)scale(0.1 -0.1)">
       <use xlink:href="#MicrosoftYaHei-30"/>
       <use x="58.642578" xlink:href="#MicrosoftYaHei-2e"/>
       <use x="82.714844" xlink:href="#MicrosoftYaHei-30"/>
       <use x="141.357422" xlink:href="#MicrosoftYaHei-32"/>
      </g>
     </g>
    </g>
    <g id="ytick_2">
     <g id="line2d_13">
      <path clip-path="url(#p6d7f533e62)" d="M 90 335.683796 
L 648 335.683796 
" style="fill:none;stroke:#b0b0b0;stroke-linecap:square;stroke-width:0.8;"/>
     </g>
     <g id="line2d_14">
      <g>
       <use style="stroke:#000000;stroke-width:0.8;" x="90" xlink:href="#m9302b54ebc" y="335.683796"/>
      </g>
     </g>
     <g id="text_8">
      <!-- 0.03 -->
      <g transform="translate(63 339.680671)scale(0.1 -0.1)">
       <use xlink:href="#MicrosoftYaHei-30"/>
       <use x="58.642578" xlink:href="#MicrosoftYaHei-2e"/>
       <use x="82.714844" xlink:href="#MicrosoftYaHei-30"/>
       <use x="141.357422" xlink:href="#MicrosoftYaHei-33"/>
      </g>
     </g>
    </g>
    <g id="ytick_3">
     <g id="line2d_15">
      <path clip-path="url(#p6d7f533e62)" d="M 90 297.787916 
L 648 297.787916 
" style="fill:none;stroke:#b0b0b0;stroke-linecap:square;stroke-width:0.8;"/>
     </g>
     <g id="line2d_16">
      <g>
       <use style="stroke:#000000;stroke-width:0.8;" x="90" xlink:href="#m9302b54ebc" y="297.787916"/>
      </g>
     </g>
     <g id="text_9">
      <!-- 0.04 -->
      <g transform="translate(63 301.784791)scale(0.1 -0.1)">
       <use xlink:href="#MicrosoftYaHei-30"/>
       <use x="58.642578" xlink:href="#MicrosoftYaHei-2e"/>
       <use x="82.714844" xlink:href="#MicrosoftYaHei-30"/>
       <use x="141.357422" xlink:href="#MicrosoftYaHei-34"/>
      </g>
     </g>
    </g>
    <g id="ytick_4">
     <g id="line2d_17">
      <path clip-path="url(#p6d7f533e62)" d="M 90 259.892036 
L 648 259.892036 
" style="fill:none;stroke:#b0b0b0;stroke-linecap:square;stroke-width:0.8;"/>
     </g>
     <g id="line2d_18">
      <g>
       <use style="stroke:#000000;stroke-width:0.8;" x="90" xlink:href="#m9302b54ebc" y="259.892036"/>
      </g>
     </g>
     <g id="text_10">
      <!-- 0.05 -->
      <defs>
       <path d="M 8.640625 11.625 
Q 16.265625 6.640625 24.515625 6.640625 
Q 32.328125 6.640625 37.109375 11 
Q 41.890625 15.375 41.890625 22.609375 
Q 41.890625 29.890625 37.03125 33.890625 
Q 32.171875 37.890625 22.953125 37.890625 
Q 18.5 37.890625 10.984375 37.203125 
L 10.984375 75.640625 
L 48.1875 75.640625 
L 48.1875 67.1875 
L 19.875 67.1875 
L 19.875 45.796875 
Q 24.125 46.046875 26.265625 46.046875 
Q 38.234375 46.046875 44.921875 39.984375 
Q 51.609375 33.9375 51.609375 23.296875 
Q 51.609375 12.3125 44.421875 5.515625 
Q 37.25 -1.265625 24.609375 -1.265625 
Q 14.015625 -1.265625 8.640625 1.859375 
z
" id="MicrosoftYaHei-35"/>
      </defs>
      <g transform="translate(63 263.888911)scale(0.1 -0.1)">
       <use xlink:href="#MicrosoftYaHei-30"/>
       <use x="58.642578" xlink:href="#MicrosoftYaHei-2e"/>
       <use x="82.714844" xlink:href="#MicrosoftYaHei-30"/>
       <use x="141.357422" xlink:href="#MicrosoftYaHei-35"/>
      </g>
     </g>
    </g>
    <g id="ytick_5">
     <g id="line2d_19">
      <path clip-path="url(#p6d7f533e62)" d="M 90 221.996156 
L 648 221.996156 
" style="fill:none;stroke:#b0b0b0;stroke-linecap:square;stroke-width:0.8;"/>
     </g>
     <g id="line2d_20">
      <g>
       <use style="stroke:#000000;stroke-width:0.8;" x="90" xlink:href="#m9302b54ebc" y="221.996156"/>
      </g>
     </g>
     <g id="text_11">
      <!-- 0.06 -->
      <defs>
       <path d="M 49.703125 65.921875 
Q 43.796875 68.953125 37.359375 68.953125 
Q 27.546875 68.953125 21.578125 60.40625 
Q 15.625 51.859375 15.53125 37.0625 
L 15.765625 37.0625 
Q 21.140625 47.46875 32.90625 47.46875 
Q 42.71875 47.46875 48.578125 41.0625 
Q 54.4375 34.671875 54.4375 24.078125 
Q 54.4375 12.984375 47.671875 5.859375 
Q 40.921875 -1.265625 30.421875 -1.265625 
Q 18.890625 -1.265625 12.328125 7.734375 
Q 5.765625 16.75 5.765625 33.296875 
Q 5.765625 53.328125 14.375 65.109375 
Q 23 76.90625 37.0625 76.90625 
Q 45.125 76.90625 49.703125 74.703125 
z
M 16.109375 24.75 
Q 16.109375 17.28125 20.09375 11.953125 
Q 24.078125 6.640625 30.671875 6.640625 
Q 36.921875 6.640625 40.828125 11.234375 
Q 44.734375 15.828125 44.734375 23.046875 
Q 44.734375 30.859375 41.046875 35.203125 
Q 37.359375 39.546875 30.5625 39.546875 
Q 24.125 39.546875 20.109375 35.15625 
Q 16.109375 30.765625 16.109375 24.75 
z
" id="MicrosoftYaHei-36"/>
      </defs>
      <g transform="translate(63 225.993031)scale(0.1 -0.1)">
       <use xlink:href="#MicrosoftYaHei-30"/>
       <use x="58.642578" xlink:href="#MicrosoftYaHei-2e"/>
       <use x="82.714844" xlink:href="#MicrosoftYaHei-30"/>
       <use x="141.357422" xlink:href="#MicrosoftYaHei-36"/>
      </g>
     </g>
    </g>
    <g id="ytick_6">
     <g id="line2d_21">
      <path clip-path="url(#p6d7f533e62)" d="M 90 184.100276 
L 648 184.100276 
" style="fill:none;stroke:#b0b0b0;stroke-linecap:square;stroke-width:0.8;"/>
     </g>
     <g id="line2d_22">
      <g>
       <use style="stroke:#000000;stroke-width:0.8;" x="90" xlink:href="#m9302b54ebc" y="184.100276"/>
      </g>
     </g>
     <g id="text_12">
      <!-- 0.07 -->
      <defs>
       <path d="M 53.765625 72.3125 
L 24.171875 0 
L 14.265625 0 
L 42.390625 67.1875 
L 4.59375 67.1875 
L 4.59375 75.640625 
L 53.765625 75.640625 
z
" id="MicrosoftYaHei-37"/>
      </defs>
      <g transform="translate(63 188.097151)scale(0.1 -0.1)">
       <use xlink:href="#MicrosoftYaHei-30"/>
       <use x="58.642578" xlink:href="#MicrosoftYaHei-2e"/>
       <use x="82.714844" xlink:href="#MicrosoftYaHei-30"/>
       <use x="141.357422" xlink:href="#MicrosoftYaHei-37"/>
      </g>
     </g>
    </g>
    <g id="ytick_7">
     <g id="line2d_23">
      <path clip-path="url(#p6d7f533e62)" d="M 90 146.204396 
L 648 146.204396 
" style="fill:none;stroke:#b0b0b0;stroke-linecap:square;stroke-width:0.8;"/>
     </g>
     <g id="line2d_24">
      <g>
       <use style="stroke:#000000;stroke-width:0.8;" x="90" xlink:href="#m9302b54ebc" y="146.204396"/>
      </g>
     </g>
     <g id="text_13">
      <!-- 0.08 -->
      <defs>
       <path d="M 21.390625 39.796875 
Q 7.859375 46.09375 7.859375 58.0625 
Q 7.859375 66.40625 14.203125 71.65625 
Q 20.5625 76.90625 30.421875 76.90625 
Q 39.453125 76.90625 45.3125 71.96875 
Q 51.171875 67.046875 51.171875 59.234375 
Q 51.171875 46.625 37.0625 39.84375 
L 37.0625 39.65625 
Q 53.609375 33.6875 53.609375 19.34375 
Q 53.609375 9.90625 46.796875 4.3125 
Q 39.984375 -1.265625 27.78125 -1.265625 
Q 17.78125 -1.265625 11.46875 4.25 
Q 5.171875 9.765625 5.171875 18.5625 
Q 5.171875 33.015625 21.390625 39.59375 
z
M 41.5 58.109375 
Q 41.5 63.1875 38.328125 66.109375 
Q 35.15625 69.046875 29.734375 69.046875 
Q 24.65625 69.046875 21.09375 65.984375 
Q 17.53125 62.9375 17.53125 58.203125 
Q 17.53125 48.734375 29.390625 43.796875 
Q 41.5 48.828125 41.5 58.109375 
z
M 28.8125 35.25 
Q 14.796875 29.59375 14.796875 19.046875 
Q 14.796875 13.578125 18.890625 10.0625 
Q 23 6.546875 29.59375 6.546875 
Q 35.984375 6.546875 39.984375 10.03125 
Q 44 13.53125 44 18.75 
Q 44 29.734375 28.8125 35.25 
z
" id="MicrosoftYaHei-38"/>
      </defs>
      <g transform="translate(63 150.201271)scale(0.1 -0.1)">
       <use xlink:href="#MicrosoftYaHei-30"/>
       <use x="58.642578" xlink:href="#MicrosoftYaHei-2e"/>
       <use x="82.714844" xlink:href="#MicrosoftYaHei-30"/>
       <use x="141.357422" xlink:href="#MicrosoftYaHei-38"/>
      </g>
     </g>
    </g>
    <g id="ytick_8">
     <g id="line2d_25">
      <path clip-path="url(#p6d7f533e62)" d="M 90 108.308516 
L 648 108.308516 
" style="fill:none;stroke:#b0b0b0;stroke-linecap:square;stroke-width:0.8;"/>
     </g>
     <g id="line2d_26">
      <g>
       <use style="stroke:#000000;stroke-width:0.8;" x="90" xlink:href="#m9302b54ebc" y="108.308516"/>
      </g>
     </g>
     <g id="text_14">
      <!-- 0.09 -->
      <defs>
       <path d="M 9.03125 10.25 
Q 15.28125 6.640625 22.515625 6.640625 
Q 32.671875 6.640625 38.25 14.640625 
Q 43.84375 22.65625 43.84375 37.40625 
Q 43.75 37.3125 43.65625 37.40625 
Q 38.671875 27.9375 26.90625 27.9375 
Q 17.390625 27.9375 11.140625 34.46875 
Q 4.890625 41.015625 4.890625 51.46875 
Q 4.890625 62.59375 11.71875 69.75 
Q 18.5625 76.90625 29.4375 76.90625 
Q 40.71875 76.90625 47.0625 68.046875 
Q 53.421875 59.1875 53.421875 42.234375 
Q 53.421875 21.296875 45.21875 10.015625 
Q 37.015625 -1.265625 22.515625 -1.265625 
Q 14.546875 -1.265625 9.03125 1.3125 
z
M 14.546875 52.6875 
Q 14.546875 45.0625 18.453125 40.59375 
Q 22.359375 36.140625 29.25 36.140625 
Q 35.203125 36.140625 39.25 40.203125 
Q 43.3125 44.28125 43.3125 50.09375 
Q 43.3125 58.25 39.28125 63.59375 
Q 35.25 68.953125 28.65625 68.953125 
Q 22.5625 68.953125 18.546875 64.3125 
Q 14.546875 59.671875 14.546875 52.6875 
z
" id="MicrosoftYaHei-39"/>
      </defs>
      <g transform="translate(63 112.305391)scale(0.1 -0.1)">
       <use xlink:href="#MicrosoftYaHei-30"/>
       <use x="58.642578" xlink:href="#MicrosoftYaHei-2e"/>
       <use x="82.714844" xlink:href="#MicrosoftYaHei-30"/>
       <use x="141.357422" xlink:href="#MicrosoftYaHei-39"/>
      </g>
     </g>
    </g>
    <g id="ytick_9">
     <g id="line2d_27">
      <path clip-path="url(#p6d7f533e62)" d="M 90 70.412637 
L 648 70.412637 
" style="fill:none;stroke:#b0b0b0;stroke-linecap:square;stroke-width:0.8;"/>
     </g>
     <g id="line2d_28">
      <g>
       <use style="stroke:#000000;stroke-width:0.8;" x="90" xlink:href="#m9302b54ebc" y="70.412637"/>
      </g>
     </g>
     <g id="text_15">
      <!-- 0.10 -->
      <g transform="translate(63 74.409512)scale(0.1 -0.1)">
       <use xlink:href="#MicrosoftYaHei-30"/>
       <use x="58.642578" xlink:href="#MicrosoftYaHei-2e"/>
       <use x="82.714844" xlink:href="#MicrosoftYaHei-31"/>
       <use x="141.357422" xlink:href="#MicrosoftYaHei-30"/>
      </g>
     </g>
    </g>
    <g id="text_16">
     <!-- growth_ratio -->
     <defs>
      <path d="M 55.421875 4.546875 
Q 55.421875 -25.4375 26.3125 -25.4375 
Q 16.265625 -25.4375 8.84375 -21.6875 
L 8.84375 -12.453125 
Q 17.875 -17.484375 26.171875 -17.484375 
Q 45.84375 -17.484375 45.84375 3.21875 
L 45.84375 8.9375 
L 45.65625 8.9375 
Q 39.5 -1.265625 27.296875 -1.265625 
Q 17.140625 -1.265625 11.03125 6 
Q 4.9375 13.28125 4.9375 25.296875 
Q 4.9375 39.109375 11.671875 47.1875 
Q 18.40625 55.28125 29.640625 55.28125 
Q 40.4375 55.28125 45.65625 46.6875 
L 45.84375 46.6875 
L 45.84375 54 
L 55.421875 54 
z
M 45.84375 32.125 
Q 45.90625 38.375 41.65625 42.859375 
Q 37.40625 47.359375 31.203125 47.359375 
Q 23.390625 47.359375 19.046875 41.625 
Q 14.703125 35.890625 14.703125 25.875 
Q 14.703125 17.28125 18.890625 11.953125 
Q 23.09375 6.640625 30.03125 6.640625 
Q 37.015625 6.640625 41.453125 11.71875 
Q 45.90625 16.796875 45.84375 24.609375 
z
" id="MicrosoftYaHei-67"/>
      <path d="M 34.46875 0.53125 
Q 31.34375 -1.171875 26.03125 -1.171875 
Q 11.53125 -1.171875 11.53125 14.890625 
L 11.53125 46.09375 
L 2.25 46.09375 
L 2.25 54 
L 11.53125 54 
L 11.53125 67 
L 21.046875 70.015625 
L 21.046875 54 
L 34.46875 54 
L 34.46875 46.09375 
L 21.046875 46.09375 
L 21.046875 16.609375 
Q 21.046875 11.28125 22.84375 8.984375 
Q 24.65625 6.6875 28.859375 6.6875 
Q 32.078125 6.6875 34.46875 8.5 
z
" id="MicrosoftYaHei-74"/>
      <path d="M 54.15625 0 
L 44.625 0 
L 44.625 31.0625 
Q 44.625 47.359375 32.515625 47.359375 
Q 26.3125 47.359375 22.203125 42.59375 
Q 18.109375 37.84375 18.109375 30.609375 
L 18.109375 0 
L 8.546875 0 
L 8.546875 79.9375 
L 18.109375 79.9375 
L 18.109375 45.125 
L 18.3125 45.125 
Q 24.515625 55.28125 35.9375 55.28125 
Q 54.15625 55.28125 54.15625 33.25 
z
" id="MicrosoftYaHei-68"/>
      <path d="M 7.375 73.046875 
Q 7.375 75.59375 9.109375 77.3125 
Q 10.84375 79.046875 13.375 79.046875 
Q 15.96875 79.046875 17.75 77.34375 
Q 19.53125 75.640625 19.53125 73.046875 
Q 19.53125 70.515625 17.75 68.828125 
Q 15.96875 67.140625 13.375 67.140625 
Q 10.796875 67.140625 9.078125 68.828125 
Q 7.375 70.515625 7.375 73.046875 
z
M 8.5 0 
L 8.5 54 
L 18.0625 54 
L 18.0625 0 
z
" id="MicrosoftYaHei-69"/>
     </defs>
     <g transform="translate(56.45625 248.621719)rotate(-90)scale(0.1 -0.1)">
      <use xlink:href="#MicrosoftYaHei-67"/>
      <use x="63.964844" xlink:href="#MicrosoftYaHei-72"/>
      <use x="102.132812" xlink:href="#MicrosoftYaHei-6f"/>
      <use x="165.707031" xlink:href="#MicrosoftYaHei-77"/>
      <use x="244.662109" xlink:href="#MicrosoftYaHei-74"/>
      <use x="281.917969" xlink:href="#MicrosoftYaHei-68"/>
      <use x="343.490234" xlink:href="#MicrosoftYaHei-5f"/>
      <use x="388.314453" xlink:href="#MicrosoftYaHei-72"/>
      <use x="426.498047" xlink:href="#MicrosoftYaHei-61"/>
      <use x="481.771484" xlink:href="#MicrosoftYaHei-74"/>
      <use x="519.027344" xlink:href="#MicrosoftYaHei-69"/>
      <use x="545.638672" xlink:href="#MicrosoftYaHei-6f"/>
     </g>
    </g>
   </g>
   <g id="patch_3">
    <path d="M 90 384.48 
L 90 51.84 
" style="fill:none;stroke:#000000;stroke-linecap:square;stroke-linejoin:miter;stroke-width:0.8;"/>
   </g>
   <g id="patch_4">
    <path d="M 648 384.48 
L 648 51.84 
" style="fill:none;stroke:#000000;stroke-linecap:square;stroke-linejoin:miter;stroke-width:0.8;"/>
   </g>
   <g id="patch_5">
    <path d="M 90 384.48 
L 648 384.48 
" style="fill:none;stroke:#000000;stroke-linecap:square;stroke-linejoin:miter;stroke-width:0.8;"/>
   </g>
   <g id="patch_6">
    <path d="M 90 51.84 
L 648 51.84 
" style="fill:none;stroke:#000000;stroke-linecap:square;stroke-linejoin:miter;stroke-width:0.8;"/>
   </g>
   <g id="text_17">
    <!-- 易方达高等级信用债债券A -->
    <defs>
     <path d="M 14.359375 78.46875 
L 86.234375 78.46875 
L 86.234375 37.84375 
L 78.609375 37.84375 
L 78.609375 41.75 
L 14.359375 41.75 
z
M 1.765625 17.046875 
Q 17.390625 25.53125 28.21875 40.09375 
L 35.15625 37.453125 
Q 33.203125 34.8125 31.25 32.375 
L 91.890625 32.375 
Q 91.015625 13.921875 90.046875 3.859375 
Q 88.765625 -11.859375 74.21875 -11.96875 
Q 66.109375 -12.0625 57.328125 -11.96875 
Q 56.734375 -7.765625 55.859375 -3.65625 
Q 64.359375 -4.4375 72.265625 -4.4375 
Q 81.453125 -4.4375 82.421875 4.734375 
Q 83.5 13.53125 83.890625 25.53125 
L 68.84375 25.53125 
Q 62.890625 -0.140625 34.1875 -13.921875 
Q 31.640625 -10.6875 28.71875 -7.28125 
Q 56.0625 3.953125 61.234375 25.53125 
L 46.390625 25.53125 
Q 39.265625 4.734375 8.6875 -7.078125 
Q 6.15625 -3.859375 3.21875 -0.53125 
Q 32.03125 10.203125 38.28125 25.53125 
L 25.09375 25.53125 
Q 16.796875 17.140625 6.640625 10.796875 
Q 4.59375 13.71875 1.765625 17.046875 
z
M 21.96875 48.578125 
L 78.609375 48.578125 
L 78.609375 56.78125 
L 21.96875 56.78125 
z
M 78.609375 71.625 
L 21.96875 71.625 
L 21.96875 63.625 
L 78.609375 63.625 
z
" id="MicrosoftYaHei-6613"/>
     <path d="M 3.03125 66.265625 
L 49.90625 66.265625 
Q 44.96875 75.640625 42.1875 79.9375 
L 49.8125 83.546875 
Q 52.546875 79.34375 58.015625 69.875 
L 50.875 66.265625 
L 97.171875 66.265625 
L 97.171875 58.84375 
L 37.9375 58.84375 
Q 37.59375 49.953125 37.203125 43.703125 
L 84.375 43.703125 
Q 83.203125 22.515625 81.84375 6.890625 
Q 80.765625 -10.796875 64.65625 -10.796875 
Q 57.234375 -10.796875 44.828125 -10.015625 
Q 44.34375 -6.296875 43.359375 -1.03125 
Q 55.765625 -2.6875 63.484375 -2.6875 
Q 72.46875 -2.6875 73.53125 7.953125 
Q 74.703125 19.578125 75.59375 36.375 
L 36.671875 36.375 
Q 33.9375 4.15625 6.84375 -13.625 
Q 4.203125 -10.5 0.875 -6.984375 
Q 26.65625 10.015625 28.515625 38.53125 
Q 29.203125 46.234375 29.640625 58.84375 
L 3.03125 58.84375 
z
" id="MicrosoftYaHei-65b9"/>
     <path d="M 42.484375 -3.765625 
Q 69.53125 -4.046875 98.734375 -3.375 
Q 97.078125 -7.28125 95.515625 -10.890625 
Q 68.75 -11.28125 41.21875 -10.796875 
Q 24.90625 -10.59375 17 0.34375 
Q 14.15625 -1.90625 5.5625 -12.15625 
L 1.375 -3.859375 
Q 7.421875 1.609375 13.484375 6.78125 
L 13.484375 40.875 
L 2.34375 40.875 
L 2.34375 48 
L 21.09375 48 
L 21.09375 5.328125 
Q 28.21875 -3.375 42.484375 -3.765625 
z
M 29.296875 59.234375 
L 56.25 59.234375 
L 56.25 82.28125 
L 64.0625 82.28125 
L 64.0625 59.234375 
L 94.53125 59.234375 
L 94.53125 52.09375 
L 63.875 52.09375 
Q 63.484375 44.96875 61.921875 38.625 
Q 78.8125 25.046875 93.84375 9.625 
L 87.984375 3.078125 
Q 74.8125 18.015625 59.765625 31.59375 
Q 52.546875 12.15625 32.515625 1.125 
Q 29.890625 4.734375 27.046875 7.5625 
Q 53.90625 21.921875 56.0625 52.09375 
L 29.296875 52.09375 
z
M 11.421875 81.890625 
Q 20.015625 71.625 26.265625 63.03125 
L 19.4375 58.15625 
Q 12.984375 67.921875 5.375 77.484375 
z
" id="MicrosoftYaHei-8fbe"/>
     <path d="M 18.65625 61.28125 
L 82.03125 61.28125 
L 82.03125 37.453125 
L 74.609375 37.453125 
L 74.609375 40.578125 
L 26.078125 40.578125 
L 26.078125 37.546875 
L 18.65625 37.546875 
z
M 15.140625 -12.25 
L 7.71875 -12.25 
L 7.71875 33.546875 
L 93.0625 33.546875 
L 93.0625 0.34375 
Q 93.0625 -11.671875 81.734375 -11.671875 
Q 75.390625 -11.671875 67.484375 -11.46875 
Q 66.890625 -8.15625 65.921875 -3.765625 
Q 74.90625 -4.4375 79.6875 -4.4375 
Q 85.640625 -4.4375 85.640625 1.515625 
L 85.640625 27.296875 
L 15.140625 27.296875 
z
M 28.328125 20.84375 
L 72.46875 20.84375 
L 72.46875 0.4375 
L 35.359375 0.4375 
L 35.359375 -3.765625 
L 28.328125 -3.765625 
z
M 1.953125 74.171875 
L 46.6875 74.171875 
Q 44.53125 78.328125 42.578125 81.5 
L 49.90625 84.421875 
Q 52.6875 79.59375 55.328125 74.171875 
L 98.046875 74.171875 
L 98.046875 67.71875 
L 1.953125 67.71875 
z
M 74.609375 55.21875 
L 26.078125 55.21875 
L 26.078125 46.625 
L 74.609375 46.625 
z
M 65.4375 6.5 
L 65.4375 14.796875 
L 35.359375 14.796875 
L 35.359375 6.5 
z
" id="MicrosoftYaHei-9ad8"/>
     <path d="M 1.953125 35.984375 
L 45.515625 35.984375 
L 45.515625 45.65625 
L 8.796875 45.65625 
L 8.796875 52 
L 45.515625 52 
L 45.515625 59.71875 
L 53.125 59.71875 
L 53.125 52 
L 91.40625 52 
L 91.40625 45.65625 
L 53.125 45.65625 
L 53.125 35.984375 
L 98.25 35.984375 
L 98.25 29.4375 
L 1.953125 29.4375 
z
M 5.28125 19.875 
L 66.40625 19.875 
L 66.40625 27.59375 
L 74.03125 27.59375 
L 74.03125 19.875 
L 94.921875 19.875 
L 94.921875 13.328125 
L 74.03125 13.328125 
L 74.03125 0.34375 
Q 74.03125 -11.96875 61.328125 -11.96875 
Q 53.90625 -11.96875 46.390625 -11.859375 
Q 45.90625 -8.34375 44.921875 -3.5625 
Q 52.734375 -4.34375 59.28125 -4.34375 
Q 66.40625 -4.34375 66.40625 1.421875 
L 66.40625 13.328125 
L 5.28125 13.328125 
z
M 20.21875 83.546875 
L 28.609375 83.546875 
Q 26.375 78.765625 23.640625 74.359375 
L 51.953125 74.359375 
L 51.953125 68.3125 
L 19.4375 68.3125 
Q 13.671875 60.59375 6.0625 54.046875 
Q 4.109375 56.390625 1.171875 59.328125 
Q 13.375 69.1875 20.21875 83.546875 
z
M 62.015625 83.546875 
L 70.40625 83.546875 
Q 68.21875 78.71875 65.828125 74.359375 
L 97.265625 74.359375 
L 97.265625 68.3125 
L 62.25 68.3125 
Q 58.9375 63.09375 55.28125 58.734375 
Q 51.171875 61.671875 48.734375 62.640625 
Q 57.234375 71.828125 62.015625 83.546875 
z
M 23.4375 7.671875 
L 28.609375 12.640625 
Q 35.25 6.984375 42.1875 0.4375 
L 36.53125 -4.9375 
Q 31.25 0.640625 23.4375 7.671875 
z
M 31.546875 53.765625 
Q 27.828125 58.640625 23.4375 63.71875 
L 28.515625 67.328125 
Q 33.203125 62.84375 37.3125 58.15625 
z
M 74.125 53.765625 
Q 72.265625 56.6875 66.21875 63.71875 
L 71.296875 67.328125 
Q 76.5625 62.25 79.890625 58.15625 
z
" id="MicrosoftYaHei-7b49"/>
     <path d="M 51.125 39.40625 
Q 49.609375 7.28125 31.15625 -12.546875 
Q 27.640625 -9.03125 24.90625 -7.078125 
Q 37.40625 6.109375 41.109375 22.3125 
Q 44.671875 36.28125 44.4375 70.265625 
L 35.75 70.265625 
L 35.75 77.203125 
L 84.46875 77.203125 
L 84.46875 69.875 
L 75 50.25 
L 91.21875 50.25 
L 91.21875 43.015625 
Q 85.546875 25.34375 75.828125 12.109375 
Q 85.25 2.546875 98.921875 -4.546875 
Q 96 -7.375 92.390625 -11.765625 
Q 79.5 -3.609375 70.65625 5.609375 
Q 60.640625 -5.71875 47.078125 -13.234375 
Q 44.34375 -9.625 41.609375 -6.984375 
Q 55.671875 0.984375 65.4375 11.8125 
Q 56.640625 23.4375 51.125 39.40625 
z
M 66.890625 50.4375 
L 76.265625 70.265625 
L 51.859375 70.265625 
Q 51.90625 63.28125 51.8125 57.078125 
Q 59.28125 31.78125 70.515625 18.015625 
Q 78.8125 29.34375 83.109375 43.3125 
L 66.890625 43.3125 
z
M 14.65625 29.640625 
Q 24.8125 30.71875 35.359375 32.078125 
Q 34.96875 28.859375 34.578125 25.734375 
Q 18.65625 23.78125 6.453125 21.734375 
L 4.6875 28.65625 
Q 10.5 33.796875 19.28125 47.3125 
Q 11.765625 46.78125 3.8125 45.953125 
L 1.953125 52.09375 
Q 10.0625 61.078125 20.796875 83.34375 
L 28.21875 80.125 
Q 18.171875 63.140625 10.640625 52.59375 
Q 16.109375 52.78125 22.953125 53.078125 
Q 26.46875 58.84375 30.46875 65.765625 
L 37.5 62.453125 
Q 22.75 40.09375 14.65625 29.640625 
z
M 1.5625 6.890625 
Q 17.1875 10.59375 33.296875 14.984375 
Q 33.40625 11.578125 33.59375 8.25 
Q 17.09375 3.765625 4.296875 -0.046875 
z
" id="MicrosoftYaHei-7ea7"/>
     <path d="M 35.9375 22.40625 
L 91.5 22.40625 
L 91.5 -13.328125 
L 83.984375 -13.328125 
L 83.984375 -7.46875 
L 43.453125 -7.46875 
L 43.453125 -13.328125 
L 35.9375 -13.328125 
z
M 1.265625 35.984375 
Q 15.625 57.28125 22.859375 83.0625 
L 30.46875 80.90625 
Q 26.21875 67.78125 21.1875 56.6875 
L 21.1875 -13.328125 
L 13.96875 -13.328125 
L 13.96875 42.390625 
Q 9.46875 34.515625 4.5 27.984375 
Q 2.9375 32.078125 1.265625 35.984375 
z
M 83.984375 15.765625 
L 43.453125 15.765625 
L 43.453125 -0.828125 
L 83.984375 -0.828125 
z
M 29.5 69.875 
L 61.375 69.875 
Q 58.453125 74.90625 55.28125 79.828125 
L 61.8125 83.25 
Q 65.328125 77.984375 68.75 72.125 
L 64.5 69.875 
L 98.25 69.875 
L 98.25 63.03125 
L 29.5 63.03125 
z
M 34.859375 53.953125 
L 92.484375 53.953125 
L 92.484375 47.3125 
L 34.859375 47.3125 
z
M 34.859375 38.234375 
L 92.484375 38.234375 
L 92.484375 31.59375 
L 34.859375 31.59375 
z
" id="MicrosoftYaHei-4fe1"/>
     <path d="M 48.25 -11.46875 
L 48.25 19.578125 
L 19.828125 19.578125 
Q 18.171875 -0.734375 8.015625 -14.109375 
Q 5.46875 -10.890625 2.25 -7.375 
Q 8.59375 1.609375 10.84375 12.546875 
Q 12.984375 23.09375 12.984375 42.4375 
L 12.984375 77.296875 
L 92.578125 77.296875 
L 92.578125 -0.34375 
Q 92.578125 -11.96875 81.546875 -11.96875 
Q 74.8125 -11.96875 66.40625 -11.671875 
Q 65.921875 -8.453125 64.9375 -3.5625 
Q 73.4375 -4.15625 78.71875 -4.15625 
Q 84.765625 -4.15625 84.765625 1.609375 
L 84.765625 19.578125 
L 56.0625 19.578125 
L 56.0625 -11.46875 
z
M 56.0625 26.609375 
L 84.765625 26.609375 
L 84.765625 44.875 
L 56.0625 44.875 
z
M 84.765625 70.0625 
L 56.0625 70.0625 
L 56.0625 51.90625 
L 84.765625 51.90625 
z
M 20.359375 26.609375 
L 48.25 26.609375 
L 48.25 44.875 
L 20.796875 44.875 
Q 21.09375 35.40625 20.359375 26.609375 
z
M 20.796875 70.0625 
L 20.796875 51.90625 
L 48.25 51.90625 
L 48.25 70.0625 
z
" id="MicrosoftYaHei-7528"/>
     <path d="M 26.859375 47.40625 
L 58.984375 47.40625 
L 58.984375 54.34375 
L 34.1875 54.34375 
L 34.1875 60.5 
L 58.984375 60.5 
L 58.984375 67.328125 
L 31.0625 67.328125 
L 31.0625 73.484375 
L 58.984375 73.484375 
L 58.984375 82.171875 
L 66.3125 82.171875 
L 66.3125 73.484375 
L 95.125 73.484375 
L 95.125 67.328125 
L 66.3125 67.328125 
L 66.3125 60.5 
L 90.328125 60.5 
L 90.328125 54.34375 
L 66.3125 54.34375 
L 66.3125 47.40625 
L 97.953125 47.40625 
L 97.953125 41.265625 
L 26.859375 41.265625 
z
M 1.265625 35.203125 
Q 12.890625 54.25 19.34375 82.375 
L 26.46875 81.109375 
Q 23.640625 70.65625 20.40625 61.375 
L 20.40625 -13.71875 
L 13.28125 -13.71875 
L 13.28125 44.09375 
Q 8.890625 35.015625 3.90625 27.390625 
Q 2.734375 31.390625 1.265625 35.203125 
z
M 34.859375 34.625 
L 89.15625 34.625 
L 89.15625 4.4375 
L 82.03125 4.4375 
L 82.03125 28.265625 
L 42 28.265625 
L 42 3.953125 
L 34.859375 3.953125 
z
M 58.5 25.140625 
L 65.625 25.140625 
Q 65.625 17.046875 64.0625 10.984375 
Q 80.5625 2.78125 97.265625 -7.765625 
L 92.875 -14.015625 
Q 77.546875 -3.953125 61.921875 4.9375 
Q 60.546875 2.09375 58.6875 0.046875 
Q 50.875 -8.9375 31.453125 -13.921875 
Q 28.515625 -8.453125 27.25 -6.890625 
Q 45.90625 -2.875 52.25 3.859375 
Q 58.5 9.8125 58.5 25.140625 
z
" id="MicrosoftYaHei-503a"/>
     <path d="M 2.734375 44.671875 
L 31.0625 44.671875 
Q 35.15625 50.046875 38.09375 56.109375 
L 6.9375 56.109375 
L 6.9375 62.75 
L 41.015625 62.75 
Q 44.625 72.015625 46.96875 83.0625 
L 54.78125 81.390625 
Q 52.15625 71.34375 49.125 62.75 
L 92.578125 62.75 
L 92.578125 56.109375 
L 46.578125 56.109375 
Q 43.953125 50.140625 40.234375 44.671875 
L 97.5625 44.671875 
L 97.5625 38.03125 
L 71 38.03125 
Q 81.640625 26.515625 98.734375 23 
Q 96 19.484375 93.359375 15.578125 
Q 84.96875 18.40625 78.125 22.90625 
Q 76.765625 11.28125 75.484375 1.8125 
Q 73.4375 -11.578125 60.359375 -11.46875 
Q 56.0625 -11.46875 44.34375 -11.28125 
Q 43.65625 -7.375 42.28125 -3.265625 
Q 50.984375 -3.953125 58.109375 -3.953125 
Q 66.703125 -3.953125 67.875 3.078125 
Q 68.75 8.546875 69.828125 18.21875 
L 40.71875 18.21875 
Q 38.875 5.125 32.90625 -1.421875 
Q 26.46875 -8.84375 9.1875 -14.109375 
Q 6.84375 -9.90625 4.890625 -6.984375 
Q 21 -2.875 26.953125 3.953125 
Q 31.640625 9.125 33.015625 18.21875 
L 19.53125 18.21875 
L 19.53125 23.296875 
Q 13.375 18.703125 6.25 14.703125 
Q 4.203125 18.015625 1.375 21.234375 
Q 15.625 28.171875 25.296875 38.03125 
L 2.734375 38.03125 
z
M 21.484375 24.859375 
L 75.203125 24.859375 
Q 67.78125 30.328125 62.3125 38.03125 
L 35.15625 38.03125 
Q 29.296875 30.90625 21.484375 24.859375 
z
M 66.015625 67.53125 
Q 72.5625 74.265625 77.4375 81.6875 
L 84.1875 77.484375 
Q 78.609375 70.0625 71.875 63.140625 
z
M 14.359375 77.09375 
L 19.921875 81.59375 
Q 26.953125 75.046875 32.515625 68.890625 
L 26.265625 63.71875 
Q 20.796875 70.359375 14.359375 77.09375 
z
" id="MicrosoftYaHei-5238"/>
     <path d="M 69.1875 0 
L 58.40625 0 
L 50.6875 20.703125 
L 19.1875 20.703125 
L 11.921875 0 
L 1.125 0 
L 29.9375 75.640625 
L 40.375 75.640625 
z
M 47.65625 29.25 
L 36.234375 60.6875 
Q 35.6875 62.203125 35.0625 65.96875 
L 34.8125 65.96875 
Q 34.28125 62.546875 33.59375 60.6875 
L 22.265625 29.25 
z
" id="MicrosoftYaHei-41"/>
    </defs>
    <g transform="translate(360.237194 283.26483)scale(0.1 -0.1)">
     <use xlink:href="#MicrosoftYaHei-6613"/>
     <use x="100" xlink:href="#MicrosoftYaHei-65b9"/>
     <use x="200" xlink:href="#MicrosoftYaHei-8fbe"/>
     <use x="300" xlink:href="#MicrosoftYaHei-9ad8"/>
     <use x="400" xlink:href="#MicrosoftYaHei-7b49"/>
     <use x="500" xlink:href="#MicrosoftYaHei-7ea7"/>
     <use x="600" xlink:href="#MicrosoftYaHei-4fe1"/>
     <use x="700" xlink:href="#MicrosoftYaHei-7528"/>
     <use x="800" xlink:href="#MicrosoftYaHei-503a"/>
     <use x="900" xlink:href="#MicrosoftYaHei-503a"/>
     <use x="1000" xlink:href="#MicrosoftYaHei-5238"/>
     <use x="1100" xlink:href="#MicrosoftYaHei-41"/>
    </g>
   </g>
   <g id="text_18">
    <!-- 易方达纯债债券A -->
    <defs>
     <path d="M 35.75 69.390625 
L 61.03125 69.390625 
L 61.03125 82.671875 
L 68.453125 82.671875 
L 68.453125 69.390625 
L 95.90625 69.390625 
L 95.90625 62.359375 
L 68.453125 62.359375 
L 68.453125 28.859375 
L 83.59375 28.859375 
L 83.59375 54.734375 
L 90.828125 54.734375 
L 90.828125 18.890625 
L 83.59375 18.890625 
L 83.59375 22.015625 
L 68.453125 22.015625 
L 68.453125 3.46875 
Q 68.453125 -2.984375 73.140625 -2.984375 
L 84.46875 -2.984375 
Q 89.0625 -2.984375 90.046875 2.09375 
Q 90.921875 6.984375 91.5 14.890625 
Q 95.40625 12.9375 98.921875 11.765625 
Q 97.859375 3.953125 96.96875 -0.640625 
Q 95.3125 -10.015625 85.15625 -10.015625 
L 71.6875 -10.015625 
Q 61.03125 -10.015625 61.03125 2.09375 
L 61.03125 22.015625 
L 39.0625 22.015625 
L 39.0625 54.734375 
L 46.296875 54.734375 
L 46.296875 28.859375 
L 61.03125 28.859375 
L 61.03125 62.359375 
L 35.75 62.359375 
z
M 13.96875 24.078125 
Q 26.953125 25.921875 35.453125 27.390625 
Q 34.859375 23.578125 34.578125 19.96875 
Q 19.625 17.921875 4.984375 15.375 
L 3.421875 22.609375 
Q 9.96875 29.4375 18.453125 43.21875 
Q 11.234375 42.828125 3.421875 42.140625 
L 1.5625 48.78125 
Q 10.546875 60.796875 20.21875 83.453125 
L 27.640625 80.515625 
Q 17.09375 59.8125 10.359375 49.359375 
Q 16.40625 49.46875 22.265625 49.65625 
Q 25.484375 55.328125 29.109375 62.0625 
L 36.328125 58.453125 
Q 23.4375 37.25 13.96875 24.078125 
z
M 1.171875 1.8125 
Q 17.875 4.25 36.71875 7.765625 
Q 36.234375 4.25 36.03125 0.4375 
Q 21.296875 -1.8125 2.9375 -5.8125 
z
" id="MicrosoftYaHei-7eaf"/>
    </defs>
    <g transform="translate(369.876127 296.094406)scale(0.1 -0.1)">
     <use xlink:href="#MicrosoftYaHei-6613"/>
     <use x="100" xlink:href="#MicrosoftYaHei-65b9"/>
     <use x="200" xlink:href="#MicrosoftYaHei-8fbe"/>
     <use x="300" xlink:href="#MicrosoftYaHei-7eaf"/>
     <use x="400" xlink:href="#MicrosoftYaHei-503a"/>
     <use x="500" xlink:href="#MicrosoftYaHei-503a"/>
     <use x="600" xlink:href="#MicrosoftYaHei-5238"/>
     <use x="700" xlink:href="#MicrosoftYaHei-41"/>
    </g>
   </g>
   <g id="text_19">
    <!-- 嘉实稳祥纯债债券A -->
    <defs>
     <path d="M 14.75 53.5625 
L 85.25 53.5625 
L 85.25 33.640625 
L 78.421875 33.640625 
L 78.421875 36.46875 
L 21.578125 36.46875 
L 21.578125 33.640625 
L 14.75 33.640625 
z
M 11.234375 64.796875 
L 46.484375 64.796875 
L 46.484375 70.65625 
L 4.78125 70.65625 
L 4.78125 76.125 
L 46.484375 76.125 
L 46.484375 82.5625 
L 53.421875 82.5625 
L 53.421875 76.125 
L 95.515625 76.125 
L 95.515625 70.65625 
L 53.421875 70.65625 
L 53.421875 64.796875 
L 88.875 64.796875 
L 88.875 59.421875 
L 11.234375 59.421875 
z
M 56.0625 15.671875 
L 92.390625 15.671875 
L 92.390625 -12.25 
L 85.359375 -12.25 
L 85.359375 -7.953125 
L 63.09375 -7.953125 
L 63.09375 -12.25 
L 56.0625 -12.25 
z
M 5.671875 13.625 
L 19.234375 13.625 
Q 19.625 16.65625 19.625 20.265625 
L 26.65625 20.265625 
Q 26.65625 16.65625 26.375 13.625 
L 48.53125 13.625 
Q 48.140625 4.546875 47.75 -1.03125 
Q 47.265625 -6.59375 44.53125 -9.328125 
Q 41.703125 -12.15625 34.375 -12.15625 
Q 31.15625 -12.15625 26.765625 -12.0625 
Q 26.265625 -8.734375 25.203125 -5.421875 
Q 30.953125 -5.90625 33.40625 -5.90625 
Q 37.40625 -5.90625 39.0625 -4.34375 
Q 40.53125 -2.984375 40.828125 0.4375 
Q 41.109375 3.46875 41.3125 8.15625 
L 25.484375 8.15625 
Q 23.25 -4.546875 6.734375 -14.109375 
Q 4.390625 -10.59375 1.859375 -8.25 
Q 16.609375 -0.640625 18.265625 8.15625 
L 5.671875 8.15625 
z
M 2.640625 27.484375 
L 31.734375 27.484375 
Q 29.296875 30.515625 26.65625 33.25 
L 32.421875 36.078125 
Q 36.140625 32.28125 39.84375 27.484375 
L 61.03125 27.484375 
Q 64.75 31.984375 67.671875 36.1875 
L 74.21875 32.859375 
Q 71.875 30.21875 69.234375 27.484375 
L 97.65625 27.484375 
L 97.65625 22.015625 
L 2.640625 22.015625 
z
M 78.421875 48.296875 
L 21.578125 48.296875 
L 21.578125 41.75 
L 78.421875 41.75 
z
M 85.359375 10.203125 
L 63.09375 10.203125 
L 63.09375 -2.484375 
L 85.359375 -2.484375 
z
" id="MicrosoftYaHei-5609"/>
     <path d="M 1.765625 -6.203125 
Q 37.796875 0.53125 48.140625 15.1875 
L 3.328125 15.1875 
L 3.328125 22.40625 
L 51.765625 22.40625 
Q 55.078125 32.5625 54.78125 57.859375 
L 62.984375 57.859375 
Q 62.984375 32.765625 60.25 22.40625 
L 97.265625 22.40625 
L 97.265625 15.1875 
L 57.515625 15.1875 
Q 56.734375 13.625 55.671875 11.859375 
Q 76.5625 3.078125 96.578125 -6.296875 
L 92.28125 -13.71875 
Q 71.390625 -3.078125 50.984375 6.109375 
Q 37.703125 -6.890625 6.453125 -13.921875 
Q 4.203125 -9.625 1.765625 -6.203125 
z
M 5.171875 69.09375 
L 49.90625 69.09375 
Q 47.46875 73.484375 43.359375 79.34375 
L 50.484375 83.34375 
Q 53.71875 79.046875 58.296875 72.015625 
L 52.9375 69.09375 
L 94.734375 69.09375 
L 94.734375 51.609375 
L 86.921875 51.609375 
L 86.921875 61.859375 
L 12.984375 61.859375 
L 12.984375 51.609375 
L 5.171875 51.609375 
z
M 17.1875 42.71875 
Q 28.421875 37.640625 38.28125 32.078125 
L 34.078125 25.34375 
Q 24.3125 31.296875 13.484375 36.46875 
z
M 25.984375 57.671875 
Q 37.3125 52.203125 46.578125 46.625 
L 42.1875 39.984375 
Q 33.109375 45.84375 22.171875 51.90625 
z
" id="MicrosoftYaHei-5b9e"/>
     <path d="M 38.1875 27.78125 
L 85.15625 27.78125 
L 85.15625 36.1875 
L 40.046875 36.1875 
L 40.046875 42.625 
L 85.15625 42.625 
L 85.15625 50.921875 
L 40.234375 50.921875 
L 40.234375 57.078125 
L 38.875 55.71875 
Q 36.421875 58.0625 33.109375 60.59375 
Q 44.234375 70.65625 51.171875 83.84375 
L 58.796875 82.375 
Q 56.5 78.265625 54 74.46875 
L 83.015625 74.46875 
L 83.015625 68.109375 
Q 79.109375 62.84375 75 57.5625 
L 92.578125 57.5625 
L 92.578125 17.625 
L 85.15625 17.625 
L 85.15625 21.140625 
L 38.1875 21.140625 
z
M 0.484375 15.484375 
Q 9.671875 28.171875 15.4375 47.40625 
L 2.25 47.40625 
L 2.25 54.25 
L 16.015625 54.25 
L 16.015625 69.78125 
Q 10.203125 69.234375 4.203125 68.796875 
Q 3.71875 71.921875 2.828125 75.828125 
Q 18.75 76.8125 34.859375 79.046875 
L 36.421875 71.828125 
Q 29.9375 71.09375 23.25 70.40625 
L 23.25 54.25 
L 35.453125 54.25 
L 35.453125 47.40625 
L 23.25 47.40625 
L 23.25 35.75 
L 27.25 38.921875 
Q 32.8125 33.25 37.703125 27.203125 
L 31.9375 22.40625 
Q 27.6875 28.46875 23.25 33.5 
L 23.25 -13.03125 
L 16.015625 -13.03125 
L 16.015625 30.28125 
Q 10.984375 16.75 3.8125 7.28125 
Q 2.34375 11.375 0.484375 15.484375 
z
M 46.09375 15.484375 
L 53.515625 15.484375 
L 53.515625 1.515625 
Q 53.515625 -4.046875 59.765625 -4.046875 
L 69.140625 -4.046875 
Q 75.296875 -4.046875 76.375 0.828125 
Q 77.25 4.640625 77.828125 9.90625 
Q 81.0625 8.453125 85.25 6.984375 
Q 84.28125 2 83.109375 -2.296875 
Q 80.953125 -10.796875 71.296875 -10.796875 
L 58.296875 -10.796875 
Q 46.09375 -10.796875 46.09375 1.125 
z
M 74.125 68.015625 
L 49.5625 68.015625 
Q 45.359375 62.359375 40.671875 57.5625 
L 66.546875 57.5625 
Q 70.703125 63.09375 74.125 68.015625 
z
M 35.546875 15.484375 
L 42.09375 13.140625 
Q 38.765625 2.78125 34.375 -6.390625 
Q 31.25 -4.734375 27.640625 -3.375 
Q 32.328125 5.03125 35.546875 15.484375 
z
M 84.671875 12.453125 
L 91.015625 15.28125 
Q 96.484375 4.828125 99.8125 -2.296875 
L 93.0625 -5.515625 
Q 89.84375 2.390625 84.671875 12.453125 
z
M 57.234375 17.140625 
L 62.5 20.84375 
Q 68.265625 14.203125 72.65625 8.15625 
L 66.703125 3.953125 
Q 62.40625 10.796875 57.234375 17.140625 
z
" id="MicrosoftYaHei-7a33"/>
     <path d="M 35.359375 18.609375 
L 62.890625 18.609375 
L 62.890625 36.375 
L 40.4375 36.375 
L 40.4375 43.015625 
L 62.890625 43.015625 
L 62.890625 58.84375 
L 37.5 58.84375 
L 37.5 65.671875 
L 70.40625 65.671875 
Q 77.4375 74.859375 82.03125 82.765625 
L 89.359375 78.46875 
Q 85.15625 73.1875 78.90625 65.671875 
L 97.078125 65.671875 
L 97.078125 58.84375 
L 70.3125 58.84375 
L 70.3125 43.015625 
L 93.359375 43.015625 
L 93.359375 36.375 
L 70.3125 36.375 
L 70.3125 18.609375 
L 98.640625 18.609375 
L 98.640625 11.765625 
L 70.3125 11.765625 
L 70.3125 -13.03125 
L 62.890625 -13.03125 
L 62.890625 11.765625 
L 35.359375 11.765625 
z
M 1.953125 56.78125 
L 1.953125 63.625 
L 33.6875 63.625 
L 33.6875 56.59375 
Q 28.8125 47.40625 22.75 39.109375 
L 22.75 -13.328125 
L 15.53125 -13.328125 
L 15.53125 30.21875 
Q 10.15625 24.078125 4 18.609375 
Q 2.734375 23.09375 1.46875 27 
Q 16.109375 38.8125 25.59375 56.78125 
z
M 44.4375 78.46875 
L 50.09375 82.859375 
Q 56.546875 76.21875 61.328125 70.453125 
L 54.6875 65.765625 
Q 50.203125 71.828125 44.4375 78.46875 
z
M 11.421875 80.03125 
L 18.171875 83.453125 
Q 22.5625 76.515625 26.078125 69.96875 
L 18.84375 66.265625 
Q 15.4375 73.6875 11.421875 80.03125 
z
M 23.25 33.640625 
L 28.03125 38.03125 
Q 33.796875 32.5625 38.09375 27.78125 
L 32.71875 22.796875 
Q 27.9375 28.765625 23.25 33.640625 
z
" id="MicrosoftYaHei-7965"/>
    </defs>
    <g transform="translate(246.426552 261.359076)scale(0.1 -0.1)">
     <use xlink:href="#MicrosoftYaHei-5609"/>
     <use x="100" xlink:href="#MicrosoftYaHei-5b9e"/>
     <use x="200" xlink:href="#MicrosoftYaHei-7a33"/>
     <use x="300" xlink:href="#MicrosoftYaHei-7965"/>
     <use x="400" xlink:href="#MicrosoftYaHei-7eaf"/>
     <use x="500" xlink:href="#MicrosoftYaHei-503a"/>
     <use x="600" xlink:href="#MicrosoftYaHei-503a"/>
     <use x="700" xlink:href="#MicrosoftYaHei-5238"/>
     <use x="800" xlink:href="#MicrosoftYaHei-41"/>
    </g>
   </g>
   <g id="text_20">
    <!-- 嘉实超短债债券C -->
    <defs>
     <path d="M 1.65625 -4.15625 
Q 9.078125 8.84375 9.671875 35.015625 
L 16.890625 34.625 
Q 16.546875 25.09375 15.484375 17.046875 
Q 18.953125 9.421875 24.703125 4.78125 
L 24.703125 40.875 
L 2.15625 40.875 
L 2.15625 48 
L 21.6875 48 
L 21.6875 61.96875 
L 5.5625 61.96875 
L 5.5625 69.09375 
L 21.6875 69.09375 
L 21.6875 82.953125 
L 29.296875 82.953125 
L 29.296875 69.09375 
L 43.84375 69.09375 
L 43.84375 61.96875 
L 29.296875 61.96875 
L 29.296875 48 
L 45.125 48 
L 45.125 40.875 
L 32.03125 40.875 
L 32.03125 25.734375 
L 46 25.734375 
L 46 18.703125 
L 32.03125 18.703125 
L 32.03125 0.4375 
Q 39.0625 -2.484375 48.34375 -2.59375 
Q 66.890625 -2.875 98.640625 -2.203125 
Q 96.875 -6.59375 95.90625 -9.90625 
Q 66.40625 -10.015625 45.90625 -9.625 
Q 22.3125 -9.125 13.8125 7.375 
Q 11.03125 -5.328125 5.953125 -13.328125 
Q 4 -8.734375 1.65625 -4.15625 
z
M 51.171875 38.234375 
L 92 38.234375 
L 92 3.265625 
L 84.765625 3.265625 
L 84.765625 7.46875 
L 58.40625 7.46875 
L 58.40625 2.6875 
L 51.171875 2.6875 
z
M 46.390625 72.125 
L 46.390625 78.765625 
L 93.0625 78.765625 
Q 92.578125 65.375 91.703125 56.296875 
Q 90.625 45.0625 80.078125 44.78125 
Q 74.8125 44.671875 67.875 45.0625 
Q 67.28125 48.6875 66.40625 52.875 
Q 73.640625 51.703125 78.609375 51.8125 
Q 84.1875 51.8125 84.765625 58.0625 
Q 85.453125 63.625 85.75 72.125 
L 67.234375 72.125 
Q 66.40625 50.046875 50.78125 41.265625 
Q 48.921875 44.28125 46 47.515625 
Q 59.578125 54.9375 59.859375 72.125 
z
M 84.765625 31.59375 
L 58.40625 31.59375 
L 58.40625 14.109375 
L 84.765625 14.109375 
z
" id="MicrosoftYaHei-8d85"/>
     <path d="M 42.484375 59.625 
L 91.3125 59.625 
L 91.3125 24.078125 
L 84.1875 24.078125 
L 84.1875 26.8125 
L 49.609375 26.8125 
L 49.609375 24.078125 
L 42.484375 24.078125 
z
M 1.265625 40.484375 
L 17.671875 40.484375 
L 17.671875 61.671875 
L 12.796875 61.671875 
Q 10.40625 54.5 7.8125 48.6875 
Q 3.71875 50.34375 0.984375 51.21875 
Q 7.328125 65.28125 11.53125 83.453125 
L 18.5625 81.984375 
Q 16.796875 74.75 14.890625 68.40625 
L 37.3125 68.40625 
L 37.3125 61.671875 
L 24.703125 61.671875 
L 24.703125 40.484375 
L 38.671875 40.484375 
L 38.671875 33.734375 
L 24.5625 33.734375 
Q 24.3125 28.078125 23.53125 22.90625 
L 28.421875 25.53125 
Q 34.28125 16.265625 40.328125 4.734375 
L 33.203125 0.828125 
Q 28.90625 10.25 23.09375 20.3125 
Q 19.28125 -0.4375 6.34375 -13.03125 
Q 4.390625 -10.40625 1.375 -6.890625 
Q 16.0625 8.15625 17.484375 33.734375 
L 1.265625 33.734375 
z
M 84.1875 52.875 
L 49.609375 52.875 
L 49.609375 33.546875 
L 84.1875 33.546875 
z
M 34.96875 -2.390625 
L 69.734375 -2.390625 
Q 76.609375 10.59375 81.25 21.734375 
L 89.265625 18.015625 
Q 83.296875 7.171875 77.734375 -2.390625 
L 97.953125 -2.390625 
L 97.953125 -9.234375 
L 34.96875 -9.234375 
z
M 38.09375 78.265625 
L 96.78125 78.265625 
L 96.78125 71.4375 
L 38.09375 71.4375 
z
M 45.40625 18.5 
L 51.953125 22.015625 
Q 57.71875 12.640625 62.3125 3.765625 
L 54.984375 -0.046875 
Q 50.203125 10.109375 45.40625 18.5 
z
" id="MicrosoftYaHei-77ed"/>
     <path d="M 61.53125 3.125 
Q 53.171875 -1.265625 40.578125 -1.265625 
Q 24.3125 -1.265625 14.59375 9.0625 
Q 4.890625 19.390625 4.890625 36.375 
Q 4.890625 54.640625 15.828125 65.765625 
Q 26.765625 76.90625 43.609375 76.90625 
Q 54.4375 76.90625 61.53125 73.828125 
L 61.53125 63.625 
Q 53.421875 68.109375 43.703125 68.109375 
Q 31.0625 68.109375 23.09375 59.6875 
Q 15.140625 51.265625 15.140625 36.96875 
Q 15.140625 23.390625 22.5625 15.40625 
Q 29.984375 7.421875 42 7.421875 
Q 53.21875 7.421875 61.53125 12.5 
z
" id="MicrosoftYaHei-43"/>
    </defs>
    <g transform="translate(145.85249 351.018493)scale(0.1 -0.1)">
     <use xlink:href="#MicrosoftYaHei-5609"/>
     <use x="100" xlink:href="#MicrosoftYaHei-5b9e"/>
     <use x="200" xlink:href="#MicrosoftYaHei-8d85"/>
     <use x="300" xlink:href="#MicrosoftYaHei-77ed"/>
     <use x="400" xlink:href="#MicrosoftYaHei-503a"/>
     <use x="500" xlink:href="#MicrosoftYaHei-503a"/>
     <use x="600" xlink:href="#MicrosoftYaHei-5238"/>
     <use x="700" xlink:href="#MicrosoftYaHei-43"/>
    </g>
   </g>
   <g id="text_21">
    <!-- 招商产业债券A -->
    <defs>
     <path d="M 39.453125 30.609375 
L 91.609375 30.609375 
L 91.609375 -12.9375 
L 84.1875 -12.9375 
L 84.1875 -6.203125 
L 46.875 -6.203125 
L 46.875 -13.03125 
L 39.453125 -13.03125 
z
M 36.328125 77.875 
L 93.65625 77.875 
Q 93.453125 66.0625 92.78125 53.65625 
Q 91.890625 39.203125 78.328125 38.921875 
Q 71.296875 38.71875 61.234375 38.921875 
Q 60.546875 43.796875 59.859375 47.015625 
Q 69.046875 46.234375 76.46875 46.234375 
Q 84.765625 46.234375 85.25 54.734375 
Q 85.84375 61.859375 85.9375 70.953125 
L 60.0625 70.953125 
Q 59.625 58.59375 55.953125 51.703125 
Q 50.984375 42.328125 37.59375 34.515625 
Q 35.546875 37.359375 32.515625 40.96875 
Q 44.734375 47.609375 48.734375 54.546875 
Q 52.09375 59.71875 52.4375 70.953125 
L 36.328125 70.953125 
z
M 1.375 30.515625 
Q 8.546875 32.171875 15.140625 33.796875 
L 15.140625 57.078125 
L 2.25 57.078125 
L 2.25 63.921875 
L 15.140625 63.921875 
L 15.140625 82.859375 
L 22.359375 82.859375 
L 22.359375 63.921875 
L 35.15625 63.921875 
L 35.15625 57.078125 
L 22.359375 57.078125 
L 22.359375 35.59375 
Q 27.640625 36.96875 32.515625 38.328125 
Q 32.90625 33.34375 33.203125 31.109375 
Q 27.59375 29.59375 22.359375 28.171875 
L 22.359375 -1.125 
Q 22.359375 -11.859375 12.59375 -11.859375 
Q 9.28125 -11.859375 3.421875 -11.671875 
Q 3.03125 -7.671875 2.15625 -3.953125 
Q 7.8125 -4.640625 10.84375 -4.640625 
Q 15.140625 -4.640625 15.140625 0.34375 
L 15.140625 26.171875 
Q 8.40625 24.265625 2.34375 22.515625 
z
M 84.1875 23.6875 
L 46.875 23.6875 
L 46.875 0.53125 
L 84.1875 0.53125 
z
" id="MicrosoftYaHei-62db"/>
     <path d="M 9.375 51.703125 
L 33.109375 51.703125 
Q 29.734375 56.640625 25.78125 61.46875 
L 31.734375 65.484375 
Q 36.421875 60.015625 40.234375 55.328125 
L 34.96875 51.703125 
L 57.125 51.703125 
Q 62.0625 58.0625 66.21875 65.09375 
L 73.640625 60.796875 
Q 69 55.28125 65.828125 51.703125 
L 90.140625 51.703125 
L 90.140625 0.53125 
Q 90.140625 -11.765625 78.90625 -11.859375 
Q 72.859375 -11.96875 65.234375 -11.765625 
Q 64.453125 -6.109375 63.765625 -3.5625 
Q 71.484375 -4.34375 76.46875 -4.34375 
Q 82.8125 -4.34375 82.8125 2.6875 
L 82.8125 44.96875 
L 16.703125 44.96875 
L 16.703125 -13.03125 
L 9.375 -13.03125 
z
M 30.46875 -3.375 
L 30.46875 28.078125 
L 69.625 28.078125 
L 69.625 1.8125 
L 37.5 1.8125 
L 37.5 -3.375 
z
M 2.25 72.609375 
L 46.828125 72.609375 
Q 44.96875 76.078125 42.28125 80.328125 
L 49.8125 83.734375 
Q 52.734375 78.71875 55.953125 72.609375 
L 98.046875 72.609375 
L 98.046875 65.671875 
L 2.25 65.671875 
z
M 62.59375 8.0625 
L 62.59375 21.828125 
L 37.5 21.828125 
L 37.5 8.0625 
z
M 37.984375 43.890625 
L 43.265625 38.8125 
Q 31.84375 29.046875 21.875 21.625 
Q 18.953125 25.640625 17.28125 27.390625 
Q 28.03125 34.515625 37.984375 43.890625 
z
M 55.171875 38.53125 
L 59.46875 43.890625 
Q 73.921875 34.8125 81.34375 29.34375 
L 76.46875 23.1875 
Q 66.796875 31 55.171875 38.53125 
z
" id="MicrosoftYaHei-5546"/>
     <path d="M 11.625 43.890625 
L 57.8125 43.890625 
Q 64.40625 53.609375 69.625 63.234375 
L 77.15625 58.453125 
Q 71.96875 51.171875 66.3125 43.890625 
L 95.21875 43.890625 
L 95.21875 37.0625 
L 19.53125 37.0625 
L 19.53125 30.21875 
Q 19.53125 12.9375 16.890625 4.4375 
Q 14.15625 -5.03125 6.546875 -13.328125 
Q 4 -10.203125 1.265625 -6.6875 
Q 7.03125 -0.53125 9.375 7.765625 
Q 11.625 15.875 11.625 30.21875 
z
M 3.609375 71.828125 
L 48.1875 71.828125 
Q 46.046875 75.828125 43.453125 80.03125 
L 50.6875 83.640625 
Q 53.859375 78.46875 57.171875 71.828125 
L 97.75 71.828125 
L 97.75 64.890625 
L 3.609375 64.890625 
z
M 24.03125 59.328125 
L 30.46875 63.625 
Q 36.53125 56 41.21875 49.171875 
L 34.28125 44.390625 
Q 30.46875 50.828125 24.03125 59.328125 
z
" id="MicrosoftYaHei-4ea7"/>
     <path d="M 1.859375 0.734375 
L 33.203125 0.734375 
L 33.203125 81.390625 
L 41.40625 81.390625 
L 41.40625 0.734375 
L 58.5 0.734375 
L 58.5 81.390625 
L 66.703125 81.390625 
L 66.703125 0.734375 
L 98.34375 0.734375 
L 98.34375 -6.5 
L 1.859375 -6.5 
z
M 13.1875 62.25 
Q 21.1875 43.40625 28.71875 22.21875 
L 20.703125 18.609375 
Q 14.15625 39.203125 6.0625 59.125 
z
M 70.21875 21.34375 
Q 79.984375 42.046875 86.625 61.375 
L 94.53125 58.25 
Q 85.453125 34.90625 77.25 18.109375 
z
" id="MicrosoftYaHei-4e1a"/>
    </defs>
    <g transform="translate(249.339673 250.085605)scale(0.1 -0.1)">
     <use xlink:href="#MicrosoftYaHei-62db"/>
     <use x="100" xlink:href="#MicrosoftYaHei-5546"/>
     <use x="200" xlink:href="#MicrosoftYaHei-4ea7"/>
     <use x="300" xlink:href="#MicrosoftYaHei-4e1a"/>
     <use x="400" xlink:href="#MicrosoftYaHei-503a"/>
     <use x="500" xlink:href="#MicrosoftYaHei-5238"/>
     <use x="600" xlink:href="#MicrosoftYaHei-41"/>
    </g>
   </g>
   <g id="text_22">
    <!-- 易方达裕丰回报债券 -->
    <defs>
     <path d="M 73.640625 60.984375 
L 72.078125 58.453125 
Q 80.953125 39.703125 99.3125 31.203125 
Q 96.875 28.171875 94.734375 24.359375 
Q 92.671875 25.53125 90.71875 26.703125 
L 90.71875 -13.03125 
L 83.6875 -13.03125 
L 83.6875 -6.6875 
L 52.640625 -6.6875 
L 52.640625 -13.140625 
L 45.609375 -13.140625 
L 45.609375 26.8125 
Q 42.96875 24.75 40.140625 22.90625 
Q 38.28125 25.828125 35.359375 29.4375 
Q 55.46875 41.359375 64.84375 60.984375 
z
M 2.734375 56.78125 
L 2.734375 63.625 
L 32.234375 63.625 
L 32.234375 56.890625 
Q 28.21875 48.1875 22.265625 39.890625 
L 22.265625 32.46875 
L 23.640625 31.5 
Q 27.828125 37.15625 31.34375 43.3125 
L 37.40625 39.109375 
Q 32.03125 32.765625 28.125 28.171875 
Q 32.625 24.953125 37.203125 21.625 
L 32.625 15.484375 
Q 27.34375 20.5625 22.265625 24.953125 
L 22.265625 -13.140625 
L 15.046875 -13.140625 
L 15.046875 30.71875 
Q 9.96875 24.859375 3.90625 19.1875 
Q 2.4375 24.859375 1.375 27.78125 
Q 15.828125 39.703125 24.03125 56.78125 
z
M 83.6875 20.359375 
L 52.640625 20.359375 
L 52.640625 0.140625 
L 83.6875 0.140625 
z
M 67.96875 52 
Q 60.15625 38.140625 46.09375 27.203125 
L 90.046875 27.203125 
Q 76.078125 36.578125 67.96875 52 
z
M 57.421875 80.609375 
L 63.28125 76.21875 
Q 52.046875 61.1875 42.390625 51.609375 
Q 40.140625 54.4375 37.109375 57.28125 
Q 48.734375 67.921875 57.421875 80.609375 
z
M 73.34375 76.125 
L 78.90625 80.328125 
Q 88.484375 69.875 98.140625 58.34375 
L 92.484375 53.265625 
Q 81.15625 67.625 73.34375 76.125 
z
M 11.328125 80.125 
L 17.875 83.640625 
Q 20.703125 79.15625 25.78125 70.171875 
L 18.75 66.359375 
Q 14.546875 74.953125 11.328125 80.125 
z
" id="MicrosoftYaHei-88d5"/>
     <path d="M 2.4375 20.75 
L 45.90625 20.75 
L 45.90625 36.96875 
L 11.625 36.96875 
L 11.625 44.1875 
L 45.90625 44.1875 
L 45.90625 60.203125 
L 5.375 60.203125 
L 5.375 67.4375 
L 45.90625 67.4375 
L 45.90625 83.15625 
L 54.109375 83.15625 
L 54.109375 67.4375 
L 94.625 67.4375 
L 94.625 60.203125 
L 54.109375 60.203125 
L 54.109375 44.1875 
L 88.28125 44.1875 
L 88.28125 36.96875 
L 54.109375 36.96875 
L 54.109375 20.75 
L 97.5625 20.75 
L 97.5625 13.53125 
L 54.109375 13.53125 
L 54.109375 -13.328125 
L 45.90625 -13.328125 
L 45.90625 13.53125 
L 2.4375 13.53125 
z
" id="MicrosoftYaHei-4e30"/>
     <path d="M 7.421875 77.296875 
L 92.78125 77.296875 
L 92.78125 -12.15625 
L 84.578125 -12.15625 
L 84.578125 -5.90625 
L 15.625 -5.90625 
L 15.625 -12.15625 
L 7.421875 -12.15625 
z
M 84.578125 70.0625 
L 15.625 70.0625 
L 15.625 1.125 
L 84.578125 1.125 
z
M 29.296875 55.125 
L 70.796875 55.125 
L 70.796875 12.453125 
L 63.1875 12.453125 
L 63.1875 17.921875 
L 36.921875 17.921875 
L 36.921875 12.453125 
L 29.296875 12.453125 
z
M 63.1875 48.296875 
L 36.921875 48.296875 
L 36.921875 24.75 
L 63.1875 24.75 
z
" id="MicrosoftYaHei-56de"/>
     <path d="M 38.578125 77.875 
L 92.578125 77.875 
Q 92.09375 67.921875 91.703125 62.84375 
Q 91.015625 50.734375 77.4375 50.734375 
Q 71.78125 50.734375 60.9375 50.921875 
Q 60.25 54.640625 59.375 58.734375 
Q 70.125 57.765625 76.5625 57.765625 
Q 83.890625 57.765625 84.375 63.71875 
Q 84.671875 66.84375 84.765625 71.046875 
L 46.1875 71.046875 
L 46.1875 43.109375 
L 93.171875 43.109375 
L 93.171875 36.375 
Q 88.421875 18.890625 77.296875 6.890625 
Q 86.234375 -0.390625 98.828125 -4.734375 
Q 95.40625 -9.03125 93.171875 -11.96875 
Q 80.671875 -5.953125 71.734375 1.703125 
Q 62.59375 -5.859375 50.6875 -12.75 
Q 48.921875 -9.8125 46.390625 -6.109375 
Q 57.90625 0.140625 66.265625 6.984375 
Q 56.203125 18.265625 52.09375 36.28125 
L 46.1875 36.28125 
L 46.1875 -13.421875 
L 38.578125 -13.421875 
z
M 1.46875 31.203125 
Q 8.84375 33.25 15.71875 35.25 
L 15.71875 56.390625 
L 2.734375 56.390625 
L 2.734375 63.140625 
L 15.71875 63.140625 
L 15.71875 82.171875 
L 23.25 82.171875 
L 23.25 63.140625 
L 34.859375 63.140625 
L 34.859375 56.390625 
L 23.25 56.390625 
L 23.25 37.546875 
Q 29.15625 39.40625 34.671875 41.265625 
Q 34.671875 36.578125 34.859375 33.640625 
Q 29.203125 31.84375 23.25 29.890625 
L 23.25 -1.03125 
Q 23.25 -11.578125 13.765625 -11.765625 
Q 9.859375 -11.859375 4.109375 -11.765625 
Q 3.515625 -7.671875 2.828125 -3.46875 
Q 8.59375 -4.046875 11.53125 -4.046875 
Q 15.71875 -4.046875 15.71875 0.734375 
L 15.71875 27.4375 
Q 9.234375 25.34375 2.4375 23.09375 
z
M 85.25 36.28125 
L 58.984375 36.28125 
Q 62.3125 22.015625 71.734375 11.96875 
Q 81.453125 22.171875 85.25 36.28125 
z
" id="MicrosoftYaHei-62a5"/>
    </defs>
    <g transform="translate(592.14751 85.301507)scale(0.1 -0.1)">
     <use xlink:href="#MicrosoftYaHei-6613"/>
     <use x="100" xlink:href="#MicrosoftYaHei-65b9"/>
     <use x="200" xlink:href="#MicrosoftYaHei-8fbe"/>
     <use x="300" xlink:href="#MicrosoftYaHei-88d5"/>
     <use x="400" xlink:href="#MicrosoftYaHei-4e30"/>
     <use x="500" xlink:href="#MicrosoftYaHei-56de"/>
     <use x="600" xlink:href="#MicrosoftYaHei-62a5"/>
     <use x="700" xlink:href="#MicrosoftYaHei-503a"/>
     <use x="800" xlink:href="#MicrosoftYaHei-5238"/>
    </g>
   </g>
   <g id="text_23">
    <!-- 鹏扬利泽债券C -->
    <defs>
     <path d="M 33.015625 -12.84375 
Q 30.078125 -10.015625 27.828125 -7.953125 
Q 33.59375 3.078125 33.59375 26.515625 
L 33.59375 77.6875 
L 54.109375 77.6875 
L 54.109375 -0.828125 
Q 54.109375 -10.890625 47.5625 -11.078125 
Q 44.828125 -11.28125 40.046875 -11.28125 
Q 39.453125 -7.953125 38.28125 -4.25 
Q 42.390625 -4.640625 44.4375 -4.640625 
Q 48.046875 -4.734375 48.046875 -0.4375 
L 48.046875 21.734375 
L 39.546875 21.734375 
Q 39.0625 -1.3125 33.015625 -12.84375 
z
M 6.25 -13.03125 
Q 4.78125 -11.46875 1.078125 -8.15625 
Q 6.640625 4.046875 6.640625 26.421875 
L 6.640625 77.6875 
L 27.046875 77.6875 
L 27.046875 -1.03125 
Q 27.046875 -11.46875 19.140625 -11.46875 
Q 16.015625 -11.46875 12.5 -11.28125 
Q 12.109375 -8.84375 11.03125 -4.4375 
Q 14.65625 -4.828125 17 -4.828125 
Q 21 -4.828125 21 -0.640625 
L 21 21.734375 
L 12.59375 21.734375 
Q 12.109375 -0.046875 6.25 -13.03125 
z
M 66.796875 66.84375 
L 66.796875 31 
L 94.828125 31 
Q 94.53125 13.53125 93.84375 4.046875 
Q 92.875 -11.375 78.515625 -11.375 
Q 69.4375 -11.375 63.484375 -11.1875 
Q 62.984375 -8.0625 61.921875 -4.15625 
Q 70.125 -4.546875 77.9375 -4.546875 
Q 86.71875 -4.546875 87.40625 4.734375 
Q 87.984375 12.640625 88.1875 24.75 
L 60.75 24.75 
L 60.75 72.90625 
L 69.140625 72.90625 
Q 71 78.265625 72.46875 83.34375 
L 79.78125 81.296875 
Q 78.125 77.203125 76.265625 72.90625 
L 92.390625 72.90625 
Q 92.1875 58.34375 92 49.5625 
Q 91.796875 37.0625 80.953125 36.96875 
Q 76.171875 36.859375 71.484375 37.0625 
Q 71.1875 38.8125 70.125 43.796875 
Q 75.984375 43.40625 80.375 43.40625 
Q 85.9375 43.40625 86.140625 49.46875 
Q 86.421875 56.984375 86.421875 66.84375 
z
M 39.65625 27.78125 
L 48.046875 27.78125 
L 48.046875 46.734375 
L 39.65625 46.734375 
z
M 12.703125 27.78125 
L 21 27.78125 
L 21 46.734375 
L 12.703125 46.734375 
z
M 48.046875 71.4375 
L 39.65625 71.4375 
L 39.65625 52.78125 
L 48.046875 52.78125 
z
M 21 71.4375 
L 12.703125 71.4375 
L 12.703125 52.78125 
L 21 52.78125 
z
M 57.8125 14.5 
L 82.328125 14.5 
L 82.328125 8.25 
L 57.8125 8.25 
z
M 69.140625 59.328125 
L 73.828125 63.234375 
Q 79.390625 57.28125 83.59375 52.390625 
L 78.421875 48.09375 
Q 74.03125 53.765625 69.140625 59.328125 
z
" id="MicrosoftYaHei-9e4f"/>
     <path d="M 75 69.96875 
L 37.890625 69.96875 
L 37.890625 77 
L 88.875 77 
L 88.875 69.875 
L 50 45.65625 
L 94.734375 45.65625 
Q 93.453125 17.828125 92.390625 3.078125 
Q 91.109375 -10.984375 77.734375 -10.984375 
Q 72.171875 -10.984375 64.453125 -10.6875 
Q 63.765625 -6.5 62.703125 -2.203125 
Q 69.046875 -3.265625 76.46875 -3.265625 
Q 84.078125 -3.265625 84.765625 4.734375 
Q 85.9375 19.484375 86.8125 38.625 
L 77.6875 38.625 
Q 73.046875 6.453125 46.484375 -12.453125 
Q 44.140625 -9.515625 40.71875 -6.5 
Q 65.484375 10.0625 70.125 38.625 
L 58.015625 38.625 
Q 52.828125 15.765625 31.25 0.4375 
Q 28.8125 3.5625 25.6875 6.59375 
Q 45.65625 20.3125 50.390625 38.625 
L 36.71875 38.625 
L 36.71875 46.046875 
z
M 1.375 31.5 
Q 8.640625 33.6875 15.328125 35.84375 
L 15.328125 56.890625 
L 2.734375 56.890625 
L 2.734375 63.921875 
L 15.328125 63.921875 
L 15.328125 82.28125 
L 22.65625 82.28125 
L 22.65625 63.921875 
L 33.984375 63.921875 
L 33.984375 56.890625 
L 22.65625 56.890625 
L 22.65625 38.234375 
Q 27.984375 40.046875 32.90625 41.84375 
Q 33.109375 36.96875 33.203125 34.234375 
Q 27.734375 32.375 22.65625 30.609375 
L 22.65625 -0.921875 
Q 22.65625 -11.578125 12.984375 -11.671875 
Q 9.578125 -11.765625 3.90625 -11.578125 
Q 3.515625 -7.5625 2.734375 -3.46875 
Q 8.59375 -4.046875 11.140625 -4.046875 
Q 15.328125 -4.15625 15.328125 0.828125 
L 15.328125 28.078125 
Q 8.5 25.640625 2.4375 23.390625 
z
" id="MicrosoftYaHei-626c"/>
     <path d="M 1.171875 11.578125 
Q 14.265625 25.828125 23.25 46.828125 
L 1.65625 46.828125 
L 1.65625 53.953125 
L 25.09375 53.953125 
L 25.09375 68.609375 
Q 15.046875 67.625 5.171875 66.75 
Q 4.5 70.359375 3.21875 74.171875 
Q 26.65625 76.03125 51.078125 79.15625 
L 53.03125 71.734375 
Q 42.671875 70.453125 32.515625 69.390625 
L 32.515625 53.953125 
L 54.6875 53.953125 
L 54.6875 46.828125 
L 32.515625 46.828125 
L 32.515625 33.734375 
L 36.8125 37.84375 
Q 46 30.03125 55.078125 21.046875 
L 49.125 14.984375 
Q 43.171875 21.921875 32.515625 32.078125 
L 32.515625 -12.9375 
L 25.09375 -12.9375 
L 25.09375 35.890625 
Q 16.703125 16.9375 5.078125 2.78125 
Q 2.4375 9.125 1.171875 11.578125 
z
M 85.0625 81.203125 
L 92.78125 81.203125 
L 92.78125 -0.140625 
Q 92.78125 -12.546875 80.28125 -12.453125 
Q 76.265625 -12.453125 67.28125 -12.359375 
Q 66.703125 -8.34375 65.828125 -3.5625 
Q 73.734375 -4.4375 77.828125 -4.4375 
Q 85.0625 -4.546875 85.0625 2.875 
z
M 61.921875 71.4375 
L 69.34375 71.4375 
L 69.34375 9.71875 
L 61.921875 9.71875 
z
" id="MicrosoftYaHei-5229"/>
     <path d="M 31.453125 71.625 
L 31.453125 78.265625 
L 89.75 78.265625 
L 89.75 71.734375 
Q 82.765625 60.203125 69 51.703125 
Q 81.0625 46.296875 97.953125 44.578125 
Q 96 41.359375 93.953125 37.0625 
Q 74.5625 40.09375 61.375 47.515625 
Q 48 40.921875 29.59375 36.578125 
Q 28.03125 39.890625 25.390625 43.890625 
Q 42 46.734375 54.390625 52.046875 
Q 43.84375 60.015625 38.484375 71.625 
z
M 25.390625 11.96875 
L 58.109375 11.96875 
L 58.109375 23.96875 
L 31.0625 23.96875 
L 31.0625 30.609375 
L 58.109375 30.609375 
L 58.109375 40.875 
L 65.53125 40.875 
L 65.53125 30.609375 
L 92.1875 30.609375 
L 92.1875 23.96875 
L 65.53125 23.96875 
L 65.53125 11.96875 
L 97.078125 11.96875 
L 97.078125 5.328125 
L 65.53125 5.328125 
L 65.53125 -12.640625 
L 58.109375 -12.640625 
L 58.109375 5.328125 
L 25.390625 5.328125 
z
M 81.0625 71.625 
L 45.90625 71.625 
Q 51.609375 61.859375 61.765625 55.5625 
Q 73.875 62.15625 81.0625 71.625 
z
M 4.5 -9.515625 
Q 10.359375 8.0625 14.546875 28.265625 
Q 18.453125 26.609375 22.46875 25.25 
Q 18.171875 8.546875 13.09375 -12.15625 
z
M 5.078125 76.21875 
L 10.15625 81.390625 
Q 19.4375 74.171875 26.953125 67.625 
L 21.09375 61.859375 
Q 12.5 70.171875 5.078125 76.21875 
z
M 1.265625 50.734375 
L 6.25 56.296875 
Q 16.21875 49.171875 23.140625 43.703125 
L 17.390625 37.453125 
Q 8.5 45.359375 1.265625 50.734375 
z
" id="MicrosoftYaHei-6cfd"/>
    </defs>
    <g transform="translate(206.248528 325.257093)scale(0.1 -0.1)">
     <use xlink:href="#MicrosoftYaHei-9e4f"/>
     <use x="100" xlink:href="#MicrosoftYaHei-626c"/>
     <use x="200" xlink:href="#MicrosoftYaHei-5229"/>
     <use x="300" xlink:href="#MicrosoftYaHei-6cfd"/>
     <use x="400" xlink:href="#MicrosoftYaHei-503a"/>
     <use x="500" xlink:href="#MicrosoftYaHei-5238"/>
     <use x="600" xlink:href="#MicrosoftYaHei-43"/>
    </g>
   </g>
   <g id="text_24">
    <!-- 招商双债增强债券(LOF)C -->
    <defs>
     <path d="M 46.09375 68.5 
L 46.09375 75.921875 
L 92.09375 75.921875 
L 92.09375 68.796875 
Q 87.9375 33.5 74.21875 14.890625 
Q 84.578125 2.875 98.828125 -3.765625 
Q 95.40625 -7.859375 92.484375 -11.1875 
Q 79.25 -2.828125 69.28125 8.84375 
Q 58.25 -3.46875 39.453125 -13.53125 
Q 37.703125 -10.984375 34.28125 -6.6875 
Q 53.21875 2.484375 64.359375 15.046875 
Q 51.078125 33.734375 48.734375 68.5 
z
M 3.90625 56.78125 
L 10.0625 60.59375 
Q 18.953125 47.515625 27.78125 33.6875 
Q 33.734375 49.421875 35.546875 68.3125 
L 2.734375 68.3125 
L 2.734375 75.734375 
L 43.359375 75.734375 
L 43.359375 68.3125 
Q 39.984375 43.0625 32.671875 25.921875 
Q 39.203125 15.625 45.703125 4.828125 
L 39.265625 -0.140625 
Q 33.796875 9.125 28.609375 17.671875 
Q 20.265625 2.390625 7.125 -10.203125 
Q 4.109375 -6.984375 1.078125 -4.734375 
Q 16.359375 9.625 24.078125 25.09375 
Q 13.28125 42.71875 3.90625 56.78125 
z
M 83.890625 68.5 
L 55.90625 68.5 
Q 58.40625 37.3125 69.1875 21.34375 
Q 80.8125 38.875 83.890625 68.5 
z
" id="MicrosoftYaHei-53cc"/>
     <path d="M 34.1875 69.671875 
L 50.921875 69.671875 
Q 47.515625 74.703125 43.359375 79.9375 
L 48.921875 83.84375 
Q 54 77.984375 57.71875 72.90625 
L 53.171875 69.671875 
L 69.578125 69.671875 
Q 74.359375 76.375 78.90625 83.9375 
L 85.9375 79.9375 
Q 81.78125 74.5625 77.78125 69.671875 
L 94.34375 69.671875 
L 94.34375 33.15625 
L 87.5 33.15625 
L 87.5 36.078125 
L 41.015625 36.078125 
L 41.015625 33.15625 
L 34.1875 33.15625 
z
M 38.09375 28.078125 
L 90.4375 28.078125 
L 90.4375 -13.234375 
L 83.40625 -13.234375 
L 83.40625 -8.546875 
L 45.125 -8.546875 
L 45.125 -13.234375 
L 38.09375 -13.234375 
z
M 1.265625 6.6875 
Q 7.28125 8.40625 13.96875 10.5 
L 13.96875 50.828125 
L 2.25 50.828125 
L 2.25 57.765625 
L 13.96875 57.765625 
L 13.96875 82.171875 
L 21.1875 82.171875 
L 21.1875 57.765625 
L 31.25 57.765625 
L 31.25 50.828125 
L 21.1875 50.828125 
L 21.1875 12.796875 
Q 26.703125 14.546875 32.71875 16.546875 
Q 32.90625 11.859375 33.203125 8.640625 
Q 20.40625 4.9375 3.90625 -0.828125 
z
M 87.5 63.8125 
L 67.578125 63.8125 
L 67.578125 41.9375 
L 87.5 41.9375 
z
M 41.015625 41.9375 
L 60.84375 41.9375 
L 60.84375 63.8125 
L 41.015625 63.8125 
z
M 83.40625 22.015625 
L 45.125 22.015625 
L 45.125 12.640625 
L 83.40625 12.640625 
z
M 45.125 -2.484375 
L 83.40625 -2.484375 
L 83.40625 6.78125 
L 45.125 6.78125 
z
M 83.59375 56.390625 
Q 78.21875 47.90625 75.875 45.0625 
L 70.609375 48.1875 
Q 74.125 52.984375 77.828125 59.8125 
z
M 44.734375 56.203125 
L 49.703125 59.421875 
Q 54.109375 53.765625 57.328125 48.78125 
L 51.859375 45.265625 
Q 48.734375 50.4375 44.734375 56.203125 
z
" id="MicrosoftYaHei-589e"/>
     <path d="M 82.03125 7.28125 
L 88.578125 10.40625 
Q 94.234375 0.4375 99.421875 -10.015625 
L 92.09375 -13.71875 
Q 90.53125 -10.015625 88.875 -6.5 
Q 58.59375 -8.546875 34.671875 -10.203125 
L 33.59375 -2.09375 
Q 48.25 -1.515625 62.015625 -0.921875 
L 62.015625 13.53125 
L 45.21875 13.53125 
L 45.21875 9.71875 
L 37.984375 9.71875 
L 37.984375 40.875 
L 62.015625 40.875 
L 62.015625 51.515625 
L 49.125 51.515625 
L 49.125 47.609375 
L 41.890625 47.609375 
L 41.890625 77.6875 
L 89.546875 77.6875 
L 89.546875 47.609375 
L 82.328125 47.609375 
L 82.328125 51.515625 
L 69.4375 51.515625 
L 69.4375 40.875 
L 93.5625 40.875 
L 93.5625 13.53125 
L 69.4375 13.53125 
L 69.4375 -0.640625 
Q 77.734375 -0.34375 85.75 0.046875 
Q 83.890625 3.765625 82.03125 7.28125 
z
M 6.640625 54.15625 
L 25.78125 54.15625 
L 25.78125 70.5625 
L 3.71875 70.5625 
L 3.71875 77.203125 
L 33.015625 77.203125 
L 33.015625 43.3125 
L 25.78125 43.3125 
L 25.78125 47.515625 
L 12.984375 47.515625 
L 11.234375 32.375 
L 32.125 32.375 
Q 31.15625 11.578125 30.375 2 
Q 29.5 -11.28125 17.1875 -11.28125 
Q 12.796875 -11.28125 6.640625 -11.1875 
Q 6.0625 -7.5625 5.078125 -3.375 
Q 11.421875 -3.859375 15.921875 -3.859375 
Q 22.5625 -3.859375 23.046875 2.984375 
Q 23.828125 12.9375 24.421875 25.734375 
L 3.515625 25.734375 
z
M 82.328125 71.046875 
L 49.125 71.046875 
L 49.125 58.15625 
L 82.328125 58.15625 
z
M 86.328125 20.171875 
L 86.328125 34.234375 
L 69.4375 34.234375 
L 69.4375 20.171875 
z
M 45.21875 20.171875 
L 62.015625 20.171875 
L 62.015625 34.234375 
L 45.21875 34.234375 
z
" id="MicrosoftYaHei-5f3a"/>
     <path d="M 23.921875 -17.1875 
Q 7.46875 1.5625 7.46875 28.859375 
Q 7.46875 56.15625 23.921875 75.640625 
L 32.375 75.640625 
Q 15.875 55.375 15.875 28.953125 
Q 15.875 2.59375 32.28125 -17.1875 
z
" id="MicrosoftYaHei-28"/>
     <path d="M 49.65625 0 
L 9.765625 0 
L 9.765625 75.640625 
L 19.53125 75.640625 
L 19.53125 8.640625 
L 49.65625 8.640625 
z
" id="MicrosoftYaHei-4c"/>
     <path d="M 4.890625 36.921875 
Q 4.890625 55.21875 14.796875 66.0625 
Q 24.703125 76.90625 41.65625 76.90625 
Q 57.421875 76.90625 67.03125 66.3125 
Q 76.65625 55.71875 76.65625 38.71875 
Q 76.65625 20.3125 66.796875 9.515625 
Q 56.9375 -1.265625 40.4375 -1.265625 
Q 24.3125 -1.265625 14.59375 9.328125 
Q 4.890625 19.921875 4.890625 36.921875 
z
M 15.140625 37.703125 
Q 15.140625 23.96875 22.140625 15.6875 
Q 29.15625 7.421875 40.4375 7.421875 
Q 52.546875 7.421875 59.453125 15.359375 
Q 66.359375 23.296875 66.359375 37.546875 
Q 66.359375 52.203125 59.59375 60.15625 
Q 52.828125 68.109375 41.0625 68.109375 
Q 29.5 68.109375 22.3125 59.703125 
Q 15.140625 51.3125 15.140625 37.703125 
z
" id="MicrosoftYaHei-4f"/>
     <path d="M 48.734375 66.9375 
L 19.53125 66.9375 
L 19.53125 41.65625 
L 46.578125 41.65625 
L 46.578125 33.0625 
L 19.53125 33.0625 
L 19.53125 0 
L 9.765625 0 
L 9.765625 75.640625 
L 48.734375 75.640625 
z
" id="MicrosoftYaHei-46"/>
     <path d="M 1.21875 -17.1875 
Q 17.671875 2.546875 17.671875 28.953125 
Q 17.671875 55.421875 1.125 75.640625 
L 9.625 75.640625 
Q 26.125 56.296875 26.125 28.859375 
Q 26.125 1.421875 9.625 -17.1875 
z
" id="MicrosoftYaHei-29"/>
    </defs>
    <g transform="translate(330.367193 244.416101)scale(0.1 -0.1)">
     <use xlink:href="#MicrosoftYaHei-62db"/>
     <use x="100" xlink:href="#MicrosoftYaHei-5546"/>
     <use x="200" xlink:href="#MicrosoftYaHei-53cc"/>
     <use x="300" xlink:href="#MicrosoftYaHei-503a"/>
     <use x="400" xlink:href="#MicrosoftYaHei-589e"/>
     <use x="500" xlink:href="#MicrosoftYaHei-5f3a"/>
     <use x="600" xlink:href="#MicrosoftYaHei-503a"/>
     <use x="700" xlink:href="#MicrosoftYaHei-5238"/>
     <use x="800" xlink:href="#MicrosoftYaHei-28"/>
     <use x="833.398438" xlink:href="#MicrosoftYaHei-4c"/>
     <use x="884.669922" xlink:href="#MicrosoftYaHei-4f"/>
     <use x="966.164062" xlink:href="#MicrosoftYaHei-46"/>
     <use x="1019.289062" xlink:href="#MicrosoftYaHei-29"/>
     <use x="1052.6875" xlink:href="#MicrosoftYaHei-43"/>
    </g>
   </g>
  </g>
 </g>
 <defs>
  <clipPath id="p6d7f533e62">
   <rect height="332.64" width="558" x="90" y="51.84"/>
  </clipPath>
 </defs>
</svg>
