<?xml version="1.0" encoding="utf-8" standalone="no"?>
<!DOCTYPE svg PUBLIC "-//W3C//DTD SVG 1.1//EN"
  "http://www.w3.org/Graphics/SVG/1.1/DTD/svg11.dtd">
<!-- Created with matplotlib (http://matplotlib.org/) -->
<svg height="432pt" version="1.1" viewBox="0 0 720 432" width="720pt" xmlns="http://www.w3.org/2000/svg" xmlns:xlink="http://www.w3.org/1999/xlink">
 <defs>
  <style type="text/css">
*{stroke-linecap:butt;stroke-linejoin:round;}
  </style>
 </defs>
 <g id="figure_1">
  <g id="patch_1">
   <path d="M 0 432 
L 720 432 
L 720 0 
L 0 0 
z
" style="fill:#ffffff;"/>
  </g>
  <g id="axes_1">
   <g id="patch_2">
    <path d="M 90 384.48 
L 648 384.48 
L 648 51.84 
L 90 51.84 
z
" style="fill:#ffffff;"/>
   </g>
   <g id="PathCollection_1">
    <defs>
     <path d="M 0 2.236068 
C 0.593012 2.236068 1.161816 2.000462 1.581139 1.581139 
C 2.000462 1.161816 2.236068 0.593012 2.236068 0 
C 2.236068 -0.593012 2.000462 -1.161816 1.581139 -1.581139 
C 1.161816 -2.000462 0.593012 -2.236068 0 -2.236068 
C -0.593012 -2.236068 -1.161816 -2.000462 -1.581139 -1.581139 
C -2.000462 -1.161816 -2.236068 -0.593012 -2.236068 0 
C -2.236068 0.593012 -2.000462 1.161816 -1.581139 1.581139 
C -1.161816 2.000462 -0.593012 2.236068 0 2.236068 
z
" id="me4eed99359" style="stroke:#1f77b4;"/>
    </defs>
    <g clip-path="url(#p6bd5a9e075)">
     <use style="fill:#1f77b4;stroke:#1f77b4;" x="617.484939" xlink:href="#me4eed99359" y="322.859689"/>
     <use style="fill:#1f77b4;stroke:#1f77b4;" x="464.250124" xlink:href="#me4eed99359" y="344.345679"/>
     <use style="fill:#1f77b4;stroke:#1f77b4;" x="215.58967" xlink:href="#me4eed99359" y="71.799352"/>
     <use style="fill:#1f77b4;stroke:#1f77b4;" x="120.515061" xlink:href="#me4eed99359" y="364.520648"/>
    </g>
   </g>
   <g id="matplotlib.axis_1">
    <g id="xtick_1">
     <g id="line2d_1">
      <path clip-path="url(#p6bd5a9e075)" d="M 145.071664 384.48 
L 145.071664 51.84 
" style="fill:none;stroke:#b0b0b0;stroke-linecap:square;stroke-width:0.8;"/>
     </g>
     <g id="line2d_2">
      <defs>
       <path d="M 0 0 
L 0 3.5 
" id="m7c71c3ddda" style="stroke:#000000;stroke-width:0.8;"/>
      </defs>
      <g>
       <use style="stroke:#000000;stroke-width:0.8;" x="145.071664" xlink:href="#m7c71c3ddda" y="384.48"/>
      </g>
     </g>
     <g id="text_1">
      <!-- 0.20 -->
      <defs>
       <path d="M 4.4375 36.328125 
Q 4.4375 56.34375 11.078125 66.625 
Q 17.71875 76.90625 30.328125 76.90625 
Q 54.34375 76.90625 54.34375 38.140625 
Q 54.34375 19 47.578125 8.859375 
Q 40.828125 -1.265625 28.609375 -1.265625 
Q 17.09375 -1.265625 10.765625 8.34375 
Q 4.4375 17.96875 4.4375 36.328125 
z
M 14.203125 36.765625 
Q 14.203125 6.640625 29.5 6.640625 
Q 44.53125 6.640625 44.53125 37.25 
Q 44.53125 68.953125 29.78125 68.953125 
Q 14.203125 68.953125 14.203125 36.765625 
z
" id="MicrosoftYaHei-30"/>
       <path d="M 5.8125 5.03125 
Q 5.8125 7.671875 7.609375 9.46875 
Q 9.421875 11.28125 12.109375 11.28125 
Q 14.84375 11.28125 16.640625 9.453125 
Q 18.453125 7.625 18.453125 5.03125 
Q 18.453125 2.484375 16.640625 0.65625 
Q 14.84375 -1.171875 12.0625 -1.171875 
Q 9.375 -1.171875 7.59375 0.65625 
Q 5.8125 2.484375 5.8125 5.03125 
z
" id="MicrosoftYaHei-2e"/>
       <path d="M 51.171875 0 
L 5.171875 0 
L 5.171875 8.296875 
L 27.15625 30.21875 
Q 36.234375 39.3125 39.3125 44.609375 
Q 42.390625 49.90625 42.390625 55.5625 
Q 42.390625 62.015625 38.765625 65.453125 
Q 35.15625 68.890625 28.328125 68.890625 
Q 18.21875 68.890625 9.03125 60.296875 
L 9.03125 70.015625 
Q 17.96875 76.90625 29.828125 76.90625 
Q 40.046875 76.90625 45.953125 71.390625 
Q 51.859375 65.875 51.859375 56.546875 
Q 51.859375 49.515625 48.0625 42.75 
Q 44.28125 35.984375 33.734375 25.53125 
L 16.5 8.6875 
L 16.5 8.5 
L 51.171875 8.5 
z
" id="MicrosoftYaHei-32"/>
      </defs>
      <g transform="translate(135.071664 399.47375)scale(0.1 -0.1)">
       <use xlink:href="#MicrosoftYaHei-30"/>
       <use x="58.642578" xlink:href="#MicrosoftYaHei-2e"/>
       <use x="82.714844" xlink:href="#MicrosoftYaHei-32"/>
       <use x="141.357422" xlink:href="#MicrosoftYaHei-30"/>
      </g>
     </g>
    </g>
    <g id="xtick_2">
     <g id="line2d_3">
      <path clip-path="url(#p6bd5a9e075)" d="M 234.343414 384.48 
L 234.343414 51.84 
" style="fill:none;stroke:#b0b0b0;stroke-linecap:square;stroke-width:0.8;"/>
     </g>
     <g id="line2d_4">
      <g>
       <use style="stroke:#000000;stroke-width:0.8;" x="234.343414" xlink:href="#m7c71c3ddda" y="384.48"/>
      </g>
     </g>
     <g id="text_2">
      <!-- 0.25 -->
      <defs>
       <path d="M 8.640625 11.625 
Q 16.265625 6.640625 24.515625 6.640625 
Q 32.328125 6.640625 37.109375 11 
Q 41.890625 15.375 41.890625 22.609375 
Q 41.890625 29.890625 37.03125 33.890625 
Q 32.171875 37.890625 22.953125 37.890625 
Q 18.5 37.890625 10.984375 37.203125 
L 10.984375 75.640625 
L 48.1875 75.640625 
L 48.1875 67.1875 
L 19.875 67.1875 
L 19.875 45.796875 
Q 24.125 46.046875 26.265625 46.046875 
Q 38.234375 46.046875 44.921875 39.984375 
Q 51.609375 33.9375 51.609375 23.296875 
Q 51.609375 12.3125 44.421875 5.515625 
Q 37.25 -1.265625 24.609375 -1.265625 
Q 14.015625 -1.265625 8.640625 1.859375 
z
" id="MicrosoftYaHei-35"/>
      </defs>
      <g transform="translate(224.343414 399.47375)scale(0.1 -0.1)">
       <use xlink:href="#MicrosoftYaHei-30"/>
       <use x="58.642578" xlink:href="#MicrosoftYaHei-2e"/>
       <use x="82.714844" xlink:href="#MicrosoftYaHei-32"/>
       <use x="141.357422" xlink:href="#MicrosoftYaHei-35"/>
      </g>
     </g>
    </g>
    <g id="xtick_3">
     <g id="line2d_5">
      <path clip-path="url(#p6bd5a9e075)" d="M 323.615163 384.48 
L 323.615163 51.84 
" style="fill:none;stroke:#b0b0b0;stroke-linecap:square;stroke-width:0.8;"/>
     </g>
     <g id="line2d_6">
      <g>
       <use style="stroke:#000000;stroke-width:0.8;" x="323.615163" xlink:href="#m7c71c3ddda" y="384.48"/>
      </g>
     </g>
     <g id="text_3">
      <!-- 0.30 -->
      <defs>
       <path d="M 6.984375 12.640625 
Q 14.75 6.640625 24.515625 6.640625 
Q 32.328125 6.640625 36.890625 10.46875 
Q 41.453125 14.3125 41.453125 20.75 
Q 41.453125 35.109375 20.90625 35.109375 
L 14.59375 35.109375 
L 14.59375 43.015625 
L 20.609375 43.015625 
Q 38.8125 43.015625 38.8125 56.5 
Q 38.8125 68.953125 24.90625 68.953125 
Q 16.9375 68.953125 9.90625 63.578125 
L 9.90625 72.609375 
Q 17.328125 76.90625 27.25 76.90625 
Q 36.921875 76.90625 42.78125 71.84375 
Q 48.640625 66.796875 48.640625 58.734375 
Q 48.640625 43.890625 33.5 39.65625 
L 33.5 39.453125 
Q 41.703125 38.578125 46.453125 33.671875 
Q 51.21875 28.765625 51.21875 21.4375 
Q 51.21875 11.234375 43.875 4.984375 
Q 36.53125 -1.265625 24.3125 -1.265625 
Q 13.578125 -1.265625 6.984375 2.734375 
z
" id="MicrosoftYaHei-33"/>
      </defs>
      <g transform="translate(313.615163 399.47375)scale(0.1 -0.1)">
       <use xlink:href="#MicrosoftYaHei-30"/>
       <use x="58.642578" xlink:href="#MicrosoftYaHei-2e"/>
       <use x="82.714844" xlink:href="#MicrosoftYaHei-33"/>
       <use x="141.357422" xlink:href="#MicrosoftYaHei-30"/>
      </g>
     </g>
    </g>
    <g id="xtick_4">
     <g id="line2d_7">
      <path clip-path="url(#p6bd5a9e075)" d="M 412.886913 384.48 
L 412.886913 51.84 
" style="fill:none;stroke:#b0b0b0;stroke-linecap:square;stroke-width:0.8;"/>
     </g>
     <g id="line2d_8">
      <g>
       <use style="stroke:#000000;stroke-width:0.8;" x="412.886913" xlink:href="#m7c71c3ddda" y="384.48"/>
      </g>
     </g>
     <g id="text_4">
      <!-- 0.35 -->
      <g transform="translate(402.886913 399.47375)scale(0.1 -0.1)">
       <use xlink:href="#MicrosoftYaHei-30"/>
       <use x="58.642578" xlink:href="#MicrosoftYaHei-2e"/>
       <use x="82.714844" xlink:href="#MicrosoftYaHei-33"/>
       <use x="141.357422" xlink:href="#MicrosoftYaHei-35"/>
      </g>
     </g>
    </g>
    <g id="xtick_5">
     <g id="line2d_9">
      <path clip-path="url(#p6bd5a9e075)" d="M 502.158663 384.48 
L 502.158663 51.84 
" style="fill:none;stroke:#b0b0b0;stroke-linecap:square;stroke-width:0.8;"/>
     </g>
     <g id="line2d_10">
      <g>
       <use style="stroke:#000000;stroke-width:0.8;" x="502.158663" xlink:href="#m7c71c3ddda" y="384.48"/>
      </g>
     </g>
     <g id="text_5">
      <!-- 0.40 -->
      <defs>
       <path d="M 55.078125 19.625 
L 45.40625 19.625 
L 45.40625 0 
L 36.140625 0 
L 36.140625 19.625 
L 0.875 19.625 
L 0.875 25.828125 
L 34.328125 75.640625 
L 45.40625 75.640625 
L 45.40625 27.203125 
L 55.078125 27.203125 
z
M 36.140625 27.203125 
L 36.140625 58.890625 
Q 36.140625 62.25 36.328125 66.65625 
L 36.140625 66.65625 
Q 35.453125 64.796875 33.25 60.84375 
L 10.75 27.203125 
z
" id="MicrosoftYaHei-34"/>
      </defs>
      <g transform="translate(492.158663 399.47375)scale(0.1 -0.1)">
       <use xlink:href="#MicrosoftYaHei-30"/>
       <use x="58.642578" xlink:href="#MicrosoftYaHei-2e"/>
       <use x="82.714844" xlink:href="#MicrosoftYaHei-34"/>
       <use x="141.357422" xlink:href="#MicrosoftYaHei-30"/>
      </g>
     </g>
    </g>
    <g id="xtick_6">
     <g id="line2d_11">
      <path clip-path="url(#p6bd5a9e075)" d="M 591.430412 384.48 
L 591.430412 51.84 
" style="fill:none;stroke:#b0b0b0;stroke-linecap:square;stroke-width:0.8;"/>
     </g>
     <g id="line2d_12">
      <g>
       <use style="stroke:#000000;stroke-width:0.8;" x="591.430412" xlink:href="#m7c71c3ddda" y="384.48"/>
      </g>
     </g>
     <g id="text_6">
      <!-- 0.45 -->
      <g transform="translate(581.430412 399.47375)scale(0.1 -0.1)">
       <use xlink:href="#MicrosoftYaHei-30"/>
       <use x="58.642578" xlink:href="#MicrosoftYaHei-2e"/>
       <use x="82.714844" xlink:href="#MicrosoftYaHei-34"/>
       <use x="141.357422" xlink:href="#MicrosoftYaHei-35"/>
      </g>
     </g>
    </g>
    <g id="text_7">
     <!-- max_drawdown -->
     <defs>
      <path d="M 86.28125 0 
L 76.703125 0 
L 76.703125 31 
Q 76.703125 39.796875 73.96875 43.578125 
Q 71.234375 47.359375 64.984375 47.359375 
Q 59.71875 47.359375 55.953125 42.421875 
Q 52.203125 37.5 52.203125 30.765625 
L 52.203125 0 
L 42.625 0 
L 42.625 31.984375 
Q 42.625 47.359375 30.765625 47.359375 
Q 25.296875 47.359375 21.703125 42.671875 
Q 18.109375 37.984375 18.109375 30.71875 
L 18.109375 0 
L 8.546875 0 
L 8.546875 54 
L 18.109375 54 
L 18.109375 45.453125 
L 18.3125 45.453125 
Q 24.078125 55.28125 35.15625 55.28125 
Q 40.578125 55.28125 44.71875 52.296875 
Q 48.875 49.3125 50.484375 44.234375 
Q 56.5 55.28125 68.453125 55.28125 
Q 86.28125 55.28125 86.28125 33.296875 
z
" id="MicrosoftYaHei-6d"/>
      <path d="M 9.8125 50.25 
Q 17.875 55.28125 28.421875 55.28125 
Q 47.953125 55.28125 47.953125 34.765625 
L 47.953125 0 
L 38.484375 0 
L 38.484375 8.34375 
L 38.234375 8.34375 
Q 32.625 -1.265625 21.6875 -1.265625 
Q 13.8125 -1.265625 9.171875 2.984375 
Q 4.546875 7.234375 4.546875 14.453125 
Q 4.546875 29.59375 22.46875 32.078125 
L 38.484375 34.328125 
Q 38.484375 47.5625 27.546875 47.5625 
Q 17.828125 47.5625 9.8125 41.015625 
z
M 25.828125 25.390625 
Q 19.1875 24.515625 16.671875 22.0625 
Q 14.15625 19.625 14.15625 15.234375 
Q 14.15625 11.375 16.890625 8.9375 
Q 19.625 6.5 24.125 6.5 
Q 30.375 6.5 34.421875 10.890625 
Q 38.484375 15.28125 38.484375 21.921875 
L 38.484375 27.09375 
z
" id="MicrosoftYaHei-61"/>
      <path d="M 49.421875 54 
L 31.34375 26.8125 
L 49.171875 0 
L 38.03125 0 
L 27.734375 17.1875 
Q 26.90625 18.5625 25.390625 21.390625 
L 25.203125 21.390625 
Q 25.140625 21.09375 22.75 17.1875 
L 12.25 0 
L 1.265625 0 
L 19.625 26.515625 
L 2.09375 54 
L 13.234375 54 
L 23.34375 35.9375 
Q 24.265625 34.28125 25.59375 31.640625 
L 25.78125 31.640625 
L 38.921875 54 
z
" id="MicrosoftYaHei-78"/>
      <path d="M 44.828125 -15.671875 
L 0 -15.671875 
L 0 -9.375 
L 44.828125 -9.375 
z
" id="MicrosoftYaHei-5f"/>
      <path d="M 55.421875 0 
L 45.84375 0 
L 45.84375 8.984375 
L 45.65625 8.984375 
Q 39.75 -1.265625 27.296875 -1.265625 
Q 17.046875 -1.265625 10.984375 6.03125 
Q 4.9375 13.328125 4.9375 25.734375 
Q 4.9375 39.109375 11.765625 47.1875 
Q 18.609375 55.28125 29.640625 55.28125 
Q 40.671875 55.28125 45.65625 46.6875 
L 45.84375 46.6875 
L 45.84375 79.9375 
L 55.421875 79.9375 
z
M 45.90625 32.125 
Q 45.90625 38.625 41.625 42.984375 
Q 37.359375 47.359375 31.109375 47.359375 
Q 23.484375 47.359375 19.09375 41.671875 
Q 14.703125 35.984375 14.703125 26.171875 
Q 14.703125 17.140625 18.921875 11.890625 
Q 23.140625 6.640625 30.171875 6.640625 
Q 37.109375 6.640625 41.5 11.78125 
Q 45.90625 16.9375 45.90625 24.609375 
z
" id="MicrosoftYaHei-64"/>
      <path d="M 37.5 44.53125 
Q 35.109375 46.234375 30.90625 46.234375 
Q 25.34375 46.234375 21.71875 41.03125 
Q 18.109375 35.84375 18.109375 27.34375 
L 18.109375 0 
L 8.546875 0 
L 8.546875 54 
L 18.109375 54 
L 18.109375 43.015625 
L 18.3125 43.015625 
Q 22.40625 54.9375 32.46875 54.9375 
Q 35.75 54.9375 37.5 54.203125 
z
" id="MicrosoftYaHei-72"/>
      <path d="M 77.734375 54 
L 61.625 0 
L 51.65625 0 
L 40.921875 37.890625 
Q 40.234375 40.328125 40.046875 43.0625 
L 39.84375 43.0625 
Q 39.703125 41.015625 38.71875 37.984375 
L 27.09375 0 
L 17.4375 0 
L 1.21875 54 
L 11.1875 54 
L 21.96875 13.96875 
Q 22.46875 12.15625 22.703125 9.03125 
L 23.09375 9.03125 
Q 23.296875 11.71875 24.03125 14.109375 
L 35.640625 54 
L 44.484375 54 
L 55.8125 13.921875 
Q 56.296875 12.15625 56.59375 8.9375 
L 57.03125 8.9375 
Q 57.125 11.078125 57.90625 13.921875 
L 68.453125 54 
z
" id="MicrosoftYaHei-77"/>
      <path d="M 4.9375 26.421875 
Q 4.9375 39.796875 12.40625 47.53125 
Q 19.875 55.28125 32.671875 55.28125 
Q 44.828125 55.28125 51.734375 47.828125 
Q 58.640625 40.375 58.640625 27.25 
Q 58.640625 14.453125 51.265625 6.59375 
Q 43.890625 -1.265625 31.5 -1.265625 
Q 19.390625 -1.265625 12.15625 6.34375 
Q 4.9375 13.96875 4.9375 26.421875 
z
M 14.703125 26.703125 
Q 14.703125 17.390625 19.40625 12.015625 
Q 24.125 6.640625 32.078125 6.640625 
Q 40.28125 6.640625 44.578125 11.890625 
Q 48.875 17.140625 48.875 26.953125 
Q 48.875 36.8125 44.578125 42.078125 
Q 40.28125 47.359375 32.078125 47.359375 
Q 24.03125 47.359375 19.359375 41.84375 
Q 14.703125 36.328125 14.703125 26.703125 
z
" id="MicrosoftYaHei-6f"/>
      <path d="M 54.203125 0 
L 44.671875 0 
L 44.671875 30.71875 
Q 44.671875 47.359375 32.515625 47.359375 
Q 26.21875 47.359375 22.15625 42.671875 
Q 18.109375 37.984375 18.109375 30.8125 
L 18.109375 0 
L 8.546875 0 
L 8.546875 54 
L 18.109375 54 
L 18.109375 45.0625 
L 18.3125 45.0625 
Q 24.421875 55.28125 36.03125 55.28125 
Q 44.921875 55.28125 49.5625 49.578125 
Q 54.203125 43.890625 54.203125 33.015625 
z
" id="MicrosoftYaHei-6e"/>
     </defs>
     <g transform="translate(331.549219 413.953438)scale(0.1 -0.1)">
      <use xlink:href="#MicrosoftYaHei-6d"/>
      <use x="93.701172" xlink:href="#MicrosoftYaHei-61"/>
      <use x="148.974609" xlink:href="#MicrosoftYaHei-78"/>
      <use x="199.658203" xlink:href="#MicrosoftYaHei-5f"/>
      <use x="244.482422" xlink:href="#MicrosoftYaHei-64"/>
      <use x="308.447266" xlink:href="#MicrosoftYaHei-72"/>
      <use x="346.630859" xlink:href="#MicrosoftYaHei-61"/>
      <use x="401.904297" xlink:href="#MicrosoftYaHei-77"/>
      <use x="480.859375" xlink:href="#MicrosoftYaHei-64"/>
      <use x="544.824219" xlink:href="#MicrosoftYaHei-6f"/>
      <use x="608.398438" xlink:href="#MicrosoftYaHei-77"/>
      <use x="687.353516" xlink:href="#MicrosoftYaHei-6e"/>
     </g>
    </g>
   </g>
   <g id="matplotlib.axis_2">
    <g id="ytick_1">
     <g id="line2d_13">
      <path clip-path="url(#p6bd5a9e075)" d="M 90 367.4829 
L 648 367.4829 
" style="fill:none;stroke:#b0b0b0;stroke-linecap:square;stroke-width:0.8;"/>
     </g>
     <g id="line2d_14">
      <defs>
       <path d="M 0 0 
L -3.5 0 
" id="mef81270f1c" style="stroke:#000000;stroke-width:0.8;"/>
      </defs>
      <g>
       <use style="stroke:#000000;stroke-width:0.8;" x="90" xlink:href="#mef81270f1c" y="367.4829"/>
      </g>
     </g>
     <g id="text_8">
      <!-- 0.15 -->
      <defs>
       <path d="M 52.59375 0 
L 9.234375 0 
L 9.234375 8.25 
L 26.171875 8.25 
L 26.171875 65.671875 
L 8.796875 60.640625 
L 8.796875 69.4375 
L 35.6875 77.25 
L 35.6875 8.25 
L 52.59375 8.25 
z
" id="MicrosoftYaHei-31"/>
      </defs>
      <g transform="translate(63 371.479775)scale(0.1 -0.1)">
       <use xlink:href="#MicrosoftYaHei-30"/>
       <use x="58.642578" xlink:href="#MicrosoftYaHei-2e"/>
       <use x="82.714844" xlink:href="#MicrosoftYaHei-31"/>
       <use x="141.357422" xlink:href="#MicrosoftYaHei-35"/>
      </g>
     </g>
    </g>
    <g id="ytick_2">
     <g id="line2d_15">
      <path clip-path="url(#p6bd5a9e075)" d="M 90 317.489323 
L 648 317.489323 
" style="fill:none;stroke:#b0b0b0;stroke-linecap:square;stroke-width:0.8;"/>
     </g>
     <g id="line2d_16">
      <g>
       <use style="stroke:#000000;stroke-width:0.8;" x="90" xlink:href="#mef81270f1c" y="317.489323"/>
      </g>
     </g>
     <g id="text_9">
      <!-- 0.20 -->
      <g transform="translate(63 321.486198)scale(0.1 -0.1)">
       <use xlink:href="#MicrosoftYaHei-30"/>
       <use x="58.642578" xlink:href="#MicrosoftYaHei-2e"/>
       <use x="82.714844" xlink:href="#MicrosoftYaHei-32"/>
       <use x="141.357422" xlink:href="#MicrosoftYaHei-30"/>
      </g>
     </g>
    </g>
    <g id="ytick_3">
     <g id="line2d_17">
      <path clip-path="url(#p6bd5a9e075)" d="M 90 267.495746 
L 648 267.495746 
" style="fill:none;stroke:#b0b0b0;stroke-linecap:square;stroke-width:0.8;"/>
     </g>
     <g id="line2d_18">
      <g>
       <use style="stroke:#000000;stroke-width:0.8;" x="90" xlink:href="#mef81270f1c" y="267.495746"/>
      </g>
     </g>
     <g id="text_10">
      <!-- 0.25 -->
      <g transform="translate(63 271.492621)scale(0.1 -0.1)">
       <use xlink:href="#MicrosoftYaHei-30"/>
       <use x="58.642578" xlink:href="#MicrosoftYaHei-2e"/>
       <use x="82.714844" xlink:href="#MicrosoftYaHei-32"/>
       <use x="141.357422" xlink:href="#MicrosoftYaHei-35"/>
      </g>
     </g>
    </g>
    <g id="ytick_4">
     <g id="line2d_19">
      <path clip-path="url(#p6bd5a9e075)" d="M 90 217.502169 
L 648 217.502169 
" style="fill:none;stroke:#b0b0b0;stroke-linecap:square;stroke-width:0.8;"/>
     </g>
     <g id="line2d_20">
      <g>
       <use style="stroke:#000000;stroke-width:0.8;" x="90" xlink:href="#mef81270f1c" y="217.502169"/>
      </g>
     </g>
     <g id="text_11">
      <!-- 0.30 -->
      <g transform="translate(63 221.499044)scale(0.1 -0.1)">
       <use xlink:href="#MicrosoftYaHei-30"/>
       <use x="58.642578" xlink:href="#MicrosoftYaHei-2e"/>
       <use x="82.714844" xlink:href="#MicrosoftYaHei-33"/>
       <use x="141.357422" xlink:href="#MicrosoftYaHei-30"/>
      </g>
     </g>
    </g>
    <g id="ytick_5">
     <g id="line2d_21">
      <path clip-path="url(#p6bd5a9e075)" d="M 90 167.508593 
L 648 167.508593 
" style="fill:none;stroke:#b0b0b0;stroke-linecap:square;stroke-width:0.8;"/>
     </g>
     <g id="line2d_22">
      <g>
       <use style="stroke:#000000;stroke-width:0.8;" x="90" xlink:href="#mef81270f1c" y="167.508593"/>
      </g>
     </g>
     <g id="text_12">
      <!-- 0.35 -->
      <g transform="translate(63 171.505468)scale(0.1 -0.1)">
       <use xlink:href="#MicrosoftYaHei-30"/>
       <use x="58.642578" xlink:href="#MicrosoftYaHei-2e"/>
       <use x="82.714844" xlink:href="#MicrosoftYaHei-33"/>
       <use x="141.357422" xlink:href="#MicrosoftYaHei-35"/>
      </g>
     </g>
    </g>
    <g id="ytick_6">
     <g id="line2d_23">
      <path clip-path="url(#p6bd5a9e075)" d="M 90 117.515016 
L 648 117.515016 
" style="fill:none;stroke:#b0b0b0;stroke-linecap:square;stroke-width:0.8;"/>
     </g>
     <g id="line2d_24">
      <g>
       <use style="stroke:#000000;stroke-width:0.8;" x="90" xlink:href="#mef81270f1c" y="117.515016"/>
      </g>
     </g>
     <g id="text_13">
      <!-- 0.40 -->
      <g transform="translate(63 121.511891)scale(0.1 -0.1)">
       <use xlink:href="#MicrosoftYaHei-30"/>
       <use x="58.642578" xlink:href="#MicrosoftYaHei-2e"/>
       <use x="82.714844" xlink:href="#MicrosoftYaHei-34"/>
       <use x="141.357422" xlink:href="#MicrosoftYaHei-30"/>
      </g>
     </g>
    </g>
    <g id="ytick_7">
     <g id="line2d_25">
      <path clip-path="url(#p6bd5a9e075)" d="M 90 67.521439 
L 648 67.521439 
" style="fill:none;stroke:#b0b0b0;stroke-linecap:square;stroke-width:0.8;"/>
     </g>
     <g id="line2d_26">
      <g>
       <use style="stroke:#000000;stroke-width:0.8;" x="90" xlink:href="#mef81270f1c" y="67.521439"/>
      </g>
     </g>
     <g id="text_14">
      <!-- 0.45 -->
      <g transform="translate(63 71.518314)scale(0.1 -0.1)">
       <use xlink:href="#MicrosoftYaHei-30"/>
       <use x="58.642578" xlink:href="#MicrosoftYaHei-2e"/>
       <use x="82.714844" xlink:href="#MicrosoftYaHei-34"/>
       <use x="141.357422" xlink:href="#MicrosoftYaHei-35"/>
      </g>
     </g>
    </g>
    <g id="text_15">
     <!-- growth_ratio -->
     <defs>
      <path d="M 55.421875 4.546875 
Q 55.421875 -25.4375 26.3125 -25.4375 
Q 16.265625 -25.4375 8.84375 -21.6875 
L 8.84375 -12.453125 
Q 17.875 -17.484375 26.171875 -17.484375 
Q 45.84375 -17.484375 45.84375 3.21875 
L 45.84375 8.9375 
L 45.65625 8.9375 
Q 39.5 -1.265625 27.296875 -1.265625 
Q 17.140625 -1.265625 11.03125 6 
Q 4.9375 13.28125 4.9375 25.296875 
Q 4.9375 39.109375 11.671875 47.1875 
Q 18.40625 55.28125 29.640625 55.28125 
Q 40.4375 55.28125 45.65625 46.6875 
L 45.84375 46.6875 
L 45.84375 54 
L 55.421875 54 
z
M 45.84375 32.125 
Q 45.90625 38.375 41.65625 42.859375 
Q 37.40625 47.359375 31.203125 47.359375 
Q 23.390625 47.359375 19.046875 41.625 
Q 14.703125 35.890625 14.703125 25.875 
Q 14.703125 17.28125 18.890625 11.953125 
Q 23.09375 6.640625 30.03125 6.640625 
Q 37.015625 6.640625 41.453125 11.71875 
Q 45.90625 16.796875 45.84375 24.609375 
z
" id="MicrosoftYaHei-67"/>
      <path d="M 34.46875 0.53125 
Q 31.34375 -1.171875 26.03125 -1.171875 
Q 11.53125 -1.171875 11.53125 14.890625 
L 11.53125 46.09375 
L 2.25 46.09375 
L 2.25 54 
L 11.53125 54 
L 11.53125 67 
L 21.046875 70.015625 
L 21.046875 54 
L 34.46875 54 
L 34.46875 46.09375 
L 21.046875 46.09375 
L 21.046875 16.609375 
Q 21.046875 11.28125 22.84375 8.984375 
Q 24.65625 6.6875 28.859375 6.6875 
Q 32.078125 6.6875 34.46875 8.5 
z
" id="MicrosoftYaHei-74"/>
      <path d="M 54.15625 0 
L 44.625 0 
L 44.625 31.0625 
Q 44.625 47.359375 32.515625 47.359375 
Q 26.3125 47.359375 22.203125 42.59375 
Q 18.109375 37.84375 18.109375 30.609375 
L 18.109375 0 
L 8.546875 0 
L 8.546875 79.9375 
L 18.109375 79.9375 
L 18.109375 45.125 
L 18.3125 45.125 
Q 24.515625 55.28125 35.9375 55.28125 
Q 54.15625 55.28125 54.15625 33.25 
z
" id="MicrosoftYaHei-68"/>
      <path d="M 7.375 73.046875 
Q 7.375 75.59375 9.109375 77.3125 
Q 10.84375 79.046875 13.375 79.046875 
Q 15.96875 79.046875 17.75 77.34375 
Q 19.53125 75.640625 19.53125 73.046875 
Q 19.53125 70.515625 17.75 68.828125 
Q 15.96875 67.140625 13.375 67.140625 
Q 10.796875 67.140625 9.078125 68.828125 
Q 7.375 70.515625 7.375 73.046875 
z
M 8.5 0 
L 8.5 54 
L 18.0625 54 
L 18.0625 0 
z
" id="MicrosoftYaHei-69"/>
     </defs>
     <g transform="translate(56.45625 248.621719)rotate(-90)scale(0.1 -0.1)">
      <use xlink:href="#MicrosoftYaHei-67"/>
      <use x="63.964844" xlink:href="#MicrosoftYaHei-72"/>
      <use x="102.132812" xlink:href="#MicrosoftYaHei-6f"/>
      <use x="165.707031" xlink:href="#MicrosoftYaHei-77"/>
      <use x="244.662109" xlink:href="#MicrosoftYaHei-74"/>
      <use x="281.917969" xlink:href="#MicrosoftYaHei-68"/>
      <use x="343.490234" xlink:href="#MicrosoftYaHei-5f"/>
      <use x="388.314453" xlink:href="#MicrosoftYaHei-72"/>
      <use x="426.498047" xlink:href="#MicrosoftYaHei-61"/>
      <use x="481.771484" xlink:href="#MicrosoftYaHei-74"/>
      <use x="519.027344" xlink:href="#MicrosoftYaHei-69"/>
      <use x="545.638672" xlink:href="#MicrosoftYaHei-6f"/>
     </g>
    </g>
   </g>
   <g id="patch_3">
    <path d="M 90 384.48 
L 90 51.84 
" style="fill:none;stroke:#000000;stroke-linecap:square;stroke-linejoin:miter;stroke-width:0.8;"/>
   </g>
   <g id="patch_4">
    <path d="M 648 384.48 
L 648 51.84 
" style="fill:none;stroke:#000000;stroke-linecap:square;stroke-linejoin:miter;stroke-width:0.8;"/>
   </g>
   <g id="patch_5">
    <path d="M 90 384.48 
L 648 384.48 
" style="fill:none;stroke:#000000;stroke-linecap:square;stroke-linejoin:miter;stroke-width:0.8;"/>
   </g>
   <g id="patch_6">
    <path d="M 90 51.84 
L 648 51.84 
" style="fill:none;stroke:#000000;stroke-linecap:square;stroke-linejoin:miter;stroke-width:0.8;"/>
   </g>
   <g id="text_16">
    <!-- 华安创业板50ETF -->
    <defs>
     <path d="M 30.46875 49.265625 
Q 43.0625 52.59375 54 57.234375 
L 54 81.78125 
L 61.625 81.78125 
L 61.625 60.6875 
Q 75.921875 67.78125 87.015625 77.296875 
L 92.1875 71.4375 
Q 79.109375 61.28125 61.625 52.875 
L 61.625 44.875 
Q 61.625 38.328125 69.734375 38.328125 
L 80.078125 38.328125 
Q 87.5 38.328125 88.578125 44.671875 
Q 89.65625 50.140625 89.9375 56 
Q 94.734375 53.953125 97.5625 53.078125 
Q 96.6875 46.734375 95.703125 42.140625 
Q 93.84375 31.390625 81.734375 31.390625 
L 67 31.390625 
Q 54 31.390625 54 43.5 
L 54 49.421875 
Q 44.921875 45.453125 34.765625 41.9375 
Q 33.015625 45.5625 30.46875 49.265625 
z
M 2.828125 18.40625 
L 46 18.40625 
L 46 31.390625 
L 53.8125 31.390625 
L 53.8125 18.40625 
L 97.078125 18.40625 
L 97.078125 11.375 
L 53.8125 11.375 
L 53.8125 -13.53125 
L 46 -13.53125 
L 46 11.375 
L 2.828125 11.375 
z
M 2.15625 53.65625 
Q 19.53125 65.765625 29.78125 83.546875 
L 36.71875 80.03125 
Q 32.421875 73.09375 27.4375 66.890625 
L 27.4375 28.765625 
L 19.828125 28.765625 
L 19.828125 58.34375 
Q 13.375 51.8125 5.953125 46.34375 
Q 4.203125 50.046875 2.15625 53.65625 
z
" id="MicrosoftYaHei-534e"/>
     <path d="M 5.078125 -5.03125 
Q 29.59375 -1.265625 45.125 7.46875 
Q 32.375 13.421875 18.171875 19.78125 
Q 22.796875 26.703125 27.296875 34.234375 
L 1.65625 34.234375 
L 1.65625 41.453125 
L 31.546875 41.453125 
Q 36.46875 50.09375 41.3125 59.421875 
L 49.03125 56.203125 
Q 44.734375 48.640625 40.578125 41.453125 
L 98.53125 41.453125 
L 98.53125 34.234375 
L 77.59375 34.234375 
Q 72.703125 19.4375 60.75 8.9375 
Q 76.125 2 91.40625 -5.125 
L 86.625 -12.9375 
Q 71.734375 -5.125 53.65625 3.421875 
Q 36.671875 -8.015625 9.1875 -13.03125 
Q 7.421875 -9.328125 5.078125 -5.03125 
z
M 6.453125 68.703125 
L 50.4375 68.703125 
Q 46.734375 74.078125 41.890625 79.734375 
L 48.4375 84.125 
Q 54.390625 77.6875 58.5 71.734375 
L 54 68.703125 
L 93.953125 68.703125 
L 93.953125 50.140625 
L 86.03125 50.140625 
L 86.03125 61.46875 
L 14.265625 61.46875 
L 14.265625 50.140625 
L 6.453125 50.140625 
z
M 29.390625 22.703125 
Q 41.109375 17.671875 52.734375 12.5 
Q 64.40625 21.390625 69.09375 34.234375 
L 36.328125 34.234375 
Q 32.8125 28.328125 29.390625 22.703125 
z
" id="MicrosoftYaHei-5b89"/>
     <path d="M 37.890625 81.984375 
L 36.625 79.9375 
Q 49.03125 68.5 60.453125 56.78125 
L 55.078125 50.734375 
Q 44.625 62.359375 32.8125 73.6875 
Q 23.25 58.546875 13.09375 48.390625 
L 53.21875 48.390625 
Q 52.640625 34.8125 52.25 29.34375 
Q 51.765625 14.796875 38.96875 14.796875 
Q 33.796875 14.796875 26.265625 15.09375 
Q 25.6875 19.390625 24.90625 22.90625 
Q 31.453125 21.828125 37.40625 21.734375 
Q 44.4375 21.625 44.921875 30.609375 
Q 45.21875 35.296875 45.515625 41.546875 
L 19.625 41.546875 
L 19.625 2.390625 
Q 19.625 -3.078125 25.484375 -3.078125 
L 41.5 -3.078125 
Q 49.21875 -3.078125 50.203125 2 
Q 51.375 6.6875 51.953125 13.71875 
Q 55.765625 12.15625 59.671875 10.890625 
Q 58.6875 4.4375 57.234375 -1.03125 
Q 54.78125 -10.109375 43.453125 -10.109375 
L 24.03125 -10.109375 
Q 12.015625 -10.109375 12.015625 1.8125 
L 12.015625 47.21875 
Q 8.890625 44.28125 5.859375 41.84375 
Q 2.9375 46.625 1.375 48.875 
Q 17.390625 61.078125 28.90625 81.984375 
z
M 84.671875 81.296875 
L 92.484375 81.296875 
L 92.484375 0.140625 
Q 92.484375 -11.765625 80.671875 -11.859375 
Q 76.5625 -11.859375 65.328125 -11.765625 
Q 64.84375 -7.28125 63.765625 -2.875 
Q 74.125 -3.765625 78.328125 -3.765625 
Q 84.671875 -3.765625 84.671875 2.484375 
z
M 71.78125 12.453125 
L 64.265625 12.453125 
L 64.265625 72.609375 
L 71.78125 72.609375 
z
" id="MicrosoftYaHei-521b"/>
     <path d="M 1.859375 0.734375 
L 33.203125 0.734375 
L 33.203125 81.390625 
L 41.40625 81.390625 
L 41.40625 0.734375 
L 58.5 0.734375 
L 58.5 81.390625 
L 66.703125 81.390625 
L 66.703125 0.734375 
L 98.34375 0.734375 
L 98.34375 -6.5 
L 1.859375 -6.5 
z
M 13.1875 62.25 
Q 21.1875 43.40625 28.71875 22.21875 
L 20.703125 18.609375 
Q 14.15625 39.203125 6.0625 59.125 
z
M 70.21875 21.34375 
Q 79.984375 42.046875 86.625 61.375 
L 94.53125 58.25 
Q 85.453125 34.90625 77.25 18.109375 
z
" id="MicrosoftYaHei-4e1a"/>
     <path d="M 40.328125 74.953125 
Q 62.796875 74.65625 94.625 79.15625 
L 97.265625 71.53125 
Q 69.046875 68.609375 47.265625 68.109375 
L 47.265625 52.296875 
L 92.78125 52.296875 
L 92.78125 46.4375 
Q 88.484375 24.46875 76.859375 10.203125 
Q 86.03125 1.21875 98.828125 -4.828125 
Q 94.625 -9.328125 92.671875 -12.0625 
Q 82.421875 -5.328125 72.171875 4.9375 
Q 62.703125 -4.4375 46.6875 -13.140625 
Q 44.828125 -10.109375 41.609375 -6.5 
Q 57.8125 0.734375 67.484375 10.109375 
Q 56.34375 23.96875 53.328125 45.84375 
L 47.265625 45.84375 
L 47.265625 29.828125 
Q 47.265625 2.78125 31.734375 -13.328125 
Q 29.296875 -10.015625 26.65625 -7.078125 
Q 40.328125 6.78125 40.328125 30.8125 
z
M 1.171875 21.625 
Q 12.015625 38.03125 16.015625 56.59375 
L 1.859375 56.59375 
L 1.859375 63.234375 
L 16.703125 63.234375 
L 16.703125 82.375 
L 23.53125 82.375 
L 23.53125 63.234375 
L 36.8125 63.234375 
L 36.8125 56.59375 
L 23.53125 56.59375 
L 23.53125 41.65625 
L 27.046875 45.171875 
Q 33.890625 38.71875 38.765625 33.734375 
L 33.59375 28.375 
Q 28.71875 33.84375 23.53125 39.109375 
L 23.53125 -12.84375 
L 16.703125 -12.84375 
L 16.703125 39.703125 
Q 11.53125 22.703125 4.390625 13.03125 
Q 3.03125 17.234375 1.171875 21.625 
z
M 85.0625 45.84375 
L 59.765625 45.84375 
Q 62.40625 27.296875 72.265625 15.28125 
Q 81.734375 27.203125 85.0625 45.84375 
z
" id="MicrosoftYaHei-677f"/>
     <path d="M 50.4375 0 
L 9.765625 0 
L 9.765625 75.640625 
L 48.734375 75.640625 
L 48.734375 66.9375 
L 19.53125 66.9375 
L 19.53125 42.71875 
L 46.578125 42.71875 
L 46.578125 34.078125 
L 19.53125 34.078125 
L 19.53125 8.640625 
L 50.4375 8.640625 
z
" id="MicrosoftYaHei-45"/>
     <path d="M 55.46875 66.9375 
L 33.640625 66.9375 
L 33.640625 0 
L 23.828125 0 
L 23.828125 66.9375 
L 2.09375 66.9375 
L 2.09375 75.640625 
L 55.46875 75.640625 
z
" id="MicrosoftYaHei-54"/>
     <path d="M 48.734375 66.9375 
L 19.53125 66.9375 
L 19.53125 41.65625 
L 46.578125 41.65625 
L 46.578125 33.0625 
L 19.53125 33.0625 
L 19.53125 0 
L 9.765625 0 
L 9.765625 75.640625 
L 48.734375 75.640625 
z
" id="MicrosoftYaHei-46"/>
    </defs>
    <g transform="translate(617.484939 322.859689)scale(0.1 -0.1)">
     <use xlink:href="#MicrosoftYaHei-534e"/>
     <use x="100" xlink:href="#MicrosoftYaHei-5b89"/>
     <use x="200" xlink:href="#MicrosoftYaHei-521b"/>
     <use x="300" xlink:href="#MicrosoftYaHei-4e1a"/>
     <use x="400" xlink:href="#MicrosoftYaHei-677f"/>
     <use x="500" xlink:href="#MicrosoftYaHei-35"/>
     <use x="558.642578" xlink:href="#MicrosoftYaHei-30"/>
     <use x="617.285156" xlink:href="#MicrosoftYaHei-45"/>
     <use x="672.265625" xlink:href="#MicrosoftYaHei-54"/>
     <use x="729.589844" xlink:href="#MicrosoftYaHei-46"/>
    </g>
   </g>
   <g id="text_17">
    <!-- 易方达创业板ETF -->
    <defs>
     <path d="M 14.359375 78.46875 
L 86.234375 78.46875 
L 86.234375 37.84375 
L 78.609375 37.84375 
L 78.609375 41.75 
L 14.359375 41.75 
z
M 1.765625 17.046875 
Q 17.390625 25.53125 28.21875 40.09375 
L 35.15625 37.453125 
Q 33.203125 34.8125 31.25 32.375 
L 91.890625 32.375 
Q 91.015625 13.921875 90.046875 3.859375 
Q 88.765625 -11.859375 74.21875 -11.96875 
Q 66.109375 -12.0625 57.328125 -11.96875 
Q 56.734375 -7.765625 55.859375 -3.65625 
Q 64.359375 -4.4375 72.265625 -4.4375 
Q 81.453125 -4.4375 82.421875 4.734375 
Q 83.5 13.53125 83.890625 25.53125 
L 68.84375 25.53125 
Q 62.890625 -0.140625 34.1875 -13.921875 
Q 31.640625 -10.6875 28.71875 -7.28125 
Q 56.0625 3.953125 61.234375 25.53125 
L 46.390625 25.53125 
Q 39.265625 4.734375 8.6875 -7.078125 
Q 6.15625 -3.859375 3.21875 -0.53125 
Q 32.03125 10.203125 38.28125 25.53125 
L 25.09375 25.53125 
Q 16.796875 17.140625 6.640625 10.796875 
Q 4.59375 13.71875 1.765625 17.046875 
z
M 21.96875 48.578125 
L 78.609375 48.578125 
L 78.609375 56.78125 
L 21.96875 56.78125 
z
M 78.609375 71.625 
L 21.96875 71.625 
L 21.96875 63.625 
L 78.609375 63.625 
z
" id="MicrosoftYaHei-6613"/>
     <path d="M 3.03125 66.265625 
L 49.90625 66.265625 
Q 44.96875 75.640625 42.1875 79.9375 
L 49.8125 83.546875 
Q 52.546875 79.34375 58.015625 69.875 
L 50.875 66.265625 
L 97.171875 66.265625 
L 97.171875 58.84375 
L 37.9375 58.84375 
Q 37.59375 49.953125 37.203125 43.703125 
L 84.375 43.703125 
Q 83.203125 22.515625 81.84375 6.890625 
Q 80.765625 -10.796875 64.65625 -10.796875 
Q 57.234375 -10.796875 44.828125 -10.015625 
Q 44.34375 -6.296875 43.359375 -1.03125 
Q 55.765625 -2.6875 63.484375 -2.6875 
Q 72.46875 -2.6875 73.53125 7.953125 
Q 74.703125 19.578125 75.59375 36.375 
L 36.671875 36.375 
Q 33.9375 4.15625 6.84375 -13.625 
Q 4.203125 -10.5 0.875 -6.984375 
Q 26.65625 10.015625 28.515625 38.53125 
Q 29.203125 46.234375 29.640625 58.84375 
L 3.03125 58.84375 
z
" id="MicrosoftYaHei-65b9"/>
     <path d="M 42.484375 -3.765625 
Q 69.53125 -4.046875 98.734375 -3.375 
Q 97.078125 -7.28125 95.515625 -10.890625 
Q 68.75 -11.28125 41.21875 -10.796875 
Q 24.90625 -10.59375 17 0.34375 
Q 14.15625 -1.90625 5.5625 -12.15625 
L 1.375 -3.859375 
Q 7.421875 1.609375 13.484375 6.78125 
L 13.484375 40.875 
L 2.34375 40.875 
L 2.34375 48 
L 21.09375 48 
L 21.09375 5.328125 
Q 28.21875 -3.375 42.484375 -3.765625 
z
M 29.296875 59.234375 
L 56.25 59.234375 
L 56.25 82.28125 
L 64.0625 82.28125 
L 64.0625 59.234375 
L 94.53125 59.234375 
L 94.53125 52.09375 
L 63.875 52.09375 
Q 63.484375 44.96875 61.921875 38.625 
Q 78.8125 25.046875 93.84375 9.625 
L 87.984375 3.078125 
Q 74.8125 18.015625 59.765625 31.59375 
Q 52.546875 12.15625 32.515625 1.125 
Q 29.890625 4.734375 27.046875 7.5625 
Q 53.90625 21.921875 56.0625 52.09375 
L 29.296875 52.09375 
z
M 11.421875 81.890625 
Q 20.015625 71.625 26.265625 63.03125 
L 19.4375 58.15625 
Q 12.984375 67.921875 5.375 77.484375 
z
" id="MicrosoftYaHei-8fbe"/>
    </defs>
    <g transform="translate(464.250124 344.345679)scale(0.1 -0.1)">
     <use xlink:href="#MicrosoftYaHei-6613"/>
     <use x="100" xlink:href="#MicrosoftYaHei-65b9"/>
     <use x="200" xlink:href="#MicrosoftYaHei-8fbe"/>
     <use x="300" xlink:href="#MicrosoftYaHei-521b"/>
     <use x="400" xlink:href="#MicrosoftYaHei-4e1a"/>
     <use x="500" xlink:href="#MicrosoftYaHei-677f"/>
     <use x="600" xlink:href="#MicrosoftYaHei-45"/>
     <use x="654.980469" xlink:href="#MicrosoftYaHei-54"/>
     <use x="712.304688" xlink:href="#MicrosoftYaHei-46"/>
    </g>
   </g>
   <g id="text_18">
    <!-- 易方达中证科技50ETF -->
    <defs>
     <path d="M 8.203125 62.0625 
L 45.796875 62.0625 
L 45.796875 83.34375 
L 54.203125 83.34375 
L 54.203125 62.0625 
L 92.1875 62.0625 
L 92.1875 17.53125 
L 84.1875 17.53125 
L 84.1875 22.796875 
L 54.203125 22.796875 
L 54.203125 -13.53125 
L 45.796875 -13.53125 
L 45.796875 22.796875 
L 16.21875 22.796875 
L 16.21875 17.53125 
L 8.203125 17.53125 
z
M 84.1875 54.828125 
L 54.203125 54.828125 
L 54.203125 30.03125 
L 84.1875 30.03125 
z
M 16.21875 30.03125 
L 45.796875 30.03125 
L 45.796875 54.828125 
L 16.21875 54.828125 
z
" id="MicrosoftYaHei-4e2d"/>
     <path d="M 26.265625 -0.53125 
L 39.84375 -0.53125 
L 39.84375 53.46875 
L 47.359375 53.46875 
L 47.359375 -0.53125 
L 62.890625 -0.53125 
L 62.890625 70.84375 
L 31.640625 70.84375 
L 31.640625 78.078125 
L 96.875 78.078125 
L 96.875 70.84375 
L 70.703125 70.84375 
L 70.703125 41.453125 
L 93.359375 41.453125 
L 93.359375 34.234375 
L 70.703125 34.234375 
L 70.703125 -0.53125 
L 98.4375 -0.53125 
L 98.4375 -7.765625 
L 26.265625 -7.765625 
z
M 32.03125 23.96875 
Q 32.421875 20.5625 33.890625 15.484375 
Q 22.078125 3.765625 16.015625 -3.171875 
L 10.453125 3.171875 
Q 13.375 7.28125 13.375 12.9375 
L 13.375 43.5 
L 1.5625 43.5 
L 1.5625 50.53125 
L 20.90625 50.53125 
L 20.90625 12.453125 
Q 25.390625 16.75 32.03125 23.96875 
z
M 11.03125 81.59375 
Q 22.46875 69.96875 27.046875 64.796875 
L 20.21875 59.03125 
Q 14.0625 67.046875 5.078125 76.421875 
z
" id="MicrosoftYaHei-8bc1"/>
     <path d="M 1.171875 13.625 
Q 12.3125 28.5625 17.96875 46.921875 
L 2.546875 46.921875 
L 2.546875 53.859375 
L 18.5625 53.859375 
L 18.5625 68.21875 
Q 11.03125 67.4375 4.390625 66.84375 
Q 3.71875 70.453125 2.4375 74.078125 
Q 21.390625 75.4375 40.046875 78.375 
L 42.578125 71.140625 
Q 33.796875 69.96875 25.875 69.09375 
L 25.875 53.859375 
L 41.40625 53.859375 
L 41.40625 46.921875 
L 25.875 46.921875 
L 25.875 35.890625 
L 30.171875 39.796875 
Q 37.203125 33.734375 43.171875 27.984375 
L 37.703125 22.40625 
Q 31.453125 29.4375 25.875 34.625 
L 25.875 -13.234375 
L 18.5625 -13.234375 
L 18.5625 30.8125 
Q 12.796875 15.765625 4.890625 5.328125 
Q 3.21875 9.328125 1.171875 13.625 
z
M 36.421875 18.796875 
L 74.703125 22.21875 
L 74.703125 82.5625 
L 82.234375 82.5625 
L 82.234375 22.90625 
L 97.65625 24.359375 
L 98.25 17.328125 
L 82.234375 15.875 
L 82.234375 -13.234375 
L 74.703125 -13.234375 
L 74.703125 15.1875 
L 37.203125 11.765625 
z
M 48.046875 67.328125 
L 52.546875 72.21875 
Q 63.375 63.921875 70.125 57.671875 
L 65.046875 51.90625 
Q 58.109375 59.03125 48.046875 67.328125 
z
M 42.28125 43.890625 
L 46.96875 48.875 
Q 58.109375 40.1875 63.765625 35.015625 
L 58.6875 29.046875 
Q 54.109375 33.84375 42.28125 43.890625 
z
" id="MicrosoftYaHei-79d1"/>
     <path d="M 37.40625 38.625 
L 37.40625 45.0625 
L 62.5 45.0625 
L 62.5 60.015625 
L 37.015625 60.015625 
L 37.015625 67.140625 
L 62.5 67.140625 
L 62.5 82.859375 
L 70.3125 82.859375 
L 70.3125 67.140625 
L 96.875 67.140625 
L 96.875 60.015625 
L 70.3125 60.015625 
L 70.3125 45.0625 
L 91.109375 45.0625 
L 91.109375 39.203125 
Q 84.234375 19.671875 71.53125 7.5625 
Q 82.515625 -1.078125 98.734375 -5.609375 
Q 95.015625 -9.90625 92.484375 -13.140625 
Q 76.609375 -6.6875 65.578125 2.546875 
Q 52.734375 -7.125 35.546875 -13.921875 
Q 33.5 -10.796875 30.375 -6.984375 
Q 47.796875 -1.3125 60.15625 7.671875 
Q 49.3125 19.484375 43.890625 38.625 
z
M 1.171875 31.390625 
Q 8.546875 33.5 15.4375 35.546875 
L 15.4375 56.59375 
L 2.4375 56.59375 
L 2.4375 63.328125 
L 15.4375 63.328125 
L 15.4375 82.28125 
L 22.953125 82.28125 
L 22.953125 63.328125 
L 34.375 63.328125 
L 34.375 56.59375 
L 22.953125 56.59375 
L 22.953125 37.890625 
Q 28.5625 39.703125 33.890625 41.453125 
Q 33.890625 36.765625 34.078125 33.84375 
Q 28.5625 32.078125 22.953125 30.28125 
L 22.953125 -1.21875 
Q 22.953125 -11.578125 13.1875 -11.671875 
Q 9.28125 -11.765625 3.8125 -11.671875 
Q 3.21875 -7.5625 2.546875 -3.375 
Q 8.296875 -3.953125 11.234375 -3.953125 
Q 15.4375 -3.953125 15.4375 0.4375 
L 15.4375 27.78125 
Q 8.84375 25.59375 2.15625 23.296875 
z
M 82.625 38.625 
L 51.421875 38.625 
Q 55.8125 23.1875 66.0625 12.546875 
Q 77.59375 23.484375 82.625 38.625 
z
" id="MicrosoftYaHei-6280"/>
    </defs>
    <g transform="translate(215.58967 71.799352)scale(0.1 -0.1)">
     <use xlink:href="#MicrosoftYaHei-6613"/>
     <use x="100" xlink:href="#MicrosoftYaHei-65b9"/>
     <use x="200" xlink:href="#MicrosoftYaHei-8fbe"/>
     <use x="300" xlink:href="#MicrosoftYaHei-4e2d"/>
     <use x="400" xlink:href="#MicrosoftYaHei-8bc1"/>
     <use x="500" xlink:href="#MicrosoftYaHei-79d1"/>
     <use x="600" xlink:href="#MicrosoftYaHei-6280"/>
     <use x="700" xlink:href="#MicrosoftYaHei-35"/>
     <use x="758.642578" xlink:href="#MicrosoftYaHei-30"/>
     <use x="817.285156" xlink:href="#MicrosoftYaHei-45"/>
     <use x="872.265625" xlink:href="#MicrosoftYaHei-54"/>
     <use x="929.589844" xlink:href="#MicrosoftYaHei-46"/>
    </g>
   </g>
   <g id="text_19">
    <!-- 易方达上证科创板50成份ETF -->
    <defs>
     <path d="M 2.546875 0.734375 
L 40.828125 0.734375 
L 40.828125 81.390625 
L 49.703125 81.390625 
L 49.703125 52 
L 89.84375 52 
L 89.84375 44.1875 
L 49.703125 44.1875 
L 49.703125 0.734375 
L 97.5625 0.734375 
L 97.5625 -7.078125 
L 2.546875 -7.078125 
z
" id="MicrosoftYaHei-4e0a"/>
     <path d="M 42.96875 -5.421875 
Q 54.25 2.15625 63.09375 12.203125 
Q 57.421875 26.609375 56.390625 58.734375 
L 19.53125 58.734375 
L 19.53125 43.890625 
L 47.65625 43.890625 
Q 47.078125 25.25 46.09375 12.546875 
Q 44.921875 -0.921875 33.015625 -0.921875 
Q 29 -0.921875 22.359375 -0.53125 
Q 21.78125 3.078125 20.796875 7.5625 
Q 27.640625 6.59375 32.234375 6.59375 
Q 37.890625 6.59375 38.578125 14.40625 
Q 39.359375 23.390625 39.75 36.671875 
L 19.484375 36.671875 
Q 18.703125 2.734375 5.765625 -13.53125 
Q 3.328125 -10.203125 0.6875 -6.78125 
Q 11.71875 7.859375 11.71875 39.5 
L 11.71875 65.96875 
L 56.109375 65.96875 
Q 55.765625 73.6875 55.46875 82.671875 
L 63.578125 82.671875 
Q 63.53125 75.78125 63.8125 65.96875 
L 97.46875 65.96875 
L 97.46875 58.734375 
L 64.0625 58.734375 
Q 65.046875 32.46875 68.890625 19.484375 
Q 78.375 32.328125 84.46875 48.578125 
L 92.1875 45.359375 
Q 83.796875 25.484375 72.015625 10.796875 
Q 79.203125 -3.8125 86.03125 -3.8125 
Q 88.53125 -3.8125 89.84375 0.734375 
Q 91.21875 7.859375 92 15.375 
Q 96.1875 13.71875 99.421875 12.640625 
Q 97.953125 2.203125 96.1875 -4.4375 
Q 94.34375 -11.578125 87.984375 -12.15625 
Q 82.03125 -12.546875 76.5625 -8.15625 
Q 70.65625 -3.609375 66.5 4.34375 
Q 58.25 -4.546875 48.53125 -11.28125 
Q 46 -8.34375 42.96875 -5.421875 
z
M 71 77.875 
L 75.09375 82.953125 
Q 83.296875 78.265625 90.4375 73.1875 
L 85.75 67.328125 
Q 78.71875 72.90625 71 77.875 
z
" id="MicrosoftYaHei-6210"/>
     <path d="M 35.453125 41.453125 
L 84.28125 41.453125 
Q 84.1875 40.09375 82.8125 5.71875 
Q 82.421875 -11.078125 67.484375 -11.28125 
Q 59.46875 -11.28125 53.515625 -10.984375 
Q 53.03125 -6.5 52.046875 -2.875 
Q 58.796875 -3.765625 65.625 -3.953125 
Q 75.09375 -4.640625 75.203125 6.59375 
Q 75.984375 19.671875 76.375 34.625 
L 54.390625 34.625 
Q 54.109375 19.09375 49.703125 8.9375 
Q 44.4375 -2.6875 31.546875 -12.84375 
Q 29 -9.71875 25.875 -6.5 
Q 38.28125 3.171875 42.390625 12.0625 
Q 46.390625 19.921875 46.828125 34.625 
L 35.453125 34.625 
z
M 1.171875 36.765625 
Q 15.140625 55.21875 23.828125 82.5625 
L 31.453125 79.9375 
Q 26.703125 66.9375 21.09375 55.609375 
L 21.09375 -12.640625 
L 13.671875 -12.640625 
L 13.671875 42.046875 
Q 9.1875 34.625 4.296875 28.078125 
Q 2.828125 32.28125 1.171875 36.765625 
z
M 62.59375 79.9375 
L 69.046875 82.671875 
Q 78.71875 57.859375 98.828125 46.4375 
Q 95.125 42.140625 93.265625 39.3125 
Q 71.484375 54.25 62.59375 79.9375 
z
M 24.8125 42.828125 
Q 40.046875 56.203125 49.421875 78.65625 
L 56.34375 76.03125 
Q 47.265625 53.265625 30.671875 37.453125 
Q 27.15625 41.0625 24.8125 42.828125 
z
" id="MicrosoftYaHei-4efd"/>
    </defs>
    <g transform="translate(120.515061 364.520648)scale(0.1 -0.1)">
     <use xlink:href="#MicrosoftYaHei-6613"/>
     <use x="100" xlink:href="#MicrosoftYaHei-65b9"/>
     <use x="200" xlink:href="#MicrosoftYaHei-8fbe"/>
     <use x="300" xlink:href="#MicrosoftYaHei-4e0a"/>
     <use x="400" xlink:href="#MicrosoftYaHei-8bc1"/>
     <use x="500" xlink:href="#MicrosoftYaHei-79d1"/>
     <use x="600" xlink:href="#MicrosoftYaHei-521b"/>
     <use x="700" xlink:href="#MicrosoftYaHei-677f"/>
     <use x="800" xlink:href="#MicrosoftYaHei-35"/>
     <use x="858.642578" xlink:href="#MicrosoftYaHei-30"/>
     <use x="917.285156" xlink:href="#MicrosoftYaHei-6210"/>
     <use x="1017.285156" xlink:href="#MicrosoftYaHei-4efd"/>
     <use x="1117.285156" xlink:href="#MicrosoftYaHei-45"/>
     <use x="1172.265625" xlink:href="#MicrosoftYaHei-54"/>
     <use x="1229.589844" xlink:href="#MicrosoftYaHei-46"/>
    </g>
   </g>
  </g>
 </g>
 <defs>
  <clipPath id="p6bd5a9e075">
   <rect height="332.64" width="558" x="90" y="51.84"/>
  </clipPath>
 </defs>
</svg>
