<?xml version="1.0" encoding="utf-8" standalone="no"?>
<!DOCTYPE svg PUBLIC "-//W3C//DTD SVG 1.1//EN"
  "http://www.w3.org/Graphics/SVG/1.1/DTD/svg11.dtd">
<!-- Created with matplotlib (http://matplotlib.org/) -->
<svg height="360pt" version="1.1" viewBox="0 0 720 360" width="720pt" xmlns="http://www.w3.org/2000/svg" xmlns:xlink="http://www.w3.org/1999/xlink">
 <defs>
  <style type="text/css">
*{stroke-linecap:butt;stroke-linejoin:round;}
  </style>
 </defs>
 <g id="figure_1">
  <g id="patch_1">
   <path d="M 0 360 
L 720 360 
L 720 0 
L 0 0 
z
" style="fill:#ffffff;"/>
  </g>
  <g id="axes_1">
   <g id="patch_2">
    <path d="M 90 320.4 
L 648 320.4 
L 648 43.2 
L 90 43.2 
z
" style="fill:#ffffff;"/>
   </g>
   <g id="matplotlib.axis_1">
    <g id="xtick_1">
     <g id="line2d_1">
      <path clip-path="url(#pdb586f32b9)" d="M 90 320.4 
L 90 43.2 
" style="fill:none;stroke:#b0b0b0;stroke-linecap:square;stroke-width:0.8;"/>
     </g>
     <g id="line2d_2">
      <defs>
       <path d="M 0 0 
L 0 3.5 
" id="m6280a136de" style="stroke:#000000;stroke-width:0.8;"/>
      </defs>
      <g>
       <use style="stroke:#000000;stroke-width:0.8;" x="90" xlink:href="#m6280a136de" y="320.4"/>
      </g>
     </g>
     <g id="text_1">
      <!-- 2016-12-06 -->
      <defs>
       <path d="M 51.171875 0 
L 5.171875 0 
L 5.171875 8.296875 
L 27.15625 30.21875 
Q 36.234375 39.3125 39.3125 44.609375 
Q 42.390625 49.90625 42.390625 55.5625 
Q 42.390625 62.015625 38.765625 65.453125 
Q 35.15625 68.890625 28.328125 68.890625 
Q 18.21875 68.890625 9.03125 60.296875 
L 9.03125 70.015625 
Q 17.96875 76.90625 29.828125 76.90625 
Q 40.046875 76.90625 45.953125 71.390625 
Q 51.859375 65.875 51.859375 56.546875 
Q 51.859375 49.515625 48.0625 42.75 
Q 44.28125 35.984375 33.734375 25.53125 
L 16.5 8.6875 
L 16.5 8.5 
L 51.171875 8.5 
z
" id="MicrosoftYaHei-32"/>
       <path d="M 4.4375 36.328125 
Q 4.4375 56.34375 11.078125 66.625 
Q 17.71875 76.90625 30.328125 76.90625 
Q 54.34375 76.90625 54.34375 38.140625 
Q 54.34375 19 47.578125 8.859375 
Q 40.828125 -1.265625 28.609375 -1.265625 
Q 17.09375 -1.265625 10.765625 8.34375 
Q 4.4375 17.96875 4.4375 36.328125 
z
M 14.203125 36.765625 
Q 14.203125 6.640625 29.5 6.640625 
Q 44.53125 6.640625 44.53125 37.25 
Q 44.53125 68.953125 29.78125 68.953125 
Q 14.203125 68.953125 14.203125 36.765625 
z
" id="MicrosoftYaHei-30"/>
       <path d="M 52.59375 0 
L 9.234375 0 
L 9.234375 8.25 
L 26.171875 8.25 
L 26.171875 65.671875 
L 8.796875 60.640625 
L 8.796875 69.4375 
L 35.6875 77.25 
L 35.6875 8.25 
L 52.59375 8.25 
z
" id="MicrosoftYaHei-31"/>
       <path d="M 49.703125 65.921875 
Q 43.796875 68.953125 37.359375 68.953125 
Q 27.546875 68.953125 21.578125 60.40625 
Q 15.625 51.859375 15.53125 37.0625 
L 15.765625 37.0625 
Q 21.140625 47.46875 32.90625 47.46875 
Q 42.71875 47.46875 48.578125 41.0625 
Q 54.4375 34.671875 54.4375 24.078125 
Q 54.4375 12.984375 47.671875 5.859375 
Q 40.921875 -1.265625 30.421875 -1.265625 
Q 18.890625 -1.265625 12.328125 7.734375 
Q 5.765625 16.75 5.765625 33.296875 
Q 5.765625 53.328125 14.375 65.109375 
Q 23 76.90625 37.0625 76.90625 
Q 45.125 76.90625 49.703125 74.703125 
z
M 16.109375 24.75 
Q 16.109375 17.28125 20.09375 11.953125 
Q 24.078125 6.640625 30.671875 6.640625 
Q 36.921875 6.640625 40.828125 11.234375 
Q 44.734375 15.828125 44.734375 23.046875 
Q 44.734375 30.859375 41.046875 35.203125 
Q 37.359375 39.546875 30.5625 39.546875 
Q 24.125 39.546875 20.109375 35.15625 
Q 16.109375 30.765625 16.109375 24.75 
z
" id="MicrosoftYaHei-36"/>
       <path d="M 36.375 26.265625 
L 7.625 26.265625 
L 7.625 33.640625 
L 36.375 33.640625 
z
" id="MicrosoftYaHei-2d"/>
      </defs>
      <g transform="translate(62.217187 335.39375)scale(0.1 -0.1)">
       <use xlink:href="#MicrosoftYaHei-32"/>
       <use x="58.642578" xlink:href="#MicrosoftYaHei-30"/>
       <use x="117.285156" xlink:href="#MicrosoftYaHei-31"/>
       <use x="175.927734" xlink:href="#MicrosoftYaHei-36"/>
       <use x="234.570312" xlink:href="#MicrosoftYaHei-2d"/>
       <use x="277.832031" xlink:href="#MicrosoftYaHei-31"/>
       <use x="336.474609" xlink:href="#MicrosoftYaHei-32"/>
       <use x="395.117188" xlink:href="#MicrosoftYaHei-2d"/>
       <use x="438.378906" xlink:href="#MicrosoftYaHei-30"/>
       <use x="497.021484" xlink:href="#MicrosoftYaHei-36"/>
      </g>
     </g>
    </g>
    <g id="xtick_2">
     <g id="line2d_3">
      <path clip-path="url(#pdb586f32b9)" d="M 189.111901 320.4 
L 189.111901 43.2 
" style="fill:none;stroke:#b0b0b0;stroke-linecap:square;stroke-width:0.8;"/>
     </g>
     <g id="line2d_4">
      <g>
       <use style="stroke:#000000;stroke-width:0.8;" x="189.111901" xlink:href="#m6280a136de" y="320.4"/>
      </g>
     </g>
     <g id="text_2">
      <!-- 2017-10-11 -->
      <defs>
       <path d="M 53.765625 72.3125 
L 24.171875 0 
L 14.265625 0 
L 42.390625 67.1875 
L 4.59375 67.1875 
L 4.59375 75.640625 
L 53.765625 75.640625 
z
" id="MicrosoftYaHei-37"/>
      </defs>
      <g transform="translate(161.329088 335.39375)scale(0.1 -0.1)">
       <use xlink:href="#MicrosoftYaHei-32"/>
       <use x="58.642578" xlink:href="#MicrosoftYaHei-30"/>
       <use x="117.285156" xlink:href="#MicrosoftYaHei-31"/>
       <use x="175.927734" xlink:href="#MicrosoftYaHei-37"/>
       <use x="234.570312" xlink:href="#MicrosoftYaHei-2d"/>
       <use x="277.832031" xlink:href="#MicrosoftYaHei-31"/>
       <use x="336.474609" xlink:href="#MicrosoftYaHei-30"/>
       <use x="395.117188" xlink:href="#MicrosoftYaHei-2d"/>
       <use x="438.378906" xlink:href="#MicrosoftYaHei-31"/>
       <use x="497.021484" xlink:href="#MicrosoftYaHei-31"/>
      </g>
     </g>
    </g>
    <g id="xtick_3">
     <g id="line2d_5">
      <path clip-path="url(#pdb586f32b9)" d="M 288.223801 320.4 
L 288.223801 43.2 
" style="fill:none;stroke:#b0b0b0;stroke-linecap:square;stroke-width:0.8;"/>
     </g>
     <g id="line2d_6">
      <g>
       <use style="stroke:#000000;stroke-width:0.8;" x="288.223801" xlink:href="#m6280a136de" y="320.4"/>
      </g>
     </g>
     <g id="text_3">
      <!-- 2018-08-08 -->
      <defs>
       <path d="M 21.390625 39.796875 
Q 7.859375 46.09375 7.859375 58.0625 
Q 7.859375 66.40625 14.203125 71.65625 
Q 20.5625 76.90625 30.421875 76.90625 
Q 39.453125 76.90625 45.3125 71.96875 
Q 51.171875 67.046875 51.171875 59.234375 
Q 51.171875 46.625 37.0625 39.84375 
L 37.0625 39.65625 
Q 53.609375 33.6875 53.609375 19.34375 
Q 53.609375 9.90625 46.796875 4.3125 
Q 39.984375 -1.265625 27.78125 -1.265625 
Q 17.78125 -1.265625 11.46875 4.25 
Q 5.171875 9.765625 5.171875 18.5625 
Q 5.171875 33.015625 21.390625 39.59375 
z
M 41.5 58.109375 
Q 41.5 63.1875 38.328125 66.109375 
Q 35.15625 69.046875 29.734375 69.046875 
Q 24.65625 69.046875 21.09375 65.984375 
Q 17.53125 62.9375 17.53125 58.203125 
Q 17.53125 48.734375 29.390625 43.796875 
Q 41.5 48.828125 41.5 58.109375 
z
M 28.8125 35.25 
Q 14.796875 29.59375 14.796875 19.046875 
Q 14.796875 13.578125 18.890625 10.0625 
Q 23 6.546875 29.59375 6.546875 
Q 35.984375 6.546875 39.984375 10.03125 
Q 44 13.53125 44 18.75 
Q 44 29.734375 28.8125 35.25 
z
" id="MicrosoftYaHei-38"/>
      </defs>
      <g transform="translate(260.440989 335.39375)scale(0.1 -0.1)">
       <use xlink:href="#MicrosoftYaHei-32"/>
       <use x="58.642578" xlink:href="#MicrosoftYaHei-30"/>
       <use x="117.285156" xlink:href="#MicrosoftYaHei-31"/>
       <use x="175.927734" xlink:href="#MicrosoftYaHei-38"/>
       <use x="234.570312" xlink:href="#MicrosoftYaHei-2d"/>
       <use x="277.832031" xlink:href="#MicrosoftYaHei-30"/>
       <use x="336.474609" xlink:href="#MicrosoftYaHei-38"/>
       <use x="395.117188" xlink:href="#MicrosoftYaHei-2d"/>
       <use x="438.378906" xlink:href="#MicrosoftYaHei-30"/>
       <use x="497.021484" xlink:href="#MicrosoftYaHei-38"/>
      </g>
     </g>
    </g>
    <g id="xtick_4">
     <g id="line2d_7">
      <path clip-path="url(#pdb586f32b9)" d="M 387.335702 320.4 
L 387.335702 43.2 
" style="fill:none;stroke:#b0b0b0;stroke-linecap:square;stroke-width:0.8;"/>
     </g>
     <g id="line2d_8">
      <g>
       <use style="stroke:#000000;stroke-width:0.8;" x="387.335702" xlink:href="#m6280a136de" y="320.4"/>
      </g>
     </g>
     <g id="text_4">
      <!-- 2019-06-13 -->
      <defs>
       <path d="M 9.03125 10.25 
Q 15.28125 6.640625 22.515625 6.640625 
Q 32.671875 6.640625 38.25 14.640625 
Q 43.84375 22.65625 43.84375 37.40625 
Q 43.75 37.3125 43.65625 37.40625 
Q 38.671875 27.9375 26.90625 27.9375 
Q 17.390625 27.9375 11.140625 34.46875 
Q 4.890625 41.015625 4.890625 51.46875 
Q 4.890625 62.59375 11.71875 69.75 
Q 18.5625 76.90625 29.4375 76.90625 
Q 40.71875 76.90625 47.0625 68.046875 
Q 53.421875 59.1875 53.421875 42.234375 
Q 53.421875 21.296875 45.21875 10.015625 
Q 37.015625 -1.265625 22.515625 -1.265625 
Q 14.546875 -1.265625 9.03125 1.3125 
z
M 14.546875 52.6875 
Q 14.546875 45.0625 18.453125 40.59375 
Q 22.359375 36.140625 29.25 36.140625 
Q 35.203125 36.140625 39.25 40.203125 
Q 43.3125 44.28125 43.3125 50.09375 
Q 43.3125 58.25 39.28125 63.59375 
Q 35.25 68.953125 28.65625 68.953125 
Q 22.5625 68.953125 18.546875 64.3125 
Q 14.546875 59.671875 14.546875 52.6875 
z
" id="MicrosoftYaHei-39"/>
       <path d="M 6.984375 12.640625 
Q 14.75 6.640625 24.515625 6.640625 
Q 32.328125 6.640625 36.890625 10.46875 
Q 41.453125 14.3125 41.453125 20.75 
Q 41.453125 35.109375 20.90625 35.109375 
L 14.59375 35.109375 
L 14.59375 43.015625 
L 20.609375 43.015625 
Q 38.8125 43.015625 38.8125 56.5 
Q 38.8125 68.953125 24.90625 68.953125 
Q 16.9375 68.953125 9.90625 63.578125 
L 9.90625 72.609375 
Q 17.328125 76.90625 27.25 76.90625 
Q 36.921875 76.90625 42.78125 71.84375 
Q 48.640625 66.796875 48.640625 58.734375 
Q 48.640625 43.890625 33.5 39.65625 
L 33.5 39.453125 
Q 41.703125 38.578125 46.453125 33.671875 
Q 51.21875 28.765625 51.21875 21.4375 
Q 51.21875 11.234375 43.875 4.984375 
Q 36.53125 -1.265625 24.3125 -1.265625 
Q 13.578125 -1.265625 6.984375 2.734375 
z
" id="MicrosoftYaHei-33"/>
      </defs>
      <g transform="translate(359.552889 335.39375)scale(0.1 -0.1)">
       <use xlink:href="#MicrosoftYaHei-32"/>
       <use x="58.642578" xlink:href="#MicrosoftYaHei-30"/>
       <use x="117.285156" xlink:href="#MicrosoftYaHei-31"/>
       <use x="175.927734" xlink:href="#MicrosoftYaHei-39"/>
       <use x="234.570312" xlink:href="#MicrosoftYaHei-2d"/>
       <use x="277.832031" xlink:href="#MicrosoftYaHei-30"/>
       <use x="336.474609" xlink:href="#MicrosoftYaHei-36"/>
       <use x="395.117188" xlink:href="#MicrosoftYaHei-2d"/>
       <use x="438.378906" xlink:href="#MicrosoftYaHei-31"/>
       <use x="497.021484" xlink:href="#MicrosoftYaHei-33"/>
      </g>
     </g>
    </g>
    <g id="xtick_5">
     <g id="line2d_9">
      <path clip-path="url(#pdb586f32b9)" d="M 486.447602 320.4 
L 486.447602 43.2 
" style="fill:none;stroke:#b0b0b0;stroke-linecap:square;stroke-width:0.8;"/>
     </g>
     <g id="line2d_10">
      <g>
       <use style="stroke:#000000;stroke-width:0.8;" x="486.447602" xlink:href="#m6280a136de" y="320.4"/>
      </g>
     </g>
     <g id="text_5">
      <!-- 2020-04-07 -->
      <defs>
       <path d="M 55.078125 19.625 
L 45.40625 19.625 
L 45.40625 0 
L 36.140625 0 
L 36.140625 19.625 
L 0.875 19.625 
L 0.875 25.828125 
L 34.328125 75.640625 
L 45.40625 75.640625 
L 45.40625 27.203125 
L 55.078125 27.203125 
z
M 36.140625 27.203125 
L 36.140625 58.890625 
Q 36.140625 62.25 36.328125 66.65625 
L 36.140625 66.65625 
Q 35.453125 64.796875 33.25 60.84375 
L 10.75 27.203125 
z
" id="MicrosoftYaHei-34"/>
      </defs>
      <g transform="translate(458.66479 335.39375)scale(0.1 -0.1)">
       <use xlink:href="#MicrosoftYaHei-32"/>
       <use x="58.642578" xlink:href="#MicrosoftYaHei-30"/>
       <use x="117.285156" xlink:href="#MicrosoftYaHei-32"/>
       <use x="175.927734" xlink:href="#MicrosoftYaHei-30"/>
       <use x="234.570312" xlink:href="#MicrosoftYaHei-2d"/>
       <use x="277.832031" xlink:href="#MicrosoftYaHei-30"/>
       <use x="336.474609" xlink:href="#MicrosoftYaHei-34"/>
       <use x="395.117188" xlink:href="#MicrosoftYaHei-2d"/>
       <use x="438.378906" xlink:href="#MicrosoftYaHei-30"/>
       <use x="497.021484" xlink:href="#MicrosoftYaHei-37"/>
      </g>
     </g>
    </g>
    <g id="xtick_6">
     <g id="line2d_11">
      <path clip-path="url(#pdb586f32b9)" d="M 585.559503 320.4 
L 585.559503 43.2 
" style="fill:none;stroke:#b0b0b0;stroke-linecap:square;stroke-width:0.8;"/>
     </g>
     <g id="line2d_12">
      <g>
       <use style="stroke:#000000;stroke-width:0.8;" x="585.559503" xlink:href="#m6280a136de" y="320.4"/>
      </g>
     </g>
     <g id="text_6">
      <!-- 2021-01-28 -->
      <g transform="translate(557.77669 335.39375)scale(0.1 -0.1)">
       <use xlink:href="#MicrosoftYaHei-32"/>
       <use x="58.642578" xlink:href="#MicrosoftYaHei-30"/>
       <use x="117.285156" xlink:href="#MicrosoftYaHei-32"/>
       <use x="175.927734" xlink:href="#MicrosoftYaHei-31"/>
       <use x="234.570312" xlink:href="#MicrosoftYaHei-2d"/>
       <use x="277.832031" xlink:href="#MicrosoftYaHei-30"/>
       <use x="336.474609" xlink:href="#MicrosoftYaHei-31"/>
       <use x="395.117188" xlink:href="#MicrosoftYaHei-2d"/>
       <use x="438.378906" xlink:href="#MicrosoftYaHei-32"/>
       <use x="497.021484" xlink:href="#MicrosoftYaHei-38"/>
      </g>
     </g>
    </g>
   </g>
   <g id="matplotlib.axis_2">
    <g id="ytick_1">
     <g id="line2d_13">
      <path clip-path="url(#pdb586f32b9)" d="M 90 275.606209 
L 648 275.606209 
" style="fill:none;stroke:#b0b0b0;stroke-linecap:square;stroke-width:0.8;"/>
     </g>
     <g id="line2d_14">
      <defs>
       <path d="M 0 0 
L -3.5 0 
" id="maeeb32e520" style="stroke:#000000;stroke-width:0.8;"/>
      </defs>
      <g>
       <use style="stroke:#000000;stroke-width:0.8;" x="90" xlink:href="#maeeb32e520" y="275.606209"/>
      </g>
     </g>
     <g id="text_7">
      <!-- 1 -->
      <g transform="translate(77.135937 279.603084)scale(0.1 -0.1)">
       <use xlink:href="#MicrosoftYaHei-31"/>
      </g>
     </g>
    </g>
    <g id="ytick_2">
     <g id="line2d_15">
      <path clip-path="url(#pdb586f32b9)" d="M 90 214.637136 
L 648 214.637136 
" style="fill:none;stroke:#b0b0b0;stroke-linecap:square;stroke-width:0.8;"/>
     </g>
     <g id="line2d_16">
      <g>
       <use style="stroke:#000000;stroke-width:0.8;" x="90" xlink:href="#maeeb32e520" y="214.637136"/>
      </g>
     </g>
     <g id="text_8">
      <!-- 2 -->
      <g transform="translate(77.135937 218.634011)scale(0.1 -0.1)">
       <use xlink:href="#MicrosoftYaHei-32"/>
      </g>
     </g>
    </g>
    <g id="ytick_3">
     <g id="line2d_17">
      <path clip-path="url(#pdb586f32b9)" d="M 90 153.668064 
L 648 153.668064 
" style="fill:none;stroke:#b0b0b0;stroke-linecap:square;stroke-width:0.8;"/>
     </g>
     <g id="line2d_18">
      <g>
       <use style="stroke:#000000;stroke-width:0.8;" x="90" xlink:href="#maeeb32e520" y="153.668064"/>
      </g>
     </g>
     <g id="text_9">
      <!-- 3 -->
      <g transform="translate(77.135937 157.664939)scale(0.1 -0.1)">
       <use xlink:href="#MicrosoftYaHei-33"/>
      </g>
     </g>
    </g>
    <g id="ytick_4">
     <g id="line2d_19">
      <path clip-path="url(#pdb586f32b9)" d="M 90 92.698991 
L 648 92.698991 
" style="fill:none;stroke:#b0b0b0;stroke-linecap:square;stroke-width:0.8;"/>
     </g>
     <g id="line2d_20">
      <g>
       <use style="stroke:#000000;stroke-width:0.8;" x="90" xlink:href="#maeeb32e520" y="92.698991"/>
      </g>
     </g>
     <g id="text_10">
      <!-- 4 -->
      <g transform="translate(77.135937 96.695866)scale(0.1 -0.1)">
       <use xlink:href="#MicrosoftYaHei-34"/>
      </g>
     </g>
    </g>
   </g>
   <g id="line2d_21">
    <path clip-path="url(#pdb586f32b9)" d="M 90 275.606209 
L 90.49556 275.098134 
L 90.991119 275.288662 
L 91.486679 275.098134 
L 91.982238 276.495341 
L 92.973357 276.939908 
L 93.468917 277.638512 
L 93.964476 277.638512 
L 94.460036 277.447983 
L 94.955595 277.511493 
L 95.946714 277.320964 
L 96.442274 277.638512 
L 96.937833 277.575002 
L 97.928952 278.273606 
L 98.424512 277.702021 
L 98.920071 277.702021 
L 99.415631 277.257455 
L 99.91119 277.003417 
L 100.40675 276.876398 
L 100.902309 277.384474 
L 101.397869 277.193945 
L 101.893428 277.320964 
L 102.388988 277.638512 
L 103.380107 278.527644 
L 103.875666 278.273606 
L 104.371226 278.146587 
L 104.866785 278.464134 
L 105.362345 277.892549 
L 105.857904 277.638512 
L 106.353464 277.82904 
L 106.849023 277.384474 
L 107.344583 277.130436 
L 108.335702 277.066927 
L 108.831261 276.812889 
L 109.326821 276.812889 
L 110.31794 277.003417 
L 110.813499 276.368323 
L 111.309059 276.68587 
L 111.804618 277.447983 
L 112.300178 276.812889 
L 112.795737 277.384474 
L 113.291297 275.860247 
L 113.786856 275.606209 
L 114.282416 274.39953 
L 115.273535 275.034624 
L 115.769094 274.844096 
L 116.760213 275.034624 
L 117.255773 275.098134 
L 117.751332 274.780586 
L 118.246892 274.717077 
L 118.742451 274.780586 
L 119.238011 275.225152 
L 119.73357 274.844096 
L 120.22913 274.209001 
L 120.724689 274.33602 
L 121.220249 273.891454 
L 121.715808 273.764435 
L 122.211368 274.209001 
L 122.706927 273.954963 
L 123.698046 272.557756 
L 124.193606 272.557756 
L 124.689165 272.748284 
L 125.184725 273.383378 
L 125.680284 273.19285 
L 126.175844 273.700926 
L 126.671403 273.954963 
L 127.662522 271.859152 
L 128.158082 271.795642 
L 128.653641 272.176699 
L 129.149201 273.19285 
L 129.64476 273.637416 
L 130.14032 273.446888 
L 130.635879 272.557756 
L 131.131439 273.129341 
L 131.626998 272.557756 
L 132.122558 272.684774 
L 132.618117 271.287567 
L 133.113677 272.04968 
L 133.609236 273.383378 
L 134.104796 273.19285 
L 134.600355 272.875303 
L 135.095915 272.176699 
L 135.591474 272.938812 
L 136.087034 272.811793 
L 136.582593 273.002322 
L 137.573712 273.573907 
L 138.069272 274.272511 
L 138.564831 274.209001 
L 139.060391 274.018473 
L 140.05151 273.002322 
L 141.042629 270.461944 
L 141.538188 271.351076 
L 142.033748 271.351076 
L 143.520426 270.398434 
L 144.015986 270.652472 
L 144.511545 270.779491 
L 145.007105 271.414585 
L 145.502664 271.224057 
L 145.998224 270.779491 
L 146.989343 271.98617 
L 147.484902 271.033529 
L 148.476021 268.747188 
L 149.46714 267.794547 
L 149.9627 267.604018 
L 150.458259 268.874207 
L 151.449378 269.636321 
L 151.944938 268.810698 
L 152.440497 269.318774 
L 152.936057 267.921566 
L 153.431616 268.937717 
L 153.927176 268.112094 
L 154.422735 266.841905 
L 154.918295 266.587867 
L 155.413854 267.731037 
L 156.404973 266.968924 
L 156.900533 267.858056 
L 157.396092 267.604018 
L 158.882771 269.890359 
L 159.37833 269.636321 
L 159.87389 269.953868 
L 160.369449 270.461944 
L 160.865009 270.271415 
L 161.360568 271.224057 
L 161.856128 271.732133 
L 162.351687 270.843 
L 162.847247 270.461944 
L 163.342806 270.843 
L 163.838366 270.779491 
L 164.333925 271.160548 
L 164.829485 271.922661 
L 165.325044 271.922661 
L 165.820604 271.414585 
L 166.811723 271.668623 
L 167.307282 272.04968 
L 167.802842 272.748284 
L 168.298401 272.875303 
L 168.793961 272.303718 
L 169.28952 271.922661 
L 169.78508 270.779491 
L 170.280639 270.652472 
L 170.776199 270.970019 
L 171.271758 270.144396 
L 171.767318 270.588963 
L 172.262877 270.779491 
L 172.758437 271.097038 
L 173.253996 270.843 
L 173.749556 270.334925 
L 174.245115 270.715981 
L 174.740675 270.90651 
L 175.236234 271.478095 
L 175.731794 271.414585 
L 176.227353 271.160548 
L 176.722913 271.414585 
L 177.218472 270.970019 
L 177.714032 271.160548 
L 178.705151 269.953868 
L 179.20071 270.461944 
L 179.69627 270.334925 
L 180.687389 269.826849 
L 181.182948 270.017377 
L 181.678508 269.382283 
L 182.174067 269.636321 
L 182.669627 269.76334 
L 183.165187 269.382283 
L 183.660746 269.826849 
L 184.156306 269.064736 
L 184.651865 269.445792 
L 185.147425 269.318774 
L 185.642984 268.747188 
L 186.138544 269.001226 
L 186.634103 268.874207 
L 187.129663 267.921566 
L 187.625222 267.985075 
L 189.111901 264.809603 
L 190.10302 263.856961 
L 190.598579 264.174508 
L 191.094139 263.98398 
L 192.085258 262.523262 
L 192.580817 262.904319 
L 193.076377 261.697639 
L 193.571936 261.443602 
L 194.067496 260.363941 
L 194.563055 260.808507 
L 195.058615 260.109903 
L 195.554174 260.935526 
L 196.545293 261.126054 
L 197.040853 260.617979 
L 197.536412 259.855865 
L 198.031972 257.442506 
L 198.527531 257.823563 
L 199.023091 258.903224 
L 199.51865 258.395148 
L 200.01421 257.633035 
L 200.509769 257.315487 
L 201.005329 259.34779 
L 201.500888 259.855865 
L 201.996448 258.077601 
L 202.492007 260.236922 
L 202.987567 258.966733 
L 203.483126 259.220771 
L 203.978686 260.42745 
L 204.474245 263.666432 
L 204.969805 264.873112 
L 205.465364 263.793451 
L 205.960924 264.428546 
L 206.456483 264.492055 
L 206.952043 264.110999 
L 207.447602 263.094847 
L 207.943162 263.92047 
L 208.438721 263.539414 
L 208.934281 263.793451 
L 209.42984 262.713791 
L 209.9254 259.601828 
L 210.420959 259.601828 
L 211.412078 258.839714 
L 211.907638 259.919375 
L 212.403197 259.855865 
L 212.898757 258.966733 
L 213.394316 258.395148 
L 213.889876 256.934431 
L 214.880995 258.077601 
L 215.376554 259.601828 
L 216.367673 257.823563 
L 216.863233 257.823563 
L 217.358792 258.14111 
L 217.854352 257.823563 
L 218.349911 257.06145 
L 218.845471 257.188468 
L 219.34103 257.06145 
L 219.83659 255.346694 
L 220.827709 255.600732 
L 221.323268 254.457562 
L 221.818828 254.203524 
L 222.314387 255.473713 
L 222.809947 255.981789 
L 223.305506 256.172317 
L 223.801066 254.775109 
L 224.792185 254.330543 
L 225.287744 255.981789 
L 225.783304 255.918279 
L 226.278863 259.030243 
L 226.774423 259.28428 
L 227.269982 258.966733 
L 227.765542 260.49096 
L 228.261101 260.300432 
L 228.756661 262.015187 
L 229.25222 264.873112 
L 229.74778 265.571716 
L 230.243339 264.619074 
L 230.738899 266.460848 
L 231.234458 263.221866 
L 232.225577 261.570621 
L 232.721137 259.792356 
L 233.216696 260.300432 
L 233.712256 259.093752 
L 234.703375 260.236922 
L 235.198934 259.093752 
L 235.694494 259.665337 
L 236.190053 259.093752 
L 236.685613 257.315487 
L 237.181172 257.442506 
L 237.676732 254.902128 
L 238.172291 254.457562 
L 238.667851 253.758958 
L 239.16341 255.156166 
L 239.65897 256.045298 
L 240.154529 255.092657 
L 240.650089 255.727751 
L 241.145648 252.933335 
L 241.641208 251.091561 
L 242.136767 251.536127 
L 242.632327 252.171222 
L 243.127886 253.822468 
L 243.623446 250.901033 
L 244.119005 249.757863 
L 245.110124 252.933335 
L 245.605684 249.948391 
L 246.101243 250.07541 
L 246.596803 251.091561 
L 247.092362 250.964542 
L 247.587922 249.821372 
L 248.083481 249.821372 
L 248.579041 248.043108 
L 249.0746 250.265938 
L 249.57016 248.86873 
L 250.065719 251.599637 
L 251.056838 249.821372 
L 251.552398 249.630844 
L 252.047957 249.757863 
L 252.543517 248.487674 
L 253.039076 244.994654 
L 253.534636 246.836428 
L 254.030195 244.29605 
L 254.525755 243.724465 
L 255.021314 244.359559 
L 256.012433 240.612502 
L 256.507993 241.755672 
L 257.003552 241.628653 
L 257.499112 238.643709 
L 257.994671 241.819181 
L 258.490231 241.819181 
L 258.98579 239.088275 
L 259.48135 238.262652 
L 259.976909 240.040917 
L 260.472469 239.596351 
L 260.968028 239.65986 
L 261.463588 237.500539 
L 261.959147 237.691067 
L 262.454707 236.928954 
L 262.950266 235.150689 
L 263.445826 239.342313 
L 263.941385 239.913898 
L 264.436945 237.119482 
L 264.932504 241.819181 
L 265.428064 241.628653 
L 265.923623 238.072124 
L 266.419183 235.976312 
L 266.914742 237.31001 
L 267.410302 237.246501 
L 267.905861 240.485483 
L 268.401421 238.072124 
L 268.89698 239.469332 
L 269.39254 240.358464 
L 270.383659 243.660955 
L 270.879218 240.167936 
L 271.374778 240.167936 
L 272.365897 238.707218 
L 272.861456 239.024766 
L 273.357016 242.390766 
L 273.852575 243.343408 
L 274.348135 239.278803 
L 274.843694 239.278803 
L 275.339254 238.262652 
L 275.834813 239.532841 
L 276.330373 243.597446 
L 276.825933 243.597446 
L 277.321492 240.231445 
L 277.817052 239.469332 
L 278.312611 239.151784 
L 278.808171 236.103331 
L 279.30373 234.325066 
L 279.79929 233.245405 
L 280.294849 234.452085 
L 280.790409 234.388576 
L 281.285968 237.754576 
L 281.781528 238.008614 
L 282.277087 244.804126 
L 282.772647 245.185182 
L 283.268206 242.835333 
L 283.763766 243.851484 
L 284.259325 245.121673 
L 284.754885 248.487674 
L 285.250444 247.852579 
L 285.746004 249.567334 
L 286.241563 248.995749 
L 286.737123 251.917184 
L 287.232682 255.918279 
L 287.728242 253.56843 
L 288.223801 255.219675 
L 288.719361 251.663146 
L 289.21492 249.440315 
L 289.71048 247.852579 
L 290.206039 248.170126 
L 290.701599 251.409108 
L 291.197158 251.28209 
L 291.692718 255.092657 
L 292.188277 256.426355 
L 292.683837 252.107712 
L 293.179396 252.107712 
L 293.674956 251.091561 
L 294.170515 250.456467 
L 294.666075 247.78907 
L 295.161634 248.360655 
L 296.152753 250.265938 
L 296.648313 252.298241 
L 297.143872 252.552279 
L 297.639432 253.758958 
L 298.134991 254.521072 
L 298.630551 252.615788 
L 299.12611 254.140015 
L 299.62167 253.50492 
L 300.117229 256.362846 
L 301.603908 259.855865 
L 302.099467 257.887072 
L 302.595027 256.807412 
L 303.090586 257.251978 
L 303.586146 255.410204 
L 304.081705 254.965638 
L 304.577265 253.314392 
L 305.072824 252.806316 
L 305.568384 251.726656 
L 306.063943 255.918279 
L 306.559503 256.870921 
L 307.055062 258.522167 
L 307.550622 262.396243 
L 308.046181 262.015187 
L 308.541741 262.7773 
L 309.53286 264.809603 
L 310.028419 267.794547 
L 311.019538 260.681488 
L 312.010657 264.047489 
L 312.506217 264.873112 
L 313.497336 267.604018 
L 313.992895 266.587867 
L 314.488455 264.492055 
L 314.984014 264.047489 
L 315.479574 260.173413 
L 315.975133 261.062545 
L 316.470693 260.554469 
L 316.966252 260.808507 
L 317.461812 260.681488 
L 317.957371 261.443602 
L 318.94849 258.966733 
L 319.44405 259.665337 
L 319.939609 258.966733 
L 320.435169 260.42745 
L 320.930728 260.42745 
L 321.426288 261.570621 
L 321.921847 260.109903 
L 322.417407 261.824658 
L 323.408526 262.015187 
L 323.904085 261.189564 
L 324.399645 262.015187 
L 324.895204 261.189564 
L 325.390764 258.712695 
L 325.886323 257.633035 
L 326.877442 262.459753 
L 327.373002 263.539414 
L 327.868561 262.586772 
L 328.364121 263.729942 
L 328.85968 262.713791 
L 329.35524 264.873112 
L 329.850799 266.143301 
L 330.346359 266.460848 
L 330.841918 268.493151 
L 331.337478 269.191755 
L 331.833037 270.334925 
L 332.328597 268.937717 
L 332.824156 268.874207 
L 333.319716 269.255264 
L 333.815275 269.001226 
L 334.310835 269.001226 
L 334.806394 271.160548 
L 335.301954 271.922661 
L 335.797513 270.461944 
L 336.293073 270.207906 
L 336.788632 270.144396 
L 337.284192 269.826849 
L 337.779751 270.207906 
L 338.275311 270.144396 
L 338.77087 270.970019 
L 339.761989 269.128245 
L 340.257549 269.572811 
L 340.753108 268.175603 
L 341.248668 267.349981 
L 341.744227 268.429641 
L 342.735346 268.239113 
L 343.230906 267.604018 
L 343.726465 267.604018 
L 344.222025 267.731037 
L 344.717584 268.493151 
L 345.213144 268.048585 
L 345.708703 266.079792 
L 346.204263 264.873112 
L 346.699822 264.238017 
L 347.195382 263.285376 
L 347.690941 263.094847 
L 348.186501 263.729942 
L 348.68206 260.681488 
L 349.673179 262.332734 
L 350.168739 262.523262 
L 350.664298 261.570621 
L 351.159858 259.093752 
L 351.655417 258.585676 
L 352.150977 259.28428 
L 352.646536 256.870921 
L 353.142096 256.426355 
L 353.637655 255.156166 
L 354.133215 254.838619 
L 354.628774 255.346694 
L 355.124334 256.807412 
L 355.619893 257.315487 
L 356.115453 253.631939 
L 356.611012 253.50492 
L 357.106572 253.123864 
L 357.602131 253.56843 
L 358.097691 251.28209 
L 358.59325 247.72556 
L 359.08881 249.249787 
L 359.584369 249.821372 
L 360.079929 250.138919 
L 360.575488 249.757863 
L 361.566607 251.790165 
L 362.062167 249.313297 
L 362.557726 249.694353 
L 363.053286 246.772919 
L 363.548845 245.502729 
L 364.044405 247.217485 
L 364.539964 247.408013 
L 365.035524 247.78907 
L 365.531083 249.186278 
L 366.026643 247.78907 
L 366.522202 246.772919 
L 367.017762 249.630844 
L 367.513321 249.757863 
L 368.008881 250.583486 
L 368.50444 249.567334 
L 369 249.440315 
L 369.49556 249.694353 
L 369.991119 249.376806 
L 370.486679 249.567334 
L 370.982238 249.567334 
L 371.477798 249.059259 
L 372.468917 248.86873 
L 372.964476 247.344504 
L 373.460036 247.72556 
L 373.955595 251.853675 
L 374.451155 249.122768 
L 374.946714 250.583486 
L 375.442274 252.742807 
L 375.937833 249.884882 
L 376.433393 249.249787 
L 376.928952 249.694353 
L 377.424512 247.344504 
L 377.920071 246.518881 
L 378.91119 250.0119 
L 379.40675 248.93224 
L 379.902309 248.995749 
L 380.397869 250.964542 
L 380.893428 250.964542 
L 381.388988 250.0119 
L 381.884547 248.678202 
L 382.380107 249.059259 
L 382.875666 248.614693 
L 383.371226 247.72556 
L 383.866785 248.297145 
L 384.857904 251.536127 
L 385.353464 252.107712 
L 385.849023 250.837523 
L 386.344583 248.233636 
L 386.840142 248.297145 
L 387.335702 247.280994 
L 387.831261 247.471522 
L 388.326821 248.233636 
L 389.31794 246.58239 
L 389.813499 244.486578 
L 390.309059 244.486578 
L 390.804618 244.042012 
L 391.300178 244.169031 
L 391.795737 241.184087 
L 392.291297 240.231445 
L 392.786856 240.80303 
L 393.282416 240.80303 
L 393.777975 238.770728 
L 394.273535 237.564048 
L 395.264654 241.692162 
L 395.760213 239.913898 
L 396.255773 242.00971 
L 396.751332 241.628653 
L 397.246892 241.501634 
L 397.742451 241.565144 
L 398.238011 241.438125 
L 398.73357 242.327257 
L 399.22913 243.660955 
L 399.724689 244.169031 
L 400.220249 245.43922 
L 400.715808 245.058163 
L 401.706927 245.058163 
L 402.202487 244.423069 
L 402.698046 244.550088 
L 403.193606 242.708314 
L 403.689165 243.533937 
L 404.184725 243.470427 
L 405.175844 244.359559 
L 405.671403 243.597446 
L 406.166963 245.248692 
L 406.662522 245.058163 
L 407.653641 241.628653 
L 408.149201 241.755672 
L 408.64476 240.80303 
L 409.14032 240.739521 
L 409.635879 238.707218 
L 410.131439 238.707218 
L 411.122558 237.31001 
L 411.618117 237.119482 
L 412.113677 238.135633 
L 412.609236 237.246501 
L 413.104796 234.198047 
L 413.600355 234.325066 
L 414.095915 233.944009 
L 415.087034 234.579104 
L 415.582593 233.944009 
L 416.078153 232.165745 
L 416.573712 232.67382 
L 417.069272 232.800839 
L 417.564831 233.499443 
L 418.060391 232.864349 
L 418.55595 232.546802 
L 419.05151 231.657669 
L 419.547069 233.816991 
L 420.042629 233.435934 
L 420.538188 233.435934 
L 421.033748 233.816991 
L 421.529307 231.721179 
L 422.024867 230.514499 
L 422.520426 229.688876 
L 423.015986 230.705027 
L 423.511545 228.164649 
L 424.007105 227.910612 
L 424.502664 228.736234 
L 424.998224 228.482197 
L 425.493783 227.847102 
L 425.989343 226.89446 
L 426.484902 227.339027 
L 426.980462 222.893365 
L 427.476021 222.448799 
L 427.971581 222.512308 
L 428.46714 222.448799 
L 428.9627 220.289478 
L 429.458259 220.098949 
L 429.953819 220.289478 
L 430.449378 222.956874 
L 430.944938 221.496157 
L 431.440497 223.52846 
L 431.936057 223.591969 
L 432.431616 222.385289 
L 432.927176 220.607025 
L 433.422735 219.400345 
L 433.918295 220.162459 
L 434.413854 218.701741 
L 435.404973 215.018193 
L 436.396092 216.288382 
L 436.891652 215.462759 
L 437.387211 216.161363 
L 437.882771 218.638232 
L 438.37833 217.495062 
L 438.87389 214.129061 
L 439.369449 212.477815 
L 439.865009 213.684495 
L 440.360568 213.493966 
L 440.856128 210.509022 
L 441.351687 210.445513 
L 441.847247 212.541325 
L 442.342806 218.257175 
L 442.838366 220.03544 
L 443.333925 219.146307 
L 443.829485 219.908421 
L 444.325044 219.209817 
L 444.820604 222.194761 
L 445.316163 223.401441 
L 445.811723 223.718988 
L 446.307282 222.702837 
L 446.802842 221.305629 
L 447.298401 220.352987 
L 447.793961 222.956874 
L 448.28952 221.813704 
L 449.280639 222.131252 
L 449.776199 219.717892 
L 450.271758 219.717892 
L 450.767318 219.273326 
L 451.262877 221.369138 
L 451.758437 222.004233 
L 452.253996 223.083893 
L 452.749556 223.46495 
L 453.245115 223.147403 
L 453.740675 223.274422 
L 454.236234 222.893365 
L 454.731794 223.52846 
L 455.227353 223.46495 
L 455.722913 221.750195 
L 456.218472 222.067742 
L 457.209591 223.846007 
L 457.705151 221.750195 
L 458.20071 222.067742 
L 458.69627 218.130156 
L 459.191829 217.558571 
L 459.687389 216.54242 
L 460.182948 217.812609 
L 462.165187 210.064456 
L 463.156306 209.873928 
L 463.651865 213.303438 
L 464.147425 219.019289 
L 464.642984 214.446608 
L 465.138544 212.922381 
L 465.634103 208.857776 
L 466.129663 210.191475 
L 466.625222 209.61989 
L 467.120782 208.730757 
L 467.616341 206.507927 
L 468.111901 207.587587 
L 468.60746 206.825474 
L 469.10302 203.586492 
L 469.598579 204.158077 
L 470.094139 206.12687 
L 470.589698 204.539134 
L 471.085258 203.522983 
L 471.580817 202.824379 
L 472.076377 201.617699 
L 472.571936 205.237738 
L 473.067496 203.205435 
L 473.563055 206.507927 
L 474.058615 204.031058 
L 474.554174 200.792076 
L 475.049734 200.156982 
L 475.545293 197.045019 
L 476.040853 196.663962 
L 476.536412 199.20434 
L 477.031972 199.521887 
L 477.527531 201.55419 
L 478.023091 205.872832 
L 478.51865 208.159172 
L 479.01421 213.875023 
L 479.509769 214.002042 
L 480.005329 214.891174 
L 480.500888 217.177514 
L 480.996448 213.366947 
L 481.492007 216.097854 
L 481.987567 212.731853 
L 482.483126 208.095663 
L 482.978686 205.936342 
L 483.474245 205.237738 
L 483.969805 207.587587 
L 484.465364 204.666153 
L 484.960924 206.444417 
L 485.456483 204.92019 
L 485.952043 203.967549 
L 486.447602 200.220491 
L 486.943162 200.982604 
L 487.438721 195.139735 
L 487.934281 197.108528 
L 488.42984 196.155886 
L 488.9254 193.869546 
L 489.420959 195.584301 
L 489.916519 194.441131 
L 490.412078 195.076226 
L 490.907638 193.043923 
L 491.403197 193.933055 
L 491.898757 191.13864 
L 492.394316 190.948111 
L 492.889876 193.615508 
L 493.385435 190.821092 
L 493.880995 188.979318 
L 494.376554 190.884602 
L 494.872114 193.297961 
L 495.367673 191.13864 
L 496.358792 189.296866 
L 496.854352 191.456187 
L 497.349911 187.074035 
L 497.845471 181.612222 
L 498.34103 181.993279 
L 498.83659 183.390487 
L 499.332149 179.833957 
L 499.827709 178.563768 
L 500.323268 181.294675 
L 500.818828 179.770448 
L 501.314387 182.437845 
L 501.809947 180.278524 
L 502.305506 176.0869 
L 502.801066 179.262372 
L 503.296625 180.532561 
L 503.792185 174.88022 
L 504.287744 172.339842 
L 504.783304 175.769353 
L 505.278863 174.499164 
L 505.774423 172.720899 
L 506.269982 170.053502 
L 506.765542 172.720899 
L 507.261101 170.879125 
L 507.756661 166.687501 
L 508.25222 167.513124 
L 508.74778 164.909236 
L 509.243339 163.067462 
L 509.738899 159.637952 
L 510.234458 157.288102 
L 510.730018 161.924292 
L 511.225577 156.653008 
L 511.721137 156.462479 
L 512.216696 151.254705 
L 512.712256 152.715422 
L 513.703375 147.317119 
L 514.198934 151.572252 
L 514.694494 153.985611 
L 515.190053 151.508742 
L 515.685613 153.350516 
L 516.181172 149.666968 
L 516.676732 149.47644 
L 517.172291 143.252514 
L 517.667851 140.458098 
L 518.16341 134.48821 
L 518.65897 135.504361 
L 519.154529 132.582926 
L 519.650089 144.649722 
L 520.145648 141.220211 
L 520.641208 144.205155 
L 521.136767 136.393493 
L 521.632327 133.154511 
L 522.127886 127.883227 
L 522.623446 140.077041 
L 523.119005 137.663682 
L 523.614565 137.282625 
L 524.110124 131.503265 
L 524.605684 131.630284 
L 525.596803 124.00915 
L 526.092362 127.629189 
L 526.587922 124.07266 
L 527.083481 129.343944 
L 527.579041 131.312737 
L 528.0746 131.757303 
L 528.57016 134.361191 
L 529.065719 140.458098 
L 529.561279 143.69708 
L 530.056838 142.934966 
L 531.047957 138.616324 
L 531.543517 144.205155 
L 532.039076 144.459193 
L 532.534636 142.363381 
L 533.030195 142.363381 
L 533.525755 139.886513 
L 534.021314 139.886513 
L 534.516874 136.71104 
L 535.012433 130.677642 
L 535.507993 131.439756 
L 536.003552 131.630284 
L 536.994671 133.154511 
L 537.490231 137.219116 
L 537.98579 145.094288 
L 538.48135 145.348326 
L 538.976909 152.96946 
L 539.472469 152.651912 
L 539.968028 149.793987 
L 540.463588 152.080327 
L 540.959147 149.603459 
L 541.454707 153.604554 
L 541.950266 156.39897 
L 542.445826 154.239649 
L 542.941385 155.700366 
L 543.436945 154.938253 
L 543.932504 148.079232 
L 544.428064 150.365572 
L 544.923623 148.714326 
L 545.419183 151.699271 
L 545.914742 150.175044 
L 546.410302 146.872552 
L 546.905861 141.791796 
L 547.401421 134.869266 
L 547.89698 131.820813 
L 548.39254 131.947831 
L 548.888099 133.853115 
L 549.383659 133.28153 
L 549.879218 138.044739 
L 550.374778 135.56787 
L 550.870337 135.821908 
L 551.365897 138.362286 
L 551.861456 145.665873 
L 552.357016 144.014627 
L 552.852575 137.409644 
L 553.348135 136.139455 
L 553.843694 132.07485 
L 554.339254 135.377342 
L 554.834813 135.250323 
L 555.825933 132.13836 
L 556.321492 132.392398 
L 556.817052 136.901569 
L 557.312611 131.376246 
L 557.808171 135.313832 
L 558.30373 141.791796 
L 558.79929 139.251418 
L 559.294849 139.695984 
L 559.790409 138.235267 
L 560.781528 150.746629 
L 561.277087 148.777836 
L 561.772647 147.317119 
L 562.268206 148.33327 
L 562.763766 149.095383 
L 563.259325 152.842441 
L 563.754885 153.096479 
L 564.250444 152.016818 
L 564.746004 151.318214 
L 565.241563 145.348326 
L 565.737123 145.348326 
L 566.728242 137.790701 
L 567.223801 136.457002 
L 567.719361 135.821908 
L 568.21492 138.806852 
L 568.71048 134.932776 
L 569.206039 135.948927 
L 569.701599 131.566775 
L 570.197158 129.153416 
L 570.692718 127.311642 
L 571.188277 123.247037 
L 571.683837 124.453716 
L 572.179396 120.198583 
L 572.674956 121.786319 
L 573.170515 121.405263 
L 573.666075 119.754017 
L 574.161634 115.816431 
L 575.152753 118.356809 
L 576.143872 112.958506 
L 576.639432 115.181336 
L 577.630551 107.179146 
L 578.12611 104.448239 
L 578.62167 106.035976 
L 579.117229 105.654919 
L 579.612789 102.987522 
L 580.603908 109.211448 
L 581.099467 109.084429 
L 581.595027 106.607561 
L 582.090586 111.370769 
L 582.586146 99.240464 
L 583.081705 94.731293 
L 583.577265 81.902384 
L 584.072824 76.694609 
L 584.568384 85.776461 
L 585.063943 87.04665 
L 585.559503 94.286727 
L 586.055062 94.985331 
L 586.550622 90.793707 
L 587.046181 88.634386 
L 587.541741 84.76031 
L 588.0373 87.491216 
L 588.53286 83.807668 
L 589.028419 78.726912 
L 589.523979 75.043364 
L 590.019538 69.454532 
L 590.515098 84.125215 
L 591.010657 82.855026 
L 591.506217 96.25552 
L 592.001776 97.39869 
L 592.497336 106.67107 
L 592.992895 105.781938 
L 593.488455 111.116732 
L 593.984014 108.004769 
L 594.479574 112.259902 
L 594.975133 108.830391 
L 595.470693 119.118922 
L 595.966252 119.626998 
L 596.461812 132.328888 
L 596.957371 137.346135 
L 597.94849 123.437565 
L 598.44405 122.103867 
L 598.939609 133.345039 
L 599.435169 131.439756 
L 599.930728 128.835868 
L 600.426288 124.07266 
L 600.921847 129.78851 
L 601.417407 129.407453 
L 601.912966 129.534472 
L 602.408526 129.407453 
L 602.904085 125.977943 
L 603.399645 118.102771 
L 603.895204 118.166281 
L 604.390764 113.149034 
L 604.886323 115.625903 
L 605.381883 109.084429 
L 605.877442 107.179146 
L 606.373002 110.735675 
L 606.868561 112.196392 
L 607.364121 107.496693 
L 607.85968 110.735675 
L 608.35524 118.22979 
L 608.850799 115.371865 
L 609.346359 114.73677 
L 609.841918 115.054318 
L 610.337478 116.896092 
L 610.833037 110.227599 
L 611.328597 107.623712 
L 611.824156 104.194201 
L 612.319716 105.019824 
L 612.815275 96.573067 
L 613.310835 100.764691 
L 613.806394 93.207067 
L 614.301954 87.681744 
L 614.797513 88.12631 
L 615.293073 86.729103 
L 616.284192 103.305069 
L 617.275311 94.413746 
L 617.77087 88.824914 
L 618.26643 87.681744 
L 618.761989 84.950838 
L 619.257549 77.710761 
L 619.753108 80.949743 
L 620.248668 82.918535 
L 620.744227 79.044459 
L 621.239787 79.933591 
L 621.735346 79.933591 
L 622.230906 73.709665 
L 622.726465 76.758119 
L 623.222025 74.090722 
L 623.717584 81.20378 
L 624.213144 76.250043 
L 624.708703 69.70857 
L 625.204263 76.123024 
L 625.699822 76.821628 
L 626.195382 73.646156 
L 626.690941 72.439476 
L 627.186501 75.42442 
L 627.68206 73.13808 
L 628.17762 68.882947 
L 629.168739 71.232797 
L 629.664298 81.584837 
L 630.159858 78.028308 
L 630.655417 72.375967 
L 631.150977 68.374871 
L 631.646536 62.404983 
L 632.142096 63.484644 
L 632.637655 70.407174 
L 633.133215 62.72253 
L 633.628774 60.43619 
L 634.124334 62.468492 
L 634.619893 61.896907 
L 635.115453 55.8 
L 635.611012 72.248948 
L 636.106572 74.789326 
L 636.602131 87.300688 
L 637.097691 77.520232 
L 637.59325 84.125215 
L 638.08881 83.807668 
L 638.584369 73.836684 
L 639.079929 73.265099 
L 639.575488 70.343664 
L 640.071048 68.755928 
L 640.566607 76.948647 
L 641.062167 71.105778 
L 641.557726 70.280155 
L 642.053286 66.596607 
L 643.044405 83.55363 
L 643.539964 96.001482 
L 644.035524 99.939068 
L 644.531083 90.666688 
L 645.026643 84.379253 
L 645.522202 91.873368 
L 646.017762 88.634386 
L 646.513321 79.933591 
L 647.008881 78.91744 
L 647.50444 78.409364 
L 648 85.712951 
L 648 85.712951 
" style="fill:none;stroke:#1f77b4;stroke-linecap:square;stroke-width:1.5;"/>
   </g>
   <g id="line2d_22">
    <path clip-path="url(#pdb586f32b9)" d="M 90 275.606209 
L 90.49556 275.205231 
L 90.991119 275.905244 
L 91.486679 276.346999 
L 91.982238 279.826674 
L 92.477798 279.826674 
L 92.973357 280.390762 
L 93.468917 279.901433 
L 93.964476 279.174235 
L 94.460036 279.74512 
L 95.451155 279.412104 
L 95.946714 279.629583 
L 96.442274 280.309208 
L 96.937833 280.479114 
L 97.433393 280.852907 
L 98.920071 280.784944 
L 99.415631 280.587853 
L 99.91119 279.58201 
L 100.40675 279.833471 
L 100.902309 280.54028 
L 101.397869 280.438336 
L 102.884547 281.580104 
L 104.371226 284.441322 
L 104.866785 284.393748 
L 105.362345 283.258776 
L 105.857904 283.102462 
L 106.353464 284.019955 
L 106.849023 283.809271 
L 107.344583 283.381108 
L 107.840142 283.625773 
L 108.335702 282.92576 
L 108.831261 283.360719 
L 109.82238 282.490801 
L 110.31794 282.783039 
L 110.813499 282.450023 
L 111.309059 282.450023 
L 111.804618 283.150036 
L 112.300178 283.007315 
L 112.795737 283.489848 
L 113.291297 282.300506 
L 114.282416 282.198562 
L 114.777975 281.790788 
L 115.273535 282.18497 
L 116.264654 282.117007 
L 116.760213 282.647114 
L 117.255773 282.572356 
L 117.751332 281.471365 
L 118.246892 281.016017 
L 118.742451 281.525735 
L 119.73357 281.811177 
L 120.22913 281.199515 
L 120.724689 281.763603 
L 121.715808 281.410198 
L 122.211368 281.906324 
L 123.202487 281.668456 
L 123.698046 282.327691 
L 124.193606 282.477208 
L 124.689165 282.049045 
L 125.184725 282.484004 
L 125.680284 282.640318 
L 126.175844 283.14324 
L 126.671403 284.366563 
L 127.166963 283.856845 
L 127.662522 282.769447 
L 128.653641 282.742262 
L 129.149201 283.918011 
L 129.64476 283.836456 
L 130.14032 284.434525 
L 130.635879 284.019955 
L 131.131439 285.216093 
L 131.626998 286.058827 
L 132.122558 285.922902 
L 132.618117 285.916106 
L 133.113677 286.344269 
L 133.609236 287.370501 
L 134.104796 287.071467 
L 134.600355 287.200595 
L 135.095915 286.520971 
L 135.591474 286.32388 
L 136.087034 286.310288 
L 137.078153 286.453009 
L 138.069272 287.560796 
L 138.564831 286.955931 
L 139.060391 287.744295 
L 140.547069 287.812257 
L 141.042629 286.874376 
L 141.538188 286.446213 
L 142.529307 287.037486 
L 143.024867 287.560796 
L 143.520426 288.485085 
L 144.015986 288.070514 
L 144.511545 287.887016 
L 145.007105 288.342364 
L 145.502664 288.328771 
L 145.998224 289.368596 
L 146.493783 288.546251 
L 146.989343 288.097699 
L 147.484902 287.948182 
L 147.980462 286.969523 
L 148.476021 287.153022 
L 148.971581 287.06467 
L 149.46714 287.812257 
L 149.9627 287.085059 
L 150.458259 287.187003 
L 150.953819 286.228733 
L 151.449378 286.351065 
L 152.936057 286.045234 
L 153.431616 286.908357 
L 153.927176 286.711266 
L 154.422735 286.357861 
L 154.918295 286.425824 
L 155.413854 286.847191 
L 155.909414 286.656896 
L 156.404973 286.636507 
L 156.900533 286.038438 
L 157.891652 285.922902 
L 158.387211 285.929698 
L 158.882771 286.949134 
L 159.37833 287.526815 
L 159.87389 287.404483 
L 160.369449 287.791868 
L 160.865009 288.634602 
L 161.360568 291.251155 
L 162.351687 290.408421 
L 163.342806 290.122979 
L 163.838366 290.204534 
L 164.333925 290.088997 
L 164.829485 290.177349 
L 165.325044 288.383141 
L 165.820604 288.648195 
L 166.316163 288.559843 
L 166.811723 288.34916 
L 167.307282 288.695768 
L 167.802842 288.437511 
L 168.298401 288.831693 
L 168.793961 288.559843 
L 169.28952 288.070514 
L 169.78508 287.914201 
L 170.776199 288.614213 
L 171.271758 287.071467 
L 171.767318 286.921949 
L 172.262877 285.936495 
L 172.758437 285.542313 
L 173.253996 285.96368 
L 173.749556 285.766589 
L 174.245115 286.21514 
L 175.236234 286.847191 
L 175.731794 286.194752 
L 176.227353 285.216093 
L 176.722913 285.596683 
L 177.218472 285.494739 
L 177.714032 285.161723 
L 178.209591 284.454914 
L 178.705151 284.026751 
L 179.20071 283.333535 
L 180.191829 283.945196 
L 180.687389 283.360719 
L 181.182948 283.911215 
L 181.678508 283.714124 
L 182.174067 284.053936 
L 182.669627 284.217046 
L 183.165187 283.88403 
L 183.660746 284.495692 
L 184.156306 283.999566 
L 184.651865 284.713171 
L 185.147425 284.747153 
L 185.642984 285.644256 
L 186.138544 285.678237 
L 186.634103 285.086965 
L 187.129663 285.093761 
L 187.625222 284.726764 
L 188.616341 283.313146 
L 189.111901 283.958789 
L 189.60746 283.856845 
L 190.10302 282.830613 
L 190.598579 284.318989 
L 191.589698 284.760745 
L 192.085258 285.100557 
L 193.076377 283.918011 
L 193.571936 283.788883 
L 194.067496 283.530625 
L 194.563055 283.768494 
L 195.058615 284.285008 
L 195.554174 285.827755 
L 196.049734 285.345222 
L 196.545293 285.617071 
L 197.040853 286.459805 
L 197.536412 286.820006 
L 198.031972 286.371454 
L 198.527531 286.119993 
L 199.023091 285.678237 
L 199.51865 285.046187 
L 200.509769 284.604431 
L 201.005329 284.991817 
L 201.500888 285.834551 
L 201.996448 285.793774 
L 202.492007 286.955931 
L 202.987567 286.289899 
L 203.483126 286.113197 
L 203.978686 286.249122 
L 204.474245 287.893812 
L 204.969805 288.315179 
L 205.465364 287.288946 
L 205.960924 287.479241 
L 206.456483 287.887016 
L 206.952043 286.779228 
L 207.447602 287.105448 
L 207.943162 288.24042 
L 208.438721 287.601573 
L 208.934281 287.948182 
L 209.42984 287.492834 
L 209.9254 286.792821 
L 210.420959 287.180207 
L 210.916519 287.112244 
L 211.412078 287.513222 
L 212.403197 287.887016 
L 212.898757 287.363705 
L 213.394316 288.02294 
L 213.889876 287.920997 
L 214.385435 288.281198 
L 214.880995 289.001599 
L 215.376554 289.185098 
L 216.863233 289.049173 
L 217.358792 290.89775 
L 217.854352 289.973461 
L 218.349911 290.150164 
L 218.845471 290.095794 
L 219.83659 290.32007 
L 220.332149 290.605512 
L 220.827709 290.279292 
L 221.323268 291.00649 
L 221.818828 292.569625 
L 222.314387 292.250202 
L 223.305506 292.481274 
L 223.801066 291.298728 
L 224.296625 291.414264 
L 224.792185 289.864722 
L 225.287744 289.93948 
L 225.783304 289.810352 
L 226.278863 289.88511 
L 226.774423 290.401625 
L 227.765542 292.807494 
L 228.261101 292.535644 
L 228.756661 292.86866 
L 229.25222 295.301714 
L 230.243339 293.990039 
L 230.738899 295.444435 
L 231.234458 293.922077 
L 231.730018 294.010428 
L 232.225577 294.227908 
L 232.721137 293.249249 
L 233.216696 293.351193 
L 233.712256 291.58417 
L 234.207815 291.040471 
L 234.703375 290.741437 
L 235.198934 289.88511 
L 235.694494 290.462791 
L 236.190053 289.728797 
L 236.685613 289.796759 
L 237.181172 290.333662 
L 237.676732 290.15696 
L 238.172291 288.18605 
L 238.667851 287.33652 
L 239.16341 287.554 
L 239.65897 288.301586 
L 240.154529 287.948182 
L 240.650089 288.858878 
L 241.145648 288.287994 
L 241.641208 287.920997 
L 242.136767 289.069561 
L 242.632327 289.409373 
L 243.127886 292.501663 
L 243.623446 290.911343 
L 244.119005 288.940433 
L 244.614565 289.246264 
L 245.110124 288.750138 
L 245.605684 287.404483 
L 246.596803 289.409373 
L 247.092362 289.137524 
L 248.579041 289.844333 
L 249.0746 289.796759 
L 249.57016 289.402577 
L 250.065719 291.054064 
L 250.561279 289.93948 
L 251.056838 290.109386 
L 251.552398 291.387079 
L 252.047957 292.229813 
L 252.543517 290.510364 
L 253.039076 290.408421 
L 253.534636 291.421061 
L 254.030195 290.992897 
L 254.525755 291.128822 
L 255.021314 290.190941 
L 255.516874 290.809399 
L 256.012433 289.626853 
L 256.507993 289.19869 
L 257.499112 289.219079 
L 257.994671 290.000646 
L 258.490231 290.075405 
L 258.98579 289.626853 
L 259.976909 290.578327 
L 260.472469 290.272496 
L 260.968028 289.463743 
L 261.463588 289.388985 
L 261.959147 290.224922 
L 262.454707 290.551142 
L 262.950266 291.713299 
L 263.445826 292.229813 
L 263.941385 293.697801 
L 264.436945 293.385174 
L 264.932504 293.962855 
L 265.428064 294.030817 
L 265.923623 293.079343 
L 266.419183 293.55508 
L 266.914742 293.752171 
L 267.410302 294.329851 
L 267.905861 294.554127 
L 268.401421 293.908485 
L 268.89698 294.724033 
L 269.39254 294.934717 
L 269.888099 295.974542 
L 270.383659 298.59789 
L 270.879218 298.176524 
L 271.374778 299.433828 
L 271.870337 298.495947 
L 272.365897 298.754204 
L 272.861456 297.891081 
L 273.357016 298.230893 
L 273.852575 298.29206 
L 274.348135 296.545426 
L 274.843694 296.545426 
L 275.339254 297.163884 
L 275.834813 296.450279 
L 276.330373 298.190116 
L 276.825933 297.986229 
L 277.321492 297.184272 
L 277.817052 296.858053 
L 278.312611 297.673602 
L 278.808171 296.259984 
L 279.30373 296.171633 
L 279.79929 296.382316 
L 280.294849 296.15804 
L 280.790409 296.735721 
L 281.285968 296.973589 
L 282.772647 295.369676 
L 283.268206 295.349288 
L 283.763766 296.130855 
L 284.259325 296.572611 
L 284.754885 297.38816 
L 285.250444 297.605639 
L 285.746004 298.149339 
L 286.241563 299.14159 
L 287.232682 300.616374 
L 287.728242 299.481402 
L 288.223801 300.364913 
L 288.719361 299.046442 
L 289.21492 298.876536 
L 289.71048 298.353226 
L 290.206039 298.740612 
L 290.701599 299.929954 
L 291.197158 300.072675 
L 291.692718 300.711521 
L 292.683837 299.861991 
L 293.179396 300.351321 
L 293.674956 299.902769 
L 294.170515 300.222192 
L 294.666075 299.161978 
L 295.161634 299.094016 
L 295.657194 299.338681 
L 296.648313 300.697929 
L 297.143872 300.038693 
L 297.639432 300.663948 
L 298.630551 301.030945 
L 299.12611 302.329026 
L 299.62167 302.254268 
L 300.117229 302.335823 
L 300.612789 302.152324 
L 301.603908 303.151372 
L 302.099467 302.526117 
L 302.595027 302.118343 
L 303.090586 302.227083 
L 303.586146 301.595033 
L 304.081705 301.975622 
L 304.577265 301.710569 
L 305.072824 302.3766 
L 305.568384 301.900863 
L 306.063943 303.55235 
L 306.559503 303.871773 
L 307.055062 303.932939 
L 307.550622 306.162106 
L 308.046181 306.032977 
L 308.541741 306.522307 
L 309.0373 307.269893 
L 309.53286 306.991247 
L 310.028419 307.575724 
L 310.523979 306.277642 
L 311.019538 304.449453 
L 311.515098 305.19704 
L 313.497336 306.576677 
L 313.992895 306.107736 
L 314.984014 305.46889 
L 315.479574 303.803811 
L 315.975133 303.756237 
L 316.966252 303.919347 
L 317.461812 304.45625 
L 317.957371 304.435861 
L 318.452931 303.22613 
L 318.94849 302.736801 
L 319.44405 302.933892 
L 319.939609 302.342619 
L 320.930728 302.532914 
L 321.426288 303.599923 
L 321.921847 303.504776 
L 322.417407 305.067911 
L 322.912966 305.149466 
L 323.408526 304.931987 
L 323.904085 304.23877 
L 324.399645 305.040726 
L 324.895204 304.537805 
L 325.390764 303.396036 
L 325.886323 303.205741 
L 326.381883 304.408676 
L 326.877442 304.429065 
L 327.373002 304.823247 
L 327.868561 304.476638 
L 328.364121 304.422269 
L 328.85968 304.028087 
L 329.35524 305.027134 
L 330.346359 305.516463 
L 330.841918 306.141717 
L 331.337478 306.039774 
L 331.833037 306.223272 
L 332.328597 305.856275 
L 332.824156 306.576677 
L 333.319716 306.923285 
L 334.310835 306.882508 
L 334.806394 307.426207 
L 335.301954 307.8 
L 335.797513 306.95047 
L 336.293073 306.481529 
L 338.275311 306.766971 
L 338.77087 307.161153 
L 339.26643 306.501918 
L 339.761989 306.522307 
L 340.257549 306.902896 
L 340.753108 306.386382 
L 341.248668 306.148514 
L 341.744227 306.712602 
L 342.239787 306.794156 
L 342.735346 306.427159 
L 343.230906 306.332012 
L 343.726465 306.488326 
L 344.717584 307.303874 
L 345.213144 307.290282 
L 346.204263 305.176651 
L 346.699822 304.81645 
L 347.195382 304.13003 
L 347.690941 303.905754 
L 348.186501 304.286344 
L 348.68206 302.825152 
L 349.673179 303.144575 
L 350.168739 303.008651 
L 350.664298 301.683384 
L 351.159858 299.311496 
L 351.655417 299.175571 
L 352.150977 299.821214 
L 352.646536 299.277515 
L 353.637655 297.449326 
L 354.133215 296.293965 
L 354.628774 295.668711 
L 355.124334 295.852209 
L 355.619893 297.136699 
L 356.115453 295.519194 
L 356.611012 294.955106 
L 357.106572 296.497852 
L 357.602131 297.000774 
L 358.097691 296.926015 
L 358.59325 295.99493 
L 359.08881 296.015319 
L 359.584369 296.164836 
L 360.079929 295.845413 
L 360.575488 296.130855 
L 361.071048 296.837664 
L 361.566607 297.91147 
L 362.062167 297.721175 
L 362.557726 298.142542 
L 363.548845 294.982291 
L 364.044405 295.125012 
L 364.539964 294.690052 
L 365.035524 294.771607 
L 365.531083 295.553175 
L 366.026643 295.342491 
L 366.522202 295.791043 
L 367.017762 296.722128 
L 367.513321 296.572611 
L 368.008881 297.313401 
L 368.50444 296.130855 
L 369 295.926968 
L 369.49556 296.232799 
L 369.991119 295.94056 
L 370.486679 296.667758 
L 370.982238 297.095921 
L 371.477798 296.348335 
L 371.973357 297.721175 
L 372.468917 297.795934 
L 372.964476 298.761 
L 373.460036 298.910518 
L 373.955595 301.785327 
L 374.451155 301.431923 
L 375.442274 302.193102 
L 375.937833 300.616374 
L 376.433393 301.295998 
L 376.928952 301.384349 
L 377.424512 300.575596 
L 377.920071 300.51443 
L 378.415631 301.887271 
L 378.91119 301.887271 
L 379.40675 301.397942 
L 379.902309 301.561051 
L 380.397869 302.451359 
L 380.893428 302.505729 
L 381.388988 301.533866 
L 381.884547 301.384349 
L 382.380107 301.642606 
L 382.875666 302.111547 
L 383.371226 302.138732 
L 384.362345 302.818356 
L 384.857904 302.872726 
L 385.353464 303.55235 
L 385.849023 303.232926 
L 386.344583 301.873678 
L 386.840142 302.247472 
L 387.335702 302.165917 
L 387.831261 302.675635 
L 388.326821 302.763986 
L 388.82238 302.566895 
L 389.31794 302.131935 
L 390.309059 300.562004 
L 391.300178 300.990167 
L 391.795737 300.813465 
L 392.291297 300.364913 
L 392.786856 300.663948 
L 393.282416 300.663948 
L 393.777975 299.25033 
L 394.273535 299.216348 
L 395.264654 299.984324 
L 395.760213 299.82801 
L 396.255773 301.017352 
L 396.751332 300.793076 
L 397.246892 300.935797 
L 398.238011 300.806669 
L 398.73357 300.228988 
L 399.22913 300.228988 
L 399.724689 300.059082 
L 400.220249 300.650355 
L 400.715808 300.290154 
L 401.211368 300.942593 
L 402.202487 299.923157 
L 402.698046 299.617327 
L 403.193606 299.549364 
L 403.689165 299.644512 
L 404.184725 299.189163 
L 404.680284 299.461013 
L 405.175844 299.535772 
L 405.671403 300.025101 
L 406.166963 300.813465 
L 406.662522 301.357164 
L 407.158082 301.52707 
L 407.653641 300.976575 
L 408.149201 301.200851 
L 408.64476 300.40569 
L 409.14032 300.670744 
L 409.635879 300.324136 
L 410.131439 299.834806 
L 410.626998 299.596938 
L 411.122558 297.945451 
L 411.618117 298.244486 
L 412.113677 298.407596 
L 413.104796 298.196912 
L 413.600355 298.625075 
L 414.095915 298.088172 
L 415.087034 298.4008 
L 415.582593 298.516336 
L 416.078153 297.259031 
L 417.069272 296.84446 
L 417.564831 296.246391 
L 418.060391 295.899783 
L 418.55595 294.601701 
L 419.05151 294.859958 
L 419.547069 295.383269 
L 420.042629 295.152197 
L 420.538188 295.165789 
L 421.033748 296.205614 
L 421.529307 296.198818 
L 422.024867 295.614341 
L 422.520426 295.682303 
L 423.015986 296.253188 
L 423.511545 295.804636 
L 424.007105 296.395909 
L 424.502664 297.367771 
L 424.998224 296.926015 
L 425.493783 297.558066 
L 425.989343 297.986229 
L 426.484902 297.829915 
L 426.980462 296.728924 
L 427.476021 296.552222 
L 427.971581 296.144448 
L 428.46714 296.769702 
L 428.9627 296.885238 
L 429.458259 296.837664 
L 430.449378 297.320197 
L 430.944938 296.783294 
L 431.440497 297.252235 
L 431.936057 297.231846 
L 432.431616 296.722128 
L 432.927176 295.954153 
L 433.422735 296.48426 
L 433.918295 296.477463 
L 434.413854 296.674554 
L 434.909414 296.083282 
L 435.404973 295.825024 
L 435.900533 295.396861 
L 436.396092 295.52599 
L 436.891652 295.30851 
L 437.387211 295.260936 
L 437.882771 296.192021 
L 438.37833 296.334742 
L 439.369449 295.648322 
L 439.865009 296.015319 
L 440.360568 295.74347 
L 440.856128 294.377425 
L 441.847247 294.825977 
L 442.342806 295.559971 
L 442.838366 295.926968 
L 443.333925 295.458027 
L 444.325044 295.627933 
L 444.820604 295.899783 
L 445.316163 295.811432 
L 445.811723 295.593952 
L 446.307282 295.559971 
L 446.802842 294.520146 
L 447.298401 294.112372 
L 447.793961 294.323055 
L 448.28952 293.71819 
L 448.78508 294.173538 
L 449.280639 294.153149 
L 449.776199 293.099732 
L 450.767318 291.862816 
L 451.758437 292.141462 
L 452.253996 292.719143 
L 452.749556 293.507506 
L 453.245115 292.460885 
L 453.740675 292.012334 
L 454.236234 291.733688 
L 454.731794 292.583218 
L 455.227353 291.822039 
L 455.722913 291.686114 
L 456.218472 290.931731 
L 456.714032 290.89775 
L 457.705151 289.932684 
L 458.20071 290.605512 
L 458.69627 289.219079 
L 459.191829 289.368596 
L 459.687389 288.648195 
L 460.182948 288.886063 
L 460.678508 288.886063 
L 461.174067 288.750138 
L 461.669627 288.729749 
L 462.165187 287.356909 
L 462.660746 287.825849 
L 463.156306 286.711266 
L 463.651865 288.328771 
L 464.147425 291.427857 
L 464.642984 289.042376 
L 465.634103 285.569498 
L 466.129663 285.807366 
L 466.625222 284.944243 
L 467.120782 285.372407 
L 467.616341 283.816068 
L 468.111901 284.305397 
L 468.60746 284.251027 
L 469.10302 282.334487 
L 469.598579 281.75001 
L 470.094139 282.973334 
L 471.085258 280.3228 
L 472.076377 278.399464 
L 472.571936 281.437383 
L 473.067496 281.17233 
L 473.563055 284.427729 
L 474.058615 282.776243 
L 474.554174 281.648067 
L 475.049734 281.824769 
L 475.545293 281.090775 
L 476.040853 281.471365 
L 476.536412 284.053936 
L 477.031972 282.368468 
L 478.023091 284.923855 
L 478.51865 285.161723 
L 479.01421 288.383141 
L 479.509769 288.124884 
L 480.005329 289.151116 
L 480.500888 288.98121 
L 480.996448 288.451104 
L 481.492007 290.707455 
L 481.987567 289.545298 
L 482.483126 287.703517 
L 482.978686 287.825849 
L 483.474245 288.40353 
L 483.969805 289.586076 
L 484.465364 289.538502 
L 484.960924 289.620057 
L 485.456483 288.192846 
L 485.952043 288.587028 
L 486.447602 286.969523 
L 486.943162 287.071467 
L 487.438721 286.187955 
L 487.934281 287.540407 
L 488.42984 288.02294 
L 488.9254 286.235529 
L 489.420959 286.412231 
L 489.916519 285.610275 
L 490.412078 285.243278 
L 490.907638 284.638413 
L 491.403197 285.168519 
L 491.898757 284.760745 
L 492.394316 285.093761 
L 492.889876 285.827755 
L 493.880995 284.550062 
L 494.376554 284.652005 
L 495.367673 282.429635 
L 495.863233 282.667503 
L 496.358792 282.273321 
L 496.854352 282.92576 
L 497.845471 281.940305 
L 498.34103 282.40245 
L 498.83659 282.103415 
L 499.332149 282.640318 
L 499.827709 281.872343 
L 500.323268 282.470412 
L 500.818828 282.769447 
L 501.314387 284.237434 
L 501.809947 283.965585 
L 502.305506 282.388857 
L 502.801066 283.353923 
L 503.296625 283.693735 
L 503.792185 283.14324 
L 504.287744 281.165534 
L 504.783304 281.491753 
L 505.278863 281.600493 
L 505.774423 281.396606 
L 506.269982 280.927665 
L 506.765542 281.253885 
L 507.756661 279.74512 
L 508.25222 279.548029 
L 508.74778 279.119865 
L 509.243339 278.89559 
L 509.738899 277.835376 
L 510.234458 277.862561 
L 510.730018 277.6111 
L 511.225577 275.884855 
L 511.721137 275.055714 
L 512.216696 273.975111 
L 512.712256 274.145017 
L 513.207815 274.552792 
L 513.703375 272.683826 
L 514.198934 273.152766 
L 514.694494 272.853732 
L 515.190053 271.922647 
L 516.676732 266.302156 
L 517.172291 263.549679 
L 517.667851 262.910832 
L 518.16341 259.567082 
L 518.65897 260.267095 
L 519.154529 261.592361 
L 519.650089 265.935159 
L 520.145648 265.676902 
L 522.127886 260.987496 
L 522.623446 265.989529 
L 523.119005 265.778846 
L 523.614565 264.922519 
L 524.110124 261.789452 
L 524.605684 262.339948 
L 525.596803 258.370943 
L 526.092362 259.601063 
L 526.587922 258.690367 
L 527.579041 262.034117 
L 528.0746 262.768111 
L 529.065719 265.459422 
L 529.561279 265.921567 
L 530.056838 264.521541 
L 530.552398 263.814732 
L 531.047957 263.807936 
L 531.543517 266.641968 
L 532.039076 267.09052 
L 533.030195 264.446782 
L 533.525755 263.794343 
L 534.021314 265.473015 
L 534.516874 264.079785 
L 535.012433 262.312763 
L 535.507993 263.237052 
L 536.003552 262.618594 
L 536.499112 262.217616 
L 536.994671 262.808888 
L 537.490231 263.155497 
L 537.98579 265.751661 
L 538.48135 265.39146 
L 538.976909 269.041041 
L 539.472469 269.944941 
L 539.968028 268.436176 
L 540.463588 267.369166 
L 540.959147 266.703134 
L 541.454707 267.77694 
L 541.950266 267.539072 
L 542.445826 266.444877 
L 542.941385 267.185667 
L 543.436945 267.314796 
L 543.932504 266.050695 
L 544.428064 267.736163 
L 544.923623 267.552664 
L 545.419183 267.892476 
L 545.914742 266.825467 
L 546.410302 266.390507 
L 547.401421 260.287483 
L 547.89698 260.226317 
L 548.39254 260.627295 
L 548.888099 261.266142 
L 549.383659 261.714694 
L 549.879218 262.645779 
L 550.374778 260.885552 
L 550.870337 262.020525 
L 551.365897 262.802092 
L 551.861456 265.092425 
L 552.357016 264.603096 
L 553.348135 262.7885 
L 553.843694 261.850619 
L 554.339254 262.904036 
L 554.834813 261.198179 
L 555.330373 260.18554 
L 555.825933 259.716599 
L 556.321492 258.602016 
L 556.817052 259.940875 
L 557.312611 257.337915 
L 557.808171 258.724348 
L 558.30373 261.476825 
L 558.79929 260.905941 
L 559.790409 260.736035 
L 560.285968 262.455484 
L 560.781528 263.63803 
L 561.277087 263.182682 
L 562.268206 261.524399 
L 562.763766 261.898192 
L 563.259325 263.74677 
L 563.754885 263.950657 
L 564.250444 263.672011 
L 564.746004 263.094331 
L 565.241563 261.123421 
L 565.737123 261.796249 
L 566.232682 260.946719 
L 566.728242 260.389427 
L 567.223801 260.729239 
L 567.719361 259.974856 
L 568.21492 261.286531 
L 568.71048 260.681665 
L 569.206039 261.286531 
L 569.701599 260.477778 
L 570.197158 259.138919 
L 570.692718 258.982605 
L 571.188277 258.248611 
L 571.683837 258.05152 
L 572.179396 254.823306 
L 572.674956 256.801012 
L 573.170515 255.876723 
L 573.666075 256.413626 
L 574.161634 255.706817 
L 574.657194 255.740798 
L 575.152753 256.828197 
L 575.648313 253.892221 
L 576.143872 251.846553 
L 576.639432 248.570765 
L 577.134991 248.16299 
L 577.630551 247.245498 
L 578.12611 245.716344 
L 578.62167 246.04936 
L 579.117229 247.809586 
L 579.612789 244.717296 
L 580.108348 245.933824 
L 580.603908 247.449385 
L 581.099467 247.395015 
L 581.595027 245.430902 
L 582.090586 247.544532 
L 582.586146 243.711453 
L 583.577265 239.056028 
L 584.072824 239.300693 
L 584.568384 242.386186 
L 585.063943 241.346361 
L 585.559503 244.995942 
L 586.055062 246.260043 
L 586.550622 245.19983 
L 587.046181 242.834738 
L 587.541741 242.610462 
L 588.0373 242.929885 
L 588.53286 242.997848 
L 589.028419 240.211389 
L 589.523979 238.60068 
L 590.019538 236.113256 
L 590.515098 239.2871 
L 591.010657 240.857032 
L 591.506217 245.519253 
L 592.001776 245.99499 
L 592.497336 249.55622 
L 592.992895 250.426138 
L 593.488455 252.308697 
L 593.984014 249.590201 
L 594.479574 250.480508 
L 594.975133 249.712533 
L 595.470693 254.578641 
L 595.966252 253.987368 
L 596.461812 258.364147 
L 596.957371 261.204976 
L 597.452931 259.417564 
L 597.94849 257.106843 
L 598.44405 256.481589 
L 598.939609 260.362242 
L 599.930728 258.663182 
L 600.426288 257.269953 
L 600.921847 259.906894 
L 601.417407 259.193289 
L 602.408526 261.184587 
L 602.904085 260.803998 
L 603.399645 257.983558 
L 603.895204 258.37774 
L 604.390764 257.120435 
L 604.886323 257.392285 
L 605.381883 255.66604 
L 605.877442 254.578641 
L 606.373002 255.183507 
L 606.868561 256.08061 
L 607.364121 255.543707 
L 607.85968 256.991307 
L 608.35524 258.873865 
L 608.850799 258.010743 
L 609.346359 255.876723 
L 610.337478 256.685476 
L 610.833037 252.920359 
L 611.328597 253.137838 
L 612.319716 251.731017 
L 612.815275 249.488257 
L 613.310835 250.269825 
L 613.806394 249.658163 
L 614.301954 247.408608 
L 614.797513 247.25909 
L 615.293073 245.695955 
L 615.788632 248.196972 
L 616.284192 251.588296 
L 616.779751 251.098966 
L 617.275311 251.282465 
L 617.77087 250.147493 
L 618.26643 250.664007 
L 619.257549 244.975554 
L 619.753108 245.763918 
L 620.248668 244.798851 
L 620.744227 244.153209 
L 621.239787 245.09109 
L 621.735346 244.323115 
L 622.230906 241.502675 
L 622.726465 242.481333 
L 623.717584 241.108493 
L 624.213144 238.362812 
L 624.708703 238.770586 
L 625.699822 242.059966 
L 626.195382 240.721107 
L 627.186501 242.087151 
L 627.68206 242.209484 
L 628.17762 239.497784 
L 628.673179 238.804567 
L 629.168739 239.790022 
L 629.664298 244.248356 
L 630.655417 240.333721 
L 631.150977 239.355063 
L 631.646536 238.974473 
L 632.142096 237.764743 
L 632.637655 239.049232 
L 633.628774 234.400604 
L 634.124334 234.441381 
L 634.619893 231.967549 
L 635.115453 232.463675 
L 635.611012 236.099664 
L 636.106572 235.549168 
L 636.602131 237.547263 
L 637.097691 233.571462 
L 637.59325 232.694747 
L 638.08881 233.469519 
L 638.584369 229.738383 
L 639.575488 231.31511 
L 640.071048 229.677216 
L 640.566607 233.238446 
L 641.557726 232.123863 
L 642.053286 228.698558 
L 642.548845 229.276238 
L 643.044405 231.784051 
L 643.539964 235.073431 
L 644.035524 239.606524 
L 644.531083 237.737558 
L 645.026643 232.015123 
L 645.522202 232.735525 
L 646.017762 231.485016 
L 646.513321 232.300565 
L 647.008881 229.283034 
L 647.50444 230.166546 
L 648 231.335499 
L 648 231.335499 
" style="fill:none;stroke:#ff7f0e;stroke-linecap:square;stroke-width:1.5;"/>
   </g>
   <g id="patch_3">
    <path d="M 90 320.4 
L 90 43.2 
" style="fill:none;stroke:#000000;stroke-linecap:square;stroke-linejoin:miter;stroke-width:0.8;"/>
   </g>
   <g id="patch_4">
    <path d="M 648 320.4 
L 648 43.2 
" style="fill:none;stroke:#000000;stroke-linecap:square;stroke-linejoin:miter;stroke-width:0.8;"/>
   </g>
   <g id="patch_5">
    <path d="M 90 320.4 
L 648 320.4 
" style="fill:none;stroke:#000000;stroke-linecap:square;stroke-linejoin:miter;stroke-width:0.8;"/>
   </g>
   <g id="patch_6">
    <path d="M 90 43.2 
L 648 43.2 
" style="fill:none;stroke:#000000;stroke-linecap:square;stroke-linejoin:miter;stroke-width:0.8;"/>
   </g>
   <g id="text_11">
    <!--  -->
    <defs>
     <path d="M 98.734375 10.890625 
Q 95.515625 6.890625 93.453125 3.859375 
Q 84.46875 8.109375 76.953125 14.015625 
L 76.953125 8.640625 
L 53.609375 8.640625 
L 53.609375 -1.515625 
L 91.796875 -1.515625 
L 91.796875 -7.859375 
L 8.109375 -7.859375 
L 8.109375 -1.515625 
L 46.296875 -1.515625 
L 46.296875 8.640625 
L 22.65625 8.640625 
L 22.65625 13.96875 
Q 14.890625 7.46875 6.453125 2.6875 
Q 4.59375 5.328125 1.375 8.84375 
Q 16.40625 16.15625 27.390625 27.390625 
L 2.4375 27.390625 
L 2.4375 33.734375 
L 21.875 33.734375 
L 21.875 66.453125 
L 5.46875 66.453125 
L 5.46875 72.796875 
L 21.875 72.796875 
L 21.875 83.34375 
L 29.203125 83.34375 
L 29.203125 72.796875 
L 71.09375 72.796875 
L 71.09375 83.34375 
L 78.421875 83.34375 
L 78.421875 72.796875 
L 94.828125 72.796875 
L 94.828125 66.453125 
L 78.421875 66.453125 
L 78.421875 33.734375 
L 97.5625 33.734375 
L 97.5625 27.390625 
L 71.875 27.390625 
Q 82.859375 16.453125 98.734375 10.890625 
z
M 46.296875 24.265625 
L 53.609375 24.265625 
L 53.609375 14.796875 
L 75.984375 14.796875 
Q 69 20.40625 63.234375 27.390625 
L 36.328125 27.390625 
Q 30.21875 20.453125 23.640625 14.796875 
L 46.296875 14.796875 
z
M 29.203125 33.734375 
L 71.09375 33.734375 
L 71.09375 40.671875 
L 29.203125 40.671875 
z
M 29.203125 46.734375 
L 71.09375 46.734375 
L 71.09375 53.5625 
L 29.203125 53.5625 
z
M 29.203125 59.625 
L 71.09375 59.625 
L 71.09375 66.453125 
L 29.203125 66.453125 
z
" id="MicrosoftYaHei-57fa"/>
     <path d="M 4.6875 -2.203125 
L 46.09375 -2.203125 
L 46.09375 21.625 
L 11.140625 21.625 
L 11.140625 28.765625 
L 46.09375 28.765625 
L 46.09375 42.4375 
L 20.703125 42.4375 
L 20.703125 49.265625 
Q 13.765625 44.875 5.671875 40.484375 
Q 3.609375 44.1875 0.78125 47.796875 
Q 33.296875 63.03125 46.78125 82.765625 
L 57.421875 82.765625 
L 55.171875 80.03125 
Q 70.703125 60.203125 99.125 49.171875 
Q 96.484375 45.453125 93.953125 41.359375 
Q 86.328125 44.578125 79.203125 49.078125 
L 79.203125 42.4375 
L 53.90625 42.4375 
L 53.90625 28.765625 
L 88.671875 28.765625 
L 88.671875 21.625 
L 53.90625 21.625 
L 53.90625 -2.203125 
L 95.515625 -2.203125 
L 95.515625 -9.421875 
L 4.6875 -9.421875 
z
M 50.09375 74.46875 
Q 40.046875 61.765625 21.09375 49.5625 
L 78.421875 49.5625 
Q 63.1875 59.234375 50.09375 74.46875 
z
M 63.96875 4.4375 
Q 71.875 12.640625 77.34375 20.453125 
L 84.1875 16.0625 
Q 77.34375 7.5625 69.828125 -0.25 
z
M 15.625 15.671875 
L 21.390625 20.265625 
Q 28.515625 13.03125 35.359375 5.21875 
L 28.71875 -0.046875 
Q 22.859375 7.671875 15.625 15.671875 
z
" id="MicrosoftYaHei-91d1"/>
     <path d="M 71.09375 31.109375 
Q 84.765625 19.96875 92.875 12.0625 
L 87.5 6.59375 
Q 83.6875 10.546875 79.640625 14.40625 
Q 67.71875 13.921875 55.5625 13.375 
L 55.5625 0.34375 
Q 55.5625 -11.765625 43.359375 -11.765625 
Q 37.109375 -11.765625 29.390625 -11.671875 
Q 28.8125 -7.765625 27.9375 -3.5625 
Q 35.453125 -4.25 41.40625 -4.25 
Q 47.953125 -4.25 47.953125 2.875 
L 47.953125 13.03125 
Q 34.859375 12.40625 21.484375 11.765625 
Q 17.1875 11.578125 13.1875 10.984375 
L 10.546875 18.40625 
Q 16.5 19.09375 23.921875 21.921875 
Q 33.9375 25.78125 45.5625 31 
Q 33.40625 30.609375 23.921875 30.03125 
Q 19.234375 29.734375 16.890625 29.4375 
L 14.359375 35.890625 
Q 19.234375 36.859375 24.21875 39.109375 
Q 30.765625 42.046875 37.15625 45.453125 
L 18.84375 45.453125 
L 18.84375 42.625 
L 11.421875 42.625 
L 11.421875 79.734375 
L 88.671875 79.734375 
L 88.671875 42.625 
L 81.25 42.625 
L 81.25 45.453125 
L 48.828125 45.453125 
Q 38.03125 39.984375 27.546875 35.5 
Q 40.328125 35.84375 57.328125 36.46875 
Q 64.0625 39.65625 71.296875 43.3125 
L 76.375 38.03125 
Q 53.03125 27 28.515625 17.921875 
Q 53.171875 19 73.1875 20.265625 
Q 69.625 23.4375 65.921875 26.515625 
z
M 53.609375 51.125 
L 81.25 51.125 
L 81.25 60.015625 
L 53.609375 60.015625 
z
M 18.84375 51.125 
L 46.390625 51.125 
L 46.390625 60.015625 
L 18.84375 60.015625 
z
M 81.25 74.078125 
L 53.609375 74.078125 
L 53.609375 65.28125 
L 81.25 65.28125 
z
M 18.84375 65.28125 
L 46.390625 65.28125 
L 46.390625 74.078125 
L 18.84375 74.078125 
z
M 29.59375 8.9375 
L 33.984375 2.875 
Q 19.734375 -4.25 5.953125 -9.625 
Q 4.5 -6.59375 2.546875 -3.078125 
Q 17.09375 2.59375 29.59375 8.9375 
z
M 69.234375 8.546875 
Q 83.796875 3.65625 97.171875 -2.296875 
L 94.140625 -8.9375 
Q 81.0625 -2.984375 65.921875 2.09375 
z
" id="MicrosoftYaHei-7d2f"/>
     <path d="M 43.953125 74.75 
L 93.359375 74.75 
L 93.359375 23.875 
L 85.9375 23.875 
L 85.9375 28.5625 
L 51.375 28.5625 
L 51.375 23.875 
L 43.953125 23.875 
z
M 1.375 13.328125 
Q 10.453125 27 16.5 46.046875 
L 1.859375 46.046875 
L 1.859375 52.875 
L 17.484375 52.875 
L 17.484375 68.40625 
Q 11.140625 67.921875 3.8125 67.4375 
Q 3.328125 70.953125 2.34375 74.5625 
Q 22.265625 75.640625 37.109375 77.78125 
L 38.875 70.359375 
Q 32.90625 69.671875 24.703125 69 
L 24.703125 52.875 
L 39.265625 52.875 
L 39.265625 46.046875 
L 24.703125 46.046875 
L 24.703125 32.28125 
L 28.609375 35.890625 
Q 34.578125 30.03125 41.3125 22.515625 
L 35.75 17.625 
Q 30.46875 24.078125 24.703125 30.21875 
L 24.703125 -13.328125 
L 17.484375 -13.328125 
L 17.484375 30.125 
Q 12.203125 15.578125 4.78125 4.9375 
Q 3.21875 9.234375 1.375 13.328125 
z
M 85.9375 68.109375 
L 51.375 68.109375 
L 51.375 35.203125 
L 85.9375 35.203125 
z
M 54.296875 17.625 
L 60.75 13.03125 
Q 49.609375 -1.03125 39.359375 -11.859375 
Q 37.015625 -9.328125 33.796875 -6.5 
Q 45.703125 5.515625 54.296875 17.625 
z
M 74.609375 12.9375 
L 80.671875 17.140625 
Q 89.65625 6.890625 99.3125 -5.8125 
L 92.484375 -10.984375 
Q 83.890625 1.703125 74.609375 12.9375 
z
" id="MicrosoftYaHei-79ef"/>
     <path d="M 31.453125 19.96875 
L 55.859375 19.96875 
L 55.859375 30.421875 
L 26.65625 30.421875 
L 26.65625 37.453125 
L 55.859375 37.453125 
L 55.859375 47.796875 
L 33.203125 47.796875 
L 33.203125 51.515625 
Q 31.390625 49.65625 29.59375 47.90625 
Q 27.9375 49.65625 24.3125 53.375 
Q 36.71875 65.09375 47.65625 83.640625 
L 55.078125 81.6875 
Q 53.125 78.125 51.03125 74.75 
L 80.375 74.75 
L 80.375 68.21875 
L 69.046875 54.640625 
L 89.0625 54.640625 
L 89.0625 37.453125 
L 97.953125 37.453125 
L 97.953125 30.421875 
L 89.0625 30.421875 
L 89.0625 9.125 
L 81.640625 9.125 
L 81.640625 13.140625 
L 63.484375 13.140625 
L 63.484375 0.046875 
Q 63.484375 -11.96875 51.171875 -12.0625 
Q 44.734375 -12.0625 38.875 -12.0625 
Q 38.1875 -7.859375 37.3125 -3.953125 
Q 43.453125 -4.640625 49.421875 -4.640625 
Q 55.859375 -4.640625 55.859375 1.8125 
L 55.859375 13.140625 
L 31.453125 13.140625 
z
M 70.90625 68.015625 
L 46.625 68.015625 
Q 41.703125 60.890625 36.078125 54.640625 
L 60.109375 54.640625 
z
M 14.453125 36.46875 
Q 17.96875 34.71875 21.78125 33.15625 
Q 16.609375 15.484375 11.140625 -3.765625 
L 3.21875 -0.734375 
Q 9.96875 18.109375 14.453125 36.46875 
z
M 63.484375 19.96875 
L 81.640625 19.96875 
L 81.640625 30.421875 
L 63.484375 30.421875 
z
M 10.359375 76.421875 
Q 16.609375 65.671875 21.96875 54.828125 
Q 17.96875 52.6875 14.65625 51.125 
Q 9.671875 62.359375 4 73.09375 
z
M 81.640625 47.796875 
L 63.484375 47.796875 
L 63.484375 37.453125 
L 81.640625 37.453125 
z
" id="MicrosoftYaHei-51c0"/>
     <path d="M 25.296875 -3.375 
L 35.15625 -3.375 
L 35.15625 57.078125 
L 58.203125 57.078125 
L 58.203125 65.96875 
L 29.890625 65.96875 
L 29.890625 72.609375 
L 58.203125 72.609375 
L 58.203125 82.953125 
L 65.625 82.953125 
L 65.625 72.609375 
L 96.390625 72.609375 
L 96.390625 65.96875 
L 65.625 65.96875 
L 65.625 57.078125 
L 89.265625 57.078125 
L 89.265625 -3.375 
L 98.53125 -3.375 
L 98.53125 -10.015625 
L 25.296875 -10.015625 
z
M 1.078125 35.109375 
Q 14.15625 54.640625 21.390625 82.46875 
L 28.609375 80.328125 
Q 24.703125 67.71875 20.125 56.6875 
L 20.125 -12.75 
L 12.984375 -12.75 
L 12.984375 41.65625 
Q 8.796875 33.84375 4.109375 27.09375 
Q 2.734375 31.203125 1.078125 35.109375 
z
M 42.390625 -3.375 
L 82.03125 -3.375 
L 82.03125 5.515625 
L 42.390625 5.515625 
z
M 82.03125 50.640625 
L 42.390625 50.640625 
L 42.390625 41.84375 
L 82.03125 41.84375 
z
M 42.390625 26.8125 
L 82.03125 26.8125 
L 82.03125 35.59375 
L 42.390625 35.59375 
z
M 42.390625 11.765625 
L 82.03125 11.765625 
L 82.03125 20.5625 
L 42.390625 20.5625 
z
" id="MicrosoftYaHei-503c"/>
    </defs>
    <g transform="translate(333 37.2)scale(0.12 -0.12)">
     <use xlink:href="#MicrosoftYaHei-57fa"/>
     <use x="100" xlink:href="#MicrosoftYaHei-91d1"/>
     <use x="200" xlink:href="#MicrosoftYaHei-7d2f"/>
     <use x="300" xlink:href="#MicrosoftYaHei-79ef"/>
     <use x="400" xlink:href="#MicrosoftYaHei-51c0"/>
     <use x="500" xlink:href="#MicrosoftYaHei-503c"/>
    </g>
   </g>
   <g id="legend_1">
    <g id="patch_7">
     <path d="M 97 82.159375 
L 216.035937 82.159375 
Q 218.035937 82.159375 218.035937 80.159375 
L 218.035937 50.2 
Q 218.035937 48.2 216.035937 48.2 
L 97 48.2 
Q 95 48.2 95 50.2 
L 95 80.159375 
Q 95 82.159375 97 82.159375 
z
" style="fill:#ffffff;opacity:0.8;stroke:#cccccc;stroke-linejoin:miter;"/>
    </g>
    <g id="line2d_23">
     <path d="M 99 56.69375 
L 119 56.69375 
" style="fill:none;stroke:#1f77b4;stroke-linecap:square;stroke-width:1.5;"/>
    </g>
    <g id="line2d_24"/>
    <g id="text_12">
     <!-- A -->
     <defs>
      <path d="M 8.203125 62.0625 
L 45.796875 62.0625 
L 45.796875 83.34375 
L 54.203125 83.34375 
L 54.203125 62.0625 
L 92.1875 62.0625 
L 92.1875 17.53125 
L 84.1875 17.53125 
L 84.1875 22.796875 
L 54.203125 22.796875 
L 54.203125 -13.53125 
L 45.796875 -13.53125 
L 45.796875 22.796875 
L 16.21875 22.796875 
L 16.21875 17.53125 
L 8.203125 17.53125 
z
M 84.1875 54.828125 
L 54.203125 54.828125 
L 54.203125 30.03125 
L 84.1875 30.03125 
z
M 16.21875 30.03125 
L 45.796875 30.03125 
L 45.796875 54.828125 
L 16.21875 54.828125 
z
" id="MicrosoftYaHei-4e2d"/>
      <path d="M 6.25 74.859375 
L 47.46875 74.859375 
L 47.46875 67.625 
L 13.484375 67.625 
L 13.484375 4.9375 
L 45.703125 4.9375 
L 45.703125 -2.296875 
L 6.25 -2.296875 
z
M 67.28125 57.5625 
L 74.609375 57.5625 
Q 74.65625 50.78125 74.421875 45.171875 
Q 78.078125 6.109375 98.734375 -5.90625 
Q 95.609375 -9.328125 92.671875 -12.640625 
Q 76.375 -0.734375 71.390625 25.828125 
Q 66.359375 1.3125 46.390625 -13.140625 
Q 43.359375 -9.328125 41.015625 -6.78125 
Q 63.875 8.640625 66.796875 37.0625 
Q 67.28125 42.71875 67.28125 57.5625 
z
M 82.90625 42.328125 
Q 86.921875 54.828125 89.15625 62.359375 
L 61.71875 62.359375 
Q 57.8125 50.046875 53.125 39.796875 
Q 50 41.453125 46.578125 42.828125 
Q 55.28125 61.1875 59.578125 83.0625 
L 67 81.59375 
Q 65.53125 75.390625 63.875 69.578125 
L 96.78125 69.578125 
L 96.78125 61.96875 
Q 93.5625 51.703125 90.046875 40.1875 
Q 86.234375 41.546875 82.90625 42.328125 
z
M 17.1875 56.296875 
L 23.046875 59.515625 
Q 28.078125 51.46875 32.46875 44.390625 
Q 36.859375 53.609375 40.71875 62.9375 
L 47.5625 59.8125 
Q 42.140625 47.65625 36.921875 37.25 
Q 44.625 24.8125 50.203125 15.765625 
L 43.65625 11.859375 
Q 38.8125 20.21875 33.109375 29.78125 
Q 27.640625 19.4375 22.46875 11.078125 
Q 19.4375 13.03125 16.5 14.5 
Q 23.09375 25.6875 28.8125 36.96875 
Q 23.390625 46.140625 17.1875 56.296875 
z
" id="MicrosoftYaHei-6b27"/>
      <path d="M 9.078125 77.984375 
L 96 77.984375 
L 96 70.5625 
L 17.09375 70.5625 
L 17.09375 -1.609375 
L 97.078125 -1.609375 
L 97.078125 -9.03125 
L 9.078125 -9.03125 
z
M 22.359375 35.984375 
L 53.21875 35.984375 
Q 54.78125 42.625 54.890625 51.421875 
L 38.765625 51.421875 
Q 34.28125 43.703125 29.203125 37.546875 
Q 26.375 39.984375 22.859375 42.625 
Q 33.203125 54.046875 39.359375 69.578125 
L 46.6875 66.9375 
Q 44.734375 62.453125 42.578125 58.453125 
L 90.328125 58.453125 
L 90.328125 51.421875 
L 62.703125 51.421875 
Q 62.59375 42.828125 61.328125 35.984375 
L 94.828125 35.984375 
L 94.828125 28.953125 
L 59.671875 28.953125 
Q 59.078125 27 58.5 25.34375 
Q 74.515625 17.828125 92.28125 7.5625 
L 87.5 0.140625 
Q 72.953125 9.421875 55.28125 19.28125 
Q 46.96875 6.890625 26.5625 -0.828125 
Q 24.3125 2.390625 21.296875 5.8125 
Q 46.484375 15.28125 51.078125 28.953125 
L 22.359375 28.953125 
z
" id="MicrosoftYaHei-533b"/>
      <path d="M 50.6875 80.125 
L 57.71875 83.546875 
Q 61.234375 77.484375 64.15625 71.625 
L 98.4375 71.625 
L 98.4375 64.59375 
L 24.90625 64.59375 
L 24.90625 37.25 
Q 24.90625 2.203125 11.71875 -13.921875 
Q 8.890625 -10.203125 5.859375 -7.28125 
Q 15.234375 5.125 17.09375 26.125 
Q 8.203125 20.65625 3.328125 17.625 
L 1.46875 25.828125 
Q 9.375 29.640625 17.578125 34.234375 
L 17.578125 71.625 
L 55.46875 71.625 
Q 52.9375 76.609375 50.6875 80.125 
z
M 58.796875 32.375 
L 79.109375 45.953125 
L 31.0625 45.953125 
L 31.0625 52.875 
L 91.21875 52.875 
L 91.21875 45.84375 
L 66.40625 28.65625 
L 66.40625 0.4375 
Q 66.40625 -11.1875 55.171875 -11.1875 
Q 51.265625 -11.1875 38.875 -10.984375 
Q 38.578125 -6.78125 37.703125 -2.6875 
Q 47.359375 -3.65625 53.125 -3.65625 
Q 58.796875 -3.65625 58.796875 2.09375 
z
M 1.859375 59.03125 
L 8.015625 61.375 
Q 11.53125 53.5625 15.234375 42.71875 
L 8.40625 40.1875 
Q 5.375 50.4375 1.859375 59.03125 
z
" id="MicrosoftYaHei-7597"/>
      <path d="M 47.953125 15.578125 
L 65.53125 15.578125 
L 65.53125 24.171875 
L 50.203125 24.171875 
L 50.203125 29.640625 
L 65.53125 29.640625 
L 65.53125 38.234375 
L 51.5625 38.234375 
L 51.5625 43.703125 
L 65.53125 43.703125 
L 65.53125 52.203125 
L 46.6875 52.203125 
L 46.6875 57.859375 
L 65.53125 57.859375 
L 65.53125 66.359375 
L 51.765625 66.359375 
L 51.765625 71.828125 
L 65.53125 71.828125 
L 65.53125 81.984375 
L 72.171875 81.984375 
L 72.171875 71.828125 
L 89.75 71.828125 
L 89.75 57.859375 
L 97.859375 57.859375 
L 97.859375 52.203125 
L 89.75 52.203125 
L 89.75 35.890625 
L 83.203125 35.890625 
L 83.203125 38.234375 
L 72.171875 38.234375 
L 72.171875 29.640625 
L 91.40625 29.640625 
L 91.40625 24.171875 
L 72.171875 24.171875 
L 72.171875 15.578125 
L 92.875 15.578125 
L 92.875 10.109375 
L 72.171875 10.109375 
L 72.171875 -0.046875 
L 65.53125 -0.046875 
L 65.53125 10.109375 
L 47.953125 10.109375 
z
M 28.90625 30.609375 
Q 31.15625 20.265625 35.640625 13.140625 
Q 39.9375 23.96875 40.140625 37.0625 
L 25.59375 37.0625 
L 25.59375 43.5 
L 39.0625 65.96875 
L 26.171875 65.96875 
L 26.171875 72.21875 
L 46.875 72.21875 
L 46.875 65.875 
L 33.296875 43.3125 
L 46.875 43.3125 
L 46.875 36.578125 
Q 46.484375 20.265625 40.53125 6.984375 
Q 50.984375 -3.375 69.234375 -2.78125 
Q 83.40625 -2.984375 98.734375 -2.203125 
Q 97.265625 -5.90625 95.703125 -10.015625 
Q 82.234375 -10.015625 68.453125 -9.8125 
Q 48.828125 -10.109375 37.203125 0.53125 
Q 32.8125 -6.984375 26.375 -13.53125 
Q 23.640625 -10.296875 21.1875 -8.15625 
Q 27.9375 -1.609375 32.328125 6.109375 
Q 25.984375 14.796875 23.140625 28.171875 
z
M 0.875 35.296875 
Q 13.578125 56.296875 19.140625 82.671875 
L 25.875 81 
Q 23.25 69 19.140625 57.953125 
L 19.140625 -12.75 
L 12.703125 -12.75 
L 12.703125 43.015625 
Q 8.6875 35.015625 3.90625 27.59375 
Q 2.640625 31.78125 0.875 35.296875 
z
M 83.203125 43.703125 
L 83.203125 52.203125 
L 72.171875 52.203125 
L 72.171875 43.703125 
z
M 83.203125 66.359375 
L 72.171875 66.359375 
L 72.171875 57.859375 
L 83.203125 57.859375 
z
" id="MicrosoftYaHei-5065"/>
      <path d="M 48.4375 79.9375 
L 55.171875 83.546875 
Q 58.109375 78.859375 61.421875 73 
L 96.78125 73 
L 96.78125 66.546875 
L 18.953125 66.546875 
L 18.953125 44.78125 
L 51.859375 44.78125 
L 51.859375 52.09375 
L 25.09375 52.09375 
L 25.09375 57.953125 
L 51.859375 57.953125 
L 51.859375 64.40625 
L 58.890625 64.40625 
L 58.890625 57.953125 
L 87.015625 57.953125 
L 87.015625 44.78125 
L 98.046875 44.78125 
L 98.046875 38.8125 
L 87.015625 38.8125 
L 87.015625 23.484375 
L 80.375 23.484375 
L 80.375 25.53125 
L 58.890625 25.53125 
L 58.890625 23.390625 
Q 63.671875 17.53125 69.140625 12.75 
Q 79.109375 17.921875 86.921875 22.90625 
L 91.5 17.140625 
Q 83.6875 12.9375 74.421875 8.546875 
Q 84.671875 0.828125 97.078125 -3.171875 
Q 94.140625 -7.078125 92.1875 -10.015625 
Q 70.609375 -0.53125 58.890625 13.921875 
L 58.890625 -2.09375 
Q 58.890625 -12.453125 48.140625 -12.453125 
Q 43.65625 -12.453125 36.328125 -12.25 
Q 35.9375 -8.25 35.15625 -4.546875 
Q 43.0625 -5.21875 46.96875 -5.21875 
Q 51.65625 -5.21875 51.859375 -0.34375 
L 51.859375 5.515625 
Q 36.71875 0.4375 19.140625 -5.515625 
L 17.28125 1.421875 
Q 37.40625 7.28125 51.859375 12.25 
L 51.859375 25.53125 
L 24.515625 25.53125 
L 24.515625 31.390625 
L 51.859375 31.390625 
L 51.859375 38.8125 
L 18.953125 38.8125 
L 18.953125 36.375 
Q 18.953125 5.125 6.734375 -13.328125 
Q 4.296875 -10.015625 1.375 -6.6875 
Q 11.53125 9.421875 11.53125 35.984375 
L 11.53125 73 
L 52.640625 73 
Q 50.6875 76.21875 48.4375 79.9375 
z
M 80.375 31.390625 
L 80.375 38.8125 
L 58.890625 38.8125 
L 58.890625 31.390625 
z
M 80.375 52.09375 
L 58.890625 52.09375 
L 58.890625 44.78125 
L 80.375 44.78125 
z
M 23.921875 18.3125 
L 27.828125 23.09375 
Q 35.546875 18.703125 41.40625 14.40625 
L 36.921875 8.9375 
Q 31.0625 13.8125 23.921875 18.3125 
z
" id="MicrosoftYaHei-5eb7"/>
      <path d="M 38.28125 35.984375 
L 30.859375 35.984375 
L 30.859375 78.171875 
L 89.84375 78.171875 
L 89.84375 35.40625 
L 82.421875 35.40625 
L 82.421875 39.40625 
L 38.28125 39.40625 
z
M 62.3125 34.234375 
L 69.53125 34.234375 
L 69.53125 18.359375 
Q 81.984375 25.046875 91.40625 31.59375 
L 96.09375 25.140625 
Q 86.1875 19.09375 69.53125 10.5 
L 69.53125 3.171875 
Q 69.53125 -3.078125 75 -3.078125 
L 82.125 -3.078125 
Q 86.921875 -3.078125 87.890625 0.140625 
Q 89.359375 5.125 90.53125 14.109375 
Q 94.046875 12.546875 97.859375 11.375 
Q 95.90625 0.921875 94.828125 -2.78125 
Q 92.875 -10.5 83.015625 -10.5 
L 74.03125 -10.5 
Q 62.3125 -10.5 62.3125 1.703125 
z
M 58.40625 6.109375 
Q 58.296875 1.90625 58.40625 -1.3125 
Q 47.65625 -5.609375 40.625 -8.640625 
Q 36.421875 -10.5 33.59375 -12.453125 
L 29.203125 -6.109375 
Q 31.640625 -4.828125 31.640625 0.53125 
L 31.640625 33.453125 
L 38.875 33.453125 
L 38.875 23.875 
L 59.1875 23.875 
L 59.1875 17.046875 
L 38.875 17.046875 
L 38.875 -1.515625 
Q 48.4375 2.09375 58.40625 6.109375 
z
M 82.421875 71.4375 
L 38.28125 71.4375 
L 38.28125 62.15625 
L 82.421875 62.15625 
z
M 38.28125 46.140625 
L 82.421875 46.140625 
L 82.421875 55.421875 
L 38.28125 55.421875 
z
M 15.328125 28.953125 
Q 19.4375 27.09375 23.34375 25.53125 
Q 18.75 9.625 11.921875 -11.96875 
L 3.609375 -8.84375 
Q 10.453125 9.421875 15.328125 28.953125 
z
M 6.34375 56.984375 
Q 16.109375 51.03125 23.921875 45.0625 
Q 22.46875 43.609375 18.65625 38.625 
Q 11.71875 44.484375 1.5625 51.421875 
z
M 10.15625 81.390625 
Q 22.171875 73.1875 27.546875 69 
Q 24.515625 65.484375 22.265625 62.84375 
Q 13.765625 70.0625 5.5625 76.03125 
z
" id="MicrosoftYaHei-6df7"/>
      <path d="M 16.015625 29.828125 
L 84.078125 29.828125 
L 84.078125 -13.53125 
L 76.265625 -13.53125 
L 76.265625 -6.984375 
L 23.828125 -6.984375 
L 23.828125 -13.71875 
L 16.015625 -13.71875 
z
M 57.8125 81.78125 
L 55.46875 78.953125 
Q 71.78125 57.765625 98.734375 47.015625 
Q 95.703125 42.71875 93.5625 39.203125 
Q 85.640625 43.015625 78.515625 47.796875 
L 78.515625 42.234375 
L 21.390625 42.234375 
L 21.390625 47.125 
Q 14.265625 42.4375 6.15625 37.9375 
Q 4.203125 41.265625 1.265625 45.265625 
Q 31.453125 60.40625 46.875 81.78125 
z
M 76.265625 22.703125 
L 23.828125 22.703125 
L 23.828125 -0.046875 
L 76.265625 -0.046875 
z
M 50.296875 73.296875 
Q 40.328125 60.5 24.21875 49.171875 
L 76.46875 49.171875 
Q 61.625 59.328125 50.296875 73.296875 
z
" id="MicrosoftYaHei-5408"/>
      <path d="M 69.1875 0 
L 58.40625 0 
L 50.6875 20.703125 
L 19.1875 20.703125 
L 11.921875 0 
L 1.125 0 
L 29.9375 75.640625 
L 40.375 75.640625 
z
M 47.65625 29.25 
L 36.234375 60.6875 
Q 35.6875 62.203125 35.0625 65.96875 
L 34.8125 65.96875 
Q 34.28125 62.546875 33.59375 60.6875 
L 22.265625 29.25 
z
" id="MicrosoftYaHei-41"/>
     </defs>
     <g transform="translate(127 60.19375)scale(0.1 -0.1)">
      <use xlink:href="#MicrosoftYaHei-4e2d"/>
      <use x="100" xlink:href="#MicrosoftYaHei-6b27"/>
      <use x="200" xlink:href="#MicrosoftYaHei-533b"/>
      <use x="300" xlink:href="#MicrosoftYaHei-7597"/>
      <use x="400" xlink:href="#MicrosoftYaHei-5065"/>
      <use x="500" xlink:href="#MicrosoftYaHei-5eb7"/>
      <use x="600" xlink:href="#MicrosoftYaHei-6df7"/>
      <use x="700" xlink:href="#MicrosoftYaHei-5408"/>
      <use x="800" xlink:href="#MicrosoftYaHei-41"/>
     </g>
    </g>
    <g id="line2d_25">
     <path d="M 99 72.173437 
L 119 72.173437 
" style="fill:none;stroke:#ff7f0e;stroke-linecap:square;stroke-width:1.5;"/>
    </g>
    <g id="line2d_26"/>
    <g id="text_13">
     <!-- 50ETF -->
     <defs>
      <path d="M 30.46875 49.265625 
Q 43.0625 52.59375 54 57.234375 
L 54 81.78125 
L 61.625 81.78125 
L 61.625 60.6875 
Q 75.921875 67.78125 87.015625 77.296875 
L 92.1875 71.4375 
Q 79.109375 61.28125 61.625 52.875 
L 61.625 44.875 
Q 61.625 38.328125 69.734375 38.328125 
L 80.078125 38.328125 
Q 87.5 38.328125 88.578125 44.671875 
Q 89.65625 50.140625 89.9375 56 
Q 94.734375 53.953125 97.5625 53.078125 
Q 96.6875 46.734375 95.703125 42.140625 
Q 93.84375 31.390625 81.734375 31.390625 
L 67 31.390625 
Q 54 31.390625 54 43.5 
L 54 49.421875 
Q 44.921875 45.453125 34.765625 41.9375 
Q 33.015625 45.5625 30.46875 49.265625 
z
M 2.828125 18.40625 
L 46 18.40625 
L 46 31.390625 
L 53.8125 31.390625 
L 53.8125 18.40625 
L 97.078125 18.40625 
L 97.078125 11.375 
L 53.8125 11.375 
L 53.8125 -13.53125 
L 46 -13.53125 
L 46 11.375 
L 2.828125 11.375 
z
M 2.15625 53.65625 
Q 19.53125 65.765625 29.78125 83.546875 
L 36.71875 80.03125 
Q 32.421875 73.09375 27.4375 66.890625 
L 27.4375 28.765625 
L 19.828125 28.765625 
L 19.828125 58.34375 
Q 13.375 51.8125 5.953125 46.34375 
Q 4.203125 50.046875 2.15625 53.65625 
z
" id="MicrosoftYaHei-534e"/>
      <path d="M 5.078125 -5.03125 
Q 29.59375 -1.265625 45.125 7.46875 
Q 32.375 13.421875 18.171875 19.78125 
Q 22.796875 26.703125 27.296875 34.234375 
L 1.65625 34.234375 
L 1.65625 41.453125 
L 31.546875 41.453125 
Q 36.46875 50.09375 41.3125 59.421875 
L 49.03125 56.203125 
Q 44.734375 48.640625 40.578125 41.453125 
L 98.53125 41.453125 
L 98.53125 34.234375 
L 77.59375 34.234375 
Q 72.703125 19.4375 60.75 8.9375 
Q 76.125 2 91.40625 -5.125 
L 86.625 -12.9375 
Q 71.734375 -5.125 53.65625 3.421875 
Q 36.671875 -8.015625 9.1875 -13.03125 
Q 7.421875 -9.328125 5.078125 -5.03125 
z
M 6.453125 68.703125 
L 50.4375 68.703125 
Q 46.734375 74.078125 41.890625 79.734375 
L 48.4375 84.125 
Q 54.390625 77.6875 58.5 71.734375 
L 54 68.703125 
L 93.953125 68.703125 
L 93.953125 50.140625 
L 86.03125 50.140625 
L 86.03125 61.46875 
L 14.265625 61.46875 
L 14.265625 50.140625 
L 6.453125 50.140625 
z
M 29.390625 22.703125 
Q 41.109375 17.671875 52.734375 12.5 
Q 64.40625 21.390625 69.09375 34.234375 
L 36.328125 34.234375 
Q 32.8125 28.328125 29.390625 22.703125 
z
" id="MicrosoftYaHei-5b89"/>
      <path d="M 37.890625 81.984375 
L 36.625 79.9375 
Q 49.03125 68.5 60.453125 56.78125 
L 55.078125 50.734375 
Q 44.625 62.359375 32.8125 73.6875 
Q 23.25 58.546875 13.09375 48.390625 
L 53.21875 48.390625 
Q 52.640625 34.8125 52.25 29.34375 
Q 51.765625 14.796875 38.96875 14.796875 
Q 33.796875 14.796875 26.265625 15.09375 
Q 25.6875 19.390625 24.90625 22.90625 
Q 31.453125 21.828125 37.40625 21.734375 
Q 44.4375 21.625 44.921875 30.609375 
Q 45.21875 35.296875 45.515625 41.546875 
L 19.625 41.546875 
L 19.625 2.390625 
Q 19.625 -3.078125 25.484375 -3.078125 
L 41.5 -3.078125 
Q 49.21875 -3.078125 50.203125 2 
Q 51.375 6.6875 51.953125 13.71875 
Q 55.765625 12.15625 59.671875 10.890625 
Q 58.6875 4.4375 57.234375 -1.03125 
Q 54.78125 -10.109375 43.453125 -10.109375 
L 24.03125 -10.109375 
Q 12.015625 -10.109375 12.015625 1.8125 
L 12.015625 47.21875 
Q 8.890625 44.28125 5.859375 41.84375 
Q 2.9375 46.625 1.375 48.875 
Q 17.390625 61.078125 28.90625 81.984375 
z
M 84.671875 81.296875 
L 92.484375 81.296875 
L 92.484375 0.140625 
Q 92.484375 -11.765625 80.671875 -11.859375 
Q 76.5625 -11.859375 65.328125 -11.765625 
Q 64.84375 -7.28125 63.765625 -2.875 
Q 74.125 -3.765625 78.328125 -3.765625 
Q 84.671875 -3.765625 84.671875 2.484375 
z
M 71.78125 12.453125 
L 64.265625 12.453125 
L 64.265625 72.609375 
L 71.78125 72.609375 
z
" id="MicrosoftYaHei-521b"/>
      <path d="M 1.859375 0.734375 
L 33.203125 0.734375 
L 33.203125 81.390625 
L 41.40625 81.390625 
L 41.40625 0.734375 
L 58.5 0.734375 
L 58.5 81.390625 
L 66.703125 81.390625 
L 66.703125 0.734375 
L 98.34375 0.734375 
L 98.34375 -6.5 
L 1.859375 -6.5 
z
M 13.1875 62.25 
Q 21.1875 43.40625 28.71875 22.21875 
L 20.703125 18.609375 
Q 14.15625 39.203125 6.0625 59.125 
z
M 70.21875 21.34375 
Q 79.984375 42.046875 86.625 61.375 
L 94.53125 58.25 
Q 85.453125 34.90625 77.25 18.109375 
z
" id="MicrosoftYaHei-4e1a"/>
      <path d="M 40.328125 74.953125 
Q 62.796875 74.65625 94.625 79.15625 
L 97.265625 71.53125 
Q 69.046875 68.609375 47.265625 68.109375 
L 47.265625 52.296875 
L 92.78125 52.296875 
L 92.78125 46.4375 
Q 88.484375 24.46875 76.859375 10.203125 
Q 86.03125 1.21875 98.828125 -4.828125 
Q 94.625 -9.328125 92.671875 -12.0625 
Q 82.421875 -5.328125 72.171875 4.9375 
Q 62.703125 -4.4375 46.6875 -13.140625 
Q 44.828125 -10.109375 41.609375 -6.5 
Q 57.8125 0.734375 67.484375 10.109375 
Q 56.34375 23.96875 53.328125 45.84375 
L 47.265625 45.84375 
L 47.265625 29.828125 
Q 47.265625 2.78125 31.734375 -13.328125 
Q 29.296875 -10.015625 26.65625 -7.078125 
Q 40.328125 6.78125 40.328125 30.8125 
z
M 1.171875 21.625 
Q 12.015625 38.03125 16.015625 56.59375 
L 1.859375 56.59375 
L 1.859375 63.234375 
L 16.703125 63.234375 
L 16.703125 82.375 
L 23.53125 82.375 
L 23.53125 63.234375 
L 36.8125 63.234375 
L 36.8125 56.59375 
L 23.53125 56.59375 
L 23.53125 41.65625 
L 27.046875 45.171875 
Q 33.890625 38.71875 38.765625 33.734375 
L 33.59375 28.375 
Q 28.71875 33.84375 23.53125 39.109375 
L 23.53125 -12.84375 
L 16.703125 -12.84375 
L 16.703125 39.703125 
Q 11.53125 22.703125 4.390625 13.03125 
Q 3.03125 17.234375 1.171875 21.625 
z
M 85.0625 45.84375 
L 59.765625 45.84375 
Q 62.40625 27.296875 72.265625 15.28125 
Q 81.734375 27.203125 85.0625 45.84375 
z
" id="MicrosoftYaHei-677f"/>
      <path d="M 8.640625 11.625 
Q 16.265625 6.640625 24.515625 6.640625 
Q 32.328125 6.640625 37.109375 11 
Q 41.890625 15.375 41.890625 22.609375 
Q 41.890625 29.890625 37.03125 33.890625 
Q 32.171875 37.890625 22.953125 37.890625 
Q 18.5 37.890625 10.984375 37.203125 
L 10.984375 75.640625 
L 48.1875 75.640625 
L 48.1875 67.1875 
L 19.875 67.1875 
L 19.875 45.796875 
Q 24.125 46.046875 26.265625 46.046875 
Q 38.234375 46.046875 44.921875 39.984375 
Q 51.609375 33.9375 51.609375 23.296875 
Q 51.609375 12.3125 44.421875 5.515625 
Q 37.25 -1.265625 24.609375 -1.265625 
Q 14.015625 -1.265625 8.640625 1.859375 
z
" id="MicrosoftYaHei-35"/>
      <path d="M 50.4375 0 
L 9.765625 0 
L 9.765625 75.640625 
L 48.734375 75.640625 
L 48.734375 66.9375 
L 19.53125 66.9375 
L 19.53125 42.71875 
L 46.578125 42.71875 
L 46.578125 34.078125 
L 19.53125 34.078125 
L 19.53125 8.640625 
L 50.4375 8.640625 
z
" id="MicrosoftYaHei-45"/>
      <path d="M 55.46875 66.9375 
L 33.640625 66.9375 
L 33.640625 0 
L 23.828125 0 
L 23.828125 66.9375 
L 2.09375 66.9375 
L 2.09375 75.640625 
L 55.46875 75.640625 
z
" id="MicrosoftYaHei-54"/>
      <path d="M 48.734375 66.9375 
L 19.53125 66.9375 
L 19.53125 41.65625 
L 46.578125 41.65625 
L 46.578125 33.0625 
L 19.53125 33.0625 
L 19.53125 0 
L 9.765625 0 
L 9.765625 75.640625 
L 48.734375 75.640625 
z
" id="MicrosoftYaHei-46"/>
     </defs>
     <g transform="translate(127 75.673437)scale(0.1 -0.1)">
      <use xlink:href="#MicrosoftYaHei-534e"/>
      <use x="100" xlink:href="#MicrosoftYaHei-5b89"/>
      <use x="200" xlink:href="#MicrosoftYaHei-521b"/>
      <use x="300" xlink:href="#MicrosoftYaHei-4e1a"/>
      <use x="400" xlink:href="#MicrosoftYaHei-677f"/>
      <use x="500" xlink:href="#MicrosoftYaHei-35"/>
      <use x="558.642578" xlink:href="#MicrosoftYaHei-30"/>
      <use x="617.285156" xlink:href="#MicrosoftYaHei-45"/>
      <use x="672.265625" xlink:href="#MicrosoftYaHei-54"/>
      <use x="729.589844" xlink:href="#MicrosoftYaHei-46"/>
     </g>
    </g>
   </g>
  </g>
 </g>
 <defs>
  <clipPath id="pdb586f32b9">
   <rect height="277.2" width="558" x="90" y="43.2"/>
  </clipPath>
 </defs>
</svg>
