<?xml version="1.0" encoding="utf-8" standalone="no"?>
<!DOCTYPE svg PUBLIC "-//W3C//DTD SVG 1.1//EN"
  "http://www.w3.org/Graphics/SVG/1.1/DTD/svg11.dtd">
<!-- Created with matplotlib (http://matplotlib.org/) -->
<svg height="360pt" version="1.1" viewBox="0 0 720 360" width="720pt" xmlns="http://www.w3.org/2000/svg" xmlns:xlink="http://www.w3.org/1999/xlink">
 <defs>
  <style type="text/css">
*{stroke-linecap:butt;stroke-linejoin:round;}
  </style>
 </defs>
 <g id="figure_1">
  <g id="patch_1">
   <path d="M 0 360 
L 720 360 
L 720 0 
L 0 0 
z
" style="fill:#ffffff;"/>
  </g>
  <g id="axes_1">
   <g id="patch_2">
    <path d="M 90 320.4 
L 648 320.4 
L 648 43.2 
L 90 43.2 
z
" style="fill:#ffffff;"/>
   </g>
   <g id="matplotlib.axis_1">
    <g id="xtick_1">
     <g id="line2d_1">
      <path clip-path="url(#pe7fa1ea060)" d="M 90 320.4 
L 90 43.2 
" style="fill:none;stroke:#b0b0b0;stroke-linecap:square;stroke-width:0.8;"/>
     </g>
     <g id="line2d_2">
      <defs>
       <path d="M 0 0 
L 0 3.5 
" id="m3e6f0bb494" style="stroke:#000000;stroke-width:0.8;"/>
      </defs>
      <g>
       <use style="stroke:#000000;stroke-width:0.8;" x="90" xlink:href="#m3e6f0bb494" y="320.4"/>
      </g>
     </g>
     <g id="text_1">
      <!-- 2017-07-27 -->
      <defs>
       <path d="M 51.171875 0 
L 5.171875 0 
L 5.171875 8.296875 
L 27.15625 30.21875 
Q 36.234375 39.3125 39.3125 44.609375 
Q 42.390625 49.90625 42.390625 55.5625 
Q 42.390625 62.015625 38.765625 65.453125 
Q 35.15625 68.890625 28.328125 68.890625 
Q 18.21875 68.890625 9.03125 60.296875 
L 9.03125 70.015625 
Q 17.96875 76.90625 29.828125 76.90625 
Q 40.046875 76.90625 45.953125 71.390625 
Q 51.859375 65.875 51.859375 56.546875 
Q 51.859375 49.515625 48.0625 42.75 
Q 44.28125 35.984375 33.734375 25.53125 
L 16.5 8.6875 
L 16.5 8.5 
L 51.171875 8.5 
z
" id="MicrosoftYaHei-32"/>
       <path d="M 4.4375 36.328125 
Q 4.4375 56.34375 11.078125 66.625 
Q 17.71875 76.90625 30.328125 76.90625 
Q 54.34375 76.90625 54.34375 38.140625 
Q 54.34375 19 47.578125 8.859375 
Q 40.828125 -1.265625 28.609375 -1.265625 
Q 17.09375 -1.265625 10.765625 8.34375 
Q 4.4375 17.96875 4.4375 36.328125 
z
M 14.203125 36.765625 
Q 14.203125 6.640625 29.5 6.640625 
Q 44.53125 6.640625 44.53125 37.25 
Q 44.53125 68.953125 29.78125 68.953125 
Q 14.203125 68.953125 14.203125 36.765625 
z
" id="MicrosoftYaHei-30"/>
       <path d="M 52.59375 0 
L 9.234375 0 
L 9.234375 8.25 
L 26.171875 8.25 
L 26.171875 65.671875 
L 8.796875 60.640625 
L 8.796875 69.4375 
L 35.6875 77.25 
L 35.6875 8.25 
L 52.59375 8.25 
z
" id="MicrosoftYaHei-31"/>
       <path d="M 53.765625 72.3125 
L 24.171875 0 
L 14.265625 0 
L 42.390625 67.1875 
L 4.59375 67.1875 
L 4.59375 75.640625 
L 53.765625 75.640625 
z
" id="MicrosoftYaHei-37"/>
       <path d="M 36.375 26.265625 
L 7.625 26.265625 
L 7.625 33.640625 
L 36.375 33.640625 
z
" id="MicrosoftYaHei-2d"/>
      </defs>
      <g transform="translate(62.217187 335.39375)scale(0.1 -0.1)">
       <use xlink:href="#MicrosoftYaHei-32"/>
       <use x="58.642578" xlink:href="#MicrosoftYaHei-30"/>
       <use x="117.285156" xlink:href="#MicrosoftYaHei-31"/>
       <use x="175.927734" xlink:href="#MicrosoftYaHei-37"/>
       <use x="234.570312" xlink:href="#MicrosoftYaHei-2d"/>
       <use x="277.832031" xlink:href="#MicrosoftYaHei-30"/>
       <use x="336.474609" xlink:href="#MicrosoftYaHei-37"/>
       <use x="395.117188" xlink:href="#MicrosoftYaHei-2d"/>
       <use x="438.378906" xlink:href="#MicrosoftYaHei-32"/>
       <use x="497.021484" xlink:href="#MicrosoftYaHei-37"/>
      </g>
     </g>
    </g>
    <g id="xtick_2">
     <g id="line2d_3">
      <path clip-path="url(#pe7fa1ea060)" d="M 204.579055 320.4 
L 204.579055 43.2 
" style="fill:none;stroke:#b0b0b0;stroke-linecap:square;stroke-width:0.8;"/>
     </g>
     <g id="line2d_4">
      <g>
       <use style="stroke:#000000;stroke-width:0.8;" x="204.579055" xlink:href="#m3e6f0bb494" y="320.4"/>
      </g>
     </g>
     <g id="text_2">
      <!-- 2018-05-31 -->
      <defs>
       <path d="M 21.390625 39.796875 
Q 7.859375 46.09375 7.859375 58.0625 
Q 7.859375 66.40625 14.203125 71.65625 
Q 20.5625 76.90625 30.421875 76.90625 
Q 39.453125 76.90625 45.3125 71.96875 
Q 51.171875 67.046875 51.171875 59.234375 
Q 51.171875 46.625 37.0625 39.84375 
L 37.0625 39.65625 
Q 53.609375 33.6875 53.609375 19.34375 
Q 53.609375 9.90625 46.796875 4.3125 
Q 39.984375 -1.265625 27.78125 -1.265625 
Q 17.78125 -1.265625 11.46875 4.25 
Q 5.171875 9.765625 5.171875 18.5625 
Q 5.171875 33.015625 21.390625 39.59375 
z
M 41.5 58.109375 
Q 41.5 63.1875 38.328125 66.109375 
Q 35.15625 69.046875 29.734375 69.046875 
Q 24.65625 69.046875 21.09375 65.984375 
Q 17.53125 62.9375 17.53125 58.203125 
Q 17.53125 48.734375 29.390625 43.796875 
Q 41.5 48.828125 41.5 58.109375 
z
M 28.8125 35.25 
Q 14.796875 29.59375 14.796875 19.046875 
Q 14.796875 13.578125 18.890625 10.0625 
Q 23 6.546875 29.59375 6.546875 
Q 35.984375 6.546875 39.984375 10.03125 
Q 44 13.53125 44 18.75 
Q 44 29.734375 28.8125 35.25 
z
" id="MicrosoftYaHei-38"/>
       <path d="M 8.640625 11.625 
Q 16.265625 6.640625 24.515625 6.640625 
Q 32.328125 6.640625 37.109375 11 
Q 41.890625 15.375 41.890625 22.609375 
Q 41.890625 29.890625 37.03125 33.890625 
Q 32.171875 37.890625 22.953125 37.890625 
Q 18.5 37.890625 10.984375 37.203125 
L 10.984375 75.640625 
L 48.1875 75.640625 
L 48.1875 67.1875 
L 19.875 67.1875 
L 19.875 45.796875 
Q 24.125 46.046875 26.265625 46.046875 
Q 38.234375 46.046875 44.921875 39.984375 
Q 51.609375 33.9375 51.609375 23.296875 
Q 51.609375 12.3125 44.421875 5.515625 
Q 37.25 -1.265625 24.609375 -1.265625 
Q 14.015625 -1.265625 8.640625 1.859375 
z
" id="MicrosoftYaHei-35"/>
       <path d="M 6.984375 12.640625 
Q 14.75 6.640625 24.515625 6.640625 
Q 32.328125 6.640625 36.890625 10.46875 
Q 41.453125 14.3125 41.453125 20.75 
Q 41.453125 35.109375 20.90625 35.109375 
L 14.59375 35.109375 
L 14.59375 43.015625 
L 20.609375 43.015625 
Q 38.8125 43.015625 38.8125 56.5 
Q 38.8125 68.953125 24.90625 68.953125 
Q 16.9375 68.953125 9.90625 63.578125 
L 9.90625 72.609375 
Q 17.328125 76.90625 27.25 76.90625 
Q 36.921875 76.90625 42.78125 71.84375 
Q 48.640625 66.796875 48.640625 58.734375 
Q 48.640625 43.890625 33.5 39.65625 
L 33.5 39.453125 
Q 41.703125 38.578125 46.453125 33.671875 
Q 51.21875 28.765625 51.21875 21.4375 
Q 51.21875 11.234375 43.875 4.984375 
Q 36.53125 -1.265625 24.3125 -1.265625 
Q 13.578125 -1.265625 6.984375 2.734375 
z
" id="MicrosoftYaHei-33"/>
      </defs>
      <g transform="translate(176.796243 335.39375)scale(0.1 -0.1)">
       <use xlink:href="#MicrosoftYaHei-32"/>
       <use x="58.642578" xlink:href="#MicrosoftYaHei-30"/>
       <use x="117.285156" xlink:href="#MicrosoftYaHei-31"/>
       <use x="175.927734" xlink:href="#MicrosoftYaHei-38"/>
       <use x="234.570312" xlink:href="#MicrosoftYaHei-2d"/>
       <use x="277.832031" xlink:href="#MicrosoftYaHei-30"/>
       <use x="336.474609" xlink:href="#MicrosoftYaHei-35"/>
       <use x="395.117188" xlink:href="#MicrosoftYaHei-2d"/>
       <use x="438.378906" xlink:href="#MicrosoftYaHei-33"/>
       <use x="497.021484" xlink:href="#MicrosoftYaHei-31"/>
      </g>
     </g>
    </g>
    <g id="xtick_3">
     <g id="line2d_5">
      <path clip-path="url(#pe7fa1ea060)" d="M 319.158111 320.4 
L 319.158111 43.2 
" style="fill:none;stroke:#b0b0b0;stroke-linecap:square;stroke-width:0.8;"/>
     </g>
     <g id="line2d_6">
      <g>
       <use style="stroke:#000000;stroke-width:0.8;" x="319.158111" xlink:href="#m3e6f0bb494" y="320.4"/>
      </g>
     </g>
     <g id="text_3">
      <!-- 2019-04-01 -->
      <defs>
       <path d="M 9.03125 10.25 
Q 15.28125 6.640625 22.515625 6.640625 
Q 32.671875 6.640625 38.25 14.640625 
Q 43.84375 22.65625 43.84375 37.40625 
Q 43.75 37.3125 43.65625 37.40625 
Q 38.671875 27.9375 26.90625 27.9375 
Q 17.390625 27.9375 11.140625 34.46875 
Q 4.890625 41.015625 4.890625 51.46875 
Q 4.890625 62.59375 11.71875 69.75 
Q 18.5625 76.90625 29.4375 76.90625 
Q 40.71875 76.90625 47.0625 68.046875 
Q 53.421875 59.1875 53.421875 42.234375 
Q 53.421875 21.296875 45.21875 10.015625 
Q 37.015625 -1.265625 22.515625 -1.265625 
Q 14.546875 -1.265625 9.03125 1.3125 
z
M 14.546875 52.6875 
Q 14.546875 45.0625 18.453125 40.59375 
Q 22.359375 36.140625 29.25 36.140625 
Q 35.203125 36.140625 39.25 40.203125 
Q 43.3125 44.28125 43.3125 50.09375 
Q 43.3125 58.25 39.28125 63.59375 
Q 35.25 68.953125 28.65625 68.953125 
Q 22.5625 68.953125 18.546875 64.3125 
Q 14.546875 59.671875 14.546875 52.6875 
z
" id="MicrosoftYaHei-39"/>
       <path d="M 55.078125 19.625 
L 45.40625 19.625 
L 45.40625 0 
L 36.140625 0 
L 36.140625 19.625 
L 0.875 19.625 
L 0.875 25.828125 
L 34.328125 75.640625 
L 45.40625 75.640625 
L 45.40625 27.203125 
L 55.078125 27.203125 
z
M 36.140625 27.203125 
L 36.140625 58.890625 
Q 36.140625 62.25 36.328125 66.65625 
L 36.140625 66.65625 
Q 35.453125 64.796875 33.25 60.84375 
L 10.75 27.203125 
z
" id="MicrosoftYaHei-34"/>
      </defs>
      <g transform="translate(291.375298 335.39375)scale(0.1 -0.1)">
       <use xlink:href="#MicrosoftYaHei-32"/>
       <use x="58.642578" xlink:href="#MicrosoftYaHei-30"/>
       <use x="117.285156" xlink:href="#MicrosoftYaHei-31"/>
       <use x="175.927734" xlink:href="#MicrosoftYaHei-39"/>
       <use x="234.570312" xlink:href="#MicrosoftYaHei-2d"/>
       <use x="277.832031" xlink:href="#MicrosoftYaHei-30"/>
       <use x="336.474609" xlink:href="#MicrosoftYaHei-34"/>
       <use x="395.117188" xlink:href="#MicrosoftYaHei-2d"/>
       <use x="438.378906" xlink:href="#MicrosoftYaHei-30"/>
       <use x="497.021484" xlink:href="#MicrosoftYaHei-31"/>
      </g>
     </g>
    </g>
    <g id="xtick_4">
     <g id="line2d_7">
      <path clip-path="url(#pe7fa1ea060)" d="M 433.737166 320.4 
L 433.737166 43.2 
" style="fill:none;stroke:#b0b0b0;stroke-linecap:square;stroke-width:0.8;"/>
     </g>
     <g id="line2d_8">
      <g>
       <use style="stroke:#000000;stroke-width:0.8;" x="433.737166" xlink:href="#m3e6f0bb494" y="320.4"/>
      </g>
     </g>
     <g id="text_4">
      <!-- 2020-01-21 -->
      <g transform="translate(405.954354 335.39375)scale(0.1 -0.1)">
       <use xlink:href="#MicrosoftYaHei-32"/>
       <use x="58.642578" xlink:href="#MicrosoftYaHei-30"/>
       <use x="117.285156" xlink:href="#MicrosoftYaHei-32"/>
       <use x="175.927734" xlink:href="#MicrosoftYaHei-30"/>
       <use x="234.570312" xlink:href="#MicrosoftYaHei-2d"/>
       <use x="277.832031" xlink:href="#MicrosoftYaHei-30"/>
       <use x="336.474609" xlink:href="#MicrosoftYaHei-31"/>
       <use x="395.117188" xlink:href="#MicrosoftYaHei-2d"/>
       <use x="438.378906" xlink:href="#MicrosoftYaHei-32"/>
       <use x="497.021484" xlink:href="#MicrosoftYaHei-31"/>
      </g>
     </g>
    </g>
    <g id="xtick_5">
     <g id="line2d_9">
      <path clip-path="url(#pe7fa1ea060)" d="M 548.316222 320.4 
L 548.316222 43.2 
" style="fill:none;stroke:#b0b0b0;stroke-linecap:square;stroke-width:0.8;"/>
     </g>
     <g id="line2d_10">
      <g>
       <use style="stroke:#000000;stroke-width:0.8;" x="548.316222" xlink:href="#m3e6f0bb494" y="320.4"/>
      </g>
     </g>
     <g id="text_5">
      <!-- 2020-11-20 -->
      <g transform="translate(520.533409 335.39375)scale(0.1 -0.1)">
       <use xlink:href="#MicrosoftYaHei-32"/>
       <use x="58.642578" xlink:href="#MicrosoftYaHei-30"/>
       <use x="117.285156" xlink:href="#MicrosoftYaHei-32"/>
       <use x="175.927734" xlink:href="#MicrosoftYaHei-30"/>
       <use x="234.570312" xlink:href="#MicrosoftYaHei-2d"/>
       <use x="277.832031" xlink:href="#MicrosoftYaHei-31"/>
       <use x="336.474609" xlink:href="#MicrosoftYaHei-31"/>
       <use x="395.117188" xlink:href="#MicrosoftYaHei-2d"/>
       <use x="438.378906" xlink:href="#MicrosoftYaHei-32"/>
       <use x="497.021484" xlink:href="#MicrosoftYaHei-30"/>
      </g>
     </g>
    </g>
   </g>
   <g id="matplotlib.axis_2">
    <g id="ytick_1">
     <g id="line2d_11">
      <path clip-path="url(#pe7fa1ea060)" d="M 90 305.184083 
L 648 305.184083 
" style="fill:none;stroke:#b0b0b0;stroke-linecap:square;stroke-width:0.8;"/>
     </g>
     <g id="line2d_12">
      <defs>
       <path d="M 0 0 
L -3.5 0 
" id="m22a94ee975" style="stroke:#000000;stroke-width:0.8;"/>
      </defs>
      <g>
       <use style="stroke:#000000;stroke-width:0.8;" x="90" xlink:href="#m22a94ee975" y="305.184083"/>
      </g>
     </g>
     <g id="text_6">
      <!-- 1.00 -->
      <defs>
       <path d="M 5.8125 5.03125 
Q 5.8125 7.671875 7.609375 9.46875 
Q 9.421875 11.28125 12.109375 11.28125 
Q 14.84375 11.28125 16.640625 9.453125 
Q 18.453125 7.625 18.453125 5.03125 
Q 18.453125 2.484375 16.640625 0.65625 
Q 14.84375 -1.171875 12.0625 -1.171875 
Q 9.375 -1.171875 7.59375 0.65625 
Q 5.8125 2.484375 5.8125 5.03125 
z
" id="MicrosoftYaHei-2e"/>
      </defs>
      <g transform="translate(63 309.180958)scale(0.1 -0.1)">
       <use xlink:href="#MicrosoftYaHei-31"/>
       <use x="58.642578" xlink:href="#MicrosoftYaHei-2e"/>
       <use x="82.714844" xlink:href="#MicrosoftYaHei-30"/>
       <use x="141.357422" xlink:href="#MicrosoftYaHei-30"/>
      </g>
     </g>
    </g>
    <g id="ytick_2">
     <g id="line2d_13">
      <path clip-path="url(#pe7fa1ea060)" d="M 90 251.034602 
L 648 251.034602 
" style="fill:none;stroke:#b0b0b0;stroke-linecap:square;stroke-width:0.8;"/>
     </g>
     <g id="line2d_14">
      <g>
       <use style="stroke:#000000;stroke-width:0.8;" x="90" xlink:href="#m22a94ee975" y="251.034602"/>
      </g>
     </g>
     <g id="text_7">
      <!-- 1.05 -->
      <g transform="translate(63 255.031477)scale(0.1 -0.1)">
       <use xlink:href="#MicrosoftYaHei-31"/>
       <use x="58.642578" xlink:href="#MicrosoftYaHei-2e"/>
       <use x="82.714844" xlink:href="#MicrosoftYaHei-30"/>
       <use x="141.357422" xlink:href="#MicrosoftYaHei-35"/>
      </g>
     </g>
    </g>
    <g id="ytick_3">
     <g id="line2d_15">
      <path clip-path="url(#pe7fa1ea060)" d="M 90 196.885121 
L 648 196.885121 
" style="fill:none;stroke:#b0b0b0;stroke-linecap:square;stroke-width:0.8;"/>
     </g>
     <g id="line2d_16">
      <g>
       <use style="stroke:#000000;stroke-width:0.8;" x="90" xlink:href="#m22a94ee975" y="196.885121"/>
      </g>
     </g>
     <g id="text_8">
      <!-- 1.10 -->
      <g transform="translate(63 200.881996)scale(0.1 -0.1)">
       <use xlink:href="#MicrosoftYaHei-31"/>
       <use x="58.642578" xlink:href="#MicrosoftYaHei-2e"/>
       <use x="82.714844" xlink:href="#MicrosoftYaHei-31"/>
       <use x="141.357422" xlink:href="#MicrosoftYaHei-30"/>
      </g>
     </g>
    </g>
    <g id="ytick_4">
     <g id="line2d_17">
      <path clip-path="url(#pe7fa1ea060)" d="M 90 142.73564 
L 648 142.73564 
" style="fill:none;stroke:#b0b0b0;stroke-linecap:square;stroke-width:0.8;"/>
     </g>
     <g id="line2d_18">
      <g>
       <use style="stroke:#000000;stroke-width:0.8;" x="90" xlink:href="#m22a94ee975" y="142.73564"/>
      </g>
     </g>
     <g id="text_9">
      <!-- 1.15 -->
      <g transform="translate(63 146.732515)scale(0.1 -0.1)">
       <use xlink:href="#MicrosoftYaHei-31"/>
       <use x="58.642578" xlink:href="#MicrosoftYaHei-2e"/>
       <use x="82.714844" xlink:href="#MicrosoftYaHei-31"/>
       <use x="141.357422" xlink:href="#MicrosoftYaHei-35"/>
      </g>
     </g>
    </g>
    <g id="ytick_5">
     <g id="line2d_19">
      <path clip-path="url(#pe7fa1ea060)" d="M 90 88.586159 
L 648 88.586159 
" style="fill:none;stroke:#b0b0b0;stroke-linecap:square;stroke-width:0.8;"/>
     </g>
     <g id="line2d_20">
      <g>
       <use style="stroke:#000000;stroke-width:0.8;" x="90" xlink:href="#m22a94ee975" y="88.586159"/>
      </g>
     </g>
     <g id="text_10">
      <!-- 1.20 -->
      <g transform="translate(63 92.583034)scale(0.1 -0.1)">
       <use xlink:href="#MicrosoftYaHei-31"/>
       <use x="58.642578" xlink:href="#MicrosoftYaHei-2e"/>
       <use x="82.714844" xlink:href="#MicrosoftYaHei-32"/>
       <use x="141.357422" xlink:href="#MicrosoftYaHei-30"/>
      </g>
     </g>
    </g>
   </g>
   <g id="line2d_21">
    <path clip-path="url(#pe7fa1ea060)" d="M 90 305.184083 
L 90.572895 306.056055 
L 91.145791 305.184083 
L 91.718686 306.056055 
L 92.864476 306.056055 
L 93.437372 305.184083 
L 94.583162 305.184083 
L 95.156057 306.056055 
L 95.728953 305.184083 
L 100.88501 305.184083 
L 101.457906 306.056055 
L 102.603696 306.056055 
L 103.176591 306.928028 
L 103.749487 306.928028 
L 104.322382 307.8 
L 104.895277 306.928028 
L 106.613963 306.928028 
L 108.905544 303.440138 
L 109.478439 303.440138 
L 110.051335 302.568166 
L 110.62423 302.568166 
L 111.197125 301.696194 
L 112.915811 301.696194 
L 113.488706 300.824221 
L 114.061602 300.824221 
L 114.634497 299.952249 
L 115.780287 299.952249 
L 116.353183 299.080277 
L 116.926078 299.952249 
L 117.498973 299.080277 
L 119.217659 299.080277 
L 119.790554 299.952249 
L 121.50924 299.952249 
L 122.082136 299.080277 
L 124.373717 299.080277 
L 124.946612 300.824221 
L 126.092402 300.824221 
L 126.665298 299.952249 
L 128.383984 299.952249 
L 128.956879 300.824221 
L 130.102669 300.824221 
L 131.24846 302.568166 
L 132.394251 302.568166 
L 132.967146 301.696194 
L 133.540041 301.696194 
L 135.258727 304.312111 
L 135.831622 304.312111 
L 136.404517 305.184083 
L 137.550308 305.184083 
L 138.696099 303.440138 
L 139.268994 303.440138 
L 139.841889 302.568166 
L 143.852156 302.568166 
L 144.425051 301.696194 
L 145.570842 301.696194 
L 146.143737 302.568166 
L 146.716632 302.568166 
L 147.289528 301.696194 
L 147.862423 302.568166 
L 148.435318 302.568166 
L 149.008214 301.696194 
L 149.581109 301.696194 
L 150.154004 300.824221 
L 151.299795 300.824221 
L 152.445585 299.080277 
L 153.01848 299.080277 
L 153.591376 299.952249 
L 154.737166 299.952249 
L 155.310062 299.080277 
L 159.320329 299.080277 
L 159.893224 298.208304 
L 161.039014 298.208304 
L 161.61191 297.336332 
L 162.184805 297.336332 
L 162.7577 296.46436 
L 164.476386 296.46436 
L 165.049281 295.592388 
L 165.622177 295.592388 
L 166.767967 293.848443 
L 167.340862 293.848443 
L 167.913758 292.104498 
L 168.486653 292.104498 
L 169.632444 290.360554 
L 170.778234 290.360554 
L 171.351129 289.488581 
L 172.49692 289.488581 
L 173.069815 288.616609 
L 174.215606 288.616609 
L 174.788501 287.744637 
L 177.652977 287.744637 
L 178.225873 286.872664 
L 179.371663 286.872664 
L 179.944559 286.000692 
L 180.517454 284.256747 
L 181.090349 283.384775 
L 182.23614 283.384775 
L 182.809035 281.64083 
L 183.38193 281.64083 
L 185.100616 279.024913 
L 185.673511 279.024913 
L 186.246407 278.152941 
L 186.819302 278.152941 
L 187.965092 276.408997 
L 188.537988 272.921107 
L 189.110883 272.921107 
L 189.683778 273.79308 
L 191.402464 273.79308 
L 191.975359 274.665052 
L 193.12115 274.665052 
L 193.694045 275.537024 
L 194.26694 275.537024 
L 194.839836 274.665052 
L 195.412731 275.537024 
L 196.558522 275.537024 
L 197.131417 276.408997 
L 197.704312 275.537024 
L 198.277207 276.408997 
L 200.568789 276.408997 
L 201.141684 275.537024 
L 201.714579 275.537024 
L 202.287474 274.665052 
L 202.86037 274.665052 
L 203.433265 273.79308 
L 204.00616 273.79308 
L 204.579055 274.665052 
L 205.151951 274.665052 
L 205.724846 273.79308 
L 206.297741 274.665052 
L 209.735113 274.665052 
L 210.308008 273.79308 
L 210.880903 273.79308 
L 211.453799 272.921107 
L 212.599589 272.921107 
L 213.172485 272.049135 
L 214.318275 272.049135 
L 216.036961 269.433218 
L 216.609856 269.433218 
L 217.182752 267.689273 
L 217.755647 266.817301 
L 218.328542 265.073356 
L 220.620123 265.073356 
L 221.193018 264.201384 
L 221.765914 265.073356 
L 222.911704 263.329412 
L 223.4846 263.329412 
L 224.057495 261.585467 
L 228.067762 255.481661 
L 228.640657 253.737716 
L 229.213552 253.737716 
L 229.786448 251.993772 
L 230.359343 251.993772 
L 230.932238 250.249827 
L 231.505133 249.377855 
L 232.078029 249.377855 
L 233.796715 251.993772 
L 234.36961 251.993772 
L 234.942505 251.121799 
L 236.088296 252.865744 
L 237.806982 252.865744 
L 238.379877 251.993772 
L 238.952772 249.377855 
L 241.244353 249.377855 
L 241.817248 248.505882 
L 242.963039 248.505882 
L 243.535934 247.63391 
L 246.973306 247.63391 
L 247.546201 246.761938 
L 250.410678 246.761938 
L 251.556468 245.017993 
L 252.129363 245.017993 
L 252.702259 244.146021 
L 253.275154 244.146021 
L 253.848049 243.274048 
L 254.420945 241.530104 
L 254.99384 242.402076 
L 255.566735 242.402076 
L 256.13963 241.530104 
L 256.712526 241.530104 
L 257.285421 240.658131 
L 259.004107 240.658131 
L 259.577002 239.786159 
L 260.149897 240.658131 
L 260.722793 239.786159 
L 261.295688 238.042215 
L 262.441478 238.042215 
L 263.014374 237.170242 
L 263.587269 238.042215 
L 264.160164 238.042215 
L 265.305955 236.29827 
L 265.87885 236.29827 
L 266.451745 234.554325 
L 267.024641 234.554325 
L 267.597536 232.810381 
L 268.170431 230.194464 
L 268.743326 228.450519 
L 269.316222 224.090657 
L 269.889117 224.090657 
L 270.462012 225.834602 
L 271.034908 224.96263 
L 271.607803 225.834602 
L 272.753593 225.834602 
L 273.899384 224.090657 
L 274.472279 222.346713 
L 275.045175 221.47474 
L 275.61807 218.858824 
L 276.190965 215.370934 
L 276.76386 214.498962 
L 277.336756 212.755017 
L 277.909651 211.883045 
L 278.482546 211.883045 
L 279.055441 214.498962 
L 281.347023 214.498962 
L 281.919918 213.62699 
L 284.211499 213.62699 
L 285.930185 211.011073 
L 286.50308 211.011073 
L 288.221766 208.395156 
L 288.794661 208.395156 
L 289.367556 207.523183 
L 290.513347 207.523183 
L 291.086242 206.651211 
L 291.659138 206.651211 
L 292.232033 205.779239 
L 293.950719 205.779239 
L 294.523614 204.907266 
L 295.096509 204.907266 
L 295.669405 205.779239 
L 296.2423 204.907266 
L 297.38809 204.907266 
L 297.960986 204.035294 
L 298.533881 204.035294 
L 299.106776 202.291349 
L 299.679671 201.419377 
L 300.252567 201.419377 
L 300.825462 200.547405 
L 301.398357 200.547405 
L 301.971253 199.675433 
L 303.689938 199.675433 
L 304.262834 198.80346 
L 304.835729 198.80346 
L 305.408624 199.675433 
L 309.418891 199.675433 
L 310.564682 197.931488 
L 314.574949 197.931488 
L 315.147844 197.059516 
L 315.720739 197.059516 
L 316.293634 196.187543 
L 316.86653 196.187543 
L 317.439425 195.315571 
L 318.01232 195.315571 
L 319.158111 193.571626 
L 319.731006 193.571626 
L 320.303901 194.443599 
L 323.741273 194.443599 
L 324.887064 196.187543 
L 326.032854 196.187543 
L 327.178645 194.443599 
L 330.043121 194.443599 
L 330.616016 193.571626 
L 331.188912 191.827682 
L 332.334702 190.083737 
L 332.907598 188.339792 
L 333.480493 187.46782 
L 334.053388 185.723875 
L 334.626283 185.723875 
L 335.772074 183.979931 
L 336.344969 183.979931 
L 336.917864 183.107958 
L 342.073922 183.107958 
L 342.646817 182.235986 
L 343.219713 182.235986 
L 343.792608 181.364014 
L 346.084189 181.364014 
L 346.657084 182.235986 
L 347.802875 182.235986 
L 348.37577 181.364014 
L 348.948665 181.364014 
L 349.521561 180.492042 
L 350.094456 180.492042 
L 350.667351 179.620069 
L 352.386037 179.620069 
L 352.958932 178.748097 
L 353.531828 178.748097 
L 355.250513 176.13218 
L 356.969199 176.13218 
L 357.542094 175.260208 
L 359.26078 175.260208 
L 359.833676 174.388235 
L 362.125257 174.388235 
L 362.698152 173.516263 
L 364.416838 173.516263 
L 364.989733 172.644291 
L 366.135524 172.644291 
L 369 168.284429 
L 369.572895 168.284429 
L 370.145791 167.412457 
L 370.718686 167.412457 
L 371.291581 166.540484 
L 371.864476 166.540484 
L 372.437372 165.668512 
L 373.583162 165.668512 
L 374.156057 164.79654 
L 381.030801 164.79654 
L 381.603696 163.924567 
L 382.176591 163.924567 
L 382.749487 163.052595 
L 390.197125 163.052595 
L 391.342916 161.308651 
L 392.488706 161.308651 
L 393.061602 160.436678 
L 398.790554 160.436678 
L 399.36345 161.308651 
L 399.936345 161.308651 
L 401.082136 163.052595 
L 402.227926 163.052595 
L 402.800821 162.180623 
L 403.373717 162.180623 
L 404.519507 160.436678 
L 405.092402 160.436678 
L 405.665298 159.564706 
L 406.238193 159.564706 
L 409.675565 154.332872 
L 411.967146 154.332872 
L 412.540041 153.4609 
L 413.685832 153.4609 
L 414.258727 152.588927 
L 415.404517 152.588927 
L 415.977413 151.716955 
L 417.123203 151.716955 
L 417.696099 150.844983 
L 418.841889 150.844983 
L 419.98768 149.101038 
L 421.13347 149.101038 
L 421.706366 148.229066 
L 422.279261 148.229066 
L 423.997947 145.613149 
L 424.570842 145.613149 
L 425.143737 144.741176 
L 425.716632 144.741176 
L 426.289528 142.997232 
L 426.862423 142.997232 
L 427.435318 142.12526 
L 428.581109 142.12526 
L 430.299795 139.509343 
L 432.591376 139.509343 
L 433.737166 137.765398 
L 434.882957 137.765398 
L 435.455852 132.533564 
L 436.601643 130.789619 
L 437.174538 130.789619 
L 438.893224 128.173702 
L 439.466119 126.429758 
L 440.039014 126.429758 
L 441.7577 123.813841 
L 442.330595 123.813841 
L 442.903491 122.069896 
L 443.476386 122.069896 
L 444.049281 120.325952 
L 445.195072 120.325952 
L 445.767967 119.453979 
L 446.340862 120.325952 
L 448.059548 117.710035 
L 448.632444 115.96609 
L 449.205339 115.96609 
L 449.778234 115.094118 
L 450.924025 115.094118 
L 451.49692 115.96609 
L 453.215606 121.197924 
L 454.361396 121.197924 
L 457.225873 116.838062 
L 457.798768 116.838062 
L 458.371663 117.710035 
L 458.944559 116.838062 
L 459.517454 116.838062 
L 460.090349 115.094118 
L 460.663244 115.96609 
L 461.23614 111.606228 
L 461.809035 108.990311 
L 462.38193 108.118339 
L 462.954825 108.118339 
L 463.527721 108.990311 
L 464.100616 108.118339 
L 464.673511 108.118339 
L 465.819302 106.374394 
L 466.965092 106.374394 
L 468.683778 103.758478 
L 469.829569 103.758478 
L 470.975359 102.014533 
L 471.548255 102.014533 
L 472.12115 104.63045 
L 472.694045 105.502422 
L 473.26694 107.246367 
L 473.839836 108.118339 
L 474.412731 108.118339 
L 474.985626 108.990311 
L 475.558522 108.118339 
L 476.704312 109.862284 
L 477.850103 109.862284 
L 478.422998 108.990311 
L 479.568789 110.734256 
L 480.141684 112.478201 
L 481.287474 112.478201 
L 481.86037 111.606228 
L 482.433265 114.222145 
L 483.00616 117.710035 
L 483.579055 119.453979 
L 484.151951 122.069896 
L 484.724846 122.069896 
L 485.297741 121.197924 
L 485.870637 121.197924 
L 486.443532 120.325952 
L 487.016427 118.582007 
L 487.589322 117.710035 
L 488.162218 117.710035 
L 488.735113 118.582007 
L 489.880903 118.582007 
L 490.453799 119.453979 
L 491.026694 121.197924 
L 492.172485 121.197924 
L 493.318275 119.453979 
L 493.89117 116.838062 
L 494.464066 115.094118 
L 495.036961 114.222145 
L 495.609856 116.838062 
L 496.182752 116.838062 
L 497.328542 122.069896 
L 497.901437 122.069896 
L 499.620123 127.30173 
L 500.193018 126.429758 
L 501.911704 118.582007 
L 502.4846 117.710035 
L 503.057495 117.710035 
L 504.203285 115.96609 
L 510.505133 115.96609 
L 512.223819 113.350173 
L 512.796715 111.606228 
L 513.36961 111.606228 
L 513.942505 112.478201 
L 515.088296 112.478201 
L 515.661191 113.350173 
L 516.234086 113.350173 
L 516.806982 114.222145 
L 519.098563 114.222145 
L 520.817248 116.838062 
L 523.681725 116.838062 
L 524.25462 115.96609 
L 524.827515 116.838062 
L 525.400411 116.838062 
L 525.973306 115.96609 
L 528.264887 115.96609 
L 528.837782 116.838062 
L 529.410678 115.96609 
L 530.556468 115.96609 
L 531.702259 114.222145 
L 533.99384 114.222145 
L 535.13963 112.478201 
L 535.712526 112.478201 
L 536.285421 111.606228 
L 536.858316 111.606228 
L 537.431211 110.734256 
L 538.577002 110.734256 
L 539.149897 109.862284 
L 539.722793 110.734256 
L 540.295688 109.862284 
L 540.868583 109.862284 
L 542.014374 108.118339 
L 542.587269 108.990311 
L 544.305955 108.990311 
L 545.451745 112.478201 
L 547.170431 115.094118 
L 548.316222 118.582007 
L 550.607803 118.582007 
L 552.326489 115.96609 
L 554.045175 115.96609 
L 554.61807 115.094118 
L 555.76386 115.094118 
L 556.336756 114.222145 
L 556.909651 115.094118 
L 557.482546 115.094118 
L 558.055441 114.222145 
L 559.201232 114.222145 
L 560.919918 111.606228 
L 562.065708 111.606228 
L 563.211499 109.862284 
L 563.784394 109.862284 
L 564.35729 108.990311 
L 564.930185 108.990311 
L 565.50308 108.118339 
L 566.075975 108.118339 
L 568.940452 103.758478 
L 569.513347 103.758478 
L 570.086242 102.886505 
L 572.377823 102.886505 
L 572.950719 102.014533 
L 574.096509 102.014533 
L 574.669405 102.886505 
L 575.2423 102.886505 
L 575.815195 104.63045 
L 576.960986 104.63045 
L 577.533881 103.758478 
L 578.679671 103.758478 
L 579.252567 104.63045 
L 579.825462 104.63045 
L 580.398357 103.758478 
L 580.971253 103.758478 
L 581.544148 102.886505 
L 582.117043 102.886505 
L 582.689938 102.014533 
L 583.262834 102.014533 
L 583.835729 101.142561 
L 584.98152 101.142561 
L 585.554415 100.270588 
L 586.12731 100.270588 
L 586.700205 99.398616 
L 587.273101 99.398616 
L 587.845996 98.526644 
L 588.991786 98.526644 
L 589.564682 97.654671 
L 590.710472 97.654671 
L 591.283368 96.782699 
L 591.856263 96.782699 
L 592.429158 95.910727 
L 593.002053 95.910727 
L 593.574949 95.038754 
L 594.720739 95.038754 
L 595.86653 93.29481 
L 597.585216 93.29481 
L 598.158111 92.422837 
L 599.303901 92.422837 
L 599.876797 91.550865 
L 601.595483 91.550865 
L 603.314168 88.934948 
L 603.887064 88.934948 
L 604.459959 88.062976 
L 605.032854 88.062976 
L 605.605749 87.191003 
L 606.178645 87.191003 
L 606.75154 86.319031 
L 609.616016 86.319031 
L 610.761807 84.575087 
L 611.334702 84.575087 
L 613.053388 81.95917 
L 614.199179 81.95917 
L 614.772074 81.087197 
L 615.344969 81.087197 
L 616.49076 79.343253 
L 617.063655 79.343253 
L 618.209446 77.599308 
L 619.355236 77.599308 
L 619.928131 76.727336 
L 621.646817 76.727336 
L 622.219713 75.855363 
L 623.365503 75.855363 
L 623.938398 76.727336 
L 625.084189 76.727336 
L 625.657084 75.855363 
L 626.229979 75.855363 
L 626.802875 76.727336 
L 627.948665 76.727336 
L 628.521561 75.855363 
L 629.667351 75.855363 
L 630.240246 74.983391 
L 630.813142 74.983391 
L 631.386037 74.111419 
L 631.958932 74.111419 
L 633.104723 72.367474 
L 633.677618 72.367474 
L 635.396304 69.751557 
L 635.969199 68.007612 
L 636.542094 68.007612 
L 637.11499 66.263668 
L 638.26078 64.519723 
L 638.833676 64.519723 
L 639.979466 62.775779 
L 640.552361 62.775779 
L 642.843943 59.287889 
L 644.562628 59.287889 
L 646.281314 56.671972 
L 646.854209 56.671972 
L 647.427105 55.8 
L 648 55.8 
L 648 55.8 
" style="fill:none;stroke:#1f77b4;stroke-linecap:square;stroke-width:1.5;"/>
   </g>
   <g id="line2d_22">
    <path clip-path="url(#pe7fa1ea060)" d="M 90 305.184083 
L 90.572895 305.184083 
L 91.145791 304.461608 
L 92.291581 304.461608 
L 92.864476 305.184083 
L 93.437372 304.461608 
L 96.874743 304.461608 
L 97.447639 303.739134 
L 102.603696 303.739134 
L 103.749487 305.184083 
L 104.322382 305.184083 
L 104.895277 304.461608 
L 106.041068 304.461608 
L 106.613963 303.739134 
L 107.186858 303.739134 
L 107.759754 302.294184 
L 108.332649 302.294184 
L 108.905544 301.571709 
L 109.478439 301.571709 
L 110.051335 300.849235 
L 110.62423 300.849235 
L 111.197125 300.12676 
L 112.915811 300.12676 
L 113.488706 299.404285 
L 115.780287 299.404285 
L 116.353183 297.959336 
L 116.926078 298.68181 
L 117.498973 297.959336 
L 119.217659 297.959336 
L 119.790554 298.68181 
L 120.36345 297.959336 
L 121.50924 297.959336 
L 122.082136 297.236861 
L 123.800821 297.236861 
L 124.373717 297.959336 
L 124.946612 299.404285 
L 129.529774 299.404285 
L 131.821355 302.294184 
L 132.394251 301.571709 
L 133.540041 301.571709 
L 134.112936 302.294184 
L 135.258727 306.629033 
L 136.404517 306.629033 
L 136.977413 307.351507 
L 137.550308 307.351507 
L 138.123203 306.629033 
L 138.696099 305.184083 
L 139.268994 305.184083 
L 139.841889 304.461608 
L 140.414784 304.461608 
L 140.98768 303.739134 
L 146.143737 303.739134 
L 146.716632 304.461608 
L 147.289528 303.739134 
L 149.008214 303.739134 
L 150.726899 301.571709 
L 151.299795 302.294184 
L 153.01848 300.12676 
L 153.591376 300.849235 
L 154.737166 300.849235 
L 155.310062 300.12676 
L 156.455852 300.12676 
L 157.028747 300.849235 
L 157.601643 300.12676 
L 158.174538 300.12676 
L 158.747433 299.404285 
L 159.893224 299.404285 
L 160.466119 298.68181 
L 162.184805 298.68181 
L 163.330595 297.236861 
L 164.476386 297.236861 
L 165.622177 295.791912 
L 166.195072 295.791912 
L 166.767967 295.069437 
L 167.340862 295.069437 
L 167.913758 293.624487 
L 168.486653 293.624487 
L 169.059548 292.179538 
L 169.632444 291.457063 
L 170.205339 291.457063 
L 170.778234 290.734588 
L 171.351129 290.734588 
L 171.924025 290.012114 
L 172.49692 290.012114 
L 173.069815 289.289639 
L 173.64271 289.289639 
L 174.788501 287.84469 
L 175.361396 288.567164 
L 175.934292 287.84469 
L 176.507187 288.567164 
L 177.080082 287.84469 
L 177.652977 287.84469 
L 178.225873 287.122215 
L 179.371663 287.122215 
L 180.517454 284.232316 
L 181.090349 283.509841 
L 181.663244 283.509841 
L 183.954825 280.619942 
L 184.527721 279.174993 
L 185.673511 277.730043 
L 186.246407 277.730043 
L 187.965092 275.562619 
L 188.537988 271.950245 
L 189.110883 272.67272 
L 191.402464 272.67272 
L 191.975359 273.395195 
L 194.26694 273.395195 
L 194.839836 272.67272 
L 195.412731 273.395195 
L 196.558522 273.395195 
L 197.131417 274.11767 
L 204.579055 274.11767 
L 205.151951 273.395195 
L 205.724846 273.395195 
L 206.297741 274.11767 
L 212.599589 274.11767 
L 213.172485 273.395195 
L 214.89117 273.395195 
L 216.036961 271.950245 
L 216.609856 271.950245 
L 217.755647 270.505296 
L 218.328542 268.337872 
L 219.474333 266.892922 
L 220.620123 266.892922 
L 221.193018 266.170448 
L 221.765914 266.170448 
L 222.338809 265.447973 
L 223.4846 265.447973 
L 224.63039 262.558074 
L 225.203285 261.835599 
L 225.776181 260.39065 
L 227.494867 258.223226 
L 228.640657 255.333327 
L 229.213552 254.610852 
L 229.786448 253.165903 
L 230.359343 252.443428 
L 230.932238 250.998478 
L 232.078029 249.553529 
L 232.650924 249.553529 
L 233.796715 250.998478 
L 236.088296 250.998478 
L 236.661191 250.276004 
L 238.379877 250.276004 
L 239.525667 248.831054 
L 241.817248 248.831054 
L 242.390144 248.108579 
L 242.963039 248.108579 
L 243.535934 247.386105 
L 244.10883 248.108579 
L 244.681725 247.386105 
L 246.973306 247.386105 
L 247.546201 246.66363 
L 249.264887 246.66363 
L 249.837782 245.941155 
L 250.410678 245.941155 
L 250.983573 245.218681 
L 251.556468 245.218681 
L 252.129363 244.496206 
L 252.702259 243.051256 
L 253.275154 243.051256 
L 254.420945 241.606307 
L 254.99384 241.606307 
L 255.566735 240.883832 
L 256.712526 240.883832 
L 257.285421 240.161357 
L 257.858316 240.161357 
L 258.431211 239.438883 
L 259.004107 239.438883 
L 259.577002 238.716408 
L 260.722793 238.716408 
L 261.868583 237.271458 
L 262.441478 237.271458 
L 263.014374 236.548984 
L 263.587269 237.271458 
L 265.305955 235.104034 
L 265.87885 235.104034 
L 266.451745 234.38156 
L 267.024641 234.38156 
L 267.597536 233.659085 
L 268.170431 232.214135 
L 269.889117 230.046711 
L 270.462012 230.046711 
L 271.034908 229.324236 
L 272.753593 229.324236 
L 273.326489 228.601762 
L 273.899384 228.601762 
L 275.045175 227.156812 
L 275.61807 227.156812 
L 276.190965 226.434338 
L 276.76386 226.434338 
L 277.336756 225.711863 
L 280.201232 225.711863 
L 280.774127 226.434338 
L 281.347023 226.434338 
L 281.919918 225.711863 
L 283.638604 225.711863 
L 284.784394 224.266913 
L 285.35729 224.266913 
L 285.930185 222.821964 
L 287.075975 221.377014 
L 287.648871 219.932065 
L 289.367556 217.764641 
L 289.940452 217.764641 
L 290.513347 217.042166 
L 291.659138 217.042166 
L 292.804928 215.597217 
L 293.377823 215.597217 
L 293.950719 214.874742 
L 297.38809 214.874742 
L 298.533881 213.429792 
L 299.106776 211.984843 
L 300.252567 210.539893 
L 300.825462 210.539893 
L 301.971253 209.094944 
L 303.689938 209.094944 
L 304.262834 208.372469 
L 304.835729 208.372469 
L 305.408624 209.094944 
L 309.418891 209.094944 
L 310.564682 207.649995 
L 313.429158 207.649995 
L 314.002053 206.92752 
L 315.147844 206.92752 
L 316.293634 205.48257 
L 316.86653 205.48257 
L 317.439425 204.760096 
L 318.01232 204.760096 
L 318.585216 204.037621 
L 320.303901 204.037621 
L 320.876797 204.760096 
L 321.449692 204.037621 
L 322.022587 204.760096 
L 323.168378 204.760096 
L 323.741273 204.037621 
L 324.314168 204.760096 
L 324.887064 204.760096 
L 325.459959 205.48257 
L 326.032854 205.48257 
L 327.178645 204.037621 
L 328.897331 204.037621 
L 329.470226 204.760096 
L 330.043121 204.037621 
L 330.616016 204.037621 
L 331.188912 202.592671 
L 333.480493 199.702773 
L 334.053388 198.257823 
L 334.626283 198.257823 
L 336.917864 195.367924 
L 339.782341 195.367924 
L 340.355236 196.090399 
L 341.501027 194.645449 
L 342.073922 194.645449 
L 342.646817 193.922975 
L 343.219713 193.922975 
L 343.792608 193.2005 
L 346.657084 193.2005 
L 347.229979 193.922975 
L 347.802875 193.922975 
L 348.37577 193.2005 
L 349.521561 193.2005 
L 350.667351 191.755551 
L 351.813142 191.755551 
L 352.386037 191.033076 
L 353.531828 191.033076 
L 354.677618 189.588126 
L 355.250513 189.588126 
L 355.823409 188.865652 
L 356.396304 188.865652 
L 356.969199 188.143177 
L 359.26078 188.143177 
L 359.833676 187.420702 
L 362.125257 187.420702 
L 363.271047 185.975753 
L 364.416838 185.975753 
L 364.989733 185.253278 
L 365.562628 185.253278 
L 366.708419 183.808329 
L 367.281314 183.808329 
L 367.854209 183.085854 
L 368.427105 181.640904 
L 369.572895 181.640904 
L 370.145791 180.91843 
L 370.718686 180.91843 
L 371.291581 180.195955 
L 371.864476 180.195955 
L 373.010267 178.751005 
L 374.156057 178.751005 
L 374.728953 178.028531 
L 376.447639 178.028531 
L 377.020534 177.306056 
L 381.030801 177.306056 
L 381.603696 176.583581 
L 382.176591 176.583581 
L 383.322382 175.138632 
L 389.62423 175.138632 
L 390.197125 174.416157 
L 390.770021 174.416157 
L 391.342916 172.971208 
L 392.488706 172.971208 
L 393.061602 172.248733 
L 399.36345 172.248733 
L 399.936345 172.971208 
L 400.50924 172.971208 
L 401.082136 173.693682 
L 401.655031 173.693682 
L 402.227926 172.971208 
L 402.800821 172.971208 
L 403.946612 171.526258 
L 404.519507 171.526258 
L 405.665298 170.081309 
L 406.811088 170.081309 
L 408.529774 167.913884 
L 409.102669 167.913884 
L 409.675565 167.19141 
L 410.24846 167.19141 
L 410.821355 166.468935 
L 411.967146 166.468935 
L 412.540041 165.74646 
L 413.112936 165.74646 
L 413.685832 165.023986 
L 414.831622 165.023986 
L 415.404517 164.301511 
L 415.977413 164.301511 
L 416.550308 163.579036 
L 417.696099 163.579036 
L 418.268994 162.856561 
L 418.841889 162.856561 
L 419.98768 161.411612 
L 421.13347 161.411612 
L 421.706366 160.689137 
L 422.279261 160.689137 
L 422.852156 159.966662 
L 423.425051 159.966662 
L 424.570842 158.521713 
L 425.143737 158.521713 
L 428.008214 154.909339 
L 429.726899 154.909339 
L 430.87269 153.46439 
L 432.591376 153.46439 
L 433.737166 152.01944 
L 434.310062 152.01944 
L 434.882957 152.741915 
L 435.455852 150.574491 
L 436.028747 149.129541 
L 436.601643 149.129541 
L 437.174538 148.407067 
L 437.747433 148.407067 
L 440.039014 145.517168 
L 440.61191 145.517168 
L 441.7577 144.072218 
L 442.330595 144.072218 
L 442.903491 143.349744 
L 443.476386 143.349744 
L 444.049281 142.627269 
L 444.622177 142.627269 
L 445.767967 141.182319 
L 446.340862 141.182319 
L 446.913758 140.459845 
L 447.486653 140.459845 
L 448.059548 139.014895 
L 449.205339 137.569946 
L 449.778234 136.124996 
L 450.351129 136.847471 
L 451.49692 136.847471 
L 452.069815 138.292421 
L 452.64271 138.292421 
L 453.215606 139.014895 
L 454.361396 139.014895 
L 456.080082 136.847471 
L 456.652977 136.847471 
L 457.225873 136.124996 
L 457.798768 136.124996 
L 458.371663 135.402522 
L 458.944559 135.402522 
L 460.090349 133.957572 
L 460.663244 133.957572 
L 461.23614 130.345199 
L 461.809035 128.900249 
L 462.38193 128.177774 
L 463.527721 128.177774 
L 464.100616 127.4553 
L 464.673511 127.4553 
L 465.819302 126.01035 
L 467.537988 126.01035 
L 468.683778 124.565401 
L 469.256674 124.565401 
L 469.829569 123.842926 
L 470.975359 123.842926 
L 471.548255 123.120451 
L 473.26694 125.287875 
L 476.131417 125.287875 
L 476.704312 126.01035 
L 477.277207 126.01035 
L 478.422998 124.565401 
L 478.995893 124.565401 
L 479.568789 125.287875 
L 480.141684 126.732825 
L 481.86037 126.732825 
L 483.00616 131.067673 
L 483.579055 131.790148 
L 484.151951 133.957572 
L 484.724846 134.680047 
L 485.870637 133.235097 
L 486.443532 133.235097 
L 487.016427 131.790148 
L 487.589322 131.067673 
L 488.162218 131.067673 
L 488.735113 131.790148 
L 490.453799 131.790148 
L 491.026694 133.235097 
L 491.599589 133.235097 
L 492.172485 132.512623 
L 492.74538 132.512623 
L 493.89117 131.067673 
L 495.036961 131.067673 
L 496.182752 133.957572 
L 496.755647 136.124996 
L 498.474333 138.292421 
L 499.047228 138.292421 
L 499.620123 136.847471 
L 500.765914 135.402522 
L 501.338809 133.235097 
L 504.203285 129.622724 
L 504.776181 130.345199 
L 507.640657 130.345199 
L 508.213552 129.622724 
L 508.786448 129.622724 
L 509.359343 128.900249 
L 510.505133 128.900249 
L 512.223819 126.732825 
L 513.36961 126.732825 
L 513.942505 126.01035 
L 515.088296 126.01035 
L 515.661191 126.732825 
L 516.806982 126.732825 
L 517.379877 127.4553 
L 517.952772 126.732825 
L 518.525667 126.732825 
L 519.098563 127.4553 
L 520.817248 127.4553 
L 521.390144 128.177774 
L 521.963039 127.4553 
L 523.681725 127.4553 
L 524.25462 126.732825 
L 525.973306 126.732825 
L 526.546201 126.01035 
L 530.556468 126.01035 
L 531.129363 125.287875 
L 532.848049 125.287875 
L 533.99384 123.842926 
L 534.566735 123.842926 
L 535.712526 122.397977 
L 536.285421 122.397977 
L 536.858316 121.675502 
L 537.431211 121.675502 
L 538.004107 120.230552 
L 539.149897 120.230552 
L 539.722793 119.508078 
L 540.868583 119.508078 
L 542.014374 118.063128 
L 544.305955 118.063128 
L 544.87885 118.785603 
L 545.451745 120.230552 
L 546.024641 120.953027 
L 546.597536 122.397977 
L 547.170431 123.120451 
L 547.743326 124.565401 
L 548.316222 125.287875 
L 550.034908 125.287875 
L 551.180698 123.842926 
L 551.753593 122.397977 
L 552.326489 122.397977 
L 552.899384 121.675502 
L 553.472279 121.675502 
L 554.045175 120.953027 
L 555.190965 120.953027 
L 555.76386 120.230552 
L 556.909651 120.230552 
L 557.482546 119.508078 
L 558.628337 119.508078 
L 559.201232 118.785603 
L 559.774127 118.785603 
L 562.065708 115.895704 
L 562.638604 115.895704 
L 563.784394 114.450754 
L 564.35729 114.450754 
L 565.50308 113.005805 
L 566.075975 113.005805 
L 566.648871 112.28333 
L 567.221766 110.838381 
L 568.367556 109.393431 
L 568.940452 109.393431 
L 570.086242 107.948482 
L 570.659138 107.948482 
L 571.232033 107.226007 
L 571.804928 107.948482 
L 572.377823 107.226007 
L 572.950719 107.226007 
L 573.523614 106.503532 
L 574.669405 106.503532 
L 575.815195 107.948482 
L 576.960986 107.948482 
L 577.533881 107.226007 
L 580.398357 107.226007 
L 581.544148 105.781058 
L 582.117043 105.781058 
L 582.689938 105.058583 
L 583.262834 105.058583 
L 583.835729 104.336108 
L 584.408624 104.336108 
L 584.98152 103.613634 
L 585.554415 103.613634 
L 586.12731 102.891159 
L 586.700205 102.891159 
L 587.273101 102.168684 
L 587.845996 102.168684 
L 588.418891 101.446209 
L 588.991786 101.446209 
L 589.564682 100.723735 
L 590.137577 100.723735 
L 590.710472 100.00126 
L 591.283368 100.00126 
L 591.856263 99.278785 
L 593.002053 99.278785 
L 594.147844 97.833836 
L 594.720739 97.833836 
L 595.293634 97.111361 
L 595.86653 97.111361 
L 596.439425 96.388886 
L 597.585216 96.388886 
L 598.158111 95.666412 
L 598.731006 95.666412 
L 599.876797 94.221462 
L 601.595483 94.221462 
L 602.741273 92.776513 
L 603.314168 92.776513 
L 604.459959 91.331563 
L 605.032854 91.331563 
L 605.605749 90.609088 
L 606.75154 90.609088 
L 607.324435 89.886614 
L 609.043121 89.886614 
L 609.616016 89.164139 
L 610.188912 89.164139 
L 611.334702 87.719189 
L 611.907598 87.719189 
L 613.053388 86.27424 
L 613.626283 86.27424 
L 614.199179 85.551765 
L 614.772074 85.551765 
L 615.344969 84.829291 
L 615.917864 84.829291 
L 617.063655 83.384341 
L 617.63655 83.384341 
L 618.209446 82.661866 
L 618.782341 82.661866 
L 619.355236 81.939392 
L 621.073922 81.939392 
L 621.646817 81.216917 
L 627.948665 81.216917 
L 628.521561 80.494442 
L 629.094456 80.494442 
L 629.667351 79.771967 
L 630.240246 79.771967 
L 630.813142 79.049493 
L 631.386037 79.049493 
L 631.958932 78.327018 
L 632.531828 78.327018 
L 635.396304 74.714644 
L 635.969199 73.269695 
L 636.542094 73.269695 
L 637.11499 71.824745 
L 638.26078 70.379796 
L 639.406571 70.379796 
L 640.552361 68.934847 
L 641.125257 68.934847 
L 642.843943 66.767422 
L 644.562628 66.767422 
L 645.708419 65.322473 
L 646.281314 65.322473 
L 646.854209 64.599998 
L 647.427105 64.599998 
L 648 63.877523 
L 648 63.877523 
" style="fill:none;stroke:#ff7f0e;stroke-linecap:square;stroke-width:1.5;"/>
   </g>
   <g id="patch_3">
    <path d="M 90 320.4 
L 90 43.2 
" style="fill:none;stroke:#000000;stroke-linecap:square;stroke-linejoin:miter;stroke-width:0.8;"/>
   </g>
   <g id="patch_4">
    <path d="M 648 320.4 
L 648 43.2 
" style="fill:none;stroke:#000000;stroke-linecap:square;stroke-linejoin:miter;stroke-width:0.8;"/>
   </g>
   <g id="patch_5">
    <path d="M 90 320.4 
L 648 320.4 
" style="fill:none;stroke:#000000;stroke-linecap:square;stroke-linejoin:miter;stroke-width:0.8;"/>
   </g>
   <g id="patch_6">
    <path d="M 90 43.2 
L 648 43.2 
" style="fill:none;stroke:#000000;stroke-linecap:square;stroke-linejoin:miter;stroke-width:0.8;"/>
   </g>
   <g id="text_11">
    <!-- 基金累积净值 -->
    <defs>
     <path d="M 98.734375 10.890625 
Q 95.515625 6.890625 93.453125 3.859375 
Q 84.46875 8.109375 76.953125 14.015625 
L 76.953125 8.640625 
L 53.609375 8.640625 
L 53.609375 -1.515625 
L 91.796875 -1.515625 
L 91.796875 -7.859375 
L 8.109375 -7.859375 
L 8.109375 -1.515625 
L 46.296875 -1.515625 
L 46.296875 8.640625 
L 22.65625 8.640625 
L 22.65625 13.96875 
Q 14.890625 7.46875 6.453125 2.6875 
Q 4.59375 5.328125 1.375 8.84375 
Q 16.40625 16.15625 27.390625 27.390625 
L 2.4375 27.390625 
L 2.4375 33.734375 
L 21.875 33.734375 
L 21.875 66.453125 
L 5.46875 66.453125 
L 5.46875 72.796875 
L 21.875 72.796875 
L 21.875 83.34375 
L 29.203125 83.34375 
L 29.203125 72.796875 
L 71.09375 72.796875 
L 71.09375 83.34375 
L 78.421875 83.34375 
L 78.421875 72.796875 
L 94.828125 72.796875 
L 94.828125 66.453125 
L 78.421875 66.453125 
L 78.421875 33.734375 
L 97.5625 33.734375 
L 97.5625 27.390625 
L 71.875 27.390625 
Q 82.859375 16.453125 98.734375 10.890625 
z
M 46.296875 24.265625 
L 53.609375 24.265625 
L 53.609375 14.796875 
L 75.984375 14.796875 
Q 69 20.40625 63.234375 27.390625 
L 36.328125 27.390625 
Q 30.21875 20.453125 23.640625 14.796875 
L 46.296875 14.796875 
z
M 29.203125 33.734375 
L 71.09375 33.734375 
L 71.09375 40.671875 
L 29.203125 40.671875 
z
M 29.203125 46.734375 
L 71.09375 46.734375 
L 71.09375 53.5625 
L 29.203125 53.5625 
z
M 29.203125 59.625 
L 71.09375 59.625 
L 71.09375 66.453125 
L 29.203125 66.453125 
z
" id="MicrosoftYaHei-57fa"/>
     <path d="M 4.6875 -2.203125 
L 46.09375 -2.203125 
L 46.09375 21.625 
L 11.140625 21.625 
L 11.140625 28.765625 
L 46.09375 28.765625 
L 46.09375 42.4375 
L 20.703125 42.4375 
L 20.703125 49.265625 
Q 13.765625 44.875 5.671875 40.484375 
Q 3.609375 44.1875 0.78125 47.796875 
Q 33.296875 63.03125 46.78125 82.765625 
L 57.421875 82.765625 
L 55.171875 80.03125 
Q 70.703125 60.203125 99.125 49.171875 
Q 96.484375 45.453125 93.953125 41.359375 
Q 86.328125 44.578125 79.203125 49.078125 
L 79.203125 42.4375 
L 53.90625 42.4375 
L 53.90625 28.765625 
L 88.671875 28.765625 
L 88.671875 21.625 
L 53.90625 21.625 
L 53.90625 -2.203125 
L 95.515625 -2.203125 
L 95.515625 -9.421875 
L 4.6875 -9.421875 
z
M 50.09375 74.46875 
Q 40.046875 61.765625 21.09375 49.5625 
L 78.421875 49.5625 
Q 63.1875 59.234375 50.09375 74.46875 
z
M 63.96875 4.4375 
Q 71.875 12.640625 77.34375 20.453125 
L 84.1875 16.0625 
Q 77.34375 7.5625 69.828125 -0.25 
z
M 15.625 15.671875 
L 21.390625 20.265625 
Q 28.515625 13.03125 35.359375 5.21875 
L 28.71875 -0.046875 
Q 22.859375 7.671875 15.625 15.671875 
z
" id="MicrosoftYaHei-91d1"/>
     <path d="M 71.09375 31.109375 
Q 84.765625 19.96875 92.875 12.0625 
L 87.5 6.59375 
Q 83.6875 10.546875 79.640625 14.40625 
Q 67.71875 13.921875 55.5625 13.375 
L 55.5625 0.34375 
Q 55.5625 -11.765625 43.359375 -11.765625 
Q 37.109375 -11.765625 29.390625 -11.671875 
Q 28.8125 -7.765625 27.9375 -3.5625 
Q 35.453125 -4.25 41.40625 -4.25 
Q 47.953125 -4.25 47.953125 2.875 
L 47.953125 13.03125 
Q 34.859375 12.40625 21.484375 11.765625 
Q 17.1875 11.578125 13.1875 10.984375 
L 10.546875 18.40625 
Q 16.5 19.09375 23.921875 21.921875 
Q 33.9375 25.78125 45.5625 31 
Q 33.40625 30.609375 23.921875 30.03125 
Q 19.234375 29.734375 16.890625 29.4375 
L 14.359375 35.890625 
Q 19.234375 36.859375 24.21875 39.109375 
Q 30.765625 42.046875 37.15625 45.453125 
L 18.84375 45.453125 
L 18.84375 42.625 
L 11.421875 42.625 
L 11.421875 79.734375 
L 88.671875 79.734375 
L 88.671875 42.625 
L 81.25 42.625 
L 81.25 45.453125 
L 48.828125 45.453125 
Q 38.03125 39.984375 27.546875 35.5 
Q 40.328125 35.84375 57.328125 36.46875 
Q 64.0625 39.65625 71.296875 43.3125 
L 76.375 38.03125 
Q 53.03125 27 28.515625 17.921875 
Q 53.171875 19 73.1875 20.265625 
Q 69.625 23.4375 65.921875 26.515625 
z
M 53.609375 51.125 
L 81.25 51.125 
L 81.25 60.015625 
L 53.609375 60.015625 
z
M 18.84375 51.125 
L 46.390625 51.125 
L 46.390625 60.015625 
L 18.84375 60.015625 
z
M 81.25 74.078125 
L 53.609375 74.078125 
L 53.609375 65.28125 
L 81.25 65.28125 
z
M 18.84375 65.28125 
L 46.390625 65.28125 
L 46.390625 74.078125 
L 18.84375 74.078125 
z
M 29.59375 8.9375 
L 33.984375 2.875 
Q 19.734375 -4.25 5.953125 -9.625 
Q 4.5 -6.59375 2.546875 -3.078125 
Q 17.09375 2.59375 29.59375 8.9375 
z
M 69.234375 8.546875 
Q 83.796875 3.65625 97.171875 -2.296875 
L 94.140625 -8.9375 
Q 81.0625 -2.984375 65.921875 2.09375 
z
" id="MicrosoftYaHei-7d2f"/>
     <path d="M 43.953125 74.75 
L 93.359375 74.75 
L 93.359375 23.875 
L 85.9375 23.875 
L 85.9375 28.5625 
L 51.375 28.5625 
L 51.375 23.875 
L 43.953125 23.875 
z
M 1.375 13.328125 
Q 10.453125 27 16.5 46.046875 
L 1.859375 46.046875 
L 1.859375 52.875 
L 17.484375 52.875 
L 17.484375 68.40625 
Q 11.140625 67.921875 3.8125 67.4375 
Q 3.328125 70.953125 2.34375 74.5625 
Q 22.265625 75.640625 37.109375 77.78125 
L 38.875 70.359375 
Q 32.90625 69.671875 24.703125 69 
L 24.703125 52.875 
L 39.265625 52.875 
L 39.265625 46.046875 
L 24.703125 46.046875 
L 24.703125 32.28125 
L 28.609375 35.890625 
Q 34.578125 30.03125 41.3125 22.515625 
L 35.75 17.625 
Q 30.46875 24.078125 24.703125 30.21875 
L 24.703125 -13.328125 
L 17.484375 -13.328125 
L 17.484375 30.125 
Q 12.203125 15.578125 4.78125 4.9375 
Q 3.21875 9.234375 1.375 13.328125 
z
M 85.9375 68.109375 
L 51.375 68.109375 
L 51.375 35.203125 
L 85.9375 35.203125 
z
M 54.296875 17.625 
L 60.75 13.03125 
Q 49.609375 -1.03125 39.359375 -11.859375 
Q 37.015625 -9.328125 33.796875 -6.5 
Q 45.703125 5.515625 54.296875 17.625 
z
M 74.609375 12.9375 
L 80.671875 17.140625 
Q 89.65625 6.890625 99.3125 -5.8125 
L 92.484375 -10.984375 
Q 83.890625 1.703125 74.609375 12.9375 
z
" id="MicrosoftYaHei-79ef"/>
     <path d="M 31.453125 19.96875 
L 55.859375 19.96875 
L 55.859375 30.421875 
L 26.65625 30.421875 
L 26.65625 37.453125 
L 55.859375 37.453125 
L 55.859375 47.796875 
L 33.203125 47.796875 
L 33.203125 51.515625 
Q 31.390625 49.65625 29.59375 47.90625 
Q 27.9375 49.65625 24.3125 53.375 
Q 36.71875 65.09375 47.65625 83.640625 
L 55.078125 81.6875 
Q 53.125 78.125 51.03125 74.75 
L 80.375 74.75 
L 80.375 68.21875 
L 69.046875 54.640625 
L 89.0625 54.640625 
L 89.0625 37.453125 
L 97.953125 37.453125 
L 97.953125 30.421875 
L 89.0625 30.421875 
L 89.0625 9.125 
L 81.640625 9.125 
L 81.640625 13.140625 
L 63.484375 13.140625 
L 63.484375 0.046875 
Q 63.484375 -11.96875 51.171875 -12.0625 
Q 44.734375 -12.0625 38.875 -12.0625 
Q 38.1875 -7.859375 37.3125 -3.953125 
Q 43.453125 -4.640625 49.421875 -4.640625 
Q 55.859375 -4.640625 55.859375 1.8125 
L 55.859375 13.140625 
L 31.453125 13.140625 
z
M 70.90625 68.015625 
L 46.625 68.015625 
Q 41.703125 60.890625 36.078125 54.640625 
L 60.109375 54.640625 
z
M 14.453125 36.46875 
Q 17.96875 34.71875 21.78125 33.15625 
Q 16.609375 15.484375 11.140625 -3.765625 
L 3.21875 -0.734375 
Q 9.96875 18.109375 14.453125 36.46875 
z
M 63.484375 19.96875 
L 81.640625 19.96875 
L 81.640625 30.421875 
L 63.484375 30.421875 
z
M 10.359375 76.421875 
Q 16.609375 65.671875 21.96875 54.828125 
Q 17.96875 52.6875 14.65625 51.125 
Q 9.671875 62.359375 4 73.09375 
z
M 81.640625 47.796875 
L 63.484375 47.796875 
L 63.484375 37.453125 
L 81.640625 37.453125 
z
" id="MicrosoftYaHei-51c0"/>
     <path d="M 25.296875 -3.375 
L 35.15625 -3.375 
L 35.15625 57.078125 
L 58.203125 57.078125 
L 58.203125 65.96875 
L 29.890625 65.96875 
L 29.890625 72.609375 
L 58.203125 72.609375 
L 58.203125 82.953125 
L 65.625 82.953125 
L 65.625 72.609375 
L 96.390625 72.609375 
L 96.390625 65.96875 
L 65.625 65.96875 
L 65.625 57.078125 
L 89.265625 57.078125 
L 89.265625 -3.375 
L 98.53125 -3.375 
L 98.53125 -10.015625 
L 25.296875 -10.015625 
z
M 1.078125 35.109375 
Q 14.15625 54.640625 21.390625 82.46875 
L 28.609375 80.328125 
Q 24.703125 67.71875 20.125 56.6875 
L 20.125 -12.75 
L 12.984375 -12.75 
L 12.984375 41.65625 
Q 8.796875 33.84375 4.109375 27.09375 
Q 2.734375 31.203125 1.078125 35.109375 
z
M 42.390625 -3.375 
L 82.03125 -3.375 
L 82.03125 5.515625 
L 42.390625 5.515625 
z
M 82.03125 50.640625 
L 42.390625 50.640625 
L 42.390625 41.84375 
L 82.03125 41.84375 
z
M 42.390625 26.8125 
L 82.03125 26.8125 
L 82.03125 35.59375 
L 42.390625 35.59375 
z
M 42.390625 11.765625 
L 82.03125 11.765625 
L 82.03125 20.5625 
L 42.390625 20.5625 
z
" id="MicrosoftYaHei-503c"/>
    </defs>
    <g transform="translate(333 37.2)scale(0.12 -0.12)">
     <use xlink:href="#MicrosoftYaHei-57fa"/>
     <use x="100" xlink:href="#MicrosoftYaHei-91d1"/>
     <use x="200" xlink:href="#MicrosoftYaHei-7d2f"/>
     <use x="300" xlink:href="#MicrosoftYaHei-79ef"/>
     <use x="400" xlink:href="#MicrosoftYaHei-51c0"/>
     <use x="500" xlink:href="#MicrosoftYaHei-503c"/>
    </g>
   </g>
   <g id="legend_1">
    <g id="patch_7">
     <path d="M 97 82.159375 
L 240.959375 82.159375 
Q 242.959375 82.159375 242.959375 80.159375 
L 242.959375 50.2 
Q 242.959375 48.2 240.959375 48.2 
L 97 48.2 
Q 95 48.2 95 50.2 
L 95 80.159375 
Q 95 82.159375 97 82.159375 
z
" style="fill:#ffffff;opacity:0.8;stroke:#cccccc;stroke-linejoin:miter;"/>
    </g>
    <g id="line2d_23">
     <path d="M 99 56.69375 
L 119 56.69375 
" style="fill:none;stroke:#1f77b4;stroke-linecap:square;stroke-width:1.5;"/>
    </g>
    <g id="line2d_24"/>
    <g id="text_12">
     <!-- 招商双债增强债券(LOF)C -->
     <defs>
      <path d="M 39.453125 30.609375 
L 91.609375 30.609375 
L 91.609375 -12.9375 
L 84.1875 -12.9375 
L 84.1875 -6.203125 
L 46.875 -6.203125 
L 46.875 -13.03125 
L 39.453125 -13.03125 
z
M 36.328125 77.875 
L 93.65625 77.875 
Q 93.453125 66.0625 92.78125 53.65625 
Q 91.890625 39.203125 78.328125 38.921875 
Q 71.296875 38.71875 61.234375 38.921875 
Q 60.546875 43.796875 59.859375 47.015625 
Q 69.046875 46.234375 76.46875 46.234375 
Q 84.765625 46.234375 85.25 54.734375 
Q 85.84375 61.859375 85.9375 70.953125 
L 60.0625 70.953125 
Q 59.625 58.59375 55.953125 51.703125 
Q 50.984375 42.328125 37.59375 34.515625 
Q 35.546875 37.359375 32.515625 40.96875 
Q 44.734375 47.609375 48.734375 54.546875 
Q 52.09375 59.71875 52.4375 70.953125 
L 36.328125 70.953125 
z
M 1.375 30.515625 
Q 8.546875 32.171875 15.140625 33.796875 
L 15.140625 57.078125 
L 2.25 57.078125 
L 2.25 63.921875 
L 15.140625 63.921875 
L 15.140625 82.859375 
L 22.359375 82.859375 
L 22.359375 63.921875 
L 35.15625 63.921875 
L 35.15625 57.078125 
L 22.359375 57.078125 
L 22.359375 35.59375 
Q 27.640625 36.96875 32.515625 38.328125 
Q 32.90625 33.34375 33.203125 31.109375 
Q 27.59375 29.59375 22.359375 28.171875 
L 22.359375 -1.125 
Q 22.359375 -11.859375 12.59375 -11.859375 
Q 9.28125 -11.859375 3.421875 -11.671875 
Q 3.03125 -7.671875 2.15625 -3.953125 
Q 7.8125 -4.640625 10.84375 -4.640625 
Q 15.140625 -4.640625 15.140625 0.34375 
L 15.140625 26.171875 
Q 8.40625 24.265625 2.34375 22.515625 
z
M 84.1875 23.6875 
L 46.875 23.6875 
L 46.875 0.53125 
L 84.1875 0.53125 
z
" id="MicrosoftYaHei-62db"/>
      <path d="M 9.375 51.703125 
L 33.109375 51.703125 
Q 29.734375 56.640625 25.78125 61.46875 
L 31.734375 65.484375 
Q 36.421875 60.015625 40.234375 55.328125 
L 34.96875 51.703125 
L 57.125 51.703125 
Q 62.0625 58.0625 66.21875 65.09375 
L 73.640625 60.796875 
Q 69 55.28125 65.828125 51.703125 
L 90.140625 51.703125 
L 90.140625 0.53125 
Q 90.140625 -11.765625 78.90625 -11.859375 
Q 72.859375 -11.96875 65.234375 -11.765625 
Q 64.453125 -6.109375 63.765625 -3.5625 
Q 71.484375 -4.34375 76.46875 -4.34375 
Q 82.8125 -4.34375 82.8125 2.6875 
L 82.8125 44.96875 
L 16.703125 44.96875 
L 16.703125 -13.03125 
L 9.375 -13.03125 
z
M 30.46875 -3.375 
L 30.46875 28.078125 
L 69.625 28.078125 
L 69.625 1.8125 
L 37.5 1.8125 
L 37.5 -3.375 
z
M 2.25 72.609375 
L 46.828125 72.609375 
Q 44.96875 76.078125 42.28125 80.328125 
L 49.8125 83.734375 
Q 52.734375 78.71875 55.953125 72.609375 
L 98.046875 72.609375 
L 98.046875 65.671875 
L 2.25 65.671875 
z
M 62.59375 8.0625 
L 62.59375 21.828125 
L 37.5 21.828125 
L 37.5 8.0625 
z
M 37.984375 43.890625 
L 43.265625 38.8125 
Q 31.84375 29.046875 21.875 21.625 
Q 18.953125 25.640625 17.28125 27.390625 
Q 28.03125 34.515625 37.984375 43.890625 
z
M 55.171875 38.53125 
L 59.46875 43.890625 
Q 73.921875 34.8125 81.34375 29.34375 
L 76.46875 23.1875 
Q 66.796875 31 55.171875 38.53125 
z
" id="MicrosoftYaHei-5546"/>
      <path d="M 46.09375 68.5 
L 46.09375 75.921875 
L 92.09375 75.921875 
L 92.09375 68.796875 
Q 87.9375 33.5 74.21875 14.890625 
Q 84.578125 2.875 98.828125 -3.765625 
Q 95.40625 -7.859375 92.484375 -11.1875 
Q 79.25 -2.828125 69.28125 8.84375 
Q 58.25 -3.46875 39.453125 -13.53125 
Q 37.703125 -10.984375 34.28125 -6.6875 
Q 53.21875 2.484375 64.359375 15.046875 
Q 51.078125 33.734375 48.734375 68.5 
z
M 3.90625 56.78125 
L 10.0625 60.59375 
Q 18.953125 47.515625 27.78125 33.6875 
Q 33.734375 49.421875 35.546875 68.3125 
L 2.734375 68.3125 
L 2.734375 75.734375 
L 43.359375 75.734375 
L 43.359375 68.3125 
Q 39.984375 43.0625 32.671875 25.921875 
Q 39.203125 15.625 45.703125 4.828125 
L 39.265625 -0.140625 
Q 33.796875 9.125 28.609375 17.671875 
Q 20.265625 2.390625 7.125 -10.203125 
Q 4.109375 -6.984375 1.078125 -4.734375 
Q 16.359375 9.625 24.078125 25.09375 
Q 13.28125 42.71875 3.90625 56.78125 
z
M 83.890625 68.5 
L 55.90625 68.5 
Q 58.40625 37.3125 69.1875 21.34375 
Q 80.8125 38.875 83.890625 68.5 
z
" id="MicrosoftYaHei-53cc"/>
      <path d="M 26.859375 47.40625 
L 58.984375 47.40625 
L 58.984375 54.34375 
L 34.1875 54.34375 
L 34.1875 60.5 
L 58.984375 60.5 
L 58.984375 67.328125 
L 31.0625 67.328125 
L 31.0625 73.484375 
L 58.984375 73.484375 
L 58.984375 82.171875 
L 66.3125 82.171875 
L 66.3125 73.484375 
L 95.125 73.484375 
L 95.125 67.328125 
L 66.3125 67.328125 
L 66.3125 60.5 
L 90.328125 60.5 
L 90.328125 54.34375 
L 66.3125 54.34375 
L 66.3125 47.40625 
L 97.953125 47.40625 
L 97.953125 41.265625 
L 26.859375 41.265625 
z
M 1.265625 35.203125 
Q 12.890625 54.25 19.34375 82.375 
L 26.46875 81.109375 
Q 23.640625 70.65625 20.40625 61.375 
L 20.40625 -13.71875 
L 13.28125 -13.71875 
L 13.28125 44.09375 
Q 8.890625 35.015625 3.90625 27.390625 
Q 2.734375 31.390625 1.265625 35.203125 
z
M 34.859375 34.625 
L 89.15625 34.625 
L 89.15625 4.4375 
L 82.03125 4.4375 
L 82.03125 28.265625 
L 42 28.265625 
L 42 3.953125 
L 34.859375 3.953125 
z
M 58.5 25.140625 
L 65.625 25.140625 
Q 65.625 17.046875 64.0625 10.984375 
Q 80.5625 2.78125 97.265625 -7.765625 
L 92.875 -14.015625 
Q 77.546875 -3.953125 61.921875 4.9375 
Q 60.546875 2.09375 58.6875 0.046875 
Q 50.875 -8.9375 31.453125 -13.921875 
Q 28.515625 -8.453125 27.25 -6.890625 
Q 45.90625 -2.875 52.25 3.859375 
Q 58.5 9.8125 58.5 25.140625 
z
" id="MicrosoftYaHei-503a"/>
      <path d="M 34.1875 69.671875 
L 50.921875 69.671875 
Q 47.515625 74.703125 43.359375 79.9375 
L 48.921875 83.84375 
Q 54 77.984375 57.71875 72.90625 
L 53.171875 69.671875 
L 69.578125 69.671875 
Q 74.359375 76.375 78.90625 83.9375 
L 85.9375 79.9375 
Q 81.78125 74.5625 77.78125 69.671875 
L 94.34375 69.671875 
L 94.34375 33.15625 
L 87.5 33.15625 
L 87.5 36.078125 
L 41.015625 36.078125 
L 41.015625 33.15625 
L 34.1875 33.15625 
z
M 38.09375 28.078125 
L 90.4375 28.078125 
L 90.4375 -13.234375 
L 83.40625 -13.234375 
L 83.40625 -8.546875 
L 45.125 -8.546875 
L 45.125 -13.234375 
L 38.09375 -13.234375 
z
M 1.265625 6.6875 
Q 7.28125 8.40625 13.96875 10.5 
L 13.96875 50.828125 
L 2.25 50.828125 
L 2.25 57.765625 
L 13.96875 57.765625 
L 13.96875 82.171875 
L 21.1875 82.171875 
L 21.1875 57.765625 
L 31.25 57.765625 
L 31.25 50.828125 
L 21.1875 50.828125 
L 21.1875 12.796875 
Q 26.703125 14.546875 32.71875 16.546875 
Q 32.90625 11.859375 33.203125 8.640625 
Q 20.40625 4.9375 3.90625 -0.828125 
z
M 87.5 63.8125 
L 67.578125 63.8125 
L 67.578125 41.9375 
L 87.5 41.9375 
z
M 41.015625 41.9375 
L 60.84375 41.9375 
L 60.84375 63.8125 
L 41.015625 63.8125 
z
M 83.40625 22.015625 
L 45.125 22.015625 
L 45.125 12.640625 
L 83.40625 12.640625 
z
M 45.125 -2.484375 
L 83.40625 -2.484375 
L 83.40625 6.78125 
L 45.125 6.78125 
z
M 83.59375 56.390625 
Q 78.21875 47.90625 75.875 45.0625 
L 70.609375 48.1875 
Q 74.125 52.984375 77.828125 59.8125 
z
M 44.734375 56.203125 
L 49.703125 59.421875 
Q 54.109375 53.765625 57.328125 48.78125 
L 51.859375 45.265625 
Q 48.734375 50.4375 44.734375 56.203125 
z
" id="MicrosoftYaHei-589e"/>
      <path d="M 82.03125 7.28125 
L 88.578125 10.40625 
Q 94.234375 0.4375 99.421875 -10.015625 
L 92.09375 -13.71875 
Q 90.53125 -10.015625 88.875 -6.5 
Q 58.59375 -8.546875 34.671875 -10.203125 
L 33.59375 -2.09375 
Q 48.25 -1.515625 62.015625 -0.921875 
L 62.015625 13.53125 
L 45.21875 13.53125 
L 45.21875 9.71875 
L 37.984375 9.71875 
L 37.984375 40.875 
L 62.015625 40.875 
L 62.015625 51.515625 
L 49.125 51.515625 
L 49.125 47.609375 
L 41.890625 47.609375 
L 41.890625 77.6875 
L 89.546875 77.6875 
L 89.546875 47.609375 
L 82.328125 47.609375 
L 82.328125 51.515625 
L 69.4375 51.515625 
L 69.4375 40.875 
L 93.5625 40.875 
L 93.5625 13.53125 
L 69.4375 13.53125 
L 69.4375 -0.640625 
Q 77.734375 -0.34375 85.75 0.046875 
Q 83.890625 3.765625 82.03125 7.28125 
z
M 6.640625 54.15625 
L 25.78125 54.15625 
L 25.78125 70.5625 
L 3.71875 70.5625 
L 3.71875 77.203125 
L 33.015625 77.203125 
L 33.015625 43.3125 
L 25.78125 43.3125 
L 25.78125 47.515625 
L 12.984375 47.515625 
L 11.234375 32.375 
L 32.125 32.375 
Q 31.15625 11.578125 30.375 2 
Q 29.5 -11.28125 17.1875 -11.28125 
Q 12.796875 -11.28125 6.640625 -11.1875 
Q 6.0625 -7.5625 5.078125 -3.375 
Q 11.421875 -3.859375 15.921875 -3.859375 
Q 22.5625 -3.859375 23.046875 2.984375 
Q 23.828125 12.9375 24.421875 25.734375 
L 3.515625 25.734375 
z
M 82.328125 71.046875 
L 49.125 71.046875 
L 49.125 58.15625 
L 82.328125 58.15625 
z
M 86.328125 20.171875 
L 86.328125 34.234375 
L 69.4375 34.234375 
L 69.4375 20.171875 
z
M 45.21875 20.171875 
L 62.015625 20.171875 
L 62.015625 34.234375 
L 45.21875 34.234375 
z
" id="MicrosoftYaHei-5f3a"/>
      <path d="M 2.734375 44.671875 
L 31.0625 44.671875 
Q 35.15625 50.046875 38.09375 56.109375 
L 6.9375 56.109375 
L 6.9375 62.75 
L 41.015625 62.75 
Q 44.625 72.015625 46.96875 83.0625 
L 54.78125 81.390625 
Q 52.15625 71.34375 49.125 62.75 
L 92.578125 62.75 
L 92.578125 56.109375 
L 46.578125 56.109375 
Q 43.953125 50.140625 40.234375 44.671875 
L 97.5625 44.671875 
L 97.5625 38.03125 
L 71 38.03125 
Q 81.640625 26.515625 98.734375 23 
Q 96 19.484375 93.359375 15.578125 
Q 84.96875 18.40625 78.125 22.90625 
Q 76.765625 11.28125 75.484375 1.8125 
Q 73.4375 -11.578125 60.359375 -11.46875 
Q 56.0625 -11.46875 44.34375 -11.28125 
Q 43.65625 -7.375 42.28125 -3.265625 
Q 50.984375 -3.953125 58.109375 -3.953125 
Q 66.703125 -3.953125 67.875 3.078125 
Q 68.75 8.546875 69.828125 18.21875 
L 40.71875 18.21875 
Q 38.875 5.125 32.90625 -1.421875 
Q 26.46875 -8.84375 9.1875 -14.109375 
Q 6.84375 -9.90625 4.890625 -6.984375 
Q 21 -2.875 26.953125 3.953125 
Q 31.640625 9.125 33.015625 18.21875 
L 19.53125 18.21875 
L 19.53125 23.296875 
Q 13.375 18.703125 6.25 14.703125 
Q 4.203125 18.015625 1.375 21.234375 
Q 15.625 28.171875 25.296875 38.03125 
L 2.734375 38.03125 
z
M 21.484375 24.859375 
L 75.203125 24.859375 
Q 67.78125 30.328125 62.3125 38.03125 
L 35.15625 38.03125 
Q 29.296875 30.90625 21.484375 24.859375 
z
M 66.015625 67.53125 
Q 72.5625 74.265625 77.4375 81.6875 
L 84.1875 77.484375 
Q 78.609375 70.0625 71.875 63.140625 
z
M 14.359375 77.09375 
L 19.921875 81.59375 
Q 26.953125 75.046875 32.515625 68.890625 
L 26.265625 63.71875 
Q 20.796875 70.359375 14.359375 77.09375 
z
" id="MicrosoftYaHei-5238"/>
      <path d="M 23.921875 -17.1875 
Q 7.46875 1.5625 7.46875 28.859375 
Q 7.46875 56.15625 23.921875 75.640625 
L 32.375 75.640625 
Q 15.875 55.375 15.875 28.953125 
Q 15.875 2.59375 32.28125 -17.1875 
z
" id="MicrosoftYaHei-28"/>
      <path d="M 49.65625 0 
L 9.765625 0 
L 9.765625 75.640625 
L 19.53125 75.640625 
L 19.53125 8.640625 
L 49.65625 8.640625 
z
" id="MicrosoftYaHei-4c"/>
      <path d="M 4.890625 36.921875 
Q 4.890625 55.21875 14.796875 66.0625 
Q 24.703125 76.90625 41.65625 76.90625 
Q 57.421875 76.90625 67.03125 66.3125 
Q 76.65625 55.71875 76.65625 38.71875 
Q 76.65625 20.3125 66.796875 9.515625 
Q 56.9375 -1.265625 40.4375 -1.265625 
Q 24.3125 -1.265625 14.59375 9.328125 
Q 4.890625 19.921875 4.890625 36.921875 
z
M 15.140625 37.703125 
Q 15.140625 23.96875 22.140625 15.6875 
Q 29.15625 7.421875 40.4375 7.421875 
Q 52.546875 7.421875 59.453125 15.359375 
Q 66.359375 23.296875 66.359375 37.546875 
Q 66.359375 52.203125 59.59375 60.15625 
Q 52.828125 68.109375 41.0625 68.109375 
Q 29.5 68.109375 22.3125 59.703125 
Q 15.140625 51.3125 15.140625 37.703125 
z
" id="MicrosoftYaHei-4f"/>
      <path d="M 48.734375 66.9375 
L 19.53125 66.9375 
L 19.53125 41.65625 
L 46.578125 41.65625 
L 46.578125 33.0625 
L 19.53125 33.0625 
L 19.53125 0 
L 9.765625 0 
L 9.765625 75.640625 
L 48.734375 75.640625 
z
" id="MicrosoftYaHei-46"/>
      <path d="M 1.21875 -17.1875 
Q 17.671875 2.546875 17.671875 28.953125 
Q 17.671875 55.421875 1.125 75.640625 
L 9.625 75.640625 
Q 26.125 56.296875 26.125 28.859375 
Q 26.125 1.421875 9.625 -17.1875 
z
" id="MicrosoftYaHei-29"/>
      <path d="M 61.53125 3.125 
Q 53.171875 -1.265625 40.578125 -1.265625 
Q 24.3125 -1.265625 14.59375 9.0625 
Q 4.890625 19.390625 4.890625 36.375 
Q 4.890625 54.640625 15.828125 65.765625 
Q 26.765625 76.90625 43.609375 76.90625 
Q 54.4375 76.90625 61.53125 73.828125 
L 61.53125 63.625 
Q 53.421875 68.109375 43.703125 68.109375 
Q 31.0625 68.109375 23.09375 59.6875 
Q 15.140625 51.265625 15.140625 36.96875 
Q 15.140625 23.390625 22.5625 15.40625 
Q 29.984375 7.421875 42 7.421875 
Q 53.21875 7.421875 61.53125 12.5 
z
" id="MicrosoftYaHei-43"/>
     </defs>
     <g transform="translate(127 60.19375)scale(0.1 -0.1)">
      <use xlink:href="#MicrosoftYaHei-62db"/>
      <use x="100" xlink:href="#MicrosoftYaHei-5546"/>
      <use x="200" xlink:href="#MicrosoftYaHei-53cc"/>
      <use x="300" xlink:href="#MicrosoftYaHei-503a"/>
      <use x="400" xlink:href="#MicrosoftYaHei-589e"/>
      <use x="500" xlink:href="#MicrosoftYaHei-5f3a"/>
      <use x="600" xlink:href="#MicrosoftYaHei-503a"/>
      <use x="700" xlink:href="#MicrosoftYaHei-5238"/>
      <use x="800" xlink:href="#MicrosoftYaHei-28"/>
      <use x="833.398438" xlink:href="#MicrosoftYaHei-4c"/>
      <use x="884.669922" xlink:href="#MicrosoftYaHei-4f"/>
      <use x="966.164062" xlink:href="#MicrosoftYaHei-46"/>
      <use x="1019.289062" xlink:href="#MicrosoftYaHei-29"/>
      <use x="1052.6875" xlink:href="#MicrosoftYaHei-43"/>
     </g>
    </g>
    <g id="line2d_25">
     <path d="M 99 72.173437 
L 119 72.173437 
" style="fill:none;stroke:#ff7f0e;stroke-linecap:square;stroke-width:1.5;"/>
    </g>
    <g id="line2d_26"/>
    <g id="text_13">
     <!-- 招商产业债券A -->
     <defs>
      <path d="M 11.625 43.890625 
L 57.8125 43.890625 
Q 64.40625 53.609375 69.625 63.234375 
L 77.15625 58.453125 
Q 71.96875 51.171875 66.3125 43.890625 
L 95.21875 43.890625 
L 95.21875 37.0625 
L 19.53125 37.0625 
L 19.53125 30.21875 
Q 19.53125 12.9375 16.890625 4.4375 
Q 14.15625 -5.03125 6.546875 -13.328125 
Q 4 -10.203125 1.265625 -6.6875 
Q 7.03125 -0.53125 9.375 7.765625 
Q 11.625 15.875 11.625 30.21875 
z
M 3.609375 71.828125 
L 48.1875 71.828125 
Q 46.046875 75.828125 43.453125 80.03125 
L 50.6875 83.640625 
Q 53.859375 78.46875 57.171875 71.828125 
L 97.75 71.828125 
L 97.75 64.890625 
L 3.609375 64.890625 
z
M 24.03125 59.328125 
L 30.46875 63.625 
Q 36.53125 56 41.21875 49.171875 
L 34.28125 44.390625 
Q 30.46875 50.828125 24.03125 59.328125 
z
" id="MicrosoftYaHei-4ea7"/>
      <path d="M 1.859375 0.734375 
L 33.203125 0.734375 
L 33.203125 81.390625 
L 41.40625 81.390625 
L 41.40625 0.734375 
L 58.5 0.734375 
L 58.5 81.390625 
L 66.703125 81.390625 
L 66.703125 0.734375 
L 98.34375 0.734375 
L 98.34375 -6.5 
L 1.859375 -6.5 
z
M 13.1875 62.25 
Q 21.1875 43.40625 28.71875 22.21875 
L 20.703125 18.609375 
Q 14.15625 39.203125 6.0625 59.125 
z
M 70.21875 21.34375 
Q 79.984375 42.046875 86.625 61.375 
L 94.53125 58.25 
Q 85.453125 34.90625 77.25 18.109375 
z
" id="MicrosoftYaHei-4e1a"/>
      <path d="M 69.1875 0 
L 58.40625 0 
L 50.6875 20.703125 
L 19.1875 20.703125 
L 11.921875 0 
L 1.125 0 
L 29.9375 75.640625 
L 40.375 75.640625 
z
M 47.65625 29.25 
L 36.234375 60.6875 
Q 35.6875 62.203125 35.0625 65.96875 
L 34.8125 65.96875 
Q 34.28125 62.546875 33.59375 60.6875 
L 22.265625 29.25 
z
" id="MicrosoftYaHei-41"/>
     </defs>
     <g transform="translate(127 75.673437)scale(0.1 -0.1)">
      <use xlink:href="#MicrosoftYaHei-62db"/>
      <use x="100" xlink:href="#MicrosoftYaHei-5546"/>
      <use x="200" xlink:href="#MicrosoftYaHei-4ea7"/>
      <use x="300" xlink:href="#MicrosoftYaHei-4e1a"/>
      <use x="400" xlink:href="#MicrosoftYaHei-503a"/>
      <use x="500" xlink:href="#MicrosoftYaHei-5238"/>
      <use x="600" xlink:href="#MicrosoftYaHei-41"/>
     </g>
    </g>
   </g>
  </g>
 </g>
 <defs>
  <clipPath id="pe7fa1ea060">
   <rect height="277.2" width="558" x="90" y="43.2"/>
  </clipPath>
 </defs>
</svg>
