<?xml version="1.0" encoding="utf-8" standalone="no"?>
<!DOCTYPE svg PUBLIC "-//W3C//DTD SVG 1.1//EN"
  "http://www.w3.org/Graphics/SVG/1.1/DTD/svg11.dtd">
<!-- Created with matplotlib (http://matplotlib.org/) -->
<svg height="360pt" version="1.1" viewBox="0 0 720 360" width="720pt" xmlns="http://www.w3.org/2000/svg" xmlns:xlink="http://www.w3.org/1999/xlink">
 <defs>
  <style type="text/css">
*{stroke-linecap:butt;stroke-linejoin:round;}
  </style>
 </defs>
 <g id="figure_1">
  <g id="patch_1">
   <path d="M 0 360 
L 720 360 
L 720 0 
L 0 0 
z
" style="fill:#ffffff;"/>
  </g>
  <g id="axes_1">
   <g id="patch_2">
    <path d="M 90 320.4 
L 648 320.4 
L 648 43.2 
L 90 43.2 
z
" style="fill:#ffffff;"/>
   </g>
   <g id="matplotlib.axis_1">
    <g id="xtick_1">
     <g id="line2d_1">
      <path clip-path="url(#p8ba4f36618)" d="M 90 320.4 
L 90 43.2 
" style="fill:none;stroke:#b0b0b0;stroke-linecap:square;stroke-width:0.8;"/>
     </g>
     <g id="line2d_2">
      <defs>
       <path d="M 0 0 
L 0 3.5 
" id="m6ef51fb1f1" style="stroke:#000000;stroke-width:0.8;"/>
      </defs>
      <g>
       <use style="stroke:#000000;stroke-width:0.8;" x="90" xlink:href="#m6ef51fb1f1" y="320.4"/>
      </g>
     </g>
     <g id="text_1">
      <!-- 2017-08-18 -->
      <defs>
       <path d="M 51.171875 0 
L 5.171875 0 
L 5.171875 8.296875 
L 27.15625 30.21875 
Q 36.234375 39.3125 39.3125 44.609375 
Q 42.390625 49.90625 42.390625 55.5625 
Q 42.390625 62.015625 38.765625 65.453125 
Q 35.15625 68.890625 28.328125 68.890625 
Q 18.21875 68.890625 9.03125 60.296875 
L 9.03125 70.015625 
Q 17.96875 76.90625 29.828125 76.90625 
Q 40.046875 76.90625 45.953125 71.390625 
Q 51.859375 65.875 51.859375 56.546875 
Q 51.859375 49.515625 48.0625 42.75 
Q 44.28125 35.984375 33.734375 25.53125 
L 16.5 8.6875 
L 16.5 8.5 
L 51.171875 8.5 
z
" id="MicrosoftYaHei-32"/>
       <path d="M 4.4375 36.328125 
Q 4.4375 56.34375 11.078125 66.625 
Q 17.71875 76.90625 30.328125 76.90625 
Q 54.34375 76.90625 54.34375 38.140625 
Q 54.34375 19 47.578125 8.859375 
Q 40.828125 -1.265625 28.609375 -1.265625 
Q 17.09375 -1.265625 10.765625 8.34375 
Q 4.4375 17.96875 4.4375 36.328125 
z
M 14.203125 36.765625 
Q 14.203125 6.640625 29.5 6.640625 
Q 44.53125 6.640625 44.53125 37.25 
Q 44.53125 68.953125 29.78125 68.953125 
Q 14.203125 68.953125 14.203125 36.765625 
z
" id="MicrosoftYaHei-30"/>
       <path d="M 52.59375 0 
L 9.234375 0 
L 9.234375 8.25 
L 26.171875 8.25 
L 26.171875 65.671875 
L 8.796875 60.640625 
L 8.796875 69.4375 
L 35.6875 77.25 
L 35.6875 8.25 
L 52.59375 8.25 
z
" id="MicrosoftYaHei-31"/>
       <path d="M 53.765625 72.3125 
L 24.171875 0 
L 14.265625 0 
L 42.390625 67.1875 
L 4.59375 67.1875 
L 4.59375 75.640625 
L 53.765625 75.640625 
z
" id="MicrosoftYaHei-37"/>
       <path d="M 36.375 26.265625 
L 7.625 26.265625 
L 7.625 33.640625 
L 36.375 33.640625 
z
" id="MicrosoftYaHei-2d"/>
       <path d="M 21.390625 39.796875 
Q 7.859375 46.09375 7.859375 58.0625 
Q 7.859375 66.40625 14.203125 71.65625 
Q 20.5625 76.90625 30.421875 76.90625 
Q 39.453125 76.90625 45.3125 71.96875 
Q 51.171875 67.046875 51.171875 59.234375 
Q 51.171875 46.625 37.0625 39.84375 
L 37.0625 39.65625 
Q 53.609375 33.6875 53.609375 19.34375 
Q 53.609375 9.90625 46.796875 4.3125 
Q 39.984375 -1.265625 27.78125 -1.265625 
Q 17.78125 -1.265625 11.46875 4.25 
Q 5.171875 9.765625 5.171875 18.5625 
Q 5.171875 33.015625 21.390625 39.59375 
z
M 41.5 58.109375 
Q 41.5 63.1875 38.328125 66.109375 
Q 35.15625 69.046875 29.734375 69.046875 
Q 24.65625 69.046875 21.09375 65.984375 
Q 17.53125 62.9375 17.53125 58.203125 
Q 17.53125 48.734375 29.390625 43.796875 
Q 41.5 48.828125 41.5 58.109375 
z
M 28.8125 35.25 
Q 14.796875 29.59375 14.796875 19.046875 
Q 14.796875 13.578125 18.890625 10.0625 
Q 23 6.546875 29.59375 6.546875 
Q 35.984375 6.546875 39.984375 10.03125 
Q 44 13.53125 44 18.75 
Q 44 29.734375 28.8125 35.25 
z
" id="MicrosoftYaHei-38"/>
      </defs>
      <g transform="translate(62.217187 335.39375)scale(0.1 -0.1)">
       <use xlink:href="#MicrosoftYaHei-32"/>
       <use x="58.642578" xlink:href="#MicrosoftYaHei-30"/>
       <use x="117.285156" xlink:href="#MicrosoftYaHei-31"/>
       <use x="175.927734" xlink:href="#MicrosoftYaHei-37"/>
       <use x="234.570312" xlink:href="#MicrosoftYaHei-2d"/>
       <use x="277.832031" xlink:href="#MicrosoftYaHei-30"/>
       <use x="336.474609" xlink:href="#MicrosoftYaHei-38"/>
       <use x="395.117188" xlink:href="#MicrosoftYaHei-2d"/>
       <use x="438.378906" xlink:href="#MicrosoftYaHei-31"/>
       <use x="497.021484" xlink:href="#MicrosoftYaHei-38"/>
      </g>
     </g>
    </g>
    <g id="xtick_2">
     <g id="line2d_3">
      <path clip-path="url(#p8ba4f36618)" d="M 206.37122 320.4 
L 206.37122 43.2 
" style="fill:none;stroke:#b0b0b0;stroke-linecap:square;stroke-width:0.8;"/>
     </g>
     <g id="line2d_4">
      <g>
       <use style="stroke:#000000;stroke-width:0.8;" x="206.37122" xlink:href="#m6ef51fb1f1" y="320.4"/>
      </g>
     </g>
     <g id="text_2">
      <!-- 2018-06-25 -->
      <defs>
       <path d="M 49.703125 65.921875 
Q 43.796875 68.953125 37.359375 68.953125 
Q 27.546875 68.953125 21.578125 60.40625 
Q 15.625 51.859375 15.53125 37.0625 
L 15.765625 37.0625 
Q 21.140625 47.46875 32.90625 47.46875 
Q 42.71875 47.46875 48.578125 41.0625 
Q 54.4375 34.671875 54.4375 24.078125 
Q 54.4375 12.984375 47.671875 5.859375 
Q 40.921875 -1.265625 30.421875 -1.265625 
Q 18.890625 -1.265625 12.328125 7.734375 
Q 5.765625 16.75 5.765625 33.296875 
Q 5.765625 53.328125 14.375 65.109375 
Q 23 76.90625 37.0625 76.90625 
Q 45.125 76.90625 49.703125 74.703125 
z
M 16.109375 24.75 
Q 16.109375 17.28125 20.09375 11.953125 
Q 24.078125 6.640625 30.671875 6.640625 
Q 36.921875 6.640625 40.828125 11.234375 
Q 44.734375 15.828125 44.734375 23.046875 
Q 44.734375 30.859375 41.046875 35.203125 
Q 37.359375 39.546875 30.5625 39.546875 
Q 24.125 39.546875 20.109375 35.15625 
Q 16.109375 30.765625 16.109375 24.75 
z
" id="MicrosoftYaHei-36"/>
       <path d="M 8.640625 11.625 
Q 16.265625 6.640625 24.515625 6.640625 
Q 32.328125 6.640625 37.109375 11 
Q 41.890625 15.375 41.890625 22.609375 
Q 41.890625 29.890625 37.03125 33.890625 
Q 32.171875 37.890625 22.953125 37.890625 
Q 18.5 37.890625 10.984375 37.203125 
L 10.984375 75.640625 
L 48.1875 75.640625 
L 48.1875 67.1875 
L 19.875 67.1875 
L 19.875 45.796875 
Q 24.125 46.046875 26.265625 46.046875 
Q 38.234375 46.046875 44.921875 39.984375 
Q 51.609375 33.9375 51.609375 23.296875 
Q 51.609375 12.3125 44.421875 5.515625 
Q 37.25 -1.265625 24.609375 -1.265625 
Q 14.015625 -1.265625 8.640625 1.859375 
z
" id="MicrosoftYaHei-35"/>
      </defs>
      <g transform="translate(178.588408 335.39375)scale(0.1 -0.1)">
       <use xlink:href="#MicrosoftYaHei-32"/>
       <use x="58.642578" xlink:href="#MicrosoftYaHei-30"/>
       <use x="117.285156" xlink:href="#MicrosoftYaHei-31"/>
       <use x="175.927734" xlink:href="#MicrosoftYaHei-38"/>
       <use x="234.570312" xlink:href="#MicrosoftYaHei-2d"/>
       <use x="277.832031" xlink:href="#MicrosoftYaHei-30"/>
       <use x="336.474609" xlink:href="#MicrosoftYaHei-36"/>
       <use x="395.117188" xlink:href="#MicrosoftYaHei-2d"/>
       <use x="438.378906" xlink:href="#MicrosoftYaHei-32"/>
       <use x="497.021484" xlink:href="#MicrosoftYaHei-35"/>
      </g>
     </g>
    </g>
    <g id="xtick_3">
     <g id="line2d_5">
      <path clip-path="url(#p8ba4f36618)" d="M 322.74244 320.4 
L 322.74244 43.2 
" style="fill:none;stroke:#b0b0b0;stroke-linecap:square;stroke-width:0.8;"/>
     </g>
     <g id="line2d_6">
      <g>
       <use style="stroke:#000000;stroke-width:0.8;" x="322.74244" xlink:href="#m6ef51fb1f1" y="320.4"/>
      </g>
     </g>
     <g id="text_3">
      <!-- 2019-04-24 -->
      <defs>
       <path d="M 9.03125 10.25 
Q 15.28125 6.640625 22.515625 6.640625 
Q 32.671875 6.640625 38.25 14.640625 
Q 43.84375 22.65625 43.84375 37.40625 
Q 43.75 37.3125 43.65625 37.40625 
Q 38.671875 27.9375 26.90625 27.9375 
Q 17.390625 27.9375 11.140625 34.46875 
Q 4.890625 41.015625 4.890625 51.46875 
Q 4.890625 62.59375 11.71875 69.75 
Q 18.5625 76.90625 29.4375 76.90625 
Q 40.71875 76.90625 47.0625 68.046875 
Q 53.421875 59.1875 53.421875 42.234375 
Q 53.421875 21.296875 45.21875 10.015625 
Q 37.015625 -1.265625 22.515625 -1.265625 
Q 14.546875 -1.265625 9.03125 1.3125 
z
M 14.546875 52.6875 
Q 14.546875 45.0625 18.453125 40.59375 
Q 22.359375 36.140625 29.25 36.140625 
Q 35.203125 36.140625 39.25 40.203125 
Q 43.3125 44.28125 43.3125 50.09375 
Q 43.3125 58.25 39.28125 63.59375 
Q 35.25 68.953125 28.65625 68.953125 
Q 22.5625 68.953125 18.546875 64.3125 
Q 14.546875 59.671875 14.546875 52.6875 
z
" id="MicrosoftYaHei-39"/>
       <path d="M 55.078125 19.625 
L 45.40625 19.625 
L 45.40625 0 
L 36.140625 0 
L 36.140625 19.625 
L 0.875 19.625 
L 0.875 25.828125 
L 34.328125 75.640625 
L 45.40625 75.640625 
L 45.40625 27.203125 
L 55.078125 27.203125 
z
M 36.140625 27.203125 
L 36.140625 58.890625 
Q 36.140625 62.25 36.328125 66.65625 
L 36.140625 66.65625 
Q 35.453125 64.796875 33.25 60.84375 
L 10.75 27.203125 
z
" id="MicrosoftYaHei-34"/>
      </defs>
      <g transform="translate(294.959628 335.39375)scale(0.1 -0.1)">
       <use xlink:href="#MicrosoftYaHei-32"/>
       <use x="58.642578" xlink:href="#MicrosoftYaHei-30"/>
       <use x="117.285156" xlink:href="#MicrosoftYaHei-31"/>
       <use x="175.927734" xlink:href="#MicrosoftYaHei-39"/>
       <use x="234.570312" xlink:href="#MicrosoftYaHei-2d"/>
       <use x="277.832031" xlink:href="#MicrosoftYaHei-30"/>
       <use x="336.474609" xlink:href="#MicrosoftYaHei-34"/>
       <use x="395.117188" xlink:href="#MicrosoftYaHei-2d"/>
       <use x="438.378906" xlink:href="#MicrosoftYaHei-32"/>
       <use x="497.021484" xlink:href="#MicrosoftYaHei-34"/>
      </g>
     </g>
    </g>
    <g id="xtick_4">
     <g id="line2d_7">
      <path clip-path="url(#p8ba4f36618)" d="M 439.11366 320.4 
L 439.11366 43.2 
" style="fill:none;stroke:#b0b0b0;stroke-linecap:square;stroke-width:0.8;"/>
     </g>
     <g id="line2d_8">
      <g>
       <use style="stroke:#000000;stroke-width:0.8;" x="439.11366" xlink:href="#m6ef51fb1f1" y="320.4"/>
      </g>
     </g>
     <g id="text_4">
      <!-- 2020-02-20 -->
      <g transform="translate(411.330848 335.39375)scale(0.1 -0.1)">
       <use xlink:href="#MicrosoftYaHei-32"/>
       <use x="58.642578" xlink:href="#MicrosoftYaHei-30"/>
       <use x="117.285156" xlink:href="#MicrosoftYaHei-32"/>
       <use x="175.927734" xlink:href="#MicrosoftYaHei-30"/>
       <use x="234.570312" xlink:href="#MicrosoftYaHei-2d"/>
       <use x="277.832031" xlink:href="#MicrosoftYaHei-30"/>
       <use x="336.474609" xlink:href="#MicrosoftYaHei-32"/>
       <use x="395.117188" xlink:href="#MicrosoftYaHei-2d"/>
       <use x="438.378906" xlink:href="#MicrosoftYaHei-32"/>
       <use x="497.021484" xlink:href="#MicrosoftYaHei-30"/>
      </g>
     </g>
    </g>
    <g id="xtick_5">
     <g id="line2d_9">
      <path clip-path="url(#p8ba4f36618)" d="M 555.48488 320.4 
L 555.48488 43.2 
" style="fill:none;stroke:#b0b0b0;stroke-linecap:square;stroke-width:0.8;"/>
     </g>
     <g id="line2d_10">
      <g>
       <use style="stroke:#000000;stroke-width:0.8;" x="555.48488" xlink:href="#m6ef51fb1f1" y="320.4"/>
      </g>
     </g>
     <g id="text_5">
      <!-- 2020-12-14 -->
      <g transform="translate(527.702068 335.39375)scale(0.1 -0.1)">
       <use xlink:href="#MicrosoftYaHei-32"/>
       <use x="58.642578" xlink:href="#MicrosoftYaHei-30"/>
       <use x="117.285156" xlink:href="#MicrosoftYaHei-32"/>
       <use x="175.927734" xlink:href="#MicrosoftYaHei-30"/>
       <use x="234.570312" xlink:href="#MicrosoftYaHei-2d"/>
       <use x="277.832031" xlink:href="#MicrosoftYaHei-31"/>
       <use x="336.474609" xlink:href="#MicrosoftYaHei-32"/>
       <use x="395.117188" xlink:href="#MicrosoftYaHei-2d"/>
       <use x="438.378906" xlink:href="#MicrosoftYaHei-31"/>
       <use x="497.021484" xlink:href="#MicrosoftYaHei-34"/>
      </g>
     </g>
    </g>
   </g>
   <g id="matplotlib.axis_2">
    <g id="ytick_1">
     <g id="line2d_11">
      <path clip-path="url(#p8ba4f36618)" d="M 90 303.498435 
L 648 303.498435 
" style="fill:none;stroke:#b0b0b0;stroke-linecap:square;stroke-width:0.8;"/>
     </g>
     <g id="line2d_12">
      <defs>
       <path d="M 0 0 
L -3.5 0 
" id="m41df85d838" style="stroke:#000000;stroke-width:0.8;"/>
      </defs>
      <g>
       <use style="stroke:#000000;stroke-width:0.8;" x="90" xlink:href="#m41df85d838" y="303.498435"/>
      </g>
     </g>
     <g id="text_6">
      <!-- 1.00 -->
      <defs>
       <path d="M 5.8125 5.03125 
Q 5.8125 7.671875 7.609375 9.46875 
Q 9.421875 11.28125 12.109375 11.28125 
Q 14.84375 11.28125 16.640625 9.453125 
Q 18.453125 7.625 18.453125 5.03125 
Q 18.453125 2.484375 16.640625 0.65625 
Q 14.84375 -1.171875 12.0625 -1.171875 
Q 9.375 -1.171875 7.59375 0.65625 
Q 5.8125 2.484375 5.8125 5.03125 
z
" id="MicrosoftYaHei-2e"/>
      </defs>
      <g transform="translate(63 307.49531)scale(0.1 -0.1)">
       <use xlink:href="#MicrosoftYaHei-31"/>
       <use x="58.642578" xlink:href="#MicrosoftYaHei-2e"/>
       <use x="82.714844" xlink:href="#MicrosoftYaHei-30"/>
       <use x="141.357422" xlink:href="#MicrosoftYaHei-30"/>
      </g>
     </g>
    </g>
    <g id="ytick_2">
     <g id="line2d_13">
      <path clip-path="url(#p8ba4f36618)" d="M 90 267.469246 
L 648 267.469246 
" style="fill:none;stroke:#b0b0b0;stroke-linecap:square;stroke-width:0.8;"/>
     </g>
     <g id="line2d_14">
      <g>
       <use style="stroke:#000000;stroke-width:0.8;" x="90" xlink:href="#m41df85d838" y="267.469246"/>
      </g>
     </g>
     <g id="text_7">
      <!-- 1.02 -->
      <g transform="translate(63 271.466121)scale(0.1 -0.1)">
       <use xlink:href="#MicrosoftYaHei-31"/>
       <use x="58.642578" xlink:href="#MicrosoftYaHei-2e"/>
       <use x="82.714844" xlink:href="#MicrosoftYaHei-30"/>
       <use x="141.357422" xlink:href="#MicrosoftYaHei-32"/>
      </g>
     </g>
    </g>
    <g id="ytick_3">
     <g id="line2d_15">
      <path clip-path="url(#p8ba4f36618)" d="M 90 231.440057 
L 648 231.440057 
" style="fill:none;stroke:#b0b0b0;stroke-linecap:square;stroke-width:0.8;"/>
     </g>
     <g id="line2d_16">
      <g>
       <use style="stroke:#000000;stroke-width:0.8;" x="90" xlink:href="#m41df85d838" y="231.440057"/>
      </g>
     </g>
     <g id="text_8">
      <!-- 1.04 -->
      <g transform="translate(63 235.436932)scale(0.1 -0.1)">
       <use xlink:href="#MicrosoftYaHei-31"/>
       <use x="58.642578" xlink:href="#MicrosoftYaHei-2e"/>
       <use x="82.714844" xlink:href="#MicrosoftYaHei-30"/>
       <use x="141.357422" xlink:href="#MicrosoftYaHei-34"/>
      </g>
     </g>
    </g>
    <g id="ytick_4">
     <g id="line2d_17">
      <path clip-path="url(#p8ba4f36618)" d="M 90 195.410868 
L 648 195.410868 
" style="fill:none;stroke:#b0b0b0;stroke-linecap:square;stroke-width:0.8;"/>
     </g>
     <g id="line2d_18">
      <g>
       <use style="stroke:#000000;stroke-width:0.8;" x="90" xlink:href="#m41df85d838" y="195.410868"/>
      </g>
     </g>
     <g id="text_9">
      <!-- 1.06 -->
      <g transform="translate(63 199.407743)scale(0.1 -0.1)">
       <use xlink:href="#MicrosoftYaHei-31"/>
       <use x="58.642578" xlink:href="#MicrosoftYaHei-2e"/>
       <use x="82.714844" xlink:href="#MicrosoftYaHei-30"/>
       <use x="141.357422" xlink:href="#MicrosoftYaHei-36"/>
      </g>
     </g>
    </g>
    <g id="ytick_5">
     <g id="line2d_19">
      <path clip-path="url(#p8ba4f36618)" d="M 90 159.381679 
L 648 159.381679 
" style="fill:none;stroke:#b0b0b0;stroke-linecap:square;stroke-width:0.8;"/>
     </g>
     <g id="line2d_20">
      <g>
       <use style="stroke:#000000;stroke-width:0.8;" x="90" xlink:href="#m41df85d838" y="159.381679"/>
      </g>
     </g>
     <g id="text_10">
      <!-- 1.08 -->
      <g transform="translate(63 163.378554)scale(0.1 -0.1)">
       <use xlink:href="#MicrosoftYaHei-31"/>
       <use x="58.642578" xlink:href="#MicrosoftYaHei-2e"/>
       <use x="82.714844" xlink:href="#MicrosoftYaHei-30"/>
       <use x="141.357422" xlink:href="#MicrosoftYaHei-38"/>
      </g>
     </g>
    </g>
    <g id="ytick_6">
     <g id="line2d_21">
      <path clip-path="url(#p8ba4f36618)" d="M 90 123.352489 
L 648 123.352489 
" style="fill:none;stroke:#b0b0b0;stroke-linecap:square;stroke-width:0.8;"/>
     </g>
     <g id="line2d_22">
      <g>
       <use style="stroke:#000000;stroke-width:0.8;" x="90" xlink:href="#m41df85d838" y="123.352489"/>
      </g>
     </g>
     <g id="text_11">
      <!-- 1.10 -->
      <g transform="translate(63 127.349364)scale(0.1 -0.1)">
       <use xlink:href="#MicrosoftYaHei-31"/>
       <use x="58.642578" xlink:href="#MicrosoftYaHei-2e"/>
       <use x="82.714844" xlink:href="#MicrosoftYaHei-31"/>
       <use x="141.357422" xlink:href="#MicrosoftYaHei-30"/>
      </g>
     </g>
    </g>
    <g id="ytick_7">
     <g id="line2d_23">
      <path clip-path="url(#p8ba4f36618)" d="M 90 87.3233 
L 648 87.3233 
" style="fill:none;stroke:#b0b0b0;stroke-linecap:square;stroke-width:0.8;"/>
     </g>
     <g id="line2d_24">
      <g>
       <use style="stroke:#000000;stroke-width:0.8;" x="90" xlink:href="#m41df85d838" y="87.3233"/>
      </g>
     </g>
     <g id="text_12">
      <!-- 1.12 -->
      <g transform="translate(63 91.320175)scale(0.1 -0.1)">
       <use xlink:href="#MicrosoftYaHei-31"/>
       <use x="58.642578" xlink:href="#MicrosoftYaHei-2e"/>
       <use x="82.714844" xlink:href="#MicrosoftYaHei-31"/>
       <use x="141.357422" xlink:href="#MicrosoftYaHei-32"/>
      </g>
     </g>
    </g>
    <g id="ytick_8">
     <g id="line2d_25">
      <path clip-path="url(#p8ba4f36618)" d="M 90 51.294111 
L 648 51.294111 
" style="fill:none;stroke:#b0b0b0;stroke-linecap:square;stroke-width:0.8;"/>
     </g>
     <g id="line2d_26">
      <g>
       <use style="stroke:#000000;stroke-width:0.8;" x="90" xlink:href="#m41df85d838" y="51.294111"/>
      </g>
     </g>
     <g id="text_13">
      <!-- 1.14 -->
      <g transform="translate(63 55.290986)scale(0.1 -0.1)">
       <use xlink:href="#MicrosoftYaHei-31"/>
       <use x="58.642578" xlink:href="#MicrosoftYaHei-2e"/>
       <use x="82.714844" xlink:href="#MicrosoftYaHei-31"/>
       <use x="141.357422" xlink:href="#MicrosoftYaHei-34"/>
      </g>
     </g>
    </g>
   </g>
   <g id="line2d_27">
    <path clip-path="url(#p8ba4f36618)" d="M 90 303.498435 
L 90.581856 303.319203 
L 91.745568 303.677667 
L 92.327424 304.036131 
L 92.909281 303.856899 
L 93.491137 304.036131 
L 94.072993 304.573826 
L 94.654849 304.753058 
L 95.236705 305.111522 
L 95.818561 304.215363 
L 96.400417 303.856899 
L 96.982273 303.677667 
L 97.564129 303.139972 
L 98.145985 302.423044 
L 98.727842 301.347653 
L 99.309698 300.809957 
L 99.891554 300.451494 
L 100.47341 300.272262 
L 101.055266 299.555334 
L 101.637122 298.659175 
L 102.218978 298.300711 
L 102.800834 297.763016 
L 103.38269 297.763016 
L 103.964546 297.404552 
L 104.546403 296.508393 
L 105.128259 296.508393 
L 105.710115 297.046088 
L 106.873827 296.329161 
L 107.455683 294.716074 
L 108.037539 294.716074 
L 108.619395 294.178378 
L 109.201251 293.999147 
L 109.783107 293.640683 
L 110.94682 295.074538 
L 111.528676 295.074538 
L 112.110532 294.35761 
L 112.692388 293.819915 
L 113.8561 293.461451 
L 114.437956 294.178378 
L 115.019812 294.35761 
L 115.601668 294.716074 
L 116.183525 297.404552 
L 116.765381 297.942248 
L 117.347237 297.22532 
L 117.929093 296.866856 
L 118.510949 296.687624 
L 119.092805 296.149929 
L 119.674661 296.508393 
L 120.256517 296.687624 
L 120.838373 296.687624 
L 121.420229 296.866856 
L 122.583942 300.09303 
L 123.165798 300.630725 
L 123.747654 299.913798 
L 124.32951 300.09303 
L 124.911366 300.630725 
L 125.493222 301.706117 
L 126.075078 305.111522 
L 126.656934 306.545377 
L 127.23879 306.903841 
L 127.820647 307.8 
L 128.402503 307.441536 
L 128.984359 307.441536 
L 129.566215 307.083073 
L 130.729927 305.469986 
L 131.311783 304.753058 
L 131.893639 304.394595 
L 133.057351 304.036131 
L 133.639208 304.215363 
L 134.221064 304.573826 
L 134.80292 304.394595 
L 135.384776 303.677667 
L 135.966632 303.498435 
L 136.548488 303.677667 
L 137.130344 303.677667 
L 137.7122 304.215363 
L 138.294056 303.319203 
L 138.875912 303.498435 
L 139.457769 304.036131 
L 140.039625 303.856899 
L 140.621481 302.96074 
L 141.203337 302.602276 
L 141.785193 301.706117 
L 142.948905 300.989189 
L 143.530761 300.451494 
L 144.112617 299.734566 
L 144.694473 299.376102 
L 145.27633 299.734566 
L 145.858186 300.630725 
L 146.440042 300.630725 
L 147.021898 300.272262 
L 147.603754 300.272262 
L 148.18561 300.451494 
L 148.767466 300.451494 
L 149.349322 299.017639 
L 149.931178 299.017639 
L 150.513034 298.479943 
L 151.094891 298.479943 
L 151.676747 298.300711 
L 152.258603 297.942248 
L 152.840459 297.763016 
L 153.422315 297.22532 
L 154.004171 296.866856 
L 154.586027 296.329161 
L 155.167883 295.970697 
L 155.749739 294.716074 
L 156.331595 294.536842 
L 157.495308 293.819915 
L 158.077164 292.38606 
L 158.65902 291.4899 
L 159.240876 291.310669 
L 160.986444 288.442959 
L 161.5683 287.009104 
L 162.150156 286.65064 
L 162.732013 286.829872 
L 163.313869 286.65064 
L 163.895725 285.754481 
L 164.477581 284.141394 
L 166.223149 283.066003 
L 166.805005 282.528307 
L 167.386861 283.066003 
L 167.968717 283.066003 
L 168.550574 282.886771 
L 169.714286 281.81138 
L 170.296142 281.632148 
L 170.877998 280.91522 
L 171.459854 279.660597 
L 172.04171 276.434424 
L 172.623566 276.07596 
L 173.205422 275.359033 
L 173.787278 274.462873 
L 174.369135 274.821337 
L 174.950991 272.849787 
L 175.532847 271.774395 
L 176.114703 269.802845 
L 176.696559 267.293599 
L 177.278415 266.935135 
L 177.860271 266.39744 
L 178.442127 265.322048 
L 179.023983 264.605121 
L 179.605839 263.171266 
L 180.187696 262.454339 
L 180.769552 255.643528 
L 181.351408 254.9266 
L 181.933264 254.747368 
L 182.51512 256.181223 
L 183.678832 255.82276 
L 184.260688 256.001991 
L 185.4244 257.615078 
L 186.006257 257.435846 
L 186.588113 256.898151 
L 187.169969 256.539687 
L 187.751825 257.256615 
L 188.333681 258.152774 
L 188.915537 258.152774 
L 189.497393 257.973542 
L 190.079249 258.152774 
L 190.661105 258.690469 
L 191.242961 259.586629 
L 191.824818 259.586629 
L 192.406674 259.407397 
L 192.98853 258.690469 
L 193.570386 258.332006 
L 194.152242 257.79431 
L 194.734098 257.077383 
L 195.315954 256.539687 
L 195.89781 256.360455 
L 196.479666 256.360455 
L 198.225235 255.82276 
L 198.807091 255.82276 
L 199.388947 255.643528 
L 199.970803 255.643528 
L 200.552659 255.464296 
L 201.134515 255.105832 
L 201.716371 255.464296 
L 202.298227 255.643528 
L 202.880083 255.285064 
L 203.46194 255.285064 
L 204.043796 254.209673 
L 204.625652 254.388905 
L 205.207508 254.030441 
L 206.37122 252.05889 
L 206.953076 251.700427 
L 207.534932 251.162731 
L 208.116788 250.445804 
L 208.698644 249.011949 
L 209.280501 248.832717 
L 210.444213 245.785775 
L 211.026069 240.229587 
L 211.607925 239.51266 
L 212.189781 239.154196 
L 212.771637 239.51266 
L 213.353493 239.333428 
L 213.935349 238.437269 
L 214.517205 238.437269 
L 215.099062 237.720341 
L 216.262774 236.64495 
L 218.008342 232.343385 
L 218.590198 231.626458 
L 219.75391 230.013371 
L 220.335766 229.296444 
L 221.499479 226.96643 
L 222.081335 226.428734 
L 222.663191 224.277952 
L 223.826903 221.589474 
L 224.408759 219.617923 
L 224.990615 219.438691 
L 225.572471 220.155619 
L 226.154327 221.410242 
L 226.736184 222.127169 
L 227.31804 222.485633 
L 227.899896 222.127169 
L 228.481752 222.127169 
L 229.063608 223.20256 
L 229.645464 223.919488 
L 230.22732 224.09872 
L 230.809176 223.381792 
L 231.391032 222.306401 
L 231.972888 222.306401 
L 232.554745 222.127169 
L 233.136601 222.127169 
L 234.300313 221.410242 
L 234.882169 221.410242 
L 235.464025 220.693314 
L 236.045881 220.514083 
L 237.209593 220.514083 
L 237.791449 220.334851 
L 238.955162 220.334851 
L 239.537018 219.976387 
L 240.118874 219.438691 
L 241.282586 218.721764 
L 241.864442 218.721764 
L 243.028154 218.3633 
L 243.61001 217.825605 
L 244.191867 217.825605 
L 244.773723 217.646373 
L 245.355579 217.108677 
L 245.937435 215.49559 
L 246.519291 215.316358 
L 247.101147 214.957895 
L 247.683003 214.240967 
L 248.264859 213.882504 
L 248.846715 213.165576 
L 250.010428 212.448649 
L 250.592284 212.269417 
L 251.17414 211.910953 
L 251.755996 211.910953 
L 252.337852 211.552489 
L 254.08342 211.014794 
L 254.665276 210.477098 
L 255.828989 210.118634 
L 256.410845 209.760171 
L 256.992701 209.760171 
L 257.574557 209.222475 
L 258.738269 208.864011 
L 259.320125 208.326316 
L 259.901981 207.967852 
L 260.483837 207.78862 
L 261.065693 207.78862 
L 261.64755 206.713229 
L 262.229406 206.892461 
L 262.811262 205.637838 
L 263.393118 204.92091 
L 263.974974 204.562447 
L 264.55683 204.562447 
L 265.138686 204.203983 
L 265.720542 204.024751 
L 266.302398 204.203983 
L 266.884254 204.203983 
L 267.466111 204.024751 
L 268.629823 203.307824 
L 269.211679 203.128592 
L 269.793535 202.411664 
L 270.375391 202.232432 
L 270.957247 201.873969 
L 271.539103 201.694737 
L 272.120959 201.694737 
L 272.702815 201.873969 
L 273.284672 202.411664 
L 273.866528 202.411664 
L 274.448384 203.128592 
L 275.03024 203.128592 
L 275.612096 202.590896 
L 276.193952 201.873969 
L 276.775808 201.694737 
L 277.357664 201.694737 
L 277.93952 201.336273 
L 278.521376 199.543954 
L 279.103233 199.006259 
L 279.685089 196.855477 
L 281.430657 192.912376 
L 282.012513 191.478521 
L 283.176225 190.044666 
L 283.758081 190.044666 
L 284.339937 189.865434 
L 284.921794 190.044666 
L 285.50365 189.865434 
L 286.085506 189.148506 
L 287.249218 188.073115 
L 287.831074 187.893883 
L 288.41293 188.610811 
L 289.576642 188.610811 
L 290.158498 188.431579 
L 290.740355 188.073115 
L 291.322211 187.893883 
L 292.485923 186.818492 
L 293.067779 185.563869 
L 293.649635 185.026174 
L 294.813347 184.309246 
L 295.395203 184.130014 
L 295.977059 183.413087 
L 296.558916 183.77155 
L 297.140772 183.413087 
L 298.304484 183.413087 
L 298.88634 183.054623 
L 299.468196 183.950782 
L 300.050052 184.130014 
L 300.631908 183.950782 
L 301.79562 184.309246 
L 302.377477 184.309246 
L 302.959333 184.66771 
L 303.541189 184.130014 
L 304.123045 183.413087 
L 304.704901 183.413087 
L 305.286757 183.233855 
L 305.868613 183.592319 
L 306.450469 183.592319 
L 307.032325 183.77155 
L 307.614181 183.054623 
L 308.196038 183.054623 
L 308.777894 182.875391 
L 309.941606 182.158464 
L 310.523462 181.262304 
L 311.105318 180.724609 
L 312.26903 180.366145 
L 312.850886 179.649218 
L 313.432742 179.649218 
L 314.014599 180.186913 
L 314.596455 180.366145 
L 315.178311 180.903841 
L 315.760167 180.366145 
L 316.342023 180.545377 
L 316.923879 180.903841 
L 317.505735 181.083073 
L 318.087591 180.724609 
L 318.669447 181.620768 
L 319.251303 182.158464 
L 319.83316 182.516927 
L 320.415016 182.158464 
L 321.578728 181.083073 
L 322.160584 181.083073 
L 322.74244 180.903841 
L 323.324296 181.262304 
L 324.488008 181.262304 
L 325.069864 180.545377 
L 325.651721 178.93229 
L 326.233577 178.394595 
L 327.397289 176.96074 
L 327.979145 176.423044 
L 328.561001 175.706117 
L 329.142857 175.347653 
L 329.724713 175.168421 
L 330.306569 174.809957 
L 331.470282 173.734566 
L 332.052138 173.734566 
L 332.633994 173.913798 
L 333.797706 173.555334 
L 334.379562 173.017639 
L 334.961418 173.376102 
L 336.12513 172.659175 
L 336.706986 172.479943 
L 337.288843 171.942248 
L 337.870699 171.763016 
L 338.452555 171.404552 
L 339.034411 171.404552 
L 339.616267 170.687624 
L 340.779979 170.687624 
L 341.361835 170.866856 
L 341.943691 171.22532 
L 342.525547 170.687624 
L 343.107404 170.508393 
L 344.271116 169.074538 
L 344.852972 168.536842 
L 345.434828 167.640683 
L 346.59854 167.282219 
L 347.762252 166.565292 
L 348.925965 166.206828 
L 351.253389 164.056046 
L 351.835245 163.876814 
L 352.417101 163.876814 
L 352.998957 163.697582 
L 353.580813 163.339118 
L 354.162669 163.159886 
L 355.326382 162.442959 
L 355.908238 162.442959 
L 356.490094 162.263727 
L 358.235662 161.188336 
L 358.817518 161.188336 
L 359.399374 161.009104 
L 359.98123 160.65064 
L 360.563087 159.933713 
L 361.144943 159.754481 
L 362.308655 159.037553 
L 363.472367 157.962162 
L 364.054223 157.78293 
L 364.636079 157.424467 
L 365.217935 157.424467 
L 365.799791 157.066003 
L 366.381648 156.349075 
L 366.963504 156.349075 
L 367.54536 156.169844 
L 368.709072 155.452916 
L 370.45464 154.91522 
L 371.036496 154.91522 
L 371.618352 154.735989 
L 372.200209 154.377525 
L 372.782065 154.377525 
L 373.363921 154.556757 
L 373.945777 154.377525 
L 374.527633 153.839829 
L 375.109489 153.660597 
L 375.691345 153.839829 
L 376.273201 153.302134 
L 376.855057 152.94367 
L 378.01877 151.868279 
L 379.764338 151.330583 
L 380.346194 150.792888 
L 380.92805 150.613656 
L 381.509906 150.613656 
L 382.091762 150.972119 
L 382.673618 151.151351 
L 383.255474 150.613656 
L 383.837331 150.613656 
L 385.582899 150.07596 
L 386.164755 149.359033 
L 386.746611 148.283642 
L 387.328467 148.462873 
L 388.492179 148.10441 
L 389.074035 147.745946 
L 389.655892 147.745946 
L 390.237748 147.566714 
L 390.819604 147.566714 
L 391.40146 147.387482 
L 391.983316 147.387482 
L 392.565172 147.20825 
L 393.147028 147.387482 
L 394.892596 146.849787 
L 395.474453 146.849787 
L 396.056309 147.029018 
L 396.638165 147.387482 
L 397.220021 147.20825 
L 397.801877 146.849787 
L 399.547445 146.312091 
L 400.711157 145.595164 
L 401.293014 145.415932 
L 401.87487 145.415932 
L 403.038582 145.057468 
L 403.620438 144.519772 
L 405.366006 143.444381 
L 405.947862 143.265149 
L 406.529718 142.548222 
L 408.857143 141.831294 
L 409.438999 141.472831 
L 411.766423 140.755903 
L 412.348279 140.39744 
L 412.930136 140.218208 
L 413.511992 139.859744 
L 414.675704 139.50128 
L 415.25756 139.142817 
L 416.421272 139.142817 
L 417.003128 138.784353 
L 417.584984 138.605121 
L 418.16684 138.246657 
L 419.330553 137.171266 
L 420.494265 136.454339 
L 421.076121 135.916643 
L 421.657977 135.558179 
L 422.239833 134.841252 
L 422.821689 134.303556 
L 423.403545 133.945092 
L 424.567258 133.945092 
L 425.149114 133.765861 
L 425.73097 133.765861 
L 426.312826 133.586629 
L 426.894682 133.586629 
L 427.476538 133.765861 
L 428.64025 133.407397 
L 429.222106 132.869701 
L 429.803962 132.690469 
L 430.385819 132.690469 
L 430.967675 132.511238 
L 431.549531 130.181223 
L 432.131387 130.181223 
L 433.295099 129.82276 
L 434.458811 128.747368 
L 436.20438 127.671977 
L 436.786236 127.671977 
L 437.368092 127.134282 
L 439.695516 126.417354 
L 440.277372 125.879659 
L 440.859228 125.700427 
L 442.022941 124.983499 
L 442.604797 124.804267 
L 443.186653 124.445804 
L 443.768509 124.445804 
L 444.350365 123.908108 
L 444.932221 123.549644 
L 445.514077 122.474253 
L 446.095933 121.757326 
L 446.677789 122.115789 
L 447.841502 122.115789 
L 448.423358 122.295021 
L 449.005214 122.115789 
L 449.58707 122.115789 
L 450.168926 121.757326 
L 450.750782 121.578094 
L 451.332638 121.21963 
L 451.914494 120.144239 
L 452.49635 119.427312 
L 453.660063 118.710384 
L 454.241919 118.531152 
L 454.823775 117.993457 
L 455.405631 117.814225 
L 456.569343 116.38037 
L 457.151199 116.021906 
L 457.733055 112.974964 
L 458.314911 111.361878 
L 458.896767 110.286486 
L 459.478624 110.286486 
L 460.06048 109.390327 
L 460.642336 109.211095 
L 461.224192 108.852632 
L 461.806048 107.956472 
L 462.387904 107.598009 
L 462.96976 107.060313 
L 463.551616 106.701849 
L 465.297185 105.088762 
L 466.460897 105.088762 
L 467.042753 104.909531 
L 467.624609 104.551067 
L 468.206465 104.371835 
L 468.788321 105.267994 
L 469.370177 105.626458 
L 469.952033 106.164154 
L 470.533889 106.522617 
L 471.115746 106.343385 
L 471.697602 106.522617 
L 472.279458 106.164154 
L 474.025026 106.701849 
L 474.606882 106.701849 
L 475.188738 106.343385 
L 475.770594 106.522617 
L 476.35245 107.239545 
L 476.934307 107.77724 
L 478.098019 108.135704 
L 478.679875 107.956472 
L 479.261731 109.211095 
L 479.843587 111.361878 
L 480.425443 112.078805 
L 481.007299 113.154196 
L 481.589155 113.51266 
L 482.171011 113.154196 
L 482.752868 113.154196 
L 483.334724 112.974964 
L 483.91658 112.437269 
L 484.498436 112.078805 
L 485.662148 112.795733 
L 486.244004 112.616501 
L 487.407716 112.974964 
L 487.989572 113.691892 
L 488.571429 113.333428 
L 489.153285 112.437269 
L 489.735141 112.258037 
L 490.316997 111.899573 
L 490.898853 111.361878 
L 491.480709 111.182646 
L 492.062565 111.899573 
L 492.644421 112.974964 
L 493.226277 113.51266 
L 493.808133 114.408819 
L 494.38999 114.946515 
L 494.971846 115.663442 
L 495.553702 115.484211 
L 496.135558 115.125747 
L 496.717414 114.946515 
L 497.29927 114.408819 
L 498.462982 112.974964 
L 499.044838 112.437269 
L 499.626694 112.437269 
L 500.208551 112.258037 
L 500.790407 111.899573 
L 502.535975 111.899573 
L 503.117831 112.078805 
L 503.699687 111.720341 
L 504.281543 111.54111 
L 505.445255 111.54111 
L 506.027112 111.361878 
L 506.608968 111.003414 
L 507.190824 111.003414 
L 508.936392 110.465718 
L 509.518248 109.928023 
L 510.68196 109.928023 
L 511.845673 110.286486 
L 512.427529 110.107255 
L 513.009385 110.465718 
L 513.591241 110.465718 
L 514.173097 110.64495 
L 514.754953 110.64495 
L 515.336809 110.465718 
L 518.24609 110.465718 
L 518.827946 110.64495 
L 519.409802 110.64495 
L 519.991658 110.286486 
L 520.573514 110.286486 
L 521.15537 109.748791 
L 523.482795 109.031863 
L 524.646507 109.031863 
L 525.228363 108.852632 
L 526.392075 108.852632 
L 526.973931 108.6734 
L 527.555787 108.6734 
L 528.137643 108.494168 
L 528.719499 107.418777 
L 529.301356 107.239545 
L 529.883212 106.881081 
L 531.62878 106.343385 
L 532.210636 105.984922 
L 532.792492 105.80569 
L 533.374348 105.447226 
L 534.53806 105.088762 
L 535.119917 104.730299 
L 535.701773 104.909531 
L 536.865485 104.551067 
L 537.447341 104.551067 
L 538.611053 103.834139 
L 539.774765 103.475676 
L 541.520334 103.475676 
L 542.684046 103.834139 
L 543.265902 104.909531 
L 543.847758 105.088762 
L 544.429614 105.447226 
L 545.01147 105.984922 
L 546.175182 107.598009 
L 546.757039 107.060313 
L 547.338895 107.060313 
L 547.920751 106.164154 
L 549.084463 105.447226 
L 549.666319 104.192603 
L 550.248175 103.475676 
L 551.993743 102.93798 
L 552.5756 102.400284 
L 553.157456 102.041821 
L 553.739312 101.504125 
L 554.321168 100.787198 
L 554.903024 100.607966 
L 556.066736 99.891038 
L 556.648592 98.994879 
L 557.230448 98.457183 
L 557.812304 98.277952 
L 558.976017 96.127169 
L 559.557873 95.589474 
L 560.139729 94.514083 
L 560.721585 93.976387 
L 561.303441 93.259459 
L 563.049009 91.646373 
L 563.630865 90.750213 
L 564.212722 90.39175 
L 564.794578 89.674822 
L 565.95829 88.061735 
L 566.540146 87.52404 
L 567.122002 87.344808 
L 568.285714 86.627881 
L 568.86757 86.627881 
L 569.449426 86.807112 
L 570.031283 87.165576 
L 570.613139 87.165576 
L 571.194995 86.807112 
L 571.776851 86.627881 
L 572.358707 86.090185 
L 572.940563 86.807112 
L 573.522419 87.165576 
L 574.104275 88.240967 
L 574.686131 88.778663 
L 575.267987 88.420199 
L 576.4317 86.986344 
L 577.013556 86.448649 
L 577.595412 86.627881 
L 578.759124 85.910953 
L 579.34098 85.373257 
L 579.922836 84.477098 
L 580.504692 84.118634 
L 581.086548 83.580939 
L 583.413973 82.864011 
L 583.995829 82.326316 
L 585.159541 81.609388 
L 585.741397 81.609388 
L 586.323253 81.430156 
L 586.905109 81.071693 
L 587.486966 81.071693 
L 588.068822 80.892461 
L 589.232534 80.175533 
L 589.81439 79.996302 
L 590.396246 79.458606 
L 590.978102 79.279374 
L 591.559958 79.279374 
L 592.141814 79.100142 
L 592.72367 78.383215 
L 593.305527 78.383215 
L 595.632951 77.666287 
L 596.214807 77.307824 
L 596.796663 77.307824 
L 597.378519 76.94936 
L 597.960375 76.94936 
L 598.542231 76.590896 
L 599.124088 76.590896 
L 600.2878 76.232432 
L 600.869656 75.873969 
L 601.451512 75.694737 
L 602.615224 75.694737 
L 603.19708 75.515505 
L 603.778936 75.157041 
L 604.360792 74.977809 
L 604.942649 74.619346 
L 605.524505 74.619346 
L 606.106361 74.260882 
L 606.688217 74.260882 
L 607.851929 73.902418 
L 608.433785 73.543954 
L 609.015641 73.543954 
L 609.597497 72.827027 
L 610.179353 72.647795 
L 611.343066 71.930868 
L 611.924922 71.751636 
L 612.506778 71.751636 
L 614.834202 71.034708 
L 615.997914 70.317781 
L 616.579771 70.138549 
L 617.161627 70.138549 
L 618.325339 70.497013 
L 619.489051 70.497013 
L 620.070907 70.138549 
L 620.652763 70.138549 
L 621.234619 69.780085 
L 621.816475 69.780085 
L 622.398332 69.959317 
L 623.562044 69.959317 
L 624.1439 69.780085 
L 624.725756 69.780085 
L 625.307612 69.600853 
L 625.889468 69.600853 
L 626.471324 69.780085 
L 627.05318 69.600853 
L 627.635036 69.24239 
L 628.216893 69.24239 
L 628.798749 68.166999 
L 630.544317 67.091607 
L 631.126173 67.091607 
L 631.708029 66.553912 
L 632.871741 65.836984 
L 634.035454 64.761593 
L 634.61731 64.582361 
L 635.199166 63.50697 
L 635.781022 63.327738 
L 636.362878 62.610811 
L 637.52659 61.53542 
L 638.108446 61.356188 
L 638.690302 60.997724 
L 639.854015 59.922333 
L 640.435871 59.922333 
L 641.017727 59.743101 
L 641.599583 59.205405 
L 642.181439 58.488478 
L 643.345151 58.488478 
L 643.927007 58.309246 
L 645.090719 56.337696 
L 645.672576 56.516927 
L 646.254432 56.516927 
L 646.836288 55.8 
L 647.418144 55.8 
L 648 56.158464 
L 648 56.158464 
" style="fill:none;stroke:#1f77b4;stroke-linecap:square;stroke-width:1.5;"/>
   </g>
   <g id="line2d_28">
    <path clip-path="url(#p8ba4f36618)" d="M 90 303.498435 
L 90.581856 303.367477 
L 91.163712 303.498435 
L 92.327424 303.498435 
L 92.909281 303.629393 
L 93.491137 303.498435 
L 94.072993 303.760351 
L 94.654849 303.760351 
L 95.236705 303.89131 
L 95.818561 303.367477 
L 97.564129 302.581729 
L 98.145985 302.057896 
L 99.309698 301.534064 
L 99.891554 301.534064 
L 100.47341 301.010232 
L 101.055266 300.748315 
L 103.964546 300.093525 
L 104.546403 299.569693 
L 105.128259 299.569693 
L 105.710115 299.700651 
L 106.291971 299.569693 
L 106.873827 299.176818 
L 107.455683 298.129154 
L 108.037539 298.129154 
L 110.364964 297.605321 
L 110.94682 297.867237 
L 113.274244 296.819573 
L 113.8561 296.819573 
L 114.437956 297.081489 
L 115.019812 297.212447 
L 115.601668 297.212447 
L 116.183525 297.081489 
L 116.765381 297.212447 
L 117.347237 296.950531 
L 118.510949 296.688615 
L 119.092805 296.426699 
L 120.256517 296.426699 
L 120.838373 296.29574 
L 121.420229 296.29574 
L 122.002086 296.164782 
L 122.583942 296.426699 
L 123.165798 296.426699 
L 124.32951 296.164782 
L 124.911366 295.771908 
L 125.493222 295.771908 
L 126.075078 296.033824 
L 126.656934 296.164782 
L 127.23879 295.902866 
L 127.820647 295.771908 
L 128.402503 295.771908 
L 129.566215 295.509992 
L 130.148071 294.855201 
L 131.893639 294.069453 
L 133.057351 293.152746 
L 133.639208 292.628914 
L 134.221064 291.450291 
L 134.80292 291.581249 
L 135.384776 287.914423 
L 135.966632 287.652507 
L 136.548488 285.033345 
L 137.130344 283.98568 
L 137.7122 280.056938 
L 138.294056 279.925979 
L 138.875912 279.402147 
L 139.457769 279.664063 
L 140.039625 279.533105 
L 140.621481 277.044901 
L 141.203337 276.652027 
L 141.785193 275.604363 
L 142.367049 274.949572 
L 143.530761 274.032865 
L 144.112617 273.509033 
L 144.694473 273.378075 
L 145.858186 273.378075 
L 146.440042 273.247117 
L 147.021898 272.985201 
L 147.603754 272.854243 
L 148.18561 272.854243 
L 148.767466 272.723285 
L 149.349322 272.199452 
L 149.931178 272.199452 
L 150.513034 272.068494 
L 152.258603 271.282746 
L 152.840459 271.151788 
L 153.422315 270.889871 
L 154.004171 269.056458 
L 154.586027 268.9255 
L 155.167883 268.401668 
L 155.749739 268.27071 
L 156.331595 268.008793 
L 157.495308 267.746877 
L 158.077164 267.223045 
L 158.65902 267.092087 
L 159.240876 266.830171 
L 159.822732 265.651548 
L 160.404588 265.651548 
L 161.5683 264.734841 
L 162.150156 264.734841 
L 163.895725 264.341967 
L 164.477581 264.080051 
L 165.059437 263.687177 
L 165.641293 263.687177 
L 166.223149 263.42526 
L 166.805005 262.901428 
L 167.386861 263.032386 
L 167.968717 262.901428 
L 169.13243 262.377596 
L 170.877998 261.198973 
L 172.623566 258.841727 
L 173.787278 258.317895 
L 174.369135 258.317895 
L 174.950991 258.448853 
L 176.114703 257.139272 
L 176.696559 255.305859 
L 177.278415 255.043943 
L 177.860271 254.52011 
L 178.442127 254.258194 
L 179.023983 254.127236 
L 180.187696 252.948613 
L 180.769552 249.936577 
L 181.351408 250.067535 
L 181.933264 249.936577 
L 182.51512 246.793583 
L 183.096976 247.317415 
L 184.260688 247.317415 
L 184.842544 247.579332 
L 185.4244 247.186457 
L 186.588113 247.448374 
L 187.169969 246.924541 
L 187.751825 246.793583 
L 188.333681 247.186457 
L 190.079249 246.793583 
L 191.242961 246.793583 
L 191.824818 246.924541 
L 192.98853 246.269751 
L 193.570386 246.138793 
L 194.152242 242.341008 
L 196.479666 240.900469 
L 197.061522 240.900469 
L 197.643379 240.638553 
L 198.225235 240.245679 
L 198.807091 240.245679 
L 199.970803 239.983763 
L 200.552659 239.983763 
L 201.134515 239.852804 
L 201.716371 239.590888 
L 202.298227 239.590888 
L 203.46194 239.328972 
L 204.043796 238.674182 
L 204.625652 238.543224 
L 205.207508 238.281307 
L 205.789364 235.924062 
L 206.953076 235.007355 
L 207.534932 234.745439 
L 208.116788 234.221607 
L 208.698644 233.435858 
L 209.280501 233.3049 
L 209.862357 232.126277 
L 210.444213 231.602445 
L 211.026069 230.161906 
L 211.607925 229.89999 
L 212.189781 229.769032 
L 212.771637 229.769032 
L 213.935349 229.507116 
L 214.517205 229.507116 
L 215.099062 229.114241 
L 215.680918 228.983283 
L 216.262774 228.590409 
L 216.84463 227.935618 
L 217.426486 227.673702 
L 218.008342 227.018912 
L 220.335766 225.316457 
L 221.499479 223.875918 
L 222.081335 223.614002 
L 224.408759 220.99484 
L 224.990615 220.732924 
L 225.572471 221.518672 
L 226.154327 222.042504 
L 227.31804 222.304421 
L 227.899896 222.042504 
L 228.481752 222.042504 
L 229.063608 222.304421 
L 231.391032 221.780588 
L 232.554745 221.256756 
L 233.136601 221.518672 
L 233.718457 221.518672 
L 234.882169 221.256756 
L 235.464025 220.99484 
L 236.045881 220.863882 
L 237.209593 220.863882 
L 237.791449 220.732924 
L 238.373306 220.863882 
L 239.537018 220.601966 
L 240.70073 219.816217 
L 241.282586 219.685259 
L 241.864442 219.685259 
L 242.446298 219.554301 
L 243.028154 219.554301 
L 244.773723 218.506636 
L 245.355579 218.375678 
L 245.937435 217.328013 
L 246.519291 217.197055 
L 247.101147 216.935139 
L 247.683003 216.411307 
L 248.264859 216.149391 
L 248.846715 215.756516 
L 250.592284 215.363642 
L 251.17414 215.363642 
L 252.337852 214.83981 
L 254.08342 214.446935 
L 255.247132 213.792145 
L 255.828989 213.792145 
L 256.410845 213.661187 
L 256.992701 213.792145 
L 258.156413 213.268313 
L 259.901981 212.875438 
L 260.483837 212.613522 
L 261.065693 212.482564 
L 261.64755 212.08969 
L 262.229406 211.958732 
L 262.811262 211.696816 
L 263.393118 211.172983 
L 263.974974 211.172983 
L 264.55683 211.042025 
L 265.720542 210.518193 
L 266.302398 210.518193 
L 268.047967 210.125318 
L 269.211679 209.601486 
L 269.793535 209.077654 
L 270.375391 208.946696 
L 270.957247 208.553821 
L 272.120959 208.291905 
L 272.702815 208.553821 
L 273.284672 208.68478 
L 273.866528 208.553821 
L 274.448384 208.68478 
L 275.03024 208.68478 
L 275.612096 208.291905 
L 276.193952 208.160947 
L 277.357664 208.160947 
L 277.93952 207.768073 
L 278.521376 206.851366 
L 279.103233 206.458492 
L 280.266945 205.017953 
L 280.848801 204.625079 
L 282.012513 203.446456 
L 283.176225 202.791666 
L 283.758081 202.660707 
L 284.339937 202.398791 
L 284.921794 202.398791 
L 285.50365 202.267833 
L 286.085506 201.874959 
L 287.249218 201.613043 
L 288.41293 201.613043 
L 288.994786 201.482085 
L 289.576642 201.613043 
L 290.158498 201.220168 
L 291.322211 200.958252 
L 292.485923 200.303462 
L 293.067779 199.255797 
L 293.649635 198.993881 
L 294.231491 198.862923 
L 294.813347 198.601007 
L 295.395203 198.470049 
L 295.977059 198.208132 
L 296.558916 198.208132 
L 297.140772 197.946216 
L 298.304484 197.946216 
L 298.88634 197.815258 
L 299.468196 198.339091 
L 300.050052 198.339091 
L 300.631908 198.208132 
L 301.213764 198.208132 
L 302.377477 198.470049 
L 302.959333 198.470049 
L 304.123045 197.946216 
L 304.704901 197.553342 
L 306.450469 197.553342 
L 307.032325 197.6843 
L 307.614181 197.422384 
L 308.196038 197.291426 
L 308.777894 197.291426 
L 309.35975 197.02951 
L 309.941606 196.898552 
L 310.523462 196.374719 
L 311.105318 196.243761 
L 311.687174 195.850887 
L 312.850886 195.588971 
L 313.432742 195.327055 
L 314.014599 195.458013 
L 315.178311 195.458013 
L 315.760167 195.196096 
L 316.342023 195.196096 
L 316.923879 195.327055 
L 317.505735 195.327055 
L 318.087591 195.196096 
L 318.669447 195.196096 
L 319.251303 195.327055 
L 319.83316 195.327055 
L 320.996872 195.065138 
L 321.578728 194.672264 
L 322.74244 194.672264 
L 324.488008 194.27939 
L 325.069864 194.017474 
L 325.651721 193.100767 
L 326.233577 192.969809 
L 327.397289 192.445977 
L 327.979145 192.315019 
L 328.561001 191.791186 
L 329.142857 191.660228 
L 329.724713 191.398312 
L 330.888425 191.136396 
L 331.470282 190.743521 
L 332.052138 190.612563 
L 332.633994 190.612563 
L 334.379562 190.219689 
L 334.961418 190.350647 
L 336.12513 190.088731 
L 337.288843 189.564899 
L 339.034411 189.172024 
L 339.616267 188.77915 
L 340.198123 188.648192 
L 341.361835 188.648192 
L 341.943691 188.517234 
L 342.525547 187.993402 
L 343.107404 187.731485 
L 343.68926 187.600527 
L 346.016684 186.159988 
L 346.59854 185.898072 
L 347.762252 185.636156 
L 348.344108 185.37424 
L 348.925965 185.243282 
L 350.671533 184.195617 
L 351.253389 184.195617 
L 351.835245 183.933701 
L 352.417101 183.802743 
L 352.998957 183.802743 
L 353.580813 183.540827 
L 354.162669 183.540827 
L 354.744526 183.147952 
L 355.326382 183.016994 
L 355.908238 183.016994 
L 357.07195 182.755078 
L 358.235662 182.100288 
L 361.144943 181.445497 
L 361.726799 181.052623 
L 362.308655 180.921665 
L 364.054223 179.481126 
L 364.636079 179.21921 
L 365.217935 179.088252 
L 365.799791 178.695377 
L 366.381648 178.564419 
L 366.963504 178.171545 
L 368.127216 177.909629 
L 368.709072 177.909629 
L 369.290928 177.647713 
L 369.872784 177.516755 
L 370.45464 177.647713 
L 371.036496 177.516755 
L 371.618352 177.516755 
L 372.200209 177.12388 
L 372.782065 176.992922 
L 373.945777 176.992922 
L 374.527633 176.861964 
L 375.109489 176.600048 
L 375.691345 176.600048 
L 376.273201 176.46909 
L 376.855057 176.207174 
L 377.436913 176.076216 
L 378.01877 175.814299 
L 379.182482 175.552383 
L 379.764338 175.552383 
L 380.346194 175.159509 
L 382.091762 174.766635 
L 382.673618 174.766635 
L 383.255474 174.504719 
L 385.582899 173.980886 
L 386.164755 173.71897 
L 386.746611 172.933221 
L 388.492179 172.540347 
L 389.074035 172.278431 
L 389.655892 172.278431 
L 390.819604 172.016515 
L 391.40146 172.016515 
L 391.983316 171.754599 
L 392.565172 171.623641 
L 393.728884 171.623641 
L 394.892596 171.361724 
L 396.056309 171.361724 
L 396.638165 171.492683 
L 397.220021 171.361724 
L 397.801877 171.099808 
L 400.129301 170.575976 
L 400.711157 170.31406 
L 403.038582 169.790227 
L 403.620438 169.266395 
L 404.202294 169.135437 
L 406.529718 168.087772 
L 408.275287 167.694898 
L 409.438999 167.171066 
L 411.184567 166.778191 
L 411.766423 166.778191 
L 412.930136 166.254359 
L 414.675704 165.861485 
L 415.25756 165.599569 
L 415.839416 165.599569 
L 416.421272 165.46861 
L 417.003128 165.46861 
L 417.584984 165.206694 
L 418.16684 164.682862 
L 418.748697 164.551904 
L 419.912409 163.897113 
L 420.494265 163.635197 
L 421.076121 163.242323 
L 421.657977 163.111365 
L 422.821689 162.587533 
L 423.985401 161.932742 
L 424.567258 161.801784 
L 425.73097 161.277952 
L 426.312826 160.885077 
L 426.894682 160.885077 
L 427.476538 161.016035 
L 428.64025 160.754119 
L 429.222106 160.492203 
L 429.803962 160.099329 
L 430.967675 159.837413 
L 431.549531 157.349209 
L 432.131387 157.349209 
L 432.713243 157.218251 
L 433.295099 156.956335 
L 433.876955 156.56346 
L 434.458811 155.90867 
L 435.622523 155.384838 
L 437.368092 154.337173 
L 439.11366 153.944299 
L 439.695516 153.682383 
L 440.277372 153.289508 
L 441.441084 153.027592 
L 443.186653 151.979927 
L 443.768509 151.848969 
L 445.514077 150.801305 
L 446.095933 149.75364 
L 446.677789 150.015556 
L 447.841502 150.015556 
L 448.423358 150.277472 
L 449.005214 150.277472 
L 449.58707 150.40843 
L 450.750782 150.40843 
L 451.332638 150.277472 
L 451.914494 149.622682 
L 453.078206 148.967891 
L 454.241919 148.705975 
L 455.405631 148.182143 
L 456.569343 147.396394 
L 457.151199 147.265436 
L 457.733055 145.170107 
L 458.314911 144.2534 
L 458.896767 143.860526 
L 459.478624 143.991484 
L 460.642336 143.729568 
L 461.224192 143.467652 
L 462.96976 142.419987 
L 463.551616 142.289029 
L 465.297185 141.241364 
L 467.624609 140.717532 
L 468.206465 140.455616 
L 468.788321 140.979448 
L 469.370177 141.241364 
L 470.533889 142.027113 
L 471.115746 141.896155 
L 472.279458 141.896155 
L 472.861314 141.634238 
L 474.025026 141.634238 
L 475.770594 141.241364 
L 477.516163 142.027113 
L 478.098019 142.158071 
L 478.679875 142.027113 
L 479.261731 142.289029 
L 479.843587 143.467652 
L 480.425443 143.729568 
L 481.007299 144.515316 
L 481.589155 144.777233 
L 483.334724 144.384358 
L 483.91658 144.122442 
L 484.498436 143.59861 
L 485.662148 144.2534 
L 486.244004 143.991484 
L 486.82586 144.122442 
L 487.407716 144.122442 
L 487.989572 144.646274 
L 488.571429 144.646274 
L 489.153285 144.2534 
L 489.735141 144.122442 
L 490.898853 143.59861 
L 491.480709 143.467652 
L 492.062565 143.467652 
L 493.226277 144.122442 
L 494.38999 144.646274 
L 494.971846 144.777233 
L 495.553702 144.646274 
L 496.135558 144.384358 
L 496.717414 144.515316 
L 497.29927 144.384358 
L 499.044838 143.336694 
L 499.626694 143.205735 
L 500.208551 142.943819 
L 500.790407 142.812861 
L 501.372263 142.812861 
L 501.954119 142.943819 
L 502.535975 143.205735 
L 503.117831 143.336694 
L 503.699687 143.205735 
L 504.863399 143.205735 
L 505.445255 143.074777 
L 506.027112 143.074777 
L 506.608968 142.812861 
L 508.354536 142.812861 
L 510.100104 142.419987 
L 511.845673 142.419987 
L 512.427529 142.158071 
L 514.754953 142.158071 
L 515.918665 141.896155 
L 517.664234 141.896155 
L 518.24609 141.634238 
L 518.827946 141.634238 
L 519.409802 141.50328 
L 520.573514 141.50328 
L 521.15537 141.241364 
L 521.737226 141.241364 
L 525.228363 140.455616 
L 526.392075 140.455616 
L 528.137643 140.062741 
L 528.719499 139.407951 
L 531.62878 138.75316 
L 532.210636 138.491244 
L 533.374348 138.229328 
L 533.956204 137.836454 
L 534.53806 137.705496 
L 535.119917 137.44358 
L 536.865485 137.44358 
L 537.447341 137.312622 
L 538.029197 137.050705 
L 540.938478 136.395915 
L 542.10219 136.395915 
L 542.684046 136.657831 
L 543.265902 137.050705 
L 544.429614 137.050705 
L 545.593326 137.312622 
L 546.175182 137.312622 
L 547.920751 136.919747 
L 548.502607 136.919747 
L 549.084463 136.788789 
L 550.248175 136.133999 
L 553.157456 135.479208 
L 553.739312 135.217292 
L 554.321168 135.086334 
L 554.903024 135.086334 
L 555.48488 134.824418 
L 556.066736 134.69346 
L 557.230448 134.038669 
L 557.812304 133.907711 
L 558.394161 133.645795 
L 559.557873 132.991005 
L 560.139729 132.729088 
L 560.721585 132.59813 
L 561.303441 132.205256 
L 562.467153 131.94334 
L 564.212722 130.895675 
L 564.794578 130.633759 
L 565.95829 129.84801 
L 567.122002 129.586094 
L 568.285714 129.062262 
L 568.86757 128.931304 
L 569.449426 129.19322 
L 570.031283 129.586094 
L 571.194995 129.324178 
L 572.358707 128.800346 
L 573.522419 129.84801 
L 574.104275 130.764717 
L 574.686131 131.288549 
L 575.267987 131.026633 
L 575.849844 130.371843 
L 576.4317 130.109927 
L 577.013556 130.109927 
L 578.177268 129.84801 
L 578.759124 129.586094 
L 580.504692 128.53843 
L 581.086548 128.276513 
L 581.668405 128.276513 
L 582.250261 128.014597 
L 582.832117 128.014597 
L 583.413973 127.883639 
L 584.577685 127.359807 
L 585.159541 127.228849 
L 585.741397 127.228849 
L 586.323253 127.097891 
L 586.905109 126.835974 
L 590.978102 125.919268 
L 591.559958 125.919268 
L 592.141814 125.78831 
L 592.72367 125.395436 
L 593.887383 125.133519 
L 594.469239 124.871603 
L 595.051095 124.740645 
L 595.632951 124.347771 
L 596.214807 124.347771 
L 597.378519 124.085855 
L 598.542231 123.562022 
L 600.2878 123.169148 
L 601.451512 122.383399 
L 602.615224 122.121483 
L 603.19708 122.121483 
L 603.778936 121.597651 
L 604.942649 121.073819 
L 605.524505 120.942861 
L 606.106361 120.680944 
L 606.688217 120.680944 
L 607.270073 120.549986 
L 607.851929 120.549986 
L 609.015641 120.28807 
L 609.597497 119.764238 
L 610.179353 119.63328 
L 611.343066 118.978489 
L 611.924922 118.716573 
L 612.506778 118.716573 
L 613.088634 118.454657 
L 614.834202 118.061783 
L 616.579771 117.014118 
L 617.161627 117.014118 
L 617.743483 116.752202 
L 618.907195 116.752202 
L 619.489051 116.621244 
L 620.070907 116.359327 
L 620.652763 116.359327 
L 621.816475 116.097411 
L 622.398332 116.359327 
L 622.980188 116.359327 
L 623.562044 116.490286 
L 624.1439 116.359327 
L 624.725756 116.359327 
L 625.307612 115.966453 
L 627.05318 115.966453 
L 629.380605 115.442621 
L 630.544317 114.918788 
L 631.126173 114.918788 
L 632.289885 114.394956 
L 632.871741 114.263998 
L 634.035454 113.609208 
L 634.61731 113.478249 
L 635.199166 112.954417 
L 635.781022 112.823459 
L 636.944734 111.906752 
L 637.52659 111.644836 
L 638.690302 111.38292 
L 640.435871 110.335255 
L 641.017727 110.204297 
L 641.599583 109.942381 
L 642.181439 109.549507 
L 642.763295 109.549507 
L 643.345151 109.680465 
L 643.927007 109.549507 
L 644.508863 109.680465 
L 645.090719 109.287591 
L 646.836288 108.894716 
L 648 108.894716 
L 648 108.894716 
" style="fill:none;stroke:#ff7f0e;stroke-linecap:square;stroke-width:1.5;"/>
   </g>
   <g id="patch_3">
    <path d="M 90 320.4 
L 90 43.2 
" style="fill:none;stroke:#000000;stroke-linecap:square;stroke-linejoin:miter;stroke-width:0.8;"/>
   </g>
   <g id="patch_4">
    <path d="M 648 320.4 
L 648 43.2 
" style="fill:none;stroke:#000000;stroke-linecap:square;stroke-linejoin:miter;stroke-width:0.8;"/>
   </g>
   <g id="patch_5">
    <path d="M 90 320.4 
L 648 320.4 
" style="fill:none;stroke:#000000;stroke-linecap:square;stroke-linejoin:miter;stroke-width:0.8;"/>
   </g>
   <g id="patch_6">
    <path d="M 90 43.2 
L 648 43.2 
" style="fill:none;stroke:#000000;stroke-linecap:square;stroke-linejoin:miter;stroke-width:0.8;"/>
   </g>
   <g id="text_14">
    <!--  -->
    <defs>
     <path d="M 98.734375 10.890625 
Q 95.515625 6.890625 93.453125 3.859375 
Q 84.46875 8.109375 76.953125 14.015625 
L 76.953125 8.640625 
L 53.609375 8.640625 
L 53.609375 -1.515625 
L 91.796875 -1.515625 
L 91.796875 -7.859375 
L 8.109375 -7.859375 
L 8.109375 -1.515625 
L 46.296875 -1.515625 
L 46.296875 8.640625 
L 22.65625 8.640625 
L 22.65625 13.96875 
Q 14.890625 7.46875 6.453125 2.6875 
Q 4.59375 5.328125 1.375 8.84375 
Q 16.40625 16.15625 27.390625 27.390625 
L 2.4375 27.390625 
L 2.4375 33.734375 
L 21.875 33.734375 
L 21.875 66.453125 
L 5.46875 66.453125 
L 5.46875 72.796875 
L 21.875 72.796875 
L 21.875 83.34375 
L 29.203125 83.34375 
L 29.203125 72.796875 
L 71.09375 72.796875 
L 71.09375 83.34375 
L 78.421875 83.34375 
L 78.421875 72.796875 
L 94.828125 72.796875 
L 94.828125 66.453125 
L 78.421875 66.453125 
L 78.421875 33.734375 
L 97.5625 33.734375 
L 97.5625 27.390625 
L 71.875 27.390625 
Q 82.859375 16.453125 98.734375 10.890625 
z
M 46.296875 24.265625 
L 53.609375 24.265625 
L 53.609375 14.796875 
L 75.984375 14.796875 
Q 69 20.40625 63.234375 27.390625 
L 36.328125 27.390625 
Q 30.21875 20.453125 23.640625 14.796875 
L 46.296875 14.796875 
z
M 29.203125 33.734375 
L 71.09375 33.734375 
L 71.09375 40.671875 
L 29.203125 40.671875 
z
M 29.203125 46.734375 
L 71.09375 46.734375 
L 71.09375 53.5625 
L 29.203125 53.5625 
z
M 29.203125 59.625 
L 71.09375 59.625 
L 71.09375 66.453125 
L 29.203125 66.453125 
z
" id="MicrosoftYaHei-57fa"/>
     <path d="M 4.6875 -2.203125 
L 46.09375 -2.203125 
L 46.09375 21.625 
L 11.140625 21.625 
L 11.140625 28.765625 
L 46.09375 28.765625 
L 46.09375 42.4375 
L 20.703125 42.4375 
L 20.703125 49.265625 
Q 13.765625 44.875 5.671875 40.484375 
Q 3.609375 44.1875 0.78125 47.796875 
Q 33.296875 63.03125 46.78125 82.765625 
L 57.421875 82.765625 
L 55.171875 80.03125 
Q 70.703125 60.203125 99.125 49.171875 
Q 96.484375 45.453125 93.953125 41.359375 
Q 86.328125 44.578125 79.203125 49.078125 
L 79.203125 42.4375 
L 53.90625 42.4375 
L 53.90625 28.765625 
L 88.671875 28.765625 
L 88.671875 21.625 
L 53.90625 21.625 
L 53.90625 -2.203125 
L 95.515625 -2.203125 
L 95.515625 -9.421875 
L 4.6875 -9.421875 
z
M 50.09375 74.46875 
Q 40.046875 61.765625 21.09375 49.5625 
L 78.421875 49.5625 
Q 63.1875 59.234375 50.09375 74.46875 
z
M 63.96875 4.4375 
Q 71.875 12.640625 77.34375 20.453125 
L 84.1875 16.0625 
Q 77.34375 7.5625 69.828125 -0.25 
z
M 15.625 15.671875 
L 21.390625 20.265625 
Q 28.515625 13.03125 35.359375 5.21875 
L 28.71875 -0.046875 
Q 22.859375 7.671875 15.625 15.671875 
z
" id="MicrosoftYaHei-91d1"/>
     <path d="M 71.09375 31.109375 
Q 84.765625 19.96875 92.875 12.0625 
L 87.5 6.59375 
Q 83.6875 10.546875 79.640625 14.40625 
Q 67.71875 13.921875 55.5625 13.375 
L 55.5625 0.34375 
Q 55.5625 -11.765625 43.359375 -11.765625 
Q 37.109375 -11.765625 29.390625 -11.671875 
Q 28.8125 -7.765625 27.9375 -3.5625 
Q 35.453125 -4.25 41.40625 -4.25 
Q 47.953125 -4.25 47.953125 2.875 
L 47.953125 13.03125 
Q 34.859375 12.40625 21.484375 11.765625 
Q 17.1875 11.578125 13.1875 10.984375 
L 10.546875 18.40625 
Q 16.5 19.09375 23.921875 21.921875 
Q 33.9375 25.78125 45.5625 31 
Q 33.40625 30.609375 23.921875 30.03125 
Q 19.234375 29.734375 16.890625 29.4375 
L 14.359375 35.890625 
Q 19.234375 36.859375 24.21875 39.109375 
Q 30.765625 42.046875 37.15625 45.453125 
L 18.84375 45.453125 
L 18.84375 42.625 
L 11.421875 42.625 
L 11.421875 79.734375 
L 88.671875 79.734375 
L 88.671875 42.625 
L 81.25 42.625 
L 81.25 45.453125 
L 48.828125 45.453125 
Q 38.03125 39.984375 27.546875 35.5 
Q 40.328125 35.84375 57.328125 36.46875 
Q 64.0625 39.65625 71.296875 43.3125 
L 76.375 38.03125 
Q 53.03125 27 28.515625 17.921875 
Q 53.171875 19 73.1875 20.265625 
Q 69.625 23.4375 65.921875 26.515625 
z
M 53.609375 51.125 
L 81.25 51.125 
L 81.25 60.015625 
L 53.609375 60.015625 
z
M 18.84375 51.125 
L 46.390625 51.125 
L 46.390625 60.015625 
L 18.84375 60.015625 
z
M 81.25 74.078125 
L 53.609375 74.078125 
L 53.609375 65.28125 
L 81.25 65.28125 
z
M 18.84375 65.28125 
L 46.390625 65.28125 
L 46.390625 74.078125 
L 18.84375 74.078125 
z
M 29.59375 8.9375 
L 33.984375 2.875 
Q 19.734375 -4.25 5.953125 -9.625 
Q 4.5 -6.59375 2.546875 -3.078125 
Q 17.09375 2.59375 29.59375 8.9375 
z
M 69.234375 8.546875 
Q 83.796875 3.65625 97.171875 -2.296875 
L 94.140625 -8.9375 
Q 81.0625 -2.984375 65.921875 2.09375 
z
" id="MicrosoftYaHei-7d2f"/>
     <path d="M 43.953125 74.75 
L 93.359375 74.75 
L 93.359375 23.875 
L 85.9375 23.875 
L 85.9375 28.5625 
L 51.375 28.5625 
L 51.375 23.875 
L 43.953125 23.875 
z
M 1.375 13.328125 
Q 10.453125 27 16.5 46.046875 
L 1.859375 46.046875 
L 1.859375 52.875 
L 17.484375 52.875 
L 17.484375 68.40625 
Q 11.140625 67.921875 3.8125 67.4375 
Q 3.328125 70.953125 2.34375 74.5625 
Q 22.265625 75.640625 37.109375 77.78125 
L 38.875 70.359375 
Q 32.90625 69.671875 24.703125 69 
L 24.703125 52.875 
L 39.265625 52.875 
L 39.265625 46.046875 
L 24.703125 46.046875 
L 24.703125 32.28125 
L 28.609375 35.890625 
Q 34.578125 30.03125 41.3125 22.515625 
L 35.75 17.625 
Q 30.46875 24.078125 24.703125 30.21875 
L 24.703125 -13.328125 
L 17.484375 -13.328125 
L 17.484375 30.125 
Q 12.203125 15.578125 4.78125 4.9375 
Q 3.21875 9.234375 1.375 13.328125 
z
M 85.9375 68.109375 
L 51.375 68.109375 
L 51.375 35.203125 
L 85.9375 35.203125 
z
M 54.296875 17.625 
L 60.75 13.03125 
Q 49.609375 -1.03125 39.359375 -11.859375 
Q 37.015625 -9.328125 33.796875 -6.5 
Q 45.703125 5.515625 54.296875 17.625 
z
M 74.609375 12.9375 
L 80.671875 17.140625 
Q 89.65625 6.890625 99.3125 -5.8125 
L 92.484375 -10.984375 
Q 83.890625 1.703125 74.609375 12.9375 
z
" id="MicrosoftYaHei-79ef"/>
     <path d="M 31.453125 19.96875 
L 55.859375 19.96875 
L 55.859375 30.421875 
L 26.65625 30.421875 
L 26.65625 37.453125 
L 55.859375 37.453125 
L 55.859375 47.796875 
L 33.203125 47.796875 
L 33.203125 51.515625 
Q 31.390625 49.65625 29.59375 47.90625 
Q 27.9375 49.65625 24.3125 53.375 
Q 36.71875 65.09375 47.65625 83.640625 
L 55.078125 81.6875 
Q 53.125 78.125 51.03125 74.75 
L 80.375 74.75 
L 80.375 68.21875 
L 69.046875 54.640625 
L 89.0625 54.640625 
L 89.0625 37.453125 
L 97.953125 37.453125 
L 97.953125 30.421875 
L 89.0625 30.421875 
L 89.0625 9.125 
L 81.640625 9.125 
L 81.640625 13.140625 
L 63.484375 13.140625 
L 63.484375 0.046875 
Q 63.484375 -11.96875 51.171875 -12.0625 
Q 44.734375 -12.0625 38.875 -12.0625 
Q 38.1875 -7.859375 37.3125 -3.953125 
Q 43.453125 -4.640625 49.421875 -4.640625 
Q 55.859375 -4.640625 55.859375 1.8125 
L 55.859375 13.140625 
L 31.453125 13.140625 
z
M 70.90625 68.015625 
L 46.625 68.015625 
Q 41.703125 60.890625 36.078125 54.640625 
L 60.109375 54.640625 
z
M 14.453125 36.46875 
Q 17.96875 34.71875 21.78125 33.15625 
Q 16.609375 15.484375 11.140625 -3.765625 
L 3.21875 -0.734375 
Q 9.96875 18.109375 14.453125 36.46875 
z
M 63.484375 19.96875 
L 81.640625 19.96875 
L 81.640625 30.421875 
L 63.484375 30.421875 
z
M 10.359375 76.421875 
Q 16.609375 65.671875 21.96875 54.828125 
Q 17.96875 52.6875 14.65625 51.125 
Q 9.671875 62.359375 4 73.09375 
z
M 81.640625 47.796875 
L 63.484375 47.796875 
L 63.484375 37.453125 
L 81.640625 37.453125 
z
" id="MicrosoftYaHei-51c0"/>
     <path d="M 25.296875 -3.375 
L 35.15625 -3.375 
L 35.15625 57.078125 
L 58.203125 57.078125 
L 58.203125 65.96875 
L 29.890625 65.96875 
L 29.890625 72.609375 
L 58.203125 72.609375 
L 58.203125 82.953125 
L 65.625 82.953125 
L 65.625 72.609375 
L 96.390625 72.609375 
L 96.390625 65.96875 
L 65.625 65.96875 
L 65.625 57.078125 
L 89.265625 57.078125 
L 89.265625 -3.375 
L 98.53125 -3.375 
L 98.53125 -10.015625 
L 25.296875 -10.015625 
z
M 1.078125 35.109375 
Q 14.15625 54.640625 21.390625 82.46875 
L 28.609375 80.328125 
Q 24.703125 67.71875 20.125 56.6875 
L 20.125 -12.75 
L 12.984375 -12.75 
L 12.984375 41.65625 
Q 8.796875 33.84375 4.109375 27.09375 
Q 2.734375 31.203125 1.078125 35.109375 
z
M 42.390625 -3.375 
L 82.03125 -3.375 
L 82.03125 5.515625 
L 42.390625 5.515625 
z
M 82.03125 50.640625 
L 42.390625 50.640625 
L 42.390625 41.84375 
L 82.03125 41.84375 
z
M 42.390625 26.8125 
L 82.03125 26.8125 
L 82.03125 35.59375 
L 42.390625 35.59375 
z
M 42.390625 11.765625 
L 82.03125 11.765625 
L 82.03125 20.5625 
L 42.390625 20.5625 
z
" id="MicrosoftYaHei-503c"/>
    </defs>
    <g transform="translate(333 37.2)scale(0.12 -0.12)">
     <use xlink:href="#MicrosoftYaHei-57fa"/>
     <use x="100" xlink:href="#MicrosoftYaHei-91d1"/>
     <use x="200" xlink:href="#MicrosoftYaHei-7d2f"/>
     <use x="300" xlink:href="#MicrosoftYaHei-79ef"/>
     <use x="400" xlink:href="#MicrosoftYaHei-51c0"/>
     <use x="500" xlink:href="#MicrosoftYaHei-503c"/>
    </g>
   </g>
   <g id="legend_1">
    <g id="patch_7">
     <path d="M 97 82.159375 
L 205.689063 82.159375 
Q 207.689063 82.159375 207.689063 80.159375 
L 207.689063 50.2 
Q 207.689063 48.2 205.689063 48.2 
L 97 48.2 
Q 95 48.2 95 50.2 
L 95 80.159375 
Q 95 82.159375 97 82.159375 
z
" style="fill:#ffffff;opacity:0.8;stroke:#cccccc;stroke-linejoin:miter;"/>
    </g>
    <g id="line2d_29">
     <path d="M 99 56.69375 
L 119 56.69375 
" style="fill:none;stroke:#1f77b4;stroke-linecap:square;stroke-width:1.5;"/>
    </g>
    <g id="line2d_30"/>
    <g id="text_15">
     <!-- C -->
     <defs>
      <path d="M 33.015625 -12.84375 
Q 30.078125 -10.015625 27.828125 -7.953125 
Q 33.59375 3.078125 33.59375 26.515625 
L 33.59375 77.6875 
L 54.109375 77.6875 
L 54.109375 -0.828125 
Q 54.109375 -10.890625 47.5625 -11.078125 
Q 44.828125 -11.28125 40.046875 -11.28125 
Q 39.453125 -7.953125 38.28125 -4.25 
Q 42.390625 -4.640625 44.4375 -4.640625 
Q 48.046875 -4.734375 48.046875 -0.4375 
L 48.046875 21.734375 
L 39.546875 21.734375 
Q 39.0625 -1.3125 33.015625 -12.84375 
z
M 6.25 -13.03125 
Q 4.78125 -11.46875 1.078125 -8.15625 
Q 6.640625 4.046875 6.640625 26.421875 
L 6.640625 77.6875 
L 27.046875 77.6875 
L 27.046875 -1.03125 
Q 27.046875 -11.46875 19.140625 -11.46875 
Q 16.015625 -11.46875 12.5 -11.28125 
Q 12.109375 -8.84375 11.03125 -4.4375 
Q 14.65625 -4.828125 17 -4.828125 
Q 21 -4.828125 21 -0.640625 
L 21 21.734375 
L 12.59375 21.734375 
Q 12.109375 -0.046875 6.25 -13.03125 
z
M 66.796875 66.84375 
L 66.796875 31 
L 94.828125 31 
Q 94.53125 13.53125 93.84375 4.046875 
Q 92.875 -11.375 78.515625 -11.375 
Q 69.4375 -11.375 63.484375 -11.1875 
Q 62.984375 -8.0625 61.921875 -4.15625 
Q 70.125 -4.546875 77.9375 -4.546875 
Q 86.71875 -4.546875 87.40625 4.734375 
Q 87.984375 12.640625 88.1875 24.75 
L 60.75 24.75 
L 60.75 72.90625 
L 69.140625 72.90625 
Q 71 78.265625 72.46875 83.34375 
L 79.78125 81.296875 
Q 78.125 77.203125 76.265625 72.90625 
L 92.390625 72.90625 
Q 92.1875 58.34375 92 49.5625 
Q 91.796875 37.0625 80.953125 36.96875 
Q 76.171875 36.859375 71.484375 37.0625 
Q 71.1875 38.8125 70.125 43.796875 
Q 75.984375 43.40625 80.375 43.40625 
Q 85.9375 43.40625 86.140625 49.46875 
Q 86.421875 56.984375 86.421875 66.84375 
z
M 39.65625 27.78125 
L 48.046875 27.78125 
L 48.046875 46.734375 
L 39.65625 46.734375 
z
M 12.703125 27.78125 
L 21 27.78125 
L 21 46.734375 
L 12.703125 46.734375 
z
M 48.046875 71.4375 
L 39.65625 71.4375 
L 39.65625 52.78125 
L 48.046875 52.78125 
z
M 21 71.4375 
L 12.703125 71.4375 
L 12.703125 52.78125 
L 21 52.78125 
z
M 57.8125 14.5 
L 82.328125 14.5 
L 82.328125 8.25 
L 57.8125 8.25 
z
M 69.140625 59.328125 
L 73.828125 63.234375 
Q 79.390625 57.28125 83.59375 52.390625 
L 78.421875 48.09375 
Q 74.03125 53.765625 69.140625 59.328125 
z
" id="MicrosoftYaHei-9e4f"/>
      <path d="M 75 69.96875 
L 37.890625 69.96875 
L 37.890625 77 
L 88.875 77 
L 88.875 69.875 
L 50 45.65625 
L 94.734375 45.65625 
Q 93.453125 17.828125 92.390625 3.078125 
Q 91.109375 -10.984375 77.734375 -10.984375 
Q 72.171875 -10.984375 64.453125 -10.6875 
Q 63.765625 -6.5 62.703125 -2.203125 
Q 69.046875 -3.265625 76.46875 -3.265625 
Q 84.078125 -3.265625 84.765625 4.734375 
Q 85.9375 19.484375 86.8125 38.625 
L 77.6875 38.625 
Q 73.046875 6.453125 46.484375 -12.453125 
Q 44.140625 -9.515625 40.71875 -6.5 
Q 65.484375 10.0625 70.125 38.625 
L 58.015625 38.625 
Q 52.828125 15.765625 31.25 0.4375 
Q 28.8125 3.5625 25.6875 6.59375 
Q 45.65625 20.3125 50.390625 38.625 
L 36.71875 38.625 
L 36.71875 46.046875 
z
M 1.375 31.5 
Q 8.640625 33.6875 15.328125 35.84375 
L 15.328125 56.890625 
L 2.734375 56.890625 
L 2.734375 63.921875 
L 15.328125 63.921875 
L 15.328125 82.28125 
L 22.65625 82.28125 
L 22.65625 63.921875 
L 33.984375 63.921875 
L 33.984375 56.890625 
L 22.65625 56.890625 
L 22.65625 38.234375 
Q 27.984375 40.046875 32.90625 41.84375 
Q 33.109375 36.96875 33.203125 34.234375 
Q 27.734375 32.375 22.65625 30.609375 
L 22.65625 -0.921875 
Q 22.65625 -11.578125 12.984375 -11.671875 
Q 9.578125 -11.765625 3.90625 -11.578125 
Q 3.515625 -7.5625 2.734375 -3.46875 
Q 8.59375 -4.046875 11.140625 -4.046875 
Q 15.328125 -4.15625 15.328125 0.828125 
L 15.328125 28.078125 
Q 8.5 25.640625 2.4375 23.390625 
z
" id="MicrosoftYaHei-626c"/>
      <path d="M 1.171875 11.578125 
Q 14.265625 25.828125 23.25 46.828125 
L 1.65625 46.828125 
L 1.65625 53.953125 
L 25.09375 53.953125 
L 25.09375 68.609375 
Q 15.046875 67.625 5.171875 66.75 
Q 4.5 70.359375 3.21875 74.171875 
Q 26.65625 76.03125 51.078125 79.15625 
L 53.03125 71.734375 
Q 42.671875 70.453125 32.515625 69.390625 
L 32.515625 53.953125 
L 54.6875 53.953125 
L 54.6875 46.828125 
L 32.515625 46.828125 
L 32.515625 33.734375 
L 36.8125 37.84375 
Q 46 30.03125 55.078125 21.046875 
L 49.125 14.984375 
Q 43.171875 21.921875 32.515625 32.078125 
L 32.515625 -12.9375 
L 25.09375 -12.9375 
L 25.09375 35.890625 
Q 16.703125 16.9375 5.078125 2.78125 
Q 2.4375 9.125 1.171875 11.578125 
z
M 85.0625 81.203125 
L 92.78125 81.203125 
L 92.78125 -0.140625 
Q 92.78125 -12.546875 80.28125 -12.453125 
Q 76.265625 -12.453125 67.28125 -12.359375 
Q 66.703125 -8.34375 65.828125 -3.5625 
Q 73.734375 -4.4375 77.828125 -4.4375 
Q 85.0625 -4.546875 85.0625 2.875 
z
M 61.921875 71.4375 
L 69.34375 71.4375 
L 69.34375 9.71875 
L 61.921875 9.71875 
z
" id="MicrosoftYaHei-5229"/>
      <path d="M 31.453125 71.625 
L 31.453125 78.265625 
L 89.75 78.265625 
L 89.75 71.734375 
Q 82.765625 60.203125 69 51.703125 
Q 81.0625 46.296875 97.953125 44.578125 
Q 96 41.359375 93.953125 37.0625 
Q 74.5625 40.09375 61.375 47.515625 
Q 48 40.921875 29.59375 36.578125 
Q 28.03125 39.890625 25.390625 43.890625 
Q 42 46.734375 54.390625 52.046875 
Q 43.84375 60.015625 38.484375 71.625 
z
M 25.390625 11.96875 
L 58.109375 11.96875 
L 58.109375 23.96875 
L 31.0625 23.96875 
L 31.0625 30.609375 
L 58.109375 30.609375 
L 58.109375 40.875 
L 65.53125 40.875 
L 65.53125 30.609375 
L 92.1875 30.609375 
L 92.1875 23.96875 
L 65.53125 23.96875 
L 65.53125 11.96875 
L 97.078125 11.96875 
L 97.078125 5.328125 
L 65.53125 5.328125 
L 65.53125 -12.640625 
L 58.109375 -12.640625 
L 58.109375 5.328125 
L 25.390625 5.328125 
z
M 81.0625 71.625 
L 45.90625 71.625 
Q 51.609375 61.859375 61.765625 55.5625 
Q 73.875 62.15625 81.0625 71.625 
z
M 4.5 -9.515625 
Q 10.359375 8.0625 14.546875 28.265625 
Q 18.453125 26.609375 22.46875 25.25 
Q 18.171875 8.546875 13.09375 -12.15625 
z
M 5.078125 76.21875 
L 10.15625 81.390625 
Q 19.4375 74.171875 26.953125 67.625 
L 21.09375 61.859375 
Q 12.5 70.171875 5.078125 76.21875 
z
M 1.265625 50.734375 
L 6.25 56.296875 
Q 16.21875 49.171875 23.140625 43.703125 
L 17.390625 37.453125 
Q 8.5 45.359375 1.265625 50.734375 
z
" id="MicrosoftYaHei-6cfd"/>
      <path d="M 26.859375 47.40625 
L 58.984375 47.40625 
L 58.984375 54.34375 
L 34.1875 54.34375 
L 34.1875 60.5 
L 58.984375 60.5 
L 58.984375 67.328125 
L 31.0625 67.328125 
L 31.0625 73.484375 
L 58.984375 73.484375 
L 58.984375 82.171875 
L 66.3125 82.171875 
L 66.3125 73.484375 
L 95.125 73.484375 
L 95.125 67.328125 
L 66.3125 67.328125 
L 66.3125 60.5 
L 90.328125 60.5 
L 90.328125 54.34375 
L 66.3125 54.34375 
L 66.3125 47.40625 
L 97.953125 47.40625 
L 97.953125 41.265625 
L 26.859375 41.265625 
z
M 1.265625 35.203125 
Q 12.890625 54.25 19.34375 82.375 
L 26.46875 81.109375 
Q 23.640625 70.65625 20.40625 61.375 
L 20.40625 -13.71875 
L 13.28125 -13.71875 
L 13.28125 44.09375 
Q 8.890625 35.015625 3.90625 27.390625 
Q 2.734375 31.390625 1.265625 35.203125 
z
M 34.859375 34.625 
L 89.15625 34.625 
L 89.15625 4.4375 
L 82.03125 4.4375 
L 82.03125 28.265625 
L 42 28.265625 
L 42 3.953125 
L 34.859375 3.953125 
z
M 58.5 25.140625 
L 65.625 25.140625 
Q 65.625 17.046875 64.0625 10.984375 
Q 80.5625 2.78125 97.265625 -7.765625 
L 92.875 -14.015625 
Q 77.546875 -3.953125 61.921875 4.9375 
Q 60.546875 2.09375 58.6875 0.046875 
Q 50.875 -8.9375 31.453125 -13.921875 
Q 28.515625 -8.453125 27.25 -6.890625 
Q 45.90625 -2.875 52.25 3.859375 
Q 58.5 9.8125 58.5 25.140625 
z
" id="MicrosoftYaHei-503a"/>
      <path d="M 2.734375 44.671875 
L 31.0625 44.671875 
Q 35.15625 50.046875 38.09375 56.109375 
L 6.9375 56.109375 
L 6.9375 62.75 
L 41.015625 62.75 
Q 44.625 72.015625 46.96875 83.0625 
L 54.78125 81.390625 
Q 52.15625 71.34375 49.125 62.75 
L 92.578125 62.75 
L 92.578125 56.109375 
L 46.578125 56.109375 
Q 43.953125 50.140625 40.234375 44.671875 
L 97.5625 44.671875 
L 97.5625 38.03125 
L 71 38.03125 
Q 81.640625 26.515625 98.734375 23 
Q 96 19.484375 93.359375 15.578125 
Q 84.96875 18.40625 78.125 22.90625 
Q 76.765625 11.28125 75.484375 1.8125 
Q 73.4375 -11.578125 60.359375 -11.46875 
Q 56.0625 -11.46875 44.34375 -11.28125 
Q 43.65625 -7.375 42.28125 -3.265625 
Q 50.984375 -3.953125 58.109375 -3.953125 
Q 66.703125 -3.953125 67.875 3.078125 
Q 68.75 8.546875 69.828125 18.21875 
L 40.71875 18.21875 
Q 38.875 5.125 32.90625 -1.421875 
Q 26.46875 -8.84375 9.1875 -14.109375 
Q 6.84375 -9.90625 4.890625 -6.984375 
Q 21 -2.875 26.953125 3.953125 
Q 31.640625 9.125 33.015625 18.21875 
L 19.53125 18.21875 
L 19.53125 23.296875 
Q 13.375 18.703125 6.25 14.703125 
Q 4.203125 18.015625 1.375 21.234375 
Q 15.625 28.171875 25.296875 38.03125 
L 2.734375 38.03125 
z
M 21.484375 24.859375 
L 75.203125 24.859375 
Q 67.78125 30.328125 62.3125 38.03125 
L 35.15625 38.03125 
Q 29.296875 30.90625 21.484375 24.859375 
z
M 66.015625 67.53125 
Q 72.5625 74.265625 77.4375 81.6875 
L 84.1875 77.484375 
Q 78.609375 70.0625 71.875 63.140625 
z
M 14.359375 77.09375 
L 19.921875 81.59375 
Q 26.953125 75.046875 32.515625 68.890625 
L 26.265625 63.71875 
Q 20.796875 70.359375 14.359375 77.09375 
z
" id="MicrosoftYaHei-5238"/>
      <path d="M 61.53125 3.125 
Q 53.171875 -1.265625 40.578125 -1.265625 
Q 24.3125 -1.265625 14.59375 9.0625 
Q 4.890625 19.390625 4.890625 36.375 
Q 4.890625 54.640625 15.828125 65.765625 
Q 26.765625 76.90625 43.609375 76.90625 
Q 54.4375 76.90625 61.53125 73.828125 
L 61.53125 63.625 
Q 53.421875 68.109375 43.703125 68.109375 
Q 31.0625 68.109375 23.09375 59.6875 
Q 15.140625 51.265625 15.140625 36.96875 
Q 15.140625 23.390625 22.5625 15.40625 
Q 29.984375 7.421875 42 7.421875 
Q 53.21875 7.421875 61.53125 12.5 
z
" id="MicrosoftYaHei-43"/>
     </defs>
     <g transform="translate(127 60.19375)scale(0.1 -0.1)">
      <use xlink:href="#MicrosoftYaHei-9e4f"/>
      <use x="100" xlink:href="#MicrosoftYaHei-626c"/>
      <use x="200" xlink:href="#MicrosoftYaHei-5229"/>
      <use x="300" xlink:href="#MicrosoftYaHei-6cfd"/>
      <use x="400" xlink:href="#MicrosoftYaHei-503a"/>
      <use x="500" xlink:href="#MicrosoftYaHei-5238"/>
      <use x="600" xlink:href="#MicrosoftYaHei-43"/>
     </g>
    </g>
    <g id="line2d_31">
     <path d="M 99 72.173437 
L 119 72.173437 
" style="fill:none;stroke:#ff7f0e;stroke-linecap:square;stroke-width:1.5;"/>
    </g>
    <g id="line2d_32"/>
    <g id="text_16">
     <!-- C -->
     <defs>
      <path d="M 14.75 53.5625 
L 85.25 53.5625 
L 85.25 33.640625 
L 78.421875 33.640625 
L 78.421875 36.46875 
L 21.578125 36.46875 
L 21.578125 33.640625 
L 14.75 33.640625 
z
M 11.234375 64.796875 
L 46.484375 64.796875 
L 46.484375 70.65625 
L 4.78125 70.65625 
L 4.78125 76.125 
L 46.484375 76.125 
L 46.484375 82.5625 
L 53.421875 82.5625 
L 53.421875 76.125 
L 95.515625 76.125 
L 95.515625 70.65625 
L 53.421875 70.65625 
L 53.421875 64.796875 
L 88.875 64.796875 
L 88.875 59.421875 
L 11.234375 59.421875 
z
M 56.0625 15.671875 
L 92.390625 15.671875 
L 92.390625 -12.25 
L 85.359375 -12.25 
L 85.359375 -7.953125 
L 63.09375 -7.953125 
L 63.09375 -12.25 
L 56.0625 -12.25 
z
M 5.671875 13.625 
L 19.234375 13.625 
Q 19.625 16.65625 19.625 20.265625 
L 26.65625 20.265625 
Q 26.65625 16.65625 26.375 13.625 
L 48.53125 13.625 
Q 48.140625 4.546875 47.75 -1.03125 
Q 47.265625 -6.59375 44.53125 -9.328125 
Q 41.703125 -12.15625 34.375 -12.15625 
Q 31.15625 -12.15625 26.765625 -12.0625 
Q 26.265625 -8.734375 25.203125 -5.421875 
Q 30.953125 -5.90625 33.40625 -5.90625 
Q 37.40625 -5.90625 39.0625 -4.34375 
Q 40.53125 -2.984375 40.828125 0.4375 
Q 41.109375 3.46875 41.3125 8.15625 
L 25.484375 8.15625 
Q 23.25 -4.546875 6.734375 -14.109375 
Q 4.390625 -10.59375 1.859375 -8.25 
Q 16.609375 -0.640625 18.265625 8.15625 
L 5.671875 8.15625 
z
M 2.640625 27.484375 
L 31.734375 27.484375 
Q 29.296875 30.515625 26.65625 33.25 
L 32.421875 36.078125 
Q 36.140625 32.28125 39.84375 27.484375 
L 61.03125 27.484375 
Q 64.75 31.984375 67.671875 36.1875 
L 74.21875 32.859375 
Q 71.875 30.21875 69.234375 27.484375 
L 97.65625 27.484375 
L 97.65625 22.015625 
L 2.640625 22.015625 
z
M 78.421875 48.296875 
L 21.578125 48.296875 
L 21.578125 41.75 
L 78.421875 41.75 
z
M 85.359375 10.203125 
L 63.09375 10.203125 
L 63.09375 -2.484375 
L 85.359375 -2.484375 
z
" id="MicrosoftYaHei-5609"/>
      <path d="M 1.765625 -6.203125 
Q 37.796875 0.53125 48.140625 15.1875 
L 3.328125 15.1875 
L 3.328125 22.40625 
L 51.765625 22.40625 
Q 55.078125 32.5625 54.78125 57.859375 
L 62.984375 57.859375 
Q 62.984375 32.765625 60.25 22.40625 
L 97.265625 22.40625 
L 97.265625 15.1875 
L 57.515625 15.1875 
Q 56.734375 13.625 55.671875 11.859375 
Q 76.5625 3.078125 96.578125 -6.296875 
L 92.28125 -13.71875 
Q 71.390625 -3.078125 50.984375 6.109375 
Q 37.703125 -6.890625 6.453125 -13.921875 
Q 4.203125 -9.625 1.765625 -6.203125 
z
M 5.171875 69.09375 
L 49.90625 69.09375 
Q 47.46875 73.484375 43.359375 79.34375 
L 50.484375 83.34375 
Q 53.71875 79.046875 58.296875 72.015625 
L 52.9375 69.09375 
L 94.734375 69.09375 
L 94.734375 51.609375 
L 86.921875 51.609375 
L 86.921875 61.859375 
L 12.984375 61.859375 
L 12.984375 51.609375 
L 5.171875 51.609375 
z
M 17.1875 42.71875 
Q 28.421875 37.640625 38.28125 32.078125 
L 34.078125 25.34375 
Q 24.3125 31.296875 13.484375 36.46875 
z
M 25.984375 57.671875 
Q 37.3125 52.203125 46.578125 46.625 
L 42.1875 39.984375 
Q 33.109375 45.84375 22.171875 51.90625 
z
" id="MicrosoftYaHei-5b9e"/>
      <path d="M 1.65625 -4.15625 
Q 9.078125 8.84375 9.671875 35.015625 
L 16.890625 34.625 
Q 16.546875 25.09375 15.484375 17.046875 
Q 18.953125 9.421875 24.703125 4.78125 
L 24.703125 40.875 
L 2.15625 40.875 
L 2.15625 48 
L 21.6875 48 
L 21.6875 61.96875 
L 5.5625 61.96875 
L 5.5625 69.09375 
L 21.6875 69.09375 
L 21.6875 82.953125 
L 29.296875 82.953125 
L 29.296875 69.09375 
L 43.84375 69.09375 
L 43.84375 61.96875 
L 29.296875 61.96875 
L 29.296875 48 
L 45.125 48 
L 45.125 40.875 
L 32.03125 40.875 
L 32.03125 25.734375 
L 46 25.734375 
L 46 18.703125 
L 32.03125 18.703125 
L 32.03125 0.4375 
Q 39.0625 -2.484375 48.34375 -2.59375 
Q 66.890625 -2.875 98.640625 -2.203125 
Q 96.875 -6.59375 95.90625 -9.90625 
Q 66.40625 -10.015625 45.90625 -9.625 
Q 22.3125 -9.125 13.8125 7.375 
Q 11.03125 -5.328125 5.953125 -13.328125 
Q 4 -8.734375 1.65625 -4.15625 
z
M 51.171875 38.234375 
L 92 38.234375 
L 92 3.265625 
L 84.765625 3.265625 
L 84.765625 7.46875 
L 58.40625 7.46875 
L 58.40625 2.6875 
L 51.171875 2.6875 
z
M 46.390625 72.125 
L 46.390625 78.765625 
L 93.0625 78.765625 
Q 92.578125 65.375 91.703125 56.296875 
Q 90.625 45.0625 80.078125 44.78125 
Q 74.8125 44.671875 67.875 45.0625 
Q 67.28125 48.6875 66.40625 52.875 
Q 73.640625 51.703125 78.609375 51.8125 
Q 84.1875 51.8125 84.765625 58.0625 
Q 85.453125 63.625 85.75 72.125 
L 67.234375 72.125 
Q 66.40625 50.046875 50.78125 41.265625 
Q 48.921875 44.28125 46 47.515625 
Q 59.578125 54.9375 59.859375 72.125 
z
M 84.765625 31.59375 
L 58.40625 31.59375 
L 58.40625 14.109375 
L 84.765625 14.109375 
z
" id="MicrosoftYaHei-8d85"/>
      <path d="M 42.484375 59.625 
L 91.3125 59.625 
L 91.3125 24.078125 
L 84.1875 24.078125 
L 84.1875 26.8125 
L 49.609375 26.8125 
L 49.609375 24.078125 
L 42.484375 24.078125 
z
M 1.265625 40.484375 
L 17.671875 40.484375 
L 17.671875 61.671875 
L 12.796875 61.671875 
Q 10.40625 54.5 7.8125 48.6875 
Q 3.71875 50.34375 0.984375 51.21875 
Q 7.328125 65.28125 11.53125 83.453125 
L 18.5625 81.984375 
Q 16.796875 74.75 14.890625 68.40625 
L 37.3125 68.40625 
L 37.3125 61.671875 
L 24.703125 61.671875 
L 24.703125 40.484375 
L 38.671875 40.484375 
L 38.671875 33.734375 
L 24.5625 33.734375 
Q 24.3125 28.078125 23.53125 22.90625 
L 28.421875 25.53125 
Q 34.28125 16.265625 40.328125 4.734375 
L 33.203125 0.828125 
Q 28.90625 10.25 23.09375 20.3125 
Q 19.28125 -0.4375 6.34375 -13.03125 
Q 4.390625 -10.40625 1.375 -6.890625 
Q 16.0625 8.15625 17.484375 33.734375 
L 1.265625 33.734375 
z
M 84.1875 52.875 
L 49.609375 52.875 
L 49.609375 33.546875 
L 84.1875 33.546875 
z
M 34.96875 -2.390625 
L 69.734375 -2.390625 
Q 76.609375 10.59375 81.25 21.734375 
L 89.265625 18.015625 
Q 83.296875 7.171875 77.734375 -2.390625 
L 97.953125 -2.390625 
L 97.953125 -9.234375 
L 34.96875 -9.234375 
z
M 38.09375 78.265625 
L 96.78125 78.265625 
L 96.78125 71.4375 
L 38.09375 71.4375 
z
M 45.40625 18.5 
L 51.953125 22.015625 
Q 57.71875 12.640625 62.3125 3.765625 
L 54.984375 -0.046875 
Q 50.203125 10.109375 45.40625 18.5 
z
" id="MicrosoftYaHei-77ed"/>
     </defs>
     <g transform="translate(127 75.673437)scale(0.1 -0.1)">
      <use xlink:href="#MicrosoftYaHei-5609"/>
      <use x="100" xlink:href="#MicrosoftYaHei-5b9e"/>
      <use x="200" xlink:href="#MicrosoftYaHei-8d85"/>
      <use x="300" xlink:href="#MicrosoftYaHei-77ed"/>
      <use x="400" xlink:href="#MicrosoftYaHei-503a"/>
      <use x="500" xlink:href="#MicrosoftYaHei-503a"/>
      <use x="600" xlink:href="#MicrosoftYaHei-5238"/>
      <use x="700" xlink:href="#MicrosoftYaHei-43"/>
     </g>
    </g>
   </g>
  </g>
 </g>
 <defs>
  <clipPath id="p8ba4f36618">
   <rect height="277.2" width="558" x="90" y="43.2"/>
  </clipPath>
 </defs>
</svg>
