<?xml version="1.0" encoding="utf-8" standalone="no"?>
<!DOCTYPE svg PUBLIC "-//W3C//DTD SVG 1.1//EN"
  "http://www.w3.org/Graphics/SVG/1.1/DTD/svg11.dtd">
<!-- Created with matplotlib (http://matplotlib.org/) -->
<svg height="360pt" version="1.1" viewBox="0 0 720 360" width="720pt" xmlns="http://www.w3.org/2000/svg" xmlns:xlink="http://www.w3.org/1999/xlink">
 <defs>
  <style type="text/css">
*{stroke-linecap:butt;stroke-linejoin:round;}
  </style>
 </defs>
 <g id="figure_1">
  <g id="patch_1">
   <path d="M 0 360 
L 720 360 
L 720 0 
L 0 0 
z
" style="fill:#ffffff;"/>
  </g>
  <g id="axes_1">
   <g id="patch_2">
    <path d="M 90 320.4 
L 648 320.4 
L 648 43.2 
L 90 43.2 
z
" style="fill:#ffffff;"/>
   </g>
   <g id="matplotlib.axis_1">
    <g id="xtick_1">
     <g id="line2d_1">
      <path clip-path="url(#p79b90aaf9c)" d="M 110.187384 320.4 
L 110.187384 43.2 
" style="fill:none;stroke:#b0b0b0;stroke-linecap:square;stroke-width:0.8;"/>
     </g>
     <g id="line2d_2">
      <defs>
       <path d="M 0 0 
L 0 3.5 
" id="m88006fb0fb" style="stroke:#000000;stroke-width:0.8;"/>
      </defs>
      <g>
       <use style="stroke:#000000;stroke-width:0.8;" x="110.187384" xlink:href="#m88006fb0fb" y="320.4"/>
      </g>
     </g>
     <g id="text_1">
      <!-- 0 -->
      <defs>
       <path d="M 4.4375 36.328125 
Q 4.4375 56.34375 11.078125 66.625 
Q 17.71875 76.90625 30.328125 76.90625 
Q 54.34375 76.90625 54.34375 38.140625 
Q 54.34375 19 47.578125 8.859375 
Q 40.828125 -1.265625 28.609375 -1.265625 
Q 17.09375 -1.265625 10.765625 8.34375 
Q 4.4375 17.96875 4.4375 36.328125 
z
M 14.203125 36.765625 
Q 14.203125 6.640625 29.5 6.640625 
Q 44.53125 6.640625 44.53125 37.25 
Q 44.53125 68.953125 29.78125 68.953125 
Q 14.203125 68.953125 14.203125 36.765625 
z
" id="MicrosoftYaHei-30"/>
      </defs>
      <g transform="translate(107.255353 335.39375)scale(0.1 -0.1)">
       <use xlink:href="#MicrosoftYaHei-30"/>
      </g>
     </g>
    </g>
    <g id="xtick_2">
     <g id="line2d_3">
      <path clip-path="url(#p79b90aaf9c)" d="M 213.71243 320.4 
L 213.71243 43.2 
" style="fill:none;stroke:#b0b0b0;stroke-linecap:square;stroke-width:0.8;"/>
     </g>
     <g id="line2d_4">
      <g>
       <use style="stroke:#000000;stroke-width:0.8;" x="213.71243" xlink:href="#m88006fb0fb" y="320.4"/>
      </g>
     </g>
     <g id="text_2">
      <!-- 20 -->
      <defs>
       <path d="M 51.171875 0 
L 5.171875 0 
L 5.171875 8.296875 
L 27.15625 30.21875 
Q 36.234375 39.3125 39.3125 44.609375 
Q 42.390625 49.90625 42.390625 55.5625 
Q 42.390625 62.015625 38.765625 65.453125 
Q 35.15625 68.890625 28.328125 68.890625 
Q 18.21875 68.890625 9.03125 60.296875 
L 9.03125 70.015625 
Q 17.96875 76.90625 29.828125 76.90625 
Q 40.046875 76.90625 45.953125 71.390625 
Q 51.859375 65.875 51.859375 56.546875 
Q 51.859375 49.515625 48.0625 42.75 
Q 44.28125 35.984375 33.734375 25.53125 
L 16.5 8.6875 
L 16.5 8.5 
L 51.171875 8.5 
z
" id="MicrosoftYaHei-32"/>
      </defs>
      <g transform="translate(207.848368 335.39375)scale(0.1 -0.1)">
       <use xlink:href="#MicrosoftYaHei-32"/>
       <use x="58.642578" xlink:href="#MicrosoftYaHei-30"/>
      </g>
     </g>
    </g>
    <g id="xtick_3">
     <g id="line2d_5">
      <path clip-path="url(#p79b90aaf9c)" d="M 317.237477 320.4 
L 317.237477 43.2 
" style="fill:none;stroke:#b0b0b0;stroke-linecap:square;stroke-width:0.8;"/>
     </g>
     <g id="line2d_6">
      <g>
       <use style="stroke:#000000;stroke-width:0.8;" x="317.237477" xlink:href="#m88006fb0fb" y="320.4"/>
      </g>
     </g>
     <g id="text_3">
      <!-- 40 -->
      <defs>
       <path d="M 55.078125 19.625 
L 45.40625 19.625 
L 45.40625 0 
L 36.140625 0 
L 36.140625 19.625 
L 0.875 19.625 
L 0.875 25.828125 
L 34.328125 75.640625 
L 45.40625 75.640625 
L 45.40625 27.203125 
L 55.078125 27.203125 
z
M 36.140625 27.203125 
L 36.140625 58.890625 
Q 36.140625 62.25 36.328125 66.65625 
L 36.140625 66.65625 
Q 35.453125 64.796875 33.25 60.84375 
L 10.75 27.203125 
z
" id="MicrosoftYaHei-34"/>
      </defs>
      <g transform="translate(311.373414 335.39375)scale(0.1 -0.1)">
       <use xlink:href="#MicrosoftYaHei-34"/>
       <use x="58.642578" xlink:href="#MicrosoftYaHei-30"/>
      </g>
     </g>
    </g>
    <g id="xtick_4">
     <g id="line2d_7">
      <path clip-path="url(#p79b90aaf9c)" d="M 420.762523 320.4 
L 420.762523 43.2 
" style="fill:none;stroke:#b0b0b0;stroke-linecap:square;stroke-width:0.8;"/>
     </g>
     <g id="line2d_8">
      <g>
       <use style="stroke:#000000;stroke-width:0.8;" x="420.762523" xlink:href="#m88006fb0fb" y="320.4"/>
      </g>
     </g>
     <g id="text_4">
      <!-- 60 -->
      <defs>
       <path d="M 49.703125 65.921875 
Q 43.796875 68.953125 37.359375 68.953125 
Q 27.546875 68.953125 21.578125 60.40625 
Q 15.625 51.859375 15.53125 37.0625 
L 15.765625 37.0625 
Q 21.140625 47.46875 32.90625 47.46875 
Q 42.71875 47.46875 48.578125 41.0625 
Q 54.4375 34.671875 54.4375 24.078125 
Q 54.4375 12.984375 47.671875 5.859375 
Q 40.921875 -1.265625 30.421875 -1.265625 
Q 18.890625 -1.265625 12.328125 7.734375 
Q 5.765625 16.75 5.765625 33.296875 
Q 5.765625 53.328125 14.375 65.109375 
Q 23 76.90625 37.0625 76.90625 
Q 45.125 76.90625 49.703125 74.703125 
z
M 16.109375 24.75 
Q 16.109375 17.28125 20.09375 11.953125 
Q 24.078125 6.640625 30.671875 6.640625 
Q 36.921875 6.640625 40.828125 11.234375 
Q 44.734375 15.828125 44.734375 23.046875 
Q 44.734375 30.859375 41.046875 35.203125 
Q 37.359375 39.546875 30.5625 39.546875 
Q 24.125 39.546875 20.109375 35.15625 
Q 16.109375 30.765625 16.109375 24.75 
z
" id="MicrosoftYaHei-36"/>
      </defs>
      <g transform="translate(414.898461 335.39375)scale(0.1 -0.1)">
       <use xlink:href="#MicrosoftYaHei-36"/>
       <use x="58.642578" xlink:href="#MicrosoftYaHei-30"/>
      </g>
     </g>
    </g>
    <g id="xtick_5">
     <g id="line2d_9">
      <path clip-path="url(#p79b90aaf9c)" d="M 524.28757 320.4 
L 524.28757 43.2 
" style="fill:none;stroke:#b0b0b0;stroke-linecap:square;stroke-width:0.8;"/>
     </g>
     <g id="line2d_10">
      <g>
       <use style="stroke:#000000;stroke-width:0.8;" x="524.28757" xlink:href="#m88006fb0fb" y="320.4"/>
      </g>
     </g>
     <g id="text_5">
      <!-- 80 -->
      <defs>
       <path d="M 21.390625 39.796875 
Q 7.859375 46.09375 7.859375 58.0625 
Q 7.859375 66.40625 14.203125 71.65625 
Q 20.5625 76.90625 30.421875 76.90625 
Q 39.453125 76.90625 45.3125 71.96875 
Q 51.171875 67.046875 51.171875 59.234375 
Q 51.171875 46.625 37.0625 39.84375 
L 37.0625 39.65625 
Q 53.609375 33.6875 53.609375 19.34375 
Q 53.609375 9.90625 46.796875 4.3125 
Q 39.984375 -1.265625 27.78125 -1.265625 
Q 17.78125 -1.265625 11.46875 4.25 
Q 5.171875 9.765625 5.171875 18.5625 
Q 5.171875 33.015625 21.390625 39.59375 
z
M 41.5 58.109375 
Q 41.5 63.1875 38.328125 66.109375 
Q 35.15625 69.046875 29.734375 69.046875 
Q 24.65625 69.046875 21.09375 65.984375 
Q 17.53125 62.9375 17.53125 58.203125 
Q 17.53125 48.734375 29.390625 43.796875 
Q 41.5 48.828125 41.5 58.109375 
z
M 28.8125 35.25 
Q 14.796875 29.59375 14.796875 19.046875 
Q 14.796875 13.578125 18.890625 10.0625 
Q 23 6.546875 29.59375 6.546875 
Q 35.984375 6.546875 39.984375 10.03125 
Q 44 13.53125 44 18.75 
Q 44 29.734375 28.8125 35.25 
z
" id="MicrosoftYaHei-38"/>
      </defs>
      <g transform="translate(518.423507 335.39375)scale(0.1 -0.1)">
       <use xlink:href="#MicrosoftYaHei-38"/>
       <use x="58.642578" xlink:href="#MicrosoftYaHei-30"/>
      </g>
     </g>
    </g>
    <g id="xtick_6">
     <g id="line2d_11">
      <path clip-path="url(#p79b90aaf9c)" d="M 627.812616 320.4 
L 627.812616 43.2 
" style="fill:none;stroke:#b0b0b0;stroke-linecap:square;stroke-width:0.8;"/>
     </g>
     <g id="line2d_12">
      <g>
       <use style="stroke:#000000;stroke-width:0.8;" x="627.812616" xlink:href="#m88006fb0fb" y="320.4"/>
      </g>
     </g>
     <g id="text_6">
      <!-- 100 -->
      <defs>
       <path d="M 52.59375 0 
L 9.234375 0 
L 9.234375 8.25 
L 26.171875 8.25 
L 26.171875 65.671875 
L 8.796875 60.640625 
L 8.796875 69.4375 
L 35.6875 77.25 
L 35.6875 8.25 
L 52.59375 8.25 
z
" id="MicrosoftYaHei-31"/>
      </defs>
      <g transform="translate(619.016522 335.39375)scale(0.1 -0.1)">
       <use xlink:href="#MicrosoftYaHei-31"/>
       <use x="58.642578" xlink:href="#MicrosoftYaHei-30"/>
       <use x="117.285156" xlink:href="#MicrosoftYaHei-30"/>
      </g>
     </g>
    </g>
    <g id="text_7">
     <!-- diff days -->
     <defs>
      <path d="M 55.421875 0 
L 45.84375 0 
L 45.84375 8.984375 
L 45.65625 8.984375 
Q 39.75 -1.265625 27.296875 -1.265625 
Q 17.046875 -1.265625 10.984375 6.03125 
Q 4.9375 13.328125 4.9375 25.734375 
Q 4.9375 39.109375 11.765625 47.1875 
Q 18.609375 55.28125 29.640625 55.28125 
Q 40.671875 55.28125 45.65625 46.6875 
L 45.84375 46.6875 
L 45.84375 79.9375 
L 55.421875 79.9375 
z
M 45.90625 32.125 
Q 45.90625 38.625 41.625 42.984375 
Q 37.359375 47.359375 31.109375 47.359375 
Q 23.484375 47.359375 19.09375 41.671875 
Q 14.703125 35.984375 14.703125 26.171875 
Q 14.703125 17.140625 18.921875 11.890625 
Q 23.140625 6.640625 30.171875 6.640625 
Q 37.109375 6.640625 41.5 11.78125 
Q 45.90625 16.9375 45.90625 24.609375 
z
" id="MicrosoftYaHei-64"/>
      <path d="M 7.375 73.046875 
Q 7.375 75.59375 9.109375 77.3125 
Q 10.84375 79.046875 13.375 79.046875 
Q 15.96875 79.046875 17.75 77.34375 
Q 19.53125 75.640625 19.53125 73.046875 
Q 19.53125 70.515625 17.75 68.828125 
Q 15.96875 67.140625 13.375 67.140625 
Q 10.796875 67.140625 9.078125 68.828125 
Q 7.375 70.515625 7.375 73.046875 
z
M 8.5 0 
L 8.5 54 
L 18.0625 54 
L 18.0625 0 
z
" id="MicrosoftYaHei-69"/>
      <path d="M 36.234375 71.78125 
Q 33.546875 73.1875 30.421875 73.1875 
Q 21.4375 73.1875 21.4375 62.0625 
L 21.4375 54 
L 34.078125 54 
L 34.078125 46.09375 
L 21.4375 46.09375 
L 21.4375 0 
L 11.96875 0 
L 11.96875 46.09375 
L 2.734375 46.09375 
L 2.734375 54 
L 11.96875 54 
L 11.96875 62.5 
Q 11.96875 71.1875 16.96875 76.140625 
Q 21.96875 81.109375 29.6875 81.109375 
Q 33.796875 81.109375 36.234375 80.171875 
z
" id="MicrosoftYaHei-66"/>
      <path id="MicrosoftYaHei-20"/>
      <path d="M 9.8125 50.25 
Q 17.875 55.28125 28.421875 55.28125 
Q 47.953125 55.28125 47.953125 34.765625 
L 47.953125 0 
L 38.484375 0 
L 38.484375 8.34375 
L 38.234375 8.34375 
Q 32.625 -1.265625 21.6875 -1.265625 
Q 13.8125 -1.265625 9.171875 2.984375 
Q 4.546875 7.234375 4.546875 14.453125 
Q 4.546875 29.59375 22.46875 32.078125 
L 38.484375 34.328125 
Q 38.484375 47.5625 27.546875 47.5625 
Q 17.828125 47.5625 9.8125 41.015625 
z
M 25.828125 25.390625 
Q 19.1875 24.515625 16.671875 22.0625 
Q 14.15625 19.625 14.15625 15.234375 
Q 14.15625 11.375 16.890625 8.9375 
Q 19.625 6.5 24.125 6.5 
Q 30.375 6.5 34.421875 10.890625 
Q 38.484375 15.28125 38.484375 21.921875 
L 38.484375 27.09375 
z
" id="MicrosoftYaHei-61"/>
      <path d="M 52.484375 54 
L 27.984375 -8.15625 
Q 21.140625 -25.4375 8.6875 -25.4375 
Q 5.125 -25.4375 2.59375 -24.65625 
L 2.59375 -16.265625 
Q 5.375 -17.328125 7.953125 -17.328125 
Q 14.453125 -17.328125 17.671875 -9.71875 
L 21.828125 0.09375 
L 0.640625 54 
L 11.234375 54 
L 25.34375 13.421875 
L 26.515625 8.984375 
L 26.765625 8.984375 
Q 27.046875 10.5 27.9375 13.328125 
L 42.671875 54 
z
" id="MicrosoftYaHei-79"/>
      <path d="M 5.515625 11.671875 
Q 12.75 6.453125 21.09375 6.453125 
Q 32.28125 6.453125 32.28125 13.765625 
Q 32.28125 16.890625 29.828125 18.921875 
Q 27.390625 20.953125 19.921875 23.734375 
Q 10.9375 27.34375 8.25 30.875 
Q 5.5625 34.421875 5.5625 39.453125 
Q 5.5625 46.625 11.640625 50.953125 
Q 17.71875 55.28125 26.609375 55.28125 
Q 33.5 55.28125 39.40625 52.875 
L 39.40625 43.65625 
Q 33.34375 47.5625 25.6875 47.5625 
Q 21.09375 47.5625 18.203125 45.5625 
Q 15.328125 43.5625 15.328125 40.28125 
Q 15.328125 37.0625 17.40625 35.25 
Q 19.484375 33.453125 26.609375 30.609375 
Q 35.640625 27.25 38.8125 23.625 
Q 42 20.015625 42 14.703125 
Q 42 7.28125 35.90625 3 
Q 29.828125 -1.265625 20.171875 -1.265625 
Q 11.765625 -1.265625 5.515625 1.90625 
z
" id="MicrosoftYaHei-73"/>
     </defs>
     <g transform="translate(348.6 349.990625)scale(0.1 -0.1)">
      <use xlink:href="#MicrosoftYaHei-64"/>
      <use x="63.964844" xlink:href="#MicrosoftYaHei-69"/>
      <use x="90.576172" xlink:href="#MicrosoftYaHei-66"/>
      <use x="125.244141" xlink:href="#MicrosoftYaHei-66"/>
      <use x="159.912109" xlink:href="#MicrosoftYaHei-20"/>
      <use x="189.501953" xlink:href="#MicrosoftYaHei-64"/>
      <use x="253.466797" xlink:href="#MicrosoftYaHei-61"/>
      <use x="308.740234" xlink:href="#MicrosoftYaHei-79"/>
      <use x="361.669922" xlink:href="#MicrosoftYaHei-73"/>
     </g>
    </g>
   </g>
   <g id="matplotlib.axis_2">
    <g id="ytick_1">
     <g id="line2d_13">
      <path clip-path="url(#p79b90aaf9c)" d="M 90 312.891868 
L 648 312.891868 
" style="fill:none;stroke:#b0b0b0;stroke-linecap:square;stroke-width:0.8;"/>
     </g>
     <g id="line2d_14">
      <defs>
       <path d="M 0 0 
L -3.5 0 
" id="m2a7734152f" style="stroke:#000000;stroke-width:0.8;"/>
      </defs>
      <g>
       <use style="stroke:#000000;stroke-width:0.8;" x="90" xlink:href="#m2a7734152f" y="312.891868"/>
      </g>
     </g>
     <g id="text_8">
      <!-- 0.60 -->
      <defs>
       <path d="M 5.8125 5.03125 
Q 5.8125 7.671875 7.609375 9.46875 
Q 9.421875 11.28125 12.109375 11.28125 
Q 14.84375 11.28125 16.640625 9.453125 
Q 18.453125 7.625 18.453125 5.03125 
Q 18.453125 2.484375 16.640625 0.65625 
Q 14.84375 -1.171875 12.0625 -1.171875 
Q 9.375 -1.171875 7.59375 0.65625 
Q 5.8125 2.484375 5.8125 5.03125 
z
" id="MicrosoftYaHei-2e"/>
      </defs>
      <g transform="translate(63 316.888743)scale(0.1 -0.1)">
       <use xlink:href="#MicrosoftYaHei-30"/>
       <use x="58.642578" xlink:href="#MicrosoftYaHei-2e"/>
       <use x="82.714844" xlink:href="#MicrosoftYaHei-36"/>
       <use x="141.357422" xlink:href="#MicrosoftYaHei-30"/>
      </g>
     </g>
    </g>
    <g id="ytick_2">
     <g id="line2d_15">
      <path clip-path="url(#p79b90aaf9c)" d="M 90 272.123807 
L 648 272.123807 
" style="fill:none;stroke:#b0b0b0;stroke-linecap:square;stroke-width:0.8;"/>
     </g>
     <g id="line2d_16">
      <g>
       <use style="stroke:#000000;stroke-width:0.8;" x="90" xlink:href="#m2a7734152f" y="272.123807"/>
      </g>
     </g>
     <g id="text_9">
      <!-- 0.65 -->
      <defs>
       <path d="M 8.640625 11.625 
Q 16.265625 6.640625 24.515625 6.640625 
Q 32.328125 6.640625 37.109375 11 
Q 41.890625 15.375 41.890625 22.609375 
Q 41.890625 29.890625 37.03125 33.890625 
Q 32.171875 37.890625 22.953125 37.890625 
Q 18.5 37.890625 10.984375 37.203125 
L 10.984375 75.640625 
L 48.1875 75.640625 
L 48.1875 67.1875 
L 19.875 67.1875 
L 19.875 45.796875 
Q 24.125 46.046875 26.265625 46.046875 
Q 38.234375 46.046875 44.921875 39.984375 
Q 51.609375 33.9375 51.609375 23.296875 
Q 51.609375 12.3125 44.421875 5.515625 
Q 37.25 -1.265625 24.609375 -1.265625 
Q 14.015625 -1.265625 8.640625 1.859375 
z
" id="MicrosoftYaHei-35"/>
      </defs>
      <g transform="translate(63 276.120682)scale(0.1 -0.1)">
       <use xlink:href="#MicrosoftYaHei-30"/>
       <use x="58.642578" xlink:href="#MicrosoftYaHei-2e"/>
       <use x="82.714844" xlink:href="#MicrosoftYaHei-36"/>
       <use x="141.357422" xlink:href="#MicrosoftYaHei-35"/>
      </g>
     </g>
    </g>
    <g id="ytick_3">
     <g id="line2d_17">
      <path clip-path="url(#p79b90aaf9c)" d="M 90 231.355746 
L 648 231.355746 
" style="fill:none;stroke:#b0b0b0;stroke-linecap:square;stroke-width:0.8;"/>
     </g>
     <g id="line2d_18">
      <g>
       <use style="stroke:#000000;stroke-width:0.8;" x="90" xlink:href="#m2a7734152f" y="231.355746"/>
      </g>
     </g>
     <g id="text_10">
      <!-- 0.70 -->
      <defs>
       <path d="M 53.765625 72.3125 
L 24.171875 0 
L 14.265625 0 
L 42.390625 67.1875 
L 4.59375 67.1875 
L 4.59375 75.640625 
L 53.765625 75.640625 
z
" id="MicrosoftYaHei-37"/>
      </defs>
      <g transform="translate(63 235.352621)scale(0.1 -0.1)">
       <use xlink:href="#MicrosoftYaHei-30"/>
       <use x="58.642578" xlink:href="#MicrosoftYaHei-2e"/>
       <use x="82.714844" xlink:href="#MicrosoftYaHei-37"/>
       <use x="141.357422" xlink:href="#MicrosoftYaHei-30"/>
      </g>
     </g>
    </g>
    <g id="ytick_4">
     <g id="line2d_19">
      <path clip-path="url(#p79b90aaf9c)" d="M 90 190.587684 
L 648 190.587684 
" style="fill:none;stroke:#b0b0b0;stroke-linecap:square;stroke-width:0.8;"/>
     </g>
     <g id="line2d_20">
      <g>
       <use style="stroke:#000000;stroke-width:0.8;" x="90" xlink:href="#m2a7734152f" y="190.587684"/>
      </g>
     </g>
     <g id="text_11">
      <!-- 0.75 -->
      <g transform="translate(63 194.584559)scale(0.1 -0.1)">
       <use xlink:href="#MicrosoftYaHei-30"/>
       <use x="58.642578" xlink:href="#MicrosoftYaHei-2e"/>
       <use x="82.714844" xlink:href="#MicrosoftYaHei-37"/>
       <use x="141.357422" xlink:href="#MicrosoftYaHei-35"/>
      </g>
     </g>
    </g>
    <g id="ytick_5">
     <g id="line2d_21">
      <path clip-path="url(#p79b90aaf9c)" d="M 90 149.819623 
L 648 149.819623 
" style="fill:none;stroke:#b0b0b0;stroke-linecap:square;stroke-width:0.8;"/>
     </g>
     <g id="line2d_22">
      <g>
       <use style="stroke:#000000;stroke-width:0.8;" x="90" xlink:href="#m2a7734152f" y="149.819623"/>
      </g>
     </g>
     <g id="text_12">
      <!-- 0.80 -->
      <g transform="translate(63 153.816498)scale(0.1 -0.1)">
       <use xlink:href="#MicrosoftYaHei-30"/>
       <use x="58.642578" xlink:href="#MicrosoftYaHei-2e"/>
       <use x="82.714844" xlink:href="#MicrosoftYaHei-38"/>
       <use x="141.357422" xlink:href="#MicrosoftYaHei-30"/>
      </g>
     </g>
    </g>
    <g id="ytick_6">
     <g id="line2d_23">
      <path clip-path="url(#p79b90aaf9c)" d="M 90 109.051562 
L 648 109.051562 
" style="fill:none;stroke:#b0b0b0;stroke-linecap:square;stroke-width:0.8;"/>
     </g>
     <g id="line2d_24">
      <g>
       <use style="stroke:#000000;stroke-width:0.8;" x="90" xlink:href="#m2a7734152f" y="109.051562"/>
      </g>
     </g>
     <g id="text_13">
      <!-- 0.85 -->
      <g transform="translate(63 113.048437)scale(0.1 -0.1)">
       <use xlink:href="#MicrosoftYaHei-30"/>
       <use x="58.642578" xlink:href="#MicrosoftYaHei-2e"/>
       <use x="82.714844" xlink:href="#MicrosoftYaHei-38"/>
       <use x="141.357422" xlink:href="#MicrosoftYaHei-35"/>
      </g>
     </g>
    </g>
    <g id="ytick_7">
     <g id="line2d_25">
      <path clip-path="url(#p79b90aaf9c)" d="M 90 68.283501 
L 648 68.283501 
" style="fill:none;stroke:#b0b0b0;stroke-linecap:square;stroke-width:0.8;"/>
     </g>
     <g id="line2d_26">
      <g>
       <use style="stroke:#000000;stroke-width:0.8;" x="90" xlink:href="#m2a7734152f" y="68.283501"/>
      </g>
     </g>
     <g id="text_14">
      <!-- 0.90 -->
      <defs>
       <path d="M 9.03125 10.25 
Q 15.28125 6.640625 22.515625 6.640625 
Q 32.671875 6.640625 38.25 14.640625 
Q 43.84375 22.65625 43.84375 37.40625 
Q 43.75 37.3125 43.65625 37.40625 
Q 38.671875 27.9375 26.90625 27.9375 
Q 17.390625 27.9375 11.140625 34.46875 
Q 4.890625 41.015625 4.890625 51.46875 
Q 4.890625 62.59375 11.71875 69.75 
Q 18.5625 76.90625 29.4375 76.90625 
Q 40.71875 76.90625 47.0625 68.046875 
Q 53.421875 59.1875 53.421875 42.234375 
Q 53.421875 21.296875 45.21875 10.015625 
Q 37.015625 -1.265625 22.515625 -1.265625 
Q 14.546875 -1.265625 9.03125 1.3125 
z
M 14.546875 52.6875 
Q 14.546875 45.0625 18.453125 40.59375 
Q 22.359375 36.140625 29.25 36.140625 
Q 35.203125 36.140625 39.25 40.203125 
Q 43.3125 44.28125 43.3125 50.09375 
Q 43.3125 58.25 39.28125 63.59375 
Q 35.25 68.953125 28.65625 68.953125 
Q 22.5625 68.953125 18.546875 64.3125 
Q 14.546875 59.671875 14.546875 52.6875 
z
" id="MicrosoftYaHei-39"/>
      </defs>
      <g transform="translate(63 72.280376)scale(0.1 -0.1)">
       <use xlink:href="#MicrosoftYaHei-30"/>
       <use x="58.642578" xlink:href="#MicrosoftYaHei-2e"/>
       <use x="82.714844" xlink:href="#MicrosoftYaHei-39"/>
       <use x="141.357422" xlink:href="#MicrosoftYaHei-30"/>
      </g>
     </g>
    </g>
    <g id="text_15">
     <!-- correlation -->
     <defs>
      <path d="M 45.84375 2.4375 
Q 39.65625 -1.265625 30.90625 -1.265625 
Q 19.1875 -1.265625 12.0625 6.25 
Q 4.9375 13.765625 4.9375 25.734375 
Q 4.9375 39.015625 12.625 47.140625 
Q 20.3125 55.28125 33.203125 55.28125 
Q 40.625 55.28125 45.90625 52.640625 
L 45.90625 43.171875 
Q 40.1875 47.359375 33.203125 47.359375 
Q 25 47.359375 19.84375 41.671875 
Q 14.703125 35.984375 14.703125 26.515625 
Q 14.703125 17.1875 19.5625 11.90625 
Q 24.421875 6.640625 32.671875 6.640625 
Q 39.65625 6.640625 45.84375 11.234375 
z
" id="MicrosoftYaHei-63"/>
      <path d="M 4.9375 26.421875 
Q 4.9375 39.796875 12.40625 47.53125 
Q 19.875 55.28125 32.671875 55.28125 
Q 44.828125 55.28125 51.734375 47.828125 
Q 58.640625 40.375 58.640625 27.25 
Q 58.640625 14.453125 51.265625 6.59375 
Q 43.890625 -1.265625 31.5 -1.265625 
Q 19.390625 -1.265625 12.15625 6.34375 
Q 4.9375 13.96875 4.9375 26.421875 
z
M 14.703125 26.703125 
Q 14.703125 17.390625 19.40625 12.015625 
Q 24.125 6.640625 32.078125 6.640625 
Q 40.28125 6.640625 44.578125 11.890625 
Q 48.875 17.140625 48.875 26.953125 
Q 48.875 36.8125 44.578125 42.078125 
Q 40.28125 47.359375 32.078125 47.359375 
Q 24.03125 47.359375 19.359375 41.84375 
Q 14.703125 36.328125 14.703125 26.703125 
z
" id="MicrosoftYaHei-6f"/>
      <path d="M 37.5 44.53125 
Q 35.109375 46.234375 30.90625 46.234375 
Q 25.34375 46.234375 21.71875 41.03125 
Q 18.109375 35.84375 18.109375 27.34375 
L 18.109375 0 
L 8.546875 0 
L 8.546875 54 
L 18.109375 54 
L 18.109375 43.015625 
L 18.3125 43.015625 
Q 22.40625 54.9375 32.46875 54.9375 
Q 35.75 54.9375 37.5 54.203125 
z
" id="MicrosoftYaHei-72"/>
      <path d="M 52.546875 24.5625 
L 14.75 24.5625 
Q 14.984375 15.921875 19.46875 11.203125 
Q 23.96875 6.5 32.03125 6.5 
Q 41.109375 6.5 48.6875 12.3125 
L 48.6875 3.765625 
Q 41.546875 -1.265625 29.78125 -1.265625 
Q 18.0625 -1.265625 11.5 6.15625 
Q 4.9375 13.578125 4.9375 26.765625 
Q 4.9375 39.15625 12.140625 47.21875 
Q 19.34375 55.28125 30.03125 55.28125 
Q 40.625 55.28125 46.578125 48.46875 
Q 52.546875 41.65625 52.546875 29.390625 
z
M 42.96875 32.234375 
Q 42.921875 39.546875 39.5 43.546875 
Q 36.078125 47.5625 29.890625 47.5625 
Q 24.171875 47.5625 20 43.3125 
Q 15.828125 39.0625 14.75 32.234375 
z
" id="MicrosoftYaHei-65"/>
      <path d="M 8.5 0 
L 8.5 79.9375 
L 18.0625 79.9375 
L 18.0625 0 
z
" id="MicrosoftYaHei-6c"/>
      <path d="M 34.46875 0.53125 
Q 31.34375 -1.171875 26.03125 -1.171875 
Q 11.53125 -1.171875 11.53125 14.890625 
L 11.53125 46.09375 
L 2.25 46.09375 
L 2.25 54 
L 11.53125 54 
L 11.53125 67 
L 21.046875 70.015625 
L 21.046875 54 
L 34.46875 54 
L 34.46875 46.09375 
L 21.046875 46.09375 
L 21.046875 16.609375 
Q 21.046875 11.28125 22.84375 8.984375 
Q 24.65625 6.6875 28.859375 6.6875 
Q 32.078125 6.6875 34.46875 8.5 
z
" id="MicrosoftYaHei-74"/>
      <path d="M 54.203125 0 
L 44.671875 0 
L 44.671875 30.71875 
Q 44.671875 47.359375 32.515625 47.359375 
Q 26.21875 47.359375 22.15625 42.671875 
Q 18.109375 37.984375 18.109375 30.8125 
L 18.109375 0 
L 8.546875 0 
L 8.546875 54 
L 18.109375 54 
L 18.109375 45.0625 
L 18.3125 45.0625 
Q 24.421875 55.28125 36.03125 55.28125 
Q 44.921875 55.28125 49.5625 49.578125 
Q 54.203125 43.890625 54.203125 33.015625 
z
" id="MicrosoftYaHei-6e"/>
     </defs>
     <g transform="translate(56.514062 207.688281)rotate(-90)scale(0.1 -0.1)">
      <use xlink:href="#MicrosoftYaHei-63"/>
      <use x="50.146484" xlink:href="#MicrosoftYaHei-6f"/>
      <use x="113.720703" xlink:href="#MicrosoftYaHei-72"/>
      <use x="151.904297" xlink:href="#MicrosoftYaHei-72"/>
      <use x="190.072266" xlink:href="#MicrosoftYaHei-65"/>
      <use x="246.810547" xlink:href="#MicrosoftYaHei-6c"/>
      <use x="273.421875" xlink:href="#MicrosoftYaHei-61"/>
      <use x="328.695312" xlink:href="#MicrosoftYaHei-74"/>
      <use x="365.951172" xlink:href="#MicrosoftYaHei-69"/>
      <use x="392.5625" xlink:href="#MicrosoftYaHei-6f"/>
      <use x="456.136719" xlink:href="#MicrosoftYaHei-6e"/>
     </g>
    </g>
   </g>
   <g id="line2d_27">
    <path clip-path="url(#p79b90aaf9c)" d="M 115.363636 307.8 
L 120.539889 197.202534 
L 125.716141 156.206692 
L 130.892393 133.918632 
L 136.068646 114.413432 
L 141.244898 101.882261 
L 146.42115 92.681498 
L 151.597403 85.649586 
L 156.773655 80.095699 
L 161.949907 75.520394 
L 167.12616 72.376558 
L 172.302412 69.756584 
L 177.478664 67.201673 
L 182.654917 65.570661 
L 187.831169 63.605668 
L 193.007421 62.227122 
L 198.183673 60.956779 
L 203.359926 60.140056 
L 208.536178 59.609819 
L 213.71243 59.134782 
L 218.888683 58.83796 
L 224.064935 58.411915 
L 229.241187 58.590505 
L 234.41744 58.972456 
L 239.593692 59.244085 
L 244.769944 59.617985 
L 249.946197 59.748506 
L 255.122449 60.013737 
L 260.298701 60.232196 
L 265.474954 60.418049 
L 270.651206 60.548026 
L 275.827458 60.69752 
L 281.003711 60.577554 
L 286.179963 60.741461 
L 291.356215 60.600972 
L 296.532468 60.336569 
L 301.70872 60.249521 
L 306.884972 59.873948 
L 312.061224 59.574403 
L 317.237477 59.264655 
L 322.413729 59.259893 
L 327.589981 59.165609 
L 332.766234 59.37348 
L 337.942486 59.379887 
L 343.118738 59.374272 
L 348.294991 59.235994 
L 353.471243 59.229437 
L 358.647495 59.30971 
L 363.823748 59.300302 
L 369 59.30797 
L 374.176252 59.325617 
L 379.352505 59.441645 
L 384.528757 59.432267 
L 389.705009 59.291492 
L 394.881262 59.197202 
L 400.057514 59.070302 
L 405.233766 58.946697 
L 410.410019 58.70489 
L 415.586271 58.57833 
L 420.762523 58.39465 
L 425.938776 58.179819 
L 431.115028 57.993237 
L 436.29128 57.983522 
L 441.467532 57.96255 
L 446.643785 57.975291 
L 451.820037 57.942291 
L 456.996289 57.967042 
L 462.172542 57.878398 
L 467.348794 57.684708 
L 472.525046 57.593453 
L 477.701299 57.314074 
L 482.877551 57.140253 
L 488.053803 57.004378 
L 493.230056 56.879308 
L 498.406308 56.747146 
L 503.58256 56.625112 
L 508.758813 56.411303 
L 513.935065 56.331569 
L 519.111317 56.205802 
L 524.28757 56.121208 
L 529.463822 56.067452 
L 534.640074 55.888347 
L 539.816327 55.8 
L 544.992579 55.834461 
L 550.168831 55.890906 
L 555.345083 55.983122 
L 560.521336 56.04143 
L 565.697588 56.083444 
L 570.87384 56.11411 
L 576.050093 56.214694 
L 581.226345 56.270474 
L 586.402597 56.33389 
L 591.57885 56.395435 
L 596.755102 56.385988 
L 601.931354 56.45527 
L 607.107607 56.516429 
L 612.283859 56.612099 
L 617.460111 56.710397 
L 622.636364 56.785705 
" style="fill:none;stroke:#1f77b4;stroke-linecap:square;stroke-width:1.5;"/>
   </g>
   <g id="patch_3">
    <path d="M 90 320.4 
L 90 43.2 
" style="fill:none;stroke:#000000;stroke-linecap:square;stroke-linejoin:miter;stroke-width:0.8;"/>
   </g>
   <g id="patch_4">
    <path d="M 648 320.4 
L 648 43.2 
" style="fill:none;stroke:#000000;stroke-linecap:square;stroke-linejoin:miter;stroke-width:0.8;"/>
   </g>
   <g id="patch_5">
    <path d="M 90 320.4 
L 648 320.4 
" style="fill:none;stroke:#000000;stroke-linecap:square;stroke-linejoin:miter;stroke-width:0.8;"/>
   </g>
   <g id="patch_6">
    <path d="M 90 43.2 
L 648 43.2 
" style="fill:none;stroke:#000000;stroke-linecap:square;stroke-linejoin:miter;stroke-width:0.8;"/>
   </g>
  </g>
 </g>
 <defs>
  <clipPath id="p79b90aaf9c">
   <rect height="277.2" width="558" x="90" y="43.2"/>
  </clipPath>
 </defs>
</svg>
