<?xml version="1.0" encoding="utf-8" standalone="no"?>
<!DOCTYPE svg PUBLIC "-//W3C//DTD SVG 1.1//EN"
  "http://www.w3.org/Graphics/SVG/1.1/DTD/svg11.dtd">
<!-- Created with matplotlib (http://matplotlib.org/) -->
<svg height="432pt" version="1.1" viewBox="0 0 864 432" width="864pt" xmlns="http://www.w3.org/2000/svg" xmlns:xlink="http://www.w3.org/1999/xlink">
 <defs>
  <style type="text/css">
*{stroke-linecap:butt;stroke-linejoin:round;}
  </style>
 </defs>
 <g id="figure_1">
  <g id="patch_1">
   <path d="M 0 432 
L 864 432 
L 864 0 
L 0 0 
z
" style="fill:#ffffff;"/>
  </g>
  <g id="axes_1">
   <g id="patch_2">
    <path d="M 108 384.48 
L 777.6 384.48 
L 777.6 51.84 
L 108 51.84 
z
" style="fill:#ffffff;"/>
   </g>
   <g id="matplotlib.axis_1">
    <g id="xtick_1">
     <g id="line2d_1">
      <path clip-path="url(#p2bbc00a1ed)" d="M 108 384.48 
L 108 51.84 
" style="fill:none;stroke:#b0b0b0;stroke-linecap:square;stroke-width:0.8;"/>
     </g>
     <g id="line2d_2">
      <defs>
       <path d="M 0 0 
L 0 3.5 
" id="m83972ff943" style="stroke:#000000;stroke-width:0.8;"/>
      </defs>
      <g>
       <use style="stroke:#000000;stroke-width:0.8;" x="108" xlink:href="#m83972ff943" y="384.48"/>
      </g>
     </g>
     <g id="text_1">
      <!-- 2017年9月22日 -->
      <defs>
       <path d="M 51.171875 0 
L 5.171875 0 
L 5.171875 8.296875 
L 27.15625 30.21875 
Q 36.234375 39.3125 39.3125 44.609375 
Q 42.390625 49.90625 42.390625 55.5625 
Q 42.390625 62.015625 38.765625 65.453125 
Q 35.15625 68.890625 28.328125 68.890625 
Q 18.21875 68.890625 9.03125 60.296875 
L 9.03125 70.015625 
Q 17.96875 76.90625 29.828125 76.90625 
Q 40.046875 76.90625 45.953125 71.390625 
Q 51.859375 65.875 51.859375 56.546875 
Q 51.859375 49.515625 48.0625 42.75 
Q 44.28125 35.984375 33.734375 25.53125 
L 16.5 8.6875 
L 16.5 8.5 
L 51.171875 8.5 
z
" id="MicrosoftYaHei-32"/>
       <path d="M 4.4375 36.328125 
Q 4.4375 56.34375 11.078125 66.625 
Q 17.71875 76.90625 30.328125 76.90625 
Q 54.34375 76.90625 54.34375 38.140625 
Q 54.34375 19 47.578125 8.859375 
Q 40.828125 -1.265625 28.609375 -1.265625 
Q 17.09375 -1.265625 10.765625 8.34375 
Q 4.4375 17.96875 4.4375 36.328125 
z
M 14.203125 36.765625 
Q 14.203125 6.640625 29.5 6.640625 
Q 44.53125 6.640625 44.53125 37.25 
Q 44.53125 68.953125 29.78125 68.953125 
Q 14.203125 68.953125 14.203125 36.765625 
z
" id="MicrosoftYaHei-30"/>
       <path d="M 52.59375 0 
L 9.234375 0 
L 9.234375 8.25 
L 26.171875 8.25 
L 26.171875 65.671875 
L 8.796875 60.640625 
L 8.796875 69.4375 
L 35.6875 77.25 
L 35.6875 8.25 
L 52.59375 8.25 
z
" id="MicrosoftYaHei-31"/>
       <path d="M 53.765625 72.3125 
L 24.171875 0 
L 14.265625 0 
L 42.390625 67.1875 
L 4.59375 67.1875 
L 4.59375 75.640625 
L 53.765625 75.640625 
z
" id="MicrosoftYaHei-37"/>
       <path d="M 1.859375 19.96875 
L 17.578125 19.96875 
L 17.578125 47.90625 
L 52.15625 47.90625 
L 52.15625 65.28125 
L 23.4375 65.28125 
Q 16.84375 53.421875 8.6875 43.40625 
Q 6.15625 46.140625 2.640625 48.875 
Q 16.5 64.5 23.4375 83.9375 
L 31.453125 81.6875 
Q 29.390625 76.859375 27.15625 72.3125 
L 94.34375 72.3125 
L 94.34375 65.28125 
L 60.0625 65.28125 
L 60.0625 47.90625 
L 92.671875 47.90625 
L 92.671875 41.0625 
L 60.0625 41.0625 
L 60.0625 19.96875 
L 98.734375 19.96875 
L 98.734375 12.9375 
L 60.0625 12.9375 
L 60.0625 -13.421875 
L 52.15625 -13.421875 
L 52.15625 12.9375 
L 1.859375 12.9375 
z
M 25.296875 19.96875 
L 52.15625 19.96875 
L 52.15625 41.0625 
L 25.296875 41.0625 
z
" id="MicrosoftYaHei-5e74"/>
       <path d="M 9.03125 10.25 
Q 15.28125 6.640625 22.515625 6.640625 
Q 32.671875 6.640625 38.25 14.640625 
Q 43.84375 22.65625 43.84375 37.40625 
Q 43.75 37.3125 43.65625 37.40625 
Q 38.671875 27.9375 26.90625 27.9375 
Q 17.390625 27.9375 11.140625 34.46875 
Q 4.890625 41.015625 4.890625 51.46875 
Q 4.890625 62.59375 11.71875 69.75 
Q 18.5625 76.90625 29.4375 76.90625 
Q 40.71875 76.90625 47.0625 68.046875 
Q 53.421875 59.1875 53.421875 42.234375 
Q 53.421875 21.296875 45.21875 10.015625 
Q 37.015625 -1.265625 22.515625 -1.265625 
Q 14.546875 -1.265625 9.03125 1.3125 
z
M 14.546875 52.6875 
Q 14.546875 45.0625 18.453125 40.59375 
Q 22.359375 36.140625 29.25 36.140625 
Q 35.203125 36.140625 39.25 40.203125 
Q 43.3125 44.28125 43.3125 50.09375 
Q 43.3125 58.25 39.28125 63.59375 
Q 35.25 68.953125 28.65625 68.953125 
Q 22.5625 68.953125 18.546875 64.3125 
Q 14.546875 59.671875 14.546875 52.6875 
z
" id="MicrosoftYaHei-39"/>
       <path d="M 25.046875 20.0625 
Q 22.859375 1.21875 10.359375 -14.015625 
Q 7.234375 -10.984375 3.609375 -8.15625 
Q 13.09375 2.09375 16.3125 16.265625 
Q 18.5625 26.703125 18.5625 45.171875 
L 18.5625 78.953125 
L 83.796875 78.953125 
L 83.796875 2.78125 
Q 83.796875 -11.671875 70.015625 -11.671875 
Q 64.265625 -11.671875 55.171875 -11.46875 
Q 54.6875 -7.953125 53.71875 -3.265625 
Q 62.703125 -3.859375 67.875 -3.859375 
Q 75.78125 -3.859375 75.78125 3.859375 
L 75.78125 20.0625 
z
M 25.828125 27.203125 
L 75.78125 27.203125 
L 75.78125 45.953125 
L 26.5625 45.953125 
Q 26.5625 36.1875 25.828125 27.203125 
z
M 26.5625 71.625 
L 26.5625 53.078125 
L 75.78125 53.078125 
L 75.78125 71.625 
z
" id="MicrosoftYaHei-6708"/>
       <path d="M 15.234375 76.703125 
L 84.859375 76.703125 
L 84.859375 -11.96875 
L 76.5625 -11.96875 
L 76.5625 -5.03125 
L 23.53125 -5.03125 
L 23.53125 -11.96875 
L 15.234375 -11.96875 
z
M 23.53125 32.859375 
L 23.53125 2.09375 
L 76.5625 2.09375 
L 76.5625 32.859375 
z
M 23.53125 69.390625 
L 23.53125 40.1875 
L 76.5625 40.1875 
L 76.5625 69.390625 
z
" id="MicrosoftYaHei-65e5"/>
      </defs>
      <g transform="translate(72.475781 399.47375)scale(0.1 -0.1)">
       <use xlink:href="#MicrosoftYaHei-32"/>
       <use x="58.642578" xlink:href="#MicrosoftYaHei-30"/>
       <use x="117.285156" xlink:href="#MicrosoftYaHei-31"/>
       <use x="175.927734" xlink:href="#MicrosoftYaHei-37"/>
       <use x="234.570312" xlink:href="#MicrosoftYaHei-5e74"/>
       <use x="334.570312" xlink:href="#MicrosoftYaHei-39"/>
       <use x="393.212891" xlink:href="#MicrosoftYaHei-6708"/>
       <use x="493.212891" xlink:href="#MicrosoftYaHei-32"/>
       <use x="551.855469" xlink:href="#MicrosoftYaHei-32"/>
       <use x="610.498047" xlink:href="#MicrosoftYaHei-65e5"/>
      </g>
     </g>
    </g>
    <g id="xtick_2">
     <g id="line2d_3">
      <path clip-path="url(#p2bbc00a1ed)" d="M 199.978022 384.48 
L 199.978022 51.84 
" style="fill:none;stroke:#b0b0b0;stroke-linecap:square;stroke-width:0.8;"/>
     </g>
     <g id="line2d_4">
      <g>
       <use style="stroke:#000000;stroke-width:0.8;" x="199.978022" xlink:href="#m83972ff943" y="384.48"/>
      </g>
     </g>
     <g id="text_2">
      <!-- 2018年11月23日 -->
      <defs>
       <path d="M 21.390625 39.796875 
Q 7.859375 46.09375 7.859375 58.0625 
Q 7.859375 66.40625 14.203125 71.65625 
Q 20.5625 76.90625 30.421875 76.90625 
Q 39.453125 76.90625 45.3125 71.96875 
Q 51.171875 67.046875 51.171875 59.234375 
Q 51.171875 46.625 37.0625 39.84375 
L 37.0625 39.65625 
Q 53.609375 33.6875 53.609375 19.34375 
Q 53.609375 9.90625 46.796875 4.3125 
Q 39.984375 -1.265625 27.78125 -1.265625 
Q 17.78125 -1.265625 11.46875 4.25 
Q 5.171875 9.765625 5.171875 18.5625 
Q 5.171875 33.015625 21.390625 39.59375 
z
M 41.5 58.109375 
Q 41.5 63.1875 38.328125 66.109375 
Q 35.15625 69.046875 29.734375 69.046875 
Q 24.65625 69.046875 21.09375 65.984375 
Q 17.53125 62.9375 17.53125 58.203125 
Q 17.53125 48.734375 29.390625 43.796875 
Q 41.5 48.828125 41.5 58.109375 
z
M 28.8125 35.25 
Q 14.796875 29.59375 14.796875 19.046875 
Q 14.796875 13.578125 18.890625 10.0625 
Q 23 6.546875 29.59375 6.546875 
Q 35.984375 6.546875 39.984375 10.03125 
Q 44 13.53125 44 18.75 
Q 44 29.734375 28.8125 35.25 
z
" id="MicrosoftYaHei-38"/>
       <path d="M 6.984375 12.640625 
Q 14.75 6.640625 24.515625 6.640625 
Q 32.328125 6.640625 36.890625 10.46875 
Q 41.453125 14.3125 41.453125 20.75 
Q 41.453125 35.109375 20.90625 35.109375 
L 14.59375 35.109375 
L 14.59375 43.015625 
L 20.609375 43.015625 
Q 38.8125 43.015625 38.8125 56.5 
Q 38.8125 68.953125 24.90625 68.953125 
Q 16.9375 68.953125 9.90625 63.578125 
L 9.90625 72.609375 
Q 17.328125 76.90625 27.25 76.90625 
Q 36.921875 76.90625 42.78125 71.84375 
Q 48.640625 66.796875 48.640625 58.734375 
Q 48.640625 43.890625 33.5 39.65625 
L 33.5 39.453125 
Q 41.703125 38.578125 46.453125 33.671875 
Q 51.21875 28.765625 51.21875 21.4375 
Q 51.21875 11.234375 43.875 4.984375 
Q 36.53125 -1.265625 24.3125 -1.265625 
Q 13.578125 -1.265625 6.984375 2.734375 
z
" id="MicrosoftYaHei-33"/>
      </defs>
      <g transform="translate(161.521772 399.47375)scale(0.1 -0.1)">
       <use xlink:href="#MicrosoftYaHei-32"/>
       <use x="58.642578" xlink:href="#MicrosoftYaHei-30"/>
       <use x="117.285156" xlink:href="#MicrosoftYaHei-31"/>
       <use x="175.927734" xlink:href="#MicrosoftYaHei-38"/>
       <use x="234.570312" xlink:href="#MicrosoftYaHei-5e74"/>
       <use x="334.570312" xlink:href="#MicrosoftYaHei-31"/>
       <use x="393.212891" xlink:href="#MicrosoftYaHei-31"/>
       <use x="451.855469" xlink:href="#MicrosoftYaHei-6708"/>
       <use x="551.855469" xlink:href="#MicrosoftYaHei-32"/>
       <use x="610.498047" xlink:href="#MicrosoftYaHei-33"/>
       <use x="669.140625" xlink:href="#MicrosoftYaHei-65e5"/>
      </g>
     </g>
    </g>
    <g id="xtick_3">
     <g id="line2d_5">
      <path clip-path="url(#p2bbc00a1ed)" d="M 291.956044 384.48 
L 291.956044 51.84 
" style="fill:none;stroke:#b0b0b0;stroke-linecap:square;stroke-width:0.8;"/>
     </g>
     <g id="line2d_6">
      <g>
       <use style="stroke:#000000;stroke-width:0.8;" x="291.956044" xlink:href="#m83972ff943" y="384.48"/>
      </g>
     </g>
     <g id="text_3">
      <!-- 2018年1月23日 -->
      <g transform="translate(256.431825 399.47375)scale(0.1 -0.1)">
       <use xlink:href="#MicrosoftYaHei-32"/>
       <use x="58.642578" xlink:href="#MicrosoftYaHei-30"/>
       <use x="117.285156" xlink:href="#MicrosoftYaHei-31"/>
       <use x="175.927734" xlink:href="#MicrosoftYaHei-38"/>
       <use x="234.570312" xlink:href="#MicrosoftYaHei-5e74"/>
       <use x="334.570312" xlink:href="#MicrosoftYaHei-31"/>
       <use x="393.212891" xlink:href="#MicrosoftYaHei-6708"/>
       <use x="493.212891" xlink:href="#MicrosoftYaHei-32"/>
       <use x="551.855469" xlink:href="#MicrosoftYaHei-33"/>
       <use x="610.498047" xlink:href="#MicrosoftYaHei-65e5"/>
      </g>
     </g>
    </g>
    <g id="xtick_4">
     <g id="line2d_7">
      <path clip-path="url(#p2bbc00a1ed)" d="M 383.934066 384.48 
L 383.934066 51.84 
" style="fill:none;stroke:#b0b0b0;stroke-linecap:square;stroke-width:0.8;"/>
     </g>
     <g id="line2d_8">
      <g>
       <use style="stroke:#000000;stroke-width:0.8;" x="383.934066" xlink:href="#m83972ff943" y="384.48"/>
      </g>
     </g>
     <g id="text_4">
      <!-- 2018年3月5日 -->
      <defs>
       <path d="M 8.640625 11.625 
Q 16.265625 6.640625 24.515625 6.640625 
Q 32.328125 6.640625 37.109375 11 
Q 41.890625 15.375 41.890625 22.609375 
Q 41.890625 29.890625 37.03125 33.890625 
Q 32.171875 37.890625 22.953125 37.890625 
Q 18.5 37.890625 10.984375 37.203125 
L 10.984375 75.640625 
L 48.1875 75.640625 
L 48.1875 67.1875 
L 19.875 67.1875 
L 19.875 45.796875 
Q 24.125 46.046875 26.265625 46.046875 
Q 38.234375 46.046875 44.921875 39.984375 
Q 51.609375 33.9375 51.609375 23.296875 
Q 51.609375 12.3125 44.421875 5.515625 
Q 37.25 -1.265625 24.609375 -1.265625 
Q 14.015625 -1.265625 8.640625 1.859375 
z
" id="MicrosoftYaHei-35"/>
      </defs>
      <g transform="translate(351.341878 399.47375)scale(0.1 -0.1)">
       <use xlink:href="#MicrosoftYaHei-32"/>
       <use x="58.642578" xlink:href="#MicrosoftYaHei-30"/>
       <use x="117.285156" xlink:href="#MicrosoftYaHei-31"/>
       <use x="175.927734" xlink:href="#MicrosoftYaHei-38"/>
       <use x="234.570312" xlink:href="#MicrosoftYaHei-5e74"/>
       <use x="334.570312" xlink:href="#MicrosoftYaHei-33"/>
       <use x="393.212891" xlink:href="#MicrosoftYaHei-6708"/>
       <use x="493.212891" xlink:href="#MicrosoftYaHei-35"/>
       <use x="551.855469" xlink:href="#MicrosoftYaHei-65e5"/>
      </g>
     </g>
    </g>
    <g id="xtick_5">
     <g id="line2d_9">
      <path clip-path="url(#p2bbc00a1ed)" d="M 475.912088 384.48 
L 475.912088 51.84 
" style="fill:none;stroke:#b0b0b0;stroke-linecap:square;stroke-width:0.8;"/>
     </g>
     <g id="line2d_10">
      <g>
       <use style="stroke:#000000;stroke-width:0.8;" x="475.912088" xlink:href="#m83972ff943" y="384.48"/>
      </g>
     </g>
     <g id="text_5">
      <!-- 2018年6月10日 -->
      <defs>
       <path d="M 49.703125 65.921875 
Q 43.796875 68.953125 37.359375 68.953125 
Q 27.546875 68.953125 21.578125 60.40625 
Q 15.625 51.859375 15.53125 37.0625 
L 15.765625 37.0625 
Q 21.140625 47.46875 32.90625 47.46875 
Q 42.71875 47.46875 48.578125 41.0625 
Q 54.4375 34.671875 54.4375 24.078125 
Q 54.4375 12.984375 47.671875 5.859375 
Q 40.921875 -1.265625 30.421875 -1.265625 
Q 18.890625 -1.265625 12.328125 7.734375 
Q 5.765625 16.75 5.765625 33.296875 
Q 5.765625 53.328125 14.375 65.109375 
Q 23 76.90625 37.0625 76.90625 
Q 45.125 76.90625 49.703125 74.703125 
z
M 16.109375 24.75 
Q 16.109375 17.28125 20.09375 11.953125 
Q 24.078125 6.640625 30.671875 6.640625 
Q 36.921875 6.640625 40.828125 11.234375 
Q 44.734375 15.828125 44.734375 23.046875 
Q 44.734375 30.859375 41.046875 35.203125 
Q 37.359375 39.546875 30.5625 39.546875 
Q 24.125 39.546875 20.109375 35.15625 
Q 16.109375 30.765625 16.109375 24.75 
z
" id="MicrosoftYaHei-36"/>
      </defs>
      <g transform="translate(440.387869 399.47375)scale(0.1 -0.1)">
       <use xlink:href="#MicrosoftYaHei-32"/>
       <use x="58.642578" xlink:href="#MicrosoftYaHei-30"/>
       <use x="117.285156" xlink:href="#MicrosoftYaHei-31"/>
       <use x="175.927734" xlink:href="#MicrosoftYaHei-38"/>
       <use x="234.570312" xlink:href="#MicrosoftYaHei-5e74"/>
       <use x="334.570312" xlink:href="#MicrosoftYaHei-36"/>
       <use x="393.212891" xlink:href="#MicrosoftYaHei-6708"/>
       <use x="493.212891" xlink:href="#MicrosoftYaHei-31"/>
       <use x="551.855469" xlink:href="#MicrosoftYaHei-30"/>
       <use x="610.498047" xlink:href="#MicrosoftYaHei-65e5"/>
      </g>
     </g>
    </g>
    <g id="xtick_6">
     <g id="line2d_11">
      <path clip-path="url(#p2bbc00a1ed)" d="M 567.89011 384.48 
L 567.89011 51.84 
" style="fill:none;stroke:#b0b0b0;stroke-linecap:square;stroke-width:0.8;"/>
     </g>
     <g id="line2d_12">
      <g>
       <use style="stroke:#000000;stroke-width:0.8;" x="567.89011" xlink:href="#m83972ff943" y="384.48"/>
      </g>
     </g>
     <g id="text_6">
      <!-- 2018年7月8日 -->
      <g transform="translate(535.297922 399.47375)scale(0.1 -0.1)">
       <use xlink:href="#MicrosoftYaHei-32"/>
       <use x="58.642578" xlink:href="#MicrosoftYaHei-30"/>
       <use x="117.285156" xlink:href="#MicrosoftYaHei-31"/>
       <use x="175.927734" xlink:href="#MicrosoftYaHei-38"/>
       <use x="234.570312" xlink:href="#MicrosoftYaHei-5e74"/>
       <use x="334.570312" xlink:href="#MicrosoftYaHei-37"/>
       <use x="393.212891" xlink:href="#MicrosoftYaHei-6708"/>
       <use x="493.212891" xlink:href="#MicrosoftYaHei-38"/>
       <use x="551.855469" xlink:href="#MicrosoftYaHei-65e5"/>
      </g>
     </g>
    </g>
    <g id="xtick_7">
     <g id="line2d_13">
      <path clip-path="url(#p2bbc00a1ed)" d="M 659.868132 384.48 
L 659.868132 51.84 
" style="fill:none;stroke:#b0b0b0;stroke-linecap:square;stroke-width:0.8;"/>
     </g>
     <g id="line2d_14">
      <g>
       <use style="stroke:#000000;stroke-width:0.8;" x="659.868132" xlink:href="#m83972ff943" y="384.48"/>
      </g>
     </g>
     <g id="text_7">
      <!-- 2018年9月5日 -->
      <g transform="translate(627.275944 399.47375)scale(0.1 -0.1)">
       <use xlink:href="#MicrosoftYaHei-32"/>
       <use x="58.642578" xlink:href="#MicrosoftYaHei-30"/>
       <use x="117.285156" xlink:href="#MicrosoftYaHei-31"/>
       <use x="175.927734" xlink:href="#MicrosoftYaHei-38"/>
       <use x="234.570312" xlink:href="#MicrosoftYaHei-5e74"/>
       <use x="334.570312" xlink:href="#MicrosoftYaHei-39"/>
       <use x="393.212891" xlink:href="#MicrosoftYaHei-6708"/>
       <use x="493.212891" xlink:href="#MicrosoftYaHei-35"/>
       <use x="551.855469" xlink:href="#MicrosoftYaHei-65e5"/>
      </g>
     </g>
    </g>
    <g id="xtick_8">
     <g id="line2d_15">
      <path clip-path="url(#p2bbc00a1ed)" d="M 751.846154 384.48 
L 751.846154 51.84 
" style="fill:none;stroke:#b0b0b0;stroke-linecap:square;stroke-width:0.8;"/>
     </g>
     <g id="line2d_16">
      <g>
       <use style="stroke:#000000;stroke-width:0.8;" x="751.846154" xlink:href="#m83972ff943" y="384.48"/>
      </g>
     </g>
     <g id="text_8">
      <!-- 2019年3月12日 -->
      <g transform="translate(716.321935 399.47375)scale(0.1 -0.1)">
       <use xlink:href="#MicrosoftYaHei-32"/>
       <use x="58.642578" xlink:href="#MicrosoftYaHei-30"/>
       <use x="117.285156" xlink:href="#MicrosoftYaHei-31"/>
       <use x="175.927734" xlink:href="#MicrosoftYaHei-39"/>
       <use x="234.570312" xlink:href="#MicrosoftYaHei-5e74"/>
       <use x="334.570312" xlink:href="#MicrosoftYaHei-33"/>
       <use x="393.212891" xlink:href="#MicrosoftYaHei-6708"/>
       <use x="493.212891" xlink:href="#MicrosoftYaHei-31"/>
       <use x="551.855469" xlink:href="#MicrosoftYaHei-32"/>
       <use x="610.498047" xlink:href="#MicrosoftYaHei-65e5"/>
      </g>
     </g>
    </g>
    <g id="text_9">
     <!-- 日期 -->
     <defs>
      <path d="M 58.890625 79.15625 
L 93.453125 79.15625 
L 93.453125 -0.046875 
Q 93.453125 -11.578125 82.515625 -11.578125 
Q 77.046875 -11.578125 71.78125 -11.28125 
Q 71.390625 -8.0625 70.609375 -3.765625 
Q 77.734375 -4.4375 80.859375 -4.4375 
Q 86.234375 -4.4375 86.234375 0.921875 
L 86.234375 21.4375 
L 65.328125 21.4375 
Q 64.265625 0.046875 52.34375 -14.109375 
Q 49.703125 -11.375 46.484375 -8.640625 
Q 54.390625 0.4375 56.546875 10.203125 
Q 58.890625 19.578125 58.890625 42.828125 
z
M 1.953125 17.828125 
L 11.140625 17.828125 
L 11.140625 62.9375 
L 3.125 62.9375 
L 3.125 69.578125 
L 11.140625 69.578125 
L 11.140625 81.5 
L 18.359375 81.5 
L 18.359375 69.578125 
L 38.671875 69.578125 
L 38.671875 81.890625 
L 45.90625 81.890625 
L 45.90625 69.578125 
L 53.8125 69.578125 
L 53.8125 62.9375 
L 45.90625 62.9375 
L 45.90625 17.828125 
L 53.71875 17.828125 
L 53.71875 11.1875 
L 1.953125 11.1875 
z
M 65.765625 27.875 
L 86.234375 27.875 
L 86.234375 47.015625 
L 66.109375 47.015625 
Q 66.21875 34.421875 65.765625 27.875 
z
M 86.234375 72.515625 
L 66.109375 72.515625 
L 66.109375 53.46875 
L 86.234375 53.46875 
z
M 18.359375 17.828125 
L 38.671875 17.828125 
L 38.671875 28.765625 
L 18.359375 28.765625 
z
M 18.359375 35.015625 
L 38.671875 35.015625 
L 38.671875 45.84375 
L 18.359375 45.84375 
z
M 18.359375 52.09375 
L 38.671875 52.09375 
L 38.671875 62.9375 
L 18.359375 62.9375 
z
M 18.359375 9.328125 
L 24.3125 4.640625 
Q 14.453125 -6 6.34375 -13.234375 
Q 4.296875 -10.890625 1.171875 -8.0625 
Q 10.453125 -0.140625 18.359375 9.328125 
z
M 31.15625 4.734375 
L 35.84375 9.515625 
Q 42.671875 4.4375 48.734375 -0.734375 
L 43.5625 -6.296875 
Q 38.09375 -0.828125 31.15625 4.734375 
z
" id="MicrosoftYaHei-671f"/>
     </defs>
     <g transform="translate(432.8 413.953438)scale(0.1 -0.1)">
      <use xlink:href="#MicrosoftYaHei-65e5"/>
      <use x="100" xlink:href="#MicrosoftYaHei-671f"/>
     </g>
    </g>
   </g>
   <g id="matplotlib.axis_2">
    <g id="ytick_1">
     <g id="line2d_17">
      <path clip-path="url(#p2bbc00a1ed)" d="M 108 356.093088 
L 777.6 356.093088 
" style="fill:none;stroke:#b0b0b0;stroke-linecap:square;stroke-width:0.8;"/>
     </g>
     <g id="line2d_18">
      <defs>
       <path d="M 0 0 
L -3.5 0 
" id="mf67681bc57" style="stroke:#000000;stroke-width:0.8;"/>
      </defs>
      <g>
       <use style="stroke:#000000;stroke-width:0.8;" x="108" xlink:href="#mf67681bc57" y="356.093088"/>
      </g>
     </g>
     <g id="text_10">
      <!-- 6.3 -->
      <defs>
       <path d="M 5.8125 5.03125 
Q 5.8125 7.671875 7.609375 9.46875 
Q 9.421875 11.28125 12.109375 11.28125 
Q 14.84375 11.28125 16.640625 9.453125 
Q 18.453125 7.625 18.453125 5.03125 
Q 18.453125 2.484375 16.640625 0.65625 
Q 14.84375 -1.171875 12.0625 -1.171875 
Q 9.375 -1.171875 7.59375 0.65625 
Q 5.8125 2.484375 5.8125 5.03125 
z
" id="MicrosoftYaHei-2e"/>
      </defs>
      <g transform="translate(86.864063 360.089963)scale(0.1 -0.1)">
       <use xlink:href="#MicrosoftYaHei-36"/>
       <use x="58.642578" xlink:href="#MicrosoftYaHei-2e"/>
       <use x="82.714844" xlink:href="#MicrosoftYaHei-33"/>
      </g>
     </g>
    </g>
    <g id="ytick_2">
     <g id="line2d_19">
      <path clip-path="url(#p2bbc00a1ed)" d="M 108 313.296598 
L 777.6 313.296598 
" style="fill:none;stroke:#b0b0b0;stroke-linecap:square;stroke-width:0.8;"/>
     </g>
     <g id="line2d_20">
      <g>
       <use style="stroke:#000000;stroke-width:0.8;" x="108" xlink:href="#mf67681bc57" y="313.296598"/>
      </g>
     </g>
     <g id="text_11">
      <!-- 6.4 -->
      <defs>
       <path d="M 55.078125 19.625 
L 45.40625 19.625 
L 45.40625 0 
L 36.140625 0 
L 36.140625 19.625 
L 0.875 19.625 
L 0.875 25.828125 
L 34.328125 75.640625 
L 45.40625 75.640625 
L 45.40625 27.203125 
L 55.078125 27.203125 
z
M 36.140625 27.203125 
L 36.140625 58.890625 
Q 36.140625 62.25 36.328125 66.65625 
L 36.140625 66.65625 
Q 35.453125 64.796875 33.25 60.84375 
L 10.75 27.203125 
z
" id="MicrosoftYaHei-34"/>
      </defs>
      <g transform="translate(86.864063 317.293473)scale(0.1 -0.1)">
       <use xlink:href="#MicrosoftYaHei-36"/>
       <use x="58.642578" xlink:href="#MicrosoftYaHei-2e"/>
       <use x="82.714844" xlink:href="#MicrosoftYaHei-34"/>
      </g>
     </g>
    </g>
    <g id="ytick_3">
     <g id="line2d_21">
      <path clip-path="url(#p2bbc00a1ed)" d="M 108 270.500108 
L 777.6 270.500108 
" style="fill:none;stroke:#b0b0b0;stroke-linecap:square;stroke-width:0.8;"/>
     </g>
     <g id="line2d_22">
      <g>
       <use style="stroke:#000000;stroke-width:0.8;" x="108" xlink:href="#mf67681bc57" y="270.500108"/>
      </g>
     </g>
     <g id="text_12">
      <!-- 6.5 -->
      <g transform="translate(86.864063 274.496983)scale(0.1 -0.1)">
       <use xlink:href="#MicrosoftYaHei-36"/>
       <use x="58.642578" xlink:href="#MicrosoftYaHei-2e"/>
       <use x="82.714844" xlink:href="#MicrosoftYaHei-35"/>
      </g>
     </g>
    </g>
    <g id="ytick_4">
     <g id="line2d_23">
      <path clip-path="url(#p2bbc00a1ed)" d="M 108 227.703617 
L 777.6 227.703617 
" style="fill:none;stroke:#b0b0b0;stroke-linecap:square;stroke-width:0.8;"/>
     </g>
     <g id="line2d_24">
      <g>
       <use style="stroke:#000000;stroke-width:0.8;" x="108" xlink:href="#mf67681bc57" y="227.703617"/>
      </g>
     </g>
     <g id="text_13">
      <!-- 6.6 -->
      <g transform="translate(86.864063 231.700492)scale(0.1 -0.1)">
       <use xlink:href="#MicrosoftYaHei-36"/>
       <use x="58.642578" xlink:href="#MicrosoftYaHei-2e"/>
       <use x="82.714844" xlink:href="#MicrosoftYaHei-36"/>
      </g>
     </g>
    </g>
    <g id="ytick_5">
     <g id="line2d_25">
      <path clip-path="url(#p2bbc00a1ed)" d="M 108 184.907127 
L 777.6 184.907127 
" style="fill:none;stroke:#b0b0b0;stroke-linecap:square;stroke-width:0.8;"/>
     </g>
     <g id="line2d_26">
      <g>
       <use style="stroke:#000000;stroke-width:0.8;" x="108" xlink:href="#mf67681bc57" y="184.907127"/>
      </g>
     </g>
     <g id="text_14">
      <!-- 6.7 -->
      <g transform="translate(86.864063 188.904002)scale(0.1 -0.1)">
       <use xlink:href="#MicrosoftYaHei-36"/>
       <use x="58.642578" xlink:href="#MicrosoftYaHei-2e"/>
       <use x="82.714844" xlink:href="#MicrosoftYaHei-37"/>
      </g>
     </g>
    </g>
    <g id="ytick_6">
     <g id="line2d_27">
      <path clip-path="url(#p2bbc00a1ed)" d="M 108 142.110637 
L 777.6 142.110637 
" style="fill:none;stroke:#b0b0b0;stroke-linecap:square;stroke-width:0.8;"/>
     </g>
     <g id="line2d_28">
      <g>
       <use style="stroke:#000000;stroke-width:0.8;" x="108" xlink:href="#mf67681bc57" y="142.110637"/>
      </g>
     </g>
     <g id="text_15">
      <!-- 6.8 -->
      <g transform="translate(86.864063 146.107512)scale(0.1 -0.1)">
       <use xlink:href="#MicrosoftYaHei-36"/>
       <use x="58.642578" xlink:href="#MicrosoftYaHei-2e"/>
       <use x="82.714844" xlink:href="#MicrosoftYaHei-38"/>
      </g>
     </g>
    </g>
    <g id="ytick_7">
     <g id="line2d_29">
      <path clip-path="url(#p2bbc00a1ed)" d="M 108 99.314147 
L 777.6 99.314147 
" style="fill:none;stroke:#b0b0b0;stroke-linecap:square;stroke-width:0.8;"/>
     </g>
     <g id="line2d_30">
      <g>
       <use style="stroke:#000000;stroke-width:0.8;" x="108" xlink:href="#mf67681bc57" y="99.314147"/>
      </g>
     </g>
     <g id="text_16">
      <!-- 6.9 -->
      <g transform="translate(86.864063 103.311022)scale(0.1 -0.1)">
       <use xlink:href="#MicrosoftYaHei-36"/>
       <use x="58.642578" xlink:href="#MicrosoftYaHei-2e"/>
       <use x="82.714844" xlink:href="#MicrosoftYaHei-39"/>
      </g>
     </g>
    </g>
    <g id="ytick_8">
     <g id="line2d_31">
      <path clip-path="url(#p2bbc00a1ed)" d="M 108 56.517656 
L 777.6 56.517656 
" style="fill:none;stroke:#b0b0b0;stroke-linecap:square;stroke-width:0.8;"/>
     </g>
     <g id="line2d_32">
      <g>
       <use style="stroke:#000000;stroke-width:0.8;" x="108" xlink:href="#mf67681bc57" y="56.517656"/>
      </g>
     </g>
     <g id="text_17">
      <!-- 7.0 -->
      <g transform="translate(86.864063 60.514531)scale(0.1 -0.1)">
       <use xlink:href="#MicrosoftYaHei-37"/>
       <use x="58.642578" xlink:href="#MicrosoftYaHei-2e"/>
       <use x="82.714844" xlink:href="#MicrosoftYaHei-30"/>
      </g>
     </g>
    </g>
   </g>
   <g id="line2d_33">
    <path clip-path="url(#p2bbc00a1ed)" d="M 108 231.512505 
L 109.83956 218.630761 
L 111.679121 210.585021 
L 113.518681 209.515109 
L 115.358242 200.313864 
L 117.197802 204.850292 
L 119.037363 257.275992 
L 120.876923 253.895069 
L 122.716484 260.22895 
L 124.556044 276.234837 
L 126.395604 278.331865 
L 128.235165 88.957396 
L 130.074725 103.636592 
L 131.914286 89.684936 
L 133.753846 89.813326 
L 135.593407 92.124336 
L 137.432967 94.178568 
L 139.272527 87.545112 
L 141.112088 83.222666 
L 142.951648 86.603589 
L 144.791209 112.623855 
L 146.630769 86.689182 
L 148.47033 79.02861 
L 150.30989 82.923091 
L 152.149451 80.483691 
L 153.989011 78.386663 
L 155.828571 80.697673 
L 157.668132 80.697673 
L 159.507692 72.823119 
L 161.347253 112.623855 
L 163.186813 70.554905 
L 165.026374 66.96 
L 166.865934 112.623855 
L 172.384615 112.623855 
L 174.224176 86.175624 
L 176.063736 89.599343 
L 177.903297 74.962944 
L 179.742857 72.138375 
L 181.582418 75.348112 
L 183.421978 77.701919 
L 185.261538 82.495126 
L 187.101099 83.05148 
L 188.940659 83.05148 
L 190.78022 81.339621 
L 192.61978 89.299768 
L 194.459341 79.970133 
L 196.298901 87.759094 
L 198.138462 85.662066 
L 199.978022 78.557849 
L 201.817582 78.557849 
L 203.657143 81.853179 
L 205.496703 77.273954 
L 207.336264 76.246838 
L 209.175824 81.125638 
L 211.015385 103.29422 
L 212.854945 73.42227 
L 214.694505 103.208627 
L 216.534066 88.315449 
L 218.373626 90.968831 
L 220.213187 90.754849 
L 222.052747 84.549357 
L 223.892308 75.00574 
L 225.731868 94.306957 
L 227.571429 99.314147 
L 229.410989 107.873445 
L 231.250549 107.188701 
L 233.09011 96.018817 
L 234.92967 96.061613 
L 236.769231 100.512448 
L 238.608791 101.411175 
L 240.448352 102.652273 
L 242.287912 105.690824 
L 244.127473 96.532375 
L 245.967033 96.575171 
L 247.806593 99.699315 
L 249.646154 104.792097 
L 251.485714 105.562434 
L 253.325275 113.736564 
L 255.164835 108.515392 
L 257.004396 74.064217 
L 258.843956 108.643781 
L 260.683516 108.515392 
L 262.523077 106.58955 
L 264.362637 126.147546 
L 266.202198 117.845027 
L 268.041758 106.717939 
L 269.881319 109.713694 
L 271.720879 109.713694 
L 273.56044 267.033592 
L 275.4 272.29756 
L 277.23956 287.190739 
L 279.079121 297.4191 
L 280.918681 294.466142 
L 282.758242 298.617402 
L 284.597802 304.60891 
L 286.437363 311.584738 
L 288.276923 267.675539 
L 290.116484 311.07118 
L 291.956044 311.285163 
L 293.795604 326.135545 
L 295.635165 345.907523 
L 297.474725 347.490993 
L 299.314286 340.087201 
L 301.153846 273.324676 
L 302.993407 345.864727 
L 304.832967 360.886295 
L 306.672527 269.216213 
L 308.512088 273.324676 
L 310.351648 275.336111 
L 312.191209 270.628497 
L 314.030769 257.78955 
L 315.87033 344.324053 
L 317.70989 338.546527 
L 319.549451 335.46518 
L 325.068132 335.46518 
L 326.907692 356.30707 
L 328.747253 335.46518 
L 330.586813 335.46518 
L 332.426374 334.652046 
L 334.265934 340.129997 
L 336.105495 349.24565 
L 337.945055 348.817685 
L 339.784615 342.78338 
L 341.624176 355.493937 
L 343.463736 360.372737 
L 345.303297 363.282898 
L 347.142857 369.188814 
L 348.982418 344.538036 
L 350.821978 357.419779 
L 352.661538 343.254141 
L 354.501099 346.849046 
L 356.340659 348.38972 
L 358.18022 346.635064 
L 360.01978 341.114316 
L 361.859341 342.312618 
L 363.698901 331.185531 
L 365.538462 341.499485 
L 367.378022 346.164302 
L 369.217582 341.114316 
L 371.057143 349.24565 
L 372.896703 367.476954 
L 374.736264 363.325695 
L 376.575824 356.991814 
L 378.415385 360.45833 
L 380.254945 336.663481 
L 382.094505 366.663821 
L 383.934066 334.908825 
L 385.773626 351.899032 
L 387.613187 345.179983 
L 389.452747 338.032969 
L 391.292308 342.141432 
L 393.131868 363.282898 
L 394.971429 369.36 
L 396.810989 359.73079 
L 398.650549 366.792211 
L 400.49011 366.150263 
L 402.32967 363.582474 
L 404.169231 367.04899 
L 406.008791 365.037554 
L 407.848352 357.590965 
L 409.687912 348.774888 
L 411.527473 353.311316 
L 413.367033 344.709222 
L 415.206593 340.472369 
L 417.046154 341.884653 
L 418.885714 364.438404 
L 420.725275 341.884653 
L 422.564835 360.415534 
L 424.404396 353.867671 
L 428.083516 353.867671 
L 429.923077 353.097334 
L 431.762637 335.037215 
L 433.602198 341.499485 
L 435.441758 339.316864 
L 437.281319 322.840215 
L 439.120879 325.493598 
L 440.96044 327.376643 
L 442.8 321.855896 
L 444.63956 341.884653 
L 446.479121 320.358019 
L 448.318681 327.205457 
L 450.158242 318.218194 
L 451.997802 322.583436 
L 453.837363 316.80591 
L 455.676923 326.221138 
L 457.516484 313.596173 
L 459.356044 305.764416 
L 461.195604 329.388078 
L 463.035165 305.165265 
L 464.874725 308.888559 
L 466.714286 333.111373 
L 468.553846 329.259689 
L 472.232967 325.835969 
L 474.072527 329.388078 
L 475.912088 310.429233 
L 477.751648 312.569057 
L 479.591209 312.098296 
L 481.430769 314.024138 
L 483.27033 312.569057 
L 485.10989 296.434781 
L 486.949451 298.745791 
L 488.789011 296.434781 
L 490.628571 276.833988 
L 492.468132 304.566114 
L 494.307692 281.755584 
L 496.147253 273.410269 
L 497.986813 268.017911 
L 499.826374 268.231894 
L 501.665934 253.381511 
L 503.505495 236.562491 
L 505.345055 225.692182 
L 507.184615 216.148565 
L 509.024176 218.716354 
L 510.863736 304.566114 
L 512.703297 309.016949 
L 514.542857 310.686012 
L 516.382418 318.260991 
L 518.221978 316.677521 
L 520.061538 310.472029 
L 521.901099 214.907467 
L 523.740659 192.952867 
L 525.58022 198.730393 
L 527.41978 188.459236 
L 529.259341 186.790173 
L 531.098901 188.716015 
L 532.938462 182.125355 
L 534.778022 176.519015 
L 536.617582 152.766963 
L 538.457143 216.876105 
L 540.296703 154.564416 
L 542.136264 159.571605 
L 543.975824 145.106391 
L 545.815385 145.748339 
L 547.654945 155.077973 
L 549.494505 145.234781 
L 551.334066 136.247518 
L 553.173626 136.247518 
L 555.013187 198.602004 
L 556.852747 135.691163 
L 558.692308 136.675483 
L 560.531868 209.515109 
L 562.371429 213.794758 
L 564.210989 211.826119 
L 566.050549 209.044348 
L 567.89011 210.328242 
L 569.72967 220.813382 
L 571.569231 121.910693 
L 573.408791 121.910693 
L 575.248352 103.037441 
L 577.087912 106.075992 
L 578.927473 84.420968 
L 580.767033 106.803532 
L 582.606593 108.943357 
L 584.446154 108.90056 
L 586.285714 132.395834 
L 588.125275 117.374265 
L 589.964835 121.910693 
L 591.804396 124.221704 
L 593.643956 108.857764 
L 595.483516 139.114883 
L 597.323077 141.425893 
L 599.162637 135.434384 
L 601.002198 140.826742 
L 602.841758 132.994984 
L 604.681319 123.793739 
L 606.520879 123.066199 
L 608.36044 128.629742 
L 610.2 127.902202 
L 612.03956 127.474237 
L 613.879121 119.214515 
L 615.718681 128.501353 
L 617.558242 126.83229 
L 619.397802 133.123374 
L 621.237363 118.315788 
L 623.076923 110.869199 
L 624.916484 116.175964 
L 626.756044 122.937809 
L 628.595604 112.581059 
L 630.435165 113.608174 
L 632.274725 117.716637 
L 634.114286 115.747999 
L 635.953846 121.439932 
L 637.793407 122.081879 
L 639.632967 117.673841 
L 641.472527 117.374265 
L 643.312088 117.673841 
L 645.151648 113.650971 
L 648.830769 103.508203 
L 650.67033 112.623855 
L 652.50989 126.746697 
L 654.349451 112.623855 
L 656.189011 132.353037 
L 658.028571 123.194588 
L 659.868132 129.057707 
L 661.707692 126.917883 
L 663.547253 123.365774 
L 665.386813 124.992041 
L 667.226374 147.032233 
L 669.065934 157.945338 
L 670.905495 157.945338 
L 672.745055 155.805514 
L 674.584615 158.801268 
L 676.424176 160.598721 
L 678.263736 152.210609 
L 680.103297 151.0979 
L 681.942857 108.515392 
L 683.782418 142.966567 
L 685.621978 138.686918 
L 687.461538 145.534356 
L 689.301099 147.032233 
L 691.140659 164.664387 
L 692.98022 165.520317 
L 694.81978 170.827082 
L 696.659341 115.576813 
L 698.498901 177.845706 
L 700.338462 184.564755 
L 702.178022 111.297164 
L 704.017582 112.495466 
L 705.857143 112.409873 
L 707.696703 120.284427 
L 709.536264 119.342904 
L 711.375824 135.049216 
L 713.215385 145.405967 
L 715.054945 153.237724 
L 716.894505 159.058047 
L 718.734066 154.050858 
L 720.573626 153.665689 
L 722.413187 156.361868 
L 724.252747 159.785587 
L 726.092308 165.734299 
L 727.931868 175.791475 
L 729.771429 176.433422 
L 731.610989 178.830025 
L 733.450549 189.443555 
L 735.29011 184.821534 
L 737.12967 190.385078 
L 738.969231 187.43212 
L 740.808791 165.734299 
L 748.167033 165.734299 
L 751.846154 181.269425 
L 753.685714 181.868576 
L 755.525275 175.063934 
L 757.364835 179.001211 
L 759.204396 179.343583 
L 761.043956 179.814345 
L 762.883516 182.168152 
L 764.723077 187.218138 
L 766.562637 185.206703 
L 768.402198 177.160962 
L 770.241758 181.782983 
L 772.081319 181.654594 
L 773.920879 179.814345 
L 775.76044 178.53045 
L 777.6 175.663085 
L 777.6 175.663085 
" style="fill:none;stroke:#1f77b4;stroke-linecap:square;stroke-width:1.5;"/>
   </g>
   <g id="patch_3">
    <path d="M 108 384.48 
L 108 51.84 
" style="fill:none;stroke:#000000;stroke-linecap:square;stroke-linejoin:miter;stroke-width:0.8;"/>
   </g>
   <g id="patch_4">
    <path d="M 777.6 384.48 
L 777.6 51.84 
" style="fill:none;stroke:#000000;stroke-linecap:square;stroke-linejoin:miter;stroke-width:0.8;"/>
   </g>
   <g id="patch_5">
    <path d="M 108 384.48 
L 777.6 384.48 
" style="fill:none;stroke:#000000;stroke-linecap:square;stroke-linejoin:miter;stroke-width:0.8;"/>
   </g>
   <g id="patch_6">
    <path d="M 108 51.84 
L 777.6 51.84 
" style="fill:none;stroke:#000000;stroke-linecap:square;stroke-linejoin:miter;stroke-width:0.8;"/>
   </g>
   <g id="legend_1">
    <g id="patch_7">
     <path d="M 718.6 75.319687 
L 770.6 75.319687 
Q 772.6 75.319687 772.6 73.319687 
L 772.6 58.84 
Q 772.6 56.84 770.6 56.84 
L 718.6 56.84 
Q 716.6 56.84 716.6 58.84 
L 716.6 73.319687 
Q 716.6 75.319687 718.6 75.319687 
z
" style="fill:#ffffff;opacity:0.8;stroke:#cccccc;stroke-linejoin:miter;"/>
    </g>
    <g id="line2d_34">
     <path d="M 720.6 65.33375 
L 740.6 65.33375 
" style="fill:none;stroke:#1f77b4;stroke-linecap:square;stroke-width:1.5;"/>
    </g>
    <g id="line2d_35"/>
    <g id="text_18">
     <!-- 收盘 -->
     <defs>
      <path d="M 35.0625 41.546875 
Q 47.5625 63.234375 53.125 83.453125 
L 61.03125 81.203125 
Q 57.90625 72.171875 54.5 63.921875 
L 97.078125 63.921875 
L 97.078125 56.6875 
L 85.59375 56.6875 
Q 84.125 28.421875 71.09375 10.640625 
Q 81 1.859375 99.21875 -4.640625 
Q 96.1875 -8.453125 93.65625 -12.453125 
Q 76.265625 -5.03125 65.921875 4.6875 
Q 56.5 -4.59375 39.84375 -13.328125 
Q 37.796875 -10.109375 34.859375 -6.78125 
Q 51.515625 1.5625 60.59375 10.5 
Q 49.3125 24.609375 46 45.5625 
Q 43.265625 40.234375 40.328125 35.296875 
Q 38.484375 38.140625 35.0625 41.546875 
z
M 26.265625 82.671875 
L 33.6875 82.671875 
L 33.6875 -12.75 
L 26.265625 -12.75 
L 26.265625 17.390625 
Q 20.3125 14.0625 14.15625 10.015625 
Q 11.625 8.15625 9.1875 5.609375 
L 3.609375 12.15625 
Q 6.640625 15.375 6.640625 20.5625 
L 6.640625 69 
L 14.0625 69 
L 14.0625 19 
Q 19.875 22.078125 26.265625 25.53125 
z
M 77.875 56.6875 
L 51.90625 56.6875 
Q 53.328125 32.859375 65.671875 16.546875 
Q 76.8125 32.234375 77.875 56.6875 
z
" id="MicrosoftYaHei-6536"/>
      <path d="M 3.03125 51.515625 
L 20.0625 51.515625 
Q 20.515625 54.546875 20.40625 73.78125 
L 41.5 73.78125 
Q 43.265625 78.5625 44.53125 83.734375 
L 52.9375 81.6875 
Q 51.3125 77.828125 49.515625 73.78125 
L 83.890625 73.78125 
L 83.890625 51.515625 
L 97.265625 51.515625 
L 97.265625 45.0625 
L 83.890625 45.0625 
L 83.890625 37.84375 
Q 83.890625 26.703125 74.3125 26.609375 
Q 69.140625 26.515625 61.71875 26.8125 
Q 61.234375 30.328125 60.25 34.328125 
Q 66.40625 33.640625 71.578125 33.640625 
Q 76.46875 33.640625 76.46875 39.203125 
L 76.46875 45.0625 
L 26.65625 45.0625 
Q 24.03125 30.90625 9.28125 20.171875 
Q 6.546875 23.78125 3.90625 26.609375 
Q 15.828125 34.234375 18.890625 45.0625 
L 3.03125 45.0625 
z
M 1.765625 -2.984375 
L 14.453125 -2.984375 
L 14.453125 22.703125 
L 86.234375 22.703125 
L 86.234375 -2.984375 
L 98.34375 -2.984375 
L 98.34375 -9.421875 
L 1.765625 -9.421875 
z
M 76.46875 67.53125 
L 27.828125 67.53125 
Q 27.9375 57.859375 27.546875 51.515625 
L 76.46875 51.515625 
z
M 79 16.453125 
L 64.453125 16.453125 
L 64.453125 -2.984375 
L 79 -2.984375 
z
M 21.6875 -2.984375 
L 36.03125 -2.984375 
L 36.03125 16.453125 
L 21.6875 16.453125 
z
M 43.0625 -2.984375 
L 57.421875 -2.984375 
L 57.421875 16.453125 
L 43.0625 16.453125 
z
M 37.59375 38.53125 
L 41.609375 43.5 
Q 50.875 38.234375 57.328125 33.34375 
L 52.9375 27.59375 
Q 46.78125 32.671875 37.59375 38.53125 
z
M 41.40625 62.15625 
L 45.40625 67.140625 
Q 53.21875 62.75 59.96875 58.15625 
L 55.375 52.296875 
Q 48.640625 57.5625 41.40625 62.15625 
z
" id="MicrosoftYaHei-76d8"/>
     </defs>
     <g transform="translate(748.6 68.83375)scale(0.1 -0.1)">
      <use xlink:href="#MicrosoftYaHei-6536"/>
      <use x="100" xlink:href="#MicrosoftYaHei-76d8"/>
     </g>
    </g>
   </g>
  </g>
 </g>
 <defs>
  <clipPath id="p2bbc00a1ed">
   <rect height="332.64" width="669.6" x="108" y="51.84"/>
  </clipPath>
 </defs>
</svg>
