<?xml version="1.0" encoding="utf-8" standalone="no"?>
<!DOCTYPE svg PUBLIC "-//W3C//DTD SVG 1.1//EN"
  "http://www.w3.org/Graphics/SVG/1.1/DTD/svg11.dtd">
<!-- Created with matplotlib (http://matplotlib.org/) -->
<svg height="432pt" version="1.1" viewBox="0 0 864 432" width="864pt" xmlns="http://www.w3.org/2000/svg" xmlns:xlink="http://www.w3.org/1999/xlink">
 <defs>
  <style type="text/css">
*{stroke-linecap:butt;stroke-linejoin:round;}
  </style>
 </defs>
 <g id="figure_1">
  <g id="patch_1">
   <path d="M 0 432 
L 864 432 
L 864 0 
L 0 0 
z
" style="fill:#ffffff;"/>
  </g>
  <g id="axes_1">
   <g id="patch_2">
    <path d="M 108 384.48 
L 777.6 384.48 
L 777.6 51.84 
L 108 51.84 
z
" style="fill:#ffffff;"/>
   </g>
   <g id="matplotlib.axis_1">
    <g id="xtick_1">
     <g id="line2d_1">
      <path clip-path="url(#pab2673a9e5)" d="M 108 384.48 
L 108 51.84 
" style="fill:none;stroke:#b0b0b0;stroke-linecap:square;stroke-width:0.8;"/>
     </g>
     <g id="line2d_2">
      <defs>
       <path d="M 0 0 
L 0 3.5 
" id="mfad7a08261" style="stroke:#000000;stroke-width:0.8;"/>
      </defs>
      <g>
       <use style="stroke:#000000;stroke-width:0.8;" x="108" xlink:href="#mfad7a08261" y="384.48"/>
      </g>
     </g>
     <g id="text_1">
      <!-- 2018年12月23日 -->
      <defs>
       <path d="M 51.171875 0 
L 5.171875 0 
L 5.171875 8.296875 
L 27.15625 30.21875 
Q 36.234375 39.3125 39.3125 44.609375 
Q 42.390625 49.90625 42.390625 55.5625 
Q 42.390625 62.015625 38.765625 65.453125 
Q 35.15625 68.890625 28.328125 68.890625 
Q 18.21875 68.890625 9.03125 60.296875 
L 9.03125 70.015625 
Q 17.96875 76.90625 29.828125 76.90625 
Q 40.046875 76.90625 45.953125 71.390625 
Q 51.859375 65.875 51.859375 56.546875 
Q 51.859375 49.515625 48.0625 42.75 
Q 44.28125 35.984375 33.734375 25.53125 
L 16.5 8.6875 
L 16.5 8.5 
L 51.171875 8.5 
z
" id="MicrosoftYaHei-32"/>
       <path d="M 4.4375 36.328125 
Q 4.4375 56.34375 11.078125 66.625 
Q 17.71875 76.90625 30.328125 76.90625 
Q 54.34375 76.90625 54.34375 38.140625 
Q 54.34375 19 47.578125 8.859375 
Q 40.828125 -1.265625 28.609375 -1.265625 
Q 17.09375 -1.265625 10.765625 8.34375 
Q 4.4375 17.96875 4.4375 36.328125 
z
M 14.203125 36.765625 
Q 14.203125 6.640625 29.5 6.640625 
Q 44.53125 6.640625 44.53125 37.25 
Q 44.53125 68.953125 29.78125 68.953125 
Q 14.203125 68.953125 14.203125 36.765625 
z
" id="MicrosoftYaHei-30"/>
       <path d="M 52.59375 0 
L 9.234375 0 
L 9.234375 8.25 
L 26.171875 8.25 
L 26.171875 65.671875 
L 8.796875 60.640625 
L 8.796875 69.4375 
L 35.6875 77.25 
L 35.6875 8.25 
L 52.59375 8.25 
z
" id="MicrosoftYaHei-31"/>
       <path d="M 21.390625 39.796875 
Q 7.859375 46.09375 7.859375 58.0625 
Q 7.859375 66.40625 14.203125 71.65625 
Q 20.5625 76.90625 30.421875 76.90625 
Q 39.453125 76.90625 45.3125 71.96875 
Q 51.171875 67.046875 51.171875 59.234375 
Q 51.171875 46.625 37.0625 39.84375 
L 37.0625 39.65625 
Q 53.609375 33.6875 53.609375 19.34375 
Q 53.609375 9.90625 46.796875 4.3125 
Q 39.984375 -1.265625 27.78125 -1.265625 
Q 17.78125 -1.265625 11.46875 4.25 
Q 5.171875 9.765625 5.171875 18.5625 
Q 5.171875 33.015625 21.390625 39.59375 
z
M 41.5 58.109375 
Q 41.5 63.1875 38.328125 66.109375 
Q 35.15625 69.046875 29.734375 69.046875 
Q 24.65625 69.046875 21.09375 65.984375 
Q 17.53125 62.9375 17.53125 58.203125 
Q 17.53125 48.734375 29.390625 43.796875 
Q 41.5 48.828125 41.5 58.109375 
z
M 28.8125 35.25 
Q 14.796875 29.59375 14.796875 19.046875 
Q 14.796875 13.578125 18.890625 10.0625 
Q 23 6.546875 29.59375 6.546875 
Q 35.984375 6.546875 39.984375 10.03125 
Q 44 13.53125 44 18.75 
Q 44 29.734375 28.8125 35.25 
z
" id="MicrosoftYaHei-38"/>
       <path d="M 1.859375 19.96875 
L 17.578125 19.96875 
L 17.578125 47.90625 
L 52.15625 47.90625 
L 52.15625 65.28125 
L 23.4375 65.28125 
Q 16.84375 53.421875 8.6875 43.40625 
Q 6.15625 46.140625 2.640625 48.875 
Q 16.5 64.5 23.4375 83.9375 
L 31.453125 81.6875 
Q 29.390625 76.859375 27.15625 72.3125 
L 94.34375 72.3125 
L 94.34375 65.28125 
L 60.0625 65.28125 
L 60.0625 47.90625 
L 92.671875 47.90625 
L 92.671875 41.0625 
L 60.0625 41.0625 
L 60.0625 19.96875 
L 98.734375 19.96875 
L 98.734375 12.9375 
L 60.0625 12.9375 
L 60.0625 -13.421875 
L 52.15625 -13.421875 
L 52.15625 12.9375 
L 1.859375 12.9375 
z
M 25.296875 19.96875 
L 52.15625 19.96875 
L 52.15625 41.0625 
L 25.296875 41.0625 
z
" id="MicrosoftYaHei-5e74"/>
       <path d="M 25.046875 20.0625 
Q 22.859375 1.21875 10.359375 -14.015625 
Q 7.234375 -10.984375 3.609375 -8.15625 
Q 13.09375 2.09375 16.3125 16.265625 
Q 18.5625 26.703125 18.5625 45.171875 
L 18.5625 78.953125 
L 83.796875 78.953125 
L 83.796875 2.78125 
Q 83.796875 -11.671875 70.015625 -11.671875 
Q 64.265625 -11.671875 55.171875 -11.46875 
Q 54.6875 -7.953125 53.71875 -3.265625 
Q 62.703125 -3.859375 67.875 -3.859375 
Q 75.78125 -3.859375 75.78125 3.859375 
L 75.78125 20.0625 
z
M 25.828125 27.203125 
L 75.78125 27.203125 
L 75.78125 45.953125 
L 26.5625 45.953125 
Q 26.5625 36.1875 25.828125 27.203125 
z
M 26.5625 71.625 
L 26.5625 53.078125 
L 75.78125 53.078125 
L 75.78125 71.625 
z
" id="MicrosoftYaHei-6708"/>
       <path d="M 6.984375 12.640625 
Q 14.75 6.640625 24.515625 6.640625 
Q 32.328125 6.640625 36.890625 10.46875 
Q 41.453125 14.3125 41.453125 20.75 
Q 41.453125 35.109375 20.90625 35.109375 
L 14.59375 35.109375 
L 14.59375 43.015625 
L 20.609375 43.015625 
Q 38.8125 43.015625 38.8125 56.5 
Q 38.8125 68.953125 24.90625 68.953125 
Q 16.9375 68.953125 9.90625 63.578125 
L 9.90625 72.609375 
Q 17.328125 76.90625 27.25 76.90625 
Q 36.921875 76.90625 42.78125 71.84375 
Q 48.640625 66.796875 48.640625 58.734375 
Q 48.640625 43.890625 33.5 39.65625 
L 33.5 39.453125 
Q 41.703125 38.578125 46.453125 33.671875 
Q 51.21875 28.765625 51.21875 21.4375 
Q 51.21875 11.234375 43.875 4.984375 
Q 36.53125 -1.265625 24.3125 -1.265625 
Q 13.578125 -1.265625 6.984375 2.734375 
z
" id="MicrosoftYaHei-33"/>
       <path d="M 15.234375 76.703125 
L 84.859375 76.703125 
L 84.859375 -11.96875 
L 76.5625 -11.96875 
L 76.5625 -5.03125 
L 23.53125 -5.03125 
L 23.53125 -11.96875 
L 15.234375 -11.96875 
z
M 23.53125 32.859375 
L 23.53125 2.09375 
L 76.5625 2.09375 
L 76.5625 32.859375 
z
M 23.53125 69.390625 
L 23.53125 40.1875 
L 76.5625 40.1875 
L 76.5625 69.390625 
z
" id="MicrosoftYaHei-65e5"/>
      </defs>
      <g transform="translate(69.54375 399.47375)scale(0.1 -0.1)">
       <use xlink:href="#MicrosoftYaHei-32"/>
       <use x="58.642578" xlink:href="#MicrosoftYaHei-30"/>
       <use x="117.285156" xlink:href="#MicrosoftYaHei-31"/>
       <use x="175.927734" xlink:href="#MicrosoftYaHei-38"/>
       <use x="234.570312" xlink:href="#MicrosoftYaHei-5e74"/>
       <use x="334.570312" xlink:href="#MicrosoftYaHei-31"/>
       <use x="393.212891" xlink:href="#MicrosoftYaHei-32"/>
       <use x="451.855469" xlink:href="#MicrosoftYaHei-6708"/>
       <use x="551.855469" xlink:href="#MicrosoftYaHei-32"/>
       <use x="610.498047" xlink:href="#MicrosoftYaHei-33"/>
       <use x="669.140625" xlink:href="#MicrosoftYaHei-65e5"/>
      </g>
     </g>
    </g>
    <g id="xtick_2">
     <g id="line2d_3">
      <path clip-path="url(#pab2673a9e5)" d="M 199.978022 384.48 
L 199.978022 51.84 
" style="fill:none;stroke:#b0b0b0;stroke-linecap:square;stroke-width:0.8;"/>
     </g>
     <g id="line2d_4">
      <g>
       <use style="stroke:#000000;stroke-width:0.8;" x="199.978022" xlink:href="#mfad7a08261" y="384.48"/>
      </g>
     </g>
     <g id="text_2">
      <!-- 2018年2月27日 -->
      <defs>
       <path d="M 53.765625 72.3125 
L 24.171875 0 
L 14.265625 0 
L 42.390625 67.1875 
L 4.59375 67.1875 
L 4.59375 75.640625 
L 53.765625 75.640625 
z
" id="MicrosoftYaHei-37"/>
      </defs>
      <g transform="translate(164.453803 399.47375)scale(0.1 -0.1)">
       <use xlink:href="#MicrosoftYaHei-32"/>
       <use x="58.642578" xlink:href="#MicrosoftYaHei-30"/>
       <use x="117.285156" xlink:href="#MicrosoftYaHei-31"/>
       <use x="175.927734" xlink:href="#MicrosoftYaHei-38"/>
       <use x="234.570312" xlink:href="#MicrosoftYaHei-5e74"/>
       <use x="334.570312" xlink:href="#MicrosoftYaHei-32"/>
       <use x="393.212891" xlink:href="#MicrosoftYaHei-6708"/>
       <use x="493.212891" xlink:href="#MicrosoftYaHei-32"/>
       <use x="551.855469" xlink:href="#MicrosoftYaHei-37"/>
       <use x="610.498047" xlink:href="#MicrosoftYaHei-65e5"/>
      </g>
     </g>
    </g>
    <g id="xtick_3">
     <g id="line2d_5">
      <path clip-path="url(#pab2673a9e5)" d="M 291.956044 384.48 
L 291.956044 51.84 
" style="fill:none;stroke:#b0b0b0;stroke-linecap:square;stroke-width:0.8;"/>
     </g>
     <g id="line2d_6">
      <g>
       <use style="stroke:#000000;stroke-width:0.8;" x="291.956044" xlink:href="#mfad7a08261" y="384.48"/>
      </g>
     </g>
     <g id="text_3">
      <!-- 2018年4月9日 -->
      <defs>
       <path d="M 55.078125 19.625 
L 45.40625 19.625 
L 45.40625 0 
L 36.140625 0 
L 36.140625 19.625 
L 0.875 19.625 
L 0.875 25.828125 
L 34.328125 75.640625 
L 45.40625 75.640625 
L 45.40625 27.203125 
L 55.078125 27.203125 
z
M 36.140625 27.203125 
L 36.140625 58.890625 
Q 36.140625 62.25 36.328125 66.65625 
L 36.140625 66.65625 
Q 35.453125 64.796875 33.25 60.84375 
L 10.75 27.203125 
z
" id="MicrosoftYaHei-34"/>
       <path d="M 9.03125 10.25 
Q 15.28125 6.640625 22.515625 6.640625 
Q 32.671875 6.640625 38.25 14.640625 
Q 43.84375 22.65625 43.84375 37.40625 
Q 43.75 37.3125 43.65625 37.40625 
Q 38.671875 27.9375 26.90625 27.9375 
Q 17.390625 27.9375 11.140625 34.46875 
Q 4.890625 41.015625 4.890625 51.46875 
Q 4.890625 62.59375 11.71875 69.75 
Q 18.5625 76.90625 29.4375 76.90625 
Q 40.71875 76.90625 47.0625 68.046875 
Q 53.421875 59.1875 53.421875 42.234375 
Q 53.421875 21.296875 45.21875 10.015625 
Q 37.015625 -1.265625 22.515625 -1.265625 
Q 14.546875 -1.265625 9.03125 1.3125 
z
M 14.546875 52.6875 
Q 14.546875 45.0625 18.453125 40.59375 
Q 22.359375 36.140625 29.25 36.140625 
Q 35.203125 36.140625 39.25 40.203125 
Q 43.3125 44.28125 43.3125 50.09375 
Q 43.3125 58.25 39.28125 63.59375 
Q 35.25 68.953125 28.65625 68.953125 
Q 22.5625 68.953125 18.546875 64.3125 
Q 14.546875 59.671875 14.546875 52.6875 
z
" id="MicrosoftYaHei-39"/>
      </defs>
      <g transform="translate(259.363856 399.47375)scale(0.1 -0.1)">
       <use xlink:href="#MicrosoftYaHei-32"/>
       <use x="58.642578" xlink:href="#MicrosoftYaHei-30"/>
       <use x="117.285156" xlink:href="#MicrosoftYaHei-31"/>
       <use x="175.927734" xlink:href="#MicrosoftYaHei-38"/>
       <use x="234.570312" xlink:href="#MicrosoftYaHei-5e74"/>
       <use x="334.570312" xlink:href="#MicrosoftYaHei-34"/>
       <use x="393.212891" xlink:href="#MicrosoftYaHei-6708"/>
       <use x="493.212891" xlink:href="#MicrosoftYaHei-39"/>
       <use x="551.855469" xlink:href="#MicrosoftYaHei-65e5"/>
      </g>
     </g>
    </g>
    <g id="xtick_4">
     <g id="line2d_7">
      <path clip-path="url(#pab2673a9e5)" d="M 383.934066 384.48 
L 383.934066 51.84 
" style="fill:none;stroke:#b0b0b0;stroke-linecap:square;stroke-width:0.8;"/>
     </g>
     <g id="line2d_8">
      <g>
       <use style="stroke:#000000;stroke-width:0.8;" x="383.934066" xlink:href="#mfad7a08261" y="384.48"/>
      </g>
     </g>
     <g id="text_4">
      <!-- 2018年7月10日 -->
      <g transform="translate(348.409847 399.47375)scale(0.1 -0.1)">
       <use xlink:href="#MicrosoftYaHei-32"/>
       <use x="58.642578" xlink:href="#MicrosoftYaHei-30"/>
       <use x="117.285156" xlink:href="#MicrosoftYaHei-31"/>
       <use x="175.927734" xlink:href="#MicrosoftYaHei-38"/>
       <use x="234.570312" xlink:href="#MicrosoftYaHei-5e74"/>
       <use x="334.570312" xlink:href="#MicrosoftYaHei-37"/>
       <use x="393.212891" xlink:href="#MicrosoftYaHei-6708"/>
       <use x="493.212891" xlink:href="#MicrosoftYaHei-31"/>
       <use x="551.855469" xlink:href="#MicrosoftYaHei-30"/>
       <use x="610.498047" xlink:href="#MicrosoftYaHei-65e5"/>
      </g>
     </g>
    </g>
    <g id="xtick_5">
     <g id="line2d_9">
      <path clip-path="url(#pab2673a9e5)" d="M 475.912088 384.48 
L 475.912088 51.84 
" style="fill:none;stroke:#b0b0b0;stroke-linecap:square;stroke-width:0.8;"/>
     </g>
     <g id="line2d_10">
      <g>
       <use style="stroke:#000000;stroke-width:0.8;" x="475.912088" xlink:href="#mfad7a08261" y="384.48"/>
      </g>
     </g>
     <g id="text_5">
      <!-- 2018年8月6日 -->
      <defs>
       <path d="M 49.703125 65.921875 
Q 43.796875 68.953125 37.359375 68.953125 
Q 27.546875 68.953125 21.578125 60.40625 
Q 15.625 51.859375 15.53125 37.0625 
L 15.765625 37.0625 
Q 21.140625 47.46875 32.90625 47.46875 
Q 42.71875 47.46875 48.578125 41.0625 
Q 54.4375 34.671875 54.4375 24.078125 
Q 54.4375 12.984375 47.671875 5.859375 
Q 40.921875 -1.265625 30.421875 -1.265625 
Q 18.890625 -1.265625 12.328125 7.734375 
Q 5.765625 16.75 5.765625 33.296875 
Q 5.765625 53.328125 14.375 65.109375 
Q 23 76.90625 37.0625 76.90625 
Q 45.125 76.90625 49.703125 74.703125 
z
M 16.109375 24.75 
Q 16.109375 17.28125 20.09375 11.953125 
Q 24.078125 6.640625 30.671875 6.640625 
Q 36.921875 6.640625 40.828125 11.234375 
Q 44.734375 15.828125 44.734375 23.046875 
Q 44.734375 30.859375 41.046875 35.203125 
Q 37.359375 39.546875 30.5625 39.546875 
Q 24.125 39.546875 20.109375 35.15625 
Q 16.109375 30.765625 16.109375 24.75 
z
" id="MicrosoftYaHei-36"/>
      </defs>
      <g transform="translate(443.3199 399.47375)scale(0.1 -0.1)">
       <use xlink:href="#MicrosoftYaHei-32"/>
       <use x="58.642578" xlink:href="#MicrosoftYaHei-30"/>
       <use x="117.285156" xlink:href="#MicrosoftYaHei-31"/>
       <use x="175.927734" xlink:href="#MicrosoftYaHei-38"/>
       <use x="234.570312" xlink:href="#MicrosoftYaHei-5e74"/>
       <use x="334.570312" xlink:href="#MicrosoftYaHei-38"/>
       <use x="393.212891" xlink:href="#MicrosoftYaHei-6708"/>
       <use x="493.212891" xlink:href="#MicrosoftYaHei-36"/>
       <use x="551.855469" xlink:href="#MicrosoftYaHei-65e5"/>
      </g>
     </g>
    </g>
    <g id="xtick_6">
     <g id="line2d_11">
      <path clip-path="url(#pab2673a9e5)" d="M 567.89011 384.48 
L 567.89011 51.84 
" style="fill:none;stroke:#b0b0b0;stroke-linecap:square;stroke-width:0.8;"/>
     </g>
     <g id="line2d_12">
      <g>
       <use style="stroke:#000000;stroke-width:0.8;" x="567.89011" xlink:href="#mfad7a08261" y="384.48"/>
      </g>
     </g>
     <g id="text_6">
      <!-- 2019年1月6日 -->
      <g transform="translate(535.297922 399.47375)scale(0.1 -0.1)">
       <use xlink:href="#MicrosoftYaHei-32"/>
       <use x="58.642578" xlink:href="#MicrosoftYaHei-30"/>
       <use x="117.285156" xlink:href="#MicrosoftYaHei-31"/>
       <use x="175.927734" xlink:href="#MicrosoftYaHei-39"/>
       <use x="234.570312" xlink:href="#MicrosoftYaHei-5e74"/>
       <use x="334.570312" xlink:href="#MicrosoftYaHei-31"/>
       <use x="393.212891" xlink:href="#MicrosoftYaHei-6708"/>
       <use x="493.212891" xlink:href="#MicrosoftYaHei-36"/>
       <use x="551.855469" xlink:href="#MicrosoftYaHei-65e5"/>
      </g>
     </g>
    </g>
    <g id="xtick_7">
     <g id="line2d_13">
      <path clip-path="url(#pab2673a9e5)" d="M 659.868132 384.48 
L 659.868132 51.84 
" style="fill:none;stroke:#b0b0b0;stroke-linecap:square;stroke-width:0.8;"/>
     </g>
     <g id="line2d_14">
      <g>
       <use style="stroke:#000000;stroke-width:0.8;" x="659.868132" xlink:href="#mfad7a08261" y="384.48"/>
      </g>
     </g>
     <g id="text_7">
      <!-- 2019年4月17日 -->
      <g transform="translate(624.343913 399.47375)scale(0.1 -0.1)">
       <use xlink:href="#MicrosoftYaHei-32"/>
       <use x="58.642578" xlink:href="#MicrosoftYaHei-30"/>
       <use x="117.285156" xlink:href="#MicrosoftYaHei-31"/>
       <use x="175.927734" xlink:href="#MicrosoftYaHei-39"/>
       <use x="234.570312" xlink:href="#MicrosoftYaHei-5e74"/>
       <use x="334.570312" xlink:href="#MicrosoftYaHei-34"/>
       <use x="393.212891" xlink:href="#MicrosoftYaHei-6708"/>
       <use x="493.212891" xlink:href="#MicrosoftYaHei-31"/>
       <use x="551.855469" xlink:href="#MicrosoftYaHei-37"/>
       <use x="610.498047" xlink:href="#MicrosoftYaHei-65e5"/>
      </g>
     </g>
    </g>
    <g id="xtick_8">
     <g id="line2d_15">
      <path clip-path="url(#pab2673a9e5)" d="M 751.846154 384.48 
L 751.846154 51.84 
" style="fill:none;stroke:#b0b0b0;stroke-linecap:square;stroke-width:0.8;"/>
     </g>
     <g id="line2d_16">
      <g>
       <use style="stroke:#000000;stroke-width:0.8;" x="751.846154" xlink:href="#mfad7a08261" y="384.48"/>
      </g>
     </g>
     <g id="text_8">
      <!-- 2019年6月24日 -->
      <g transform="translate(716.321935 399.47375)scale(0.1 -0.1)">
       <use xlink:href="#MicrosoftYaHei-32"/>
       <use x="58.642578" xlink:href="#MicrosoftYaHei-30"/>
       <use x="117.285156" xlink:href="#MicrosoftYaHei-31"/>
       <use x="175.927734" xlink:href="#MicrosoftYaHei-39"/>
       <use x="234.570312" xlink:href="#MicrosoftYaHei-5e74"/>
       <use x="334.570312" xlink:href="#MicrosoftYaHei-36"/>
       <use x="393.212891" xlink:href="#MicrosoftYaHei-6708"/>
       <use x="493.212891" xlink:href="#MicrosoftYaHei-32"/>
       <use x="551.855469" xlink:href="#MicrosoftYaHei-34"/>
       <use x="610.498047" xlink:href="#MicrosoftYaHei-65e5"/>
      </g>
     </g>
    </g>
    <g id="text_9">
     <!-- 日期 -->
     <defs>
      <path d="M 58.890625 79.15625 
L 93.453125 79.15625 
L 93.453125 -0.046875 
Q 93.453125 -11.578125 82.515625 -11.578125 
Q 77.046875 -11.578125 71.78125 -11.28125 
Q 71.390625 -8.0625 70.609375 -3.765625 
Q 77.734375 -4.4375 80.859375 -4.4375 
Q 86.234375 -4.4375 86.234375 0.921875 
L 86.234375 21.4375 
L 65.328125 21.4375 
Q 64.265625 0.046875 52.34375 -14.109375 
Q 49.703125 -11.375 46.484375 -8.640625 
Q 54.390625 0.4375 56.546875 10.203125 
Q 58.890625 19.578125 58.890625 42.828125 
z
M 1.953125 17.828125 
L 11.140625 17.828125 
L 11.140625 62.9375 
L 3.125 62.9375 
L 3.125 69.578125 
L 11.140625 69.578125 
L 11.140625 81.5 
L 18.359375 81.5 
L 18.359375 69.578125 
L 38.671875 69.578125 
L 38.671875 81.890625 
L 45.90625 81.890625 
L 45.90625 69.578125 
L 53.8125 69.578125 
L 53.8125 62.9375 
L 45.90625 62.9375 
L 45.90625 17.828125 
L 53.71875 17.828125 
L 53.71875 11.1875 
L 1.953125 11.1875 
z
M 65.765625 27.875 
L 86.234375 27.875 
L 86.234375 47.015625 
L 66.109375 47.015625 
Q 66.21875 34.421875 65.765625 27.875 
z
M 86.234375 72.515625 
L 66.109375 72.515625 
L 66.109375 53.46875 
L 86.234375 53.46875 
z
M 18.359375 17.828125 
L 38.671875 17.828125 
L 38.671875 28.765625 
L 18.359375 28.765625 
z
M 18.359375 35.015625 
L 38.671875 35.015625 
L 38.671875 45.84375 
L 18.359375 45.84375 
z
M 18.359375 52.09375 
L 38.671875 52.09375 
L 38.671875 62.9375 
L 18.359375 62.9375 
z
M 18.359375 9.328125 
L 24.3125 4.640625 
Q 14.453125 -6 6.34375 -13.234375 
Q 4.296875 -10.890625 1.171875 -8.0625 
Q 10.453125 -0.140625 18.359375 9.328125 
z
M 31.15625 4.734375 
L 35.84375 9.515625 
Q 42.671875 4.4375 48.734375 -0.734375 
L 43.5625 -6.296875 
Q 38.09375 -0.828125 31.15625 4.734375 
z
" id="MicrosoftYaHei-671f"/>
     </defs>
     <g transform="translate(432.8 413.953438)scale(0.1 -0.1)">
      <use xlink:href="#MicrosoftYaHei-65e5"/>
      <use x="100" xlink:href="#MicrosoftYaHei-671f"/>
     </g>
    </g>
   </g>
   <g id="matplotlib.axis_2">
    <g id="ytick_1">
     <g id="line2d_17">
      <path clip-path="url(#pab2673a9e5)" d="M 108 355.773913 
L 777.6 355.773913 
" style="fill:none;stroke:#b0b0b0;stroke-linecap:square;stroke-width:0.8;"/>
     </g>
     <g id="line2d_18">
      <defs>
       <path d="M 0 0 
L -3.5 0 
" id="m25932e262e" style="stroke:#000000;stroke-width:0.8;"/>
      </defs>
      <g>
       <use style="stroke:#000000;stroke-width:0.8;" x="108" xlink:href="#m25932e262e" y="355.773913"/>
      </g>
     </g>
     <g id="text_10">
      <!-- 6.3 -->
      <defs>
       <path d="M 5.8125 5.03125 
Q 5.8125 7.671875 7.609375 9.46875 
Q 9.421875 11.28125 12.109375 11.28125 
Q 14.84375 11.28125 16.640625 9.453125 
Q 18.453125 7.625 18.453125 5.03125 
Q 18.453125 2.484375 16.640625 0.65625 
Q 14.84375 -1.171875 12.0625 -1.171875 
Q 9.375 -1.171875 7.59375 0.65625 
Q 5.8125 2.484375 5.8125 5.03125 
z
" id="MicrosoftYaHei-2e"/>
      </defs>
      <g transform="translate(86.864063 359.770788)scale(0.1 -0.1)">
       <use xlink:href="#MicrosoftYaHei-36"/>
       <use x="58.642578" xlink:href="#MicrosoftYaHei-2e"/>
       <use x="82.714844" xlink:href="#MicrosoftYaHei-33"/>
      </g>
     </g>
    </g>
    <g id="ytick_2">
     <g id="line2d_19">
      <path clip-path="url(#pab2673a9e5)" d="M 108 311.947826 
L 777.6 311.947826 
" style="fill:none;stroke:#b0b0b0;stroke-linecap:square;stroke-width:0.8;"/>
     </g>
     <g id="line2d_20">
      <g>
       <use style="stroke:#000000;stroke-width:0.8;" x="108" xlink:href="#m25932e262e" y="311.947826"/>
      </g>
     </g>
     <g id="text_11">
      <!-- 6.4 -->
      <g transform="translate(86.864063 315.944701)scale(0.1 -0.1)">
       <use xlink:href="#MicrosoftYaHei-36"/>
       <use x="58.642578" xlink:href="#MicrosoftYaHei-2e"/>
       <use x="82.714844" xlink:href="#MicrosoftYaHei-34"/>
      </g>
     </g>
    </g>
    <g id="ytick_3">
     <g id="line2d_21">
      <path clip-path="url(#pab2673a9e5)" d="M 108 268.121739 
L 777.6 268.121739 
" style="fill:none;stroke:#b0b0b0;stroke-linecap:square;stroke-width:0.8;"/>
     </g>
     <g id="line2d_22">
      <g>
       <use style="stroke:#000000;stroke-width:0.8;" x="108" xlink:href="#m25932e262e" y="268.121739"/>
      </g>
     </g>
     <g id="text_12">
      <!-- 6.5 -->
      <defs>
       <path d="M 8.640625 11.625 
Q 16.265625 6.640625 24.515625 6.640625 
Q 32.328125 6.640625 37.109375 11 
Q 41.890625 15.375 41.890625 22.609375 
Q 41.890625 29.890625 37.03125 33.890625 
Q 32.171875 37.890625 22.953125 37.890625 
Q 18.5 37.890625 10.984375 37.203125 
L 10.984375 75.640625 
L 48.1875 75.640625 
L 48.1875 67.1875 
L 19.875 67.1875 
L 19.875 45.796875 
Q 24.125 46.046875 26.265625 46.046875 
Q 38.234375 46.046875 44.921875 39.984375 
Q 51.609375 33.9375 51.609375 23.296875 
Q 51.609375 12.3125 44.421875 5.515625 
Q 37.25 -1.265625 24.609375 -1.265625 
Q 14.015625 -1.265625 8.640625 1.859375 
z
" id="MicrosoftYaHei-35"/>
      </defs>
      <g transform="translate(86.864063 272.118614)scale(0.1 -0.1)">
       <use xlink:href="#MicrosoftYaHei-36"/>
       <use x="58.642578" xlink:href="#MicrosoftYaHei-2e"/>
       <use x="82.714844" xlink:href="#MicrosoftYaHei-35"/>
      </g>
     </g>
    </g>
    <g id="ytick_4">
     <g id="line2d_23">
      <path clip-path="url(#pab2673a9e5)" d="M 108 224.295652 
L 777.6 224.295652 
" style="fill:none;stroke:#b0b0b0;stroke-linecap:square;stroke-width:0.8;"/>
     </g>
     <g id="line2d_24">
      <g>
       <use style="stroke:#000000;stroke-width:0.8;" x="108" xlink:href="#m25932e262e" y="224.295652"/>
      </g>
     </g>
     <g id="text_13">
      <!-- 6.6 -->
      <g transform="translate(86.864063 228.292527)scale(0.1 -0.1)">
       <use xlink:href="#MicrosoftYaHei-36"/>
       <use x="58.642578" xlink:href="#MicrosoftYaHei-2e"/>
       <use x="82.714844" xlink:href="#MicrosoftYaHei-36"/>
      </g>
     </g>
    </g>
    <g id="ytick_5">
     <g id="line2d_25">
      <path clip-path="url(#pab2673a9e5)" d="M 108 180.469565 
L 777.6 180.469565 
" style="fill:none;stroke:#b0b0b0;stroke-linecap:square;stroke-width:0.8;"/>
     </g>
     <g id="line2d_26">
      <g>
       <use style="stroke:#000000;stroke-width:0.8;" x="108" xlink:href="#m25932e262e" y="180.469565"/>
      </g>
     </g>
     <g id="text_14">
      <!-- 6.7 -->
      <g transform="translate(86.864063 184.46644)scale(0.1 -0.1)">
       <use xlink:href="#MicrosoftYaHei-36"/>
       <use x="58.642578" xlink:href="#MicrosoftYaHei-2e"/>
       <use x="82.714844" xlink:href="#MicrosoftYaHei-37"/>
      </g>
     </g>
    </g>
    <g id="ytick_6">
     <g id="line2d_27">
      <path clip-path="url(#pab2673a9e5)" d="M 108 136.643478 
L 777.6 136.643478 
" style="fill:none;stroke:#b0b0b0;stroke-linecap:square;stroke-width:0.8;"/>
     </g>
     <g id="line2d_28">
      <g>
       <use style="stroke:#000000;stroke-width:0.8;" x="108" xlink:href="#m25932e262e" y="136.643478"/>
      </g>
     </g>
     <g id="text_15">
      <!-- 6.8 -->
      <g transform="translate(86.864063 140.640353)scale(0.1 -0.1)">
       <use xlink:href="#MicrosoftYaHei-36"/>
       <use x="58.642578" xlink:href="#MicrosoftYaHei-2e"/>
       <use x="82.714844" xlink:href="#MicrosoftYaHei-38"/>
      </g>
     </g>
    </g>
    <g id="ytick_7">
     <g id="line2d_29">
      <path clip-path="url(#pab2673a9e5)" d="M 108 92.817391 
L 777.6 92.817391 
" style="fill:none;stroke:#b0b0b0;stroke-linecap:square;stroke-width:0.8;"/>
     </g>
     <g id="line2d_30">
      <g>
       <use style="stroke:#000000;stroke-width:0.8;" x="108" xlink:href="#m25932e262e" y="92.817391"/>
      </g>
     </g>
     <g id="text_16">
      <!-- 6.9 -->
      <g transform="translate(86.864063 96.814266)scale(0.1 -0.1)">
       <use xlink:href="#MicrosoftYaHei-36"/>
       <use x="58.642578" xlink:href="#MicrosoftYaHei-2e"/>
       <use x="82.714844" xlink:href="#MicrosoftYaHei-39"/>
      </g>
     </g>
    </g>
   </g>
   <g id="line2d_31">
    <path clip-path="url(#pab2673a9e5)" d="M 108 90.012522 
L 109.83956 93.211826 
L 111.679121 98.42713 
L 113.518681 99.216 
L 115.358242 107.586783 
L 117.197802 102.24 
L 119.037363 66.96 
L 120.876923 102.371478 
L 122.716484 102.24 
L 124.556044 100.267826 
L 126.395604 120.296348 
L 128.235165 111.794087 
L 130.074725 100.399304 
L 131.914286 103.46713 
L 133.753846 103.46713 
L 135.593407 264.571826 
L 137.432967 269.962435 
L 139.272527 285.213913 
L 141.112088 295.688348 
L 142.951648 292.664348 
L 144.791209 296.915478 
L 146.630769 303.05113 
L 148.47033 310.194783 
L 150.30989 265.229217 
L 152.149451 309.66887 
L 153.989011 309.888 
L 155.828571 325.095652 
L 157.668132 345.343304 
L 159.507692 346.96487 
L 161.347253 339.382957 
L 163.186813 271.014261 
L 165.026374 345.299478 
L 166.865934 360.682435 
L 168.705495 266.806957 
L 170.545055 271.014261 
L 172.384615 273.074087 
L 174.224176 268.253217 
L 176.063736 255.105391 
L 177.903297 343.721739 
L 179.742857 337.805217 
L 181.582418 334.649739 
L 187.101099 334.649739 
L 188.940659 355.993043 
L 190.78022 334.649739 
L 192.61978 334.649739 
L 194.459341 333.817043 
L 196.298901 339.426783 
L 198.138462 348.761739 
L 199.978022 348.323478 
L 201.817582 342.144 
L 203.657143 355.160348 
L 205.496703 360.156522 
L 207.336264 363.136696 
L 209.175824 369.184696 
L 211.015385 343.94087 
L 212.854945 357.132522 
L 214.694505 342.626087 
L 216.534066 346.307478 
L 218.373626 347.885217 
L 220.213187 346.088348 
L 222.052747 340.434783 
L 223.892308 341.661913 
L 225.731868 330.26713 
L 227.571429 340.829217 
L 229.410989 345.606261 
L 231.250549 340.434783 
L 233.09011 348.761739 
L 234.92967 367.431652 
L 236.769231 363.180522 
L 238.608791 356.694261 
L 240.448352 360.244174 
L 242.287912 335.87687 
L 244.127473 366.598957 
L 245.967033 334.08 
L 247.806593 351.478957 
L 249.646154 344.598261 
L 251.485714 337.279304 
L 253.325275 341.486609 
L 255.164835 363.136696 
L 257.004396 369.36 
L 258.843956 359.49913 
L 260.683516 366.730435 
L 262.523077 366.073043 
L 264.362637 363.443478 
L 266.202198 366.993391 
L 268.041758 364.933565 
L 269.881319 357.307826 
L 271.720879 348.279652 
L 273.56044 352.925217 
L 275.4 344.116174 
L 277.23956 339.777391 
L 279.079121 341.223652 
L 280.918681 364.32 
L 282.758242 341.223652 
L 284.597802 360.200348 
L 286.437363 353.494957 
L 290.116484 353.494957 
L 291.956044 352.706087 
L 293.795604 334.211478 
L 295.635165 340.829217 
L 297.474725 338.594087 
L 299.314286 321.721043 
L 301.153846 324.438261 
L 302.993407 326.366609 
L 304.832967 320.713043 
L 306.672527 341.223652 
L 308.512088 319.17913 
L 310.351648 326.191304 
L 312.191209 316.987826 
L 314.030769 321.458087 
L 315.87033 315.541565 
L 317.70989 325.183304 
L 319.549451 312.254609 
L 321.389011 304.234435 
L 323.228571 328.426435 
L 325.068132 303.62087 
L 326.907692 307.433739 
L 328.747253 332.239304 
L 330.586813 328.294957 
L 334.265934 324.78887 
L 336.105495 328.426435 
L 337.945055 309.011478 
L 339.784615 311.202783 
L 341.624176 310.720696 
L 343.463736 312.69287 
L 345.303297 311.202783 
L 347.142857 294.680348 
L 348.982418 297.046957 
L 350.821978 294.680348 
L 352.661538 274.608 
L 354.501099 303.007304 
L 356.340659 279.648 
L 358.18022 271.101913 
L 360.01978 265.579826 
L 361.859341 265.798957 
L 363.698901 250.591304 
L 365.538462 233.367652 
L 367.378022 222.235826 
L 369.217582 212.462609 
L 371.057143 215.092174 
L 372.896703 303.007304 
L 374.736264 307.565217 
L 376.575824 309.274435 
L 378.415385 317.031652 
L 380.254945 315.410087 
L 382.094505 309.055304 
L 383.934066 211.191652 
L 385.773626 188.70887 
L 387.613187 194.625391 
L 389.452747 184.10713 
L 391.292308 182.397913 
L 393.131868 184.370087 
L 394.971429 177.62087 
L 396.810989 171.879652 
L 398.650549 147.556174 
L 400.49011 213.207652 
L 402.32967 149.39687 
L 404.169231 154.524522 
L 406.008791 139.711304 
L 407.848352 140.368696 
L 409.687912 149.922783 
L 411.527473 139.842783 
L 413.367033 130.639304 
L 415.206593 130.639304 
L 417.046154 194.493913 
L 418.885714 130.069565 
L 420.725275 131.077565 
L 422.564835 205.669565 
L 424.404396 210.052174 
L 426.243956 208.036174 
L 428.083516 205.187478 
L 429.923077 206.502261 
L 431.762637 217.239652 
L 433.602198 115.957565 
L 435.441758 115.957565 
L 437.281319 96.630261 
L 439.120879 99.741913 
L 440.96044 77.565913 
L 442.8 100.486957 
L 444.63956 102.678261 
L 446.479121 102.634435 
L 448.318681 126.694957 
L 450.158242 111.312 
L 451.997802 115.957565 
L 453.837363 118.324174 
L 455.676923 102.590609 
L 457.516484 133.575652 
L 459.356044 135.942261 
L 461.195604 129.806609 
L 463.035165 135.328696 
L 464.874725 127.308522 
L 466.714286 117.885913 
L 468.553846 117.14087 
L 470.393407 122.838261 
L 472.232967 122.093217 
L 474.072527 121.654957 
L 475.912088 113.196522 
L 477.751648 122.706783 
L 479.591209 120.997565 
L 481.430769 127.44 
L 483.27033 112.276174 
L 485.10989 104.650435 
L 486.949451 110.08487 
L 488.789011 117.009391 
L 490.628571 106.403478 
L 492.468132 107.455304 
L 494.307692 111.662609 
L 496.147253 109.646609 
L 497.986813 115.475478 
L 499.826374 116.13287 
L 501.665934 111.618783 
L 503.505495 111.312 
L 505.345055 111.618783 
L 507.184615 107.49913 
L 510.863736 97.112348 
L 512.703297 106.447304 
L 514.542857 120.909913 
L 516.382418 106.447304 
L 518.221978 126.65113 
L 520.061538 117.272348 
L 521.901099 123.276522 
L 523.740659 121.085217 
L 525.58022 117.447652 
L 527.41978 119.113043 
L 529.259341 141.683478 
L 531.098901 152.85913 
L 532.938462 152.85913 
L 534.778022 150.667826 
L 536.617582 153.735652 
L 538.457143 155.576348 
L 540.296703 146.986435 
L 542.136264 145.846957 
L 543.975824 102.24 
L 545.815385 137.52 
L 547.654945 133.137391 
L 549.494505 140.149565 
L 551.334066 141.683478 
L 553.173626 159.739826 
L 555.013187 160.616348 
L 556.852747 166.050783 
L 558.692308 109.471304 
L 560.531868 173.238261 
L 562.371429 180.118957 
L 564.210989 105.088696 
L 566.050549 106.315826 
L 567.89011 106.228174 
L 569.72967 114.292174 
L 571.569231 113.328 
L 573.408791 129.412174 
L 575.248352 140.018087 
L 577.087912 148.038261 
L 578.927473 153.998609 
L 580.767033 148.870957 
L 582.606593 148.476522 
L 584.446154 151.237565 
L 586.285714 154.743652 
L 588.125275 160.835478 
L 589.964835 171.134609 
L 591.804396 171.792 
L 593.643956 174.246261 
L 595.483516 185.11513 
L 597.323077 180.381913 
L 599.162637 186.079304 
L 601.002198 183.055304 
L 602.841758 160.835478 
L 610.2 160.835478 
L 613.879121 176.744348 
L 615.718681 177.357913 
L 617.558242 170.389565 
L 619.397802 174.421565 
L 621.237363 174.772174 
L 623.076923 175.254261 
L 624.916484 177.664696 
L 626.756044 182.836174 
L 628.595604 180.776348 
L 630.435165 172.537043 
L 632.274725 176.349913 
L 634.114286 173.58887 
L 637.793407 163.377391 
L 639.632967 175.210435 
L 641.472527 177.270261 
L 643.312088 177.138783 
L 645.151648 175.254261 
L 646.991209 173.939478 
L 648.830769 171.00313 
L 650.67033 173.457391 
L 652.50989 171.967304 
L 654.349451 178.541217 
L 656.189011 176.700522 
L 658.028571 175.122783 
L 659.868132 185.641043 
L 661.707692 176.481391 
L 663.547253 178.62887 
L 665.386813 175.429565 
L 667.226374 175.210435 
L 669.065934 169.118609 
L 670.905495 170.871652 
L 672.745055 161.580522 
L 674.584615 167.409391 
L 676.424176 165.744 
L 678.263736 170.258087 
L 680.103297 165.174261 
L 681.942857 175.473391 
L 683.782418 172.843826 
L 685.621978 172.142609 
L 687.461538 173.282087 
L 689.301099 175.254261 
L 691.140659 126.125217 
L 692.98022 102.283826 
L 694.81978 103.335652 
L 696.659341 103.291826 
L 698.498901 99.917217 
L 700.338462 84.621913 
L 702.178022 165.174261 
L 704.017582 87.426783 
L 705.857143 91.809391 
L 709.536264 88.215652 
L 711.375824 92.729739 
L 713.215385 93.737739 
L 715.054945 88.390957 
L 716.894505 86.462609 
L 718.734066 165.305739 
L 720.573626 91.984696 
L 722.413187 90.626087 
L 724.252747 165.305739 
L 726.092308 152.201739 
L 727.931868 146.767304 
L 729.771429 144.181565 
L 731.610989 124.63513 
L 733.450549 79.231304 
L 735.29011 87.821217 
L 737.12967 85.060174 
L 740.808791 81.641739 
L 742.648352 81.510261 
L 744.487912 91.414957 
L 746.327473 91.239652 
L 748.167033 113.853913 
L 750.006593 105.965217 
L 751.846154 102.897391 
L 753.685714 101.670261 
L 755.525275 101.582609 
L 757.364835 102.853565 
L 759.204396 107.367652 
L 761.043956 91.195826 
L 762.883516 89.179826 
L 766.562637 88.566261 
L 768.402198 88.566261 
L 770.241758 113.985391 
L 772.081319 104.694261 
L 773.920879 101.100522 
L 775.76044 105.264 
L 777.6 95.622261 
L 777.6 95.622261 
" style="fill:none;stroke:#1f77b4;stroke-linecap:square;stroke-width:1.5;"/>
   </g>
   <g id="patch_3">
    <path d="M 108 384.48 
L 108 51.84 
" style="fill:none;stroke:#000000;stroke-linecap:square;stroke-linejoin:miter;stroke-width:0.8;"/>
   </g>
   <g id="patch_4">
    <path d="M 777.6 384.48 
L 777.6 51.84 
" style="fill:none;stroke:#000000;stroke-linecap:square;stroke-linejoin:miter;stroke-width:0.8;"/>
   </g>
   <g id="patch_5">
    <path d="M 108 384.48 
L 777.6 384.48 
" style="fill:none;stroke:#000000;stroke-linecap:square;stroke-linejoin:miter;stroke-width:0.8;"/>
   </g>
   <g id="patch_6">
    <path d="M 108 51.84 
L 777.6 51.84 
" style="fill:none;stroke:#000000;stroke-linecap:square;stroke-linejoin:miter;stroke-width:0.8;"/>
   </g>
   <g id="legend_1">
    <g id="patch_7">
     <path d="M 718.6 75.319687 
L 770.6 75.319687 
Q 772.6 75.319687 772.6 73.319687 
L 772.6 58.84 
Q 772.6 56.84 770.6 56.84 
L 718.6 56.84 
Q 716.6 56.84 716.6 58.84 
L 716.6 73.319687 
Q 716.6 75.319687 718.6 75.319687 
z
" style="fill:#ffffff;opacity:0.8;stroke:#cccccc;stroke-linejoin:miter;"/>
    </g>
    <g id="line2d_32">
     <path d="M 720.6 65.33375 
L 740.6 65.33375 
" style="fill:none;stroke:#1f77b4;stroke-linecap:square;stroke-width:1.5;"/>
    </g>
    <g id="line2d_33"/>
    <g id="text_17">
     <!-- 收盘 -->
     <defs>
      <path d="M 35.0625 41.546875 
Q 47.5625 63.234375 53.125 83.453125 
L 61.03125 81.203125 
Q 57.90625 72.171875 54.5 63.921875 
L 97.078125 63.921875 
L 97.078125 56.6875 
L 85.59375 56.6875 
Q 84.125 28.421875 71.09375 10.640625 
Q 81 1.859375 99.21875 -4.640625 
Q 96.1875 -8.453125 93.65625 -12.453125 
Q 76.265625 -5.03125 65.921875 4.6875 
Q 56.5 -4.59375 39.84375 -13.328125 
Q 37.796875 -10.109375 34.859375 -6.78125 
Q 51.515625 1.5625 60.59375 10.5 
Q 49.3125 24.609375 46 45.5625 
Q 43.265625 40.234375 40.328125 35.296875 
Q 38.484375 38.140625 35.0625 41.546875 
z
M 26.265625 82.671875 
L 33.6875 82.671875 
L 33.6875 -12.75 
L 26.265625 -12.75 
L 26.265625 17.390625 
Q 20.3125 14.0625 14.15625 10.015625 
Q 11.625 8.15625 9.1875 5.609375 
L 3.609375 12.15625 
Q 6.640625 15.375 6.640625 20.5625 
L 6.640625 69 
L 14.0625 69 
L 14.0625 19 
Q 19.875 22.078125 26.265625 25.53125 
z
M 77.875 56.6875 
L 51.90625 56.6875 
Q 53.328125 32.859375 65.671875 16.546875 
Q 76.8125 32.234375 77.875 56.6875 
z
" id="MicrosoftYaHei-6536"/>
      <path d="M 3.03125 51.515625 
L 20.0625 51.515625 
Q 20.515625 54.546875 20.40625 73.78125 
L 41.5 73.78125 
Q 43.265625 78.5625 44.53125 83.734375 
L 52.9375 81.6875 
Q 51.3125 77.828125 49.515625 73.78125 
L 83.890625 73.78125 
L 83.890625 51.515625 
L 97.265625 51.515625 
L 97.265625 45.0625 
L 83.890625 45.0625 
L 83.890625 37.84375 
Q 83.890625 26.703125 74.3125 26.609375 
Q 69.140625 26.515625 61.71875 26.8125 
Q 61.234375 30.328125 60.25 34.328125 
Q 66.40625 33.640625 71.578125 33.640625 
Q 76.46875 33.640625 76.46875 39.203125 
L 76.46875 45.0625 
L 26.65625 45.0625 
Q 24.03125 30.90625 9.28125 20.171875 
Q 6.546875 23.78125 3.90625 26.609375 
Q 15.828125 34.234375 18.890625 45.0625 
L 3.03125 45.0625 
z
M 1.765625 -2.984375 
L 14.453125 -2.984375 
L 14.453125 22.703125 
L 86.234375 22.703125 
L 86.234375 -2.984375 
L 98.34375 -2.984375 
L 98.34375 -9.421875 
L 1.765625 -9.421875 
z
M 76.46875 67.53125 
L 27.828125 67.53125 
Q 27.9375 57.859375 27.546875 51.515625 
L 76.46875 51.515625 
z
M 79 16.453125 
L 64.453125 16.453125 
L 64.453125 -2.984375 
L 79 -2.984375 
z
M 21.6875 -2.984375 
L 36.03125 -2.984375 
L 36.03125 16.453125 
L 21.6875 16.453125 
z
M 43.0625 -2.984375 
L 57.421875 -2.984375 
L 57.421875 16.453125 
L 43.0625 16.453125 
z
M 37.59375 38.53125 
L 41.609375 43.5 
Q 50.875 38.234375 57.328125 33.34375 
L 52.9375 27.59375 
Q 46.78125 32.671875 37.59375 38.53125 
z
M 41.40625 62.15625 
L 45.40625 67.140625 
Q 53.21875 62.75 59.96875 58.15625 
L 55.375 52.296875 
Q 48.640625 57.5625 41.40625 62.15625 
z
" id="MicrosoftYaHei-76d8"/>
     </defs>
     <g transform="translate(748.6 68.83375)scale(0.1 -0.1)">
      <use xlink:href="#MicrosoftYaHei-6536"/>
      <use x="100" xlink:href="#MicrosoftYaHei-76d8"/>
     </g>
    </g>
   </g>
  </g>
 </g>
 <defs>
  <clipPath id="pab2673a9e5">
   <rect height="332.64" width="669.6" x="108" y="51.84"/>
  </clipPath>
 </defs>
</svg>
