<?xml version="1.0" encoding="utf-8" standalone="no"?>
<!DOCTYPE svg PUBLIC "-//W3C//DTD SVG 1.1//EN"
  "http://www.w3.org/Graphics/SVG/1.1/DTD/svg11.dtd">
<!-- Created with matplotlib (http://matplotlib.org/) -->
<svg height="432pt" version="1.1" viewBox="0 0 864 432" width="864pt" xmlns="http://www.w3.org/2000/svg" xmlns:xlink="http://www.w3.org/1999/xlink">
 <defs>
  <style type="text/css">
*{stroke-linecap:butt;stroke-linejoin:round;}
  </style>
 </defs>
 <g id="figure_1">
  <g id="patch_1">
   <path d="M 0 432 
L 864 432 
L 864 0 
L 0 0 
z
" style="fill:#ffffff;"/>
  </g>
  <g id="axes_1">
   <g id="patch_2">
    <path d="M 108 384.48 
L 777.6 384.48 
L 777.6 51.84 
L 108 51.84 
z
" style="fill:#ffffff;"/>
   </g>
   <g id="matplotlib.axis_1">
    <g id="xtick_1">
     <g id="line2d_1">
      <path clip-path="url(#pbdd4a9190f)" d="M 108 384.48 
L 108 51.84 
" style="fill:none;stroke:#b0b0b0;stroke-linecap:square;stroke-width:0.8;"/>
     </g>
     <g id="line2d_2">
      <defs>
       <path d="M 0 0 
L 0 3.5 
" id="m5d7acddf84" style="stroke:#000000;stroke-width:0.8;"/>
      </defs>
      <g>
       <use style="stroke:#000000;stroke-width:0.8;" x="108" xlink:href="#m5d7acddf84" y="384.48"/>
      </g>
     </g>
     <g id="text_1">
      <!-- 2018年1月10日 -->
      <defs>
       <path d="M 51.171875 0 
L 5.171875 0 
L 5.171875 8.296875 
L 27.15625 30.21875 
Q 36.234375 39.3125 39.3125 44.609375 
Q 42.390625 49.90625 42.390625 55.5625 
Q 42.390625 62.015625 38.765625 65.453125 
Q 35.15625 68.890625 28.328125 68.890625 
Q 18.21875 68.890625 9.03125 60.296875 
L 9.03125 70.015625 
Q 17.96875 76.90625 29.828125 76.90625 
Q 40.046875 76.90625 45.953125 71.390625 
Q 51.859375 65.875 51.859375 56.546875 
Q 51.859375 49.515625 48.0625 42.75 
Q 44.28125 35.984375 33.734375 25.53125 
L 16.5 8.6875 
L 16.5 8.5 
L 51.171875 8.5 
z
" id="MicrosoftYaHei-32"/>
       <path d="M 4.4375 36.328125 
Q 4.4375 56.34375 11.078125 66.625 
Q 17.71875 76.90625 30.328125 76.90625 
Q 54.34375 76.90625 54.34375 38.140625 
Q 54.34375 19 47.578125 8.859375 
Q 40.828125 -1.265625 28.609375 -1.265625 
Q 17.09375 -1.265625 10.765625 8.34375 
Q 4.4375 17.96875 4.4375 36.328125 
z
M 14.203125 36.765625 
Q 14.203125 6.640625 29.5 6.640625 
Q 44.53125 6.640625 44.53125 37.25 
Q 44.53125 68.953125 29.78125 68.953125 
Q 14.203125 68.953125 14.203125 36.765625 
z
" id="MicrosoftYaHei-30"/>
       <path d="M 52.59375 0 
L 9.234375 0 
L 9.234375 8.25 
L 26.171875 8.25 
L 26.171875 65.671875 
L 8.796875 60.640625 
L 8.796875 69.4375 
L 35.6875 77.25 
L 35.6875 8.25 
L 52.59375 8.25 
z
" id="MicrosoftYaHei-31"/>
       <path d="M 21.390625 39.796875 
Q 7.859375 46.09375 7.859375 58.0625 
Q 7.859375 66.40625 14.203125 71.65625 
Q 20.5625 76.90625 30.421875 76.90625 
Q 39.453125 76.90625 45.3125 71.96875 
Q 51.171875 67.046875 51.171875 59.234375 
Q 51.171875 46.625 37.0625 39.84375 
L 37.0625 39.65625 
Q 53.609375 33.6875 53.609375 19.34375 
Q 53.609375 9.90625 46.796875 4.3125 
Q 39.984375 -1.265625 27.78125 -1.265625 
Q 17.78125 -1.265625 11.46875 4.25 
Q 5.171875 9.765625 5.171875 18.5625 
Q 5.171875 33.015625 21.390625 39.59375 
z
M 41.5 58.109375 
Q 41.5 63.1875 38.328125 66.109375 
Q 35.15625 69.046875 29.734375 69.046875 
Q 24.65625 69.046875 21.09375 65.984375 
Q 17.53125 62.9375 17.53125 58.203125 
Q 17.53125 48.734375 29.390625 43.796875 
Q 41.5 48.828125 41.5 58.109375 
z
M 28.8125 35.25 
Q 14.796875 29.59375 14.796875 19.046875 
Q 14.796875 13.578125 18.890625 10.0625 
Q 23 6.546875 29.59375 6.546875 
Q 35.984375 6.546875 39.984375 10.03125 
Q 44 13.53125 44 18.75 
Q 44 29.734375 28.8125 35.25 
z
" id="MicrosoftYaHei-38"/>
       <path d="M 1.859375 19.96875 
L 17.578125 19.96875 
L 17.578125 47.90625 
L 52.15625 47.90625 
L 52.15625 65.28125 
L 23.4375 65.28125 
Q 16.84375 53.421875 8.6875 43.40625 
Q 6.15625 46.140625 2.640625 48.875 
Q 16.5 64.5 23.4375 83.9375 
L 31.453125 81.6875 
Q 29.390625 76.859375 27.15625 72.3125 
L 94.34375 72.3125 
L 94.34375 65.28125 
L 60.0625 65.28125 
L 60.0625 47.90625 
L 92.671875 47.90625 
L 92.671875 41.0625 
L 60.0625 41.0625 
L 60.0625 19.96875 
L 98.734375 19.96875 
L 98.734375 12.9375 
L 60.0625 12.9375 
L 60.0625 -13.421875 
L 52.15625 -13.421875 
L 52.15625 12.9375 
L 1.859375 12.9375 
z
M 25.296875 19.96875 
L 52.15625 19.96875 
L 52.15625 41.0625 
L 25.296875 41.0625 
z
" id="MicrosoftYaHei-5e74"/>
       <path d="M 25.046875 20.0625 
Q 22.859375 1.21875 10.359375 -14.015625 
Q 7.234375 -10.984375 3.609375 -8.15625 
Q 13.09375 2.09375 16.3125 16.265625 
Q 18.5625 26.703125 18.5625 45.171875 
L 18.5625 78.953125 
L 83.796875 78.953125 
L 83.796875 2.78125 
Q 83.796875 -11.671875 70.015625 -11.671875 
Q 64.265625 -11.671875 55.171875 -11.46875 
Q 54.6875 -7.953125 53.71875 -3.265625 
Q 62.703125 -3.859375 67.875 -3.859375 
Q 75.78125 -3.859375 75.78125 3.859375 
L 75.78125 20.0625 
z
M 25.828125 27.203125 
L 75.78125 27.203125 
L 75.78125 45.953125 
L 26.5625 45.953125 
Q 26.5625 36.1875 25.828125 27.203125 
z
M 26.5625 71.625 
L 26.5625 53.078125 
L 75.78125 53.078125 
L 75.78125 71.625 
z
" id="MicrosoftYaHei-6708"/>
       <path d="M 15.234375 76.703125 
L 84.859375 76.703125 
L 84.859375 -11.96875 
L 76.5625 -11.96875 
L 76.5625 -5.03125 
L 23.53125 -5.03125 
L 23.53125 -11.96875 
L 15.234375 -11.96875 
z
M 23.53125 32.859375 
L 23.53125 2.09375 
L 76.5625 2.09375 
L 76.5625 32.859375 
z
M 23.53125 69.390625 
L 23.53125 40.1875 
L 76.5625 40.1875 
L 76.5625 69.390625 
z
" id="MicrosoftYaHei-65e5"/>
      </defs>
      <g transform="translate(72.475781 399.47375)scale(0.1 -0.1)">
       <use xlink:href="#MicrosoftYaHei-32"/>
       <use x="58.642578" xlink:href="#MicrosoftYaHei-30"/>
       <use x="117.285156" xlink:href="#MicrosoftYaHei-31"/>
       <use x="175.927734" xlink:href="#MicrosoftYaHei-38"/>
       <use x="234.570312" xlink:href="#MicrosoftYaHei-5e74"/>
       <use x="334.570312" xlink:href="#MicrosoftYaHei-31"/>
       <use x="393.212891" xlink:href="#MicrosoftYaHei-6708"/>
       <use x="493.212891" xlink:href="#MicrosoftYaHei-31"/>
       <use x="551.855469" xlink:href="#MicrosoftYaHei-30"/>
       <use x="610.498047" xlink:href="#MicrosoftYaHei-65e5"/>
      </g>
     </g>
    </g>
    <g id="xtick_2">
     <g id="line2d_3">
      <path clip-path="url(#pbdd4a9190f)" d="M 199.978022 384.48 
L 199.978022 51.84 
" style="fill:none;stroke:#b0b0b0;stroke-linecap:square;stroke-width:0.8;"/>
     </g>
     <g id="line2d_4">
      <g>
       <use style="stroke:#000000;stroke-width:0.8;" x="199.978022" xlink:href="#m5d7acddf84" y="384.48"/>
      </g>
     </g>
     <g id="text_2">
      <!-- 2018年3月20日 -->
      <defs>
       <path d="M 6.984375 12.640625 
Q 14.75 6.640625 24.515625 6.640625 
Q 32.328125 6.640625 36.890625 10.46875 
Q 41.453125 14.3125 41.453125 20.75 
Q 41.453125 35.109375 20.90625 35.109375 
L 14.59375 35.109375 
L 14.59375 43.015625 
L 20.609375 43.015625 
Q 38.8125 43.015625 38.8125 56.5 
Q 38.8125 68.953125 24.90625 68.953125 
Q 16.9375 68.953125 9.90625 63.578125 
L 9.90625 72.609375 
Q 17.328125 76.90625 27.25 76.90625 
Q 36.921875 76.90625 42.78125 71.84375 
Q 48.640625 66.796875 48.640625 58.734375 
Q 48.640625 43.890625 33.5 39.65625 
L 33.5 39.453125 
Q 41.703125 38.578125 46.453125 33.671875 
Q 51.21875 28.765625 51.21875 21.4375 
Q 51.21875 11.234375 43.875 4.984375 
Q 36.53125 -1.265625 24.3125 -1.265625 
Q 13.578125 -1.265625 6.984375 2.734375 
z
" id="MicrosoftYaHei-33"/>
      </defs>
      <g transform="translate(164.453803 399.47375)scale(0.1 -0.1)">
       <use xlink:href="#MicrosoftYaHei-32"/>
       <use x="58.642578" xlink:href="#MicrosoftYaHei-30"/>
       <use x="117.285156" xlink:href="#MicrosoftYaHei-31"/>
       <use x="175.927734" xlink:href="#MicrosoftYaHei-38"/>
       <use x="234.570312" xlink:href="#MicrosoftYaHei-5e74"/>
       <use x="334.570312" xlink:href="#MicrosoftYaHei-33"/>
       <use x="393.212891" xlink:href="#MicrosoftYaHei-6708"/>
       <use x="493.212891" xlink:href="#MicrosoftYaHei-32"/>
       <use x="551.855469" xlink:href="#MicrosoftYaHei-30"/>
       <use x="610.498047" xlink:href="#MicrosoftYaHei-65e5"/>
      </g>
     </g>
    </g>
    <g id="xtick_3">
     <g id="line2d_5">
      <path clip-path="url(#pbdd4a9190f)" d="M 291.956044 384.48 
L 291.956044 51.84 
" style="fill:none;stroke:#b0b0b0;stroke-linecap:square;stroke-width:0.8;"/>
     </g>
     <g id="line2d_6">
      <g>
       <use style="stroke:#000000;stroke-width:0.8;" x="291.956044" xlink:href="#m5d7acddf84" y="384.48"/>
      </g>
     </g>
     <g id="text_3">
      <!-- 2018年5月28日 -->
      <defs>
       <path d="M 8.640625 11.625 
Q 16.265625 6.640625 24.515625 6.640625 
Q 32.328125 6.640625 37.109375 11 
Q 41.890625 15.375 41.890625 22.609375 
Q 41.890625 29.890625 37.03125 33.890625 
Q 32.171875 37.890625 22.953125 37.890625 
Q 18.5 37.890625 10.984375 37.203125 
L 10.984375 75.640625 
L 48.1875 75.640625 
L 48.1875 67.1875 
L 19.875 67.1875 
L 19.875 45.796875 
Q 24.125 46.046875 26.265625 46.046875 
Q 38.234375 46.046875 44.921875 39.984375 
Q 51.609375 33.9375 51.609375 23.296875 
Q 51.609375 12.3125 44.421875 5.515625 
Q 37.25 -1.265625 24.609375 -1.265625 
Q 14.015625 -1.265625 8.640625 1.859375 
z
" id="MicrosoftYaHei-35"/>
      </defs>
      <g transform="translate(256.431825 399.47375)scale(0.1 -0.1)">
       <use xlink:href="#MicrosoftYaHei-32"/>
       <use x="58.642578" xlink:href="#MicrosoftYaHei-30"/>
       <use x="117.285156" xlink:href="#MicrosoftYaHei-31"/>
       <use x="175.927734" xlink:href="#MicrosoftYaHei-38"/>
       <use x="234.570312" xlink:href="#MicrosoftYaHei-5e74"/>
       <use x="334.570312" xlink:href="#MicrosoftYaHei-35"/>
       <use x="393.212891" xlink:href="#MicrosoftYaHei-6708"/>
       <use x="493.212891" xlink:href="#MicrosoftYaHei-32"/>
       <use x="551.855469" xlink:href="#MicrosoftYaHei-38"/>
       <use x="610.498047" xlink:href="#MicrosoftYaHei-65e5"/>
      </g>
     </g>
    </g>
    <g id="xtick_4">
     <g id="line2d_7">
      <path clip-path="url(#pbdd4a9190f)" d="M 383.934066 384.48 
L 383.934066 51.84 
" style="fill:none;stroke:#b0b0b0;stroke-linecap:square;stroke-width:0.8;"/>
     </g>
     <g id="line2d_8">
      <g>
       <use style="stroke:#000000;stroke-width:0.8;" x="383.934066" xlink:href="#m5d7acddf84" y="384.48"/>
      </g>
     </g>
     <g id="text_4">
      <!-- 2018年7月26日 -->
      <defs>
       <path d="M 53.765625 72.3125 
L 24.171875 0 
L 14.265625 0 
L 42.390625 67.1875 
L 4.59375 67.1875 
L 4.59375 75.640625 
L 53.765625 75.640625 
z
" id="MicrosoftYaHei-37"/>
       <path d="M 49.703125 65.921875 
Q 43.796875 68.953125 37.359375 68.953125 
Q 27.546875 68.953125 21.578125 60.40625 
Q 15.625 51.859375 15.53125 37.0625 
L 15.765625 37.0625 
Q 21.140625 47.46875 32.90625 47.46875 
Q 42.71875 47.46875 48.578125 41.0625 
Q 54.4375 34.671875 54.4375 24.078125 
Q 54.4375 12.984375 47.671875 5.859375 
Q 40.921875 -1.265625 30.421875 -1.265625 
Q 18.890625 -1.265625 12.328125 7.734375 
Q 5.765625 16.75 5.765625 33.296875 
Q 5.765625 53.328125 14.375 65.109375 
Q 23 76.90625 37.0625 76.90625 
Q 45.125 76.90625 49.703125 74.703125 
z
M 16.109375 24.75 
Q 16.109375 17.28125 20.09375 11.953125 
Q 24.078125 6.640625 30.671875 6.640625 
Q 36.921875 6.640625 40.828125 11.234375 
Q 44.734375 15.828125 44.734375 23.046875 
Q 44.734375 30.859375 41.046875 35.203125 
Q 37.359375 39.546875 30.5625 39.546875 
Q 24.125 39.546875 20.109375 35.15625 
Q 16.109375 30.765625 16.109375 24.75 
z
" id="MicrosoftYaHei-36"/>
      </defs>
      <g transform="translate(348.409847 399.47375)scale(0.1 -0.1)">
       <use xlink:href="#MicrosoftYaHei-32"/>
       <use x="58.642578" xlink:href="#MicrosoftYaHei-30"/>
       <use x="117.285156" xlink:href="#MicrosoftYaHei-31"/>
       <use x="175.927734" xlink:href="#MicrosoftYaHei-38"/>
       <use x="234.570312" xlink:href="#MicrosoftYaHei-5e74"/>
       <use x="334.570312" xlink:href="#MicrosoftYaHei-37"/>
       <use x="393.212891" xlink:href="#MicrosoftYaHei-6708"/>
       <use x="493.212891" xlink:href="#MicrosoftYaHei-32"/>
       <use x="551.855469" xlink:href="#MicrosoftYaHei-36"/>
       <use x="610.498047" xlink:href="#MicrosoftYaHei-65e5"/>
      </g>
     </g>
    </g>
    <g id="xtick_5">
     <g id="line2d_9">
      <path clip-path="url(#pbdd4a9190f)" d="M 475.912088 384.48 
L 475.912088 51.84 
" style="fill:none;stroke:#b0b0b0;stroke-linecap:square;stroke-width:0.8;"/>
     </g>
     <g id="line2d_10">
      <g>
       <use style="stroke:#000000;stroke-width:0.8;" x="475.912088" xlink:href="#m5d7acddf84" y="384.48"/>
      </g>
     </g>
     <g id="text_5">
      <!-- 2018年9月23日 -->
      <defs>
       <path d="M 9.03125 10.25 
Q 15.28125 6.640625 22.515625 6.640625 
Q 32.671875 6.640625 38.25 14.640625 
Q 43.84375 22.65625 43.84375 37.40625 
Q 43.75 37.3125 43.65625 37.40625 
Q 38.671875 27.9375 26.90625 27.9375 
Q 17.390625 27.9375 11.140625 34.46875 
Q 4.890625 41.015625 4.890625 51.46875 
Q 4.890625 62.59375 11.71875 69.75 
Q 18.5625 76.90625 29.4375 76.90625 
Q 40.71875 76.90625 47.0625 68.046875 
Q 53.421875 59.1875 53.421875 42.234375 
Q 53.421875 21.296875 45.21875 10.015625 
Q 37.015625 -1.265625 22.515625 -1.265625 
Q 14.546875 -1.265625 9.03125 1.3125 
z
M 14.546875 52.6875 
Q 14.546875 45.0625 18.453125 40.59375 
Q 22.359375 36.140625 29.25 36.140625 
Q 35.203125 36.140625 39.25 40.203125 
Q 43.3125 44.28125 43.3125 50.09375 
Q 43.3125 58.25 39.28125 63.59375 
Q 35.25 68.953125 28.65625 68.953125 
Q 22.5625 68.953125 18.546875 64.3125 
Q 14.546875 59.671875 14.546875 52.6875 
z
" id="MicrosoftYaHei-39"/>
      </defs>
      <g transform="translate(440.387869 399.47375)scale(0.1 -0.1)">
       <use xlink:href="#MicrosoftYaHei-32"/>
       <use x="58.642578" xlink:href="#MicrosoftYaHei-30"/>
       <use x="117.285156" xlink:href="#MicrosoftYaHei-31"/>
       <use x="175.927734" xlink:href="#MicrosoftYaHei-38"/>
       <use x="234.570312" xlink:href="#MicrosoftYaHei-5e74"/>
       <use x="334.570312" xlink:href="#MicrosoftYaHei-39"/>
       <use x="393.212891" xlink:href="#MicrosoftYaHei-6708"/>
       <use x="493.212891" xlink:href="#MicrosoftYaHei-32"/>
       <use x="551.855469" xlink:href="#MicrosoftYaHei-33"/>
       <use x="610.498047" xlink:href="#MicrosoftYaHei-65e5"/>
      </g>
     </g>
    </g>
    <g id="xtick_6">
     <g id="line2d_11">
      <path clip-path="url(#pbdd4a9190f)" d="M 567.89011 384.48 
L 567.89011 51.84 
" style="fill:none;stroke:#b0b0b0;stroke-linecap:square;stroke-width:0.8;"/>
     </g>
     <g id="line2d_12">
      <g>
       <use style="stroke:#000000;stroke-width:0.8;" x="567.89011" xlink:href="#m5d7acddf84" y="384.48"/>
      </g>
     </g>
     <g id="text_6">
      <!-- 2019年2月25日 -->
      <g transform="translate(532.365891 399.47375)scale(0.1 -0.1)">
       <use xlink:href="#MicrosoftYaHei-32"/>
       <use x="58.642578" xlink:href="#MicrosoftYaHei-30"/>
       <use x="117.285156" xlink:href="#MicrosoftYaHei-31"/>
       <use x="175.927734" xlink:href="#MicrosoftYaHei-39"/>
       <use x="234.570312" xlink:href="#MicrosoftYaHei-5e74"/>
       <use x="334.570312" xlink:href="#MicrosoftYaHei-32"/>
       <use x="393.212891" xlink:href="#MicrosoftYaHei-6708"/>
       <use x="493.212891" xlink:href="#MicrosoftYaHei-32"/>
       <use x="551.855469" xlink:href="#MicrosoftYaHei-35"/>
       <use x="610.498047" xlink:href="#MicrosoftYaHei-65e5"/>
      </g>
     </g>
    </g>
    <g id="xtick_7">
     <g id="line2d_13">
      <path clip-path="url(#pbdd4a9190f)" d="M 659.868132 384.48 
L 659.868132 51.84 
" style="fill:none;stroke:#b0b0b0;stroke-linecap:square;stroke-width:0.8;"/>
     </g>
     <g id="line2d_14">
      <g>
       <use style="stroke:#000000;stroke-width:0.8;" x="659.868132" xlink:href="#m5d7acddf84" y="384.48"/>
      </g>
     </g>
     <g id="text_7">
      <!-- 2019年4月8日 -->
      <defs>
       <path d="M 55.078125 19.625 
L 45.40625 19.625 
L 45.40625 0 
L 36.140625 0 
L 36.140625 19.625 
L 0.875 19.625 
L 0.875 25.828125 
L 34.328125 75.640625 
L 45.40625 75.640625 
L 45.40625 27.203125 
L 55.078125 27.203125 
z
M 36.140625 27.203125 
L 36.140625 58.890625 
Q 36.140625 62.25 36.328125 66.65625 
L 36.140625 66.65625 
Q 35.453125 64.796875 33.25 60.84375 
L 10.75 27.203125 
z
" id="MicrosoftYaHei-34"/>
      </defs>
      <g transform="translate(627.275944 399.47375)scale(0.1 -0.1)">
       <use xlink:href="#MicrosoftYaHei-32"/>
       <use x="58.642578" xlink:href="#MicrosoftYaHei-30"/>
       <use x="117.285156" xlink:href="#MicrosoftYaHei-31"/>
       <use x="175.927734" xlink:href="#MicrosoftYaHei-39"/>
       <use x="234.570312" xlink:href="#MicrosoftYaHei-5e74"/>
       <use x="334.570312" xlink:href="#MicrosoftYaHei-34"/>
       <use x="393.212891" xlink:href="#MicrosoftYaHei-6708"/>
       <use x="493.212891" xlink:href="#MicrosoftYaHei-38"/>
       <use x="551.855469" xlink:href="#MicrosoftYaHei-65e5"/>
      </g>
     </g>
    </g>
    <g id="xtick_8">
     <g id="line2d_15">
      <path clip-path="url(#pbdd4a9190f)" d="M 751.846154 384.48 
L 751.846154 51.84 
" style="fill:none;stroke:#b0b0b0;stroke-linecap:square;stroke-width:0.8;"/>
     </g>
     <g id="line2d_16">
      <g>
       <use style="stroke:#000000;stroke-width:0.8;" x="751.846154" xlink:href="#m5d7acddf84" y="384.48"/>
      </g>
     </g>
     <g id="text_8">
      <!-- 2019年7月17日 -->
      <g transform="translate(716.321935 399.47375)scale(0.1 -0.1)">
       <use xlink:href="#MicrosoftYaHei-32"/>
       <use x="58.642578" xlink:href="#MicrosoftYaHei-30"/>
       <use x="117.285156" xlink:href="#MicrosoftYaHei-31"/>
       <use x="175.927734" xlink:href="#MicrosoftYaHei-39"/>
       <use x="234.570312" xlink:href="#MicrosoftYaHei-5e74"/>
       <use x="334.570312" xlink:href="#MicrosoftYaHei-37"/>
       <use x="393.212891" xlink:href="#MicrosoftYaHei-6708"/>
       <use x="493.212891" xlink:href="#MicrosoftYaHei-31"/>
       <use x="551.855469" xlink:href="#MicrosoftYaHei-37"/>
       <use x="610.498047" xlink:href="#MicrosoftYaHei-65e5"/>
      </g>
     </g>
    </g>
    <g id="text_9">
     <!-- 日期 -->
     <defs>
      <path d="M 58.890625 79.15625 
L 93.453125 79.15625 
L 93.453125 -0.046875 
Q 93.453125 -11.578125 82.515625 -11.578125 
Q 77.046875 -11.578125 71.78125 -11.28125 
Q 71.390625 -8.0625 70.609375 -3.765625 
Q 77.734375 -4.4375 80.859375 -4.4375 
Q 86.234375 -4.4375 86.234375 0.921875 
L 86.234375 21.4375 
L 65.328125 21.4375 
Q 64.265625 0.046875 52.34375 -14.109375 
Q 49.703125 -11.375 46.484375 -8.640625 
Q 54.390625 0.4375 56.546875 10.203125 
Q 58.890625 19.578125 58.890625 42.828125 
z
M 1.953125 17.828125 
L 11.140625 17.828125 
L 11.140625 62.9375 
L 3.125 62.9375 
L 3.125 69.578125 
L 11.140625 69.578125 
L 11.140625 81.5 
L 18.359375 81.5 
L 18.359375 69.578125 
L 38.671875 69.578125 
L 38.671875 81.890625 
L 45.90625 81.890625 
L 45.90625 69.578125 
L 53.8125 69.578125 
L 53.8125 62.9375 
L 45.90625 62.9375 
L 45.90625 17.828125 
L 53.71875 17.828125 
L 53.71875 11.1875 
L 1.953125 11.1875 
z
M 65.765625 27.875 
L 86.234375 27.875 
L 86.234375 47.015625 
L 66.109375 47.015625 
Q 66.21875 34.421875 65.765625 27.875 
z
M 86.234375 72.515625 
L 66.109375 72.515625 
L 66.109375 53.46875 
L 86.234375 53.46875 
z
M 18.359375 17.828125 
L 38.671875 17.828125 
L 38.671875 28.765625 
L 18.359375 28.765625 
z
M 18.359375 35.015625 
L 38.671875 35.015625 
L 38.671875 45.84375 
L 18.359375 45.84375 
z
M 18.359375 52.09375 
L 38.671875 52.09375 
L 38.671875 62.9375 
L 18.359375 62.9375 
z
M 18.359375 9.328125 
L 24.3125 4.640625 
Q 14.453125 -6 6.34375 -13.234375 
Q 4.296875 -10.890625 1.171875 -8.0625 
Q 10.453125 -0.140625 18.359375 9.328125 
z
M 31.15625 4.734375 
L 35.84375 9.515625 
Q 42.671875 4.4375 48.734375 -0.734375 
L 43.5625 -6.296875 
Q 38.09375 -0.828125 31.15625 4.734375 
z
" id="MicrosoftYaHei-671f"/>
     </defs>
     <g transform="translate(432.8 413.953438)scale(0.1 -0.1)">
      <use xlink:href="#MicrosoftYaHei-65e5"/>
      <use x="100" xlink:href="#MicrosoftYaHei-671f"/>
     </g>
    </g>
   </g>
   <g id="matplotlib.axis_2">
    <g id="ytick_1">
     <g id="line2d_17">
      <path clip-path="url(#pbdd4a9190f)" d="M 108 355.280096 
L 777.6 355.280096 
" style="fill:none;stroke:#b0b0b0;stroke-linecap:square;stroke-width:0.8;"/>
     </g>
     <g id="line2d_18">
      <defs>
       <path d="M 0 0 
L -3.5 0 
" id="m4cb8dcd934" style="stroke:#000000;stroke-width:0.8;"/>
      </defs>
      <g>
       <use style="stroke:#000000;stroke-width:0.8;" x="108" xlink:href="#m4cb8dcd934" y="355.280096"/>
      </g>
     </g>
     <g id="text_10">
      <!-- 6.3 -->
      <defs>
       <path d="M 5.8125 5.03125 
Q 5.8125 7.671875 7.609375 9.46875 
Q 9.421875 11.28125 12.109375 11.28125 
Q 14.84375 11.28125 16.640625 9.453125 
Q 18.453125 7.625 18.453125 5.03125 
Q 18.453125 2.484375 16.640625 0.65625 
Q 14.84375 -1.171875 12.0625 -1.171875 
Q 9.375 -1.171875 7.59375 0.65625 
Q 5.8125 2.484375 5.8125 5.03125 
z
" id="MicrosoftYaHei-2e"/>
      </defs>
      <g transform="translate(86.864063 359.276971)scale(0.1 -0.1)">
       <use xlink:href="#MicrosoftYaHei-36"/>
       <use x="58.642578" xlink:href="#MicrosoftYaHei-2e"/>
       <use x="82.714844" xlink:href="#MicrosoftYaHei-33"/>
      </g>
     </g>
    </g>
    <g id="ytick_2">
     <g id="line2d_19">
      <path clip-path="url(#pbdd4a9190f)" d="M 108 309.861051 
L 777.6 309.861051 
" style="fill:none;stroke:#b0b0b0;stroke-linecap:square;stroke-width:0.8;"/>
     </g>
     <g id="line2d_20">
      <g>
       <use style="stroke:#000000;stroke-width:0.8;" x="108" xlink:href="#m4cb8dcd934" y="309.861051"/>
      </g>
     </g>
     <g id="text_11">
      <!-- 6.4 -->
      <g transform="translate(86.864063 313.857926)scale(0.1 -0.1)">
       <use xlink:href="#MicrosoftYaHei-36"/>
       <use x="58.642578" xlink:href="#MicrosoftYaHei-2e"/>
       <use x="82.714844" xlink:href="#MicrosoftYaHei-34"/>
      </g>
     </g>
    </g>
    <g id="ytick_3">
     <g id="line2d_21">
      <path clip-path="url(#pbdd4a9190f)" d="M 108 264.442007 
L 777.6 264.442007 
" style="fill:none;stroke:#b0b0b0;stroke-linecap:square;stroke-width:0.8;"/>
     </g>
     <g id="line2d_22">
      <g>
       <use style="stroke:#000000;stroke-width:0.8;" x="108" xlink:href="#m4cb8dcd934" y="264.442007"/>
      </g>
     </g>
     <g id="text_12">
      <!-- 6.5 -->
      <g transform="translate(86.864063 268.438882)scale(0.1 -0.1)">
       <use xlink:href="#MicrosoftYaHei-36"/>
       <use x="58.642578" xlink:href="#MicrosoftYaHei-2e"/>
       <use x="82.714844" xlink:href="#MicrosoftYaHei-35"/>
      </g>
     </g>
    </g>
    <g id="ytick_4">
     <g id="line2d_23">
      <path clip-path="url(#pbdd4a9190f)" d="M 108 219.022962 
L 777.6 219.022962 
" style="fill:none;stroke:#b0b0b0;stroke-linecap:square;stroke-width:0.8;"/>
     </g>
     <g id="line2d_24">
      <g>
       <use style="stroke:#000000;stroke-width:0.8;" x="108" xlink:href="#m4cb8dcd934" y="219.022962"/>
      </g>
     </g>
     <g id="text_13">
      <!-- 6.6 -->
      <g transform="translate(86.864063 223.019837)scale(0.1 -0.1)">
       <use xlink:href="#MicrosoftYaHei-36"/>
       <use x="58.642578" xlink:href="#MicrosoftYaHei-2e"/>
       <use x="82.714844" xlink:href="#MicrosoftYaHei-36"/>
      </g>
     </g>
    </g>
    <g id="ytick_5">
     <g id="line2d_25">
      <path clip-path="url(#pbdd4a9190f)" d="M 108 173.603917 
L 777.6 173.603917 
" style="fill:none;stroke:#b0b0b0;stroke-linecap:square;stroke-width:0.8;"/>
     </g>
     <g id="line2d_26">
      <g>
       <use style="stroke:#000000;stroke-width:0.8;" x="108" xlink:href="#m4cb8dcd934" y="173.603917"/>
      </g>
     </g>
     <g id="text_14">
      <!-- 6.7 -->
      <g transform="translate(86.864063 177.600792)scale(0.1 -0.1)">
       <use xlink:href="#MicrosoftYaHei-36"/>
       <use x="58.642578" xlink:href="#MicrosoftYaHei-2e"/>
       <use x="82.714844" xlink:href="#MicrosoftYaHei-37"/>
      </g>
     </g>
    </g>
    <g id="ytick_6">
     <g id="line2d_27">
      <path clip-path="url(#pbdd4a9190f)" d="M 108 128.184872 
L 777.6 128.184872 
" style="fill:none;stroke:#b0b0b0;stroke-linecap:square;stroke-width:0.8;"/>
     </g>
     <g id="line2d_28">
      <g>
       <use style="stroke:#000000;stroke-width:0.8;" x="108" xlink:href="#m4cb8dcd934" y="128.184872"/>
      </g>
     </g>
     <g id="text_15">
      <!-- 6.8 -->
      <g transform="translate(86.864063 132.181747)scale(0.1 -0.1)">
       <use xlink:href="#MicrosoftYaHei-36"/>
       <use x="58.642578" xlink:href="#MicrosoftYaHei-2e"/>
       <use x="82.714844" xlink:href="#MicrosoftYaHei-38"/>
      </g>
     </g>
    </g>
    <g id="ytick_7">
     <g id="line2d_29">
      <path clip-path="url(#pbdd4a9190f)" d="M 108 82.765828 
L 777.6 82.765828 
" style="fill:none;stroke:#b0b0b0;stroke-linecap:square;stroke-width:0.8;"/>
     </g>
     <g id="line2d_30">
      <g>
       <use style="stroke:#000000;stroke-width:0.8;" x="108" xlink:href="#m4cb8dcd934" y="82.765828"/>
      </g>
     </g>
     <g id="text_16">
      <!-- 6.9 -->
      <g transform="translate(86.864063 86.762703)scale(0.1 -0.1)">
       <use xlink:href="#MicrosoftYaHei-36"/>
       <use x="58.642578" xlink:href="#MicrosoftYaHei-2e"/>
       <use x="82.714844" xlink:href="#MicrosoftYaHei-39"/>
      </g>
     </g>
    </g>
   </g>
   <g id="line2d_31">
    <path clip-path="url(#pbdd4a9190f)" d="M 108 260.763064 
L 109.83956 266.349606 
L 111.679121 282.155434 
L 113.518681 293.010586 
L 115.358242 289.876672 
L 117.197802 294.282319 
L 119.037363 300.640985 
L 120.876923 308.04429 
L 122.716484 261.44435 
L 124.556044 307.499261 
L 126.395604 307.726356 
L 128.235165 323.486765 
L 130.074725 344.470363 
L 131.914286 346.150868 
L 133.753846 338.293373 
L 135.593407 267.439664 
L 137.432967 344.424944 
L 139.272527 360.367029 
L 141.112088 263.079435 
L 142.951648 267.439664 
L 144.791209 269.574359 
L 146.630769 264.578264 
L 148.47033 250.95255 
L 150.30989 342.789859 
L 152.149451 336.658288 
L 153.989011 333.388117 
L 159.507692 333.388117 
L 161.347253 355.507191 
L 163.186813 333.388117 
L 165.026374 333.388117 
L 166.865934 332.525155 
L 168.705495 338.338792 
L 170.545055 348.013049 
L 172.384615 347.558859 
L 174.224176 341.154773 
L 176.063736 354.644229 
L 177.903297 359.822001 
L 179.742857 362.910496 
L 181.582418 369.178324 
L 183.421978 343.016954 
L 185.261538 356.688087 
L 187.101099 341.654383 
L 188.940659 345.469582 
L 190.78022 347.104668 
L 192.61978 345.242487 
L 194.459341 339.38343 
L 196.298901 340.655164 
L 198.138462 328.846212 
L 199.978022 339.792202 
L 201.817582 344.742878 
L 203.657143 339.38343 
L 205.496703 348.013049 
L 207.336264 367.361562 
L 209.175824 362.955915 
L 211.015385 356.233896 
L 212.854945 359.912839 
L 214.694505 334.65985 
L 216.534066 366.4986 
L 218.373626 332.797669 
L 220.213187 350.82903 
L 222.052747 343.69824 
L 223.892308 336.113259 
L 225.731868 340.473488 
L 227.571429 362.910496 
L 229.410989 369.36 
L 231.250549 359.140715 
L 233.09011 366.634857 
L 234.92967 365.953572 
L 236.769231 363.228429 
L 238.608791 366.907372 
L 240.448352 364.772676 
L 242.287912 356.869763 
L 244.127473 347.513439 
L 245.967033 352.327858 
L 247.806593 343.19863 
L 249.646154 338.702145 
L 251.485714 340.200973 
L 253.325275 364.13681 
L 255.164835 340.200973 
L 257.004396 359.86742 
L 258.843956 352.918306 
L 262.523077 352.918306 
L 264.362637 352.100763 
L 266.202198 332.933926 
L 268.041758 339.792202 
L 269.881319 337.475831 
L 271.720879 319.989498 
L 273.56044 322.805479 
L 275.4 324.803917 
L 277.23956 318.94486 
L 279.079121 340.200973 
L 280.918681 317.355194 
L 282.758242 324.622241 
L 284.597802 315.084242 
L 286.437363 319.716984 
L 288.276923 313.585413 
L 290.116484 323.577603 
L 291.956044 310.178985 
L 293.795604 301.867299 
L 295.635165 326.938612 
L 297.474725 301.231433 
L 299.314286 305.18289 
L 301.153846 330.890069 
L 302.993407 326.802355 
L 306.672527 323.168831 
L 308.512088 326.938612 
L 310.351648 306.817975 
L 312.191209 309.088928 
L 314.030769 308.589318 
L 315.87033 310.633175 
L 317.70989 309.088928 
L 319.549451 291.965948 
L 321.389011 294.418576 
L 323.228571 291.965948 
L 325.068132 271.164025 
L 326.907692 300.595566 
L 328.747253 276.387215 
L 330.586813 267.530502 
L 332.426374 261.807702 
L 334.265934 262.034797 
L 336.105495 246.274389 
L 337.945055 228.424704 
L 339.784615 216.888267 
L 341.624176 206.75982 
L 343.463736 209.484962 
L 345.303297 300.595566 
L 347.142857 305.319147 
L 348.982418 307.09049 
L 350.821978 315.129661 
L 352.661538 313.449156 
L 354.501099 306.863394 
L 356.340659 205.442667 
L 358.18022 182.142698 
L 360.01978 188.274269 
L 361.859341 177.373698 
L 363.698901 175.602355 
L 365.538462 177.646212 
L 367.378022 170.651679 
L 369.217582 164.701784 
L 371.057143 139.494214 
L 372.896703 207.531944 
L 374.736264 141.401814 
L 376.575824 146.715843 
L 378.415385 131.364205 
L 380.254945 132.045491 
L 382.094505 141.946843 
L 383.934066 131.500463 
L 385.773626 121.962463 
L 387.613187 121.962463 
L 389.452747 188.138011 
L 391.292308 121.372016 
L 393.131868 122.416654 
L 394.971429 199.719868 
L 396.810989 204.261772 
L 398.650549 202.172496 
L 400.49011 199.220258 
L 402.32967 200.58283 
L 404.169231 211.710496 
L 406.008791 106.747083 
L 407.848352 106.747083 
L 409.687912 86.717284 
L 411.527473 89.942037 
L 413.367033 66.96 
L 415.206593 90.71416 
L 417.046154 92.985113 
L 418.885714 92.939694 
L 420.725275 117.874749 
L 422.564835 101.932664 
L 424.404396 106.747083 
L 426.243956 109.199712 
L 428.083516 92.894275 
L 429.923077 125.005539 
L 431.762637 127.458168 
L 433.602198 121.099501 
L 435.441758 126.822301 
L 437.281319 118.510616 
L 439.120879 108.745521 
L 440.96044 107.973397 
L 442.8 113.877873 
L 444.63956 113.105749 
L 446.479121 112.651559 
L 448.318681 103.885683 
L 450.158242 113.741616 
L 451.997802 111.970273 
L 453.837363 118.646873 
L 455.676923 102.931883 
L 457.516484 95.02897 
L 459.356044 100.660931 
L 461.195604 107.83714 
L 463.035165 96.845731 
L 464.874725 97.935789 
L 466.714286 102.296017 
L 468.553846 100.206741 
L 470.393407 106.247474 
L 472.232967 106.928759 
L 474.072527 102.250598 
L 475.912088 101.932664 
L 477.751648 102.250598 
L 479.591209 97.981208 
L 483.27033 87.216894 
L 485.10989 96.89115 
L 486.949451 111.879435 
L 488.789011 96.89115 
L 490.628571 117.82933 
L 492.468132 108.109655 
L 494.307692 114.332064 
L 496.147253 112.061111 
L 497.986813 108.291331 
L 499.826374 110.017254 
L 501.665934 133.408062 
L 503.505495 144.989919 
L 505.345055 144.989919 
L 507.184615 142.718967 
L 509.024176 145.8983 
L 510.863736 147.8059 
L 512.703297 138.903767 
L 514.542857 137.722872 
L 516.382418 92.530922 
L 518.221978 129.093253 
L 520.061538 124.551349 
L 521.901099 131.818396 
L 523.740659 133.408062 
L 525.58022 152.120709 
L 527.41978 153.02909 
L 529.259341 158.661051 
L 531.098901 100.025065 
L 532.938462 166.109775 
L 534.778022 173.240565 
L 536.617582 95.48316 
L 538.457143 96.754893 
L 540.296703 96.664055 
L 542.136264 105.02116 
L 543.975824 104.021941 
L 545.815385 120.69073 
L 547.654945 131.682139 
L 549.494505 139.993824 
L 551.334066 146.170814 
L 553.173626 140.856786 
L 555.013187 140.448014 
L 556.852747 143.309414 
L 558.692308 146.942938 
L 560.531868 153.256185 
L 562.371429 163.929661 
L 564.210989 164.610946 
L 566.050549 167.154413 
L 567.89011 178.418336 
L 569.72967 173.513079 
L 571.569231 179.417555 
L 573.408791 176.283641 
L 575.248352 153.256185 
L 582.606593 153.256185 
L 586.285714 169.743298 
L 588.125275 170.379165 
L 589.964835 163.157537 
L 591.804396 167.336089 
L 593.643956 167.699441 
L 595.483516 168.199051 
L 597.323077 170.697098 
L 599.162637 176.056546 
L 601.002198 173.92185 
L 602.841758 165.38307 
L 604.681319 169.334527 
L 606.520879 166.473127 
L 610.2 155.89049 
L 612.03956 168.153632 
L 613.879121 170.288327 
L 615.718681 170.15207 
L 617.558242 168.199051 
L 619.397802 166.836479 
L 621.237363 163.793403 
L 623.076923 166.33687 
L 624.916484 164.792622 
L 626.756044 171.605479 
L 628.595604 169.697879 
L 630.435165 168.062794 
L 632.274725 178.963364 
L 634.114286 169.470784 
L 635.953846 171.696317 
L 637.793407 168.380727 
L 639.632967 168.153632 
L 641.472527 161.840384 
L 643.312088 163.657146 
L 645.151648 154.028309 
L 646.991209 160.069042 
L 648.830769 158.343118 
L 650.67033 163.02128 
L 652.50989 157.75267 
L 654.349451 168.426146 
L 656.189011 165.701003 
L 658.028571 164.974299 
L 659.868132 166.155194 
L 661.707692 168.199051 
L 663.547253 117.284302 
L 665.386813 92.576341 
L 667.226374 93.666398 
L 669.065934 93.620979 
L 670.905495 90.123713 
L 672.745055 74.272466 
L 674.584615 157.75267 
L 676.424176 77.179285 
L 678.263736 81.72119 
L 681.942857 77.996828 
L 683.782418 82.674989 
L 685.621978 83.719628 
L 687.461538 78.178504 
L 689.301099 76.180066 
L 691.140659 157.888928 
L 692.98022 81.902866 
L 694.81978 80.494875 
L 696.659341 157.888928 
L 698.498901 144.308633 
L 700.338462 138.676672 
L 702.178022 135.996948 
L 704.017582 115.740054 
L 705.857143 68.685924 
L 707.696703 77.588056 
L 709.536264 74.726657 
L 713.215385 71.183971 
L 715.054945 71.047714 
L 716.894505 81.312418 
L 718.734066 81.130742 
L 720.573626 104.566969 
L 722.413187 96.391541 
L 724.252747 93.212208 
L 726.092308 91.940475 
L 727.931868 91.849637 
L 729.771429 93.166789 
L 731.610989 97.84495 
L 733.450549 81.085323 
L 735.29011 78.996047 
L 738.969231 78.36018 
L 740.808791 78.36018 
L 742.648352 95.074389 
L 744.487912 96.300703 
L 746.327473 91.486284 
L 748.167033 92.894275 
L 750.006593 93.57556 
L 751.846154 94.756455 
L 753.685714 91.849637 
L 755.525275 90.850418 
L 757.364835 104.703226 
L 759.204396 91.350027 
L 761.043956 92.212989 
L 762.883516 95.256065 
L 764.723077 95.210646 
L 766.562637 92.212989 
L 768.402198 95.074389 
L 770.241758 91.350027 
L 772.081319 95.664836 
L 773.920879 85.672646 
L 775.76044 90.986675 
L 777.6 88.216113 
L 777.6 88.216113 
" style="fill:none;stroke:#1f77b4;stroke-linecap:square;stroke-width:1.5;"/>
   </g>
   <g id="patch_3">
    <path d="M 108 384.48 
L 108 51.84 
" style="fill:none;stroke:#000000;stroke-linecap:square;stroke-linejoin:miter;stroke-width:0.8;"/>
   </g>
   <g id="patch_4">
    <path d="M 777.6 384.48 
L 777.6 51.84 
" style="fill:none;stroke:#000000;stroke-linecap:square;stroke-linejoin:miter;stroke-width:0.8;"/>
   </g>
   <g id="patch_5">
    <path d="M 108 384.48 
L 777.6 384.48 
" style="fill:none;stroke:#000000;stroke-linecap:square;stroke-linejoin:miter;stroke-width:0.8;"/>
   </g>
   <g id="patch_6">
    <path d="M 108 51.84 
L 777.6 51.84 
" style="fill:none;stroke:#000000;stroke-linecap:square;stroke-linejoin:miter;stroke-width:0.8;"/>
   </g>
   <g id="legend_1">
    <g id="patch_7">
     <path d="M 718.6 75.319687 
L 770.6 75.319687 
Q 772.6 75.319687 772.6 73.319687 
L 772.6 58.84 
Q 772.6 56.84 770.6 56.84 
L 718.6 56.84 
Q 716.6 56.84 716.6 58.84 
L 716.6 73.319687 
Q 716.6 75.319687 718.6 75.319687 
z
" style="fill:#ffffff;opacity:0.8;stroke:#cccccc;stroke-linejoin:miter;"/>
    </g>
    <g id="line2d_32">
     <path d="M 720.6 65.33375 
L 740.6 65.33375 
" style="fill:none;stroke:#1f77b4;stroke-linecap:square;stroke-width:1.5;"/>
    </g>
    <g id="line2d_33"/>
    <g id="text_17">
     <!-- 收盘 -->
     <defs>
      <path d="M 35.0625 41.546875 
Q 47.5625 63.234375 53.125 83.453125 
L 61.03125 81.203125 
Q 57.90625 72.171875 54.5 63.921875 
L 97.078125 63.921875 
L 97.078125 56.6875 
L 85.59375 56.6875 
Q 84.125 28.421875 71.09375 10.640625 
Q 81 1.859375 99.21875 -4.640625 
Q 96.1875 -8.453125 93.65625 -12.453125 
Q 76.265625 -5.03125 65.921875 4.6875 
Q 56.5 -4.59375 39.84375 -13.328125 
Q 37.796875 -10.109375 34.859375 -6.78125 
Q 51.515625 1.5625 60.59375 10.5 
Q 49.3125 24.609375 46 45.5625 
Q 43.265625 40.234375 40.328125 35.296875 
Q 38.484375 38.140625 35.0625 41.546875 
z
M 26.265625 82.671875 
L 33.6875 82.671875 
L 33.6875 -12.75 
L 26.265625 -12.75 
L 26.265625 17.390625 
Q 20.3125 14.0625 14.15625 10.015625 
Q 11.625 8.15625 9.1875 5.609375 
L 3.609375 12.15625 
Q 6.640625 15.375 6.640625 20.5625 
L 6.640625 69 
L 14.0625 69 
L 14.0625 19 
Q 19.875 22.078125 26.265625 25.53125 
z
M 77.875 56.6875 
L 51.90625 56.6875 
Q 53.328125 32.859375 65.671875 16.546875 
Q 76.8125 32.234375 77.875 56.6875 
z
" id="MicrosoftYaHei-6536"/>
      <path d="M 3.03125 51.515625 
L 20.0625 51.515625 
Q 20.515625 54.546875 20.40625 73.78125 
L 41.5 73.78125 
Q 43.265625 78.5625 44.53125 83.734375 
L 52.9375 81.6875 
Q 51.3125 77.828125 49.515625 73.78125 
L 83.890625 73.78125 
L 83.890625 51.515625 
L 97.265625 51.515625 
L 97.265625 45.0625 
L 83.890625 45.0625 
L 83.890625 37.84375 
Q 83.890625 26.703125 74.3125 26.609375 
Q 69.140625 26.515625 61.71875 26.8125 
Q 61.234375 30.328125 60.25 34.328125 
Q 66.40625 33.640625 71.578125 33.640625 
Q 76.46875 33.640625 76.46875 39.203125 
L 76.46875 45.0625 
L 26.65625 45.0625 
Q 24.03125 30.90625 9.28125 20.171875 
Q 6.546875 23.78125 3.90625 26.609375 
Q 15.828125 34.234375 18.890625 45.0625 
L 3.03125 45.0625 
z
M 1.765625 -2.984375 
L 14.453125 -2.984375 
L 14.453125 22.703125 
L 86.234375 22.703125 
L 86.234375 -2.984375 
L 98.34375 -2.984375 
L 98.34375 -9.421875 
L 1.765625 -9.421875 
z
M 76.46875 67.53125 
L 27.828125 67.53125 
Q 27.9375 57.859375 27.546875 51.515625 
L 76.46875 51.515625 
z
M 79 16.453125 
L 64.453125 16.453125 
L 64.453125 -2.984375 
L 79 -2.984375 
z
M 21.6875 -2.984375 
L 36.03125 -2.984375 
L 36.03125 16.453125 
L 21.6875 16.453125 
z
M 43.0625 -2.984375 
L 57.421875 -2.984375 
L 57.421875 16.453125 
L 43.0625 16.453125 
z
M 37.59375 38.53125 
L 41.609375 43.5 
Q 50.875 38.234375 57.328125 33.34375 
L 52.9375 27.59375 
Q 46.78125 32.671875 37.59375 38.53125 
z
M 41.40625 62.15625 
L 45.40625 67.140625 
Q 53.21875 62.75 59.96875 58.15625 
L 55.375 52.296875 
Q 48.640625 57.5625 41.40625 62.15625 
z
" id="MicrosoftYaHei-76d8"/>
     </defs>
     <g transform="translate(748.6 68.83375)scale(0.1 -0.1)">
      <use xlink:href="#MicrosoftYaHei-6536"/>
      <use x="100" xlink:href="#MicrosoftYaHei-76d8"/>
     </g>
    </g>
   </g>
  </g>
 </g>
 <defs>
  <clipPath id="pbdd4a9190f">
   <rect height="332.64" width="669.6" x="108" y="51.84"/>
  </clipPath>
 </defs>
</svg>
