<?xml version="1.0" encoding="utf-8" standalone="no"?>
<!DOCTYPE svg PUBLIC "-//W3C//DTD SVG 1.1//EN"
  "http://www.w3.org/Graphics/SVG/1.1/DTD/svg11.dtd">
<!-- Created with matplotlib (http://matplotlib.org/) -->
<svg height="432pt" version="1.1" viewBox="0 0 864 432" width="864pt" xmlns="http://www.w3.org/2000/svg" xmlns:xlink="http://www.w3.org/1999/xlink">
 <defs>
  <style type="text/css">
*{stroke-linecap:butt;stroke-linejoin:round;}
  </style>
 </defs>
 <g id="figure_1">
  <g id="patch_1">
   <path d="M 0 432 
L 864 432 
L 864 0 
L 0 0 
z
" style="fill:#ffffff;"/>
  </g>
  <g id="axes_1">
   <g id="patch_2">
    <path d="M 108 384.48 
L 777.6 384.48 
L 777.6 51.84 
L 108 51.84 
z
" style="fill:#ffffff;"/>
   </g>
   <g id="matplotlib.axis_1">
    <g id="xtick_1">
     <g id="line2d_1">
      <path clip-path="url(#p404a7eee4e)" d="M 108 384.48 
L 108 51.84 
" style="fill:none;stroke:#b0b0b0;stroke-linecap:square;stroke-width:0.8;"/>
     </g>
     <g id="line2d_2">
      <defs>
       <path d="M 0 0 
L 0 3.5 
" id="mb144f1554c" style="stroke:#000000;stroke-width:0.8;"/>
      </defs>
      <g>
       <use style="stroke:#000000;stroke-width:0.8;" x="108" xlink:href="#mb144f1554c" y="384.48"/>
      </g>
     </g>
     <g id="text_1">
      <!-- 2019年4月8日 -->
      <defs>
       <path d="M 51.171875 0 
L 5.171875 0 
L 5.171875 8.296875 
L 27.15625 30.21875 
Q 36.234375 39.3125 39.3125 44.609375 
Q 42.390625 49.90625 42.390625 55.5625 
Q 42.390625 62.015625 38.765625 65.453125 
Q 35.15625 68.890625 28.328125 68.890625 
Q 18.21875 68.890625 9.03125 60.296875 
L 9.03125 70.015625 
Q 17.96875 76.90625 29.828125 76.90625 
Q 40.046875 76.90625 45.953125 71.390625 
Q 51.859375 65.875 51.859375 56.546875 
Q 51.859375 49.515625 48.0625 42.75 
Q 44.28125 35.984375 33.734375 25.53125 
L 16.5 8.6875 
L 16.5 8.5 
L 51.171875 8.5 
z
" id="MicrosoftYaHei-32"/>
       <path d="M 4.4375 36.328125 
Q 4.4375 56.34375 11.078125 66.625 
Q 17.71875 76.90625 30.328125 76.90625 
Q 54.34375 76.90625 54.34375 38.140625 
Q 54.34375 19 47.578125 8.859375 
Q 40.828125 -1.265625 28.609375 -1.265625 
Q 17.09375 -1.265625 10.765625 8.34375 
Q 4.4375 17.96875 4.4375 36.328125 
z
M 14.203125 36.765625 
Q 14.203125 6.640625 29.5 6.640625 
Q 44.53125 6.640625 44.53125 37.25 
Q 44.53125 68.953125 29.78125 68.953125 
Q 14.203125 68.953125 14.203125 36.765625 
z
" id="MicrosoftYaHei-30"/>
       <path d="M 52.59375 0 
L 9.234375 0 
L 9.234375 8.25 
L 26.171875 8.25 
L 26.171875 65.671875 
L 8.796875 60.640625 
L 8.796875 69.4375 
L 35.6875 77.25 
L 35.6875 8.25 
L 52.59375 8.25 
z
" id="MicrosoftYaHei-31"/>
       <path d="M 9.03125 10.25 
Q 15.28125 6.640625 22.515625 6.640625 
Q 32.671875 6.640625 38.25 14.640625 
Q 43.84375 22.65625 43.84375 37.40625 
Q 43.75 37.3125 43.65625 37.40625 
Q 38.671875 27.9375 26.90625 27.9375 
Q 17.390625 27.9375 11.140625 34.46875 
Q 4.890625 41.015625 4.890625 51.46875 
Q 4.890625 62.59375 11.71875 69.75 
Q 18.5625 76.90625 29.4375 76.90625 
Q 40.71875 76.90625 47.0625 68.046875 
Q 53.421875 59.1875 53.421875 42.234375 
Q 53.421875 21.296875 45.21875 10.015625 
Q 37.015625 -1.265625 22.515625 -1.265625 
Q 14.546875 -1.265625 9.03125 1.3125 
z
M 14.546875 52.6875 
Q 14.546875 45.0625 18.453125 40.59375 
Q 22.359375 36.140625 29.25 36.140625 
Q 35.203125 36.140625 39.25 40.203125 
Q 43.3125 44.28125 43.3125 50.09375 
Q 43.3125 58.25 39.28125 63.59375 
Q 35.25 68.953125 28.65625 68.953125 
Q 22.5625 68.953125 18.546875 64.3125 
Q 14.546875 59.671875 14.546875 52.6875 
z
" id="MicrosoftYaHei-39"/>
       <path d="M 1.859375 19.96875 
L 17.578125 19.96875 
L 17.578125 47.90625 
L 52.15625 47.90625 
L 52.15625 65.28125 
L 23.4375 65.28125 
Q 16.84375 53.421875 8.6875 43.40625 
Q 6.15625 46.140625 2.640625 48.875 
Q 16.5 64.5 23.4375 83.9375 
L 31.453125 81.6875 
Q 29.390625 76.859375 27.15625 72.3125 
L 94.34375 72.3125 
L 94.34375 65.28125 
L 60.0625 65.28125 
L 60.0625 47.90625 
L 92.671875 47.90625 
L 92.671875 41.0625 
L 60.0625 41.0625 
L 60.0625 19.96875 
L 98.734375 19.96875 
L 98.734375 12.9375 
L 60.0625 12.9375 
L 60.0625 -13.421875 
L 52.15625 -13.421875 
L 52.15625 12.9375 
L 1.859375 12.9375 
z
M 25.296875 19.96875 
L 52.15625 19.96875 
L 52.15625 41.0625 
L 25.296875 41.0625 
z
" id="MicrosoftYaHei-5e74"/>
       <path d="M 55.078125 19.625 
L 45.40625 19.625 
L 45.40625 0 
L 36.140625 0 
L 36.140625 19.625 
L 0.875 19.625 
L 0.875 25.828125 
L 34.328125 75.640625 
L 45.40625 75.640625 
L 45.40625 27.203125 
L 55.078125 27.203125 
z
M 36.140625 27.203125 
L 36.140625 58.890625 
Q 36.140625 62.25 36.328125 66.65625 
L 36.140625 66.65625 
Q 35.453125 64.796875 33.25 60.84375 
L 10.75 27.203125 
z
" id="MicrosoftYaHei-34"/>
       <path d="M 25.046875 20.0625 
Q 22.859375 1.21875 10.359375 -14.015625 
Q 7.234375 -10.984375 3.609375 -8.15625 
Q 13.09375 2.09375 16.3125 16.265625 
Q 18.5625 26.703125 18.5625 45.171875 
L 18.5625 78.953125 
L 83.796875 78.953125 
L 83.796875 2.78125 
Q 83.796875 -11.671875 70.015625 -11.671875 
Q 64.265625 -11.671875 55.171875 -11.46875 
Q 54.6875 -7.953125 53.71875 -3.265625 
Q 62.703125 -3.859375 67.875 -3.859375 
Q 75.78125 -3.859375 75.78125 3.859375 
L 75.78125 20.0625 
z
M 25.828125 27.203125 
L 75.78125 27.203125 
L 75.78125 45.953125 
L 26.5625 45.953125 
Q 26.5625 36.1875 25.828125 27.203125 
z
M 26.5625 71.625 
L 26.5625 53.078125 
L 75.78125 53.078125 
L 75.78125 71.625 
z
" id="MicrosoftYaHei-6708"/>
       <path d="M 21.390625 39.796875 
Q 7.859375 46.09375 7.859375 58.0625 
Q 7.859375 66.40625 14.203125 71.65625 
Q 20.5625 76.90625 30.421875 76.90625 
Q 39.453125 76.90625 45.3125 71.96875 
Q 51.171875 67.046875 51.171875 59.234375 
Q 51.171875 46.625 37.0625 39.84375 
L 37.0625 39.65625 
Q 53.609375 33.6875 53.609375 19.34375 
Q 53.609375 9.90625 46.796875 4.3125 
Q 39.984375 -1.265625 27.78125 -1.265625 
Q 17.78125 -1.265625 11.46875 4.25 
Q 5.171875 9.765625 5.171875 18.5625 
Q 5.171875 33.015625 21.390625 39.59375 
z
M 41.5 58.109375 
Q 41.5 63.1875 38.328125 66.109375 
Q 35.15625 69.046875 29.734375 69.046875 
Q 24.65625 69.046875 21.09375 65.984375 
Q 17.53125 62.9375 17.53125 58.203125 
Q 17.53125 48.734375 29.390625 43.796875 
Q 41.5 48.828125 41.5 58.109375 
z
M 28.8125 35.25 
Q 14.796875 29.59375 14.796875 19.046875 
Q 14.796875 13.578125 18.890625 10.0625 
Q 23 6.546875 29.59375 6.546875 
Q 35.984375 6.546875 39.984375 10.03125 
Q 44 13.53125 44 18.75 
Q 44 29.734375 28.8125 35.25 
z
" id="MicrosoftYaHei-38"/>
       <path d="M 15.234375 76.703125 
L 84.859375 76.703125 
L 84.859375 -11.96875 
L 76.5625 -11.96875 
L 76.5625 -5.03125 
L 23.53125 -5.03125 
L 23.53125 -11.96875 
L 15.234375 -11.96875 
z
M 23.53125 32.859375 
L 23.53125 2.09375 
L 76.5625 2.09375 
L 76.5625 32.859375 
z
M 23.53125 69.390625 
L 23.53125 40.1875 
L 76.5625 40.1875 
L 76.5625 69.390625 
z
" id="MicrosoftYaHei-65e5"/>
      </defs>
      <g transform="translate(75.407813 399.47375)scale(0.1 -0.1)">
       <use xlink:href="#MicrosoftYaHei-32"/>
       <use x="58.642578" xlink:href="#MicrosoftYaHei-30"/>
       <use x="117.285156" xlink:href="#MicrosoftYaHei-31"/>
       <use x="175.927734" xlink:href="#MicrosoftYaHei-39"/>
       <use x="234.570312" xlink:href="#MicrosoftYaHei-5e74"/>
       <use x="334.570312" xlink:href="#MicrosoftYaHei-34"/>
       <use x="393.212891" xlink:href="#MicrosoftYaHei-6708"/>
       <use x="493.212891" xlink:href="#MicrosoftYaHei-38"/>
       <use x="551.855469" xlink:href="#MicrosoftYaHei-65e5"/>
      </g>
     </g>
    </g>
    <g id="xtick_2">
     <g id="line2d_3">
      <path clip-path="url(#p404a7eee4e)" d="M 183.235955 384.48 
L 183.235955 51.84 
" style="fill:none;stroke:#b0b0b0;stroke-linecap:square;stroke-width:0.8;"/>
     </g>
     <g id="line2d_4">
      <g>
       <use style="stroke:#000000;stroke-width:0.8;" x="183.235955" xlink:href="#mb144f1554c" y="384.48"/>
      </g>
     </g>
     <g id="text_2">
      <!-- 2019年5月21日 -->
      <defs>
       <path d="M 8.640625 11.625 
Q 16.265625 6.640625 24.515625 6.640625 
Q 32.328125 6.640625 37.109375 11 
Q 41.890625 15.375 41.890625 22.609375 
Q 41.890625 29.890625 37.03125 33.890625 
Q 32.171875 37.890625 22.953125 37.890625 
Q 18.5 37.890625 10.984375 37.203125 
L 10.984375 75.640625 
L 48.1875 75.640625 
L 48.1875 67.1875 
L 19.875 67.1875 
L 19.875 45.796875 
Q 24.125 46.046875 26.265625 46.046875 
Q 38.234375 46.046875 44.921875 39.984375 
Q 51.609375 33.9375 51.609375 23.296875 
Q 51.609375 12.3125 44.421875 5.515625 
Q 37.25 -1.265625 24.609375 -1.265625 
Q 14.015625 -1.265625 8.640625 1.859375 
z
" id="MicrosoftYaHei-35"/>
      </defs>
      <g transform="translate(147.711736 399.47375)scale(0.1 -0.1)">
       <use xlink:href="#MicrosoftYaHei-32"/>
       <use x="58.642578" xlink:href="#MicrosoftYaHei-30"/>
       <use x="117.285156" xlink:href="#MicrosoftYaHei-31"/>
       <use x="175.927734" xlink:href="#MicrosoftYaHei-39"/>
       <use x="234.570312" xlink:href="#MicrosoftYaHei-5e74"/>
       <use x="334.570312" xlink:href="#MicrosoftYaHei-35"/>
       <use x="393.212891" xlink:href="#MicrosoftYaHei-6708"/>
       <use x="493.212891" xlink:href="#MicrosoftYaHei-32"/>
       <use x="551.855469" xlink:href="#MicrosoftYaHei-31"/>
       <use x="610.498047" xlink:href="#MicrosoftYaHei-65e5"/>
      </g>
     </g>
    </g>
    <g id="xtick_3">
     <g id="line2d_5">
      <path clip-path="url(#p404a7eee4e)" d="M 258.47191 384.48 
L 258.47191 51.84 
" style="fill:none;stroke:#b0b0b0;stroke-linecap:square;stroke-width:0.8;"/>
     </g>
     <g id="line2d_6">
      <g>
       <use style="stroke:#000000;stroke-width:0.8;" x="258.47191" xlink:href="#mb144f1554c" y="384.48"/>
      </g>
     </g>
     <g id="text_3">
      <!-- 2019年5月3日 -->
      <defs>
       <path d="M 6.984375 12.640625 
Q 14.75 6.640625 24.515625 6.640625 
Q 32.328125 6.640625 36.890625 10.46875 
Q 41.453125 14.3125 41.453125 20.75 
Q 41.453125 35.109375 20.90625 35.109375 
L 14.59375 35.109375 
L 14.59375 43.015625 
L 20.609375 43.015625 
Q 38.8125 43.015625 38.8125 56.5 
Q 38.8125 68.953125 24.90625 68.953125 
Q 16.9375 68.953125 9.90625 63.578125 
L 9.90625 72.609375 
Q 17.328125 76.90625 27.25 76.90625 
Q 36.921875 76.90625 42.78125 71.84375 
Q 48.640625 66.796875 48.640625 58.734375 
Q 48.640625 43.890625 33.5 39.65625 
L 33.5 39.453125 
Q 41.703125 38.578125 46.453125 33.671875 
Q 51.21875 28.765625 51.21875 21.4375 
Q 51.21875 11.234375 43.875 4.984375 
Q 36.53125 -1.265625 24.3125 -1.265625 
Q 13.578125 -1.265625 6.984375 2.734375 
z
" id="MicrosoftYaHei-33"/>
      </defs>
      <g transform="translate(225.879723 399.47375)scale(0.1 -0.1)">
       <use xlink:href="#MicrosoftYaHei-32"/>
       <use x="58.642578" xlink:href="#MicrosoftYaHei-30"/>
       <use x="117.285156" xlink:href="#MicrosoftYaHei-31"/>
       <use x="175.927734" xlink:href="#MicrosoftYaHei-39"/>
       <use x="234.570312" xlink:href="#MicrosoftYaHei-5e74"/>
       <use x="334.570312" xlink:href="#MicrosoftYaHei-35"/>
       <use x="393.212891" xlink:href="#MicrosoftYaHei-6708"/>
       <use x="493.212891" xlink:href="#MicrosoftYaHei-33"/>
       <use x="551.855469" xlink:href="#MicrosoftYaHei-65e5"/>
      </g>
     </g>
    </g>
    <g id="xtick_4">
     <g id="line2d_7">
      <path clip-path="url(#p404a7eee4e)" d="M 333.707865 384.48 
L 333.707865 51.84 
" style="fill:none;stroke:#b0b0b0;stroke-linecap:square;stroke-width:0.8;"/>
     </g>
     <g id="line2d_8">
      <g>
       <use style="stroke:#000000;stroke-width:0.8;" x="333.707865" xlink:href="#mb144f1554c" y="384.48"/>
      </g>
     </g>
     <g id="text_4">
      <!-- 2019年6月17日 -->
      <defs>
       <path d="M 49.703125 65.921875 
Q 43.796875 68.953125 37.359375 68.953125 
Q 27.546875 68.953125 21.578125 60.40625 
Q 15.625 51.859375 15.53125 37.0625 
L 15.765625 37.0625 
Q 21.140625 47.46875 32.90625 47.46875 
Q 42.71875 47.46875 48.578125 41.0625 
Q 54.4375 34.671875 54.4375 24.078125 
Q 54.4375 12.984375 47.671875 5.859375 
Q 40.921875 -1.265625 30.421875 -1.265625 
Q 18.890625 -1.265625 12.328125 7.734375 
Q 5.765625 16.75 5.765625 33.296875 
Q 5.765625 53.328125 14.375 65.109375 
Q 23 76.90625 37.0625 76.90625 
Q 45.125 76.90625 49.703125 74.703125 
z
M 16.109375 24.75 
Q 16.109375 17.28125 20.09375 11.953125 
Q 24.078125 6.640625 30.671875 6.640625 
Q 36.921875 6.640625 40.828125 11.234375 
Q 44.734375 15.828125 44.734375 23.046875 
Q 44.734375 30.859375 41.046875 35.203125 
Q 37.359375 39.546875 30.5625 39.546875 
Q 24.125 39.546875 20.109375 35.15625 
Q 16.109375 30.765625 16.109375 24.75 
z
" id="MicrosoftYaHei-36"/>
       <path d="M 53.765625 72.3125 
L 24.171875 0 
L 14.265625 0 
L 42.390625 67.1875 
L 4.59375 67.1875 
L 4.59375 75.640625 
L 53.765625 75.640625 
z
" id="MicrosoftYaHei-37"/>
      </defs>
      <g transform="translate(298.183646 399.47375)scale(0.1 -0.1)">
       <use xlink:href="#MicrosoftYaHei-32"/>
       <use x="58.642578" xlink:href="#MicrosoftYaHei-30"/>
       <use x="117.285156" xlink:href="#MicrosoftYaHei-31"/>
       <use x="175.927734" xlink:href="#MicrosoftYaHei-39"/>
       <use x="234.570312" xlink:href="#MicrosoftYaHei-5e74"/>
       <use x="334.570312" xlink:href="#MicrosoftYaHei-36"/>
       <use x="393.212891" xlink:href="#MicrosoftYaHei-6708"/>
       <use x="493.212891" xlink:href="#MicrosoftYaHei-31"/>
       <use x="551.855469" xlink:href="#MicrosoftYaHei-37"/>
       <use x="610.498047" xlink:href="#MicrosoftYaHei-65e5"/>
      </g>
     </g>
    </g>
    <g id="xtick_5">
     <g id="line2d_9">
      <path clip-path="url(#p404a7eee4e)" d="M 408.94382 384.48 
L 408.94382 51.84 
" style="fill:none;stroke:#b0b0b0;stroke-linecap:square;stroke-width:0.8;"/>
     </g>
     <g id="line2d_10">
      <g>
       <use style="stroke:#000000;stroke-width:0.8;" x="408.94382" xlink:href="#mb144f1554c" y="384.48"/>
      </g>
     </g>
     <g id="text_5">
      <!-- 2019年6月3日 -->
      <g transform="translate(376.351633 399.47375)scale(0.1 -0.1)">
       <use xlink:href="#MicrosoftYaHei-32"/>
       <use x="58.642578" xlink:href="#MicrosoftYaHei-30"/>
       <use x="117.285156" xlink:href="#MicrosoftYaHei-31"/>
       <use x="175.927734" xlink:href="#MicrosoftYaHei-39"/>
       <use x="234.570312" xlink:href="#MicrosoftYaHei-5e74"/>
       <use x="334.570312" xlink:href="#MicrosoftYaHei-36"/>
       <use x="393.212891" xlink:href="#MicrosoftYaHei-6708"/>
       <use x="493.212891" xlink:href="#MicrosoftYaHei-33"/>
       <use x="551.855469" xlink:href="#MicrosoftYaHei-65e5"/>
      </g>
     </g>
    </g>
    <g id="xtick_6">
     <g id="line2d_11">
      <path clip-path="url(#p404a7eee4e)" d="M 484.179775 384.48 
L 484.179775 51.84 
" style="fill:none;stroke:#b0b0b0;stroke-linecap:square;stroke-width:0.8;"/>
     </g>
     <g id="line2d_12">
      <g>
       <use style="stroke:#000000;stroke-width:0.8;" x="484.179775" xlink:href="#mb144f1554c" y="384.48"/>
      </g>
     </g>
     <g id="text_6">
      <!-- 2019年7月17日 -->
      <g transform="translate(448.655557 399.47375)scale(0.1 -0.1)">
       <use xlink:href="#MicrosoftYaHei-32"/>
       <use x="58.642578" xlink:href="#MicrosoftYaHei-30"/>
       <use x="117.285156" xlink:href="#MicrosoftYaHei-31"/>
       <use x="175.927734" xlink:href="#MicrosoftYaHei-39"/>
       <use x="234.570312" xlink:href="#MicrosoftYaHei-5e74"/>
       <use x="334.570312" xlink:href="#MicrosoftYaHei-37"/>
       <use x="393.212891" xlink:href="#MicrosoftYaHei-6708"/>
       <use x="493.212891" xlink:href="#MicrosoftYaHei-31"/>
       <use x="551.855469" xlink:href="#MicrosoftYaHei-37"/>
       <use x="610.498047" xlink:href="#MicrosoftYaHei-65e5"/>
      </g>
     </g>
    </g>
    <g id="xtick_7">
     <g id="line2d_13">
      <path clip-path="url(#p404a7eee4e)" d="M 559.41573 384.48 
L 559.41573 51.84 
" style="fill:none;stroke:#b0b0b0;stroke-linecap:square;stroke-width:0.8;"/>
     </g>
     <g id="line2d_14">
      <g>
       <use style="stroke:#000000;stroke-width:0.8;" x="559.41573" xlink:href="#mb144f1554c" y="384.48"/>
      </g>
     </g>
     <g id="text_7">
      <!-- 2019年7月2日 -->
      <g transform="translate(526.823543 399.47375)scale(0.1 -0.1)">
       <use xlink:href="#MicrosoftYaHei-32"/>
       <use x="58.642578" xlink:href="#MicrosoftYaHei-30"/>
       <use x="117.285156" xlink:href="#MicrosoftYaHei-31"/>
       <use x="175.927734" xlink:href="#MicrosoftYaHei-39"/>
       <use x="234.570312" xlink:href="#MicrosoftYaHei-5e74"/>
       <use x="334.570312" xlink:href="#MicrosoftYaHei-37"/>
       <use x="393.212891" xlink:href="#MicrosoftYaHei-6708"/>
       <use x="493.212891" xlink:href="#MicrosoftYaHei-32"/>
       <use x="551.855469" xlink:href="#MicrosoftYaHei-65e5"/>
      </g>
     </g>
    </g>
    <g id="xtick_8">
     <g id="line2d_15">
      <path clip-path="url(#p404a7eee4e)" d="M 634.651685 384.48 
L 634.651685 51.84 
" style="fill:none;stroke:#b0b0b0;stroke-linecap:square;stroke-width:0.8;"/>
     </g>
     <g id="line2d_16">
      <g>
       <use style="stroke:#000000;stroke-width:0.8;" x="634.651685" xlink:href="#mb144f1554c" y="384.48"/>
      </g>
     </g>
     <g id="text_8">
      <!-- 2019年8月14日 -->
      <g transform="translate(599.127467 399.47375)scale(0.1 -0.1)">
       <use xlink:href="#MicrosoftYaHei-32"/>
       <use x="58.642578" xlink:href="#MicrosoftYaHei-30"/>
       <use x="117.285156" xlink:href="#MicrosoftYaHei-31"/>
       <use x="175.927734" xlink:href="#MicrosoftYaHei-39"/>
       <use x="234.570312" xlink:href="#MicrosoftYaHei-5e74"/>
       <use x="334.570312" xlink:href="#MicrosoftYaHei-38"/>
       <use x="393.212891" xlink:href="#MicrosoftYaHei-6708"/>
       <use x="493.212891" xlink:href="#MicrosoftYaHei-31"/>
       <use x="551.855469" xlink:href="#MicrosoftYaHei-34"/>
       <use x="610.498047" xlink:href="#MicrosoftYaHei-65e5"/>
      </g>
     </g>
    </g>
    <g id="xtick_9">
     <g id="line2d_17">
      <path clip-path="url(#p404a7eee4e)" d="M 709.88764 384.48 
L 709.88764 51.84 
" style="fill:none;stroke:#b0b0b0;stroke-linecap:square;stroke-width:0.8;"/>
     </g>
     <g id="line2d_18">
      <g>
       <use style="stroke:#000000;stroke-width:0.8;" x="709.88764" xlink:href="#mb144f1554c" y="384.48"/>
      </g>
     </g>
     <g id="text_9">
      <!-- 2019年8月27日 -->
      <g transform="translate(674.363422 399.47375)scale(0.1 -0.1)">
       <use xlink:href="#MicrosoftYaHei-32"/>
       <use x="58.642578" xlink:href="#MicrosoftYaHei-30"/>
       <use x="117.285156" xlink:href="#MicrosoftYaHei-31"/>
       <use x="175.927734" xlink:href="#MicrosoftYaHei-39"/>
       <use x="234.570312" xlink:href="#MicrosoftYaHei-5e74"/>
       <use x="334.570312" xlink:href="#MicrosoftYaHei-38"/>
       <use x="393.212891" xlink:href="#MicrosoftYaHei-6708"/>
       <use x="493.212891" xlink:href="#MicrosoftYaHei-32"/>
       <use x="551.855469" xlink:href="#MicrosoftYaHei-37"/>
       <use x="610.498047" xlink:href="#MicrosoftYaHei-65e5"/>
      </g>
     </g>
    </g>
    <g id="text_10">
     <!-- 日期 -->
     <defs>
      <path d="M 58.890625 79.15625 
L 93.453125 79.15625 
L 93.453125 -0.046875 
Q 93.453125 -11.578125 82.515625 -11.578125 
Q 77.046875 -11.578125 71.78125 -11.28125 
Q 71.390625 -8.0625 70.609375 -3.765625 
Q 77.734375 -4.4375 80.859375 -4.4375 
Q 86.234375 -4.4375 86.234375 0.921875 
L 86.234375 21.4375 
L 65.328125 21.4375 
Q 64.265625 0.046875 52.34375 -14.109375 
Q 49.703125 -11.375 46.484375 -8.640625 
Q 54.390625 0.4375 56.546875 10.203125 
Q 58.890625 19.578125 58.890625 42.828125 
z
M 1.953125 17.828125 
L 11.140625 17.828125 
L 11.140625 62.9375 
L 3.125 62.9375 
L 3.125 69.578125 
L 11.140625 69.578125 
L 11.140625 81.5 
L 18.359375 81.5 
L 18.359375 69.578125 
L 38.671875 69.578125 
L 38.671875 81.890625 
L 45.90625 81.890625 
L 45.90625 69.578125 
L 53.8125 69.578125 
L 53.8125 62.9375 
L 45.90625 62.9375 
L 45.90625 17.828125 
L 53.71875 17.828125 
L 53.71875 11.1875 
L 1.953125 11.1875 
z
M 65.765625 27.875 
L 86.234375 27.875 
L 86.234375 47.015625 
L 66.109375 47.015625 
Q 66.21875 34.421875 65.765625 27.875 
z
M 86.234375 72.515625 
L 66.109375 72.515625 
L 66.109375 53.46875 
L 86.234375 53.46875 
z
M 18.359375 17.828125 
L 38.671875 17.828125 
L 38.671875 28.765625 
L 18.359375 28.765625 
z
M 18.359375 35.015625 
L 38.671875 35.015625 
L 38.671875 45.84375 
L 18.359375 45.84375 
z
M 18.359375 52.09375 
L 38.671875 52.09375 
L 38.671875 62.9375 
L 18.359375 62.9375 
z
M 18.359375 9.328125 
L 24.3125 4.640625 
Q 14.453125 -6 6.34375 -13.234375 
Q 4.296875 -10.890625 1.171875 -8.0625 
Q 10.453125 -0.140625 18.359375 9.328125 
z
M 31.15625 4.734375 
L 35.84375 9.515625 
Q 42.671875 4.4375 48.734375 -0.734375 
L 43.5625 -6.296875 
Q 38.09375 -0.828125 31.15625 4.734375 
z
" id="MicrosoftYaHei-671f"/>
     </defs>
     <g transform="translate(432.8 413.953438)scale(0.1 -0.1)">
      <use xlink:href="#MicrosoftYaHei-65e5"/>
      <use x="100" xlink:href="#MicrosoftYaHei-671f"/>
     </g>
    </g>
   </g>
   <g id="matplotlib.axis_2">
    <g id="ytick_1">
     <g id="line2d_19">
      <path clip-path="url(#p404a7eee4e)" d="M 108 377.296833 
L 777.6 377.296833 
" style="fill:none;stroke:#b0b0b0;stroke-linecap:square;stroke-width:0.8;"/>
     </g>
     <g id="line2d_20">
      <defs>
       <path d="M 0 0 
L -3.5 0 
" id="m9c68a8dfea" style="stroke:#000000;stroke-width:0.8;"/>
      </defs>
      <g>
       <use style="stroke:#000000;stroke-width:0.8;" x="108" xlink:href="#m9c68a8dfea" y="377.296833"/>
      </g>
     </g>
     <g id="text_11">
      <!-- 6.7 -->
      <defs>
       <path d="M 5.8125 5.03125 
Q 5.8125 7.671875 7.609375 9.46875 
Q 9.421875 11.28125 12.109375 11.28125 
Q 14.84375 11.28125 16.640625 9.453125 
Q 18.453125 7.625 18.453125 5.03125 
Q 18.453125 2.484375 16.640625 0.65625 
Q 14.84375 -1.171875 12.0625 -1.171875 
Q 9.375 -1.171875 7.59375 0.65625 
Q 5.8125 2.484375 5.8125 5.03125 
z
" id="MicrosoftYaHei-2e"/>
      </defs>
      <g transform="translate(86.864063 381.293708)scale(0.1 -0.1)">
       <use xlink:href="#MicrosoftYaHei-36"/>
       <use x="58.642578" xlink:href="#MicrosoftYaHei-2e"/>
       <use x="82.714844" xlink:href="#MicrosoftYaHei-37"/>
      </g>
     </g>
    </g>
    <g id="ytick_2">
     <g id="line2d_21">
      <path clip-path="url(#p404a7eee4e)" d="M 108 310.600759 
L 777.6 310.600759 
" style="fill:none;stroke:#b0b0b0;stroke-linecap:square;stroke-width:0.8;"/>
     </g>
     <g id="line2d_22">
      <g>
       <use style="stroke:#000000;stroke-width:0.8;" x="108" xlink:href="#m9c68a8dfea" y="310.600759"/>
      </g>
     </g>
     <g id="text_12">
      <!-- 6.8 -->
      <g transform="translate(86.864063 314.597634)scale(0.1 -0.1)">
       <use xlink:href="#MicrosoftYaHei-36"/>
       <use x="58.642578" xlink:href="#MicrosoftYaHei-2e"/>
       <use x="82.714844" xlink:href="#MicrosoftYaHei-38"/>
      </g>
     </g>
    </g>
    <g id="ytick_3">
     <g id="line2d_23">
      <path clip-path="url(#p404a7eee4e)" d="M 108 243.904685 
L 777.6 243.904685 
" style="fill:none;stroke:#b0b0b0;stroke-linecap:square;stroke-width:0.8;"/>
     </g>
     <g id="line2d_24">
      <g>
       <use style="stroke:#000000;stroke-width:0.8;" x="108" xlink:href="#m9c68a8dfea" y="243.904685"/>
      </g>
     </g>
     <g id="text_13">
      <!-- 6.9 -->
      <g transform="translate(86.864063 247.90156)scale(0.1 -0.1)">
       <use xlink:href="#MicrosoftYaHei-36"/>
       <use x="58.642578" xlink:href="#MicrosoftYaHei-2e"/>
       <use x="82.714844" xlink:href="#MicrosoftYaHei-39"/>
      </g>
     </g>
    </g>
    <g id="ytick_4">
     <g id="line2d_25">
      <path clip-path="url(#p404a7eee4e)" d="M 108 177.20861 
L 777.6 177.20861 
" style="fill:none;stroke:#b0b0b0;stroke-linecap:square;stroke-width:0.8;"/>
     </g>
     <g id="line2d_26">
      <g>
       <use style="stroke:#000000;stroke-width:0.8;" x="108" xlink:href="#m9c68a8dfea" y="177.20861"/>
      </g>
     </g>
     <g id="text_14">
      <!-- 7.0 -->
      <g transform="translate(86.864063 181.205485)scale(0.1 -0.1)">
       <use xlink:href="#MicrosoftYaHei-37"/>
       <use x="58.642578" xlink:href="#MicrosoftYaHei-2e"/>
       <use x="82.714844" xlink:href="#MicrosoftYaHei-30"/>
      </g>
     </g>
    </g>
    <g id="ytick_5">
     <g id="line2d_27">
      <path clip-path="url(#p404a7eee4e)" d="M 108 110.512536 
L 777.6 110.512536 
" style="fill:none;stroke:#b0b0b0;stroke-linecap:square;stroke-width:0.8;"/>
     </g>
     <g id="line2d_28">
      <g>
       <use style="stroke:#000000;stroke-width:0.8;" x="108" xlink:href="#m9c68a8dfea" y="110.512536"/>
      </g>
     </g>
     <g id="text_15">
      <!-- 7.1 -->
      <g transform="translate(86.864063 114.509411)scale(0.1 -0.1)">
       <use xlink:href="#MicrosoftYaHei-37"/>
       <use x="58.642578" xlink:href="#MicrosoftYaHei-2e"/>
       <use x="82.714844" xlink:href="#MicrosoftYaHei-31"/>
      </g>
     </g>
    </g>
   </g>
   <g id="line2d_29">
    <path clip-path="url(#p404a7eee4e)" d="M 108 366.358677 
L 115.523596 369.36 
L 123.047191 294.593701 
L 130.570787 258.311037 
L 138.094382 259.911742 
L 145.617978 259.845046 
L 153.141573 254.709449 
L 160.665169 231.432519 
L 168.188764 354.019903 
L 175.71236 235.701067 
L 183.235955 242.370675 
L 190.759551 239.636136 
L 198.283146 236.901597 
L 205.806742 243.771292 
L 213.330337 245.305302 
L 220.853933 237.168381 
L 228.377528 234.233754 
L 235.901124 354.219991 
L 243.424719 242.637459 
L 250.948315 240.569881 
L 258.47191 354.219991 
L 265.995506 334.277865 
L 273.519101 326.007552 
L 281.042697 322.072483 
L 288.566292 292.326034 
L 296.089888 223.228902 
L 303.613483 236.301332 
L 311.137079 232.099479 
L 318.660674 229.498333 
L 326.18427 226.897186 
L 333.707865 226.697097 
L 341.231461 241.77041 
L 348.755056 241.503626 
L 356.278652 275.9188 
L 363.802247 263.913507 
L 371.325843 259.244782 
L 378.849438 257.377292 
L 386.373034 257.243899 
L 393.896629 259.178086 
L 401.420225 266.047781 
L 408.94382 241.43693 
L 416.467416 238.36891 
L 423.991011 237.835342 
L 431.514607 237.435165 
L 439.038202 237.435165 
L 446.561798 261.979321 
L 454.085393 263.780115 
L 461.608989 256.710331 
L 469.132584 258.777909 
L 476.65618 259.77835 
L 484.179775 261.512448 
L 491.703371 257.243899 
L 499.226966 255.776586 
L 506.750562 276.118888 
L 514.274157 256.510243 
L 521.797753 257.777468 
L 529.321348 262.246105 
L 536.844944 262.179409 
L 544.368539 257.777468 
L 551.892135 248.306625 
L 559.41573 261.979321 
L 566.939326 254.242576 
L 574.462921 254.50936 
L 581.986517 256.510243 
L 589.510112 262.84637 
L 597.033708 248.173233 
L 604.557303 255.976674 
L 612.080899 251.908213 
L 619.604494 138.391495 
L 627.12809 148.195818 
L 634.651685 160.934768 
L 642.175281 154.531945 
L 649.698876 148.662691 
L 657.222472 143.393701 
L 664.746067 244.83843 
L 672.269663 136.857486 
L 679.793258 135.056692 
L 687.316854 121.450693 
L 694.840449 113.180379 
L 702.364045 76.29745 
L 709.88764 68.960882 
L 717.411236 66.96 
L 724.934831 80.832783 
L 732.458427 216.892775 
L 739.982022 72.629166 
L 747.505618 143.327005 
L 755.029213 159.600847 
L 762.552809 137.057574 
L 770.076404 147.128681 
L 777.6 135.59026 
" style="fill:none;stroke:#1f77b4;stroke-linecap:square;stroke-width:1.5;"/>
    <defs>
     <path d="M 0 1.5 
C 0.397805 1.5 0.77937 1.341951 1.06066 1.06066 
C 1.341951 0.77937 1.5 0.397805 1.5 0 
C 1.5 -0.397805 1.341951 -0.77937 1.06066 -1.06066 
C 0.77937 -1.341951 0.397805 -1.5 0 -1.5 
C -0.397805 -1.5 -0.77937 -1.341951 -1.06066 -1.06066 
C -1.341951 -0.77937 -1.5 -0.397805 -1.5 0 
C -1.5 0.397805 -1.341951 0.77937 -1.06066 1.06066 
C -0.77937 1.341951 -0.397805 1.5 0 1.5 
z
" id="me8aa78a7b1" style="stroke:#1f77b4;"/>
    </defs>
    <g clip-path="url(#p404a7eee4e)">
     <use style="fill:#1f77b4;stroke:#1f77b4;" x="108" xlink:href="#me8aa78a7b1" y="366.358677"/>
     <use style="fill:#1f77b4;stroke:#1f77b4;" x="115.523596" xlink:href="#me8aa78a7b1" y="369.36"/>
     <use style="fill:#1f77b4;stroke:#1f77b4;" x="123.047191" xlink:href="#me8aa78a7b1" y="294.593701"/>
     <use style="fill:#1f77b4;stroke:#1f77b4;" x="130.570787" xlink:href="#me8aa78a7b1" y="258.311037"/>
     <use style="fill:#1f77b4;stroke:#1f77b4;" x="138.094382" xlink:href="#me8aa78a7b1" y="259.911742"/>
     <use style="fill:#1f77b4;stroke:#1f77b4;" x="145.617978" xlink:href="#me8aa78a7b1" y="259.845046"/>
     <use style="fill:#1f77b4;stroke:#1f77b4;" x="153.141573" xlink:href="#me8aa78a7b1" y="254.709449"/>
     <use style="fill:#1f77b4;stroke:#1f77b4;" x="160.665169" xlink:href="#me8aa78a7b1" y="231.432519"/>
     <use style="fill:#1f77b4;stroke:#1f77b4;" x="168.188764" xlink:href="#me8aa78a7b1" y="354.019903"/>
     <use style="fill:#1f77b4;stroke:#1f77b4;" x="175.71236" xlink:href="#me8aa78a7b1" y="235.701067"/>
     <use style="fill:#1f77b4;stroke:#1f77b4;" x="183.235955" xlink:href="#me8aa78a7b1" y="242.370675"/>
     <use style="fill:#1f77b4;stroke:#1f77b4;" x="190.759551" xlink:href="#me8aa78a7b1" y="239.636136"/>
     <use style="fill:#1f77b4;stroke:#1f77b4;" x="198.283146" xlink:href="#me8aa78a7b1" y="236.901597"/>
     <use style="fill:#1f77b4;stroke:#1f77b4;" x="205.806742" xlink:href="#me8aa78a7b1" y="243.771292"/>
     <use style="fill:#1f77b4;stroke:#1f77b4;" x="213.330337" xlink:href="#me8aa78a7b1" y="245.305302"/>
     <use style="fill:#1f77b4;stroke:#1f77b4;" x="220.853933" xlink:href="#me8aa78a7b1" y="237.168381"/>
     <use style="fill:#1f77b4;stroke:#1f77b4;" x="228.377528" xlink:href="#me8aa78a7b1" y="234.233754"/>
     <use style="fill:#1f77b4;stroke:#1f77b4;" x="235.901124" xlink:href="#me8aa78a7b1" y="354.219991"/>
     <use style="fill:#1f77b4;stroke:#1f77b4;" x="243.424719" xlink:href="#me8aa78a7b1" y="242.637459"/>
     <use style="fill:#1f77b4;stroke:#1f77b4;" x="250.948315" xlink:href="#me8aa78a7b1" y="240.569881"/>
     <use style="fill:#1f77b4;stroke:#1f77b4;" x="258.47191" xlink:href="#me8aa78a7b1" y="354.219991"/>
     <use style="fill:#1f77b4;stroke:#1f77b4;" x="265.995506" xlink:href="#me8aa78a7b1" y="334.277865"/>
     <use style="fill:#1f77b4;stroke:#1f77b4;" x="273.519101" xlink:href="#me8aa78a7b1" y="326.007552"/>
     <use style="fill:#1f77b4;stroke:#1f77b4;" x="281.042697" xlink:href="#me8aa78a7b1" y="322.072483"/>
     <use style="fill:#1f77b4;stroke:#1f77b4;" x="288.566292" xlink:href="#me8aa78a7b1" y="292.326034"/>
     <use style="fill:#1f77b4;stroke:#1f77b4;" x="296.089888" xlink:href="#me8aa78a7b1" y="223.228902"/>
     <use style="fill:#1f77b4;stroke:#1f77b4;" x="303.613483" xlink:href="#me8aa78a7b1" y="236.301332"/>
     <use style="fill:#1f77b4;stroke:#1f77b4;" x="311.137079" xlink:href="#me8aa78a7b1" y="232.099479"/>
     <use style="fill:#1f77b4;stroke:#1f77b4;" x="318.660674" xlink:href="#me8aa78a7b1" y="229.498333"/>
     <use style="fill:#1f77b4;stroke:#1f77b4;" x="326.18427" xlink:href="#me8aa78a7b1" y="226.897186"/>
     <use style="fill:#1f77b4;stroke:#1f77b4;" x="333.707865" xlink:href="#me8aa78a7b1" y="226.697097"/>
     <use style="fill:#1f77b4;stroke:#1f77b4;" x="341.231461" xlink:href="#me8aa78a7b1" y="241.77041"/>
     <use style="fill:#1f77b4;stroke:#1f77b4;" x="348.755056" xlink:href="#me8aa78a7b1" y="241.503626"/>
     <use style="fill:#1f77b4;stroke:#1f77b4;" x="356.278652" xlink:href="#me8aa78a7b1" y="275.9188"/>
     <use style="fill:#1f77b4;stroke:#1f77b4;" x="363.802247" xlink:href="#me8aa78a7b1" y="263.913507"/>
     <use style="fill:#1f77b4;stroke:#1f77b4;" x="371.325843" xlink:href="#me8aa78a7b1" y="259.244782"/>
     <use style="fill:#1f77b4;stroke:#1f77b4;" x="378.849438" xlink:href="#me8aa78a7b1" y="257.377292"/>
     <use style="fill:#1f77b4;stroke:#1f77b4;" x="386.373034" xlink:href="#me8aa78a7b1" y="257.243899"/>
     <use style="fill:#1f77b4;stroke:#1f77b4;" x="393.896629" xlink:href="#me8aa78a7b1" y="259.178086"/>
     <use style="fill:#1f77b4;stroke:#1f77b4;" x="401.420225" xlink:href="#me8aa78a7b1" y="266.047781"/>
     <use style="fill:#1f77b4;stroke:#1f77b4;" x="408.94382" xlink:href="#me8aa78a7b1" y="241.43693"/>
     <use style="fill:#1f77b4;stroke:#1f77b4;" x="416.467416" xlink:href="#me8aa78a7b1" y="238.36891"/>
     <use style="fill:#1f77b4;stroke:#1f77b4;" x="423.991011" xlink:href="#me8aa78a7b1" y="237.835342"/>
     <use style="fill:#1f77b4;stroke:#1f77b4;" x="431.514607" xlink:href="#me8aa78a7b1" y="237.435165"/>
     <use style="fill:#1f77b4;stroke:#1f77b4;" x="439.038202" xlink:href="#me8aa78a7b1" y="237.435165"/>
     <use style="fill:#1f77b4;stroke:#1f77b4;" x="446.561798" xlink:href="#me8aa78a7b1" y="261.979321"/>
     <use style="fill:#1f77b4;stroke:#1f77b4;" x="454.085393" xlink:href="#me8aa78a7b1" y="263.780115"/>
     <use style="fill:#1f77b4;stroke:#1f77b4;" x="461.608989" xlink:href="#me8aa78a7b1" y="256.710331"/>
     <use style="fill:#1f77b4;stroke:#1f77b4;" x="469.132584" xlink:href="#me8aa78a7b1" y="258.777909"/>
     <use style="fill:#1f77b4;stroke:#1f77b4;" x="476.65618" xlink:href="#me8aa78a7b1" y="259.77835"/>
     <use style="fill:#1f77b4;stroke:#1f77b4;" x="484.179775" xlink:href="#me8aa78a7b1" y="261.512448"/>
     <use style="fill:#1f77b4;stroke:#1f77b4;" x="491.703371" xlink:href="#me8aa78a7b1" y="257.243899"/>
     <use style="fill:#1f77b4;stroke:#1f77b4;" x="499.226966" xlink:href="#me8aa78a7b1" y="255.776586"/>
     <use style="fill:#1f77b4;stroke:#1f77b4;" x="506.750562" xlink:href="#me8aa78a7b1" y="276.118888"/>
     <use style="fill:#1f77b4;stroke:#1f77b4;" x="514.274157" xlink:href="#me8aa78a7b1" y="256.510243"/>
     <use style="fill:#1f77b4;stroke:#1f77b4;" x="521.797753" xlink:href="#me8aa78a7b1" y="257.777468"/>
     <use style="fill:#1f77b4;stroke:#1f77b4;" x="529.321348" xlink:href="#me8aa78a7b1" y="262.246105"/>
     <use style="fill:#1f77b4;stroke:#1f77b4;" x="536.844944" xlink:href="#me8aa78a7b1" y="262.179409"/>
     <use style="fill:#1f77b4;stroke:#1f77b4;" x="544.368539" xlink:href="#me8aa78a7b1" y="257.777468"/>
     <use style="fill:#1f77b4;stroke:#1f77b4;" x="551.892135" xlink:href="#me8aa78a7b1" y="248.306625"/>
     <use style="fill:#1f77b4;stroke:#1f77b4;" x="559.41573" xlink:href="#me8aa78a7b1" y="261.979321"/>
     <use style="fill:#1f77b4;stroke:#1f77b4;" x="566.939326" xlink:href="#me8aa78a7b1" y="254.242576"/>
     <use style="fill:#1f77b4;stroke:#1f77b4;" x="574.462921" xlink:href="#me8aa78a7b1" y="254.50936"/>
     <use style="fill:#1f77b4;stroke:#1f77b4;" x="581.986517" xlink:href="#me8aa78a7b1" y="256.510243"/>
     <use style="fill:#1f77b4;stroke:#1f77b4;" x="589.510112" xlink:href="#me8aa78a7b1" y="262.84637"/>
     <use style="fill:#1f77b4;stroke:#1f77b4;" x="597.033708" xlink:href="#me8aa78a7b1" y="248.173233"/>
     <use style="fill:#1f77b4;stroke:#1f77b4;" x="604.557303" xlink:href="#me8aa78a7b1" y="255.976674"/>
     <use style="fill:#1f77b4;stroke:#1f77b4;" x="612.080899" xlink:href="#me8aa78a7b1" y="251.908213"/>
     <use style="fill:#1f77b4;stroke:#1f77b4;" x="619.604494" xlink:href="#me8aa78a7b1" y="138.391495"/>
     <use style="fill:#1f77b4;stroke:#1f77b4;" x="627.12809" xlink:href="#me8aa78a7b1" y="148.195818"/>
     <use style="fill:#1f77b4;stroke:#1f77b4;" x="634.651685" xlink:href="#me8aa78a7b1" y="160.934768"/>
     <use style="fill:#1f77b4;stroke:#1f77b4;" x="642.175281" xlink:href="#me8aa78a7b1" y="154.531945"/>
     <use style="fill:#1f77b4;stroke:#1f77b4;" x="649.698876" xlink:href="#me8aa78a7b1" y="148.662691"/>
     <use style="fill:#1f77b4;stroke:#1f77b4;" x="657.222472" xlink:href="#me8aa78a7b1" y="143.393701"/>
     <use style="fill:#1f77b4;stroke:#1f77b4;" x="664.746067" xlink:href="#me8aa78a7b1" y="244.83843"/>
     <use style="fill:#1f77b4;stroke:#1f77b4;" x="672.269663" xlink:href="#me8aa78a7b1" y="136.857486"/>
     <use style="fill:#1f77b4;stroke:#1f77b4;" x="679.793258" xlink:href="#me8aa78a7b1" y="135.056692"/>
     <use style="fill:#1f77b4;stroke:#1f77b4;" x="687.316854" xlink:href="#me8aa78a7b1" y="121.450693"/>
     <use style="fill:#1f77b4;stroke:#1f77b4;" x="694.840449" xlink:href="#me8aa78a7b1" y="113.180379"/>
     <use style="fill:#1f77b4;stroke:#1f77b4;" x="702.364045" xlink:href="#me8aa78a7b1" y="76.29745"/>
     <use style="fill:#1f77b4;stroke:#1f77b4;" x="709.88764" xlink:href="#me8aa78a7b1" y="68.960882"/>
     <use style="fill:#1f77b4;stroke:#1f77b4;" x="717.411236" xlink:href="#me8aa78a7b1" y="66.96"/>
     <use style="fill:#1f77b4;stroke:#1f77b4;" x="724.934831" xlink:href="#me8aa78a7b1" y="80.832783"/>
     <use style="fill:#1f77b4;stroke:#1f77b4;" x="732.458427" xlink:href="#me8aa78a7b1" y="216.892775"/>
     <use style="fill:#1f77b4;stroke:#1f77b4;" x="739.982022" xlink:href="#me8aa78a7b1" y="72.629166"/>
     <use style="fill:#1f77b4;stroke:#1f77b4;" x="747.505618" xlink:href="#me8aa78a7b1" y="143.327005"/>
     <use style="fill:#1f77b4;stroke:#1f77b4;" x="755.029213" xlink:href="#me8aa78a7b1" y="159.600847"/>
     <use style="fill:#1f77b4;stroke:#1f77b4;" x="762.552809" xlink:href="#me8aa78a7b1" y="137.057574"/>
     <use style="fill:#1f77b4;stroke:#1f77b4;" x="770.076404" xlink:href="#me8aa78a7b1" y="147.128681"/>
     <use style="fill:#1f77b4;stroke:#1f77b4;" x="777.6" xlink:href="#me8aa78a7b1" y="135.59026"/>
    </g>
   </g>
   <g id="patch_3">
    <path d="M 108 384.48 
L 108 51.84 
" style="fill:none;stroke:#000000;stroke-linecap:square;stroke-linejoin:miter;stroke-width:0.8;"/>
   </g>
   <g id="patch_4">
    <path d="M 777.6 384.48 
L 777.6 51.84 
" style="fill:none;stroke:#000000;stroke-linecap:square;stroke-linejoin:miter;stroke-width:0.8;"/>
   </g>
   <g id="patch_5">
    <path d="M 108 384.48 
L 777.6 384.48 
" style="fill:none;stroke:#000000;stroke-linecap:square;stroke-linejoin:miter;stroke-width:0.8;"/>
   </g>
   <g id="patch_6">
    <path d="M 108 51.84 
L 777.6 51.84 
" style="fill:none;stroke:#000000;stroke-linecap:square;stroke-linejoin:miter;stroke-width:0.8;"/>
   </g>
   <g id="legend_1">
    <g id="patch_7">
     <path d="M 115 75.319687 
L 167 75.319687 
Q 169 75.319687 169 73.319687 
L 169 58.84 
Q 169 56.84 167 56.84 
L 115 56.84 
Q 113 56.84 113 58.84 
L 113 73.319687 
Q 113 75.319687 115 75.319687 
z
" style="fill:#ffffff;opacity:0.8;stroke:#cccccc;stroke-linejoin:miter;"/>
    </g>
    <g id="line2d_30">
     <path d="M 117 65.33375 
L 137 65.33375 
" style="fill:none;stroke:#1f77b4;stroke-linecap:square;stroke-width:1.5;"/>
    </g>
    <g id="line2d_31">
     <g>
      <use style="fill:#1f77b4;stroke:#1f77b4;" x="127" xlink:href="#me8aa78a7b1" y="65.33375"/>
     </g>
    </g>
    <g id="text_16">
     <!-- 收盘 -->
     <defs>
      <path d="M 35.0625 41.546875 
Q 47.5625 63.234375 53.125 83.453125 
L 61.03125 81.203125 
Q 57.90625 72.171875 54.5 63.921875 
L 97.078125 63.921875 
L 97.078125 56.6875 
L 85.59375 56.6875 
Q 84.125 28.421875 71.09375 10.640625 
Q 81 1.859375 99.21875 -4.640625 
Q 96.1875 -8.453125 93.65625 -12.453125 
Q 76.265625 -5.03125 65.921875 4.6875 
Q 56.5 -4.59375 39.84375 -13.328125 
Q 37.796875 -10.109375 34.859375 -6.78125 
Q 51.515625 1.5625 60.59375 10.5 
Q 49.3125 24.609375 46 45.5625 
Q 43.265625 40.234375 40.328125 35.296875 
Q 38.484375 38.140625 35.0625 41.546875 
z
M 26.265625 82.671875 
L 33.6875 82.671875 
L 33.6875 -12.75 
L 26.265625 -12.75 
L 26.265625 17.390625 
Q 20.3125 14.0625 14.15625 10.015625 
Q 11.625 8.15625 9.1875 5.609375 
L 3.609375 12.15625 
Q 6.640625 15.375 6.640625 20.5625 
L 6.640625 69 
L 14.0625 69 
L 14.0625 19 
Q 19.875 22.078125 26.265625 25.53125 
z
M 77.875 56.6875 
L 51.90625 56.6875 
Q 53.328125 32.859375 65.671875 16.546875 
Q 76.8125 32.234375 77.875 56.6875 
z
" id="MicrosoftYaHei-6536"/>
      <path d="M 3.03125 51.515625 
L 20.0625 51.515625 
Q 20.515625 54.546875 20.40625 73.78125 
L 41.5 73.78125 
Q 43.265625 78.5625 44.53125 83.734375 
L 52.9375 81.6875 
Q 51.3125 77.828125 49.515625 73.78125 
L 83.890625 73.78125 
L 83.890625 51.515625 
L 97.265625 51.515625 
L 97.265625 45.0625 
L 83.890625 45.0625 
L 83.890625 37.84375 
Q 83.890625 26.703125 74.3125 26.609375 
Q 69.140625 26.515625 61.71875 26.8125 
Q 61.234375 30.328125 60.25 34.328125 
Q 66.40625 33.640625 71.578125 33.640625 
Q 76.46875 33.640625 76.46875 39.203125 
L 76.46875 45.0625 
L 26.65625 45.0625 
Q 24.03125 30.90625 9.28125 20.171875 
Q 6.546875 23.78125 3.90625 26.609375 
Q 15.828125 34.234375 18.890625 45.0625 
L 3.03125 45.0625 
z
M 1.765625 -2.984375 
L 14.453125 -2.984375 
L 14.453125 22.703125 
L 86.234375 22.703125 
L 86.234375 -2.984375 
L 98.34375 -2.984375 
L 98.34375 -9.421875 
L 1.765625 -9.421875 
z
M 76.46875 67.53125 
L 27.828125 67.53125 
Q 27.9375 57.859375 27.546875 51.515625 
L 76.46875 51.515625 
z
M 79 16.453125 
L 64.453125 16.453125 
L 64.453125 -2.984375 
L 79 -2.984375 
z
M 21.6875 -2.984375 
L 36.03125 -2.984375 
L 36.03125 16.453125 
L 21.6875 16.453125 
z
M 43.0625 -2.984375 
L 57.421875 -2.984375 
L 57.421875 16.453125 
L 43.0625 16.453125 
z
M 37.59375 38.53125 
L 41.609375 43.5 
Q 50.875 38.234375 57.328125 33.34375 
L 52.9375 27.59375 
Q 46.78125 32.671875 37.59375 38.53125 
z
M 41.40625 62.15625 
L 45.40625 67.140625 
Q 53.21875 62.75 59.96875 58.15625 
L 55.375 52.296875 
Q 48.640625 57.5625 41.40625 62.15625 
z
" id="MicrosoftYaHei-76d8"/>
     </defs>
     <g transform="translate(145 68.83375)scale(0.1 -0.1)">
      <use xlink:href="#MicrosoftYaHei-6536"/>
      <use x="100" xlink:href="#MicrosoftYaHei-76d8"/>
     </g>
    </g>
   </g>
  </g>
 </g>
 <defs>
  <clipPath id="p404a7eee4e">
   <rect height="332.64" width="669.6" x="108" y="51.84"/>
  </clipPath>
 </defs>
</svg>
