<?xml version="1.0" encoding="utf-8" standalone="no"?>
<!DOCTYPE svg PUBLIC "-//W3C//DTD SVG 1.1//EN"
  "http://www.w3.org/Graphics/SVG/1.1/DTD/svg11.dtd">
<!-- Created with matplotlib (http://matplotlib.org/) -->
<svg height="432pt" version="1.1" viewBox="0 0 864 432" width="864pt" xmlns="http://www.w3.org/2000/svg" xmlns:xlink="http://www.w3.org/1999/xlink">
 <defs>
  <style type="text/css">
*{stroke-linecap:butt;stroke-linejoin:round;}
  </style>
 </defs>
 <g id="figure_1">
  <g id="patch_1">
   <path d="M 0 432 
L 864 432 
L 864 0 
L 0 0 
z
" style="fill:#ffffff;"/>
  </g>
  <g id="axes_1">
   <g id="patch_2">
    <path d="M 108 384.48 
L 777.6 384.48 
L 777.6 51.84 
L 108 51.84 
z
" style="fill:#ffffff;"/>
   </g>
   <g id="matplotlib.axis_1">
    <g id="xtick_1">
     <g id="line2d_1">
      <path clip-path="url(#pe5d778082d)" d="M 108 384.48 
L 108 51.84 
" style="fill:none;stroke:#b0b0b0;stroke-linecap:square;stroke-width:0.8;"/>
     </g>
     <g id="line2d_2">
      <defs>
       <path d="M 0 0 
L 0 3.5 
" id="mfc2dd19f02" style="stroke:#000000;stroke-width:0.8;"/>
      </defs>
      <g>
       <use style="stroke:#000000;stroke-width:0.8;" x="108" xlink:href="#mfc2dd19f02" y="384.48"/>
      </g>
     </g>
     <g id="text_1">
      <!-- 2008年01月份 -->
      <defs>
       <path d="M 51.171875 0 
L 5.171875 0 
L 5.171875 8.296875 
L 27.15625 30.21875 
Q 36.234375 39.3125 39.3125 44.609375 
Q 42.390625 49.90625 42.390625 55.5625 
Q 42.390625 62.015625 38.765625 65.453125 
Q 35.15625 68.890625 28.328125 68.890625 
Q 18.21875 68.890625 9.03125 60.296875 
L 9.03125 70.015625 
Q 17.96875 76.90625 29.828125 76.90625 
Q 40.046875 76.90625 45.953125 71.390625 
Q 51.859375 65.875 51.859375 56.546875 
Q 51.859375 49.515625 48.0625 42.75 
Q 44.28125 35.984375 33.734375 25.53125 
L 16.5 8.6875 
L 16.5 8.5 
L 51.171875 8.5 
z
" id="MicrosoftYaHei-32"/>
       <path d="M 4.4375 36.328125 
Q 4.4375 56.34375 11.078125 66.625 
Q 17.71875 76.90625 30.328125 76.90625 
Q 54.34375 76.90625 54.34375 38.140625 
Q 54.34375 19 47.578125 8.859375 
Q 40.828125 -1.265625 28.609375 -1.265625 
Q 17.09375 -1.265625 10.765625 8.34375 
Q 4.4375 17.96875 4.4375 36.328125 
z
M 14.203125 36.765625 
Q 14.203125 6.640625 29.5 6.640625 
Q 44.53125 6.640625 44.53125 37.25 
Q 44.53125 68.953125 29.78125 68.953125 
Q 14.203125 68.953125 14.203125 36.765625 
z
" id="MicrosoftYaHei-30"/>
       <path d="M 21.390625 39.796875 
Q 7.859375 46.09375 7.859375 58.0625 
Q 7.859375 66.40625 14.203125 71.65625 
Q 20.5625 76.90625 30.421875 76.90625 
Q 39.453125 76.90625 45.3125 71.96875 
Q 51.171875 67.046875 51.171875 59.234375 
Q 51.171875 46.625 37.0625 39.84375 
L 37.0625 39.65625 
Q 53.609375 33.6875 53.609375 19.34375 
Q 53.609375 9.90625 46.796875 4.3125 
Q 39.984375 -1.265625 27.78125 -1.265625 
Q 17.78125 -1.265625 11.46875 4.25 
Q 5.171875 9.765625 5.171875 18.5625 
Q 5.171875 33.015625 21.390625 39.59375 
z
M 41.5 58.109375 
Q 41.5 63.1875 38.328125 66.109375 
Q 35.15625 69.046875 29.734375 69.046875 
Q 24.65625 69.046875 21.09375 65.984375 
Q 17.53125 62.9375 17.53125 58.203125 
Q 17.53125 48.734375 29.390625 43.796875 
Q 41.5 48.828125 41.5 58.109375 
z
M 28.8125 35.25 
Q 14.796875 29.59375 14.796875 19.046875 
Q 14.796875 13.578125 18.890625 10.0625 
Q 23 6.546875 29.59375 6.546875 
Q 35.984375 6.546875 39.984375 10.03125 
Q 44 13.53125 44 18.75 
Q 44 29.734375 28.8125 35.25 
z
" id="MicrosoftYaHei-38"/>
       <path d="M 1.859375 19.96875 
L 17.578125 19.96875 
L 17.578125 47.90625 
L 52.15625 47.90625 
L 52.15625 65.28125 
L 23.4375 65.28125 
Q 16.84375 53.421875 8.6875 43.40625 
Q 6.15625 46.140625 2.640625 48.875 
Q 16.5 64.5 23.4375 83.9375 
L 31.453125 81.6875 
Q 29.390625 76.859375 27.15625 72.3125 
L 94.34375 72.3125 
L 94.34375 65.28125 
L 60.0625 65.28125 
L 60.0625 47.90625 
L 92.671875 47.90625 
L 92.671875 41.0625 
L 60.0625 41.0625 
L 60.0625 19.96875 
L 98.734375 19.96875 
L 98.734375 12.9375 
L 60.0625 12.9375 
L 60.0625 -13.421875 
L 52.15625 -13.421875 
L 52.15625 12.9375 
L 1.859375 12.9375 
z
M 25.296875 19.96875 
L 52.15625 19.96875 
L 52.15625 41.0625 
L 25.296875 41.0625 
z
" id="MicrosoftYaHei-5e74"/>
       <path d="M 52.59375 0 
L 9.234375 0 
L 9.234375 8.25 
L 26.171875 8.25 
L 26.171875 65.671875 
L 8.796875 60.640625 
L 8.796875 69.4375 
L 35.6875 77.25 
L 35.6875 8.25 
L 52.59375 8.25 
z
" id="MicrosoftYaHei-31"/>
       <path d="M 25.046875 20.0625 
Q 22.859375 1.21875 10.359375 -14.015625 
Q 7.234375 -10.984375 3.609375 -8.15625 
Q 13.09375 2.09375 16.3125 16.265625 
Q 18.5625 26.703125 18.5625 45.171875 
L 18.5625 78.953125 
L 83.796875 78.953125 
L 83.796875 2.78125 
Q 83.796875 -11.671875 70.015625 -11.671875 
Q 64.265625 -11.671875 55.171875 -11.46875 
Q 54.6875 -7.953125 53.71875 -3.265625 
Q 62.703125 -3.859375 67.875 -3.859375 
Q 75.78125 -3.859375 75.78125 3.859375 
L 75.78125 20.0625 
z
M 25.828125 27.203125 
L 75.78125 27.203125 
L 75.78125 45.953125 
L 26.5625 45.953125 
Q 26.5625 36.1875 25.828125 27.203125 
z
M 26.5625 71.625 
L 26.5625 53.078125 
L 75.78125 53.078125 
L 75.78125 71.625 
z
" id="MicrosoftYaHei-6708"/>
       <path d="M 35.453125 41.453125 
L 84.28125 41.453125 
Q 84.1875 40.09375 82.8125 5.71875 
Q 82.421875 -11.078125 67.484375 -11.28125 
Q 59.46875 -11.28125 53.515625 -10.984375 
Q 53.03125 -6.5 52.046875 -2.875 
Q 58.796875 -3.765625 65.625 -3.953125 
Q 75.09375 -4.640625 75.203125 6.59375 
Q 75.984375 19.671875 76.375 34.625 
L 54.390625 34.625 
Q 54.109375 19.09375 49.703125 8.9375 
Q 44.4375 -2.6875 31.546875 -12.84375 
Q 29 -9.71875 25.875 -6.5 
Q 38.28125 3.171875 42.390625 12.0625 
Q 46.390625 19.921875 46.828125 34.625 
L 35.453125 34.625 
z
M 1.171875 36.765625 
Q 15.140625 55.21875 23.828125 82.5625 
L 31.453125 79.9375 
Q 26.703125 66.9375 21.09375 55.609375 
L 21.09375 -12.640625 
L 13.671875 -12.640625 
L 13.671875 42.046875 
Q 9.1875 34.625 4.296875 28.078125 
Q 2.828125 32.28125 1.171875 36.765625 
z
M 62.59375 79.9375 
L 69.046875 82.671875 
Q 78.71875 57.859375 98.828125 46.4375 
Q 95.125 42.140625 93.265625 39.3125 
Q 71.484375 54.25 62.59375 79.9375 
z
M 24.8125 42.828125 
Q 40.046875 56.203125 49.421875 78.65625 
L 56.34375 76.03125 
Q 47.265625 53.265625 30.671875 37.453125 
Q 27.15625 41.0625 24.8125 42.828125 
z
" id="MicrosoftYaHei-4efd"/>
      </defs>
      <g transform="translate(75.407813 399.47375)scale(0.1 -0.1)">
       <use xlink:href="#MicrosoftYaHei-32"/>
       <use x="58.642578" xlink:href="#MicrosoftYaHei-30"/>
       <use x="117.285156" xlink:href="#MicrosoftYaHei-30"/>
       <use x="175.927734" xlink:href="#MicrosoftYaHei-38"/>
       <use x="234.570312" xlink:href="#MicrosoftYaHei-5e74"/>
       <use x="334.570312" xlink:href="#MicrosoftYaHei-30"/>
       <use x="393.212891" xlink:href="#MicrosoftYaHei-31"/>
       <use x="451.855469" xlink:href="#MicrosoftYaHei-6708"/>
       <use x="551.855469" xlink:href="#MicrosoftYaHei-4efd"/>
      </g>
     </g>
    </g>
    <g id="xtick_2">
     <g id="line2d_3">
      <path clip-path="url(#pe5d778082d)" d="M 208.691729 384.48 
L 208.691729 51.84 
" style="fill:none;stroke:#b0b0b0;stroke-linecap:square;stroke-width:0.8;"/>
     </g>
     <g id="line2d_4">
      <g>
       <use style="stroke:#000000;stroke-width:0.8;" x="208.691729" xlink:href="#mfc2dd19f02" y="384.48"/>
      </g>
     </g>
     <g id="text_2">
      <!-- 2009年09月份 -->
      <defs>
       <path d="M 9.03125 10.25 
Q 15.28125 6.640625 22.515625 6.640625 
Q 32.671875 6.640625 38.25 14.640625 
Q 43.84375 22.65625 43.84375 37.40625 
Q 43.75 37.3125 43.65625 37.40625 
Q 38.671875 27.9375 26.90625 27.9375 
Q 17.390625 27.9375 11.140625 34.46875 
Q 4.890625 41.015625 4.890625 51.46875 
Q 4.890625 62.59375 11.71875 69.75 
Q 18.5625 76.90625 29.4375 76.90625 
Q 40.71875 76.90625 47.0625 68.046875 
Q 53.421875 59.1875 53.421875 42.234375 
Q 53.421875 21.296875 45.21875 10.015625 
Q 37.015625 -1.265625 22.515625 -1.265625 
Q 14.546875 -1.265625 9.03125 1.3125 
z
M 14.546875 52.6875 
Q 14.546875 45.0625 18.453125 40.59375 
Q 22.359375 36.140625 29.25 36.140625 
Q 35.203125 36.140625 39.25 40.203125 
Q 43.3125 44.28125 43.3125 50.09375 
Q 43.3125 58.25 39.28125 63.59375 
Q 35.25 68.953125 28.65625 68.953125 
Q 22.5625 68.953125 18.546875 64.3125 
Q 14.546875 59.671875 14.546875 52.6875 
z
" id="MicrosoftYaHei-39"/>
      </defs>
      <g transform="translate(176.099542 399.47375)scale(0.1 -0.1)">
       <use xlink:href="#MicrosoftYaHei-32"/>
       <use x="58.642578" xlink:href="#MicrosoftYaHei-30"/>
       <use x="117.285156" xlink:href="#MicrosoftYaHei-30"/>
       <use x="175.927734" xlink:href="#MicrosoftYaHei-39"/>
       <use x="234.570312" xlink:href="#MicrosoftYaHei-5e74"/>
       <use x="334.570312" xlink:href="#MicrosoftYaHei-30"/>
       <use x="393.212891" xlink:href="#MicrosoftYaHei-39"/>
       <use x="451.855469" xlink:href="#MicrosoftYaHei-6708"/>
       <use x="551.855469" xlink:href="#MicrosoftYaHei-4efd"/>
      </g>
     </g>
    </g>
    <g id="xtick_3">
     <g id="line2d_5">
      <path clip-path="url(#pe5d778082d)" d="M 309.383459 384.48 
L 309.383459 51.84 
" style="fill:none;stroke:#b0b0b0;stroke-linecap:square;stroke-width:0.8;"/>
     </g>
     <g id="line2d_6">
      <g>
       <use style="stroke:#000000;stroke-width:0.8;" x="309.383459" xlink:href="#mfc2dd19f02" y="384.48"/>
      </g>
     </g>
     <g id="text_3">
      <!-- 2011年05月份 -->
      <defs>
       <path d="M 8.640625 11.625 
Q 16.265625 6.640625 24.515625 6.640625 
Q 32.328125 6.640625 37.109375 11 
Q 41.890625 15.375 41.890625 22.609375 
Q 41.890625 29.890625 37.03125 33.890625 
Q 32.171875 37.890625 22.953125 37.890625 
Q 18.5 37.890625 10.984375 37.203125 
L 10.984375 75.640625 
L 48.1875 75.640625 
L 48.1875 67.1875 
L 19.875 67.1875 
L 19.875 45.796875 
Q 24.125 46.046875 26.265625 46.046875 
Q 38.234375 46.046875 44.921875 39.984375 
Q 51.609375 33.9375 51.609375 23.296875 
Q 51.609375 12.3125 44.421875 5.515625 
Q 37.25 -1.265625 24.609375 -1.265625 
Q 14.015625 -1.265625 8.640625 1.859375 
z
" id="MicrosoftYaHei-35"/>
      </defs>
      <g transform="translate(276.791271 399.47375)scale(0.1 -0.1)">
       <use xlink:href="#MicrosoftYaHei-32"/>
       <use x="58.642578" xlink:href="#MicrosoftYaHei-30"/>
       <use x="117.285156" xlink:href="#MicrosoftYaHei-31"/>
       <use x="175.927734" xlink:href="#MicrosoftYaHei-31"/>
       <use x="234.570312" xlink:href="#MicrosoftYaHei-5e74"/>
       <use x="334.570312" xlink:href="#MicrosoftYaHei-30"/>
       <use x="393.212891" xlink:href="#MicrosoftYaHei-35"/>
       <use x="451.855469" xlink:href="#MicrosoftYaHei-6708"/>
       <use x="551.855469" xlink:href="#MicrosoftYaHei-4efd"/>
      </g>
     </g>
    </g>
    <g id="xtick_4">
     <g id="line2d_7">
      <path clip-path="url(#pe5d778082d)" d="M 410.075188 384.48 
L 410.075188 51.84 
" style="fill:none;stroke:#b0b0b0;stroke-linecap:square;stroke-width:0.8;"/>
     </g>
     <g id="line2d_8">
      <g>
       <use style="stroke:#000000;stroke-width:0.8;" x="410.075188" xlink:href="#mfc2dd19f02" y="384.48"/>
      </g>
     </g>
     <g id="text_4">
      <!-- 2013年01月份 -->
      <defs>
       <path d="M 6.984375 12.640625 
Q 14.75 6.640625 24.515625 6.640625 
Q 32.328125 6.640625 36.890625 10.46875 
Q 41.453125 14.3125 41.453125 20.75 
Q 41.453125 35.109375 20.90625 35.109375 
L 14.59375 35.109375 
L 14.59375 43.015625 
L 20.609375 43.015625 
Q 38.8125 43.015625 38.8125 56.5 
Q 38.8125 68.953125 24.90625 68.953125 
Q 16.9375 68.953125 9.90625 63.578125 
L 9.90625 72.609375 
Q 17.328125 76.90625 27.25 76.90625 
Q 36.921875 76.90625 42.78125 71.84375 
Q 48.640625 66.796875 48.640625 58.734375 
Q 48.640625 43.890625 33.5 39.65625 
L 33.5 39.453125 
Q 41.703125 38.578125 46.453125 33.671875 
Q 51.21875 28.765625 51.21875 21.4375 
Q 51.21875 11.234375 43.875 4.984375 
Q 36.53125 -1.265625 24.3125 -1.265625 
Q 13.578125 -1.265625 6.984375 2.734375 
z
" id="MicrosoftYaHei-33"/>
      </defs>
      <g transform="translate(377.483 399.47375)scale(0.1 -0.1)">
       <use xlink:href="#MicrosoftYaHei-32"/>
       <use x="58.642578" xlink:href="#MicrosoftYaHei-30"/>
       <use x="117.285156" xlink:href="#MicrosoftYaHei-31"/>
       <use x="175.927734" xlink:href="#MicrosoftYaHei-33"/>
       <use x="234.570312" xlink:href="#MicrosoftYaHei-5e74"/>
       <use x="334.570312" xlink:href="#MicrosoftYaHei-30"/>
       <use x="393.212891" xlink:href="#MicrosoftYaHei-31"/>
       <use x="451.855469" xlink:href="#MicrosoftYaHei-6708"/>
       <use x="551.855469" xlink:href="#MicrosoftYaHei-4efd"/>
      </g>
     </g>
    </g>
    <g id="xtick_5">
     <g id="line2d_9">
      <path clip-path="url(#pe5d778082d)" d="M 510.766917 384.48 
L 510.766917 51.84 
" style="fill:none;stroke:#b0b0b0;stroke-linecap:square;stroke-width:0.8;"/>
     </g>
     <g id="line2d_10">
      <g>
       <use style="stroke:#000000;stroke-width:0.8;" x="510.766917" xlink:href="#mfc2dd19f02" y="384.48"/>
      </g>
     </g>
     <g id="text_5">
      <!-- 2014年09月份 -->
      <defs>
       <path d="M 55.078125 19.625 
L 45.40625 19.625 
L 45.40625 0 
L 36.140625 0 
L 36.140625 19.625 
L 0.875 19.625 
L 0.875 25.828125 
L 34.328125 75.640625 
L 45.40625 75.640625 
L 45.40625 27.203125 
L 55.078125 27.203125 
z
M 36.140625 27.203125 
L 36.140625 58.890625 
Q 36.140625 62.25 36.328125 66.65625 
L 36.140625 66.65625 
Q 35.453125 64.796875 33.25 60.84375 
L 10.75 27.203125 
z
" id="MicrosoftYaHei-34"/>
      </defs>
      <g transform="translate(478.17473 399.47375)scale(0.1 -0.1)">
       <use xlink:href="#MicrosoftYaHei-32"/>
       <use x="58.642578" xlink:href="#MicrosoftYaHei-30"/>
       <use x="117.285156" xlink:href="#MicrosoftYaHei-31"/>
       <use x="175.927734" xlink:href="#MicrosoftYaHei-34"/>
       <use x="234.570312" xlink:href="#MicrosoftYaHei-5e74"/>
       <use x="334.570312" xlink:href="#MicrosoftYaHei-30"/>
       <use x="393.212891" xlink:href="#MicrosoftYaHei-39"/>
       <use x="451.855469" xlink:href="#MicrosoftYaHei-6708"/>
       <use x="551.855469" xlink:href="#MicrosoftYaHei-4efd"/>
      </g>
     </g>
    </g>
    <g id="xtick_6">
     <g id="line2d_11">
      <path clip-path="url(#pe5d778082d)" d="M 611.458647 384.48 
L 611.458647 51.84 
" style="fill:none;stroke:#b0b0b0;stroke-linecap:square;stroke-width:0.8;"/>
     </g>
     <g id="line2d_12">
      <g>
       <use style="stroke:#000000;stroke-width:0.8;" x="611.458647" xlink:href="#mfc2dd19f02" y="384.48"/>
      </g>
     </g>
     <g id="text_6">
      <!-- 2016年05月份 -->
      <defs>
       <path d="M 49.703125 65.921875 
Q 43.796875 68.953125 37.359375 68.953125 
Q 27.546875 68.953125 21.578125 60.40625 
Q 15.625 51.859375 15.53125 37.0625 
L 15.765625 37.0625 
Q 21.140625 47.46875 32.90625 47.46875 
Q 42.71875 47.46875 48.578125 41.0625 
Q 54.4375 34.671875 54.4375 24.078125 
Q 54.4375 12.984375 47.671875 5.859375 
Q 40.921875 -1.265625 30.421875 -1.265625 
Q 18.890625 -1.265625 12.328125 7.734375 
Q 5.765625 16.75 5.765625 33.296875 
Q 5.765625 53.328125 14.375 65.109375 
Q 23 76.90625 37.0625 76.90625 
Q 45.125 76.90625 49.703125 74.703125 
z
M 16.109375 24.75 
Q 16.109375 17.28125 20.09375 11.953125 
Q 24.078125 6.640625 30.671875 6.640625 
Q 36.921875 6.640625 40.828125 11.234375 
Q 44.734375 15.828125 44.734375 23.046875 
Q 44.734375 30.859375 41.046875 35.203125 
Q 37.359375 39.546875 30.5625 39.546875 
Q 24.125 39.546875 20.109375 35.15625 
Q 16.109375 30.765625 16.109375 24.75 
z
" id="MicrosoftYaHei-36"/>
      </defs>
      <g transform="translate(578.866459 399.47375)scale(0.1 -0.1)">
       <use xlink:href="#MicrosoftYaHei-32"/>
       <use x="58.642578" xlink:href="#MicrosoftYaHei-30"/>
       <use x="117.285156" xlink:href="#MicrosoftYaHei-31"/>
       <use x="175.927734" xlink:href="#MicrosoftYaHei-36"/>
       <use x="234.570312" xlink:href="#MicrosoftYaHei-5e74"/>
       <use x="334.570312" xlink:href="#MicrosoftYaHei-30"/>
       <use x="393.212891" xlink:href="#MicrosoftYaHei-35"/>
       <use x="451.855469" xlink:href="#MicrosoftYaHei-6708"/>
       <use x="551.855469" xlink:href="#MicrosoftYaHei-4efd"/>
      </g>
     </g>
    </g>
    <g id="xtick_7">
     <g id="line2d_13">
      <path clip-path="url(#pe5d778082d)" d="M 712.150376 384.48 
L 712.150376 51.84 
" style="fill:none;stroke:#b0b0b0;stroke-linecap:square;stroke-width:0.8;"/>
     </g>
     <g id="line2d_14">
      <g>
       <use style="stroke:#000000;stroke-width:0.8;" x="712.150376" xlink:href="#mfc2dd19f02" y="384.48"/>
      </g>
     </g>
     <g id="text_7">
      <!-- 2018年01月份 -->
      <g transform="translate(679.558188 399.47375)scale(0.1 -0.1)">
       <use xlink:href="#MicrosoftYaHei-32"/>
       <use x="58.642578" xlink:href="#MicrosoftYaHei-30"/>
       <use x="117.285156" xlink:href="#MicrosoftYaHei-31"/>
       <use x="175.927734" xlink:href="#MicrosoftYaHei-38"/>
       <use x="234.570312" xlink:href="#MicrosoftYaHei-5e74"/>
       <use x="334.570312" xlink:href="#MicrosoftYaHei-30"/>
       <use x="393.212891" xlink:href="#MicrosoftYaHei-31"/>
       <use x="451.855469" xlink:href="#MicrosoftYaHei-6708"/>
       <use x="551.855469" xlink:href="#MicrosoftYaHei-4efd"/>
      </g>
     </g>
    </g>
    <g id="text_8">
     <!-- 月份 -->
     <g transform="translate(432.8 413.953438)scale(0.1 -0.1)">
      <use xlink:href="#MicrosoftYaHei-6708"/>
      <use x="100" xlink:href="#MicrosoftYaHei-4efd"/>
     </g>
    </g>
   </g>
   <g id="matplotlib.axis_2">
    <g id="ytick_1">
     <g id="line2d_15">
      <path clip-path="url(#pe5d778082d)" d="M 108 374.325733 
L 777.6 374.325733 
" style="fill:none;stroke:#b0b0b0;stroke-linecap:square;stroke-width:0.8;"/>
     </g>
     <g id="line2d_16">
      <defs>
       <path d="M 0 0 
L -3.5 0 
" id="m6b5e878eb0" style="stroke:#000000;stroke-width:0.8;"/>
      </defs>
      <g>
       <use style="stroke:#000000;stroke-width:0.8;" x="108" xlink:href="#m6b5e878eb0" y="374.325733"/>
      </g>
     </g>
     <g id="text_9">
      <!-- 0 -->
      <g transform="translate(95.135937 378.322608)scale(0.1 -0.1)">
       <use xlink:href="#MicrosoftYaHei-30"/>
      </g>
     </g>
    </g>
    <g id="ytick_2">
     <g id="line2d_17">
      <path clip-path="url(#pe5d778082d)" d="M 108 333.176845 
L 777.6 333.176845 
" style="fill:none;stroke:#b0b0b0;stroke-linecap:square;stroke-width:0.8;"/>
     </g>
     <g id="line2d_18">
      <g>
       <use style="stroke:#000000;stroke-width:0.8;" x="108" xlink:href="#m6b5e878eb0" y="333.176845"/>
      </g>
     </g>
     <g id="text_10">
      <!-- 250000 -->
      <g transform="translate(65.815625 337.17372)scale(0.1 -0.1)">
       <use xlink:href="#MicrosoftYaHei-32"/>
       <use x="58.642578" xlink:href="#MicrosoftYaHei-35"/>
       <use x="117.285156" xlink:href="#MicrosoftYaHei-30"/>
       <use x="175.927734" xlink:href="#MicrosoftYaHei-30"/>
       <use x="234.570312" xlink:href="#MicrosoftYaHei-30"/>
       <use x="293.212891" xlink:href="#MicrosoftYaHei-30"/>
      </g>
     </g>
    </g>
    <g id="ytick_3">
     <g id="line2d_19">
      <path clip-path="url(#pe5d778082d)" d="M 108 292.027957 
L 777.6 292.027957 
" style="fill:none;stroke:#b0b0b0;stroke-linecap:square;stroke-width:0.8;"/>
     </g>
     <g id="line2d_20">
      <g>
       <use style="stroke:#000000;stroke-width:0.8;" x="108" xlink:href="#m6b5e878eb0" y="292.027957"/>
      </g>
     </g>
     <g id="text_11">
      <!-- 500000 -->
      <g transform="translate(65.815625 296.024832)scale(0.1 -0.1)">
       <use xlink:href="#MicrosoftYaHei-35"/>
       <use x="58.642578" xlink:href="#MicrosoftYaHei-30"/>
       <use x="117.285156" xlink:href="#MicrosoftYaHei-30"/>
       <use x="175.927734" xlink:href="#MicrosoftYaHei-30"/>
       <use x="234.570312" xlink:href="#MicrosoftYaHei-30"/>
       <use x="293.212891" xlink:href="#MicrosoftYaHei-30"/>
      </g>
     </g>
    </g>
    <g id="ytick_4">
     <g id="line2d_21">
      <path clip-path="url(#pe5d778082d)" d="M 108 250.879069 
L 777.6 250.879069 
" style="fill:none;stroke:#b0b0b0;stroke-linecap:square;stroke-width:0.8;"/>
     </g>
     <g id="line2d_22">
      <g>
       <use style="stroke:#000000;stroke-width:0.8;" x="108" xlink:href="#m6b5e878eb0" y="250.879069"/>
      </g>
     </g>
     <g id="text_12">
      <!-- 750000 -->
      <defs>
       <path d="M 53.765625 72.3125 
L 24.171875 0 
L 14.265625 0 
L 42.390625 67.1875 
L 4.59375 67.1875 
L 4.59375 75.640625 
L 53.765625 75.640625 
z
" id="MicrosoftYaHei-37"/>
      </defs>
      <g transform="translate(65.815625 254.875944)scale(0.1 -0.1)">
       <use xlink:href="#MicrosoftYaHei-37"/>
       <use x="58.642578" xlink:href="#MicrosoftYaHei-35"/>
       <use x="117.285156" xlink:href="#MicrosoftYaHei-30"/>
       <use x="175.927734" xlink:href="#MicrosoftYaHei-30"/>
       <use x="234.570312" xlink:href="#MicrosoftYaHei-30"/>
       <use x="293.212891" xlink:href="#MicrosoftYaHei-30"/>
      </g>
     </g>
    </g>
    <g id="ytick_5">
     <g id="line2d_23">
      <path clip-path="url(#pe5d778082d)" d="M 108 209.730181 
L 777.6 209.730181 
" style="fill:none;stroke:#b0b0b0;stroke-linecap:square;stroke-width:0.8;"/>
     </g>
     <g id="line2d_24">
      <g>
       <use style="stroke:#000000;stroke-width:0.8;" x="108" xlink:href="#m6b5e878eb0" y="209.730181"/>
      </g>
     </g>
     <g id="text_13">
      <!-- 1000000 -->
      <g transform="translate(59.951562 213.727056)scale(0.1 -0.1)">
       <use xlink:href="#MicrosoftYaHei-31"/>
       <use x="58.642578" xlink:href="#MicrosoftYaHei-30"/>
       <use x="117.285156" xlink:href="#MicrosoftYaHei-30"/>
       <use x="175.927734" xlink:href="#MicrosoftYaHei-30"/>
       <use x="234.570312" xlink:href="#MicrosoftYaHei-30"/>
       <use x="293.212891" xlink:href="#MicrosoftYaHei-30"/>
       <use x="351.855469" xlink:href="#MicrosoftYaHei-30"/>
      </g>
     </g>
    </g>
    <g id="ytick_6">
     <g id="line2d_25">
      <path clip-path="url(#pe5d778082d)" d="M 108 168.581293 
L 777.6 168.581293 
" style="fill:none;stroke:#b0b0b0;stroke-linecap:square;stroke-width:0.8;"/>
     </g>
     <g id="line2d_26">
      <g>
       <use style="stroke:#000000;stroke-width:0.8;" x="108" xlink:href="#m6b5e878eb0" y="168.581293"/>
      </g>
     </g>
     <g id="text_14">
      <!-- 1250000 -->
      <g transform="translate(59.951562 172.578168)scale(0.1 -0.1)">
       <use xlink:href="#MicrosoftYaHei-31"/>
       <use x="58.642578" xlink:href="#MicrosoftYaHei-32"/>
       <use x="117.285156" xlink:href="#MicrosoftYaHei-35"/>
       <use x="175.927734" xlink:href="#MicrosoftYaHei-30"/>
       <use x="234.570312" xlink:href="#MicrosoftYaHei-30"/>
       <use x="293.212891" xlink:href="#MicrosoftYaHei-30"/>
       <use x="351.855469" xlink:href="#MicrosoftYaHei-30"/>
      </g>
     </g>
    </g>
    <g id="ytick_7">
     <g id="line2d_27">
      <path clip-path="url(#pe5d778082d)" d="M 108 127.432406 
L 777.6 127.432406 
" style="fill:none;stroke:#b0b0b0;stroke-linecap:square;stroke-width:0.8;"/>
     </g>
     <g id="line2d_28">
      <g>
       <use style="stroke:#000000;stroke-width:0.8;" x="108" xlink:href="#m6b5e878eb0" y="127.432406"/>
      </g>
     </g>
     <g id="text_15">
      <!-- 1500000 -->
      <g transform="translate(59.951562 131.429281)scale(0.1 -0.1)">
       <use xlink:href="#MicrosoftYaHei-31"/>
       <use x="58.642578" xlink:href="#MicrosoftYaHei-35"/>
       <use x="117.285156" xlink:href="#MicrosoftYaHei-30"/>
       <use x="175.927734" xlink:href="#MicrosoftYaHei-30"/>
       <use x="234.570312" xlink:href="#MicrosoftYaHei-30"/>
       <use x="293.212891" xlink:href="#MicrosoftYaHei-30"/>
       <use x="351.855469" xlink:href="#MicrosoftYaHei-30"/>
      </g>
     </g>
    </g>
    <g id="ytick_8">
     <g id="line2d_29">
      <path clip-path="url(#pe5d778082d)" d="M 108 86.283518 
L 777.6 86.283518 
" style="fill:none;stroke:#b0b0b0;stroke-linecap:square;stroke-width:0.8;"/>
     </g>
     <g id="line2d_30">
      <g>
       <use style="stroke:#000000;stroke-width:0.8;" x="108" xlink:href="#m6b5e878eb0" y="86.283518"/>
      </g>
     </g>
     <g id="text_16">
      <!-- 1750000 -->
      <g transform="translate(59.951562 90.280393)scale(0.1 -0.1)">
       <use xlink:href="#MicrosoftYaHei-31"/>
       <use x="58.642578" xlink:href="#MicrosoftYaHei-37"/>
       <use x="117.285156" xlink:href="#MicrosoftYaHei-35"/>
       <use x="175.927734" xlink:href="#MicrosoftYaHei-30"/>
       <use x="234.570312" xlink:href="#MicrosoftYaHei-30"/>
       <use x="293.212891" xlink:href="#MicrosoftYaHei-30"/>
       <use x="351.855469" xlink:href="#MicrosoftYaHei-30"/>
      </g>
     </g>
    </g>
   </g>
   <g id="line2d_31">
    <path clip-path="url(#pe5d778082d)" d="M 108 305.550112 
L 113.034586 305.024777 
L 118.069173 304.692839 
L 128.138346 302.525598 
L 133.172932 301.386692 
L 138.207519 300.856505 
L 143.242105 300.447566 
L 148.276692 299.78062 
L 153.311278 299.742004 
L 158.345865 298.834862 
L 163.380451 296.115424 
L 168.415038 292.664068 
L 173.449624 290.923838 
L 178.484211 286.986937 
L 183.518797 285.36493 
L 188.553383 284.083998 
L 193.58797 280.684657 
L 203.657143 279.403651 
L 208.691729 277.970618 
L 213.726316 277.766857 
L 218.760902 276.456441 
L 228.830075 271.353227 
L 233.864662 269.631068 
L 238.899248 267.347272 
L 248.968421 265.140872 
L 254.003008 263.401239 
L 259.037594 263.379858 
L 264.07218 261.165152 
L 269.106767 259.689622 
L 274.141353 259.145594 
L 279.17594 257.407088 
L 284.210526 254.853757 
L 289.245113 253.531554 
L 294.279699 253.161868 
L 299.314286 249.540762 
L 304.348872 249.663603 
L 309.383459 248.671971 
L 314.418045 245.806094 
L 319.452632 247.105938 
L 324.487218 245.800918 
L 329.521805 244.722175 
L 334.556391 239.879272 
L 339.590977 238.453102 
L 344.625564 234.157659 
L 349.66015 233.448583 
L 354.694737 231.593175 
L 359.729323 226.919635 
L 364.76391 227.900865 
L 369.798496 226.181709 
L 374.833083 222.076296 
L 379.867669 223.050504 
L 384.902256 222.092198 
L 389.936842 218.998762 
L 394.971429 220.197754 
L 400.006015 218.810523 
L 405.040602 213.985174 
L 410.075188 211.025672 
L 415.109774 209.960478 
L 420.144361 203.828053 
L 425.178947 204.372283 
L 430.213534 202.789325 
L 435.24812 200.775576 
L 440.282707 201.136262 
L 445.317293 199.647645 
L 450.35188 196.993916 
L 455.386466 198.168633 
L 460.421053 196.684822 
L 465.455639 192.196643 
L 470.490226 189.39914 
L 475.524812 188.042935 
L 480.559398 183.281753 
L 485.593985 181.944367 
L 490.628571 179.725406 
L 495.663158 175.23306 
L 500.697744 177.75762 
L 505.732331 177.222711 
L 510.766917 176.473418 
L 515.801504 176.936771 
L 520.83609 175.39457 
L 525.870677 172.140703 
L 535.93985 167.366499 
L 540.974436 164.411631 
L 546.009023 163.515184 
L 556.078195 154.85808 
L 561.112782 151.593235 
L 566.147368 150.984715 
L 571.181955 150.504742 
L 576.216541 150.30778 
L 581.251128 148.178686 
L 586.285714 145.162949 
L 591.320301 141.205835 
L 596.354887 139.839835 
L 601.389474 136.28797 
L 606.42406 136.450663 
L 611.458647 133.73722 
L 616.493233 128.997408 
L 621.52782 128.821803 
L 626.562406 125.624667 
L 631.596992 124.73954 
L 636.631579 124.225195 
L 641.666165 122.423424 
L 646.700752 119.191654 
L 651.735338 114.932099 
L 656.769925 113.785283 
L 661.804511 111.037113 
L 666.839098 111.576608 
L 671.873684 110.748931 
L 676.908271 105.823885 
L 681.942857 106.200134 
L 686.977444 103.540275 
L 692.01203 101.811121 
L 697.046617 102.177825 
L 702.081203 99.448956 
L 707.115789 98.33709 
L 712.150376 91.087328 
L 717.184962 89.728483 
L 722.219549 87.952602 
L 727.254135 88.310721 
L 732.288722 87.425187 
L 737.323308 82.958688 
L 742.357895 81.971114 
L 752.427068 77.773928 
L 757.461654 78.777961 
L 762.496241 75.881079 
L 767.530827 73.651761 
L 772.565414 67.206893 
L 777.6 66.96 
L 777.6 66.96 
" style="fill:none;stroke:#1f77b4;stroke-linecap:square;stroke-width:1.5;"/>
   </g>
   <g id="line2d_32">
    <path clip-path="url(#pe5d778082d)" d="M 108 348.834393 
L 113.034586 349.607122 
L 123.103759 349.357425 
L 133.172932 348.843025 
L 138.207519 348.814666 
L 143.242105 348.50235 
L 148.276692 348.690145 
L 153.311278 348.45224 
L 158.345865 348.348171 
L 163.380451 346.967132 
L 168.415038 347.132187 
L 173.449624 346.978248 
L 178.484211 345.267848 
L 183.518797 344.992572 
L 188.553383 344.365132 
L 193.58797 342.536052 
L 198.622556 342.08323 
L 203.657143 341.341635 
L 208.691729 341.12547 
L 213.726316 340.164627 
L 218.760902 339.350297 
L 223.795489 337.876737 
L 228.830075 336.536408 
L 233.864662 337.409098 
L 243.933835 335.825227 
L 248.968421 335.399234 
L 254.003008 334.727335 
L 259.037594 334.713497 
L 264.07218 334.10835 
L 269.106767 334.193733 
L 274.141353 332.631512 
L 279.17594 331.626302 
L 284.210526 330.441013 
L 289.245113 331.240376 
L 294.279699 331.662483 
L 299.314286 330.501265 
L 304.348872 330.417086 
L 309.383459 330.001857 
L 314.418045 329.117495 
L 319.452632 329.795122 
L 324.487218 329.326334 
L 329.521805 330.346927 
L 334.556391 328.806393 
L 339.590977 328.00585 
L 344.625564 326.618091 
L 349.66015 329.883222 
L 354.694737 329.833562 
L 359.729323 328.56848 
L 364.76391 329.064619 
L 369.798496 328.460144 
L 374.833083 327.000204 
L 379.867669 327.730266 
L 384.902256 327.29432 
L 389.936842 327.121669 
L 394.971429 326.048248 
L 400.006015 325.460111 
L 405.040602 323.520973 
L 410.075188 323.098898 
L 415.109774 325.588457 
L 420.144361 323.153257 
L 425.178947 323.688171 
L 430.213534 323.267455 
L 435.24812 322.725057 
L 440.282707 323.202937 
L 445.317293 322.628589 
L 450.35188 322.917548 
L 455.386466 321.73591 
L 460.421053 320.86149 
L 465.455639 318.809126 
L 470.490226 322.494503 
L 475.524812 322.210648 
L 480.559398 320.390447 
L 485.593985 320.917353 
L 490.628571 320.364799 
L 495.663158 318.118417 
L 500.697744 319.787438 
L 505.732331 319.676186 
L 510.766917 320.466742 
L 515.801504 320.072121 
L 520.83609 319.167438 
L 525.870677 317.037196 
L 530.905263 317.028457 
L 535.93985 319.278525 
L 540.974436 318.822381 
L 546.009023 318.957725 
L 551.043609 317.855326 
L 556.078195 315.716078 
L 561.112782 316.203391 
L 566.147368 314.611499 
L 571.181955 314.344332 
L 581.251128 310.525481 
L 586.285714 308.33058 
L 591.320301 306.399512 
L 596.354887 309.721205 
L 601.389474 306.58128 
L 606.42406 306.264675 
L 611.458647 304.495955 
L 616.493233 301.303953 
L 621.52782 301.420696 
L 626.562406 299.509878 
L 631.596992 299.543349 
L 636.631579 297.715285 
L 641.666165 296.076096 
L 646.700752 294.240575 
L 651.735338 296.549981 
L 656.769925 295.89141 
L 661.804511 293.87635 
L 666.839098 293.644216 
L 671.873684 292.622183 
L 676.908271 290.344446 
L 681.942857 290.302242 
L 686.977444 289.046485 
L 692.01203 289.08778 
L 697.046617 287.752227 
L 702.081203 286.174108 
L 707.115789 284.820293 
L 712.150376 284.909672 
L 717.184962 289.223909 
L 722.219549 288.153366 
L 727.254135 287.839367 
L 732.288722 287.702926 
L 737.323308 284.802212 
L 742.357895 286.00376 
L 747.392481 285.723947 
L 752.427068 285.674569 
L 757.461654 285.427675 
L 762.496241 284.86805 
L 767.530827 283.520686 
L 772.565414 284.5224 
L 777.6 287.550958 
L 777.6 287.550958 
" style="fill:none;stroke:#ff7f0e;stroke-linecap:square;stroke-width:1.5;"/>
   </g>
   <g id="line2d_33">
    <path clip-path="url(#pe5d778082d)" d="M 108 368.289495 
L 113.034586 368.983871 
L 118.069173 369.316585 
L 123.103759 369.2579 
L 133.172932 369.358022 
L 148.276692 369.103958 
L 153.311278 369.170955 
L 158.345865 369.123302 
L 163.380451 368.693444 
L 168.415038 367.563757 
L 173.449624 368.541575 
L 178.484211 368.771222 
L 183.518797 368.687138 
L 188.553383 368.801985 
L 203.657143 368.662556 
L 208.691729 368.27061 
L 213.726316 368.444696 
L 218.760902 368.343695 
L 228.830075 367.617052 
L 233.864662 367.270214 
L 238.899248 367.893243 
L 243.933835 367.798278 
L 248.968421 367.963626 
L 264.07218 367.754624 
L 269.106767 367.436683 
L 274.141353 367.470952 
L 279.17594 367.371215 
L 284.210526 366.980134 
L 289.245113 364.762731 
L 294.279699 366.545261 
L 299.314286 366.944409 
L 304.348872 366.838441 
L 309.383459 366.984305 
L 314.418045 367.004885 
L 329.521805 366.565828 
L 334.556391 366.658972 
L 339.590977 366.537522 
L 344.625564 365.972762 
L 349.66015 364.479508 
L 354.694737 365.857492 
L 359.729323 366.162494 
L 364.76391 366.063148 
L 369.798496 366.254013 
L 384.902256 366.057265 
L 389.936842 365.530818 
L 394.971429 365.854376 
L 400.006015 365.702223 
L 405.040602 365.328978 
L 410.075188 364.046801 
L 415.109774 364.398374 
L 420.144361 365.197178 
L 425.178947 365.173043 
L 430.213534 365.366568 
L 435.24812 365.427053 
L 445.317293 365.285264 
L 450.35188 365.027313 
L 455.386466 365.174924 
L 460.421053 365.035751 
L 465.455639 364.68464 
L 470.490226 361.734173 
L 475.524812 364.067981 
L 480.559398 364.724989 
L 485.593985 364.677875 
L 500.697744 364.886754 
L 510.766917 364.640109 
L 515.801504 364.829945 
L 520.83609 364.707011 
L 525.870677 364.407282 
L 530.905263 363.949545 
L 535.93985 362.326717 
L 540.974436 364.129069 
L 556.078195 364.679732 
L 566.147368 364.604425 
L 571.181955 364.281623 
L 576.216541 364.46638 
L 581.251128 364.395973 
L 586.285714 363.920565 
L 591.320301 362.388192 
L 596.354887 362.899262 
L 601.389474 363.684431 
L 606.42406 363.725257 
L 611.458647 363.992307 
L 626.562406 363.881371 
L 631.596992 363.615727 
L 636.631579 363.756241 
L 641.666165 363.642905 
L 646.700752 363.083219 
L 651.735338 360.071987 
L 656.769925 362.519674 
L 661.804511 363.033647 
L 666.839098 363.068615 
L 671.873684 363.242986 
L 681.942857 363.276591 
L 686.977444 363.20714 
L 692.01203 362.845433 
L 697.046617 363.095265 
L 702.081203 363.030666 
L 707.115789 362.697781 
L 712.150376 362.040931 
L 717.184962 360.923665 
L 722.219549 362.360849 
L 737.323308 362.869882 
L 747.392481 362.836963 
L 752.427068 362.59007 
L 757.461654 362.787584 
L 762.496241 362.705287 
L 767.530827 362.275956 
L 772.565414 359.923622 
L 777.6 361.240386 
L 777.6 361.240386 
" style="fill:none;stroke:#2ca02c;stroke-linecap:square;stroke-width:1.5;"/>
   </g>
   <g id="patch_3">
    <path d="M 108 384.48 
L 108 51.84 
" style="fill:none;stroke:#000000;stroke-linecap:square;stroke-linejoin:miter;stroke-width:0.8;"/>
   </g>
   <g id="patch_4">
    <path d="M 777.6 384.48 
L 777.6 51.84 
" style="fill:none;stroke:#000000;stroke-linecap:square;stroke-linejoin:miter;stroke-width:0.8;"/>
   </g>
   <g id="patch_5">
    <path d="M 108 384.48 
L 777.6 384.48 
" style="fill:none;stroke:#000000;stroke-linecap:square;stroke-linejoin:miter;stroke-width:0.8;"/>
   </g>
   <g id="patch_6">
    <path d="M 108 51.84 
L 777.6 51.84 
" style="fill:none;stroke:#000000;stroke-linecap:square;stroke-linejoin:miter;stroke-width:0.8;"/>
   </g>
   <g id="legend_1">
    <g id="patch_7">
     <path d="M 115 106.279063 
L 222.634375 106.279063 
Q 224.634375 106.279063 224.634375 104.279063 
L 224.634375 58.84 
Q 224.634375 56.84 222.634375 56.84 
L 115 56.84 
Q 113 56.84 113 58.84 
L 113 104.279063 
Q 113 106.279063 115 106.279063 
z
" style="fill:#ffffff;opacity:0.8;stroke:#cccccc;stroke-linejoin:miter;"/>
    </g>
    <g id="line2d_34">
     <path d="M 117 65.33375 
L 137 65.33375 
" style="fill:none;stroke:#1f77b4;stroke-linecap:square;stroke-width:1.5;"/>
    </g>
    <g id="line2d_35"/>
    <g id="text_17">
     <!-- M2数量（亿元） -->
     <defs>
      <path d="M 78.171875 0 
L 78.171875 50.09375 
Q 78.171875 56.296875 78.90625 64.984375 
L 78.65625 64.984375 
Q 77.390625 59.515625 76.421875 57.375 
L 51.46875 0 
L 46.046875 0 
L 21.140625 56.9375 
Q 20.265625 58.890625 18.890625 64.984375 
L 18.609375 64.984375 
Q 19.09375 59.71875 19.09375 49.65625 
L 19.09375 0 
L 9.765625 0 
L 9.765625 75.640625 
L 23 75.640625 
L 45.3125 23.78125 
Q 47.859375 17.828125 48.6875 14.5 
L 49.03125 14.5 
Q 51.5625 21.484375 52.59375 23.96875 
L 75.296875 75.640625 
L 87.890625 75.640625 
L 87.890625 0 
z
" id="MicrosoftYaHei-4d"/>
      <path d="M 65.234375 82.859375 
L 73.046875 81.6875 
Q 71 72.21875 68.265625 64.015625 
L 98.140625 64.015625 
L 98.140625 57.375 
L 92 57.375 
Q 89.546875 28.65625 79.5 11.765625 
Q 87.40625 1.03125 99.609375 -5.8125 
Q 96.484375 -10.109375 94.34375 -13.53125 
Q 82.421875 -5.8125 74.515625 4.828125 
Q 65.53125 -6.296875 53.125 -14.5 
Q 50.984375 -11.671875 47.5625 -8.34375 
Q 61.234375 0.640625 69.734375 12.0625 
Q 61.8125 25.734375 59.28125 43.609375 
Q 57.234375 39.984375 54.984375 36.859375 
Q 53.03125 39.703125 50.09375 43.109375 
Q 61.421875 59.421875 65.234375 82.859375 
z
M 2.34375 26.515625 
L 17.1875 26.515625 
Q 19.34375 30.21875 21.390625 34.125 
L 28.421875 31.890625 
Q 26.859375 29.15625 25.296875 26.515625 
L 49.21875 26.515625 
L 49.21875 20.171875 
Q 45.515625 10.59375 37.984375 3.375 
Q 43.359375 0.828125 48.921875 -1.703125 
L 44.625 -8.453125 
Q 38.578125 -5.03125 32.03125 -1.609375 
Q 21 -9.515625 4.203125 -14.109375 
Q 2.640625 -10.984375 0.875 -7.28125 
Q 15.140625 -4.046875 25 2 
Q 16.609375 6.296875 7.421875 10.796875 
Q 10.546875 15.28125 13.484375 20.0625 
L 2.34375 20.0625 
z
M 3.421875 60.109375 
L 25.875 60.109375 
L 25.875 81.984375 
L 33.109375 81.984375 
L 33.109375 60.109375 
L 51.859375 60.109375 
L 51.859375 53.65625 
L 33.109375 53.65625 
L 33.109375 47.703125 
L 36.03125 51.03125 
Q 45.125 44.390625 51.265625 39.3125 
L 46.578125 33.84375 
Q 41.21875 38.921875 33.109375 45.265625 
L 33.109375 34.125 
L 25.875 34.125 
L 25.875 47.796875 
Q 17 38.53125 5.171875 31.5 
Q 3.328125 34.328125 0.984375 37.453125 
Q 13.28125 44.09375 23.53125 53.65625 
L 3.421875 53.65625 
z
M 84.1875 57.375 
L 65.921875 57.375 
Q 65.4375 56.109375 64.84375 54.9375 
Q 66.609375 34.234375 74.609375 19.484375 
Q 82.421875 33.734375 84.1875 57.375 
z
M 17 13.03125 
Q 23.921875 9.90625 31.25 6.5 
Q 37.984375 12.25 41.796875 20.0625 
L 21.484375 20.0625 
Q 19.234375 16.453125 17 13.03125 
z
M 47.46875 79.546875 
L 53.515625 75.53125 
Q 48.140625 68.5 42.78125 62.546875 
Q 40.53125 64.5 37.5 66.65625 
Q 42.578125 72.609375 47.46875 79.546875 
z
M 5.953125 75.25 
L 11.53125 79.046875 
Q 15.921875 73.6875 20.609375 67.53125 
L 14.546875 63.234375 
Q 10.25 69.578125 5.953125 75.25 
z
" id="MicrosoftYaHei-6570"/>
      <path d="M 1.765625 -4.34375 
L 46.578125 -4.34375 
L 46.578125 1.21875 
L 7.421875 1.21875 
L 7.421875 6.296875 
L 46.578125 6.296875 
L 46.578125 11.859375 
L 23.34375 11.859375 
L 23.34375 9.328125 
L 16.703125 9.328125 
L 16.703125 39.3125 
L 83.59375 39.3125 
L 83.59375 9.328125 
L 76.953125 9.328125 
L 76.953125 11.859375 
L 53.421875 11.859375 
L 53.421875 6.296875 
L 92.671875 6.296875 
L 92.671875 1.21875 
L 53.421875 1.21875 
L 53.421875 -4.34375 
L 98.25 -4.34375 
L 98.25 -9.625 
L 1.765625 -9.625 
z
M 17.484375 79.25 
L 82.90625 79.25 
L 82.90625 51.3125 
L 76.265625 51.3125 
L 76.265625 53.953125 
L 24.125 53.953125 
L 24.125 51.3125 
L 17.484375 51.3125 
z
M 2.546875 49.265625 
L 97.859375 49.265625 
L 97.859375 44 
L 2.546875 44 
z
M 24.125 59.03125 
L 76.265625 59.03125 
L 76.265625 64.3125 
L 24.125 64.3125 
z
M 76.265625 74.171875 
L 24.125 74.171875 
L 24.125 69 
L 76.265625 69 
z
M 53.421875 16.9375 
L 76.953125 16.9375 
L 76.953125 23.296875 
L 53.421875 23.296875 
z
M 23.34375 16.9375 
L 46.578125 16.9375 
L 46.578125 23.296875 
L 23.34375 23.296875 
z
M 76.953125 34.234375 
L 53.421875 34.234375 
L 53.421875 27.984375 
L 76.953125 27.984375 
z
M 23.34375 27.984375 
L 46.578125 27.984375 
L 46.578125 34.234375 
L 23.34375 34.234375 
z
" id="MicrosoftYaHei-91cf"/>
      <path d="M 57.625 -17.1875 
Q 40.1875 1.859375 40.1875 28.90625 
Q 40.1875 56.296875 57.625 75.59375 
L 66.015625 75.59375 
Q 48.6875 55.8125 48.6875 29 
Q 48.6875 2.59375 65.921875 -17.1875 
z
" id="MicrosoftYaHei-ff08"/>
      <path d="M 90.53125 25.828125 
Q 92.96875 24.65625 98.734375 22.90625 
Q 97.859375 12.0625 96.484375 4.046875 
Q 94.34375 -8.34375 79.203125 -8.453125 
Q 63.671875 -9.03125 49.703125 -8.453125 
Q 36.71875 -7.765625 33.984375 -0.140625 
Q 31.453125 7.671875 40.140625 19.78125 
Q 48.640625 31.390625 79.984375 67.625 
L 36.71875 67.625 
L 36.71875 75.34375 
L 90.140625 75.34375 
L 90.140625 66.265625 
Q 66.5 40.484375 49.03125 18.40625 
Q 40.828125 7.375 41.796875 3.375 
Q 42.1875 -0.734375 52.640625 -1.03125 
Q 64.546875 -1.515625 76.375 -0.921875 
Q 83.296875 -0.640625 85.546875 1.03125 
Q 88.09375 2.6875 88.875 7.859375 
Q 89.84375 13.234375 90.53125 25.828125 
z
M 1.375 34.515625 
Q 15.625 54.25 23.921875 82.859375 
L 31.9375 80.515625 
Q 27.9375 68.5625 23.25 58.0625 
L 23.25 -12.453125 
L 15.625 -12.453125 
L 15.625 42.828125 
Q 10.5 33.640625 4.6875 25.921875 
Q 3.328125 30.21875 1.375 34.515625 
z
" id="MicrosoftYaHei-4ebf"/>
      <path d="M 2.9375 48.1875 
L 97.265625 48.1875 
L 97.265625 40.765625 
L 66.40625 40.765625 
L 66.40625 2.6875 
Q 66.40625 -3.078125 72.265625 -3.078125 
L 80.671875 -3.078125 
Q 87.703125 -3.078125 88.671875 3.375 
Q 89.546875 8.84375 90.140625 17.234375 
Q 94.046875 15.875 98.640625 14.796875 
Q 97.65625 6.390625 96.578125 0.734375 
Q 94.625 -10.015625 82.421875 -10.015625 
L 70.515625 -10.015625 
Q 58.203125 -10.015625 58.203125 2 
L 58.203125 40.765625 
L 38.28125 40.765625 
L 38.28125 37.640625 
Q 38.28125 16.9375 32.03125 6.984375 
Q 25.78125 -3.859375 7.328125 -13.234375 
Q 3.8125 -8.9375 1.5625 -6.6875 
Q 18.453125 1.609375 24.3125 10.796875 
Q 30.078125 19.578125 30.078125 37.25 
L 30.078125 40.765625 
L 2.9375 40.765625 
z
M 12.3125 76.609375 
L 88.09375 76.609375 
L 88.09375 69.1875 
L 12.3125 69.1875 
z
" id="MicrosoftYaHei-5143"/>
      <path d="M 42.390625 -17.1875 
L 33.984375 -17.1875 
Q 51.3125 2.546875 51.3125 29.5 
Q 51.3125 55.953125 34.078125 75.59375 
L 42.390625 75.59375 
Q 59.71875 56.6875 59.71875 29.5 
Q 59.71875 2 42.390625 -17.1875 
z
" id="MicrosoftYaHei-ff09"/>
     </defs>
     <g transform="translate(145 68.83375)scale(0.1 -0.1)">
      <use xlink:href="#MicrosoftYaHei-4d"/>
      <use x="97.705078" xlink:href="#MicrosoftYaHei-32"/>
      <use x="156.347656" xlink:href="#MicrosoftYaHei-6570"/>
      <use x="256.347656" xlink:href="#MicrosoftYaHei-91cf"/>
      <use x="356.347656" xlink:href="#MicrosoftYaHei-ff08"/>
      <use x="456.347656" xlink:href="#MicrosoftYaHei-4ebf"/>
      <use x="556.347656" xlink:href="#MicrosoftYaHei-5143"/>
      <use x="656.347656" xlink:href="#MicrosoftYaHei-ff09"/>
     </g>
    </g>
    <g id="line2d_36">
     <path d="M 117 80.813438 
L 137 80.813438 
" style="fill:none;stroke:#ff7f0e;stroke-linecap:square;stroke-width:1.5;"/>
    </g>
    <g id="line2d_37"/>
    <g id="text_18">
     <!-- M1数量（亿元） -->
     <g transform="translate(145 84.313438)scale(0.1 -0.1)">
      <use xlink:href="#MicrosoftYaHei-4d"/>
      <use x="97.705078" xlink:href="#MicrosoftYaHei-31"/>
      <use x="156.347656" xlink:href="#MicrosoftYaHei-6570"/>
      <use x="256.347656" xlink:href="#MicrosoftYaHei-91cf"/>
      <use x="356.347656" xlink:href="#MicrosoftYaHei-ff08"/>
      <use x="456.347656" xlink:href="#MicrosoftYaHei-4ebf"/>
      <use x="556.347656" xlink:href="#MicrosoftYaHei-5143"/>
      <use x="656.347656" xlink:href="#MicrosoftYaHei-ff09"/>
     </g>
    </g>
    <g id="line2d_38">
     <path d="M 117 96.293125 
L 137 96.293125 
" style="fill:none;stroke:#2ca02c;stroke-linecap:square;stroke-width:1.5;"/>
    </g>
    <g id="line2d_39"/>
    <g id="text_19">
     <!-- M0数量（亿元） -->
     <g transform="translate(145 99.793125)scale(0.1 -0.1)">
      <use xlink:href="#MicrosoftYaHei-4d"/>
      <use x="97.705078" xlink:href="#MicrosoftYaHei-30"/>
      <use x="156.347656" xlink:href="#MicrosoftYaHei-6570"/>
      <use x="256.347656" xlink:href="#MicrosoftYaHei-91cf"/>
      <use x="356.347656" xlink:href="#MicrosoftYaHei-ff08"/>
      <use x="456.347656" xlink:href="#MicrosoftYaHei-4ebf"/>
      <use x="556.347656" xlink:href="#MicrosoftYaHei-5143"/>
      <use x="656.347656" xlink:href="#MicrosoftYaHei-ff09"/>
     </g>
    </g>
   </g>
  </g>
 </g>
 <defs>
  <clipPath id="pe5d778082d">
   <rect height="332.64" width="669.6" x="108" y="51.84"/>
  </clipPath>
 </defs>
</svg>
