<?xml version="1.0" encoding="utf-8" standalone="no"?>
<!DOCTYPE svg PUBLIC "-//W3C//DTD SVG 1.1//EN"
  "http://www.w3.org/Graphics/SVG/1.1/DTD/svg11.dtd">
<!-- Created with matplotlib (http://matplotlib.org/) -->
<svg height="432pt" version="1.1" viewBox="0 0 864 432" width="864pt" xmlns="http://www.w3.org/2000/svg" xmlns:xlink="http://www.w3.org/1999/xlink">
 <defs>
  <style type="text/css">
*{stroke-linecap:butt;stroke-linejoin:round;}
  </style>
 </defs>
 <g id="figure_1">
  <g id="patch_1">
   <path d="M 0 432 
L 864 432 
L 864 0 
L 0 0 
z
" style="fill:#ffffff;"/>
  </g>
  <g id="axes_1">
   <g id="patch_2">
    <path d="M 108 384.48 
L 777.6 384.48 
L 777.6 51.84 
L 108 51.84 
z
" style="fill:#ffffff;"/>
   </g>
   <g id="matplotlib.axis_1">
    <g id="xtick_1">
     <g id="line2d_1">
      <path clip-path="url(#p39f6cad5ab)" d="M 108 384.48 
L 108 51.84 
" style="fill:none;stroke:#b0b0b0;stroke-linecap:square;stroke-width:0.8;"/>
     </g>
     <g id="line2d_2">
      <defs>
       <path d="M 0 0 
L 0 3.5 
" id="mf31c80da7e" style="stroke:#000000;stroke-width:0.8;"/>
      </defs>
      <g>
       <use style="stroke:#000000;stroke-width:0.8;" x="108" xlink:href="#mf31c80da7e" y="384.48"/>
      </g>
     </g>
     <g id="text_1">
      <!-- 2008年01月份 -->
      <defs>
       <path d="M 51.171875 0 
L 5.171875 0 
L 5.171875 8.296875 
L 27.15625 30.21875 
Q 36.234375 39.3125 39.3125 44.609375 
Q 42.390625 49.90625 42.390625 55.5625 
Q 42.390625 62.015625 38.765625 65.453125 
Q 35.15625 68.890625 28.328125 68.890625 
Q 18.21875 68.890625 9.03125 60.296875 
L 9.03125 70.015625 
Q 17.96875 76.90625 29.828125 76.90625 
Q 40.046875 76.90625 45.953125 71.390625 
Q 51.859375 65.875 51.859375 56.546875 
Q 51.859375 49.515625 48.0625 42.75 
Q 44.28125 35.984375 33.734375 25.53125 
L 16.5 8.6875 
L 16.5 8.5 
L 51.171875 8.5 
z
" id="MicrosoftYaHei-32"/>
       <path d="M 4.4375 36.328125 
Q 4.4375 56.34375 11.078125 66.625 
Q 17.71875 76.90625 30.328125 76.90625 
Q 54.34375 76.90625 54.34375 38.140625 
Q 54.34375 19 47.578125 8.859375 
Q 40.828125 -1.265625 28.609375 -1.265625 
Q 17.09375 -1.265625 10.765625 8.34375 
Q 4.4375 17.96875 4.4375 36.328125 
z
M 14.203125 36.765625 
Q 14.203125 6.640625 29.5 6.640625 
Q 44.53125 6.640625 44.53125 37.25 
Q 44.53125 68.953125 29.78125 68.953125 
Q 14.203125 68.953125 14.203125 36.765625 
z
" id="MicrosoftYaHei-30"/>
       <path d="M 21.390625 39.796875 
Q 7.859375 46.09375 7.859375 58.0625 
Q 7.859375 66.40625 14.203125 71.65625 
Q 20.5625 76.90625 30.421875 76.90625 
Q 39.453125 76.90625 45.3125 71.96875 
Q 51.171875 67.046875 51.171875 59.234375 
Q 51.171875 46.625 37.0625 39.84375 
L 37.0625 39.65625 
Q 53.609375 33.6875 53.609375 19.34375 
Q 53.609375 9.90625 46.796875 4.3125 
Q 39.984375 -1.265625 27.78125 -1.265625 
Q 17.78125 -1.265625 11.46875 4.25 
Q 5.171875 9.765625 5.171875 18.5625 
Q 5.171875 33.015625 21.390625 39.59375 
z
M 41.5 58.109375 
Q 41.5 63.1875 38.328125 66.109375 
Q 35.15625 69.046875 29.734375 69.046875 
Q 24.65625 69.046875 21.09375 65.984375 
Q 17.53125 62.9375 17.53125 58.203125 
Q 17.53125 48.734375 29.390625 43.796875 
Q 41.5 48.828125 41.5 58.109375 
z
M 28.8125 35.25 
Q 14.796875 29.59375 14.796875 19.046875 
Q 14.796875 13.578125 18.890625 10.0625 
Q 23 6.546875 29.59375 6.546875 
Q 35.984375 6.546875 39.984375 10.03125 
Q 44 13.53125 44 18.75 
Q 44 29.734375 28.8125 35.25 
z
" id="MicrosoftYaHei-38"/>
       <path d="M 1.859375 19.96875 
L 17.578125 19.96875 
L 17.578125 47.90625 
L 52.15625 47.90625 
L 52.15625 65.28125 
L 23.4375 65.28125 
Q 16.84375 53.421875 8.6875 43.40625 
Q 6.15625 46.140625 2.640625 48.875 
Q 16.5 64.5 23.4375 83.9375 
L 31.453125 81.6875 
Q 29.390625 76.859375 27.15625 72.3125 
L 94.34375 72.3125 
L 94.34375 65.28125 
L 60.0625 65.28125 
L 60.0625 47.90625 
L 92.671875 47.90625 
L 92.671875 41.0625 
L 60.0625 41.0625 
L 60.0625 19.96875 
L 98.734375 19.96875 
L 98.734375 12.9375 
L 60.0625 12.9375 
L 60.0625 -13.421875 
L 52.15625 -13.421875 
L 52.15625 12.9375 
L 1.859375 12.9375 
z
M 25.296875 19.96875 
L 52.15625 19.96875 
L 52.15625 41.0625 
L 25.296875 41.0625 
z
" id="MicrosoftYaHei-5e74"/>
       <path d="M 52.59375 0 
L 9.234375 0 
L 9.234375 8.25 
L 26.171875 8.25 
L 26.171875 65.671875 
L 8.796875 60.640625 
L 8.796875 69.4375 
L 35.6875 77.25 
L 35.6875 8.25 
L 52.59375 8.25 
z
" id="MicrosoftYaHei-31"/>
       <path d="M 25.046875 20.0625 
Q 22.859375 1.21875 10.359375 -14.015625 
Q 7.234375 -10.984375 3.609375 -8.15625 
Q 13.09375 2.09375 16.3125 16.265625 
Q 18.5625 26.703125 18.5625 45.171875 
L 18.5625 78.953125 
L 83.796875 78.953125 
L 83.796875 2.78125 
Q 83.796875 -11.671875 70.015625 -11.671875 
Q 64.265625 -11.671875 55.171875 -11.46875 
Q 54.6875 -7.953125 53.71875 -3.265625 
Q 62.703125 -3.859375 67.875 -3.859375 
Q 75.78125 -3.859375 75.78125 3.859375 
L 75.78125 20.0625 
z
M 25.828125 27.203125 
L 75.78125 27.203125 
L 75.78125 45.953125 
L 26.5625 45.953125 
Q 26.5625 36.1875 25.828125 27.203125 
z
M 26.5625 71.625 
L 26.5625 53.078125 
L 75.78125 53.078125 
L 75.78125 71.625 
z
" id="MicrosoftYaHei-6708"/>
       <path d="M 35.453125 41.453125 
L 84.28125 41.453125 
Q 84.1875 40.09375 82.8125 5.71875 
Q 82.421875 -11.078125 67.484375 -11.28125 
Q 59.46875 -11.28125 53.515625 -10.984375 
Q 53.03125 -6.5 52.046875 -2.875 
Q 58.796875 -3.765625 65.625 -3.953125 
Q 75.09375 -4.640625 75.203125 6.59375 
Q 75.984375 19.671875 76.375 34.625 
L 54.390625 34.625 
Q 54.109375 19.09375 49.703125 8.9375 
Q 44.4375 -2.6875 31.546875 -12.84375 
Q 29 -9.71875 25.875 -6.5 
Q 38.28125 3.171875 42.390625 12.0625 
Q 46.390625 19.921875 46.828125 34.625 
L 35.453125 34.625 
z
M 1.171875 36.765625 
Q 15.140625 55.21875 23.828125 82.5625 
L 31.453125 79.9375 
Q 26.703125 66.9375 21.09375 55.609375 
L 21.09375 -12.640625 
L 13.671875 -12.640625 
L 13.671875 42.046875 
Q 9.1875 34.625 4.296875 28.078125 
Q 2.828125 32.28125 1.171875 36.765625 
z
M 62.59375 79.9375 
L 69.046875 82.671875 
Q 78.71875 57.859375 98.828125 46.4375 
Q 95.125 42.140625 93.265625 39.3125 
Q 71.484375 54.25 62.59375 79.9375 
z
M 24.8125 42.828125 
Q 40.046875 56.203125 49.421875 78.65625 
L 56.34375 76.03125 
Q 47.265625 53.265625 30.671875 37.453125 
Q 27.15625 41.0625 24.8125 42.828125 
z
" id="MicrosoftYaHei-4efd"/>
      </defs>
      <g transform="translate(75.407813 399.47375)scale(0.1 -0.1)">
       <use xlink:href="#MicrosoftYaHei-32"/>
       <use x="58.642578" xlink:href="#MicrosoftYaHei-30"/>
       <use x="117.285156" xlink:href="#MicrosoftYaHei-30"/>
       <use x="175.927734" xlink:href="#MicrosoftYaHei-38"/>
       <use x="234.570312" xlink:href="#MicrosoftYaHei-5e74"/>
       <use x="334.570312" xlink:href="#MicrosoftYaHei-30"/>
       <use x="393.212891" xlink:href="#MicrosoftYaHei-31"/>
       <use x="451.855469" xlink:href="#MicrosoftYaHei-6708"/>
       <use x="551.855469" xlink:href="#MicrosoftYaHei-4efd"/>
      </g>
     </g>
    </g>
    <g id="xtick_2">
     <g id="line2d_3">
      <path clip-path="url(#p39f6cad5ab)" d="M 208.691729 384.48 
L 208.691729 51.84 
" style="fill:none;stroke:#b0b0b0;stroke-linecap:square;stroke-width:0.8;"/>
     </g>
     <g id="line2d_4">
      <g>
       <use style="stroke:#000000;stroke-width:0.8;" x="208.691729" xlink:href="#mf31c80da7e" y="384.48"/>
      </g>
     </g>
     <g id="text_2">
      <!-- 2009年09月份 -->
      <defs>
       <path d="M 9.03125 10.25 
Q 15.28125 6.640625 22.515625 6.640625 
Q 32.671875 6.640625 38.25 14.640625 
Q 43.84375 22.65625 43.84375 37.40625 
Q 43.75 37.3125 43.65625 37.40625 
Q 38.671875 27.9375 26.90625 27.9375 
Q 17.390625 27.9375 11.140625 34.46875 
Q 4.890625 41.015625 4.890625 51.46875 
Q 4.890625 62.59375 11.71875 69.75 
Q 18.5625 76.90625 29.4375 76.90625 
Q 40.71875 76.90625 47.0625 68.046875 
Q 53.421875 59.1875 53.421875 42.234375 
Q 53.421875 21.296875 45.21875 10.015625 
Q 37.015625 -1.265625 22.515625 -1.265625 
Q 14.546875 -1.265625 9.03125 1.3125 
z
M 14.546875 52.6875 
Q 14.546875 45.0625 18.453125 40.59375 
Q 22.359375 36.140625 29.25 36.140625 
Q 35.203125 36.140625 39.25 40.203125 
Q 43.3125 44.28125 43.3125 50.09375 
Q 43.3125 58.25 39.28125 63.59375 
Q 35.25 68.953125 28.65625 68.953125 
Q 22.5625 68.953125 18.546875 64.3125 
Q 14.546875 59.671875 14.546875 52.6875 
z
" id="MicrosoftYaHei-39"/>
      </defs>
      <g transform="translate(176.099542 399.47375)scale(0.1 -0.1)">
       <use xlink:href="#MicrosoftYaHei-32"/>
       <use x="58.642578" xlink:href="#MicrosoftYaHei-30"/>
       <use x="117.285156" xlink:href="#MicrosoftYaHei-30"/>
       <use x="175.927734" xlink:href="#MicrosoftYaHei-39"/>
       <use x="234.570312" xlink:href="#MicrosoftYaHei-5e74"/>
       <use x="334.570312" xlink:href="#MicrosoftYaHei-30"/>
       <use x="393.212891" xlink:href="#MicrosoftYaHei-39"/>
       <use x="451.855469" xlink:href="#MicrosoftYaHei-6708"/>
       <use x="551.855469" xlink:href="#MicrosoftYaHei-4efd"/>
      </g>
     </g>
    </g>
    <g id="xtick_3">
     <g id="line2d_5">
      <path clip-path="url(#p39f6cad5ab)" d="M 309.383459 384.48 
L 309.383459 51.84 
" style="fill:none;stroke:#b0b0b0;stroke-linecap:square;stroke-width:0.8;"/>
     </g>
     <g id="line2d_6">
      <g>
       <use style="stroke:#000000;stroke-width:0.8;" x="309.383459" xlink:href="#mf31c80da7e" y="384.48"/>
      </g>
     </g>
     <g id="text_3">
      <!-- 2011年05月份 -->
      <defs>
       <path d="M 8.640625 11.625 
Q 16.265625 6.640625 24.515625 6.640625 
Q 32.328125 6.640625 37.109375 11 
Q 41.890625 15.375 41.890625 22.609375 
Q 41.890625 29.890625 37.03125 33.890625 
Q 32.171875 37.890625 22.953125 37.890625 
Q 18.5 37.890625 10.984375 37.203125 
L 10.984375 75.640625 
L 48.1875 75.640625 
L 48.1875 67.1875 
L 19.875 67.1875 
L 19.875 45.796875 
Q 24.125 46.046875 26.265625 46.046875 
Q 38.234375 46.046875 44.921875 39.984375 
Q 51.609375 33.9375 51.609375 23.296875 
Q 51.609375 12.3125 44.421875 5.515625 
Q 37.25 -1.265625 24.609375 -1.265625 
Q 14.015625 -1.265625 8.640625 1.859375 
z
" id="MicrosoftYaHei-35"/>
      </defs>
      <g transform="translate(276.791271 399.47375)scale(0.1 -0.1)">
       <use xlink:href="#MicrosoftYaHei-32"/>
       <use x="58.642578" xlink:href="#MicrosoftYaHei-30"/>
       <use x="117.285156" xlink:href="#MicrosoftYaHei-31"/>
       <use x="175.927734" xlink:href="#MicrosoftYaHei-31"/>
       <use x="234.570312" xlink:href="#MicrosoftYaHei-5e74"/>
       <use x="334.570312" xlink:href="#MicrosoftYaHei-30"/>
       <use x="393.212891" xlink:href="#MicrosoftYaHei-35"/>
       <use x="451.855469" xlink:href="#MicrosoftYaHei-6708"/>
       <use x="551.855469" xlink:href="#MicrosoftYaHei-4efd"/>
      </g>
     </g>
    </g>
    <g id="xtick_4">
     <g id="line2d_7">
      <path clip-path="url(#p39f6cad5ab)" d="M 410.075188 384.48 
L 410.075188 51.84 
" style="fill:none;stroke:#b0b0b0;stroke-linecap:square;stroke-width:0.8;"/>
     </g>
     <g id="line2d_8">
      <g>
       <use style="stroke:#000000;stroke-width:0.8;" x="410.075188" xlink:href="#mf31c80da7e" y="384.48"/>
      </g>
     </g>
     <g id="text_4">
      <!-- 2013年01月份 -->
      <defs>
       <path d="M 6.984375 12.640625 
Q 14.75 6.640625 24.515625 6.640625 
Q 32.328125 6.640625 36.890625 10.46875 
Q 41.453125 14.3125 41.453125 20.75 
Q 41.453125 35.109375 20.90625 35.109375 
L 14.59375 35.109375 
L 14.59375 43.015625 
L 20.609375 43.015625 
Q 38.8125 43.015625 38.8125 56.5 
Q 38.8125 68.953125 24.90625 68.953125 
Q 16.9375 68.953125 9.90625 63.578125 
L 9.90625 72.609375 
Q 17.328125 76.90625 27.25 76.90625 
Q 36.921875 76.90625 42.78125 71.84375 
Q 48.640625 66.796875 48.640625 58.734375 
Q 48.640625 43.890625 33.5 39.65625 
L 33.5 39.453125 
Q 41.703125 38.578125 46.453125 33.671875 
Q 51.21875 28.765625 51.21875 21.4375 
Q 51.21875 11.234375 43.875 4.984375 
Q 36.53125 -1.265625 24.3125 -1.265625 
Q 13.578125 -1.265625 6.984375 2.734375 
z
" id="MicrosoftYaHei-33"/>
      </defs>
      <g transform="translate(377.483 399.47375)scale(0.1 -0.1)">
       <use xlink:href="#MicrosoftYaHei-32"/>
       <use x="58.642578" xlink:href="#MicrosoftYaHei-30"/>
       <use x="117.285156" xlink:href="#MicrosoftYaHei-31"/>
       <use x="175.927734" xlink:href="#MicrosoftYaHei-33"/>
       <use x="234.570312" xlink:href="#MicrosoftYaHei-5e74"/>
       <use x="334.570312" xlink:href="#MicrosoftYaHei-30"/>
       <use x="393.212891" xlink:href="#MicrosoftYaHei-31"/>
       <use x="451.855469" xlink:href="#MicrosoftYaHei-6708"/>
       <use x="551.855469" xlink:href="#MicrosoftYaHei-4efd"/>
      </g>
     </g>
    </g>
    <g id="xtick_5">
     <g id="line2d_9">
      <path clip-path="url(#p39f6cad5ab)" d="M 510.766917 384.48 
L 510.766917 51.84 
" style="fill:none;stroke:#b0b0b0;stroke-linecap:square;stroke-width:0.8;"/>
     </g>
     <g id="line2d_10">
      <g>
       <use style="stroke:#000000;stroke-width:0.8;" x="510.766917" xlink:href="#mf31c80da7e" y="384.48"/>
      </g>
     </g>
     <g id="text_5">
      <!-- 2014年09月份 -->
      <defs>
       <path d="M 55.078125 19.625 
L 45.40625 19.625 
L 45.40625 0 
L 36.140625 0 
L 36.140625 19.625 
L 0.875 19.625 
L 0.875 25.828125 
L 34.328125 75.640625 
L 45.40625 75.640625 
L 45.40625 27.203125 
L 55.078125 27.203125 
z
M 36.140625 27.203125 
L 36.140625 58.890625 
Q 36.140625 62.25 36.328125 66.65625 
L 36.140625 66.65625 
Q 35.453125 64.796875 33.25 60.84375 
L 10.75 27.203125 
z
" id="MicrosoftYaHei-34"/>
      </defs>
      <g transform="translate(478.17473 399.47375)scale(0.1 -0.1)">
       <use xlink:href="#MicrosoftYaHei-32"/>
       <use x="58.642578" xlink:href="#MicrosoftYaHei-30"/>
       <use x="117.285156" xlink:href="#MicrosoftYaHei-31"/>
       <use x="175.927734" xlink:href="#MicrosoftYaHei-34"/>
       <use x="234.570312" xlink:href="#MicrosoftYaHei-5e74"/>
       <use x="334.570312" xlink:href="#MicrosoftYaHei-30"/>
       <use x="393.212891" xlink:href="#MicrosoftYaHei-39"/>
       <use x="451.855469" xlink:href="#MicrosoftYaHei-6708"/>
       <use x="551.855469" xlink:href="#MicrosoftYaHei-4efd"/>
      </g>
     </g>
    </g>
    <g id="xtick_6">
     <g id="line2d_11">
      <path clip-path="url(#p39f6cad5ab)" d="M 611.458647 384.48 
L 611.458647 51.84 
" style="fill:none;stroke:#b0b0b0;stroke-linecap:square;stroke-width:0.8;"/>
     </g>
     <g id="line2d_12">
      <g>
       <use style="stroke:#000000;stroke-width:0.8;" x="611.458647" xlink:href="#mf31c80da7e" y="384.48"/>
      </g>
     </g>
     <g id="text_6">
      <!-- 2016年05月份 -->
      <defs>
       <path d="M 49.703125 65.921875 
Q 43.796875 68.953125 37.359375 68.953125 
Q 27.546875 68.953125 21.578125 60.40625 
Q 15.625 51.859375 15.53125 37.0625 
L 15.765625 37.0625 
Q 21.140625 47.46875 32.90625 47.46875 
Q 42.71875 47.46875 48.578125 41.0625 
Q 54.4375 34.671875 54.4375 24.078125 
Q 54.4375 12.984375 47.671875 5.859375 
Q 40.921875 -1.265625 30.421875 -1.265625 
Q 18.890625 -1.265625 12.328125 7.734375 
Q 5.765625 16.75 5.765625 33.296875 
Q 5.765625 53.328125 14.375 65.109375 
Q 23 76.90625 37.0625 76.90625 
Q 45.125 76.90625 49.703125 74.703125 
z
M 16.109375 24.75 
Q 16.109375 17.28125 20.09375 11.953125 
Q 24.078125 6.640625 30.671875 6.640625 
Q 36.921875 6.640625 40.828125 11.234375 
Q 44.734375 15.828125 44.734375 23.046875 
Q 44.734375 30.859375 41.046875 35.203125 
Q 37.359375 39.546875 30.5625 39.546875 
Q 24.125 39.546875 20.109375 35.15625 
Q 16.109375 30.765625 16.109375 24.75 
z
" id="MicrosoftYaHei-36"/>
      </defs>
      <g transform="translate(578.866459 399.47375)scale(0.1 -0.1)">
       <use xlink:href="#MicrosoftYaHei-32"/>
       <use x="58.642578" xlink:href="#MicrosoftYaHei-30"/>
       <use x="117.285156" xlink:href="#MicrosoftYaHei-31"/>
       <use x="175.927734" xlink:href="#MicrosoftYaHei-36"/>
       <use x="234.570312" xlink:href="#MicrosoftYaHei-5e74"/>
       <use x="334.570312" xlink:href="#MicrosoftYaHei-30"/>
       <use x="393.212891" xlink:href="#MicrosoftYaHei-35"/>
       <use x="451.855469" xlink:href="#MicrosoftYaHei-6708"/>
       <use x="551.855469" xlink:href="#MicrosoftYaHei-4efd"/>
      </g>
     </g>
    </g>
    <g id="xtick_7">
     <g id="line2d_13">
      <path clip-path="url(#p39f6cad5ab)" d="M 712.150376 384.48 
L 712.150376 51.84 
" style="fill:none;stroke:#b0b0b0;stroke-linecap:square;stroke-width:0.8;"/>
     </g>
     <g id="line2d_14">
      <g>
       <use style="stroke:#000000;stroke-width:0.8;" x="712.150376" xlink:href="#mf31c80da7e" y="384.48"/>
      </g>
     </g>
     <g id="text_7">
      <!-- 2018年01月份 -->
      <g transform="translate(679.558188 399.47375)scale(0.1 -0.1)">
       <use xlink:href="#MicrosoftYaHei-32"/>
       <use x="58.642578" xlink:href="#MicrosoftYaHei-30"/>
       <use x="117.285156" xlink:href="#MicrosoftYaHei-31"/>
       <use x="175.927734" xlink:href="#MicrosoftYaHei-38"/>
       <use x="234.570312" xlink:href="#MicrosoftYaHei-5e74"/>
       <use x="334.570312" xlink:href="#MicrosoftYaHei-30"/>
       <use x="393.212891" xlink:href="#MicrosoftYaHei-31"/>
       <use x="451.855469" xlink:href="#MicrosoftYaHei-6708"/>
       <use x="551.855469" xlink:href="#MicrosoftYaHei-4efd"/>
      </g>
     </g>
    </g>
    <g id="text_8">
     <!-- 月份 -->
     <g transform="translate(432.8 413.953438)scale(0.1 -0.1)">
      <use xlink:href="#MicrosoftYaHei-6708"/>
      <use x="100" xlink:href="#MicrosoftYaHei-4efd"/>
     </g>
    </g>
   </g>
   <g id="matplotlib.axis_2">
    <g id="ytick_1">
     <g id="line2d_15">
      <path clip-path="url(#p39f6cad5ab)" d="M 108 381.435874 
L 777.6 381.435874 
" style="fill:none;stroke:#b0b0b0;stroke-linecap:square;stroke-width:0.8;"/>
     </g>
     <g id="line2d_16">
      <defs>
       <path d="M 0 0 
L -3.5 0 
" id="m0767ee6941" style="stroke:#000000;stroke-width:0.8;"/>
      </defs>
      <g>
       <use style="stroke:#000000;stroke-width:0.8;" x="108" xlink:href="#m0767ee6941" y="381.435874"/>
      </g>
     </g>
     <g id="text_9">
      <!-- −20 -->
      <defs>
       <path d="M 62.0625 27.6875 
L 12.3125 27.6875 
L 12.3125 35.15625 
L 62.0625 35.15625 
z
" id="MicrosoftYaHei-2212"/>
      </defs>
      <g transform="translate(81.854687 385.432749)scale(0.1 -0.1)">
       <use xlink:href="#MicrosoftYaHei-2212"/>
       <use x="74.169922" xlink:href="#MicrosoftYaHei-32"/>
       <use x="132.8125" xlink:href="#MicrosoftYaHei-30"/>
      </g>
     </g>
    </g>
    <g id="ytick_2">
     <g id="line2d_17">
      <path clip-path="url(#p39f6cad5ab)" d="M 108 331.119734 
L 777.6 331.119734 
" style="fill:none;stroke:#b0b0b0;stroke-linecap:square;stroke-width:0.8;"/>
     </g>
     <g id="line2d_18">
      <g>
       <use style="stroke:#000000;stroke-width:0.8;" x="108" xlink:href="#m0767ee6941" y="331.119734"/>
      </g>
     </g>
     <g id="text_10">
      <!-- −10 -->
      <g transform="translate(81.854687 335.116609)scale(0.1 -0.1)">
       <use xlink:href="#MicrosoftYaHei-2212"/>
       <use x="74.169922" xlink:href="#MicrosoftYaHei-31"/>
       <use x="132.8125" xlink:href="#MicrosoftYaHei-30"/>
      </g>
     </g>
    </g>
    <g id="ytick_3">
     <g id="line2d_19">
      <path clip-path="url(#p39f6cad5ab)" d="M 108 280.803594 
L 777.6 280.803594 
" style="fill:none;stroke:#b0b0b0;stroke-linecap:square;stroke-width:0.8;"/>
     </g>
     <g id="line2d_20">
      <g>
       <use style="stroke:#000000;stroke-width:0.8;" x="108" xlink:href="#m0767ee6941" y="280.803594"/>
      </g>
     </g>
     <g id="text_11">
      <!-- 0 -->
      <g transform="translate(95.135937 284.800469)scale(0.1 -0.1)">
       <use xlink:href="#MicrosoftYaHei-30"/>
      </g>
     </g>
    </g>
    <g id="ytick_4">
     <g id="line2d_21">
      <path clip-path="url(#p39f6cad5ab)" d="M 108 230.487454 
L 777.6 230.487454 
" style="fill:none;stroke:#b0b0b0;stroke-linecap:square;stroke-width:0.8;"/>
     </g>
     <g id="line2d_22">
      <g>
       <use style="stroke:#000000;stroke-width:0.8;" x="108" xlink:href="#m0767ee6941" y="230.487454"/>
      </g>
     </g>
     <g id="text_12">
      <!-- 10 -->
      <g transform="translate(89.271875 234.484329)scale(0.1 -0.1)">
       <use xlink:href="#MicrosoftYaHei-31"/>
       <use x="58.642578" xlink:href="#MicrosoftYaHei-30"/>
      </g>
     </g>
    </g>
    <g id="ytick_5">
     <g id="line2d_23">
      <path clip-path="url(#p39f6cad5ab)" d="M 108 180.171314 
L 777.6 180.171314 
" style="fill:none;stroke:#b0b0b0;stroke-linecap:square;stroke-width:0.8;"/>
     </g>
     <g id="line2d_24">
      <g>
       <use style="stroke:#000000;stroke-width:0.8;" x="108" xlink:href="#m0767ee6941" y="180.171314"/>
      </g>
     </g>
     <g id="text_13">
      <!-- 20 -->
      <g transform="translate(89.271875 184.168189)scale(0.1 -0.1)">
       <use xlink:href="#MicrosoftYaHei-32"/>
       <use x="58.642578" xlink:href="#MicrosoftYaHei-30"/>
      </g>
     </g>
    </g>
    <g id="ytick_6">
     <g id="line2d_25">
      <path clip-path="url(#p39f6cad5ab)" d="M 108 129.855175 
L 777.6 129.855175 
" style="fill:none;stroke:#b0b0b0;stroke-linecap:square;stroke-width:0.8;"/>
     </g>
     <g id="line2d_26">
      <g>
       <use style="stroke:#000000;stroke-width:0.8;" x="108" xlink:href="#m0767ee6941" y="129.855175"/>
      </g>
     </g>
     <g id="text_14">
      <!-- 30 -->
      <g transform="translate(89.271875 133.85205)scale(0.1 -0.1)">
       <use xlink:href="#MicrosoftYaHei-33"/>
       <use x="58.642578" xlink:href="#MicrosoftYaHei-30"/>
      </g>
     </g>
    </g>
    <g id="ytick_7">
     <g id="line2d_27">
      <path clip-path="url(#p39f6cad5ab)" d="M 108 79.539035 
L 777.6 79.539035 
" style="fill:none;stroke:#b0b0b0;stroke-linecap:square;stroke-width:0.8;"/>
     </g>
     <g id="line2d_28">
      <g>
       <use style="stroke:#000000;stroke-width:0.8;" x="108" xlink:href="#m0767ee6941" y="79.539035"/>
      </g>
     </g>
     <g id="text_15">
      <!-- 40 -->
      <g transform="translate(89.271875 83.53591)scale(0.1 -0.1)">
       <use xlink:href="#MicrosoftYaHei-34"/>
       <use x="58.642578" xlink:href="#MicrosoftYaHei-30"/>
      </g>
     </g>
    </g>
   </g>
   <g id="line2d_29">
    <path clip-path="url(#p39f6cad5ab)" d="M 108 185.806722 
L 113.034586 193.303827 
L 118.069173 199.341764 
L 123.103759 195.568053 
L 128.138346 189.882329 
L 133.172932 193.404459 
L 138.207519 198.536705 
L 143.242105 200.29777 
L 148.276692 203.870216 
L 153.311278 205.228752 
L 158.345865 206.335707 
L 163.380451 191.140233 
L 168.415038 186.259567 
L 173.449624 177.75614 
L 178.484211 152.447121 
L 183.518797 150.233211 
L 188.553383 151.28985 
L 193.58797 137.60386 
L 198.622556 137.805125 
L 203.657143 137.251647 
L 208.691729 133.326988 
L 213.726316 132.773511 
L 218.760902 131.163394 
L 223.795489 141.528519 
L 228.830075 150.082263 
L 233.864662 152.396805 
L 238.899248 167.59228 
L 243.933835 172.724526 
L 248.968421 175.1397 
L 254.003008 187.718735 
L 259.037594 192.247188 
L 264.07218 184.196606 
L 269.106767 185.202928 
L 274.141353 183.693444 
L 284.210526 181.680799 
L 289.245113 194.259834 
L 294.279699 201.807255 
L 299.314286 197.278802 
L 304.348872 203.8199 
L 309.383459 204.826223 
L 314.418045 200.800932 
L 324.487218 212.876805 
L 329.521805 215.191348 
L 334.556391 215.895774 
L 339.590977 216.902097 
L 344.625564 212.373644 
L 349.66015 218.411581 
L 354.694737 215.392612 
L 359.729323 213.379967 
L 364.76391 216.398935 
L 374.833083 212.373644 
L 379.867669 210.86416 
L 384.902256 212.876805 
L 389.936842 206.335707 
L 394.971429 209.857837 
L 400.006015 210.86416 
L 405.040602 211.367321 
L 410.075188 200.800932 
L 415.109774 204.323062 
L 420.144361 201.807255 
L 425.178947 199.794609 
L 430.213534 201.304093 
L 435.24812 210.360998 
L 440.282707 207.845191 
L 445.317293 206.838869 
L 450.35188 209.354676 
L 455.386466 208.851514 
L 460.421053 209.354676 
L 465.455639 212.373644 
L 470.490226 214.38629 
L 475.524812 213.883128 
L 480.559398 219.921065 
L 485.593985 214.38629 
L 490.628571 213.379967 
L 495.663158 206.838869 
L 500.697744 212.876805 
L 505.732331 216.398935 
L 510.766917 215.895774 
L 520.83609 218.914742 
L 525.870677 219.417903 
L 530.905263 226.462163 
L 535.93985 217.908419 
L 540.974436 222.436872 
L 546.009023 229.984293 
L 551.043609 226.462163 
L 556.078195 221.430549 
L 561.112782 213.883128 
L 566.147368 213.883128 
L 571.181955 214.889451 
L 576.216541 212.876805 
L 581.251128 211.870483 
L 586.285714 213.883128 
L 591.320301 210.360998 
L 596.354887 213.883128 
L 601.389474 213.379967 
L 606.42406 216.398935 
L 611.458647 221.430549 
L 616.493233 221.430549 
L 621.52782 229.481131 
L 626.562406 223.443195 
L 636.631579 222.436872 
L 641.666165 223.443195 
L 646.700752 223.946356 
L 651.735338 223.946356 
L 656.769925 224.952679 
L 661.804511 227.468486 
L 666.839098 227.971647 
L 671.873684 232.5001 
L 681.942857 234.512745 
L 686.977444 236.02223 
L 692.01203 234.512745 
L 697.046617 236.525391 
L 702.081203 235.015907 
L 707.115789 239.544359 
L 712.150376 237.531714 
L 717.184962 236.525391 
L 722.219549 239.544359 
L 727.254135 239.041198 
L 732.288722 239.041198 
L 737.323308 240.550682 
L 742.357895 238.034875 
L 747.392481 239.544359 
L 752.427068 239.041198 
L 757.461654 240.550682 
L 762.496241 240.550682 
L 767.530827 240.047521 
L 772.565414 238.538037 
L 777.6 240.550682 
L 777.6 240.550682 
" style="fill:none;stroke:#1f77b4;stroke-linecap:square;stroke-width:1.5;"/>
   </g>
   <g id="line2d_30">
    <path clip-path="url(#p39f6cad5ab)" d="M 108 177.454243 
L 113.034586 185.454509 
L 118.069173 190.385491 
L 123.103759 184.951348 
L 128.138346 190.586755 
L 133.172932 209.404992 
L 138.207519 210.562263 
L 143.242105 223.040666 
L 148.276692 233.355474 
L 153.311278 236.27381 
L 158.345865 246.588619 
L 163.380451 235.217171 
L 168.415038 247.192413 
L 173.449624 226.10995 
L 178.484211 195.064892 
L 183.518797 192.850982 
L 188.553383 186.762729 
L 193.58797 156.069884 
L 198.622556 148.119933 
L 203.657143 141.327255 
L 208.691729 132.320666 
L 213.726316 119.640998 
L 218.760902 106.558802 
L 223.795489 118.030882 
L 228.830075 84.771913 
L 233.864662 104.747421 
L 238.899248 130.157072 
L 243.933835 123.565657 
L 248.968421 130.358336 
L 254.003008 157.02589 
L 259.037594 165.579634 
L 269.106767 175.642862 
L 274.141353 169.604925 
L 279.17594 169.604925 
L 284.210526 174.133378 
L 289.245113 212.373644 
L 294.279699 207.845191 
L 299.314286 205.329384 
L 304.348872 215.895774 
L 309.383459 216.902097 
L 314.418045 214.889451 
L 319.452632 222.436872 
L 324.487218 224.449517 
L 329.521805 236.27381 
L 334.556391 238.538037 
L 339.590977 241.557005 
L 344.625564 241.053844 
L 349.66015 265.205591 
L 354.694737 259.167654 
L 359.729323 258.664493 
L 364.76391 265.205591 
L 369.798496 263.192945 
L 374.833083 257.155008 
L 384.902256 258.161331 
L 389.936842 244.072812 
L 394.971429 250.110749 
L 400.006015 253.129717 
L 405.040602 248.098103 
L 410.075188 203.8199 
L 415.109774 233.003261 
L 420.144361 220.927388 
L 425.178947 220.927388 
L 430.213534 223.946356 
L 435.24812 235.015907 
L 440.282707 231.996938 
L 445.317293 230.990616 
L 450.35188 236.02223 
L 455.386466 236.02223 
L 460.421053 233.506423 
L 465.455639 234.009584 
L 470.490226 274.765657 
L 475.524812 246.085458 
L 480.559398 253.632879 
L 485.593985 253.129717 
L 490.628571 252.123394 
L 495.663158 236.02223 
L 500.697744 247.09178 
L 505.732331 252.123394 
L 510.766917 256.651847 
L 515.801504 264.702429 
L 525.870677 264.702429 
L 530.905263 227.468486 
L 535.93985 252.626556 
L 540.974436 266.211913 
L 546.009023 262.186622 
L 551.043609 257.155008 
L 556.078195 259.167654 
L 561.112782 247.594942 
L 566.147368 234.009584 
L 571.181955 223.443195 
L 576.216541 210.360998 
L 581.251128 201.807255 
L 586.285714 204.323062 
L 591.320301 187.215574 
L 596.354887 193.253511 
L 601.389474 169.604925 
L 611.458647 161.554343 
L 616.493233 157.02589 
L 621.52782 153.000599 
L 626.562406 153.50376 
L 631.596992 156.522729 
L 636.631579 160.54802 
L 641.666165 166.585957 
L 646.700752 173.127055 
L 651.735338 207.845191 
L 656.769925 173.127055 
L 661.804511 186.209251 
L 666.839098 187.718735 
L 671.873684 195.266156 
L 676.908271 205.329384 
L 681.942857 203.8199 
L 686.977444 210.360998 
L 692.01203 210.360998 
L 697.046617 215.392612 
L 702.081203 216.902097 
L 707.115789 221.430549 
L 712.150376 205.329384 
L 717.184962 238.034875 
L 722.219549 245.079135 
L 727.254135 244.575973 
L 732.288722 250.61391 
L 737.323308 247.594942 
L 742.357895 255.142363 
L 747.392481 261.1803 
L 752.427068 260.677138 
L 757.461654 267.218236 
L 762.496241 273.256173 
L 767.530827 273.256173 
L 772.565414 278.790948 
L 777.6 270.740366 
L 777.6 270.740366 
" style="fill:none;stroke:#ff7f0e;stroke-linecap:square;stroke-width:1.5;"/>
   </g>
   <g id="line2d_31">
    <path clip-path="url(#p39f6cad5ab)" d="M 108 123.766922 
L 113.034586 250.815175 
L 118.069173 224.852047 
L 123.103759 226.965324 
L 128.138346 215.996406 
L 133.172932 219.015374 
L 138.207519 218.914742 
L 143.242105 226.009318 
L 148.276692 234.110216 
L 153.311278 227.518802 
L 158.345865 235.317804 
L 163.380451 217.153677 
L 168.415038 220.323594 
L 173.449624 239.14183 
L 178.484211 226.059634 
L 183.518797 224.147621 
L 188.553383 224.248253 
L 193.58797 223.141298 
L 198.622556 222.487188 
L 203.657143 222.839401 
L 208.691729 200.499035 
L 213.726316 209.908153 
L 218.760902 205.3797 
L 223.795489 221.581498 
L 228.830075 284.778569 
L 233.864662 170.208719 
L 238.899248 201.253777 
L 243.933835 201.505358 
L 248.968421 204.323062 
L 254.003008 201.807255 
L 259.037594 202.813577 
L 264.07218 200.29777 
L 269.106767 211.367321 
L 274.141353 197.278802 
L 279.17594 198.788286 
L 284.210526 196.775641 
L 289.245113 66.96 
L 294.279699 228.97797 
L 299.314286 206.335707 
L 304.348872 206.838869 
L 309.383459 203.316739 
L 314.418045 208.348353 
L 319.452632 208.851514 
L 324.487218 206.838869 
L 329.521805 217.002729 
L 334.556391 220.927388 
L 339.590977 220.424226 
L 344.625564 211.367321 
L 349.66015 265.708752 
L 354.694737 236.525391 
L 359.729323 227.468486 
L 364.76391 228.474809 
L 369.798496 230.487454 
L 374.833083 226.462163 
L 379.867669 230.487454 
L 384.902256 231.996938 
L 389.936842 213.883128 
L 394.971429 227.971647 
L 400.006015 226.965324 
L 405.040602 242.060166 
L 410.075188 258.664493 
L 415.109774 194.259834 
L 420.144361 218.411581 
L 425.178947 226.462163 
L 430.213534 226.462163 
L 435.24812 230.990616 
L 440.282707 233.003261 
L 445.317293 234.009584 
L 450.35188 252.123394 
L 455.386466 240.550682 
L 460.421053 242.060166 
L 465.455639 245.079135 
L 470.490226 167.59228 
L 475.524812 264.199268 
L 480.559398 254.639201 
L 485.593985 253.632879 
L 490.628571 247.09178 
L 495.663158 254.13604 
L 500.697744 253.632879 
L 505.732331 252.626556 
L 510.766917 259.670815 
L 515.801504 261.683461 
L 520.83609 263.192945 
L 525.870677 266.211913 
L 530.905263 369.36 
L 535.93985 195.266156 
L 540.974436 249.607587 
L 546.009023 262.186622 
L 551.043609 271.746689 
L 556.078195 266.211913 
L 561.112782 266.211913 
L 566.147368 271.746689 
L 571.181955 262.186622 
L 576.216541 261.683461 
L 581.251128 264.702429 
L 586.285714 256.148686 
L 591.320301 204.826223 
L 596.354887 304.955341 
L 601.389474 258.664493 
L 606.42406 250.61391 
L 611.458647 249.104426 
L 616.493233 244.575973 
L 621.52782 244.575973 
L 626.562406 243.569651 
L 631.596992 247.594942 
L 636.631579 244.575973 
L 641.666165 242.563328 
L 646.700752 240.047521 
L 651.735338 183.190283 
L 656.769925 264.199268 
L 661.804511 250.110749 
L 666.839098 249.607587 
L 671.873684 244.072812 
L 676.908271 247.594942 
L 681.942857 250.110749 
L 686.977444 248.098103 
L 692.01203 244.575973 
L 697.046617 249.104426 
L 702.081203 252.123394 
L 707.115789 263.696106 
L 712.150376 350.239867 
L 717.184962 212.876805 
L 722.219549 250.61391 
L 727.254135 258.161331 
L 732.288722 262.689784 
L 737.323308 261.1803 
L 747.392481 264.199268 
L 752.427068 269.734043 
L 757.461654 266.715075 
L 762.496241 266.715075 
L 767.530827 262.689784 
L 772.565414 194.259834 
L 777.6 292.879468 
L 777.6 292.879468 
" style="fill:none;stroke:#2ca02c;stroke-linecap:square;stroke-width:1.5;"/>
   </g>
   <g id="patch_3">
    <path d="M 108 384.48 
L 108 51.84 
" style="fill:none;stroke:#000000;stroke-linecap:square;stroke-linejoin:miter;stroke-width:0.8;"/>
   </g>
   <g id="patch_4">
    <path d="M 777.6 384.48 
L 777.6 51.84 
" style="fill:none;stroke:#000000;stroke-linecap:square;stroke-linejoin:miter;stroke-width:0.8;"/>
   </g>
   <g id="patch_5">
    <path d="M 108 384.48 
L 777.6 384.48 
" style="fill:none;stroke:#000000;stroke-linecap:square;stroke-linejoin:miter;stroke-width:0.8;"/>
   </g>
   <g id="patch_6">
    <path d="M 108 51.84 
L 777.6 51.84 
" style="fill:none;stroke:#000000;stroke-linecap:square;stroke-linejoin:miter;stroke-width:0.8;"/>
   </g>
   <g id="legend_1">
    <g id="patch_7">
     <path d="M 702.965625 106.279063 
L 770.6 106.279063 
Q 772.6 106.279063 772.6 104.279063 
L 772.6 58.84 
Q 772.6 56.84 770.6 56.84 
L 702.965625 56.84 
Q 700.965625 56.84 700.965625 58.84 
L 700.965625 104.279063 
Q 700.965625 106.279063 702.965625 106.279063 
z
" style="fill:#ffffff;opacity:0.8;stroke:#cccccc;stroke-linejoin:miter;"/>
    </g>
    <g id="line2d_32">
     <path d="M 704.965625 65.33375 
L 724.965625 65.33375 
" style="fill:none;stroke:#1f77b4;stroke-linecap:square;stroke-width:1.5;"/>
    </g>
    <g id="line2d_33"/>
    <g id="text_16">
     <!-- M2同比 -->
     <defs>
      <path d="M 78.171875 0 
L 78.171875 50.09375 
Q 78.171875 56.296875 78.90625 64.984375 
L 78.65625 64.984375 
Q 77.390625 59.515625 76.421875 57.375 
L 51.46875 0 
L 46.046875 0 
L 21.140625 56.9375 
Q 20.265625 58.890625 18.890625 64.984375 
L 18.609375 64.984375 
Q 19.09375 59.71875 19.09375 49.65625 
L 19.09375 0 
L 9.765625 0 
L 9.765625 75.640625 
L 23 75.640625 
L 45.3125 23.78125 
Q 47.859375 17.828125 48.6875 14.5 
L 49.03125 14.5 
Q 51.5625 21.484375 52.59375 23.96875 
L 75.296875 75.640625 
L 87.890625 75.640625 
L 87.890625 0 
z
" id="MicrosoftYaHei-4d"/>
      <path d="M 15.828125 -12.0625 
L 8.296875 -12.0625 
L 8.296875 77.484375 
L 91.5 77.484375 
L 91.5 -0.734375 
Q 91.5 -11.578125 80.078125 -11.578125 
Q 72.953125 -11.578125 63.875 -11.1875 
Q 63.375 -7.765625 62.5 -3.375 
Q 72.171875 -4.25 78.515625 -4.25 
Q 83.984375 -4.25 83.984375 1.21875 
L 83.984375 70.265625 
L 15.828125 70.265625 
z
M 29.296875 40.09375 
L 70.40625 40.09375 
L 70.40625 9.328125 
L 36.53125 9.328125 
L 36.53125 4.25 
L 29.296875 4.25 
z
M 63.1875 33.0625 
L 36.53125 33.0625 
L 36.53125 16.359375 
L 63.1875 16.359375 
z
M 21.296875 58.34375 
L 78.515625 58.34375 
L 78.515625 51.3125 
L 21.296875 51.3125 
z
" id="MicrosoftYaHei-540c"/>
      <path d="M 50.390625 83.0625 
L 58.5 83.0625 
L 58.5 41.75 
Q 77.484375 55.46875 89.75 70.453125 
L 96.6875 65.28125 
Q 80.859375 47.859375 58.5 32.125 
L 58.5 3.859375 
Q 58.5 -2.59375 64.15625 -2.59375 
L 80.859375 -2.59375 
Q 87.3125 -2.59375 88.28125 3.171875 
Q 89.453125 10.59375 90.046875 19.484375 
Q 94.140625 17.921875 98.4375 16.65625 
Q 97.5625 7.5625 96.09375 0.34375 
Q 94.046875 -9.71875 83.109375 -9.71875 
L 61.625 -9.71875 
Q 50.390625 -9.71875 50.390625 2.484375 
z
M 16.609375 80.515625 
L 16.609375 51.21875 
L 44.140625 51.21875 
L 44.140625 43.890625 
L 16.609375 43.890625 
L 16.609375 2.390625 
Q 26.765625 6.6875 43.171875 14.5 
Q 43.171875 9.90625 43.5625 5.71875 
Q 29.203125 -0.046875 19.234375 -5.125 
Q 14.9375 -7.375 11.328125 -10.5 
L 5.375 -2.875 
Q 8.5 -0.53125 8.5 4.25 
L 8.5 80.515625 
z
" id="MicrosoftYaHei-6bd4"/>
     </defs>
     <g transform="translate(732.965625 68.83375)scale(0.1 -0.1)">
      <use xlink:href="#MicrosoftYaHei-4d"/>
      <use x="97.705078" xlink:href="#MicrosoftYaHei-32"/>
      <use x="156.347656" xlink:href="#MicrosoftYaHei-540c"/>
      <use x="256.347656" xlink:href="#MicrosoftYaHei-6bd4"/>
     </g>
    </g>
    <g id="line2d_34">
     <path d="M 704.965625 80.813438 
L 724.965625 80.813438 
" style="fill:none;stroke:#ff7f0e;stroke-linecap:square;stroke-width:1.5;"/>
    </g>
    <g id="line2d_35"/>
    <g id="text_17">
     <!-- M1同比 -->
     <g transform="translate(732.965625 84.313438)scale(0.1 -0.1)">
      <use xlink:href="#MicrosoftYaHei-4d"/>
      <use x="97.705078" xlink:href="#MicrosoftYaHei-31"/>
      <use x="156.347656" xlink:href="#MicrosoftYaHei-540c"/>
      <use x="256.347656" xlink:href="#MicrosoftYaHei-6bd4"/>
     </g>
    </g>
    <g id="line2d_36">
     <path d="M 704.965625 96.293125 
L 724.965625 96.293125 
" style="fill:none;stroke:#2ca02c;stroke-linecap:square;stroke-width:1.5;"/>
    </g>
    <g id="line2d_37"/>
    <g id="text_18">
     <!-- M0同比 -->
     <g transform="translate(732.965625 99.793125)scale(0.1 -0.1)">
      <use xlink:href="#MicrosoftYaHei-4d"/>
      <use x="97.705078" xlink:href="#MicrosoftYaHei-30"/>
      <use x="156.347656" xlink:href="#MicrosoftYaHei-540c"/>
      <use x="256.347656" xlink:href="#MicrosoftYaHei-6bd4"/>
     </g>
    </g>
   </g>
  </g>
 </g>
 <defs>
  <clipPath id="p39f6cad5ab">
   <rect height="332.64" width="669.6" x="108" y="51.84"/>
  </clipPath>
 </defs>
</svg>
