<?xml version="1.0" encoding="utf-8" standalone="no"?>
<!DOCTYPE svg PUBLIC "-//W3C//DTD SVG 1.1//EN"
  "http://www.w3.org/Graphics/SVG/1.1/DTD/svg11.dtd">
<!-- Created with matplotlib (http://matplotlib.org/) -->
<svg height="432pt" version="1.1" viewBox="0 0 864 432" width="864pt" xmlns="http://www.w3.org/2000/svg" xmlns:xlink="http://www.w3.org/1999/xlink">
 <defs>
  <style type="text/css">
*{stroke-linecap:butt;stroke-linejoin:round;}
  </style>
 </defs>
 <g id="figure_1">
  <g id="patch_1">
   <path d="M 0 432 
L 864 432 
L 864 0 
L 0 0 
z
" style="fill:#ffffff;"/>
  </g>
  <g id="axes_1">
   <g id="patch_2">
    <path d="M 108 384.48 
L 777.6 384.48 
L 777.6 51.84 
L 108 51.84 
z
" style="fill:#ffffff;"/>
   </g>
   <g id="matplotlib.axis_1">
    <g id="xtick_1">
     <g id="line2d_1">
      <path clip-path="url(#p16394d11eb)" d="M 108 384.48 
L 108 51.84 
" style="fill:none;stroke:#b0b0b0;stroke-linecap:square;stroke-width:0.8;"/>
     </g>
     <g id="line2d_2">
      <defs>
       <path d="M 0 0 
L 0 3.5 
" id="m2ba7cc746f" style="stroke:#000000;stroke-width:0.8;"/>
      </defs>
      <g>
       <use style="stroke:#000000;stroke-width:0.8;" x="108" xlink:href="#m2ba7cc746f" y="384.48"/>
      </g>
     </g>
     <g id="text_1">
      <!-- 2008年01月份 -->
      <defs>
       <path d="M 51.171875 0 
L 5.171875 0 
L 5.171875 8.296875 
L 27.15625 30.21875 
Q 36.234375 39.3125 39.3125 44.609375 
Q 42.390625 49.90625 42.390625 55.5625 
Q 42.390625 62.015625 38.765625 65.453125 
Q 35.15625 68.890625 28.328125 68.890625 
Q 18.21875 68.890625 9.03125 60.296875 
L 9.03125 70.015625 
Q 17.96875 76.90625 29.828125 76.90625 
Q 40.046875 76.90625 45.953125 71.390625 
Q 51.859375 65.875 51.859375 56.546875 
Q 51.859375 49.515625 48.0625 42.75 
Q 44.28125 35.984375 33.734375 25.53125 
L 16.5 8.6875 
L 16.5 8.5 
L 51.171875 8.5 
z
" id="MicrosoftYaHei-32"/>
       <path d="M 4.4375 36.328125 
Q 4.4375 56.34375 11.078125 66.625 
Q 17.71875 76.90625 30.328125 76.90625 
Q 54.34375 76.90625 54.34375 38.140625 
Q 54.34375 19 47.578125 8.859375 
Q 40.828125 -1.265625 28.609375 -1.265625 
Q 17.09375 -1.265625 10.765625 8.34375 
Q 4.4375 17.96875 4.4375 36.328125 
z
M 14.203125 36.765625 
Q 14.203125 6.640625 29.5 6.640625 
Q 44.53125 6.640625 44.53125 37.25 
Q 44.53125 68.953125 29.78125 68.953125 
Q 14.203125 68.953125 14.203125 36.765625 
z
" id="MicrosoftYaHei-30"/>
       <path d="M 21.390625 39.796875 
Q 7.859375 46.09375 7.859375 58.0625 
Q 7.859375 66.40625 14.203125 71.65625 
Q 20.5625 76.90625 30.421875 76.90625 
Q 39.453125 76.90625 45.3125 71.96875 
Q 51.171875 67.046875 51.171875 59.234375 
Q 51.171875 46.625 37.0625 39.84375 
L 37.0625 39.65625 
Q 53.609375 33.6875 53.609375 19.34375 
Q 53.609375 9.90625 46.796875 4.3125 
Q 39.984375 -1.265625 27.78125 -1.265625 
Q 17.78125 -1.265625 11.46875 4.25 
Q 5.171875 9.765625 5.171875 18.5625 
Q 5.171875 33.015625 21.390625 39.59375 
z
M 41.5 58.109375 
Q 41.5 63.1875 38.328125 66.109375 
Q 35.15625 69.046875 29.734375 69.046875 
Q 24.65625 69.046875 21.09375 65.984375 
Q 17.53125 62.9375 17.53125 58.203125 
Q 17.53125 48.734375 29.390625 43.796875 
Q 41.5 48.828125 41.5 58.109375 
z
M 28.8125 35.25 
Q 14.796875 29.59375 14.796875 19.046875 
Q 14.796875 13.578125 18.890625 10.0625 
Q 23 6.546875 29.59375 6.546875 
Q 35.984375 6.546875 39.984375 10.03125 
Q 44 13.53125 44 18.75 
Q 44 29.734375 28.8125 35.25 
z
" id="MicrosoftYaHei-38"/>
       <path d="M 1.859375 19.96875 
L 17.578125 19.96875 
L 17.578125 47.90625 
L 52.15625 47.90625 
L 52.15625 65.28125 
L 23.4375 65.28125 
Q 16.84375 53.421875 8.6875 43.40625 
Q 6.15625 46.140625 2.640625 48.875 
Q 16.5 64.5 23.4375 83.9375 
L 31.453125 81.6875 
Q 29.390625 76.859375 27.15625 72.3125 
L 94.34375 72.3125 
L 94.34375 65.28125 
L 60.0625 65.28125 
L 60.0625 47.90625 
L 92.671875 47.90625 
L 92.671875 41.0625 
L 60.0625 41.0625 
L 60.0625 19.96875 
L 98.734375 19.96875 
L 98.734375 12.9375 
L 60.0625 12.9375 
L 60.0625 -13.421875 
L 52.15625 -13.421875 
L 52.15625 12.9375 
L 1.859375 12.9375 
z
M 25.296875 19.96875 
L 52.15625 19.96875 
L 52.15625 41.0625 
L 25.296875 41.0625 
z
" id="MicrosoftYaHei-5e74"/>
       <path d="M 52.59375 0 
L 9.234375 0 
L 9.234375 8.25 
L 26.171875 8.25 
L 26.171875 65.671875 
L 8.796875 60.640625 
L 8.796875 69.4375 
L 35.6875 77.25 
L 35.6875 8.25 
L 52.59375 8.25 
z
" id="MicrosoftYaHei-31"/>
       <path d="M 25.046875 20.0625 
Q 22.859375 1.21875 10.359375 -14.015625 
Q 7.234375 -10.984375 3.609375 -8.15625 
Q 13.09375 2.09375 16.3125 16.265625 
Q 18.5625 26.703125 18.5625 45.171875 
L 18.5625 78.953125 
L 83.796875 78.953125 
L 83.796875 2.78125 
Q 83.796875 -11.671875 70.015625 -11.671875 
Q 64.265625 -11.671875 55.171875 -11.46875 
Q 54.6875 -7.953125 53.71875 -3.265625 
Q 62.703125 -3.859375 67.875 -3.859375 
Q 75.78125 -3.859375 75.78125 3.859375 
L 75.78125 20.0625 
z
M 25.828125 27.203125 
L 75.78125 27.203125 
L 75.78125 45.953125 
L 26.5625 45.953125 
Q 26.5625 36.1875 25.828125 27.203125 
z
M 26.5625 71.625 
L 26.5625 53.078125 
L 75.78125 53.078125 
L 75.78125 71.625 
z
" id="MicrosoftYaHei-6708"/>
       <path d="M 35.453125 41.453125 
L 84.28125 41.453125 
Q 84.1875 40.09375 82.8125 5.71875 
Q 82.421875 -11.078125 67.484375 -11.28125 
Q 59.46875 -11.28125 53.515625 -10.984375 
Q 53.03125 -6.5 52.046875 -2.875 
Q 58.796875 -3.765625 65.625 -3.953125 
Q 75.09375 -4.640625 75.203125 6.59375 
Q 75.984375 19.671875 76.375 34.625 
L 54.390625 34.625 
Q 54.109375 19.09375 49.703125 8.9375 
Q 44.4375 -2.6875 31.546875 -12.84375 
Q 29 -9.71875 25.875 -6.5 
Q 38.28125 3.171875 42.390625 12.0625 
Q 46.390625 19.921875 46.828125 34.625 
L 35.453125 34.625 
z
M 1.171875 36.765625 
Q 15.140625 55.21875 23.828125 82.5625 
L 31.453125 79.9375 
Q 26.703125 66.9375 21.09375 55.609375 
L 21.09375 -12.640625 
L 13.671875 -12.640625 
L 13.671875 42.046875 
Q 9.1875 34.625 4.296875 28.078125 
Q 2.828125 32.28125 1.171875 36.765625 
z
M 62.59375 79.9375 
L 69.046875 82.671875 
Q 78.71875 57.859375 98.828125 46.4375 
Q 95.125 42.140625 93.265625 39.3125 
Q 71.484375 54.25 62.59375 79.9375 
z
M 24.8125 42.828125 
Q 40.046875 56.203125 49.421875 78.65625 
L 56.34375 76.03125 
Q 47.265625 53.265625 30.671875 37.453125 
Q 27.15625 41.0625 24.8125 42.828125 
z
" id="MicrosoftYaHei-4efd"/>
      </defs>
      <g transform="translate(75.407813 399.47375)scale(0.1 -0.1)">
       <use xlink:href="#MicrosoftYaHei-32"/>
       <use x="58.642578" xlink:href="#MicrosoftYaHei-30"/>
       <use x="117.285156" xlink:href="#MicrosoftYaHei-30"/>
       <use x="175.927734" xlink:href="#MicrosoftYaHei-38"/>
       <use x="234.570312" xlink:href="#MicrosoftYaHei-5e74"/>
       <use x="334.570312" xlink:href="#MicrosoftYaHei-30"/>
       <use x="393.212891" xlink:href="#MicrosoftYaHei-31"/>
       <use x="451.855469" xlink:href="#MicrosoftYaHei-6708"/>
       <use x="551.855469" xlink:href="#MicrosoftYaHei-4efd"/>
      </g>
     </g>
    </g>
    <g id="xtick_2">
     <g id="line2d_3">
      <path clip-path="url(#p16394d11eb)" d="M 210.229008 384.48 
L 210.229008 51.84 
" style="fill:none;stroke:#b0b0b0;stroke-linecap:square;stroke-width:0.8;"/>
     </g>
     <g id="line2d_4">
      <g>
       <use style="stroke:#000000;stroke-width:0.8;" x="210.229008" xlink:href="#m2ba7cc746f" y="384.48"/>
      </g>
     </g>
     <g id="text_2">
      <!-- 2009年09月份 -->
      <defs>
       <path d="M 9.03125 10.25 
Q 15.28125 6.640625 22.515625 6.640625 
Q 32.671875 6.640625 38.25 14.640625 
Q 43.84375 22.65625 43.84375 37.40625 
Q 43.75 37.3125 43.65625 37.40625 
Q 38.671875 27.9375 26.90625 27.9375 
Q 17.390625 27.9375 11.140625 34.46875 
Q 4.890625 41.015625 4.890625 51.46875 
Q 4.890625 62.59375 11.71875 69.75 
Q 18.5625 76.90625 29.4375 76.90625 
Q 40.71875 76.90625 47.0625 68.046875 
Q 53.421875 59.1875 53.421875 42.234375 
Q 53.421875 21.296875 45.21875 10.015625 
Q 37.015625 -1.265625 22.515625 -1.265625 
Q 14.546875 -1.265625 9.03125 1.3125 
z
M 14.546875 52.6875 
Q 14.546875 45.0625 18.453125 40.59375 
Q 22.359375 36.140625 29.25 36.140625 
Q 35.203125 36.140625 39.25 40.203125 
Q 43.3125 44.28125 43.3125 50.09375 
Q 43.3125 58.25 39.28125 63.59375 
Q 35.25 68.953125 28.65625 68.953125 
Q 22.5625 68.953125 18.546875 64.3125 
Q 14.546875 59.671875 14.546875 52.6875 
z
" id="MicrosoftYaHei-39"/>
      </defs>
      <g transform="translate(177.63682 399.47375)scale(0.1 -0.1)">
       <use xlink:href="#MicrosoftYaHei-32"/>
       <use x="58.642578" xlink:href="#MicrosoftYaHei-30"/>
       <use x="117.285156" xlink:href="#MicrosoftYaHei-30"/>
       <use x="175.927734" xlink:href="#MicrosoftYaHei-39"/>
       <use x="234.570312" xlink:href="#MicrosoftYaHei-5e74"/>
       <use x="334.570312" xlink:href="#MicrosoftYaHei-30"/>
       <use x="393.212891" xlink:href="#MicrosoftYaHei-39"/>
       <use x="451.855469" xlink:href="#MicrosoftYaHei-6708"/>
       <use x="551.855469" xlink:href="#MicrosoftYaHei-4efd"/>
      </g>
     </g>
    </g>
    <g id="xtick_3">
     <g id="line2d_5">
      <path clip-path="url(#p16394d11eb)" d="M 312.458015 384.48 
L 312.458015 51.84 
" style="fill:none;stroke:#b0b0b0;stroke-linecap:square;stroke-width:0.8;"/>
     </g>
     <g id="line2d_6">
      <g>
       <use style="stroke:#000000;stroke-width:0.8;" x="312.458015" xlink:href="#m2ba7cc746f" y="384.48"/>
      </g>
     </g>
     <g id="text_3">
      <!-- 2011年05月份 -->
      <defs>
       <path d="M 8.640625 11.625 
Q 16.265625 6.640625 24.515625 6.640625 
Q 32.328125 6.640625 37.109375 11 
Q 41.890625 15.375 41.890625 22.609375 
Q 41.890625 29.890625 37.03125 33.890625 
Q 32.171875 37.890625 22.953125 37.890625 
Q 18.5 37.890625 10.984375 37.203125 
L 10.984375 75.640625 
L 48.1875 75.640625 
L 48.1875 67.1875 
L 19.875 67.1875 
L 19.875 45.796875 
Q 24.125 46.046875 26.265625 46.046875 
Q 38.234375 46.046875 44.921875 39.984375 
Q 51.609375 33.9375 51.609375 23.296875 
Q 51.609375 12.3125 44.421875 5.515625 
Q 37.25 -1.265625 24.609375 -1.265625 
Q 14.015625 -1.265625 8.640625 1.859375 
z
" id="MicrosoftYaHei-35"/>
      </defs>
      <g transform="translate(279.865828 399.47375)scale(0.1 -0.1)">
       <use xlink:href="#MicrosoftYaHei-32"/>
       <use x="58.642578" xlink:href="#MicrosoftYaHei-30"/>
       <use x="117.285156" xlink:href="#MicrosoftYaHei-31"/>
       <use x="175.927734" xlink:href="#MicrosoftYaHei-31"/>
       <use x="234.570312" xlink:href="#MicrosoftYaHei-5e74"/>
       <use x="334.570312" xlink:href="#MicrosoftYaHei-30"/>
       <use x="393.212891" xlink:href="#MicrosoftYaHei-35"/>
       <use x="451.855469" xlink:href="#MicrosoftYaHei-6708"/>
       <use x="551.855469" xlink:href="#MicrosoftYaHei-4efd"/>
      </g>
     </g>
    </g>
    <g id="xtick_4">
     <g id="line2d_7">
      <path clip-path="url(#p16394d11eb)" d="M 414.687023 384.48 
L 414.687023 51.84 
" style="fill:none;stroke:#b0b0b0;stroke-linecap:square;stroke-width:0.8;"/>
     </g>
     <g id="line2d_8">
      <g>
       <use style="stroke:#000000;stroke-width:0.8;" x="414.687023" xlink:href="#m2ba7cc746f" y="384.48"/>
      </g>
     </g>
     <g id="text_4">
      <!-- 2013年01月份 -->
      <defs>
       <path d="M 6.984375 12.640625 
Q 14.75 6.640625 24.515625 6.640625 
Q 32.328125 6.640625 36.890625 10.46875 
Q 41.453125 14.3125 41.453125 20.75 
Q 41.453125 35.109375 20.90625 35.109375 
L 14.59375 35.109375 
L 14.59375 43.015625 
L 20.609375 43.015625 
Q 38.8125 43.015625 38.8125 56.5 
Q 38.8125 68.953125 24.90625 68.953125 
Q 16.9375 68.953125 9.90625 63.578125 
L 9.90625 72.609375 
Q 17.328125 76.90625 27.25 76.90625 
Q 36.921875 76.90625 42.78125 71.84375 
Q 48.640625 66.796875 48.640625 58.734375 
Q 48.640625 43.890625 33.5 39.65625 
L 33.5 39.453125 
Q 41.703125 38.578125 46.453125 33.671875 
Q 51.21875 28.765625 51.21875 21.4375 
Q 51.21875 11.234375 43.875 4.984375 
Q 36.53125 -1.265625 24.3125 -1.265625 
Q 13.578125 -1.265625 6.984375 2.734375 
z
" id="MicrosoftYaHei-33"/>
      </defs>
      <g transform="translate(382.094835 399.47375)scale(0.1 -0.1)">
       <use xlink:href="#MicrosoftYaHei-32"/>
       <use x="58.642578" xlink:href="#MicrosoftYaHei-30"/>
       <use x="117.285156" xlink:href="#MicrosoftYaHei-31"/>
       <use x="175.927734" xlink:href="#MicrosoftYaHei-33"/>
       <use x="234.570312" xlink:href="#MicrosoftYaHei-5e74"/>
       <use x="334.570312" xlink:href="#MicrosoftYaHei-30"/>
       <use x="393.212891" xlink:href="#MicrosoftYaHei-31"/>
       <use x="451.855469" xlink:href="#MicrosoftYaHei-6708"/>
       <use x="551.855469" xlink:href="#MicrosoftYaHei-4efd"/>
      </g>
     </g>
    </g>
    <g id="xtick_5">
     <g id="line2d_9">
      <path clip-path="url(#p16394d11eb)" d="M 516.916031 384.48 
L 516.916031 51.84 
" style="fill:none;stroke:#b0b0b0;stroke-linecap:square;stroke-width:0.8;"/>
     </g>
     <g id="line2d_10">
      <g>
       <use style="stroke:#000000;stroke-width:0.8;" x="516.916031" xlink:href="#m2ba7cc746f" y="384.48"/>
      </g>
     </g>
     <g id="text_5">
      <!-- 2014年09月份 -->
      <defs>
       <path d="M 55.078125 19.625 
L 45.40625 19.625 
L 45.40625 0 
L 36.140625 0 
L 36.140625 19.625 
L 0.875 19.625 
L 0.875 25.828125 
L 34.328125 75.640625 
L 45.40625 75.640625 
L 45.40625 27.203125 
L 55.078125 27.203125 
z
M 36.140625 27.203125 
L 36.140625 58.890625 
Q 36.140625 62.25 36.328125 66.65625 
L 36.140625 66.65625 
Q 35.453125 64.796875 33.25 60.84375 
L 10.75 27.203125 
z
" id="MicrosoftYaHei-34"/>
      </defs>
      <g transform="translate(484.323843 399.47375)scale(0.1 -0.1)">
       <use xlink:href="#MicrosoftYaHei-32"/>
       <use x="58.642578" xlink:href="#MicrosoftYaHei-30"/>
       <use x="117.285156" xlink:href="#MicrosoftYaHei-31"/>
       <use x="175.927734" xlink:href="#MicrosoftYaHei-34"/>
       <use x="234.570312" xlink:href="#MicrosoftYaHei-5e74"/>
       <use x="334.570312" xlink:href="#MicrosoftYaHei-30"/>
       <use x="393.212891" xlink:href="#MicrosoftYaHei-39"/>
       <use x="451.855469" xlink:href="#MicrosoftYaHei-6708"/>
       <use x="551.855469" xlink:href="#MicrosoftYaHei-4efd"/>
      </g>
     </g>
    </g>
    <g id="xtick_6">
     <g id="line2d_11">
      <path clip-path="url(#p16394d11eb)" d="M 619.145038 384.48 
L 619.145038 51.84 
" style="fill:none;stroke:#b0b0b0;stroke-linecap:square;stroke-width:0.8;"/>
     </g>
     <g id="line2d_12">
      <g>
       <use style="stroke:#000000;stroke-width:0.8;" x="619.145038" xlink:href="#m2ba7cc746f" y="384.48"/>
      </g>
     </g>
     <g id="text_6">
      <!-- 2016年05月份 -->
      <defs>
       <path d="M 49.703125 65.921875 
Q 43.796875 68.953125 37.359375 68.953125 
Q 27.546875 68.953125 21.578125 60.40625 
Q 15.625 51.859375 15.53125 37.0625 
L 15.765625 37.0625 
Q 21.140625 47.46875 32.90625 47.46875 
Q 42.71875 47.46875 48.578125 41.0625 
Q 54.4375 34.671875 54.4375 24.078125 
Q 54.4375 12.984375 47.671875 5.859375 
Q 40.921875 -1.265625 30.421875 -1.265625 
Q 18.890625 -1.265625 12.328125 7.734375 
Q 5.765625 16.75 5.765625 33.296875 
Q 5.765625 53.328125 14.375 65.109375 
Q 23 76.90625 37.0625 76.90625 
Q 45.125 76.90625 49.703125 74.703125 
z
M 16.109375 24.75 
Q 16.109375 17.28125 20.09375 11.953125 
Q 24.078125 6.640625 30.671875 6.640625 
Q 36.921875 6.640625 40.828125 11.234375 
Q 44.734375 15.828125 44.734375 23.046875 
Q 44.734375 30.859375 41.046875 35.203125 
Q 37.359375 39.546875 30.5625 39.546875 
Q 24.125 39.546875 20.109375 35.15625 
Q 16.109375 30.765625 16.109375 24.75 
z
" id="MicrosoftYaHei-36"/>
      </defs>
      <g transform="translate(586.552851 399.47375)scale(0.1 -0.1)">
       <use xlink:href="#MicrosoftYaHei-32"/>
       <use x="58.642578" xlink:href="#MicrosoftYaHei-30"/>
       <use x="117.285156" xlink:href="#MicrosoftYaHei-31"/>
       <use x="175.927734" xlink:href="#MicrosoftYaHei-36"/>
       <use x="234.570312" xlink:href="#MicrosoftYaHei-5e74"/>
       <use x="334.570312" xlink:href="#MicrosoftYaHei-30"/>
       <use x="393.212891" xlink:href="#MicrosoftYaHei-35"/>
       <use x="451.855469" xlink:href="#MicrosoftYaHei-6708"/>
       <use x="551.855469" xlink:href="#MicrosoftYaHei-4efd"/>
      </g>
     </g>
    </g>
    <g id="xtick_7">
     <g id="line2d_13">
      <path clip-path="url(#p16394d11eb)" d="M 721.374046 384.48 
L 721.374046 51.84 
" style="fill:none;stroke:#b0b0b0;stroke-linecap:square;stroke-width:0.8;"/>
     </g>
     <g id="line2d_14">
      <g>
       <use style="stroke:#000000;stroke-width:0.8;" x="721.374046" xlink:href="#m2ba7cc746f" y="384.48"/>
      </g>
     </g>
     <g id="text_7">
      <!-- 2018年01月份 -->
      <g transform="translate(688.781858 399.47375)scale(0.1 -0.1)">
       <use xlink:href="#MicrosoftYaHei-32"/>
       <use x="58.642578" xlink:href="#MicrosoftYaHei-30"/>
       <use x="117.285156" xlink:href="#MicrosoftYaHei-31"/>
       <use x="175.927734" xlink:href="#MicrosoftYaHei-38"/>
       <use x="234.570312" xlink:href="#MicrosoftYaHei-5e74"/>
       <use x="334.570312" xlink:href="#MicrosoftYaHei-30"/>
       <use x="393.212891" xlink:href="#MicrosoftYaHei-31"/>
       <use x="451.855469" xlink:href="#MicrosoftYaHei-6708"/>
       <use x="551.855469" xlink:href="#MicrosoftYaHei-4efd"/>
      </g>
     </g>
    </g>
    <g id="text_8">
     <!-- 月份 -->
     <g transform="translate(432.8 413.953438)scale(0.1 -0.1)">
      <use xlink:href="#MicrosoftYaHei-6708"/>
      <use x="100" xlink:href="#MicrosoftYaHei-4efd"/>
     </g>
    </g>
   </g>
   <g id="matplotlib.axis_2">
    <g id="ytick_1">
     <g id="line2d_15">
      <path clip-path="url(#p16394d11eb)" d="M 108 374.438105 
L 777.6 374.438105 
" style="fill:none;stroke:#b0b0b0;stroke-linecap:square;stroke-width:0.8;"/>
     </g>
     <g id="line2d_16">
      <defs>
       <path d="M 0 0 
L -3.5 0 
" id="m758c64c44a" style="stroke:#000000;stroke-width:0.8;"/>
      </defs>
      <g>
       <use style="stroke:#000000;stroke-width:0.8;" x="108" xlink:href="#m758c64c44a" y="374.438105"/>
      </g>
     </g>
     <g id="text_9">
      <!-- 0 -->
      <g transform="translate(95.135937 378.43498)scale(0.1 -0.1)">
       <use xlink:href="#MicrosoftYaHei-30"/>
      </g>
     </g>
    </g>
    <g id="ytick_2">
     <g id="line2d_17">
      <path clip-path="url(#p16394d11eb)" d="M 108 332.358034 
L 777.6 332.358034 
" style="fill:none;stroke:#b0b0b0;stroke-linecap:square;stroke-width:0.8;"/>
     </g>
     <g id="line2d_18">
      <g>
       <use style="stroke:#000000;stroke-width:0.8;" x="108" xlink:href="#m758c64c44a" y="332.358034"/>
      </g>
     </g>
     <g id="text_10">
      <!-- 250000 -->
      <g transform="translate(65.815625 336.354909)scale(0.1 -0.1)">
       <use xlink:href="#MicrosoftYaHei-32"/>
       <use x="58.642578" xlink:href="#MicrosoftYaHei-35"/>
       <use x="117.285156" xlink:href="#MicrosoftYaHei-30"/>
       <use x="175.927734" xlink:href="#MicrosoftYaHei-30"/>
       <use x="234.570312" xlink:href="#MicrosoftYaHei-30"/>
       <use x="293.212891" xlink:href="#MicrosoftYaHei-30"/>
      </g>
     </g>
    </g>
    <g id="ytick_3">
     <g id="line2d_19">
      <path clip-path="url(#p16394d11eb)" d="M 108 290.277963 
L 777.6 290.277963 
" style="fill:none;stroke:#b0b0b0;stroke-linecap:square;stroke-width:0.8;"/>
     </g>
     <g id="line2d_20">
      <g>
       <use style="stroke:#000000;stroke-width:0.8;" x="108" xlink:href="#m758c64c44a" y="290.277963"/>
      </g>
     </g>
     <g id="text_11">
      <!-- 500000 -->
      <g transform="translate(65.815625 294.274838)scale(0.1 -0.1)">
       <use xlink:href="#MicrosoftYaHei-35"/>
       <use x="58.642578" xlink:href="#MicrosoftYaHei-30"/>
       <use x="117.285156" xlink:href="#MicrosoftYaHei-30"/>
       <use x="175.927734" xlink:href="#MicrosoftYaHei-30"/>
       <use x="234.570312" xlink:href="#MicrosoftYaHei-30"/>
       <use x="293.212891" xlink:href="#MicrosoftYaHei-30"/>
      </g>
     </g>
    </g>
    <g id="ytick_4">
     <g id="line2d_21">
      <path clip-path="url(#p16394d11eb)" d="M 108 248.197892 
L 777.6 248.197892 
" style="fill:none;stroke:#b0b0b0;stroke-linecap:square;stroke-width:0.8;"/>
     </g>
     <g id="line2d_22">
      <g>
       <use style="stroke:#000000;stroke-width:0.8;" x="108" xlink:href="#m758c64c44a" y="248.197892"/>
      </g>
     </g>
     <g id="text_12">
      <!-- 750000 -->
      <defs>
       <path d="M 53.765625 72.3125 
L 24.171875 0 
L 14.265625 0 
L 42.390625 67.1875 
L 4.59375 67.1875 
L 4.59375 75.640625 
L 53.765625 75.640625 
z
" id="MicrosoftYaHei-37"/>
      </defs>
      <g transform="translate(65.815625 252.194767)scale(0.1 -0.1)">
       <use xlink:href="#MicrosoftYaHei-37"/>
       <use x="58.642578" xlink:href="#MicrosoftYaHei-35"/>
       <use x="117.285156" xlink:href="#MicrosoftYaHei-30"/>
       <use x="175.927734" xlink:href="#MicrosoftYaHei-30"/>
       <use x="234.570312" xlink:href="#MicrosoftYaHei-30"/>
       <use x="293.212891" xlink:href="#MicrosoftYaHei-30"/>
      </g>
     </g>
    </g>
    <g id="ytick_5">
     <g id="line2d_23">
      <path clip-path="url(#p16394d11eb)" d="M 108 206.117822 
L 777.6 206.117822 
" style="fill:none;stroke:#b0b0b0;stroke-linecap:square;stroke-width:0.8;"/>
     </g>
     <g id="line2d_24">
      <g>
       <use style="stroke:#000000;stroke-width:0.8;" x="108" xlink:href="#m758c64c44a" y="206.117822"/>
      </g>
     </g>
     <g id="text_13">
      <!-- 1000000 -->
      <g transform="translate(59.951562 210.114697)scale(0.1 -0.1)">
       <use xlink:href="#MicrosoftYaHei-31"/>
       <use x="58.642578" xlink:href="#MicrosoftYaHei-30"/>
       <use x="117.285156" xlink:href="#MicrosoftYaHei-30"/>
       <use x="175.927734" xlink:href="#MicrosoftYaHei-30"/>
       <use x="234.570312" xlink:href="#MicrosoftYaHei-30"/>
       <use x="293.212891" xlink:href="#MicrosoftYaHei-30"/>
       <use x="351.855469" xlink:href="#MicrosoftYaHei-30"/>
      </g>
     </g>
    </g>
    <g id="ytick_6">
     <g id="line2d_25">
      <path clip-path="url(#p16394d11eb)" d="M 108 164.037751 
L 777.6 164.037751 
" style="fill:none;stroke:#b0b0b0;stroke-linecap:square;stroke-width:0.8;"/>
     </g>
     <g id="line2d_26">
      <g>
       <use style="stroke:#000000;stroke-width:0.8;" x="108" xlink:href="#m758c64c44a" y="164.037751"/>
      </g>
     </g>
     <g id="text_14">
      <!-- 1250000 -->
      <g transform="translate(59.951562 168.034626)scale(0.1 -0.1)">
       <use xlink:href="#MicrosoftYaHei-31"/>
       <use x="58.642578" xlink:href="#MicrosoftYaHei-32"/>
       <use x="117.285156" xlink:href="#MicrosoftYaHei-35"/>
       <use x="175.927734" xlink:href="#MicrosoftYaHei-30"/>
       <use x="234.570312" xlink:href="#MicrosoftYaHei-30"/>
       <use x="293.212891" xlink:href="#MicrosoftYaHei-30"/>
       <use x="351.855469" xlink:href="#MicrosoftYaHei-30"/>
      </g>
     </g>
    </g>
    <g id="ytick_7">
     <g id="line2d_27">
      <path clip-path="url(#p16394d11eb)" d="M 108 121.95768 
L 777.6 121.95768 
" style="fill:none;stroke:#b0b0b0;stroke-linecap:square;stroke-width:0.8;"/>
     </g>
     <g id="line2d_28">
      <g>
       <use style="stroke:#000000;stroke-width:0.8;" x="108" xlink:href="#m758c64c44a" y="121.95768"/>
      </g>
     </g>
     <g id="text_15">
      <!-- 1500000 -->
      <g transform="translate(59.951562 125.954555)scale(0.1 -0.1)">
       <use xlink:href="#MicrosoftYaHei-31"/>
       <use x="58.642578" xlink:href="#MicrosoftYaHei-35"/>
       <use x="117.285156" xlink:href="#MicrosoftYaHei-30"/>
       <use x="175.927734" xlink:href="#MicrosoftYaHei-30"/>
       <use x="234.570312" xlink:href="#MicrosoftYaHei-30"/>
       <use x="293.212891" xlink:href="#MicrosoftYaHei-30"/>
       <use x="351.855469" xlink:href="#MicrosoftYaHei-30"/>
      </g>
     </g>
    </g>
    <g id="ytick_8">
     <g id="line2d_29">
      <path clip-path="url(#p16394d11eb)" d="M 108 79.877609 
L 777.6 79.877609 
" style="fill:none;stroke:#b0b0b0;stroke-linecap:square;stroke-width:0.8;"/>
     </g>
     <g id="line2d_30">
      <g>
       <use style="stroke:#000000;stroke-width:0.8;" x="108" xlink:href="#m758c64c44a" y="79.877609"/>
      </g>
     </g>
     <g id="text_16">
      <!-- 1750000 -->
      <g transform="translate(59.951562 83.874484)scale(0.1 -0.1)">
       <use xlink:href="#MicrosoftYaHei-31"/>
       <use x="58.642578" xlink:href="#MicrosoftYaHei-37"/>
       <use x="117.285156" xlink:href="#MicrosoftYaHei-35"/>
       <use x="175.927734" xlink:href="#MicrosoftYaHei-30"/>
       <use x="234.570312" xlink:href="#MicrosoftYaHei-30"/>
       <use x="293.212891" xlink:href="#MicrosoftYaHei-30"/>
       <use x="351.855469" xlink:href="#MicrosoftYaHei-30"/>
      </g>
     </g>
    </g>
   </g>
   <g id="line2d_31">
    <path clip-path="url(#p16394d11eb)" d="M 108 304.106119 
L 113.11145 303.568897 
L 118.222901 303.229447 
L 128.445802 301.013162 
L 133.557252 299.848483 
L 138.668702 299.306298 
L 143.780153 298.888105 
L 148.891603 298.206066 
L 154.003053 298.166576 
L 159.114504 297.238906 
L 164.225954 294.457928 
L 169.337405 290.928469 
L 174.448855 289.148859 
L 179.560305 285.122867 
L 184.671756 283.464155 
L 189.783206 282.154236 
L 194.894656 278.677969 
L 205.117557 277.367974 
L 210.229008 275.902512 
L 215.340458 275.69414 
L 220.451908 274.35407 
L 230.674809 269.135372 
L 235.78626 267.374242 
L 240.89771 265.038764 
L 251.120611 262.782434 
L 256.232061 261.003434 
L 261.343511 260.981569 
L 266.454962 258.716745 
L 271.566412 257.207825 
L 276.677863 256.651486 
L 281.789313 254.873638 
L 286.900763 252.262526 
L 292.012214 250.910402 
L 297.123664 250.53235 
L 302.235115 246.8293 
L 307.346565 246.954921 
L 312.458015 245.940849 
L 317.569466 243.010118 
L 322.680916 244.339377 
L 327.792366 243.004825 
L 332.903817 241.90167 
L 338.015267 236.949174 
L 343.126718 235.490731 
L 348.238168 231.098083 
L 353.349618 230.372961 
L 358.461069 228.475566 
L 363.572519 223.696266 
L 368.683969 224.699701 
L 373.79542 222.941641 
L 378.90687 218.743324 
L 384.018321 219.739578 
L 389.129771 218.759585 
L 394.241221 215.596147 
L 399.352672 216.822271 
L 404.464122 215.403648 
L 409.575573 210.469103 
L 414.687023 207.442628 
L 419.798473 206.35333 
L 424.909924 200.082131 
L 430.021374 200.638677 
L 435.132824 199.019897 
L 440.244275 196.960577 
L 445.355725 197.329426 
L 450.467176 195.807122 
L 455.578626 193.093339 
L 460.690076 194.29464 
L 465.801527 192.777251 
L 470.912977 188.187507 
L 476.024427 185.326696 
L 481.135878 183.939801 
L 486.247328 179.070876 
L 491.358779 177.703225 
L 496.470229 175.434051 
L 501.581679 170.840045 
L 506.69313 173.421734 
L 511.80458 172.87472 
L 516.916031 172.108471 
L 522.027481 172.582309 
L 527.138931 171.005209 
L 532.250382 167.677709 
L 542.473282 162.795466 
L 547.584733 159.77373 
L 552.696183 158.856997 
L 562.919084 150.003986 
L 568.030534 146.665259 
L 573.141985 146.042969 
L 578.253435 145.552134 
L 583.364885 145.350715 
L 588.476336 143.17344 
L 593.587786 140.089459 
L 598.699237 136.042797 
L 603.810687 134.645885 
L 608.922137 131.013643 
L 614.033588 131.180017 
L 619.145038 128.40517 
L 624.256489 123.558098 
L 629.367939 123.378518 
L 634.479389 120.109033 
L 639.59084 119.203876 
L 644.70229 118.677892 
L 649.81374 116.835347 
L 654.925191 113.530444 
L 660.036641 109.174497 
L 665.148092 108.001728 
L 670.259542 105.191369 
L 675.370992 105.743072 
L 680.482443 104.896665 
L 685.593893 99.860167 
L 690.705344 100.24493 
L 695.816794 97.52488 
L 700.928244 95.756596 
L 706.039695 96.131598 
L 711.151145 93.340976 
L 716.262595 92.203949 
L 721.374046 84.790127 
L 726.485496 83.400532 
L 731.596947 81.584464 
L 736.708397 81.950687 
L 741.819847 81.045114 
L 746.931298 76.477539 
L 752.042748 75.467617 
L 762.265649 71.17545 
L 767.377099 72.202204 
L 772.48855 69.239767 
L 777.6 66.96 
L 777.6 66.96 
" style="fill:none;stroke:#1f77b4;stroke-linecap:square;stroke-width:1.5;"/>
   </g>
   <g id="line2d_32">
    <path clip-path="url(#p16394d11eb)" d="M 108 348.369907 
L 113.11145 349.160122 
L 123.334351 348.904775 
L 133.557252 348.378734 
L 138.668702 348.349734 
L 143.780153 348.030349 
L 148.891603 348.222394 
L 154.003053 347.979106 
L 159.114504 347.872682 
L 164.225954 346.460391 
L 169.337405 346.629181 
L 174.448855 346.471757 
L 179.560305 344.722652 
L 184.671756 344.441146 
L 189.783206 343.799508 
L 194.894656 341.929037 
L 200.006107 341.465968 
L 205.117557 340.707591 
L 210.229008 340.486534 
L 215.340458 339.503947 
L 220.451908 338.671189 
L 225.563359 337.164284 
L 230.674809 335.793623 
L 235.78626 336.686062 
L 246.00916 335.066348 
L 251.120611 334.630715 
L 256.232061 333.943611 
L 261.343511 333.929461 
L 266.454962 333.310619 
L 271.566412 333.397934 
L 276.677863 331.800361 
L 281.789313 330.772403 
L 286.900763 329.560292 
L 292.012214 330.377744 
L 297.123664 330.809403 
L 302.235115 329.621907 
L 307.346565 329.535823 
L 312.458015 329.111198 
L 317.569466 328.206823 
L 322.680916 328.899785 
L 327.792366 328.420388 
L 332.903817 329.464077 
L 338.015267 327.888681 
L 343.126718 327.070022 
L 348.238168 325.650858 
L 353.349618 328.989878 
L 358.461069 328.939094 
L 363.572519 327.645384 
L 368.683969 328.152751 
L 373.79542 327.534596 
L 378.90687 326.041619 
L 384.018321 326.788202 
L 389.129771 326.34239 
L 394.241221 326.165832 
L 399.352672 325.06812 
L 404.464122 324.466674 
L 409.575573 322.483654 
L 414.687023 322.052027 
L 419.798473 324.597924 
L 424.909924 322.107617 
L 430.021374 322.654636 
L 435.132824 322.224399 
L 440.244275 321.669727 
L 445.355725 322.158421 
L 450.467176 321.571076 
L 455.578626 321.866574 
L 460.690076 320.658196 
L 465.801527 319.763987 
L 470.912977 317.66518 
L 476.024427 321.433955 
L 481.135878 321.143677 
L 486.247328 319.282285 
L 491.358779 319.821115 
L 496.470229 319.256057 
L 501.581679 316.958841 
L 506.69313 318.66563 
L 511.80458 318.551861 
L 516.916031 319.360307 
L 522.027481 318.956755 
L 527.138931 318.0316 
L 532.250382 315.853151 
L 537.361832 315.844215 
L 542.473282 318.145201 
L 547.584733 317.678735 
L 552.696183 317.817141 
L 557.807634 316.689796 
L 562.919084 314.502137 
L 568.030534 315.000478 
L 573.141985 313.372562 
L 578.253435 313.099349 
L 588.476336 309.19408 
L 593.587786 306.949508 
L 598.699237 304.974741 
L 603.810687 308.371603 
L 608.922137 305.160622 
L 614.033588 304.836853 
L 619.145038 303.028107 
L 624.256489 299.763872 
L 629.367939 299.883256 
L 634.479389 297.929197 
L 639.59084 297.963425 
L 644.70229 296.093993 
L 649.81374 294.41771 
L 654.925191 292.540653 
L 660.036641 294.902319 
L 665.148092 294.228844 
L 670.259542 292.168185 
L 675.370992 291.930798 
L 680.482443 290.885637 
L 685.593893 288.556355 
L 690.705344 288.513196 
L 695.816794 287.229022 
L 700.928244 287.271251 
L 706.039695 285.905475 
L 711.151145 284.291644 
L 716.262595 282.907193 
L 721.374046 282.998594 
L 726.485496 287.410461 
L 731.596947 286.315692 
L 736.708397 285.994587 
L 741.819847 285.855058 
L 746.931298 282.888703 
L 752.042748 284.117441 
L 757.154198 283.831296 
L 762.265649 283.7808 
L 767.377099 283.52832 
L 772.48855 282.956031 
L 777.6 281.578176 
L 777.6 281.578176 
" style="fill:none;stroke:#ff7f0e;stroke-linecap:square;stroke-width:1.5;"/>
   </g>
   <g id="line2d_33">
    <path clip-path="url(#p16394d11eb)" d="M 108 368.26527 
L 113.11145 368.97536 
L 118.222901 369.315602 
L 123.334351 369.255589 
L 133.557252 369.357977 
L 148.891603 369.098164 
L 154.003053 369.166677 
L 159.114504 369.117945 
L 164.225954 368.67836 
L 169.337405 367.523109 
L 174.448855 368.523054 
L 179.560305 368.757898 
L 184.671756 368.671912 
L 189.783206 368.789357 
L 205.117557 368.646773 
L 210.229008 368.245957 
L 215.340458 368.423983 
L 220.451908 368.320696 
L 230.674809 367.577609 
L 235.78626 367.222923 
L 240.89771 367.860051 
L 246.00916 367.762937 
L 251.120611 367.932026 
L 266.454962 367.718295 
L 271.566412 367.393159 
L 276.677863 367.428203 
L 281.789313 367.32621 
L 286.900763 366.926279 
L 292.012214 364.658697 
L 297.123664 366.481565 
L 302.235115 366.889745 
L 307.346565 366.781379 
L 312.458015 366.930544 
L 317.569466 366.951589 
L 332.903817 366.502597 
L 338.015267 366.597849 
L 343.126718 366.473651 
L 348.238168 365.89611 
L 353.349618 364.369065 
L 358.461069 365.778232 
L 363.572519 366.090136 
L 368.683969 365.988541 
L 373.79542 366.183726 
L 389.129771 365.982526 
L 394.241221 365.444165 
L 399.352672 365.775046 
L 404.464122 365.619449 
L 409.575573 365.237757 
L 414.687023 363.926566 
L 419.798473 364.286094 
L 424.909924 365.102975 
L 430.021374 365.078294 
L 435.132824 365.276198 
L 440.244275 365.338052 
L 450.467176 365.193055 
L 455.578626 364.929266 
L 460.690076 365.080218 
L 465.801527 364.937895 
L 470.912977 364.578839 
L 476.024427 361.561603 
L 481.135878 363.948225 
L 486.247328 364.620101 
L 491.358779 364.571921 
L 506.69313 364.785526 
L 516.916031 364.5333 
L 522.027481 364.727432 
L 527.138931 364.601715 
L 532.250382 364.295204 
L 537.361832 363.827109 
L 542.473282 362.167556 
L 547.584733 364.010696 
L 562.919084 364.573819 
L 573.141985 364.496808 
L 578.253435 364.166702 
L 583.364885 364.355639 
L 588.476336 364.283639 
L 593.587786 363.797472 
L 598.699237 362.230422 
L 603.810687 362.753059 
L 608.922137 363.555995 
L 614.033588 363.597745 
L 619.145038 363.870838 
L 634.479389 363.757392 
L 639.59084 363.485737 
L 644.70229 363.62943 
L 649.81374 363.51353 
L 654.925191 362.941178 
L 660.036641 359.861803 
L 665.148092 362.36488 
L 670.259542 362.890484 
L 675.370992 362.926243 
L 680.482443 363.10456 
L 690.705344 363.138926 
L 695.816794 363.067903 
L 700.928244 362.698011 
L 706.039695 362.953496 
L 711.151145 362.887435 
L 716.262595 362.547018 
L 721.374046 361.875304 
L 726.485496 360.732754 
L 731.596947 362.202461 
L 746.931298 362.723013 
L 757.154198 362.689349 
L 762.265649 362.436869 
L 767.377099 362.638853 
L 772.48855 362.554693 
L 777.6 362.115646 
L 777.6 362.115646 
" style="fill:none;stroke:#2ca02c;stroke-linecap:square;stroke-width:1.5;"/>
   </g>
   <g id="patch_3">
    <path d="M 108 384.48 
L 108 51.84 
" style="fill:none;stroke:#000000;stroke-linecap:square;stroke-linejoin:miter;stroke-width:0.8;"/>
   </g>
   <g id="patch_4">
    <path d="M 777.6 384.48 
L 777.6 51.84 
" style="fill:none;stroke:#000000;stroke-linecap:square;stroke-linejoin:miter;stroke-width:0.8;"/>
   </g>
   <g id="patch_5">
    <path d="M 108 384.48 
L 777.6 384.48 
" style="fill:none;stroke:#000000;stroke-linecap:square;stroke-linejoin:miter;stroke-width:0.8;"/>
   </g>
   <g id="patch_6">
    <path d="M 108 51.84 
L 777.6 51.84 
" style="fill:none;stroke:#000000;stroke-linecap:square;stroke-linejoin:miter;stroke-width:0.8;"/>
   </g>
   <g id="legend_1">
    <g id="patch_7">
     <path d="M 115 106.279063 
L 222.634375 106.279063 
Q 224.634375 106.279063 224.634375 104.279063 
L 224.634375 58.84 
Q 224.634375 56.84 222.634375 56.84 
L 115 56.84 
Q 113 56.84 113 58.84 
L 113 104.279063 
Q 113 106.279063 115 106.279063 
z
" style="fill:#ffffff;opacity:0.8;stroke:#cccccc;stroke-linejoin:miter;"/>
    </g>
    <g id="line2d_34">
     <path d="M 117 65.33375 
L 137 65.33375 
" style="fill:none;stroke:#1f77b4;stroke-linecap:square;stroke-width:1.5;"/>
    </g>
    <g id="line2d_35"/>
    <g id="text_17">
     <!-- M2数量（亿元） -->
     <defs>
      <path d="M 78.171875 0 
L 78.171875 50.09375 
Q 78.171875 56.296875 78.90625 64.984375 
L 78.65625 64.984375 
Q 77.390625 59.515625 76.421875 57.375 
L 51.46875 0 
L 46.046875 0 
L 21.140625 56.9375 
Q 20.265625 58.890625 18.890625 64.984375 
L 18.609375 64.984375 
Q 19.09375 59.71875 19.09375 49.65625 
L 19.09375 0 
L 9.765625 0 
L 9.765625 75.640625 
L 23 75.640625 
L 45.3125 23.78125 
Q 47.859375 17.828125 48.6875 14.5 
L 49.03125 14.5 
Q 51.5625 21.484375 52.59375 23.96875 
L 75.296875 75.640625 
L 87.890625 75.640625 
L 87.890625 0 
z
" id="MicrosoftYaHei-4d"/>
      <path d="M 65.234375 82.859375 
L 73.046875 81.6875 
Q 71 72.21875 68.265625 64.015625 
L 98.140625 64.015625 
L 98.140625 57.375 
L 92 57.375 
Q 89.546875 28.65625 79.5 11.765625 
Q 87.40625 1.03125 99.609375 -5.8125 
Q 96.484375 -10.109375 94.34375 -13.53125 
Q 82.421875 -5.8125 74.515625 4.828125 
Q 65.53125 -6.296875 53.125 -14.5 
Q 50.984375 -11.671875 47.5625 -8.34375 
Q 61.234375 0.640625 69.734375 12.0625 
Q 61.8125 25.734375 59.28125 43.609375 
Q 57.234375 39.984375 54.984375 36.859375 
Q 53.03125 39.703125 50.09375 43.109375 
Q 61.421875 59.421875 65.234375 82.859375 
z
M 2.34375 26.515625 
L 17.1875 26.515625 
Q 19.34375 30.21875 21.390625 34.125 
L 28.421875 31.890625 
Q 26.859375 29.15625 25.296875 26.515625 
L 49.21875 26.515625 
L 49.21875 20.171875 
Q 45.515625 10.59375 37.984375 3.375 
Q 43.359375 0.828125 48.921875 -1.703125 
L 44.625 -8.453125 
Q 38.578125 -5.03125 32.03125 -1.609375 
Q 21 -9.515625 4.203125 -14.109375 
Q 2.640625 -10.984375 0.875 -7.28125 
Q 15.140625 -4.046875 25 2 
Q 16.609375 6.296875 7.421875 10.796875 
Q 10.546875 15.28125 13.484375 20.0625 
L 2.34375 20.0625 
z
M 3.421875 60.109375 
L 25.875 60.109375 
L 25.875 81.984375 
L 33.109375 81.984375 
L 33.109375 60.109375 
L 51.859375 60.109375 
L 51.859375 53.65625 
L 33.109375 53.65625 
L 33.109375 47.703125 
L 36.03125 51.03125 
Q 45.125 44.390625 51.265625 39.3125 
L 46.578125 33.84375 
Q 41.21875 38.921875 33.109375 45.265625 
L 33.109375 34.125 
L 25.875 34.125 
L 25.875 47.796875 
Q 17 38.53125 5.171875 31.5 
Q 3.328125 34.328125 0.984375 37.453125 
Q 13.28125 44.09375 23.53125 53.65625 
L 3.421875 53.65625 
z
M 84.1875 57.375 
L 65.921875 57.375 
Q 65.4375 56.109375 64.84375 54.9375 
Q 66.609375 34.234375 74.609375 19.484375 
Q 82.421875 33.734375 84.1875 57.375 
z
M 17 13.03125 
Q 23.921875 9.90625 31.25 6.5 
Q 37.984375 12.25 41.796875 20.0625 
L 21.484375 20.0625 
Q 19.234375 16.453125 17 13.03125 
z
M 47.46875 79.546875 
L 53.515625 75.53125 
Q 48.140625 68.5 42.78125 62.546875 
Q 40.53125 64.5 37.5 66.65625 
Q 42.578125 72.609375 47.46875 79.546875 
z
M 5.953125 75.25 
L 11.53125 79.046875 
Q 15.921875 73.6875 20.609375 67.53125 
L 14.546875 63.234375 
Q 10.25 69.578125 5.953125 75.25 
z
" id="MicrosoftYaHei-6570"/>
      <path d="M 1.765625 -4.34375 
L 46.578125 -4.34375 
L 46.578125 1.21875 
L 7.421875 1.21875 
L 7.421875 6.296875 
L 46.578125 6.296875 
L 46.578125 11.859375 
L 23.34375 11.859375 
L 23.34375 9.328125 
L 16.703125 9.328125 
L 16.703125 39.3125 
L 83.59375 39.3125 
L 83.59375 9.328125 
L 76.953125 9.328125 
L 76.953125 11.859375 
L 53.421875 11.859375 
L 53.421875 6.296875 
L 92.671875 6.296875 
L 92.671875 1.21875 
L 53.421875 1.21875 
L 53.421875 -4.34375 
L 98.25 -4.34375 
L 98.25 -9.625 
L 1.765625 -9.625 
z
M 17.484375 79.25 
L 82.90625 79.25 
L 82.90625 51.3125 
L 76.265625 51.3125 
L 76.265625 53.953125 
L 24.125 53.953125 
L 24.125 51.3125 
L 17.484375 51.3125 
z
M 2.546875 49.265625 
L 97.859375 49.265625 
L 97.859375 44 
L 2.546875 44 
z
M 24.125 59.03125 
L 76.265625 59.03125 
L 76.265625 64.3125 
L 24.125 64.3125 
z
M 76.265625 74.171875 
L 24.125 74.171875 
L 24.125 69 
L 76.265625 69 
z
M 53.421875 16.9375 
L 76.953125 16.9375 
L 76.953125 23.296875 
L 53.421875 23.296875 
z
M 23.34375 16.9375 
L 46.578125 16.9375 
L 46.578125 23.296875 
L 23.34375 23.296875 
z
M 76.953125 34.234375 
L 53.421875 34.234375 
L 53.421875 27.984375 
L 76.953125 27.984375 
z
M 23.34375 27.984375 
L 46.578125 27.984375 
L 46.578125 34.234375 
L 23.34375 34.234375 
z
" id="MicrosoftYaHei-91cf"/>
      <path d="M 57.625 -17.1875 
Q 40.1875 1.859375 40.1875 28.90625 
Q 40.1875 56.296875 57.625 75.59375 
L 66.015625 75.59375 
Q 48.6875 55.8125 48.6875 29 
Q 48.6875 2.59375 65.921875 -17.1875 
z
" id="MicrosoftYaHei-ff08"/>
      <path d="M 90.53125 25.828125 
Q 92.96875 24.65625 98.734375 22.90625 
Q 97.859375 12.0625 96.484375 4.046875 
Q 94.34375 -8.34375 79.203125 -8.453125 
Q 63.671875 -9.03125 49.703125 -8.453125 
Q 36.71875 -7.765625 33.984375 -0.140625 
Q 31.453125 7.671875 40.140625 19.78125 
Q 48.640625 31.390625 79.984375 67.625 
L 36.71875 67.625 
L 36.71875 75.34375 
L 90.140625 75.34375 
L 90.140625 66.265625 
Q 66.5 40.484375 49.03125 18.40625 
Q 40.828125 7.375 41.796875 3.375 
Q 42.1875 -0.734375 52.640625 -1.03125 
Q 64.546875 -1.515625 76.375 -0.921875 
Q 83.296875 -0.640625 85.546875 1.03125 
Q 88.09375 2.6875 88.875 7.859375 
Q 89.84375 13.234375 90.53125 25.828125 
z
M 1.375 34.515625 
Q 15.625 54.25 23.921875 82.859375 
L 31.9375 80.515625 
Q 27.9375 68.5625 23.25 58.0625 
L 23.25 -12.453125 
L 15.625 -12.453125 
L 15.625 42.828125 
Q 10.5 33.640625 4.6875 25.921875 
Q 3.328125 30.21875 1.375 34.515625 
z
" id="MicrosoftYaHei-4ebf"/>
      <path d="M 2.9375 48.1875 
L 97.265625 48.1875 
L 97.265625 40.765625 
L 66.40625 40.765625 
L 66.40625 2.6875 
Q 66.40625 -3.078125 72.265625 -3.078125 
L 80.671875 -3.078125 
Q 87.703125 -3.078125 88.671875 3.375 
Q 89.546875 8.84375 90.140625 17.234375 
Q 94.046875 15.875 98.640625 14.796875 
Q 97.65625 6.390625 96.578125 0.734375 
Q 94.625 -10.015625 82.421875 -10.015625 
L 70.515625 -10.015625 
Q 58.203125 -10.015625 58.203125 2 
L 58.203125 40.765625 
L 38.28125 40.765625 
L 38.28125 37.640625 
Q 38.28125 16.9375 32.03125 6.984375 
Q 25.78125 -3.859375 7.328125 -13.234375 
Q 3.8125 -8.9375 1.5625 -6.6875 
Q 18.453125 1.609375 24.3125 10.796875 
Q 30.078125 19.578125 30.078125 37.25 
L 30.078125 40.765625 
L 2.9375 40.765625 
z
M 12.3125 76.609375 
L 88.09375 76.609375 
L 88.09375 69.1875 
L 12.3125 69.1875 
z
" id="MicrosoftYaHei-5143"/>
      <path d="M 42.390625 -17.1875 
L 33.984375 -17.1875 
Q 51.3125 2.546875 51.3125 29.5 
Q 51.3125 55.953125 34.078125 75.59375 
L 42.390625 75.59375 
Q 59.71875 56.6875 59.71875 29.5 
Q 59.71875 2 42.390625 -17.1875 
z
" id="MicrosoftYaHei-ff09"/>
     </defs>
     <g transform="translate(145 68.83375)scale(0.1 -0.1)">
      <use xlink:href="#MicrosoftYaHei-4d"/>
      <use x="97.705078" xlink:href="#MicrosoftYaHei-32"/>
      <use x="156.347656" xlink:href="#MicrosoftYaHei-6570"/>
      <use x="256.347656" xlink:href="#MicrosoftYaHei-91cf"/>
      <use x="356.347656" xlink:href="#MicrosoftYaHei-ff08"/>
      <use x="456.347656" xlink:href="#MicrosoftYaHei-4ebf"/>
      <use x="556.347656" xlink:href="#MicrosoftYaHei-5143"/>
      <use x="656.347656" xlink:href="#MicrosoftYaHei-ff09"/>
     </g>
    </g>
    <g id="line2d_36">
     <path d="M 117 80.813438 
L 137 80.813438 
" style="fill:none;stroke:#ff7f0e;stroke-linecap:square;stroke-width:1.5;"/>
    </g>
    <g id="line2d_37"/>
    <g id="text_18">
     <!-- M1数量（亿元） -->
     <g transform="translate(145 84.313438)scale(0.1 -0.1)">
      <use xlink:href="#MicrosoftYaHei-4d"/>
      <use x="97.705078" xlink:href="#MicrosoftYaHei-31"/>
      <use x="156.347656" xlink:href="#MicrosoftYaHei-6570"/>
      <use x="256.347656" xlink:href="#MicrosoftYaHei-91cf"/>
      <use x="356.347656" xlink:href="#MicrosoftYaHei-ff08"/>
      <use x="456.347656" xlink:href="#MicrosoftYaHei-4ebf"/>
      <use x="556.347656" xlink:href="#MicrosoftYaHei-5143"/>
      <use x="656.347656" xlink:href="#MicrosoftYaHei-ff09"/>
     </g>
    </g>
    <g id="line2d_38">
     <path d="M 117 96.293125 
L 137 96.293125 
" style="fill:none;stroke:#2ca02c;stroke-linecap:square;stroke-width:1.5;"/>
    </g>
    <g id="line2d_39"/>
    <g id="text_19">
     <!-- M0数量（亿元） -->
     <g transform="translate(145 99.793125)scale(0.1 -0.1)">
      <use xlink:href="#MicrosoftYaHei-4d"/>
      <use x="97.705078" xlink:href="#MicrosoftYaHei-30"/>
      <use x="156.347656" xlink:href="#MicrosoftYaHei-6570"/>
      <use x="256.347656" xlink:href="#MicrosoftYaHei-91cf"/>
      <use x="356.347656" xlink:href="#MicrosoftYaHei-ff08"/>
      <use x="456.347656" xlink:href="#MicrosoftYaHei-4ebf"/>
      <use x="556.347656" xlink:href="#MicrosoftYaHei-5143"/>
      <use x="656.347656" xlink:href="#MicrosoftYaHei-ff09"/>
     </g>
    </g>
   </g>
  </g>
 </g>
 <defs>
  <clipPath id="p16394d11eb">
   <rect height="332.64" width="669.6" x="108" y="51.84"/>
  </clipPath>
 </defs>
</svg>
