<?xml version="1.0" encoding="utf-8" standalone="no"?>
<!DOCTYPE svg PUBLIC "-//W3C//DTD SVG 1.1//EN"
  "http://www.w3.org/Graphics/SVG/1.1/DTD/svg11.dtd">
<!-- Created with matplotlib (http://matplotlib.org/) -->
<svg height="432pt" version="1.1" viewBox="0 0 864 432" width="864pt" xmlns="http://www.w3.org/2000/svg" xmlns:xlink="http://www.w3.org/1999/xlink">
 <defs>
  <style type="text/css">
*{stroke-linecap:butt;stroke-linejoin:round;}
  </style>
 </defs>
 <g id="figure_1">
  <g id="patch_1">
   <path d="M 0 432 
L 864 432 
L 864 0 
L 0 0 
z
" style="fill:#ffffff;"/>
  </g>
  <g id="axes_1">
   <g id="patch_2">
    <path d="M 108 384.48 
L 777.6 384.48 
L 777.6 51.84 
L 108 51.84 
z
" style="fill:#ffffff;"/>
   </g>
   <g id="matplotlib.axis_1">
    <g id="xtick_1">
     <g id="line2d_1">
      <path clip-path="url(#p9e07757bac)" d="M 108 384.48 
L 108 51.84 
" style="fill:none;stroke:#b0b0b0;stroke-linecap:square;stroke-width:0.8;"/>
     </g>
     <g id="line2d_2">
      <defs>
       <path d="M 0 0 
L 0 3.5 
" id="m1cb4c0f237" style="stroke:#000000;stroke-width:0.8;"/>
      </defs>
      <g>
       <use style="stroke:#000000;stroke-width:0.8;" x="108" xlink:href="#m1cb4c0f237" y="384.48"/>
      </g>
     </g>
     <g id="text_1">
      <!-- 2008年01月份 -->
      <defs>
       <path d="M 51.171875 0 
L 5.171875 0 
L 5.171875 8.296875 
L 27.15625 30.21875 
Q 36.234375 39.3125 39.3125 44.609375 
Q 42.390625 49.90625 42.390625 55.5625 
Q 42.390625 62.015625 38.765625 65.453125 
Q 35.15625 68.890625 28.328125 68.890625 
Q 18.21875 68.890625 9.03125 60.296875 
L 9.03125 70.015625 
Q 17.96875 76.90625 29.828125 76.90625 
Q 40.046875 76.90625 45.953125 71.390625 
Q 51.859375 65.875 51.859375 56.546875 
Q 51.859375 49.515625 48.0625 42.75 
Q 44.28125 35.984375 33.734375 25.53125 
L 16.5 8.6875 
L 16.5 8.5 
L 51.171875 8.5 
z
" id="MicrosoftYaHei-32"/>
       <path d="M 4.4375 36.328125 
Q 4.4375 56.34375 11.078125 66.625 
Q 17.71875 76.90625 30.328125 76.90625 
Q 54.34375 76.90625 54.34375 38.140625 
Q 54.34375 19 47.578125 8.859375 
Q 40.828125 -1.265625 28.609375 -1.265625 
Q 17.09375 -1.265625 10.765625 8.34375 
Q 4.4375 17.96875 4.4375 36.328125 
z
M 14.203125 36.765625 
Q 14.203125 6.640625 29.5 6.640625 
Q 44.53125 6.640625 44.53125 37.25 
Q 44.53125 68.953125 29.78125 68.953125 
Q 14.203125 68.953125 14.203125 36.765625 
z
" id="MicrosoftYaHei-30"/>
       <path d="M 21.390625 39.796875 
Q 7.859375 46.09375 7.859375 58.0625 
Q 7.859375 66.40625 14.203125 71.65625 
Q 20.5625 76.90625 30.421875 76.90625 
Q 39.453125 76.90625 45.3125 71.96875 
Q 51.171875 67.046875 51.171875 59.234375 
Q 51.171875 46.625 37.0625 39.84375 
L 37.0625 39.65625 
Q 53.609375 33.6875 53.609375 19.34375 
Q 53.609375 9.90625 46.796875 4.3125 
Q 39.984375 -1.265625 27.78125 -1.265625 
Q 17.78125 -1.265625 11.46875 4.25 
Q 5.171875 9.765625 5.171875 18.5625 
Q 5.171875 33.015625 21.390625 39.59375 
z
M 41.5 58.109375 
Q 41.5 63.1875 38.328125 66.109375 
Q 35.15625 69.046875 29.734375 69.046875 
Q 24.65625 69.046875 21.09375 65.984375 
Q 17.53125 62.9375 17.53125 58.203125 
Q 17.53125 48.734375 29.390625 43.796875 
Q 41.5 48.828125 41.5 58.109375 
z
M 28.8125 35.25 
Q 14.796875 29.59375 14.796875 19.046875 
Q 14.796875 13.578125 18.890625 10.0625 
Q 23 6.546875 29.59375 6.546875 
Q 35.984375 6.546875 39.984375 10.03125 
Q 44 13.53125 44 18.75 
Q 44 29.734375 28.8125 35.25 
z
" id="MicrosoftYaHei-38"/>
       <path d="M 1.859375 19.96875 
L 17.578125 19.96875 
L 17.578125 47.90625 
L 52.15625 47.90625 
L 52.15625 65.28125 
L 23.4375 65.28125 
Q 16.84375 53.421875 8.6875 43.40625 
Q 6.15625 46.140625 2.640625 48.875 
Q 16.5 64.5 23.4375 83.9375 
L 31.453125 81.6875 
Q 29.390625 76.859375 27.15625 72.3125 
L 94.34375 72.3125 
L 94.34375 65.28125 
L 60.0625 65.28125 
L 60.0625 47.90625 
L 92.671875 47.90625 
L 92.671875 41.0625 
L 60.0625 41.0625 
L 60.0625 19.96875 
L 98.734375 19.96875 
L 98.734375 12.9375 
L 60.0625 12.9375 
L 60.0625 -13.421875 
L 52.15625 -13.421875 
L 52.15625 12.9375 
L 1.859375 12.9375 
z
M 25.296875 19.96875 
L 52.15625 19.96875 
L 52.15625 41.0625 
L 25.296875 41.0625 
z
" id="MicrosoftYaHei-5e74"/>
       <path d="M 52.59375 0 
L 9.234375 0 
L 9.234375 8.25 
L 26.171875 8.25 
L 26.171875 65.671875 
L 8.796875 60.640625 
L 8.796875 69.4375 
L 35.6875 77.25 
L 35.6875 8.25 
L 52.59375 8.25 
z
" id="MicrosoftYaHei-31"/>
       <path d="M 25.046875 20.0625 
Q 22.859375 1.21875 10.359375 -14.015625 
Q 7.234375 -10.984375 3.609375 -8.15625 
Q 13.09375 2.09375 16.3125 16.265625 
Q 18.5625 26.703125 18.5625 45.171875 
L 18.5625 78.953125 
L 83.796875 78.953125 
L 83.796875 2.78125 
Q 83.796875 -11.671875 70.015625 -11.671875 
Q 64.265625 -11.671875 55.171875 -11.46875 
Q 54.6875 -7.953125 53.71875 -3.265625 
Q 62.703125 -3.859375 67.875 -3.859375 
Q 75.78125 -3.859375 75.78125 3.859375 
L 75.78125 20.0625 
z
M 25.828125 27.203125 
L 75.78125 27.203125 
L 75.78125 45.953125 
L 26.5625 45.953125 
Q 26.5625 36.1875 25.828125 27.203125 
z
M 26.5625 71.625 
L 26.5625 53.078125 
L 75.78125 53.078125 
L 75.78125 71.625 
z
" id="MicrosoftYaHei-6708"/>
       <path d="M 35.453125 41.453125 
L 84.28125 41.453125 
Q 84.1875 40.09375 82.8125 5.71875 
Q 82.421875 -11.078125 67.484375 -11.28125 
Q 59.46875 -11.28125 53.515625 -10.984375 
Q 53.03125 -6.5 52.046875 -2.875 
Q 58.796875 -3.765625 65.625 -3.953125 
Q 75.09375 -4.640625 75.203125 6.59375 
Q 75.984375 19.671875 76.375 34.625 
L 54.390625 34.625 
Q 54.109375 19.09375 49.703125 8.9375 
Q 44.4375 -2.6875 31.546875 -12.84375 
Q 29 -9.71875 25.875 -6.5 
Q 38.28125 3.171875 42.390625 12.0625 
Q 46.390625 19.921875 46.828125 34.625 
L 35.453125 34.625 
z
M 1.171875 36.765625 
Q 15.140625 55.21875 23.828125 82.5625 
L 31.453125 79.9375 
Q 26.703125 66.9375 21.09375 55.609375 
L 21.09375 -12.640625 
L 13.671875 -12.640625 
L 13.671875 42.046875 
Q 9.1875 34.625 4.296875 28.078125 
Q 2.828125 32.28125 1.171875 36.765625 
z
M 62.59375 79.9375 
L 69.046875 82.671875 
Q 78.71875 57.859375 98.828125 46.4375 
Q 95.125 42.140625 93.265625 39.3125 
Q 71.484375 54.25 62.59375 79.9375 
z
M 24.8125 42.828125 
Q 40.046875 56.203125 49.421875 78.65625 
L 56.34375 76.03125 
Q 47.265625 53.265625 30.671875 37.453125 
Q 27.15625 41.0625 24.8125 42.828125 
z
" id="MicrosoftYaHei-4efd"/>
      </defs>
      <g transform="translate(75.407813 399.47375)scale(0.1 -0.1)">
       <use xlink:href="#MicrosoftYaHei-32"/>
       <use x="58.642578" xlink:href="#MicrosoftYaHei-30"/>
       <use x="117.285156" xlink:href="#MicrosoftYaHei-30"/>
       <use x="175.927734" xlink:href="#MicrosoftYaHei-38"/>
       <use x="234.570312" xlink:href="#MicrosoftYaHei-5e74"/>
       <use x="334.570312" xlink:href="#MicrosoftYaHei-30"/>
       <use x="393.212891" xlink:href="#MicrosoftYaHei-31"/>
       <use x="451.855469" xlink:href="#MicrosoftYaHei-6708"/>
       <use x="551.855469" xlink:href="#MicrosoftYaHei-4efd"/>
      </g>
     </g>
    </g>
    <g id="xtick_2">
     <g id="line2d_3">
      <path clip-path="url(#p9e07757bac)" d="M 209.454545 384.48 
L 209.454545 51.84 
" style="fill:none;stroke:#b0b0b0;stroke-linecap:square;stroke-width:0.8;"/>
     </g>
     <g id="line2d_4">
      <g>
       <use style="stroke:#000000;stroke-width:0.8;" x="209.454545" xlink:href="#m1cb4c0f237" y="384.48"/>
      </g>
     </g>
     <g id="text_2">
      <!-- 2009年09月份 -->
      <defs>
       <path d="M 9.03125 10.25 
Q 15.28125 6.640625 22.515625 6.640625 
Q 32.671875 6.640625 38.25 14.640625 
Q 43.84375 22.65625 43.84375 37.40625 
Q 43.75 37.3125 43.65625 37.40625 
Q 38.671875 27.9375 26.90625 27.9375 
Q 17.390625 27.9375 11.140625 34.46875 
Q 4.890625 41.015625 4.890625 51.46875 
Q 4.890625 62.59375 11.71875 69.75 
Q 18.5625 76.90625 29.4375 76.90625 
Q 40.71875 76.90625 47.0625 68.046875 
Q 53.421875 59.1875 53.421875 42.234375 
Q 53.421875 21.296875 45.21875 10.015625 
Q 37.015625 -1.265625 22.515625 -1.265625 
Q 14.546875 -1.265625 9.03125 1.3125 
z
M 14.546875 52.6875 
Q 14.546875 45.0625 18.453125 40.59375 
Q 22.359375 36.140625 29.25 36.140625 
Q 35.203125 36.140625 39.25 40.203125 
Q 43.3125 44.28125 43.3125 50.09375 
Q 43.3125 58.25 39.28125 63.59375 
Q 35.25 68.953125 28.65625 68.953125 
Q 22.5625 68.953125 18.546875 64.3125 
Q 14.546875 59.671875 14.546875 52.6875 
z
" id="MicrosoftYaHei-39"/>
      </defs>
      <g transform="translate(176.862358 399.47375)scale(0.1 -0.1)">
       <use xlink:href="#MicrosoftYaHei-32"/>
       <use x="58.642578" xlink:href="#MicrosoftYaHei-30"/>
       <use x="117.285156" xlink:href="#MicrosoftYaHei-30"/>
       <use x="175.927734" xlink:href="#MicrosoftYaHei-39"/>
       <use x="234.570312" xlink:href="#MicrosoftYaHei-5e74"/>
       <use x="334.570312" xlink:href="#MicrosoftYaHei-30"/>
       <use x="393.212891" xlink:href="#MicrosoftYaHei-39"/>
       <use x="451.855469" xlink:href="#MicrosoftYaHei-6708"/>
       <use x="551.855469" xlink:href="#MicrosoftYaHei-4efd"/>
      </g>
     </g>
    </g>
    <g id="xtick_3">
     <g id="line2d_5">
      <path clip-path="url(#p9e07757bac)" d="M 310.909091 384.48 
L 310.909091 51.84 
" style="fill:none;stroke:#b0b0b0;stroke-linecap:square;stroke-width:0.8;"/>
     </g>
     <g id="line2d_6">
      <g>
       <use style="stroke:#000000;stroke-width:0.8;" x="310.909091" xlink:href="#m1cb4c0f237" y="384.48"/>
      </g>
     </g>
     <g id="text_3">
      <!-- 2011年05月份 -->
      <defs>
       <path d="M 8.640625 11.625 
Q 16.265625 6.640625 24.515625 6.640625 
Q 32.328125 6.640625 37.109375 11 
Q 41.890625 15.375 41.890625 22.609375 
Q 41.890625 29.890625 37.03125 33.890625 
Q 32.171875 37.890625 22.953125 37.890625 
Q 18.5 37.890625 10.984375 37.203125 
L 10.984375 75.640625 
L 48.1875 75.640625 
L 48.1875 67.1875 
L 19.875 67.1875 
L 19.875 45.796875 
Q 24.125 46.046875 26.265625 46.046875 
Q 38.234375 46.046875 44.921875 39.984375 
Q 51.609375 33.9375 51.609375 23.296875 
Q 51.609375 12.3125 44.421875 5.515625 
Q 37.25 -1.265625 24.609375 -1.265625 
Q 14.015625 -1.265625 8.640625 1.859375 
z
" id="MicrosoftYaHei-35"/>
      </defs>
      <g transform="translate(278.316903 399.47375)scale(0.1 -0.1)">
       <use xlink:href="#MicrosoftYaHei-32"/>
       <use x="58.642578" xlink:href="#MicrosoftYaHei-30"/>
       <use x="117.285156" xlink:href="#MicrosoftYaHei-31"/>
       <use x="175.927734" xlink:href="#MicrosoftYaHei-31"/>
       <use x="234.570312" xlink:href="#MicrosoftYaHei-5e74"/>
       <use x="334.570312" xlink:href="#MicrosoftYaHei-30"/>
       <use x="393.212891" xlink:href="#MicrosoftYaHei-35"/>
       <use x="451.855469" xlink:href="#MicrosoftYaHei-6708"/>
       <use x="551.855469" xlink:href="#MicrosoftYaHei-4efd"/>
      </g>
     </g>
    </g>
    <g id="xtick_4">
     <g id="line2d_7">
      <path clip-path="url(#p9e07757bac)" d="M 412.363636 384.48 
L 412.363636 51.84 
" style="fill:none;stroke:#b0b0b0;stroke-linecap:square;stroke-width:0.8;"/>
     </g>
     <g id="line2d_8">
      <g>
       <use style="stroke:#000000;stroke-width:0.8;" x="412.363636" xlink:href="#m1cb4c0f237" y="384.48"/>
      </g>
     </g>
     <g id="text_4">
      <!-- 2013年01月份 -->
      <defs>
       <path d="M 6.984375 12.640625 
Q 14.75 6.640625 24.515625 6.640625 
Q 32.328125 6.640625 36.890625 10.46875 
Q 41.453125 14.3125 41.453125 20.75 
Q 41.453125 35.109375 20.90625 35.109375 
L 14.59375 35.109375 
L 14.59375 43.015625 
L 20.609375 43.015625 
Q 38.8125 43.015625 38.8125 56.5 
Q 38.8125 68.953125 24.90625 68.953125 
Q 16.9375 68.953125 9.90625 63.578125 
L 9.90625 72.609375 
Q 17.328125 76.90625 27.25 76.90625 
Q 36.921875 76.90625 42.78125 71.84375 
Q 48.640625 66.796875 48.640625 58.734375 
Q 48.640625 43.890625 33.5 39.65625 
L 33.5 39.453125 
Q 41.703125 38.578125 46.453125 33.671875 
Q 51.21875 28.765625 51.21875 21.4375 
Q 51.21875 11.234375 43.875 4.984375 
Q 36.53125 -1.265625 24.3125 -1.265625 
Q 13.578125 -1.265625 6.984375 2.734375 
z
" id="MicrosoftYaHei-33"/>
      </defs>
      <g transform="translate(379.771449 399.47375)scale(0.1 -0.1)">
       <use xlink:href="#MicrosoftYaHei-32"/>
       <use x="58.642578" xlink:href="#MicrosoftYaHei-30"/>
       <use x="117.285156" xlink:href="#MicrosoftYaHei-31"/>
       <use x="175.927734" xlink:href="#MicrosoftYaHei-33"/>
       <use x="234.570312" xlink:href="#MicrosoftYaHei-5e74"/>
       <use x="334.570312" xlink:href="#MicrosoftYaHei-30"/>
       <use x="393.212891" xlink:href="#MicrosoftYaHei-31"/>
       <use x="451.855469" xlink:href="#MicrosoftYaHei-6708"/>
       <use x="551.855469" xlink:href="#MicrosoftYaHei-4efd"/>
      </g>
     </g>
    </g>
    <g id="xtick_5">
     <g id="line2d_9">
      <path clip-path="url(#p9e07757bac)" d="M 513.818182 384.48 
L 513.818182 51.84 
" style="fill:none;stroke:#b0b0b0;stroke-linecap:square;stroke-width:0.8;"/>
     </g>
     <g id="line2d_10">
      <g>
       <use style="stroke:#000000;stroke-width:0.8;" x="513.818182" xlink:href="#m1cb4c0f237" y="384.48"/>
      </g>
     </g>
     <g id="text_5">
      <!-- 2014年09月份 -->
      <defs>
       <path d="M 55.078125 19.625 
L 45.40625 19.625 
L 45.40625 0 
L 36.140625 0 
L 36.140625 19.625 
L 0.875 19.625 
L 0.875 25.828125 
L 34.328125 75.640625 
L 45.40625 75.640625 
L 45.40625 27.203125 
L 55.078125 27.203125 
z
M 36.140625 27.203125 
L 36.140625 58.890625 
Q 36.140625 62.25 36.328125 66.65625 
L 36.140625 66.65625 
Q 35.453125 64.796875 33.25 60.84375 
L 10.75 27.203125 
z
" id="MicrosoftYaHei-34"/>
      </defs>
      <g transform="translate(481.225994 399.47375)scale(0.1 -0.1)">
       <use xlink:href="#MicrosoftYaHei-32"/>
       <use x="58.642578" xlink:href="#MicrosoftYaHei-30"/>
       <use x="117.285156" xlink:href="#MicrosoftYaHei-31"/>
       <use x="175.927734" xlink:href="#MicrosoftYaHei-34"/>
       <use x="234.570312" xlink:href="#MicrosoftYaHei-5e74"/>
       <use x="334.570312" xlink:href="#MicrosoftYaHei-30"/>
       <use x="393.212891" xlink:href="#MicrosoftYaHei-39"/>
       <use x="451.855469" xlink:href="#MicrosoftYaHei-6708"/>
       <use x="551.855469" xlink:href="#MicrosoftYaHei-4efd"/>
      </g>
     </g>
    </g>
    <g id="xtick_6">
     <g id="line2d_11">
      <path clip-path="url(#p9e07757bac)" d="M 615.272727 384.48 
L 615.272727 51.84 
" style="fill:none;stroke:#b0b0b0;stroke-linecap:square;stroke-width:0.8;"/>
     </g>
     <g id="line2d_12">
      <g>
       <use style="stroke:#000000;stroke-width:0.8;" x="615.272727" xlink:href="#m1cb4c0f237" y="384.48"/>
      </g>
     </g>
     <g id="text_6">
      <!-- 2016年05月份 -->
      <defs>
       <path d="M 49.703125 65.921875 
Q 43.796875 68.953125 37.359375 68.953125 
Q 27.546875 68.953125 21.578125 60.40625 
Q 15.625 51.859375 15.53125 37.0625 
L 15.765625 37.0625 
Q 21.140625 47.46875 32.90625 47.46875 
Q 42.71875 47.46875 48.578125 41.0625 
Q 54.4375 34.671875 54.4375 24.078125 
Q 54.4375 12.984375 47.671875 5.859375 
Q 40.921875 -1.265625 30.421875 -1.265625 
Q 18.890625 -1.265625 12.328125 7.734375 
Q 5.765625 16.75 5.765625 33.296875 
Q 5.765625 53.328125 14.375 65.109375 
Q 23 76.90625 37.0625 76.90625 
Q 45.125 76.90625 49.703125 74.703125 
z
M 16.109375 24.75 
Q 16.109375 17.28125 20.09375 11.953125 
Q 24.078125 6.640625 30.671875 6.640625 
Q 36.921875 6.640625 40.828125 11.234375 
Q 44.734375 15.828125 44.734375 23.046875 
Q 44.734375 30.859375 41.046875 35.203125 
Q 37.359375 39.546875 30.5625 39.546875 
Q 24.125 39.546875 20.109375 35.15625 
Q 16.109375 30.765625 16.109375 24.75 
z
" id="MicrosoftYaHei-36"/>
      </defs>
      <g transform="translate(582.68054 399.47375)scale(0.1 -0.1)">
       <use xlink:href="#MicrosoftYaHei-32"/>
       <use x="58.642578" xlink:href="#MicrosoftYaHei-30"/>
       <use x="117.285156" xlink:href="#MicrosoftYaHei-31"/>
       <use x="175.927734" xlink:href="#MicrosoftYaHei-36"/>
       <use x="234.570312" xlink:href="#MicrosoftYaHei-5e74"/>
       <use x="334.570312" xlink:href="#MicrosoftYaHei-30"/>
       <use x="393.212891" xlink:href="#MicrosoftYaHei-35"/>
       <use x="451.855469" xlink:href="#MicrosoftYaHei-6708"/>
       <use x="551.855469" xlink:href="#MicrosoftYaHei-4efd"/>
      </g>
     </g>
    </g>
    <g id="xtick_7">
     <g id="line2d_13">
      <path clip-path="url(#p9e07757bac)" d="M 716.727273 384.48 
L 716.727273 51.84 
" style="fill:none;stroke:#b0b0b0;stroke-linecap:square;stroke-width:0.8;"/>
     </g>
     <g id="line2d_14">
      <g>
       <use style="stroke:#000000;stroke-width:0.8;" x="716.727273" xlink:href="#m1cb4c0f237" y="384.48"/>
      </g>
     </g>
     <g id="text_7">
      <!-- 2018年01月份 -->
      <g transform="translate(684.135085 399.47375)scale(0.1 -0.1)">
       <use xlink:href="#MicrosoftYaHei-32"/>
       <use x="58.642578" xlink:href="#MicrosoftYaHei-30"/>
       <use x="117.285156" xlink:href="#MicrosoftYaHei-31"/>
       <use x="175.927734" xlink:href="#MicrosoftYaHei-38"/>
       <use x="234.570312" xlink:href="#MicrosoftYaHei-5e74"/>
       <use x="334.570312" xlink:href="#MicrosoftYaHei-30"/>
       <use x="393.212891" xlink:href="#MicrosoftYaHei-31"/>
       <use x="451.855469" xlink:href="#MicrosoftYaHei-6708"/>
       <use x="551.855469" xlink:href="#MicrosoftYaHei-4efd"/>
      </g>
     </g>
    </g>
    <g id="text_8">
     <!-- 月份 -->
     <g transform="translate(432.8 413.953438)scale(0.1 -0.1)">
      <use xlink:href="#MicrosoftYaHei-6708"/>
      <use x="100" xlink:href="#MicrosoftYaHei-4efd"/>
     </g>
    </g>
   </g>
   <g id="matplotlib.axis_2">
    <g id="ytick_1">
     <g id="line2d_15">
      <path clip-path="url(#p9e07757bac)" d="M 108 374.32979 
L 777.6 374.32979 
" style="fill:none;stroke:#b0b0b0;stroke-linecap:square;stroke-width:0.8;"/>
     </g>
     <g id="line2d_16">
      <defs>
       <path d="M 0 0 
L -3.5 0 
" id="md7edb3bd88" style="stroke:#000000;stroke-width:0.8;"/>
      </defs>
      <g>
       <use style="stroke:#000000;stroke-width:0.8;" x="108" xlink:href="#md7edb3bd88" y="374.32979"/>
      </g>
     </g>
     <g id="text_9">
      <!-- 0 -->
      <g transform="translate(95.135937 378.326665)scale(0.1 -0.1)">
       <use xlink:href="#MicrosoftYaHei-30"/>
      </g>
     </g>
    </g>
    <g id="ytick_2">
     <g id="line2d_17">
      <path clip-path="url(#p9e07757bac)" d="M 108 333.147279 
L 777.6 333.147279 
" style="fill:none;stroke:#b0b0b0;stroke-linecap:square;stroke-width:0.8;"/>
     </g>
     <g id="line2d_18">
      <g>
       <use style="stroke:#000000;stroke-width:0.8;" x="108" xlink:href="#md7edb3bd88" y="333.147279"/>
      </g>
     </g>
     <g id="text_10">
      <!-- 250000 -->
      <g transform="translate(65.815625 337.144154)scale(0.1 -0.1)">
       <use xlink:href="#MicrosoftYaHei-32"/>
       <use x="58.642578" xlink:href="#MicrosoftYaHei-35"/>
       <use x="117.285156" xlink:href="#MicrosoftYaHei-30"/>
       <use x="175.927734" xlink:href="#MicrosoftYaHei-30"/>
       <use x="234.570312" xlink:href="#MicrosoftYaHei-30"/>
       <use x="293.212891" xlink:href="#MicrosoftYaHei-30"/>
      </g>
     </g>
    </g>
    <g id="ytick_3">
     <g id="line2d_19">
      <path clip-path="url(#p9e07757bac)" d="M 108 291.964768 
L 777.6 291.964768 
" style="fill:none;stroke:#b0b0b0;stroke-linecap:square;stroke-width:0.8;"/>
     </g>
     <g id="line2d_20">
      <g>
       <use style="stroke:#000000;stroke-width:0.8;" x="108" xlink:href="#md7edb3bd88" y="291.964768"/>
      </g>
     </g>
     <g id="text_11">
      <!-- 500000 -->
      <g transform="translate(65.815625 295.961643)scale(0.1 -0.1)">
       <use xlink:href="#MicrosoftYaHei-35"/>
       <use x="58.642578" xlink:href="#MicrosoftYaHei-30"/>
       <use x="117.285156" xlink:href="#MicrosoftYaHei-30"/>
       <use x="175.927734" xlink:href="#MicrosoftYaHei-30"/>
       <use x="234.570312" xlink:href="#MicrosoftYaHei-30"/>
       <use x="293.212891" xlink:href="#MicrosoftYaHei-30"/>
      </g>
     </g>
    </g>
    <g id="ytick_4">
     <g id="line2d_21">
      <path clip-path="url(#p9e07757bac)" d="M 108 250.782257 
L 777.6 250.782257 
" style="fill:none;stroke:#b0b0b0;stroke-linecap:square;stroke-width:0.8;"/>
     </g>
     <g id="line2d_22">
      <g>
       <use style="stroke:#000000;stroke-width:0.8;" x="108" xlink:href="#md7edb3bd88" y="250.782257"/>
      </g>
     </g>
     <g id="text_12">
      <!-- 750000 -->
      <defs>
       <path d="M 53.765625 72.3125 
L 24.171875 0 
L 14.265625 0 
L 42.390625 67.1875 
L 4.59375 67.1875 
L 4.59375 75.640625 
L 53.765625 75.640625 
z
" id="MicrosoftYaHei-37"/>
      </defs>
      <g transform="translate(65.815625 254.779132)scale(0.1 -0.1)">
       <use xlink:href="#MicrosoftYaHei-37"/>
       <use x="58.642578" xlink:href="#MicrosoftYaHei-35"/>
       <use x="117.285156" xlink:href="#MicrosoftYaHei-30"/>
       <use x="175.927734" xlink:href="#MicrosoftYaHei-30"/>
       <use x="234.570312" xlink:href="#MicrosoftYaHei-30"/>
       <use x="293.212891" xlink:href="#MicrosoftYaHei-30"/>
      </g>
     </g>
    </g>
    <g id="ytick_5">
     <g id="line2d_23">
      <path clip-path="url(#p9e07757bac)" d="M 108 209.599746 
L 777.6 209.599746 
" style="fill:none;stroke:#b0b0b0;stroke-linecap:square;stroke-width:0.8;"/>
     </g>
     <g id="line2d_24">
      <g>
       <use style="stroke:#000000;stroke-width:0.8;" x="108" xlink:href="#md7edb3bd88" y="209.599746"/>
      </g>
     </g>
     <g id="text_13">
      <!-- 1000000 -->
      <g transform="translate(59.951562 213.596621)scale(0.1 -0.1)">
       <use xlink:href="#MicrosoftYaHei-31"/>
       <use x="58.642578" xlink:href="#MicrosoftYaHei-30"/>
       <use x="117.285156" xlink:href="#MicrosoftYaHei-30"/>
       <use x="175.927734" xlink:href="#MicrosoftYaHei-30"/>
       <use x="234.570312" xlink:href="#MicrosoftYaHei-30"/>
       <use x="293.212891" xlink:href="#MicrosoftYaHei-30"/>
       <use x="351.855469" xlink:href="#MicrosoftYaHei-30"/>
      </g>
     </g>
    </g>
    <g id="ytick_6">
     <g id="line2d_25">
      <path clip-path="url(#p9e07757bac)" d="M 108 168.417234 
L 777.6 168.417234 
" style="fill:none;stroke:#b0b0b0;stroke-linecap:square;stroke-width:0.8;"/>
     </g>
     <g id="line2d_26">
      <g>
       <use style="stroke:#000000;stroke-width:0.8;" x="108" xlink:href="#md7edb3bd88" y="168.417234"/>
      </g>
     </g>
     <g id="text_14">
      <!-- 1250000 -->
      <g transform="translate(59.951562 172.414109)scale(0.1 -0.1)">
       <use xlink:href="#MicrosoftYaHei-31"/>
       <use x="58.642578" xlink:href="#MicrosoftYaHei-32"/>
       <use x="117.285156" xlink:href="#MicrosoftYaHei-35"/>
       <use x="175.927734" xlink:href="#MicrosoftYaHei-30"/>
       <use x="234.570312" xlink:href="#MicrosoftYaHei-30"/>
       <use x="293.212891" xlink:href="#MicrosoftYaHei-30"/>
       <use x="351.855469" xlink:href="#MicrosoftYaHei-30"/>
      </g>
     </g>
    </g>
    <g id="ytick_7">
     <g id="line2d_27">
      <path clip-path="url(#p9e07757bac)" d="M 108 127.234723 
L 777.6 127.234723 
" style="fill:none;stroke:#b0b0b0;stroke-linecap:square;stroke-width:0.8;"/>
     </g>
     <g id="line2d_28">
      <g>
       <use style="stroke:#000000;stroke-width:0.8;" x="108" xlink:href="#md7edb3bd88" y="127.234723"/>
      </g>
     </g>
     <g id="text_15">
      <!-- 1500000 -->
      <g transform="translate(59.951562 131.231598)scale(0.1 -0.1)">
       <use xlink:href="#MicrosoftYaHei-31"/>
       <use x="58.642578" xlink:href="#MicrosoftYaHei-35"/>
       <use x="117.285156" xlink:href="#MicrosoftYaHei-30"/>
       <use x="175.927734" xlink:href="#MicrosoftYaHei-30"/>
       <use x="234.570312" xlink:href="#MicrosoftYaHei-30"/>
       <use x="293.212891" xlink:href="#MicrosoftYaHei-30"/>
       <use x="351.855469" xlink:href="#MicrosoftYaHei-30"/>
      </g>
     </g>
    </g>
    <g id="ytick_8">
     <g id="line2d_29">
      <path clip-path="url(#p9e07757bac)" d="M 108 86.052212 
L 777.6 86.052212 
" style="fill:none;stroke:#b0b0b0;stroke-linecap:square;stroke-width:0.8;"/>
     </g>
     <g id="line2d_30">
      <g>
       <use style="stroke:#000000;stroke-width:0.8;" x="108" xlink:href="#md7edb3bd88" y="86.052212"/>
      </g>
     </g>
     <g id="text_16">
      <!-- 1750000 -->
      <g transform="translate(59.951562 90.049087)scale(0.1 -0.1)">
       <use xlink:href="#MicrosoftYaHei-31"/>
       <use x="58.642578" xlink:href="#MicrosoftYaHei-37"/>
       <use x="117.285156" xlink:href="#MicrosoftYaHei-35"/>
       <use x="175.927734" xlink:href="#MicrosoftYaHei-30"/>
       <use x="234.570312" xlink:href="#MicrosoftYaHei-30"/>
       <use x="293.212891" xlink:href="#MicrosoftYaHei-30"/>
       <use x="351.855469" xlink:href="#MicrosoftYaHei-30"/>
      </g>
     </g>
    </g>
   </g>
   <g id="line2d_31">
    <path clip-path="url(#p9e07757bac)" d="M 108 305.497972 
L 113.072727 304.972208 
L 118.145455 304.639999 
L 128.290909 302.470987 
L 133.363636 301.33115 
L 138.436364 300.80053 
L 143.509091 300.391257 
L 148.581818 299.723765 
L 153.654545 299.685118 
L 158.727273 298.777235 
L 163.8 296.055575 
L 168.872727 292.601398 
L 173.945455 290.859747 
L 179.018182 286.919629 
L 184.090909 285.296296 
L 189.163636 284.014318 
L 194.236364 280.612199 
L 204.381818 279.330146 
L 209.454545 277.895942 
L 214.527273 277.692015 
L 219.6 276.380528 
L 229.745455 271.273144 
L 234.818182 269.549578 
L 239.890909 267.263916 
L 250.036364 265.055713 
L 255.109091 263.314658 
L 260.181818 263.29326 
L 265.254545 261.076745 
L 270.327273 259.600009 
L 275.4 259.055537 
L 280.472727 257.31561 
L 285.545455 254.760192 
L 290.618182 253.436909 
L 295.690909 253.066921 
L 300.763636 249.442856 
L 305.836364 249.565798 
L 310.909091 248.573355 
L 315.981818 245.705137 
L 321.054545 247.006043 
L 326.127273 245.699956 
L 331.2 244.620332 
L 336.272727 239.773471 
L 341.345455 238.346137 
L 346.418182 234.047183 
L 351.490909 233.337528 
L 356.563636 231.480603 
L 361.636364 226.803245 
L 366.709091 227.785277 
L 371.781818 226.064716 
L 376.854545 221.955949 
L 381.927273 222.930953 
L 387 221.971863 
L 392.072727 218.8759 
L 397.145455 220.075871 
L 402.218182 218.687507 
L 407.290909 213.858215 
L 412.363636 210.896295 
L 417.436364 209.830231 
L 422.509091 203.692795 
L 427.581818 204.23747 
L 432.654545 202.653218 
L 437.727273 200.637823 
L 442.8 200.998804 
L 447.872727 199.508971 
L 452.945455 196.853073 
L 458.018182 198.02875 
L 463.090909 196.543727 
L 468.163636 192.051881 
L 473.236364 189.252091 
L 478.309091 187.894778 
L 483.381818 183.129706 
L 488.454545 181.791227 
L 493.527273 179.570453 
L 498.6 175.074437 
L 503.672727 177.60106 
L 508.745455 177.065713 
L 513.818182 176.315808 
L 518.890909 176.779539 
L 523.963636 175.236078 
L 529.036364 171.979553 
L 539.181818 167.201448 
L 544.254545 164.244164 
L 549.327273 163.346985 
L 559.472727 154.682808 
L 564.545455 151.415295 
L 569.618182 150.806278 
L 574.690909 150.325912 
L 579.763636 150.12879 
L 584.836364 147.997955 
L 589.909091 144.979755 
L 594.981818 141.019408 
L 600.054545 139.652292 
L 605.127273 136.097524 
L 610.2 136.26035 
L 615.272727 133.54469 
L 620.345455 128.801005 
L 625.418182 128.625256 
L 630.490909 125.425508 
L 635.563636 124.539657 
L 640.636364 124.024892 
L 645.709091 122.221649 
L 650.781818 118.987239 
L 655.854545 114.724203 
L 660.927273 113.57645 
L 666 110.826034 
L 671.072727 111.36597 
L 676.145455 110.537617 
L 681.218182 105.608546 
L 686.290909 105.985103 
L 691.363636 103.32307 
L 696.436364 101.592504 
L 701.509091 101.959507 
L 706.581818 99.228408 
L 711.654545 98.115634 
L 716.727273 90.859947 
L 721.8 89.499992 
L 726.872727 87.72266 
L 731.945455 88.081072 
L 737.018182 87.194814 
L 742.090909 82.724665 
L 747.163636 81.736285 
L 757.309091 77.535669 
L 762.381818 78.540522 
L 767.454545 75.641273 
L 772.527273 73.410133 
L 777.6 66.96 
L 777.6 66.96 
" style="fill:none;stroke:#1f77b4;stroke-linecap:square;stroke-width:1.5;"/>
   </g>
   <g id="line2d_32">
    <path clip-path="url(#p9e07757bac)" d="M 108 348.817621 
L 113.072727 349.590981 
L 123.218182 349.341081 
L 133.363636 348.82626 
L 138.436364 348.797879 
L 143.509091 348.485307 
L 148.581818 348.673255 
L 153.654545 348.435156 
L 158.727273 348.331002 
L 163.8 346.948835 
L 168.872727 347.114025 
L 173.945455 346.959959 
L 179.018182 345.248162 
L 184.090909 344.972661 
L 189.163636 344.344708 
L 194.236364 342.514134 
L 199.309091 342.060942 
L 204.381818 341.318741 
L 209.454545 341.102399 
L 214.527273 340.140771 
L 219.6 339.325776 
L 224.672727 337.851012 
L 229.745455 336.509587 
L 234.818182 337.382991 
L 244.963636 335.797825 
L 250.036364 335.371484 
L 255.109091 334.699036 
L 260.181818 334.685187 
L 265.254545 334.079546 
L 270.327273 334.164998 
L 275.4 332.6015 
L 280.472727 331.595469 
L 285.545455 330.409212 
L 290.618182 331.209228 
L 295.690909 331.63168 
L 300.763636 330.469513 
L 305.836364 330.385265 
L 310.909091 329.969697 
L 315.981818 329.084613 
L 321.054545 329.762793 
L 326.127273 329.293622 
L 331.2 330.315049 
L 336.272727 328.773256 
L 341.345455 327.972059 
L 346.418182 326.583166 
L 351.490909 329.850965 
L 356.563636 329.801264 
L 361.636364 328.535149 
L 366.709091 329.031693 
L 371.781818 328.426724 
L 376.854545 326.965591 
L 381.927273 327.69625 
L 387 327.259947 
L 392.072727 327.087156 
L 397.145455 326.012857 
L 402.218182 325.42424 
L 407.290909 323.483518 
L 412.363636 323.061097 
L 417.436364 325.55269 
L 422.509091 323.115501 
L 427.581818 323.650852 
L 432.654545 323.229792 
L 437.727273 322.686951 
L 442.8 323.165221 
L 447.872727 322.590404 
L 452.945455 322.879599 
L 458.018182 321.696996 
L 463.090909 320.821861 
L 468.163636 318.76782 
L 473.236364 322.456209 
L 478.309091 322.172122 
L 483.381818 320.350433 
L 488.454545 320.87777 
L 493.527273 320.324765 
L 498.6 318.076547 
L 503.672727 319.746931 
L 508.745455 319.635589 
L 513.818182 320.42679 
L 518.890909 320.031847 
L 523.963636 319.126425 
L 529.036364 316.994442 
L 534.109091 316.985697 
L 539.181818 319.237603 
L 544.254545 318.781086 
L 549.327273 318.91654 
L 554.4 317.813241 
L 559.472727 315.672245 
L 564.545455 316.159956 
L 569.618182 314.566763 
L 574.690909 314.299378 
L 584.836364 310.477407 
L 589.909091 308.280712 
L 594.981818 306.348066 
L 600.054545 309.672473 
L 605.127273 306.529983 
L 610.2 306.213119 
L 615.272727 304.442953 
L 620.345455 301.248344 
L 625.418182 301.365182 
L 630.490909 299.452803 
L 635.563636 299.486301 
L 640.636364 297.656743 
L 645.709091 296.016214 
L 650.781818 294.179194 
L 655.854545 296.490487 
L 660.927273 295.831377 
L 666 293.814671 
L 671.072727 293.582348 
L 676.145455 292.55948 
L 681.218182 290.279881 
L 686.290909 290.237643 
L 691.363636 288.980859 
L 696.436364 289.022188 
L 701.509091 287.685544 
L 706.581818 286.106136 
L 711.654545 284.751214 
L 716.727273 284.840666 
L 721.8 289.158428 
L 726.872727 288.087011 
L 731.945455 287.772756 
L 737.018182 287.636203 
L 742.090909 284.733119 
L 747.163636 285.935648 
L 752.236364 285.655607 
L 757.309091 285.606188 
L 762.381818 285.359093 
L 767.454545 284.799011 
L 772.527273 283.450546 
L 777.6 284.453078 
L 777.6 284.453078 
" style="fill:none;stroke:#ff7f0e;stroke-linecap:square;stroke-width:1.5;"/>
   </g>
   <g id="line2d_33">
    <path clip-path="url(#p9e07757bac)" d="M 108 368.28862 
L 113.072727 368.983564 
L 118.145455 369.316549 
L 123.218182 369.257816 
L 133.363636 369.35802 
L 148.581818 369.103749 
L 153.654545 369.170801 
L 158.727273 369.123108 
L 163.8 368.692899 
L 168.872727 367.562289 
L 173.945455 368.540906 
L 179.018182 368.770741 
L 184.090909 368.686589 
L 189.163636 368.801529 
L 204.381818 368.661986 
L 209.454545 368.269719 
L 214.527273 368.443948 
L 219.6 368.342864 
L 229.745455 367.615627 
L 234.818182 367.268507 
L 239.890909 367.892044 
L 244.963636 367.797002 
L 250.036364 367.962485 
L 265.254545 367.753312 
L 270.327273 367.435111 
L 275.4 367.469408 
L 280.472727 367.36959 
L 285.545455 366.97819 
L 290.618182 364.758975 
L 295.690909 366.542961 
L 300.763636 366.942435 
L 305.836364 366.83638 
L 310.909091 366.982364 
L 315.981818 367.00296 
L 331.2 366.563544 
L 336.272727 366.656765 
L 341.345455 366.535216 
L 346.418182 365.969994 
L 351.490909 364.47552 
L 356.563636 365.85463 
L 361.636364 366.159882 
L 366.709091 366.060454 
L 371.781818 366.251475 
L 387 366.054566 
L 392.072727 365.527689 
L 397.145455 365.851512 
L 402.218182 365.699234 
L 407.290909 365.325684 
L 412.363636 364.04246 
L 417.436364 364.39432 
L 422.509091 365.193776 
L 427.581818 365.169622 
L 432.654545 365.363305 
L 437.727273 365.42384 
L 447.872727 365.281935 
L 452.945455 365.023773 
L 458.018182 365.171505 
L 463.090909 365.032217 
L 468.163636 364.68082 
L 473.236364 361.727942 
L 478.309091 364.063657 
L 483.381818 364.721202 
L 488.454545 364.67405 
L 503.672727 364.883099 
L 513.818182 364.636252 
L 518.890909 364.826244 
L 523.963636 364.703208 
L 529.036364 364.403235 
L 534.109091 363.945124 
L 539.181818 362.32097 
L 544.254545 364.124795 
L 559.472727 364.675908 
L 569.618182 364.600539 
L 574.690909 364.277474 
L 579.763636 364.462381 
L 584.836364 364.391916 
L 589.909091 363.91612 
L 594.981818 362.382495 
L 600.054545 362.893983 
L 605.127273 363.679793 
L 610.2 363.720653 
L 615.272727 363.987921 
L 630.490909 363.876895 
L 635.563636 363.611033 
L 640.636364 363.751662 
L 645.709091 363.638234 
L 650.781818 363.078091 
L 655.854545 360.064397 
L 660.927273 362.514085 
L 666 363.028477 
L 671.072727 363.063474 
L 676.145455 363.237987 
L 686.290909 363.27162 
L 691.363636 363.202113 
L 696.436364 362.84011 
L 701.509091 363.090146 
L 706.581818 363.025494 
L 711.654545 362.692337 
L 716.727273 362.034951 
L 721.8 360.916771 
L 726.872727 362.35513 
L 742.090909 362.864579 
L 752.236364 362.831633 
L 757.309091 362.584538 
L 762.381818 362.782214 
L 767.454545 362.699849 
L 772.527273 362.270167 
L 777.6 359.915911 
L 777.6 359.915911 
" style="fill:none;stroke:#2ca02c;stroke-linecap:square;stroke-width:1.5;"/>
   </g>
   <g id="patch_3">
    <path d="M 108 384.48 
L 108 51.84 
" style="fill:none;stroke:#000000;stroke-linecap:square;stroke-linejoin:miter;stroke-width:0.8;"/>
   </g>
   <g id="patch_4">
    <path d="M 777.6 384.48 
L 777.6 51.84 
" style="fill:none;stroke:#000000;stroke-linecap:square;stroke-linejoin:miter;stroke-width:0.8;"/>
   </g>
   <g id="patch_5">
    <path d="M 108 384.48 
L 777.6 384.48 
" style="fill:none;stroke:#000000;stroke-linecap:square;stroke-linejoin:miter;stroke-width:0.8;"/>
   </g>
   <g id="patch_6">
    <path d="M 108 51.84 
L 777.6 51.84 
" style="fill:none;stroke:#000000;stroke-linecap:square;stroke-linejoin:miter;stroke-width:0.8;"/>
   </g>
   <g id="legend_1">
    <g id="patch_7">
     <path d="M 115 106.279063 
L 222.634375 106.279063 
Q 224.634375 106.279063 224.634375 104.279063 
L 224.634375 58.84 
Q 224.634375 56.84 222.634375 56.84 
L 115 56.84 
Q 113 56.84 113 58.84 
L 113 104.279063 
Q 113 106.279063 115 106.279063 
z
" style="fill:#ffffff;opacity:0.8;stroke:#cccccc;stroke-linejoin:miter;"/>
    </g>
    <g id="line2d_34">
     <path d="M 117 65.33375 
L 137 65.33375 
" style="fill:none;stroke:#1f77b4;stroke-linecap:square;stroke-width:1.5;"/>
    </g>
    <g id="line2d_35"/>
    <g id="text_17">
     <!-- M2数量（亿元） -->
     <defs>
      <path d="M 78.171875 0 
L 78.171875 50.09375 
Q 78.171875 56.296875 78.90625 64.984375 
L 78.65625 64.984375 
Q 77.390625 59.515625 76.421875 57.375 
L 51.46875 0 
L 46.046875 0 
L 21.140625 56.9375 
Q 20.265625 58.890625 18.890625 64.984375 
L 18.609375 64.984375 
Q 19.09375 59.71875 19.09375 49.65625 
L 19.09375 0 
L 9.765625 0 
L 9.765625 75.640625 
L 23 75.640625 
L 45.3125 23.78125 
Q 47.859375 17.828125 48.6875 14.5 
L 49.03125 14.5 
Q 51.5625 21.484375 52.59375 23.96875 
L 75.296875 75.640625 
L 87.890625 75.640625 
L 87.890625 0 
z
" id="MicrosoftYaHei-4d"/>
      <path d="M 65.234375 82.859375 
L 73.046875 81.6875 
Q 71 72.21875 68.265625 64.015625 
L 98.140625 64.015625 
L 98.140625 57.375 
L 92 57.375 
Q 89.546875 28.65625 79.5 11.765625 
Q 87.40625 1.03125 99.609375 -5.8125 
Q 96.484375 -10.109375 94.34375 -13.53125 
Q 82.421875 -5.8125 74.515625 4.828125 
Q 65.53125 -6.296875 53.125 -14.5 
Q 50.984375 -11.671875 47.5625 -8.34375 
Q 61.234375 0.640625 69.734375 12.0625 
Q 61.8125 25.734375 59.28125 43.609375 
Q 57.234375 39.984375 54.984375 36.859375 
Q 53.03125 39.703125 50.09375 43.109375 
Q 61.421875 59.421875 65.234375 82.859375 
z
M 2.34375 26.515625 
L 17.1875 26.515625 
Q 19.34375 30.21875 21.390625 34.125 
L 28.421875 31.890625 
Q 26.859375 29.15625 25.296875 26.515625 
L 49.21875 26.515625 
L 49.21875 20.171875 
Q 45.515625 10.59375 37.984375 3.375 
Q 43.359375 0.828125 48.921875 -1.703125 
L 44.625 -8.453125 
Q 38.578125 -5.03125 32.03125 -1.609375 
Q 21 -9.515625 4.203125 -14.109375 
Q 2.640625 -10.984375 0.875 -7.28125 
Q 15.140625 -4.046875 25 2 
Q 16.609375 6.296875 7.421875 10.796875 
Q 10.546875 15.28125 13.484375 20.0625 
L 2.34375 20.0625 
z
M 3.421875 60.109375 
L 25.875 60.109375 
L 25.875 81.984375 
L 33.109375 81.984375 
L 33.109375 60.109375 
L 51.859375 60.109375 
L 51.859375 53.65625 
L 33.109375 53.65625 
L 33.109375 47.703125 
L 36.03125 51.03125 
Q 45.125 44.390625 51.265625 39.3125 
L 46.578125 33.84375 
Q 41.21875 38.921875 33.109375 45.265625 
L 33.109375 34.125 
L 25.875 34.125 
L 25.875 47.796875 
Q 17 38.53125 5.171875 31.5 
Q 3.328125 34.328125 0.984375 37.453125 
Q 13.28125 44.09375 23.53125 53.65625 
L 3.421875 53.65625 
z
M 84.1875 57.375 
L 65.921875 57.375 
Q 65.4375 56.109375 64.84375 54.9375 
Q 66.609375 34.234375 74.609375 19.484375 
Q 82.421875 33.734375 84.1875 57.375 
z
M 17 13.03125 
Q 23.921875 9.90625 31.25 6.5 
Q 37.984375 12.25 41.796875 20.0625 
L 21.484375 20.0625 
Q 19.234375 16.453125 17 13.03125 
z
M 47.46875 79.546875 
L 53.515625 75.53125 
Q 48.140625 68.5 42.78125 62.546875 
Q 40.53125 64.5 37.5 66.65625 
Q 42.578125 72.609375 47.46875 79.546875 
z
M 5.953125 75.25 
L 11.53125 79.046875 
Q 15.921875 73.6875 20.609375 67.53125 
L 14.546875 63.234375 
Q 10.25 69.578125 5.953125 75.25 
z
" id="MicrosoftYaHei-6570"/>
      <path d="M 1.765625 -4.34375 
L 46.578125 -4.34375 
L 46.578125 1.21875 
L 7.421875 1.21875 
L 7.421875 6.296875 
L 46.578125 6.296875 
L 46.578125 11.859375 
L 23.34375 11.859375 
L 23.34375 9.328125 
L 16.703125 9.328125 
L 16.703125 39.3125 
L 83.59375 39.3125 
L 83.59375 9.328125 
L 76.953125 9.328125 
L 76.953125 11.859375 
L 53.421875 11.859375 
L 53.421875 6.296875 
L 92.671875 6.296875 
L 92.671875 1.21875 
L 53.421875 1.21875 
L 53.421875 -4.34375 
L 98.25 -4.34375 
L 98.25 -9.625 
L 1.765625 -9.625 
z
M 17.484375 79.25 
L 82.90625 79.25 
L 82.90625 51.3125 
L 76.265625 51.3125 
L 76.265625 53.953125 
L 24.125 53.953125 
L 24.125 51.3125 
L 17.484375 51.3125 
z
M 2.546875 49.265625 
L 97.859375 49.265625 
L 97.859375 44 
L 2.546875 44 
z
M 24.125 59.03125 
L 76.265625 59.03125 
L 76.265625 64.3125 
L 24.125 64.3125 
z
M 76.265625 74.171875 
L 24.125 74.171875 
L 24.125 69 
L 76.265625 69 
z
M 53.421875 16.9375 
L 76.953125 16.9375 
L 76.953125 23.296875 
L 53.421875 23.296875 
z
M 23.34375 16.9375 
L 46.578125 16.9375 
L 46.578125 23.296875 
L 23.34375 23.296875 
z
M 76.953125 34.234375 
L 53.421875 34.234375 
L 53.421875 27.984375 
L 76.953125 27.984375 
z
M 23.34375 27.984375 
L 46.578125 27.984375 
L 46.578125 34.234375 
L 23.34375 34.234375 
z
" id="MicrosoftYaHei-91cf"/>
      <path d="M 57.625 -17.1875 
Q 40.1875 1.859375 40.1875 28.90625 
Q 40.1875 56.296875 57.625 75.59375 
L 66.015625 75.59375 
Q 48.6875 55.8125 48.6875 29 
Q 48.6875 2.59375 65.921875 -17.1875 
z
" id="MicrosoftYaHei-ff08"/>
      <path d="M 90.53125 25.828125 
Q 92.96875 24.65625 98.734375 22.90625 
Q 97.859375 12.0625 96.484375 4.046875 
Q 94.34375 -8.34375 79.203125 -8.453125 
Q 63.671875 -9.03125 49.703125 -8.453125 
Q 36.71875 -7.765625 33.984375 -0.140625 
Q 31.453125 7.671875 40.140625 19.78125 
Q 48.640625 31.390625 79.984375 67.625 
L 36.71875 67.625 
L 36.71875 75.34375 
L 90.140625 75.34375 
L 90.140625 66.265625 
Q 66.5 40.484375 49.03125 18.40625 
Q 40.828125 7.375 41.796875 3.375 
Q 42.1875 -0.734375 52.640625 -1.03125 
Q 64.546875 -1.515625 76.375 -0.921875 
Q 83.296875 -0.640625 85.546875 1.03125 
Q 88.09375 2.6875 88.875 7.859375 
Q 89.84375 13.234375 90.53125 25.828125 
z
M 1.375 34.515625 
Q 15.625 54.25 23.921875 82.859375 
L 31.9375 80.515625 
Q 27.9375 68.5625 23.25 58.0625 
L 23.25 -12.453125 
L 15.625 -12.453125 
L 15.625 42.828125 
Q 10.5 33.640625 4.6875 25.921875 
Q 3.328125 30.21875 1.375 34.515625 
z
" id="MicrosoftYaHei-4ebf"/>
      <path d="M 2.9375 48.1875 
L 97.265625 48.1875 
L 97.265625 40.765625 
L 66.40625 40.765625 
L 66.40625 2.6875 
Q 66.40625 -3.078125 72.265625 -3.078125 
L 80.671875 -3.078125 
Q 87.703125 -3.078125 88.671875 3.375 
Q 89.546875 8.84375 90.140625 17.234375 
Q 94.046875 15.875 98.640625 14.796875 
Q 97.65625 6.390625 96.578125 0.734375 
Q 94.625 -10.015625 82.421875 -10.015625 
L 70.515625 -10.015625 
Q 58.203125 -10.015625 58.203125 2 
L 58.203125 40.765625 
L 38.28125 40.765625 
L 38.28125 37.640625 
Q 38.28125 16.9375 32.03125 6.984375 
Q 25.78125 -3.859375 7.328125 -13.234375 
Q 3.8125 -8.9375 1.5625 -6.6875 
Q 18.453125 1.609375 24.3125 10.796875 
Q 30.078125 19.578125 30.078125 37.25 
L 30.078125 40.765625 
L 2.9375 40.765625 
z
M 12.3125 76.609375 
L 88.09375 76.609375 
L 88.09375 69.1875 
L 12.3125 69.1875 
z
" id="MicrosoftYaHei-5143"/>
      <path d="M 42.390625 -17.1875 
L 33.984375 -17.1875 
Q 51.3125 2.546875 51.3125 29.5 
Q 51.3125 55.953125 34.078125 75.59375 
L 42.390625 75.59375 
Q 59.71875 56.6875 59.71875 29.5 
Q 59.71875 2 42.390625 -17.1875 
z
" id="MicrosoftYaHei-ff09"/>
     </defs>
     <g transform="translate(145 68.83375)scale(0.1 -0.1)">
      <use xlink:href="#MicrosoftYaHei-4d"/>
      <use x="97.705078" xlink:href="#MicrosoftYaHei-32"/>
      <use x="156.347656" xlink:href="#MicrosoftYaHei-6570"/>
      <use x="256.347656" xlink:href="#MicrosoftYaHei-91cf"/>
      <use x="356.347656" xlink:href="#MicrosoftYaHei-ff08"/>
      <use x="456.347656" xlink:href="#MicrosoftYaHei-4ebf"/>
      <use x="556.347656" xlink:href="#MicrosoftYaHei-5143"/>
      <use x="656.347656" xlink:href="#MicrosoftYaHei-ff09"/>
     </g>
    </g>
    <g id="line2d_36">
     <path d="M 117 80.813438 
L 137 80.813438 
" style="fill:none;stroke:#ff7f0e;stroke-linecap:square;stroke-width:1.5;"/>
    </g>
    <g id="line2d_37"/>
    <g id="text_18">
     <!-- M1数量（亿元） -->
     <g transform="translate(145 84.313438)scale(0.1 -0.1)">
      <use xlink:href="#MicrosoftYaHei-4d"/>
      <use x="97.705078" xlink:href="#MicrosoftYaHei-31"/>
      <use x="156.347656" xlink:href="#MicrosoftYaHei-6570"/>
      <use x="256.347656" xlink:href="#MicrosoftYaHei-91cf"/>
      <use x="356.347656" xlink:href="#MicrosoftYaHei-ff08"/>
      <use x="456.347656" xlink:href="#MicrosoftYaHei-4ebf"/>
      <use x="556.347656" xlink:href="#MicrosoftYaHei-5143"/>
      <use x="656.347656" xlink:href="#MicrosoftYaHei-ff09"/>
     </g>
    </g>
    <g id="line2d_38">
     <path d="M 117 96.293125 
L 137 96.293125 
" style="fill:none;stroke:#2ca02c;stroke-linecap:square;stroke-width:1.5;"/>
    </g>
    <g id="line2d_39"/>
    <g id="text_19">
     <!-- M0数量（亿元） -->
     <g transform="translate(145 99.793125)scale(0.1 -0.1)">
      <use xlink:href="#MicrosoftYaHei-4d"/>
      <use x="97.705078" xlink:href="#MicrosoftYaHei-30"/>
      <use x="156.347656" xlink:href="#MicrosoftYaHei-6570"/>
      <use x="256.347656" xlink:href="#MicrosoftYaHei-91cf"/>
      <use x="356.347656" xlink:href="#MicrosoftYaHei-ff08"/>
      <use x="456.347656" xlink:href="#MicrosoftYaHei-4ebf"/>
      <use x="556.347656" xlink:href="#MicrosoftYaHei-5143"/>
      <use x="656.347656" xlink:href="#MicrosoftYaHei-ff09"/>
     </g>
    </g>
   </g>
  </g>
 </g>
 <defs>
  <clipPath id="p9e07757bac">
   <rect height="332.64" width="669.6" x="108" y="51.84"/>
  </clipPath>
 </defs>
</svg>
