<?xml version="1.0" encoding="utf-8" standalone="no"?>
<!DOCTYPE svg PUBLIC "-//W3C//DTD SVG 1.1//EN"
  "http://www.w3.org/Graphics/SVG/1.1/DTD/svg11.dtd">
<!-- Created with matplotlib (http://matplotlib.org/) -->
<svg height="576pt" version="1.1" viewBox="0 0 1152 576" width="1152pt" xmlns="http://www.w3.org/2000/svg" xmlns:xlink="http://www.w3.org/1999/xlink">
 <defs>
  <style type="text/css">
*{stroke-linecap:butt;stroke-linejoin:round;}
  </style>
 </defs>
 <g id="figure_1">
  <g id="patch_1">
   <path d="M 0 576 
L 1152 576 
L 1152 0 
L 0 0 
z
" style="fill:#ffffff;"/>
  </g>
  <g id="axes_1">
   <g id="patch_2">
    <path d="M 144 512.64 
L 1036.8 512.64 
L 1036.8 69.12 
L 144 69.12 
z
" style="fill:#ffffff;"/>
   </g>
   <g id="matplotlib.axis_1">
    <g id="xtick_1">
     <g id="line2d_1">
      <defs>
       <path d="M 0 0 
L 0 3.5 
" id="m3149eb0035" style="stroke:#000000;stroke-width:0.8;"/>
      </defs>
      <g>
       <use style="stroke:#000000;stroke-width:0.8;" x="144" xlink:href="#m3149eb0035" y="512.64"/>
      </g>
     </g>
     <g id="text_1">
      <!-- 2012-03-21 -->
      <defs>
       <path d="M 51.171875 0 
L 5.171875 0 
L 5.171875 8.296875 
L 27.15625 30.21875 
Q 36.234375 39.3125 39.3125 44.609375 
Q 42.390625 49.90625 42.390625 55.5625 
Q 42.390625 62.015625 38.765625 65.453125 
Q 35.15625 68.890625 28.328125 68.890625 
Q 18.21875 68.890625 9.03125 60.296875 
L 9.03125 70.015625 
Q 17.96875 76.90625 29.828125 76.90625 
Q 40.046875 76.90625 45.953125 71.390625 
Q 51.859375 65.875 51.859375 56.546875 
Q 51.859375 49.515625 48.0625 42.75 
Q 44.28125 35.984375 33.734375 25.53125 
L 16.5 8.6875 
L 16.5 8.5 
L 51.171875 8.5 
z
" id="MicrosoftYaHei-32"/>
       <path d="M 4.4375 36.328125 
Q 4.4375 56.34375 11.078125 66.625 
Q 17.71875 76.90625 30.328125 76.90625 
Q 54.34375 76.90625 54.34375 38.140625 
Q 54.34375 19 47.578125 8.859375 
Q 40.828125 -1.265625 28.609375 -1.265625 
Q 17.09375 -1.265625 10.765625 8.34375 
Q 4.4375 17.96875 4.4375 36.328125 
z
M 14.203125 36.765625 
Q 14.203125 6.640625 29.5 6.640625 
Q 44.53125 6.640625 44.53125 37.25 
Q 44.53125 68.953125 29.78125 68.953125 
Q 14.203125 68.953125 14.203125 36.765625 
z
" id="MicrosoftYaHei-30"/>
       <path d="M 52.59375 0 
L 9.234375 0 
L 9.234375 8.25 
L 26.171875 8.25 
L 26.171875 65.671875 
L 8.796875 60.640625 
L 8.796875 69.4375 
L 35.6875 77.25 
L 35.6875 8.25 
L 52.59375 8.25 
z
" id="MicrosoftYaHei-31"/>
       <path d="M 36.375 26.265625 
L 7.625 26.265625 
L 7.625 33.640625 
L 36.375 33.640625 
z
" id="MicrosoftYaHei-2d"/>
       <path d="M 6.984375 12.640625 
Q 14.75 6.640625 24.515625 6.640625 
Q 32.328125 6.640625 36.890625 10.46875 
Q 41.453125 14.3125 41.453125 20.75 
Q 41.453125 35.109375 20.90625 35.109375 
L 14.59375 35.109375 
L 14.59375 43.015625 
L 20.609375 43.015625 
Q 38.8125 43.015625 38.8125 56.5 
Q 38.8125 68.953125 24.90625 68.953125 
Q 16.9375 68.953125 9.90625 63.578125 
L 9.90625 72.609375 
Q 17.328125 76.90625 27.25 76.90625 
Q 36.921875 76.90625 42.78125 71.84375 
Q 48.640625 66.796875 48.640625 58.734375 
Q 48.640625 43.890625 33.5 39.65625 
L 33.5 39.453125 
Q 41.703125 38.578125 46.453125 33.671875 
Q 51.21875 28.765625 51.21875 21.4375 
Q 51.21875 11.234375 43.875 4.984375 
Q 36.53125 -1.265625 24.3125 -1.265625 
Q 13.578125 -1.265625 6.984375 2.734375 
z
" id="MicrosoftYaHei-33"/>
      </defs>
      <g transform="translate(116.217187 527.63375)scale(0.1 -0.1)">
       <use xlink:href="#MicrosoftYaHei-32"/>
       <use x="58.642578" xlink:href="#MicrosoftYaHei-30"/>
       <use x="117.285156" xlink:href="#MicrosoftYaHei-31"/>
       <use x="175.927734" xlink:href="#MicrosoftYaHei-32"/>
       <use x="234.570312" xlink:href="#MicrosoftYaHei-2d"/>
       <use x="277.832031" xlink:href="#MicrosoftYaHei-30"/>
       <use x="336.474609" xlink:href="#MicrosoftYaHei-33"/>
       <use x="395.117188" xlink:href="#MicrosoftYaHei-2d"/>
       <use x="438.378906" xlink:href="#MicrosoftYaHei-32"/>
       <use x="497.021484" xlink:href="#MicrosoftYaHei-31"/>
      </g>
     </g>
    </g>
    <g id="xtick_2">
     <g id="line2d_2">
      <g>
       <use style="stroke:#000000;stroke-width:0.8;" x="245.917808" xlink:href="#m3149eb0035" y="512.64"/>
      </g>
     </g>
     <g id="text_2">
      <!-- 2013-04-01 -->
      <defs>
       <path d="M 55.078125 19.625 
L 45.40625 19.625 
L 45.40625 0 
L 36.140625 0 
L 36.140625 19.625 
L 0.875 19.625 
L 0.875 25.828125 
L 34.328125 75.640625 
L 45.40625 75.640625 
L 45.40625 27.203125 
L 55.078125 27.203125 
z
M 36.140625 27.203125 
L 36.140625 58.890625 
Q 36.140625 62.25 36.328125 66.65625 
L 36.140625 66.65625 
Q 35.453125 64.796875 33.25 60.84375 
L 10.75 27.203125 
z
" id="MicrosoftYaHei-34"/>
      </defs>
      <g transform="translate(218.134996 527.63375)scale(0.1 -0.1)">
       <use xlink:href="#MicrosoftYaHei-32"/>
       <use x="58.642578" xlink:href="#MicrosoftYaHei-30"/>
       <use x="117.285156" xlink:href="#MicrosoftYaHei-31"/>
       <use x="175.927734" xlink:href="#MicrosoftYaHei-33"/>
       <use x="234.570312" xlink:href="#MicrosoftYaHei-2d"/>
       <use x="277.832031" xlink:href="#MicrosoftYaHei-30"/>
       <use x="336.474609" xlink:href="#MicrosoftYaHei-34"/>
       <use x="395.117188" xlink:href="#MicrosoftYaHei-2d"/>
       <use x="438.378906" xlink:href="#MicrosoftYaHei-30"/>
       <use x="497.021484" xlink:href="#MicrosoftYaHei-31"/>
      </g>
     </g>
    </g>
    <g id="xtick_3">
     <g id="line2d_3">
      <g>
       <use style="stroke:#000000;stroke-width:0.8;" x="347.835616" xlink:href="#m3149eb0035" y="512.64"/>
      </g>
     </g>
     <g id="text_3">
      <!-- 2014-04-15 -->
      <defs>
       <path d="M 8.640625 11.625 
Q 16.265625 6.640625 24.515625 6.640625 
Q 32.328125 6.640625 37.109375 11 
Q 41.890625 15.375 41.890625 22.609375 
Q 41.890625 29.890625 37.03125 33.890625 
Q 32.171875 37.890625 22.953125 37.890625 
Q 18.5 37.890625 10.984375 37.203125 
L 10.984375 75.640625 
L 48.1875 75.640625 
L 48.1875 67.1875 
L 19.875 67.1875 
L 19.875 45.796875 
Q 24.125 46.046875 26.265625 46.046875 
Q 38.234375 46.046875 44.921875 39.984375 
Q 51.609375 33.9375 51.609375 23.296875 
Q 51.609375 12.3125 44.421875 5.515625 
Q 37.25 -1.265625 24.609375 -1.265625 
Q 14.015625 -1.265625 8.640625 1.859375 
z
" id="MicrosoftYaHei-35"/>
      </defs>
      <g transform="translate(320.052804 527.63375)scale(0.1 -0.1)">
       <use xlink:href="#MicrosoftYaHei-32"/>
       <use x="58.642578" xlink:href="#MicrosoftYaHei-30"/>
       <use x="117.285156" xlink:href="#MicrosoftYaHei-31"/>
       <use x="175.927734" xlink:href="#MicrosoftYaHei-34"/>
       <use x="234.570312" xlink:href="#MicrosoftYaHei-2d"/>
       <use x="277.832031" xlink:href="#MicrosoftYaHei-30"/>
       <use x="336.474609" xlink:href="#MicrosoftYaHei-34"/>
       <use x="395.117188" xlink:href="#MicrosoftYaHei-2d"/>
       <use x="438.378906" xlink:href="#MicrosoftYaHei-31"/>
       <use x="497.021484" xlink:href="#MicrosoftYaHei-35"/>
      </g>
     </g>
    </g>
    <g id="xtick_4">
     <g id="line2d_4">
      <g>
       <use style="stroke:#000000;stroke-width:0.8;" x="449.753425" xlink:href="#m3149eb0035" y="512.64"/>
      </g>
     </g>
     <g id="text_4">
      <!-- 2015-04-23 -->
      <g transform="translate(421.970612 527.63375)scale(0.1 -0.1)">
       <use xlink:href="#MicrosoftYaHei-32"/>
       <use x="58.642578" xlink:href="#MicrosoftYaHei-30"/>
       <use x="117.285156" xlink:href="#MicrosoftYaHei-31"/>
       <use x="175.927734" xlink:href="#MicrosoftYaHei-35"/>
       <use x="234.570312" xlink:href="#MicrosoftYaHei-2d"/>
       <use x="277.832031" xlink:href="#MicrosoftYaHei-30"/>
       <use x="336.474609" xlink:href="#MicrosoftYaHei-34"/>
       <use x="395.117188" xlink:href="#MicrosoftYaHei-2d"/>
       <use x="438.378906" xlink:href="#MicrosoftYaHei-32"/>
       <use x="497.021484" xlink:href="#MicrosoftYaHei-33"/>
      </g>
     </g>
    </g>
    <g id="xtick_5">
     <g id="line2d_5">
      <g>
       <use style="stroke:#000000;stroke-width:0.8;" x="551.671233" xlink:href="#m3149eb0035" y="512.64"/>
      </g>
     </g>
     <g id="text_5">
      <!-- 2016-04-29 -->
      <defs>
       <path d="M 49.703125 65.921875 
Q 43.796875 68.953125 37.359375 68.953125 
Q 27.546875 68.953125 21.578125 60.40625 
Q 15.625 51.859375 15.53125 37.0625 
L 15.765625 37.0625 
Q 21.140625 47.46875 32.90625 47.46875 
Q 42.71875 47.46875 48.578125 41.0625 
Q 54.4375 34.671875 54.4375 24.078125 
Q 54.4375 12.984375 47.671875 5.859375 
Q 40.921875 -1.265625 30.421875 -1.265625 
Q 18.890625 -1.265625 12.328125 7.734375 
Q 5.765625 16.75 5.765625 33.296875 
Q 5.765625 53.328125 14.375 65.109375 
Q 23 76.90625 37.0625 76.90625 
Q 45.125 76.90625 49.703125 74.703125 
z
M 16.109375 24.75 
Q 16.109375 17.28125 20.09375 11.953125 
Q 24.078125 6.640625 30.671875 6.640625 
Q 36.921875 6.640625 40.828125 11.234375 
Q 44.734375 15.828125 44.734375 23.046875 
Q 44.734375 30.859375 41.046875 35.203125 
Q 37.359375 39.546875 30.5625 39.546875 
Q 24.125 39.546875 20.109375 35.15625 
Q 16.109375 30.765625 16.109375 24.75 
z
" id="MicrosoftYaHei-36"/>
       <path d="M 9.03125 10.25 
Q 15.28125 6.640625 22.515625 6.640625 
Q 32.671875 6.640625 38.25 14.640625 
Q 43.84375 22.65625 43.84375 37.40625 
Q 43.75 37.3125 43.65625 37.40625 
Q 38.671875 27.9375 26.90625 27.9375 
Q 17.390625 27.9375 11.140625 34.46875 
Q 4.890625 41.015625 4.890625 51.46875 
Q 4.890625 62.59375 11.71875 69.75 
Q 18.5625 76.90625 29.4375 76.90625 
Q 40.71875 76.90625 47.0625 68.046875 
Q 53.421875 59.1875 53.421875 42.234375 
Q 53.421875 21.296875 45.21875 10.015625 
Q 37.015625 -1.265625 22.515625 -1.265625 
Q 14.546875 -1.265625 9.03125 1.3125 
z
M 14.546875 52.6875 
Q 14.546875 45.0625 18.453125 40.59375 
Q 22.359375 36.140625 29.25 36.140625 
Q 35.203125 36.140625 39.25 40.203125 
Q 43.3125 44.28125 43.3125 50.09375 
Q 43.3125 58.25 39.28125 63.59375 
Q 35.25 68.953125 28.65625 68.953125 
Q 22.5625 68.953125 18.546875 64.3125 
Q 14.546875 59.671875 14.546875 52.6875 
z
" id="MicrosoftYaHei-39"/>
      </defs>
      <g transform="translate(523.88842 527.63375)scale(0.1 -0.1)">
       <use xlink:href="#MicrosoftYaHei-32"/>
       <use x="58.642578" xlink:href="#MicrosoftYaHei-30"/>
       <use x="117.285156" xlink:href="#MicrosoftYaHei-31"/>
       <use x="175.927734" xlink:href="#MicrosoftYaHei-36"/>
       <use x="234.570312" xlink:href="#MicrosoftYaHei-2d"/>
       <use x="277.832031" xlink:href="#MicrosoftYaHei-30"/>
       <use x="336.474609" xlink:href="#MicrosoftYaHei-34"/>
       <use x="395.117188" xlink:href="#MicrosoftYaHei-2d"/>
       <use x="438.378906" xlink:href="#MicrosoftYaHei-32"/>
       <use x="497.021484" xlink:href="#MicrosoftYaHei-39"/>
      </g>
     </g>
    </g>
    <g id="xtick_6">
     <g id="line2d_6">
      <g>
       <use style="stroke:#000000;stroke-width:0.8;" x="653.589041" xlink:href="#m3149eb0035" y="512.64"/>
      </g>
     </g>
     <g id="text_6">
      <!-- 2017-05-10 -->
      <defs>
       <path d="M 53.765625 72.3125 
L 24.171875 0 
L 14.265625 0 
L 42.390625 67.1875 
L 4.59375 67.1875 
L 4.59375 75.640625 
L 53.765625 75.640625 
z
" id="MicrosoftYaHei-37"/>
      </defs>
      <g transform="translate(625.806229 527.63375)scale(0.1 -0.1)">
       <use xlink:href="#MicrosoftYaHei-32"/>
       <use x="58.642578" xlink:href="#MicrosoftYaHei-30"/>
       <use x="117.285156" xlink:href="#MicrosoftYaHei-31"/>
       <use x="175.927734" xlink:href="#MicrosoftYaHei-37"/>
       <use x="234.570312" xlink:href="#MicrosoftYaHei-2d"/>
       <use x="277.832031" xlink:href="#MicrosoftYaHei-30"/>
       <use x="336.474609" xlink:href="#MicrosoftYaHei-35"/>
       <use x="395.117188" xlink:href="#MicrosoftYaHei-2d"/>
       <use x="438.378906" xlink:href="#MicrosoftYaHei-31"/>
       <use x="497.021484" xlink:href="#MicrosoftYaHei-30"/>
      </g>
     </g>
    </g>
    <g id="xtick_7">
     <g id="line2d_7">
      <g>
       <use style="stroke:#000000;stroke-width:0.8;" x="755.506849" xlink:href="#m3149eb0035" y="512.64"/>
      </g>
     </g>
     <g id="text_7">
      <!-- 2018-05-17 -->
      <defs>
       <path d="M 21.390625 39.796875 
Q 7.859375 46.09375 7.859375 58.0625 
Q 7.859375 66.40625 14.203125 71.65625 
Q 20.5625 76.90625 30.421875 76.90625 
Q 39.453125 76.90625 45.3125 71.96875 
Q 51.171875 67.046875 51.171875 59.234375 
Q 51.171875 46.625 37.0625 39.84375 
L 37.0625 39.65625 
Q 53.609375 33.6875 53.609375 19.34375 
Q 53.609375 9.90625 46.796875 4.3125 
Q 39.984375 -1.265625 27.78125 -1.265625 
Q 17.78125 -1.265625 11.46875 4.25 
Q 5.171875 9.765625 5.171875 18.5625 
Q 5.171875 33.015625 21.390625 39.59375 
z
M 41.5 58.109375 
Q 41.5 63.1875 38.328125 66.109375 
Q 35.15625 69.046875 29.734375 69.046875 
Q 24.65625 69.046875 21.09375 65.984375 
Q 17.53125 62.9375 17.53125 58.203125 
Q 17.53125 48.734375 29.390625 43.796875 
Q 41.5 48.828125 41.5 58.109375 
z
M 28.8125 35.25 
Q 14.796875 29.59375 14.796875 19.046875 
Q 14.796875 13.578125 18.890625 10.0625 
Q 23 6.546875 29.59375 6.546875 
Q 35.984375 6.546875 39.984375 10.03125 
Q 44 13.53125 44 18.75 
Q 44 29.734375 28.8125 35.25 
z
" id="MicrosoftYaHei-38"/>
      </defs>
      <g transform="translate(727.724037 527.63375)scale(0.1 -0.1)">
       <use xlink:href="#MicrosoftYaHei-32"/>
       <use x="58.642578" xlink:href="#MicrosoftYaHei-30"/>
       <use x="117.285156" xlink:href="#MicrosoftYaHei-31"/>
       <use x="175.927734" xlink:href="#MicrosoftYaHei-38"/>
       <use x="234.570312" xlink:href="#MicrosoftYaHei-2d"/>
       <use x="277.832031" xlink:href="#MicrosoftYaHei-30"/>
       <use x="336.474609" xlink:href="#MicrosoftYaHei-35"/>
       <use x="395.117188" xlink:href="#MicrosoftYaHei-2d"/>
       <use x="438.378906" xlink:href="#MicrosoftYaHei-31"/>
       <use x="497.021484" xlink:href="#MicrosoftYaHei-37"/>
      </g>
     </g>
    </g>
    <g id="xtick_8">
     <g id="line2d_8">
      <g>
       <use style="stroke:#000000;stroke-width:0.8;" x="857.424658" xlink:href="#m3149eb0035" y="512.64"/>
      </g>
     </g>
     <g id="text_8">
      <!-- 2019-05-24 -->
      <g transform="translate(829.641845 527.63375)scale(0.1 -0.1)">
       <use xlink:href="#MicrosoftYaHei-32"/>
       <use x="58.642578" xlink:href="#MicrosoftYaHei-30"/>
       <use x="117.285156" xlink:href="#MicrosoftYaHei-31"/>
       <use x="175.927734" xlink:href="#MicrosoftYaHei-39"/>
       <use x="234.570312" xlink:href="#MicrosoftYaHei-2d"/>
       <use x="277.832031" xlink:href="#MicrosoftYaHei-30"/>
       <use x="336.474609" xlink:href="#MicrosoftYaHei-35"/>
       <use x="395.117188" xlink:href="#MicrosoftYaHei-2d"/>
       <use x="438.378906" xlink:href="#MicrosoftYaHei-32"/>
       <use x="497.021484" xlink:href="#MicrosoftYaHei-34"/>
      </g>
     </g>
    </g>
    <g id="xtick_9">
     <g id="line2d_9">
      <g>
       <use style="stroke:#000000;stroke-width:0.8;" x="959.342466" xlink:href="#m3149eb0035" y="512.64"/>
      </g>
     </g>
     <g id="text_9">
      <!-- 2020-06-02 -->
      <g transform="translate(931.559653 527.63375)scale(0.1 -0.1)">
       <use xlink:href="#MicrosoftYaHei-32"/>
       <use x="58.642578" xlink:href="#MicrosoftYaHei-30"/>
       <use x="117.285156" xlink:href="#MicrosoftYaHei-32"/>
       <use x="175.927734" xlink:href="#MicrosoftYaHei-30"/>
       <use x="234.570312" xlink:href="#MicrosoftYaHei-2d"/>
       <use x="277.832031" xlink:href="#MicrosoftYaHei-30"/>
       <use x="336.474609" xlink:href="#MicrosoftYaHei-36"/>
       <use x="395.117188" xlink:href="#MicrosoftYaHei-2d"/>
       <use x="438.378906" xlink:href="#MicrosoftYaHei-30"/>
       <use x="497.021484" xlink:href="#MicrosoftYaHei-32"/>
      </g>
     </g>
    </g>
    <g id="text_10">
     <!-- date -->
     <defs>
      <path d="M 55.421875 0 
L 45.84375 0 
L 45.84375 8.984375 
L 45.65625 8.984375 
Q 39.75 -1.265625 27.296875 -1.265625 
Q 17.046875 -1.265625 10.984375 6.03125 
Q 4.9375 13.328125 4.9375 25.734375 
Q 4.9375 39.109375 11.765625 47.1875 
Q 18.609375 55.28125 29.640625 55.28125 
Q 40.671875 55.28125 45.65625 46.6875 
L 45.84375 46.6875 
L 45.84375 79.9375 
L 55.421875 79.9375 
z
M 45.90625 32.125 
Q 45.90625 38.625 41.625 42.984375 
Q 37.359375 47.359375 31.109375 47.359375 
Q 23.484375 47.359375 19.09375 41.671875 
Q 14.703125 35.984375 14.703125 26.171875 
Q 14.703125 17.140625 18.921875 11.890625 
Q 23.140625 6.640625 30.171875 6.640625 
Q 37.109375 6.640625 41.5 11.78125 
Q 45.90625 16.9375 45.90625 24.609375 
z
" id="MicrosoftYaHei-64"/>
      <path d="M 9.8125 50.25 
Q 17.875 55.28125 28.421875 55.28125 
Q 47.953125 55.28125 47.953125 34.765625 
L 47.953125 0 
L 38.484375 0 
L 38.484375 8.34375 
L 38.234375 8.34375 
Q 32.625 -1.265625 21.6875 -1.265625 
Q 13.8125 -1.265625 9.171875 2.984375 
Q 4.546875 7.234375 4.546875 14.453125 
Q 4.546875 29.59375 22.46875 32.078125 
L 38.484375 34.328125 
Q 38.484375 47.5625 27.546875 47.5625 
Q 17.828125 47.5625 9.8125 41.015625 
z
M 25.828125 25.390625 
Q 19.1875 24.515625 16.671875 22.0625 
Q 14.15625 19.625 14.15625 15.234375 
Q 14.15625 11.375 16.890625 8.9375 
Q 19.625 6.5 24.125 6.5 
Q 30.375 6.5 34.421875 10.890625 
Q 38.484375 15.28125 38.484375 21.921875 
L 38.484375 27.09375 
z
" id="MicrosoftYaHei-61"/>
      <path d="M 34.46875 0.53125 
Q 31.34375 -1.171875 26.03125 -1.171875 
Q 11.53125 -1.171875 11.53125 14.890625 
L 11.53125 46.09375 
L 2.25 46.09375 
L 2.25 54 
L 11.53125 54 
L 11.53125 67 
L 21.046875 70.015625 
L 21.046875 54 
L 34.46875 54 
L 34.46875 46.09375 
L 21.046875 46.09375 
L 21.046875 16.609375 
Q 21.046875 11.28125 22.84375 8.984375 
Q 24.65625 6.6875 28.859375 6.6875 
Q 32.078125 6.6875 34.46875 8.5 
z
" id="MicrosoftYaHei-74"/>
      <path d="M 52.546875 24.5625 
L 14.75 24.5625 
Q 14.984375 15.921875 19.46875 11.203125 
Q 23.96875 6.5 32.03125 6.5 
Q 41.109375 6.5 48.6875 12.3125 
L 48.6875 3.765625 
Q 41.546875 -1.265625 29.78125 -1.265625 
Q 18.0625 -1.265625 11.5 6.15625 
Q 4.9375 13.578125 4.9375 26.765625 
Q 4.9375 39.15625 12.140625 47.21875 
Q 19.34375 55.28125 30.03125 55.28125 
Q 40.625 55.28125 46.578125 48.46875 
Q 52.546875 41.65625 52.546875 29.390625 
z
M 42.96875 32.234375 
Q 42.921875 39.546875 39.5 43.546875 
Q 36.078125 47.5625 29.890625 47.5625 
Q 24.171875 47.5625 20 43.3125 
Q 15.828125 39.0625 14.75 32.234375 
z
" id="MicrosoftYaHei-65"/>
     </defs>
     <g transform="translate(579.738281 542.113438)scale(0.1 -0.1)">
      <use xlink:href="#MicrosoftYaHei-64"/>
      <use x="63.964844" xlink:href="#MicrosoftYaHei-61"/>
      <use x="119.238281" xlink:href="#MicrosoftYaHei-74"/>
      <use x="156.494141" xlink:href="#MicrosoftYaHei-65"/>
     </g>
    </g>
   </g>
   <g id="matplotlib.axis_2">
    <g id="ytick_1">
     <g id="line2d_10">
      <defs>
       <path d="M 0 0 
L -3.5 0 
" id="m52e1507f31" style="stroke:#000000;stroke-width:0.8;"/>
      </defs>
      <g>
       <use style="stroke:#000000;stroke-width:0.8;" x="144" xlink:href="#m52e1507f31" y="442.575026"/>
      </g>
     </g>
     <g id="text_11">
      <!-- 1.0 -->
      <defs>
       <path d="M 5.8125 5.03125 
Q 5.8125 7.671875 7.609375 9.46875 
Q 9.421875 11.28125 12.109375 11.28125 
Q 14.84375 11.28125 16.640625 9.453125 
Q 18.453125 7.625 18.453125 5.03125 
Q 18.453125 2.484375 16.640625 0.65625 
Q 14.84375 -1.171875 12.0625 -1.171875 
Q 9.375 -1.171875 7.59375 0.65625 
Q 5.8125 2.484375 5.8125 5.03125 
z
" id="MicrosoftYaHei-2e"/>
      </defs>
      <g transform="translate(122.864063 446.571901)scale(0.1 -0.1)">
       <use xlink:href="#MicrosoftYaHei-31"/>
       <use x="58.642578" xlink:href="#MicrosoftYaHei-2e"/>
       <use x="82.714844" xlink:href="#MicrosoftYaHei-30"/>
      </g>
     </g>
    </g>
    <g id="ytick_2">
     <g id="line2d_11">
      <g>
       <use style="stroke:#000000;stroke-width:0.8;" x="144" xlink:href="#m52e1507f31" y="366.588227"/>
      </g>
     </g>
     <g id="text_12">
      <!-- 1.2 -->
      <g transform="translate(122.864063 370.585102)scale(0.1 -0.1)">
       <use xlink:href="#MicrosoftYaHei-31"/>
       <use x="58.642578" xlink:href="#MicrosoftYaHei-2e"/>
       <use x="82.714844" xlink:href="#MicrosoftYaHei-32"/>
      </g>
     </g>
    </g>
    <g id="ytick_3">
     <g id="line2d_12">
      <g>
       <use style="stroke:#000000;stroke-width:0.8;" x="144" xlink:href="#m52e1507f31" y="290.601428"/>
      </g>
     </g>
     <g id="text_13">
      <!-- 1.4 -->
      <g transform="translate(122.864063 294.598303)scale(0.1 -0.1)">
       <use xlink:href="#MicrosoftYaHei-31"/>
       <use x="58.642578" xlink:href="#MicrosoftYaHei-2e"/>
       <use x="82.714844" xlink:href="#MicrosoftYaHei-34"/>
      </g>
     </g>
    </g>
    <g id="ytick_4">
     <g id="line2d_13">
      <g>
       <use style="stroke:#000000;stroke-width:0.8;" x="144" xlink:href="#m52e1507f31" y="214.614629"/>
      </g>
     </g>
     <g id="text_14">
      <!-- 1.6 -->
      <g transform="translate(122.864063 218.611504)scale(0.1 -0.1)">
       <use xlink:href="#MicrosoftYaHei-31"/>
       <use x="58.642578" xlink:href="#MicrosoftYaHei-2e"/>
       <use x="82.714844" xlink:href="#MicrosoftYaHei-36"/>
      </g>
     </g>
    </g>
    <g id="ytick_5">
     <g id="line2d_14">
      <g>
       <use style="stroke:#000000;stroke-width:0.8;" x="144" xlink:href="#m52e1507f31" y="138.62783"/>
      </g>
     </g>
     <g id="text_15">
      <!-- 1.8 -->
      <g transform="translate(122.864063 142.624705)scale(0.1 -0.1)">
       <use xlink:href="#MicrosoftYaHei-31"/>
       <use x="58.642578" xlink:href="#MicrosoftYaHei-2e"/>
       <use x="82.714844" xlink:href="#MicrosoftYaHei-38"/>
      </g>
     </g>
    </g>
   </g>
   <g id="line2d_15">
    <path clip-path="url(#p356e412a8d)" d="M 144 442.575026 
L 146.038356 442.195092 
L 148.076712 439.915488 
L 150.115068 438.395752 
L 152.153425 436.116148 
L 154.191781 434.976346 
L 156.230137 434.216478 
L 158.268493 431.55694 
L 160.306849 429.65727 
L 162.345205 426.617798 
L 164.383562 424.718128 
L 166.421918 422.438524 
L 170.49863 421.678656 
L 172.536986 419.399052 
L 176.613699 418.639184 
L 180.690411 420.15892 
L 182.728767 421.678656 
L 184.767123 422.05859 
L 186.805479 424.718128 
L 188.843836 425.85793 
L 190.882192 425.477996 
L 192.920548 426.997732 
L 194.958904 427.7576 
L 199.035616 425.477996 
L 201.073973 423.578326 
L 203.112329 423.95826 
L 205.150685 423.95826 
L 207.189041 423.578326 
L 209.227397 422.05859 
L 211.265753 422.05859 
L 213.30411 420.918788 
L 215.342466 421.298722 
L 217.380822 419.778986 
L 219.419178 419.399052 
L 221.457534 419.399052 
L 225.534247 416.35958 
L 227.572603 412.56024 
L 229.610959 412.180306 
L 231.649315 406.481296 
L 233.687671 404.581626 
L 235.726027 402.302022 
L 237.764384 402.681956 
L 239.80274 401.16222 
L 241.841096 400.402352 
L 243.879452 398.122748 
L 245.917808 398.502682 
L 247.956164 395.46321 
L 249.994521 393.56354 
L 252.032877 395.843144 
L 254.071233 393.943474 
L 256.109589 391.283936 
L 258.147945 389.7642 
L 260.186301 389.7642 
L 262.224658 388.624398 
L 264.263014 390.144134 
L 266.30137 394.323408 
L 270.378082 393.56354 
L 274.454795 395.843144 
L 276.493151 398.122748 
L 278.531507 398.882616 
L 280.569863 398.502682 
L 282.608219 398.882616 
L 284.646575 400.402352 
L 286.684932 400.022418 
L 288.723288 398.882616 
L 290.761644 396.982946 
L 294.838356 396.982946 
L 296.876712 395.843144 
L 298.915068 396.223078 
L 300.953425 397.742814 
L 305.030137 398.502682 
L 307.068493 402.302022 
L 309.106849 404.581626 
L 311.145205 405.721428 
L 313.183562 406.101362 
L 315.221918 406.86123 
L 317.260274 409.520768 
L 319.29863 409.900702 
L 321.336986 410.66057 
L 323.375342 412.56024 
L 325.413699 414.839844 
L 327.452055 412.180306 
L 329.490411 409.900702 
L 331.528767 405.721428 
L 333.567123 402.681956 
L 335.605479 400.402352 
L 337.643836 402.302022 
L 339.682192 401.16222 
L 341.720548 400.402352 
L 343.758904 401.16222 
L 345.79726 399.26255 
L 349.873973 394.703342 
L 351.912329 393.943474 
L 353.950685 390.904002 
L 355.989041 387.104662 
L 358.027397 386.724728 
L 360.065753 384.825058 
L 362.10411 381.405652 
L 364.142466 378.36618 
L 366.180822 379.126048 
L 368.219178 376.46651 
L 370.257534 376.46651 
L 372.29589 375.706642 
L 374.334247 375.326708 
L 376.372603 373.806973 
L 378.410959 371.907303 
L 380.449315 370.387567 
L 382.487671 367.728029 
L 384.526027 366.208293 
L 386.564384 365.068491 
L 388.60274 362.408953 
L 392.679452 361.649085 
L 394.717808 359.369481 
L 396.756164 358.229679 
L 398.794521 352.910603 
L 400.832877 351.770801 
L 402.871233 343.792187 
L 404.909589 338.093177 
L 406.947945 339.232979 
L 408.986301 338.473111 
L 411.024658 335.813573 
L 413.063014 333.533969 
L 415.10137 342.272451 
L 417.139726 339.232979 
L 419.178082 335.053705 
L 421.216438 329.354695 
L 423.254795 328.594827 
L 425.293151 325.555355 
L 427.331507 325.175421 
L 429.369863 326.695157 
L 431.408219 324.795487 
L 433.446575 320.996147 
L 435.484932 321.376081 
L 437.523288 321.376081 
L 439.561644 319.856345 
L 441.6 319.096477 
L 443.638356 319.476411 
L 445.676712 319.096477 
L 447.715068 317.196807 
L 449.753425 313.777401 
L 451.791781 312.637599 
L 453.830137 312.257665 
L 455.868493 308.838259 
L 457.906849 307.318523 
L 459.945205 309.218193 
L 461.983562 308.078391 
L 464.021918 308.458325 
L 466.060274 311.497797 
L 470.136986 310.737929 
L 472.175342 311.877731 
L 474.213699 311.117863 
L 476.252055 308.458325 
L 478.290411 306.558655 
L 480.328767 303.139249 
L 482.367123 302.759315 
L 484.405479 301.619513 
L 486.443836 300.099777 
L 490.520548 296.300437 
L 492.558904 295.920503 
L 494.59726 294.780702 
L 496.635616 293.260966 
L 498.673973 292.501098 
L 500.712329 290.601428 
L 502.750685 289.84156 
L 504.789041 290.981362 
L 506.827397 291.361296 
L 508.865753 290.601428 
L 510.90411 290.221494 
L 512.942466 288.701758 
L 514.980822 289.461626 
L 517.019178 286.04222 
L 519.057534 284.522484 
L 521.09589 284.522484 
L 523.134247 282.24288 
L 525.172603 282.24288 
L 527.210959 282.622814 
L 529.249315 282.24288 
L 531.287671 280.34321 
L 533.326027 279.583342 
L 535.364384 278.44354 
L 537.40274 276.923804 
L 539.441096 276.163936 
L 541.479452 274.6442 
L 543.517808 275.024134 
L 545.556164 274.6442 
L 549.632877 279.203408 
L 551.671233 280.34321 
L 553.709589 278.823474 
L 555.747945 277.683672 
L 557.786301 279.203408 
L 559.824658 279.963276 
L 561.863014 279.583342 
L 563.90137 278.44354 
L 565.939726 275.784002 
L 572.054795 271.224794 
L 574.093151 270.084992 
L 576.131507 269.325124 
L 582.246575 265.905718 
L 584.284932 266.285652 
L 586.323288 265.905718 
L 588.361644 265.14585 
L 592.438356 264.385982 
L 596.515068 262.866246 
L 598.553425 261.726444 
L 600.591781 262.106378 
L 604.668493 262.106378 
L 606.706849 262.866246 
L 608.745205 262.486312 
L 610.783562 264.385982 
L 612.821918 264.765916 
L 614.860274 267.805388 
L 616.89863 267.04552 
L 618.936986 265.905718 
L 620.975342 265.905718 
L 623.013699 264.385982 
L 625.052055 264.765916 
L 627.090411 264.765916 
L 629.128767 264.385982 
L 633.205479 262.866246 
L 635.243836 263.24618 
L 637.282192 264.006048 
L 639.320548 263.24618 
L 641.358904 262.866246 
L 643.39726 261.726444 
L 645.435616 260.966576 
L 647.473973 261.726444 
L 649.512329 263.626114 
L 651.550685 263.24618 
L 653.589041 265.525784 
L 655.627397 265.905718 
L 657.665753 265.905718 
L 659.70411 265.14585 
L 661.742466 264.765916 
L 663.780822 262.106378 
L 665.819178 259.066906 
L 667.857534 256.407368 
L 669.89589 255.6475 
L 671.934247 254.507698 
L 673.972603 254.127764 
L 676.010959 252.987962 
L 678.049315 252.608028 
L 680.087671 252.608028 
L 682.126027 252.228094 
L 684.164384 252.228094 
L 686.20274 252.608028 
L 688.241096 252.228094 
L 690.279452 250.708358 
L 694.356164 249.94849 
L 696.394521 249.188622 
L 700.471233 249.188622 
L 702.509589 249.94849 
L 704.547945 250.328424 
L 706.586301 251.088292 
L 708.624658 253.74783 
L 710.663014 253.74783 
L 712.70137 252.228094 
L 714.739726 252.228094 
L 716.778082 252.608028 
L 718.816438 252.228094 
L 720.854795 251.088292 
L 722.893151 250.708358 
L 724.931507 250.708358 
L 729.008219 249.188622 
L 733.084932 246.909018 
L 735.123288 245.389282 
L 737.161644 244.24948 
L 739.2 243.869546 
L 741.238356 242.729744 
L 743.276712 241.210008 
L 745.315068 238.930404 
L 749.391781 235.890932 
L 751.430137 236.270866 
L 753.468493 236.270866 
L 755.506849 236.6508 
L 763.660274 236.6508 
L 765.69863 236.270866 
L 767.736986 235.510998 
L 769.775342 233.611328 
L 773.852055 231.331724 
L 775.890411 228.672186 
L 777.928767 225.632714 
L 779.967123 223.733044 
L 782.005479 224.492912 
L 784.043836 224.112978 
L 788.120548 222.593242 
L 790.158904 222.593242 
L 792.19726 222.213308 
L 794.235616 221.073506 
L 796.273973 219.55377 
L 802.389041 217.274167 
L 804.427397 215.754431 
L 806.465753 213.854761 
L 812.580822 211.575157 
L 814.619178 211.195223 
L 816.657534 211.195223 
L 818.69589 210.435355 
L 820.734247 208.155751 
L 822.772603 206.636015 
L 824.810959 205.876147 
L 826.849315 205.496213 
L 830.926027 202.456741 
L 832.964384 202.076807 
L 835.00274 202.456741 
L 837.041096 201.696873 
L 839.079452 201.696873 
L 841.117808 200.557071 
L 843.156164 199.797203 
L 845.194521 200.177137 
L 847.232877 200.177137 
L 849.271233 199.797203 
L 851.309589 199.797203 
L 853.347945 197.517599 
L 855.386301 195.617929 
L 859.463014 194.858061 
L 861.50137 194.098193 
L 863.539726 194.478127 
L 865.578082 193.338325 
L 867.616438 192.958391 
L 869.654795 191.818589 
L 873.731507 191.058721 
L 881.884932 186.499513 
L 888 185.359711 
L 890.038356 184.599843 
L 892.076712 184.599843 
L 894.115068 184.219909 
L 896.153425 183.080107 
L 900.230137 183.080107 
L 902.268493 183.460041 
L 908.383562 180.040635 
L 916.536986 177.001163 
L 918.575342 175.861361 
L 920.613699 173.961691 
L 924.690411 172.441955 
L 928.767123 169.402483 
L 932.843836 167.122879 
L 934.882192 165.603143 
L 936.920548 164.463341 
L 938.958904 165.603143 
L 943.035616 163.323539 
L 945.073973 159.904133 
L 951.189041 157.624529 
L 953.227397 158.384397 
L 955.265753 158.764331 
L 957.30411 158.384397 
L 959.342466 160.284067 
L 961.380822 162.943605 
L 963.419178 161.423869 
L 965.457534 162.563671 
L 967.49589 161.423869 
L 969.534247 164.083407 
L 971.572603 164.463341 
L 973.610959 161.803803 
L 975.649315 161.043935 
L 977.687671 160.664001 
L 979.726027 159.904133 
L 981.764384 158.764331 
L 985.841096 159.524199 
L 987.879452 159.524199 
L 993.994521 158.384397 
L 996.032877 157.624529 
L 1000.109589 155.344925 
L 1002.147945 154.585057 
L 1004.186301 155.724859 
L 1006.224658 158.384397 
L 1008.263014 157.624529 
L 1010.30137 156.104793 
L 1012.339726 155.724859 
L 1014.378082 154.964991 
L 1018.454795 151.925519 
L 1020.493151 150.025849 
L 1022.531507 148.886047 
L 1024.569863 148.506113 
L 1026.608219 149.265981 
L 1028.646575 148.886047 
L 1030.684932 147.746245 
L 1032.723288 146.986377 
L 1034.761644 145.846575 
L 1036.8 145.086707 
L 1036.8 145.086707 
" style="fill:none;stroke:#1f77b4;stroke-linecap:square;stroke-width:1.5;"/>
   </g>
   <g id="line2d_16">
    <path clip-path="url(#p356e412a8d)" d="M 144 442.575026 
L 146.038356 444.754238 
L 148.076712 441.491361 
L 150.115068 439.807165 
L 152.153425 436.74809 
L 154.191781 434.253682 
L 156.230137 434.171772 
L 158.268493 432.636849 
L 160.306849 431.317392 
L 162.345205 428.056649 
L 164.383562 427.962562 
L 166.421918 425.597694 
L 170.49863 426.505398 
L 172.536986 425.116683 
L 174.575342 424.391791 
L 176.613699 424.495138 
L 178.652055 426.567491 
L 180.690411 427.417118 
L 182.728767 427.185056 
L 184.767123 429.2908 
L 188.843836 434.574291 
L 190.882192 434.108224 
L 192.920548 433.777214 
L 194.958904 436.462627 
L 196.99726 434.405512 
L 199.035616 432.048811 
L 201.073973 430.941032 
L 203.112329 431.130086 
L 205.150685 432.17479 
L 207.189041 431.218522 
L 209.227397 431.222202 
L 211.265753 431.77129 
L 213.30411 432.120843 
L 215.342466 430.773635 
L 219.419178 425.766787 
L 221.457534 423.945935 
L 223.49589 421.159297 
L 225.534247 419.096346 
L 227.572603 415.299158 
L 229.610959 414.18042 
L 231.649315 407.593441 
L 233.687671 406.196611 
L 235.726027 406.665711 
L 237.764384 408.117397 
L 239.80274 405.962557 
L 241.841096 407.007084 
L 243.879452 403.014437 
L 245.917808 405.596859 
L 247.956164 403.230344 
L 249.994521 402.181452 
L 252.032877 403.356694 
L 256.109589 398.838514 
L 258.147945 395.964244 
L 260.186301 396.123927 
L 262.224658 395.044607 
L 266.30137 405.063865 
L 268.339726 407.790553 
L 270.378082 406.66359 
L 272.416438 407.079275 
L 274.454795 406.611619 
L 276.493151 409.1655 
L 278.531507 411.135691 
L 280.569863 408.916721 
L 282.608219 407.750591 
L 284.646575 409.847121 
L 286.684932 409.10091 
L 288.723288 407.689898 
L 290.761644 403.272654 
L 292.8 404.294834 
L 294.838356 405.088527 
L 296.876712 402.645492 
L 298.915068 403.828223 
L 300.953425 406.23219 
L 302.991781 406.22221 
L 305.030137 408.118404 
L 307.068493 410.440305 
L 309.106849 411.394523 
L 313.183562 411.573616 
L 315.221918 413.11718 
L 317.260274 417.898371 
L 319.29863 417.725227 
L 321.336986 419.701786 
L 325.413699 424.637525 
L 327.452055 421.405655 
L 329.490411 418.448317 
L 331.528767 414.056528 
L 333.567123 413.552685 
L 335.605479 412.145238 
L 337.643836 415.715544 
L 339.682192 413.801456 
L 341.720548 412.463076 
L 343.758904 413.745367 
L 345.79726 410.206497 
L 347.835616 408.507813 
L 349.873973 407.330801 
L 351.912329 407.571173 
L 353.950685 405.514856 
L 355.989041 402.18509 
L 358.027397 402.128647 
L 360.065753 400.002874 
L 362.10411 397.597062 
L 364.142466 394.153052 
L 366.180822 395.552118 
L 368.219178 392.876121 
L 370.257534 392.163988 
L 372.29589 392.019025 
L 374.334247 391.164661 
L 376.372603 387.707948 
L 378.410959 384.489543 
L 380.449315 383.165124 
L 382.487671 380.317983 
L 384.526027 378.956083 
L 386.564384 378.626482 
L 388.60274 374.018397 
L 390.641096 373.968978 
L 392.679452 374.925787 
L 394.717808 371.547692 
L 396.756164 370.449504 
L 398.794521 366.06028 
L 400.832877 366.960021 
L 402.871233 357.250198 
L 404.909589 351.378449 
L 406.947945 352.295016 
L 408.986301 349.877829 
L 411.024658 343.914154 
L 413.063014 333.263978 
L 415.10137 341.348633 
L 417.139726 335.316046 
L 419.178082 330.502271 
L 421.216438 321.926244 
L 423.254795 323.691943 
L 425.293151 320.052624 
L 427.331507 320.222996 
L 429.369863 323.598296 
L 431.408219 321.414322 
L 433.446575 317.401483 
L 435.484932 316.729135 
L 437.523288 316.94348 
L 439.561644 310.002648 
L 441.6 307.614165 
L 445.676712 302.07602 
L 447.715068 296.597785 
L 449.753425 290.05956 
L 451.791781 288.890381 
L 453.830137 291.228184 
L 455.868493 287.303703 
L 457.906849 280.956024 
L 459.945205 284.017796 
L 461.983562 277.225961 
L 464.021918 276.496032 
L 466.060274 288.819811 
L 468.09863 294.599584 
L 470.136986 297.458039 
L 472.175342 294.670648 
L 474.213699 294.824845 
L 476.252055 298.040052 
L 478.290411 296.42063 
L 480.328767 288.754511 
L 482.367123 288.375248 
L 484.405479 301.94468 
L 486.443836 299.263243 
L 488.482192 296.965507 
L 494.59726 297.629203 
L 496.635616 292.11801 
L 498.673973 290.120534 
L 504.789041 281.785114 
L 506.827397 284.027384 
L 508.865753 282.219261 
L 510.90411 283.198801 
L 512.942466 283.538097 
L 514.980822 283.312269 
L 517.019178 277.522703 
L 519.057534 277.52492 
L 521.09589 284.512981 
L 523.134247 283.68174 
L 525.172603 285.744376 
L 527.210959 289.526725 
L 529.249315 287.047518 
L 531.287671 284.303492 
L 533.326027 285.996836 
L 535.364384 282.721709 
L 537.40274 282.262073 
L 541.479452 277.490858 
L 543.517808 277.223008 
L 545.556164 277.373465 
L 547.594521 277.936532 
L 549.632877 281.453817 
L 551.671233 282.662163 
L 553.709589 282.789136 
L 555.747945 281.38566 
L 557.786301 282.760255 
L 559.824658 283.726591 
L 561.863014 281.485692 
L 563.90137 281.431751 
L 565.939726 278.797633 
L 567.978082 277.081906 
L 572.054795 271.739399 
L 576.131507 271.131061 
L 578.169863 270.547289 
L 580.208219 268.756787 
L 582.246575 265.639746 
L 584.284932 266.641911 
L 586.323288 266.34956 
L 588.361644 265.592788 
L 590.4 266.878214 
L 592.438356 265.977913 
L 594.476712 265.6707 
L 596.515068 264.212641 
L 598.553425 262.901173 
L 600.591781 263.062163 
L 602.630137 262.848122 
L 604.668493 261.878636 
L 606.706849 262.52382 
L 608.745205 260.553102 
L 610.783562 262.06343 
L 612.821918 262.917171 
L 614.860274 267.751696 
L 616.89863 267.692349 
L 618.936986 266.680043 
L 620.975342 266.113222 
L 623.013699 265.277892 
L 627.090411 264.871618 
L 629.128767 263.770399 
L 631.167123 262.954195 
L 633.205479 261.461918 
L 635.243836 262.505934 
L 637.282192 263.136386 
L 641.358904 261.167386 
L 643.39726 260.689913 
L 645.435616 259.090212 
L 647.473973 260.613865 
L 649.512329 262.618435 
L 651.550685 262.697641 
L 653.589041 265.815727 
L 655.627397 264.983601 
L 657.665753 264.797598 
L 659.70411 263.189626 
L 661.742466 261.388148 
L 663.780822 259.785208 
L 665.819178 255.597721 
L 667.857534 252.617468 
L 669.89589 252.009061 
L 671.934247 250.102571 
L 673.972603 249.33921 
L 676.010959 248.446499 
L 678.049315 248.292608 
L 680.087671 249.165998 
L 682.126027 247.659389 
L 684.164384 246.586521 
L 688.241096 246.073055 
L 690.279452 244.692332 
L 694.356164 243.985959 
L 696.394521 242.095916 
L 698.432877 242.058631 
L 700.471233 240.652447 
L 702.509589 241.820767 
L 704.547945 240.361889 
L 706.586301 241.001335 
L 708.624658 243.55111 
L 710.663014 245.075625 
L 712.70137 243.701596 
L 714.739726 244.024806 
L 716.778082 243.346553 
L 718.816438 243.425304 
L 720.854795 240.867661 
L 722.893151 239.334164 
L 724.931507 238.568645 
L 726.969863 236.561996 
L 729.008219 237.514147 
L 731.046575 242.391509 
L 733.084932 238.221704 
L 735.123288 237.599941 
L 737.161644 235.28516 
L 739.2 235.7023 
L 741.238356 236.911763 
L 743.276712 235.827006 
L 745.315068 233.427642 
L 747.353425 234.606875 
L 749.391781 232.048806 
L 751.430137 233.078619 
L 753.468493 231.62179 
L 755.506849 232.350628 
L 757.545205 232.849162 
L 759.583562 233.159362 
L 761.621918 232.679493 
L 763.660274 233.464439 
L 765.69863 235.33991 
L 767.736986 235.945539 
L 769.775342 236.785331 
L 771.813699 233.578666 
L 773.852055 233.222672 
L 775.890411 229.338144 
L 777.928767 229.264172 
L 779.967123 227.213026 
L 782.005479 229.697445 
L 786.082192 227.497279 
L 788.120548 228.179394 
L 790.158904 228.560556 
L 792.19726 227.078762 
L 794.235616 224.068691 
L 796.273973 227.066612 
L 798.312329 227.068683 
L 800.350685 225.804553 
L 802.389041 223.208293 
L 804.427397 223.866374 
L 806.465753 220.775104 
L 808.50411 222.003215 
L 810.542466 220.886992 
L 812.580822 220.087072 
L 814.619178 219.99957 
L 816.657534 222.200207 
L 818.69589 221.878901 
L 820.734247 219.198825 
L 822.772603 217.715249 
L 824.810959 215.091925 
L 826.849315 214.807428 
L 828.887671 211.492967 
L 830.926027 207.916691 
L 832.964384 202.987997 
L 835.00274 202.287842 
L 837.041096 202.649918 
L 839.079452 200.790487 
L 841.117808 201.497668 
L 843.156164 197.352205 
L 845.194521 196.173888 
L 847.232877 196.101004 
L 849.271233 196.69625 
L 851.309589 198.226812 
L 853.347945 198.946477 
L 855.386301 198.561337 
L 857.424658 198.991764 
L 859.463014 198.010649 
L 863.539726 197.204942 
L 865.578082 193.329862 
L 867.616438 193.126647 
L 869.654795 191.031154 
L 871.693151 191.756359 
L 873.731507 191.387318 
L 875.769863 189.62251 
L 879.846575 191.002588 
L 881.884932 188.856369 
L 883.923288 186.87601 
L 885.961644 186.871056 
L 888 184.286893 
L 890.038356 183.514572 
L 892.076712 184.523548 
L 894.115068 185.353923 
L 896.153425 182.296773 
L 898.191781 183.40294 
L 900.230137 182.72534 
L 902.268493 182.276854 
L 904.306849 182.424363 
L 906.345205 181.385803 
L 908.383562 180.854744 
L 910.421918 180.840939 
L 912.460274 179.363358 
L 914.49863 177.297252 
L 916.536986 176.973415 
L 920.613699 171.497601 
L 922.652055 170.427249 
L 924.690411 170.847752 
L 926.728767 173.490245 
L 928.767123 169.850167 
L 930.805479 167.874387 
L 932.843836 166.594403 
L 934.882192 164.704875 
L 936.920548 164.995513 
L 938.958904 171.631976 
L 940.99726 169.477417 
L 943.035616 169.204222 
L 945.073973 164.529308 
L 947.112329 163.737119 
L 949.150685 162.689464 
L 951.189041 160.778088 
L 953.227397 160.643058 
L 955.265753 161.029806 
L 957.30411 161.946859 
L 959.342466 161.815369 
L 961.380822 163.111011 
L 965.457534 161.548358 
L 967.49589 157.26953 
L 969.534247 152.296267 
L 971.572603 156.939889 
L 973.610959 151.795394 
L 975.649315 151.931442 
L 977.687671 150.164396 
L 979.726027 151.145391 
L 981.764384 149.615092 
L 983.80274 149.19083 
L 985.841096 148.404689 
L 987.879452 151.445159 
L 989.917808 150.389479 
L 991.956164 150.962058 
L 993.994521 149.089614 
L 996.032877 146.873378 
L 998.071233 146.85138 
L 1000.109589 146.169447 
L 1002.147945 142.947991 
L 1004.186301 144.300265 
L 1006.224658 145.457611 
L 1008.263014 144.320412 
L 1010.30137 141.939209 
L 1012.339726 143.834982 
L 1016.416438 139.94954 
L 1018.454795 135.78103 
L 1020.493151 131.969244 
L 1022.531507 130.047796 
L 1024.569863 128.478021 
L 1026.608219 131.51093 
L 1028.646575 129.554771 
L 1030.684932 128.234447 
L 1032.723288 129.587354 
L 1034.761644 132.397477 
L 1036.8 132.223021 
L 1036.8 132.223021 
" style="fill:none;stroke:#ff7f0e;stroke-linecap:square;stroke-width:1.5;"/>
   </g>
   <g id="line2d_17">
    <path clip-path="url(#p356e412a8d)" d="M 144 442.575026 
L 146.038356 447.313384 
L 148.076712 443.066888 
L 150.115068 441.219603 
L 154.191781 433.548404 
L 156.230137 434.146669 
L 158.268493 433.740109 
L 160.306849 433.002825 
L 162.345205 429.520253 
L 164.383562 431.218491 
L 166.421918 428.769185 
L 170.49863 431.332329 
L 172.536986 430.812599 
L 174.575342 429.751147 
L 176.613699 430.326271 
L 178.652055 433.679354 
L 180.690411 434.612427 
L 182.728767 432.688404 
L 184.767123 436.460132 
L 186.805479 438.922998 
L 188.843836 443.174701 
L 190.882192 442.623537 
L 192.920548 440.519477 
L 194.958904 445.048112 
L 196.99726 442.113397 
L 199.035616 438.588332 
L 201.073973 438.242787 
L 203.112329 438.248153 
L 205.150685 440.297025 
L 207.189041 438.787379 
L 209.227397 440.258373 
L 211.265753 441.336033 
L 213.30411 443.119907 
L 215.342466 440.153778 
L 217.380822 436.702135 
L 219.419178 432.223029 
L 221.457534 428.687458 
L 223.49589 424.705414 
L 225.534247 422.110343 
L 227.572603 418.318327 
L 229.610959 416.474518 
L 231.649315 409.019975 
L 233.687671 408.12393 
L 235.726027 411.324222 
L 237.764384 413.817933 
L 239.80274 411.039984 
L 241.841096 413.859141 
L 243.879452 408.184258 
L 245.917808 412.931727 
L 247.956164 411.218004 
L 249.994521 410.99215 
L 252.032877 411.099253 
L 254.071233 408.604955 
L 256.109589 406.634264 
L 258.147945 402.464668 
L 260.186301 402.777287 
L 262.224658 401.757374 
L 264.263014 410.182809 
L 268.339726 421.690873 
L 270.378082 419.838882 
L 272.416438 419.573735 
L 274.454795 417.597636 
L 276.493151 420.403699 
L 278.531507 423.50626 
L 280.569863 419.558723 
L 282.608219 416.93129 
L 284.646575 419.569843 
L 286.684932 418.478327 
L 288.723288 416.808685 
L 290.761644 409.993874 
L 292.8 411.99082 
L 294.838356 413.54139 
L 296.876712 409.852787 
L 298.915068 411.808363 
L 300.953425 415.061883 
L 302.991781 414.675671 
L 305.030137 418.025932 
L 307.068493 418.924286 
L 309.106849 418.603278 
L 311.145205 417.724159 
L 313.183562 417.487453 
L 315.221918 419.788133 
L 317.260274 426.618124 
L 319.29863 425.909298 
L 323.375342 432.098364 
L 325.413699 434.708282 
L 329.490411 427.335934 
L 331.528767 422.749726 
L 333.567123 424.662884 
L 335.605479 424.089059 
L 337.643836 429.228772 
L 339.682192 426.587857 
L 341.720548 424.706233 
L 343.758904 426.478944 
L 345.79726 421.40445 
L 347.835616 420.25616 
L 349.873973 420.119335 
L 351.912329 421.300485 
L 353.950685 420.169884 
L 355.989041 417.287131 
L 358.027397 417.53331 
L 360.065753 415.201175 
L 362.10411 413.745553 
L 364.142466 409.934704 
L 366.180822 411.92393 
L 368.219178 409.239615 
L 370.257534 407.868198 
L 372.29589 408.294209 
L 374.334247 407.001865 
L 376.372603 401.756907 
L 378.410959 397.323316 
L 380.449315 396.186104 
L 382.487671 393.168188 
L 384.526027 391.958211 
L 386.564384 392.393835 
L 388.60274 385.961287 
L 390.641096 386.223113 
L 392.679452 388.436118 
L 394.717808 384.031585 
L 396.756164 382.979461 
L 398.794521 379.481761 
L 400.832877 382.31525 
L 402.871233 370.982478 
L 404.909589 364.96091 
L 406.947945 365.664877 
L 408.986301 361.6899 
L 411.024658 352.623071 
L 413.063014 333.911187 
L 415.10137 341.349596 
L 417.139726 332.438464 
L 419.178082 327.021036 
L 421.216438 315.688564 
L 423.254795 320.045773 
L 425.293151 315.799945 
L 427.331507 316.53559 
L 429.369863 321.826493 
L 431.408219 319.362246 
L 433.446575 315.145331 
L 435.484932 313.430755 
L 437.523288 313.86319 
L 439.561644 301.410899 
L 441.6 297.367519 
L 443.638356 291.203836 
L 445.676712 286.114858 
L 447.715068 276.878146 
L 449.753425 267.071139 
L 451.791781 265.87546 
L 453.830137 271.191784 
L 455.868493 266.73675 
L 457.906849 255.143583 
L 459.945205 259.459397 
L 461.983562 246.487341 
L 464.021918 244.529728 
L 466.060274 267.083282 
L 468.09863 279.665505 
L 470.136986 285.918042 
L 472.175342 278.96006 
L 474.213699 280.087432 
L 476.252055 289.546232 
L 478.290411 288.233464 
L 480.328767 276.203477 
L 482.367123 275.826574 
L 484.405479 304.568066 
L 486.443836 300.695447 
L 488.482192 298.024844 
L 490.520548 300.342461 
L 492.558904 301.325275 
L 494.59726 302.758191 
L 496.635616 293.302564 
L 498.673973 290.08653 
L 500.712329 286.452072 
L 502.750685 281.999516 
L 504.789041 274.944126 
L 506.827397 279.045802 
L 508.865753 276.193485 
L 512.942466 280.733205 
L 514.980822 279.509478 
L 517.019178 271.344045 
L 519.057534 272.888617 
L 521.09589 286.905993 
L 523.134247 287.534866 
L 525.172603 291.662377 
L 527.210959 298.849136 
L 529.249315 294.316091 
L 531.287671 290.764128 
L 533.326027 294.83531 
L 535.364384 289.500472 
L 537.40274 290.073511 
L 539.441096 286.020874 
L 541.479452 282.903547 
L 543.517808 282.007333 
L 545.556164 282.681856 
L 547.594521 281.54717 
L 549.632877 286.269784 
L 551.671233 287.540025 
L 553.709589 289.298454 
L 555.747945 287.640696 
L 559.824658 290.031124 
L 561.863014 285.959889 
L 563.90137 286.977905 
L 565.939726 284.381519 
L 567.978082 282.480591 
L 572.054795 274.89559 
L 574.093151 275.427183 
L 576.131507 275.56201 
L 578.169863 275.528446 
L 580.208219 273.104971 
L 582.246575 268.053394 
L 584.284932 269.66425 
L 586.323288 269.459659 
L 588.361644 268.706676 
L 590.4 271.637736 
L 592.438356 270.225622 
L 594.476712 270.36885 
L 596.515068 268.225547 
L 598.553425 266.750437 
L 600.591781 266.693915 
L 602.630137 266.269423 
L 604.668493 264.341852 
L 606.706849 264.870056 
L 608.745205 261.329085 
L 610.783562 262.451534 
L 612.821918 263.777415 
L 614.860274 270.392904 
L 616.89863 271.038036 
L 618.936986 270.158812 
L 620.975342 269.026571 
L 623.013699 268.875527 
L 625.052055 268.018351 
L 627.090411 267.68983 
L 629.128767 265.876465 
L 631.167123 265.008191 
L 633.205479 262.794604 
L 635.243836 264.496274 
L 637.282192 264.994313 
L 639.320548 263.836429 
L 641.358904 262.206208 
L 643.39726 262.392997 
L 645.435616 259.961479 
L 647.473973 262.242429 
L 649.512329 264.342243 
L 651.550685 264.880241 
L 653.589041 268.81959 
L 655.627397 266.782373 
L 657.665753 266.411722 
L 659.70411 263.966609 
L 661.742466 260.748345 
L 663.780822 260.212874 
L 665.819178 254.894595 
L 667.857534 251.607302 
L 669.89589 251.153376 
L 671.934247 248.483736 
L 673.972603 247.337781 
L 676.010959 246.698446 
L 678.049315 246.778467 
L 680.087671 248.532687 
L 682.126027 245.891698 
L 684.164384 243.736824 
L 686.20274 242.836887 
L 688.241096 242.705976 
L 690.279452 241.47358 
L 692.317808 241.052726 
L 694.356164 240.825167 
L 696.394521 237.794654 
L 698.432877 237.719606 
L 700.471233 234.889202 
L 702.509589 236.467952 
L 704.547945 233.133817 
L 706.586301 233.646697 
L 708.624658 236.071051 
L 710.663014 239.148687 
L 712.70137 237.931168 
L 714.739726 238.584222 
L 716.778082 236.824107 
L 718.816438 237.372911 
L 720.854795 233.372212 
L 722.893151 230.660209 
L 724.931507 229.111312 
L 726.969863 225.832736 
L 729.008219 228.538878 
L 731.046575 239.617774 
L 733.084932 232.334228 
L 735.123288 232.639908 
L 737.161644 229.134181 
L 739.2 230.365169 
L 741.238356 233.973441 
L 743.276712 233.33958 
L 745.315068 230.833243 
L 747.353425 234.740124 
L 749.391781 231.14333 
L 751.430137 232.829678 
L 753.468493 229.91687 
L 757.545205 231.989279 
L 759.583562 232.609497 
L 761.621918 231.649318 
L 763.660274 233.219327 
L 765.69863 237.352447 
L 767.736986 239.327593 
L 769.775342 242.896271 
L 771.813699 237.66316 
L 773.852055 238.08363 
L 775.890411 233.00814 
L 777.928767 235.86385 
L 779.967123 233.673607 
L 782.005479 237.847712 
L 786.082192 234.612038 
L 788.120548 236.706943 
L 790.158904 237.459517 
L 792.19726 234.906001 
L 794.235616 230.079363 
L 796.273973 237.481812 
L 798.312329 238.228252 
L 800.350685 236.478011 
L 802.389041 232.115678 
L 804.427397 234.881341 
L 806.465753 230.65128 
L 808.50411 233.799954 
L 810.542466 232.344178 
L 812.580822 231.51275 
L 814.619178 231.709847 
L 816.657534 236.037202 
L 818.69589 236.143706 
L 820.734247 233.108698 
L 822.772603 231.667929 
L 824.810959 227.278673 
L 826.849315 227.08695 
L 828.887671 222.065252 
L 830.926027 216.517419 
L 832.964384 207.21185 
L 835.00274 205.452934 
L 837.041096 206.927144 
L 839.079452 203.231306 
L 841.117808 205.768724 
L 843.156164 198.283675 
L 845.194521 195.549694 
L 847.232877 195.404143 
L 849.271233 196.973719 
L 851.309589 200.030281 
L 853.347945 203.75788 
L 857.424658 206.101757 
L 859.463014 204.531545 
L 861.50137 204.510064 
L 863.539726 203.31112 
L 865.578082 196.764255 
L 867.616438 196.736138 
L 869.654795 193.720739 
L 871.693151 195.546058 
L 873.731507 195.18993 
L 875.769863 192.810417 
L 879.846575 197.821294 
L 881.884932 194.68794 
L 883.923288 191.129924 
L 885.961644 191.497201 
L 888 186.738437 
L 890.038356 185.958003 
L 894.115068 189.991477 
L 896.153425 185.049459 
L 898.191781 187.246475 
L 902.268493 184.631349 
L 904.306849 186.061691 
L 906.345205 185.129819 
L 908.383562 185.208702 
L 910.421918 185.938913 
L 912.460274 183.759232 
L 914.49863 180.411852 
L 916.536986 180.521326 
L 918.575342 176.297991 
L 920.613699 172.665598 
L 922.652055 171.290055 
L 924.690411 172.891194 
L 926.728767 179.733553 
L 928.767123 174.035388 
L 930.805479 171.251277 
L 932.843836 169.841192 
L 934.882192 167.591896 
L 936.920548 169.304627 
L 938.958904 181.373942 
L 940.99726 178.221748 
L 943.035616 178.812684 
L 945.073973 172.939428 
L 947.112329 172.120365 
L 949.150685 170.797883 
L 951.189041 167.773368 
L 953.227397 166.759852 
L 955.265753 167.151043 
L 957.30411 169.34105 
L 959.342466 167.207293 
L 963.419178 167.016711 
L 965.457534 164.424818 
L 967.49589 157.05089 
L 969.534247 144.451953 
L 971.572603 153.344211 
L 973.610959 145.737999 
L 975.649315 146.771783 
L 977.687671 143.629052 
L 979.726027 146.390682 
L 981.764384 144.46923 
L 983.80274 143.222217 
L 985.841096 141.244731 
L 987.879452 147.392806 
L 989.917808 145.648869 
L 991.956164 147.197403 
L 993.994521 143.801904 
L 996.032877 140.111181 
L 998.071233 141.231667 
L 1000.109589 141.021921 
L 1002.147945 135.303742 
L 1004.186301 136.864812 
L 1006.224658 136.478838 
L 1008.263014 134.962917 
L 1010.30137 131.717518 
L 1012.339726 135.960713 
L 1014.378082 132.647534 
L 1016.416438 130.435552 
L 1018.454795 123.547678 
L 1020.493151 117.768361 
L 1024.569863 112.245579 
L 1026.608219 117.627429 
L 1028.646575 114.034294 
L 1030.684932 112.533955 
L 1032.723288 116.089713 
L 1034.761644 123.011369 
L 1036.8 123.450283 
L 1036.8 123.450283 
" style="fill:none;stroke:#2ca02c;stroke-linecap:square;stroke-width:1.5;"/>
   </g>
   <g id="line2d_18">
    <path clip-path="url(#p356e412a8d)" d="M 144 442.575026 
L 146.038356 450.725579 
L 148.076712 445.167053 
L 150.115068 443.10445 
L 152.153425 438.251285 
L 154.191781 432.635098 
L 156.230137 434.14355 
L 158.268493 435.247036 
L 160.306849 435.288895 
L 162.345205 431.509738 
L 164.383562 435.576539 
L 166.421918 433.015961 
L 170.49863 437.76695 
L 172.536986 438.371812 
L 174.575342 436.874674 
L 176.613699 438.060941 
L 178.652055 443.072273 
L 180.690411 444.107039 
L 182.728767 440.019003 
L 184.767123 445.920135 
L 186.805479 448.256736 
L 188.843836 454.4613 
L 190.882192 453.798411 
L 192.920548 449.44863 
L 194.958904 456.309528 
L 196.99726 452.265146 
L 199.035616 447.256475 
L 201.073973 447.881839 
L 203.112329 447.653299 
L 205.150685 450.979023 
L 207.189041 448.766642 
L 209.227397 452.108017 
L 211.265753 453.858983 
L 213.30411 457.470888 
L 215.342466 452.508826 
L 217.380822 447.899105 
L 219.419178 440.955558 
L 223.49589 429.825718 
L 225.534247 426.540126 
L 227.572603 422.759589 
L 229.610959 419.972758 
L 231.649315 411.395935 
L 233.687671 411.162443 
L 235.726027 417.966565 
L 237.764384 421.79983 
L 239.80274 418.211958 
L 241.841096 423.344507 
L 243.879452 415.480635 
L 245.917808 423.048713 
L 247.956164 422.17207 
L 249.994521 422.998076 
L 252.032877 421.740413 
L 254.071233 418.901671 
L 256.109589 417.364163 
L 258.147945 411.562211 
L 260.186301 412.067927 
L 262.224658 411.125366 
L 264.263014 423.89449 
L 266.30137 430.658436 
L 268.339726 440.246015 
L 270.378082 437.464121 
L 272.416438 436.359045 
L 274.454795 432.526675 
L 276.493151 435.634746 
L 278.531507 440.125342 
L 280.569863 434.046867 
L 282.608219 429.605752 
L 284.646575 432.911985 
L 286.684932 431.393324 
L 288.723288 429.399494 
L 290.761644 419.582471 
L 292.8 422.802113 
L 294.838356 425.30207 
L 296.876712 420.047074 
L 298.915068 422.982989 
L 300.953425 427.311456 
L 302.991781 426.446619 
L 305.030137 431.632844 
L 307.068493 430.72304 
L 309.106849 428.785161 
L 311.145205 426.653098 
L 313.183562 426.020045 
L 315.221918 429.285037 
L 317.260274 438.723084 
L 319.29863 437.329804 
L 321.336986 441.943804 
L 323.375342 445.694954 
L 325.413699 448.501691 
L 329.490411 439.660017 
L 331.528767 434.843146 
L 333.567123 439.786022 
L 335.605479 440.260775 
L 337.643836 447.332406 
L 339.682192 443.797653 
L 341.720548 441.247647 
L 343.758904 443.623499 
L 345.79726 436.665061 
L 347.835616 436.201982 
L 349.873973 437.353036 
L 351.912329 439.694424 
L 353.950685 439.707556 
L 355.989041 437.384923 
L 358.027397 438.001911 
L 360.065753 435.425175 
L 362.10411 435.13741 
L 364.142466 430.895269 
L 366.180822 433.595633 
L 368.219178 430.91238 
L 370.257534 428.7436 
L 372.29589 429.86294 
L 374.334247 428.042851 
L 376.372603 420.64301 
L 378.410959 414.748768 
L 380.449315 413.847922 
L 382.487671 410.628654 
L 384.526027 409.611504 
L 386.564384 410.995412 
L 388.60274 402.32699 
L 390.641096 402.973124 
L 392.679452 406.733016 
L 394.717808 401.073935 
L 396.756164 400.089207 
L 398.794521 397.717049 
L 400.832877 402.957431 
L 402.871233 389.634222 
L 404.909589 383.448356 
L 406.947945 383.886065 
L 408.986301 377.992837 
L 411.024658 365.108919 
L 413.063014 336.179396 
L 415.10137 342.772325 
L 417.139726 330.219431 
L 419.178082 324.048779 
L 421.216438 309.245302 
L 423.254795 317.128859 
L 425.293151 312.071024 
L 427.331507 313.576739 
L 429.369863 321.49315 
L 431.408219 318.665038 
L 433.446575 314.193007 
L 435.484932 311.118645 
L 437.523288 311.844772 
L 439.561644 291.976895 
L 441.6 285.708167 
L 443.638356 275.097992 
L 445.676712 266.634887 
L 449.753425 237.7921 
L 451.791781 236.565798 
L 453.830137 246.23866 
L 455.868493 241.041092 
L 457.906849 221.844946 
L 459.945205 227.965959 
L 461.983562 205.971857 
L 464.021918 202.199585 
L 466.060274 239.815664 
L 468.09863 262.436497 
L 470.136986 273.394391 
L 472.175342 260.559763 
L 474.213699 263.06199 
L 476.252055 281.325353 
L 478.290411 280.45786 
L 480.328767 262.511006 
L 482.367123 262.139797 
L 484.405479 311.537742 
L 486.443836 306.053854 
L 488.482192 302.934518 
L 490.520548 308.002539 
L 492.558904 309.87186 
L 494.59726 312.982452 
L 496.635616 298.427913 
L 500.712329 288.914607 
L 502.750685 282.023539 
L 504.789041 269.592024 
L 506.827397 276.126507 
L 508.865753 271.9117 
L 510.90411 275.951512 
L 512.942466 280.676933 
L 514.980822 278.12629 
L 517.019178 266.837478 
L 519.057534 270.435303 
L 521.09589 293.730181 
L 523.134247 296.290765 
L 525.172603 303.128 
L 527.210959 314.779746 
L 529.249315 307.62552 
L 531.287671 303.071113 
L 533.326027 310.141477 
L 535.364384 302.224494 
L 537.40274 304.108257 
L 539.441096 298.027418 
L 541.479452 293.938497 
L 543.517808 292.248936 
L 545.556164 293.599642 
L 547.594521 290.271529 
L 549.632877 296.522115 
L 551.671233 297.86314 
L 553.709589 301.733458 
L 555.747945 299.757322 
L 557.786301 300.777138 
L 559.824658 302.194332 
L 561.863014 295.774463 
L 563.90137 298.174262 
L 565.939726 295.646212 
L 567.978082 293.519464 
L 572.054795 283.092077 
L 574.093151 284.692927 
L 578.169863 286.079456 
L 580.208219 282.854693 
L 582.246575 275.336498 
L 584.284932 277.723301 
L 586.323288 277.633861 
L 588.361644 276.887011 
L 590.4 281.941513 
L 592.438356 279.872707 
L 594.476712 280.602067 
L 596.515068 277.581835 
L 598.553425 275.904893 
L 600.591781 275.565885 
L 602.630137 274.871462 
L 604.668493 271.707538 
L 606.706849 272.079108 
L 608.745205 266.514654 
L 610.783562 267.131603 
L 612.821918 269.072733 
L 614.860274 277.997005 
L 616.89863 279.570066 
L 618.936986 278.873583 
L 620.975342 277.003649 
L 623.013699 277.747731 
L 625.052055 276.092148 
L 627.090411 275.552689 
L 629.128767 272.821635 
L 631.167123 271.891802 
L 633.205479 268.751557 
L 635.243836 271.303759 
L 637.282192 271.623949 
L 639.320548 270.216242 
L 641.358904 267.779735 
L 643.39726 268.838564 
L 645.435616 265.331109 
L 647.473973 268.592844 
L 649.512329 270.802408 
L 651.550685 271.940111 
L 653.589041 276.927411 
L 655.627397 273.324302 
L 657.665753 272.714159 
L 659.70411 269.190687 
L 661.742466 264.126217 
L 663.780822 265.004008 
L 665.819178 258.232868 
L 667.857534 254.564941 
L 669.89589 254.317764 
L 671.934247 250.655142 
L 673.972603 249.009922 
L 676.010959 248.711753 
L 678.049315 249.110018 
L 680.087671 252.028171 
L 682.126027 247.891095 
L 684.164384 244.30645 
L 686.20274 242.553181 
L 688.241096 242.592647 
L 690.279452 241.568681 
L 692.317808 241.124672 
L 694.356164 241.002979 
L 696.394521 236.464273 
L 698.432877 236.339073 
L 700.471233 231.617233 
L 702.509589 233.736124 
L 704.547945 227.891517 
L 706.586301 228.229282 
L 708.624658 230.465371 
L 710.663014 235.619791 
L 712.70137 234.623767 
L 714.739726 235.718775 
L 716.778082 232.506142 
L 718.816438 233.687711 
L 720.854795 227.759231 
L 722.893151 223.46606 
L 724.931507 220.864155 
L 726.969863 215.881803 
L 729.008219 220.948568 
L 731.046575 240.432391 
L 733.084932 228.942417 
L 735.123288 230.507543 
L 737.161644 225.418784 
L 739.2 227.740587 
L 741.238356 234.564184 
L 743.276712 234.54487 
L 745.315068 231.918437 
L 747.353425 239.437106 
L 749.391781 234.481111 
L 751.430137 237.036527 
L 753.468493 232.221064 
L 757.545205 235.394821 
L 759.583562 236.420167 
L 761.621918 234.831201 
L 763.660274 237.428015 
L 765.69863 244.516907 
L 767.736986 248.289152 
L 769.775342 255.409848 
L 771.813699 247.589417 
L 773.852055 249.013797 
L 775.890411 242.43354 
L 777.928767 249.064685 
L 779.967123 246.71163 
L 782.005479 253.041365 
L 784.043836 250.536855 
L 786.082192 248.490007 
L 788.120548 252.387478 
L 790.158904 253.610771 
L 792.19726 249.702063 
L 794.235616 242.582404 
L 796.273973 255.571201 
L 798.312329 257.264183 
L 800.350685 254.906076 
L 802.389041 248.341179 
L 804.427397 253.756329 
L 806.465753 248.117514 
L 808.50411 253.675322 
L 810.542466 251.801123 
L 812.580822 250.941361 
L 814.619178 251.49872 
L 816.657534 258.494524 
L 818.69589 259.144147 
L 820.734247 255.713369 
L 822.772603 254.338836 
L 824.810959 247.787115 
L 826.849315 247.712768 
L 828.887671 240.591285 
L 830.926027 232.595533 
L 832.964384 217.829768 
L 835.00274 214.720312 
L 837.041096 217.631652 
L 839.079452 211.573272 
L 841.117808 216.474846 
L 843.156164 204.699773 
L 845.194521 199.938679 
L 847.232877 199.698588 
L 849.271233 202.538955 
L 851.309589 207.580864 
L 853.347945 215.249028 
L 855.386301 218.298544 
L 857.424658 220.553372 
L 859.463014 218.232663 
L 861.50137 218.685472 
L 863.539726 216.487763 
L 865.578082 206.550095 
L 867.616438 206.748112 
L 869.654795 202.586278 
L 871.693151 205.839597 
L 873.731507 205.503435 
L 875.769863 202.337544 
L 879.846575 212.042531 
L 881.884932 207.650546 
L 883.923288 202.068565 
L 885.961644 202.917411 
L 888 195.366186 
L 890.038356 194.58185 
L 892.076712 197.868971 
L 894.115068 201.440131 
L 896.153425 194.088134 
L 898.191781 197.685263 
L 902.268493 193.152932 
L 904.306849 196.250476 
L 906.345205 195.466218 
L 908.383562 196.342923 
L 910.421918 198.040923 
L 912.460274 194.96899 
L 914.49863 189.98789 
L 916.536986 190.658683 
L 918.575342 184.491315 
L 920.613699 179.783851 
L 922.652055 178.018277 
L 924.690411 181.160202 
L 926.728767 193.540193 
L 928.767123 185.252809 
L 930.805479 181.456687 
L 932.843836 179.892393 
L 934.882192 177.189603 
L 936.920548 180.743658 
L 938.958904 199.798246 
L 940.99726 195.371675 
L 943.035616 197.085491 
L 945.073973 189.737455 
L 947.112329 188.891735 
L 949.150685 187.230802 
L 951.189041 182.813673 
L 953.227397 180.680103 
L 955.265753 181.073431 
L 957.30411 184.885774 
L 959.342466 180.186516 
L 961.380822 178.372171 
L 963.419178 179.139824 
L 965.457534 174.173283 
L 967.49589 162.83341 
L 969.534247 140.309791 
L 971.572603 154.71449 
L 973.610959 143.936682 
L 975.649315 146.142954 
L 977.687671 141.225432 
L 979.726027 146.368452 
L 983.80274 141.588716 
L 985.841096 138.020043 
L 987.879452 148.32103 
L 989.917808 145.660962 
L 991.956164 148.517368 
L 996.032877 137.450727 
L 998.071233 140.09753 
L 1000.109589 140.524954 
L 1002.147945 131.500167 
L 1004.186301 133.327568 
L 1006.224658 130.867731 
L 1008.263014 128.856311 
L 1010.30137 124.481015 
L 1012.339726 131.894338 
L 1014.378082 126.844088 
L 1016.416438 124.179802 
L 1018.454795 113.638766 
L 1020.493151 105.208774 
L 1022.531507 101.408818 
L 1024.569863 96.944649 
L 1026.608219 105.506058 
L 1028.646575 99.684272 
L 1030.684932 97.949965 
L 1032.723288 104.517643 
L 1034.761644 117.050353 
L 1036.8 118.332286 
L 1036.8 118.332286 
" style="fill:none;stroke:#d62728;stroke-linecap:square;stroke-width:1.5;"/>
   </g>
   <g id="line2d_19">
    <path clip-path="url(#p356e412a8d)" d="M 144 442.575026 
L 146.038356 454.137773 
L 148.076712 447.266601 
L 150.115068 444.991121 
L 152.153425 439.128268 
L 154.191781 431.752746 
L 156.230137 434.17494 
L 158.268493 436.794496 
L 160.306849 437.618653 
L 162.345205 433.542045 
L 164.383562 439.95246 
L 166.421918 437.282142 
L 170.49863 444.198137 
L 172.536986 445.888714 
L 174.575342 443.970804 
L 176.613699 445.747774 
L 178.652055 452.360951 
L 180.690411 453.486791 
L 182.728767 447.33833 
L 184.767123 455.265327 
L 186.805479 457.479501 
L 188.843836 465.54129 
L 190.882192 464.768818 
L 192.920548 458.305387 
L 194.958904 467.358669 
L 196.99726 462.272078 
L 199.035616 455.862973 
L 201.073973 457.40829 
L 203.112329 456.958201 
L 205.150685 461.49118 
L 207.189041 458.615402 
L 209.227397 463.730418 
L 211.265753 466.119326 
L 213.30411 471.464372 
L 215.342466 464.685122 
L 217.380822 459.016466 
L 219.419178 449.813454 
L 221.457534 442.201195 
L 223.49589 435.367127 
L 227.572603 427.650711 
L 229.610959 423.950737 
L 231.649315 414.294168 
L 233.687671 414.714972 
L 235.726027 425.067152 
L 237.764384 430.179024 
L 239.80274 425.807702 
L 241.841096 433.185754 
L 243.879452 423.20167 
L 245.917808 433.505607 
L 247.956164 433.425856 
L 249.994521 435.249132 
L 252.032877 432.697929 
L 254.071233 429.555679 
L 256.109589 428.429325 
L 258.147945 421.105859 
L 260.186301 421.791994 
L 262.224658 420.924455 
L 264.263014 437.812767 
L 266.30137 445.509467 
L 268.339726 458.753013 
L 270.378082 455.086162 
L 272.416438 453.218786 
L 274.454795 447.707244 
L 276.493151 451.078615 
L 278.531507 456.818349 
L 280.569863 448.808622 
L 282.608219 442.710199 
L 284.646575 446.620541 
L 286.684932 444.713261 
L 288.723288 442.420001 
L 290.761644 429.83109 
L 292.8 434.182126 
L 294.838356 437.560577 
L 296.876712 430.851947 
L 298.915068 434.707024 
L 300.953425 440.040164 
L 302.991781 438.724934 
L 305.030137 445.623125 
L 307.068493 443.014547 
L 311.145205 436.256364 
L 313.183562 435.241758 
L 315.221918 439.415119 
L 317.260274 451.308231 
L 319.29863 449.267632 
L 321.336986 455.251867 
L 323.375342 459.656625 
L 325.413699 462.64058 
L 331.528767 447.442678 
L 333.567123 455.18624 
L 335.605479 456.634614 
L 337.643836 465.452172 
L 339.682192 461.11068 
L 341.720548 457.957052 
L 343.758904 460.877309 
L 345.79726 452.223364 
L 347.835616 452.38894 
L 349.873973 454.713189 
L 351.912329 458.106089 
L 353.950685 459.158805 
L 355.989041 457.354625 
L 358.027397 458.305079 
L 360.065753 455.518203 
L 362.10411 456.285432 
L 364.142466 451.676612 
L 366.180822 455.002845 
L 368.219178 452.333837 
L 370.257534 449.459721 
L 372.29589 451.195729 
L 374.334247 448.911113 
L 376.372603 439.61436 
L 378.410959 432.438745 
L 380.449315 431.758508 
L 382.487671 428.367968 
L 384.526027 427.53197 
L 386.564384 429.780062 
L 388.60274 419.10327 
L 390.641096 420.098075 
L 392.679452 425.256416 
L 394.717808 418.474412 
L 396.756164 417.562725 
L 398.794521 416.240298 
L 400.832877 423.68498 
L 402.871233 408.57415 
L 404.909589 402.263973 
L 406.947945 402.45573 
L 408.986301 394.829018 
L 411.024658 378.500597 
L 413.063014 340.016921 
L 415.10137 345.787966 
L 417.139726 329.837598 
L 419.178082 322.976702 
L 421.216438 304.953835 
L 423.254795 316.404884 
L 425.293151 310.540044 
L 427.331507 312.825777 
L 429.369863 323.420791 
L 431.408219 320.244288 
L 433.446575 315.539209 
L 435.484932 311.155775 
L 437.523288 312.175276 
L 439.561644 284.90695 
L 441.6 276.418839 
L 443.638356 261.365201 
L 445.676712 249.389147 
L 449.753425 210.369661 
L 451.791781 209.118359 
L 453.830137 223.554365 
L 455.868493 217.580601 
L 457.906849 190.148756 
L 459.945205 198.211961 
L 461.983562 166.36805 
L 464.021918 160.588368 
L 466.060274 214.805118 
L 468.09863 248.513669 
L 470.136986 264.297903 
L 472.175342 245.313336 
L 474.213699 249.2582 
L 476.252055 276.743005 
L 478.290411 276.355635 
L 480.328767 252.48772 
L 482.367123 252.124963 
L 484.405479 322.288075 
L 486.443836 315.19601 
L 488.482192 311.693245 
L 490.520548 319.390634 
L 492.558904 322.105636 
L 494.59726 326.819928 
L 496.635616 307.452405 
L 498.673973 301.195727 
L 500.712329 295.44997 
L 502.750685 286.204998 
L 504.789041 268.61065 
L 506.827397 277.474428 
L 508.865753 271.959373 
L 510.90411 277.614353 
L 512.942466 284.783506 
L 514.980822 280.938077 
L 517.019178 266.642117 
L 519.057534 272.246157 
L 521.09589 304.514969 
L 523.134247 308.949234 
L 525.172603 318.389656 
L 527.210959 334.327855 
L 529.249315 324.739878 
L 531.287671 319.2884 
L 533.326027 329.101979 
L 535.364384 318.841899 
L 537.40274 321.934386 
L 539.441096 314.011886 
L 541.479452 309.051394 
L 543.517808 306.635205 
L 545.556164 308.621403 
L 547.594521 303.228089 
L 549.632877 310.883137 
L 551.671233 312.280084 
L 553.709589 318.143169 
L 555.747945 315.879167 
L 557.786301 316.694276 
L 559.824658 318.339738 
L 561.863014 309.727597 
L 563.90137 313.424752 
L 567.978082 308.66027 
L 572.054795 295.620261 
L 574.093151 298.224335 
L 578.169863 300.821078 
L 580.208219 296.861066 
L 582.246575 287.058488 
L 584.284932 290.163721 
L 586.323288 290.184774 
L 588.361644 289.445385 
L 590.4 296.495442 
L 592.438356 293.813853 
L 594.476712 295.099783 
L 596.515068 291.263934 
L 598.553425 289.408205 
L 600.591781 288.801569 
L 602.630137 287.855313 
L 604.668493 283.529487 
L 606.706849 283.747211 
L 608.745205 276.284445 
L 610.783562 276.420154 
L 612.821918 278.946125 
L 614.860274 290.051147 
L 616.89863 292.517773 
L 618.936986 292.005805 
L 620.975342 289.433565 
L 623.013699 291.032701 
L 625.052055 288.623094 
L 627.090411 287.885311 
L 629.128767 284.293721 
L 631.167123 283.312655 
L 633.205479 279.306787 
L 635.243836 282.660023 
L 637.282192 282.805012 
L 639.320548 281.16723 
L 641.358904 277.969991 
L 643.39726 279.865191 
L 645.435616 275.34431 
L 647.473973 279.531249 
L 649.512329 281.82847 
L 651.550685 283.538346 
L 653.589041 289.496029 
L 655.627397 284.409587 
L 657.665753 283.57309 
L 659.70411 279.039007 
L 661.742466 272.219944 
L 663.780822 274.466668 
L 665.819178 266.338728 
L 667.857534 262.331627 
L 669.89589 262.287266 
L 671.934247 257.682767 
L 673.972603 255.562297 
L 676.010959 255.601071 
L 678.049315 256.317228 
L 680.087671 260.360029 
L 682.126027 254.780664 
L 684.164384 249.814507 
L 686.20274 247.233403 
L 688.241096 247.441617 
L 690.279452 246.633261 
L 692.317808 246.170071 
L 694.356164 246.154483 
L 696.394521 240.157142 
L 698.432877 239.983196 
L 700.471233 233.422924 
L 702.509589 236.061216 
L 704.547945 227.753535 
L 706.586301 227.913086 
L 708.624658 229.94148 
L 710.663014 237.130727 
L 712.70137 236.365538 
L 714.739726 237.894603 
L 716.778082 233.252082 
L 718.816438 235.058434 
L 720.854795 227.243028 
L 722.893151 221.394443 
L 724.931507 217.754459 
L 726.969863 211.099157 
L 729.008219 218.496278 
L 731.046575 246.345134 
L 733.084932 230.683889 
L 735.123288 233.504905 
L 737.161644 226.876132 
L 739.2 230.269378 
L 741.238356 240.251368 
L 743.276712 240.847192 
L 745.315068 238.129154 
L 747.353425 249.144765 
L 749.391781 242.891296 
L 751.430137 246.287826 
L 753.468493 239.659006 
L 755.506849 241.610605 
L 757.545205 243.879022 
L 759.583562 245.290482 
L 761.621918 243.100968 
L 763.660274 246.677408 
L 765.69863 256.589661 
L 767.736986 262.083224 
L 769.775342 272.573476 
L 771.813699 262.356575 
L 773.852055 264.725646 
L 775.890411 256.770339 
L 777.928767 266.939821 
L 779.967123 264.453438 
L 782.005479 272.777928 
L 784.043836 269.51396 
L 786.082192 267.015435 
L 788.120548 272.58177 
L 790.158904 274.237215 
L 792.19726 269.088025 
L 794.235616 259.874239 
L 796.273973 277.997165 
L 798.312329 280.563085 
L 800.350685 277.656559 
L 802.389041 269.109894 
L 804.427397 276.934224 
L 806.465753 270.041758 
L 808.50411 277.783913 
L 810.542466 275.539335 
L 812.580822 274.666881 
L 814.619178 275.554709 
L 816.657534 284.970153 
L 818.69589 286.119851 
L 820.734247 282.387089 
L 822.772603 281.087648 
L 824.810959 272.63506 
L 826.849315 272.668494 
L 828.887671 263.691841 
L 830.926027 253.507664 
L 832.964384 233.82928 
L 835.00274 229.471257 
L 837.041096 233.731653 
L 839.079452 225.467809 
L 841.117808 232.587566 
L 843.156164 216.815175 
L 845.194521 210.132535 
L 847.232877 209.803 
L 849.271233 213.849354 
L 851.309589 220.769604 
L 853.347945 232.197333 
L 855.386301 237.059731 
L 857.424658 240.268993 
L 859.463014 237.256401 
L 861.50137 238.153933 
L 863.539726 235.032409 
L 865.578082 221.983191 
L 867.616438 222.393369 
L 869.654795 217.20361 
L 871.693151 221.803638 
L 873.731507 221.490038 
L 875.769863 217.595967 
L 879.846575 231.706855 
L 881.884932 226.15399 
L 883.923288 218.690549 
L 885.961644 219.991812 
L 888 209.841649 
L 890.038356 209.061344 
L 892.076712 213.54334 
L 894.115068 218.557194 
L 896.153425 208.974342 
L 898.191781 213.873869 
L 900.230137 210.872588 
L 902.268493 207.551199 
L 904.306849 212.223384 
L 906.345205 211.588961 
L 908.383562 213.225154 
L 910.421918 215.838197 
L 912.460274 211.946734 
L 914.49863 205.458611 
L 916.536986 206.657629 
L 918.575342 198.6994 
L 920.613699 193.016071 
L 922.652055 190.889973 
L 924.690411 195.493897 
L 926.728767 213.192016 
L 928.767123 202.557749 
L 930.805479 197.85024 
L 932.843836 196.157523 
L 934.882192 193.043518 
L 936.920548 198.326841 
L 938.958904 223.884196 
L 940.99726 218.281067 
L 943.035616 221.054103 
L 945.073973 212.409075 
L 947.112329 211.54777 
L 949.150685 209.588906 
L 951.189041 203.919247 
L 953.227397 200.753652 
L 955.265753 201.144768 
L 957.30411 206.450674 
L 959.342466 199.373443 
L 961.380822 195.912878 
L 963.419178 197.525121 
L 965.457534 190.357098 
L 967.49589 175.34323 
L 969.534247 143.450635 
L 971.572603 163.039267 
L 973.610959 149.304966 
L 975.649315 152.622841 
L 977.687671 146.047844 
L 979.726027 153.511311 
L 981.764384 150.595688 
L 983.80274 147.175315 
L 985.841096 142.058559 
L 987.879452 156.402786 
L 989.917808 152.854895 
L 991.956164 156.988748 
L 996.032877 142.075856 
L 998.071233 146.207904 
L 1000.109589 147.262535 
L 1002.147945 135.052837 
L 1004.186301 137.125128 
L 1006.224658 132.633587 
L 1008.263014 130.151836 
L 1010.30137 124.70495 
L 1012.339726 135.242125 
L 1014.378082 128.490831 
L 1016.416438 125.398192 
L 1018.454795 111.278903 
L 1020.493151 100.24355 
L 1022.531507 95.389457 
L 1024.569863 89.28 
L 1026.608219 100.983505 
L 1028.646575 92.944466 
L 1030.684932 90.989739 
L 1032.723288 100.568231 
L 1034.761644 118.697787 
L 1036.8 120.827197 
L 1036.8 120.827197 
" style="fill:none;stroke:#9467bd;stroke-linecap:square;stroke-width:1.5;"/>
   </g>
   <g id="line2d_20">
    <path clip-path="url(#p356e412a8d)" d="M 144 442.575026 
L 146.038356 459.256066 
L 148.076712 450.414769 
L 150.115068 447.824545 
L 152.153425 440.46831 
L 154.191781 430.487316 
L 156.230137 434.28631 
L 158.268493 439.190467 
L 160.306849 441.193573 
L 162.345205 436.669316 
L 164.383562 446.546702 
L 166.421918 443.714724 
L 170.49863 453.833864 
L 172.536986 457.080278 
L 174.575342 454.559127 
L 176.613699 457.183887 
L 178.652055 466.094256 
L 180.690411 467.337563 
L 182.728767 458.289049 
L 184.767123 469.064379 
L 186.805479 471.102021 
L 188.843836 481.773743 
L 190.882192 480.841262 
L 192.920548 471.447385 
L 194.958904 483.535095 
L 196.99726 477.007731 
L 199.035616 468.649943 
L 201.073973 471.481921 
L 203.112329 470.722122 
L 205.150685 476.938659 
L 207.189041 473.139664 
L 209.227397 480.737653 
L 211.265753 484.018603 
L 213.30411 491.789274 
L 215.342466 482.602614 
L 217.380822 475.52267 
L 219.419178 463.296814 
L 221.457534 453.074065 
L 223.49589 444.40545 
L 225.534247 439.501294 
L 227.572603 435.771372 
L 229.610959 430.763606 
L 231.649315 419.57384 
L 233.687671 420.955293 
L 235.726027 436.496634 
L 237.764384 443.403897 
L 239.80274 437.912623 
L 241.841096 448.515272 
L 243.879452 435.495081 
L 245.917808 449.724043 
L 247.956164 450.760132 
L 249.994521 453.972009 
L 252.032877 449.620434 
L 254.071233 446.09773 
L 256.109589 445.545149 
L 258.147945 436.151271 
L 260.186301 437.083752 
L 262.224658 436.323953 
L 264.263014 458.945239 
L 266.30137 467.92468 
L 268.339726 486.263463 
L 270.378082 481.359307 
L 272.416438 478.492793 
L 274.454795 470.791195 
L 276.493151 474.48658 
L 278.531507 481.842815 
L 280.569863 471.309239 
L 282.608219 463.020524 
L 284.646575 467.717463 
L 286.684932 465.299921 
L 288.723288 462.606088 
L 290.761644 446.304948 
L 292.8 452.176121 
L 294.838356 456.734915 
L 296.876712 448.0663 
L 298.915068 453.177674 
L 300.953425 459.877719 
L 302.991781 457.943686 
L 305.030137 467.164882 
L 307.068493 462.226189 
L 309.106849 456.700378 
L 311.145205 451.796222 
L 313.183562 450.242087 
L 315.221918 455.664289 
L 317.260274 470.92934 
L 319.29863 467.993753 
L 321.336986 475.833496 
L 323.375342 481.117553 
L 325.413699 484.32943 
L 329.490411 472.379865 
L 331.528767 467.130345 
L 333.567123 478.630938 
L 335.605479 481.393843 
L 337.643836 492.48 
L 339.682192 487.092335 
L 341.720548 483.155195 
L 343.758904 486.781508 
L 345.79726 475.937105 
L 347.835616 476.938659 
L 349.873973 480.806726 
L 351.912329 485.572737 
L 353.950685 487.990279 
L 355.989041 486.885117 
L 358.027397 488.26657 
L 360.065753 485.227374 
L 362.10411 487.368625 
L 364.142466 482.326324 
L 366.180822 486.436145 
L 368.219178 483.811385 
L 370.257534 480.046927 
L 372.29589 482.568078 
L 374.334247 479.701564 
L 376.372603 468.028289 
L 378.410959 459.256066 
L 380.449315 458.876166 
L 382.487671 455.284389 
L 384.526027 454.697272 
L 386.564384 458.081831 
L 388.60274 444.819886 
L 390.641096 446.270411 
L 392.679452 453.246747 
L 394.717808 445.027104 
L 396.756164 444.232769 
L 398.794521 444.336378 
L 400.832877 454.697272 
L 402.871233 437.29097 
L 404.909589 430.867215 
L 406.947945 430.72907 
L 408.986301 420.851684 
L 411.024658 400.060823 
L 413.063014 348.601714 
L 415.10137 353.195044 
L 417.139726 332.645937 
L 419.178082 324.875266 
L 421.216438 302.530271 
L 423.254795 319.314919 
L 425.293151 312.269511 
L 427.331507 315.723143 
L 429.369863 330.36654 
L 431.408219 326.705691 
L 433.446575 321.697925 
L 435.484932 315.481388 
L 437.523288 316.931914 
L 439.561644 278.803823 
L 441.6 267.061476 
L 443.638356 245.476279 
L 445.676712 228.069977 
L 447.715068 199.715662 
L 449.753425 173.364455 
L 451.791781 172.086611 
L 453.830137 194.327997 
L 455.868493 187.144444 
L 457.906849 146.357057 
L 459.945205 157.546823 
L 461.983562 109.575882 
L 464.021918 100.458295 
L 466.060274 182.171215 
L 468.09863 234.286513 
L 470.136986 257.322235 
L 472.175342 228.829776 
L 474.213699 235.011776 
L 476.252055 276.76618 
L 478.290411 277.146079 
L 480.328767 244.647408 
L 482.367123 244.302044 
L 484.405479 344.906328 
L 486.443836 335.477915 
L 488.482192 331.540775 
L 490.520548 342.83415 
L 492.558904 346.702217 
L 494.59726 353.60948 
L 496.635616 327.776316 
L 498.673973 319.556674 
L 500.712329 312.476729 
L 502.750685 299.974583 
L 504.789041 275.281118 
L 506.827397 287.334292 
L 508.865753 280.04713 
L 510.90411 287.852337 
L 512.942466 298.454985 
L 514.980822 292.79103 
L 517.019178 274.348638 
L 519.057534 282.775499 
L 521.09589 327.500026 
L 523.134247 334.545434 
L 525.172603 347.565625 
L 527.210959 369.392575 
L 529.249315 356.614139 
L 531.287671 350.052239 
L 533.326027 363.383257 
L 535.364384 350.155848 
L 537.40274 354.818251 
L 539.441096 344.560965 
L 541.479452 338.51711 
L 543.517808 335.167088 
L 545.556164 337.999066 
L 547.594521 329.848495 
L 549.632877 339.311445 
L 551.671233 340.761971 
L 553.709589 349.29244 
L 555.747945 346.66768 
L 557.786301 347.185725 
L 559.824658 349.119759 
L 561.863014 337.619166 
L 563.90137 343.041367 
L 565.939726 340.761971 
L 567.978082 338.206283 
L 572.054795 321.801534 
L 574.093151 325.738674 
L 576.131507 327.707244 
L 578.169863 329.952104 
L 580.208219 325.047948 
L 582.246575 312.269511 
L 584.284932 316.31026 
L 586.323288 316.482942 
L 588.361644 315.757679 
L 590.4 325.462383 
L 592.438356 321.974216 
L 594.476712 324.011858 
L 596.515068 319.107702 
L 598.553425 317.035523 
L 600.591781 316.068506 
L 602.630137 314.790662 
L 604.668493 308.919489 
L 606.706849 308.919489 
L 608.745205 298.938494 
L 610.783562 298.420449 
L 612.821918 301.735935 
L 614.860274 315.757679 
L 616.89863 319.453065 
L 618.936986 319.21131 
L 620.975342 315.688606 
L 623.013699 318.451512 
L 625.052055 315.032416 
L 627.090411 314.030863 
L 629.128767 309.299388 
L 631.167123 308.263299 
L 633.205479 303.117388 
L 635.243836 307.538036 
L 637.282192 307.434427 
L 639.320548 305.500394 
L 641.358904 301.286963 
L 643.39726 304.326159 
L 645.435616 298.454985 
L 647.473973 303.877187 
L 651.550685 308.746807 
L 653.589041 315.964897 
L 655.627397 308.884952 
L 657.665753 307.745254 
L 659.70411 301.874081 
L 661.742466 292.687421 
L 663.780822 296.831779 
L 665.819178 286.919856 
L 667.857534 282.499208 
L 669.89589 282.740962 
L 671.934247 276.869789 
L 673.972603 274.106884 
L 676.010959 274.624929 
L 678.049315 275.799163 
L 680.087671 281.394046 
L 682.126027 273.830593 
L 684.164384 266.957867 
L 686.20274 263.227945 
L 688.241096 263.676917 
L 692.317808 262.7099 
L 694.356164 262.848045 
L 696.394521 254.83562 
L 698.432877 254.593866 
L 700.471233 245.476279 
L 702.509589 248.826302 
L 704.547945 237.049418 
L 706.586301 236.945809 
L 708.624658 238.638089 
L 710.663014 248.688156 
L 712.70137 248.273721 
L 714.739726 250.414972 
L 716.778082 243.749463 
L 718.816438 246.443296 
L 720.854795 235.978793 
L 722.893151 227.931831 
L 724.931507 222.820457 
L 726.969863 213.806479 
L 729.008219 224.512736 
L 731.046575 264.367643 
L 733.084932 242.74791 
L 735.123288 247.375776 
L 737.161644 238.603553 
L 739.2 243.507709 
L 741.238356 257.943889 
L 743.276712 259.42895 
L 745.315068 256.631509 
L 747.353425 272.483677 
L 749.391781 264.471252 
L 751.430137 269.030046 
L 753.468493 259.946995 
L 755.506849 262.468146 
L 757.545205 265.576414 
L 759.583562 267.510448 
L 761.621918 264.505788 
L 763.660274 269.409945 
L 765.69863 283.155398 
L 767.736986 290.995142 
L 769.775342 306.018438 
L 771.813699 292.687421 
L 773.852055 296.313734 
L 775.890411 286.60903 
L 777.928767 301.459645 
L 779.967123 298.834885 
L 782.005479 309.74836 
L 784.043836 305.500394 
L 786.082192 302.426662 
L 788.120548 310.162796 
L 790.158904 312.37312 
L 792.19726 305.638539 
L 794.235616 293.758047 
L 796.273973 318.486048 
L 798.312329 322.181433 
L 800.350685 318.589657 
L 802.389041 307.572572 
L 804.427397 318.451512 
L 806.465753 310.024651 
L 808.50411 320.52369 
L 810.542466 317.829858 
L 812.580822 316.96645 
L 814.619178 318.27883 
L 816.657534 330.746439 
L 818.69589 332.542328 
L 820.734247 328.536115 
L 822.772603 327.361881 
L 824.810959 316.621087 
L 826.849315 316.793768 
L 828.887671 305.569466 
L 830.926027 292.687421 
L 832.964384 266.888794 
L 835.00274 260.914012 
L 837.041096 266.957867 
L 839.079452 255.802637 
L 841.117808 265.852705 
L 843.156164 244.854625 
L 845.194521 235.598893 
L 847.232877 235.149921 
L 849.271233 240.813877 
L 851.309589 250.242291 
L 853.347945 266.750649 
L 855.386301 274.003275 
L 857.424658 278.458459 
L 859.463014 274.555856 
L 861.50137 276.040917 
L 863.539726 271.723878 
L 865.578082 254.697475 
L 867.616438 255.388201 
L 869.654795 248.929911 
L 871.693151 255.319129 
L 873.731507 255.042838 
L 875.769863 250.207754 
L 879.846575 270.135208 
L 881.884932 263.089799 
L 883.923288 253.177877 
L 885.961644 255.077375 
L 888 241.539139 
L 890.038356 240.77934 
L 892.076712 246.823195 
L 894.115068 253.730458 
L 896.153425 241.262849 
L 898.191781 247.859285 
L 900.230137 243.818536 
L 902.268493 239.19067 
L 904.306849 245.959788 
L 906.345205 245.545352 
L 908.383562 248.204648 
L 910.421918 252.038179 
L 912.460274 247.099486 
L 914.49863 238.672625 
L 916.536986 240.572122 
L 918.575342 230.314837 
L 920.613699 223.407574 
L 922.652055 220.817351 
L 924.690411 227.37925 
L 926.728767 252.314469 
L 928.767123 238.741698 
L 930.805479 232.905061 
L 932.843836 231.074636 
L 934.882192 227.448323 
L 936.920548 235.011776 
L 938.958904 269.030046 
L 940.99726 261.915565 
L 943.035616 266.094459 
L 945.073973 255.906246 
L 947.112329 255.042838 
L 949.150685 252.728905 
L 951.189041 245.510815 
L 953.227397 241.021095 
L 955.265753 241.400994 
L 957.30411 248.619084 
L 959.342466 238.465407 
L 961.380822 232.835988 
L 963.419178 235.564357 
L 965.457534 225.548826 
L 967.49589 205.794054 
L 969.534247 161.483962 
L 971.572603 187.904243 
L 973.610959 170.325259 
L 975.649315 175.125807 
L 977.687671 166.388119 
L 979.726027 177.05984 
L 981.764384 173.5026 
L 983.80274 168.598443 
L 985.841096 161.345817 
L 987.879452 181.273271 
L 989.917808 176.507259 
L 991.956164 182.412969 
L 996.032877 162.243761 
L 998.071233 168.425762 
L 1000.109589 170.359795 
L 1002.147945 153.816901 
L 1004.186301 156.199906 
L 1006.224658 148.878208 
L 1008.263014 145.769939 
L 1010.30137 138.897213 
L 1012.339726 153.816901 
L 1014.378082 144.699314 
L 1016.416438 141.038464 
L 1018.454795 121.939882 
L 1020.493151 107.261949 
L 1022.531507 100.941803 
L 1024.569863 92.514942 
L 1026.608219 108.643401 
L 1028.646575 97.453635 
L 1030.684932 95.208775 
L 1032.723288 109.092373 
L 1034.761644 135.201827 
L 1036.8 138.55185 
L 1036.8 138.55185 
" style="fill:none;stroke:#8c564b;stroke-linecap:square;stroke-width:1.5;"/>
   </g>
   <g id="patch_3">
    <path d="M 144 512.64 
L 144 69.12 
" style="fill:none;stroke:#000000;stroke-linecap:square;stroke-linejoin:miter;stroke-width:0.8;"/>
   </g>
   <g id="patch_4">
    <path d="M 1036.8 512.64 
L 1036.8 69.12 
" style="fill:none;stroke:#000000;stroke-linecap:square;stroke-linejoin:miter;stroke-width:0.8;"/>
   </g>
   <g id="patch_5">
    <path d="M 144 512.64 
L 1036.8 512.64 
" style="fill:none;stroke:#000000;stroke-linecap:square;stroke-linejoin:miter;stroke-width:0.8;"/>
   </g>
   <g id="patch_6">
    <path d="M 144 69.12 
L 1036.8 69.12 
" style="fill:none;stroke:#000000;stroke-linecap:square;stroke-linejoin:miter;stroke-width:0.8;"/>
   </g>
   <g id="legend_1">
    <g id="patch_7">
     <path d="M 151 169.998125 
L 230.345313 169.998125 
Q 232.345313 169.998125 232.345313 167.998125 
L 232.345313 76.12 
Q 232.345313 74.12 230.345313 74.12 
L 151 74.12 
Q 149 74.12 149 76.12 
L 149 167.998125 
Q 149 169.998125 151 169.998125 
z
" style="fill:#ffffff;opacity:0.8;stroke:#cccccc;stroke-linejoin:miter;"/>
    </g>
    <g id="line2d_21">
     <path d="M 153 82.61375 
L 173 82.61375 
" style="fill:none;stroke:#1f77b4;stroke-linecap:square;stroke-width:1.5;"/>
    </g>
    <g id="line2d_22"/>
    <g id="text_16">
     <!-- value -->
     <defs>
      <path d="M 52.046875 54 
L 30.671875 0 
L 21 0 
L 0.6875 54 
L 11.140625 54 
L 24.3125 15.4375 
Q 25.921875 10.796875 26.21875 7.671875 
L 26.46875 7.671875 
Q 26.953125 11.765625 28.171875 15.234375 
L 42 54 
z
" id="MicrosoftYaHei-76"/>
      <path d="M 8.5 0 
L 8.5 79.9375 
L 18.0625 79.9375 
L 18.0625 0 
z
" id="MicrosoftYaHei-6c"/>
      <path d="M 53.125 0 
L 43.5 0 
L 43.5 8.5 
L 43.3125 8.5 
Q 37.890625 -1.265625 26.65625 -1.265625 
Q 7.46875 -1.265625 7.46875 21.6875 
L 7.46875 54 
L 16.9375 54 
L 16.9375 23.09375 
Q 16.9375 6.640625 29.546875 6.640625 
Q 35.796875 6.640625 39.640625 11.25 
Q 43.5 15.875 43.5 22.90625 
L 43.5 54 
L 53.125 54 
z
" id="MicrosoftYaHei-75"/>
     </defs>
     <g transform="translate(181 86.11375)scale(0.1 -0.1)">
      <use xlink:href="#MicrosoftYaHei-76"/>
      <use x="52.458984" xlink:href="#MicrosoftYaHei-61"/>
      <use x="107.732422" xlink:href="#MicrosoftYaHei-6c"/>
      <use x="134.34375" xlink:href="#MicrosoftYaHei-75"/>
      <use x="195.964844" xlink:href="#MicrosoftYaHei-65"/>
     </g>
    </g>
    <g id="line2d_23">
     <path d="M 153 98.093438 
L 173 98.093438 
" style="fill:none;stroke:#ff7f0e;stroke-linecap:square;stroke-width:1.5;"/>
    </g>
    <g id="line2d_24"/>
    <g id="text_17">
     <!-- value_15 -->
     <defs>
      <path d="M 44.828125 -15.671875 
L 0 -15.671875 
L 0 -9.375 
L 44.828125 -9.375 
z
" id="MicrosoftYaHei-5f"/>
     </defs>
     <g transform="translate(181 101.593438)scale(0.1 -0.1)">
      <use xlink:href="#MicrosoftYaHei-76"/>
      <use x="52.458984" xlink:href="#MicrosoftYaHei-61"/>
      <use x="107.732422" xlink:href="#MicrosoftYaHei-6c"/>
      <use x="134.34375" xlink:href="#MicrosoftYaHei-75"/>
      <use x="195.964844" xlink:href="#MicrosoftYaHei-65"/>
      <use x="252.703125" xlink:href="#MicrosoftYaHei-5f"/>
      <use x="297.527344" xlink:href="#MicrosoftYaHei-31"/>
      <use x="356.169922" xlink:href="#MicrosoftYaHei-35"/>
     </g>
    </g>
    <g id="line2d_25">
     <path d="M 153 113.573125 
L 173 113.573125 
" style="fill:none;stroke:#2ca02c;stroke-linecap:square;stroke-width:1.5;"/>
    </g>
    <g id="line2d_26"/>
    <g id="text_18">
     <!-- value_30 -->
     <g transform="translate(181 117.073125)scale(0.1 -0.1)">
      <use xlink:href="#MicrosoftYaHei-76"/>
      <use x="52.458984" xlink:href="#MicrosoftYaHei-61"/>
      <use x="107.732422" xlink:href="#MicrosoftYaHei-6c"/>
      <use x="134.34375" xlink:href="#MicrosoftYaHei-75"/>
      <use x="195.964844" xlink:href="#MicrosoftYaHei-65"/>
      <use x="252.703125" xlink:href="#MicrosoftYaHei-5f"/>
      <use x="297.527344" xlink:href="#MicrosoftYaHei-33"/>
      <use x="356.169922" xlink:href="#MicrosoftYaHei-30"/>
     </g>
    </g>
    <g id="line2d_27">
     <path d="M 153 129.052813 
L 173 129.052813 
" style="fill:none;stroke:#d62728;stroke-linecap:square;stroke-width:1.5;"/>
    </g>
    <g id="line2d_28"/>
    <g id="text_19">
     <!-- value_50 -->
     <g transform="translate(181 132.552813)scale(0.1 -0.1)">
      <use xlink:href="#MicrosoftYaHei-76"/>
      <use x="52.458984" xlink:href="#MicrosoftYaHei-61"/>
      <use x="107.732422" xlink:href="#MicrosoftYaHei-6c"/>
      <use x="134.34375" xlink:href="#MicrosoftYaHei-75"/>
      <use x="195.964844" xlink:href="#MicrosoftYaHei-65"/>
      <use x="252.703125" xlink:href="#MicrosoftYaHei-5f"/>
      <use x="297.527344" xlink:href="#MicrosoftYaHei-35"/>
      <use x="356.169922" xlink:href="#MicrosoftYaHei-30"/>
     </g>
    </g>
    <g id="line2d_29">
     <path d="M 153 144.5325 
L 173 144.5325 
" style="fill:none;stroke:#9467bd;stroke-linecap:square;stroke-width:1.5;"/>
    </g>
    <g id="line2d_30"/>
    <g id="text_20">
     <!-- value_70 -->
     <g transform="translate(181 148.0325)scale(0.1 -0.1)">
      <use xlink:href="#MicrosoftYaHei-76"/>
      <use x="52.458984" xlink:href="#MicrosoftYaHei-61"/>
      <use x="107.732422" xlink:href="#MicrosoftYaHei-6c"/>
      <use x="134.34375" xlink:href="#MicrosoftYaHei-75"/>
      <use x="195.964844" xlink:href="#MicrosoftYaHei-65"/>
      <use x="252.703125" xlink:href="#MicrosoftYaHei-5f"/>
      <use x="297.527344" xlink:href="#MicrosoftYaHei-37"/>
      <use x="356.169922" xlink:href="#MicrosoftYaHei-30"/>
     </g>
    </g>
    <g id="line2d_31">
     <path d="M 153 160.012188 
L 173 160.012188 
" style="fill:none;stroke:#8c564b;stroke-linecap:square;stroke-width:1.5;"/>
    </g>
    <g id="line2d_32"/>
    <g id="text_21">
     <!-- value_100 -->
     <g transform="translate(181 163.512188)scale(0.1 -0.1)">
      <use xlink:href="#MicrosoftYaHei-76"/>
      <use x="52.458984" xlink:href="#MicrosoftYaHei-61"/>
      <use x="107.732422" xlink:href="#MicrosoftYaHei-6c"/>
      <use x="134.34375" xlink:href="#MicrosoftYaHei-75"/>
      <use x="195.964844" xlink:href="#MicrosoftYaHei-65"/>
      <use x="252.703125" xlink:href="#MicrosoftYaHei-5f"/>
      <use x="297.527344" xlink:href="#MicrosoftYaHei-31"/>
      <use x="356.169922" xlink:href="#MicrosoftYaHei-30"/>
      <use x="414.8125" xlink:href="#MicrosoftYaHei-30"/>
     </g>
    </g>
   </g>
  </g>
 </g>
 <defs>
  <clipPath id="p356e412a8d">
   <rect height="443.52" width="892.8" x="144" y="69.12"/>
  </clipPath>
 </defs>
</svg>
