<?xml version="1.0" encoding="utf-8" standalone="no"?>
<!DOCTYPE svg PUBLIC "-//W3C//DTD SVG 1.1//EN"
  "http://www.w3.org/Graphics/SVG/1.1/DTD/svg11.dtd">
<!-- Created with matplotlib (http://matplotlib.org/) -->
<svg height="432pt" version="1.1" viewBox="0 0 864 432" width="864pt" xmlns="http://www.w3.org/2000/svg" xmlns:xlink="http://www.w3.org/1999/xlink">
 <defs>
  <style type="text/css">
*{stroke-linecap:butt;stroke-linejoin:round;}
  </style>
 </defs>
 <g id="figure_1">
  <g id="patch_1">
   <path d="M 0 432 
L 864 432 
L 864 0 
L 0 0 
z
" style="fill:#ffffff;"/>
  </g>
  <g id="axes_1">
   <g id="patch_2">
    <path d="M 108 384.48 
L 777.6 384.48 
L 777.6 51.84 
L 108 51.84 
z
" style="fill:#ffffff;"/>
   </g>
   <g id="matplotlib.axis_1">
    <g id="xtick_1">
     <g id="line2d_1">
      <defs>
       <path d="M 0 0 
L 0 3.5 
" id="m4e2de1ff3d" style="stroke:#000000;stroke-width:0.8;"/>
      </defs>
      <g>
       <use style="stroke:#000000;stroke-width:0.8;" x="108" xlink:href="#m4e2de1ff3d" y="384.48"/>
      </g>
     </g>
     <g id="text_1">
      <!-- 2012-08-16 -->
      <defs>
       <path d="M 51.171875 0 
L 5.171875 0 
L 5.171875 8.296875 
L 27.15625 30.21875 
Q 36.234375 39.3125 39.3125 44.609375 
Q 42.390625 49.90625 42.390625 55.5625 
Q 42.390625 62.015625 38.765625 65.453125 
Q 35.15625 68.890625 28.328125 68.890625 
Q 18.21875 68.890625 9.03125 60.296875 
L 9.03125 70.015625 
Q 17.96875 76.90625 29.828125 76.90625 
Q 40.046875 76.90625 45.953125 71.390625 
Q 51.859375 65.875 51.859375 56.546875 
Q 51.859375 49.515625 48.0625 42.75 
Q 44.28125 35.984375 33.734375 25.53125 
L 16.5 8.6875 
L 16.5 8.5 
L 51.171875 8.5 
z
" id="MicrosoftYaHei-32"/>
       <path d="M 4.4375 36.328125 
Q 4.4375 56.34375 11.078125 66.625 
Q 17.71875 76.90625 30.328125 76.90625 
Q 54.34375 76.90625 54.34375 38.140625 
Q 54.34375 19 47.578125 8.859375 
Q 40.828125 -1.265625 28.609375 -1.265625 
Q 17.09375 -1.265625 10.765625 8.34375 
Q 4.4375 17.96875 4.4375 36.328125 
z
M 14.203125 36.765625 
Q 14.203125 6.640625 29.5 6.640625 
Q 44.53125 6.640625 44.53125 37.25 
Q 44.53125 68.953125 29.78125 68.953125 
Q 14.203125 68.953125 14.203125 36.765625 
z
" id="MicrosoftYaHei-30"/>
       <path d="M 52.59375 0 
L 9.234375 0 
L 9.234375 8.25 
L 26.171875 8.25 
L 26.171875 65.671875 
L 8.796875 60.640625 
L 8.796875 69.4375 
L 35.6875 77.25 
L 35.6875 8.25 
L 52.59375 8.25 
z
" id="MicrosoftYaHei-31"/>
       <path d="M 36.375 26.265625 
L 7.625 26.265625 
L 7.625 33.640625 
L 36.375 33.640625 
z
" id="MicrosoftYaHei-2d"/>
       <path d="M 21.390625 39.796875 
Q 7.859375 46.09375 7.859375 58.0625 
Q 7.859375 66.40625 14.203125 71.65625 
Q 20.5625 76.90625 30.421875 76.90625 
Q 39.453125 76.90625 45.3125 71.96875 
Q 51.171875 67.046875 51.171875 59.234375 
Q 51.171875 46.625 37.0625 39.84375 
L 37.0625 39.65625 
Q 53.609375 33.6875 53.609375 19.34375 
Q 53.609375 9.90625 46.796875 4.3125 
Q 39.984375 -1.265625 27.78125 -1.265625 
Q 17.78125 -1.265625 11.46875 4.25 
Q 5.171875 9.765625 5.171875 18.5625 
Q 5.171875 33.015625 21.390625 39.59375 
z
M 41.5 58.109375 
Q 41.5 63.1875 38.328125 66.109375 
Q 35.15625 69.046875 29.734375 69.046875 
Q 24.65625 69.046875 21.09375 65.984375 
Q 17.53125 62.9375 17.53125 58.203125 
Q 17.53125 48.734375 29.390625 43.796875 
Q 41.5 48.828125 41.5 58.109375 
z
M 28.8125 35.25 
Q 14.796875 29.59375 14.796875 19.046875 
Q 14.796875 13.578125 18.890625 10.0625 
Q 23 6.546875 29.59375 6.546875 
Q 35.984375 6.546875 39.984375 10.03125 
Q 44 13.53125 44 18.75 
Q 44 29.734375 28.8125 35.25 
z
" id="MicrosoftYaHei-38"/>
       <path d="M 49.703125 65.921875 
Q 43.796875 68.953125 37.359375 68.953125 
Q 27.546875 68.953125 21.578125 60.40625 
Q 15.625 51.859375 15.53125 37.0625 
L 15.765625 37.0625 
Q 21.140625 47.46875 32.90625 47.46875 
Q 42.71875 47.46875 48.578125 41.0625 
Q 54.4375 34.671875 54.4375 24.078125 
Q 54.4375 12.984375 47.671875 5.859375 
Q 40.921875 -1.265625 30.421875 -1.265625 
Q 18.890625 -1.265625 12.328125 7.734375 
Q 5.765625 16.75 5.765625 33.296875 
Q 5.765625 53.328125 14.375 65.109375 
Q 23 76.90625 37.0625 76.90625 
Q 45.125 76.90625 49.703125 74.703125 
z
M 16.109375 24.75 
Q 16.109375 17.28125 20.09375 11.953125 
Q 24.078125 6.640625 30.671875 6.640625 
Q 36.921875 6.640625 40.828125 11.234375 
Q 44.734375 15.828125 44.734375 23.046875 
Q 44.734375 30.859375 41.046875 35.203125 
Q 37.359375 39.546875 30.5625 39.546875 
Q 24.125 39.546875 20.109375 35.15625 
Q 16.109375 30.765625 16.109375 24.75 
z
" id="MicrosoftYaHei-36"/>
      </defs>
      <g transform="translate(80.217187 399.47375)scale(0.1 -0.1)">
       <use xlink:href="#MicrosoftYaHei-32"/>
       <use x="58.642578" xlink:href="#MicrosoftYaHei-30"/>
       <use x="117.285156" xlink:href="#MicrosoftYaHei-31"/>
       <use x="175.927734" xlink:href="#MicrosoftYaHei-32"/>
       <use x="234.570312" xlink:href="#MicrosoftYaHei-2d"/>
       <use x="277.832031" xlink:href="#MicrosoftYaHei-30"/>
       <use x="336.474609" xlink:href="#MicrosoftYaHei-38"/>
       <use x="395.117188" xlink:href="#MicrosoftYaHei-2d"/>
       <use x="438.378906" xlink:href="#MicrosoftYaHei-31"/>
       <use x="497.021484" xlink:href="#MicrosoftYaHei-36"/>
      </g>
     </g>
    </g>
    <g id="xtick_2">
     <g id="line2d_2">
      <g>
       <use style="stroke:#000000;stroke-width:0.8;" x="188.095694" xlink:href="#m4e2de1ff3d" y="384.48"/>
      </g>
     </g>
     <g id="text_2">
      <!-- 2013-08-28 -->
      <defs>
       <path d="M 6.984375 12.640625 
Q 14.75 6.640625 24.515625 6.640625 
Q 32.328125 6.640625 36.890625 10.46875 
Q 41.453125 14.3125 41.453125 20.75 
Q 41.453125 35.109375 20.90625 35.109375 
L 14.59375 35.109375 
L 14.59375 43.015625 
L 20.609375 43.015625 
Q 38.8125 43.015625 38.8125 56.5 
Q 38.8125 68.953125 24.90625 68.953125 
Q 16.9375 68.953125 9.90625 63.578125 
L 9.90625 72.609375 
Q 17.328125 76.90625 27.25 76.90625 
Q 36.921875 76.90625 42.78125 71.84375 
Q 48.640625 66.796875 48.640625 58.734375 
Q 48.640625 43.890625 33.5 39.65625 
L 33.5 39.453125 
Q 41.703125 38.578125 46.453125 33.671875 
Q 51.21875 28.765625 51.21875 21.4375 
Q 51.21875 11.234375 43.875 4.984375 
Q 36.53125 -1.265625 24.3125 -1.265625 
Q 13.578125 -1.265625 6.984375 2.734375 
z
" id="MicrosoftYaHei-33"/>
      </defs>
      <g transform="translate(160.312881 399.47375)scale(0.1 -0.1)">
       <use xlink:href="#MicrosoftYaHei-32"/>
       <use x="58.642578" xlink:href="#MicrosoftYaHei-30"/>
       <use x="117.285156" xlink:href="#MicrosoftYaHei-31"/>
       <use x="175.927734" xlink:href="#MicrosoftYaHei-33"/>
       <use x="234.570312" xlink:href="#MicrosoftYaHei-2d"/>
       <use x="277.832031" xlink:href="#MicrosoftYaHei-30"/>
       <use x="336.474609" xlink:href="#MicrosoftYaHei-38"/>
       <use x="395.117188" xlink:href="#MicrosoftYaHei-2d"/>
       <use x="438.378906" xlink:href="#MicrosoftYaHei-32"/>
       <use x="497.021484" xlink:href="#MicrosoftYaHei-38"/>
      </g>
     </g>
    </g>
    <g id="xtick_3">
     <g id="line2d_3">
      <g>
       <use style="stroke:#000000;stroke-width:0.8;" x="268.191388" xlink:href="#m4e2de1ff3d" y="384.48"/>
      </g>
     </g>
     <g id="text_3">
      <!-- 2014-09-05 -->
      <defs>
       <path d="M 55.078125 19.625 
L 45.40625 19.625 
L 45.40625 0 
L 36.140625 0 
L 36.140625 19.625 
L 0.875 19.625 
L 0.875 25.828125 
L 34.328125 75.640625 
L 45.40625 75.640625 
L 45.40625 27.203125 
L 55.078125 27.203125 
z
M 36.140625 27.203125 
L 36.140625 58.890625 
Q 36.140625 62.25 36.328125 66.65625 
L 36.140625 66.65625 
Q 35.453125 64.796875 33.25 60.84375 
L 10.75 27.203125 
z
" id="MicrosoftYaHei-34"/>
       <path d="M 9.03125 10.25 
Q 15.28125 6.640625 22.515625 6.640625 
Q 32.671875 6.640625 38.25 14.640625 
Q 43.84375 22.65625 43.84375 37.40625 
Q 43.75 37.3125 43.65625 37.40625 
Q 38.671875 27.9375 26.90625 27.9375 
Q 17.390625 27.9375 11.140625 34.46875 
Q 4.890625 41.015625 4.890625 51.46875 
Q 4.890625 62.59375 11.71875 69.75 
Q 18.5625 76.90625 29.4375 76.90625 
Q 40.71875 76.90625 47.0625 68.046875 
Q 53.421875 59.1875 53.421875 42.234375 
Q 53.421875 21.296875 45.21875 10.015625 
Q 37.015625 -1.265625 22.515625 -1.265625 
Q 14.546875 -1.265625 9.03125 1.3125 
z
M 14.546875 52.6875 
Q 14.546875 45.0625 18.453125 40.59375 
Q 22.359375 36.140625 29.25 36.140625 
Q 35.203125 36.140625 39.25 40.203125 
Q 43.3125 44.28125 43.3125 50.09375 
Q 43.3125 58.25 39.28125 63.59375 
Q 35.25 68.953125 28.65625 68.953125 
Q 22.5625 68.953125 18.546875 64.3125 
Q 14.546875 59.671875 14.546875 52.6875 
z
" id="MicrosoftYaHei-39"/>
       <path d="M 8.640625 11.625 
Q 16.265625 6.640625 24.515625 6.640625 
Q 32.328125 6.640625 37.109375 11 
Q 41.890625 15.375 41.890625 22.609375 
Q 41.890625 29.890625 37.03125 33.890625 
Q 32.171875 37.890625 22.953125 37.890625 
Q 18.5 37.890625 10.984375 37.203125 
L 10.984375 75.640625 
L 48.1875 75.640625 
L 48.1875 67.1875 
L 19.875 67.1875 
L 19.875 45.796875 
Q 24.125 46.046875 26.265625 46.046875 
Q 38.234375 46.046875 44.921875 39.984375 
Q 51.609375 33.9375 51.609375 23.296875 
Q 51.609375 12.3125 44.421875 5.515625 
Q 37.25 -1.265625 24.609375 -1.265625 
Q 14.015625 -1.265625 8.640625 1.859375 
z
" id="MicrosoftYaHei-35"/>
      </defs>
      <g transform="translate(240.408575 399.47375)scale(0.1 -0.1)">
       <use xlink:href="#MicrosoftYaHei-32"/>
       <use x="58.642578" xlink:href="#MicrosoftYaHei-30"/>
       <use x="117.285156" xlink:href="#MicrosoftYaHei-31"/>
       <use x="175.927734" xlink:href="#MicrosoftYaHei-34"/>
       <use x="234.570312" xlink:href="#MicrosoftYaHei-2d"/>
       <use x="277.832031" xlink:href="#MicrosoftYaHei-30"/>
       <use x="336.474609" xlink:href="#MicrosoftYaHei-39"/>
       <use x="395.117188" xlink:href="#MicrosoftYaHei-2d"/>
       <use x="438.378906" xlink:href="#MicrosoftYaHei-30"/>
       <use x="497.021484" xlink:href="#MicrosoftYaHei-35"/>
      </g>
     </g>
    </g>
    <g id="xtick_4">
     <g id="line2d_4">
      <g>
       <use style="stroke:#000000;stroke-width:0.8;" x="348.287081" xlink:href="#m4e2de1ff3d" y="384.48"/>
      </g>
     </g>
     <g id="text_4">
      <!-- 2015-09-16 -->
      <g transform="translate(320.504269 399.47375)scale(0.1 -0.1)">
       <use xlink:href="#MicrosoftYaHei-32"/>
       <use x="58.642578" xlink:href="#MicrosoftYaHei-30"/>
       <use x="117.285156" xlink:href="#MicrosoftYaHei-31"/>
       <use x="175.927734" xlink:href="#MicrosoftYaHei-35"/>
       <use x="234.570312" xlink:href="#MicrosoftYaHei-2d"/>
       <use x="277.832031" xlink:href="#MicrosoftYaHei-30"/>
       <use x="336.474609" xlink:href="#MicrosoftYaHei-39"/>
       <use x="395.117188" xlink:href="#MicrosoftYaHei-2d"/>
       <use x="438.378906" xlink:href="#MicrosoftYaHei-31"/>
       <use x="497.021484" xlink:href="#MicrosoftYaHei-36"/>
      </g>
     </g>
    </g>
    <g id="xtick_5">
     <g id="line2d_5">
      <g>
       <use style="stroke:#000000;stroke-width:0.8;" x="428.382775" xlink:href="#m4e2de1ff3d" y="384.48"/>
      </g>
     </g>
     <g id="text_5">
      <!-- 2016-09-23 -->
      <g transform="translate(400.599963 399.47375)scale(0.1 -0.1)">
       <use xlink:href="#MicrosoftYaHei-32"/>
       <use x="58.642578" xlink:href="#MicrosoftYaHei-30"/>
       <use x="117.285156" xlink:href="#MicrosoftYaHei-31"/>
       <use x="175.927734" xlink:href="#MicrosoftYaHei-36"/>
       <use x="234.570312" xlink:href="#MicrosoftYaHei-2d"/>
       <use x="277.832031" xlink:href="#MicrosoftYaHei-30"/>
       <use x="336.474609" xlink:href="#MicrosoftYaHei-39"/>
       <use x="395.117188" xlink:href="#MicrosoftYaHei-2d"/>
       <use x="438.378906" xlink:href="#MicrosoftYaHei-32"/>
       <use x="497.021484" xlink:href="#MicrosoftYaHei-33"/>
      </g>
     </g>
    </g>
    <g id="xtick_6">
     <g id="line2d_6">
      <g>
       <use style="stroke:#000000;stroke-width:0.8;" x="508.478469" xlink:href="#m4e2de1ff3d" y="384.48"/>
      </g>
     </g>
     <g id="text_6">
      <!-- 2017-09-29 -->
      <defs>
       <path d="M 53.765625 72.3125 
L 24.171875 0 
L 14.265625 0 
L 42.390625 67.1875 
L 4.59375 67.1875 
L 4.59375 75.640625 
L 53.765625 75.640625 
z
" id="MicrosoftYaHei-37"/>
      </defs>
      <g transform="translate(480.695656 399.47375)scale(0.1 -0.1)">
       <use xlink:href="#MicrosoftYaHei-32"/>
       <use x="58.642578" xlink:href="#MicrosoftYaHei-30"/>
       <use x="117.285156" xlink:href="#MicrosoftYaHei-31"/>
       <use x="175.927734" xlink:href="#MicrosoftYaHei-37"/>
       <use x="234.570312" xlink:href="#MicrosoftYaHei-2d"/>
       <use x="277.832031" xlink:href="#MicrosoftYaHei-30"/>
       <use x="336.474609" xlink:href="#MicrosoftYaHei-39"/>
       <use x="395.117188" xlink:href="#MicrosoftYaHei-2d"/>
       <use x="438.378906" xlink:href="#MicrosoftYaHei-32"/>
       <use x="497.021484" xlink:href="#MicrosoftYaHei-39"/>
      </g>
     </g>
    </g>
    <g id="xtick_7">
     <g id="line2d_7">
      <g>
       <use style="stroke:#000000;stroke-width:0.8;" x="588.574163" xlink:href="#m4e2de1ff3d" y="384.48"/>
      </g>
     </g>
     <g id="text_7">
      <!-- 2018-10-12 -->
      <g transform="translate(560.79135 399.47375)scale(0.1 -0.1)">
       <use xlink:href="#MicrosoftYaHei-32"/>
       <use x="58.642578" xlink:href="#MicrosoftYaHei-30"/>
       <use x="117.285156" xlink:href="#MicrosoftYaHei-31"/>
       <use x="175.927734" xlink:href="#MicrosoftYaHei-38"/>
       <use x="234.570312" xlink:href="#MicrosoftYaHei-2d"/>
       <use x="277.832031" xlink:href="#MicrosoftYaHei-31"/>
       <use x="336.474609" xlink:href="#MicrosoftYaHei-30"/>
       <use x="395.117188" xlink:href="#MicrosoftYaHei-2d"/>
       <use x="438.378906" xlink:href="#MicrosoftYaHei-31"/>
       <use x="497.021484" xlink:href="#MicrosoftYaHei-32"/>
      </g>
     </g>
    </g>
    <g id="xtick_8">
     <g id="line2d_8">
      <g>
       <use style="stroke:#000000;stroke-width:0.8;" x="668.669856" xlink:href="#m4e2de1ff3d" y="384.48"/>
      </g>
     </g>
     <g id="text_8">
      <!-- 2019-10-21 -->
      <g transform="translate(640.887044 399.47375)scale(0.1 -0.1)">
       <use xlink:href="#MicrosoftYaHei-32"/>
       <use x="58.642578" xlink:href="#MicrosoftYaHei-30"/>
       <use x="117.285156" xlink:href="#MicrosoftYaHei-31"/>
       <use x="175.927734" xlink:href="#MicrosoftYaHei-39"/>
       <use x="234.570312" xlink:href="#MicrosoftYaHei-2d"/>
       <use x="277.832031" xlink:href="#MicrosoftYaHei-31"/>
       <use x="336.474609" xlink:href="#MicrosoftYaHei-30"/>
       <use x="395.117188" xlink:href="#MicrosoftYaHei-2d"/>
       <use x="438.378906" xlink:href="#MicrosoftYaHei-32"/>
       <use x="497.021484" xlink:href="#MicrosoftYaHei-31"/>
      </g>
     </g>
    </g>
    <g id="xtick_9">
     <g id="line2d_9">
      <g>
       <use style="stroke:#000000;stroke-width:0.8;" x="748.76555" xlink:href="#m4e2de1ff3d" y="384.48"/>
      </g>
     </g>
     <g id="text_9">
      <!-- 2020-10-30 -->
      <g transform="translate(720.982738 399.47375)scale(0.1 -0.1)">
       <use xlink:href="#MicrosoftYaHei-32"/>
       <use x="58.642578" xlink:href="#MicrosoftYaHei-30"/>
       <use x="117.285156" xlink:href="#MicrosoftYaHei-32"/>
       <use x="175.927734" xlink:href="#MicrosoftYaHei-30"/>
       <use x="234.570312" xlink:href="#MicrosoftYaHei-2d"/>
       <use x="277.832031" xlink:href="#MicrosoftYaHei-31"/>
       <use x="336.474609" xlink:href="#MicrosoftYaHei-30"/>
       <use x="395.117188" xlink:href="#MicrosoftYaHei-2d"/>
       <use x="438.378906" xlink:href="#MicrosoftYaHei-33"/>
       <use x="497.021484" xlink:href="#MicrosoftYaHei-30"/>
      </g>
     </g>
    </g>
    <g id="text_10">
     <!-- 时间 -->
     <defs>
      <path d="M 5.375 73.875 
L 39.0625 73.875 
L 39.0625 -5.71875 
L 31.34375 -5.71875 
L 31.34375 2.390625 
L 13.09375 2.390625 
L 13.09375 -6.890625 
L 5.375 -6.890625 
z
M 42.28125 61.578125 
L 76.953125 61.578125 
L 76.953125 83.15625 
L 84.765625 83.15625 
L 84.765625 61.578125 
L 98.640625 61.578125 
L 98.640625 54.34375 
L 84.765625 54.34375 
L 84.765625 1.8125 
Q 84.765625 -11.28125 72.265625 -11.28125 
Q 66.609375 -11.28125 55.671875 -10.984375 
Q 55.171875 -7.46875 54.109375 -2.78125 
Q 64.359375 -3.5625 70.125 -3.5625 
Q 76.953125 -3.5625 76.953125 3.375 
L 76.953125 54.34375 
L 42.28125 54.34375 
z
M 13.09375 9.625 
L 31.34375 9.625 
L 31.34375 34.90625 
L 13.09375 34.90625 
z
M 31.34375 66.65625 
L 13.09375 66.65625 
L 13.09375 41.9375 
L 31.34375 41.9375 
z
M 53.21875 44.96875 
Q 61.03125 30.71875 65.046875 22.21875 
Q 62.5 21.046875 57.234375 18.3125 
Q 53.421875 27.59375 46.296875 41.453125 
z
" id="MicrosoftYaHei-65f6"/>
      <path d="M 29.109375 56.984375 
L 70.515625 56.984375 
L 70.515625 8.640625 
L 36.140625 8.640625 
L 36.140625 2.59375 
L 29.109375 2.59375 
z
M 37.3125 69.578125 
L 37.3125 76.90625 
L 93.953125 76.90625 
L 93.953125 -0.4375 
Q 93.953125 -12.75 79.984375 -12.75 
Q 74.3125 -12.75 65.140625 -12.546875 
Q 64.75 -9.625 63.578125 -4.640625 
Q 71.6875 -5.21875 79 -5.21875 
Q 86.328125 -5.21875 86.328125 1.90625 
L 86.328125 69.578125 
z
M 6.546875 63.8125 
L 14.15625 63.8125 
L 14.15625 -12.75 
L 6.546875 -12.75 
z
M 36.140625 15.578125 
L 63.484375 15.578125 
L 63.484375 29.4375 
L 36.140625 29.4375 
z
M 63.484375 50.046875 
L 36.140625 50.046875 
L 36.140625 36.375 
L 63.484375 36.375 
z
M 11.625 78.171875 
L 17.1875 83.15625 
Q 24.609375 76.125 30.953125 69.484375 
L 24.609375 63.921875 
Q 18.65625 70.953125 11.625 78.171875 
z
" id="MicrosoftYaHei-95f4"/>
     </defs>
     <g transform="translate(432.8 413.953438)scale(0.1 -0.1)">
      <use xlink:href="#MicrosoftYaHei-65f6"/>
      <use x="100" xlink:href="#MicrosoftYaHei-95f4"/>
     </g>
    </g>
   </g>
   <g id="matplotlib.axis_2">
    <g id="ytick_1">
     <g id="line2d_10">
      <defs>
       <path d="M 0 0 
L -3.5 0 
" id="mb58f221138" style="stroke:#000000;stroke-width:0.8;"/>
      </defs>
      <g>
       <use style="stroke:#000000;stroke-width:0.8;" x="108" xlink:href="#mb58f221138" y="351.656244"/>
      </g>
     </g>
     <g id="text_11">
      <!-- 1.0 -->
      <defs>
       <path d="M 5.8125 5.03125 
Q 5.8125 7.671875 7.609375 9.46875 
Q 9.421875 11.28125 12.109375 11.28125 
Q 14.84375 11.28125 16.640625 9.453125 
Q 18.453125 7.625 18.453125 5.03125 
Q 18.453125 2.484375 16.640625 0.65625 
Q 14.84375 -1.171875 12.0625 -1.171875 
Q 9.375 -1.171875 7.59375 0.65625 
Q 5.8125 2.484375 5.8125 5.03125 
z
" id="MicrosoftYaHei-2e"/>
      </defs>
      <g transform="translate(86.864063 355.653119)scale(0.1 -0.1)">
       <use xlink:href="#MicrosoftYaHei-31"/>
       <use x="58.642578" xlink:href="#MicrosoftYaHei-2e"/>
       <use x="82.714844" xlink:href="#MicrosoftYaHei-30"/>
      </g>
     </g>
    </g>
    <g id="ytick_2">
     <g id="line2d_11">
      <g>
       <use style="stroke:#000000;stroke-width:0.8;" x="108" xlink:href="#mb58f221138" y="298.210745"/>
      </g>
     </g>
     <g id="text_12">
      <!-- 1.2 -->
      <g transform="translate(86.864063 302.20762)scale(0.1 -0.1)">
       <use xlink:href="#MicrosoftYaHei-31"/>
       <use x="58.642578" xlink:href="#MicrosoftYaHei-2e"/>
       <use x="82.714844" xlink:href="#MicrosoftYaHei-32"/>
      </g>
     </g>
    </g>
    <g id="ytick_3">
     <g id="line2d_12">
      <g>
       <use style="stroke:#000000;stroke-width:0.8;" x="108" xlink:href="#mb58f221138" y="244.765247"/>
      </g>
     </g>
     <g id="text_13">
      <!-- 1.4 -->
      <g transform="translate(86.864063 248.762122)scale(0.1 -0.1)">
       <use xlink:href="#MicrosoftYaHei-31"/>
       <use x="58.642578" xlink:href="#MicrosoftYaHei-2e"/>
       <use x="82.714844" xlink:href="#MicrosoftYaHei-34"/>
      </g>
     </g>
    </g>
    <g id="ytick_4">
     <g id="line2d_13">
      <g>
       <use style="stroke:#000000;stroke-width:0.8;" x="108" xlink:href="#mb58f221138" y="191.319748"/>
      </g>
     </g>
     <g id="text_14">
      <!-- 1.6 -->
      <g transform="translate(86.864063 195.316623)scale(0.1 -0.1)">
       <use xlink:href="#MicrosoftYaHei-31"/>
       <use x="58.642578" xlink:href="#MicrosoftYaHei-2e"/>
       <use x="82.714844" xlink:href="#MicrosoftYaHei-36"/>
      </g>
     </g>
    </g>
    <g id="ytick_5">
     <g id="line2d_14">
      <g>
       <use style="stroke:#000000;stroke-width:0.8;" x="108" xlink:href="#mb58f221138" y="137.874249"/>
      </g>
     </g>
     <g id="text_15">
      <!-- 1.8 -->
      <g transform="translate(86.864063 141.871124)scale(0.1 -0.1)">
       <use xlink:href="#MicrosoftYaHei-31"/>
       <use x="58.642578" xlink:href="#MicrosoftYaHei-2e"/>
       <use x="82.714844" xlink:href="#MicrosoftYaHei-38"/>
      </g>
     </g>
    </g>
    <g id="ytick_6">
     <g id="line2d_15">
      <g>
       <use style="stroke:#000000;stroke-width:0.8;" x="108" xlink:href="#mb58f221138" y="84.428751"/>
      </g>
     </g>
     <g id="text_16">
      <!-- 2.0 -->
      <g transform="translate(86.864063 88.425626)scale(0.1 -0.1)">
       <use xlink:href="#MicrosoftYaHei-32"/>
       <use x="58.642578" xlink:href="#MicrosoftYaHei-2e"/>
       <use x="82.714844" xlink:href="#MicrosoftYaHei-30"/>
      </g>
     </g>
    </g>
    <g id="text_17">
     <!-- 累积净值 -->
     <defs>
      <path d="M 71.09375 31.109375 
Q 84.765625 19.96875 92.875 12.0625 
L 87.5 6.59375 
Q 83.6875 10.546875 79.640625 14.40625 
Q 67.71875 13.921875 55.5625 13.375 
L 55.5625 0.34375 
Q 55.5625 -11.765625 43.359375 -11.765625 
Q 37.109375 -11.765625 29.390625 -11.671875 
Q 28.8125 -7.765625 27.9375 -3.5625 
Q 35.453125 -4.25 41.40625 -4.25 
Q 47.953125 -4.25 47.953125 2.875 
L 47.953125 13.03125 
Q 34.859375 12.40625 21.484375 11.765625 
Q 17.1875 11.578125 13.1875 10.984375 
L 10.546875 18.40625 
Q 16.5 19.09375 23.921875 21.921875 
Q 33.9375 25.78125 45.5625 31 
Q 33.40625 30.609375 23.921875 30.03125 
Q 19.234375 29.734375 16.890625 29.4375 
L 14.359375 35.890625 
Q 19.234375 36.859375 24.21875 39.109375 
Q 30.765625 42.046875 37.15625 45.453125 
L 18.84375 45.453125 
L 18.84375 42.625 
L 11.421875 42.625 
L 11.421875 79.734375 
L 88.671875 79.734375 
L 88.671875 42.625 
L 81.25 42.625 
L 81.25 45.453125 
L 48.828125 45.453125 
Q 38.03125 39.984375 27.546875 35.5 
Q 40.328125 35.84375 57.328125 36.46875 
Q 64.0625 39.65625 71.296875 43.3125 
L 76.375 38.03125 
Q 53.03125 27 28.515625 17.921875 
Q 53.171875 19 73.1875 20.265625 
Q 69.625 23.4375 65.921875 26.515625 
z
M 53.609375 51.125 
L 81.25 51.125 
L 81.25 60.015625 
L 53.609375 60.015625 
z
M 18.84375 51.125 
L 46.390625 51.125 
L 46.390625 60.015625 
L 18.84375 60.015625 
z
M 81.25 74.078125 
L 53.609375 74.078125 
L 53.609375 65.28125 
L 81.25 65.28125 
z
M 18.84375 65.28125 
L 46.390625 65.28125 
L 46.390625 74.078125 
L 18.84375 74.078125 
z
M 29.59375 8.9375 
L 33.984375 2.875 
Q 19.734375 -4.25 5.953125 -9.625 
Q 4.5 -6.59375 2.546875 -3.078125 
Q 17.09375 2.59375 29.59375 8.9375 
z
M 69.234375 8.546875 
Q 83.796875 3.65625 97.171875 -2.296875 
L 94.140625 -8.9375 
Q 81.0625 -2.984375 65.921875 2.09375 
z
" id="MicrosoftYaHei-7d2f"/>
      <path d="M 43.953125 74.75 
L 93.359375 74.75 
L 93.359375 23.875 
L 85.9375 23.875 
L 85.9375 28.5625 
L 51.375 28.5625 
L 51.375 23.875 
L 43.953125 23.875 
z
M 1.375 13.328125 
Q 10.453125 27 16.5 46.046875 
L 1.859375 46.046875 
L 1.859375 52.875 
L 17.484375 52.875 
L 17.484375 68.40625 
Q 11.140625 67.921875 3.8125 67.4375 
Q 3.328125 70.953125 2.34375 74.5625 
Q 22.265625 75.640625 37.109375 77.78125 
L 38.875 70.359375 
Q 32.90625 69.671875 24.703125 69 
L 24.703125 52.875 
L 39.265625 52.875 
L 39.265625 46.046875 
L 24.703125 46.046875 
L 24.703125 32.28125 
L 28.609375 35.890625 
Q 34.578125 30.03125 41.3125 22.515625 
L 35.75 17.625 
Q 30.46875 24.078125 24.703125 30.21875 
L 24.703125 -13.328125 
L 17.484375 -13.328125 
L 17.484375 30.125 
Q 12.203125 15.578125 4.78125 4.9375 
Q 3.21875 9.234375 1.375 13.328125 
z
M 85.9375 68.109375 
L 51.375 68.109375 
L 51.375 35.203125 
L 85.9375 35.203125 
z
M 54.296875 17.625 
L 60.75 13.03125 
Q 49.609375 -1.03125 39.359375 -11.859375 
Q 37.015625 -9.328125 33.796875 -6.5 
Q 45.703125 5.515625 54.296875 17.625 
z
M 74.609375 12.9375 
L 80.671875 17.140625 
Q 89.65625 6.890625 99.3125 -5.8125 
L 92.484375 -10.984375 
Q 83.890625 1.703125 74.609375 12.9375 
z
" id="MicrosoftYaHei-79ef"/>
      <path d="M 31.453125 19.96875 
L 55.859375 19.96875 
L 55.859375 30.421875 
L 26.65625 30.421875 
L 26.65625 37.453125 
L 55.859375 37.453125 
L 55.859375 47.796875 
L 33.203125 47.796875 
L 33.203125 51.515625 
Q 31.390625 49.65625 29.59375 47.90625 
Q 27.9375 49.65625 24.3125 53.375 
Q 36.71875 65.09375 47.65625 83.640625 
L 55.078125 81.6875 
Q 53.125 78.125 51.03125 74.75 
L 80.375 74.75 
L 80.375 68.21875 
L 69.046875 54.640625 
L 89.0625 54.640625 
L 89.0625 37.453125 
L 97.953125 37.453125 
L 97.953125 30.421875 
L 89.0625 30.421875 
L 89.0625 9.125 
L 81.640625 9.125 
L 81.640625 13.140625 
L 63.484375 13.140625 
L 63.484375 0.046875 
Q 63.484375 -11.96875 51.171875 -12.0625 
Q 44.734375 -12.0625 38.875 -12.0625 
Q 38.1875 -7.859375 37.3125 -3.953125 
Q 43.453125 -4.640625 49.421875 -4.640625 
Q 55.859375 -4.640625 55.859375 1.8125 
L 55.859375 13.140625 
L 31.453125 13.140625 
z
M 70.90625 68.015625 
L 46.625 68.015625 
Q 41.703125 60.890625 36.078125 54.640625 
L 60.109375 54.640625 
z
M 14.453125 36.46875 
Q 17.96875 34.71875 21.78125 33.15625 
Q 16.609375 15.484375 11.140625 -3.765625 
L 3.21875 -0.734375 
Q 9.96875 18.109375 14.453125 36.46875 
z
M 63.484375 19.96875 
L 81.640625 19.96875 
L 81.640625 30.421875 
L 63.484375 30.421875 
z
M 10.359375 76.421875 
Q 16.609375 65.671875 21.96875 54.828125 
Q 17.96875 52.6875 14.65625 51.125 
Q 9.671875 62.359375 4 73.09375 
z
M 81.640625 47.796875 
L 63.484375 47.796875 
L 63.484375 37.453125 
L 81.640625 37.453125 
z
" id="MicrosoftYaHei-51c0"/>
      <path d="M 25.296875 -3.375 
L 35.15625 -3.375 
L 35.15625 57.078125 
L 58.203125 57.078125 
L 58.203125 65.96875 
L 29.890625 65.96875 
L 29.890625 72.609375 
L 58.203125 72.609375 
L 58.203125 82.953125 
L 65.625 82.953125 
L 65.625 72.609375 
L 96.390625 72.609375 
L 96.390625 65.96875 
L 65.625 65.96875 
L 65.625 57.078125 
L 89.265625 57.078125 
L 89.265625 -3.375 
L 98.53125 -3.375 
L 98.53125 -10.015625 
L 25.296875 -10.015625 
z
M 1.078125 35.109375 
Q 14.15625 54.640625 21.390625 82.46875 
L 28.609375 80.328125 
Q 24.703125 67.71875 20.125 56.6875 
L 20.125 -12.75 
L 12.984375 -12.75 
L 12.984375 41.65625 
Q 8.796875 33.84375 4.109375 27.09375 
Q 2.734375 31.203125 1.078125 35.109375 
z
M 42.390625 -3.375 
L 82.03125 -3.375 
L 82.03125 5.515625 
L 42.390625 5.515625 
z
M 82.03125 50.640625 
L 42.390625 50.640625 
L 42.390625 41.84375 
L 82.03125 41.84375 
z
M 42.390625 26.8125 
L 82.03125 26.8125 
L 82.03125 35.59375 
L 42.390625 35.59375 
z
M 42.390625 11.765625 
L 82.03125 11.765625 
L 82.03125 20.5625 
L 42.390625 20.5625 
z
" id="MicrosoftYaHei-503c"/>
     </defs>
     <g transform="translate(80.378125 238.16)rotate(-90)scale(0.1 -0.1)">
      <use xlink:href="#MicrosoftYaHei-7d2f"/>
      <use x="100" xlink:href="#MicrosoftYaHei-79ef"/>
      <use x="200" xlink:href="#MicrosoftYaHei-51c0"/>
      <use x="300" xlink:href="#MicrosoftYaHei-503c"/>
     </g>
    </g>
   </g>
   <g id="line2d_16">
    <path clip-path="url(#pab939a4940)" d="M 108 351.656244 
L 109.601914 353.430999 
L 111.203828 354.191609 
L 112.805742 353.938073 
L 114.407656 354.952219 
L 116.009569 355.459292 
L 119.213397 353.938073 
L 120.815311 352.67039 
L 122.417225 352.923926 
L 124.019139 352.923926 
L 125.621053 352.67039 
L 127.222967 351.656244 
L 128.82488 351.656244 
L 130.426794 350.895634 
L 132.028708 351.149171 
L 133.630622 350.135025 
L 135.232536 349.881488 
L 136.83445 349.881488 
L 140.038278 347.853196 
L 141.640191 345.317831 
L 143.242105 345.064294 
L 144.844019 341.261246 
L 146.445933 339.993564 
L 148.047847 338.472345 
L 149.649761 338.725881 
L 151.251675 337.711735 
L 152.853589 337.204662 
L 154.455502 335.683443 
L 156.057416 335.93698 
L 157.65933 333.908687 
L 159.261244 332.641005 
L 160.863158 334.162224 
L 162.465072 332.894541 
L 164.066986 331.119786 
L 165.6689 330.10564 
L 167.270813 330.10564 
L 168.872727 329.34503 
L 170.474641 330.359176 
L 172.076555 333.148078 
L 175.280383 332.641005 
L 178.484211 334.162224 
L 180.086124 335.683443 
L 181.688038 336.190516 
L 183.289952 335.93698 
L 184.891866 336.190516 
L 186.49378 337.204662 
L 188.095694 336.951126 
L 189.697608 336.190516 
L 191.299522 334.922833 
L 194.503349 334.922833 
L 196.105263 334.162224 
L 197.707177 334.41576 
L 199.309091 335.429906 
L 202.512919 335.93698 
L 204.114833 338.472345 
L 205.716746 339.993564 
L 207.31866 340.754173 
L 208.920574 341.00771 
L 210.522488 341.514783 
L 212.124402 343.289539 
L 213.726316 343.543075 
L 215.32823 344.050148 
L 216.930144 345.317831 
L 218.532057 346.83905 
L 220.133971 345.064294 
L 221.735885 343.543075 
L 223.337799 340.754173 
L 224.939713 338.725881 
L 226.541627 337.204662 
L 228.143541 338.472345 
L 229.745455 337.711735 
L 231.347368 337.204662 
L 232.949282 337.711735 
L 234.551196 336.444053 
L 237.755024 333.401614 
L 239.356938 332.894541 
L 240.958852 330.866249 
L 242.560766 328.330884 
L 244.162679 328.077347 
L 245.764593 326.809665 
L 247.366507 324.527836 
L 248.968421 322.499544 
L 250.570335 323.006617 
L 252.172249 321.231861 
L 253.774163 321.231861 
L 255.376077 320.724788 
L 256.97799 320.471252 
L 258.579904 319.457106 
L 260.181818 318.189423 
L 261.783732 317.175277 
L 263.385646 315.400521 
L 264.98756 314.386375 
L 266.589474 313.625766 
L 268.191388 311.85101 
L 271.395215 311.343937 
L 272.997129 309.822718 
L 274.599043 309.062108 
L 276.200957 305.512597 
L 277.802871 304.751987 
L 279.404785 299.42772 
L 281.006699 295.624673 
L 282.608612 296.385282 
L 284.210526 295.878209 
L 285.81244 294.103454 
L 287.414354 292.582234 
L 289.016268 298.413574 
L 290.618182 296.385282 
L 292.220096 293.596381 
L 293.82201 289.793333 
L 295.423923 289.28626 
L 297.025837 287.257967 
L 298.627751 287.004431 
L 300.229665 288.018577 
L 301.831579 286.750894 
L 303.433493 284.215529 
L 305.035407 284.469066 
L 306.637321 284.469066 
L 308.239234 283.45492 
L 309.841148 282.947847 
L 311.443062 283.201383 
L 313.044976 282.947847 
L 314.64689 281.680164 
L 316.248804 279.398335 
L 317.850718 278.637726 
L 319.452632 278.384189 
L 321.054545 276.102361 
L 322.656459 275.088214 
L 324.258373 276.355897 
L 325.860287 275.595287 
L 327.462201 275.848824 
L 329.064115 277.877116 
L 332.267943 277.370043 
L 333.869856 278.130653 
L 335.47177 277.62358 
L 337.073684 275.848824 
L 338.675598 274.581141 
L 340.277512 272.299313 
L 341.879426 272.045776 
L 343.48134 271.285167 
L 345.083254 270.271021 
L 348.287081 267.735655 
L 349.888995 267.482119 
L 351.490909 266.721509 
L 353.092823 265.707363 
L 354.694737 265.20029 
L 356.296651 263.932608 
L 357.898565 263.425534 
L 359.500478 264.186144 
L 361.102392 264.439681 
L 362.704306 263.932608 
L 364.30622 263.679071 
L 365.908134 262.664925 
L 367.510048 263.171998 
L 369.111962 260.890169 
L 370.713876 259.876023 
L 372.315789 259.876023 
L 373.917703 258.354804 
L 375.519617 258.354804 
L 377.121531 258.608341 
L 378.723445 258.354804 
L 380.325359 257.087121 
L 381.927273 256.580048 
L 383.529187 255.819439 
L 385.1311 254.805293 
L 386.733014 254.29822 
L 388.334928 253.284074 
L 389.936842 253.53761 
L 391.538756 253.284074 
L 394.742584 256.326512 
L 396.344498 257.087121 
L 397.946411 256.072975 
L 399.548325 255.312366 
L 401.150239 256.326512 
L 402.752153 256.833585 
L 404.354067 256.580048 
L 405.955981 255.819439 
L 407.557895 254.044683 
L 412.363636 251.002245 
L 413.96555 250.241635 
L 415.567464 249.734562 
L 420.373206 247.452734 
L 421.97512 247.70627 
L 423.577033 247.452734 
L 425.178947 246.945661 
L 428.382775 246.438588 
L 431.586603 245.424441 
L 433.188517 244.663832 
L 434.790431 244.917368 
L 437.994258 244.917368 
L 439.596172 245.424441 
L 441.198086 245.170905 
L 442.8 246.438588 
L 444.401914 246.692124 
L 446.003828 248.720416 
L 447.605742 248.213343 
L 449.207656 247.452734 
L 450.809569 247.452734 
L 452.411483 246.438588 
L 454.013397 246.692124 
L 455.615311 246.692124 
L 457.217225 246.438588 
L 460.421053 245.424441 
L 462.022967 245.677978 
L 463.62488 246.185051 
L 465.226794 245.677978 
L 466.828708 245.424441 
L 468.430622 244.663832 
L 470.032536 244.156759 
L 471.63445 244.663832 
L 473.236364 245.931515 
L 474.838278 245.677978 
L 476.440191 247.199197 
L 478.042105 247.452734 
L 479.644019 247.452734 
L 481.245933 246.945661 
L 482.847847 246.692124 
L 484.449761 244.917368 
L 486.051675 242.889076 
L 487.653589 241.114321 
L 489.255502 240.607248 
L 490.857416 239.846638 
L 492.45933 239.593101 
L 494.061244 238.832492 
L 495.663158 238.578955 
L 497.265072 238.578955 
L 498.866986 238.325419 
L 500.4689 238.325419 
L 502.070813 238.578955 
L 503.672727 238.325419 
L 505.274641 237.311273 
L 508.478469 236.8042 
L 510.080383 236.297127 
L 513.284211 236.297127 
L 514.886124 236.8042 
L 516.488038 237.057736 
L 518.089952 237.564809 
L 519.691866 239.339565 
L 521.29378 239.339565 
L 522.895694 238.325419 
L 524.497608 238.325419 
L 526.099522 238.578955 
L 527.701435 238.325419 
L 529.303349 237.564809 
L 530.905263 237.311273 
L 532.507177 237.311273 
L 535.711005 236.297127 
L 538.914833 234.775908 
L 540.516746 233.761762 
L 542.11866 233.001152 
L 543.720574 232.747615 
L 545.322488 231.987006 
L 546.924402 230.97286 
L 548.526316 229.451641 
L 551.730144 227.423348 
L 553.332057 227.676885 
L 554.933971 227.676885 
L 556.535885 227.930422 
L 562.943541 227.930422 
L 564.545455 227.676885 
L 566.147368 227.169812 
L 567.749282 225.902129 
L 570.95311 224.38091 
L 572.555024 222.606155 
L 574.156938 220.577862 
L 575.758852 219.31018 
L 577.360766 219.817253 
L 578.962679 219.563716 
L 582.166507 218.54957 
L 583.768421 218.54957 
L 585.370335 218.296034 
L 586.972249 217.535424 
L 588.574163 216.521278 
L 593.379904 215.000059 
L 594.981818 213.985913 
L 596.583732 212.71823 
L 601.389474 211.197011 
L 602.991388 210.943475 
L 604.593301 210.943475 
L 606.195215 210.436402 
L 607.797129 208.915182 
L 609.399043 207.901036 
L 611.000957 207.393963 
L 612.602871 207.140427 
L 615.806699 205.112135 
L 617.408612 204.858598 
L 619.010526 205.112135 
L 620.61244 204.605062 
L 622.214354 204.605062 
L 623.816268 203.844452 
L 625.418182 203.337379 
L 627.020096 203.590915 
L 628.62201 203.590915 
L 630.223923 203.337379 
L 631.825837 203.337379 
L 633.427751 201.81616 
L 635.029665 200.548477 
L 638.233493 200.041404 
L 639.835407 199.534331 
L 641.437321 199.787868 
L 643.039234 199.027258 
L 644.641148 198.773722 
L 646.243062 198.013112 
L 649.44689 197.506039 
L 655.854545 194.463601 
L 660.660287 193.702991 
L 662.262201 193.195918 
L 663.864115 193.195918 
L 665.466029 192.942382 
L 667.067943 192.181772 
L 670.27177 192.181772 
L 671.873684 192.435309 
L 676.679426 190.15348 
L 683.087081 188.125188 
L 684.688995 187.364578 
L 686.290909 186.096896 
L 689.494737 185.082749 
L 692.698565 183.054457 
L 695.902392 181.533238 
L 697.504306 180.519092 
L 699.10622 179.758482 
L 700.708134 180.519092 
L 703.911962 178.997873 
L 705.513876 176.716044 
L 710.319617 175.194825 
L 711.921531 175.701898 
L 713.523445 175.955435 
L 715.125359 175.701898 
L 716.727273 176.969581 
L 718.329187 178.744336 
L 719.9311 177.73019 
L 721.533014 178.4908 
L 723.134928 177.73019 
L 724.736842 179.504946 
L 726.338756 179.758482 
L 727.94067 177.983727 
L 729.542584 177.476654 
L 731.144498 177.223117 
L 732.746411 176.716044 
L 734.348325 175.955435 
L 737.552153 176.462508 
L 739.154067 176.462508 
L 743.959809 175.701898 
L 745.561722 175.194825 
L 748.76555 173.673606 
L 750.367464 173.166533 
L 751.969378 173.927143 
L 753.571292 175.701898 
L 755.173206 175.194825 
L 756.77512 174.180679 
L 758.377033 173.927143 
L 759.978947 173.420069 
L 763.182775 171.391777 
L 764.784689 170.124095 
L 766.386603 169.363485 
L 767.988517 169.109949 
L 769.590431 169.617022 
L 771.192344 169.363485 
L 772.794258 168.602876 
L 774.396172 168.095803 
L 775.998086 167.335193 
L 777.6 166.82812 
L 777.6 166.82812 
" style="fill:none;stroke:#0000ff;stroke-linecap:square;stroke-width:1.5;"/>
   </g>
   <g id="line2d_17">
    <path clip-path="url(#pab939a4940)" d="M 108 351.656244 
L 109.601914 353.313918 
L 111.203828 357.728486 
L 112.805742 357.249209 
L 114.407656 354.205086 
L 116.009569 359.028176 
L 117.611483 356.180312 
L 119.213397 352.640488 
L 120.815311 353.077228 
L 122.417225 352.916767 
L 124.019139 355.266823 
L 125.621053 353.703909 
L 127.222967 356.069127 
L 128.82488 357.309434 
L 130.426794 359.8667 
L 133.630622 353.337081 
L 135.232536 348.588536 
L 138.436364 340.939904 
L 140.038278 338.578897 
L 141.640191 335.901181 
L 143.242105 333.881312 
L 144.844019 327.749687 
L 146.445933 327.638081 
L 148.047847 332.752611 
L 149.649761 335.490553 
L 151.251675 332.907597 
L 152.853589 336.662212 
L 154.455502 330.97954 
L 156.057416 336.485326 
L 157.65933 335.862856 
L 159.261244 336.44321 
L 160.863158 335.558781 
L 162.465072 333.593241 
L 164.066986 332.496969 
L 165.6689 328.4387 
L 167.270813 328.791209 
L 168.872727 328.123675 
L 170.474641 337.182341 
L 172.076555 341.971317 
L 173.678469 348.777215 
L 175.280383 346.796513 
L 176.882297 346.093181 
L 178.484211 343.562027 
L 180.086124 345.719615 
L 181.688038 348.754051 
L 183.289952 344.645243 
L 184.891866 341.638603 
L 186.49378 343.921274 
L 188.095694 342.880595 
L 189.697608 341.481933 
L 191.299522 334.685722 
L 192.901435 336.90522 
L 194.503349 338.628594 
L 196.105263 334.971267 
L 197.707177 337.030303 
L 199.309091 340.070214 
L 200.911005 339.465854 
L 202.512919 343.078539 
L 204.114833 342.479233 
L 205.716746 341.150903 
L 207.31866 339.677275 
L 208.920574 339.216529 
L 210.522488 341.519837 
L 212.124402 348.177908 
L 213.726316 347.194928 
L 215.32823 350.412146 
L 216.930144 353.043535 
L 218.532057 355.01834 
L 223.337799 345.47408 
L 224.939713 348.807538 
L 226.541627 349.091398 
L 228.143541 353.916172 
L 229.745455 351.499152 
L 231.347368 349.757247 
L 232.949282 351.381649 
L 234.551196 346.648266 
L 236.15311 346.266276 
L 237.755024 346.967924 
L 239.356938 348.516097 
L 240.958852 348.415862 
L 242.560766 346.730391 
L 244.162679 347.125858 
L 245.764593 345.3431 
L 247.366507 345.01165 
L 248.968421 342.091347 
L 250.570335 343.898532 
L 252.172249 342.018908 
L 253.774163 340.595818 
L 255.376077 341.29536 
L 256.97799 340.084955 
L 258.579904 335.164999 
L 260.181818 331.214967 
L 261.783732 330.56428 
L 263.385646 328.319092 
L 264.98756 327.590069 
L 266.589474 328.489239 
L 268.191388 322.588408 
L 269.793301 323.009986 
L 271.395215 325.520503 
L 272.997129 321.652597 
L 274.599043 320.972007 
L 276.200957 319.236419 
L 277.802871 322.772875 
L 279.404785 313.530584 
L 281.006699 309.200669 
L 282.608612 309.52875 
L 284.210526 305.541236 
L 285.81244 296.794226 
L 287.414354 276.580374 
L 289.016268 281.232474 
L 290.618182 272.450087 
L 292.220096 268.118066 
L 293.82201 257.769396 
L 295.423923 263.861011 
L 297.025837 260.183468 
L 298.627751 261.362286 
L 300.229665 267.405047 
L 301.831579 265.387284 
L 303.433493 262.2265 
L 305.035407 260.003213 
L 306.637321 260.551559 
L 308.239234 245.630808 
L 309.841148 240.938277 
L 311.443062 232.905128 
L 313.044976 226.198203 
L 316.248804 203.742953 
L 317.850718 202.879581 
L 319.452632 211.160792 
L 321.054545 207.304257 
L 322.656459 191.378204 
L 324.258373 196.242147 
L 325.860287 177.727242 
L 327.462201 174.407262 
L 329.064115 206.31159 
L 330.666029 225.886125 
L 332.267943 234.467621 
L 333.869856 224.076835 
L 335.47177 226.160299 
L 337.073684 241.057464 
L 338.675598 240.567238 
L 340.277512 227.140752 
L 341.879426 226.883425 
L 343.48134 264.534862 
L 345.083254 260.463537 
L 346.685167 258.341327 
L 348.287081 261.976754 
L 349.888995 263.312243 
L 351.490909 265.543112 
L 353.092823 255.27025 
L 356.296651 248.599123 
L 357.898565 243.619363 
L 359.500478 234.664722 
L 361.102392 239.347988 
L 362.704306 236.339664 
L 364.30622 239.163521 
L 365.908134 242.6646 
L 367.510048 240.776974 
L 369.111962 232.664226 
L 370.713876 235.342785 
L 372.315789 252.250133 
L 373.917703 254.152921 
L 375.519617 259.074983 
L 377.121531 267.453059 
L 378.723445 262.49562 
L 380.325359 259.381164 
L 381.927273 264.167192 
L 383.529187 258.78649 
L 385.1311 260.041959 
L 386.733014 255.91083 
L 388.334928 253.11898 
L 389.936842 251.979329 
L 391.538756 252.923142 
L 393.14067 250.602567 
L 394.742584 254.940484 
L 396.344498 255.869135 
L 397.946411 258.586862 
L 399.548325 257.214311 
L 401.150239 257.917222 
L 402.752153 258.901887 
L 404.354067 254.427515 
L 405.955981 256.096981 
L 407.557895 254.347916 
L 409.159809 252.874709 
L 412.363636 245.659026 
L 413.96555 246.76709 
L 417.169378 247.726065 
L 418.771292 245.491827 
L 420.373206 240.280851 
L 421.97512 241.935156 
L 423.577033 241.873667 
L 425.178947 241.345957 
L 426.780861 244.887887 
L 428.382775 243.442477 
L 429.984689 243.959236 
L 431.586603 241.851767 
L 433.188517 240.68811 
L 434.790431 240.449314 
L 436.392344 239.966247 
L 437.994258 237.746749 
L 439.596172 238.000286 
L 441.198086 234.100372 
L 442.8 234.538375 
L 444.401914 235.918507 
L 446.003828 242.233335 
L 447.605742 243.376776 
L 449.207656 242.90508 
L 450.809569 241.573382 
L 452.411483 242.110778 
L 454.013397 240.945016 
L 455.615311 240.566395 
L 457.217225 238.650973 
L 458.819139 238.005761 
L 460.421053 235.8069 
L 462.022967 237.604819 
L 463.62488 237.819188 
L 465.226794 236.834523 
L 466.828708 235.114939 
L 468.430622 235.883551 
L 470.032536 233.410517 
L 471.63445 235.713824 
L 473.236364 237.24852 
L 474.838278 238.061775 
L 476.440191 241.55106 
L 478.042105 239.001376 
L 479.644019 238.570532 
L 481.245933 236.097498 
L 482.847847 232.497869 
L 484.449761 233.177196 
L 486.051675 228.416016 
L 487.653589 225.857487 
L 489.255502 225.695341 
L 490.857416 223.095539 
L 492.45933 221.924301 
L 494.061244 221.739835 
L 495.663158 222.056966 
L 497.265072 224.172016 
L 498.866986 221.186013 
L 500.4689 218.587896 
L 502.070813 217.30463 
L 503.672727 217.347588 
L 505.274641 216.657733 
L 506.876555 216.348183 
L 508.478469 216.273638 
L 510.080383 212.99114 
L 511.682297 212.899749 
L 513.284211 209.453 
L 514.886124 210.972956 
L 516.488038 206.647673 
L 518.089952 206.862042 
L 519.691866 208.389157 
L 521.29378 212.188415 
L 522.895694 211.524671 
L 524.497608 212.334135 
L 526.099522 209.941121 
L 527.701435 210.83271 
L 529.303349 206.496478 
L 530.905263 203.327692 
L 532.507177 201.395424 
L 534.109091 197.734306 
L 535.711005 201.528088 
L 537.312919 216.214255 
L 538.914833 207.660977 
L 540.516746 208.90339 
L 542.11866 205.206895 
L 543.720574 206.93406 
L 545.322488 212.011108 
L 546.924402 212.065437 
L 548.526316 210.247302 
L 550.12823 215.732872 
L 551.730144 212.196838 
L 553.332057 214.046981 
L 554.933971 210.613288 
L 558.137799 212.868162 
L 559.739713 213.599291 
L 561.341627 212.46343 
L 562.943541 214.317363 
L 564.545455 219.38683 
L 566.147368 222.096976 
L 567.749282 227.142437 
L 569.351196 221.722567 
L 570.95311 222.713128 
L 572.555024 218.157052 
L 574.156938 222.756929 
L 575.758852 221.130842 
L 577.360766 225.510032 
L 578.962679 223.777392 
L 580.564593 222.361884 
L 582.166507 225.032861 
L 583.768421 225.868437 
L 585.370335 223.195774 
L 586.972249 218.324251 
L 588.574163 227.165179 
L 590.176077 228.308621 
L 591.77799 226.697274 
L 593.379904 222.278916 
L 594.981818 225.884441 
L 596.583732 222.064968 
L 598.185646 225.780415 
L 599.78756 224.508521 
L 601.389474 223.928588 
L 602.991388 224.297942 
L 604.593301 229.01111 
L 606.195215 229.436479 
L 607.797129 227.161389 
L 609.399043 226.210416 
L 611.000957 221.896505 
L 612.602871 221.835016 
L 614.204785 217.084786 
L 615.806699 211.707875 
L 617.408612 201.828373 
L 619.010526 199.696477 
L 620.61244 201.727717 
L 622.214354 197.510672 
L 623.816268 200.929624 
L 625.418182 192.73812 
L 627.020096 189.365916 
L 628.62201 189.19619 
L 630.223923 191.210584 
L 631.825837 194.774836 
L 633.427751 200.254931 
L 635.029665 202.362822 
L 636.631579 203.92026 
L 638.233493 202.318179 
L 639.835407 202.626045 
L 641.437321 201.12083 
L 643.039234 194.303982 
L 644.641148 194.438331 
L 646.243062 191.616579 
L 647.844976 193.905147 
L 649.44689 193.673931 
L 651.048804 191.465805 
L 654.252632 198.238431 
L 655.854545 195.194729 
L 657.456459 191.320927 
L 659.058373 191.912232 
L 660.660287 186.667563 
L 662.262201 186.126798 
L 663.864115 188.411574 
L 665.466029 190.89598 
L 667.067943 185.802507 
L 668.669856 188.296177 
L 671.873684 185.145923 
L 673.475598 187.324568 
L 675.077512 186.787593 
L 676.679426 187.41259 
L 678.28134 188.608255 
L 679.883254 186.487729 
L 681.485167 183.048561 
L 683.087081 183.513097 
L 684.688995 179.2552 
L 686.290909 176.010185 
L 687.892823 174.777459 
L 689.494737 177.004537 
L 691.096651 185.9238 
L 692.698565 180.285771 
L 694.300478 177.699025 
L 695.902392 176.626759 
L 697.504306 174.74882 
L 699.10622 177.22775 
L 700.708134 190.468084 
L 702.310048 187.398271 
L 703.911962 188.597726 
L 705.513876 183.605331 
L 707.115789 183.025397 
L 708.717703 181.897118 
L 710.319617 178.914905 
L 711.921531 177.471179 
L 713.523445 177.741562 
L 715.125359 180.34347 
L 716.727273 177.138886 
L 718.329187 175.898157 
L 719.9311 176.422498 
L 721.533014 173.016601 
L 723.134928 165.16834 
L 724.736842 149.30504 
L 726.338756 159.419547 
L 727.94067 151.886733 
L 729.542584 153.447962 
L 731.144498 150.018059 
L 732.746411 153.798785 
L 735.950239 150.346561 
L 737.552153 147.731598 
L 739.154067 155.264833 
L 740.755981 153.336355 
L 742.357895 155.44214 
L 745.561722 147.437209 
L 747.163636 149.393904 
L 748.76555 149.744728 
L 750.367464 143.237431 
L 751.969378 144.518591 
L 753.571292 142.638125 
L 755.173206 141.20956 
L 756.77512 138.104369 
L 758.377033 143.617736 
L 759.978947 139.91745 
L 761.580861 138.026455 
L 763.182775 130.299488 
L 764.784689 124.116903 
L 766.386603 121.347374 
L 767.988517 118.034974 
L 769.590431 124.385601 
L 771.192344 120.028732 
L 772.794258 118.799795 
L 774.396172 123.794718 
L 775.998086 133.284649 
L 777.6 134.297531 
L 777.6 134.297531 
" style="fill:none;stroke:#008000;stroke-linecap:square;stroke-width:1.5;"/>
   </g>
   <g id="line2d_18">
    <path clip-path="url(#pab939a4940)" d="M 108 351.656244 
L 109.601914 353.196836 
L 111.203828 361.265362 
L 112.805742 360.560345 
L 114.407656 353.457954 
L 116.009569 362.597061 
L 117.611483 357.661943 
L 119.213397 351.342903 
L 120.815311 353.484065 
L 122.417225 352.909607 
L 124.019139 357.609719 
L 125.621053 354.737429 
L 127.222967 360.48201 
L 128.82488 362.962625 
L 130.426794 368.837765 
L 132.028708 361.892044 
L 133.630622 356.539138 
L 135.232536 347.295584 
L 136.83445 339.566511 
L 138.436364 333.012465 
L 140.038278 329.304599 
L 141.640191 326.484532 
L 143.242105 322.69833 
L 144.844019 314.238128 
L 146.445933 315.282597 
L 148.047847 327.032878 
L 149.649761 332.255225 
L 151.251675 328.103459 
L 152.853589 336.119762 
L 154.455502 326.275638 
L 156.057416 337.033672 
L 157.65933 337.817024 
L 159.261244 340.245416 
L 160.863158 336.955337 
L 162.465072 334.29194 
L 164.066986 333.874152 
L 165.6689 326.771761 
L 167.270813 327.476777 
L 168.872727 326.902319 
L 170.474641 344.005506 
L 172.076555 350.794557 
L 173.678469 364.659888 
L 175.280383 360.952021 
L 176.882297 358.784747 
L 178.484211 352.961831 
L 180.086124 355.755786 
L 181.688038 361.317586 
L 183.289952 353.353507 
L 184.891866 347.08669 
L 186.49378 350.637886 
L 188.095694 348.810065 
L 189.697608 346.773349 
L 191.299522 334.448611 
L 192.901435 338.887606 
L 194.503349 342.334355 
L 196.105263 335.780309 
L 197.707177 339.644846 
L 199.309091 344.710522 
L 200.911005 343.248265 
L 202.512919 350.220098 
L 204.114833 346.48612 
L 205.716746 342.308243 
L 207.31866 338.600376 
L 208.920574 337.425348 
L 210.522488 341.524891 
L 212.124402 353.066278 
L 213.726316 350.84678 
L 215.32823 356.774144 
L 216.930144 360.769239 
L 218.532057 363.197631 
L 221.735885 354.16297 
L 223.337799 350.193987 
L 224.939713 358.889194 
L 226.541627 360.978133 
L 228.143541 369.36 
L 229.745455 365.286569 
L 231.347368 362.309832 
L 232.949282 365.051564 
L 234.551196 356.852479 
L 236.15311 357.609719 
L 237.755024 360.534234 
L 239.356938 364.137653 
L 240.958852 365.965474 
L 242.560766 365.129899 
L 244.162679 366.174368 
L 245.764593 363.876536 
L 247.366507 365.495463 
L 248.968421 361.68315 
L 250.570335 364.790446 
L 252.172249 362.805955 
L 253.774163 359.959775 
L 255.376077 361.865932 
L 256.97799 359.698658 
L 258.579904 350.872892 
L 260.181818 344.240511 
L 261.783732 343.953282 
L 263.385646 341.237662 
L 264.98756 340.793762 
L 266.589474 343.352712 
L 268.191388 333.325806 
L 269.793301 334.422499 
L 271.395215 339.697069 
L 272.997129 333.482476 
L 274.599043 332.881907 
L 276.200957 332.960242 
L 277.802871 340.793762 
L 279.404785 327.633448 
L 281.006699 322.776665 
L 282.608612 322.672218 
L 284.210526 315.204262 
L 285.81244 299.484998 
L 287.414354 260.578513 
L 289.016268 264.051374 
L 290.618182 248.514892 
L 292.220096 242.639751 
L 293.82201 225.745459 
L 295.423923 238.435762 
L 297.025837 233.108968 
L 298.627751 235.720142 
L 300.229665 246.791517 
L 301.831579 244.023673 
L 303.433493 240.237472 
L 305.035407 235.537359 
L 306.637321 236.634052 
L 308.239234 207.806697 
L 309.841148 198.928707 
L 311.443062 182.608873 
L 313.044976 169.448559 
L 314.64689 148.010825 
L 316.248804 128.087571 
L 317.850718 127.121437 
L 319.452632 143.937394 
L 321.054545 138.506153 
L 322.656459 107.668194 
L 324.258373 116.128397 
L 325.860287 79.859197 
L 327.462201 72.965699 
L 329.064115 134.746063 
L 330.666029 174.148671 
L 332.267943 191.565198 
L 333.869856 170.023017 
L 335.47177 174.697018 
L 337.073684 206.266105 
L 338.675598 206.553334 
L 340.277512 181.982192 
L 341.879426 181.721074 
L 343.48134 257.784557 
L 345.083254 250.656054 
L 346.685167 247.679316 
L 348.287081 256.217853 
L 349.888995 259.142368 
L 351.490909 264.364715 
L 353.092823 244.833137 
L 354.694737 238.618544 
L 356.296651 233.265639 
L 357.898565 223.813191 
L 359.500478 205.1433 
L 361.102392 214.256296 
L 362.704306 208.74672 
L 364.30622 214.647972 
L 365.908134 222.664274 
L 367.510048 218.38195 
L 369.111962 204.438283 
L 370.713876 210.809547 
L 372.315789 244.624243 
L 373.917703 249.951037 
L 375.519617 259.795161 
L 377.121531 276.297777 
L 378.723445 266.636436 
L 380.325359 261.675206 
L 381.927273 271.754336 
L 383.529187 261.753541 
L 385.1311 265.278625 
L 386.733014 257.52344 
L 388.334928 252.953887 
L 389.936842 250.421048 
L 391.538756 252.562211 
L 393.14067 246.399841 
L 394.742584 253.554456 
L 396.344498 254.651149 
L 397.946411 261.100748 
L 399.548325 259.116256 
L 401.150239 259.507932 
L 402.752153 260.970189 
L 404.354067 252.274981 
L 405.955981 256.374524 
L 407.557895 254.651149 
L 409.159809 252.718881 
L 412.363636 240.315807 
L 413.96555 243.292545 
L 415.567464 244.780914 
L 417.169378 246.478176 
L 418.771292 242.77031 
L 420.373206 233.108968 
L 421.97512 236.164041 
L 423.577033 236.2946 
L 425.178947 235.746253 
L 426.780861 243.083651 
L 428.382775 240.446366 
L 429.984689 241.986958 
L 431.586603 238.279092 
L 433.188517 236.712388 
L 434.790431 235.981259 
L 436.392344 235.015125 
L 437.994258 230.57613 
L 439.596172 230.57613 
L 441.198086 223.029839 
L 442.8 222.638163 
L 444.401914 225.144889 
L 446.003828 235.746253 
L 447.605742 238.540209 
L 449.207656 238.357427 
L 450.809569 235.69403 
L 452.411483 237.782969 
L 454.013397 235.197907 
L 455.615311 234.440667 
L 457.217225 230.863359 
L 458.819139 230.080007 
L 460.421053 226.189358 
L 462.022967 229.53166 
L 463.62488 229.453325 
L 465.226794 227.991068 
L 466.828708 224.805436 
L 468.430622 227.103269 
L 470.032536 222.664274 
L 471.63445 226.763817 
L 474.838278 230.445571 
L 476.440191 235.902924 
L 478.042105 230.550018 
L 479.644019 229.688331 
L 481.245933 225.249336 
L 482.847847 218.303615 
L 484.449761 221.437023 
L 486.051675 213.942955 
L 487.653589 210.600653 
L 489.255502 210.783435 
L 490.857416 206.34444 
L 492.45933 204.255501 
L 494.061244 204.647177 
L 495.663158 205.534976 
L 497.265072 209.765077 
L 498.866986 204.046607 
L 500.4689 198.850372 
L 502.070813 196.030305 
L 503.672727 196.369757 
L 506.876555 195.638629 
L 508.478469 195.743076 
L 510.080383 189.685153 
L 511.682297 189.502371 
L 513.284211 182.608873 
L 514.886124 185.141711 
L 516.488038 176.23761 
L 518.089952 176.159275 
L 519.691866 177.43875 
L 521.29378 185.037264 
L 522.895694 184.723924 
L 524.497608 186.342851 
L 526.099522 181.303286 
L 527.701435 183.340002 
L 529.303349 175.428146 
L 530.905263 169.344112 
L 532.507177 165.479575 
L 534.109091 158.664412 
L 535.711005 166.75905 
L 537.312919 196.891992 
L 538.914833 180.546046 
L 540.516746 184.045019 
L 542.11866 177.412638 
L 543.720574 181.120504 
L 545.322488 192.035209 
L 546.924402 193.158014 
L 548.526316 191.042963 
L 550.12823 203.02825 
L 551.730144 196.970327 
L 553.332057 200.417076 
L 554.933971 193.54969 
L 556.535885 195.455847 
L 558.137799 197.805903 
L 559.739713 199.26816 
L 561.341627 196.996439 
L 562.943541 200.704305 
L 564.545455 211.096776 
L 566.147368 217.02414 
L 567.749282 228.382744 
L 569.351196 218.303615 
L 570.95311 221.045347 
L 572.555024 213.707949 
L 574.156938 224.935995 
L 575.758852 222.951503 
L 577.360766 231.202812 
L 578.962679 227.991068 
L 580.564593 225.667124 
L 582.166507 231.516152 
L 583.768421 233.187303 
L 585.370335 228.095515 
L 586.972249 219.113078 
L 588.574163 237.80908 
L 590.176077 240.603036 
L 591.77799 237.887416 
L 593.379904 229.557772 
L 594.981818 237.782969 
L 596.583732 231.411705 
L 598.185646 239.349673 
L 599.78756 237.312957 
L 601.389474 236.660164 
L 602.991388 237.65241 
L 604.593301 247.078746 
L 606.195215 248.436556 
L 607.797129 245.407595 
L 609.399043 244.519796 
L 611.000957 236.399047 
L 612.602871 236.529605 
L 614.204785 228.043292 
L 615.806699 218.303615 
L 617.408612 198.798149 
L 619.010526 194.280819 
L 620.61244 198.850372 
L 622.214354 190.416282 
L 623.816268 198.014797 
L 625.418182 182.138862 
L 627.020096 175.140917 
L 628.62201 174.801464 
L 630.223923 179.083789 
L 631.825837 186.212293 
L 633.427751 198.693702 
L 635.029665 204.177166 
L 636.631579 207.54558 
L 638.233493 204.594954 
L 639.835407 205.717758 
L 641.437321 202.453792 
L 643.039234 189.580706 
L 644.641148 190.102941 
L 646.243062 185.220047 
L 647.844976 190.050718 
L 649.44689 189.841824 
L 651.048804 186.186181 
L 654.252632 201.252652 
L 655.854545 195.925858 
L 657.456459 188.43179 
L 659.058373 189.867935 
L 660.660287 179.632135 
L 662.262201 179.057677 
L 663.864115 183.627231 
L 665.466029 188.849578 
L 667.067943 179.423242 
L 668.669856 184.410583 
L 670.27177 181.35551 
L 671.873684 177.856537 
L 673.475598 182.974437 
L 675.077512 182.661097 
L 676.679426 184.6717 
L 678.28134 187.570103 
L 679.883254 183.836125 
L 681.485167 177.464861 
L 683.087081 178.901007 
L 684.688995 171.145822 
L 686.290909 165.923475 
L 687.892823 163.965095 
L 689.494737 168.926324 
L 691.096651 187.778997 
L 692.698565 177.517085 
L 694.300478 173.104202 
L 695.902392 171.72028 
L 697.504306 168.978548 
L 699.10622 174.697018 
L 700.708134 200.417076 
L 702.310048 195.038059 
L 703.911962 198.197579 
L 705.513876 190.494617 
L 707.115789 189.841824 
L 708.717703 188.092337 
L 710.319617 182.634985 
L 711.921531 179.240459 
L 713.523445 179.527688 
L 715.125359 184.985041 
L 716.727273 177.308191 
L 718.329187 173.051978 
L 719.9311 175.114805 
L 721.533014 167.542402 
L 723.134928 152.60649 
L 724.736842 119.105134 
L 726.338756 139.080611 
L 727.94067 125.789738 
L 729.542584 129.419269 
L 731.144498 122.813001 
L 732.746411 130.881527 
L 734.348325 128.192018 
L 735.950239 124.484152 
L 737.552153 119.000687 
L 739.154067 134.067158 
L 740.755981 130.463739 
L 742.357895 134.928846 
L 745.561722 119.679592 
L 747.163636 124.353593 
L 748.76555 125.81585 
L 750.367464 113.308329 
L 751.969378 115.110039 
L 753.571292 109.574351 
L 755.173206 107.224295 
L 756.77512 102.02806 
L 758.377033 113.308329 
L 759.978947 106.414831 
L 761.580861 103.646987 
L 763.182775 89.207198 
L 764.784689 78.109711 
L 766.386603 73.331263 
L 767.988517 66.96 
L 769.590431 79.15418 
L 771.192344 70.693978 
L 772.794258 68.996715 
L 774.396172 79.493633 
L 775.998086 99.234104 
L 777.6 101.766942 
L 777.6 101.766942 
" style="fill:none;stroke:#ff0000;stroke-linecap:square;stroke-width:1.5;"/>
   </g>
   <g id="patch_3">
    <path d="M 108 384.48 
L 108 51.84 
" style="fill:none;stroke:#000000;stroke-linecap:square;stroke-linejoin:miter;stroke-width:0.8;"/>
   </g>
   <g id="patch_4">
    <path d="M 777.6 384.48 
L 777.6 51.84 
" style="fill:none;stroke:#000000;stroke-linecap:square;stroke-linejoin:miter;stroke-width:0.8;"/>
   </g>
   <g id="patch_5">
    <path d="M 108 384.48 
L 777.6 384.48 
" style="fill:none;stroke:#000000;stroke-linecap:square;stroke-linejoin:miter;stroke-width:0.8;"/>
   </g>
   <g id="patch_6">
    <path d="M 108 51.84 
L 777.6 51.84 
" style="fill:none;stroke:#000000;stroke-linecap:square;stroke-linejoin:miter;stroke-width:0.8;"/>
   </g>
   <g id="text_18">
    <!-- 股债不同比例回测结果：招商产业债+沪深300 -->
    <defs>
     <path d="M 8.6875 78.078125 
L 37.59375 78.078125 
L 37.59375 -0.921875 
Q 37.59375 -11.28125 28.125 -11.28125 
Q 23.734375 -11.28125 18.5625 -11.078125 
Q 18.265625 -8.34375 17.390625 -3.859375 
Q 22.5625 -4.4375 26.265625 -4.4375 
Q 30.28125 -4.4375 30.28125 0.046875 
L 30.28125 22.125 
L 16.015625 22.125 
Q 15.765625 -1.21875 7.125 -13.234375 
Q 4.59375 -10.40625 1.078125 -7.765625 
Q 8.6875 2.875 8.6875 23.484375 
z
M 41.3125 30.8125 
L 41.3125 37.75 
L 89.359375 37.75 
L 89.359375 30.8125 
Q 83.6875 16.890625 73.78125 6.546875 
Q 83.796875 -0.390625 98.4375 -4.25 
Q 95.40625 -8.15625 93.453125 -11.765625 
Q 78.421875 -6.734375 68.0625 1.21875 
Q 57.625 -7.671875 43.265625 -13.328125 
Q 40.4375 -8.734375 38.578125 -6.59375 
Q 52.59375 -1.171875 62.359375 6.203125 
Q 52 16.5 47.90625 30.8125 
z
M 88.671875 50.046875 
Q 94.140625 49.953125 98.828125 50.34375 
L 97.46875 43.015625 
Q 91.3125 42.828125 86.8125 42.828125 
Q 76.953125 42.828125 76.953125 54.15625 
L 76.953125 71.046875 
L 58.890625 71.046875 
L 58.890625 65.1875 
Q 58.890625 48.390625 45.015625 39.3125 
Q 42.578125 42.234375 39.75 45.265625 
Q 51.5625 51.703125 51.5625 65.375 
L 51.5625 77.984375 
L 84.28125 77.984375 
L 84.28125 54.4375 
Q 84.28125 50.046875 88.671875 50.046875 
z
M 81.0625 30.8125 
L 55.375 30.8125 
Q 59.328125 19.28125 68.109375 11.140625 
Q 77.046875 19.828125 81.0625 30.8125 
z
M 16.015625 28.5625 
L 30.28125 28.5625 
L 30.28125 47.015625 
L 16.015625 47.015625 
z
M 30.28125 71.625 
L 16.015625 71.625 
L 16.015625 53.46875 
L 30.28125 53.46875 
z
" id="MicrosoftYaHei-80a1"/>
     <path d="M 26.859375 47.40625 
L 58.984375 47.40625 
L 58.984375 54.34375 
L 34.1875 54.34375 
L 34.1875 60.5 
L 58.984375 60.5 
L 58.984375 67.328125 
L 31.0625 67.328125 
L 31.0625 73.484375 
L 58.984375 73.484375 
L 58.984375 82.171875 
L 66.3125 82.171875 
L 66.3125 73.484375 
L 95.125 73.484375 
L 95.125 67.328125 
L 66.3125 67.328125 
L 66.3125 60.5 
L 90.328125 60.5 
L 90.328125 54.34375 
L 66.3125 54.34375 
L 66.3125 47.40625 
L 97.953125 47.40625 
L 97.953125 41.265625 
L 26.859375 41.265625 
z
M 1.265625 35.203125 
Q 12.890625 54.25 19.34375 82.375 
L 26.46875 81.109375 
Q 23.640625 70.65625 20.40625 61.375 
L 20.40625 -13.71875 
L 13.28125 -13.71875 
L 13.28125 44.09375 
Q 8.890625 35.015625 3.90625 27.390625 
Q 2.734375 31.390625 1.265625 35.203125 
z
M 34.859375 34.625 
L 89.15625 34.625 
L 89.15625 4.4375 
L 82.03125 4.4375 
L 82.03125 28.265625 
L 42 28.265625 
L 42 3.953125 
L 34.859375 3.953125 
z
M 58.5 25.140625 
L 65.625 25.140625 
Q 65.625 17.046875 64.0625 10.984375 
Q 80.5625 2.78125 97.265625 -7.765625 
L 92.875 -14.015625 
Q 77.546875 -3.953125 61.921875 4.9375 
Q 60.546875 2.09375 58.6875 0.046875 
Q 50.875 -8.9375 31.453125 -13.921875 
Q 28.515625 -8.453125 27.25 -6.890625 
Q 45.90625 -2.875 52.25 3.859375 
Q 58.5 9.8125 58.5 25.140625 
z
" id="MicrosoftYaHei-503a"/>
     <path d="M 3.515625 74.5625 
L 96.578125 74.5625 
L 96.578125 66.9375 
L 60.640625 66.9375 
Q 55.953125 58.84375 48.140625 47.703125 
L 53.8125 47.703125 
L 53.8125 -13.53125 
L 45.40625 -13.53125 
L 45.40625 44.671875 
Q 28.71875 24.078125 6.0625 9.515625 
Q 3.609375 13.03125 0.59375 16.546875 
Q 31.34375 35.796875 50.203125 66.9375 
L 3.515625 66.9375 
z
M 63.578125 44.671875 
Q 81.84375 33.546875 98.828125 22.015625 
L 93.265625 14.3125 
Q 73.140625 29.25 58.796875 38.03125 
z
" id="MicrosoftYaHei-4e0d"/>
     <path d="M 15.828125 -12.0625 
L 8.296875 -12.0625 
L 8.296875 77.484375 
L 91.5 77.484375 
L 91.5 -0.734375 
Q 91.5 -11.578125 80.078125 -11.578125 
Q 72.953125 -11.578125 63.875 -11.1875 
Q 63.375 -7.765625 62.5 -3.375 
Q 72.171875 -4.25 78.515625 -4.25 
Q 83.984375 -4.25 83.984375 1.21875 
L 83.984375 70.265625 
L 15.828125 70.265625 
z
M 29.296875 40.09375 
L 70.40625 40.09375 
L 70.40625 9.328125 
L 36.53125 9.328125 
L 36.53125 4.25 
L 29.296875 4.25 
z
M 63.1875 33.0625 
L 36.53125 33.0625 
L 36.53125 16.359375 
L 63.1875 16.359375 
z
M 21.296875 58.34375 
L 78.515625 58.34375 
L 78.515625 51.3125 
L 21.296875 51.3125 
z
" id="MicrosoftYaHei-540c"/>
     <path d="M 50.390625 83.0625 
L 58.5 83.0625 
L 58.5 41.75 
Q 77.484375 55.46875 89.75 70.453125 
L 96.6875 65.28125 
Q 80.859375 47.859375 58.5 32.125 
L 58.5 3.859375 
Q 58.5 -2.59375 64.15625 -2.59375 
L 80.859375 -2.59375 
Q 87.3125 -2.59375 88.28125 3.171875 
Q 89.453125 10.59375 90.046875 19.484375 
Q 94.140625 17.921875 98.4375 16.65625 
Q 97.5625 7.5625 96.09375 0.34375 
Q 94.046875 -9.71875 83.109375 -9.71875 
L 61.625 -9.71875 
Q 50.390625 -9.71875 50.390625 2.484375 
z
M 16.609375 80.515625 
L 16.609375 51.21875 
L 44.140625 51.21875 
L 44.140625 43.890625 
L 16.609375 43.890625 
L 16.609375 2.390625 
Q 26.765625 6.6875 43.171875 14.5 
Q 43.171875 9.90625 43.5625 5.71875 
Q 29.203125 -0.046875 19.234375 -5.125 
Q 14.9375 -7.375 11.328125 -10.5 
L 5.375 -2.875 
Q 8.5 -0.53125 8.5 4.25 
L 8.5 80.515625 
z
" id="MicrosoftYaHei-6bd4"/>
     <path d="M 37.203125 28.765625 
L 41.109375 34.234375 
Q 45.5625 31.203125 50.734375 27.15625 
Q 54.5 37.15625 55.953125 48.875 
L 42.234375 48.875 
Q 36.71875 31 28.609375 20.171875 
Q 26.5625 23.296875 23.921875 26.21875 
Q 34.96875 42.09375 40.28125 70.65625 
L 29.6875 70.65625 
L 29.6875 77.484375 
L 67.484375 77.484375 
L 67.484375 70.65625 
L 47.5625 70.65625 
Q 46.046875 62.640625 44.1875 55.609375 
L 63.1875 55.609375 
L 63.1875 48.875 
Q 59.1875 10.40625 31.84375 -12.84375 
Q 29.6875 -9.90625 26.46875 -6.5 
Q 40.28125 4.640625 47.859375 20.359375 
Q 43.015625 24.3125 37.203125 28.765625 
z
M 1.375 35.796875 
Q 13.96875 57.171875 20.015625 83.15625 
L 27.25 81.78125 
Q 24.65625 70.84375 20.703125 60.203125 
L 20.703125 -12.640625 
L 14.0625 -12.640625 
L 14.0625 44.484375 
Q 9.765625 35.546875 4.5 26.8125 
Q 3.328125 30.71875 1.375 35.796875 
z
M 87.109375 82.859375 
L 94.234375 82.859375 
L 94.234375 1.3125 
Q 94.234375 -6.109375 91.890625 -8.84375 
Q 89.84375 -11.375 83.6875 -11.46875 
Q 79.5 -11.578125 70.125 -11.28125 
Q 69.734375 -7.28125 68.75 -3.171875 
Q 76.265625 -3.953125 81.0625 -3.953125 
Q 84.859375 -4.046875 85.9375 -2.59375 
Q 87.109375 -1.3125 87.109375 3.65625 
z
M 76.765625 10.203125 
L 69.828125 10.203125 
L 69.828125 67.53125 
L 76.765625 67.53125 
z
" id="MicrosoftYaHei-4f8b"/>
     <path d="M 7.421875 77.296875 
L 92.78125 77.296875 
L 92.78125 -12.15625 
L 84.578125 -12.15625 
L 84.578125 -5.90625 
L 15.625 -5.90625 
L 15.625 -12.15625 
L 7.421875 -12.15625 
z
M 84.578125 70.0625 
L 15.625 70.0625 
L 15.625 1.125 
L 84.578125 1.125 
z
M 29.296875 55.125 
L 70.796875 55.125 
L 70.796875 12.453125 
L 63.1875 12.453125 
L 63.1875 17.921875 
L 36.921875 17.921875 
L 36.921875 12.453125 
L 29.296875 12.453125 
z
M 63.1875 48.296875 
L 36.921875 48.296875 
L 36.921875 24.75 
L 63.1875 24.75 
z
" id="MicrosoftYaHei-56de"/>
     <path d="M 13.671875 27.390625 
Q 18.359375 24.953125 21.390625 23.78125 
Q 14.84375 -0.640625 11.921875 -12.25 
L 3.90625 -8.546875 
Q 9.671875 7.765625 13.671875 27.390625 
z
M 9.96875 80.71875 
Q 15.921875 75.734375 24.8125 67.234375 
Q 21.578125 64.109375 18.953125 61.375 
Q 11.8125 69.28125 4.890625 75.828125 
z
M 5.5625 55.609375 
Q 13.765625 48.96875 21.09375 42.4375 
Q 18.5625 39.796875 15.4375 36.28125 
Q 6.640625 44.96875 0.78125 50.25 
z
M 87.109375 82.5625 
L 94.234375 82.5625 
L 94.234375 -0.53125 
Q 94.234375 -11.765625 83.40625 -11.765625 
Q 78.71875 -11.765625 72.265625 -11.578125 
Q 71.875 -7.953125 70.90625 -3.5625 
Q 77.15625 -4.25 81.546875 -4.25 
Q 87.109375 -4.25 87.109375 1.3125 
z
M 78.71875 9.90625 
L 71.875 9.90625 
L 71.875 74.65625 
L 78.71875 74.65625 
z
M 26.65625 77.203125 
L 63.484375 77.203125 
L 63.484375 15.484375 
L 56.453125 15.484375 
L 56.453125 70.359375 
L 33.6875 70.359375 
L 33.6875 15.484375 
L 26.65625 15.484375 
z
M 41.890625 61.96875 
L 49.03125 61.96875 
L 49.03125 37.75 
Q 49.03125 22.90625 46.296875 13.921875 
Q 58.984375 4.15625 68.359375 -3.65625 
L 63.09375 -9.625 
Q 55.28125 -2.203125 43.75 7.375 
Q 37.703125 -4.640625 21.96875 -13.8125 
Q 19.828125 -10.6875 17.1875 -7.5625 
Q 31.734375 0.828125 37.109375 11.078125 
Q 41.890625 19.96875 41.890625 37.546875 
z
" id="MicrosoftYaHei-6d4b"/>
     <path d="M 41.015625 26.703125 
L 92.578125 26.703125 
L 92.578125 -12.9375 
L 84.96875 -12.9375 
L 84.96875 -6.890625 
L 48.640625 -6.890625 
L 48.640625 -12.9375 
L 41.015625 -12.9375 
z
M 39.0625 45.265625 
L 62.890625 45.265625 
L 62.890625 60.5 
L 35.84375 60.5 
L 35.84375 67.53125 
L 62.890625 67.53125 
L 62.890625 83.15625 
L 70.703125 83.15625 
L 70.703125 67.53125 
L 98.046875 67.53125 
L 98.046875 60.5 
L 70.703125 60.5 
L 70.703125 45.265625 
L 94.625 45.265625 
L 94.625 38.234375 
L 39.0625 38.234375 
z
M 13.96875 24.46875 
Q 26.953125 26.3125 35.453125 27.78125 
Q 34.859375 23.96875 34.578125 20.359375 
Q 23.734375 18.796875 4.984375 15.765625 
L 3.421875 23 
Q 9.671875 29.5 18.3125 43.609375 
Q 10.109375 43.0625 3.421875 42.53125 
L 1.5625 49.171875 
Q 10.546875 61.1875 20.21875 83.84375 
L 27.640625 80.90625 
Q 17.09375 60.203125 10.359375 49.75 
Q 16.015625 49.90625 22.171875 50.09375 
Q 25.484375 55.765625 29.109375 62.453125 
L 36.328125 58.84375 
Q 25.203125 40.28125 13.96875 24.46875 
z
M 84.96875 19.875 
L 48.640625 19.875 
L 48.640625 -0.046875 
L 84.96875 -0.046875 
z
M 1.171875 1.421875 
Q 19.234375 4.9375 36.421875 9.125 
Q 36.140625 5.21875 36.140625 1.703125 
Q 20.3125 -1.609375 3.328125 -6.109375 
z
" id="MicrosoftYaHei-7ed3"/>
     <path d="M 99.03125 -0.828125 
Q 95.3125 -4.828125 92.875 -8.15625 
Q 69.140625 -0.640625 53.71875 18.453125 
L 53.71875 -13.140625 
L 46.296875 -13.140625 
L 46.296875 18.5625 
Q 32.5625 2.6875 7.03125 -9.421875 
Q 4.6875 -6.5 1.171875 -3.171875 
Q 24.21875 5.671875 38.625 19.671875 
L 3.328125 19.671875 
L 3.328125 26.703125 
L 46.296875 26.703125 
L 46.296875 37.25 
L 20.40625 37.25 
L 20.40625 33.453125 
L 12.984375 33.453125 
L 12.984375 78.375 
L 87.015625 78.375 
L 87.015625 33.453125 
L 79.59375 33.453125 
L 79.59375 37.25 
L 53.71875 37.25 
L 53.71875 26.703125 
L 96.875 26.703125 
L 96.875 19.671875 
L 60.25 19.671875 
Q 74.515625 4.59375 99.03125 -0.828125 
z
M 53.71875 43.890625 
L 79.59375 43.890625 
L 79.59375 54.640625 
L 53.71875 54.640625 
z
M 79.59375 71.734375 
L 53.71875 71.734375 
L 53.71875 60.984375 
L 79.59375 60.984375 
z
M 20.40625 43.890625 
L 46.296875 43.890625 
L 46.296875 54.640625 
L 20.40625 54.640625 
z
M 20.40625 60.984375 
L 46.296875 60.984375 
L 46.296875 71.734375 
L 20.40625 71.734375 
z
" id="MicrosoftYaHei-679c"/>
     <path d="M 50.09375 55.171875 
Q 52.6875 55.171875 54.53125 53.359375 
Q 56.390625 51.5625 56.390625 49.03125 
Q 56.390625 46.484375 54.578125 44.65625 
Q 52.78125 42.828125 50.09375 42.828125 
Q 47.40625 42.828125 45.59375 44.65625 
Q 43.796875 46.484375 43.796875 49.03125 
Q 43.796875 51.5625 45.65625 53.359375 
Q 47.515625 55.171875 50.09375 55.171875 
z
M 50.09375 11.1875 
Q 52.6875 11.1875 54.53125 9.375 
Q 56.390625 7.5625 56.390625 4.984375 
Q 56.390625 2.34375 54.53125 0.5625 
Q 52.6875 -1.21875 50.09375 -1.21875 
Q 47.515625 -1.21875 45.65625 0.5625 
Q 43.796875 2.34375 43.796875 4.984375 
Q 43.796875 7.5625 45.65625 9.375 
Q 47.515625 11.1875 50.09375 11.1875 
z
" id="MicrosoftYaHei-ff1a"/>
     <path d="M 39.453125 30.609375 
L 91.609375 30.609375 
L 91.609375 -12.9375 
L 84.1875 -12.9375 
L 84.1875 -6.203125 
L 46.875 -6.203125 
L 46.875 -13.03125 
L 39.453125 -13.03125 
z
M 36.328125 77.875 
L 93.65625 77.875 
Q 93.453125 66.0625 92.78125 53.65625 
Q 91.890625 39.203125 78.328125 38.921875 
Q 71.296875 38.71875 61.234375 38.921875 
Q 60.546875 43.796875 59.859375 47.015625 
Q 69.046875 46.234375 76.46875 46.234375 
Q 84.765625 46.234375 85.25 54.734375 
Q 85.84375 61.859375 85.9375 70.953125 
L 60.0625 70.953125 
Q 59.625 58.59375 55.953125 51.703125 
Q 50.984375 42.328125 37.59375 34.515625 
Q 35.546875 37.359375 32.515625 40.96875 
Q 44.734375 47.609375 48.734375 54.546875 
Q 52.09375 59.71875 52.4375 70.953125 
L 36.328125 70.953125 
z
M 1.375 30.515625 
Q 8.546875 32.171875 15.140625 33.796875 
L 15.140625 57.078125 
L 2.25 57.078125 
L 2.25 63.921875 
L 15.140625 63.921875 
L 15.140625 82.859375 
L 22.359375 82.859375 
L 22.359375 63.921875 
L 35.15625 63.921875 
L 35.15625 57.078125 
L 22.359375 57.078125 
L 22.359375 35.59375 
Q 27.640625 36.96875 32.515625 38.328125 
Q 32.90625 33.34375 33.203125 31.109375 
Q 27.59375 29.59375 22.359375 28.171875 
L 22.359375 -1.125 
Q 22.359375 -11.859375 12.59375 -11.859375 
Q 9.28125 -11.859375 3.421875 -11.671875 
Q 3.03125 -7.671875 2.15625 -3.953125 
Q 7.8125 -4.640625 10.84375 -4.640625 
Q 15.140625 -4.640625 15.140625 0.34375 
L 15.140625 26.171875 
Q 8.40625 24.265625 2.34375 22.515625 
z
M 84.1875 23.6875 
L 46.875 23.6875 
L 46.875 0.53125 
L 84.1875 0.53125 
z
" id="MicrosoftYaHei-62db"/>
     <path d="M 9.375 51.703125 
L 33.109375 51.703125 
Q 29.734375 56.640625 25.78125 61.46875 
L 31.734375 65.484375 
Q 36.421875 60.015625 40.234375 55.328125 
L 34.96875 51.703125 
L 57.125 51.703125 
Q 62.0625 58.0625 66.21875 65.09375 
L 73.640625 60.796875 
Q 69 55.28125 65.828125 51.703125 
L 90.140625 51.703125 
L 90.140625 0.53125 
Q 90.140625 -11.765625 78.90625 -11.859375 
Q 72.859375 -11.96875 65.234375 -11.765625 
Q 64.453125 -6.109375 63.765625 -3.5625 
Q 71.484375 -4.34375 76.46875 -4.34375 
Q 82.8125 -4.34375 82.8125 2.6875 
L 82.8125 44.96875 
L 16.703125 44.96875 
L 16.703125 -13.03125 
L 9.375 -13.03125 
z
M 30.46875 -3.375 
L 30.46875 28.078125 
L 69.625 28.078125 
L 69.625 1.8125 
L 37.5 1.8125 
L 37.5 -3.375 
z
M 2.25 72.609375 
L 46.828125 72.609375 
Q 44.96875 76.078125 42.28125 80.328125 
L 49.8125 83.734375 
Q 52.734375 78.71875 55.953125 72.609375 
L 98.046875 72.609375 
L 98.046875 65.671875 
L 2.25 65.671875 
z
M 62.59375 8.0625 
L 62.59375 21.828125 
L 37.5 21.828125 
L 37.5 8.0625 
z
M 37.984375 43.890625 
L 43.265625 38.8125 
Q 31.84375 29.046875 21.875 21.625 
Q 18.953125 25.640625 17.28125 27.390625 
Q 28.03125 34.515625 37.984375 43.890625 
z
M 55.171875 38.53125 
L 59.46875 43.890625 
Q 73.921875 34.8125 81.34375 29.34375 
L 76.46875 23.1875 
Q 66.796875 31 55.171875 38.53125 
z
" id="MicrosoftYaHei-5546"/>
     <path d="M 11.625 43.890625 
L 57.8125 43.890625 
Q 64.40625 53.609375 69.625 63.234375 
L 77.15625 58.453125 
Q 71.96875 51.171875 66.3125 43.890625 
L 95.21875 43.890625 
L 95.21875 37.0625 
L 19.53125 37.0625 
L 19.53125 30.21875 
Q 19.53125 12.9375 16.890625 4.4375 
Q 14.15625 -5.03125 6.546875 -13.328125 
Q 4 -10.203125 1.265625 -6.6875 
Q 7.03125 -0.53125 9.375 7.765625 
Q 11.625 15.875 11.625 30.21875 
z
M 3.609375 71.828125 
L 48.1875 71.828125 
Q 46.046875 75.828125 43.453125 80.03125 
L 50.6875 83.640625 
Q 53.859375 78.46875 57.171875 71.828125 
L 97.75 71.828125 
L 97.75 64.890625 
L 3.609375 64.890625 
z
M 24.03125 59.328125 
L 30.46875 63.625 
Q 36.53125 56 41.21875 49.171875 
L 34.28125 44.390625 
Q 30.46875 50.828125 24.03125 59.328125 
z
" id="MicrosoftYaHei-4ea7"/>
     <path d="M 1.859375 0.734375 
L 33.203125 0.734375 
L 33.203125 81.390625 
L 41.40625 81.390625 
L 41.40625 0.734375 
L 58.5 0.734375 
L 58.5 81.390625 
L 66.703125 81.390625 
L 66.703125 0.734375 
L 98.34375 0.734375 
L 98.34375 -6.5 
L 1.859375 -6.5 
z
M 13.1875 62.25 
Q 21.1875 43.40625 28.71875 22.21875 
L 20.703125 18.609375 
Q 14.15625 39.203125 6.0625 59.125 
z
M 70.21875 21.34375 
Q 79.984375 42.046875 86.625 61.375 
L 94.53125 58.25 
Q 85.453125 34.90625 77.25 18.109375 
z
" id="MicrosoftYaHei-4e1a"/>
     <path d="M 62.0625 27.6875 
L 40.828125 27.6875 
L 40.828125 6.546875 
L 33.453125 6.546875 
L 33.453125 27.6875 
L 12.3125 27.6875 
L 12.3125 35.15625 
L 33.453125 35.15625 
L 33.453125 56.296875 
L 40.828125 56.296875 
L 40.828125 35.15625 
L 62.0625 35.15625 
z
" id="MicrosoftYaHei-2b"/>
     <path d="M 55.46875 79.34375 
L 61.921875 83.453125 
Q 66.3125 78.171875 70.703125 72.125 
L 64.9375 68.40625 
L 93.75 68.40625 
L 93.75 24.265625 
L 86.234375 24.265625 
L 86.234375 28.953125 
L 42.484375 28.953125 
Q 41.890625 3.375 28.71875 -13.71875 
Q 25.6875 -10.6875 22.359375 -8.15625 
Q 35.359375 7.078125 35.25 36.859375 
L 35.25 68.40625 
L 63.09375 68.40625 
Q 59.859375 73.6875 55.46875 79.34375 
z
M 42.875 61.375 
Q 42.875 42.4375 42.78125 35.984375 
L 86.234375 35.984375 
L 86.234375 61.375 
z
M 15.921875 27.203125 
Q 20.21875 24.953125 24.21875 23.296875 
Q 19.140625 6.890625 12.984375 -12.640625 
L 4.296875 -8.640625 
Q 11.140625 8.0625 15.921875 27.203125 
z
M 5.375 56.109375 
Q 15.828125 49.859375 24.03125 43.609375 
L 18.65625 36.578125 
Q 8.890625 44.484375 0.6875 49.859375 
z
M 10.640625 81.59375 
Q 20.609375 74.75 28.21875 68.5 
L 22.859375 61.859375 
Q 13.484375 69.96875 5.765625 75.828125 
z
" id="MicrosoftYaHei-6caa"/>
     <path d="M 98.734375 2.203125 
Q 95.90625 -1.3125 93.171875 -4.734375 
Q 76.65625 6.0625 66.40625 23.046875 
L 66.40625 -12.75 
L 58.6875 -12.75 
L 58.6875 23.34375 
Q 47.65625 6.453125 29.78125 -5.8125 
Q 26.265625 -1.8125 23.921875 0.34375 
Q 45.0625 12.640625 56.640625 28.5625 
L 29.203125 28.5625 
L 29.203125 35.6875 
L 58.6875 35.6875 
L 58.6875 47.90625 
L 66.40625 47.90625 
L 66.40625 35.6875 
L 96.578125 35.6875 
L 96.578125 28.5625 
L 67.96875 28.5625 
Q 80.46875 11.671875 98.734375 2.203125 
z
M 31.84375 76.609375 
L 94.734375 76.609375 
L 94.734375 60.40625 
L 86.921875 60.40625 
L 86.921875 69.1875 
L 39.65625 69.1875 
L 39.65625 60.109375 
L 31.84375 60.109375 
z
M 15.328125 28.953125 
Q 19.4375 27.09375 23.34375 25.53125 
Q 18.75 9.625 11.921875 -11.96875 
L 3.609375 -8.84375 
Q 10.453125 9.421875 15.328125 28.953125 
z
M 53.21875 63.234375 
L 58.40625 57.953125 
Q 46.296875 47.3125 35.25 39.796875 
Q 33.203125 42.921875 30.46875 46.046875 
Q 43.359375 54.046875 53.21875 63.234375 
z
M 67 58.0625 
L 71.6875 63.234375 
Q 84.078125 54.828125 95.015625 46.046875 
L 89.84375 39.984375 
Q 79.109375 49.5625 67 58.0625 
z
M 10.359375 81.390625 
Q 21.1875 73.96875 29.59375 67.328125 
Q 26.46875 63.71875 24.125 60.984375 
Q 13.28125 70.265625 5.5625 75.828125 
z
M 6.34375 56.984375 
Q 17.09375 50.140625 25.390625 43.796875 
Q 23.921875 42.328125 20.125 37.359375 
Q 12.015625 44.09375 1.5625 51.421875 
z
" id="MicrosoftYaHei-6df1"/>
    </defs>
    <g transform="translate(319.794375 45.84)scale(0.12 -0.12)">
     <use xlink:href="#MicrosoftYaHei-80a1"/>
     <use x="100" xlink:href="#MicrosoftYaHei-503a"/>
     <use x="200" xlink:href="#MicrosoftYaHei-4e0d"/>
     <use x="300" xlink:href="#MicrosoftYaHei-540c"/>
     <use x="400" xlink:href="#MicrosoftYaHei-6bd4"/>
     <use x="500" xlink:href="#MicrosoftYaHei-4f8b"/>
     <use x="600" xlink:href="#MicrosoftYaHei-56de"/>
     <use x="700" xlink:href="#MicrosoftYaHei-6d4b"/>
     <use x="800" xlink:href="#MicrosoftYaHei-7ed3"/>
     <use x="900" xlink:href="#MicrosoftYaHei-679c"/>
     <use x="1000" xlink:href="#MicrosoftYaHei-ff1a"/>
     <use x="1100" xlink:href="#MicrosoftYaHei-62db"/>
     <use x="1200" xlink:href="#MicrosoftYaHei-5546"/>
     <use x="1300" xlink:href="#MicrosoftYaHei-4ea7"/>
     <use x="1400" xlink:href="#MicrosoftYaHei-4e1a"/>
     <use x="1500" xlink:href="#MicrosoftYaHei-503a"/>
     <use x="1600" xlink:href="#MicrosoftYaHei-2b"/>
     <use x="1674.169922" xlink:href="#MicrosoftYaHei-6caa"/>
     <use x="1774.169922" xlink:href="#MicrosoftYaHei-6df1"/>
     <use x="1874.169922" xlink:href="#MicrosoftYaHei-33"/>
     <use x="1932.8125" xlink:href="#MicrosoftYaHei-30"/>
     <use x="1991.455078" xlink:href="#MicrosoftYaHei-30"/>
    </g>
   </g>
   <g id="legend_1">
    <g id="patch_7">
     <path d="M 115 106.279063 
L 292.009375 106.279063 
Q 294.009375 106.279063 294.009375 104.279063 
L 294.009375 58.84 
Q 294.009375 56.84 292.009375 56.84 
L 115 56.84 
Q 113 56.84 113 58.84 
L 113 104.279063 
Q 113 106.279063 115 106.279063 
z
" style="fill:#ffffff;opacity:0.8;stroke:#cccccc;stroke-linejoin:miter;"/>
    </g>
    <g id="line2d_19">
     <path d="M 117 65.33375 
L 137 65.33375 
" style="fill:none;stroke:#0000ff;stroke-linecap:square;stroke-width:1.5;"/>
    </g>
    <g id="line2d_20"/>
    <g id="text_19">
     <!-- 招商产业债 -->
     <g transform="translate(145 68.83375)scale(0.1 -0.1)">
      <use xlink:href="#MicrosoftYaHei-62db"/>
      <use x="100" xlink:href="#MicrosoftYaHei-5546"/>
      <use x="200" xlink:href="#MicrosoftYaHei-4ea7"/>
      <use x="300" xlink:href="#MicrosoftYaHei-4e1a"/>
      <use x="400" xlink:href="#MicrosoftYaHei-503a"/>
     </g>
    </g>
    <g id="line2d_21">
     <path d="M 117 80.813438 
L 137 80.813438 
" style="fill:none;stroke:#008000;stroke-linecap:square;stroke-width:1.5;"/>
    </g>
    <g id="line2d_22"/>
    <g id="text_20">
     <!-- 招商产业债+沪深300等比例配置 -->
     <defs>
      <path d="M 1.953125 35.984375 
L 45.515625 35.984375 
L 45.515625 45.65625 
L 8.796875 45.65625 
L 8.796875 52 
L 45.515625 52 
L 45.515625 59.71875 
L 53.125 59.71875 
L 53.125 52 
L 91.40625 52 
L 91.40625 45.65625 
L 53.125 45.65625 
L 53.125 35.984375 
L 98.25 35.984375 
L 98.25 29.4375 
L 1.953125 29.4375 
z
M 5.28125 19.875 
L 66.40625 19.875 
L 66.40625 27.59375 
L 74.03125 27.59375 
L 74.03125 19.875 
L 94.921875 19.875 
L 94.921875 13.328125 
L 74.03125 13.328125 
L 74.03125 0.34375 
Q 74.03125 -11.96875 61.328125 -11.96875 
Q 53.90625 -11.96875 46.390625 -11.859375 
Q 45.90625 -8.34375 44.921875 -3.5625 
Q 52.734375 -4.34375 59.28125 -4.34375 
Q 66.40625 -4.34375 66.40625 1.421875 
L 66.40625 13.328125 
L 5.28125 13.328125 
z
M 20.21875 83.546875 
L 28.609375 83.546875 
Q 26.375 78.765625 23.640625 74.359375 
L 51.953125 74.359375 
L 51.953125 68.3125 
L 19.4375 68.3125 
Q 13.671875 60.59375 6.0625 54.046875 
Q 4.109375 56.390625 1.171875 59.328125 
Q 13.375 69.1875 20.21875 83.546875 
z
M 62.015625 83.546875 
L 70.40625 83.546875 
Q 68.21875 78.71875 65.828125 74.359375 
L 97.265625 74.359375 
L 97.265625 68.3125 
L 62.25 68.3125 
Q 58.9375 63.09375 55.28125 58.734375 
Q 51.171875 61.671875 48.734375 62.640625 
Q 57.234375 71.828125 62.015625 83.546875 
z
M 23.4375 7.671875 
L 28.609375 12.640625 
Q 35.25 6.984375 42.1875 0.4375 
L 36.53125 -4.9375 
Q 31.25 0.640625 23.4375 7.671875 
z
M 31.546875 53.765625 
Q 27.828125 58.640625 23.4375 63.71875 
L 28.515625 67.328125 
Q 33.203125 62.84375 37.3125 58.15625 
z
M 74.125 53.765625 
Q 72.265625 56.6875 66.21875 63.71875 
L 71.296875 67.328125 
Q 76.5625 62.25 79.890625 58.15625 
z
" id="MicrosoftYaHei-7b49"/>
      <path d="M 6.0625 57.765625 
L 19.4375 57.765625 
L 19.4375 70.5625 
L 3.03125 70.5625 
L 3.03125 77 
L 54.78125 77 
L 54.78125 70.5625 
L 38.578125 70.5625 
L 38.578125 57.765625 
L 52.734375 57.765625 
L 52.734375 -11.96875 
L 46.1875 -11.96875 
L 46.1875 -5.71875 
L 12.59375 -5.71875 
L 12.59375 -12.0625 
L 6.0625 -12.0625 
z
M 59.859375 45.5625 
L 85.75 45.5625 
L 85.75 70.953125 
L 58.203125 70.953125 
L 58.203125 77.78125 
L 92.78125 77.78125 
L 92.78125 34.90625 
L 85.75 34.90625 
L 85.75 38.71875 
L 66.890625 38.71875 
L 66.890625 4.9375 
Q 66.890625 -2.78125 73.53125 -2.78125 
L 82.8125 -2.78125 
Q 88.578125 -2.78125 89.359375 2.984375 
Q 90.625 9.515625 91.109375 18.796875 
Q 93.84375 17.4375 98.4375 15.578125 
Q 97.75 7.671875 96.390625 0.53125 
Q 94.734375 -9.8125 84.078125 -9.8125 
L 71.484375 -9.8125 
Q 59.859375 -9.8125 59.859375 3.953125 
z
M 32.328125 35.796875 
L 32.328125 51.515625 
L 25.6875 51.515625 
L 25.6875 47.609375 
Q 25.6875 31.984375 17.578125 21.734375 
Q 15.234375 24.03125 12.59375 26.515625 
L 12.59375 18.40625 
L 46.1875 18.40625 
L 46.1875 27.78125 
L 39.265625 27.78125 
Q 32.328125 27.78125 32.328125 35.796875 
z
M 12.59375 0.53125 
L 46.1875 0.53125 
L 46.1875 12.25 
L 12.59375 12.25 
z
M 46.1875 51.515625 
L 38.578125 51.515625 
L 38.578125 37.9375 
Q 38.375 33.546875 42.1875 33.84375 
L 46.1875 33.84375 
z
M 12.59375 27.15625 
Q 19.4375 34.90625 19.4375 48.09375 
L 19.4375 51.515625 
L 12.59375 51.515625 
z
M 25.6875 57.765625 
L 32.328125 57.765625 
L 32.328125 70.5625 
L 25.6875 70.5625 
z
" id="MicrosoftYaHei-914d"/>
      <path d="M 1.46875 -4.4375 
L 16.015625 -4.4375 
L 16.015625 40.765625 
L 45.90625 40.765625 
L 45.90625 47.125 
L 3.8125 47.125 
L 3.8125 52.59375 
L 45.90625 52.59375 
L 45.90625 57.765625 
L 52.9375 57.765625 
L 52.9375 52.59375 
L 96.09375 52.59375 
L 96.09375 47.125 
L 52.9375 47.125 
L 52.9375 40.765625 
L 84.859375 40.765625 
L 84.859375 -4.4375 
L 98.34375 -4.4375 
L 98.34375 -10.109375 
L 1.46875 -10.109375 
z
M 9.96875 78.65625 
L 89.9375 78.65625 
L 89.9375 56.890625 
L 83.296875 56.890625 
L 83.296875 59.125 
L 16.703125 59.125 
L 16.703125 56.890625 
L 9.96875 56.890625 
z
M 22.859375 -4.4375 
L 78.03125 -4.4375 
L 78.03125 1.8125 
L 22.859375 1.8125 
z
M 22.859375 6.890625 
L 78.03125 6.890625 
L 78.03125 13.03125 
L 22.859375 13.03125 
z
M 22.859375 18.109375 
L 78.03125 18.109375 
L 78.03125 24.265625 
L 22.859375 24.265625 
z
M 78.03125 35.5 
L 22.859375 35.5 
L 22.859375 29.34375 
L 78.03125 29.34375 
z
M 83.296875 73.390625 
L 65.328125 73.390625 
L 65.328125 64.40625 
L 83.296875 64.40625 
z
M 41.015625 64.40625 
L 58.890625 64.40625 
L 58.890625 73.390625 
L 41.015625 73.390625 
z
M 16.703125 64.40625 
L 34.578125 64.40625 
L 34.578125 73.390625 
L 16.703125 73.390625 
z
" id="MicrosoftYaHei-7f6e"/>
     </defs>
     <g transform="translate(145 84.313438)scale(0.1 -0.1)">
      <use xlink:href="#MicrosoftYaHei-62db"/>
      <use x="100" xlink:href="#MicrosoftYaHei-5546"/>
      <use x="200" xlink:href="#MicrosoftYaHei-4ea7"/>
      <use x="300" xlink:href="#MicrosoftYaHei-4e1a"/>
      <use x="400" xlink:href="#MicrosoftYaHei-503a"/>
      <use x="500" xlink:href="#MicrosoftYaHei-2b"/>
      <use x="574.169922" xlink:href="#MicrosoftYaHei-6caa"/>
      <use x="674.169922" xlink:href="#MicrosoftYaHei-6df1"/>
      <use x="774.169922" xlink:href="#MicrosoftYaHei-33"/>
      <use x="832.8125" xlink:href="#MicrosoftYaHei-30"/>
      <use x="891.455078" xlink:href="#MicrosoftYaHei-30"/>
      <use x="950.097656" xlink:href="#MicrosoftYaHei-7b49"/>
      <use x="1050.097656" xlink:href="#MicrosoftYaHei-6bd4"/>
      <use x="1150.097656" xlink:href="#MicrosoftYaHei-4f8b"/>
      <use x="1250.097656" xlink:href="#MicrosoftYaHei-914d"/>
      <use x="1350.097656" xlink:href="#MicrosoftYaHei-7f6e"/>
     </g>
    </g>
    <g id="line2d_23">
     <path d="M 117 96.293125 
L 137 96.293125 
" style="fill:none;stroke:#ff0000;stroke-linecap:square;stroke-width:1.5;"/>
    </g>
    <g id="line2d_24"/>
    <g id="text_21">
     <!-- 工银沪深300 -->
     <defs>
      <path d="M 2.828125 1.515625 
L 45.609375 1.515625 
L 45.609375 66.65625 
L 8.40625 66.65625 
L 8.40625 74.46875 
L 91.609375 74.46875 
L 91.609375 66.65625 
L 54.203125 66.65625 
L 54.203125 1.515625 
L 97.078125 1.515625 
L 97.078125 -6.109375 
L 2.828125 -6.109375 
z
" id="MicrosoftYaHei-5de5"/>
      <path d="M 90.140625 27.6875 
L 95.125 22.015625 
Q 85.546875 15.28125 76.171875 9.515625 
Q 85.0625 0.140625 99.03125 -3.765625 
Q 96 -7.859375 93.953125 -11.1875 
Q 65.53125 -0.53125 57.234375 30.609375 
L 48.046875 30.609375 
L 48.046875 -1.21875 
Q 55.859375 2.484375 65.140625 7.5625 
Q 65.234375 3.078125 65.625 -0.34375 
Q 58.109375 -3.953125 46.96875 -10.203125 
Q 45.609375 -11.078125 42.875 -13.53125 
L 37.703125 -6.78125 
Q 40.828125 -3.5625 40.828125 0.4375 
L 40.828125 78.375 
L 89.15625 78.375 
L 89.15625 28.171875 
L 82.03125 28.171875 
L 82.03125 30.609375 
L 64.359375 30.609375 
Q 67.1875 21.4375 72.078125 14.5 
Q 81.640625 20.75 90.140625 27.6875 
z
M 36.53125 9.125 
Q 36.625 4.828125 37.015625 1.21875 
Q 29.890625 -2.78125 21.578125 -8.453125 
Q 19.140625 -10.203125 16.890625 -12.453125 
L 11.71875 -5.71875 
Q 14.9375 -2.59375 14.9375 1.609375 
L 14.9375 23.296875 
L 1.5625 23.296875 
L 1.5625 30.03125 
L 14.9375 30.03125 
L 14.9375 44.28125 
L 8.296875 44.28125 
L 8.296875 50.921875 
Q 6.734375 48.484375 5.078125 46.234375 
Q 3.21875 49.75 0.875 52.875 
Q 10.453125 66.265625 16.015625 83.0625 
L 23.140625 80.71875 
Q 20.703125 74.078125 17.78125 68.015625 
L 35.75 68.015625 
L 35.75 61.28125 
L 14.359375 61.28125 
Q 11.53125 55.90625 8.296875 51.03125 
L 33.40625 51.03125 
L 33.40625 44.28125 
L 21.96875 44.28125 
L 21.96875 30.03125 
L 36.140625 30.03125 
L 36.140625 23.296875 
L 21.96875 23.296875 
L 21.96875 0.046875 
Q 28.03125 3.765625 36.53125 9.125 
z
M 82.03125 37.25 
L 82.03125 51.3125 
L 48.046875 51.3125 
L 48.046875 37.25 
z
M 82.03125 71.734375 
L 48.046875 71.734375 
L 48.046875 57.765625 
L 82.03125 57.765625 
z
" id="MicrosoftYaHei-94f6"/>
     </defs>
     <g transform="translate(145 99.793125)scale(0.1 -0.1)">
      <use xlink:href="#MicrosoftYaHei-5de5"/>
      <use x="100" xlink:href="#MicrosoftYaHei-94f6"/>
      <use x="200" xlink:href="#MicrosoftYaHei-6caa"/>
      <use x="300" xlink:href="#MicrosoftYaHei-6df1"/>
      <use x="400" xlink:href="#MicrosoftYaHei-33"/>
      <use x="458.642578" xlink:href="#MicrosoftYaHei-30"/>
      <use x="517.285156" xlink:href="#MicrosoftYaHei-30"/>
     </g>
    </g>
   </g>
  </g>
 </g>
 <defs>
  <clipPath id="pab939a4940">
   <rect height="332.64" width="669.6" x="108" y="51.84"/>
  </clipPath>
 </defs>
</svg>
